<svg xmlns="http://www.w3.org/2000/svg" viewBox="0 0 320 320"><style><![CDATA[.B{fill:#4a418d}.C{fill:#1b1733}.D{fill:#010101}.E{fill:#fff}.F{fill:#4b408d}.G{fill:#fdfeff}.H{stroke-miterlimit:10}]]></style><path fill="none" stroke="#4b408e" d="M314.7 320H5.3a5.34 5.34 0 0 1-5.3-5.3V5.3A5.34 5.34 0 0 1 5.3 0h309.3a5.34 5.34 0 0 1 5.3 5.3v309.3c.1 3-2.3 5.4-5.2 5.4z" class="H"/><path d="M115.7 183.8c-4-3.7-7.5-6.2-13.4-9-9.5-4.6-18.7-6.8-31.2-3.8-17.1 4-15 22.7-14.5 25.3s1.7 12.1 5.2 19.3c3.5 7.1 9.5 16.6 9.5 16.6s4.1-22.9 16-28.9 24.9-2.7 32.9-1c7.6 1.6 15.8 5.3 15.8 5.3s-11.3-15.5-20.3-23.8zm-40.1 10.9L73 200l-2.8-5.1-6-.7 4.2-4.2-1.2-5.7 5.4 2.6 5.3-2.8-.9 5.7 4.4 3.9-5.8 1zm182.7.2c-.5-6-3.3-14.2-4.8-17.7s-4-12.1-14.8-12.3c-10.8-.3-23.1 6.9-25.1 8.1s-5.5 5.1-13.3 14c-7.7 8.8-5.5 23.9-5.5 23.9s7.9-7.6 13.2-10.8 7.9-4.4 23.3-6.4 27.9 11.1 27.9 11.1l-.9-9.9zm-18.2-11.2l-2.6 6-3.4-5.6-6.8-.5 4.5-4.9-1.6-6.3 6.2 2.6 5.8-3.4-.7 6.5 5.2 4.2-6.6 1.4z" class="F"/><path d="M161.2 221.4s1.3 22.6 6.3 37.3c2.1 6.2 15.4 33.2 20.7 37.7 0 0 7-11 11-29 1.8-8.2 2.8-18.2 2.6-28.8 0 0 2.1-14.2-20.3-24.1l-20.3 6.9z" class="G"/><path d="M197.7 320l-5-3.6-6 1.8 2.1-5.6-3.7-4.9 6.3.2 3.7-4.9 1.8 5.8 5.9 1.8-5.1 3.4zM114.6 62.8l-5.2-3.3-5.7 2.2 1.7-5.7-4-4.6 6.2-.2 3.3-5 2.1 5.5 6 1.5-4.8 3.7zM61.5 222.6s-36-23.4-39.6-42.5c-3.7-19.1 9.5-26.1 12.1-28 4.5-3.3 18.7-6.7 27.5-6.8s22.5.6 28.9 2.9c0 0-15.8-21.6-15.2-34.7s10.1-21.6 22.5-26c12.5-4.4 27.7-9.6 49.1-9.9 21.3-.3 37.8-.9 67 4.4s40.8 12.2 45.4 15.5c4.6 3.2 10.4 7 11.3 16.9s-11.3 21.6-18.9 27.4-13.4 8.2-13.4 8.2 25.6 2.6 40.2 6.4 20.4 13.5 20.4 13.5-14.9-10.9-41.1-12.6l-34.7-2s40.5-20.7 43.9-36.2-14.9-20.7-23.2-23c-8.2-2.3-29.7-10.8-56.5-14.1-15.9-2-35.5-4.3-80.3 4.8S82.8 127.5 84 129.5s18.3 24.5 18.3 24.5-30.7-9.3-62.7-.8c0 0-8.6 3.2-11.8 8.2-3.6 5.7-2.2 13.1-1.8 15.1.8 3.6 2.3 7.9 8.5 15.1 3.5 4.2 13.9 10.9 17 13.2 3 2.3 8.2 8.5 9.1 13.1l.9 4.7z" class="F"/><path d="M263.3 209.7l-1.2-7s16.9-7.8 19.7-9.9c4.5-3.4 9.9-6.6 16-16 0 0 2.6 7.1-10.1 18.4-3.9 3.5-11.2 8.4-17.7 11.5l-6.7 3z" class="G"/><path d="M162.7 222.5s1.2 21.3 5.9 35.3c2 5.9 14.6 31.4 19.6 35.6 0 0 6.7-10.4 10.4-27.3 1.7-7.8 2.6-17.2 2.4-27.2 0 0 1.9-13.4-19.2-22.8l-19.1 6.4zm34.7 96.8l-4.6-3.3-5.5 1.7 2-5.2-3.4-4.5 5.7.2 3.4-4.5 1.6 5.3 5.5 1.7-4.7 3.1zm66.3-110.4l-1.1-6s16.7-7.4 19.2-9.3c4-3.1 9.5-5.6 15-14.2 0 0 1.4 5.5-10.2 15.7-3.6 3.1-8.8 6.6-15 9.8-5.3 2.8-7.9 4-7.9 4z" class="F"/><path d="M143.7 212.7s-7.7 6.2-6.3 10.5 14.3 2.4 16.9 1.4c0 0-10.4.3-12.7-3s2.1-8.9 2.1-8.9z" class="G"/><path d="M142.7 213.8s-6.6 6.2-4.7 9.5c1.9 3.2 11.6 2.1 14 1.5 0 0-9-.1-11-2.9-1.9-2.7 1.7-8.1 1.7-8.1zM114.1 62l-4.6-3-5.1 2 1.5-5.1-3.6-4.1 5.6-.2 2.9-4.5 1.9 5 5.4 1.3-4.3 3.3zm.4 122.6c-3.8-3.6-7.5-6.4-13.2-9.1-9.2-4.4-17-6.7-29.1-3.8-16.4 3.9-15 22.1-14.6 24.6s1.5 11.5 4.9 18.4 8.3 15.1 8.3 15.1 4-20.6 15.1-26.9c11-6.2 23.7-4 31.5-2.3 7.3 1.6 15.8 5 15.8 5s-10.1-12.9-18.7-21zm-38.3 10.8l-3 6.1-3.2-6-7.3-.7 5.2-5-1.6-6.9 6.2 2.9 6.5-3.3-1.2 6.8 5.4 4.7-7 1.4zm180.4-3.1c-1-5.7-2.8-11.5-4.3-14.8s-3.2-11.3-13.5-11.6-22 6.4-23.9 7.5-6.9 5.9-13.8 14.8c-7.1 9.2-5.7 20.3-5.7 20.3s6.7-6.7 11.8-9.8c5.1-3 9.8-4.4 24.5-6.4s26.1 9.8 26.1 9.8-.2-4.1-1.2-9.8zm-16-8l-3.1 6.8-3.9-6.3-7.8-.6 5.2-5.3-1.8-7.5 7.1 2.7 6.7-3.8-.7 7.5 6 5-7.7 1.5z" class="F"/><path d="M196.2 192.9h-.2l.3-2.5-.6 2s0 .1-.1.1c0 .6-.1 1.2-.2 1.8.1-.1.3-.1.4-.2.1-.4.2-.8.4-1.2zm32.6-30.9l-5.1 2c-.3.1-.6.2-1.2.3l4.9-3.7-1.3.6-6 3.6c-1.1.6-2.3.9-3.5 1.3 0-.1-.1-.2-.1-.3.5-.2.9-.4 1.4-.7l7.9-4.2c.4-.2.7-.6 1.1-1-.5.3-1 .5-1.4.8l-7.7 4.1c-.3.2-.6.2-1 .2l3.3-2.2c-.4.2-.8.3-1.2.5-2.4 1.4-4.8 2.5-7.5 3.3-1.7.5-3.4.8-5.2.7-.5 0-1.1.1-1.2-.6 0-.2.1-.3.2-.4l-.6-7.3c-.1-1.9-.5-3.8.1-5.7.1-.2.1-.3.3-.8l.8 2.8c.1-2.1-.8-4.1-.1-6.2-.1-.7-.1-1.4-.2-2.2v-.6c-.1.5-.2 1-.5 1.5V144c0-.2.1-.5.2-.8.2.6.3 1.2.4 1.8v-.1l.7-2.4c0-4.2 2.2-15 3.6-17.3.4 1.1.7 2.1.6 3.1l.6-1.5s0-.1-.1-.1c0 .1-.1.2-.1.3-1.2-2.1-.8-4.8 1.1-7.3.2.7.4 1.4.5 2 .1-.3.2-.7.3-1.1-.4-1.1-.7-2.2-.1-3.3l2.4-5.2h.2l.6-3c-.1.2-.2.3-.3.4-.2.2-.3.5-.4.7-.4 1.8-1.4 3.3-2.3 4.9.6-2.7.3-5.6 2-8.1 0 .4.1.9.1 1.3 0-3.1 0-3.1.9-4.3.5.8.7 2.2.5 3.4.2-.7.5-1.4.8-2.1-.5-1-.7-2.7-.3-3.6l3.6-8.7v-.2c.2-1.4.3-2.8.5-4.2-.8 4-2.8 9.8-4.2 11.8-.6-1.5-.2-2.8.3-4.1-.1.1-.2.3-.4.4-.1 0-.1-.1-.2-.1.1-.5.1-.9.3-1.4 1.4-5 2.4-10.1 3.1-15.2.2-1.2.6-2.4 1-3.6h.4c.1.6.2 1.3.2 2 .2 3.1-.3 6.1-1.3 9-.3.9-.5 1.8-.8 2.8.5-1.2 1-2.5 1.5-3.8.1-.3.2-.6.4-1.1v.6c0-.2.1-.4.1-.6.3-1.6.5-3.2.7-4.9-.1-2.1-.2-4.1-.2-6.2 0-.8.4-1.5.7-2.4v.1-.2c0-.4 0-.8-.1-1.2-.1.3-.2.7-.4 1-.1.1-.2.3-.4.6-.9-6.4-1.2-12.7-1.6-18.9h.3c.1.1.2.2.2.4.8 3.9 1.8 7.7 2 11.7 0 .9.1 1.9.1 2.8.3-1.6.4-3.3.4-4.9 0 .2-.1.3-.1.4l-1.6-8.6c.7 1.9 1.6 3.8 1.8 5.7 0-.7.1-1.5.1-2.2-.1-.1-.1-.2-.2-.4l-2.1-6.4c-.4-1.1-.3-2.2.6-3.1.5 1.6 1 3.1 1.4 4.7.1.2.1.5.2.7 0-.6-.1-1.3-.1-1.9l-1.4-3.5-.3-5.8h.1c-.1-.2-.1-.5-.2-.7-1.6-5.3-3.5-10.4-6.4-15.1-.3-.5-.8-.9-1.2-1.3.1.2.1.3.2.5-.1.1-.2.1-.3.2-.3-.4-.6-.8-.8-1.2.1.3.2.5.2.8-2.2-1.5-3.4-3.5-4.4-5.6 0 0 .2-.2.3-.2l-3.6-4.1c-.3-.3-.5-.6-.9-1h.8c1 1 2 2.1 3 3.1.5.5 1 .9 1.5 1.5-.6-.9-1.1-1.8-1.6-2.8 0 .6-.3.3-.5.1l-3.4-3.6c-1.2-1.2-2.5-2.3-3.7-3.5l1.2 1.2c-.1.1-.1.2-.2.3-1.2-.7-2.5-1.4-3.7-2.2-5.7-3.6-11.8-6.2-18.7-6.7-1.7-.1-3.3-.2-5-.1-1.6.1-3.2.4-4.9.5L172 2c-.6 0-1.2-.2-1.8 0-2.6.9-5.2 2-7.8 3-.2.1-.5.1-.6.2-.9 1.3-2.3 1.8-3.6 2.5-2 1.1-3.9 2.4-5.5 4-.3.3-.7.5-1.1.7-.9 1.3-1.9 2.6-2.6 4-1.1 2-2 4.2-3.1 6.2-1 1.9-2 3.8-2.4 5.9-.2.8-.5 1.5-.8 2.2-.4-1.4.2-2.8.3-4.1-.2 1-.6 2-.7 3.1l-1.1 9.1c0 .4-.2.8-.3 1.4 0 0-.1 0-.1-.1a16.85 16.85 0 0 1 3.9 4.1s0 .1.1.1c.3.5.5 1 .7 1.5v.1c.1 0 .2 0 .2.1.2.3.4.6.4 1 1.5 1.5 2.8 3.2 3.5 5.2l.3.3v-.9c.2.3.4.5.6.7.3-.1.6-.3.9-.4h.1c-.9-.8-1.7-2-2-3 .6 0 .7.4.8.8.1-.1.1-.3.2-.4.6.5 1.1 1 1.7 1.5 0 0-.2.3-.3.4.2.2.3.4.5.6.6-.1 1.1-.1 1.7 0l.9.3c.9-.8 1.9-1.6 3-2.4-.1 1.2-.9 1.7-1.5 2.3-.3.2-.6.3-.9.4.2.1.4.3.6.4.1-.3.2-.6.3-.8a12.59 12.59 0 0 0 1 .3c.1 0 .3-.1.8-.3-.3.5-.5.7-.6 1-.1-.1-.2-.3-.3-.4-.2.1-.5.3-.8.4.2.2.4.3.6.5.3.3.5.6.8.9h2.6c1.1-.3 2.1-.4 3.1-.5.2-.4.4-.7.6-1l-2.5-3.6s.1-.1.1-.2c1.1 1 2.1 2 3.2 3 .2-.1.4-.3.7-.3 0-.3 0-.5.1-.8.3 0 .6 0 .9.1-.1.2-.1.3-.2.5.2 0 .4-.1.6-.1.1-.2.1-.3.2-.5-.3-.2-.6-.3-.9-.5 0-.6 0-1.1.7-1.1l.3 1.4c.1-.2.3-.3.4-.4-.1-.1-.4-.3-.4-.4.2-.4.5-.8 1-.6.2-.1.5-.2.7-.3.1.1.1.2.2.2-.5.6-1 1.2-1.5 2h1.2c.3 0 .6.1.9.2l.5-.5c-.1.2-.1.4-.2.5.3.1.5.2.7.3.2-.2.5-.4.8-.5.2-.1.4-.2.5-.2l1.2-.9c.1-.2.1-.3.2-.4 1-.8 2.1-1.5 3.3-2 .6-.7 1.3-1.4 2-2.1-.1 0-.2.1-.3.1 2.4-2.4 5.2-3.8 8.7-2.8a115.64 115.64 0 0 1 5.5 1.7c-.8-.4-1.7-.9-2.5-1.2-.7-.3-1.4-.5-2-.8 2.2 0 4.2.6 6.1 1.6l2.1 1.2c1.3.7 2.2 1.8 2.8 3.2 0-.2.1-.4.1-.8.4.3.9.5 1.1.9 1.3 2.2 2.3 4.5 1.9 7.3-.3 2.4-.8 4.8-1.4 7.1l.6-.6.3 4h.2c.3-.8.6-1.6.8-2.4-.2-1.8-.1-3.5.6-5.2.7 1.1.9 2.8.6 3.9-.1.4-.2.8-.3 1.3v.1c0 .5.1 1 0 1.5-.7 4.2-.9 8.4-.8 12.6 0 .2 0 .4-.1.6 0 .1-.1.1-.3.3-.4-.6-.8-1.1-1.1-1.7.2.6.4 1.1.6 1.8.2.3.4.7.5 1.1.8.4.6 1 .5 1.6-.4 1.9-.9 3.7-1.3 5.6-1.3 5.8-2 11.6-1.5 17.5.2 2.2-.4 4.2-1 6.3-.3.9-.9 1.6-1.4 2.5.3-.1.5-.3 1-.5l-3.3 12.1v-.3c-.4 1.4-.9 2.9-1.2 4.4-.1.4-.2.8-.4 1.1l.3-.3c-.2 1.3-.3 2.6-1.1 3.8-.3-.2-.5-.4-.7-.6a9.91 9.91 0 0 1 0 4.2c-.5 2-.6 4.1-1.7 6-.1.3-.3.5-.6 1v-.3c0 .1-.1.2-.1.3.1 1.1.1 2.1-.1 3.1.1 0 .2.1.4.1-.2-1.5.1-3 1.2-4.3l-.6 5.4c-.8.7-.4 1.6-.3 2.5.2 3.1 0 6.2-1.3 9.1 0 .1-.1.1-.1.2.2.5.3 1.1.3 1.9v1.3a.76.76 0 0 0 .2.4c0 .1 0 .2.1.3.6.4.6.9.1 1.8h-.1c.2 1.3.4 2.7.4 4 .3-.1.5.1.6.5.4 1 .8 2.1 1.1 3.2s.8 1.9 1.9 2.4c-1.4-1.7-2-3.6-2.4-5.7-.1-.6-.3-1.3.5-1.7 1.1-.5 2-.6 2.5 0l2.4 2.7c.2.3.3.8.3 1.1 0 2-.1 3.9-.2 6.1-.6-.8-1.1-1.4-1.6-2h-.2c.1.3.1.6.2 1-.2-.1-.4-.2-.5-.2.3.2.5.5.8.7.9.4 1.5 1.3 1.3 2.3l-1.2 8.1c-.1.5-.1.9-.2 1.4.2-.9.5-1.7.7-2.6.9-3.3 1.2-6.7 1.2-10.1v-4.4c.2-.1.3-.2.4-.3.1.2.2.5.2.7.4 1.4.9 2.8 1.1 4.2.1.9-.2 1.9-.3 2.9.3-.3.6-.6 1-.9.2-.5.4-1.2.7-2.1v-1.6c.9.7 1 .9.5 1.5.5.9 1.1 1.7 1.6 2.5.3-.5.7-.9 1.2-1.2-.6-1.2-.9-2.6-.5-4.3.5.3 1 .5 1.5.8.2.1.4.2.5.3 0-.3.1-.7.2-1l-1.2-.6c-.4-.2-.8-.6-1-.9l.6-2.3c-.2.3-.3.6-.5.9V168c.4 0 .7.1 1.2.1 0 .4-.1.8-.1 1.2.1-.3.2-.6.2-.9.9.1 1.7 0 2.6.2 3.8.5 7.2-.4 10.6-1.9 1.3-.6 2.7-1.1 4.1-1.6l8.9-3.6c-1 .1-1.7.3-2.3.5zm-8.1-88.4h.3l-.2 2.1h-.4c.1-.8.2-1.4.3-2.1zm-71.3-28.5l-.3-4.3h.2c.1 1.4.3 2.8.4 4.3h-.3zm13 6.4c.3.4.6.8.8 1.2-.1.1-.3.2-.4.3-.2-.4-.5-.8-.7-1.3.2-.1.3-.2.3-.2zm28.4 111.2c-1-.7-.4-1.3 0-1.9v1.9zm5.3-29.9c-.1-.4-.1-.6-.1-.7 0-.2.2-.3.2-.5.1 0 .2.1.2.1 0 .3-.1.6-.3 1.1zm7.7 20.4c-.7-2.7-.5-5.1.4-7.5.4 2.4.8 4.8-.4 7.5zm.3-14.1c.1.1.3.1.4.2l-.9 3.5c-.1 0-.2 0-.3-.1.3-1.2.6-2.4.8-3.6zm-.4-6c.1-.4.2-.8.3-1.1l.2.1c-.1.3-.2.7-.3 1.1-.1-.1-.1-.1-.2-.1zm.4-4.9c.1-.9.2-1.5.3-2.1a9.13 9.13 0 0 0 .8-1.3c.3 1.3.1 1.9-1.1 3.4zm1.3 8.3c-.1-.3-.2-.4-.2-.5.1-.3.2-.6.3-1l.2.1c0 .4-.1.7-.3 1.4zm.5 2.8c-.3-1-.3-1.2.3-2.5 0 .8-.1 1.6-.3 2.5zm.7-9c0-1.5 1.5-6.2 2.5-7.6-.5 2.7-1.1 5.2-2.5 7.6zm3.6-9.2c.3-1.7.6-3.4 1-5.1.7 1.5.4 2.8-1 5.1zm2-5.7c-.5-1-.2-1.7.5-2.4-.1.8-.3 1.6-.5 2.4zm1.7-9.5c.2-.8.5-1.6.7-2.6.3 1.2.2 1.4-.7 2.6zm1-59.8c-.1-.3-.2-.7-.3-1.1.1 0 .1 0 .2-.1.1.3.2.7.3 1.1 0 .1-.1.1-.2.1zm.4 26.8c-.6-2.3.1-4.6.3-7 .6 2.5 1.4 4.8-.3 7zm.8 28.7v-1.1h.3v1.1h-.3zm.9-31.3c.2-1.3.3-2.6.5-4 1.1 1.9 1.6 4.8.3 8.7-.6-1.6-1.1-3.1-.8-4.7zm1.9 10h-.4l.8-7.9c.2 2.5.3 5.2-.4 7.9zm.6-34.2l-.7-2.6c.9.7.8 1.7 1 2.6h-.3zm1.5 3.1c-.1.2-.2.3-.5.5-.1-1.2-.3-2.4-.4-3.6h.6c.3.9.7 2 .3 3.1zm-4.1-17.9c.3.6.5 1.2.8 1.8 1.5 3.1 3.1 6.1 3.5 9.6.1 1.1.1 2.2.2 3.5-.3-.1-.5-.1-.6-.2-.7-2.2-1.4-4.5-2.2-6.7-.5-1.4-1.2-2.7-1.9-4.1.2.5.3 1.1.5 1.6.6 1.6 1.2 3.1 1.7 4.7-.1 0-.2.1-.3.2-.2-.5-.5-.9-.7-1.4-.6-1.5-1.1-3-1.6-4.5-.2-.5-.2-.8.4-.8-1.1-1.6-1.3-3.5-1.8-5.6.5.3.8.5 1.1.6l-2-3c1.6.9 2.9 3.1 2.9 4.3zm-2.3-.2l-3.2-6c2.5 1.6 3.1 3.7 3.2 6zm-1 25.8v1.6h-.1l.1-1.6c-.1 0 0 0 0 0zm-3.6-.3c.2 1 .3 2 .4 3.1-.1 0-.3 0-.4.1l-.3-3.1c.1 0 .2-.1.3-.1zm-1.4 6.6c.2-.4.1-1 .2-1.5 0-.5.1-1.1.2-1.6.2 1.4.3 2.9.5 4.3.3-.5.6-1 .8-1.5.1-.3.2-.7.2-1 0-1.8-.1-3.6-.1-5.3 0-.5 0-.9.1-1.4.6 1.8.7 3.7.8 5.6 0 1.8 0 3.7.3 5.5.5-3.3.4-6.6.1-9.9.8 2.3.6 4.8.9 7.3h.3c.1-1.1.1-2.3.2-3.6.8 1.4.8 2.6.9 3.9 0 .7-.4 1.5.7 1.9.2.1.1.7.1 1.1-.2 2.4-.5 4.8-1.6 7.1-.7-.8-.7-.8-1.4-3.6-.1.9-.3 1.7-.4 2.6s-.1 1.7-.2 2.6c0 .4-.1.4-.9.8 0-.9-.1-1.7-.1-2.4v-4.4c0-1 0-2-.6-2.9-.3-.6-.2-1.5-.2-2.2-.2.8-.6 1.6-.7 2.4-.1 1.5-.1 3-.1 4.6 0 .5-.1 1.1-.4 1.6 0-.6-.1-1.1-.1-1.7 0-1.9-.1-3.8-.1-5.6.2-1 .1-1.8.6-2.7zm-1.2 3.1c-.2-2.4-.5-4.7-.7-7 .8 1.3 1.3 5.6.7 7zm-1.9-4.2c.6 2.2.8 4.4 0 6.7v-6.7zm.8 8.5c.3 3.7-.2 7.4-.8 11.1-.5-1.2 0-8 .8-11.1zm-.3-55.5c-.3-.1-.5-.2-.7-.2l-3.6-3c1.4.1 3.1 1.5 4.3 3.2zm-7.7-1.5c-.1.1-.1.2-.2.3a4.44 4.44 0 0 0-1.1-.8c.4.1.9.3 1.3.5zm-2.5-1.4c.3.2.7.5 1 .7-.4-.1-.8-.3-1.2-.4.1-.1.1-.2.2-.3zm-5.8 8.5c-1.1.2-1.6.1-2.4-.4.8.1 1.6.3 2.4.4zm-3.8-.7c.4.1.8.2 1.2.2h-1.2V20zm-2.4-1.6h-.8c0-.1-.1-.1-.1-.1l.9.1c0-.1 0 0 0 0zm1.1 1.1v.4c-.8-.1-1.5-.1-2.3-.2v-.4c.8.1 1.6.2 2.3.2zm-2.4-11.3h1.1v.1h-1.1v-.1zm1.8 12.6c-1.2.1-2.4.1-3.6.2v.2h1.8c1.4 0 2.7 0 4.1.1 2.1.1 2.7.4 5 2-.8-.1-1.4-.3-2.1-.3-.6-.1-1.3-.1-2 0 1.4.3 2.7.6 4.1.8l-.1.3c-.7-.1-1.4-.2-2.1-.4v.1c1.1.5 2.1 1.1 3.2 1.6 0 .1-.1.1-.1.2l-5.7-1.5c-.1.2-.2.3-.4.6.5.3.9.6 1.7 1.1-2-.1-3.6-.3-5.2-.2s-3.3.2-4.8.6-3 1.1-4.5 1.6c1.9-1.2 3.7-2.4 5.8-3.8l-4.6.3c.6-.4 1.1-.7 1.8-1.2-.8 0-1.5-.1-2.4-.1.6-.3.9-.6 1.2-.7 1.2-.5 2.4-1.1 3.6-1.6 1.8-.7 3.5-.5 5.3.1zm-8-9.4c.4-.2.8-.4 1.1-.6 0 .1.1.2.1.3-.3.2-.8.2-1.2.3zm2.1-2.4c0 .1 0 .2.1.3-.9.2-1.8.5-2.7.7 0-.1 0-.2-.1-.3.9-.2 1.8-.5 2.7-.7zm-2.3 2.5l-.9.6c0-.1-.1-.2-.1-.3.3-.1.6-.2 1-.3zm-18.5 1.3l1.2-1.2.3.3c-.1.8-.8 1.1-1.4 1.5l-1.4.7c.3-.9.7-1.2 1.3-1.3zm-6.4 5l.1.1c-.1.2-.2.4-.4.6-.1 0-.1-.1-.2-.1l.5-.6zm.8 30.1c.8.2.8.2.8 1.4-.3-.6-.5-.9-.8-1.4zm-.4-2.2c1.2.8 1.2.8 1.1 1.7-.3-.5-.6-1-1.1-1.7zm.3-5.2c.3.2.5.4.9.7v-.5c-.3-.6-1-1-.6-1.7.4.1.8.2 1.2.2-.4-.5-.8-1-1.1-1.6-.1-.2-.2-.8.5-.6-.2-.4-.3-.7-.4-1.1s.1-.6.4-.6c-.2-.5-.5-1-.7-1.6.1 0 .2-.1.3-.1.8.9 2.1 1.6 1.9 3.5-.4-.4-.7-.6-.9-.8.4.8.8 1.6 1.3 2.7-.5-.2-.6-.2-.8-.3-.1.2-.1.5-.2.7 1.1 1 1.1 1 1 1.9-.2 0-.4-.1-.7-.1v.3c.6.4.6.9.3 1.6-.2.5-.3 1-.4 1.4 0 .1-.1.1-.2.2-1.3-1-2-2.9-1.8-4.2zm3 3c.1-.4.2-.7.4-1.1.6.3.6.7.5 1.1l-.6 2.6c0 .1-.4.2-.6.2-.3-.6-.4-1.1 0-1.7.1-.3.1-.8.3-1.1zm-.5 3.7c-.1 1.1-.1 2.2-.2 3.3h-.3c-.3-1-.3-2.1-.1-3.2 0-.1.3-.1.4-.1-.1-.2-.2-.5-.4-.7.2-.1.4-.1.6-.2.5.6.5.7 0 .9zm2 2.5h.4c-.1 1.1-1.3 1.1-1.7 1.9-.7-1.1 0-1.4.6-1.7h-.8l-.1-.3c1-.7 2.1-1.1 3.3-1.5l-2 1.7c.2-.1.2-.1.3-.1zm.1-1.7l-.2-.3a23.07 23.07 0 0 1 1.9-1.4c-.2 1.1-1.1 1.2-1.7 1.7zm2.9-28.8c-.7.8-1.6 1.8-2.4 2.8-1 1.1-1.6 2.7-3.3 3.3-.3.1-.5.7-.7 1.1-.5 1.1-1 2.3-1.6 3.4.8-3.3 2.3-6.3 4-9.3-.4.4-.8.9-1.2 1.3-.3.3-.4 1-1.1.7-.1 0-.3.3-.5.5-.4.6-.8 1.2-1.2 1.7.4-1.7 1.4-3 2.4-4.4-1.2.9-2 2.2-3.1 3.4-.1-1.6.5-2.6 1.3-3.6 1.1-1.3 2-2.7 3.2-3.8 2.2-2.1 4.5-4 6.9-5.9l-2.4 2.5a.76.76 0 0 1 .2.4c.8-.2 1.6-.3 2.6-.5-.1.3-.3.5-.4.8.1 0 .2.1.3 0 .6-.5 1.1-1 1.7-1.5.4-.3.9-.6 1.5-.7l-3.9 4 .3.3 3.8-2.7c0 .1.1.1.2.2-.2.3-.5.6-.8.9.2 0 .3.1.4 0 .8-.4 1.6-.9 2.4-1.3.3-.2.6-.2 1-.2-3.4 2.1-6 5.2-8.9 8-.5-.6.6-1.2-.7-1.4zm3.7 29.2l-.9-1c.1-.1.2-.1.2-.2.3.3.6.7.9 1l-.2.2zm2.5-1.4c-.2.3-.1.8 0 1.2.1.5.3.9.3 1.5l-.5-.5c-.7-1-1.3-2.1-2-3-.4-.6-.5-1.1-.2-1.7.2-.5.5-1 .8-1.5a6.53 6.53 0 0 1 .7.8c0-.8-.6-2 .2-2.1.9-.1.2-1.3 1.2-1 .1 1.1.2 2.3.2 3.6-.2.1-.4.3-.7.4.4.8.7 1.5 0 2.3zm1.7 2.3c-.2-.2-.5-.3-.7-.5V46c.7-.2.9.2.9.6.1.8.1 1.7.1 2.5 0 .1-.2.1-.3.2zm-.6-4.2c0-.1.2-.3.4-.6.1.4.2.6.2.8 0 .1-.3.2-.4.2s-.2-.2-.2-.4zm.7-3c-1.1-.3-.4 1-1.1 1.6.2-1.4.2-2.5.5-3.6 0-.3.6-.4 1-.7-.1 1-.2 1.8-.4 2.7zm-.8-12.3c.1-.2.2-.3.2-.5.1-.2.2-.4.2-.6a1.38 1.38 0 0 1 .3.4c-.2.3-.4.5-.6.8 0-.1-.1-.1-.1-.1zm-.4-8.3c-.2.2-.6.2-.9.2-.6 0-.9.2-1.3.6-.8.9-1.7 1.6-2.8 2.6.1-1.2.9-1.7 1.4-2.7-.7.6-1.1.9-1.5 1.3-.5-.5-.6-.9-.1-1.5.3-.3.4-.7.6-1-.5.3-1 .6-1.6.9.3-1.4 3.5-5.1 5.7-6.7-.5 1.6-.5 1.6-1.4 2.6-.4.5-.7 1-1.1 1.4l3.8-2.9c.1.3.1.5.2.9 2.6-1.1 4.8-3.1 7.6-3.5-2.8 1.3-5.4 2.8-7.9 4.5l.2.3 5.2-2.4c0 .1.1.1.1.2-.4.2-.7.5-1.1.7-1.3.6-2.4 1.4-3.4 2.5-.4 1-1 1.5-1.7 2zm4 6.1c-.4.4-.9.7-1.3 1.1 0-.1-.1-.1-.2-.2.4-.4.8-.8 1.2-1.1.2.1.2.2.3.2zm-1.5 4.1c-.2.2-.3.4-.4.6l-.2-.2c.2-.2.3-.4.5-.5 0 0 .1 0 .1.1zm2.3 12.6c0 .3-.1.6-.2.8-.7 1-1.5 2-2.4 3-.1-1.4-1-2.7.2-4a.76.76 0 0 0-.4.2c.1-1.2.7-1.9 1.7-1.9.1 0 .1.2.2.3l1-1c-.1 1-.1 1.8-.1 2.6zm-.1-4.5c-.1.3 0 .8-.3 1-.4.4-1 .8-1.7 1 .3-.5.6-.9.9-1.4-.2 0-.4-.1-.6-.1-.3.2-.7.3-1.2.5.3-1.2.7-2 1.7-2.4.4-.2.6 0 .6.3.6-.6 1.3-1.2 2.2-2-.2 1.6-1.2 2.2-1.6 3.1zm1.7 1.1l-.2-.2c.5-.6.9-1.2 1.4-1.7.1.1.1.2.2.2l-1.4 1.7zm2.2-7.3c0-.5 1.1-.7.3-1.4 1.1-1.2 1.2-3.3 3.3-3.6.7-.1 1.5-.4 2.2-.6H179c2-1.2 4.2-1.6 6.6-1.4l-5 1.4c2.2-.2 4.3-.5 6.5-.7.7-.1 1.3 0 1.6.8-.2.1-.4.1-.9.3 1.7.1 3.1.5 4.5 1.6-1.3.1-2.3.1-3.1.2.7.3 1.6.6 2.5 1 0-.7.4-.6.8-.4.3.2 1 0 .7.7h-.1l3.1 1.9c-2.3-.6-4.5-1.9-7.3-1.9.8.5 1.4.9 2.1 1.3l-11 3.6c.3-.7.9-.9 1.3-1.2.5-.3 1.1-.5 1.7-.8-.1-.4-.2-.8-.3-1.4-1.6.3-3.2.5-5 .8.5-.5.8-.9 1.2-1.3 0-.1-.1-.2-.1-.2-1.1.6-2.2 1.1-3.4 1.7-.2 0-.4-.2-.6-.4zm18.5 7.3c-.7-.2-1.4-.4-2.1-.7-.2-.2-.5-.4-.9-.9 2 .1 3.4.9 4.8 1.8 0 .1-.1.2-.1.3-.6-.2-1.2-.4-1.7-.5zm.8.9c-.4.1-.6.2-.8.3-.2-.2-.3-.4-.5-.6.4 0 .8.1 1.3.3zm-11.1.3c-.8.3-1.5 1-2.2 1.6-.8.7-1.5 1.5-2.3 2.3-.4.4-.8.7-1.1 1.1l-.3-.2c.5-.6.9-1.2 1.3-1.7 2.6-2.9 5.6-4.9 9.5-5.4.5-.1 1 0 1.5.1.6.1 1.2.3 1.8.5.1.1.3.3.4.5-1.3.1-2.6.2-3.9.4-1.6 0-3.2.3-4.7.8zm9.9.8c-2.2-.7-4.4-.7-6.6-.7.7-.6 1.5-.8 2.3-.7 1.6.2 3.2.4 4.8.7 1.4.7 2.7 1.3 4 2.1.9.5.9.5 1.3 1.6-1.9-1.3-3.8-2.4-5.8-3zm3.5-10.4c.6.4 1.4.8 1.7 1.5-.6-.4-1.1-1-1.7-1.5zm7 .3a22.63 22.63 0 0 0-1.3-2c.1-.1.2-.1.3-.2a22.63 22.63 0 0 0 1.3 2c-.1 0-.2.1-.3.2zM197 17.9c.1.6.1 1 .2 1.6-.9-.2-1.7-.5-2.6-.7.2-.2.4-.3.7-.6-1.4-.6-2.6-1.2-4-1.9 1.9-.2 3.3.9 5 1.3-.2-1.3-1.4-1.2-2.2-2 .7.2 1.3.3 1.8.4.6.1 1.2.2 1.8.2-.8-.7-1.5-1.5-2-2.7.5.2.9.4 1.3.5.9.3 1.8.6 2.7 1 .3.1.7.3.9.5l4.4 4.2c.1.1.1.2.3.7-1.6-1.3-2.9-2.4-4.3-3.4-.1.1-.2.2-.2.3 1.1 1.1 2.2 2.1 3.3 3.2 0 .1-.1.2-.1.3-.3-.1-.5-.2-.8-.3a.9.9 0 0 0 .1.5c-.2-.1-.3-.1-.5-.2.5.7.9 1.4 1.4 2.1l-.2.2c-2.4-2.1-4.7-3.6-7-5.2zm6.9 38c.8.9 1 2.6.6 4.2l-.6-4.2zm1 13.5c.4 2.4.2 6.9-.4 8.5-.4-1.6-.2-6.3.4-8.5zm-.5 13.8c.3 1.9.8 3.9.3 5.8-1 3.9-1.5 7.9-2.1 12-.2 1.3-.5 2.6-.8 3.8h-.3c-.5-7.4.8-14.5 2.9-21.6zm-3.5 33.1h.2c-.2 1.2-.4 2.4-.5 3.6-.2.2-.4.4-.8.7.4-1.5.8-2.9 1.1-4.3zm-4.1 13.6c.1-1.9.9-3.6 1.5-5.4-.3.4-.6.8-.8 1.2l-.2-.1c.3-1 .7-2.1 1-3.1h.2l-.2 2c1.1-1.4 2-2.8 2.5-4.5.6.3.3.8.2 1.1-.5 2.2-1.3 4.2-2.4 6.2-.7.9-1.2 1.7-1.8 2.6zm1.2 1.4c.2-2 1.4-5.1 2.5-6.7-.1 2.3-1.1 5-2.5 6.7zm2.2 33.9c-.6-2-.5-4 0-6v6zm.7 9.4l-.3-.7c.1 0 .2-.1.2-.1.1.2.2.5.3.7 0 .1-.1.1-.2.1zm-1-33.7c0 .1-.1.1-.3.3-.1-.3-.3-.6-.3-.8l2.2-10.3c.2-.7.5-1.4.8-2.1 1.9-3.7 3.2-7.6 4.6-11.5.1-.3.3-.6.7-.9-.6 2.1-1.3 4.1-1.9 6.2-.5 1.4-.9 2.9-1.4 4.3-.3.7-.6 1.3-.8 2-1.1 4.3-2.4 8.6-3.6 12.8zm2.2 9.9h.3c0 .7-.1 1.4-.1 2h-.4c.1-.7.2-1.3.2-2zm.1 21c0-.3 0-.6-.1-.9h.2c0 .3 0 .6.1.9h-.2zm.7-11.1c-.2.5-.1 1 0 1.5.1 1.8.1 2.5-.4 3.5-.2-2-.9-3.9 0-5.9.3-.7.1-1.6.1-2.4v-4c.1 0 .2 0 .3-.1.1.3.3.5.3.8.3 2.2.5 4.4-.3 6.6zm1.5 6.2c-.9-.1-1.2-.5-1.1-1.2l.4-6.6c.8 1.3 1.1 5.6.7 7.8zm6.5 1.3c.9-.7 1.9-.7 2.8-.9l2.9-.6c-1.6 1.1-3.8 1.6-5.7 1.5zm-.3-147.3l-1.6-1 2.5 3c.1.1.1.2.2.2.1-.1.2-.1.2-.2l1.5 2c-.6-.9-1-2-1.7-2.8-.6-.7-1.1-1.4-1.6-2.1.3.4.4.6.5.9zm2 105.5l.8 6.9c.2-2.8-.2-5.4-.6-8-.1-.6-.4-1.2.3-1.6-.3-.2-.6-.4-.7-.6 0 .2-.1.4-.2.6-.1.1-.1.3-.2.4.2.5-.1 1-.1 1.5.8-.3.6.4.7.8zM153.4 10.9c.1-.5-.2-.4-.4-.2-.8.8-1.5 1.7-2.2 2.5-.6.6-1.2 1.1-1.9 1.7.2-.5.3-1 .7-1.3l4.6-4.6 4.1-3.2c.4-.3.9-.6 1.4-.9.2.3.5.6.7.8-.1.1-.1.2-.2.3-2.4 1-4.6 2.4-6.2 4.5-.1.1-.4.2-.6.4zm40.8-7c-.3.1-.5.3-.8.4l-3.6-1.5-2.5-.8c-3.2-.8-6.4-.8-9.7-.6l-4.5.3c1.1-.2 2.2-.6 3.2-.6l8.8.2c.6 0 1.2-.2 1.8 0l7.2 2.4c.1.1.1.1.1.2zM181.7.1h-5.2V0h5.2v.1zm23.5 11.2l-1.9-1.9-.9-1.1c1 .9 2.2 1.6 2.8 3zm-5.7-5c-1.2-.3-2.4-.8-3.2-1.7l3.2 1.7zm16.1 111.6c0-.5 0-1 .1-1.5h.1v1.4c-.1.1-.2.1-.2.1zm-1.7 16.8c0 .3-.1.6-.1.9 0-.3-.1-.5-.1-.8.1-.1.2-.1.2-.1zM148.4 15.3l-.9 1.9.9-1.9z" class="C"/><path d="M221 162.8l1.5-.9c-.5.2-1 .5-1.5.9zM195.9 4.5l-1.7-.6c.5.1 1.1.4 1.7.6z" class="D"/><path d="M174 .7l-.9.3c0-.1 0-.1-.1-.2l.9-.3c.1.1.1.2.1.2zm39.8 123v-1.2h.3c-.1.3-.2.7-.3 1.2zM145.7 20.9l-.6 1.7.6-1.7zm49.6 173.4c-.1.6-.1 1.2-.2 1.9h-.3c.2-.7.4-1.2.5-1.9 0 .1 0 0 0 0z" class="C"/><path d="M198.9 177.5v-1 1z" class="D"/><g class="C"><path d="M199.6 181l-.6.9-.2-.2c.3-.2.6-.4.8-.7zm-2.4-134.2L200 49c.1-.1.2-.3.3-.4 1.1 1.7 1.2 3.6 1.2 5.4l-.2 8.6v1.5c.3-.2.4-.3.5-.5l-.4 1.6c-.1.7-.4 1.4-.4 2.1 0 3.2 0 6.4 1.2 9.5.1.2.1.5.1.7-.4-.9-.9-1.8-1.1-2.8l-.7-5c-.5-2.9.4-5.8.4-8.7l-.1-8.3c0-1.8-.8-3.3-2.2-4.5-.4-.3-.9-.8-1.4-1.4z"/><path d="M193.8 44.7c1.3.4 2.5 1.1 3.4 2.2l-3.4-2.2zm37.9 116.7c.9-1 2.2-1.4 3.4-1.7l-3.4 1.7z"/></g><path d="M198.8 113.9l-1.6 2.2 1.6-2.2z" class="D"/><path d="M227.7 160c.9-1.1 2.1-1.8 3.4-2.2-1.1.8-2.3 1.5-3.4 2.2z" class="C"/><path stroke="#fff" stroke-width=".452" d="M202.7 80c-.2 0-.4.1-.6.1-.4.2-.9.3-1.4.3l-1.8.6-5.6 1.4c-.4.1-.8 0-1.4 0 .5-1.3 1.5-2.1 1.5-3.6l-.9.5s0-.1-.1-.1l.3-.3c1-.5 1.4-1.3 1.4-2.5 0-2.2.8-4.3 2.2-6.1l1.5-2.1-9 3c-.7.2-1.3.7-2.1 1.1-.1-.4-.1-.7-.2-1-.1-.2-.4-.4-.6-.6.5-1.1 1.6-1.9 1.9-3.3-.3 0-.5 0-.6-.1.2-.7.6-1.5.7-2.2.3-2.2 1.2-4.2 2.3-6.1.3-.5.6-1 .7-1.6-3.4 1.3-7.1 1.5-10.2 3.6-.3-1 .2-2.3-1-2.8.3-.7.6-1.4.9-2 .2-.5.3-1.1-.2-1.5.1-.7.3-1.5.3-2.2-.1-2.3.2-4.4 1.2-6.5.3-.5.5-1.1.6-1.8-.1 0-.2.1-.3.1-.9.5-1.8 1.1-2.8 1.4-.3.2-.7.4-1.1.5l-.1.1a4.49 4.49 0 0 1-1.8.7c-.2.1-.5.2-.7.4-.1.1-.2.1-.3 0-.1.1-.2.1-.3.2h-.2l-.1.1c-.4.3-1.6.9-2.5 1.1-.3.2-.6.3-.8.5-.1.1-.3.1-.4 0-.3.1-.6-.1-.6-.4-.1-.1-.1-.3 0-.4-.1-.1-.2-.4 0-.5a.47.47 0 0 1 .1-.6c0-.1 0-.2.1-.3 2.1-2.3.3-4.7 1.3-7.2.6-1.7 1.7-3.1 2.8-4.5-1.4.2-2.8.3-4.2.5-2.7.5-3.8 1.7-5.8 3.2-.3.2-.5.3-.8.5-1.9 1.9-3 4.5-3.5 7.1-.1.3-.6.4-.8.1-.5-1.2.5-2.3.3-3.6-.2-1.5-.7-3.2-1.6-4.5-.1-.1-.1-.2-.1-.3-.2 0-.4-.2-.4-.5l-.1-.1c-1.3-1.1-2.5-2.5-3.6-3.5-.4-.3-.8-.5-1.2-.9-.2-.2-.4-.4-.5-.6-.1 0-.2-.1-.3-.2s-.2-.2-.3-.2c-.4-.1-.8-.3-1.2-.4h-.3v.1c0 2.5-.4 5-.7 7.4-.2 1.7-.4 3.4-.9 5v.2c.1.1.1.2.1.4l-.3.9c0 .1-.1.1-.1.2.1.2 0 .6-.4.6-.2 0-.3-.1-.4-.2-.1 0-.2-.1-.2-.2-.4-.9-1-1.6-1.5-2.4-.3-.6-.5-1.3-1.1-1.9-.5-.5-1.2-.9-1.9-1.2l-.2-.2c-.2 0-.3 0-.5-.1-.3-.1-.5-.2-.8-.3-.5-.1-1-.4-1.4-.7-.8-.3-1.5-.6-2.2-.9-.9-.5-1.7-1.1-2.9-1.7.3.6.4.9.5 1.1.9 2 1.7 4.1 1.7 6.3 0 1.7.5 3 1.6 4.2v.4c-.7-.7-1.4-1.2-2-1.8-.1 0-.1 0-.2.1.3 1.1.6 2.2 1 3.3-.6.8-.8 1.8-.8 2.8 0 1.1-.6 2.2-1.4 3 .2-.5.3-1 .5-1.4.8-1.4.3-2.6-.7-3.7-1.7-1.7-3.7-2.6-6-3.2-2.1-.5-4.1-1-6.2-1.6-.3-.1-.6-.2-1.2-.3.5.7.9 1.2 1.3 1.7 1.2 1.4 2.2 3 2.6 4.8s.8 3.4 2.9 4l-.3.3c-.8-.4-1.5-.8-2.3-1.1 0 .1-.1.1-.2.2l1.6 2.2v2.9c-.3-.2-.4-.3-.5-.4-1.9-2.5-4.4-3.8-7.5-4.2-1.7-.2-3.4-.7-4.9-1.6-.1-.1-.3 0-.5 0a37.21 37.21 0 0 1 1 1.6c1.3 1.9 2.5 3.9 2.9 6.2.2 1 .6 1.5 1.5 1.9.8.4 1.8.8 2.4 1.6-.1.1-.1.2-.2.3l-3.3-1.8-.2.2 1.8 3c-.2.6-.4 1.1-.5 1.5-1.4-.8-2.7-1.8-4.1-2.3-2.7-.8-5.5-1.3-8.4-1.9.2.3.2.5.3.6 1.8 2.2 3 4.5 3.6 7.3.2.8 0 1.7.5 2.3.5.8 1.1 1.5 1.6 2.2.1.1.2.3.3.4h-.8c-.1.5-.2.9-.3 1.5-3.6-2.2-7.7-2-11.7-3.2.6.8 1 1.3 1.4 1.9 1.2 1.6 2 3.3 2.3 5.2a2.47 2.47 0 0 0 1.4 2c.8.5 1.6 1 2 1.9l-3-1.7c.7 1.7 1.8 2.8 2.9 4.2-.6-.1-.9-.2-1.3-.3-.2 1.6.4 2.5 1.7 3.1.9.4 1.5 1 1.8 1.9s.9 1.7 2 1.8c-.1.3-.2.5-.3.6-1.2 1.2-1.3 2.7-1.1 4.3v.9c.2 1.5-.1 2.9-1.3 4-.6.5-.9 1.2-.6 2 .2.6-.1.9-.5 1.3-1.7 2-1.7 2.3 0 4.1.2.2.6.4.7.5 0 .6-.2 1.1 0 1.4.6 1.3.3 2.6-.2 3.8-.1.3-.2.7-.3 1-.6 3.3-.3 6.5 1.9 9.3.6.7 1.1 1.5 1.5 2.3.3.6.6 1.2.9 2 0 .1.1.2.1.2.1.3.2.6.2.9.1.2.1.3.1.6 0 .1.1.1.1.2v.2a34.53 34.53 0 0 1 .7 3.1.76.76 0 0 1 .2.4c.3.3.5.8.6 1.2 0 .1 0 .2.1.2 0 0 0 .1.1.1l.5.5c.1.1.2.1.3.2.2.1.3.2.5.3.3.2.6.4 1 .7 1.4 1.1 2 2.7 1.1 4.3-.5.9-1.6 1.5-2.6 1.6l-.6.6c-.1.2-.1.4-.2.6 0 .6-.2 1.2-.4 1.8-.4.7-1.2 1.3-1.9 1.5l-.6.9c-.2.2-.3.3-.6.4v1.8c.5.8.6 1.9.3 2.8.1 0 .2-.1.3-.1-1.2 2.2-1.1 4.1.8 5.6-.1 1.3-.3 2.5-.4 4 .1.2.2.5.3.7.1-.1.2-.2.3-.2.4.3.7.6 1.1.9-1 2.8-.6 4.1 1.8 5.5 0 1.1-.2 2.2 0 3.3s1.2 1.7 2 2.1c.2 1.3.2 2.5.6 3.5.4 1.1 1.6 1.5 3 1.7-.1.3-.3.7-.4 1 0 .8.3 1.6.6 2.3.9.5 2 1.1 3.3 1.7 0 .4.1.9.1 1.7.1.2.1.4.1.6.1.3.4.5.7.6 0 0 .1 0 .1.1.2 0 .3 0 .4.2l.1.1c.6.2 1.1.5 1.6.9-.1 1-.1 2.2.8 3.2.8 1 1.9 1.3 3.2 1.4.3 1.1.1 2.5 1.2 3.1.9.6 2 .9 3.3 1.5.1.8.4 1.9 1.4 2.7s2.1.9 3.2.7l1.5 3.2c-.7.3-1.6.6-2.6 1 .5.3.8.5 1 .6 1.7.9 3.4 1.7 5.2 2.6.4.2.8.5 1 .9.7 1.3 1.2 2.6 2 4.2-.3-.1-.7-.2-1-.3.1.2.1.4.2.6.9.3 1.7.8 2.3 1.7 1.6 2.1 3.7 3.6 6 4.8.7.4 1.6.5 2 1.4.2.4.9.6 1.5.7-.1-.2-.2-.5-.3-.9l1.7.3c1.6.5 3.3.6 5 .8.4 0 .8.2 1.1.4.4-.2.9-.3 1.5-.3h.2c1.6-.7 3.5-.9 4.1-.6.3-.3.6-.8.9-.9 5.6-2 8.1-6.5 9.4-11.8a3.47 3.47 0 0 1 1.2-1.9c2-1.8 4.1-3.5 6.5-4.7.3-.2.5-.5.8-.8 0-.1-.1-.2-.1-.3h-4.5c.1-.9.3-1.5.3-2.2 0-.4-.2-.7-.2-1.1-.1-.2-.1-.3-.2-.4 0 0-.1 0-.1-.1l-.2-.2c-.2 0-.3-.2-.3-.3-.1 0-.2 0-.3-.1 2-1.7 2.6-3.4 1.2-5.5 1.3-1.1 2-2.4 1.5-4.2-.2-.4-.1-.5-.4-.9-.2-.2-.2-.4-.6-.6 1.9-1.8 1.9-3.6.3-5.6 1.9-1.7 2.2-3.6.6-5.7 1.4-1.9 1.5-3.8 0-5.7 1.2-1.6 1.3-3.3.4-5-.2 0-.4-.2-.4-.4-.3 0-.6-.4-.3-.7.5-.4.9-1.4 1-2.3-.1 0-.1-.1-.2-.2-.1-.3-.1-.6-.1-1-.7-.6-1.1-1.1-.8-2 0-1.1.3-2.1.1-3.2-.6-.8-1.1-1.5-1.6-2.3 1.3-2.1 1.2-4-.7-5.3.1-1.2.3-2.3.2-3.3-.1-1.1-.9-1.9-2-2.3 0-.9.1-1.7.2-2.5 0-.2.2-.5.4-.6 1.6-1 2.4-2.6 2.8-4.4.6-2.6 2.1-4.7 3.8-6.7.1-.2.4-.2.6-.3 0-.1.1-.1.1-.2.3-1.2.9-2.1 1.7-3 .2-.4.4-.8.5-1.1 0-.1.3-.8.3-.8.2-.4.3-.8.4-1.2 0-.2.1-.4.1-.6v-.4c0-.4.1-.7.2-1v-.1c0 .1-.1.2-.1.3-.2-2-.3-3.9-1-5.7-.1-.3 0-.7 0-1.1-.4-.2-.8-.5-1.3-.8.2-.3.3-.6.5-.7 1.4-1.1 1.8-2.4 1.7-4.2-.1-1.4.1-2.7.3-4.1.2-1.3.3-2.4-1.5-2.8.7-.9 1.3-1.5 1.9-2.2 1.2-1.4 1.2-2.1.1-3.6-.4-.5-.8-.9-.7-1.7.2-.9.7-1.3 1.4-1.7 1.2-.7 1.7-1.9 1.6-3.2 0-.3-.3-.7-.5-1.1.5-1.1 1.6-2.1 1.9-3.8-.4.3-.7.4-.9.6 0 0-.1-.2 0-.2.6-.4.5-1 .6-1.6.2-2.5 1.1-4.7 2.7-6.7.1-.2.3-.3.4-.4 0-.1.1-.1.2-.2 0-.1.1-.2.1-.3-.3.2-.4.2-.4.2zm-4.6 2.3c0 .3.1.5.1.7-.5.2-.9.4-1.5.7 0-1 .6-1.2 1.4-1.4zm-3.6 1.6c.4-.5 1.2-.6 1.9-.9.1 1.6-1.3 2-1.9 3-.1 0-.3-.1-.4-.1.1-.8 0-1.6.4-2zm1.5 9.3c-.7.6-1.2 1-1.7 1.4l-.3-.3c.3-.3.6-.5.9-.8-.1-.1-.3-.2-.4-.3.3-.2.5-.4.8-.5 0 0 .1 0 .2.1-.1.2-.2.3-.3.5h.8zm-1.8-2c-.2 1.8-.6 3.6-2.2 5.2.1-.7.1-1 .2-1.3.3-1.6.5-3.2.8-4.8.2-1.4.5-2.8 1.7-3.9-.2 1.8-.3 3.4-.5 4.8zm-6.5-.5c.3.8-.1 1.3-.6 1.8-.4-1.1-.4-1.1.6-1.8zm-1.2-.6c-.8-.9.3-1 .5-1.5.6 0 .9.2.5.8-.2.3-.7.5-1 .7zm.5-1.5c-.4 0-.9.7-1.3-.3.7-.3 1.4-.5 2.1-.8.1.1.2.3.3.4-.3.2-.7.5-1.1.7zm1.3 5.6c.1.2.2.5.3.7l-.2.1c-.1-.2-.3-.4-.4-.6 0-.1.1-.2.3-.2zm-2.7-6.9c0-.1-.1-.2-.2-.3.6-.3 1.1-.6 1.7-.8.7-.3 1.4-.6 2.1-.8-.6.1-1.1.3-1.7.4 0-.1 0-.2-.1-.3 1.1-.4 2.2-.9 3.6-1.4-.5.6-.8.9-1.1 1.3v.4c-1.4.7-2.9 1-4.3 1.5zm-4.7-11.5c-.2.1-.5 0-.5-.2-.1-.2-.1-.5 0-.7.2-.3.5-.7.8-.9 1.3-.6 2.6-1.1 4-1.6-.5 2.5-2.5 2.8-4.3 3.4zm.6 1.9c-.2-.3-.4-.6-.7-1 .5-.2.9-.4 1.4-.6.1.8-.2 1.1-.7 1.6zm-.4-5.3c.1.1.2.1.3.2-.3.5-.6 1.1-1.1 1.9-.1-1.2.5-1.5.8-2.1zm.3-1.1v.1c-.1.3-.2.6-.3.8-.1-.1-.3-.1-.3-.2-.1-.5.1-.7.6-.7zm.9-2.9c-1-.8-1-.8-.4-1.7.9.3.4 1.1.4 1.7zm-.4-2.3c0-.1.2-.4.3-.4s.3.2.5.3c-.2.2-.3.4-.4.4-.1-.1-.4-.2-.4-.3zm.8 4.8c.6-.4 1.2-.6 2-.6-.4.4-.8.9-1.2 1.3 0 1-.8 1-1.2 1.5l-.3-.3 1.1-.9c-.7-.3-.8-.7-.4-1zm.9 6.8h-.3c0-.3-.1-.6-.1-.9h.3c0 .3 0 .6.1.9zm.2 3.2c0-.1-.1-.3-.1-.4.1 0 .1-.1.2-.1l2.4 3.2c.3.5 0 .8-.5 1.1-.5-.8-.9-1.6-1.4-2.3-.2-.3-.4-.6-.7-.9-.2 0-.5 0-.6-.1-.2-.6-.4-1.3-.3-2 .3.4.7.9 1 1.5zm1.9 3.8c0 .4 0 .7-.1 1.3-1-.7-1.3-1.5-1.6-2.5.7.4 1.2.8 1.7 1.2zm4.7-2.4c-.6 1.1-.7 1.1-2 1.8-.1-.9.6-1.2 1.1-1.6h-.6c.3-.7.9-.6 1.4-.8-.1.3-.2.5-.3.6h.4zm-1.8-4.6c-.6-.7-.6-.7.4-1.1-.1.5-.2.8-.4 1.1zm0 .1c.1.4.1.8.1 1.2-.2-.1-.4-.2-.5-.3-.2-.2-.3-.4-.4-.6.3-.1.6-.2.8-.3zm.2 1.2l-.3 1.4c0-.1-.1-.1-.2-.2-.4-.2-.9-.3-.8-.9.3-.7.9-.2 1.3-.3zm-.3 1.5c-.2.4.4 1.3-.7 1.1-.3-.3-.6-.5-.4-.9.2-.6.7-.3 1.1-.2zm-.7 1.1c.4.8.4.8-.6 1.1-.1-.5-.1-.9.6-1.1zm-.3 2.4c0 .1-.1.2-.2.4-.1-.1-.3-.2-.4-.3 0-.1.1-.3.2-.7.2.3.4.4.4.6zm2.9 7.5c-.7-.7-1.3-1.5-1.4-2.6.9.6.9 1.7 1.4 2.6zm.8 2.3c.9 1 .9 1.3-.2 2.6-1.2-1.4-1.7-3.1-2.1-5 .8.9 1.6 1.6 2.3 2.4zm-1-6.5c.1 0 .2 0 .3-.1l1.8 5.1c-1.2-1.4-2.1-3.1-2.1-5zM192 86c0-.8.1-.7.8-1.1.4-.2.6-.6 1.1-1.1.3 1.7.2 3-1 4.4-.1-.7-.2-1.3-.3-1.8-.2.1-.3.2-.5.3.2.7.2 1.5.5 2.2.2.7.2 1.3-.3 2.1-.8-1.5-.9-3-.8-4.6 0-.1.3-.3.5-.4zm.7-8.8a20.24 20.24 0 0 1-3.4 3.2c-.5-.7.1-1.1.4-1.5-.6-.7-.6-.8.4-1.5-.2 0-.5 0-.8-.1.4-1.4 1.4-1.4 2.4-1.5.3-.1.7-.2 1.1-.3l.2.2a6.42 6.42 0 0 1-1 1.3c.2.1.3.1.7.2zm-2.9-5.3c1.1-.5 2.2-.8 3.6-1.1l-.4.8c.7-.3 1.3-.7 2.2-1.1-.2.8-.5 1.4-1.1 1.8-.7.5-1 1.1-1.4 1.7h.6c-.4.9-.4.9-1 .5l-2.1 1.4c.1-.4.1-.7.2-.8 1.3-.8 1.4-2.4 2.5-3.3-.6.5-1.2 1.4-1.8 1.5-1 .1-.9 1.3-1.9 1.4-.5.1-.3 1.4-1.4 1.3 0-.2-.1-.3-.1-.5-.4-2.6-.4-2.5 2.1-3.6zm-2.5 1.5c-.2 1.7.3 3.2 0 4.8-1-1.5-1-3.4 0-4.8zm-1 .8V76c-.6-.8-.6-.8 0-1.8zm.5 6l-.6-.3.6 1.3c-.1 0-.2.1-.3.1-.9-1.4-1.3-3.1-1.6-4.7 0-.3.2-.6.3-1.1.3 1.1.6 1.8.8 2.6-.1-.3-.1-.6-.2-1 .9 1 1.2 1.9 1 3.1zM185 66.7h.9c-1 .9-1.8 1.7-2.8 2.6-.5-1.2.7-1.3.9-1.9-.3.1-.5.3-.8.4-.4-.8 0-1.2.5-1.6-.5-.3-.6-.6-.2-.8.6-.3 1.2-.6 2.1-.9-.1.4-.2.6-.2.8.3-.2.7-.4 1.2-.7-.1 1.3-1.2 1.4-1.6 2.1zm1.2-2.7l-.2-.3c.3-.2.5-.4.8-.6l.2.2c-.3.2-.6.5-.8.7zm-5-2.1c0-.2.3-.4.5-.5 1.1-.4 2.2-.9 3.3-1.2.1 0 .3.2.5.3.5-.3 1-.8 1.5-.8.7-.1 1.3-.1 1.8-.6-.8 2.2-2.1 3.8-4.6 4.5.2-.4.3-.6.5-.8s.3-.4.4-.5c-.1-.4-.2-.7-.3-1-.7.8-1.5 1.6-2.4 2.6-.2-.7-.3-1.1-.3-1.4h-.2v2.2c-.7-.8-.7-1.8-.7-2.8zm.1 6.6c.2-.2.6-.1 1-.1v.8c.1.5-.1.6-.5.5 0-.1-.1-.1-.2-.2-.4-.3-.7-.7-.3-1zm.5 1.3l.3 1.2c0 .5-.3.4-.6.2-.7-.7-.7-1 .3-1.4zm-1.7-6.8c.3 2 1.6 3.7.3 5.8-.3-.4-.5-.8-.8-1.1-.1.2-.1.4-.2.6-1.1-1.4-1.3-2-1-3 .4.8.8 1.6 1.2 2.5-.1-.4-.3-.9-.4-1.3-.4-1.6-.4-1.6.9-3.5zm-.3 10.3c-1-.9-1.4-2-1.8-3.2.4.5.8.9 1.1 1.4s1.1.8.7 1.8zm-.3-13.4c.4.6.1.9-.2 1.1-.8.6-1.7 1.1-2.5 1.6.2 0 .4.1.5.1-.1.1-.2.3-.3.4 0 .1.2.4.1.4-.9.7-1.8 1.3-2.9 1.6l-.2-.3c.5-.3.9-.5 1.4-.8l-.4-.4c.4-.4.8-.7 1.2-1.1 1.1-.9 2.2-1.8 3.3-2.6zm-2.6 6.1l-.3-.3c.1-.2.2-.3.3-.4l.3.3c-.1.1-.2.2-.3.4zm.3 3.3c-.1 0-.1.1-.2.1-.1-.2-.3-.5-.4-.7.1 0 .2-.1.2-.2.1.3.3.6.4.8zm-2-2.6c-.3-.6-.8-1.1.4-1.4.2 1 .2 1-.4 1.4zm.4-8.6c.5.5.7 1 .2 1.6-1.1-.7-1.2-.9-.2-1.6zm.2 1.7c-.1 1-.2 2.1-1 3.2l.3-3.2h.7zm-.2-1.7c-.1-.1-.1-.2-.2-.2-.6-.2-.7-.7-.5-1.2.2-.7.7-.3 1.1-.2 0 .4 0 .8.1 1.1 0 .4-.2.6-.5.5zm-.9-2.3c.2-.6.4-1.2.6-1.9h.2c.1.9.3 1.7.4 2.6-.3-.2-.7-.4-1.2-.7zm2.4-3.1c.5-.1.6.2.5.6l1.6-1.6c.1.1.2.1.3.2-.2.4-.3.8-.5 1.2.9.2.5.8.2 1.1-.8 1.1-1.6 2-2.5 3.2-.3-.8-.6-1.4-.1-2-.7-.5-.1-1 0-1.5-.3-.8-.1-1.1.5-1.2zm-.3 7.2c-.1-1.1-.1-1.1 1.1-1.6l.3.3c-.4.4-.8.7-1.4 1.3zm1.3-.5c-.5.5-1 1-1.5 1.6l-.3-.3 1.5-1.6c.1 0 .2.1.3.3zm0-2.2c-.1-.1-.2-.1-.2-.2.7-.7 1.5-1.4 2.2-2.1-.2 1-1.2 1.5-2 2.3zm-5.9-3.8c-.2-.8-.1-1.4.7-1.9.1.6.1 1 .2 1.4h.1l.3-1.7c.1-.5.1-1.1.5-1.4 1.8-1.3 3.7-2.5 5.9-3l.1.1c.2.2.5.4.5.5-.3.7-.7 1.4-1.1 2.1-.2.4-.3.8-.5 1.1l.5-.4c.1.1.2.2.2.3-.4.4-.8.8-1.2 1.1l-.2-.2c.2-.2.3-.4.5-.6-.6.3-1.1.6-2 1.1l1.6-3.1c-1.7.9-2.6 2.4-3.5 4l-.4.4c-.1-.5-.1-.9-.2-1.3h-.1v4.5c-.2-.2-.3-.4-.5-.5-.2.1-.4.2-.7.3.5.8 1.3 1.6 1.4 2.9-.3-.3-.6-.5-.7-.7-.8-1-1.5-2-2.2-3.1-.5-.6-.2-1.3.8-1.9zm-.9 3.4l.4.5-.1.1-.5-.4c.1-.1.2-.1.2-.2zm.1 1.8l1.2.9c.5.4.9.8 1.4 1.2.3.3.6.6.1 1.2-.8-.8-1.6-1.5-2.4-2.2-.8-.3-.8-.3-1.1-1.5.3.2.5.3.8.4zm2.5 4.3c-.3-.3-.7-.5-1.1-.8.1-.1.1-.2.2-.3.5.2 1 .3.9 1.1zM170.6 51c-.6 1.8-2.6 3.3-4.7 3.7.3-1 .6-1.9 1.9-1.9.3 0 .6-.3.9-.5.2-.8.8-.9 1.4-.9.2 0 .3-.1.5-.4zm-3.9-4.4c.1.8.1 1.7.1 2.5 0 .1-.2.1-.4.2-.2-.2-.5-.3-.7-.5V46c.7-.2.9.2 1 .6zm-.8-1.5c0-.1.2-.3.4-.6.1.4.2.6.2.8 0 .1-.3.2-.4.2s-.2-.2-.2-.4zm.9 5.8c-.3-.2-.7-.3-1.1-.5 0-.6 0-1.1.7-1.1.2.6.3 1.1.4 1.6zm-.9 0c.3 0 .6 0 .9.1-.3.9-.6 1.8-1 2.6-.1 0-.1 0-.2-.1l.3-2.6zm1.4-6.6c.1-1.2.7-1.9 1.7-1.9.1 0 .1.2.2.3l1-1v2.6c0 .3-.1.6-.2.8-.7 1-1.5 2-2.4 3-.1-1.4-1-2.7.2-4-.2.1-.4.1-.5.2zm.3 5.7c.2-.4.5-.8 1-.6.2-.1.5-.2.7-.3.1.1.1.2.2.2l-2.3 3c-.2-1.1.3-1.5.8-1.9-.1-.2-.4-.4-.4-.4zm1.2-11.5c.4-.2.6 0 .6.3.6-.6 1.3-1.2 2.2-2-.2 1.5-1.2 2.1-1.6 3-.1.3 0 .8-.3 1-.4.4-1 .8-1.7 1 .3-.5.6-.9.9-1.4-.2 0-.4-.1-.6-.1-.3.2-.7.3-1.2.5.3-1 .7-1.9 1.7-2.3zM166 40c0-.3.6-.4 1-.7-.1 1-.2 1.8-.4 2.7-1.1-.3-.4 1-1.1 1.6.2-1.3.2-2.5.5-3.6zm-3.6 4.6c.2-.5.5-1 .8-1.5a6.53 6.53 0 0 1 .7.8c0-.8-.6-2 .2-2.1.9-.1.2-1.3 1.2-1 .1 1.1.2 2.3.2 3.6-.2.1-.4.3-.7.4.3.7.6 1.4 0 2.2-.2.3-.1.8 0 1.2.1.5.3.9.3 1.5l-.5-.5c-.7-1-1.3-2.1-2-3-.4-.5-.5-1-.2-1.6zm2.8 7.4c-.1.4-.2.8-.3 1.5l-3-4.4s.1-.1.1-.2c1 1.1 2.1 2.1 3.2 3.1zm-3.5-4.9c.3.3.6.7.9 1-.1.1-.2.1-.2.2l-.9-1 .2-.2zm-.1 4.4c.3.4.6.8.8 1.2-.1.1-.3.2-.4.3-.2-.4-.5-.8-.7-1.3.2-.1.2-.2.3-.2zm-7.2-15.2c1.3.6 1.9 1.8 2.1 3.4.2-.4.2-.7.3-.9 1.1 1 1.6 2.9 1.2 4.4h.4c.2.6.1 1.1-.4 1.5l-3.4 2.8c-.1-.9.6-1.2 1-1.7-.5 0-.5-.2-.4-.6.2-1.1.5-2.1.7-3.2 0-.1-.2-.2-.2-.3-.1-.3-.3-.5-.3-.8 0-1 0-2-.1-3l-.1 1.5c-.5-.9-1.8-1.7-.8-3.1zm-.3 13.6l-.1-.3c1-.7 2.1-1.1 3.3-1.5l-2 1.7c.1 0 .2-.1.3-.1h.4c-.1 1.1-1.3 1.1-1.7 1.9-.7-1.1 0-1.4.6-1.7h-.8zm1.3-2.1a23.07 23.07 0 0 1 1.9-1.4c-.2 1.1-1.1 1.2-1.7 1.7l-.2-.3zm2.8 1.7c-.1 1.2-.9 1.7-1.5 2.3-.7.4-1.5.7-2.2 1.1 0-.1-.1-.1-.1-.2 1.2-1 2.4-2.1 3.8-3.2zm-1.5 2.3a12.59 12.59 0 0 0 1 .3c.1 0 .3-.1.8-.3-.3.5-.5.7-.6 1-.1-.1-.2-.3-.3-.4-.3.2-.7.3-1.1.6 0-.5.1-.8.2-1.2zm-2.3-9.4c.6.3.6.7.5 1.1l-.6 2.6c0 .1-.4.2-.6.2-.3-.6-.4-1.1 0-1.7.2-.3.2-.7.3-1.1s.3-.8.4-1.1zm-1.3 4.1c.2-.1.4-.1.6-.2.4.6.4.7-.1 1-.1 1.1-.1 2.2-.2 3.3h-.3c-.3-1-.3-2.1-.1-3.2 0-.1.3-.1.4-.1-.1-.4-.2-.6-.3-.8zm-2-6c.3.2.5.4.9.7v-.5c-.3-.6-1-1-.6-1.7.4.1.8.2 1.2.2-.4-.5-.8-1-1.1-1.6-.1-.2-.2-.8.5-.6-.2-.4-.3-.7-.4-1.1s.1-.6.4-.6c-.2-.5-.5-1-.7-1.6.1 0 .2-.1.3-.1.8.9 2.1 1.6 1.9 3.5-.4-.4-.7-.6-.9-.8.4.8.8 1.6 1.3 2.7-.5-.2-.6-.2-.8-.3-.1.2-.1.5-.2.7 1.1 1 1.1 1 1 1.9-.2 0-.4-.1-.7-.1v.3c.6.4.6.9.3 1.6-.2.5-.3 1-.4 1.4 0 .1-.1.1-.2.2-1.3-1-2-2.9-1.8-4.2zm.8 6.9c-.3-.5-.6-1-1.1-1.7 1.2.7 1.2.7 1.1 1.7zm.1 1.9c-.3-.6-.5-.9-.8-1.4.8.2.8.2.8 1.4zm-1.5.3c.1-.1.1-.3.2-.4.6.5 1.1 1 1.7 1.5 0 0-.2.3-.3.4l1.5 1.8c-1.5-.3-3.4-2.4-3.9-4.1.7-.1.8.3.8.8zm.8 3.3c-.3.1-.6.1-1.1.2v-1.6c.4.6.7 1 1.1 1.4zm-8.1-10.6c.9.5.9 1.3.9 2.2.1-.4.1-.6.2-.9 1.2.4.6 1.4.8 2.1.3.1.7 0 .8.2.3.6.7 1.2.2 1.8a61.85 61.85 0 0 0-2.3 3.1c-.1 0-.1-.1-.2-.1.1-1.1.2-2.2.4-3.5-.9-1.3-2-2.8-.8-4.9zm1.7 8.8c-.1 0-.2-.1-.2-.1.3-.3.5-.6.8-1 .1.1.2.1.2.2-.2.3-.5.6-.8.9zm.8 1c-.2 1.4-1 2.1-2.1 2.6-.3-1.4-.3-1.4.7-1.9.4-.3.9-.5 1.4-.7zm-2.9-2.3c0 .1-.3.3-.4.4.1.2.3.3.3.5.1 1.4.1 2.9.2 4.5-.3-.4-.6-.6-.6-.9-.3-1.1-.5-2.3-.7-3.5-.1-.4 0-.8.5-.9-.1-.4-.3-.9-.3-1.3 0-1.1.1-2.2.2-3.4.3.6.6 1.1.6 1.6.2 1 .2 2 .2 3zm-2.3-9.1c.8.5 2 .5 2 1.9 0 .5-.1.9-.7.9-.5-.4-.9-.8-1.3-1.2-.1-.1-.1-.5-.1-.7 0-.3 0-.6.1-.9zm-3.3-.8l.2-.2c.2.1.3.2.5.3.4-.9.9-.2 1.2.1.4.4.7 1 1.1 1.5l-.9-.3c.1.4.2.7.3 1.2-.4-.2-.7-.3-1-.3l-1.4-2.3zm1.1 2.2c.1 0 .2 0 .2.1.5.5 1 .9 1.4 1.4-.1.1-.2.2-.2.3-.7-.3-1.4-.6-1.6-1.6l.2-.2zm.3 3c.5.4.9.7 1.3 1-.1-1-1.6-1.2-1.3-2.6l1.6 1.6v-.4c.6-.1.8.2.6.9 0 .2-.1.4 0 .4.9 1.1.2 2.3.3 3.6-1.3-1.1-1.5-1.3-2.5-4.5zm2.6 7.6c-1-.5-1.9-.7-2-1.8v-.3c.8-.1 1.3.4 1.7.9-.1.1-.3.2-.4.3a3.98 3.98 0 0 1 .7.9zm-2.2.7c1.1.3 2.7 1.4 3.3 2.2-.6.8-1.2.2-1.8.1-.2-.2-.5-.4-.7-.6l-.6-1.2c-.9-.2-.9-.2-1.5-1.4l1.3.9zm-.2 3.6c-.7-.6-1.2-1-.8-2 1 .5.8 1.2.8 2zm-.1 2.3c-.6.4-1.2.8-1.9 1.1.3-.9.6-1.7.9-2.7.3.6.6 1 1 1.6zm-1.9-2.3h.2c-.6 1.8-1.1 3.5-1.7 5.5l-1.2-2.2 2.7-3.3zm-11.2-7.3c.1-.1.3-.2.4-.4-.6-.4-1.2-.9-1.8-1.3 1.3-.1 2.5.3 3.4 1.2 1-.7 2-.5 2.8.2.4.3.5-.1.7 0 .9.5 1.7 1 2.5 1.6.9.8 1.2 1.6 1 2.8l.6-.6-.6 2c-.2.8-.5 1.6-.7 2.5-1.3-.9.2-1.9-.3-2.9-.2.2-.3.4-.5.6-.4-.8-.7-1.6-1.1-2.4-.5-1-1-1.9-2.2-2.3-.8-.3-1.4-1-2.2-1.6.4 1.1-.5.5-.8.6v.3c-.5.4-.8 0-1.2-.3zm6.3 11c-1.2-.4-2.2-.8-2.5-2.1 1.7-.1 1.7 0 2.5 2.1zm-.9-7.2c.9.5 1.1 1.1.9 1.9-1.1-.2-.7-1.1-.9-1.9zm.6 2.2c1 0 .6 1 1.3 1.3-.4.3-.6.4-.8.6-.6-.6-.9-1.1-.5-1.9zm1.3 2.5c0 .3-.1.6-.3.9-.1.2-.4.3-.6.4v-1.9c.6-.2.9.2.9.6zm-.9 1.3c.3-.1.6-.1 1-.2l.9 2.4c-.1 0-.1.1-.2.1-.5-.7-1.1-1.5-1.7-2.3zm-6-9c.3.2.4.3.6.3l.3-.6c.7.7 1.9.8 2.5 2.1-.7-.2-1.2-.4-1.6-.5-.2.2-.3.4-.5.6-.3-.7-1.4-.8-1.3-1.9zm.8 2.1c.2 0 .3-.1.5-.2.8.1 1.6.1 2.3.3.3.1.6.6.6.9.3 1.1.4 2.3.5 3.5-1.6-1.2-3.5-2.2-3.9-4.5zm3.1 8.4c.8.3 1.5.7 2.3.8 1.1.2 1.6 1 2.6 1.7-.4.1-.6.2-.8.2-1.2-.4-2.5-.6-3.6-1.2-.7-.3-1.1-1.1-1.8-1.9.6.1 1 .3 1.3.4zm3.5 3.4c0 .1-.1.3-.1.4-.4-.1-.8-.3-1.2-.4 0-.1.1-.2.1-.3l1.2.3zm-9.7 8.4c.9.2 1.5.3 2.2.4-.8.8-.8.8-2.2-.4zm.1 3.4c-1.3-1.3-1.3-1.3-1.1-2.9 1.4 2.1 1.4 2.1 1.1 2.9zm2-3.5c-1.2-.3-2.3-.7-3.1-1.8-.2-.4-.6-.6-.8-1 1.6.7 3.6.6 4.8 2.3-.1.4-.4.6-.9.5zm-4.1 6c.2-.7.4-1.4.6-2.3.4 1.2.4 1.2-.6 2.3zm2.4-13.5c.9 0 .8.7.9 1.3.2.8.2 1.5.3 2.3-1.3-.3-1.9-1.9-1.2-3.6zm-.7-.4c-.1-.9-.3-1.7-.4-2.6 1.2.9 1.6 2 1 3-.3.1-.5 0-.6-.4zm2.5 6l-1.2-1.5c1.1.2 1.1.2 1.2 1.5zm.9-2.6c.6-.9 1.4-1.7 2.1-2.5h.2c-.6 1.7-1.2 3.5-1.7 5.2-1.3-1-1.5-1.6-.6-2.7zm2.7-.7c.1 1.2.1 1.3-.8 2.1.3-.6.6-1.4.8-2.1zm0 0c.1-.5.4-.5.8-.3.3.3.3.4-.3 1.1-.1-.2-.3-.5-.5-.8zm.5-4.1c.2-.1.3-.1.4-.2.6.9 1.1 1.8 1.7 2.8-.2.3-.5.6-1 1.1-.2-1.4-1.3-2.3-1.1-3.7zm-1.4-.9c.3.5.3.6-.4 1.9-.3.7-.8 1.4-1.1 2.1l-.2-.2 1.7-3.8zm-8.9 1.3c.1-.1.1-.3.2-.4.3.2.6.3.9.5-.8-.6-1.9-1.1-1.9-2.6.4.3.7.5 1 .7-.1-.5-.3-.9-.4-1.3-1.2-.4-1.7-1.4-2.3-2.4l.5-.2c-.4-.4-.8-.8-1.5-1.4 1.3 0 2.2.4 3 1.1.1-.7.5-.3.8-.2.6.5 1.2.5 1.9.7 1.2.3 2.2 1.1 3.3 1.7.2.1.2.6.3.8s.3.3.5.4c.9.1 1.4 1 1.1 1.9a68.48 68.48 0 0 1-1.3 3c-.7-1-1.2-1.9-.8-3.1.1-.4-.1-.9-.2-1.5-.1.5-.2.8-.2 1.2-.2 0-.3-.1-.3-.1-.2-1-1.1-1.7-1.8-2.2-.9-.6-1.3-1.7-2.4-1.9 0 .6-.4.6-.8.5l1.2.9c.3.2.5.5.8.8-.2 0-.3.1-.4.1.1.5.3.7.8.9.8.3 1 .9.6 1.8.1.2.3.3.4.5.3.5-.1.4-.4.4.2.3.9.4.5 1.2-1.1-.5-2.1-1.2-3.1-1.8zm3.5 3.8c.3.1.4.5.5.8 0 0-.4.2-.5.4a9.75 9.75 0 0 0 1.4.6c-1 0-1 0-2.1-1 .4.2.6.3.7.4-.4-.3-.7-.7-1.1-.9-.5-.4-1-.7-1.4-1.2.8.3 1.6.5 2.5.9zm-2.5 5.9c.2-.6.3-1.1.5-1.7.5.8.1 1.2-.5 1.7zm.9 1.7l.2.1c-.6 1.6-1.1 3.3-1.7 5.2-.5-.7-.8-1.1-1.2-1.7l2.7-3.6zm-5.4-6.9c1 .4.5 1.5 1.1 2.3v-1.7c1.3.7.6 1.8.9 2.8.1-.7.1-1.2.2-1.8 1.6.9 2.1 2.4 1.2 3.7-.4.6-.6 1.2-.7 1.9 0 .4-.2.8-.4 1.4l-2-6.9c-.2.1-.4.2-.7.4-.6-.9-2.1-1.2-2-2.8.8.2 1.6.4 2.4.7zm.4 10.6c-1-.2-2-.3-2.1-1.6-.2-.2-.4-.3-.6-.5 0-.1 0-.2.1-.2.6.3 1.2.5 1.9.8-.1.2-.2.3-.3.5a4.74 4.74 0 0 0 1 1zm-.1-2c-.3-.8-.3-1.6 0-2.3-.1-.1-.3-.1-.4-.2-.3-1.1-.7-2.2-.9-3.4.8 1 1.6 1.9 1.5 3.4.6.2.6.7.6 1.2 0 .6.1 1.1.2 1.7-.4.2-.8.1-1-.4zm.8.7c0-.1.2-.2.3-.3.1.1.2.2.2.4s0 .4-.1.6c-.1 0-.4 0-.4-.1-.1-.2-.1-.4 0-.6zm-5.5-5.5c.5.3.9.4 1.2.5-.6-.6-1.7-.9-1.6-2.2.4.2.7.3 1 .4-.5-.5-1.1-1-1.6-1.5-.2-.2-.6-.5 0-.7-.5-.5-1.1-1-1.7-1.6 1.6-.7 2.6-.3 3.6 1.3-.4.1-.3.8-1 .7.7.4 1 1.3 1.9 1.4.3 0 .5.6.8 1h-.9c.5.5 1.4.5 1.2 1.6-.3 0-.6-.1-.9-.1.4.2.8.4 1.2.7.1.6.3 1.1.4 1.7-1.2-.1-2.6-1.3-3.6-3.2zm5 8.3c1.3.2 1.6 1.6 2.6 1.9-2.1-.2-4.1-.7-5.7-2.1-.3-.2-.3-.7-.6-1.3 1.5.6 2.5 1.2 3.7 1.5zm1.2 3.8c-.3 0-.7-.3-.3-.7-.3-.2-.6-.5-.9-.7 0-.1.1-.1.1-.2.7.2 1.3.3 2 .5v.3c-.2.1-.3.1-.5.2.1.2.2.7-.4.6zm-.1 1.1a9.13 9.13 0 0 0-.8 1.3c-1.1-.6-.8-1.5-.8-2.5.7.5 1.1.8 1.6 1.2zm-3.1 3.8c-.3 1.1-.6 1.9-.9 3-1-1.3-.9-1.4.9-3zm-1.7.9c-.1 0-.1-.1-.2-.1.2-.3.4-.6.5-.9.1.1.2.1.2.2-.2.2-.3.5-.5.8zm1.6-2.3c.2-.6.5-1.3.7-2 .3.9.3.9-.7 2zm-.2-5.9c1.1.3 1.1.3.6 1.4-.2-.6-.4-.9-.6-1.4zm-3.3 1.3c0-1 .1-1.8.1-2.5.6.7 1.8.9 1.7 2 .7 0 .9.6.8 1.1-.4 1.2-.9 2.4-1.4 3.6l-.4-.1.2-1.6c-.6-.1-.4-.4-.2-.7-.3-.1-.7-.2-.8-.4-.3-.6-.6-1.3-.7-2-.2-.9-.2-1.9-.3-3 1.3 1.1.6 2.3 1 3.6zm-.2 5.8c.2.2.4.5.6.8-.1.1-.2.2-.3.2-.2-.3-.4-.5-.6-.8.1 0 .3-.2.3-.2zm-.7-1.1c.4-.1.9-.2 1 .4 0 .1-.2.4-.3.4-.7.2-.5-.4-.7-.8zm1.6 2.6c.2.3.4.6.6 1-.1.1-.2.1-.3.2a4.67 4.67 0 0 1-.5-1l.2-.2zm-.8-3.2c-.3.2-.5.4-.8.6-.4-1-.5-2-.6-3.1 1.8.3.7 1.8 1.4 2.5zm-1.4-6.8c-.2-.2-.4-.3-.5-.4 0-.3-.1-.6-.1-.9.5.4.5.4.6 1.3zm-4.9.2s.2-.1.3-.1c-.6-.6-1.2-1.2-2.1-2h1.1c.1-.1.1-.4.2-.4.9-.1 1.6.2 2.2.9.1-.2.2-.6.3-.5.9.1 1.7.2 2.1 1.2.1.2.2.3.3.5 0 .5.1.9.2 1.6-1-.5-1.8-1-2.3-1.9-.5.5-.8-.1-1.1-.3.2.4.5.9.8 1.5-.5-.1-.8-.2-1.2-.3 0 .6.3.9.9 1 2.2.2 2.3 1.9 2.8 3.8-.6-.4-.9-.6-1.3-.8h-.6c-.2-.3-.3-.6-.4-.9 0-.2.1-.5.2-.8l-1.2-.6c-1.1-.4-1.2-1.2-1.2-1.9zm.8 3.5a14.36 14.36 0 0 1 1.6.7c.5.4.9.8 1.4 1.2.4.3.9.5.6 1.2-1.2-.8-2.4-1.7-3.6-3.1zm4.2 4.7c.2.6.5 1.2.7 1.8-.1.1-.2.1-.2.2-.8-.6-1.6-1.2-2.5-1.8.7-.9 1.3-.5 2-.2zm-1.4 3.3c-.2-.1-.4-.5-.5-.8l.3-.3c1.7.6 3.7.5 5 2.6-1.9-.1-3.4-.7-4.8-1.5zm1.9 1.9c.9-.2 1.4.1 2 .3-.6.2-1.2.2-2-.3zm.5 1c.6-.3 1-.5 1.5-.6.1.3.2.6.3 1.2-.7-.3-1.2-.4-1.8-.6zm-3.2 16.3c.6-.7.8-1.9 2.1-1.7 0 0 .2-.1.2-.2.2-1.2 1.3-1.6 2.1-2.3.9-.8 1.9-1.5 2.9-2.1.2-.1.5-.1 1-.2.7-1.6 2.7-1.9 4-3.1-1.3-.3-2.1 1.5-3.4.9l-.1.1c.2.7-.5.8-.8 1.1l-5.9 4.1c.4-1.7 3.6-5.2 7.3-8.2.2.3.4.6.6 1 .1-.1.2-.1.2-.2.2-1.1.6-2 1.5-2.7l5.8-4.5c.3-.3.7-.6 1.2-.1.3-.5.5-.9.8-1.4-5.4 3.3-10.3 7.1-15.1 11.2.1-2.1.2-4.1 1-6.1 1.2-2.8 3.3-4.5 5.8-5.9 1.4-.8 2.7-1.8 4.1-2.7 2.4-1.6 4.9-3.1 7.3-4.6.5-.3 1-.5 1.4-.9 1.9-1.7 3.7-3.5 5.5-5.3.5-.5.9-.9 1.5-1.4-1.4 3.1-1.8 6.2-.5 9.4.1-.3.3-.7.4-1.1.5-1.3 1-2.6 1.6-3.8 1-1.7 2.6-2.7 4.5-3 2.2-.4 4 .1 5.4 2.1-1.9 2.6-4.9 4-7.3 6.1.5-.2 1.1-.4 1.6-.6.3-.2.5-.5.8-.7 1.7-1.3 3.5-2.6 5.4-3.9.2.5.4.9.5 1.4.6 3.4.1 6.7-1.4 9.8a2.5 2.5 0 0 1-1.7 1.3c-2.6.5-5 1.6-7.4 2.8 2.2-.4 4.2-1.3 6.7-1.5-.2.5-.3.9-.5 1.2-1.7 2.7-1.7 2.7-5 3.2-4.1.6-8.2 1.2-12.2 2.6-1.3.4-2.5.9-3.8 1.4 0 .1.1.2.1.3.7-.3 1.3-.6 2-.7 1.3-.3 2.6-1.2 4.1-.9 1.2-1 2.8-.9 4.2-1.2 1-.2 2.1-.3 3.2-.5-.1.6-.2 1.2-.2 1.7.1 0 .2.1.2.1.2-.4.4-.7.6-1.1.4-.6.9-1 1.7-1 1.2 0 2.3-.2 3.5-.3l-.6 4.2c-.4.1-.9.2-1.5.2l-8.9 1.2c-.5.1-1 .3-1.4.5-.8.5-1.6-.4-2.5.1-.8.5-1.8.8-2.6 1.2-.9.4-1.8.9-2.7 1.4-.9.4-1.7.9-2.6 1.3-1.3.6-2.3 1.6-3.8 1.7-1.9 1.9-4.5 2.7-6.5 4.3-.5.4-.9.9-1.6.5-.4-.2-.3-1 .5-1.7a58.41 58.41 0 0 1 3.8-3.2 6.53 6.53 0 0 0 .7.8c.1-.1.2-.2.2-.3 0-1 .5-1.6 1.3-2.1a26.27 26.27 0 0 0 4-2.8c-3.8 1.6-7.1 4-10.5 6.5-.5-.6-.9-1.1-1.4-1.6l-.2.1c.2.4.3.9.6 1.6-1.2-.2-1.3-1.2-1.8-1.8zm74.6 2.4c.4-.2.8-.5 1.2-.7l.1.1-2.4 3 .2.2c1-.8 2-1.6 3-2.3 0 0 .1.1.1.2l-1.8 2.1c.1 0 .1.1.2.2.4-.3.8-.5 1.2-.8.4.6.4 1 0 1.5s-1.1 1-.6 1.9c1.1 0 1.8-.8 2.9-1.1-.5.5-1.1 1-1.6 1.5-.6.5-1.2 1.1-2.1 1.8.6-.2 1-.2 1.5-.4-.5 1-1.5 1.2-2 2a38.47 38.47 0 0 0 3.1-1.4l-2.8 3.7c.5-.1 1-.3 1.7-.5-.4.5-.7.9-1 1.3.2.1.3.2.6.4-.5.7-.9 1.4-1.4 2 0 .1.1.1.1.2.7-.6 1.4-1.1 2.4-1.8v2.1c-.7 8.4-1.6 16.8-3.9 24.9-.6 2.2-1.6 4.3-2.4 6.4-.1.3-.3.6-.6 1-.3-.4-.6-.7-1-1.3.6 1.3.5 2.4-.1 3.3-1.1 1.9-2.3 3.7-3.5 5.5l-.4-.2c.1-1.2-.5-2.3-1.2-3.2-1.9-2.4-3.7-4.8-5.7-7.1-1.8-2.1-3.8-4.1-5.7-6.1-1.5-1.5-1.8-1.5-3.4.2.5-.2.9-.3 1.5-.5.7 1 1.1 2.1 1.1 3.4 0 .4-.1 1-.4 1.1-1.4.5-2.2 1.7-3 2.7-1.6 1.8-4.8 1.6-6.4.4-1.4-1.1-2.8-2.3-4.5-3-.6-.2-.7-.6-.7-1.2.1-1.1.2-2.2 1.1-3.3l3 .9c0-.1.1-.1.1-.2-.7-.4-1.4-.9-2.2-1.2-.8-.4-1.5-.2-2.2.4-3.8 3.6-7.2 7.6-10.1 12-.9 1.4-1.7 3-2.6 4.5-2.3-1.1-2.9-3-1.6-5.4-.8.5-.8.5-1.2 1.9-.6-.1-.8-.7-1.1-1.1-2.1-3.5-3.7-7.3-4.8-11.2-2.1-7.6-3.7-15.4-4.1-23.4v-1.4c0-.1.1-.3.2-.5.2.2.4.2.5.4.5 1.1.5 1.1 1.9.8-.8-.8-1.6-1.5-2.4-2.2l.2-.2 1.6 1.1.2-.2c-.3-.6-.7-1.1-1-1.7l.2-.2c.4.2.8.5 1.1.7.1 0 .1-.1.2-.1-.7-.9-1.4-1.8-2-2.8l.2-.2c.6.6 1.3 1.2 1.9 1.7.1 0 .1-.1.2-.2-.5-.8-1.1-1.7-1.7-2.8.5.3.7.4 1.1.6.1-.9-.4-1.4-.8-2.1-.3-.7-.7-1.3-.9-2.1.4.4.8.7 1.2 1.1.1 0 .1-.1.2-.1l-1.2-2.8c-.1-.3-.7-.8.2-.9-.1-.2-.1-.5-.2-.7-.2-.5-.4-1.1-.6-1.6s0-.8.6-.9c.3 1.2.5 2.5 1.6 3.5.1-.5.2-.8.2-1.1l.3-2.1c.3-1.5 1.1-2.6 2.6-3.2 3.4-1.4 6.9-2.3 10.5-3 .7-.1 1.4-.2 2.4-.4l-2.3 3.3.1.1c.7-.8 1.5-1.6 2.1-2.4 1-1.2 1.7-1.4 2.9-.3 1.1 1 2.1 2.1 2.7 3.5 1 2.5 2.8 3.9 5.3 4.9 2.7 1.1 5.4 1.3 8.2.3 2.6-.9 4.2-2.8 5.3-5.1.7-1.5 1.4-2.9 2.7-4 1.1-.8 2.1-1.3 3.5-1 3.9.8 7.8 1.7 11.6 3.1 1.6.6 2.1 1.6 2.1 3.1v1.1c1-.6 1.1-1 1.4-3.3.4.1.7.1 1.3.2l-2.2 4.1c.1.5.2.5.2.6zm3.1 18.6c1.7 1 2 1.7 1.3 3.2-.4.9-.9 1.8-2 2.3.2-1.9.4-3.7.7-5.5zm-4.2 47.2c.6-2.8.5-5.3.9-7.8.3-2.5.5-4.9.7-7.6.7.5 1.2.8 1.5 1-.3 1-.8 1.9-.9 2.9-.2 1.1.4 2 1.2 2.7-1.4 1.9-1.3 3.7.3 5.4-.8.8-1.5 1.6-1.4 2.8 0 1.1.7 1.9 1.5 2.7-.3.4-.7.8-1.1 1.4-.8-.8-1.5-1.4-2.2-2.1-.1.1-.2.1-.2.2l3.4 6.2c-.9.6-1.5 1.4-1.6 2.5s.3 2 1.1 2.7c-.5.8-1.1 1.1-2 .8-.4-.2-.9-.2-1.3-.4-3.7-1.4-7.5-1.1-11.2 0-1.3.4-2.3 1-2.4 2.6 0 .8-.6 1.5-1 2.2s-.9 1.3-1.3 2c1.1-.3 1.7-1.1 2.2-2s1-1.9 1.6-3c.5.3 1 .6 1.6.9-.2-.4-.2-.6-.3-.8s-.3-.4-.5-.7c4.4-1.5 8.7-2 13 .1-.2 1.3-.1 2.6.6 3.5-.5 1-1.1 1.9-1.4 2.8-.3 1 .3 2 .9 2.9-1.7 1.2-2.2 2.9-1.3 4.8-.4.8-1.1.7-1.7.8-3.5.5-2.9.2-2.9 3.3 0 3.9-1.7 6.8-5.1 9.1-.3-.5-.5-1-.8-1.5-1.8-3.4-3.9-6.5-7-8.9-.5-.4-.9-.8-1.7-.5 1.7 1.7 3.4 3.3 4.9 5.1s2.8 3.8 3.7 6.1c-2.1.9-4.2.8-6.3.7-5.3-.4-8.1-3.8-9.5-8.5-.4-1.3-.7-2.6-1-4.1h-5.6c0-.8.1-1.5.1-2.3.9.3 1.7.5 2.8.8-.8-.9-1.6-1-2.3-1.3-.3-.1-.8-.2-.9-.4-1.1-1.6-2.6-2-4.3-1.7-.5-1-.9-2.1-1.6-2.7s-1.8-.8-3-1.2c-.2-2.1-1.6-3.4-3.9-3.7l-.8-3 2.4.3c3.8.5 7.5.3 11.2-.5.5-.1 1-.2 1.6-.2l-1.1 2.4c1-1.1 1.8-2.5 3.7-2.4 0 .4-.1.8-.1 1.2.4-.3.7-.6 1-.8 1.9.9 3.4 2.2 3.9 4.3.3 1.2 1.1 1.7 2.4 1.6-1.7-.5-1.8-2.1-2.3-3.4-.2-.6-.5-1.2-1-1.7s-.4-1-.4-1.5l-4.4-3.7c.6 1.6 1.9 2.4 2.9 3.5-.4-.2-.8-.2-1.1-.5-.9-.7-1.9-.7-2.9-.5-1.8.4-3.7.8-5.5 1.1-2.8.5-5.7.2-8.5-.1l-4.4-.6c-.1-2.5-1.1-4.3-3.8-4.6-.4-2-.8-3.9-3.4-4.4.2-.5.3-.9.5-1.4.4-.7.4-1.7 1.3-2.1-.6-.8 0-1.5 0-2.3l.3-2.6c.1-.8.1-1.6.1-2.4 0-.3-.1-.6-.3-.8-.5 3.1-.5 6.2-2 9l-2.5-2.2c.6-2-.3-3.7-2.3-4.7.9-2 .5-3.7-1.2-5 .1-1.1 0-2.1.2-3 .1-.7.6-1.3 1.1-2 .8 1.7.9 3.4 1.3 5.1s.6 3.4 1 5.4a24.15 24.15 0 0 0-.3-5.4c-.2-1.2-.3-2.3-.5-3.5-.2-1.4-.5-2.7 1.1-3.7-.1-.1-.2-.1-.3-.2-.3.2-.6.4-1.1.6-.9-6.3-1.2-12.6-1.3-18.8.6 2.7 1.4 5.4 1.2 8.3-.1 1.8 0 3.6.1 5.5.5-.7.2-1.6.3-2.4.1-.9.1-1.7.3-2.6.1.3.3.6.4.9 2 5.5 4.6 10.7 8.2 15.4 2.7 3.5 5.2 7.1 7.8 10.7 1.6 2.3 3.7 4 6.4 4.9 1.2.4 2 1.8 1.6 3-.2.5-.8.8-1.1 1.2 1.1-.1 1.1-.1 1.9-1.6l3.2 3.4c.1-.1.2-.1.3-.2-.5-.8-1.1-1.5-1.6-2.3s-.9-1.5-1.6-2.5c1.4.2 2.5.4 3.6.4 2.6-.1 5.3.1 7.9-.5 3.9-.8 7-2.9 9-6.4 1.6-2.8 3.3-5.5 5-8.2.3-.5.6-.9 1.2-1.3-.1.7-.1 1.3-.2 2-.7 3.6-2 6.9-3.3 10.3-1.3 3.3-3.1 6.4-5.3 9.2-.6.8-.6 1.7-.5 2.8.5-.5.9-.8 1.3-1.2l3.3-6.6c.4.4.6.6 1 .9 0-.4 0-.6-.1-.8-.4-.8-.2-1.4.1-2.2l4.2-10.8c.1-.3.4-.6.6-1 .1-.1.2-.2.2-.3-.1-2 .6-3.9.8-5.8 0-.1 0-.2.1-.3 1-1.7 2-3.5 3.2-5.2-.8 3.3-1.4 6.6-3 9.6 0 .3.2.7.1 1.1l-2.2 7.9c-.2.6-.3 1.3-.6 1.9-.2.5-.6.8-.9 1.3 0 0 .2.1.5.2 0 1-.7 1.6-1.7 2.2h1.1c-.3 1.9-.4 3.7.3 5.6 0-.3.1-.6.1-.9-.1-2.4.4-4.7 1-6.9l4.1-15.1c.7-2.6 1.6-5.3 2.3-7.9.4-1.4.5-2.8.8-4.2l.9-4.9h.3c0 .2.1.3.1.4v.6c-.3 3.8-.7 7.7-1.1 11.5-.5 5.2-.9 10.4-.8 15.7.1.4.2.5.4.9zM117.6 159c.4 0 1-.2 1.2 0 .3.5.9.7 1.1 1.5.3 1.7.1 3.2-1.4 4.4-.3-.3-.7-.5-.9-.8.3-.9.7-1.7.7-2.5-.1-.7-.4-1.5-.7-2.6zm42.4-5.1h.3c.3.4.7.8 1 1.2l5.6 9.3c1.7 2.9 1.7 6.1 1.6 9.3-.1 1.6-.2 3.2-1.4 4.4l-1.2 1.5c-.3.4-.8.7-1.2 1 0-.3-.1-.6-.1-1-.1.1-.2.1-.2.2-.2 1.5-1.1 2.3-2.4 3.1-2.1 1.1-4.3 1.5-6.6 1.7-3 .2-6.1.2-9.1-.7-2.9-.9-5.3-2.4-6.9-5-.3-.5-.6-1-.8-1.5-.4-.9-.6-1.9-1-2.9-1.3-3.4-1-6.8.6-10l4.5-9c.2-.4.5-.7.8-1-.1 1.7 1.2 2.3 2.3 3 1.3.8 2.6 1.7 3.9 2.6 1.7 1.2 4.7 1.1 6.2-.3.8-.8 1.6-1.6 2.5-2.3 1.1-.9 2.1-1.8 1.6-3.6zm.1-45.2c-.8 2.8-4.5 5.1-7.1 5.2-3.7.1-6.2-1.3-7.7-4.5-.7-1.5-1.6-2.9-2.5-4.5 3-.8 6.2-.9 9.3-1.2 3.2-.3 6.4.2 9.5.9-.5 1.5-1.1 2.8-1.5 4.1zm-41.8 25.9c-.9-.7-1.7-1-2.9-.4v-3.1c0-.3.2-.6.4-.8l1.7-1.7.8 6zm0 7c-1.7-.9-3.2-2.1-3.5-4.1-.4-3-1.5-5.6-3.3-8.1-1.6-2.3-2.3-4.9-2.2-7.8.1-1.6 1-2.6 1.7-3.8.2-.3.8-.4 1.2-.4 1.4 0 2.3.8 3 1.9 1.4 2 2.2 4.2 1.8 6.8-.3-.6-.5-1.3-.9-1.9a34.47 34.47 0 0 0-2-3.2c-.2-.3-.7-.6-1.1-.8-.8-.4-1.4-.1-1.9.8-.6 1.1-1 2.3-.9 3.6 0 .5.2 1 .3 1.5.1-1.1.2-2.2.4-3.4.1-.4.3-.9.6-1.2.7-.8 1.4-.8 2.2 0 .3.3.5.7.8 1-.3.8-.6 1.4-.9 2.1.1 0 .1.1.2.1.3-.5.6-.9 1.2-1.7.6 1.6 1.2 3 1.7 4.3.3.9 0 1.9-.9 2.4-.8.5-1 1.1-.9 1.9.1 1 .1 2.1.2 3.2.5 0 .7 0 .9-.1.7-.2 1.1.1 1.4.6.7 1.3 1.2 2.6.8 4.1.1-.2.2-.3.3-.5s.2-.5.4-1c.3 1.4.5 2.6.7 3.9-.5-.1-1-.1-1.3-.2zm-2.2 8c.2.5.3.9.6 1.8.2-.8.3-1.3.5-1.7s.7-.8 1.1-.8c.6 0 .5.6.6 1v1.2c.1.7-.1 1.2-1.2 1 .3.2.4.3.5.3.3 0 .8-.2.8.4.1.5-.3.6-.6.6a2.49 2.49 0 0 1-2.6-1.2c-.7-.9-.6-1.6.3-2.6zM113 155c.2.9.4 1.6.6 2.3.2-1-.1-1.9.3-2.8.3-.7.8-.9 1.4-.9a2.58 2.58 0 0 1 2.5 1.9 2.21 2.21 0 0 1-1.1 2.4c-1.1.6-2.4.5-3.2-.3-.6-.6-1.1-1.4-.5-2.6zm.1 8.1h-.3c-.1-.6-.3-1.1-.4-1.7-.1-.7.2-1.5.9-1.8.7-.4 1.4 0 1.9.4.3.2.6.5 1.1.7l-1-1.3c1.3.1 2 .8 2.1 1.9.1 1.3-.8 2.1-2.5 2.5-.6-.6-1.1-1.2-1.8-1.9v1.2zm1.3 5.8c-1.4-.9-1.6-1.7-.7-3.3h3.3c-.7-.4-1.2-.6-1.7-.9 1-.1 1.9.2 2.5 1 .6.7.6 1.8.1 2.6-.6.9-1.5 1.2-2.5 1.1-.4-.1-.7-.4-1-.5zm1.6 5.6c-1.2-.4-1.6-1.1-1.6-2.9.2.5.2.7.3.9s.2.5.3.8c.3-1.1.6-2 .9-3 1.3-.4 2.4-.2 3 .5.8 1.1.9 2.1.2 2.9s-2 1.2-3.1.8zm2.2 5.3c-1.3-.3-1.7-1-1.2-2.3.2-.7.6-1.4 1.1-1.9.5-.6 1.4-.5 1.9-.1.4.3.5 1 .7 1.5 0 0-.2.1-.2.2-.1.2-.1.4-.2.6.2 0 .5.1.7.1.1 0 .3-.2.5-.4-.5 1.9-1.7 2.7-3.3 2.3zm1.2 4.4c-.8-.9-.8-2 .3-3.3-.2.9-.3 1.5-.4 2.1.1 0 .2 0 .3.1.2-.6.4-1.1.6-1.7.4-1.1.8-1.3 1.9-.9.5.2.9.5 1.5.8l-.6.3v2.7c-1.4.9-2.7.9-3.6-.1zm3.2 4.7c-.6-.8-.9-1.7-.3-2.6.3-.5.7-.8 1.4-.4.6.3 1.3.3 1.9.5 0-.1.1-.2.1-.3-.5-.2-1-.3-1.7-.5 1.1-.5 2.2-.2 2.8.7.6 1 .4 2.3-.5 3-1.1.8-2.2.7-3.7-.4zm4.7 4.8c-1.1-.5-1.5-1.2-1.3-3 .2.7.3 1.2.5 2 .2-.9.3-1.5.4-2 .2-1.2.8-1.7 1.9-1.4.4.1.8.4 1.2.6l.4.4c.7 1.2.7 1.9 0 2.7-.7.9-2 1.2-3.1.7zm5.2 4.8c-1.3.3-2.7-.3-3.1-1.5-.4-1.1 0-2.1 1.4-2.7-.5.9-1.3 1.7-.6 2.6l1.2-2.9c1.7-.1 2.8.6 3 1.9.2 1.2-.6 2.3-1.9 2.6zm2.8 4.4c-1.5-.3-2.2-1.2-1.8-2.9.1.4.2.8.2 1.2h.2c0-.5.1-1 .2-1.5.2-1.1 1.3-1.8 2.4-1.4 1.3.4 2.1 1.6 1.8 2.8-.4 1.2-1.8 2-3 1.8zm6.8 3.2c-.9-.2-1.1 1-1.9.8-.4-.1-.9-.2-1.3-.3-1.2-.6-1.5-1.7-.9-3.2.2.3.3.5.4.6.1.2.2.5.3.7v-.8c.1-1.2 1.1-1.9 2.2-1.6 1.6.5 2.3 2.2 1.5 3.4-.1.2-.3.4-.3.4zm1.5.2c-.1.6-.1 1-.2 1.2l2.1-1.8c.5.2 1 .5 1.6.8-.1.6-.1 1.2-.4 1.4-.3.3-.4.5-.1.7.4.2.7.1.7-.4 0-.1.1-.2.1-.3.1 1.4-.2 1.8-1.2 2.2-1.7.5-2.9.2-3.5-.9-.5-1-.3-1.8.9-2.9zm33.9 18.7c-1.1.8-2.2 1.6-3.4 2-4.4 1.6-8.9 1.6-13.3.4-.6-.2-1.1-.6-1.6-1-.4-.3-.6-.8-1-1.2l-.3 1.2c-3-1.3-5.4-3.2-7-5.9-.8-1.3-1.4-2.8-2-4.2-.3-.7-.6-1.2-1.3-1.5l-4.2-2.1c-.2-.1-.4-.2-.9-.5 3.9-.6 7.4-1.2 11.1-1.1.5 1.6 1.1 3.2 1.6 4.8.1.3-.1.7-.3.9-.4.7-.8 1.4-.4 2.5l1-2.6c.7 1.4 1.8 2.2 2 3.5 0 0 .1 1 .8.6 1.1.7 2.3 1.2 2.9 2.2.6.1 1.2.1 1.7.3 2.5.8 5 1 7.5.4.8-.2.8-.2 1.6.7-.2-.9.2-1.3.8-1.7.6-.3 1.1-.8 1.7-1.3 1.3-1.1 1.8-1.2 3.1-.1.1.1.3.2.4.4.1.5.1 1.1.3 1.6 0 .6-.2 1.3-.8 1.7zm5.9-10.9c-.3.7-.6 1.3-.9 2-.7 1.6-1.3 3.3-2 4.9-.1.2-.3.3-.5.5-.2-.5-.3-.8-.4-1.2-.1.1-.2.1-.2.2 0 .6 0 1.1-.1 1.6s-.4.9-.8 1.6c-.3-1-.6-1.7-.8-2.4-.5-.7-1.1-1.4-1.8-2.2.5-.6 1.6-1.4 1.7-2.3.2-1 .4-1.9.7-3l2.2.8c-.3-1.1-1.3-1.1-2.2-1.4.1-.9.1-1.9.2-2.8 2-.6 3.9-.6 5.6.6.3 1.3-.2 2.2-.7 3.1zm5.8-4.3l-1.7 1.1c-.5.3-1 .6-1.6 1-.2-.3-.3-.5-.5-.8-.2.6-.4 1.1-.6 1.7-.3-.7-.4-1.2-.6-1.7-.3-.4-.5-.8-.8-1.2 1.1-.3 4.2-.4 5.8-.1zm-2.4-3.9l-.2.2c-.4-.5-.8-.8-1.2-1.2-.1 0-.1.1-.2.1l.9 1.8.6-.3c.1.3.1.4.1.5-.3 1.1-1 1.7-2.4 1.7-1.2 0-2-.5-2.3-1.5-.3-.9-.2-1.2.7-1.8.2-.1.3-.4.4-.6.5-.7 1.3-.8 2-.6.9.4 1.6.7 1.6 1.7zm.8-4.3c-.5 1.3-1.2 1.9-2.5 1.8-1.1-.1-2-.7-2.3-1.7-.1-.5 0-1 .2-1.5.1.2.2.4.3.7.4-1 .5-2.1 1.8-2.2 1.2 0 2.1.4 2.5 1.6.1.5.1.9 0 1.3zm1.2-6c.1 1.4-1.3 2.6-2.9 2.4-1.3-.2-1.9-.8-2.2-2.1.5-.6.8-1.1 1.1-1.5.8-1 1.2-1.2 2.2-.9 1 .2 1.7 1 1.8 2.1zm-.6-3.6c-1 .8-2.5.7-3.5-.2-.9-.8-.9-1.8 0-3.1v1.1c.5-.8.8-1.7 1.6-1.9 1.1-.1 1.3 1.2 2.3 1.2.7 1.2.6 2.2-.4 2.9zm.8-6.1c-.8.9-2.2 1.1-3.4.5-1-.5-1.2-1.2-1-2.6.1.2.2.3.3.5 1.5-2.5 2.3-2.8 3.9-1.3.9 1.2.9 2.1.2 2.9zm-.3-5.2c-.8.7-2.1.8-3.1.2s-1.2-1.3-.8-2.8c.1.4.1.8.2 1.2h.2c.1-.5.2-1 .4-1.5 0-.2.1-.4.2-.5.5-.7 1.3-1 2-.7.5.2 1 1.3.8 2.1-.1.3-.2.5-.3.8 1.1.2 1-.6 1.1-1.3.2 1-.1 2-.7 2.5zm-.5-5.4c-.1-1 .8-1.1 1-1.6.1.9-.1 1.4-1 1.6zm.4-7.8c.3 1.1.3 1.1-.5 2.3-.2-1.4-.2-1.4.5-2.3zm-.7 3.8c.5.3.9.5 1.3.7-.2.6-.4 1-.6 1.5-1.2-.4-.6-1.3-.7-2.2zm-3.1 1.5c.2.3.4.7.6 1.1.1-2.7.2-2.9 2.1-2.7l.3 4.3c-2.1.7-3.6-.5-3-2.7zm2.8-3.4c0 .7-.4 1-1 1-1.7 0-2.7-1.3-2.2-3.1.1.6.2.9.2 1.4.2-.2.2-.3.2-.3 0-.3.1-.5.1-.8 0-1.6.7-2.2 2.2-1.9.2 0 .4.1.4.2 0 .5-.3 1.1-.1 1.4.5.6.2 1.4.2 2.1zm-1-5.7c-.2.1-.4.1-.5.2a1.65 1.65 0 0 1-1.9 0c-.6-.4-.8-1.2-.7-1.9 0-.2.1-.6.3-.7.8-.4 1.7-.8 2.6-1.1.2-.1.5.1.7.3 1.4 1.1-.6 3.6-.5 3.2zm.1-8.4c.5.8.7 1.6.2 2.5-.5.8-1.2 1.5-2.5 1.3.3-.4.4-.6.6-.8-.5.1-.9.1-1.3.2-.5-1.3.1-2.3.6-3.5.1 0 .3 0 .5-.1.7-.4 1.4-.3 1.9.4zm-.8-3.5c-.2.9-.7 1.7-1.8 1.8.1-1.4.3-2.7.4-4.2 1.1.6 1.5 1.4 1.4 2.4zm.4-11.6c-.3 1.7-1 3.1-2.7 4.2 0-2 .5-3.6.7-5.4.5-.1.9-.2 1.4-.4.2.7.4 1.1.6 1.6zm5.2-10.1c.4.6.3 1.4-.1 2-.6.9-1 1.8-1.7 2.5-1.2 1.4-2.2 2.9-2.8 4.6-.1.3-.3.6-.5.9-.1-.8-.3-1.6-.4-2.5.3-.5.8-1.3 1.2-2.1.7-1.3.5-2.3-.7-3.3s-1.3-1.6-.5-2.9c.2-.4.5-.8.7-1.2 1 .4.8 1.5 1.3 2.3.3-1.4-.4-2.3-1-3.3 1.1-1.6 2.2-3.1 3.6-4.4 1.4 2 1.3 4 .8 6-.1.6-.2.9.1 1.4zm-.5-8c-.9 0-1.4.6-1.9 1.3l-3.4 4.9c-.1-1 0-1.8.5-2.6.4-.7.7-1.5 1-2.2a8.79 8.79 0 0 1 2.4-3.6c.6-.5 1.1-.7 1.7 0 .1-.3.2-.5.3-.8.9 0 1.5.6 1.6 1.3.1 1-.2 2-1.3 2.6-.4-.3-.6-.6-.9-.9zm2.4-.2c.6 2.6.4 6.3-1.2 8.3-.4-1.7.4-6.9 1.2-8.3zm.5-7.9c-.1.8-.7 1.4-.9 2.2-.4 1.2-1.2 1.8-2.7 1.8 1.3-1.7 2-3.5 2.3-5.7-1.2-.9-2.7-1.6-4.1-2.2l-4.6-1.8c.8-1.6.4-3.2-.3-4.7.1.7.3 1.4.4 2.1.1.9-.1 1.6-1 2.4l-9.5-3c.1-.4.3-.8.4-1.2-.8 1-1.7 1.1-2.9.9-3.4-.6-6.8-.9-10.3-1.4-.5-.1-1.1-.1-1.6-.2-.5-1.2-.7-2.2-.2-3.4 2.2.2 4.4.5 6.6.7v-.3c-1.7-.3-3.4-.6-5-1l-1.8-.3c-.3-.1-.8-.4-.9-.7-.6-1.6-1-3.2-1.6-4.9 3.1-.6 6.1-.4 9-.7-2.8-.6-5.6-.5-8.7-.4-.7-3.6-1.1-7.1.7-10.4 1.4-2.6 4.3-3.2 6.8-1.7 1.7 1 3 2.4 3.9 4.2.4-2.5.3-5-.7-7.4-.4-.9-1.1-1.9-1.9-2.5-3.6-3.2-8.1-1.7-10.2 1.4-.3.5-.6 1-1.1 1.7-1.8-4.7-5.4-5.7-10.1-5.3.8-.6 1.4-1 1.9-1.4 1.5-1.2 2.9-2.5 3.3-4.6-1.2 2-2.8 3.6-4.7 4.9s-3.7 2.5-5.5 3.9c-.7.5-1.4 1.2-2 1.8l-5.4 5.3c-1 .9-2.3 1.5-3.4 2.2-2.2 1.4-4.3 2.9-6.4 4.3l-3 1.8c-1 .6-2 1.2-3.2 1.8.1-.3.1-.5.2-.7l10.4-16c4.3-6.2 9.2-11.9 15-16.8 1-.8 1.9-1.7 2.9-2.4.6-.4 1.3-.6 2.1-.7l-3.3 3.4.2.2c1.4-1 2.3-2.9 4.4-3 1.4-1.7 3.3-1.3 5.2-1.5.2 1.5.4 3 .4 4.4 0 .5-.6 1-.9 1.6-.7 1.1-1.4 2.2-2 3.4.9-1.1 1.8-2.3 2.7-3.4.7-.8.9-1.6.7-2.6s-.2-2.1-.3-3.2a50.06 50.06 0 0 1 9.5-.3l-7.8 6.5.3.3 8.5-6.6c1.4 1.3 2.8 2.4 4 3.7a74.65 74.65 0 0 1 4.8 6.3c2 3 3.8 6 5.5 9.1 1.2 2.3 2.1 4.7 3.2 7.2-.4 0-.6 0-.8-.1.3 1.5 2.1 2.2 2 4-1.1-.4-1.8-1.1-2.2-2-.6-1.6-1.7-2.7-3-3.9-.2.7.3 1 .6 1.4.9.9 1.6 1.9 2.2 3.1.4.8 1.2 1.5 1.9 2.1.9.7 1.5 1.5 1.7 2.6.4 1.7.9 3.4 1.5 5.3-3.1-.8-5.2-2.9-8-3.9l4.7 3.3c1 .7 2 1.6 3 2.4 0 0 .1-.2.2-.5.4.2.9.4 1.3.7.9.5 1.1 1.1.8 1.7s-1.2 1-2 .8c-.7-.3-1.3-.6-1.9-1-1.2-.6-2.3-1.2-3.5-1.7 3.7 2.9 8.1 4.4 12.3 6.5-.5.9-.9 1.7-1.4 2.5-1.2-.5-2.3-1.1-3.5-1.4-3.2-.9-6.4-1.7-9.6-2.4-3-.7-6-1.2-9-1.7-.4-.1-.8-.1-1.3-.2 1 .5 2 .8 2.6 1.4s.9 1.5 1.5 2.2c-.1-.7-.2-1.4-.4-2.2 4.1.8 8.1 1.2 11.8 2.6 2.5.4 4.9.9 6.6 3 .4.5.7 1.2 1.2 1.9.1-.4.1-.8.2-1.3 1.1.7 2.1 1.3 3 2.1.2.2.3.7.3 1.1.2 1.2.1 2.9-.1 4.5zm1.3-11.5c-.6 1-1.4 2-2.2 3.1-1-1-1.1-1.5-.4-2.2.1-.2.3-.2.5-.4.8-.7.7-1.2-.3-1.7-1.4-.7-2.8-1.3-4.1-1.9-.6-.3-1.3-.6-1.9-.9l.9-2.4c1.6.9 3.3 1.7 4.6 3.3.1.2.3.4.5.4 1.1.1 1.6.9 2.3 1.6.3.1.3.8.1 1.1zm2-7.1c-.7.4-1.4.7-2.2 1.1 0 0-.2-.3-.4-.4-.6.3-1.2.5-1.8.8.4-.9 1.1-1 1.9-.8.9-.5 1.8-.9 2.9-1.5-.2.4-.2.7-.4.8zm1.5-10.9c-.3.2-.4.7-.6 1.1.2-.1.4-.1.6-.2 0 .1.1.2.2.3l-1.2.9c.9.2.7 1 .5 1.3-.9 1.2-2 2.3-3.3 3.4 0-.9 0-1.9.2-2.8 0-.3.4-.7.7-.9.5-.3 1-.5 1.5-.8 0-.1-.1-.3-.1-.4l-1.6.4c.7-.9 1.2-1.7 1.8-2.3.3-.5.7-.9 1-1.4.5-.9 1.1-1.5 2.3-1.4-.7 1.1-1 2.1-2 2.8z" class="B H"/><g class="E"><path d="M177.9 161.2c-.3-.4-.6-.7-1-1.3.6 1.3.5 2.4-.1 3.3l-3.5 5.5-.4-.2c.1-1.2-.5-2.3-1.2-3.2l-5.7-7.1-5.7-6.1c-1.5-1.5-1.8-1.5-3.4.2.5-.2.9-.3 1.5-.5.7 1 1.1 2.1 1.1 3.4 0 .4-.1 1-.4 1.1-1.4.5-2.2 1.7-3 2.7-1.6 1.8-4.8 1.6-6.4.4-1.4-1.1-2.8-2.3-4.5-3-.6-.2-.7-.6-.7-1.2.1-1.1.2-2.2 1.1-3.3l3 .9c0-.1.1-.1.1-.2-.7-.4-1.4-.9-2.2-1.2-.8-.4-1.5-.2-2.2.4-3.8 3.6-7.2 7.6-10.1 12-.9 1.4-1.7 3-2.6 4.5-2.3-1.1-2.9-3-1.6-5.4-.8.5-.8.5-1.2 1.9-.6-.1-.8-.7-1.1-1.1-2.1-3.5-3.7-7.3-4.8-11.2-2.1-7.6-3.7-15.4-4.1-23.4v-1.4c0-.1.1-.3.2-.5.2.2.4.2.5.4.5 1.1.5 1.1 1.9.8-.8-.8-1.6-1.5-2.4-2.2l.2-.2a15.26 15.26 0 0 0 1.6 1.1l.2-.2c-.3-.6-.7-1.1-1-1.7 0-.1.1-.1.2-.2.4.2.8.5 1.1.7.1 0 .1-.1.2-.1-.7-.9-1.4-1.8-2-2.8l.2-.2c.6.6 1.3 1.2 1.9 1.7.1 0 .1-.1.2-.2-.5-.8-1.1-1.7-1.7-2.8.5.3.7.4 1.1.6.1-.9-.4-1.4-.8-2.1-.3-.7-.7-1.3-.9-2.1.4.4.8.7 1.2 1.1.1 0 .1-.1.2-.1l-1.2-2.8c-.1-.3-.7-.8.2-.9-.1-.2-.1-.5-.2-.7-.2-.5-.4-1.1-.6-1.6s0-.8.6-.9c.3 1.2.5 2.5 1.6 3.5.1-.5.2-.8.2-1.1l.3-2.1c.3-1.5 1.1-2.6 2.6-3.2 3.4-1.4 6.9-2.3 10.5-3 .7-.1 1.4-.2 2.4-.4l-2.3 3.3.1.1c.7-.8 1.5-1.6 2.1-2.4 1-1.2 1.7-1.4 2.9-.3 1.1 1 2.1 2.1 2.7 3.5 1 2.5 2.8 3.9 5.3 4.9 2.7 1.1 5.4 1.3 8.2.3 2.6-.9 4.2-2.8 5.3-5.1.7-1.5 1.4-2.9 2.7-4 1.1-.8 2.1-1.3 3.5-1 3.9.8 7.8 1.7 11.6 3.1 1.6.6 2.1 1.6 2.1 3.1v1.1c1-.6 1.1-1 1.4-3.3.4.1.7.1 1.3.2l-2.2 4.1.2.2c.4-.2.8-.5 1.2-.7l.1.1-2.4 3 .2.2c1-.8 2-1.6 3-2.3 0 0 .1.1.1.2l-1.8 2.1c.1 0 .1.1.2.2.4-.3.8-.5 1.2-.8.4.6.4 1 0 1.5s-1.1 1-.6 1.9c1.1 0 1.8-.8 2.9-1.1-.5.5-1.1 1-1.6 1.5-.6.5-1.2 1.1-2.1 1.8.6-.2 1-.2 1.5-.4-.5 1-1.5 1.2-2 2a38.47 38.47 0 0 0 3.1-1.4l-2.8 3.7c.5-.1 1-.3 1.7-.5-.4.5-.7.9-1 1.3.2.1.3.2.6.4-.5.7-.9 1.4-1.4 2 0 .1.1.1.1.2.7-.6 1.4-1.1 2.4-1.8v2.1c-.7 8.4-1.6 16.8-3.9 24.9-.6 2.2-1.6 4.3-2.4 6.4-.2.8-.4 1-.6 1.4zm-33.3-44.4a80.37 80.37 0 0 1 1.7 3c0-1.8-.6-3-1.7-3.6l-.1.1c.1.2.1.4.1.5-.7-.6-1.4-1.3-2.1-2l-.2.2c.7.8 1.3 1.7 2.1 2.6.1-.4.1-.6.2-.8zm11.2 20c-.4 0-.8 0-1.2.1v5.6c.3-.8.4-1.6.3-2.4-.1-1.2.3-2.3 1.2-3.1 1 .3.9-.3.9-1.1-.5.4-.9.6-1.2.9zm14.1 2.6c.3-.1.7-.2 1-.3.7.8.4 1.7.3 2.5-.4 2.9-1.1 5.7-2.2 8.4-.3.6-.6 1.2-.5 2.2l1.3-1.3c.7-.7 1.3-1.5 2.1-2.2 2.8-2.7 4.9-5.9 7.2-9 .6-.8.9-1.7 1.3-2.6.4-.8.3-1.6-.3-2.4s-1.2-1.8-1.7-2.6c.4-1 .7-2 1-2.9-.1 0-.1 0-.2-.1-.5.7-.9 1.5-1.5 2.3-.8-1.1-1.6-1.8-1.4-3-.8.2-.8.2-1.5-.7l-9.5 1.9c.6-1.2 1.6-1.6 2.5-1.9 1.1-.4 1.5-1.4 2.4-2.1v1.1c.5-.8.9-1.4 1.3-2 .1-.2.4-.5.5-.5.5 0 1-.2 1.6.2.3.2 1.1-.4 1.7-.5.2 0 .5.2.7.2 1.5.3 2.8 1.1 4.2 1.9 0-1.3 0-2.5-.8-3.3-.7-.8-1-2-2.3-2.1 0-.3.1-.7.1-1.1-.3.2-.5.3-.7.4l-.3-.9c-.3.4-.5.7-.8 1.2-.2-.5-.3-.9-.5-1.2-.2.4-.3.8-.5 1.1-.1 0-.2 0-.3-.1v-2.2l-.6.6c-.1-.4-.2-.8-.3-1.3-.5 1.1-.9 2.1-1.3 3-.2-.4-.2-.8-.2-1.1 0-.4-.1-.8-.1-1.1-.4 2.3-1.4 4.3-2.8 6.3v-1.7c-.3.7-.6 1.1-.9 1.7-.1-.5-.1-.8-.2-1.1-1.3 1.4-2.5 2.8-3.7 4.2-.2.2-.5.1-.6.3-.5.7-1.6.8-2 1.6-.5.9-1 1.7-2.2 1.5-.2 0-.5.3-.6.5-.2.4-.3.9-.6 1.2-.8 1.3-1.3 1.4-2.5.3-.3-.3-.7-.6-.9-1-.4-.5-.5-1-.2-1.7 1.2-2.7 1.3-5.5 1.3-8.4 0-.3-.1-.5-.2-.8-.3 3.1-.7 6-2.4 8.6-.4.6-.3 1.2.1 1.7.9 1.2 1.9 2.4 3.4 2.9.9.3 1.3.8 1.7 1.6.2.5.5 1.1 1 1.5.8.7 1.8 1.3 2.7 1.9-.3-.6-.6-1.3-1.2-1.5-1.7-.7-2.1-2-2.4-3.7l1.8-.3c.3-.4.5-.8.9-1.3 1 .7 2 1.3 3 2 .3.2.7.5.9.4 1.2-.4 2 .6 3.3.8-.5.2-.8.2-1.3.4.9.3 1.6.6 2.3.8.1 0 .1.2.2.4-.4.2-.8.3-1.5.5 1.8.2 1.8.2 2.3.6.1.7-.1 1-.4 1.3-.6-.2-1.2-.1-1.8.4.6-.2 1.2-.3 1.8-.4zm-21.1 1.1h-.9c.9-1.6 2.3-2.4 3.1-3.8l-3.1 2.5-.3-4.4c-.1-.7.2-1.1.7-1.6.8-.7 1.7-1.3 2-2.5-2.3-2.8-2.8-6.1-2.4-9.8-.2.3-.3.3-.3.4-.4 2.9-.4 5.8.9 8.5.5 1 .3 1.8-.4 2.5l-1.4 1.4c-1.2-.5-1.6-1.3-1.9-2.3-.3-.9-.8-.9-1.4-.5-1.2-.8-1.7-2.2-3-2.9-.5-.3-1.1-.6-1.5-1-1.2-1.3-2.3-2.6-3.5-4v1.3c-.4-.8-.6-1.2-.9-1.7-.1 0-.1 0-.2.1v1.4c-1.4-2-2.3-4-2.8-6.1v2.1c-.6-.8-.9-1.7-1.3-2.6 0-.1-.2-.2-.3-.2-.1.4-.2.7-.3 1.1h-.2c0-.2-.1-.4-.1-.6-.1.1-.2.2-.3.2v1.9h-.2c-.2-.4-.3-.7-.5-1.1-.2.3-.3.7-.5 1.1l-.8-1.1c-.1.5-.2.7-.2 1-.2-.1-.5-.3-.7-.4 0 .4 0 .7.1 1.1-1.3.5-3.5 2.8-3 5.4.5-.3.9-.7 1.4-.8 1.6-.5 3.1-2.1 5-.8h.3c.5-.7 1.1 0 1.6-.3l1.5 2.1c.2-.3.3-.5.4-.6.6.6 1 1.4 1.6 1.6 2 .7 3.2 2.4 4.9 3.4 0 0 0 .1-.1.4-3.5-1.9-7.5-1.8-11.2-3-.2.4-.3.8-.5.9s-.6 0-.8 0c-.1 1.1-.6 2-1.6 2.8-.5-.8-.9-1.6-1.4-2.3-.1 0-.1.1-.2.1.4 1 .7 2 1.1 3-.5.8-1 1.7-1.6 2.4-.7.9-.8 1.9-.3 2.8.5 1.1 1.1 2.2 1.8 3.2 2.8 4 5.9 7.6 9.3 11.1.2.2.4.3.6.5-.9-3.6-2.4-6.9-2.6-10.7 1 .3 1.5 1.3 2.7 1.2-.7-.5-1.3-.9-1.9-1.3-1.2-.9-1.2-1.2-.5-2.5.5-.9 1.2-.8 1.9-.8.1 0 .2-.1.4-.2-.5-.2-.9-.4-1.5-.6l2.8-1c-.4-.2-.6-.2-1.1-.4 1.1-.4 2.1-.6 3-1 .8-.3 1.6-.7 2.3-1 .3-.1.7-.2.9-.4.9-.6 1.7.1 2.6.2 1.1.1 1.3.4 1.5 1.6.3-.2.6-.5 1-.8l.8 5.3c.1.7-.1 1.2-.5 1.7-.4.4-.7.9-1 1.2l.6.6c.3-.2.6-.5 1-.8.2.7.3 1.3.4 1.9.5-1.3 0-2.9 1-4.1.2-.3.5-.5.7-.7-.1-.1-.2-.1-.3-.2-.1.3-.2.6-.4.9zm12.8-14.9c0-1.3-.8-2.2-2-2.1-1 0-1.9.9-1.9 1.8 0 1 1 2 2 2 1.1 0 1.9-.7 1.9-1.7zm-23.6-4.5c1.1 0 1.9-.7 2-1.7 0-1.2-.7-2.1-1.9-2.1-1.1 0-2 .8-2 1.8-.1 1 .9 1.9 1.9 2zm33.3-5.8c0-1.3-.8-2.2-2-2.1-1 0-1.9.8-1.9 1.8 0 1.1.9 2 2 2s1.9-.8 1.9-1.7zm-43.7.2c0-1.3-.8-2.2-2-2.1-1 0-1.8.9-1.8 1.8 0 1.1.9 2 2 2 1 .1 1.8-.7 1.8-1.7zm50.8-1.3c0-1.2-.7-2.1-1.9-2.1-1.1 0-2 .8-2 1.8s.9 1.9 1.9 2c1.1 0 1.9-.7 2-1.7zm-33.5 11.1c0-1.2-.7-2-1.9-2.1-1.1 0-2 .8-2 1.8 0 1.1 1 2 2.1 2 1 .1 1.8-.7 1.8-1.7zM134.5 114c0-1.2-.8-2-1.9-2s-2 .9-2 1.9 1 2 2.1 2c1.1-.2 1.8-.9 1.8-1.9zm31.8 6.1c0-1.3-.7-2.1-1.9-2.2-1.1-.1-2 .8-2 1.8s.9 1.9 1.9 2c1.1.1 2-.6 2-1.6zm-13.5 14.4c.1-.1.1-.2.2-.2-.2-.2-.3-.4-.5-.5-.8-.6-1-1.2-.9-2.2.1-1.2 0-2.5-.1-3.8 0-.5-.2-.9-.3-1.4 0 2 .1 4-.6 5.9-.1.3.1.9.3 1.1.6.4 1.3.7 1.9 1.1zm2.2 16.9h-.3c.2 2.2.3 4.3.5 6.6.2-.6.5-1.2.5-1.7-.1-1.6-.4-3.2-.7-4.9zm-28.7 7.2c.1 0 .3 0 .4-.1 0-.2.1-.6 0-.6-.8-.2-.9-1-1.2-1.6-.5-1.1-1-2.3-1.5-3.5.3 2.2 1.2 4.1 2.3 5.8zm29.4-20.2c1 1.1 1.4 2.5 1.8 3.9.4-1.8-1-3-1.1-4.7-.3.4-.5.7-.7.8zm2.8-21.5c.3-.6.7-1.2 1-1.9.3-.6 1.1-1 1-1.9-1.2 1-1.8 2.3-2 3.8zm-17.1 22.5c1.6-.3 3.3-.6 3.4-2.7-.5 1.7-2.1 2-3.4 2.7zm42.3-5.8c.6-1.1.4-1.9.2-2.8-.3.8-.3 1.7-.2 2.8zm-46.7 6.1c-1-.1-2.1-.3-3.3-.4 1.1.8 1.8.9 3.3.4zm6 4.8c-.1-.1-.2-.1-.3-.2-.5 1-.9 2-1.4 2.9.1 0 .2.1.3.1.4-.9.9-1.9 1.4-2.8zm22.3-33.5c-1.1.5-1.3.7-1.6 2.1.6-.8 1.1-1.4 1.6-2.1zm-33.2 17.5v-.3c-.8-.2-1.6-.3-2.4-.5v.2l2.4.6zm30.4-15.8c-.9.4-1.3 1.1-1.3 2 .5-.6.9-1.3 1.3-2zm9.5 14.8c0 .1 0 .2.1.3.6-.2 1.2-.3 1.9-.4v-.2c-.8 0-1.4.1-2 .3zm-4.6-17c-1.2.5-1.2.5-1.3 1.5.5-.6.9-1 1.3-1.5zM119.6 133s.1 0 .1-.1v-1.7h-.1v1.8zm65-4.9l-.3-.3c-.4.1-.7.3-.8 1.1.5-.4.8-.6 1.1-.8zm-63.9 5.2c-.1 0-.2.1-.3.1 0 .3.1.6.2.9h.2c-.1-.4-.1-.7-.1-1zm35.4 60.4l-4.5-3.8c.6 1.6 1.9 2.4 2.9 3.5-.4-.2-.8-.2-1.1-.5-.9-.7-1.9-.7-2.9-.5l-5.5 1.1c-2.8.5-5.7.2-8.5-.1l-4.4-.6c-.1-2.5-1.1-4.3-3.8-4.6-.4-2-.8-3.9-3.4-4.4l.5-1.4c.4-.7.4-1.7 1.3-2.1-.6-.8 0-1.5 0-2.3l.3-2.6c.1-.8.1-1.6.1-2.4 0-.3-.1-.6-.3-.8-.5 3.1-.5 6.2-2 9l-2.5-2.2c.6-2-.3-3.7-2.3-4.7.9-2 .5-3.7-1.2-5 .1-1.1 0-2.1.2-3 .1-.7.6-1.3 1.1-2 .8 1.7.9 3.4 1.3 5.1l1 5.4a24.15 24.15 0 0 0-.3-5.4l-.5-3.5c-.2-1.4-.5-2.7 1.1-3.7-.1-.1-.2-.1-.3-.2-.3.2-.6.4-1.1.6-.9-6.3-1.2-12.6-1.3-18.8.6 2.7 1.4 5.4 1.2 8.3-.1 1.8 0 3.6.1 5.5.5-.7.2-1.6.3-2.4.1-.9.1-1.7.3-2.6.1.3.3.6.4.9 2 5.5 4.6 10.7 8.2 15.4 2.7 3.5 5.2 7.1 7.8 10.7 1.6 2.3 3.7 4 6.4 4.9 1.2.4 2 1.8 1.6 3-.2.5-.8.8-1.1 1.2 1.1-.1 1.1-.1 1.9-1.6l3.2 3.4c.1-.1.2-.1.3-.2-.5-.8-1.1-1.5-1.6-2.3s-.9-1.5-1.6-2.5c1.4.2 2.5.4 3.6.4 2.6-.1 5.3.1 7.9-.5 3.9-.8 7-2.9 9-6.4 1.6-2.8 3.3-5.5 5-8.2.3-.5.6-.9 1.2-1.3-.1.7-.1 1.3-.2 2-.7 3.6-2 6.9-3.3 10.3-1.3 3.3-3.1 6.4-5.3 9.2-.6.8-.6 1.7-.5 2.8.5-.5 1-.9 1.4-1.2-.3.6-.6 1.3-.9 1.9.7-.6 1.4-1.2 1.5-2.2-.3.1-.5.2-.7.3l3.3-6.6c.4.4.6.6 1 .9 0-.4 0-.6-.1-.8-.4-.8-.2-1.4.1-2.2l4.2-10.8c.1-.3.4-.6.6-1 .1-.1.2-.2.2-.3-.1-2 .6-3.9.8-5.8 0-.1 0-.2.1-.3 1-1.7 2-3.5 3.2-5.2-.8 3.3-1.4 6.6-3 9.6 0 .3.2.7.1 1.1l-2.2 7.9c-.2.6-.3 1.3-.6 1.9-.2.5-.6.8-.9 1.3 0 0 .2.1.5.2 0 1-.7 1.6-1.7 2.2h1.1c-.3 1.9-.4 3.7.3 5.6 0-.3.1-.6.1-.9-.1-2.4.4-4.7 1-6.9l4.1-15.1c.7-2.6 1.6-5.3 2.3-7.9.4-1.4.5-2.8.8-4.2l.9-4.9h.3c0 .2.1.3.1.4v.6c-.3 3.8-.7 7.7-1.1 11.5-.5 5.2-.9 10.4-.8 15.7 0 .1.1.2.2.6.6-2.8.5-5.3.9-7.8.3-2.5.5-4.9.7-7.6.7.5 1.2.8 1.5 1-.3 1-.8 1.9-.9 2.9-.2 1.1.4 2 1.2 2.7-1.4 1.9-1.3 3.7.3 5.4-.8.8-1.5 1.6-1.4 2.8 0 1.1.7 1.9 1.5 2.7-.3.4-.7.8-1.1 1.4-.8-.8-1.5-1.4-2.2-2.1-.1.1-.2.1-.2.2l3.4 6.2c-.9.6-1.5 1.4-1.6 2.5s.3 2 1.1 2.7c-.5.8-1.1 1.1-2 .8-.4-.2-.9-.2-1.3-.4-3.7-1.4-7.5-1.1-11.2 0-1.3.4-2.3 1-2.4 2.6 0 .8-.6 1.5-1 2.2s-.9 1.3-1.3 2c1.1-.3 1.7-1.1 2.2-2s1-1.9 1.6-3c.5.3 1 .6 1.6.9-.2-.4-.2-.6-.3-.8s-.3-.4-.5-.7c4.4-1.5 8.7-2 13 .1-.2 1.3-.1 2.6.6 3.5-.5 1-1.1 1.9-1.4 2.8-.3 1 .3 2 .9 2.9-1.7 1.2-2.2 2.9-1.3 4.8-.4.8-1.1.7-1.7.8-3.5.5-2.9.2-2.9 3.3 0 3.9-1.7 6.8-5.1 9.1-.3-.5-.5-1-.8-1.5-1.8-3.4-3.9-6.5-7-8.9-.5-.4-.9-.8-1.7-.5 1.7 1.7 3.4 3.3 4.9 5.1s2.8 3.8 3.7 6.1c-2.1.9-4.2.8-6.3.7-5.3-.4-8.1-3.8-9.5-8.5-.4-1.3-.7-2.6-1-4.1h-5.6c0-.8.1-1.5.1-2.3.9.3 1.7.5 2.8.8-.8-.9-1.6-1-2.3-1.3-.3-.1-.8-.2-.9-.4-1.1-1.6-2.6-2-4.3-1.7-.5-1-.9-2.1-1.6-2.7s-1.8-.8-3-1.2c-.2-2.1-1.6-3.4-3.9-3.7l-.8-3 2.4.3c3.8.5 7.5.3 11.2-.5.5-.1 1-.2 1.6-.2l-1.1 2.4c1-1.1 1.8-2.5 3.7-2.4 0 .4-.1.8-.1 1.2.4-.3.7-.6 1-.8 1.9.9 3.4 2.2 3.9 4.3.3 1.2 1.1 1.7 2.4 1.6-1.7-.5-1.8-2.1-2.3-3.4-.2-.6-.5-1.2-1-1.7s-.4-1-.4-1.5c.4.4.8.7 1.2 1.1.1-.1.2-.2.2-.3-.4-.5-.8-1.1-1.6-1.3.4.6.4.7.5.9zm18.3 9.3c2-.9 5.5-4 5.7-5-1.6 1.3-3.1 2.6-4.7 4-.4.3-.6.7-1 1-.3.2-.7.4-1 .6.1.1.2.2.2.3.3-.3.6-.6.8-.9zm-40.9-21.9c-.7.5-.6 1-.4 1.5l1.5 4.6c.1.4.2.7.3 1.2-.5 0-.8-.1-1.1-.1 1.7.6 2.1 2.3 3.2 3.5l-3.5-10.7zm46.4 8.9c.1 0 .1 0 .2-.1-.2-1.6-.5-3.3-.7-4.9-.2-1.1-.3-2.2.4-3.2.1-.1 0-.4 0-.6-1 .9-2 1.7-1.6 3.1.5 1.9 1.2 3.8 1.7 5.7zm-28.8 16.8l7 2.8c-1.6-1.6-5.2-3-7-2.8zm25.3-27c.2 0 .3.1.5.1l.9-4.3c-.7 1.3-1.5 2.6-1.4 4.2zm-53.9-3c.7.2 1.1.2 1.1-.4-.1-.8-.4-1.5-.5-2.3h-.2c-.2.9-.3 1.8-.4 2.7zm49.3 33.9c1.3-1.1 1.4-1.3 1.4-2.2-.8.5-1.1 1.2-1.4 2.2zm1.6-5.8c.8-.2 1.6-.5 1.8-1.4-.6.4-1.2.9-1.8 1.4zm-18.8-5c.3 1.4.3 1.5 1.3 1.5-.4-.4-.8-.9-1.3-1.5zm29-96.4l.4 2.1c.1.9-.1 1.6-1 2.4l-9.5-3c.1-.4.3-.8.4-1.2-.8 1-1.7 1.1-2.9.9-3.4-.6-6.8-.9-10.3-1.4-.5-.1-1.1-.1-1.6-.2-.5-1.2-.7-2.2-.2-3.4 2.2.2 4.4.5 6.6.7v-.3c-1.7-.3-3.4-.6-5-1l-1.8-.3c-.3-.1-.8-.4-.9-.7-.6-1.6-1-3.2-1.6-4.9 3.1-.6 6.1-.4 9-.7-2.8-.6-5.6-.5-8.7-.4-.7-3.6-1.1-7.1.7-10.4 1.4-2.6 4.3-3.2 6.8-1.7 1.7 1 3 2.4 3.9 4.2.4-2.5.3-5-.7-7.4-.4-.9-1.1-1.9-1.9-2.5-3.6-3.2-8.1-1.7-10.2 1.4-.3.5-.6 1-1.1 1.7-1.8-4.7-5.4-5.7-10.1-5.3.8-.6 1.4-1 1.9-1.4 1.5-1.2 2.9-2.5 3.3-4.6v.1c.2-.6.4-1.2.6-1.7.1-.2.2-.3.3-.5.9-1.1 1.8-2.3 2.7-3.4.7-.8.9-1.6.7-2.6s-.2-2.1-.3-3.2a50.06 50.06 0 0 1 9.5-.3l-7.8 6.5.3.3 8.5-6.6c1.4 1.3 2.8 2.4 4 3.7a74.65 74.65 0 0 1 4.8 6.3c2 3 3.8 6 5.5 9.1 1.2 2.3 2.1 4.7 3.2 7.2-.4 0-.6 0-.8-.1.3 1.5 2.1 2.2 2 4-1.1-.4-1.8-1.1-2.2-2-.6-1.6-1.7-2.7-3-3.9-.2.7.3 1 .6 1.4.9.9 1.6 1.9 2.2 3.1.4.8 1.2 1.5 1.9 2.1.9.7 1.5 1.5 1.7 2.6.4 1.7.9 3.4 1.5 5.3-3.1-.8-5.2-2.9-8-3.9l4.7 3.3c1 .7 2 1.6 3 2.4 0 0 .1-.2.2-.5.4.2.9.4 1.3.7.9.5 1.1 1.1.8 1.7s-1.2 1-2 .8c-.7-.3-1.3-.6-1.9-1-1.2-.6-2.3-1.2-3.5-1.7 3.7 2.9 8.1 4.4 12.3 6.5-.5.9-.9 1.7-1.4 2.5-1.2-.5-2.3-1.1-3.5-1.4-3.2-.9-6.4-1.7-9.6-2.4-3-.7-6-1.2-9-1.7-.4-.1-.8-.1-1.3-.2 1 .5 2 .8 2.6 1.4s.9 1.5 1.5 2.2c-.1-.7-.2-1.4-.4-2.2 4.1.8 8.1 1.2 11.8 2.6-.5.8.3.9.6 1.3l.4-.4zm-18-46l5.6 7.8c-.7-2.5-4-7.1-5.6-7.8zm13.1 38.6c0-.1.1-.2.1-.3-1.9-1.3-3.9-2.3-6.3-2.1.6.3 1.2.8 1.7.7.7-.2 1.2.1 1.7.3.9.4 1.8.9 2.8 1.4zm-26.5-31.8c3.2-1.7 4.4-2.7 4.8-3.9l-4.8 3.9zm20.7 19.1c-.1.1-.2.2-.2.3 1.4 1.1 2.7 2.4 4.3 3.3.1-.1.1-.2.2-.2l-4.3-3.4zM153.4 65l-.3-.3-.9.9c.1.1.1.2.2.2.3-.3.6-.6 1-.8zm17 .8c.1-.1.2-.1.2-.2l-.6-.9c-.1 0-.1.1-.2.1.3.4.4.7.6 1zm-26.1 19.5c.3-.2.5-.5.8-.7l5.4-3.9c.2.5.4.9.5 1.4.6 3.4.1 6.7-1.4 9.8a2.5 2.5 0 0 1-1.7 1.3c-2.6.5-5 1.6-7.4 2.8 2.2-.4 4.2-1.3 6.7-1.5-.2.5-.3.9-.5 1.2-1.7 2.7-1.7 2.7-5 3.2-4.1.6-8.2 1.2-12.2 2.6-1.3.4-2.5.9-3.8 1.4 0 .1.1.2.1.3.7-.3 1.3-.6 2-.7 1.3-.3 2.6-1.2 4.1-.9 1.2-1 2.8-.9 4.2-1.2 1-.2 2.1-.3 3.2-.5-.1.6-.2 1.2-.2 1.7.1 0 .2.1.2.1.2-.4.4-.7.6-1.1.4-.6.9-1 1.7-1 1.2 0 2.3-.2 3.5-.3l-.6 4.2c-.4.1-.9.2-1.5.2l-8.9 1.2c-.5.1-1 .3-1.4.5-.8.5-1.6-.4-2.5.1-.8.5-1.8.8-2.6 1.2-.9.4-1.8.9-2.7 1.4-.9.4-1.7.9-2.6 1.3-1.3.6-2.3 1.6-3.8 1.7-1.9 1.9-4.5 2.7-6.5 4.3-.5.4-.9.9-1.6.5-.4-.2-.3-1 .5-1.7a58.41 58.41 0 0 1 3.8-3.2 6.53 6.53 0 0 0 .7.8c.1-.1.2-.2.2-.3 0-1 .5-1.6 1.3-2.1a26.27 26.27 0 0 0 4-2.8c-3.8 1.6-7.1 4-10.5 6.5-.5-.6-.9-1.1-1.4-1.6-.1 0-.1.1-.2.1.2.4.3.9.6 1.6-1.1-.4-1.2-1.4-1.8-2 .6-.7.8-1.9 2.1-1.7 0 0 .2-.1.2-.2.2-1.2 1.3-1.6 2.1-2.3.9-.8 1.9-1.5 2.9-2.1.2-.1.5-.1 1-.2.7-1.6 2.7-1.9 4-3.1-1.3-.3-2.1 1.5-3.4.9l-.1.1c.2.7-.5.8-.8 1.1l-5.9 4.1c.4-1.7 3.6-5.2 7.3-8.2.2.3.4.6.6 1 .1-.1.2-.1.2-.2.2-1.1.6-2 1.5-2.7l5.8-4.5c.3-.3.7-.6 1.2-.1.3-.5.5-.9.8-1.4-5.4 3.3-10.3 7.1-15.1 11.2.1-2.1.2-4.1 1-6.1 1.2-2.8 3.3-4.5 5.8-5.9 1.4-.8 2.7-1.8 4.1-2.7 2.4-1.6 4.9-3.1 7.3-4.6.5-.3 1-.5 1.4-.9 1.9-1.7 3.7-3.5 5.5-5.3.5-.5.9-.9 1.5-1.4-1.4 3.1-1.8 6.2-.5 9.4.1-.3.3-.7.4-1.1.5-1.3 1-2.6 1.6-3.8 1-1.7 2.6-2.7 4.5-3 2.2-.4 4 .1 5.4 2.1-1.9 2.6-4.9 4-7.3 6.1.5-.1 1.1-.3 1.6-.4-.7.6-1.5 1.3-2.2 2 0 .1.1.1.1.2 1-.6 1.9-1.3 3.1-2.1-.6-.1-.8-.1-1-.1zm-23.8 23c1.2-.7 2.4-1.4 3.6-2 .3-.2.8-.5 1.1-.5 1.4.3 2.2-.6 3.5-1.2-3.6-.1-5.8 1.9-8.2 3.7zm-4.1-1.8c-1 .3-1.9.5-2.8.7.1.7.1.7-.4 1.1-1.1.9-2.4 1.8-3.1 3.1 2-1.6 4.1-3.3 6.3-4.9zm21.2-3.6c-2.3.1-4.5.6-6.5 1.7 2.1-.5 4.3-1.1 6.5-1.7zm-3.9-14.5c-1.9.6-3.9 2.1-4.6 3.2 1.5-1 2.9-2 4.6-3.2zm-19.5 9.2c.6-.2.7-.7.7-1.3-.7.3-1.1.6-.7 1.3zm17.4-7.1l.2.2c.2-.2.5-.4.7-.6 0 0-.1-.1-.1-.2-.3.2-.6.4-.8.6zm11.9 63.9c-.1 1.7 1.2 2.3 2.3 3l3.9 2.6c1.7 1.2 4.7 1.1 6.2-.3l2.5-2.3c1.2-.9 2.2-1.9 1.7-3.6h.3c.3.4.7.8 1 1.2l5.6 9.3c1.7 2.9 1.7 6.1 1.6 9.3-.1 1.6-.2 3.2-1.4 4.4l-1.2 1.5c-.3.4-.8.7-1.2 1 0-.3-.1-.6-.1-1-.1.1-.2.1-.2.2-.2 1.5-1.1 2.3-2.4 3.1-2.1 1.1-4.3 1.5-6.6 1.7-3 .2-6.1.2-9.1-.7-2.9-.9-5.3-2.4-6.9-5-.3-.5-.6-1-.8-1.5-.4-.9-.6-1.9-1-2.9-1.3-3.4-1-6.8.6-10l4.5-9c.1-.3.4-.6.7-1zm14.9 27.3v.9c.5-.5.7-.7 1-.9 0-.1-.1-.2-.2-.2-.2.1-.4.1-.7.2 2.1-1.5 3-2.5 3.2-3.4l-3.8 3.6c0 .1.1.1.2.2 0-.3.2-.3.3-.4zm-11.3-4.7c-.7.5-1.4 1.1-2.2 1.6 0 .1.1.1.2.2l2.8-1.6c-.3-.1-.6-.1-.8-.2 1.7-1.1 3.6-1.3 5.6-1.5.7-.1 1.6 0 2.2.3s1 1.1 1.6 1.7c-.2-.7-.4-1.3-.6-1.9.6 0 1.1-.1 1.8-.1-2.3-1.3-9.2-.3-11.1 1.5h.5zm8.3-11.2c.3.3.6.7.9 1.1v-1.2c2.3.6 4.1 1.9 6 3 .1-.1.1-.2.2-.3l-6.4-3.9c-.5.4-.9.7-1.2 1-1.5 1.3-3 1.8-4.8.6-.3-.2-.8-.3-1.1-.2-1.5.6-2.9 1.4-4.3 2.1 1.1-.2 2-.6 3-1 1.1-.5 2.2-.7 3.3-.1 1.2.7 2.3.4 3.4-.4.3-.2.6-.4 1-.7zm0 4.8c-.2 1.3-1 1.7-2.2 1.7-1 0-1.9.1-2.9.1h-1.9v.4c2.7.1 5.3.2 8-.1 1.1-.1 1.9-.9 2.2-1.9-1.1.4-2 1.3-3.2 1.2v-1.4zm-10.2 11.8c-.3-.6-.5-1.3-1.4-.8-.2.1-.6-.2-.9-.4-.8-.6-1.5-1.2-2.3-1.8-.1.1-.1.2-.2.3 1.4 1.3 2.8 2.5 4.8 2.7zm5.6-19c.7 1.1 2.4 1.1 3.4 0h-3.4zm10.7 1.4c-.6-1.2-.6-1.2-1.6-1.3.6.4 1.1.8 1.6 1.3zM150 63.9c-.1.2-.2.3-.3.5l-.6 1.7V66c-1.2 2-2.8 3.6-4.7 4.9l-5.5 3.9c-.7.5-1.4 1.2-2 1.8l-5.4 5.3c-1 .9-2.3 1.5-3.4 2.2l-6.4 4.3-3 1.8-3.2 1.8c.1-.3.1-.5.2-.7l10.4-16c4.3-6.2 9.2-11.9 15-16.8 1-.8 1.9-1.7 2.9-2.4.6-.4 1.3-.6 2.1-.7l-3.3 3.4c.1.1.1.2.2.2 1.4-1 2.3-2.9 4.4-3 1.4-1.7 3.3-1.3 5.2-1.5.2 1.5.4 3 .4 4.4 0 .5-.6 1-.9 1.6l-2.1 3.4zm-22.7 11.7l6-7.4c.2-.2.3-.4.4-.6 0 0 0-.1-.1-.1 0 0-.1 0-.2-.1-2.1 2.6-4.6 5.1-6.1 8.2zm2.6-2.2c.1 0 .2.1.2.1.2-.4.4-.8.6-1.1-.1 0-.2-.1-.2-.1-.2.4-.4.8-.6 1.1zm47.8 148.1c.1.5.1 1.1.3 1.6.3.8.1 1.5-.5 1.9-1.1.8-2.2 1.6-3.4 2-4.4 1.6-8.9 1.6-13.3.4-.6-.2-1.1-.6-1.6-1-.4-.3-.6-.8-1-1.2l-.3 1.2c-3-1.3-5.4-3.2-7-5.9-.8-1.3-1.4-2.8-2-4.2-.3-.7-.6-1.2-1.3-1.5l-4.2-2.1c-.2-.1-.4-.2-.9-.5 3.9-.6 7.4-1.2 11.1-1.1.5 1.6 1.1 3.2 1.6 4.8.1.3-.1.7-.3.9-.4.7-.8 1.4-.4 2.5l1-2.6c.7 1.4 1.8 2.2 2 3.5 0 0 .1 1 .8.6 1.1.7 2.3 1.2 2.9 2.2.6.1 1.2.1 1.7.3 2.5.8 5 1 7.5.4.8-.2.8-.2 1.6.7-.2-.9.2-1.3.8-1.7.6-.3 1.1-.8 1.7-1.3 1.3-1.1 1.8-1.2 3.1-.1-.1-.1 0 .1.1.2zm-4.1 4.9c1.9-.4 2.8-.9 3.3-1.9-1 .6-2.1 1.2-3.3 1.9zm-24.4-11.2c-.1 0-.2.1-.2.1.2.4.3.8.5 1.2.1 0 .2-.1.2-.1-.2-.3-.3-.8-.5-1.2zm10.1 7.8s-.1-.1-.2-.1c-.1.2-.3.3-.4.5l.1.1.5-.5zm2.3-118.4l-1.5 4.1c-.8 2.8-4.5 5.1-7.1 5.2-3.7.1-6.2-1.3-7.7-4.5-.7-1.5-1.6-2.9-2.5-4.5 3-.8 6.2-.9 9.3-1.2 3.3-.3 6.4.2 9.5.9zM117.1 126c-.3-.6-.5-1.3-.9-1.9a34.47 34.47 0 0 0-2-3.2c-.2-.3-.7-.6-1.1-.8-.8-.4-1.4-.1-1.9.8-.6 1.1-1 2.3-.9 3.6 0 .5.2 1 .3 1.5l.4-3.4c.1-.4.3-.9.6-1.2.7-.8 1.4-.8 2.2 0 .3.3.5.7.8 1l-.9 2.1c.1 0 .1.1.2.1.3-.5.6-.9 1.2-1.7l1.7 4.3c.3.9 0 1.9-.9 2.4-.8.5-1 1.1-.9 1.9l.2 3.2c.5 0 .7 0 .9-.1.7-.2 1.1.1 1.4.6.7 1.3 1.2 2.6.8 4.1.1-.2.2-.3.3-.5s.2-.5.4-1l.7 3.9c-.5-.1-.9-.1-1.2-.2-1.7-.9-3.2-2.1-3.5-4.1-.4-3-1.5-5.6-3.3-8.1-1.6-2.3-2.3-4.9-2.2-7.8.1-1.6 1-2.6 1.7-3.8.2-.3.8-.4 1.2-.4 1.4 0 2.3.8 3 1.9 1.4 2 2.1 4.2 1.7 6.8zm-1.7 10.7c-.1 0-.2.1-.4.1l.6 1.8c.1 0 .2-.1.3-.1-.1-.6-.3-1.2-.5-1.8zm-2-9.1h-.2v1.2h.2v-1.2zm69.5-25.2c2.5.4 4.9.9 6.6 3 .4.5.7 1.2 1.2 1.9.1-.4.1-.8.2-1.3 1.1.7 2.1 1.3 3 2.1.2.2.3.7.3 1.1a41.93 41.93 0 0 1-.3 5c-.1.8-.7 1.4-.9 2.2-.4 1.2-1.2 1.8-2.7 1.8 1.3-1.7 2-3.5 2.3-5.7-1.2-.9-2.7-1.6-4.1-2.2l-4.6-1.8c.8-1.6.4-3.2-.3-4.7v.1c-.2-.7-.4-1.1-.7-1.5zm-5.1 119.1l-1.8-2.3c.5-.6 1.6-1.4 1.7-2.3l.7-3 2.2.8c-.3-1.1-1.3-1.1-2.2-1.4l.2-2.8c2-.6 3.9-.6 5.6.6.3 1.1-.3 2-.8 3l-.9 2-2 4.9c-.1.2-.3.3-.5.5-.2-.5-.3-.8-.4-1.2-.1.1-.2.1-.2.2 0 .6 0 1.1-.1 1.6s-.4.9-.8 1.6c-.3-.8-.5-1.5-.7-2.2-.1 0 0 0 0 0zm8.6-81.2c-.1-.8-.3-1.6-.5-2.6l1.2-2.1c.7-1.3.5-2.3-.7-3.3s-1.3-1.6-.5-2.9c.2-.4.5-.8.7-1.2 1 .4.8 1.5 1.3 2.3.3-1.4-.4-2.3-1-3.3 1.1-1.6 2.2-3.1 3.6-4.4 1.4 2 1.3 4 .8 6-.1.5-.2.8.1 1.4.4.6.3 1.4-.1 2-.6.9-1 1.8-1.7 2.5-1.2 1.4-2.2 2.9-2.8 4.6 0 .4-.3.7-.4 1zm6.7-34.7c-1-1-1.1-1.5-.4-2.2.1-.2.3-.2.5-.4.8-.7.7-1.2-.3-1.7l-4.1-1.9-1.9-.9.9-2.4c1.6.9 3.3 1.7 4.6 3.3.1.2.3.4.5.4 1.1.1 1.6.9 2.3 1.6.2.2.3.9.1 1.2l-2.2 3zm-14.8-56.5c-1.7.9-2.6 2.4-3.5 4l-.4.4-.2-1.3h-.1v4.5c-.2-.2-.3-.4-.5-.5l-.6.3-.8-3c-.2-.8-.1-1.4.7-1.9l.2 1.4h.1l.3-1.7c.1-.5.1-1.1.5-1.4 1.8-1.3 3.7-2.5 5.9-3l.1.1-1.7 2.1zm12.7 73c-.9 0-1.4.6-1.9 1.3l-3.4 4.9c-.1-1 0-1.8.5-2.6.4-.7.7-1.5 1-2.2a8.79 8.79 0 0 1 2.4-3.6c.6-.5 1.1-.7 1.7 0l.3-.8c.9 0 1.5.6 1.6 1.3.1 1-.2 2-1.3 2.6-.4-.3-.6-.6-.9-.9zm-68.9 68c1.4.3 2.6 1.3 3 2.6-.1-.7-.1-1.3-.1-1.7l-3.3-1.7c0 .1.1.2.1.2.1.3.2.5.3.6zm5.5-140.9c1-.7 2-.5 2.8.2.4.3.5-.1.7 0 .9.5 1.7 1 2.5 1.6.9.8 1.2 1.6 1 2.8l.6-.6-.6 2-.7 2.5c-1.3-.9.2-1.9-.3-2.9-.2.2-.3.4-.5.6L132 53c-.5-1-1-1.9-2.2-2.3-.8-.2-1.5-.9-2.2-1.5zm6.1 4h.1v-.8c-.1.3-.1.5-.1.8zm21.9-7.3c-.5 0-.5-.2-.4-.6l.7-3.2c0-.1-.2-.2-.2-.3-.1-.3-.3-.5-.3-.8l-.1-3c0 .5-.1 1-.1 1.5-.6-1-1.9-1.9-.8-3.2 1.3.6 1.9 1.8 2.1 3.4.2-.4.2-.7.3-.9 1.1 1 1.6 2.9 1.2 4.4-.8 1-1.6 1.8-2.4 2.7zm-36.3 11.9c.1-.7.5-.3.8-.2.6.5 1.2.5 1.9.7 1.2.3 2.2 1.1 3.3 1.7.2.1.2.6.3.8s.3.3.5.4c0 .5-.1.9-.1 1.3h.1v-1.3c.9.1 1.4 1 1.1 1.9l-1.3 3c-.7-1-1.2-1.9-.8-3.1.1-.4-.1-.9-.2-1.5-.1.5-.2.8-.2 1.2-.2 0-.3-.1-.3-.1-.2-1-1.1-1.7-1.8-2.2-.9-.6-1.3-1.7-2.4-1.9-.3-.2-.6-.5-.9-.7zM138 203.4l.4.6c.1.2.2.5.3.7v-.8c.1-1.2 1.1-1.9 2.2-1.6 1.6.5 2.3 2.2 1.5 3.4-.1.1-.2.3-.3.3-.9-.2-1.1 1-1.9.8l-1.3-.3c-1.2-.5-1.6-1.6-.9-3.1zm45.7-7.5c.5-.6.8-1.1 1.1-1.5.8-1 1.2-1.2 2.2-.9s1.8 1.2 1.8 2.2c.1 1.4-1.3 2.6-2.9 2.4-1.3-.3-1.9-.9-2.2-2.2zm3.2.5s.1.1.2.1c.1-.1.3-.2.4-.3.1-.2 0-.3 0-.5h-.2c-.1.2-.3.4-.4.7zM113 155l.6 2.3c.2-1-.1-1.9.3-2.8.3-.7.8-.9 1.4-.9a2.58 2.58 0 0 1 2.5 1.9 2.21 2.21 0 0 1-1.1 2.4c-1.1.6-2.4.5-3.2-.3-.6-.6-1.1-1.4-.5-2.6zm2 18.2l.9-3c1.3-.4 2.4-.2 3 .5.8 1.1.9 2.1.2 2.9-.6.8-2 1.2-3 .8-1.2-.4-1.6-1.1-1.6-2.9.2.5.2.7.3.9 0 .3.1.5.2.8zm2.3-104.3c1.3.7.6 1.8.9 2.8l.2-1.8c1.6.9 2.1 2.4 1.2 3.7-.4.6-.6 1.2-.7 1.9 0 .4-.2.8-.4 1.4l-2-6.9c-.2.1-.4.2-.7.4-.6-.9-2.1-1.2-2-2.8l2.3.7c1 .4.5 1.5 1.1 2.3.1-.5.1-1 .1-1.7zm67.5 119.8v1.1c.5-.8.8-1.7 1.6-1.9 1.1-.1 1.3 1.2 2.3 1.2.6 1.2.5 2.2-.5 2.9-1 .8-2.5.7-3.5-.2-.8-.8-.9-1.8.1-3.1zm-62.1.2c-.6-.8-.9-1.7-.3-2.7.3-.5.7-.8 1.4-.4.6.3 1.3.3 1.9.5 0-.1.1-.2.1-.3-.5-.2-1-.3-1.7-.5 1.1-.5 2.2-.2 2.8.7.6 1 .4 2.3-.5 3-1.2.9-2.3.8-3.7-.3h.7c-.3-.5-.5-.9-.7-1.4-.1 0-.1.1-.2.1 0 .4.1.9.2 1.3zm64.9 12.7c-.5 1.3-1.2 1.9-2.5 1.8-1.1-.1-2-.7-2.3-1.7-.1-.5 0-1 .2-1.5.1.2.2.4.3.7.4-1 .5-2.1 1.8-2.2 1.2 0 2.1.4 2.5 1.6-.9.3-.5 1-.7 1.8l.7-.5zm-54.1-1.6c.1.4.2.8.2 1.2h.2c0-.5.1-1 .2-1.5.2-1.1 1.3-1.8 2.4-1.4 1.3.4 2.1 1.6 1.8 2.8s-1.7 2-3 1.8c-1.6-.4-2.2-1.3-1.8-2.9zm4.2 1c-.1-.5-.1-.9-.2-1.5l-.7 1.2c.3.1.5.2.9.3zm-7.3-10.7c.7 1.2.7 1.9 0 2.7s-2 1.1-3.1.6-1.5-1.2-1.3-3l.5 2 .4-2c.2-1.2.8-1.7 1.9-1.4.4.1.8.4 1.2.6-.2.5-.3 1-.5 1.6 1 0 1.1-.5.9-1.1zm13.2 16c-.1.6-.1 1-.2 1.2l2.1-1.8c.5.2 1 .5 1.6.8-.1.6-.1 1.2-.4 1.4-.3.3-.4.5-.1.7.4.2.7.1.7-.4 0-.1.1-.2.1-.3.1 1.4-.2 1.8-1.2 2.2-1.7.5-2.9.2-3.5-.9-.5-1-.3-1.8.9-2.9zm45.2-23.4c.8 1.3.9 2.2.1 3-.8.9-2.2 1.1-3.4.5-1-.5-1.2-1.2-1-2.6.1.2.2.3.3.5 1.6-2.5 2.4-2.8 4-1.4 0 .6.1 1.3-.8 1.4.1.4.3.7.4 1 .9-.7.8-1.5.4-2.4zm-58.6 14l1.2-2.9c1.7-.1 2.8.6 3 1.9.2 1.1-.6 2.2-1.9 2.5s-2.7-.3-3.1-1.5c-.4-1.1 0-2.1 1.4-2.7-.5 1-1.3 1.8-.6 2.7zm2.9.1c.8-1.2.7-1.5-.2-2.2l.2 2.2zm-18.7-28.1c-1.4-.9-1.6-1.7-.7-3.3h3.3l-1.7-.9c1-.1 1.9.2 2.5 1 .6.7.6 1.8.1 2.6-.6.9-1.5 1.2-2.5 1.1-.4-.1-.7-.4-1-.5.5 0 1.1.2 1.6-.5l-2-.3c.1.2.3.5.4.8zm5.3 11.9l-.4 2.1c.1 0 .2 0 .3.1l.6-1.7c.4-1.1.8-1.3 1.9-.9.5.2.9.5 1.5.8l-.6.3v2.7c-1.4.9-2.8.9-3.7-.1-.7-.8-.7-1.9.4-3.3zm67 25.3c-.4-.5-.8-.8-1.2-1.2-.1 0-.1.1-.2.1l.9 1.8.6-.3c.1.3.1.4.1.5-.3 1.1-1 1.7-2.4 1.7-1.2 0-2-.5-2.3-1.5-.3-.9-.2-1.2.7-1.8.2-.1.3-.4.4-.6.5-.7 1.3-.8 2-.6s1.5.5 1.4 1.5c.1.2.1.2 0 .4zM113.1 162v1.1h-.3c-.1-.6-.3-1.1-.4-1.7-.1-.7.2-1.5.9-1.8.7-.4 1.4 0 1.9.4.3.2.6.5 1.1.7l-1-1.3c1.3.1 2 .8 2.1 1.9.1 1.3-.8 2.1-2.5 2.5-.6-.5-1.2-1.1-1.8-1.8zm71.7 16.2c.1.4.1.8.2 1.2h.2c.1-.5.2-1 .4-1.5 0-.2.1-.4.2-.5.5-.7 1.3-1 2-.7.5.2 1 1.3.8 2.1l-.3.8c1.1.2 1-.6 1.1-1.3.4.8.1 1.9-.5 2.4-.8.7-2.1.8-3.1.2-1.2-.5-1.5-1.3-1-2.7zm-63.3-.6c-.5 1.9-1.7 2.6-3.3 2.2-1.3-.3-1.7-1-1.2-2.3.2-.7.6-1.4 1.1-1.9.5-.6 1.4-.5 1.9-.1.4.3.5 1 .7 1.5 0 0-.2.1-.2.2-.1.2-.1.4-.2.6.2 0 .5.1.7.1.1 0 .3-.1.5-.3zm41.7-134.5a6.53 6.53 0 0 1 .7.8c0-.8-.6-2 .2-2.1.9-.1.2-1.3 1.2-1l.2 3.6c-.2.1-.4.3-.7.4.3.7.6 1.4 0 2.2-.2.3-.1.8 0 1.2.1.5.3.9.3 1.5l-.5-.5-2-3c-.4-.6-.5-1.1-.2-1.7.2-.4.5-.9.8-1.4zm-20-.8c.9.5.9 1.3.9 2.2.1-.4.1-.6.2-.9 1.2.4.6 1.4.8 2.1.3.1.7 0 .8.2.3.6.7 1.2.2 1.8l-2.3 3.1c-.1 0-.1-.1-.2-.1l.4-3.5c-.9-1.3-2-2.8-.8-4.9zm43.2 122.3c.1-.3.1-.5.1-.8-.2.1-.4.1-.5.2a1.65 1.65 0 0 1-1.9 0c-.6-.4-.8-1.2-.7-1.9 0-.2.1-.6.3-.7.8-.4 1.7-.8 2.6-1.1.2-.1.5.1.7.3 1.5 1 1.3 3.1-.6 4zm-2.1 2.7c.1.6.2.9.2 1.4.2-.2.2-.3.2-.3 0-.3.1-.5.1-.8 0-1.6.7-2.2 2.2-1.9.2 0 .4.1.4.2 0 .5-.3 1.1-.1 1.4.5.7.2 1.5.2 2.2s-.4 1-1 1c-1.6-.2-2.7-1.4-2.2-3.2zm.1-8.2c.3-.4.4-.6.6-.8l-1.3.2c-.5-1.3.1-2.3.6-3.5.1 0 .3 0 .5-.1.7-.3 1.4-.3 1.9.4.5.8.7 1.6.2 2.5-.5.8-1.2 1.4-2.5 1.3zm-68.3-9.5c.2.5.3.9.6 1.8.2-.8.3-1.3.5-1.7s.7-.8 1.1-.8c.6 0 .5.6.6 1v1.2c.1.7-.1 1.2-1.2 1 .3.2.4.3.5.3.3 0 .8-.2.8.4.1.5-.3.6-.6.6a2.49 2.49 0 0 1-2.6-1.2c-.7-.9-.6-1.6.3-2.6zm2.2-15c-.9-.7-1.7-1-2.9-.4v-3.1c0-.3.2-.6.4-.8l1.7-1.7.8 6zm66.5 38.2c.2.3.4.7.6 1.1.1-2.7.2-2.9 2.1-2.7l.3 4.3c-2.1.7-3.6-.5-3-2.7zm8-101.1c-.6.5-1.2 1.4-1.8 1.5-1 .1-.9 1.3-1.9 1.4-.5.1-.3 1.4-1.4 1.3 0-.2-.1-.3-.1-.5-.3-2.5-.2-2.4 2.2-3.5 1.1-.5 2.2-.8 3.6-1.1l-.4.8-.2.1zm-65.5-19.3c.8.1 1.6.1 2.3.3.3.1.6.6.6.9.3 1.1.4 2.3.5 3.5-1.6-1.3-3.5-2.3-3.9-4.6.2 0 .3 0 .5-.1zm25.5-12.9c1.1 1 1.1 1 1 1.9-.2 0-.4-.1-.7-.1v.3c.6.4.6.9.3 1.6-.2.5-.3 1-.4 1.4 0 .1-.1.1-.2.2-1.1-1.2-1.9-3.1-1.7-4.4.3.2.5.4.9.7v-.5c-.3-.6-1-1-.6-1.7.4.1.8.2 1.2.2 0 .2.1.3.2.4zm16.4 3.2l1-1v2.6c0 .3-.1.6-.2.8-.7 1-1.5 2-2.4 3-.1-1.4-1-2.7.2-4l1.4-1.4zM117.6 159c.4 0 1-.2 1.2 0 .3.5.9.7 1.1 1.5.3 1.7.1 3.2-1.4 4.4-.3-.3-.7-.5-.9-.8.3-.9.7-1.7.7-2.5-.1-.7-.4-1.5-.7-2.6zm77.1-72.5l-.5 4.7c-.2 1.8-.6 3.6-2.2 5.2.1-.7.1-1 .2-1.3l.8-4.8c.3-1.3.6-2.7 1.7-3.8zm-8.4 53.7c-.3 1.7-1 3.1-2.7 4.2 0-2 .5-3.6.7-5.4.5-.1.9-.2 1.4-.4l.6 1.6zm-.7-79.7c.5-.3 1-.8 1.5-.8.7-.1 1.3-.1 1.8-.6-.8 2.2-2.1 3.8-4.6 4.5.2-.4.3-.6.5-.8s.3-.4.4-.5l-.3-1c.3-.2.5-.5.7-.8zm-73.5 24.4c-.3-.1-.7-.2-.8-.4-.3-.6-.6-1.3-.7-2-.2-.9-.2-1.9-.3-3 1.2 1 .6 2.3 1 3.6l.1-2.5c.6.7 1.8.9 1.7 2l-.8 3c-.6 0-.4-.3-.2-.7 0-.7.1-1.4.1-2h-.3l.2 2zm73.5-24.4c-.2.3-.4.5-.6.8l-2.4 2.6c-.2-.7-.3-1.1-.3-1.4h-.2v2.2c-.8-.8-.9-1.8-.8-2.8 0-.2.3-.4.5-.5l3.3-1.2c.1 0 .3.2.5.3zm-1.4 150.7c-.3-.4-.5-.8-.8-1.2 1.1-.4 4.2-.5 5.8-.2l-1.7 1.1-1.6 1-.5-.8-.6 1.7c-.3-.6-.5-1.1-.6-1.6-.1-.1 0 0 0 0zm8-81c-.4-1.7.5-7 1.2-8.3.7 2.6.4 6.3-1.2 8.3zm-6.9 2.1c1.7 1 2 1.7 1.3 3.2-.4.9-.9 1.8-2 2.3l.7-5.5zm12.3-45.8c.9.2.7 1 .5 1.3-.9 1.2-2 2.3-3.3 3.4 0-.9 0-1.9.2-2.8 0-.3.4-.7.7-.9.5-.3 1-.5 1.5-.8.1 0 .2-.1.4-.2zm-.6 1.6c0-.1-.1-.1-.1-.2-.2.2-.3.3-.5.4l.1.1c.1 0 .3-.2.5-.3zm-56.2-42.6c0 .2-.1.4 0 .4.9 1.1.2 2.3.3 3.6-1.3-1-1.4-1.2-2.5-4.4l1.3 1c-.1-1-1.6-1.2-1.3-2.6l1.6 1.6c.2.1.4.2.6.4zM197 86.4l-1.6.4 1.8-2.3c.3-.5.7-.9 1.1-1.4.5-.9 1.1-1.5 2.3-1.4-.5 1.1-.8 2.1-1.8 2.8-.3.2-.4.7-.6 1.1-.5.2-.8.5-1.2.8zm-83.8-7.5c1.4.6 2.5 1.2 3.6 1.5 1.3.2 1.6 1.6 2.6 1.9-2.1-.2-4.1-.7-5.7-2.1-.2-.2-.3-.7-.5-1.3zm72-6.4c-.5 2.4-2.5 2.6-4.3 3.3-.2.1-.5 0-.5-.2-.1-.2-.1-.5 0-.7.2-.3.5-.7.8-.9 1.3-.4 2.6-.9 4-1.5zm-5.5-4.8c-.1-.4-.3-.9-.4-1.3-.5-1.6-.5-1.6.8-3.5.3 2 1.6 3.7.3 5.8-.3-.3-.5-.7-.7-1zm-72.9 16.1c0-.2.1-.5.2-.8l-1.2-.6c-.9-.3-1-1.1-1-1.9 0 0 .2-.1.3-.1a.76.76 0 0 0 .4.2c0 .6.3.9.9 1 2.2.2 2.3 1.9 2.8 3.8l-1.3-.8c-.4-.2-.7-.5-1.1-.8zM191 96.5c-1.2-1.4-1.7-3.1-2.1-5l2.3 2.3c.9 1.1.9 1.3-.2 2.7zm-56.2-33c-.4.1-.6.2-.8.2-1.2-.4-2.5-.6-3.6-1.2-.7-.3-1.1-1.1-1.8-1.9l1.3.4c.8.3 1.5.7 2.3.8 1.1.1 1.6 1 2.6 1.7zm58 8.2l.1-.1c.7-.3 1.3-.7 2.2-1.1-.2.8-.5 1.4-1.1 1.8-.7.5-1 1.1-1.4 1.7l-.4.4-2.1 1.4c.1-.4.1-.7.2-.8 1.3-.7 1.5-2.3 2.5-3.3zm-66.1.4c-.1.5-.4.7-.9.5-1.2-.3-2.3-.7-3.1-1.8-.2-.4-.6-.6-.8-1 1.6.7 3.6.7 4.8 2.3zM108.2 91c1.7.6 3.7.5 5 2.6-1.9-.1-3.4-.7-4.8-1.5-.2-.1-.4-.5-.5-.8l.3-.3zm2.7 1.6c0-.1 0-.2.1-.3-.4-.1-.8-.2-1.2-.4 0 .1 0 .2-.1.3.4.2.8.3 1.2.4zm73.5 56.8c1.2.7 1.6 1.4 1.4 2.4-.2.9-.7 1.7-1.8 1.8l.4-4.2zM129 65.7l-1.7 5.2c-1.2-1-1.4-1.6-.5-2.7.6-.9 1.4-1.7 2.1-2.5h.1zm6.2-3.2l-1.2-2.2 2.7-3.3h.2l-1.7 5.5zm37-9.1l.8 3c.5.8 1.3 1.6 1.4 2.9-.3-.3-.6-.5-.7-.7-.8-1-1.5-2-2.2-3.1-.6-.8-.3-1.5.7-2.1zm-61.4 15.2l-1.7-1.6c1.6-.7 2.6-.3 3.6 1.3-.4.1-.3.8-1 .7-.3-.2-.6-.3-.9-.4zm67.5-19.5L180 47c.2.2.5.4.5.5-.3.7-.7 1.4-1.1 2.1-.2.4-.3.8-.5 1.1-.1.1-.1.2-.2.2l-2 1.1 1.6-2.9zm-56.5 26.2l-1.7 5.2-1.2-1.7 2.7-3.6s.1 0 .2.1zM179 53c.9.2.5.8.2 1.1l-2.5 3.2c-.3-.8-.6-1.4-.1-2L179 53zm13 33c0-.8.1-.7.8-1.1.4-.2.6-.6 1.1-1.1.3 1.7.2 3-1 4.4l-.3-1.8c-.2.1-.3.2-.5.3 0-.2-.1-.4-.1-.7zm-78.1-13.1c.4.2.8.4 1.2.7.1.6.3 1.1.4 1.7-1.3-.2-2.7-1.3-3.7-3.3.5.3.9.4 1.2.5.3.2.6.3.9.4zm-4.8 7.1c.1.5.1.9.2 1.6-1-.5-1.8-1-2.3-1.9l-.5-.8c.1-.2.2-.6.3-.5.9.1 1.7.2 2.1 1.2a.76.76 0 0 0 .2.4z"/><path d="M170.2 51.5l.5-.5c-.6 1.8-2.6 3.4-4.7 3.7.3-1 .6-1.9 1.9-1.9.3 0 .6-.3.9-.5.7.3.9-.4 1.4-.8zm-56.3 21.4c-.3-.1-.7-.3-1-.4-.6-.6-1.6-.9-1.6-2.2.4.2.7.3 1 .4.5.2.9.5 1.3.7.5.5 1.4.5 1.2 1.6-.2 0-.5 0-.9-.1zm5.6-12.3c-1.2-.4-1.7-1.4-2.3-2.4.2-.1.4-.1.5-.2.5.4 1.1.7 1.6 1.1l1.2.9c.3.2.5.5.8.8-.2 0-.3.1-.4.1l-1.4-.3zm36.1-14.7l2.4-2.6h.4c.2.6.1 1.1-.4 1.5l-3.4 2.8c0-.9.7-1.2 1-1.7z"/><path d="M142.4 50.2c.1.2.3.3.3.5l.2 4.5c-.3-.4-.6-.6-.6-.9-.3-1.1-.5-2.3-.7-3.5-.1-.4 0-.8.5-.9l.3.3zm47.4 28.7c-.6-.7-.6-.8.4-1.5l1.6-1.5c.3-.1.7-.2 1.1-.3l.2.2a6.42 6.42 0 0 1-1 1.3l-2.3 1.8zm-70.4-19.7c-.5-.4-1.1-.7-1.6-1.1l-1.5-1.4c1.3 0 2.2.4 3 1.1.3.3.6.6.8.9.1.5-.3.5-.7.5zm.1 1.4l1.4.3c.1.5.3.7.8.9.8.3 1 .9.6 1.8l-2.4-1.7c-.1-.4-.3-.9-.4-1.3z"/><path d="M119.9 61.9l2.4 1.7c.1.2.3.3.4.5.3.5-.1.4-.4.4l-1.5-.6c-.8-.6-1.9-1.1-1.9-2.6.4.2.7.4 1 .6zm10.5 1.3l1.7 2.8c-.2.3-.5.6-1 1.1-.3-1.5-1.3-2.4-1.2-3.7.2 0 .4-.1.5-.2zm54.9 2.1c.3-.2.7-.4 1.2-.7 0 1.2-1.1 1.4-1.5 2.1l-1 .7c-.3.1-.5.3-.8.4-.4-.8 0-1.2.5-1.6.5-.2 1.1-.6 1.6-.9zm-45-23.6c.1-.3.1-.6.2-.9.8.5 2 .5 2 1.9 0 .5-.1.9-.7.9-.5-.4-.9-.8-1.3-1.2-.2-.2-.1-.5-.2-.7 0-.1 0 0 0 0zM192 86c0 .3.1.5.1.8.2.7.2 1.5.5 2.2.2.7.2 1.3-.3 2.1-.8-1.5-.9-3-.8-4.6 0-.2.3-.4.5-.5zm-22.5-47.2l2.2-2c-.2 1.5-1.2 2.1-1.6 3l-1.1.6c-.2 0-.4-.1-.6-.1.3-.5.7-1 1.1-1.5zm-57.2 46.9l.8-3c.7 0 .9.6.8 1.1l-1.4 3.6c-.1 0-.2 0-.4-.1.1-.5.2-1.1.2-1.6zM179 53l-2.4 2.4c-.7-.5-.1-1 0-1.5l1-.6 1.6-1.6c.1.1.2.1.3.2-.2.3-.4.7-.5 1.1zm-73.5 27.7a.76.76 0 0 0-.4-.2l-2.1-2h1.1l1.9 1 .8 1.5c-.6-.1-1-.2-1.3-.3zm88.6 5.1c.1-.7 0-1.5.4-2s1.2-.6 1.9-.9c.1 1.6-1.3 2-1.9 3-.1 0-.3 0-.4-.1zm-42-34.7l1.5 1.8c-1.5-.3-3.4-2.4-3.9-4.1.6 0 .7.4.8.8.6.5 1.1 1 1.6 1.5zm-38.4 20.3c-.5-.2-.9-.5-1.3-.7l-1.6-1.5c-.2-.2-.6-.5 0-.7.3.1.7.3 1 .4.7.4 1 1.3 1.9 1.4.3 0 .5.6.8 1-.4.1-.6.1-.8.1zm10.3-6.2c.9 0 .8.7.9 1.3.2.8.2 1.5.3 2.3-1.2-.3-1.8-1.9-1.2-3.6zM162 49l3.2 3-.3 1.5-3-4.4s0-.1.1-.1zm-54.2 40c.7-.9 1.4-.5 2-.2l.7 1.8c-.1.1-.2.1-.2.2l-2.5-1.8zm77.9-4.3l-1.4-2.4c-.2-.3-.4-.6-.7-.9 0-.2.1-.3.1-.5 0-.1-.1-.3-.1-.4.1 0 .1-.1.2-.1l2.4 3.2c.3.5 0 .8-.5 1.1z"/><path d="M166.5 49.3c-.2-.2-.5-.3-.8-.5V46c.7-.2.9.2.9.6.1.8.1 1.7.1 2.5.1.1-.2.1-.2.2zm-24.1.9l-.3-.3c-.1-.4-.3-.9-.3-1.3 0-1.1.1-2.2.2-3.4.3.6.6 1.1.6 1.6l.2 3c0 .1-.3.3-.4.4zm43.7 29.7l.6 1.3c-.1 0-.2.1-.3.1-.9-1.4-1.3-3.1-1.6-4.7 0-.3.2-.6.3-1.1l.8 2.6c.1.6.2 1.2.2 1.8zm-32.4-33.6c-.3-.6-.4-1.1 0-1.7.2-.3.2-.7.3-1.1s.2-.7.4-1.1c.6.3.6.7.5 1.1l-.6 2.6c-.1 0-.5.1-.6.2zm36.1 32.6l2.3-1.8c.2 0 .3 0 .7.1a20.24 20.24 0 0 1-3.4 3.2c-.5-.8.1-1.1.4-1.5zm-62.2-29.7c.5 1.1-.4.5-.8.6l-.8-.5-1.8-1.3c1.3 0 2.5.3 3.4 1.2zm43.8 9.4l1.2.9 1.4 1.2c.3.3.6.6.1 1.2l-2.4-2.2-.3-1.1zm-19.5-23.2c-.2-.5-.5-1-.7-1.6.1 0 .2-.1.3-.1.8.9 2.1 1.6 1.9 3.5-.4-.4-.7-.6-.9-.8-.3-.3-.5-.7-.6-1zm-6.2 16.7c-.2 1.4-1 2.1-2.1 2.6-.3-1.4-.3-1.4.7-1.9.4-.3.9-.5 1.4-.7zm44.1 33.2v.4c-1.3.9-2.8 1.2-4.2 1.6 0-.1-.1-.2-.2-.3.6-.3 1.1-.6 1.7-.8l2.1-.8c.2-.1.4-.1.6-.1zm.7 2l1.8 5.1c-1.1-1.5-2-3.1-2.1-5 .1-.1.2-.1.3-.1zm-3.2-13.9c-.2 1.7.3 3.2 0 4.8-1-1.5-1-3.4 0-4.8zm-30.6-21.6c-.7.4-1.5.7-2.2 1.1 0-.1-.1-.1-.1-.2l3.8-3.2c-.1 1.2-.9 1.7-1.5 2.3zm-24.8 8.9c-1.2-.4-2.2-.8-2.5-2.1 1.7-.1 1.7 0 2.5 2.1zm8-5.5l-.9-1.8c1.1.3 2.7 1.4 3.3 2.2-.6.8-1.2.2-1.8.1.2-.4.2-.8-.2-1s-.6-.1-.4.5zm-34 24.3l-1.9-1c.1-.1.1-.4.2-.4.9-.1 1.6.2 2.2.9l.5.8c-.4.4-.7-.2-1-.3z"/><path d="M107.2 84.7c.5.4.9.9 1.4 1.2.4.3.9.5.6 1.2-1.3-.8-2.5-1.7-3.7-3.2.9.5 1.3.7 1.7.8zm29.5-23.8l1-3.2c.4.5.6 1 1 1.6l-2.3 1.4c.1.1.2.1.3.2zm-19.2 16.4c-.5.2-.8.2-1.1-.4-.3-.8-.3-1.6 0-2.3l.2-.2c.6.2.6.7.6 1.2l.3 1.7zm58.7-14.9l3.4-2.6c.4.6.1.9-.2 1.1-.8.6-1.7 1.1-2.5 1.6-.3 0-.5 0-.7-.1zm-9.2-23l-.4 2.7c-1.1-.3-.4 1-1.1 1.6.2-1.4.2-2.5.5-3.6 0-.3.6-.5 1-.7zm-15.1-4l.6 1 1.3 2.7-.8-.3-1.1-1.7c-.2-.4-.3-.7-.4-1.1-.2-.4 0-.6.4-.6zm-35.6 48.7c.6.5 1.1.8 1.6 1.2a9.13 9.13 0 0 0-.8 1.3c-1.1-.6-.8-1.5-.8-2.5zm23-42.8l.3 1.2c-.4-.2-.7-.3-1-.4-.4-.8-.9-1.6-1.3-2.3l.2-.2c.2.1.3.2.5.3.4.6.9 1 1.3 1.4z"/><path d="M123.1 68.8c-.4-.3-.7-.7-1.1-.9-.5-.4-1-.7-1.4-1.2l2.6 1c.3.1.4.5.5.8l-.6.3zm-12.8 19c-.4-1-.5-2-.6-3.1 1.7.4.6 1.9 1.3 2.5-.2.2-.5.4-.7.6zm13.8-22.6c-.3.1-.6 0-.7-.4l-.4-2.6c1.3.9 1.7 2 1.1 3-.1 0 0 0 0 0zm-7.4 9.1c-.1.1-.2.1-.2.2-.1-.1-.3-.1-.4-.2l-.9-3.4c.8 1 1.7 2 1.5 3.4zm67.3-6.9l1-.7h.9l-2.8 2.6c-.5-1.1.7-1.2.9-1.9zm-29.1-17.5h-.8c0-.1-.1-.2-.1-.3 1-.7 2.1-1.1 3.3-1.5l-2 1.7c-.1 0-.2 0-.4.1zm-34.1 14l1.5.6c.2.3.9.4.5 1.2l-3-1.9c.1-.1.1-.3.2-.4.2.2.5.3.8.5zm48.7-25.1l-1.1 1.5c-.3.2-.7.3-1.2.5.3-1.2.7-2 1.7-2.4.3-.1.5 0 .6.4z"/><path d="M122.7 73.3c1.4 2.1 1.4 2.1 1.1 2.9-1.3-1.3-1.3-1.4-1.1-2.9zm4.2-7l1.7-3.8c.3.5.3.6-.4 1.9-.3.7-.8 1.4-1.1 2.1-.1 0-.1-.1-.2-.2zm-13 25.8c-1-1.3-.9-1.5.9-3l-.9 3zm75.3 79.9c-.2.6-.4 1-.6 1.5-1.2-.3-.6-1.2-.8-2.2l1.4.7zM153.6 47.2l-.2 3.3h-.3c-.3-1-.3-2.1-.1-3.2 0-.1.3-.1.4-.1h.2zm1.3 2.7c.1 0 .3 0 .4-.1.1 0 .2-.1.3-.1h.4c-.1 1.1-1.3 1.1-1.7 1.9-.7-1.1 0-1.4.6-1.7zm36.9 26l-1.6 1.5c-.2 0-.5 0-.8-.1.3-1.4 1.4-1.3 2.4-1.4zm-15.6-13.5c.2 0 .4 0 .6.1.2 0 .4.1.5.1-.1.1-.2.3-.3.4l-1.7.9c-.1-.1-.2-.3-.4-.4.5-.3.9-.7 1.3-1.1zm-7.6-13c.2-.1.5-.2.7-.3.1.1.1.2.2.2l-2.3 3c-.2-1.1.3-1.5.8-1.9.2-.4.4-.7.6-1zm17.5 30.5c-.1-.6-.1-1.2-.2-1.8-.1-.3-.1-.6-.2-1 1 1 1.3 1.8 1.1 3.1-.3-.1-.5-.2-.7-.3zm-.8-14.6c-.6.3-1.1.7-1.7 1-.5-.3-.6-.6-.2-.8.6-.3 1.2-.6 2.1-.9-.1.3-.1.5-.2.7zm-33.4-28.2l1.1 1.7c-.1.2-.1.5-.2.7l-.3-.3c-.4-.5-.8-1-1.1-1.6-.1-.2-.2-.7.5-.5zm33.8 47.5c0 .4 0 .7-.1 1.3-1-.7-1.3-1.5-1.6-2.5l1.7 1.2c0 .1 0 0 0 0zM169 40.4l1.1-.6c-.1.3 0 .8-.3 1-.4.4-1 .8-1.7 1 .2-.4.6-.9.9-1.4zm.2 2.3l-1.5 1.4a.76.76 0 0 0-.4.2c.1-1.2.7-1.9 1.7-1.9 0-.1.1.2.2.3zM183 71.8c-.6-.2-.8-.7-.3-.9.6-.4 1.2-.6 2-.6l-1.2 1.3c-.2 0-.3.2-.5.2zm-56.4-20.9c.1-.2.2-.5.3-.7.7.7 1.9.8 2.5 2.1l-1.6-.5-1.2-.9zm53.2 22.4c-1-.9-1.4-2-1.8-3.2.4.5.8.9 1.1 1.4s1.1.8.7 1.8zm-4.2-15.2c-.1-.1-.1-.2-.2-.2-.6-.2-.7-.7-.5-1.2.2-.7.7-.3 1.1-.2 0 .4 0 .8.1 1.1s-.1.6-.5.5zm-36.3-16.8c-.5-.4-.9-.9-1.4-1.3.5-.9.9-.2 1.2.1.5.5.8 1.1 1.1 1.6-.2-.2-.5-.3-.9-.4z"/><path d="M194.7 96l2.9-1.5c-.2.4-.2.7-.4.8-.7.4-1.4.7-2.2 1.1 0 .1-.2-.2-.3-.4zm-19.3-32.1l1.7-.9c0 .1.2.4.1.4-.9.7-1.8 1.3-2.9 1.6-.1-.1-.1-.2-.2-.3.4-.2.8-.5 1.3-.8zm.6-7.4c-.4-.2-.8-.4-1.2-.7l.6-1.9h.2l.4 2.6zm-44 3c.3-.1.6-.1 1-.2l.9 2.4c-.1 0-.1.1-.2.1l-1.7-2.3zm57.9 22.8h.4c-.6 1.1-.7 1.1-2 1.8-.1-.9.6-1.2 1.1-1.6.2 0 .4-.1.5-.2zm-37.8-31.2l-1.6-1.5c.1-.1.1-.3.2-.4l1.7 1.5s-.2.2-.3.4zm38.3 40.4c-.7-.7-1.3-1.5-1.4-2.6.9.6.9 1.7 1.4 2.6zm-14.6-31.8c-.1 1-.2 2.1-1 3.3l.3-3.2c.2 0 .5 0 .7-.1zM187 88.6c-.4 0-.9.7-1.3-.3l2.1-.8c.1.1.2.3.3.4l-1.1.7zm2.8-3.3h-.7c-.6.1-1.1.3-1.7.4 0-.1 0-.2-.1-.3l3.6-1.4-1.1 1.3zm-23-34.4l-1 2.6c-.1 0-.1 0-.2-.1l.2-2.6c.4.1.7.1 1 .1zM115.6 78l1 1c-1-.2-2-.3-2.1-1.6l1.1.6zm64.1-10.3c-.1.2-.1.4-.2.6-1.1-1.4-1.3-2-1-3l1.2 2.4zm7.5 24.9c-.5-1.2-.5-1.2.6-1.8.3.7-.1 1.2-.6 1.8zM132 57.5c-.5-.5-.8-1.1-.4-1.9 1 0 .6 1 1.3 1.3-.4.4-.7.5-.9.6zm56.1 112.3c-.2-1.4-.2-1.4.5-2.3.3 1.2.3 1.2-.5 2.3z"/><path d="M157.4 46.3c-.2 1.1-1.1 1.2-1.7 1.7-.1-.1-.1-.2-.2-.3l1.9-1.4zM138 55c1 .4.8 1.1.8 2-.7-.6-1.2-1-.8-2zm-6 2.6c.6-.3.9.2.9.6 0 .3-.1.6-.3.9-.1.2-.4.3-.6.4v-1.9c0-.1 0 0 0 0zm49.4 13.7c-.7-.8-.6-1.1.4-1.5.1.4.3.8.3 1.3-.1.3-.4.3-.7.2zm.9-2.9c0 .3-.1.5 0 .8.1.5-.1.6-.5.5-.1-.1-.1-.2-.2-.2-.4-.3-.7-.7-.3-1.1.2-.1.7 0 1 0zm-50.4-12.9c-1.1-.3-.7-1.1-.9-1.9.9.4 1.1 1 .9 1.9zM188.8 79l-.3 1.4h.1c-.1-.1-.1-.2-.2-.2-.4-.2-.9-.3-.8-.9.2-.7.8-.2 1.2-.3zm-71.1 4.5c-.3-.2-.6-.5-.9-.7 0-.1.1-.1.1-.2l2 .5v.3c-.2.1-.3.1-.5.2-.2-.1-.4-.1-.7-.1zm66.1-2.6c0 .2-.1.3-.1.5-.2 0-.5 0-.6-.1-.2-.6-.4-1.3-.3-2 .3.5.7 1 1 1.6zm-6.2-27.6l-1 .6c-.3-.7-.2-1 .5-1.2.5-.1.7.1.5.6zm-27.4-1.8l1.1 1.4c-.3.1-.6.1-1.1.2v-1.6zm30.6 25.3l1.4-.6c.1.7-.2 1.1-.7 1.6-.2-.4-.4-.7-.7-1zm-.6-22c-.3 1.2-1.3 1.6-2 2.4-.1-.1-.2-.1-.2-.2.7-.8 1.5-1.5 2.2-2.2zm6.7 33.8c.6 0 .9.2.5.8-.2.3-.6.5-1 .7-.8-.9.5-1 .5-1.5zm-47.7-37.7v-.3c.8-.1 1.3.4 1.7.9-.1.1-.3.2-.4.3-.4-.4-.8-.7-1.3-.9z"/><path d="M139.2 50.9l1.4.9c.2.2.3.5.6.9-1-.5-1.9-.8-2-1.8zM115.6 78l-1.1-.6c-.2-.2-.4-.3-.6-.5 0-.1 0-.2.1-.2.6.3 1.2.5 1.9.8-.2.2-.2.3-.3.5zm72.9 2.4c-.2.4.4 1.4-.8 1.1-.3-.3-.7-.5-.4-1 .3-.4.8 0 1.2-.1 0 .1 0 0 0 0zm-22.1-31.1c.1.6.3 1.1.4 1.7-.4-.2-.7-.4-1.1-.5.1-.6 0-1.2.7-1.2zm9.2 16.1c.2.9.2.9-.4 1.4-.3-.6-.8-1.2.4-1.4zm-4.2-6.8l.3 1.1c-.8-.3-.8-.3-1.1-1.5.3.2.5.3.8.4zm26.8 24.5l-1.5.6c0-1 .6-1.2 1.4-1.4 0 .3.1.6.1.8zm-85.9 11.3c.1.3.2.6.3 1.2-.8-.2-1.2-.4-1.8-.6.6-.3 1.1-.5 1.5-.6zm82.4 1.6l-1.9.8c.4-.9 1.1-1 1.9-.8zm-73-17.3l.6-2.3c.4 1.2.4 1.2-.6 2.3zm4.2-5.4c-.8.7-.8.7-2.2-.4.9.1 1.5.2 2.2.4zm.7-22.4l1.2.9c-.2.2-.3.5-.5.7h.1c-.3-.7-1.4-.8-1.3-1.9.1.1.3.2.5.3zm-1.8 18.4c1 .2 1 .2 1.2 1.5l-1.2-1.5zm-10.1 18.4l.7-2c.3.9.3.9-.7 2zm67.7-19.3c-1.1-.8-1.1-.8-.5-1.8.9.4.3 1.2.5 1.8-.1 0 0 0 0 0z"/></g><path d="M130.4 190.3c.1.6.1 1.1-.9 1.2l.5-1.6.4.4z" class="B"/><path d="M195.2 93.2h.8l-1.7 1.4-.3-.3c.3-.3.6-.5.9-.8 0-.1.2-.2.3-.3zm-56.6-51l1.4 1.4c-.1.1-.2.2-.2.3-.7-.3-1.4-.6-1.6-1.6l.1-.1c.1-.1.2 0 .3 0zm.4 11.2l.3.6c-.9-.2-.9-.2-1.5-1.4l1.2.8zm58 33c.3-.3.7-.6 1-.8.2-.1.4-.1.6-.2 0 .1.1.2.2.3l-1.2.9c-.2.1-.3.2-.5.3 0-.3 0-.4-.1-.5zm-8.8 88.9c-.1-1 .8-1.1 1-1.6.1.9-.1 1.4-1 1.6z" class="E"/><path d="M139.9 55.2c-.2-.5.1-.7.5-.4.4.2.4.6.2 1-.3-.3-.5-.4-.7-.6z" class="B"/><path d="M175.5 58.1c.5.5.8 1 .2 1.6h.1c-1.2-.7-1.2-.9-.3-1.6zm-60.4 25.1c-.3-.6-.4-1-.6-1.4 1.1.3 1.1.3.6 1.4zm66.3-10.5l-1.1 1.9c-.2-1.2.5-1.5.8-2.1.1 0 .2.1.3.2zm-51.9-5.3c.1 1.3.1 1.3-.8 2.2.3-.7.6-1.4.8-2.2zm27.1-15.6l1 .3c-.1.1-.1.2-.2.3-.3.2-.7.3-1.1.6.2-.6.3-.9.3-1.2z" class="E"/><path d="M156.1 193.7c0-.1-.1-.3-.2-.6.9.3 1.2.9 1.6 1.3-.1.1-.2.2-.2.3-.4-.4-.8-.7-1.2-1z" class="B"/><path d="M129.5 67.5c.1-.5.4-.5.8-.3.3.3.3.4-.3 1.1-.1-.3-.3-.6-.5-.8 0-.1 0 0 0 0z" class="E"/><path d="M187.6 201.6c-.2.1-.3.2-.6.6.2-.8-.1-1.5.7-1.8 0 .4 0 .8-.1 1.2z" class="B"/><path d="M121.2 71.8c.5.7.1 1.2-.5 1.7.2-.5.3-1.1.5-1.7zm56.9-12.4l-1.5 1.6-.3-.3 1.5-1.6c.1 0 .2.1.3.3zm-67.8 28.4c.5-.1.9-.3 1.1.4 0 .1-.2.4-.3.4-.9.2-.6-.5-.8-.8zm51.8-34.9c-.2-.4-.5-.8-.7-1.3.1-.1.2-.1.3-.2.3.4.6.8.8 1.2-.2.1-.3.2-.4.3zm8.1-1.4c-.4.4-.6 1.1-1.4.9.1-.8.7-.9 1.4-.9zm8 7.1l-1.4 1.3c-.1-1.1-.1-1.1 1.1-1.6l.3.3zm9.5 23c.4.9.4.9-.6 1.2 0-.6 0-1 .6-1.2zm2.2.7c-.2.1-.3.1-.5.2h-.6c.3-.7.9-.6 1.4-.8-.1.3-.2.4-.3.6zM183 71.8c.2-.1.3-.2.5-.3 0 1-.8 1-1.2 1.5l-.3-.3c.3-.3.7-.6 1-.9zm-65.3 11.7h.8c0 .3.2.8-.4.7-.4 0-.8-.2-.4-.7zm50.9-34.1l-.6.9c-.1-.1-.4-.3-.4-.4.2-.3.5-.7 1-.5zm-16.7-2l-1.1-1.7c1.2.7 1.2.7 1.1 1.7zm-28.8 21.4a9.75 9.75 0 0 0 1.4.6c-1 0-1 0-2.1-1 .4.3.6.4.7.4z" class="E"/><path d="M122.7 188.9c-.1-.4-.2-.9-.2-1.3.1 0 .1-.1.2-.1.2.4.5.8.7 1.4h-.7c-.1 0 0 0 0 0z" class="B"/><path d="M186.3 74.2V76c-.6-.8-.6-.8 0-1.8zM152 49.3c-.3-.6-.5-.9-.8-1.4.8.2.8.2.8 1.4zm-40.7 40.6c-.2-.3-.4-.5-.6-.8.1-.1.3-.2.3-.2.2.2.4.5.6.8-.1.1-.2.1-.3.2zm-2.1-9.9c0-.3-.1-.6-.1-.9.5.4.5.4.6 1.3-.2-.1-.4-.2-.5-.4-.1 0 0 0 0 0zm79.5-2.2c0 .4.1.8.1 1.2-.2-.1-.4-.2-.5-.3-.2-.2-.3-.4-.4-.6.2-.1.5-.2.8-.3zm3.5-3.3l.4-.4h.6c-.4.8-.5.8-1 .4zM178.7 51c.1-.1.1-.2.2-.2.2-.1.3-.3.5-.4.1.1.2.2.2.3l-1.2 1.1-.2-.2c.1-.2.3-.4.5-.6zM126 49.3l.8.5v.3c-.6.3-.9-.2-1.3-.5.2 0 .4-.2.5-.3zm27.6-2.1l-.1-.1c-.1-.2-.2-.5-.4-.7.2-.1.4-.1.6-.2.4.7.4.8-.1 1zm3.9 5.2c.1-.1.1-.2.2-.3.1 0 .3-.1.8-.3-.3.5-.5.7-.6 1-.3-.1-.4-.3-.4-.4zm15.6 9.4c.5.2.9.3.9 1.1-.3-.3-.7-.5-1.1-.8.1-.1.1-.2.2-.3zM144.7 51c.3-.3.5-.6.8-1 .1.1.2.1.2.2-.3.3-.5.6-.8.9 0-.1-.1-.1-.2-.1zm-3.9-5.5c-.2-.2-.4-.3-.6-.5v-.4c.6-.1.8.2.6.9zm21.5 2.9c-.3-.3-.6-.7-.9-1 .1-.1.2-.1.2-.2.3.3.6.7.9 1l-.2.2zm-29 16.4c-.4-.1-.8-.3-1.2-.4 0-.1.1-.2.1-.3l1.2.3c0 .1-.1.2-.1.4zm55.4 13c-.6-.8-.6-.8.3-1.2-.1.5-.3.8-.3 1.2zm-81.5 6.9c-.1-.3-.2-.6-.4-.9l1.1.9h-.7zm4.9 6.9a4.67 4.67 0 0 1-.5-1c.1-.1.2-.1.3-.2l.6 1c-.2.1-.3.1-.4.2zm71.4-14.8c0 .3 0 .6.1.9h-.3c0-.3-.1-.6-.1-.9h.3zm-71.2 17.5c-.6.2-1.2.2-2.1-.3 1-.1 1.5.2 2.1.3 0 .1 0 0 0 0zM182.8 66c-.2.2-.3.4-.4.4s-.4-.2-.4-.3.2-.4.3-.4c0-.1.2.1.5.3zm-69.2 23.2c-.2.3-.4.5-.6.8-.1 0-.1-.1-.2-.1.2-.3.4-.6.5-.9.2 0 .3.1.3.2zm67.8-18s.1.1 0 .1l-.3.8c-.1-.1-.3-.1-.3-.2-.1-.4.1-.7.6-.7zm-10.1-14.4c.1.2.3.3.4.5l-.1.1c-.2-.2-.3-.3-.5-.4.1-.1.2-.1.2-.2zm-53.8 20.5c.1.1.2.2.2.4s0 .4-.1.6c-.1 0-.4 0-.4-.1-.1-.2-.1-.4 0-.5.1-.2.3-.3.3-.4zM186 63.7c.3-.2.5-.4.8-.6l.2.2c-.3.2-.5.4-.8.7-.1-.1-.2-.2-.2-.3zm-8.7 1.8c-.2.2-.3.3-.5.4l-.3-.3c.1-.2.2-.3.3-.4.3.1.4.2.5.3zm9.8 17.8c.2.3.3.5.3.6s-.1.2-.2.4c-.1-.1-.3-.2-.4-.3.1-.1.2-.3.3-.7zm-10.3-14.7c.1.2.3.5.4.7-.1 0-.1.1-.2.1-.1-.2-.3-.5-.4-.7.1 0 .1-.1.2-.1zm18.4 24.6l-.3.3c-.1-.1-.3-.2-.4-.3.3-.2.5-.4.8-.5 0 0 .1 0 .2.1-.2.1-.3.3-.3.4zm-28.9-48.6c.1.4.2.6.2.8 0 .1-.3.2-.4.2-.1-.2-.2-.3-.2-.5 0-.1.2-.2.4-.5zm22 50.4c-.1-.2-.3-.4-.4-.6.1-.1.2-.1.3-.2.1.2.2.5.3.7 0 0-.1 0-.2.1z" class="E"/><path d="M148.8 140.5c-1.1 1.3-.5 2.8-.8 4.3-.1-.6-.3-1.1-.4-1.9-.4.3-.7.5-1 .8l-.6-.6c.3-.4.6-.8 1-1.2.4-.5.6-1 .5-1.7l-.8-5.3c-.4.4-.7.6-1 .8-.2-1.1-.4-1.4-1.5-1.6-.8-.1-1.7-.8-2.6-.2-.3.2-.6.3-.9.4-.8.3-1.5.7-2.3 1l-3 1c.5.2.7.3 1.1.4l-2.8 1 1.5.6c-.2.1-.3.2-.4.2-.8-.1-1.4-.1-1.9.8-.7 1.3-.7 1.6.5 2.5l1.9 1.3c-1.2.1-1.7-.9-2.7-1.2.2 3.8 1.6 7.1 2.6 10.7-.2-.2-.5-.3-.6-.5-3.4-3.4-6.5-7.1-9.3-11.1-.7-1-1.2-2.1-1.8-3.2-.5-1-.4-1.9.3-2.8.6-.8 1.1-1.6 1.6-2.4-.4-1-.7-2-1.1-3 .1 0 .1-.1.2-.1.5.7.9 1.5 1.4 2.3 1-.8 1.4-1.7 1.6-2.8.2 0 .6.1.8 0s.3-.5.5-.9c3.7 1.1 7.7 1 11.2 3 0-.2.1-.4.1-.4-1.7-1.1-2.9-2.7-4.9-3.4-.6-.2-1.1-1-1.6-1.6-.1.2-.2.3-.4.6l-1.5-2.1c-.5.3-1.1-.5-1.6.3 0 0-.2.1-.3 0-1.9-1.3-3.4.2-5 .8-.5.2-.9.5-1.4.8-.5-2.6 1.7-4.9 3-5.4 0-.3 0-.7-.1-1.1.3.2.5.3.7.4.1-.3.1-.6.2-1l.8 1.1c.2-.4.3-.8.5-1.1.2.3.3.7.5 1.1h.2v-1.9c.1-.1.2-.2.3-.2 0 .2.1.4.1.6h.2c.1-.3.2-.7.3-1.1.1.1.3.1.3.2.3.9.7 1.8 1.3 2.6v-2.1c.6 2.1 1.5 4 2.8 6.1v-1.4c.1 0 .1 0 .2-.1.2.5.5.9.9 1.7v-1.3c1.2 1.4 2.3 2.8 3.5 4 .4.4 1 .7 1.5 1 1.3.6 1.7 2.1 3 2.9.6-.4 1.1-.3 1.4.5.3.9.7 1.8 1.9 2.3.5-.4 1-.9 1.4-1.4.7-.7.8-1.5.4-2.5-1.2-2.7-1.2-5.6-.9-8.5 0-.1.1-.2.3-.4-.4 3.7 0 7 2.4 9.8-.3 1.2-1.3 1.8-2 2.5-.5.5-.8.9-.7 1.6l.3 4.4c1.2-.9 2.2-1.7 3.1-2.5-.8 1.4-2.2 2.2-3.1 3.8.3-.2.5-.2.7-.2zm-17.4-4.9c.3.6.9.8 1.5.7-.4-.2-1-.5-1.5-.7l-1.8-1.8c.5.7.8 1.6 1.8 1.8zm-2.1-6.2c.8 2.6 2.7 4 4.5 5.5.2.2.7.3 1 .2 1.6-.4 3.1-.9 4.7-1.4.6-.2 1.1-.7 1.8-1.2-4.2-1.4-8-2.2-12-3.1zm40.7 10l.6-.9c-.5-.5-.5-.5-2.3-.6.6-.2 1-.4 1.5-.5-.1-.1-.1-.3-.2-.4-.7-.3-1.4-.5-2.3-.8.5-.1.7-.2 1.3-.4-1.3-.2-2-1.2-3.3-.8-.2.1-.6-.2-.9-.4l-3-2c-.3.5-.6.9-.9 1.3l-1.8.3c.3 1.6.8 3 2.4 3.7.5.2.9.9 1.2 1.5l-2.7-1.9c-.4-.4-.8-1-1-1.5-.3-.8-.8-1.3-1.7-1.6-1.5-.5-2.5-1.7-3.4-2.9-.4-.5-.5-1.1-.1-1.7 1.6-2.6 2.1-5.6 2.4-8.6.1.3.2.5.2.8 0 2.9-.1 5.7-1.3 8.4-.3.7-.2 1.2.2 1.7.3.4.6.7.9 1 1.1 1 1.7 1 2.5-.3.2-.4.3-.9.6-1.2.1-.2.5-.6.6-.5 1.3.3 1.8-.6 2.2-1.5s1.5-.9 2-1.6c.1-.2.5-.1.6-.3l3.7-4.2c0 .3.1.5.2 1.1l.9-1.7v1.7c1.4-2.1 2.4-4.1 2.8-6.3 0 .4.1.8.1 1.1s0 .7.2 1.1l1.3-3c.1.6.2.9.3 1.3l.6-.6v2.2c.1 0 .2 0 .3.1l.5-1.1c.1.4.3.7.5 1.2l.8-1.2c.1.4.2.6.3.9.2-.1.4-.2.7-.4 0 .4-.1.7-.1 1.1 1.3.1 1.7 1.4 2.3 2.1.8.8.8 2.1.8 3.3-1.4-.8-2.7-1.6-4.2-1.9-.2-.1-.5-.3-.7-.2-.6.1-1.3.7-1.7.5-.6-.4-1.1-.2-1.6-.2-.2 0-.4.3-.5.5l-1.3 2V126c-.9.7-1.3 1.7-2.4 2.1-.9.3-1.9.7-2.5 1.9l9.5-1.9c.7.9.7.9 1.5.7-.2 1.2.6 2 1.4 3l1.5-2.3c.1 0 .1 0 .2.1l-1 2.9 1.7 2.6c.6.8.6 1.6.3 2.4-.4.9-.7 1.8-1.3 2.6-2.3 3.1-4.4 6.3-7.2 9-.7.7-1.4 1.5-2.1 2.2l-1.3 1.3c-.2-1 .2-1.6.5-2.2 1.1-2.7 1.8-5.5 2.2-8.4.1-.8.4-1.7-.3-2.5-.6-.3-1-.2-1.2-.1zm2.3-4.4c.9-.3 1.4-1 1.7-1.9-.5.7-1.1 1.3-1.7 1.9-.5.2-1 .4-1.6.6.1.1.1.2.2.3.5-.3 1-.6 1.4-.9zm-9.9-3.3c2.2 1.8 4.5 2.5 6.9 2.9.4.1 1-.3 1.3-.6 1-1 1.9-1.9 2.8-3 .6-.7.9-1.6 1.5-2.8-4.4 1.3-8.3 2.4-12.5 3.5zm11.8-.2c-.1 0-.1-.1-.2-.1-.1.2-.1.3-.2.5l.4-.4zm-12.6-5.9c0 1-.8 1.7-1.9 1.7s-2.1-1-2-2c0-.9.9-1.8 1.9-1.8 1.2-.1 2 .8 2 2.1zm-23.6-4.5c-1.1 0-2-1-1.9-2 0-1 .9-1.9 2-1.8 1.2.1 1.9.9 1.9 2.1-.1 1-.9 1.7-2 1.7zm33.3-5.8c0 1-.9 1.7-1.9 1.7-1.1 0-2-1-2-2 0-.9.9-1.8 1.9-1.8 1.2-.1 2 .8 2 2.1zm-43.7.2c0 1-.8 1.7-1.9 1.7s-2-.9-2-2c0-1 .9-1.8 1.8-1.8 1.3 0 2.1.8 2.1 2.1zm50.8-1.3c0 1-.9 1.7-2 1.6-1.1 0-2-.9-1.9-2 0-1.1.9-1.9 2-1.8 1.2.1 1.9 1 1.9 2.2zm-33.5 11.1c0 1-.8 1.7-1.9 1.7s-2.1-.9-2.1-2c0-1 .9-1.9 2-1.8 1.2.1 2 .9 2 2.1zM134.5 114c0 1-.7 1.7-1.8 1.8-1.1 0-2.1-.9-2.1-2 0-1 .9-1.9 2-1.9 1.1.1 1.9.9 1.9 2.1zm31.8 6.1c0 1-.9 1.7-2 1.7-1.1-.1-1.9-.9-1.9-2s.9-1.9 2-1.8c1.2 0 1.9.8 1.9 2.1zm-13.5 14.4c-.6-.4-1.3-.7-1.8-1.2-.2-.2-.4-.8-.3-1.1.6-1.9.6-3.9.6-5.9.1.5.3.9.3 1.4.1 1.3.2 2.5.1 3.8-.1 1 .2 1.7.9 2.2.2.1.3.3.5.5-.2.1-.2.2-.3.3z" class="C"/><path d="M155 151.4l.8 4.9c.1.5-.3 1.1-.5 1.7l-.5-6.6c0 .1.1 0 .2 0z" class="B"/><path d="M156.1 137c-.9.9-1.3 1.9-1.2 3.1.1.8-.1 1.6-.3 2.4v-5.6c.4 0 .8 0 1.2-.1.1.1.2.2.3.2z" class="C"/><path d="M126.3 158.6c-1.1-1.8-2-3.6-2.3-5.7l1.5 3.5c.3.6.4 1.4 1.2 1.6v.6h-.4z" class="B"/><path d="M155.7 138.4c.2-.2.4-.4.7-.8.1 1.7 1.5 2.8 1.1 4.7-.4-1.4-.8-2.7-1.8-3.9z" class="C"/><path d="M158.5 116.9c.2-1.5.8-2.8 2-3.7.1.8-.6 1.2-1 1.9l-1 1.8zm-13.9-.1v-.5s0-.1.1-.1c1.1.5 1.7 1.8 1.7 3.6l-1.8-3z" class="B"/><path d="M141.4 139.4c1.3-.7 2.9-1 3.4-2.7-.2 2.1-1.8 2.4-3.4 2.7z" class="C"/><path d="M144.6 116.8c-.1.2-.1.5-.2.9l-2.1-2.6.2-.2c.8.5 1.5 1.2 2.1 1.9zm39.1 16.8c-.1-1.1-.1-2 .2-2.8.2.9.4 1.7-.2 2.8z" class="B"/><path d="M137 139.7c-1.4.5-2.2.3-3.3-.4l3.3.4z" class="C"/><path d="M143 144.5l-1.4 2.9c-.1 0-.2-.1-.3-.1l1.4-2.9c.1-.1.2 0 .3.1zm22.3-33.5l-1.6 2.1c.3-1.4.5-1.6 1.6-2.1zm-33.2 17.5l-2.4-.6v-.2l2.4.5v.3zm30.4-15.8c-.4.7-.9 1.3-1.3 2 0-.9.4-1.6 1.3-2z" class="B"/><path d="M156.1 137c-.1-.1-.2-.2-.3-.2.3-.3.7-.5 1.2-.9 0 .8.1 1.4-.9 1.1z" class="D"/><path d="M172 127.5l1.9-.4v.2c-.6.2-1.2.3-1.9.4.1-.1 0-.2 0-.2z" class="C"/><path d="M167.4 110.5l-1.3 1.5c.1-1 .1-1 1.3-1.5zM119.6 133v-1.8h.1v1.7s0 .1-.1.1z" class="B"/><path d="M169.9 139.4l-1.9.4c.7-.5 1.3-.7 1.9-.4z" class="C"/><path d="M184.6 128.1l-1.1.8c.1-.8.4-1 .8-1.1l.3.3zm-63.9 5.2v1h-.2c0-.3-.1-.6-.2-.9.2-.1.3-.1.4-.1z" class="B"/><path d="M148.8 140.5c.2-.3.3-.6.5-.9.1.1.2.1.3.2-.3.2-.5.5-.8.7z" class="C"/><path d="M133.5 181.1l3.4 10.7c-1.1-1.2-1.5-2.9-3.2-3.5.3 0 .6 0 1.1.1l-.3-1.2-1.5-4.6c-.1-.5-.3-1 .5-1.5zm46.4 8.9l-1.7-5.8c-.4-1.4.6-2.2 1.6-3.1 0 .2.1.5 0 .6-.7 1-.5 2.1-.4 3.2l.7 4.9c0 .2-.1.2-.2.2zm-28.8 16.8c1.8-.3 5.4 1.2 7 2.8l-7-2.8zm23.3-3.8l.9-1.1 4.7-4c-.1 1.1-3.6 4.2-5.6 5.1zm2-23.2c0-1.5.7-2.8 1.3-4.2l-.9 4.3c-.1 0-.3-.1-.4-.1zm-53.9-3l.3-2.7h.2l.5 2.3c.2.6-.3.6-1 .4zm49.3 33.9c.2-1 .6-1.7 1.4-2.2 0 .9-.1 1.1-1.4 2.2zm-5.7-18c.2-.1.4-.2.7-.3-.1 1-.9 1.6-1.5 2.2l.8-1.9zm7.3 12.2l1.8-1.4c-.3.8-1 1.2-1.8 1.4zm-18.8-5l1.3 1.5c-1 0-1 0-1.3-1.5zm19.8 3.1c-.3.3-.5.6-.8.9-.1-.1-.2-.2-.2-.3.4-.2.7-.4 1-.6zm-8.8-145.5c1.5.7 4.9 5.3 5.6 7.8l-5.6-7.8zm13.1 38.6l-2.8-1.4c-.5-.3-.9-.6-1.7-.3-.5.2-1.2-.4-1.7-.7 2.4-.2 4.4.8 6.3 2.1 0 0-.1.2-.1.3zm-26.5-31.8l4.8-3.9c-.4 1.2-1.6 2.1-4.8 3.9zm20.7 19.1l4.2 3.3c-.1.1-.1.2-.2.2-1.6-.9-2.9-2.2-4.3-3.3.1 0 .2-.1.3-.2zM153.4 65c-.3.3-.7.5-1 .8-.1-.1-.1-.2-.2-.2l.9-.9.3.3zm17 .8c-.2-.3-.4-.6-.5-.9.1 0 .1-.1.2-.1l.6.9c-.1 0-.2 0-.3.1zm12.6 36.5l.6 1.3c-.3-.4-1.1-.5-.6-1.3z" class="B"/><path d="M149.1 66.1l.6-1.7-.6 1.7z" class="D"/><g class="B"><path d="M120.5 108.3c2.3-1.8 4.6-3.7 8.2-3.7-1.3.6-2.2 1.6-3.5 1.2-.3-.1-.8.3-1.1.5l-3.6 2zm-4.1-1.8l-6.4 4.9c.8-1.3 2-2.2 3.1-3.1.5-.4.5-.4.4-1.1l2.9-.7zm21.2-3.6l-6.5 1.7c2-1.1 4.2-1.6 6.5-1.7zm-3.9-14.5l-4.6 3.2c.7-1.1 2.7-2.6 4.6-3.2zm10.6-3.1c.2 0 .5 0 1.1.1l-3.1 2.1c0-.1-.1-.1-.1-.2.6-.8 1.4-1.4 2.1-2 0-.1 0 0 0 0zm-30.1 12.3c-.3-.7 0-1 .7-1.3 0 .6-.1 1.1-.7 1.3zm17.4-7.1c.3-.2.5-.4.8-.6 0 0 .1.1.1.2-.2.2-.5.4-.7.6-.1 0-.1-.1-.2-.2zm23.8 75.3c-.4.3-.8.5-1.1.8-1.1.8-2.2 1-3.4.4-1.2-.7-2.2-.4-3.3.1-.9.4-1.9.8-3 1l4.3-2.1c.3-.1.8 0 1.1.2 1.8 1.2 3.3.7 4.8-.6.3-.3.7-.6 1.2-1l6.4 3.9c-.1.1-.1.2-.2.3-1.9-1.1-3.8-2.3-6-3v1.2c-.2-.5-.4-.9-.8-1.2zm-8.3 11.2h-.6c1.9-1.8 8.8-2.8 11.1-1.5-.7 0-1.2.1-1.8.1.2.6.4 1.3.6 1.9-.6-.6-.9-1.4-1.6-1.7-.6-.3-1.5-.4-2.2-.3-1.8.2-3.8.4-5.5 1.5zm8.3-6.4v1.4c1.2.1 2.2-.8 3.2-1.2-.3 1-1.1 1.8-2.2 1.9-2.7.3-5.3.2-8 .1v-.4h1.9l2.9-.1c1.2.1 2.1-.3 2.2-1.7zm-10.2 11.8c-2.1-.1-3.5-1.4-4.8-2.8.1-.1.1-.2.2-.3l2.3 1.8c.3.2.7.5.9.4.9-.5 1.1.2 1.4.9zm5.6-19h3.4c-.9 1.1-2.7 1.1-3.4 0z"/><path d="M158.4 181.7c-.1.1-.2.1-.4.2 0-.1-.1-.1-.2-.2l3.8-3.6c-.2.9-1.1 1.9-3.2 3.4.1.1 0 .1 0 .2zm-11.3-4.7c.2 0 .5.1.9.2l-2.8 1.6c0-.1-.1-.1-.2-.2l2.1-1.6z"/><path d="M161.5 164.8l-1.6-1.3c1.1.1 1.1.1 1.6 1.3zm-3.1 16.9c0-.1.1-.1.2-.2.2-.1.4-.1.7-.2 0 .1.1.2.2.2-.3.3-.5.5-1 .9-.1-.3-.1-.5-.1-.7zM127.3 75.6c1.5-3.1 4-5.6 6.2-8.2.1 0 .2 0 .2.1l.1.1c-.1.2-.3.4-.4.6-2.1 2.4-4.1 4.9-6.1 7.4zm2.6-2.2l.6-1.1c.1 0 .2.1.2.1l-.6 1.1s-.1 0-.2-.1zm19.3 141.8c.2.4.3.8.5 1.2-.1 0-.2.1-.2.1-.2-.4-.3-.8-.5-1.2.1 0 .1 0 .2-.1zm10.1 7.8c-.2.2-.3.3-.4.5l-.1-.1c.1-.2.3-.3.4-.5 0 0 .1 0 .1.1zm-43.9-86.3l.6 1.8c-.1 0-.2.1-.3.1l-.6-1.8c.1 0 .2-.1.3-.1zm-2-9.1v1.2h-.2v-1.2h.2z"/></g><path d="M133.7 53.2v-.8c0 .3.1.5 0 .8zm-7.6 8.1v1.3h-.1c0-.4.1-.9.1-1.3z" class="D"/><path d="M186.9 196.4c.1-.3.3-.5.4-.8h.2v.5c-.1.2-.3.2-.4.3s-.1 0-.2 0zm-49.2 4.6c-.4-.1-.6-.2-.9-.3.2-.4.4-.7.7-1.2l.2 1.5zm51.1-18.1c.3.8.4 1.7-.4 2.5-.1-.3-.3-.7-.4-1 .9-.2.8-.9.8-1.5zM133.1 197l-.2-2.2c1 .8 1 1 .2 2.2zm-18.7-28.1c-.1-.3-.2-.5-.4-.8l2 .3c-.5.6-1.1.5-1.6.5z" class="B"/><path d="M112.1 84.9c0-.7-.1-1.4-.2-2h.3c-.1.7-.1 1.3-.1 2zm84.9 3.2c-.2.1-.3.3-.5.4l-.1-.1c.2-.2.3-.3.5-.4l.1.1z" class="D"/><path d="M110.9 92.6l-1.2-.3c0-.1 0-.2.1-.3.4.1.8.2 1.2.4 0 0-.1.1-.1.2z" class="B"/><path d="M129.3 129.4c4 .9 7.9 1.7 11.9 3-.7.5-1.2 1-1.8 1.2-1.5.6-3.1 1-4.7 1.4-.3.1-.8 0-1-.2-1.7-1.4-3.6-2.8-4.4-5.4zm2.1 6.2c-1-.1-1.4-1-1.8-1.8l1.8 1.8zm0 0c.5.2 1 .5 1.6.7-.7.1-1.3-.1-1.6-.7zm31-3.9l12.5-3.5c-.6 1.1-.9 2-1.5 2.8-.8 1.1-1.8 2.1-2.8 3-.3.3-.9.7-1.3.6-2.4-.3-4.7-1-6.9-2.9zm9.9 3.3c.6-.6 1.1-1.3 1.7-1.9-.3.9-.8 1.6-1.7 1.9zm0 0c-.5.3-.9.6-1.4 1-.1-.1-.1-.2-.2-.3.6-.2 1.1-.4 1.6-.7zm1.9-3.5c-.1.1-.3.2-.4.3.1-.2.1-.3.2-.5.1.1.2.1.2.2z" class="E"/></svg>