<svg xmlns="http://www.w3.org/2000/svg" viewBox="0 0 320 320"><style><![CDATA[.B{fill:#838ea0}.C{stroke-miterlimit:10}.D{stroke-width:.433}.E{stroke:#000}.F{fill:#010101}.G{fill:#4e4e4e}.H{fill:#727272}]]></style><path fill="none" stroke="#e22529" d="M314.7 320H5.3a5.34 5.34 0 0 1-5.3-5.3V5.3A5.34 5.34 0 0 1 5.3 0h309.3a5.34 5.34 0 0 1 5.3 5.3v309.3c.1 3-2.3 5.4-5.2 5.4z" class="C"/><path fill="#fac722" d="M165.6 24.1c6.3 7.2 12 14.9 17.1 22.9 6.6 10.3 12.1 21.2 16.2 32.8 2.3 6.6 4.1 13.3 5.1 20.2 1.2 8.4 1.9 16.8-1.2 25.1s-7.8 15.6-14.3 21.6c-2.7 2.5-5.7 4.6-8.8 6.6-.8.5-1.9 1-2.6.3-.7-.6.2-1.4.5-2.1 2.2-4.3 3.8-8.8 3.6-13.8-.2-5.2-2.3-9.4-5.4-13.3-3.7-4.6-8.5-8.1-12.5-12.4-6-6.5-10.6-13.9-11.5-22.9-.7-6.4 1.1-12.4 5-17.6 2.8-3.8 6.4-6.9 10.1-9.9l4.8-3.8c1.3-1 2.4-.7 3.3.6s.3 2-.9 2.9c-4.7 3.6-9.1 7.4-11.3 13.2-2.9 7.7-2 15 2.3 21.9 2.7 4.3 6.3 8 9.7 11.9 5.2 6.1 10.6 12.2 13.7 19.8.7 1.7 1.2 1.5 2.4.3 4.9-5 7.4-11.2 8.5-17.9 1.3-7.7-.3-15.1-2.7-22.3-3.3-9.8-7-19.4-11.9-28.5-3.9-7.2-8.5-13.8-13.7-20.1-2-2.4-3.9-4.7-6.1-6.9-1.2-1.2-2.1-1.4-3.6-.3-6.6 4.4-13 9-18.3 15-4.9 5.5-9.1 11.4-10.9 18.9-1.4 5.9-.4 11.4 2 16.7 3.7 8.2 8.8 15.6 14.5 22.6 5.2 6.3 11.2 11.9 15.8 18.7 3.7 5.5 7 11.2 8.7 17.8 2.1 8 .2 15-5.6 20.9-3.7 3.7-7.4 7.3-11.7 10.3-1 .7-2.1 1.6-3.7 1.1 1.8-2.3 3.6-4.5 5.1-6.8 2.4-3.6 3.6-7.7 4.1-12.1 1.2-9.8-3-17.8-8.4-25.5-2.8-3.9-6.4-7-9.6-10.4-7.4-8-14.2-16.4-18.9-26.3-2.7-5.6-4.6-11.5-5.2-17.8-.8-9.2 2.2-16.9 8.3-23.6 10-10.9 22.2-19 34.7-26.6.6-.4 1.1-.8 1.6-1.3.6.1 1.2.1 1.7.1z"/><path d="M235.3 241.7c-7.2-3.5-13.4-8.4-19.6-13.2-4.9-3.9-9.7-8-14-12.4-8-8.2-15.5-16.9-21-27-3.8-7.2-5.3-15-3.5-23.3 2.1-9.5 7.8-16 15.8-20.9 6.4-3.9 13.1-6.9 20.5-8.3 5.5-1.1 11-1.3 16.6-.4 7.6 1.2 14.2 4.2 19.2 10 6.7 7.8 11.8 16.5 13.3 26.9.6 3.8.7 7.6.4 11.4-.1 1.3-.8 2.4-1.5 3.4-.8 1.2-2.4.8-2.8-.8-1-3.5-1.1-7.1-1.4-10.7-.4-6-1.7-11.8-5-16.9-4-6.3-9.8-10-17-11.5-10-2.1-19.8-.6-29.3 3-5.6 2.1-11.1 4.1-16 7.8-5.3 4-8.9 8.8-8 15.8.5 4 2.7 7.3 5.4 10.3 8.1 8.8 17.6 16 27.3 23 5.7 4.2 11.5 8.2 16.7 12.9 4.7 4.2 8.4 9.3 7.7 16.2-.2 1.9-.7 3.6-2.2 5-.5-.3-1-.3-1.6-.3zm53.2-108.2l-1.3 5.8c-1.5 7.5-4.9 14.1-9.6 20-2.7 3.4-5.9 6.4-9.2 9.3-1.3 1.1-2.3 1.4-3.6.4-1.2-1-1.9-2.2-1.6-3.8.4-2 1.8-3.3 3.3-4.6 7.3-6.2 13.8-13.1 17.3-22.2 2.4-6.1 2-11.8-2.7-17.1-5.3-6-11.7-9.3-19.6-10.4-5.7-.7-11.4-.6-17.1 0-9.3.9-18.1 3.6-26.9 6.5-1.3.4-2.5 1.3-4.3 1.3l5.2-7.5c5.4-7.8 10-16 12.7-25.2.8-2.7 1.7-5.5 2-8.3.5-4.4-.9-8.4-4-11.6-7.4-7.9-16.7-12.1-27.2-14-4.1-.7-8.3-1.3-12.5-1.2-2.1 0-2.1-1.5-2.5-2.8-.2-.8.5-.7 1-.7 6.3.8 12.7 1.4 18.9 3 9.2 2.4 17.8 6 24.8 12.6 3.7 3.5 5.6 8.1 6.3 13.2 1.5 10-1.8 18.8-6.7 27.3-1.3 2.3-2.8 4.5-4.4 7.1 2.8-.7 5.2-1.2 7.6-1.9 5.3-1.5 10.7-2.1 16.2-2.7 6.2-.6 12.2 0 17.9 1.9 8.7 2.9 15.7 8.1 19.3 17.1.1.3.1.9.7 1v7.5zM29.4 146.9c.7-.5 1.1-.5 1.5.4 3.5 6.8 9.3 11.2 15.9 14.8 5.6 3 11.4 5.4 16.8 8.7 1.6.9 3 2.1 3.8 3.8.6 1.2.9 2.5.1 3.6-.8 1.3-2.3.9-3.3.6-2.2-.7-4.5-1.6-6.6-2.6-7.2-3.4-13.6-7.8-18.9-13.7-3.6-4-6.3-8.6-8.4-13.5-.2-.6-.3-1.2-.9-1.6v-.5zm74.5-41.1c12.6 0 24.2 3.5 34.3 11 7.9 5.9 13.1 13.7 14.5 23.9 1.3 9.5-.5 18-6.6 25.6-4.7 5.8-9.5 11.5-14.7 16.9-8.5 8.7-17.6 16.6-27.5 23.6-2.3 1.6-4.5 3.4-6.9 4.7-1.4.8-2.3.2-2.2-1 .2-5.8.2-11.8 5.3-15.8 2.2-1.8 4.9-3 7.3-4.5 7.4-4.6 14.5-9.3 21.1-15 4.8-4.1 9.4-8.3 13.2-13.2 5.6-7.2 6-14.8 2.7-23-1.8-4.6-4.2-8.7-7.6-12.2-4.8-5-10.8-7.9-17.7-8.8-7.4-.9-14.6-.4-21.6 1.9-6.2 2-11.2 5.7-13.4 12.4-.1.2-.3.4-.3.6.2 2.1-.2 4.1-2.1 5.2-3.1 1.9-6.1 4.1-9.9 4.3-1.4.1-1.9-.5-1.9-1.9.6-10.9 3.5-20.8 12.4-27.9 4.2-3.5 9.3-5.3 14.7-6.2 2.4-.6 4.6-.5 6.9-.6zm24.6-56.9c-1.2 3-3.5 4.3-6.2 5-14.1 3.6-28.1 7.7-41.7 13.2-7.1 2.9-14.4 5.8-20.3 10.8-3.9 3.3-6 7.4-3.4 13.1 2.7 5.7 7.1 9.5 11.9 13.2 3.2 2.4 6.4 4.8 10 6.5 1.2.6 1.5 1.4.4 2.7-2.1 2.6-2.2 3.2-5.1 1.1-4.2-2.9-8.4-5.8-11.9-9.4-4.6-4.8-8.2-10.2-9.4-16.9-.6-3.4.6-6.8 2.4-9.6 4-6.5 9.9-11.1 16.6-14.7 9.3-5.1 19.2-8.6 29.5-11.1 5.9-1.4 12-2.5 18-3.3 3-.3 6-1 9.2-.6zm-56.9 72.5c.8.1 1.6-.1 1.2 1.5-.8 3-1.7 5-6.6 5.5-7.4.8-14.7 2.8-21.7 5.6-4.2 1.7-8.2 3.7-12 6-.6.4-1.5 1-2.2.4s.1-1.4.4-1.9c1.8-2.9 4.5-5 7.5-6.7 8.3-4.8 17.3-7.3 26.6-9 2.3-.5 4.5-1 6.8-1.4zm24 0c1.1 0 1.9.8 2.6 1.4 3 2.1 5.9 4.3 8.8 6.5.3.3.8.6.5 1-.2.5-.7.7-1.3.6-5.3-1-10.7-1.5-16.1-2.2-1.9-.3-.3-1.6 0-2.1 1.3-1.8 3.3-3 4.5-4.9.4-.4.8-.2 1-.3z" fill="#e22529"/><path d="M125.4 144.9l-3.5-4-5.3.6 2.7-4.6-2.3-4.8 5.3 1.1 3.9-3.6.5 5.3 4.7 2.6-4.9 2.2zm107.7 25.3l-4.1-3.5-5.2 1.5 2-5-2.9-4.5 5.3.4 3.4-4.2 1.3 5.2 5 1.9-4.6 2.8z" fill="#fbc81f"/><g class="B"><path d="M139 231.2c-.4-3.6-.7-7.2-.9-10.8-.2-4.2 1.7-7.1 5.4-8.9.9-.2 1.8 0 2.6.3 6.2 2.4 12.5 2.3 18.8.2.9-.3 1.7-.4 2.6-.2 3.3 1.8 4.9 4.5 4.8 8.3-.1 3.1-.4 6.3-.7 9.4-.4 3.8-1.1 7.6-2.3 11.3-.1.4-.3.9-.5 1.3-.1.3-.4.5-.8.5-.4-.1-.6-.3-.6-.7 0-2-.5-4 .1-6s1.1-4.1 1.4-5.5c-.2.8-.5 2.3-1 3.7-.7 2.3-.9 4.6-.9 7 0 2.8.2 5.5-.2 8.3-.5 3.4-2.1 6.1-5.5 7.3-.5.1-1 .4-1.5.5.5-.1.9-.3 1.4-.4 1.4-.5 2.5-1.3 3.6-2.3.3-.3.6-.5.9-.8s.6-.5 1.1-.3c.4.2.5.6.4 1s0 .8.1 1.3c0 .5-.5.9-.4 1.5 0 .5-.2 1-.6 1.4-1.3.3-1.8 1.5-2.5 2.5-.1.1-.3.2-.4.3-.5 0-1 .3-1.5.4-1.1.4-2.2.6-3.4.6-3-.1-6 .3-9-.2-1.3-.2-2.5-.5-3.6-1.2-2.4-1.6-3-3.9-2.9-6.5.1-1 .7-1.2 1.5-.5.7.6 1.2 1.3 1.9 1.8a13.84 13.84 0 0 0 3.9 1.8c.9.2 1.8.5 2.6.4-.7.1-1.5-.2-2.4-.4-4.8-1.2-7-4.1-7.1-9.1-.1-3.5 0-7-.2-10.4 0-.6-.1-1.2-.3-1.8-.7-2.4-1.1-4.8-1.7-6.9.6 2.2 1.1 4.8 1.8 7.4.5 1.8.1 3.8-.1 5.7 0 .3-.2.6-.5.6-.4.1-.6-.2-.8-.6-.7-1.6-1.1-3.3-1.5-4.9-.4-2.4-.9-4.4-1.1-6.4z" class="C D E"/><path d="M167.8 191.1c-.1-.7-.1-1.3 0-1.9-.1-.5-.2-1 0-1.6 0-.8-.1-1.5 0-2.3-.2-.7 0-1.3.1-2-.1.2-.1.1-.4-.2l1-11.2c.2-1.6.2-1.6-1.3-1.9l-6.2-1.2c-1.6-.2-1.9.1-1.9 1.7v4.3l-1.4-8.1c-.2-1.1-.4-2.3-1-3.3-.5-.9-.9-.9-1.4 0-.8 1.4-.9 2.9-1.2 4.4l-1.3 8.1c-.1.4-.1.8-.5 1.3l.4-4.9c0-.3 0-.6.1-1 0-2.6-.3-2.9-2.8-2.3l-5 1.3c-1.2.2-1.3.9-1.2 1.9.6 4.1.9 8.1 1.1 12.2.4 6 0 11.9-1.1 17.8-.5 2.6.1 4.3 2.5 5.3.8.9 1.9 1.2 3 1.4 5.7.9 11.4 1.5 16.8-1.4.1-.2.2-.2.4-.2 2.9-1.3 2.9-1.9 2.7-4.2-.6-4.1-1.1-8-1.4-12z"/><path d="M168.1 154.2c.9 2.6.6 5.2-.1 7.7-.2.7-.7.8-1.3.6-4.4-1.1-8.9-1.3-13.5-1.1-2.6.1-5.1.6-7.6 1.2-.5.1-1 .3-1.2-.4-.8-2.7-1.2-5.4-.1-8.1.9-.4 1.8-.3 2.8-.3 6.7-.3 12.9-.6 19.6-.1.3 0 1 .1 1.4.5z" class="C D E"/></g><path d="M146.1 207.4c3.5 1.2 7 1.7 10.6 1.5 2.8-.1 5.6-.4 8.3-1.4.3-.1 1-.3 1.3-.4-.5.4-1.8.7-1.8 1.8s.2 1.8 1.4 2.1c.5.1 1 .2 1.5.5-.9 0-5 1.2-7.6 1.7-4.9.9-9.1.3-13.7-1.4-.8-.3-2.2-.4-3.1-.4.8-.3 1-.4 1.8-.6.2-.1 1.1-.3 1.2-.6.3-.9.6-1.9.1-2.8z"/><path fill="#020202" d="M150.4 257.3c-2.6-.6-4.9-1.7-6.7-3.8-.8 3.6 1.1 6.6 4.3 7.6 3.1.9 6.3.6 9.4.6 1.6 0 3.1-.3 4.6-.5.7.7.6.8-.2 1.3-.8.4-1.7.3-2.6.4-2.6-.1-5.3-.1-7.9 0-1.5-.1-3.1-.2-4.6-.7-2.9-.8-4.6-3-4.7-6 0-.9-.1-1.9.1-2.8.3-1.6-.1-3.2 0-4.8.1-3.1-.9-5.8-1.6-8.7-.6-2.3-1-4.7-1.4-7.1-.1-.6 0-1.1-.1-1.7l1.5 6.4c.4 1.7 1 3.2 1.8 4.8.2-2.3.6-4.6 0-6.9l-1.8-8.7c.6.6.7 1.1.8 1.6l1.8 6.4c1 3.4.7 7 .8 10.5 0 1.7 0 3.3.3 4.9.7 3.7 2.9 6 6.5 7 0 .2 0 .3-.3.2z"/><g class="B"><path d="M168.2 182.4c.4-5.8 1.7-11.8 1.4-17.9 0-.4-.1-.8.5-.8.2.1.4.2.6.2 1.6.7 1.8 1.1 1.6 2.8 0 .4-.1.7-.1 1.1-.2 1.4-.3 2.9-.7 4.3-.2 1-.9 1.9-.2 2.9-.2 2.3.5 4.5.3 6.8 0 1.6.2 3.2.3 4.7 0 1.7 0 3.5-.5 5.2-.4 1.1-1.4 1.9-2.4 1.9-.7 0-1.1-.3-1.2-1 0-.8-.3-1.6-.2-2.5.2-.6 0-1.2 0-1.8.1-.8 0-1.5 0-2.3.3-1.1.5-2.5.6-3.6z" class="C D E"/><path d="M142.8 163.4l-.3 1.1c-.3 4.9.6 9.7.9 14.6.3 4.3.8 8.6.4 12.9-.1 1 .1 1.5-.8 1.1-.7-.3-1.6-1.3-1.8-2-.8-2.6-.6-5.3-.4-8 .2-2.4.4-4.7.4-7.1 0-.7 0-1.4.4-2 .1-.2.3-.4.1-.6-1.2-1.2-.9-2.8-1.4-4.2l-.3-2.6c-.2-1.6 0-2 1.4-2.6.3-.2 1.1-.5 1.4-.6z"/></g><path d="M142.8 163.4c-.2.6-.2 1.1-.2 1.7v1.7a20.68 20.68 0 0 0 .3 3.5l.8 6.9.6 7c.2 2.3.3 4.7.1 7l-.1.9v.9c0 .1 0 .2-.1.4 0 .1-.1.2-.2.3a.76.76 0 0 1-.4.2c-.5 0-.6-.1-.8-.2-.3-.1-.6-.4-.9-.6-.5-.4-.9-.9-1.3-1.6-.2-.4-.2-.6-.3-.9s-.1-.6-.2-.9c-.4-2.4-.2-4.8 0-7.1l.5-6.9c0-.6.1-1.3.5-1.9.1-.1.2-.2.2-.3v.1l-.1-.1c-.1-.1-.2-.3-.3-.4a.76.76 0 0 1-.2-.4c-.5-1.2-.4-2.4-.8-3.4l-.1-1.9c0-.6-.1-1.2-.1-1.9 0-.3.2-.7.4-.9s.5-.4.8-.5c.7-.3 1.3-.5 1.9-.7zm0 0l-1.7.8c-.3.2-.5.3-.7.5s-.3.5-.3.8c0 .6.1 1.2.2 1.8l.3 1.9v-.1c.5 1.2.4 2.4.9 3.3.1.2.2.4.4.6l.2.2c.1.2.1.4 0 .5-.1.2-.2.4-.3.5-.2.4-.3.9-.3 1.4.1 1.2 0 2.4 0 3.5l-.2 3.5c-.2 2.3-.3 4.6 0 6.8.1.3.1.5.2.8s.1.6.2.7c.2.4.6.8.9 1.1.2.2.4.3.6.4.1.1.2.1.1.1s-.3.2-.3.2c0 .1 0 0 0 0l.1-.8.1-.9c.2-2.3.1-4.6 0-6.9l-.4-6.9-.5-7v-3.5c0-.6 0-1.2.1-1.7s.2-1.1.4-1.6z"/><path fill="#050505" d="M168.2 253.4c0 .4 0 .8.2 1.1-.5.4-.4 1.5-1.5 1.1 0-.6.1-1.3-.1-2.1-1.6 1.7-3.3 2.9-5.5 3.4-.1-.1-.1-.2 0-.3 3.9-1.8 5.2-5.1 5.3-9 .1-1.8.1-3.7 0-5.5-.2-3.6.5-7.1 1.7-10.5.4-1.3.7-2.6 1.3-3.9.1 1.1-.2 2.2-.4 3.3l-1.2 5.4c-.4 1.9 0 3.8.3 5.8l1.2-3.2c.9-2.9 1.6-5.8 1.9-8.8 0-.2.1-.5.2-.7 0 2.9-.6 5.7-1.2 8.5-.4 1.8-.8 3.7-1.5 5.4-.4 1-.5 2.1-.5 3.2.1 2.2-.6 4.5-.2 6.8z"/><path d="M161.9 262.5c.4-.4.2-.9.2-1.3.4-.1.9-.3 1.3-.4.5.4.3 1 .3 1.5-.1.1-.2.1-.3 0-.4.1-.8.2-1.1.2h-.4zm-10.6-.9c1.2-.4 2.4-.2 3.5-.2 1.5 0 2.9-.2 4.4.2h-7.9z"/><path d="M163.6 262.2c-.5-.4-.4-.9-.2-1.5l.2-.2a13.63 13.63 0 0 0 2.4-2.4l.6-1.1c.3-.2.4-.6.7-.9.3-.4.7-.7 1.3-.4.6.7.3 1.6 0 2.3-.5 1.9-1.7 3.3-3.5 4.2-.5.2-1 .5-1.5 0z"/><path d="M168.3 255.8c-.6.4-.9 1.2-1.7 1.3.1-.5.2-1 .2-1.5.6-.3.8-.9 1.5-1.1v1.1c.1.1.1.1 0 .2zm-22.5-25.7c.7.5 1.3.6 1.9 0 .1.8-.2 1.2-.8 1.2-.6.1-1-.3-1.1-1.2zm17.2 0c.7.4 1.3.5 1.9 0 .1.7-.2 1-.8 1.1-.7.1-1.1-.1-1.1-1.1z"/><path d="M166 258.2c-.4 1.2-1.3 1.9-2.4 2.4.7-.9 1.3-1.9 2.4-2.4zm-11.9-8.9c.2-.5.3-1.2 1.1-.6.5.3.4.7 0 .9-.4.3-.9.3-1.1-.3z" class="B"/><path d="M154.1 249.3c.3.2.7.4 1 .1.3-.2.1-.5 0-.7.7.1.5.6.4 1-.2.4-.6.6-1 .4-.2-.2-.9-.2-.4-.8zm-3.7 8l.2-.2c.9.2 1.8.5 2.7.5-.9.2-1.9.1-2.9-.3zm10.8-.7v.3c-.8.4-1.5.6-2.7.5l2.7-.8z"/><path d="M158.1 187.7c-1.5-.5-3.2-.1-4.9-.1s-3.1-.7-3.9-2.2c-.4-.8-.2-1.3.7-1.4 1-.1 2-.1 2.9.4 1.9 1.1 3.8 1.1 5.7 0 .9-.5 1.9-.5 2.9-.3.9.1 1.1.6.6 1.4-.7 1.4-2.1 2.1-4 2.2z" class="F"/><path d="M153.3 191.7a13.45 13.45 0 0 1 4.9 0c-1.6.5-3.3.4-4.9 0z" class="H"/><path d="M172 185.4c0-1.2-.2-1.6-.3-2.8 0-.2.1-.7.1-.9v-.1c-.1-.8 0-2.8 0-3.3.2-1.9-.8-3.8-.1-5.8.5-1.4.6-3.1.5-4.7l-.7 3.5c-.3 1.4-.8 2.6-.5 4.3.4 1.9.2 4.1.4 6.1l.1 2.4c.2 2.4.2 4.8-.4 7.1-.2.9-.7 1.6-1.6 1.8-.7.2-1.6.1-1.6-.8 0-.7 0-1.1-.1-1.8v-3.9c.1-.1.1-1.2.2-1.3.1-.9.1-1.2.1-2 0-.4.2-1.3.3-1.6.3-1.9.3-3.1.5-5.1.5-4.2.8-8 .8-12.4 0-1.3-.1-1.7-.3-2.7-.2-1.9-.4-3.5-.8-5.3-.1-.6-.2-.7-.5-1.8l.5 2.4c.1 1.7-.1 2.6-.4 4.3-.2 1.1-1.1 1.1-2.2 1-.4 0-.7-.1-1.1-.2-3.2-.7-6.5-.9-9.7-.8-3 .1-6 .3-8.9 1.1-1.1.3-2 .4-2.2-.7-.3-1.5-.6-3.5-.3-5.1.1-.6.2-1.2.4-2-.3.6-.5 1.1-.6 1.7-.3 1.7-.5 2.4-.5 4.2 0 1-.1 1.8-.2 3.2-.1.3-.4 1-.4 1.9 0 2 .1 3.2.3 5.2.3 2.6.5 5.3.7 7.9s.2 5 .4 7.6c.1 1.5.2 3.5 0 5 0 .4-.3 4.2-.3 4.7 0 .4-.1.7-.1 1.1l-.9 7.1c-.1.7 0 1.4.5 1.9.9.9 1.9 1.5 3.1 1.7-2.4-1-3-2.7-2.5-5.3 1.1-5.9 1.4-11.8 1.1-17.8-.3-4.1-.5-8.2-1.1-12.2-.2-1 0-1.7 1.2-1.9 1.7-.4 3.3-.9 5-1.3 2.5-.6 2.8-.3 2.8 2.3 0 .3 0 .6-.1 1-.1 1.6-.2 3.2-.4 4.9.4-.4.4-.9.5-1.3.5-2.7.9-5.4 1.3-8.1.3-1.5.4-3.1 1.2-4.4.5-.9.9-.9 1.4 0 .6 1 .8 2.2 1 3.3.5 2.6.9 5.3 1.4 8.1v-4.3c0-1.6.4-1.9 1.9-1.7 2.1.3 4.2.8 6.2 1.2 1.5.4 1.5.4 1.3 1.9-.4 3.7-.7 7.4-1 11.2 0 .9-.1 1.5-.2 2.2v3.9c0 4.4.6 8.8 1.2 13.2.3 2.2-.1 4-2.3 4.9 2.3-.3 3.7-1.9 3.4-4.1-.3-2.5-.6-4.9-1-7.4-.1-.7-.6-2.4.2-2.4 1.1 0 1.3.2 2.1-.6.7-.7.8-1.1.8-1.8.1-1.2.4-1.8.3-3.1.1-.8.1-1.6.1-2.5z"/><path d="M161.2 191c-.1-.1-.3-.1-.4-.2-.4-.1-.7-.1-1.1-.2-3.4-.6-6.7-.6-9.9.7 3.1-.5 6.3-.4 9.4-.3.1.1.3.1.4.1.6.1 1.2.2 1.8.4.2 0 .5 0 .6-.3-.1-.3-.4-.3-.8-.2z" class="F"/><g class="B"><path d="M277.5 231.9c-.5-3.4-.8-6.7-1-10.1-.2-3.9 1.8-6.6 5.9-8.3 1-.2 1.9 0 2.9.3 6.8 2.2 13.6 2.2 20.4.2.9-.3 1.8-.4 2.8-.2 3.6 1.7 5.3 4.2 5.2 7.8-.1 2.9-.5 5.9-.7 8.8-.5 3.6-1.2 7.1-2.5 10.5-.2.4-.3.8-.5 1.2-.1.3-.4.5-.8.4s-.6-.3-.6-.6c0-1.9-.6-3.7.1-5.6s1.2-3.9 1.5-5.1c-.2.7-.5 2.1-1 3.5-.8 2.1-1 4.3-1 6.5 0 2.6.2 5.2-.2 7.8-.5 3.2-2.2 5.7-6 6.9-.5.1-1.1.3-1.6.4.5-.1 1-.3 1.5-.4 1.5-.4 2.8-1.2 3.9-2.1.3-.2.6-.5.9-.8.3-.2.7-.5 1.1-.3.5.2.5.6.5.9-.1.4 0 .8.1 1.2 0 .5-.6.9-.4 1.4 0 .5-.3.9-.6 1.3-1.4.3-2 1.4-2.7 2.3-.2.1-.3.2-.5.2-.6 0-1.1.3-1.7.3-1.2.4-2.4.6-3.7.5-3.3-.1-6.6.2-9.8-.2-1.4-.2-2.8-.4-4-1.1-2.6-1.5-3.3-3.6-3.1-6.1.1-.9.7-1.1 1.6-.5.7.5 1.3 1.2 2.1 1.7 1.3.8 2.7 1.3 4.2 1.7 1 .2 2 .4 2.8.4-.7.1-1.6-.2-2.6-.4-5.2-1.2-7.7-3.8-7.8-8.6-.1-3.3 0-6.5-.2-9.8 0-.6-.1-1.1-.3-1.7-.8-2.2-1.2-4.5-1.8-6.4.7 2.1 1.2 4.5 1.9 6.9.5 1.7.1 3.5-.1 5.3 0 .3-.2.5-.6.6-.5.1-.7-.2-.8-.6-.7-1.5-1.2-3.1-1.6-4.6-.4-1.8-1-3.6-1.2-5.5z" class="C D E"/><path d="M308.8 194.4c-.1-.6-.1-1.2 0-1.8-.1-.5-.2-1 0-1.5 0-.7-.1-1.4 0-2.2-.2-.6-.1-1.2.1-1.9-.2.2-.1.1-.4-.2l1.1-10.4c.2-1.5.2-1.5-1.5-1.8l-6.8-1.2c-1.7-.2-2.1.1-2.1 1.6v4l-1.5-7.6c-.2-1.1-.5-2.1-1.1-3.1-.6-.9-1-.9-1.6 0-.9 1.3-1 2.7-1.3 4.2l-1.5 7.6c-.1.4-.1.8-.5 1.2l.4-4.6c0-.3 0-.6.1-.9 0-2.4-.3-2.7-3-2.1l-5.4 1.2c-1.3.2-1.5.8-1.3 1.8.7 3.8 1 7.6 1.2 11.4a58.59 58.59 0 0 1-1.2 16.7c-.5 2.4.1 4 2.8 4.9.9.8 2 1.1 3.2 1.3 6.2.9 12.4 1.4 18.3-1.3.1-.2.3-.2.4-.2 3.2-1.2 3.2-1.8 2.9-4l-1.3-11.1z"/><path d="M309.2 159.9c.9 2.4.6 4.8-.1 7.2-.2.7-.8.7-1.5.6-4.8-1-9.7-1.2-14.6-1-2.8.1-5.6.5-8.3 1.1-.6.1-1.1.3-1.3-.4-.8-2.5-1.3-5-.1-7.6 1-.4 2-.3 3-.3 7.3-.2 14.1-.6 21.3-.1.3.1 1.2.2 1.6.5z" class="C D E"/></g><path d="M285.3 209.7c3.8 1.1 7.6 1.6 11.6 1.4 3.1-.1 6.1-.4 9.1-1.3.3-.1 1.1-.3 1.4-.4-.6.4-2 .7-2 1.7s.2 1.7 1.5 2c.6.1 1.1.2 1.7.4-1 0-5.5 1.1-8.3 1.6-5.3.8-9.9.3-14.9-1.3-.8-.3-2.4-.4-3.4-.4.9-.2 1.1-.4 1.9-.6.2-.1 1.2-.3 1.3-.6.2-.8.5-1.7.1-2.5z"/><path d="M290 256.4c-2.8-.5-5.4-1.6-7.3-3.6-.8 3.3 1.1 6.2 4.7 7.1 3.4.8 6.8.6 10.3.6 1.7 0 3.3-.2 5-.5.7.7.7.8-.2 1.2s-1.9.3-2.9.4c-2.9-.1-5.7-.1-8.6 0-1.7-.1-3.3-.2-5-.6-3.1-.8-5-2.8-5.1-5.6 0-.9-.1-1.7.1-2.6.3-1.5-.1-3 0-4.5.1-2.9-.9-5.5-1.8-8.2-.7-2.2-1.1-4.4-1.6-6.6-.1-.5 0-1.1-.1-1.6.5 2 1 4 1.6 6 .4 1.5 1.1 3 2 4.5.2-2.2.7-4.3 0-6.5-.8-2.6-1.3-5.2-1.9-8.2.7.6.7 1 .9 1.5.7 2 1.2 4 1.9 6 1.1 3.2.8 6.5.8 9.8 0 1.5 0 3.1.3 4.6.8 3.5 3.1 5.6 7 6.5.2.3.1.3-.1.3z" class="F"/><g class="B"><path d="M309.3 186.2c.4-5.5 1.9-11 1.5-16.8 0-.3-.1-.7.5-.7.2.1.4.1.6.2 1.7.6 2 1 1.7 2.6 0 .3-.1.7-.1 1-.2 1.4-.4 2.7-.7 4-.3.9-1 1.8-.2 2.7-.3 2.1.6 4.2.4 6.3 0 1.5.3 3 .3 4.4 0 1.6 0 3.3-.6 4.8-.4 1.1-1.5 1.7-2.6 1.7-.7 0-1.2-.3-1.3-.9 0-.8-.3-1.5-.3-2.3.2-.6 0-1.1 0-1.7.1-.7 0-1.4 0-2.2.5-.7.7-2 .8-3.1z" class="C D E"/><path d="M281.7 168.5c-.1.3-.3.8-.3 1.1-.4 4.6.6 9.1 1 13.6.3 4 .8 8 .4 12.1-.1.9.1 1.4-.8 1-.8-.3-1.8-1.2-2-1.9-.8-2.5-.7-5-.4-7.5.2-2.2.5-4.4.4-6.6 0-.6 0-1.3.4-1.8.1-.2.3-.4.1-.6-1.3-1.1-1-2.6-1.5-3.9l-.3-2.5c-.2-1.5 0-1.9 1.6-2.5.2-.1 1.1-.4 1.4-.5z"/></g><path d="M281.7 168.5c-.2.5-.3 1.1-.2 1.6v1.6c0 1.1.2 2.2.3 3.3l.9 6.5.7 6.6c.2 2.2.3 4.4.1 6.7l-.1.8v.4c0 .2 0 .3-.2.7-.1.2-.5.4-.6.4h-.4c-.2-.1-.3-.1-.5-.2-.3-.1-.6-.3-.8-.5-.5-.4-.9-.8-1.3-1.4 0-.1-.1-.2-.1-.3 0 0 0-.1-.1-.1v-.1l-.1-.4c-.1-.3-.1-.6-.2-.9-.5-2.3-.2-4.6 0-6.7l.3-3.3.2-3.3c0-.6.1-1.3.6-1.8.1-.1.1-.2.1-.2s0 .1.1.2l-.1-.1c-.2-.2-.4-.5-.5-.8-.6-1.1-.5-2.3-.8-3.2l-.2-1.8c0-.6-.2-1.2 0-1.9.1-.3.3-.6.6-.8s.6-.3.9-.4l1.4-.6zm0 0l-1.8.6c-.5.3-1.1.6-1.2 1.1-.1.6.1 1.2.2 1.8l.3 1.8v-.1c.5 1.1.5 2.3 1 3.1.1.2.2.4.4.6l.2.1c.2.1.2.4.2.6-.1.3-.2.4-.3.5-.3.3-.3.8-.3 1.3.1 1.1.1 2.2 0 3.3l-.3 3.3c-.2 2.2-.4 4.3 0 6.4.1.3.1.5.2.7l.1.4v.1s0 .1.1.1c.2.3.6.7 1 1 .2.1.4.3.6.4.1 0 .2.1.3.1 0 0-.3.1-.3.2-.1.2 0 0 0-.1v-.4l.1-.8c.2-2.1.1-4.3 0-6.5l-.4-6.6-.6-6.6c-.1-1.1-.1-2.2 0-3.3 0-.5 0-1.1.1-1.6 0-.4.1-1 .4-1.5zm27.5 84.2c0 .4 0 .7.2 1-.5.4-.5 1.4-1.7 1-.1-.6.1-1.2-.2-1.9-1.7 1.6-3.6 2.8-5.9 3.2-.1-.1-.1-.2 0-.3 4.2-1.7 5.6-4.7 5.8-8.4.1-1.7.1-3.4 0-5.1-.2-3.4.6-6.6 1.8-9.8.5-1.2.7-2.5 1.4-3.6.1 1-.2 2-.4 3-.4 1.7-.9 3.3-1.3 5-.4 1.8 0 3.6.4 5.4.4-1 .9-2 1.3-3 1-2.7 1.7-5.4 2.1-8.3 0-.2.1-.4.2-.7-.1 2.7-.7 5.3-1.3 8-.4 1.7-.9 3.4-1.7 5-.5 1-.6 1.9-.5 3 .2 2.2-.6 4.3-.2 6.5z"/><g class="F"><path d="M302.4 261.2c.5-.4.3-.8.2-1.2.5-.1.9-.3 1.4-.4.6.4.4.9.3 1.4-.1.1-.2.1-.3 0-.4.1-.8.2-1.2.2h-.4zm-11.5.4c1.3-.4 2.6-.2 3.8-.2 1.6 0 3.2-.2 4.8.2h-8.6z"/><path d="M304.3 260.9c-.6-.4-.5-.9-.2-1.4.1-.1.2-.1.2-.2 1-.6 1.8-1.4 2.6-2.2l.6-1c.4-.2.4-.6.7-.9.4-.4.8-.6 1.4-.3.7.7.3 1.5.1 2.1-.6 1.7-1.9 3.1-3.8 3.9-.5.2-1.1.5-1.6 0z"/><path d="M309.4 254.9c-.7.4-1 1.1-1.9 1.2l.3-1.4c.6-.3.9-.9 1.7-1v1c0 .1 0 .2-.1.2zm-24.4-24c.7.5 1.4.5 2.1 0 .1.7-.2 1.1-.9 1.2-.8 0-1.2-.3-1.2-1.2zm18.6 0c.7.4 1.4.5 2.1 0 .1.7-.3 1-.8 1-.8.2-1.3-.1-1.3-1z"/></g><path d="M306.9 257.2c-.4 1.1-1.4 1.8-2.6 2.2.8-.8 1.4-1.8 2.6-2.2zm-12.9-8.4c.2-.5.3-1.2 1.2-.6.5.3.4.7 0 .9-.5.3-1 .3-1.2-.3z" class="B"/><path d="M294 248.8c.4.2.7.4 1.1.1.3-.2.1-.5 0-.7.8.1.6.5.4.9s-.6.5-1.1.4c-.2-.1-1-.1-.4-.7z"/><path d="M290 256.4l.2-.2 3 .5c-1.2.1-2.2 0-3.2-.3zm11.7-.7v.3c-.8.3-1.7.6-2.9.5l2.9-.8z" class="F"/><path d="M298.3 191.2c-1.7-.5-3.5-.1-5.3-.1s-3.3-.7-4.2-2.1c-.5-.7-.2-1.2.8-1.3 1.1-.1 2.2-.1 3.2.4 2.1 1 4.2 1 6.2 0 1-.5 2.1-.4 3.2-.3.9.1 1.2.6.7 1.3-1 1.4-2.6 2-4.6 2.1z"/><path d="M293.1 195c1.8-.3 3.6-.3 5.3 0a11.85 11.85 0 0 1-5.3 0z" class="H"/><path d="M313.4 189.1c0-1.1-.2-1.5-.3-2.6 0-.2.1-.6.1-.9 0 0 .1-.1 0-.1-.1-.8 0-2.6 0-3.1.2-1.8-.9-3.6-.1-5.5.6-1.3.6-2.9.6-4.4l-.8 3.2c-.3 1.3-.9 2.5-.5 4 .4 1.8.2 3.8.4 5.7 0 .7.1 1.5.2 2.2.2 2.2.2 4.5-.4 6.7-.2.8-.8 1.5-1.7 1.7-.7.2-1.7.1-1.7-.7 0-.7 0-1.1-.1-1.7v-3.7c.1-.1.2-1.1.2-1.2.1-.8.1-1.1.1-1.9 0-.4.3-1.2.3-1.5.3-1.8.3-2.9.5-4.7.5-3.9.8-7.5.8-11.6 0-1.2-.2-1.6-.3-2.5-.3-1.7-.5-3.3-.9-5-.1-.6-.2-.6-.5-1.7.3 1.3.5 1.8.5 2.2.2 1.6-.1 2.5-.5 4-.3 1-1.2 1-2.4.9-.4 0-.8-.1-1.1-.2-3.5-.6-7-.8-10.6-.7-3.3.1-6.5.3-9.7 1-1.2.3-2.2.4-2.4-.6-.3-1.4-.6-3.3-.3-4.8.1-.6.2-1.1.5-1.8-.3.5-.5 1.1-.6 1.6-.3 1.6-.5 2.3-.6 3.9 0 1-.1 1.7-.2 3-.1.3-.4.9-.4 1.8 0 1.9.1 3 .3 4.9.3 2.4.6 5 .8 7.4s.2 4.6.4 7.1c.1 1.4.2 3.3 0 4.7-.1.4-.3 3.9-.4 4.4 0 .3-.1.7-.1 1l-1 6.7c-.1.6 0 1.3.6 1.8 1 .8 2 1.4 3.4 1.6-2.6-.9-3.3-2.5-2.8-4.9 1.1-5.5 1.6-11.1 1.2-16.7-.3-3.8-.6-7.7-1.2-11.4-.2-1 0-1.6 1.3-1.8 1.8-.3 3.6-.8 5.4-1.2 2.7-.5 3.1-.3 3 2.1 0 .3 0 .6-.1.9-.1 1.5-.3 3-.4 4.6.5-.4.5-.8.5-1.2.5-2.5.9-5 1.5-7.6.3-1.4.4-2.9 1.3-4.2.6-.8 1-.8 1.6 0 .6 1 .8 2 1.1 3.1l1.5 7.6v-4c0-1.5.4-1.8 2.1-1.6a80.73 80.73 0 0 1 6.8 1.2c1.7.3 1.6.4 1.5 1.8l-1.1 10.4c0 .8-.1 1.4-.2 2v3.6c0 4.1.7 8.2 1.3 12.3.3 2-.1 3.7-2.5 4.6 2.5-.3 4-1.8 3.7-3.8-.3-2.3-.7-4.6-1-6.9-.1-.7-.7-2.2.2-2.2 1.2 0 1.4.2 2.2-.6.7-.7.8-1 .9-1.7.1-1.1.4-1.7.3-2.9-.2-.5-.2-1.3-.2-2.1zm-11.7 5.2c-.2-.1-.3-.1-.5-.2-.4-.1-.8-.1-1.2-.2-3.7-.6-7.3-.5-10.7.7 3.4-.5 6.8-.4 10.2-.3a.9.9 0 0 0 .5.1l1.9.3c.3 0 .5 0 .7-.2-.2-.3-.5-.3-.9-.2z"/><path d="M185.9 235.8c-.6-4-1-8-1.1-12 0-3.6 1.8-6.5 5.1-7.7 6.9 3.3 13.9 3.2 20.9.2 2.9 1.2 4.7 4 4.5 7-.2 3.4-.3 6.8-.8 10.2 0 .2-.6 4.1-.7 4.4 0 .2-.2.6-.3.8-.7 1.6-.9 3.4-2 5.2-.2-2.5-.5-4.6.2-6.8.6-2.1.5-4.4 1-6.6-1.2 2.5-2.2 4.7-5.5 5.1.4.2.5.3.7.4 2.5 1 2.4 1 2.4 3.7l-.2 9c0 2.2-.6 4.2-2 5.9-.7.8-1.7 1.4-2.5 2.1 1.9-.3 3.2-1.5 4.6-2.7.8 3.3-.9 6.1-4.2 6.7-3.9.7-7.9.7-11.9 0-3-.5-4.5-2.5-4.5-5.5 0-.4-.2-.8.2-1s.6.3.9.6c1 1 2.2 1.6 3.6 2-.6-.6-1.3-1-1.9-1.6-2-1.9-2.4-4.4-2.5-7-.1-3.2.2-6.5-.3-9.7-.2-1 .2-1.4.9-1.7s1.5-.4 2.2-1c-3.2-.4-4.6-2.6-5.5-5.3.1 4.6 2.5 8.9 1.2 13.7-1-1.9-1.2-4-2.1-5.8 0-.2 0-.3-.1-.5.1-.3 0-.5-.2-.8 0-.2-.1-.5-.1-.7.2-.2.1-.4 0-.6zm13.2 14.4c-.1.9.1 1.2.6 1.1.5 0 .7-.3.5-1-.3.6-.7.7-1.1-.1zm14.2-20.5c-.1 0-.1 0 0 0-.1 0-.1.1 0 0-.1.1-.1.1 0 0zM195 256.9c-.1 0-.1-.1-.2-.1 0 0-.1 0-.1.1.1 0 .2.1.3 0 0 .1 0 0 0 0z" class="B C D E"/><path d="M186.4 238.3c.9 1.8 1 3.9 2.1 5.8 1.3-4.8-1-9.1-1.2-13.7.9 2.6 2.3 4.8 5.5 5.3-.7.7-1.5.7-2.2 1-.7.4-1.1.8-.9 1.7.5 3.2.2 6.5.3 9.7 0 2.6.5 5.1 2.5 7 .6.6 1.3 1 1.9 1.6-1.4-.3-2.6-1-3.6-2-.2-.2-.4-.8-.9-.6-.4.2-.2.7-.2 1 0 3 1.6 5 4.5 5.5a33.98 33.98 0 0 0 11.9 0c3.2-.6 4.9-3.4 4.2-6.7-1.4 1.2-2.7 2.4-4.6 2.7.8-.7 1.8-1.2 2.5-2.1 1.4-1.7 2-3.7 2-5.9 0-3 .1-6 .2-9 .1-2.7.1-2.7-2.4-3.7-.2-.1-.3-.2-.7-.4 3.2-.4 4.3-2.6 5.5-5.1-.4 2.2-.3 4.4-1 6.6-.6 2.2-.4 4.3-.2 6.8 1.1-1.8 1.3-3.6 2-5.2.2 1.5-.3 3-.8 4.3-1.3 3.5-1.2 7.1-1 10.8 0 .5.1 1 .1 1.5 0 3.8-2.1 6.1-5.8 6.5-3.8.4-7.6.5-11.4 0-4.6-.5-6.7-3.2-6.2-7.9.2-1.5 0-3.1.1-4.6.1-3.4-1.2-6.4-1.9-9.6-.3-.1-.6-.7-.3-1.3z"/><path d="M215.3 187.8l.1 3.6v.9c-.1.7-1.2 1.6-1.8 1.4-.7-.2-.4-.9-.4-1.4a152.78 152.78 0 0 1 1.5-16.6c.3-2.5.1-5 .1-7.4v-1.2l1.1.3c2.1.3 2.1.3 1.7 2.4l-1.7 9.6c0 .1-.5 6.1-.6 8.4zm-30-21.3c-.4 5.7.2 11.1.8 16.6.3 2.8.4 5.6.6 8.4 0 .5.4 1.5-.7 1.4-.9 0-1.8-.4-1.8-1.5 0-1 .1-2 .1-3 0-1.1 0-2.2-.2-3.4-.1-.5-.5-7.4-.5-7.7-.5-4.7-.9-5.7-1.3-8.6-.3-2-.3-2 1.8-2.2h1.2z" stroke="#010101" class="B C D"/><path d="M186.1 237.1c.2.2.3.5.2.8-.3-.2-.4-.5-.2-.8zm-.2-1.3c.1.2.2.3.1.5-.2-.1-.3-.2-.1-.5z" class="G"/><path d="M199.1 250.2c.4.9.8.7 1.2.2.2.6 0 .9-.5 1-.5-.1-.8-.4-.7-1.2z"/><path d="M195 256.9s0 .1 0 0c-.2.1-.2 0-.3 0l.1-.1c.1 0 .1.1.2.1z" class="G"/><path d="M203.3 178.5l-.4-5.2c1 2.1 1.8 4.1 4.4 4.7 2.4.5 4.4.2 6.4-1.8l-.8 7.9c-.7 5.9-.7 11.8.2 17.8.3 2 .4 4 .7 5.9.2 1.3-.3 2-1.4 2.6-2 1.1-4.2 1.6-6.4 1.9-5.1.7-10.2.7-15.2-.6h-.1c-4.2-1.2-4.8-1.9-4.1-6.2 1.4-7.8 1.4-15.5.4-23.3-.2-1.8-.5-3.7-.8-5.9 1.9 1.7 3.9 2.2 6.2 1.8 2.6-.5 3.6-2.3 4.4-4.5.2 3.2-.5 6.2-.6 9.5.5-.5.5-1 .6-1.5.6-3.1.8-6.3 1.7-9.4.3-.9.4-2.2 1.5-2.2 1.2-.1 1.3 1.3 1.7 2.2.7 2.1.8 4.3 1.3 6.4.4 1.8.7 3.6.9 5.5-.3-2-.5-3.7-.6-5.6zm-3.9 17.6c2.2 0 4.4-.3 6.5-1 .4-.1.9-.3 1.2-.7s.7-.8.5-1.3c-.1-.6-.7-.7-1.2-.7-1.7-.3-3.2 0-4.7.8-1.2.7-2.4.7-3.6-.1s-2.6-.9-3.9-.8c-.7.1-1.7 0-1.9.9s.6 1.5 1.4 1.8c.5.2 1 .4 1.5.5a30.34 30.34 0 0 0 4.2.6zm7.7 4c-3.1-2-13.1-1.9-15.7.3 5.2-1.1 10.4-1.1 15.7-.3zm-10.9.5c2.3.4 4.5.4 6.8 0-2.3-.3-4.5-.4-6.8 0zm3.8-40.8h12.1c1 0 1.4.3 1.6 1.3.4 2.4.5 4.8.1 7.2-.2 1-.6 1.4-1.7 1-8-2.4-15.9-2.4-23.9 0-1.5.4-1.7.3-1.9-1.3-.3-2.4-.2-4.8.2-7.2.2-.9.6-1.1 1.4-1.1 4 .1 8 .1 12.1.1z" class="B"/><path d="M213.4 198c-.1-1.1-.3-1.6-.3-3 0-1.2.2-2.5.2-3 .2-5.6.6-10.9 1.4-16.4.3-2.5.1-5 .1-7.4V167c-.4-1.3-.3-2.5-.4-3.9 0-1-.2-2.4-.3-3.2-.1-1.2-1.1-1.5-1.9-1.5-9.3.3-14.8.5-24.1 0-1.9-.1-2.2 1.7-2.4 2.5a50.5 50.5 0 0 0-.6 5.6c-.7 5.6.3 11.2.8 16.7.3 2.8.4 5.5.6 8.3 0 .5.2.2.2 1.3 0 .9-.1 1.7-.1 2.2 0 .7-.1 1.3-.2 2-.1 3.5-.8 7-1.4 10.5-.3 2 0 2.7 1.8 3.6 1.2.6 2.4 1 3.7 1.3.8.2 1.5.2 1.5 1.4 0 1-.2 1.7-1.3 1.8-.4.1-.7.2-1 .5 6.9 3.3 13.9 3.2 20.9.2-.4-.4-.9-.6-1.4-.8-.4-.1-.6-.4-.8-.8-.4-1.4.1-2.4 1.5-2.8.5-.1 1-.3 1.4-.4 2.6-.7 3.5-2.1 3.1-4.7-.3-3.2-.6-5.4-1-8.8zm-27-37.1c.2-.9.6-1.1 1.4-1.1h24.3c1 0 1.4.3 1.6 1.3.4 2.4.5 4.8.1 7.2-.2 1-.6 1.4-1.7 1-8-2.4-15.9-2.4-23.9 0-1.5.4-1.7.3-1.9-1.3-.5-2.3-.4-4.7.1-7.1zm25.9 49.5c-2 1.1-4.2 1.6-6.4 1.9-5.1.7-10.2.7-15.2-.6h-.1c-4.2-1.2-4.8-1.9-4.1-6.2 1.4-7.8 1.4-15.5.4-23.3-.2-1.8-.5-3.7-.8-5.9 1.9 1.7 3.9 2.2 6.2 1.8 2.6-.5 3.6-2.3 4.4-4.5.2 3.2-.5 6.2-.6 9.5.5-.5.5-1 .6-1.5.6-3.1.8-6.3 1.7-9.4.3-.9.4-2.2 1.5-2.2 1.2-.1 1.3 1.3 1.7 2.2.7 2.1.8 4.3 1.3 6.4h.4c-.1-1.7-.3-3.4-.4-5.2 1 2.1 1.8 4.1 4.4 4.7 2.4.5 4.4.2 6.4-1.8l-.8 7.9c-.7 5.9-.7 11.8.2 17.8.3 2 .4 4 .7 5.9.1 1.1-.5 1.9-1.5 2.5z"/><path d="M203.8 184l-.5-5.5h-.4l.9 5.5zm-4.4 12.1c-1.4 0-2.8-.3-4.2-.6-.5-.1-1-.3-1.5-.5-.8-.4-1.6-.9-1.4-1.8.2-.8 1.2-.8 1.9-.9 1.4-.1 2.7 0 3.9.8s2.4.8 3.6.1c1.5-.8 3-1.1 4.7-.8.5.1 1 .2 1.2.7.1.5-.2.9-.5 1.3s-.7.5-1.2.7c-2.1.7-4.3 1-6.5 1zm7.7 4c-5.2-.8-10.5-.8-15.7.3 2.6-2.1 12.5-2.3 15.7-.3z"/><path d="M196.2 200.6c2.2-.5 4.5-.3 6.8 0-2.2.4-4.5.5-6.8 0z" class="G"/><path d="M122 216.9c3.5 1.5 5.3 4.1 5.1 8.1-.1 3.7-.5 7.5-1.1 10.9 0 .2-.6 2.7-.6 2.9-.9 2-1.3 4.3-2.4 6.2-.3-2.5-.6-4.9.2-7.3.8-2.2 1.1-4.7 1.6-7-.7 1.2-1 2.4-1.5 3.7-1 2.9-2 5.7-5.6 6.5.6.6 1.2.7 1.7.8 1.3.4 2.1 1.1 1.9 2.7-.2 1.7 0 3.5-.1 5.3a9.07 9.07 0 0 1-2.1 5.9c-1.2 1.2-2.7 1.9-4.1 2.6 1.7-.2 3.3-.7 4.6-1.8.3-.2.5-.4.8-.6s.5-.7.9-.5.2.7.2 1c0 .8-.1 1.5-.2 2.2-.2.2-.3.4-.4.7-1.1 1.6-2.7 2.4-4.6 2.8-1.7.4-3.4.2-5.1.4-1.1 0-2.2-.1-3.3-.1-2.5 0-5.1 0-7.4-1.2-1.5-.8-2.1-2.2-2.5-3.8 0-.6-.1-1.1-.1-1.7 0-.2.1-.4.1-.5.6 0 .9.5 1.3.8 1.1.9 2.2 1.6 3.7 1.7-1.4-1-2.8-2.1-3.7-3.7-1.1-2.5-.8-5.1-1-7.7-.2-2.7.4-4.6 3.3-5.2.1 0 .1-.1.2-.3-5-1.4-4.7-6.3-6.5-10 .2 5 3 9.4 1.4 14.5-1.1-2.1-1.4-4.4-2.4-6.4 0-.2-.2-.9-.3-1.2-1.2-4.2-1.4-8.9-1.5-13.5-.1-3.5 2.8-6.9 6-7.4.2.4.6.4 1 .6 3.9 1.3 7.9 2.1 12.1 1.9 3.7-.3 7-1.3 10.4-2.3zm-13.5 35.2s-.1 0 0 0c.2.7.6 1.1 1.3.9.6-.2.8-.6.5-1.3-.4 1.1-1.4.4-1.8.4zm-7.4-15.2c.8 1.3 1.1 1.3 1.9 0-.7.1-1.3.1-1.9 0zm16-.1c.2.4.3.6.4.7.3.3.7.5 1.1.2.2-.2.5-.4.4-.7-.2-.5-.7.1-1-.1-.2 0-.4 0-.9-.1z" class="B"/><path d="M122 216.9c.9.4 1.8.9 2.6 1.6.8.6 1.4 1.5 1.8 2.4s.7 1.9.7 2.9c.1 1 0 2 0 3l-.6 6-.4 3-.6 3c-.9 2-1.2 4.3-2.4 6.2l-.2.3v-.3c-.2-1.2-.3-2.4-.3-3.7 0-1.2.1-2.5.5-3.6.8-2.3 1.1-4.7 1.6-7.1l.2.1c-1 1.9-1.4 4.1-2.3 6.1-.4 1-1 2-1.8 2.7-.4.4-.9.7-1.4.9-.5.3-1 .4-1.6.5l.1-.2c.2.3.5.4.8.5l1 .3c.4.1.7.3 1 .5s.6.6.7.9c.1.4.2.8.2 1.1l-.1 1.1v2.2c0 1.4.1 2.9-.2 4.4-.3 1.4-1 2.8-1.9 3.9-1.2 1.2-2.7 1.9-4.2 2.6l-.1-.3c1.6-.2 3.3-.7 4.5-1.8l.6-.4c.2-.1.3-.2.5-.4.1-.1.2-.2.3-.2.1-.1.3-.1.5 0 .1 0 .3.2.4.3s.1.3.1.4c0 .3 0 .5-.1.7l-.1.7-.1 1.4v.1h-.1c-.2.1-.3.3-.3.6v.1c-.5.7-1.2 1.4-2 1.8-.8.5-1.6.8-2.5 1-1.8.4-3.6.3-5.3.5l-3.9-.1c-1.3 0-2.6-.1-3.9-.3-.6-.1-1.3-.3-1.9-.5-.3-.1-.6-.2-.9-.4-.3-.1-.6-.3-.9-.5-1.1-.9-1.6-2.2-1.9-3.5l-.1-1.7v-.9h.2c.3 0 .6.1.8.3l.5.5c.1.1.3.3.5.4s.4.3.6.4a6.22 6.22 0 0 0 2.6.9l-.1.4c-1.4-1-2.8-2.2-3.7-3.7-.5-1.2-.8-2.5-.8-3.7l-.2-3.8c-.1-1.2-.2-2.6.5-3.8.3-.6.8-1.1 1.4-1.3.3-.1.6-.3.9-.4.2 0 .3-.1.5-.1h.1c-.1 0 0 0 0 0 0-.1.1-.1.1-.2l.1.3-.8-.3c-.3-.1-.5-.2-.7-.3s-.5-.3-.7-.4-.4-.3-.6-.5-.4-.4-.5-.6c-.2-.2-.3-.4-.5-.7-.3-.5-.5-.9-.7-1.4-.4-1-.7-2-1-3-.2-.5-.3-1-.5-1.5l-.6-1.4.3-.1c0 .6.1 1.2.2 1.8l.3 1.8.8 3.6c.3 1.2.5 2.4.5 3.7 0 .6 0 1.2-.1 1.9l-.4 1.8-.1.3-.2-.3c-1.1-2-1.4-4.4-2.3-6.4l-.3-1.5c-.1-.5-.3-1-.4-1.5l-.5-3.1c-.3-2.1-.4-4.2-.4-6.3v-3.2l.4-1.6c.2-.5.4-1 .7-1.4 1.1-1.8 2.9-3.2 5-3.6h.1c.2.4.8.5 1.3.6.5.2.9.3 1.4.4 1 .3 1.9.5 2.9.7 1.9.4 3.9.7 5.9.7s4-.2 5.9-.6l5.6-1.7zm0 0l-5.7 1.6c-1.9.4-3.9.7-5.9.7s-4-.2-5.9-.6l-2.9-.7c-.5-.1-1-.3-1.4-.4-.4-.2-1-.2-1.4-.7h.1c-2.1.4-3.8 1.8-4.9 3.5-.3.4-.5.9-.7 1.4s-.3 1-.4 1.5-.1 1 0 1.6v1.6l.4 6.3c.1 1 .3 2.1.5 3.1.1.5.2 1 .4 1.5.1.5.2 1 .4 1.5 1 2.1 1.3 4.4 2.4 6.4h-.3l.4-1.8c.1-.6.1-1.2.1-1.8 0-1.2-.2-2.4-.5-3.6l-.8-3.6-.3-1.8c-.1-.6-.1-1.2-.2-1.8v-.8l.3.8.6 1.5c.2.5.3 1 .5 1.5l1 3c.2.5.4.9.7 1.4.2.2.3.4.4.6.2.2.3.4.5.6s.4.4.6.5.4.3.6.4.4.2.7.3l.7.3.2.1-.2.4s0 .1-.2.1h-.1c-.1 0-.3.1-.4.1l-.8.3c-.5.3-1 .7-1.3 1.2-.6 1.1-.5 2.3-.4 3.6l.2 3.8c.1 1.2.3 2.5.8 3.6.9 1.5 2.2 2.6 3.6 3.6l.6.4h-.7c-1-.1-1.9-.4-2.8-.9-.2-.1-.4-.3-.6-.4-.2-.2-.4-.3-.6-.5-.3-.4-.6-.7-1-.7l.2-.2-.1.5.1 1.7c.3 1.2.8 2.5 1.8 3.2.2.2.5.4.8.5s.6.3.9.4c.6.2 1.2.4 1.8.5a24.33 24.33 0 0 0 3.8.3l3.9.1c1.8-.2 3.6-.1 5.2-.5.8-.2 1.7-.5 2.4-.9s1.4-1 1.9-1.7v.1c0-.3.2-.6.4-.8l-.1.1.1-1.4.1-.7c0-.2.1-.5.1-.7s0-.3-.2-.4c-.1-.1-.2 0-.4.2l-.3.3-.9.6c-.6.6-1.4 1-2.2 1.3s-1.6.5-2.5.6l-1 .2.9-.5c1.5-.7 3-1.4 4.1-2.6.9-1.1 1.6-2.4 1.9-3.8s.2-2.8.2-4.3v-2.2c0-.7.2-1.5-.1-2.1-.2-.6-.9-1-1.5-1.3l-1-.3c-.4-.1-.7-.3-1-.6l-.2-.2.2-.1c.5-.1 1-.3 1.5-.5s.9-.5 1.3-.9c.8-.7 1.3-1.6 1.8-2.6.9-2 1.3-4.1 2.4-6.1l.4-.7-.2.8c-.5 2.4-.8 4.8-1.6 7.1-.4 1.1-.5 2.4-.5 3.6s.2 2.4.3 3.6h-.2c1.1-1.9 1.5-4.1 2.4-6.2l.6-3 .5-3 .6-6c.1-1 .1-2 .1-3-.1-1-.3-2-.7-2.9s-1-1.7-1.8-2.4c-.7-.9-1.6-1.4-2.5-1.8zm-13.5 35.2c-.1.1 0 .1 0 0 0 .4.2.6.5.8.2.1.5.1.8 0 .1 0 .2-.1.3-.2l.2-.2c.1-.2 0-.5-.1-.7h.3c-.1.2-.2.3-.4.5-.2.1-.4.2-.6.2-.3-.1-.6-.4-1-.4zm0 0c.2 0 .4.1.5.1.2 0 .4.1.5 0 .4 0 .5-.3.6-.6l.1-.5.2.5c.1.3.3.6.1 1-.1.2-.2.4-.4.4-.2.1-.3.1-.5.2-.3 0-.7 0-.9-.2 0-.2-.1-.5-.2-.9-.1.1-.1.1 0 0zm-7.4-15.2l.5.5c.2.2.4.3.5.3s.3-.1.4-.3l.4-.6.2.3c-.7.1-1.4 0-2-.2zm0 0c.6 0 1.2 0 1.8-.2l.5-.2-.2.4c-.1.2-.2.4-.4.6l-.3.3a.76.76 0 0 1-.4.2c-.2 0-.3-.1-.4-.2s-.2-.2-.2-.3c-.2-.2-.3-.4-.4-.6zm16-.1s.1.1.1.2c.1.1.2.3.3.4s.2.1.3.2c.1 0 .2.1.3.1.2 0 .5-.2.6-.3s.1-.2.1-.2c-.1-.1 0-.1-.1-.1s-.2.1-.4.1-.4-.1-.4-.1c-.2-.1-.4-.1-.5-.2-.2-.1-.3-.1-.3-.1zm0 0h.8c.2 0 .2.1.3 0 .1 0 .2-.1.4-.2h.3c.1 0 .1.1.2.1 0 .1 0 .1.1.1.1.2 0 .5-.1.7-.3.3-.6.5-1 .5-.2 0-.3-.1-.5-.2l-.3-.3c-.1-.2-.1-.4-.2-.6v-.1z"/><g class="B"><path d="M129.8 184.1c0 2.3.3 4.5.7 6.8.3 1.9-1.5 3.7-3.5 3.2-.8-.2-.6-.9-.5-1.4 0-2.5.3-4.9.5-7.4.4-4.3 1.4-8.5 1.5-12.9.1-1.8-.1-3.7-.2-5.6 1.9 0 2 0 1.9 2-.2 3.7-.5 7.4-.5 11.1 0 .6.1 2.1.1 2.2-.1.6 0 1.3 0 2z" class="C D E"/><path d="M91.5 166.1c.6 1.3-.1 2.6.1 3.9v1.7c-.3 3.2.6 6.3 1 9.5.4 3.6.9 7.2 1 10.8 0 1.1-.2 1.5-1.4 1.2-2-.6-2.3-1-2.1-3.1.2-1.7.6-3.5.3-5.3 0-.8.3-3.7.3-4.4a49.33 49.33 0 0 0-.3-5.5 148.58 148.58 0 0 0-.2-4.8c0-.3-.2-1.7-.3-2.1-.3-1.4.2-2 1.6-1.9z"/></g><path d="M91.5 166.1c.3.6.3 1.3.2 2s-.2 1.3 0 2v1.8c-.2 2.7.4 5.4.8 8l1 8 .3 4.1c0 .3 0 .7-.1 1.1-.1.2-.2.4-.4.5s-.4.1-.6.1c-.4 0-.7-.2-1-.3s-.7-.2-1-.4-.6-.5-.7-.9-.1-.7-.1-1.1c0-.7.1-1.4.2-2 .2-1.3.4-2.7.2-4l.2-2.5.1-1.3V180l-.3-5-.1-2.5v-1.3c0-.4 0-.8-.1-1.2l-.1-1.2c0-.4-.1-.8-.1-1.3 0-.4.2-.9.6-1.1.2-.3.6-.3 1-.3zm0 0c-.4 0-.9 0-1.2.2-.4.2-.5.7-.5 1.1s.1.8.2 1.2l.2 1.2c.1.4.1.8.1 1.3l.1 1.3.1 2.5.3 5v1.2l-.1 1.3-.1 2.5c.2 1.4 0 2.8-.2 4.1-.1.7-.2 1.3-.2 2s.1 1.3.7 1.6c.5.3 1.2.5 1.8.6.3 0 .5 0 .6-.3s.1-.6.1-.9a26.93 26.93 0 0 0-.3-4l-.4-4-.5-4c-.4-2.7-1-5.4-.7-8.1v-1.7c-.1-.7 0-1.3.1-2 .2-.8.2-1.5-.1-2.1z"/><path fill="#777" d="M120.5 260.7z"/><path d="M124.5 242.4c.3-1 .7-2.3.9-3.7-.9 2-1.3 4.3-2.4 6.2-.3-2.5-.6-4.9.2-7.3.8-2.2 1.1-4.7 1.6-7-.7 1.2-1 2.4-1.5 3.7-1 2.9-2 5.7-5.6 6.5.6.6 1.2.7 1.7.8 1.3.4 2.1 1.1 1.9 2.7-.2 1.7 0 3.5-.1 5.3a9.07 9.07 0 0 1-2.1 5.9c.1.3.3.5.4.8.3-.2.5-.4.8-.6s.5-.7.9-.5.2.7.2 1c0 .8-.1 1.5-.2 2.2-.2.2-.3.4-.4.7-1.1 1.6-2.7 2.4-4.6 2.8-1.7.4-3.4.2-5.1.4-1.1 0-2.2-.1-3.3-.1-2.5 0-5.1 0-7.4-1.2-.2-.1-.4-.2-.5-.3-.5-.4-.9-.9-1-1-.4-.5-.7-1.2-.7-1.3l-.4-1.2c0-.7-.1-1.1-.1-1.7 0-.2.1-.4.1-.5.6 0 .9.5 1.3.8 1.1.9 2.2 1.6 3.7 1.7-1.4-1-2.8-2.1-3.7-3.7-1.1-2.5-.8-5.1-1-7.7-.2-2.7.4-4.6 3.3-5.2.1 0 .1-.1.2-.3-5-1.4-4.7-6.3-6.5-10 .2 5 3 9.4 1.4 14.5-1.1-2.1-1.4-4.4-2.4-6.4.5 1.7.5 2.2.8 3.3.9 3 1.6 5.7 1.6 8.9 0 1.9.1 2.8-.1 4.6 0 .1 0 1.8.3 2.3 0 .1.3 1.2.5 1.5.1.2.8 1.4 1.2 1.8.1.1.6.6 1.8 1.2.1.1.2.3.3.4 3.5.7 7 .7 10.5.6 3.1.1 6.2-.4 9.2-1.1l.3-.6.6-.6c.6-.1.8-.8 1.2-1.1v-1.1c.5-.4.4-1 .5-1.6.3-1.7-.4-3.3-.3-4.9.5-3.4 1.1-6.6 2-9.9z"/><path d="M119.7 256.2c-.1-.3-.3-.5-.4-.8-1.2 1.2-2.7 1.9-4.1 2.6 1.6-.2 3.2-.6 4.5-1.8zm-18.6-19.3c.6.1 1.2.2 1.9 0-.8 1.2-1.1 1.2-1.9 0zm16-.1c.5.1.7.1.9.2.3.1.8-.4 1 .1.1.3-.1.5-.4.7-.4.3-.8.2-1.1-.2l-.4-.8zm-6.7 14.9c.3.8.1 1.2-.5 1.3-.7.2-1.1-.2-1.4-.9 0 .1 1.4.7 1.9-.4z"/><path d="M94 176.4c2 1.5 4.1 2 6.6 1.2 2.4-.8 3.8-2.6 5.1-5 .7 4.3.7 8.2 1 12.2.6-2.9.6-5.8.7-8.7.1-1.9.2-3.7.8-5.5.4-1 .9-2.1 2.1-2 1.1.1 1.8 1 2.1 2.1.9 2.9.7 5.9.9 8.8.1 2 .1 4 .5 6 .5-4.1.3-8.4 1-12.9 1.3 2.4 2.7 4.3 5.1 5.1 2.5.9 4.6-.1 6.8-1.6.2.8 0 1.4-.1 2-.8 6-1.8 12-1.3 18.1.3 3.3.9 6.6 1.6 9.9.3 1.4 0 2.5-1.2 3.4-3.3 2.8-7.3 4.1-11.5 4.8-6.6 1.1-12.8.1-18.5-3.5-.6-.4-1.1-.8-1.6-1.2-1.3-1-1.5-2.2-1.1-3.7 2.3-8.3 1.8-16.6.6-25-.2-1.3-.4-2.5-.7-3.8 0-.9.4-.9 1.1-.7zm20.4 17.8c.3.1.7.2.8.2h1.1c.7-.1 1.5 0 1.6-.8.1-.9-.5-1.4-1.3-1.7-1.1-.5-2.3-.3-3.3.2-2.2 1-4.3 1-6.5 0a4.78 4.78 0 0 0-2.9-.3c-.9.2-1.5.8-1.5 1.7s.9.9 1.6 1c.3 0 .6.1.9 0 4.7-1.1 5.7-1 9.5-.3zm-11.3 7.3c4.8-.5 9.6-.5 14.4 0-4.8-1.7-9.6-1.6-14.4 0zm3.9.7c2.3.5 4.6.7 6.9 0-2.3-.6-4.6-.5-6.9 0zm2.1-42.2c.9-.1 1.1.2 1.7.1l14.6-.2c1.2 0 1.7.4 1.8 1.6.3 2 .4 4.1 0 6.1-.3 1.6-.7 1.8-2.3 1.4-7.3-1.8-14.8-2.1-22.3-1.3-1.2.1-2.4.4-3.5.5-.2 0-.4 0-.6.2-1.3.1-2.5.5-3.7.9-.5 0-.9 0-1.4-.3-.9-2.8-.8-5.6-.1-8.4.2-.7.6-1 1.3-.9 1.5.1 2.9.1 4.4.1.7 0 1.4 0 2 .1h2.6c.6 0 1.1.1 1.7.1 1.3.1 2.5 0 3.8 0z" class="B"/><path d="M120.5 262.2l.3-.6-.3.6z" class="F"/><path d="M131.1 191.8l-.8-4.2-.5-3.5c0 2.3.3 4.5.7 6.8.3 1.9-1.5 3.7-3.5 3.2-.8-.2-.6-.9-.5-1.4 0-2.5.3-4.9.5-7.4.4-4.3 1.4-8.5 1.5-12.9.1-1.8-.1-3.7-.2-5.6a55.09 55.09 0 0 0-.6-5.7c-.1-.5-.1-2.8-3-2.7-3.8.1-9 .2-12.7.1-.5.7-.6.9-1.1 1.6l14.6-.2c1.2 0 1.7.4 1.8 1.6.3 2 .4 4.1 0 6.1-.3 1.6-.7 1.8-2.3 1.4-7.3-1.8-14.8-2.1-22.3-1.3-1.2.1-2.4.4-3.5.5-.2 0-.4 0-.6.2-1.3.1-2.5.5-3.7.9-.5 0-.9 0-1.4-.3-.9-2.8-.8-5.6-.1-8.4.2-.7.6-1 1.3-.9 1.5.1 2.9.1 4.4.1.7 0 1.4 0 2 .1h2.6c.6 0 1.1.1 1.7.1h3.7c1.1 0 1.1.2 1.7.1.5-.7.6-.9 1.1-1.6-.6 0-1.4 0-1.9-.1-1.9-.1-4.4-.1-5.1-.1-1.4-.1-3-.1-4.4-.1-1.7-.1-3.3 0-4.9-.1-1.9-.1-2.8 1.7-3 2.2-.5 1.9-.3 3.9-1 5.7.6 1.3-.1 2.6.1 3.9v1.7c-.3 3.2.6 6.3 1 9.5.4 3.6.9 7.2 1 10.8 0 1.1-.2 1.5-1.4 1.2-2-.6-2.3-1-2.1-3.1.2-1.7.6-3.5.3-5.3-.2.7-1 4.2-1.4 5.7-.5 2.5-.2 3 2.2 3.7.3.1.6.2 1 .2 1.2.1 1.4.8 1.3 1.9-.3 3.2-.9 6.3-1.7 9.4-.6 2.1.1 3.5 1.7 4.7 1.8 1.4 3.8 2.5 6 3.3.6.2 1.3.3 1.3 1.2 0 .8-.7.8-1.1 1.1-.3.1-.6.4-.8.5.2.4.6.4 1 .6 3.9 1.3 7.9 2.1 12.1 1.9 3.5-.2 6.8-1.2 10.2-2.2-.4-.6-1.1-.5-1.6-.8-.6-.3-1.5-.2-1.5-1.1 0-.8.8-.8 1.3-1.1 2.4-1 4.7-2.1 6.7-3.8 1.2-1 1.8-2.2 1.4-3.9-.7-3.1-1.3-6.2-1.7-9.3-.1-.9 0-1.4 1-1.6.8-.1 1.7-.4 2.5-.8.5-.1 1-1.1.7-2.5zM127 206c.3 1.4 0 2.5-1.2 3.4-3.3 2.8-7.3 4.1-11.5 4.8-6.6 1.1-12.8.1-18.5-3.5-.6-.4-1.1-.8-1.6-1.2-1.3-1-1.5-2.2-1.1-3.7 2.3-8.3 1.8-16.6.6-25-.2-1.3-.4-2.5-.7-3.8-.2-.8.2-.9.8-.7v-.4.4h.1c2 1.5 4.1 2 6.6 1.2 2.4-.8 3.8-2.6 5.1-5 .7 4.3.7 8.2 1 12.2.6-2.9.6-5.8.7-8.7.1-1.9.2-3.7.8-5.5.4-1 .9-2.1 2.1-2 1.1.1 1.8 1 2.1 2.1.9 2.9.7 5.9.9 8.8.1 2 .1 4 .5 6 .5-4.1.3-8.4 1-12.9 1.3 2.4 2.7 4.3 5.1 5.1 2.5.9 4.6-.1 6.8-1.6.2.8 0 1.4-.1 2-.8 6-1.8 12-1.3 18.1a157.26 157.26 0 0 0 1.8 9.9zm-13.6-12c-3.4-.6-5-.3-8.4.4-.3.1-.6.1-.9 0-.7-.1-1.6-.1-1.6-1s.6-1.5 1.5-1.7a4.78 4.78 0 0 1 2.9.3c2.2.9 4.3 1 6.5 0 1-.5 2.2-.8 3.3-.2.7.3 1.4.9 1.3 1.7s-1 .8-1.6.8h-1.1c-.2.1-.7-.1-1.9-.3zm-10.3 7.5c4.8-1.6 9.6-1.7 14.4 0-4.8-.5-9.6-.5-14.4 0z"/><path fill="#777" d="M107 202.2c2.3-.5 4.6-.6 6.9 0-2.3.7-4.6.5-6.9 0z"/><g class="B"><path d="M56.2 224.2c-.1-.1-.3-.2-.4-.3-.2-.3-.4-.4-.7-.4-.3-.2-.6-.3-.9-.5-1.3-1.2-2.7-2.3-3.8-3.6-1.2-1.5-1.8-3.1-1.5-5.2.8-5.3 1.5-10.6 1.5-16 0-6.9-.6-13.8-1.5-20.7-.1-1 .1-1.3 1.2-1.4 2.9-.2 5.7-.9 7.9-3 .3-.2.5-.7.9-.5s.3.7.3 1c.1 3-.1 6.1-.3 9.1 0 .3-.4.7.1 1.1.5-1.8.7-3.6 1-5.4.5-3.3.9-6.5 2-9.7.2-.6.5-1.3 1.1-1.3.7 0 .9.7 1.2 1.2a12.59 12.59 0 0 1 .3 1c.4 1.7.8 3.4 1.1 5.1.5 2.8.7 5.7 1.5 8.4 0-1.4-.1-2.7-.2-4-.1-1.8-.2-3.7-.1-5.5 0-.3.1-.7.4-.9.2-.1.4.1.6.2 2.5 2.5 5.7 3.2 9.1 3.3.8 0 1.1.2 1 1.1l-.8 8.1c-.4 4.5-.7 9-.6 13.5.1 5.4 1 10.7 1.5 16 .1 1.4-.2 2.5-1 3.6-1.3 1.9-1.6 2.9-4.8 4.6-.8.4-1.9 1-2.7 1.4-2.9 1-5.8 1.7-8.9 1.1-1.6-.4-3-1-4.5-1.4z" class="C D E"/><path d="M51.1 241.3c-.4-2.8-.7-5.6-.7-8.5s1.4-5 4.2-6.1c5.5 2.7 10.9 2.7 16.5.2 2.5.8 4.1 3.6 3.9 5.9-.2 3-.4 6.2-.8 9.1 0 .3-.2.9-.3 1.1-.7 1.8-.9 3.8-2 5.8-.1-1.8-.4-3.3.1-4.9.4-1.2.6-2.4.9-3.5.3-1 .3-2 .4-3.2-.6 1.1-.9 2.1-1 3.2-.9 2.6-1.7 5.1-1.6 7.9v4.2c.1 2.7-.8 5-3.5 6.7 1.7-.2 2.6-1.2 3.6-2 .6 3.1-1.1 5.2-4.3 5.5a33.91 33.91 0 0 1-7.8 0c-.8-.1-1.6-.3-2.4-.7-1.7-.9-2.5-3-1.9-4.7 2.1 1.7 2.4 1.8 3.5 2-2.5-2.1-3.1-2.9-3.4-5.3-.1-1-.1-2-.1-2.9.4-4.3-.6-8.4-1.9-12.5 0-.1-.1-.4-.4-.3.3 1.7.6 3.5 1 5.2.5 2.5.5 4 0 5.2-.8-1.5-1-3.2-1.7-4.8 0-.1-.1-.6-.1-.9-.1-.3-.2-.7-.2-1v-.7zM63 253.8c-.1-.4-.3-.6-.7-.5-.3 0-.6.2-.6.6s.3.6.7.6c.3 0 .6-.2.6-.7zm-5.7-15.5c-.3-.3-.5-.1-.7-.1s-.5-.2-.7 0c.5.9.7.9 1.4.1z"/></g><path d="M51.1 241.3c-.4-2.7-.7-5.4-.7-8.2 0-1.4.2-2.8 1-3.9.7-1.2 1.9-2 3.2-2.5.6.3 1.3.6 2 .8s1.3.5 2 .6c.7.2 1.4.3 2.1.4l2.1.2 2.1-.1 2.1-.4 2.1-.6c.7-.2 1.3-.5 2-.8 2 .7 3.4 2.4 3.9 4.4.1.5.2 1 .1 1.5l-.3 4.5-.3 3c-.1 1-.2 2-.5 3-.6 1.9-.9 3.9-1.9 5.7l-.3.5v-.5c0-1-.2-2-.2-3 0-.5 0-1 .1-1.5s.3-1 .4-1.4l.7-2.9c.2-.9.2-1.9.3-2.9l.3.1c-.5 1-.9 2-1 3.1-.5 1.6-1.1 3.2-1.3 4.8l-.2 2.5v5c0 .9-.1 1.7-.4 2.6-.3.8-.7 1.6-1.3 2.3s-1.2 1.2-2 1.7l-.1-.4c.7-.1 1.3-.3 1.9-.7s1.1-.8 1.6-1.3l.2-.2v.3c.1.5.1 1 .1 1.5s-.1 1-.3 1.5c-.4 1-1.2 1.7-2.1 2.1s-2 .6-3 .6c-1 .1-2 .1-3 .1s-2-.1-3-.1c-.5 0-1-.1-1.5-.2s-1-.3-1.4-.5c-.5-.2-.9-.5-1.3-.8-.4-.4-.7-.8-.9-1.3-.4-.9-.6-2-.2-3l.1-.2.1.1c.5.4 1 .9 1.6 1.2.3.2.6.4.9.5s.6.2 1 .2l-.1.2c-.7-.6-1.5-1.2-2.1-1.9s-1-1.6-1.2-2.6c-.2-.9-.2-1.9-.2-2.8l.1-2.8c0-1.9-.2-3.8-.6-5.6l-.7-2.8-.6-2.1c0-.1-.1-.2-.1-.3s-.2-.1-.3-.1v-.1l1 5.2c.2.9.3 1.7.4 2.6 0 .9 0 1.8-.4 2.6-.8-1.5-1-3.2-1.7-4.8-.1-.4-.1-.8-.2-1.2 0-.1-.1-.5-.1-.9zm0 0c.1.4.1.8.2 1.2s.1.8.2 1.2c.6 1.6.9 3.3 1.7 4.8.4-.8.4-1.7.4-2.6l-.4-2.6-1-5.2c.1 0 .3 0 .4.1s.1.2.1.3l.6 2.1c.3.9.5 1.8.7 2.8.4 1.9.7 3.7.7 5.6l-.1 2.8c0 .9.1 1.9.2 2.8.2.9.5 1.8 1.2 2.5.6.7 1.3 1.3 2.1 1.9l.3.2h-.3c-.3 0-.7-.1-1-.2s-.6-.3-.9-.5c-.6-.4-1.1-.8-1.6-1.2l.2-.1c-.3.9-.2 1.9.2 2.8.2.4.5.8.8 1.2.3.3.8.6 1.2.8s.9.4 1.4.4c.5.1 1 .1 1.5.2 1 .1 2 .1 3 .1l3-.1c1-.1 2-.2 2.8-.6.9-.4 1.6-1.1 2-2 .2-.4.3-.9.3-1.4s0-1-.1-1.4l.3.1c-.5.4-1 .9-1.6 1.3s-1.3.6-2 .7l-.9.1.7-.5c.7-.4 1.3-1 1.9-1.6.5-.6.9-1.4 1.2-2.1.2-.8.3-1.6.3-2.4v-5c0-.9.1-1.7.2-2.5.3-1.7.8-3.3 1.4-4.9.1-1.1.5-2.2 1-3.2l.5-1-.2 1.1c-.1 1-.1 2-.4 2.9l-.7 2.9c-.1.5-.3 1-.4 1.4-.1.5-.1 1-.1 1.4 0 1 .1 2 .2 2.9l-.3-.1c1-1.7 1.3-3.7 1.9-5.7.3-.9.4-1.9.5-2.9l.3-3 .3-4.5c0-.5 0-1-.1-1.5-.4-1.9-1.8-3.7-3.7-4.3h.1l-2 .8-2.1.6c-.7.2-1.4.3-2.1.3-.7.1-1.4.1-2.1.1s-1.4-.1-2.1-.2l-2.1-.4-2-.6-2-.8c-1.2.5-2.4 1.3-3.2 2.5-.8 1.1-1 2.5-1 3.9-.2 2.8.1 5.5.5 8.3zM63 253.8s-.1-.3-.4-.4c-.1 0-.3 0-.5.1s-.2.2-.2.4.1.3.3.4c.2 0 .4.1.5 0 .3-.2.3-.5.3-.5zm0 0v.2c0 .1 0 .3-.2.5-.2.1-.4.2-.7.2-.3-.1-.6-.4-.6-.7 0-.1 0-.3.1-.5s.3-.2.4-.3c.3-.1.5 0 .7.1s.3.3.3.4v.1zm-5.7-15.5c-.1-.1-.2-.1-.3-.1s-.2.1-.3.2h-.6v-.3a.76.76 0 0 1 .2.4l.2.2c.1 0 .2-.1.3-.1.2-.1.4-.2.5-.3zm0 0c-.1.2-.2.3-.3.4s-.2.3-.5.3c-.1 0-.3 0-.3-.1l-.2-.2c-.1-.1-.2-.3-.3-.4l-.1-.2.1-.1c.1-.1.4-.1.5-.1s.1 0 .2.1h.2c.1 0 .2-.1.4 0 .1.1.3.2.3.3zm15.1-15.2c1.7-1.4 3.4-2.8 4.7-4.6.8-1.1 1.1-2.2 1-3.6-.5-5.3-1.4-10.7-1.5-16-.1-4.5.2-9 .6-13.5l.8-8.1c.1-.9-.2-1.1-1-1.1-3.4-.1-6.6-.8-9.1-3.3-.2-.2-.3-.4-.6-.2s-.4.6-.4.9c-.1 1.8-.1 3.7.1 5.5.1 1.3.2 2.7.2 4-.7-2.8-.9-5.6-1.5-8.4-.3-1.7-.7-3.4-1.1-5.1-.1-.3-.2-.7-.3-1-.3-.5-.5-1.3-1.2-1.2-.6 0-.9.7-1.1 1.3-1.1 3.2-1.5 6.4-2 9.7-.3 1.8-.5 3.6-1 5.4-.5-.4-.2-.7-.1-1.1.2-3 .4-6.1.3-9.1 0-.4.1-.8-.3-1s-.6.3-.9.5c-2.2 2.1-5 2.8-7.9 3-1.1.1-1.3.4-1.2 1.4.9 6.9 1.5 13.7 1.5 20.7 0 5.4-.6 10.7-1.5 16-.3 2.1.3 3.7 1.5 5.2 1.1 1.4 2.5 2.4 3.8 3.6-.9.1-1.4-.6-2-1.1-1.5-1.2-2.9-2.6-4-4.3-.5-.9-.8-1.8-.6-2.8.7-4.3 1.2-8.5 1.6-12.9.1-1.2.2-4 .1-4.6-.1-6.4-.6-12.8-1.3-19.1-.8-6.2-.3-12.3.3-18.4 0-.7.1-1.3.4-1.9.2-.5.6-.8 1.1-.7-.5.5-.7 1.2-.7 1.9-.2 2.4-.1 4.8.5 7.1.3 1 .7 1.2 1.7 1 8.1-2.1 16.3-2 24.4-.1.9.2 1.3 0 1.6-.8.8-3 1.2-5.9.2-9 1.2.4.7 1.6 1.2 2.4.1 1.9.3 3.7.4 5.6.7 7.1-.4 14.2-1 21.2-.3 3.9-.6 7.7-.5 11.6 0 1.4.1 2.6.3 5.1.3 3.7.8 7.4 1.4 11.1.4 2.5-1 4.2-2.6 5.8-1.4 1.1-2.5 2.5-4.3 3z"/><g class="B"><path d="M77.5 157.4c1.1 3 .6 6-.2 9-.2.8-.7 1-1.6.8-8.1-1.8-16.3-1.9-24.4.1-1 .3-1.4 0-1.7-1-.7-2.4-.7-4.7-.5-7.1.1-.7.3-1.3.7-1.9 5.6-.7 11.2-.6 16.9-.6 3.1 0 6.2.1 9.3.4.5 0 1 .2 1.5.3z" class="C D E"/><path d="M48.4 159.8c-.6 6.1-1.1 12.3-.3 18.4.8 6.3 1.3 12.7 1.3 19.1 0 .6.3 1.4-.8 1.7-2 .6-2.2.5-2.3-1.6-.1-2.7-.3-5.5-.2-8.2 0-.2-.1-.5 0-.7 1.4-2.1 0-4.1 0-6.2-.1-5.4-.9-10.7-.9-16.1 0-1.4.1-2.8.1-4.3.5-1.9 1.2-2.4 3.1-2.1z"/></g><path d="M48.4 159.8l-.6 9.9.1 4.9.5 4.9.9 9.9.3 7.5c0 .4 0 .8.1 1.2 0 .2-.1.5-.2.7-.2.2-.4.3-.6.4l-1.2.3c-.2 0-.4.1-.7 0s-.5-.3-.6-.5c-.2-.9-.2-1.7-.2-2.5l-.1-5v-2.8c0-.1.1-.3.1-.4.1-.2.2-.4.3-.5.1-.4.3-.7.3-1.1.1-1.6-.8-3.2-.7-4.9l-.6-9.9-.2-5 .2-5 .3-1c.1-.3.3-.7.6-.9s.7-.3 1-.4c.2.1.6.2 1 .2zm0 0c-.7-.1-1.5-.2-2.1.3-.5.5-.7 1.2-.9 1.9l-.1 4.9.3 4.9.7 9.9c-.1 1.6.7 3.2.7 4.9a3.08 3.08 0 0 1-.3 1.3l-.3.6c-.1.1-.1.1-.1.2v2.8l.2 4.9c.1.8 0 1.7.2 2.4.1.2.1.3.3.3h.5l1.2-.3c.4-.1.6-.4.5-.7 0-.4-.1-.8 0-1.2l-.3-7.4-.8-9.9-.5-4.9c-.1-1.7-.1-3.3 0-5 .1-3.3.4-6.6.8-9.9z"/><path d="M81.2 161.6c.6 5.5-.1 11-.4 16.4-.1 1.9-.3 3.8-.4 5.7 0 .9 0 1.8-.5 2.6-.2.3-.3.7 0 .9.8.7.6 1.6.6 2.4l-.1 8.5c0 .6 0 1.3-.9 1.2-.7-.1-1.9.1-1.9-1.2-.1-3.9.2-7.7.5-11.6.6-7.1 1.7-14.1 1-21.2-.2-1.9-.3-3.7-.4-5.6 1.7.1 2 .4 2.5 1.9z" class="B"/><path d="M81.2 161.6c.4 3.3.3 6.7.1 10l-.6 10-.1 2.5c0 .8-.1 1.8-.6 2.5-.1.1-.1.3-.1.4s0 .1.1.1l.2.2c.3.4.5.9.5 1.3v10c0 .2-.1.5-.3.8-.3.3-.6.3-.9.2-.4-.1-.8 0-1.3-.2-.2-.1-.5-.2-.7-.5-.2-.2-.3-.5-.3-.8v-3.8l.3-5 1-9.9a82.2 82.2 0 0 0 .6-9.9c0-1.7-.1-3.3-.2-5l-.3-5v-.1h.1c.6.1 1.2.1 1.7.4.3.2.4.4.5.7a8.11 8.11 0 0 0 .3 1.1zm0 0c-.2-.6-.3-1.2-.8-1.5s-1.1-.3-1.7-.4l.4 5c.1 1.7.3 3.3.3 5 0 3.3-.2 6.7-.5 10l-.9 9.9-.3 5v3.7c0 .4.3.8.7.9s.8.1 1.2.2c.2 0 .4 0 .6-.1.1-.1.2-.3.2-.5 0-.8 0-1.7.1-2.5l.1-5v-2.5c0-.4-.1-.8-.4-1.1-.1-.2-.3-.3-.4-.5 0-.2 0-.4.1-.6.5-.7.5-1.6.6-2.4l.1-2.5.7-10c.1-3.4.2-6.8-.1-10.1zm-10 65.2c-5.6 2.4-11.2 2.5-16.7-.2.1-.1.3-.3.4-.3 1.3-.2 1.5-1 1.3-2.2 1.5.4 2.9 1 4.4 1.3 3.1.6 6-.1 8.9-1.1-.4 1.5.7 2 1.7 2.5zm-8-28.9c-1-.1-2.1 0-3.1-.1-1.4-.2-2.6-.9-3.5-2-.3-.4-.5-.8-.6-1.3-.1-1.4.3-1.7 1.6-1.3a11.74 11.74 0 0 1 2.7 1.5c1.8 1.4 3.8 1.4 5.7-.1.9-.7 2-1.2 3.1-1.6.9-.3 1.3.1 1.3 1 0 .7-.2 1.2-.6 1.8-1.1 1.3-2.6 2-4.3 2.1h-2.3zm7.9 3.9c-5.2-.7-10.4-.7-15.6-.1 5.2-1.9 10.4-1.9 15.6.1z"/><path fill="#777" d="M60.6 202.1c1.7-.3 3.4-.3 5.3-.1-1.1.6-4.1.7-5.3.1z"/><path d="M63 253.8c0 .4-.3.6-.6.6-.4 0-.6-.2-.7-.6 0-.4.2-.5.6-.6.4.1.6.3.7.6zm10.9-10.7c-.7 1.8-.9 3.8-2 5.8-.1-1.8-.4-3.3.1-4.9.4-1.2.6-2.3.9-3.6l.5-3.1-1 3.2c-.9 2.6-1.7 5.1-1.6 7.9v4.2c.1 2.7-.8 5-3.5 6.7 1.7-.2 2.6-1.2 3.6-2 .6 3.1-1.1 5.2-4.3 5.5a33.91 33.91 0 0 1-7.8 0c-.8-.1-1.6-.3-2.4-.7-1.7-.9-2.5-3-1.9-4.7 2.1 1.7 2.4 1.8 3.5 2-2.5-2.1-3.1-2.9-3.4-5.3-.1-1-.1-2-.1-2.9.4-4.3-.6-8.4-1.9-12.5 0-.1-.1-.4-.4-.3.3 1.7.6 3.5 1 5.2.5 2.5.5 4 0 5.2-.8-1.5-1-3.2-1.7-4.8-.1 1.6.4 3 .8 4.5.5 1.5.8 3.1.8 4.7.1 1.8 0 3.5 0 5.3-.1 3 1.3 4.6 4.2 5.2 3.4.6 6.8.6 10.2.1 3.3-.5 4.5-2 4.5-5.4v-1.5c-.1-2.8-.1-5.7.9-8.4.6-1.9.6-3.6 1-5.4zm-16.6-4.8c-.7.8-.9.8-1.4-.1.2-.2.5.1.7 0 .2.1.4-.1.7.1zm10.5 0c-.7.8-.9.8-1.4-.1.2-.2.5.1.7 0 .3.1.5-.1.7.1z"/><path d="M263.7 232.3c0 .4-.1 1.1-.2 1.6-.8 2.7-1.4 5.5-2.8 8.5l-.3-4.8c-.1-.6.1-.9.4-1.3l1.7-7.7c-1 2.2-1.6 4.5-2.9 6.5-.2.4-.3.5-.8.8-1 .6-2.1 1.2-3.6 1.5l3 1.2c.7.3 1.3.8 1.2 1.7l-.3 8.7c-.1 2.5-1.2 4.5-3.3 5.9-.2.1-.6.2-.5.7 1.6-.3 2.7-1.5 3.9-2.5.5 3-.2 5.4-2.4 6.2-5.4 1.9-10.9 2-16.2-.1-2-.8-2.9-3.9-2-6 1.1 1.1 2.1 2.2 3.8 2.3-2.7-1.8-3.8-4.4-3.9-7.5v-4.9c0-4.1 0-4.1 4-5.7-4.3-.8-5.4-4.3-6.6-7.7.1 4.1 2.2 7.9 1.1 12.4-.4-1-.7-1.5-.9-2.2l-1.5-4.8c0-.3-.6-3-.6-3.4-.4-3.2-.6-6.5-.7-9.7-.1-3.5 1.9-6.5 5.3-7.7 1.8 1.1 3.9 1.5 5.9 1.9 5.1 1.1 10.1.4 14.9-1.7 2.3.2 4.6 3.2 5 5.7.1.6.1 1.3.2 2 .1.8.1 1.3 0 2.5l-.9 7.6zm-6.2 1.6c0-.5-.3-.4-.6-.4s-.8-.2-.9.3c-.1.4.3.6.7.7.3-.1.6-.3.8-.6zm-15.2-.5h-1.8c.7 1.2 1 1.2 1.8 0zm11.5 22.8c.4.1.7.1.9-.3l-.1-.2c-.4 0-.7.1-.8.5zm-.8.2c-.1 0-.2-.1-.3 0-.1 0-.2.1 0 .2h.1c0-.1.1-.2.2-.2z" class="B"/><path d="M263.7 232.3l-.2 1.3c0 .4-.2.8-.3 1.3l-.7 2.5c-.5 1.7-1 3.4-1.8 5v.1-.1l-.3-4.8v-.7l.3-.6 1.7-7.7h.1c-1 2.1-1.5 4.5-2.9 6.5-.1.2-.2.4-.4.5s-.3.3-.5.4l-1.1.6c-.8.4-1.6.7-2.4.8v-.1l2.6 1c.4.2.9.3 1.2.7.4.3.5.9.5 1.3l-.3 8.3c0 .9-.2 1.9-.5 2.7-.3.9-.8 1.7-1.4 2.4l-1 1c-.2.1-.4.3-.6.4s-.3.2-.2.5l-.1-.1c.8-.2 1.5-.5 2.1-1l1.8-1.5.2-.1v.2c.2 1.3.2 2.6-.2 3.9-.2.6-.5 1.2-1 1.7s-1.1.8-1.7.9c-2.4.8-5 1.3-7.6 1.3s-5.2-.4-7.6-1.3c-.6-.2-1.3-.4-1.7-.9-.5-.5-.8-1.1-1.1-1.7-.4-1.2-.5-2.6 0-3.9l.1-.3.2.2c.5.5 1.1 1.1 1.7 1.5s1.3.7 2 .8l-.1.4c-1.5-1-2.8-2.5-3.4-4.3-.3-.9-.5-1.8-.6-2.7s0-1.8 0-2.7v-2.7l.1-2.7c0-.5.2-.9.4-1.4.3-.4.7-.7 1.1-.9l2.5-1.1v.4c-.4-.1-.9-.2-1.3-.4l-1.2-.6c-.2-.1-.4-.3-.6-.4s-.3-.3-.5-.5c-.3-.3-.6-.7-.9-1-1.1-1.5-1.6-3.2-2.2-4.9l.3-.1c0 2.1.6 4.1 1 6.2.2 1 .3 2.1.4 3.1 0 .5 0 1.1-.1 1.6l-.3 1.6-.1.4-.2-.4-.7-1.7c-.3-.6-.4-1.2-.6-1.7l-1.1-3.5-.5-2.9c-.2-.9-.2-1.9-.4-2.9l-.5-7.2c0-.5 0-1 .1-1.5.1-1 .4-1.9.9-2.8.9-1.7 2.6-3 4.4-3.6 1.5.9 3.3 1.4 5 1.8s3.5.7 5.3.7 3.6-.1 5.3-.5 3.4-1 5.1-1.7c.8.1 1.6.5 2.3 1.1l.9.9c.3.3.5.7.7 1 .4.7.8 1.5 1 2.3s.2 1.7.3 2.5.1 1.7 0 2.5l-.3 2.5-.4 4.8zm0 0l.9-7.5c.1-.8.1-1.7 0-2.5s-.1-1.7-.3-2.5-.6-1.6-1-2.3l-.7-1-.9-.9c-.6-.5-1.4-.9-2.2-1-1.6.7-3.3 1.3-5.1 1.7-1.7.4-3.5.6-5.3.5-1.8 0-3.6-.3-5.3-.7s-3.5-.8-5.1-1.8h.1c-1.8.6-3.4 1.9-4.3 3.6-.5.8-.7 1.8-.9 2.7-.1.5-.1 1-.1 1.4l.1 1.4.4 5.8.4 2.9.5 2.8 1.1 3.5c.2.6.3 1.2.6 1.7l.7 1.7h-.3l.3-1.5c0-.5.1-1 .1-1.5 0-1-.2-2.1-.4-3.1-.4-2-1-4.1-1-6.2v-1.1l.4 1c.6 1.7 1.2 3.4 2.2 4.8.3.4.5.7.9 1 .2.1.3.3.5.4s.3.3.5.4l1.2.6c.4.2.8.3 1.3.4l.6.1-.6.2c-.8.3-1.7.7-2.4 1.1-.4.2-.7.5-1 .8-.2.3-.3.8-.4 1.2-.1.9-.1 1.8-.1 2.7v5.4c.1.9.2 1.8.5 2.6.6 1.7 1.8 3.1 3.2 4.1l.6.4-.8-.1c-.8-.1-1.6-.4-2.2-.9l-1.7-1.5.3-.1c-.4 1.1-.4 2.5 0 3.6.2.6.5 1.1 1 1.6.4.4 1 .7 1.6.9 2.4.9 4.9 1.3 7.5 1.3 2.5 0 5.1-.5 7.5-1.3.6-.2 1.2-.4 1.6-.9.4-.4.8-1 1-1.6.4-1.2.4-2.5.2-3.7l.2.1-1.8 1.5c-.6.5-1.4.8-2.2 1h-.1v-.5l.3-.3c.2-.1.4-.3.6-.4.4-.3.7-.6 1-.9.6-.7 1.1-1.5 1.4-2.3.3-.9.5-1.8.5-2.7l.3-8.3c0-.4-.1-.9-.4-1.2s-.7-.5-1.2-.7l-2.6-1-.2-.1h.3c.8-.1 1.6-.4 2.4-.8l1.1-.6c.2-.1.4-.2.5-.4a.55.55 0 0 0 .3-.5c1.4-2 1.9-4.3 2.9-6.5l.2-.4-.1.4-1.7 7.7-.3.6c-.1.2-.1.4 0 .7l.3 4.8c.8-1.6 1.3-3.3 1.8-5l.7-2.5c.1-.4.3-.8.3-1.3l-.2-1zm-6.2 1.6v-.2c0-.1-.1-.2-.3-.2s-.4.1-.7.1c-.1 0-.2 0-.2.1v.2c0 .1.1.3.3.4s.4.1.6.1.3-.2.3-.3c-.1-.2 0-.2 0-.2zm0 0s0 .3-.4.5c-.2.1-.4.2-.7.1a.76.76 0 0 1-.4-.2c-.1-.1-.2-.3-.2-.5 0-.1 0-.3.2-.5.2-.1.4-.1.5-.1.3.1.4.1.6.2.1 0 .2 0 .3.1s.1.1.1.2v.2zm-15.2-.5c-.6.1-1.2.2-1.8.2l.2-.3.4.5c.1.2.3.3.3.3.1 0 .3-.1.4-.3l.5-.4zm0 0l-.3.6c-.1.1-.1.2-.2.3s-.2.2-.4.2-.3-.1-.4-.2l-.3-.3c-.2-.2-.3-.4-.4-.6l-.2-.3h.3c.7.1 1.3.1 1.9.3zm11.5 22.8s.2 0 .3-.1c.1 0 .2-.1.2-.1l.1-.1v-.1.1h-.1c-.1 0-.2 0-.3.1l-.2.2zm0 0s0-.2.1-.4c.1-.1.2-.2.4-.3h.4c.1 0 .1 0 .1.1l.1.1v.3s0 .1-.1.1l-.2.2c-.2.1-.3.1-.4.1-.3-.1-.4-.2-.4-.2zm-.8.2s-.1.1-.2.1h-.1c.1 0 .1-.2 0-.2h-.1.1c.2.1.3.1.3.1zm0 0v.3c0 .1-.2.1-.2.1-.1 0-.2 0-.3-.2-.1-.1-.1-.3 0-.3.1-.1.1-.1.2-.1h.1s.1 0 .1.1l.1.1z"/><path d="M266.5 159.1c-.1 1.8.2 3.5-.1 5.3-.3 2.1-.7 2.4-2.7 1.9-9.9-2.2-19.9-2.3-29.7.3-1.3.4-1.9-.1-2.1-1.4-.4-2.2-.3-4.5.1-6.7.2-1 .6-1.3 1.6-1.3 10.4.4 20.7.3 31.1.1.9 0 1.4.4 1.8 1.1v.7zm2.1 24.5l-.1 5.6c0 .8 0 1.5-.9 1.9-1.6.8-2.1.5-2-1.2.2-5.8 1.1-11.6 1.9-17.4.4-2.7 0-5.5-.1-8.2 3.8 0 3.8.1 3.1 3.6-.7 3.7-1.4 7.3-1.6 11.1-.1.4-.3 3.2-.3 4.6z" class="B"/><path d="M268.6 183.6l-.1 4.6v1.2c0 .4 0 .8-.2 1.1-.2.4-.6.6-.9.7-.4.2-.7.3-1.1.3a.55.55 0 0 1-.5-.3c-.1-.2-.2-.4-.2-.6-.1-.4 0-.8 0-1.2l.1-2.3.4-4.6 1.5-11.5c.1-.8.1-1.5 0-2.3l-.2-4.6v-.2h1.6c.5 0 .9 0 1.4.2.2.1.5.2.6.5.1.2.2.5.2.7 0 .5-.1 1-.2 1.4l-1 5.5-.8 5.5-.2 2.8-.4 3.1zm0 0l.1-2.8.2-2.8.7-5.5.9-5.5c.1-.5.1-.9.1-1.4s-.2-.8-.6-.9-.9-.1-1.3-.2h-1.4l.2-.2.3 4.6v2.3c0 .8-.2 1.5-.3 2.3l-1.3 9.1-.5 4.6c-.1.8-.1 1.5-.1 2.3v1.1c0 .4.2.8.6.8s.7-.2 1.1-.3a1.27 1.27 0 0 0 .9-.7c.4-.7.2-1.5.3-2.3l.1-4.5z"/><path d="M230.7 163.6c-.9 6.9.8 13.7 1.4 20.5.1 1.7.3 3.4.4 5.2 0 .5.6 1.6-.5 1.5-1 0-2.1-.3-2.2-1.6-.1-1.1.1-2.1.1-3.2 0-1.8.1-3.6 0-5.5-.2-4.6-1.1-9.2-1.9-13.8-.6-2.9-.6-2.9 2.7-3.1z" class="B"/><path d="M230.7 163.6s0 .2-.1.7c-.1.4-.1 1.1-.1 1.9v2.9c0 1.1.2 2.4.3 3.8l1.2 9.4.5 5.3.1 1.4c0 .2 0 .5.1.7 0 .2.1.4.1.7 0 .1 0 .3-.1.4-.1.2-.2.2-.4.3h-.8c-.5 0-1-.2-1.4-.5s-.7-.9-.7-1.4v-1.4c.1-.9.1-1.8.1-2.7v-5.3c-.2-3.4-.7-6.6-1.1-9.4l-.6-3.7c-.1-.6-.2-1.1-.2-1.6 0-.2 0-.5.1-.7s.3-.4.5-.4c.8-.3 1.4-.2 1.9-.3.3-.1.6-.1.6-.1zm0 0s-.2 0-.7.1c-.4.1-1.1 0-1.8.3a.78.78 0 0 0-.4.4c-.1.2-.1.4-.1.7 0 .5.1 1 .2 1.5l.7 3.7c.5 2.7 1 5.9 1.2 9.4l.1 5.3v2.8c0 .9-.2 1.9.5 2.4.3.2.7.4 1.2.4h.6c.2 0 .2-.1.2-.3s-.1-.4-.1-.6c-.1-.3-.1-.5-.1-.7l-.1-1.4-.4-5.3-1.1-9.4-.2-3.8.1-2.9.2-1.9c-.1-.5 0-.7 0-.7z"/><path d="M238.9 117.2c.2.2.2.4.1.7-.2-.2-.2-.5-.1-.7z" class="G"/><path d="M263.4 234c-.8 2.7-1.4 5.5-2.8 8.5l-.3-4.8c0-.6.2-.8.4-1.3l1.7-7.7c-1 2.2-1.6 4.5-2.9 6.5a1.56 1.56 0 0 1-.8.8c-1 .6-2.1 1.2-3.6 1.5l3 1.2c.7.3 1.3.8 1.2 1.7l-.3 8.7c-.1 2.5-1.2 4.5-3.3 5.9-.2.1-.6.2-.5.7 1.6-.3 2.7-1.5 3.9-2.5.5 3-.2 5.4-2.4 6.2-5.4 1.9-10.9 2-16.2-.1-2-.8-2.9-3.9-2-6 1.1 1.1 2.1 2.2 3.8 2.3-2.7-1.8-3.8-4.4-3.9-7.5v-4.9c0-4.1 0-4.1 4-5.7-4.3-.8-5.4-4.3-6.6-7.7.1 4.1 2.2 7.9 1.1 12.4-.4-1-.7-1.5-.9-2.2l-1.5-4.8c-.2 2.5.6 4.8 1.3 7.1 1.1 3.5 1.2 7.1.9 10.7-.5 5.1 1.5 7.8 6.5 8.4 3.7.4 7.5.3 11.3 0 2.5-.2 4.8-1.1 5.8-3.8.6-1.8.5-3.6.4-5.4-.1-3.2 0-6.4.8-9.6 1.2-3.7 2-7.5 1.9-8.6zm-5.9-.1c-.1.4-.4.6-.8.5a.68.68 0 0 1-.7-.7c.1-.5.5-.3.9-.3.2 0 .6 0 .6.5zm-15.2-.5c-.8 1.2-1 1.3-1.8 0h1.8zm11.5 22.8c.2-.4.4-.5.8-.5.1 0 .2.1.1.2-.2.4-.5.4-.9.3zm-.8.2l-.2.2h-.1c-.1-.1-.1-.2 0-.2 0-.1.1 0 .3 0z"/><path d="M253.2 177.1c.1-2.2-.4-4.4 0-6.7.9.5 1.4 1.4 2 2 2.6 2.6 5.6 4.2 9.4 4 1.1-.1 1 .4 1 1.1l-.9 7.4c-.8 6.5.2 12.9 1.3 19.3.5 3.2.3 3.8-2.8 4.8-5.1 1.7-10.5 2-15.8 1.9-3.6-.1-7.2-.4-10.7-1.4-.6-.2-1.3-.4-1.9-.6-2.8-1-3.3-1.7-2.6-4.5 2.1-8.8 1.9-17.5.5-26.4-.3-1.8-.3-1.7 1.5-1.7 3.5.2 6.4-1.3 8.9-3.7.8-.7 1.4-1.6 2.3-2.6.3 4.1-.2 7.9-.2 11.7.5-1.1.5-2.3.6-3.5.3-3.1.5-6.3 1.2-9.4.3-1.4.8-2.9 2.4-3 1.6 0 2.1 1.6 2.4 2.9.7 2.7.9 5.4 1.1 8.2l.3 4 .3 2.2c.4-.7.3-1.4.2-2.1-.3-1.2-.4-2.5-.5-3.9zm-9.1 11.9c0 .1 0 .1 0 0-.4.1-.8 0-1.2.1-.6.1-1.3.1-1.5.8-.2.8.4 1.3 1.1 1.7.9.5 2 .6 3 .4 2.6-.6 5.1-.5 7.7 0 1 .2 2 .1 3-.4.6-.3 1.1-.9.9-1.6-.1-.7-.8-.7-1.3-.8-1-.1-2-.1-3 .1-2.2.5-4.4.6-6.6 0-.8-.2-1.4-.2-2.1-.3zm12.5 9c-3.1-2-11.8-2.1-15.1-.1 4.9-.5 9.9-.5 15.1.1zm-10.9.5c2.2.4 4.4.5 6.5 0-2.1-.3-4.3-.4-6.5 0z" class="B"/><path d="M244.1 189l2 .2c2.2.6 4.4.5 6.6 0 1-.2 2-.3 3-.1.5.1 1.2.1 1.3.8s-.3 1.3-.9 1.6c-.9.5-1.9.6-3 .4-2.6-.5-5.1-.6-7.7 0-1 .2-2 .1-3-.4-.7-.4-1.2-.8-1.1-1.7.1-.7.9-.7 1.5-.8.5.1.9.1 1.3 0 0 .1 0 .1 0 0zm12.5 9c-5.2-.6-10.2-.7-15.1-.1 3.3-1.9 12-1.9 15.1.1z"/><path d="M245.7 198.5c2.2-.4 4.4-.4 6.5 0-2.1.6-4.3.5-6.5 0z" class="G"/><path d="M264.8 155.3c-12.2.4-19.4.4-31.7.4-1.2 0-1.7 2-1.9 3.1-.3 1.6-.4 3.2-.6 4.8-.9 6.9.8 13.7 1.4 20.5.1 1.7.3 3.4.4 5.2.2 1.5 0 3.3-.1 4.3-.2 4.1-1 8-1.8 12-.3 1.9 0 2.6 1.7 3.4 1.9.9 3.9 1.4 6 1.8.9.2 2.2-.1 2.4 1.3s-.8 1.7-1.7 2.1l-.3.3c1.8 1.1 3.9 1.5 5.9 1.9 5.1 1.1 10.1.4 14.9-1.7-.2-.2-.4-.5-.7-.6-1.1-.3-1.6-1-1.4-2.1.2-1.2 1.2-1.1 2-1.2 2.2-.4 4.4-.9 6.4-1.8 1.8-.8 2.1-1.5 1.8-3.4l-1.6-9.8c-.4-2.5-.4-4.2-.4-5.9.2-5.8 1.1-11.6 1.9-17.4.4-2.7 0-5.5-.1-8.2-.1-1.4-.6-6.3-1-7.6-.1-.3.1 1.2.1 1.9-.1 1.8.2 4.1 0 5.9-.3 2.1-.7 2.4-2.7 1.9-9.9-2.2-19.9-2.3-29.7.3-1.3.4-1.9-.1-2.1-1.4-.4-2.2-.3-4.5.1-6.7.2-1 .6-1.3 1.6-1.3 10.4.4 20.7.3 31.1.1.9 0 1.4.4 1.8 1.1.2-.9-.1-3.3-1.7-3.2zm-30.7 21.1c3.5.2 6.4-1.3 8.9-3.7.8-.7 1.4-1.6 2.3-2.6.3 4.1-.2 7.9-.2 11.7.5-1.1.5-2.3.6-3.5.3-3.1.5-6.3 1.2-9.4.3-1.4.8-2.9 2.4-3 1.6 0 2.1 1.6 2.4 2.9.7 2.7.9 5.4 1.1 8.2l.3 4 .3 2.2c.4-.7.3-1.4.2-2.1l-.3-4.1c.1-2.2-.4-4.4 0-6.7.9.5 1.4 1.4 2 2 2.6 2.6 5.6 4.2 9.4 4 1.1-.1 1 .4 1 1.1l-.9 7.4c-.8 6.5.2 12.9 1.3 19.3.5 3.2.3 3.8-2.8 4.8-5.1 1.7-10.5 2-15.8 1.9-3.6-.1-7.2-.4-10.7-1.4-.6-.2-1.3-.4-1.9-.6-2.8-1-3.3-1.7-2.6-4.5 2.1-8.8 1.9-17.5.5-26.4-.5-1.6-.5-1.5 1.3-1.5z"/><g class="B"><path d="M11.7 233.8c-.4-3.4-.6-6.8-.7-10.2-.1-3.9 1.4-6.7 4.3-8.4.7-.2 1.4 0 2.1.3 5 2.3 10 2.2 15 .2.7-.3 1.3-.4 2-.2 2.6 1.7 3.9 4.3 3.8 7.9-.1 3-.3 5.9-.5 8.9a64.63 64.63 0 0 1-1.8 10.7c-.1.4-.2.8-.4 1.2-.1.3-.3.5-.6.4s-.5-.3-.5-.6c0-1.9-.4-3.8.1-5.7s.8-3.9 1.1-5.2c-.1.7-.4 2.2-.8 3.5-.6 2.2-.7 4.4-.7 6.6 0 2.6.2 5.2-.2 7.8-.4 3.3-1.6 5.8-4.4 6.9-.4.1-.8.4-1.2.5.4-.1.7-.3 1.1-.4 1.1-.5 2-1.3 2.9-2.2.2-.3.4-.5.7-.8.2-.3.5-.5.8-.3s.4.6.3 1c0 .4 0 .8.1 1.2 0 .5-.4.9-.3 1.4 0 .5-.2.9-.4 1.3-1.1.3-1.5 1.4-2 2.3-.1.1-.2.2-.4.3-.4 0-.8.3-1.2.3-.9.4-1.8.6-2.7.5-2.4-.1-4.8.2-7.2-.2-1-.2-2-.4-2.9-1.1-1.9-1.5-2.4-3.7-2.3-6.2.1-.9.5-1.1 1.2-.5.5.5 1 1.2 1.5 1.7.9.8 2 1.4 3.1 1.7.7.2 1.5.4 2.1.4-.5.1-1.2-.2-1.9-.4-3.8-1.2-5.6-3.9-5.7-8.7 0-3.3 0-6.6-.2-9.9 0-.6-.1-1.1-.2-1.7-.6-2.3-.9-4.6-1.3-6.5.5 2.1.9 4.6 1.4 7 .4 1.8.1 3.6-.1 5.4 0 .3-.1.5-.4.6s-.5-.2-.6-.6c-.5-1.5-.9-3.1-1.2-4.7-.3-1.7-.7-3.6-.8-5.5z" class="C D E"/><path d="M34.6 195.8c0-.6-.1-1.2 0-1.8-.1-.5-.1-1 0-1.5 0-.7-.1-1.5 0-2.2-.1-.6 0-1.3.1-1.9-.1.2-.1.1-.3-.2l.8-10.6c.1-1.5.1-1.5-1.1-1.8-1.6-.5-3.3-.9-5-1.2-1.3-.2-1.5.1-1.5 1.6v4.1l-1.1-7.6c-.2-1.1-.3-2.2-.8-3.1-.4-.9-.7-.9-1.1 0-.6 1.3-.7 2.8-1 4.2l-1.1 7.6c-.1.4 0 .8-.4 1.2l.3-4.7v-.9c0-2.4-.2-2.7-2.2-2.2l-4 1.2c-.9.2-1.1.8-.9 1.8.5 3.8.7 7.7.9 11.6.3 5.7 0 11.3-.9 16.9-.4 2.4.1 4 2 5 .6.8 1.5 1.2 2.4 1.3 4.6.9 9.1 1.4 13.4-1.4.1-.2.2-.2.3-.2 2.3-1.2 2.3-1.8 2.1-4l-.9-11.2z"/><path d="M34.9 160.9c.7 2.4.4 4.9-.1 7.3-.2.7-.6.8-1.1.6-3.5-1-7.1-1.2-10.7-1-2.1.1-4.1.5-6.1 1.1-.4.1-.8.3-1-.4-.6-2.5-1-5.1-.1-7.7.7-.4 1.5-.3 2.2-.3 5.3-.2 10.3-.6 15.6-.1.3.1 1 .2 1.3.5z" class="C D E"/></g><path d="M17.4 211.3c2.8 1.1 5.6 1.6 8.5 1.5 2.3-.1 4.5-.4 6.6-1.3.2-.1.8-.3 1-.4-.4.4-1.5.7-1.4 1.7 0 1 .2 1.7 1.1 2 .4.1.8.2 1.2.4-.7 0-4 1.1-6 1.6-3.9.8-7.3.3-10.9-1.3-.6-.3-1.8-.4-2.5-.4.6-.2.8-.4 1.4-.6.2-.1.9-.3 1-.6.1-.9.3-1.8 0-2.6zm3.4 47.2c-2.1-.5-3.9-1.6-5.3-3.6-.6 3.4.8 6.3 3.5 7.2 2.5.8 5 .6 7.5.6 1.2 0 2.4-.2 3.7-.5.5.7.5.8-.2 1.2s-1.4.3-2.1.4c-2.1-.1-4.2-.1-6.3 0-1.2-.1-2.5-.2-3.6-.6-2.3-.8-3.7-2.9-3.8-5.7l.1-2.6c.2-1.5 0-3 0-4.5.1-2.9-.7-5.5-1.3-8.3l-1.2-6.7c-.1-.5 0-1.1 0-1.6l1.2 6c.3 1.6.8 3.1 1.4 4.5.1-2.2.5-4.3 0-6.5-.6-2.6-.9-5.3-1.4-8.3.5.6.5 1 .6 1.5l1.4 6.1c.8 3.3.6 6.6.6 9.9l.2 4.7c.6 3.5 2.3 5.7 5.2 6.6 0 .2-.1.3-.2.2z"/><g class="B"><path d="M34.9 187.6c.3-5.5 1.4-11.1 1.1-17 0-.3-.1-.7.4-.7.2.1.3.1.5.2 1.2.6 1.4 1.1 1.3 2.6 0 .3 0 .7-.1 1-.1 1.4-.3 2.7-.5 4.1-.2.9-.8 1.8-.1 2.7-.2 2.2.4 4.3.3 6.4 0 1.5.2 3 .2 4.5 0 1.6 0 3.3-.4 4.9-.3 1.1-1.1 1.8-1.9 1.8-.5 0-.9-.3-.9-.9 0-.8-.2-1.5-.2-2.3.1-.6 0-1.1 0-1.7.1-.7 0-1.5 0-2.2.1-1.1.3-2.4.3-3.4z" class="C D E"/><path d="M14.7 169.6c-.1.3-.2.8-.2 1.1-.3 4.6.5 9.2.7 13.8.2 4.1.6 8.1.3 12.2-.1.9.1 1.5-.6 1-.6-.3-1.3-1.2-1.5-1.9-.6-2.5-.5-5-.3-7.6a75.08 75.08 0 0 0 .3-6.7c0-.7 0-1.3.3-1.9.1-.2.2-.4.1-.6-.9-1.1-.7-2.7-1.1-4-.1-.8-.2-1.7-.2-2.5-.2-1.5 0-1.9 1.1-2.5.2 0 .9-.3 1.1-.4z"/></g><path d="M14.7 169.6c-.1.5-.2 1.1-.2 1.6v1.6c0 1.1.1 2.2.2 3.3l.7 6.5.5 6.5c.2 2.2.2 4.4.1 6.6 0 .6-.1 1.1-.1 1.6 0 .2 0 .3-.1.6 0 .1-.1.2-.2.3s-.3.2-.5.2c-.3 0-.4-.1-.5-.1-.2-.1-.3-.2-.5-.3s-.3-.2-.4-.3c-.5-.4-.8-.9-1.1-1.6-.1-.4-.1-.6-.2-.9s-.1-.6-.1-.8c-.3-2.3-.2-4.5.1-6.7l.4-6.5c0-.6 0-1.2.4-1.8.1-.2.1-.2.2-.3v.1l-.1-.1c-.1-.1-.2-.2-.2-.4-.1-.1-.1-.3-.2-.4-.4-1.1-.3-2.3-.6-3.2l-.1-1.7c0-.6-.1-1.1-.1-1.7 0-.3.1-.6.2-.9.2-.3.4-.4.7-.6.7-.2 1.2-.4 1.7-.6zm0 0c-.5.3-1 .5-1.5.8-.2.2-.4.4-.5.6s-.1.5-.1.8c0 .5.1 1.1.2 1.7l.2 1.7v-.1c.4 1.1.4 2.2.8 3.1 0 .1.1.2.2.3s.1.2.2.3l.1.1c.1.1.1.2.1.3v.4c-.1.2-.2.3-.2.4-.2.4-.2.9-.2 1.4.1 2.2 0 4.4-.2 6.6-.1 2.2-.3 4.3 0 6.4 0 .3.1.5.1.8 0 .2.1.6.2.7.1.4.5.8.8 1.1l.2.2c.1.1.2.1.2.1h-.1c-.1 0-.2 0-.3.1s-.1.1-.1.2 0-.1 0-.2c0-.6.1-1.1.1-1.6v-6.5l-.2-6.6-.4-6.5v-3.3c0-.5 0-1.1.1-1.6 0-.6.1-1.2.3-1.7z"/><g class="F"><path d="M34.9 254.8c0 .4 0 .7.2 1.1-.4.4-.4 1.4-1.2 1 0-.6.1-1.2-.1-2-1.2 1.6-2.6 2.8-4.3 3.3-.1-.1-.1-.2 0-.3 3.1-1.7 4.1-4.8 4.2-8.5v-5.2c-.2-3.4.4-6.7 1.3-9.9.3-1.2.5-2.5 1.1-3.7.1 1.1-.1 2.1-.3 3.1l-1 5.1c-.3 1.8 0 3.6.3 5.5l.9-3c.7-2.7 1.2-5.5 1.5-8.4 0-.2.1-.5.2-.7 0 2.7-.5 5.4-1 8.1-.3 1.7-.7 3.5-1.2 5.1-.3 1-.4 2-.4 3 0 2.1-.5 4.2-.2 6.4zm-5 8.6c.4-.4.2-.8.2-1.2.3-.1.7-.3 1-.4.4.4.3.9.2 1.4-.1.1-.1.1-.2 0-.3.1-.6.2-.9.2-.1.1-.2 0-.3 0z"/><path d="M21.5 263.8c.9-.4 1.9-.2 2.8-.2 1.2 0 2.3-.2 3.5.2h-6.3zm9.8-.6c-.4-.4-.3-.9-.2-1.4l.2-.2c.7-.6 1.3-1.4 1.9-2.2l.5-1.1c.3-.2.3-.6.5-.9.3-.4.6-.6 1-.3.5.7.2 1.5 0 2.1-.4 1.8-1.4 3.1-2.8 3.9-.3.3-.7.6-1.1.1z"/><path d="M35 257.1c-.5.4-.7 1.1-1.4 1.2.1-.5.1-.9.2-1.4.4-.3.7-.9 1.2-1v1c.1.1.1.1 0 .2z"/></g><path d="M17.1 232.7c.5.5 1 .5 1.5 0 .1.7-.2 1.1-.6 1.2-.5 0-.9-.2-.9-1.2zm13.7.1c.5.4 1 .5 1.5 0 .1.7-.2 1-.6 1.1-.6 0-.9-.2-.9-1.1z"/><path fill="#8d8d8d" d="M33.2 259.3c-.3 1.1-1 1.8-1.9 2.2.5-.7 1-1.7 1.9-2.2z"/><path d="M23.7 250.9c.2-.5.2-1.2.9-.6.4.3.3.7 0 .9-.4.3-.7.3-.9-.3z" class="B"/><path d="M23.7 250.9c.3.2.5.4.8.1.2-.2.1-.5 0-.7.6.1.4.5.3.9s-.5.5-.8.4c-.1-.1-.7-.1-.3-.7z"/><path d="M20.8 258.5c0-.1.1-.1.1-.2.7.2 1.4.5 2.2.5-.8.2-1.6.1-2.3-.3zm8.6-.6v.3c-.6.4-1.2.6-2.1.5l2.1-.8z" class="F"/><path d="M26.9 192.6c-1.2-.5-2.5-.1-3.9-.1-1.3 0-2.4-.7-3.1-2.1-.3-.7-.1-1.2.6-1.3.8-.1 1.6-.1 2.3.4 1.5 1 3.1 1 4.6 0 .7-.5 1.5-.4 2.3-.3.7.1.9.6.5 1.3-.7 1.4-1.8 2-3.3 2.1z"/><path d="M23.1 196.4a8.56 8.56 0 0 1 3.9 0c-1.3.5-2.6.4-3.9 0z" class="H"/><path d="M37.9 190.4c0-1.1-.2-1.5-.2-2.7 0-.2.1-.6 0-.9v-.1c-.1-.8 0-2.7 0-3.1.2-1.8-.7-3.6-.1-5.5.4-1.4.4-2.9.4-4.4l-.6 3.3c-.3 1.3-.7 2.5-.4 4 .3 1.8.2 3.8.3 5.8l.1 2.2c.2 2.3.2 4.5-.3 6.8-.2.8-.6 1.5-1.3 1.8-.5.2-1.3.1-1.3-.8 0-.7 0-1.1-.1-1.7v-3.8c0-.1.1-1.1.1-1.2.1-.8.1-1.1.1-1.9 0-.4.2-1.2.2-1.5l.4-4.8c.4-4 .6-7.6.6-11.7 0-1.3-.1-1.6-.2-2.5l-.6-5.1c-.1-.6-.2-.7-.4-1.7.2 1.3.4 1.8.4 2.2.1 1.6-.1 2.5-.3 4.1-.2 1-.9 1-1.7.9-.3 0-.6-.1-.8-.2-2.6-.6-5.2-.8-7.8-.8-2.4.1-4.8.3-7.1 1-.8.3-1.6.4-1.8-.6-.2-1.4-.5-3.3-.2-4.8.1-.6.2-1.1.3-1.9a9.83 9.83 0 0 0-.5 1.6c-.2 1.6-.4 2.3-.4 3.9 0 1 0 1.7-.2 3.1-.1.3-.3.9-.3 1.8 0 1.9.1 3 .2 5l.6 7.5c.2 2.5.1 4.7.3 7.2.1 1.4.1 3.3 0 4.7 0 .4-.2 3.9-.3 4.5 0 .3-.1.7-.1 1l-.8 6.8c-.1.7 0 1.3.4 1.8.7.8 1.5 1.5 2.5 1.6-1.9-1-2.4-2.6-2-5 .8-5.6 1.2-11.2.9-16.9-.2-3.9-.4-7.7-.9-11.6-.1-1 0-1.6.9-1.8 1.3-.3 2.7-.9 4-1.2 2-.5 2.2-.3 2.2 2.2v.9l-.3 4.7c.3-.4.3-.8.4-1.2.4-2.5.7-5.1 1.1-7.6.2-1.4.3-2.9 1-4.2.4-.9.7-.9 1.1 0 .4 1 .6 2 .8 3.1.4 2.5.7 5 1.1 7.6v-4.1c0-1.5.3-1.8 1.5-1.6 1.7.3 3.3.7 5 1.2 1.2.3 1.2.4 1.1 1.8l-.8 10.6c0 .8-.1 1.4-.1 2.1v3.6c0 4.2.5 8.3.9 12.5.2 2.1 0 3.8-1.8 4.7 1.8-.3 2.9-1.8 2.7-3.9l-.8-7c-.1-.7-.5-2.3.1-2.3.9 0 1 .2 1.6-.6.5-.7.6-1 .7-1.7.1-1.1.3-1.7.3-2.9.2-.6.2-1.4.2-2.3zm-8.5 5.3c-.1-.1-.2-.1-.4-.2-.3-.1-.6-.1-.9-.2-2.7-.6-5.3-.6-7.9.7 2.5-.5 5-.4 7.5-.3.1.1.2.1.3.1.5.1.9.2 1.4.4.2 0 .4 0 .5-.2 0-.4-.2-.4-.5-.3z"/><g stroke="#040303" stroke-width=".142" class="B C"><path d="M63.9 294.4l.6.3c.4.4.5.2.6-.2v-.2c-.3.1-.7.1-1.2.1zm222.4-1c.5.1.9 0 1.1-.8-.4.3-.7.6-1.1.8zm-93.6-1.2c-.4.7-1.5 1.4-2.5 1.8.2.3.4.3 1 .1.5-.1.9 0 1.4.1.6.2 1.3.3 1.4-.9 0-.1.1-.2.1-.3-.5-.3-1-.5-1.4-.8zm96.3-.9v.3c0 .4.1.6.4.2l.1-.1c-.2-.2-.3-.3-.5-.4zm-99.1 1.7c1.1-1.2 1.9-3.1 1.6-4.9.9 1.4 1.9 2.5 3.2 3.4.1-.2.2-.6.5-.5.1 0 .3.1.4.1v1l.6.3c.2-.5.3-1.2.1-1.6-.1-.1-.1-.2-.2-.4-1.7-1-3.6-3.3-4.5-4.8-.4.1-.8.2-1.2.2.3 1.5.2 6.2-4.3 8 .1 0 .2.1.3.1.4.2.6 0 .8-.5.9.1 1.8-.6 2.7-.4zm4.4-2.2zm-143.6 3.5c0 .1.1.1.3-.1-.2 0-.3.1-.3.1zm.7-.2s.1 0 .1.1c.3.1.4-.1.5-.3-.2 0-.4.1-.6.2zm237-11c.3 1.4 1 3 2.1 4.7h.5c.5.2.5.8.5 1.2v1.7c0 .3-.2.9.2 1s.5-.3.6-.7c-.3-.2-.5-.4-.8-.7.4-.6.6-.8 1.1-1.8l-2.4-5.1c-.6 0-1.3 0-1.8-.3zm2.1 2.4c0 .1 0 .1 0 0z"/><path d="M319.9 261.6c-.1-.5-.4-.9-.7-1.2-.5-.4-.9-.4-1.3.2-.4.4-.7.5-1.2.2-.5-.4-1.1-.5-1.8-.2-1.3 0-2.5-.1-3.8.3-.1 0-.1 0-.2-.1-1.1-.2-2.1-.2-3.2-.1h-.5c-.3.4-.6.5-1 .3-.1-.1-.2-.3-.3-.4 0-.1 0-.1-.1-.2h-5.3c-.5-.3-.9-.1-1.3.3-.5-.1-1-.1-1.5 0-1.1 0-2.2.1-3.3.5-.3 0-.4-.4-.7-.4-1.2 0-2.3-.2-3.5.1l-.1-.1c-.5-.4-.9-.4-1.3.2-.4.4-.7.5-1.2.2-.5-.4-1.1-.5-1.8-.2-1.3 0-2.5-.1-3.8.3-.1 0-.1 0-.2-.1-1.1-.2-2.1-.2-3.2-.1-.2 0-.3 0-.5.1-.3.4-.6.5-1 .3-.1-.1-.2-.3-.3-.4 0-.1 0-.1-.1-.2h-5.3c-.3-.2-.5-.2-.7-.1-.1 0-.2.1-.3.2l-.2.2c-.5-.1-1-.1-1.5 0-.4-.2-.9-.2-1.4 0l-2.5.1h-.1c-1.1 0-2.2-.1-3.3 0-.4 0-.9 0-1.3.1-.2 0-.3 0-.5.1-.3.4-.6.5-1 .3-.1-.1-.2-.3-.3-.4 0-.1 0-.1-.1-.2h-5.3c-.5-.3-.9-.1-1.3.3-.5-.1-1-.1-1.5 0h-.6v-.1c-.5-.4-.9-.4-1.3.2-.4.1-.7.1-1.1.2 0 0-.1 0-.1-.1-.5-.4-1.1-.5-1.7-.3-.9 0-1.9-.1-2.8.1h-.1c-.2 0-.4.1-.6.1-.1 0-.3-.1-.4 0h-.1c-1.1-.2-2.1-.2-3.2-.1h-.5c-.3.4-.6.5-1 .3-.1-.1-.2-.3-.3-.4 0-.1 0-.1-.1-.2h-5.3c-.5-.3-.9-.1-1.3.3-.5-.1-1-.1-1.5 0-.7 0-1.5.1-2.2.2l-.2-.2c-.5-.4-.9-.4-1.3.2-.1-.1-.2-.1-.3-.1-.5 0-.9 0-1.4-.1-.3-.1-.7-.1-1.1 0-.3 0-.6 0-.9.1-1 0-2.1 0-3.1.3-.1 0-.1 0-.2-.1-1.1-.2-2.1-.2-3.2-.1h-.5c-.3.4-.6.5-1 .3-.1-.1-.2-.3-.3-.4 0-.1 0-.1-.1-.2H207c-.5-.3-.9-.1-1.3.3-.5-.1-1-.1-1.5 0-1.1 0-2.2.1-3.3.5-.3 0-.4-.4-.7-.4-1.2 0-2.3-.2-3.5.1l-.1-.1c-.5-.4-.9-.4-1.3.2-.4.4-.7.5-1.2.2-.5-.4-1.1-.5-1.8-.2-1.3 0-2.5-.1-3.8.3-.1 0-.1 0-.2-.1-1.1-.2-2.1-.2-3.2-.1-.2 0-.3 0-.5.1-.3.4-.6.5-1 .3-.1-.1-.2-.3-.3-.4 0-.1 0-.1-.1-.2h-5.3c-.5-.3-.9-.1-1.3.3-.5-.1-1-.1-1.5 0h-.2c-.4-.3-.9-.4-1.2.1-.4 0-.8.1-1.2.2-.5-.4-1.1-.5-1.7-.2-1.1 0-2.1-.1-3.2.1h-.1c-.1 0-.1.1-.2.1h-.1c-.2 0-.5-.1-.7 0-1-.2-1.9-.1-2.9-.1-.2 0-.3 0-.5.1-.3.4-.6.5-1 .3-.1-.1-.2-.3-.3-.4 0-.1 0-.1-.1-.2h-5.3c-.5-.3-.9-.1-1.3.3-.5-.1-1-.1-1.5 0h-.6v-.1c-.5-.4-.9-.4-1.3.2-.4.1-.7.1-1.1.2 0 0-.1 0-.1-.1-.5-.4-1.1-.5-1.7-.3-.9 0-1.9-.1-2.8.1h-.1c-.2 0-.4.1-.6.1-.1 0-.3-.1-.4 0h-.1c-1.1-.2-2.1-.2-3.2-.1-.2 0-.3 0-.5.1-.3.4-.6.5-1 .3-.1-.1-.2-.3-.3-.4 0-.1 0-.1-.1-.2h-5.3c-.5-.3-.9-.1-1.3.3-.5-.1-1-.1-1.5 0-1.1 0-2.2.1-3.3.5-.3 0-.4-.4-.7-.4-1.2 0-2.3-.2-3.5.1l-.1-.1c-.5-.4-.9-.4-1.3.2-.4.4-.7.5-1.2.2-.5-.4-1.1-.5-1.8-.2-1.3 0-2.5-.1-3.8.3-.1 0-.1 0-.2-.1-1.1-.2-2.1-.2-3.2-.1h-.5c-.3.4-.6.5-1 .3-.1-.1-.2-.3-.3-.4 0-.1 0-.1-.1-.2h-5.3c-.4-.3-.8-.1-1.2.2-.4-.3-.8-.4-1.1 0-.1 0-.3 0-.4.1-.4 0-.8 0-1.2.1a1.95 1.95 0 0 0-1.5 0h-1.7c-1.1 0-2.1-.1-3.2.1-.8-.1-1.5 0-2.3 0-.2 0-.3 0-.5.1-.3.4-.6.5-1 .3-.1-.1-.2-.3-.3-.4 0-.1 0-.1-.1-.2h-5.3c-.5-.3-.9-.1-1.3.3-.5-.1-1-.1-1.5 0-1.1 0-2.2.1-3.3.5a.78.78 0 0 0-.4-.4c-.4-.3-.8-.4-1.2 0H76c-.4-.1-.8-.1-1.2.1-1.3 0-2.5-.1-3.8.3-.1 0-.1 0-.2-.1-1.1-.2-2.1-.2-3.2-.1-.2 0-.3 0-.5.1-.3.4-.6.5-1 .3-.1-.1-.2-.3-.3-.4 0-.1 0-.1-.1-.2h-5.3c-.5-.3-.9-.1-1.3.3-.5-.1-1-.1-1.5 0-1.1 0-2.2.1-3.3.5-.3 0-.4-.4-.7-.4-.6 0-1.3-.1-1.9-.1-.4-.3-.8-.4-1.1 0-.2 0-.4 0-.6.1h-.1c-.2.2-.5.1-.7.1-.5-.3-1.1-.3-1.6-.1-1.3 0-2.5-.1-3.8.3-.1 0-.1 0-.2-.1-1.1-.2-2.1-.2-3.2-.1h-.5c-.3.4-.6.5-1 .3-.1-.1-.2-.3-.3-.4 0-.1 0-.1-.1-.2h-5.3c-.5-.3-.9-.1-1.3.3-.3-.1-.6-.1-.9-.1-.4-.3-.8-.3-1.2.1-.5 0-1 .1-1.4.1-.5-.3-1-.3-1.6-.1H26c-1.1 0-2.2-.1-3.3.1h-.1l-.1.1c-1-.2-1.9-.2-2.9-.1-.2 0-.3 0-.5.1-.3.4-.6.5-1 .3-.1-.1-.2-.3-.3-.4 0-.1 0-.1-.1-.2h-5.3c-.5-.3-.9-.1-1.3.3-.5-.1-1-.1-1.5 0-1.1 0-2.2.1-3.3.5-.3 0-.4-.4-.7-.4-1.2 0-2.4-.2-3.6.1h-.1c-.3.3-.7 0-1 .1H.8c0 .1-.3.2-.3.3-.1.3-.2.4-.2.8l-.1 3.1v.2c0 .9-.3 1.7 0 2.6.1 1.2.4 2.5.3 3.7s.2 2.3.3 3.4v.1c-.2.5-.1 1-.1 1.5.1 1.4-.3 2.8.2 4.1-.2.4-.2.8-.1 1.2v.4l-.3.6c0 .2 0 .4.1.6.1.3.1.7 0 1 .1.8 0 1 0 1.7 0 .4 0 1 .1 1.4s1.6 0 2.2.1c.5.2.5.8.5 1.2v1.7c0 .3-.2.9.2 1s.6-.4.7-.8c.2-.8.8-1.1 1.3-.8.3.3.6.7.9 1.1 0 .2 0 .3.1.4.1.2.3.1.5.1 1 .1 2-.1 3 .2.3.3.6.2.9.2.5-.2 1.1-.1 1.6.1.7.4 1.3 0 1.9-.1.7-.1 1.6-.4 2.2.2.4.4.5.2.6-.2.2-.9.2-1.8.2-2.7.3-.4.6-.3 1-.2l-.1 2.5c-.2.2-.4.4-.2.8.1.3.4.3.6.2.7-.3 1.4-.2 2.1.1.4.2.6 0 .8-.5.9 0 1.8-.7 2.8-.5.2 1.2.4 1.4 1.2 1.1.5-.1.9 0 1.4.1.6.2 1.3.3 1.4-.9.1-.2.1-.3.2-.5h1.5c0 .1.1.1.2 0 .2 0 .5.1.7.1.3.3.6.2.9.2.5-.2 1.1-.1 1.6.1.7.4 1.3 0 1.9-.1.7-.1 1.6-.4 2.2.2.4.4.5.2.6-.2.1-.3.1-.5.1-.8-1.4-.4-2.8-1.1-4.3-2.3.6.1 1.7 0 2.4-.2.5.5 1.1 1 1.9 1.5v-1c.3-.4.6-.3 1-.2 0 .5 0 1.1-.1 1.6l2.4 1c-.7 0-1.5-.1-2.4-.3v.1c-.2.2-.4.4-.2.8.1.3.4.3.6.2.7-.3 1.4-.2 2.1.1.4.2.6 0 .8-.5.9 0 1.8-.7 2.8-.5.2 1.2.4 1.4 1.2 1.1.5-.1.9 0 1.4.1.6.2 1.3.3 1.4-.9.1-.3.2-.7.4-1 .1-.2.3-.5.4-.7s.2-.7.5-.6c.1 0 .3.1.4.1v1.3c1.5-1.3 2.7-3.5 2.3-5.7 1.9 3 4.5 4.7 9.6 6.4-4-.1-6.5-.9-8.4-2.3-.1.2-.3.4-.5.6.3.3.5.6.7.9 0 .2 0 .3.1.4.1.2.3.1.5.1 1 .1 2-.1 3 .2.3.3.6.2.9.2.5-.2 1.1-.1 1.6.1.7.4 1.3 0 1.9-.1.5-.1 1-.2 1.5-.1l1.5-.6c.1-.7.1-1.3.1-2 .3-.4.6-.3 1-.2 0 .5 0 1-.1 1.6.9-.6 1.5-1.3 1.7-1.7.5.4 1.1.7 2.3.6-.8.7-2 1.7-4.1 2.1-.2.2-.2.4-.1.7s.4.3.6.2c.7-.3 1.4-.2 2.1.1.4.2.6 0 .8-.5.9 0 1.8-.7 2.8-.5.2 1.2.4 1.4 1.2 1.1.5-.1.9 0 1.4.1.6.2 1.3.3 1.4-.9v-.1c-1-.2-1.9-.8-2.6-1.5-1 .8-2.3 1.4-4.2 1.5 1.5-.7 2.6-1.5 3.4-2.6-.4-.5-.7-1.1-.8-1.4-.6.3-1.5.4-2 .4-5.2 0-5.1-8 .1-8 .4 0 .7 0 1 .1 1.6-1.1 4.3-2.1 5.7-2.3a14.19 14.19 0 0 0-4.2 3.3c.4.5.7 1.1.7 1.8 0 1.7-1.9 2.7-3.1 1.6 1.7-.9 1.8-2.8-.1-2.8-3 0-2.9 4.9.2 4.9 1.1 0 2-.3 2.7-.8.8 2.7 1.7 4.3 3.4 5.5 0-.1 0-.1.1-.2 0 0 .1 0 .1.1.4.1.6-.4.7-.8s.3-.7.6-.8c0 .5-.1 1 0 1.4 0 .4.1.6.4.2l.2-.2c.2-.4.3-.9.2-1.3.3.3.5.7.8 1 0 .2 0 .3.1.4.1.2.3.1.5.1 1 .1 2-.1 3 .2.3.3.6.2.9.2.1 0 .2 0 .2-.1 2.4-.9 4.5-2.5 6.1-4.2-.3-.3-.6-.5-.9-.8-.9.7-1.9 1.2-3.3 1.7-1.5-3.7-1.4-7.7-.8-10.2 0 4.8 1.2 7.4 1.9 8.3.4-.2.9-.4 1.2-.8-4.2-5.7-.6-14.4 3.8-19-2.4 3.6-6.1 11.9-2.4 17.6 1.2-2.3 1.8-4.6.8-6.4-.3.8-.6 1.9-.7 3.3-.5-1.2-.6-3.2-.2-4.5l.5-1.9c3.6 1.9 3.8 7.2.4 10.7a9.21 9.21 0 0 0 2.6 2.1c-.6.5-1.2 1.1-2 1.7 0 .7-.1 1.4-.1 2.1-.2.2-.4.4-.2.8.1.3.4.3.6.2.7-.3 1.4-.2 2.1.1.4.2.6 0 .8-.5.2 0 .5-.1.7-.1-1.6-.2-3.2-.6-3.8-1 .4-.1 1.2-.7 1.9-1.1.6.6 1.2 1.4 2.5 2 .5-.2 1.1-.4 1.6-.3.2 1.2.4 1.4 1.2 1.1.5-.1.9 0 1.4.1.6.2 1.3.3 1.4-.9.1-.2.1-.3.2-.5.5 0 1 0 1.5.2.3.3.6.2.9.2.5-.2 1.1-.1 1.6.1.7.4 1.3 0 1.9-.1.7-.1 1.6-.4 2.2.2.4.4.5.2.6-.2s.2-.8.2-1.2c-2.1-1-4-2.5-4.9-4 .7.6 1.5 1.1 2.2 1.1-.9-1.6-1.1-3.9-1.1-4.6-.5.5-1.4 1.3-1.5 2.2.2-2.3 1.1-3.4 2.1-4.5.5 3.9 1.6 6.6 3.4 8.6v-.4c.3-.4.6-.3 1-.2 0 .5 0 1-.1 1.5.3.3.7.6 1.1.9-.4-.1-.7-.2-1.1-.3v.4c-.2.2-.4.4-.2.8.1.3.4.3.6.2.7-.3 1.4-.2 2.1.1.4.2.6 0 .8-.5.6 0 1.2-.3 1.9-.5-6.8-1-8.3-10.1-7.8-13.3-1.4.9-2.9 2.2-4.6 4.5.2-.7.6-1.5 1.1-2.3-.2-3.1.5-5.5.6-6.3.2 1.8.3 3.2.6 4.5 1.1-1.6 2.5-3.1 3.5-3.7 0 6.4 1 14.3 7.4 16.6h.1c.1 0 .2.1.3.1h-.3c.2.9.3 1.2.9 1.1 1.2-.3 2.3-.7 3.2-1.2.1-.2.2-.5.3-.7s.3-.5.4-.7.2-.7.5-.6c.1 0 .3.1.4.1v1c.3-.2.5-.4.8-.6 0-.3 0-.6-.1-.8s-.2-.4-.2-.5c-2.4 1.9-5.5 2.5-8.2.9 2.6 1.1 11.9-1.2 11.7-12.6.6 2.7.4 5.1-.4 7.3.9.2 1.8.1 3.1-.4-.5 1.4-1.7 4.2-4.3 6.3 0 .3-.2.8.2.9s.6-.4.7-.8c.2-.8.8-1.1 1.3-.8.3.3.6.7.9 1.1 0 .2 0 .3.1.4.1.2.3.1.5.1 1 .1 2-.1 3 .2.3.3.6.2.9.2.5-.2 1.1-.1 1.6.1.7.4 1.3 0 1.9-.1.7-.1 1.6-.4 2.2.2.4.4.5.2.6-.2.2-.9.2-1.8.2-2.7.3-.4.6-.3 1-.2 0 .8-.1 1.6-.1 2.5-.2.2-.4.4-.2.8.1.3.4.3.6.2.7-.3 1.4-.2 2.1.1.4.2.6 0 .8-.5.9 0 1.8-.7 2.8-.5.2 1.2.4 1.4 1.2 1.1.5-.1.9 0 1.4.1.6.2 1.3.3 1.4-.9.1-.2.2-.5.2-.7 0 0 0 .1.1.1.1.2.3.1.5.1h.8c0 .1.1.1.2 0 .7 0 1.3 0 1.9.2.3.3.6.2.9.2.5-.2 1.1-.1 1.6.1.7.4 1.3 0 1.9-.1.7-.1 1.6-.4 2.2.2.4.4.5.2.6-.2.2-.9.2-1.8.2-2.7.3-.4.6-.3 1-.2 0 .8-.1 1.6-.1 2.5-.2.2-.4.4-.2.8.1.3.4.3.6.2s.3-.1.5-.1c2.2-1.1 4.5-3.5 4.9-5.9.3 1.5 1.1 2.4 2.3 3.2-2-.9-3.1.9-2.5 1.9h.5c0 .2.1.3.1.4a.9.9 0 0 0 .5.1c1 0 1.5-.7 1.4-1.1.5.4 1.3.7 2 1v-.1c.1-.2.1-.3.2-.5h1.5c0 .1.1.2.2 0h.1c-.6-.3-1.3-.8-1.9-1.3.6.1 1.7 0 2.4-.2.5.6 1.3 1.2 2.3 1.7.4 0 .8 0 1.1.2.7.4 1.3 0 1.9-.1.7-.1 1.6-.4 2.2.2.4.4.5.2.6-.2.2-.9.2-1.8.2-2.7.3-.4.6-.3 1-.2 0 .8-.1 1.6-.1 2.5-.2.2-.4.4-.2.8.1.3.4.3.6.2.4-.2.8-.2 1.2-.1 2.2-1.3 2.8-3.4 2.8-6.2 0-4.6-3.8-7.2-9.3-4.8 2.2-1.7 6.5-3.3 9.5-2.9-1.6.8-1.5 4.1 1.3 4.1s3.4-5-1.4-5c.6-1.3 1.9-3.1 4.2-4.6-1.1 1.2-1.7 2.6-1.9 3.6 1.8.2 3.3 2.1 3.3 4.2 0 .8-.2 1.5-.7 2.3.5 1.6 1.3 3.8 2.8 5.5 0-.3.1-.6.4-1l.1-.1c.4 0 .8-.1 1 0 .5.2.5.8.5 1.2v1.7c0 .3-.2.9.2 1s.6-.4.7-.8c.2-.8.8-1.1 1.3-.8.3.3.6.7.9 1.1 0 .2 0 .3.1.4.1.2.3.1.5.1 1 .1 2-.1 3 .2l.2.2c1-.8 1.7-1.9 2.5-3.4-.3 1-.2 1.6-.6 2.6 4-2.3 4-7.4 3.8-9 .5.2 1.5 0 2.2-.4.2 3.8-1.2 6.8-3.4 8.8.1.3.4.8.7 1.3.4 0 .9 0 1.3.4s.5.2.6-.2c0-.1.1-.2.1-.3-.4-.3-.7-.7-1-1.1.5-.3.8-.8 1.1-1.5 0 .1.1.1.1.2.3-.4.6-.3 1-.2 0 .6 0 1.2-.1 1.8.3.5.7 1 1.2 1.4.4 0 .8.1 1.2.3s.6 0 .8-.5c.9 0 1.8-.7 2.8-.5.2 1.2.4 1.4 1.2 1.1.5-.1.9 0 1.4.1.4.1.8.2 1.1-.1.9-2.3-.8-5.4-4.1-8.3 2.3 1 4.5 3.1 5.8 4.3-.9 0-1.3 1.2-1 2.1.1-.2.3-.5.4-.7.1-.1.1-.3.2-.4l.1.1c.2.2.4.5.6.7v.6c0 .4.1.6.4.2.1.2.3.1.5.1h.5c.8-.8.5-2.7-.4-4.6 1 2.2 2.4 3.7 4.2 4.8a1.64 1.64 0 0 1 1.2.2c.7.4 1.3 0 1.9-.1.7-.1 1.6-.4 2.2.2.4.4.5.2.6-.2.2-.9.2-1.8.2-2.7.3-.4.6-.3 1-.2 0 .8-.1 1.6-.1 2.5-.2.2-.4.4-.2.8.1.3.3.3.5.2 1.8-1.4 3.3-3.7 2.8-6.2 1.1 2.3 3.9 4.7 6.8 6.2.1-.2.2-.4.2-.7.1-.2.2-.5.2-.7 0 0 0 .1.1.1.1.2.3.1.5.1h.8c0 .1.1.1.2 0 .7 0 1.3 0 1.9.2.3.3.6.2.9.2.5-.2 1.1-.1 1.6.1.7.4 1.3 0 1.9-.1.7-.1 1.6-.4 2.2.2.4.4.5.2.6-.2.2-.9.2-1.8.2-2.7.3-.4.6-.3 1-.2 0 .8-.1 1.6-.1 2.5-.2.2-.4.4-.2.8.1.3.4.3.6.2.7-.3 1.4-.2 2.1.1.4.2.6 0 .8-.5.9 0 1.8-.7 2.8-.5.2 1.2.4 1.4 1.2 1.1.3-.1.6-.1.8 0-1.1-1.3-1.7-2.8-1.8-3.9-1.5.3-3.4-.9-3.4-3.3-.3-3.1-.9-5.5-2.4-7.3 1.7 1 3.1 4 3.7 5.2.2-.1.4-.2.5-.2 0-1.4-.5-2.6-.8-3.4 1.2 1.5 2.1 3.1 2.3 4.6-.6-.2-1.7 0-1.7 1.2 0 1 .5 1.6 1.5 1.6s1.3-1 1.3-1.8c0-5.3-3.4-8.3-7.7-8.9 1.4-2.2 2.3-6.3 2.6-8.2.3 2.5 0 5.7-.3 7.2 2.6.8 6.9 4.4 6.9 9.1 0 2.5-.8 3.3-.8 5.1 0 .8 0 1.7.9 3.2.6.2 1.2.3 1.4-.9 0-.1.1-.2.1-.3.1 0 .2 0 .3.1.3.3.6.2.9.2.5-.2 1.1-.1 1.6.1.7.4 1.3 0 1.9-.1.7-.1 1.6-.4 2.2.2.4.4.5.2.6-.2.2-.9.2-1.8.2-2.7.3-.4.6-.3 1-.2 0 .8-.1 1.6-.1 2.5-.2.2-.4.4-.2.8.1.3.4.3.6.2.7-.3 1.4-.2 2.1.1.4.2.6 0 .8-.5.9 0 1.8-.7 2.8-.5.2 1.2.4 1.4 1.2 1.1.1 0 .3-.1.4-.1 1.6-1.4 2.9-3.6 2.4-5.9.5 1 1.3 2.1 2.3 3.1 0-.2-.1-.3-.1-.5-.4-.8-.3-1.3.2-1.9l.1-.1c-2.1-1.7-3.9-4.1-4.1-8 1.8 2.8 6.2 2.7 6.2.1 0-2-2.8-2.1-3.5-.2-2.3-2-3.1-6.1-2.7-8 .4 2.4 1.5 4.5 2.8 5.6.8-.4 1.6-.5 2.3-.4-1.7-1.9-4.1-3.2-4.1-6.1 0-1.8.8-3.7 3.1-5.4-1-.7-1.8-1.4-3.3-1.9 2.1.1 3.6.8 4.5 1.1 1.2-.6 3.2-1.1 5.4-1.1-5 1.1-8 3.7-8 7.3 0 .9.8 2.2 1.7 2.2 2.6 0 1.8-3.4-.2-2.1-.3-1.9 1.4-4.2 2.9-4.8-.6 1.4-1.1 2.2-1.1 3.1 2.2.4 2.9 5.1-1.1 5.4 1.5 1.5 2.9 3.4 2.9 5.4 0 1.4-.9 2.5-2 3.1.6 1.8 1.3 3.6 2.5 5.6-.2.5-.5 1-.8 1.5l.1.1c.3.3.6.7.9 1.1 0 .2 0 .3.1.4.1.2.3.1.5.1 1 .1 2-.1 3 .2.3.3.6.2.9.2.5-.2 1.1-.1 1.6.1.7.4 1.3 0 1.9-.1.7-.1 1.6-.4 2.2.2.4.4.5.2.6-.2.2-.9.2-1.8.2-2.7.3-.4.6-.3 1-.2 0 .8-.1 1.6-.1 2.5-.2.2-.4.4-.2.8.1.3.4.3.6.2.7-.3 1.4-.2 2.1.1.4.2.6 0 .8-.5.9 0 1.8-.7 2.8-.5.2 1.2.4 1.4 1.2 1.1.5-.1.9 0 1.4.1.6.2 1.3.3 1.4-.9.1-.3.2-.7.4-1 .1-.2.3-.5.4-.7s.2-.7.5-.6c.1 0 .3.1.4.1 0 .5-.1 1 0 1.4 0 .4.1.6.4.2l.2-.2c.3-.6.4-1.2.1-1.7-.4-.8-.3-1.3.2-1.9.1-.2.2-.4.2-.7-.1-.1-.1-.2-.2-.3.4-.9.1-1.9.1-2.8.1-2.2.1-4.5.2-6.7 0-.2-.1-.4-.1-.6s0-.3.1-.5c0-.1-.1-.1-.1-.2-.1-.3 0-.6 0-.9.1-.8.4-1.6.2-2.4v-1c.2-.3.1-.7.2-1.1.1-.9 0-1.8.1-2.6l.2-.2h.1c.1-.1.1-.9.1-1.3v-.5c-2.5-2.8-2.3-4.3-2.5-5.8zM1 268.9zm1.3 19.5c0-.1 0-.1 0 0 0-.1 0-.1 0 0zm1.1-9.9h.1c0 .1-.1.1-.1 0zm1.7-10.7zm.7 12.2zm1 4.4zm0-16.9zm.9 5.9zm.1-.9zm.3-8.1zm1.9 8.2l-.1-.1h.1v.1zm0 .2c0-.1 0-.1 0 0 0-.1 0-.1 0 0 0-.1 0 0 0 0zm0-1.6zm.1-.1s0-.1 0 0c0-.1 0-.1 0 0zm.5-7.1c0 .1 0 .1 0 0 0 .1 0 .1 0 0 0 .1 0 .1 0 0zm0 16.4c0-.1 0-.1 0 0 0-.1 0-.1 0 0zm.1-9.7zm.3-5.8zm1 25.4s0-.1 0 0c0-.1 0 0 0 0zm.4-4.3c0-.1 0-.1 0 0 0-.1 0 0 0 0zm-.1-22.8l.2.2c-.1 0-.1-.1-.2-.2zm.8 14.8zm.2 8.2zm.8-17.6v-.1.1zm2.1 4.9zm1.4 5.2zm0 0zm.1 8.2zm.7.5zm0-1.5zm.2-5.1zm.9 5zm1.2-7.4l-.1-.1h.1v.1zm.3-6.6zm37.1-1.2zm0 .1c0 .1 0 .1 0 0 0 .1 0 .1 0 0 0 .1 0 0 0 0zm0 1.6zm-.1-.3v.1l-.1-.1h.1zm-1.8-8.1c-.1 0-.1 0 0 0-.1 0-.1 0 0 0zm-.4 8.1zm0 1zm-1-6zm-1.7.3s0 .1 0 0c0 .1 0 .1 0 0 0 .1 0 .1 0 0zm-2.8 5.5c-.3.1-1.1.6-1.5 1-1-2.3-1.8-5.5-1.8-7.7.6 2.6 1.9 4.9 3.3 6.7zm-3.9-9.3c-.7 4.8.4 9.6 2.3 12.3 1.2-1.1 1.9-2 4.1-2.7-2.2 1.6-3.5 3.7-4.9 5.9-.5-3.1-4.1-5.1-2.7-13.8-2.2.9-4.8 2.1-6.6 2.1 1.5-.3 5.8-2.1 7.8-3.8zm-1.6 7.5zm-.4 1.3c-.1 0-.1-.1 0 0-.1-.1-.1-.1 0 0-.1-.1 0-.1 0 0zm-9.5-4v.1h-.1l.1-.1zm3.3.5c2.7-.3 4.2-.8 6-2.1-.5 1.8-1.4 3.4-2.4 4.9-2.8 4.1-6.9 7.3-8.6 10.4.9-4 6.6-8.6 7.6-12.3-.4.2-1.1.3-1.3.3-.8 2.3-4.2 6.4-5.8 7.5 2.8-3.7 4.7-7.1 4.5-8.7zm4.2 2.2l-.1-.1h.1v.1zm-8.5 6.8zm-.6-14.6c-.1 0-.1-.1-.2-.2.1.1.1.2.2.2zm-1.5 1.5zm-.4 15.4c0 .1 0 .1 0 0zm5 14.4H23.3c2.6-.8 5.6-3.5 6.1-6.4.3 1.5 1.1 2.4 2.3 3.2-2.7-1.2-3.7 2.4-1.5 2.4 1 0 1.5-.7 1.4-1.1 1.2.8 3.3 1.6 4.8 1.9zm2.8-7.3zm0-1.5zm-.9-1.9c1.2 3.1-.7 6.5-4.2 6.5-.5 0-1-.1-1.4-.2-3.7-1-2.9-6.4.6-6.4 1.2 0 2.1.7 2.1 1.7s-1 1.7-2 1.3c1.1-.4.8-1.5-.1-1.5-1.9 0-2.3 3.5.8 3.5 3.6 0 3.6-5.3.3-6.3 1.8-3.4 4.4-4.9 7.7-8.8-2.8 5-5.1 6.9-5.5 8.2.3.2.6.4.8.7 2-2.1 5.5-3.6 8.1-3.6-4.6 1.2-6.3 3.1-7.2 4.9zm-4.2 2.2zm-.9-.2c0-.1 0-.1 0 0 0-.1 0 0 0 0zm8.2-7.8v.2-.2zm-2 2.6zm.9 5zm2.2-2.4zm.7 6.1c.1.1 0 0 0 0zm1.3-6.9zm.8 11.8zm6-2c-.3-.7-.3-1.1-.1-1.6.1.2.1.5.1.8v.8zm1.6-6.5c-.4.1-.8.2-1.2.2.4 1.7.1 7.5-6.3 8.6 3.4-1.3 4.2-3.5 4.2-6.9 0-4.6-3.8-7.2-9.3-4.8 2.2-1.7 6.5-3.3 9.5-2.9-1.6.8-1.5 4.1 1.3 4.1s3.4-5-1.4-5c.6-1.3 1.9-3.1 4.2-4.6-1.1 1.2-1.7 2.6-1.9 3.6 1.8.2 3.3 2.1 3.3 4.2 0 .6-.1 1.2-.5 1.8a.76.76 0 0 0-.2.4c.6 1.9 1.6 4.6 3.7 6.4-1.8-.5-4.3-3.5-5.4-5.1zm-5 0zm10.7-22.1zm0 16.3s0-.1 0 0c.1-.1 0 0 0 0zm.1-9.7zm.3-5.7c0-.1 0-.1 0 0 0-.1 0-.1 0 0 .1-.1.1-.1 0 0zm1 25.3zm.5-4.3zm-.1-22.8l.2.2c-.1 0-.2-.1-.2-.2zm.8 14.8zm.2 8.2zm.7-17.6v-.1c.1 0 .1.1 0 .1zm10.5 25.8s-.1 0 0 0c-.1 0-.1 0 0 0-.1 0 0 0 0 0zm-2.1-4.8zm14.6.4s0 .1 0 0c0 .1 0 .1 0 0zm.5-26.8c-.1 0-.1-.1-.2-.2.1.1.2.1.2.2zm-1.9.6zm9.1 1c-1.2.9-4.4 1.4-7.1 1 .5.4.8 3.5.6 5.6-.5-2.8-2.4-5.9-4.5-7.3 2 .6 7.3 1.1 11 .7zm-8.9 5.7s-.1 0 0 0c-.1 0-.1 0 0 0-.1 0-.1 0 0 0zm-.7.3zm0 .2zm0 1.5zm-.1-.3v.1l-.1-.1h.1zm-1.9-8.1c.1 0 .1.1 0 0 0 .1 0 .1 0 0 0 .1 0 0 0 0zm-.3 8.2zm0 .9zm-1-5.9zM64.2 273zm1.4 5.2zm0 0zm.1 8.3zm.9-6.2zm3.6-5.6c-4.2-.3-5.1-4.8-3.3-7.3-.4-1.5-1.5-3.3-2.9-3.8 1.9 0 3.4 1.3 4.2 2.6.5-.3 1.1-.4 2-.4 1.1-1 2.7-2.2 4.8-2.2-2.1 1-3.1 2.1-3.5 2.7 1.6 1.4.6 5.2-2.4 3.9 2.1-.5 2.4-2.7.7-2.7-2.8 0-3 5.7.8 5.7 1.5 0 3.1-1.4 3-3.1 1.5 4.9-5.5 5.6-6 12.7-.9-3.3.7-6.7 2.6-8.1zm2.8-3.3zm-.9-.6zm-.5 1.2s0-.1 0 0c0-.1 0 0 0 0zm-1.9-1.3l-.1-.1h.1v.1zm-.6.6c-.1 0-.1 0 0 0-.1 0-.1 0 0 0zm2.7 10.9s0-.1 0 0c0-.1 0-.1 0 0zm7.2-2.9zm.9 4.4zm3.8-4c0-.1 0-.1 0 0 0-.1 0-.1 0 0 0-.1 0-.1 0 0zm-14.8 2.5c.4-2 1.9-5.5 5.2-7.6-.8.7-2.5 3.6-2.8 5.2 2.8-1.3 7.8-2.2 13.1-1.1-6.3-.1-10.5 1.1-15.5 3.5zm17.6 3.3zm2.8-12.7zm-3.2 5c-2.8-1.1-7.9-1-11.5-.4 3.6-1.6 7.7-2.1 10.6-1.7.4-1.5 1.6-4 3.4-6.4-.4-1.2-.9-1.9-1.5-2.9 1 .7 2.1 1 3 1.1 1.7-1.8 3.8-3.4 6.2-4.1-5.4 2.7-8.8 10-10.2 14.4zm1.1-9.9v-.1c.1 0 .1.1 0 .1zm10.5 25.8c-.1 0-.1 0 0 0-.1 0-.1 0 0 0-.1 0-.1 0 0 0zm7.3-4.4s0 .1 0 0c0 .1 0 .1 0 0 0 .1 0 0 0 0zm.5-4.3s0 .1 0 0c0 .1 0 .1 0 0zm12.1 8.5zm-12.1-31c-.1 0-.1-.1-.2-.2l.2.2zm-7 1c2.1.5 3.7.9 8-.1-2.7.9-4 2.6-3.5 5.7-.6-3.1-3.4-4.9-4.5-5.6zm7.7 13.6zm3-4.5zm1.4 5.2zm0 0zm.8 8.7zm.1-1.5zm.1-5.1zm1 5zm1.1-7.4l-.1-.1h.1v.1zm.3-6.6c.1-.1.1 0 0 0zm-4.1-5c.9.9 1.1 1.5 1.1 2.7 0 1.3-1.3 2.6-2.8 4-.3 1.6-.2 3 0 4.3-.4.2-.9.9-1.2 1.4l-.2-4.5c-1.5 1.3-3 3.1-4.2 5.8.3-6.9 6.5-8.9 6.5-11.6 0-1-.5-2-1.9-2-1.1 0-1.7.8-1.7 1.7 0 .7.4 1.6 2.1.9-1.1 1.5-3.4 1.5-4.8 5.7-.2-2.1.8-4.7 1.7-5.5-.8-1.6 0-4.4 3.1-4.4 2.6 0 5.4 0 6.5-1-1.1 2.3-3.7 2.4-4.2 2.5zm-2.7 1.8v-.1.1zm7.5 2.6l-.1-.1h.1v.1zm.1 12.2zm.7 6.1c0 .1 0 0 0 0zm17.1-25.7zm-2.5.3zm-13.5 8.3c0 .1 0 0 0 0zm.2 10.2zm.3-11.4zm.9.7zm1.4 9.3zm.8 4.7zm-2-21.5c3.6.3 4.1 1.1 5.3 2 1.1-1 3.8-2 5.4-2-3.4.9-5.4 3.3-6.3 5.6-.2-2.9-1.5-4.8-4.4-5.6zm8.9 3.1zm-5 7.4zm-.9 11.5zm0 .1c0-.1 0-.1 0 0 0-.1 0-.1 0 0 0 0 0-.1 0 0zm.5-7.9zm.2 10.8s0-.1 0 0c0-.1 0 0 0 0zm2.4-1.3c0-.1 0-.1 0 0 .1-.1.1 0 0 0zm-.8-1c.4-2.3.5-4.7-.1-7.3.8.3 1.4.3 2.2.4-.3 2.6-.8 5.2-2.1 6.9zm4.4-7.3s0-.1 0 0c0-.1 0-.1 0 0 0-.1 0 0 0 0zm.3 6.4c.6-2.7.6-6.2-.1-7.9-1 .6-3.7.8-6.4-.7 2.9.4 5.8-.4 8.1-2 .2 2.9.4 6.8-1.6 10.6zm3.8-13.9l-.1-.1h.1v.1zm.1.2s0-.1 0 0c0-.1 0-.1 0 0zm0-1.5c0-.1 0-.1 0 0 0-.1 0-.1 0 0 0-.1 0-.1 0 0zm0-.2zm.5 9.3c0-.1 0-.1 0 0 0-.1 0-.1 0 0zm.1-9.7zm1.3 19.6zm-3.9-22c1.1.5 1.6 1.6 1.5 2.7 0 2.1-1.4 3.8-3.8 3.8-2.1 0-3-1.5-3.3-2.4-.7 1.5-.5 3.2.1 4.2a3.11 3.11 0 0 1-2 .2c-.7-3 .3-6.7 4-8.9-1.8 1.9-.7 4.9 1.1 4.9 1.2 0 1.9-.8 1.9-1.6 0-.9-.6-1.8-1.9-1.4-.2-2.8 3.1-5 6.4-5-3.1.5-3.9 2.4-4 3.5zm4.3 17.7zm0-22.8l.2.2c-.1 0-.2-.1-.2-.2zm.7 14.8zm.3 8.2zm.7-17.6v-.1c.1 0 .1.1 0 .1zm2.1 4.9zm1.4 5.2zm0 0zm.1 8.2zm.7.5zm.1-1.5zm.1-5.1zm.9 5zm1.2-7.4l-.1-.1h.1v.1zm.3-6.6zm.7-.6l-.1-.1h.1v.1zm0 12.2zm.8 6.2s0-.1 0 0zm2 4.8zm7.6-22l-.1-.1h.1v.1zm0 .2c0-.1 0-.1 0 0 0-.1 0-.1 0 0 0-.1 0 0 0 0zm0-1.6zm.1-.1s0-.1 0 0c0-.1 0-.1 0 0zm.5-7.1s0 .1 0 0c0 .1 0 .1 0 0 0 .1 0 .1 0 0 0 .1 0 .1 0 0zm0 16.4c0-.1 0-.1 0 0 0-.1 0-.1 0 0zm.1-9.7zm.3-5.8zm1 25.4s0-.1 0 0c0-.1 0 0 0 0zm.4-4.3c0-.1 0-.1 0 0 0-.1 0 0 0 0zm-.1-22.8l.2.2c-.1 0-.1-.1-.2-.2zm.8 14.8zm.2 8.2zm.8-17.6v-.1.1zm2.1 4.9zm1.4 5.2zm0 0zm.1 8.2zm.7.5zm0-1.5zm.2-5.1zm.9 5zm1.2-7.4l-.1-.1h.1v.1zm.3-6.6zm.6-.6l-.1-.1h.1v.1zm.1 12.2zm2.8 11zm19.6-5.1zm-2.9-3.7zm-1.1.1zm-.1 1.5zm-.7-.5zm-4.3-.7zm8.4-2.8zm2-.8zm1.2-10.7zm-.9-.7zm-.5 1.2zm-1.9-1.3v.1c-.1 0-.1-.1 0-.1-.1 0-.1 0 0 0zm1.5 3.3c-.3.1-1.1.6-1.5 1-1-2.3-1.8-5.5-1.8-7.7.7 2.6 1.9 4.9 3.3 6.7zm-10.7-11c-.1 0-.1-.1-.2-.2.1.1.2.1.2.2zm-1.4 1.5c-.1 0-.1 0 0 0-.1 0-.1 0 0 0zm-.3 5.8c-.1 0-.1 0 0 0zm-.2-6.6c0-.1 0-.1 0 0 0-.1 0-.1 0 0 0-.1 0-.1 0 0zm-.5 6.9zm0 .2zm0 1.5zm0-.3v.1l-.1-.1h.1zm2.3-.8c-.8 2.3-4.2 6.4-5.8 7.5 2.8-3.7 4.7-7.1 4.6-8.7 2.7-.3 4.2-.8 6-2.1-2 6.7-8.7 11.1-11.1 15.3.9-4 6.6-8.6 7.6-12.3-.4.2-1 .3-1.3.3zm1.7-3v-.1c.1 0 .1.1 0 .1zm2.1 4.9zm-4.2 16.8c0-.1 0-.1 0 0 0-.1 0 0 0 0zm.5-4.4c0 .1 0 0 0 0zm-1.3-.5c1.2 3.1-.7 6.5-4.2 6.5-5.3 0-4.6-6.5-.8-6.5 1.2 0 2.1.7 2.1 1.7s-1 1.7-2 1.3c1.1-.4.8-1.5-.1-1.5-1.9 0-2.3 3.5.8 3.5 3.6 0 3.6-5.3.3-6.3 1.8-3.4 4.4-4.9 7.7-8.8-2.8 5-5.1 6.9-5.5 8.2.3.2.6.4.8.7 2-2.1 5.5-3.6 8.1-3.6-4.6 1.1-6.2 3-7.2 4.8zm6.4-6.7zm0 0zm1 2.1zm2.2-.2c-.5-3.1-4.1-5.1-2.7-13.8-2.2.9-4.8 2.1-6.6 2.1 1.6-.2 5.9-2 7.9-3.8-.7 4.8.4 9.6 2.3 12.3 1.2-1.1 1.9-2 4.1-2.7-2.3 1.6-3.7 3.7-5 5.9zm7.4 5.8zm0 0zm.5-7.8zm.2 10.8c0-.1 0-.1 0 0 0-.1 0-.1 0 0zm.2-14.5zm2.2 13.2c0-.1 0-.1 0 0 .1-.1.1 0 0 0zm1.1-9.8c0-.1 0-.1 0 0 0-.1 0-.1 0 0 0-.1 0-.1 0 0 0-.1 0-.1 0 0zm1.7-10.8zm.8 12.2zm.9 4.4zm0-16.9zm17.7 26.9zm11.8-31.2c-.1 0-.1-.1-.2-.2.1.1.2.1.2.2zm-1.4 1.5s-.1 0 0 0c-.1 0-.1 0 0 0-.1 0-.1 0 0 0zm-.5-.9zm-2.5.3c0 .1 0 .1 0 0zm-1.9 1.3s-.2 1.1-1.1 2.3c-.6-1-2.4-2-4.1-2.3h5.2zm-6.4 7s0 .1 0 0c0 .1 0 .1 0 0zm-2-1.2l-.1-.1h.1c.1 0 .1.1 0 .1zm0-5.8c-3.4 1-5.2 1.9-6.6 3 0 2.1-.3 4.2-.9 4.9.1-2.3-.1-3.9-.9-5.7 2.4-1.2 5.2-2 8.4-2.2zm-.5 6.4c-.1 0-.1 0 0 0-.1 0-.1 0 0 0zm-.4 6.4v.2c0-.1-.1-.1 0-.2-.1 0 0 0 0 0zm-2 2.6c-.1 0-.1 0 0 0-.1 0-.1 0 0 0-.1 0-.1 0 0 0zm-6.2-17.4c-.1 0-.1-.1-.2-.2l.2.2zm-1.4 1.5s-.1 0 0 0c-.1 0-.1 0 0 0-.1 0-.1 0 0 0zm-.5-.8zm-2.8 9.4c0-.1 0-.1 0 0 0-.1 0-.1 0 0zm0-1zm.3-8.1zm1.9 8.2l-.1-.1h.1v.1zm.1.2s0-.1 0 0c0-.1 0-.1 0 0 0-.1 0 0 0 0zm0-1.6zm0-.1zm.5 9.3c0-.1 0-.1 0 0 0-.1 0-.1 0 0zm.1-9.7zm-2.6-5.3h7.9c-1.1.2-2.8.8-4.5 1.5 1.5 1.9 1.8 6.1.2 9.9.8-7.8-1.5-10.2-3.6-11.4zm3.9 24.9s0-.1 0 0zm1.5 0c-1.4-1.6-2-4.2-1.3-6.3.5.7 1.2 1 1.8 1-.5 1.4-.3 2.9.5 3.9-.5 1-1 1.4-1 1.4zm4.9-2.9zm.1-1.5zm1-.1zm3 3.7s0 .1 0 0c0 .1 0 .1 0 0zm6.2-3.3c-2.3-2.7-5.3-5.7-6.1-6.2 0 0-.6.5-1.1 1.1 2.7 1.9 6.9 6.1 8 8.7-2.7-2.9-7.5-6-9.9-7.3-1.1.8-2.2 1.4-4 1.4-2.3 0-3.8-1.7-3.8-3.4 0-2.9 2.5-3.2 3.4-7.4.2 1.4.1 2.8-.2 3.8h.6c.4 0 .8.1 1.1.2.5-3.4-.4-6.9-.8-8.3 1.7 2.2 2.4 6.7 2.4 8.4 0 1.8-.8 3.2-2.1 3.2.4-.9.4-2.3-.8-2.3-2.2 0-3.1 4.2 1.1 4.2 3.1 0 4.6-3.2 6.4-4.9.7.9 1.7 1.7 2.3 2.7 1.8-1.9 3.8-5.2 4.5-6.5-.7 3.2-2.2 6-3.4 7.9l2.4 4.7zm-4.9-3.6zm-7.6-9.1zm8.4 4.2c-.4-.4-.7-.8-1.2-1.3 1.6-1.5 6.4-7.2 7.3-9.7-1.8 5.7-4.2 8.9-6.1 11zm7-4.5zm0-.9zm2.2 0l-.1-.1h.1v.1zm.1.2zm0-1.5zm0-.2zm.5 9.3zm.1-9.7zm1.3 19.7c0-.1 0-.1 0 0 0-.1 0-.1 0 0zm.4-4.4zm.7-8zm.3 8.3zm.7-17.6v-.1c.1 0 .1 0 0 .1zM225 270c.8-1.4 1.6-4.6 1.5-6.5h7.1c-6.8.8-4.8 3-8.6 6.5zm9.7 1.3c0 .1 0 .1 0 0zm1.4 5.3zm0 0zm.1 8.2zm.7.5zm.1-1.5zm.1-5.1c0-.1 0-.1 0 0 0-.1 0-.1 0 0zm-1.8-15.2c1.5.3 3.1.6 5 2.5-.4.4-.8.8-1.1 1.4-.8-2-2.7-3.3-3.9-3.9zm2.7 20.1zm3 3.8zm0-16.6c0 .9.8 2.2 1.7 2.2 2.6 0 1.8-3.4-.2-2.1-.3-1.9 1.4-4.2 2.9-4.8-.6 1.4-1.1 2.2-1.1 3.1 2.2.4 2.9 5.1-1.1 5.4 1.5 1.5 2.9 3.4 2.9 5.4 0 1.4-.9 2.5-2 3.1.6 1.8 1.3 3.6 2.5 5.6-.4.9-.9 1.7-1.7 2.6-.4-.1-.8-.4-1.1-.8.4-.6.6-.8 1.1-1.8-.8-1.5-1.8-3.5-2.4-5.1-.5 0-1.2-.1-1.8-.4.4 1.7 1.3 3.7 2.9 5.8-2.6-1.9-5.2-4.2-5.4-9 1.8 2.8 6.2 2.7 6.2.1 0-2-2.8-2.1-3.5-.2-2.3-2-3.1-6.1-2.7-8 .4 2.4 1.5 4.5 2.8 5.6.8-.4 1.6-.5 2.3-.4-1.7-1.9-4.1-3.2-4.1-6.1 0-1.8.8-3.7 3.1-5.4-1-.7-1.8-1.4-3.3-1.9 2.1.1 3.6.8 4.5 1.1 1.2-.6 3.2-1.1 5.4-1.1-4.9.9-7.9 3.5-7.9 7.1zm-.8 10.5zm24.9 10.8zm-5.9-13.7zm-.2 5.2zm0 1.5zm-.7-.5zm-5.2-23.5c-.1 0-.1-.1-.2-.2l.2.2zm-1.5 1.4c0 .1 0 .1 0 0 0 .1 0 .1 0 0zm-.4-.8zm-.6 8.5l-.1-.1h.1v.1zm0 .2zm0-1.5zm.1-.2zm.5 9.3zm.1-9.7zm1.3 19.7c0-.1 0-.1 0 0 0-.1 0-.1 0 0 0-.1 0 0 0 0zm.4-4.4zm.7-8zm.2 8.3zm2.9-12.8zm.9 4.9c-.4-6.2-1-9-1.7-10.6-.6-.2-1.5-.2-1.8-.2 1.1 1.1 1.8 3.7 2.2 5.8-1.5-3.8-3.5-6.9-6-7.5 2.7 0 5.6.4 7.3.8.5 3.6.5 8.7 0 11.7zm.5.4zm0 0zm2.3-10.9c-.2 2.3-.8 5.1-1.4 6.4.3-4.3 0-6-.4-8 1.9.5 4 .2 5.6-.3-2.1 1.2-2.7 1.5-3.8 1.9zm11.2-4.6c-.1 0-.1-.1-.2-.2l.2.2zm-.1 22.5zm.9.3zm-2.6-4.6c.8-.5 2.3-.8 3.8.1-2.3-.5-4.2.7-4.2 2.3 0 .7.5 1.4 1.1 1.8-.4 3.1-2.3 5-2.8 8.5-.8-2.4.8-4.7.8-7.2 0-1.9-3.1-7.6 3.6-9-1.4-1.1-2-1.8-2.7-3-.3.6-.1 1.9.3 2.8-1.8-1.4-1.1-4.5.2-5.8.8 4.2 3.4 4.4 5.6 7.6-2.9-.7-4.9.4-5.7 1.9zm5.5-8.1s0-.1 0 0zm1.4 5.2zm0 0zm.1 8.2zm.7.5zm0-1.5zm.2-5.1s0-.1 0 0c0-.1 0-.1 0 0zm.9 4.9zm1.2-7.3l-.1-.1h.1c0-.1 0 0 0 .1zm.3-6.6s0-.1 0 0c0-.1 0 0 0 0zm.6-.6l-.1-.1h.1v.1zm.1 12.2zm.8 6.1zm-4.7-18.2c0 1.6-2.1 2.7-3.8 1.9.3.7.8 1.6 1.5 2.7-2-1.1-3.8-3.3-3.8-5.5 0-1.5.8-2.9 2-3.4-1.1-.4-2.6-.6-4.1-.4 2-.7 5.5-1.1 7.6.5-2.2 0-3.8 1.4-3.8 3.2 0 1.1.5 1.8 1.5 1.8 1.7 0 1.5-2.1.5-2.1-.3 0-1 .4-1.1.7-.1-1.3.9-2.1 1.9-2.1.6 0 1 .2 1.2.6.9-1.3 2.8-3.1 5.4-3.1-3.1 1-5 4.2-5 5.2zm-3.6-2.7c-.1 0-.1 0 0 0v-.1c-.1 0 0 0 0 .1zm9.3 3.8zm.2 10.2zm5.1 6.7c0 .1 0 .1 0 0zm-1.6-3.4zm1.5-7.3c-.1 0-.1 0 0 0-.1 0-.1 0 0 0zm-4.6-7.4zm.4 23.2zm.5-22.5c0-.1 0-.1 0 0zm1.4 9.3zm2.5-12.7c-.4.4-.8.8-1.1 1.4-1-2-2.8-3.3-4-3.9 1.6.3 3.1.6 5.1 2.5zm8.2-4.4zm-3 3.4zm.7 12.2zm1 4.4zm0-16.9zm.9 5.9zm.1-.9zm2.2.1l-.1-.1h.1v.1zm0 .2c0-.1 0-.1 0 0 0-.1 0-.1 0 0 0-.1 0-.1 0 0zm.1-1.6c-.1 0-.1 0 0 0-.1 0-.1 0 0 0zm0-.1s0-.1 0 0c0-.1 0-.1 0 0 0-.1 0 0 0 0zm.5-7.1s0 .1 0 0c0 .1 0 .1 0 0 0 .1 0 .1 0 0 0 .1 0 .1 0 0zm0 16.4c0-.1 0-.1 0 0 0-.1 0-.1 0 0zm.1-9.7zm.3-5.8zm1 25.4s0-.1 0 0c0-.1 0 0 0 0zm.4-4.3c0-.1 0-.1 0 0 0-.1 0 0 0 0zm-.1-22.8l.2.2c-.1 0-.1-.1-.2-.2zm.8 14.8zm.2 8.2zm.8-17.6v-.1.1zm2.1 4.9zm1.4 5.2zm0 0zm.1 8.2zm.7.5zm0-1.5zm.2-5.1zm.9 5zm1.2-7.4l-.1-.1h.1v.1zm.3-6.6zm.6-.6l-.1-.1h.1v.1zm.1 12.2zm.8 6.1c0 .1 0 0 0 0zm1-17.1c.1.1 0 0 0 0zm.2 10.2zm.4-11.4zm.4 23.2zm.5-22.5zm1.4 9.3zm.8 4.7zm.9.5zm0 .1c0-.1 0-.1 0 0 0-.1 0-.1 0 0zm.5 5.9zm0-13.8zm.2 10.8s0-.1 0 0c0-.1 0 0 0 0zm.3-14.5zm1.1 3.4zm-147.4 19c.3.1.6.1.8 0h-.8z"/><path d="M241 291c-.6.9-1.4 1.7-2.4 2.3.2 0 .3.1.5.2.4.2.6 0 .8-.5.9 0 1.8-.7 2.8-.5.1.4.1.7.2.9.1.1.3.1.4.2-.1 0-.1.1-.2.1.2.1.4.1.8 0 .5-.1.9 0 1.4.1.2.1.4.1.6.1-2.6-.9-4.2-2.2-4.9-2.9zm-28.4 2.4a.37.37 0 0 0 .4.3c-.1-.1-.2-.2-.4-.3zm-92.9 1.5h.1c.5.1 1 .2 1.3-.3l-1.4.3zm-34.4-.6c.1 0 .2.1.3.1.7.4 1.3 0 1.9-.1.7-.1 1.6-.4 2.2.2.4.4.5.2.6-.2.2-.6.2-1.2.2-1.9-1.4.9-3.1 1.6-5.2 1.9zm122.4-1.4l-.6.3c.4.2.8.2 1.2.1-.2-.1-.4-.3-.6-.4zm-80.8-4.6c-.4 0-.8 0-1.2-.2-.3.5-.6.9-.9 1.3.4.2.5.8.5 1.2.9-.9 1.4-1.8 1.6-2.3z"/></g></svg>