<svg xmlns="http://www.w3.org/2000/svg" viewBox="0 0 320 320"><style><![CDATA[.B{fill:#fff}.C{stroke-miterlimit:10}.D{stroke-width:.331}.E{stroke:#fff}.F{fill:#215a2e}.G{stroke-width:.083}.H{fill:#1e592c}.I{fill:none}.J{stroke:#215a2e}.K{stroke:#221a15}.L{stroke-width:.166}.M{stroke:#010101}.N{stroke-linecap:round}.O{stroke-linejoin:round}.P{stroke:#1e592c}.Q{stroke-width:.662}]]></style><g class="C J"><path d="M314.7 320H5.3a5.34 5.34 0 0 1-5.3-5.3V5.3A5.34 5.34 0 0 1 5.3 0h309.3a5.34 5.34 0 0 1 5.3 5.3v309.3c.1 3-2.3 5.4-5.2 5.4z" class="I"/><path d="M210.8 227c4.4-41.6 23.2-36.6 23.2-36.6 19.8.9 21.6 20.5 21.6 20.5.4 7.4-3.3 9.1-3.3 9.1 21.2 0 41.1-18.1 41.1-40.4s-19.4-40.4-43.3-40.4c0 0-61.8-1.4-61.8 89.7 0 0 0 47 44.3 35.4 0 0 17.2-4 12.5-24.7-.2 0-25.8 18.5-34.3-12.6z" class="B D"/></g><path d="M208.6 222.8c3.8-42.3 25.7-35.1 25.7-35.1 18.8.9 23.5 20 23.5 20 1.4 7-.9 9.8-.9 9.8 17.9-2.1 33.8-20.3 33.8-37.1 0-21.2-18.4-38.8-41.1-38.8 0 0-58.8.2-58.8 86.5 0 0 1 39 33.8 35.6 0 0 20.9-1.3 18.7-20.3.1.1-32.5 16.8-34.7-20.6z" class="F"/><g class="B"><path d="M268.6 161.6l-7.4 4.5-8.1-3.2 2.3 7.9-5.8 6.3 8.8.4 4.6 7.1 3.2-7.7 8.6-1.9-6.9-5.2z"/><path d="M109.2 226.9c-4.4-41.6-23.2-36.6-23.2-36.6-19.8.9-21.6 20.5-21.6 20.5-.4 7.4 3.3 9.1 3.3 9.1-21.2 0-41.1-18.1-41.1-40.4s19.4-40.4 43.3-40.4c0 0 61.8-1.4 61.8 89.7 0 0 0 47-44.3 35.4 0 0-17.2-4-12.5-24.7.2 0 25.8 18.4 34.3-12.6z" class="C D J"/></g><path d="M111.4 222.7c-3.8-42.3-25.7-35.1-25.7-35.1-18.8.9-23.5 20-23.5 20-1.4 7 .9 9.8.9 9.8-17.9-2.1-33.8-20.3-33.8-37.1 0-21.2 18.4-38.8 41.1-38.8 0 0 58.8.2 58.8 86.5 0 0-1 39-33.8 35.6 0 0-20.9-1.3-18.7-20.3-.1.1 32.5 16.8 34.7-20.6z" class="F"/><path d="M51.4 161.5l7.4 4.4 8.1-3.1-2.3 7.9 5.8 6.3-8.8.4-4.6 7-3.2-7.6-8.6-2 6.9-5.1z" class="B"/><path d="M81.2 91.7" class="G I K"/><path d="M99.4 95c1.3 2.5 3.2 4.9 4.8 7.2 1.4 2 2.9 4.1 4.8 5.7 2.1 1.9 3.6 2.6 4.2 5.7l.5-18.5c-2.2-.2-2.7-3.6-3.8-5.1-1.3-1.6-3.1-2.6-3.9-4.5l.3.1c4.3-1.2 9.1-.2 13.4.5 1.1.2 2.3-.2 3.4-.2 2.5.1 5.1 3.2 5.1 3.2l1.5-.7c-1.4-2.4-4.7-6.1-7.3-6.9-1.7-.5-3.9-.9-5.7-1-2.5-.2-5.1-.7-7.5-.7 5.6-.2 11.2.5 16.8.4 5.7-.1 10.3 1.9 14.9 5.1l-1 .1c-1-3.8-4.5-7.7-7.8-9.5-2.3-1.3-5-.9-7.4-.8-4.9.2-10 .2-14.9-.1 0 0-3.1 2.7-4.7 2.7 1.8-.2 3.8-2.6 5.1-3.9 1.1-1.2 2-2.9 3.3-3.8 3.9-2.9 8.1-5.2 13.1-5.8l-1.2.9c-2.9 0-6.8-.1-9.6.8-2.6.8-4.6 2.4-6.6 4.2-1.4 1.3-3.5 2.6-5.3 3.5-1.1.6-2.3 1.4-3.6 1.5l-10.1 7.7c-1.9 1.8-4.7 4.2-6.9 5.8-2.3 1.7-4.2 4.2-5.7 6.6-2.5 4-6.8 12.6-1.3 16 .6.5 1.4.8 2.1 1l1.3-.2c-1-.8-2.8-2.8-3.3-4.1-.7-1.9.1-4.3.6-6.1.6-2.3 1.8-4.2 3.5-5.9 1.4-1.4 3.5-3.3 5.4-3.9l.9-.2c.1 2-1.8 3.7-2.4 5.4-.7 1.9-.8 4.1-.7 6.1.2 2 1.5 3.3 1.7 5.2s-1.7 3.2-1.9 5.1c-.1.7-1.3 1.7-.9 2.3l.6 1.2c.2-.8.7-1.4 1.1-2.3.4-.8 3.3-2.9 3.2-5.1-.2-2.3-1.8-3.9-1.8-6.3 0-2.3.7-3.7 1.8-5.6a27.55 27.55 0 0 1 1.7-2.9c.8-1 2-1.9 2.6-3 0 0 .4-2-.1-3.2 1.1 4.4-1.1 8.9-1.4 13.4-.2 2.3.1 4.4.2 6.7.2 3.1.1 4.5-1.9 6.8l-.3.2c.1-.1.2-.2.3-.2 2.1-1.7 3.2-3.5 3.5-6.2.2-2.1 0-4.1.6-6.1.8-2.8 2-5.4 2.3-8.1.3-2 .8-4.6-.5-7.2.7 2.4.8 3.5.8 3.5 1.7 2.4 1.9 2.3 2 4.7.2 2.6.4 4.9 2 6.9 1.1 1.4 2.4 3.1 2.1 5.1-.2 1.1-.8 1.8-1 2.9-.2 1.7 0 3.2 1.1 4.7.2.2.3.5.5.7l.8.5c-1.8-.6 0-5.7.5-6.9.7-1.4 1.5-2.6 1.6-4 .1-1.1-.1-3.7-1.4-4" class="B"/><g class="F"><path d="M103.8 102.4l.2.1s.1 0 .2.1l.2.2s-.1-.1-.3-.2c-.1-.1-.3-.1-.3-.2zm1.4 3.1v-.2s0-.6-.2-1.1c-.1-.5-.4-1-.4-1 .4.9.6 1.7.6 2.3zm0 .7l-.2 1.4c0-.1.2-.5.2-.9v-.5zm-14.6 6.7c0 .1-.1.2-.1.3 0-.2.1-.2.1-.3z"/><path d="M92 93v-.2c-.1 1.9-.6 3.8-1 5.8s-.6 4-.5 6v-.3l.3 6.2c0 1-.1 2-.5 3-.2.5-.4.9-.7 1.3-.1.2-.3.4-.4.6l-.2.3-.3.2v.1l.3-.2c1.1-.9 2-1.9 2.6-3.2.6-1.2.8-2.6.9-4s0-2.8.3-4.1c.3-1.4.8-2.7 1.2-4 0 .1-.1.2-.1.4.1-.5.3-1 .5-1.5.1-.1 0 .1-.1.3.4-1 .8-2.5 1-3.9l.4-3.4v-.5c0-1.2-.2-2.4-.8-3.6l.1-.1c.3 1.1.7 2.3.8 3.5l1.2 1.7c.4.6.7 1.3.8 2l.4 4.2c.2 1.4.8 2.7 1.6 3.7.9 1.1 1.8 2.2 2.1 3.6.1.4.1.5 0 .4.1.5.1.9 0 1.4s-.3.9-.5 1.3-.4.8-.4 1.3c-.1.4-.1.9-.1 1.4 0 .9.2 1.8.6 2.6a4.44 4.44 0 0 0 .8 1.1l.2.3c0 .1.2.1.3.2l.6.4 1.1.7-1.2-.4c-.5-.2-.7-.6-.8-1s-.1-.8-.1-1.3c.1-.8.3-1.6.5-2.4s.5-1.6.8-2.3l1.1-2.1c.1-.2-.3.6-.1 0l-1.4 2.8c-.3.9-.6 1.9-.8 2.9v-.3c-.2.7-.1.8-.1.9s0 .2-.1 1c0 .6 0-.2 0 .1s0 .7.2 1c.1.3.4.6.7.8l.2-.4-.8-.5-.5-.7c-.4-.5-.6-1.1-.8-1.6-.3-1.2-.3-2.4-.1-3.5.1-.3.5-1 .8-2 .2-.9 0-1.9-.2-2.5-.3-.8-.8-1.5-1-1.7-.7-1-1.5-1.8-2-2.9s-.7-2.2-.9-3.4-.1-2.4-.4-3.6c-.1-.6-.5-1.2-.8-1.6l-1-1.4c-.1-1.1-.5-2.4-.8-3.5l-.3.1c.6 1.1.8 2.4.8 3.7s-.2 2.5-.4 3.8c-.4 2.5-1.4 4.9-2.2 7.4-.7 2-.4 4.3-.7 6.6-.1 1.1-.5 2.3-1.1 3.3s-1.4 1.9-2.4 2.7l-.3.2.2.2c.1-.1.2-.1.4-.3l.3-.4a3.04 3.04 0 0 0 .5-.7c.3-.5.6-1.1.8-1.7.6-2 .1-5 0-7.4 0 0 0-.5-.1-1v-1c0-2.5.6-4.9 1.1-7.3s.9-4.9.4-7.4l-.2.1c.2.5.2 1.2.2 1.8 0 .3 0 .6-.1.9 0 .1-.1.2-.2.4-.7 1-1.7 1.8-2.5 2.7-.7 1-1.3 2.1-1.9 3.2s-1.2 2.2-1.4 3.4-.3 2.5.1 3.7l1.3 3.4c.2.6.3 1.2.1 1.8-.1.6-.5 1.1-.8 1.6l-1.2 1.4c-.4.5-.9.8-1.2 1.5l-.6 1c-.1.2-.2.4-.2.5s-.1.2-.1.2 0-.1-.1-.1l-.4-.8c-.1-.1-.1-.3 0-.5s.2-.4.4-.6c.1-.2.3-.4.4-.6.1-.1.1-.2.1-.4v-.3c.2-.9.7-1.7 1.2-2.5.2-.4.5-.8.6-1.3s.1-1 0-1.5c-.2-.9-.7-1.8-1-2.6-.4-.8-.6-1.7-.7-2.6l.1-2.7c.1-.9.3-1.8.5-2.6.3-.9.8-1.6 1.2-2.4.5-.8 1-1.6 1.2-2.5 0-.2.1-.4.1-.8v-.1s0-.1-.1-.1l-.3.1-.4.1c-.4.1-.9.3-1.3.5-1.6.9-3 2.1-4.3 3.4s-2.4 2.8-3.1 4.6c-.4.9-.6 1.8-.8 2.7L76 106s0 .1 0-.3c-.6 2.8 2 5.1 3.4 6.5l-.7.1h-.4l-.4-.1c-.6-.2-1.1-.5-1.6-.8l-.8-.6c-.3-.2-.5-.5-.7-.7-.8-1.1-1.2-2.5-1.2-3.9s.3-2.8.8-4.1c.9-2.7 2.3-5.2 3.8-7.6 1.6-2.4 3.4-4.6 5.8-6.1 2.2-1.7 4.3-3.5 6.2-5.4l8-6.1c.7-.5 1.4-1 2-1.6.4-.1.8-.1 1.2-.3.4-.1.8-.3 1.2-.5s.8-.4 1.1-.6l1.2-.6c.8-.4 1.5-.9 2.2-1.4s1.4-1 2.1-1.6a16.32 16.32 0 0 1 2-1.7c1.4-1.1 2.9-2 4.6-2.5s3.4-.7 5.2-.7h2.6c.8-.1 1.8.2 2.4-.5l.4-.3.2-.1h-.2l-.9.1c-.6.1-1.1.2-1.6.4-1.1.3-2.1.6-3.2 1.1-2.1.9-4 2-5.8 3.2-.9.6-1.9 1.2-2.6 2.1l-2.1 2.6s-1.5 1.7-2.3 2.4-1.7 1.5-2.8 1.6v.1c.9-.1 1.7-.6 2.5-1.1s1.5-1.1 2.2-1.7h.3c5.6.3 11.4.3 17.2-.1 1.4 0 2.9.1 4.3.7 1.3.6 2.5 1.5 3.6 2.5 2.1 2 3.9 4.4 4.6 7.1 0 0 0 .1.1.1h.5c.2 0 .7 0 .3-.2-.4-.3-.8-.5-1.2-.8-.8-.5-1.6-1-2.5-1.4-1.7-.9-3.6-1.7-5.6-2.1-2-.5-4-.6-5.9-.6s-3.7 0-5.4-.1c-3.7-.2-7.4-.4-11.1-.4v.1c2.1 0 4.2.4 6.2.6 2.1.1 4.2.3 6.2.9 2.1.5 3.7 1.9 5.2 3.4.7.8 1.4 1.6 2 2.4.2.2.3.4.5.6l.2.3.1.2.1.1h-.1l-1.4.7c-.9-1-2-1.9-3.2-2.5-.7-.4-1.4-.6-2.2-.6s-1.6.1-2.3.2c-.8 0-1.6-.2-2.3-.3l-2.3-.3c-3.1-.4-6.3-.7-9.3.1-.1 0-.2.1-.3 0-.1 0-.2-.1-.2 0 .1.1.1.2.2.4.2.3.4.6.7.9.5.6 1.1 1.1 1.6 1.6.6.5 1.1 1.1 1.6 1.7.4.7.7 1.4 1 2.1s.7 1.4 1.2 1.9c.3.3.6.5.9.6.1 0 .2 0 .3.1.1 0 .3 0 .2.2v.6c-.1 1.5-.1 3-.2 4.6l-.4 13.2h.1c-.2-.8-.4-1.7-.9-2.4-.5-.8-1.1-1.4-1.8-1.9l.2.2c-.8-.8-1.9-1.6-2.7-2.4s-1.5-1.6-1.9-2.2l.2.2c-.7-1-1.8-2.2-2.2-2.8l-.1-.1c-.9-1.2-.1-.2-.7-1.1-.3-.3-.1-.1-.7-.8 0-.2-2.1-2.9-2-3.1.4.7-.6-1.1.4.4-.1-.2-.5-.8-.9-1.4-.3-.6-.6-1-.6-.9-.1-.2-.6-1 0 .4l.2.2c.2.5.2.3.2.5 1 1.7 1.1 1.9 1.9 3.1.6.8 1.4 1.8 1.8 2.5l.2.3c.2.4 1.4 1.8 1 1.3 1.2 1.6 2.5 3.3 4.1 4.8.8.7 1.7 1.4 2.5 2.2s1.3 1.8 1.6 2.8c0 .1.1.3.1.5l.3 1V114c0-1 .1-2.6 0-1.9.1-1.1.2-4.4.3-5.6v.3c.2-2.4 0-2.8.2-5.1-.1-.4.1-4.1.1-5.3 0-.3 0-.4.1-.3v-.8h-.3c-.3-.1-.5-.1-.7-.2-.4-.2-.7-.6-1-1-.5-.8-.9-1.8-1.4-2.8-.4-1-1.2-1.7-1.9-2.3-.7-.7-1.4-1.3-1.9-1.9-.1-.1-.2-.3-.3-.4s-.1-.2-.2-.3c.2 0 .4-.1.6-.1a10.68 10.68 0 0 1 2.5-.3c1.7-.1 3.3 0 4.6.1a36.27 36.27 0 0 1 3.8.6c.7.1 1.4.3 2.2.3s1.5-.2 2.2-.2h-.3c.6-.1 1.1-.1 1.7.1.6.1 1.1.4 1.6.7a7.55 7.55 0 0 1 1.4 1.1l1.2 1.2c.5-.2.9-.4 1.3-.6.1-.1.3-.1.4-.2.1 0 0-.1 0-.2l-.1-.2c-.1-.2-.2-.3-.3-.5-.5-.9-1.3-2-2.3-3-.8-.8-2-2-3.6-2.9-.8-.5-1.8-.7-2.6-.9-.9-.2-1.8-.3-2.6-.4-.5-.1-2.7-.2-2.9-.3-1.9-.2-3.9-.5-6.1-.5v.3c4-.1 8.1.2 12.3.3 1 0 2.1.1 3.1.1s2.1 0 3.1.1c2 .1 4 .6 5.9 1.2h-.1c1.2.4 2.6.9 3.8 1.5.1.1.1.1-.2-.1.8.4 1.6.9 2.3 1.3l.6.4.4.3.1.1h-.3c-.2 0-.2.1-.3-.1s-.1-.4-.2-.6c-.1-.4-.3-.8-.5-1.3-.4-.8-.9-1.7-1.5-2.5l-.1-.1s-.2-.3-.4-.5c-.2-.3-.4-.5-.4-.5s.1 0 .5.6c-1.5-1.9-3.3-3.6-5.6-4.7-1.1-.5-2.4-.7-3.6-.7s-2.4.1-3.7.1a182.59 182.59 0 0 1-14.8 0c-.8.7-1.4 1.2-2.2 1.7s-1.6 1-2.4 1.1v.2c1.1-.1 2-.9 2.9-1.6.8-.7 1.5-1.5 2.2-2.4.7-.8 1.3-1.7 2-2.5.4-.4.7-.8 1.1-1.1s.9-.6 1.3-.9l-.5.4s.6-.5 1.3-.9c.6-.4 1.3-.8 1.3-.8s-.1.1-.3.2c1.7-1 3.5-1.9 5.4-2.6.9-.3 1.9-.6 2.9-.8.5-.1 1-.2 1.2-.2h.2l-.1.1-.4.3c.1-.1.3-.2 0-.1-.1.1-.3.2-.4.3h-3c-1 0-1.8 0-2.5.1-.1 0-.2 0 .1 0-2 .1-4 .5-5.9 1.3-1.8.9-3.4 2.2-4.9 3.6-1.5 1.3-3.2 2.4-5 3.4-.9.5-1.7 1-2.7 1.4-.2.1-.5.2-.7.2-.1 0-.2 0-.4.1h-.2c-.1 0-.2.1-.2.1l-.5-.2c-2.6 2.1-5.4 4.2-8.2 6.4l-.5.4-.5.5-1 .9c-.7.6-1.3 1.2-2 1.8L82.7 89c-1.6 1.3-2.9 3-4.1 4.8s-2.3 3.6-3.2 5.6-1.6 4.1-1.7 6.2c0 1.1.1 2.2.5 3.2a6.11 6.11 0 0 0 2.1 2.4c.5.4 1.2.7 1.8.9.3.2.6.1.9 0 .3 0 .6-.1.8-.1-.2-.1-.3-.3-.5-.4l-.4-.4c-.3-.3-.5-.5-.7-.8-.5-.5-.9-1.1-1.3-1.6-.8-1.1-.9-2.7-.6-4.2v-.1c.1-.8.4-1.6.6-2.4s.5-1.6.8-2.4c.7-1.5 1.8-2.9 3.1-4.1s2.6-2.3 4.1-3.2c.4-.2.8-.4 1.2-.5.2 0 .4-.2.5-.1v.6c-.2.8-.6 1.6-1 2.3l.2-.4c-.2.5-.8 1.3-1.2 2.1s-.5 1.4-.4 1.2l-.2.6v.6c-.2 1.1-.3 2.2-.2 3.3 0 .5 0 1.1.1 1.6a9.83 9.83 0 0 0 .5 1.6c.4 1 1 2 1.1 3.3s-.9 2.3-1.5 3.6l.1-.3c-.2.3-.3.7-.4 1.1s-.1.8-.3 1.1l-.6.9c-.2.3-.3.6-.1.9-.1-.1-.1-.1-.1-.4 0 .1 0 .3.1.4l.6 1.2v.1c.1-.7.4-1.1.7-1.6s.5-1 .9-1.4c.7-.8 1.5-1.6 2.1-2.5.3-.5.5-1 .6-1.6 0-.6-.1-1.1-.3-1.6-.3-1.1-.9-2-1.2-3.1l.2.5c-.2-.6-.5-1.2-.5-2-.1-.8 0-1.7.2-2.5.4-1.8 1.6-3.3 2.3-4.7l-.1.2s.2-.3.4-.7c.2-.3.4-.7.4-.7h.1c.8-1.1 1.9-1.8 2.6-2.9.1-.1.2-.3.3-.4v-.6c0-.3.1-.6.1-1 0-.6 0-1.3-.2-1.9h-.1c.3 1.5.3 2.9.2 4.3z"/><path d="M94.1 99.5s0 .1 0 0c0 .2 0 .1 0 0zm8 .1c-.1-.2-.2-.3-.3-.4 0 0 .2.2.3.4zm26.2-12.5h-.1zm-.3-.1l.2.1c0-.1-.2 0-.2-.1zm0 0c0-.1 0 0 0 0zm-3.6-2.6zm-1.2-.3c.2 0 .4.2.6.3l1.6.7h.1a.76.76 0 0 0 .4.2h.1c.4.2.8.5 1.2.8a2.36 2.36 0 0 1 .9.8c-.1-.1-.2-.1-.3-.2 0-.1-.1 0-.1-.1-.1-.1-.3-.3-.4-.3 0-.1-.1-.1-.2-.2 0 0-.1-.1-.1 0-.5-.4-1.1-.7-1.6-1.1-.3 0-.6-.3-.9-.5-.1 0-.3-.1-.4-.1h-.1c-.8-.4-1.6-.6-2.4-.8-.9-.3-1.8-.5-2.7-.5-.3 0-.5-.1-.8-.1-.6 0-1.3-.2-2-.1-.7-.1-1.6-.1-2.4-.2-.6 0-1.2-.3-1.8-.4-.6-.2-1.3-.2-2-.4-.4-.2-.9-.1-1.3-.3-.7-.4-1.5-.4-2.3-.5-.7-.2-1.4-.3-2.1-.6-.3 0-.6-.3-.9-.5-.1-.1-.3 0-.3-.2 0-.1-.2 0-.2-.1-.1 0 0 0 0-.1h-.1c.1-.1-.2-.1-.1-.2 0 0 0-.1.1 0 0 0-.1-.1-.2-.1 0 0-.1 0-.1.1v.1c.1.1.1.1.1.2.1 0 .1.1.2.1 0 .1.2 0 .1 0 .2.1.4.2.7.4 0 0 .2.1.2 0 0 .1.2.2.3.2.1.1.2 0 .3.1 0-.1.2.1.3 0v.1c.2.1.5.2.7.2s.4.1.6.1c.1 0 .3.1.5.1s.4.1.6.1c0 .1.1.1.2.2.1 0 .4.1.6.1 0 0 .2 0 .2.1.6 0 1.2.2 1.7.5.1 0 .2-.1.3-.1s.2.1.3.1.2.1.3.1h.1s0 .1-.1 0l2.7.5h.2c.2.1.5.1.7.1s.3.1.4 0c.5 0 .9.1 1.4.1.4-.1.8.1 1.2 0 .5 0 1.1.1 1.6.2.2 0 .4 0 .6.1.4-.1.8.2 1.2.2.1 0 .2.1.2 0h.1c.3-.1.5.2.8.1h.2c.2.2.6.1.8.2.1 0 .4.1.6.1h.1c-.6.3-.4.4-.2.4zm2.2 1zm-23-5.6zm-13.2 11h-.1zm-.1-.1c.1.1 0 0 0 0zm0 0zm.2-1.2zm0-.4c0 .1-.1.1-.1.2-.1.2 0 .3 0 .5-.1 0 0 .1 0 .1v.4c.1.1 0 .2 0 .3h.1s-.1-.1 0-.1c0 0-.1 0 0 0V90c.1 0 0-.1.1-.1.1-.2 0-.4.1-.5-.1-.1.1-.2.1-.3V89c.2-.2.2-.5.3-.7.1-.3.3-.4.3-.7 0-.1.1-.1.1-.2 0-.2.2-.3.2-.5.1-.2.2-.4.4-.6.1-.2.3-.2.4-.4.2-.1.2-.4.4-.5.2 0 .1-.3.3-.3.3 0 .4-.2.5-.4.2-.1.3-.3.5-.3 0-.1.2 0 .3-.1.1.1 0-.1.1 0v-.1c0 .1 0 0 .1.1v.1-.1c0-.1 0-.1-.1-.1 0 0-.1 0-.1-.1 0 .1 0 0 0 0s0 .1 0 0c-.1 0-.1.1-.2.1 0 0-.1 0 0 .1 0-.1-.1-.1-.1 0-.1-.1 0 .1-.1 0 0 .1-.1 0 0 .1-.1 0-.1 0-.2.1 0 .1-.1 0-.1.1 0 0-.1 0-.1.1 0 0-.1.1-.1.2-.1-.1-.1 0-.1-.1 0 .1-.1.1-.1.2h-.1c0 .2-.2.3-.4.3 0 0 0 .1.1.2h-.1s-.1 0-.1.1c-.2.2-.3.4-.5.7v.1c-.1 0-.1.1-.1.2s-.1 0 0 .1c0 .1-.1.2-.2.3 0 .2-.1.2-.1.4s-.2.3-.2.4 0 .1-.1.2c0 .1-.2.2-.1.3v.1c.1.1-.1.1-.1.2v.1c-.1 0 0 .2-.1.2v.2c-.8-.4-.8-.4-.8-.3zm-.2.7zm3.9-5.4zm12.2-7.8zm0 .1c-.1-.1 0 0 0 0zm-.1 0z"/><path d="M104.5 76.6zm-.1.2h.1c.1 0 .1-.1.2-.2 0 .1 0-.1.1 0 .1 0 .1-.1.2-.1 0-.1.1-.1.2-.1v-.1s0 .1 0 0c0 0 0 .1 0 0 0 0-.1 0-.1.1h-.1v.1c-.1 0-.2.1-.3.1 0 .1-.1 0-.1.1 0 0 0 .1-.1 0-.2 0-.3.1-.4.1s-.3 0-.4.2h-.1c-.1.1-.2.1-.3.2-.1 0-.2.1-.3.1-.1.1-.2 0-.3 0s-.2.2-.3.1-.1.1-.2.1c-.2-.1-.2 0-.3.1-.1 0-.2.1-.3 0 0 .1-.1-.1-.2 0 0-.1 0 .1-.1 0 0-.1 0 .1 0 .1s0 .1 0 0v-.1.4c0-.1 0 0 0 0 0 .1 0-.1 0 0h.1v-.1c0 .1.1.1.1.1 0 .1 0-.1 0 0v-.1h.1c0-.1.1 0 .1-.1 0 0 .1.1.1 0 0 0 .1 0 .1-.1 0 .1 0 .1.1.1 0 0 .1 0 .1-.1.1-.1.2-.1.3 0v-.2h.1s0 .1 0 0c.1 0 .3-.2.4-.2h.1c0-.1.1.1 0-.1.1-.1.1-.1.2-.1 0-.1.1 0 .1-.1.1-.1.2 0 .2-.1h.1c0-.1.1 0 .2-.1v-.1c0-.1.1 0 .1-.1.1.1.1 0 .1 0 0-.1.1 0 .1-.1l.3.3c0 .1 0 0 0 0zm.3-.1zm-3.4 1.1zm-7.4 7.4c-.1-.1.1 0 0 0zm0 0zm-.1.3zm.1.2c.1-.1 0-.1 0-.2v-.1c-.1-.1 0-.1 0-.1v.1h-.1s0 .1-.1.1c.1.1 0 0 0 .1l.2.1c-.2-.1-.1 0-.2.1s-.2.1-.1.2v.1c.1.1-.1.1 0 .2 0 .1-.1.1-.1.2s-.1.1-.1.1c-.1 0 .1.1 0 .2-.1 0 .1.1 0 .1-.2 0-.1.1 0 .2-.1.1.1.1 0 .2.1 0-.1.1-.1.1-.1 0 .1 0 0 0s.1 0 .1 0h-.1.4c-.1 0 0 0 0 0 .1 0-.1 0 0 0v-.1h-.1.1c.1 0-.1 0 0 0h-.2l-.1-.1h.1l-.1-.1c-.1-.1-.1-.1 0-.1 0 0-.1 0-.1-.1v-.4c-.1-.1 0-.1 0-.1-.1-.1 0-.1 0-.1v-.1c-.1-.1.1 0 0-.1l-.1-.1c-.1-.1.1 0 0-.1.7 0 .6-.1.7-.2v.1c-.1 0 0 0 0-.1z"/><path d="M93.9 85.5zm-.4 1.7c0 .1 0 0 0 0zm-6.1-.6zm.1.1c-.1-.1 0 0 0 0z"/><path d="M87.5 86.7c-.1 0 0 0 0 0zm-.5.4z"/><path d="M87 87.3c.2-.1.2-.2.2-.3.1 0 0-.1.1 0 0-.1.1-.1.1-.2s0-.1.1-.1c0 0 0 .1 0 0v.1h-.1c-.1 0-.1.1-.2.2 0 .1-.1 0-.1.1v.1c-.1 0-.2.1-.3.2s-.3.1-.3.3c0 0-.1 0-.1.1s-.1.1-.1.2c-.1.1-.2.2-.2.3s-.2.1-.2.2c-.1 0-.1.2-.2.2s0 .2-.1.1c-.2 0-.2.1-.2.3-.1 0-.1.2-.2.2 0 .1-.1 0-.2.1-.1 0 .1.1 0 0-.1 0 .1.1 0 .1-.1-.1 0 0-.1 0l-.1-.1.1.1h.1s-.1-.1 0 0c0 0 0-.1.1-.1v-.1h.1c.1 0-.1-.1 0 0-.1-.1 0 0 0-.1h.1c0-.1.1 0 0-.1h.1V89c.1.1.1 0 .1.1V89c0-.1.1-.2.2-.2l-.1-.1h.1c.1-.1.1-.2.2-.3 0 0 0-.1.1-.1 0-.1.1 0 0-.1 0-.1.1-.1.1-.1 0-.1.1-.1.1-.2s.1-.1.2-.2v-.1c0-.1.1 0 .1-.1v-.1c-.1-.1.1 0 .1-.1.1 0 .1-.1.1-.1.2.2.2.3.3.1 0 .1 0 .1 0 0z"/><path d="M87.2 87.1zM85 89.6zm8.673-7.665l6.366-4.332L210.984 240.63l-6.366 4.332z"/></g><path d="M75.1,49.3" class="C E G H"/><path d="M101.4 71.4" class="I L M N O"/><path d="M215.6 239.7c3.3-.3 4.1-5.1 4.1-7.7.2-4.8-.2-8.4 4-11.8" class="B"/><path d="M223.5 220.1zm-.1.1s0 .1 0 0v-.1.1zm0 .1c-.1 0-.1 0 0 0-.1 0 0 0 0 0zM221 223zm-.3 1c0-.2.2-.3.2-.5.2-.4.4-.8.7-1.2v-.1c.1 0 .1-.3.2-.3v-.1c.2-.3.5-.6.7-.9.1-.3.4-.5.7-.7-.1 0-.1.2-.2.2s0 .1 0 .1l-.3.3c-.1 0-.1.1-.2.1v.1c-.4.3-.7.8-1 1.2-.1.3-.3.4-.4.7 0 .1-.1.2-.2.3v.1c-.4.6-.6 1.3-.8 2-.2.8-.4 1.5-.3 2.3v.6c.1.5-.1 1.1 0 1.6v2c0 .5-.1 1-.1 1.5-.1.5 0 1.1-.2 1.6-.2.3-.1.8-.3 1-.3.6-.5 1.2-.7 1.8-.4.5-.6 1-1.2 1.3-.2.2-.5.2-.8.3-.1 0-.2.2-.3.1-.1 0-.1.2-.1.1h-.1s0 .1 0 0-.2.1-.2-.1c0 0-.1 0 0-.1 0 0-.1 0-.1.1v.2c.1 0 .1 0 .2.1 0-.1.1 0 .1 0s.1-.1.1 0c.2 0 .4-.2.6-.2 0 0 .2-.1.1-.1.1 0 .2 0 .3-.1.2 0 .1-.1.2-.1 0-.1.2-.1.2-.2a.78.78 0 0 0 .4-.4c0-.2.3-.2.2-.4.1-.1.2-.2.2-.3a.76.76 0 0 0 .2-.4c.1 0 .1-.1.2-.1 0-.1.1-.3.1-.5.1 0 0-.1.1-.1.1-.5.3-1 .5-1.4 0-.1-.1-.2-.1-.2 0-.1.1-.2.1-.2 0-.1.1-.2.1-.3v-.1c.2-.7.1-1.5.2-2.3v-.7c-.1-.1.1-.2 0-.3v-1.1c-.1-.3 0-.7-.1-1-.1-.4 0-.9.1-1.3v-.5c-.1-.3.2-.6.1-1 0-.1 0-.2-.1-.2v-.1c-.1-.2.1-.4.1-.7v-.2c.1-.2.1-.5.2-.7 0-.1.1-.3.1-.5v-.1c.5.4.5.2.6.1zm.9-1.8zm-5.7 17.6c-.1 0 0 0 0 0z" class="H"/><path d="M225.3,217.6" class="D I M N O"/><path d="M203.2 247.8c-1.6.9-2.7 1.9-3.7 3.4-1.3 1.8-3 3.6-5.3 4-.6 1.1-4.3 1.4-5.5 1.6-1.5.1-4.3.4-5.6-.3 3.6-.7 6.6-2 9.7-4 1.3-.8 2.2-2 3.4-2.9.8-.7 1.6-1.1 2.2-2-3.9 2.1-8.9 1.6-12.9-.1-2.2-.9-4.1-1.8-6.4-2.6-2.2-.7-5.9-2.4-6.7-4.8 2.3 3.9 9.4 4.6 10.9 5.4 2.1 1 6.6.7 8.6-.8-1-.7-2.3-1-3.3-1.9s-2.1-2-2.7-3.3c-1.3-2.5-1.1-5.9-1.1-8.7 1.2 1.5 1.2 3.4 1.8 5.1 1.1 3.1 4.2 6.7 7.9 6.6-1.9-.9-4-3.5-5-5.3-1.4-2.5-.3-5.9-2.5-7.9.3.6.8 1 1.2 1.5 1.7 2 2.5 4.6 4.1 6.6.9 1.1 2 1.6 3.1 2.4.8.6 1.7 1.4 2.6 1.7.7.2 1.2.3 2 .2-1.1-1-2-2.2-2.8-3.5-1.4-2.2-3.1-5.3-3.1-8 .7 2.3 2.5 4.5 4.2 6.2 1 1.1 2.1 2.4 3.3 3.3.5.4 1.4 1.1 2.1 1-1.4-.1-2.4-1.9-3.1-3-.4-.7-.8-1.4-1.1-2.2s-.2-1.8-.5-2.6c-.4-1-1.5-1.8-2.3-2.6-1-1-1-1.7-.9-3.1 2.3 1.2 3.2 3 4.5 5.2 1 1.7 3.9 5.7 5.8 5.7-2.2-.5-4.6-5.1-5.4-7-.7-1.5-1.7-6.4-4.4-6 2.7 0 3.9.8 5.8 2.7a65.2 65.2 0 0 1 3.4 4c.4.5.5 1.1 1.2.9v-.5c1.1-4.4 2.9-8.6 2-13.1-.5-2.7-4.4-5.1-2.4-8 .2 2.3 1.8 3.6 2.9 5.3 1.2 2 1.3 4.6 2.3 6.5 0 0 .6 8.8-2.6 12.2 2.1-2.1 2.7-7.4 2.8-10.3.1-2.3-1.4-14.4 3.2-13.1-2.6 5.8.7 10 .7 15.9 0 0-3.2 5.2-3 8.3-.2-4.2 3.6-8.5 4.8-10.1 1.2-1.7.9-2.1 2.2-3.5 0 0 2.2.5 6.3-2.2-2.9 3.4-3.8 7.4-4.3 10.9-.3 2-.6 8.8-3.4 9.1" class="B"/><g class="H"><path d="M218.2 240.3h.2l.5-.2-.7.2zm2.2-2.4c0 .1 0 0-.1.1 0 0 0 .1-.1.3l-.3.6c-.1.2-.2.4-.4.6l-.2.2c.8-.6.9-1.3 1.1-1.8zm.2-.5c.3-.7.2-1 .3-1.2 0 .3-.4 1.4-.3 1.2zm-6.3-23.5v.2c-.1-.1 0-.2 0-.2z"/><path d="M211.7 224.1v.2c-.1-3.1-.4-6.6.2-9.8v.2c.2-1 .5-2.1 1.3-2.7.4-.3.9-.4 1.4-.3h.1v.1l-.1.3c-.1.2-.2.5-.3.7-.3 1-.5 2-.5 3s.1 2 .2 3c.3 2 .9 3.9 1.2 5.9.1.5.1 1 .2 1.5v1.2c0 .1.1.3 0 .4l-1.4 2.7c0-.1.1-.2.1-.3-.2.4-.3.8-.5 1.2-.1.1 0-.1.1-.3-.6 1.2-1.3 3.3-1.2 4.8h-.1c0-.5 0-.9.1-1.2 0-.5.1-.7 0-.4.4-2.3 1.6-4.3 2.9-6.2l2.1-2.8c.3-.5.5-1 .8-1.6s.6-1 1.1-1.5c1.1.2 2-.1 2.9-.5.5-.2.9-.4 1.3-.6.2-.1.4-.2.6-.4l.4-.2.5-.3c.4-.3.4-.3.3-.1l.7-.4-.5.6c-.3.3-.8 1-.9 1.2l-1.1 1.8c-.6 1.3-1.1 2.6-1.5 4s-.6 2.8-.8 4.3l-.6 4.3c0 .2.1-.6.1 0 .4-1.8.4-3.4.7-5v.2c.2-1.2 0-.3.2-1.5.1-.5 0 .1.1-.1.4-2.5 1.3-5.1 2.5-7.2.1-.1.2-.3.4-.6.1-.1.2-.2.3-.4.2-.2.4-.5.6-.8l.7-.8.3-.3h-.1c-.1.1-.3.2-.4.3l-1.4.9c-.2.1-.4.2-.5.3a.76.76 0 0 1-.4.2c-.2.1-.5.2-.6.3-.6.3-1.2.5-1.8.7-.3.1-.6.1-.9.2h-1l-.4.4c-.1.1-.2.3-.3.4l-.5.8-.9 1.7-2.3 3.1c-1.4 2.1-2.7 4.6-2.6 7.3h.3c0-1.3.4-2.6.8-3.9.5-1.3 1.1-2.5 1.7-3.7.1-.3.3-.4.4-.8v-.9c0-.6-.1-1.2-.2-1.7l-.7-3.6c-.6-2.4-1.1-5-.5-7.5.1-.4.2-.9.4-1.3.1-.2.2-.5.3-.8l.1-.1v-.1h-.1l-.3-.1h-.4c-.6 0-1.1.3-1.5.8-.3.4-.6.9-.7 1.4l-.2.8c-.1.4-.1.8-.1.8a43.21 43.21 0 0 0-.3 5l.1 5.1c-.1 1.7-.3 3.4-.7 5s-.9 3.3-2.1 4.5l.2.2c.9-1 1.5-2.4 1.8-3.7.4-1.3.6-2.7.7-4.1l.1-4.1c0-.2 0-.3-.1-.6-.1-.2-.2-.3-.2-.5-.1-.3-.2-.6-.4-.9-.2-.6-.4-1.3-.5-2a24.13 24.13 0 0 0-.8-2.5c-.4-.8-.9-1.5-1.4-2.1-.5-.7-1-1.3-1.3-2.1-.1-.2-.2-.4-.2-.6-.1-.2-.1-.3-.2-.7l-.1-.5v-.2s-.1.1-.1.2c-.1.3-.4.6-.5.9-.3.8-.2 1.8.1 2.5.3.8.8 1.5 1.3 2.1.4.7.9 1.4 1.2 2.1.2.7.3 1.6.4 2.3.2 3.2-.8 6.4-1.7 9.5l-.3 1.2-.1.6v.5s-.2 0-.4-.1c-.1-.1-.2-.3-.3-.4-.2-.4-.5-.7-.8-1-1-1.3-2.1-2.6-3.4-3.8 0 0-.1-.1.2.2-.8-.7-1.6-1.4-2.6-1.9-1-.4-2-.6-3-.6v.2a2.03 2.03 0 0 1 2 1c.5.6.9 1.4 1.2 2.1.4.9.7 1.8 1 2.8.4.9.9 1.8 1.4 2.7s1 1.7 1.7 2.5c.6.8 1.4 1.6 2.4 1.8v-.2c-.7 0-1.2-.4-1.8-.8-.5-.4-1-.9-1.4-1.4-.9-1-1.7-2.1-2.4-3.2s-1.3-2.3-2.1-3.3c-.4-.5-.9-1-1.4-1.4-.3-.2-.5-.4-.8-.5l-.2-.1-.1-.1s-.1-.1-.1 0v.5c0 .6 0 1.3.4 1.8.3.6.8 1 1.3 1.4s.9.9 1.3 1.4.4 1.2.5 1.9c0 .3.1.7.2 1s.2.6.4.9l1 1.8c.4.6.7 1.2 1.2 1.7s1 1 1.8 1.1v-.1c-.6 0-1.1-.3-1.6-.6l-1.4-1.2c-.9-.8-1.7-1.8-2.5-2.7-1.7-1.8-3.3-3.7-4.1-6.1v-.1.1c0 1.3.4 2.5.8 3.6.6 1.5 1.4 2.9 2.2 4.2.4.7.8 1.3 1.3 1.9.2.3.5.6.8.9s.5.6.8.8h-1c-.4 0-.7-.1-1.1-.2-.7-.3-1.3-.7-1.8-1.1-1.1-.9-2.5-1.6-3.5-2.6-2-2.2-2.7-5.2-4.8-7.3-.3-.3-.6-.7-.8-1l-.1.1c.9.9 1.3 2.2 1.5 3.4.2 1.3.2 2.6.7 3.8s1.3 2.3 2.2 3.3c.8 1 1.8 2 3 2.5.2.1 0 0-.1 0h-.3c-.2 0-.5-.1-.7-.1-.5-.1-.9-.3-1.4-.5-.9-.4-1.7-1-2.4-1.7-1.4-1.4-2.4-3.1-3-4.9-.4-1.4-.4-3-1.5-4.4l-.1-.1v2.3l.1 2.5c.2 1.6.5 3.3 1.4 4.6.4.7 1 1.2 1.5 1.8.5.5 1 1 1.6 1.4.4.3.9.5 1.3.7.2.1.5.2.7.4l.3.2.1.1-.1.1c-.8.5-1.8.8-2.8 1-2 .3-4.1.4-5.9-.5l-5.8-1.7c-1.8-.7-3.7-1.7-4.8-3.5h-.1c.6 1.5 1.9 2.4 3.2 3.2s2.8 1.3 4.2 1.8c2.5.8 4.8 2.1 7.2 2.9 2.5.8 5.1 1.1 7.6.8.6-.1 1.3-.2 1.9-.4l.9-.3c.1 0 .4-.1.5-.2l.5-.2c.1 0 .2-.1.2-.1l-.2.2c-.1.1-.2.3-.3.4-.3.3-.5.5-.8.7l-1.5 1.2c-.9.8-1.8 1.8-2.9 2.5a26.85 26.85 0 0 1-3.3 1.8l-3.4 1.4c-.6.2-1.2.4-1.8.5-.3.1-.6.1-.9.2h-.2c.1.1.3.1.4.2 1.2.3 2.6.3 3.9.2l3.9-.4h-.2c.9-.1 2-.4 2.8-1 .1-.1.1-.2.2-.3.1 0 .2-.1.3-.1.2-.1.4-.1.6-.2.4-.1.7-.3 1-.4l-.2.1c.9-.4 1.8-1.5 2.2-1.9l.1-.1c.8-.9.1-.1.7-.8.2-.3 0-.1.5-.7.1 0 .5-.6 1-1.2.5-.5 1.1-1 1.2-1-.5.4.8-.6-.3.3.2-.1.6-.5 1.1-.8.4-.3.8-.5.7-.5.1-.1.8-.6-.3 0l-.2.2c-.4.2-.3.2-.4.2-1.3.9-1.5 1.1-2.3 1.9-.5.6-1.1 1.5-1.5 2l-.2.2c-.3.3-1.2 1.3-.9 1-.6.5-1.3 1-2.1 1.4-.2.1-.4.2-.6.2-.1 0-.2.1-.3.1h-.2c-.1 0-.2.1-.2.2-.2.3-.6.5-1.1.7-1.7.6-3.6.7-5.4.9-.5.1-2.8 0-2 .1-.2 0-.6-.1-1-.1-.2 0-.4-.1-.6-.1-.1 0-.2-.1-.2-.1s-.1 0 0 0h.4l1-.2s-.1 0-.2.1c1.9-.5 2.2-.8 4-1.4.1-.1.9-.4 1.7-.9.8-.4 1.7-1 2.1-1.3.2-.1.3-.1.2-.1 1.5-.9 2.5-2.4 3.9-3.3l.5-.4.5-.5c.3-.3.5-.6.7-.8l.3-.4.1-.1h-.1l-.2.1c-.3.1-.6.2-.9.4-.2.1-.4.2-.5.2l-.3.1-1 .3c-1.1.4-2.6.5-4 .5s-2.7-.3-3.7-.5c-1.7-.4-4.2-1.6-6.4-2.5l.2.1-4-1.5c-1.3-.5-2.5-1.1-3.2-1.6-.6-.5-1.5-1.2-2.1-2.2-.1-.1-.1-.3-.3-.6l-.4.2c.5.8 1.4 1.8 2.6 2.5s2.5 1.2 3.7 1.6c.4.2 2.2.6 2.3.7.9.2 1.9.4 2.8.9 1 .3 2.1.4 3.1.4 1.1 0 2.1-.2 3.2-.5l1.5-.6.5-.3.1-.1-.1-.1-.3-.2c-.3-.2-.5-.3-.8-.4-1-.5-1.9-1-2.7-1.8s-1.5-1.6-2.1-2.5c-1.1-1.9-1.2-4.1-1.2-6.1v.1c0-.5-.1-1.1-.1-1.7v-1l.1.1c0 .1 0 .1 0 0 .1.1.1.2.2.3.1.2.2.3.2.5l.3 1c.2.7.3 1.4.5 2.2l-.1-.2c.4 1.4 1 2.8 2.1 4.1v.1s.2.2.3.4l.4.4s-.1 0-.5-.4c.8.9 1.6 1.7 2.7 2.3s2 .9 4.1.8c-.3-.1-.6-.3-.9-.5-.3-.1-.7-.4-.7-.4-.3-.2-.5-.4-.7-.6-.5-.4-.9-.9-1.3-1.4-.8-1-1.6-2.1-2.1-3.2-.5-1.2-.6-2.5-.7-3.8-.2-1.3-.5-2.7-1.6-3.6l-.6-.5.4.7c.3.7.9 1.1 1.3 1.7.4.5.8 1.1 1.2 1.7l2.1 3.7c.4.6.8 1.2 1.4 1.7.5.5 1.1.9 1.7 1.3 1.2.7 2.2 1.8 3.6 2.3l-.5-.2c.4.2.8.3 1.2.3h1.4l-.1-.1s.1.1.2.1h-.2.2l-.7-.6-.4-.4c-.3-.3-.5-.6-.8-.9-.5-.6-.9-1.3-1.4-2-.9-1.4-1.6-2.8-2.2-4.3 0 0 .2.5.1 0-.5-1.3-.7-2.4-.7-3.3h-.3a9.75 9.75 0 0 0 .6 1.4c0 .1.1.2-.1 0 1 2 2.5 3.7 4 5.2l2.3 2.4c.4.4.8.7 1.3 1.1.5.3 1 .6 1.6.6v-.2c-.5-.1-1-.4-1.4-.7a6.42 6.42 0 0 1-1-1.3c-.6-.9-1.2-1.9-1.6-2.9-.3-.6-.3-1.3-.4-2s-.5-1.4-1-1.9l-1.6-1.5c-.5-.5-.8-1.2-.8-1.9 0-.3 0-.8.1-.9l.9.5c.6.4 1.1.9 1.6 1.5.9 1.1 1.6 2.5 2.3 3.7l2.3 3c.4.5.9.9 1.4 1.3s1.1.7 1.7.8c-1.2-.3-2.1-1.5-2.8-2.4-.7-1-1.4-2.2-2-3.3s-1-2.4-1.4-3.6c-.5-1.2-1-2.4-2-3.2-.5-.4-1.1-.5-1.5-.4v.1c1.2 0 2.3.2 3.3.7s1.8 1.3 2.7 2.2v.1c1 1 1.8 2 2.7 3.1.2.3.5.5.6.9.2.3.4.6.8.6h.1c.1 0 .1 0 .1-.1v-.3c0-.2 0-.3.1-.5l.3-1c.8-2.8 1.7-5.5 1.8-8.4v.4-2c0-.7-.1-1.2-.2-1.1 0 0-.1-1-.2-1-.6-1.8-2-3.1-2.7-4.8-.2-.4-.2-.9-.2-1.4s.2-1 .5-1.4c0 0 .1-.2.1-.1v.2c0 .1 0 .2.1.4 0 .2.1.5.2.8.2.5.5 1 .8 1.5l-.2-.2c.7 1 1.7 2.1 2.1 2.9-.1-.1 0-.1-.2-.3 1 1.7 1.2 3.8 2 5.8.1.2.2.5.3.7s.1.5.1.8v1.6c0 1-.1 2.1-.2 3.1v-.5c-.1.9-.2 2.3-.6 3.6s-1 2.7-1.8 3.7l.2-.2s.8-1.1.7-1.1h.1c.8-1.5 1.2-3.2 1.5-4.8.4-2.1.5-3.7.5-5.4zm2.1 7c0-.1 0-.1 0 0 .1-.2.1-.1 0 0z"/><path d="M199.7 250.5l.3-.3-.3.3zm-2.5-6.5zm0-.1c0 .2 0 0 0 0zm0 .1s0-.1 0 0c0 0 0-.1 0 0zm.4-.1zm.1-.1s0-.1 0 0c-.1 0-.2 0-.2.1 0-.1 0 0 0 0v.1s-.1 0-.1.1-.1.1-.1 0v.1s0-.1 0 0c0 0 0-.1 0 0v.1-.1h.2c0-.1.1 0 .1 0l.1-.4c0 .2.1.1.2.2.1 0 .2.1.2 0h.1c.1-.1.1 0 .2-.1h.2c.1 0 .1.1.2 0 .1 0 .1-.1.2-.1 0 .1.1-.1.1 0 .1.2.1.1.2 0 .1.1.1-.1.2 0 0-.1.1.1.1.1 0 .1 0-.1 0 0s0-.1 0-.1 0-.1 0 0v.2-.4c0 .1 0 0 0 0 0-.1 0 .1 0 0h-.1v.1-.1c0-.1 0 .1 0 0v.1h-.1v.1s0-.1 0 0v.1-.1l-.1.1c0 .1-.1.1-.2 0v.2s0-.1 0 0c0 0 0-.1 0 0 0 0 0-.1 0 0-.1 0-.2.1-.2.1h-.1c0 .1 0-.1 0 0h-.1c0 .1-.1 0-.1.1s-.1 0-.1 0h-.1c0 .1-.1-.1-.1 0v.1c0 .1 0-.1-.1 0 0-.1-.1 0-.1 0-.3-.6-.3-.7-.4-.6 0-.1 0 0 0 0zm-.2 0zm2.1-.2zm-.1 1.9zm0-.1c-.1.1 0 0 0 0z"/><path d="M199.5 245.4c0 .1 0 0 0 0zm.3.2zm.1-.1s0-.1 0 0c-.1-.1-.1 0-.2 0 0-.1 0 0 0 0h-.1c-.1.1-.1 0-.1 0s0-.1 0 0h.1v.1h.1c.1-.1 0 0 .1 0 0 0 0-.1.1-.1-.1.2 0 .1 0 .2 0 0 .1.1.2 0s.1 0 .1 0h.1c.1 0 0 .1.1.1 0 .1.1-.1.1 0s.1-.1.1 0c0 .2.1.1.1 0 0 .1.1 0 .1.1.1-.1 0 .1 0 .1 0 .1.1-.1 0 0 0 .1.1-.1 0-.1-.1.1 0 0 0 .1v.1l.1-.1v-.1s-.1.1 0 0h-.1v-.1c0-.1-.1.1 0 0 0 .1 0 0-.1.1v-.1c0 .1 0 0-.1 0 0 0 0-.1 0 0h-.1v-.1h-.1c-.1.1-.1 0-.1-.1l-.1.1s0-.1 0 0c0 0 0-.1 0 0h-.2s0-.1 0 0h-.1c-.1.1-.1 0-.1.1-.1.1-.1 0-.1 0-.1.1 0-.1-.1 0v.1c-.1.1 0-.1-.1 0 .6-.5.5-.4.4-.4.1-.1 0 0 0 0zm-.1-.1zm1.4.5zm9.8-10.8zm.1.1c-.1-.1 0 0 0 0zm0-.1c-.1 0 0 .1 0 0 0 .1 0 .1 0 0z"/><path d="M210.9 235.5zm.2.1c-.1 0 0 0 0 0 .1-.1 0-.1 0-.2v-.1c-.1-.1 0-.1 0-.1v.1h-.1v.1c.1.1 0 0 0 .1l.1.1c-.2 0-.1 0-.2.1 0 .1-.1.1 0 .2v.1c.1.1 0 .1.1.2v.2c0 .1-.1.1 0 .1 0 0 .1.1 0 .2-.1 0 .1.1 0 .1-.2.1-.1.1 0 .2-.1.1.1.1 0 .2.1 0-.1.1-.1.1-.1 0 .1 0 0 0s.1 0 .1 0h-.1.4c-.1 0 0 0 0 0s-.1 0 0 0h-.1.1c.1 0-.1 0 0 0h-.3c-.1 0-.1-.1 0-.1h-.2c0-.1-.1-.1-.1-.2v-.1c-.1 0 .1 0 0 0v-.1c-.1 0 0-.1-.1-.1-.1-.1 0-.1 0-.1-.1-.1.1 0 0-.1h-.1c-.1-.1.1 0 0-.1.6-.6.5-.7.6-.8v.1c-.1 0 0 0 0-.1zm0-.2zm0 1.7zm4.3-2.6zm0 .1c-.1-.1.1 0 0 0zm0 0zm-.1.4z"/><path d="M215.4 235.1c.1-.1 0-.2 0-.2v-.2c-.1-.1 0-.1 0-.1h-.1v.1h-.1c-.1 0 0 .1-.1.2.1.1 0 .1 0 .1l.3.1c-.2-.1-.1 0-.2.1s-.2.1-.1.3v.1c0 .1-.1.1 0 .2 0 .1-.1.1-.1.2s-.1.1-.1.1c-.1 0 0 .2-.1.2s0 .1-.1.1c-.2 0-.1.1-.1.2-.1 0 0 .2-.2.1 0 .1-.1 0-.1 0-.1 0 .1.1 0 0 0 0 .1.1 0 .1l-.1-.1s.1 0 .1.1c0 0-.1-.1 0 0v-.2h.1c.1.1-.1-.1 0 0-.1-.1 0 0 0-.1h.1c0-.1.1 0 0-.1v-.1c.1.1.1 0 .1 0v-.1c-.1-.1 0-.1.1-.1l-.1-.1c.1-.1 0-.2.1-.3v-.1s.1 0 0-.1c0-.1 0-.1.1-.1-.1-.1 0-.1 0-.2s.1-.1.1-.1v-.1c-.1-.1.1 0 0-.1l-.1-.1c-.1-.1.1 0 0-.1.1 0 0-.1 0-.1.5.6.6.6.6.5 0 .1 0 0 0 0z"/><path d="M215.4 234.9zm-1 2.1zm-20.8 9.3v-.1zm0-.1c.1.1 0 0 0 0zm0 0zm.2-.1zm0-.1s0-.1 0 0c-.1-.1-.1 0 0 0-.1 0-.1.1 0 0-.1 0-.1 0 0 0-.1 0-.1.1-.1.1v.3s0-.1 0 0c0 0 0-.1 0 0v-.1c0 .1 0 0 0 0v-.1h.1c0-.1 0 0 0 0v-.2c.1.2.1.1.1.1s.1.1.1-.1c0-.1.1 0 .1-.1h.1s.1.1.1 0c0 0 0-.1.1-.1 0 .1 0-.1.1 0s.1 0 .1-.1c0 0 0-.1.1 0 0-.1.1.1.1 0 0 .1 0-.1 0 0s-.1-.1 0-.1l.1.1v.1c0-.1-.1-.1-.1-.1v-.1s0 .1 0 0v.1-.1c0-.1 0 .1 0 0v.2s0-.1 0 0v.1-.1.1c0 .1 0 .1-.1 0v.2s0-.1 0 0l-.1.1c0 .1 0-.1 0 0h-.1v.1c0 .1 0 0-.1 0 0 .1-.1-.1 0 0v.1c0 .1 0-.1 0 0-.5-.4-.5-.4-.6-.4.1-.1.1 0 0 0 .1 0 0-.1 0 0 0-.1 0 0 0 0zm-.1 0zm1-.4zm60.2 57.9l-24.2-30.9"/></g><g class="C D"><path d="M213.2,250.1" class="B K"/><path d="M213.9 239.7" class="H P"/></g><path d="M225,217.7" class="B"/><g class="H"><path d="M206.8 241.2v-.1.1zm-.1 0c0-.1 0 .1 0 0z"/><path d="M206.7 241.2s0 .1 0 0c0 0 0 .1 0 0zm-.6.2z"/><path d="M206 241.6c0-.1.1 0 0 0 .2 0 .2-.1.3-.1 0 .1 0 0 .1 0v-.1c.1 0 .1 0 .2-.1 0-.1.1-.1.2-.1v-.1s0 .1-.1 0c0 0 0 .1 0 0 0 0-.1 0-.1.1v-.1.1c-.1 0-.2 0-.3.1 0 .1-.1 0-.1.1h-.1c-.1-.1-.2.1-.4.1-.1 0-.3 0-.3.2 0 0-.1 0-.1.1s-.2.1-.2.2c-.1 0-.2.1-.3.2s-.2 0-.2.1c-.1 0-.1.2-.2.1s-.1.2-.2.1-.2 0-.3.1c-.1 0-.2.1-.3 0 0 .1-.1-.1-.1-.1 0-.1 0 .1-.1 0 0-.1 0 .1 0 .1s0 .1 0 0v-.2.4c0-.1 0 0 0 0 0 .1 0-.1 0 0h.1v-.1.1c0 .1 0-.1 0 0v-.1h.1c0-.1.1 0 .1-.1 0 0 .1.1.1 0 0 0 .1 0 .1-.1 0 .1 0 .1.1.1l.1-.1c0-.1.1-.1.3-.1v-.2h.1s0 .1 0 0c.1 0 .2-.2.3-.2l.1-.1c0-.1.1.1 0-.1 0-.1.1-.1.2-.1 0-.1.1-.1.1-.2s.1-.1.2-.1l.1-.1c0-.1.1 0 .1-.1v-.1c0-.1.1 0 .1-.1.1.1.1 0 .1 0 0 .6.1.6.2.6-.1 0 0 0 0 0zm.3-.2zm-3.1 1.2zm4.2-6.7l-.1.1z"/><path d="M207.3 236c.1-.1 0 0 0 0z"/><path d="M207.3 236c0-.1 0 0 0 0zm-.3-.5z"/><path d="M206.8 235.4s0 .1 0 0c0 .2.1.2.2.3 0 0 .1 0 0 .1 0 0 .1.1.2.1s.1 0 .1.1c0 0-.1 0 0 0h-.1v-.1h-.1c0-.1-.1-.1-.1-.2-.1 0 0-.1-.1-.1 0-.1-.1-.2 0-.3 0-.1 0-.3-.1-.3v-.1c-.1-.1 0-.2-.1-.2 0-.1 0-.2-.1-.3s0-.2 0-.3-.1-.2-.1-.3c.1-.1-.1-.1 0-.2s0-.2-.1-.3c.1-.1-.1-.2 0-.3-.1 0 .1-.1.1-.1.1 0-.1 0 0 0s-.1 0-.1 0-.1 0 0 0h-.2c-.1 0 .1 0 0 0v.1c-.1 0 .1 0 0 0h.1v.1c.1 0 0 .1.1.1 0 0-.1 0 0 .1 0 0 0 .1.1.1h-.1l.1.1c.1.1.1.2 0 .2h.2s-.1 0 0 0c0 .1.1.2.1.4v.1c.1 0-.1 0 .1 0 .1.1.1.1.1.2.1 0 0 .1.1.1.1.1 0 .1.1.2v.1c.1 0-.1.1.1.2h.1c.1 0 0 .1.1.1-.1.1 0 .1 0 .1-.7.1-.8.1-.7.2z"/><path d="M207 235.7zm-.8-3.1zm9.1-4.6zm0 .1c-.1-.1.1 0 0 0zm0 0zm-.6 1.2zm-.1.4c0-.1.1-.1.1-.2.1-.1.1-.3.2-.5.1 0 0-.1.1-.1.1-.1.1-.3.1-.4 0-.2.1-.2.1-.3v.1c0 .1-.1.1 0 .2h-.1v.1c-.1.2-.2.3-.3.5 0 .1-.1.2-.1.3v.2c-.2.2-.3.4-.4.6-.2.2-.4.4-.4.8 0 .1-.1.1-.1.2 0 .2-.2.4-.2.6-.1.2-.2.4-.3.7 0 .2-.2.3-.2.5-.1.2 0 .4-.1.6-.1.1 0 .3-.1.4-.2.2-.2.5-.1.7-.1.2 0 .4-.1.6.1.1-.1.2-.1.3-.1 0 .1.1 0 .1s.1.1.1.1c-.1 0 0 .1-.1.1h-.1s0 .1 0 0h.3s.1 0 .1-.1c-.1 0 0 0 0-.1.1 0-.1 0 0 0v-.2s0-.1-.1 0c.1 0 .1-.1.1-.1.1 0-.1-.1 0-.1-.1 0 0-.1-.1-.1 0-.1 0-.1.1-.2-.1-.1 0-.1-.1-.2 0 0 .1-.1 0-.1v-.2h.1v-.2h.1c-.1-.2 0-.4.1-.5l-.1-.1s.1 0 .1-.1c0 0 .1 0 0-.1.1-.3.1-.6.2-.8v-.1c.1-.1 0-.1.1-.2 0-.1.1 0 0-.1 0-.1.1-.3.1-.4-.1-.2.1-.2.1-.4s.1-.3.2-.4c0-.1 0-.1.1-.2 0-.2.2-.2.2-.3 0 0 .1-.1 0-.1-.1-.1.1-.1.1-.2v-.1c.1 0 .1-.2.1-.2 0-.1.1-.1.1-.2.2 0 .2-.1.2-.1zm.4-.7zm-2.2 6.7zm5.4 4.6zm.1-.2l-.1.1c.1.1 0-.1.1-.1zm0 0zm2.2-2.7zm.2-.9c0 .2-.1.3-.2.5-.2.4-.3.8-.5 1.2v.1c-.1.1-.1.3-.2.3-.2.3-.4.6-.7.9-.2.3-.5.5-.7.6.1 0 .1-.2.2-.2s0-.1.1-.1l.3-.3c.1 0 .1-.1.2-.1v-.1c.4-.3.7-.8.9-1.2 0-.3.3-.5.3-.7 0-.1.1-.2.1-.3v-.1c.3-.6.4-1.3.5-2 .1-.8.3-1.4.2-2.2v-.6c0-.5.1-1 .1-1.5l.3-1.8c.1-.5.3-.9.4-1.4.2-.5.2-1 .5-1.5.2-.3.2-.7.4-.9.4-.5.6-1 .8-1.7.3-.5.4-1.1.7-1.5.1-.3.4-.4.5-.7.1 0 .1-.2.2-.2s0-.2.1-.2h.1v-.1c.1.1.1-.1.2 0 0 0 .1 0 0 .1l.1-.1c0-.1 0-.1-.1-.1h-.2c0 .1-.1.1-.1.1-.1 0 0 .1-.1.1-.1.1-.3.3-.4.5 0 0-.1.1 0 .1-.1 0-.2.1-.2.2-.1 0 0 .2-.1.2.1.1-.1.2-.1.2-.1.2-.2.3-.3.5 0 .2-.2.3-.1.4-.1.1-.2.2-.2.3-.1.1-.1.3-.1.4-.1 0-.1.1-.2.1 0 .1-.1.3-.1.4 0 0 0 .1-.1.1-.1.4-.4.9-.6 1.2 0 .1.1.2.1.2 0 .1-.1.1-.1.2s-.1.1-.1.2v.1c-.3.7-.4 1.4-.6 2.1v.1c-.1.2-.1.4-.1.5s-.1.2 0 .3c0 .4-.1.7-.2 1.1 0 .3-.1.6 0 1 0 .4-.1.8-.1 1.3v.5c.1.3-.1.6-.1.9.1.1 0 .2.1.2v.1c.1.2-.1.4 0 .6v.2c-.1.2 0 .4-.1.7 0 .1-.1.3-.1.4v.1c-.6 0-.6.1-.6.3zm-.7 1.8zm5.4-17.6zm-6.1 5.2v.1zm0 .2c0-.2.1 0 0 0zm0 0zm-.7 1.4zm0 .5c0-.1.1-.1.1-.2.1-.2.1-.4.1-.6.1 0 0-.1.1-.1.1-.2.1-.3.2-.5 0-.2.1-.3.2-.4-.1 0 0 .1-.1.1v.1c0 .1-.1.1-.1.2-.1 0 0 .1-.1.1v.1l-.3.6c.1.1-.1.2-.1.4v.3c-.2.3-.2.6-.3.9s-.2.7-.1 1v.3c.1.2 0 .5.1.7v.9c0 .2-.1.4 0 .7-.1.2.1.5 0 .7-.1.1.1.3 0 .5-.2.3-.1.5-.1.8-.1.2 0 .5-.2.7 0 .1-.2.2-.2.3-.1 0 .1.1-.1.1-.1 0 .1.1 0 .1h-.1c-.1 0 0 .1-.1 0h-.1v.1c.1 0 .1.1.1.1h.2v-.1c.1 0-.1-.1 0 0 0-.1.1-.2.1-.3v-.1c.1 0 .1-.1.1-.1.1 0-.1-.1.1-.1-.1 0 .1-.1 0-.1 0-.1.1-.2.1-.2-.1-.1.1-.1 0-.2 0 0 .1-.1.1-.2v-.2c.1 0 .1 0 .1-.1v-.2s0-.1.1-.1c-.1-.2 0-.4.1-.6 0 0-.1-.1-.2-.1 0 0 .1-.1 0-.1 0 0 .1-.1 0-.1 0-.3-.1-.7 0-1v-.3c-.1-.1.1-.1 0-.1v-.5c-.1-.1 0-.3-.1-.4-.1-.2 0-.4 0-.6v-.2c-.1-.1.1-.3 0-.4-.1 0 0-.1-.1-.1-.1-.1.1-.2 0-.3v-.1c.1-.1 0-.2 0-.3v-.2c.5-.5.5-.6.5-.6zm.3-.9zm-1.1 8.5zm-12.2 4.1zm0-.1c0 .1.1 0 0 0zm.5.2zm.2-.1c-.1 0-.1-.1 0 0-.1-.1-.2 0-.2 0 0-.1 0 0 0 0h-.2c-.1.1-.1 0-.1 0s0-.1 0 0h.1v.1c.1.1.1 0 .2.1.1-.1.1 0 .1 0h.1v-.2c0 .2.1.1.2.2.1 0 .2.1.3 0h.1c.1-.1.1 0 .2-.1h.2c.1 0 .1.1.2 0 .1 0 .1-.1.2-.1 0 .1.1-.1.1 0 .1.2.2 0 .2-.1.1.1.1-.1.2 0 0-.1.1.1.1.1 0 .1 0-.1 0 0s0-.1 0-.1 0-.1 0 0v.1-.4c0 .1 0 0 0 0 0-.1 0 .1 0 0h-.1v.1-.1c0-.1 0 .1 0 0v.1h-.1c0 .1 0 0-.1.1 0 0 0-.1 0 0l-.1.1v-.1l-.1.1c0 .1-.1.1-.2 0v.2s0-.1 0 0c-.1 0-.2.1-.3.1h-.1c0 .1 0-.1 0 0h-.1c0 .1-.1 0-.1.1-.1.1-.1 0-.2 0h-.1c0 .1-.1-.1-.1 0v.1c0 .1 0-.1-.1 0 0-.1-.1 0-.1 0 0-.4 0-.4-.1-.4zm-.3 0zm2.4-.2z"/></g><g class="B"><path d="M99.9 79.9zm0 .1c-.1-.1 0 0 0 0zm0 0zm-.8.6z"/><path d="M99 80.9s.1 0 .1-.1l.3-.3c.1 0 0-.1.1-.1.1-.1.2-.1.2-.2s.1-.2.2-.2c0 0 0 .1-.1.1 0 0 0 .1 0 0 0 0-.1 0-.1.1h-.1v.1l-.3.3c0 .1-.1.1-.2.1 0 0 0 .1-.1.1v.1c-.2 0-.3.2-.5.3s-.4.1-.5.4c0 0-.1 0-.1.1-.1.1-.3.1-.3.3-.2.1-.3.2-.5.3-.1.1-.3.1-.4.1-.2 0-.2.2-.4.2-.1-.1-.2.2-.3.1-.2-.1-.3 0-.5.2-.2 0-.3.2-.5.1-.1.1-.2-.1-.2 0 0-.1 0 .1-.1 0 0-.1 0 .1 0 .1s0 .1 0 0 0 0-.1-.1v-.1.4s0 .1.1.1c0-.1 0 0 0 0s0-.1 0 0c0 0 .1 0 .2-.1v-.1c0 .1.1.1.1.1 0 .1 0-.1.1 0 0-.1.1 0 .1-.1h.2c0-.1.1 0 .1-.1h.1s.1 0 .1-.1c0 .1 0 .1.1.1l.1-.1c.1-.2.2-.2.4-.1v-.2h.2s0 .1 0 0c.2 0 .4-.2.6-.3.1 0 .1-.1.1-.1 0-.1.1 0 .1-.1.1-.1.2-.1.3-.2 0-.1.2-.1.2-.2.1-.1.2-.1.3-.2l.1-.1c0-.1.2 0 .2-.2 0-.1.1 0 0-.1 0-.1.1 0 .1-.1 0 0 0-.1 0 0 .1 0 .1-.1.2-.1 0-.1.1-.1.1-.1.1.1.1 0 .2 0z"/><path d="M99.4 80.5zm-4.8 2.4zm1.4 2v.1-.1z"/><path d="M96 84.9c0 .1 0-.1 0 0z"/><path d="M96 84.9c.1 0 .1-.1 0 0 .1 0 0-.1 0 0zm1.3-.4zm.2-.4c0 .1-.1 0-.2.1s-.2.2-.4.3c-.1 0-.1.1-.1 0v.1c-.1.1-.2.1-.4.2-.1.1-.2.1-.3.1v.1s.1-.1.1 0c0 0 0-.1 0 0 .1 0 .1 0 .2-.1 0 .1.1 0 .1 0v-.1c.2 0 .4-.1.5-.2 0-.1.2-.1.3-.2 0 0 0-.1.1-.1v-.1c.3-.1.4-.3.6-.4.2-.2.5-.3.5-.6 0-.1.1-.1.1-.2 0-.2.2-.3.3-.5s.3-.4.3-.6c.1-.2.2-.3.3-.4s.1-.4.2-.5 0-.3.2-.3c.2-.1.2-.4.2-.6.1-.2.1-.4.3-.5 0-.1.2-.1.2-.3.1 0-.1-.1 0-.1s-.1-.1 0-.1 0-.1.1 0h.1V79c-.1 0-.1-.1-.2-.1h-.2v.1c-.1 0 .1.1 0 0 0 .1 0 .1-.1.2v.1c-.1 0-.1 0-.1.1-.1 0 .1.1-.1.1.1 0 0 .1 0 .1 0 .1-.1.1-.1.2s-.1.1 0 .2l-.1.1v.2h-.1v.2h-.1c0 .2-.1.3-.2.4l.1.1s-.1 0-.1.1c0 0-.1 0 0 .1-.1.2-.2.5-.3.7v.1c-.1 0 0 .1-.1.2 0 .1-.1 0 0 .1 0 .1-.1.2-.2.3 0 .2-.1.2-.1.3 0 .2-.2.2-.3.4l-.1.1c0 .1-.2.1-.2.3 0 .1-.1 0 0 .1 0 .1-.1.1-.1.2v.1c-.1 0-.1.1-.2.2 0 .1-.1.1-.1.1-.3-.4-.3-.3-.3-.3zm-.6.4zm3.6-5.4zm1.8 3.1h.1zm.1.1c-.1-.1 0 0 0 0z"/><path d="M102.4 82.3c-.1 0 0 0 0 0-.1 0 0 0 0 0zm-1 .8z"/><path d="M101.2 83.3c0-.1.1 0 .2-.1.2-.1.3-.2.4-.3.1 0 .1-.1.1-.1l.3-.3c0-.1.1-.2.2-.3 0 0 0 .1-.1.1l-.1.1h-.1v.1c-.2.1-.3.2-.4.3 0 .1-.2.1-.2.2l-.1.1v.1c-.2 0-.4.2-.7.2-.3.1-.5.1-.7.3-.1 0-.1 0-.2.1-.2.1-.4.1-.5.2-.2 0-.4.1-.7.2-.2.1-.4 0-.5 0-.2 0-.4.2-.6.1-.1-.1-.3.1-.4 0-.2-.1-.4 0-.7.1-.2 0-.4.1-.6 0-.1.1-.2-.1-.3-.1 0-.1-.1.1-.1 0s0 .1-.1.1c0 0 0 .1 0 0s-.1 0-.1-.1v-.1.4s0 .1.1.1c0-.1 0 0 .1 0 0 .1 0-.1 0 0h.2s.1 0 0-.1c0 .1.1.1.1.1 0 .1 0-.1.1 0 0-.1.1 0 .1-.1h.2c0-.1.1 0 .2-.1 0 0 .1.1.1 0 .1 0 .1 0 .2-.1 0 .1 0 .1.1.1 0 0 .1 0 .2-.1h.1c.1-.1.3-.1.5 0 0 0 0-.1.1-.2h.2s0 .1 0 0c.3 0 .5-.2.8-.2h.2c0-.1.1.1.1-.1.1-.1.3-.1.4-.1.1-.1.2-.1.3-.2s.3-.1.4-.1.1 0 .2-.1.2 0 .3-.1c0-.1.1 0 0-.1 0-.1.2 0 .2-.1h.1c.1.1.1-.1.2-.1 0-.1.1 0 .1-.1 0 .5 0 .5.1.4zm.6-.3zm-6.5 1.6c-.1 0 0 0 0 0zm2.4 3.2zm0-.1c0 .1 0 0 0 0zm.1 0s0-.1 0 0z"/><path d="M99.2 87.2zm.2-.4c0 .1-.1.1-.2.1-.2.1-.3.2-.5.3-.1 0-.1.1-.1 0v.1c-.1.1-.3.1-.4.2s-.3.1-.4.1v.1s.1-.1.1 0c0 0 0-.1 0 0 .1 0 .1 0 .2-.1 0 .1.1 0 .1 0v-.1c.2 0 .4-.2.6-.2 0-.1.2-.1.3-.2l.1-.1v-.1c.3-.1.5-.3.7-.5.3-.2.5-.4.6-.7 0-.1.1-.1.1-.2l.3-.6c.1-.2.2-.5.3-.7 0-.2.2-.4.2-.6.1-.2 0-.5.1-.7.1-.1 0-.3.1-.4.2-.2.1-.5.1-.8.1-.2 0-.5.1-.7-.1-.1.1-.2.1-.4.1 0-.1-.1 0-.1s-.1-.1-.1-.1-.1 0 0 0 0-.1.1-.1h.1s0-.1-.1-.1h-.3s-.1 0-.1.1c.1 0 0 0 0 .1-.1 0 .1 0 0 0v.2s0 .1.1 0c-.1 0-.1.1-.1.1-.1 0 .1.1 0 .1.1 0 0 .1.1.1v.2c.1.1 0 .1.1.2 0 0-.1.1 0 .2 0 .1 0 .1.1.2-.1 0-.1 0-.1.1v.2s0 .1-.1 0c.1.2 0 .4-.1.6l.1.1-.1.1s-.1.1 0 .1c0 0-.1 0 0 0-.1.3-.1.6-.2.9v.1c-.1.1 0 .2-.1.2 0 .1-.1.1 0 .1 0 .2-.1.3-.2.4.1.2-.1.2-.1.4s-.2.3-.3.5c0 .1-.1.1-.1.2 0 .2-.2.2-.2.3s-.1 0 0 .1c0 .2-.1.1-.2.2 0 0 0 .1-.1.1s-.1.1-.2.2c0 .1-.1.1-.1.1-.2 0-.2.1-.3.1zm-.6.5zm3-6.8zm1.8 3.4v.1zm0 .1c-.1-.1 0 0 0 0zm0 0zm-.7.9z"/><path d="M102.7 85.2c0-.1.1 0 .1-.1l.3-.3c.1 0 0-.1.1-.1.1-.1.1-.2.2-.3 0-.1.1-.2.1-.3v.1s-.1.1 0 .1h-.1v.1c-.1.1-.2.3-.3.4 0 .1-.1.1-.2.2 0 0 0 .1-.1.1v.1l-.6.3c-.2.1-.5.1-.6.4-.1 0-.1 0-.2.1-.1.2-.3.1-.4.3-.2.1-.4.1-.6.2-.1.1-.3 0-.5.1-.2 0-.3.2-.5.2-.1-.1-.2.2-.3.1-.2-.1-.4 0-.6.1-.2 0-.4.1-.6 0-.1.1-.2-.1-.3-.1 0-.1-.1.1-.1 0s0 .1-.1.1c0 0 0 .1 0 0s-.1 0-.1-.1v-.1.3s0 .1.1.1c0-.1 0 0 0 0 0 .1 0-.1 0 0h.2s.1 0 0-.1c0 .1.1.1.1.1 0 .1 0-.1.1 0 0-.1.1 0 .1-.1h.2c0-.1.1 0 .1-.1 0 0 .1.1.1 0 0 0 .1 0 .1-.1 0 .1 0 .1.1.1 0 0 .1 0 .1-.1h.1c.1-.1.3-.1.5-.1v-.2h.2s0 .1 0 0c.2 0 .5-.2.7-.2.1 0 .1-.1.2-.1 0-.1.1.1.1-.1.1-.1.2-.1.3-.1.1-.1.2-.1.3-.2s.3-.1.4-.2c.1 0 .1-.1.1-.1 0-.1.2 0 .3-.2 0-.1.1 0 0-.1 0-.1.1 0 .2-.1 0 0 0-.1.1 0 .1 0 .1-.1.2-.1 0-.1.1-.1.1-.1.2.3.3.2.3.2z"/><path d="M103.2 84.7zm-5.8 2.1zm1.3 2.6v-.1zm.1-.1c0 .1-.1-.1 0 0z"/><path d="M98.8 89.3s0-.1 0 0c0 0 0-.1 0 0zm1.3-.5zm.3-.3c0 .1-.1 0-.2.1-.2.1-.3.2-.4.3-.1 0-.1.1-.1 0v.1c-.1.1-.3.1-.4.2s-.2.1-.4.1v.1s.1-.1.1 0c0 0 0-.1 0 0 .1 0 .1 0 .2-.1h.1v-.1c.2 0 .4-.1.6-.2 0-.1.2-.1.3-.2l.1-.1v-.1c.3-.1.5-.3.7-.4.3-.2.5-.3.6-.6 0-.1.1-.1.2-.2.1-.2.3-.3.3-.5.2-.2.3-.4.4-.6s.3-.3.3-.5c.1-.2.1-.4.2-.6.1-.1 0-.3.1-.4.2-.2.2-.4.2-.7.1-.2 0-.5.2-.7-.1-.1.1-.2.1-.3.1 0-.1-.1 0-.1s-.1-.1-.1-.1-.1 0 0 0 0-.1.1-.1h.1v-.1h-.3s-.1 0-.1.1c.1 0 0 0 0 .1-.1 0 .1 0 0 0v.2s0 .1.1 0c-.1 0-.1.1-.1.1-.1 0 .1.1 0 .1.1 0 0 .1.1.1 0 .1-.1.1-.1.2.1.1-.1.1 0 .2l-.1.1v.2h-.1v.2s0 .1-.1 0c.1.2 0 .4-.2.5l.1.1s-.1 0-.1.1c0 0-.1 0 0 .1-.1.2-.2.6-.3.8v.1c-.1 0-.1.1-.1.2s-.1 0 0 .1a.76.76 0 0 1-.2.4c0 .2-.1.2-.2.4 0 .2-.2.3-.3.4-.1 0-.1.1-.1.1 0 .2-.2.1-.3.3 0 .1-.1 0 0 .1 0 .2-.2.1-.2.2 0 0 0 .1-.1.1s-.1.1-.2.2c0 .1-.1.1-.1.1-.2-.2-.3-.2-.3-.1z"/><path d="M99.7 88.9zm3.8-6zm.2-.1zm0-.1c0 .2 0 0 0 0zm.1 0s-.1 0 0 0zm-.6.4z"/><path d="M103 83.5c0-.1.1-.1.2-.1.2-.1.3-.3.4-.4.1 0 .1-.1.1-.1l.3-.3v.2h-.3v.1c.1 0 .1-.1.1 0 0 0 0-.1 0 0v-.4h-.1v.1c-.2.1-.3.3-.5.4 0 .1-.2.1-.2.2l-.1.1v.1c-.3.1-.5.3-.7.4-.3.2-.5.2-.7.5-.1.1-.2.1-.2.1-.1.2-.4.2-.5.4-.2.1-.4.3-.7.4-.2.1-.4.1-.5.3-.2.1-.3.3-.5.4-.1-.2-.1.1-.3.1-.3 0-.5.2-.6.4-.2.1-.4.3-.6.3-.1.1-.2 0-.3.1-.1 0 0 .1-.1.1v.1c-.1-.1 0 .1-.1-.1v-.1s-.1 0 0 .1l-.1.1h.1c0-.1 0 0 0 0s0-.1 0 0c.1-.1.1-.1.2-.1 0 0 .1 0 0-.1.1.1.1 0 .1 0 .1.1 0-.1.1 0 0-.1.1 0 .1-.1.1 0 .2 0 .2-.1s.1 0 .1-.1c0 0 .1 0 .1-.1.1 0 .1-.1.1-.2.1.1.1 0 .1.1 0-.1.1-.1.1-.2h.1a.55.55 0 0 1 .5-.3v-.2h.2c.3-.1.5-.4.7-.5V85c.1 0 .1-.1.2-.1 0-.1.1 0 .1-.1.1-.1.2-.2.4-.2.1-.2.2-.1.3-.3s.3-.2.4-.3c.1 0 .1-.1.2-.1 0-.2.3-.1.3-.2s.1 0 0-.1c0-.2.2 0 .2-.2 0 0 0-.1.1-.1s.1-.1.2-.2c0-.1.1-.1.1-.1.6.6.7.5.7.5z"/><path d="M103.6 83zm-6.4 4.1zm7.5-2.1v.1zm0 .1c0-.1.1.1 0 0z"/><path d="M104.7 85.1s0 .1 0 0c0 .1.1.1 0 0zm-.7 1z"/><path d="M103.9 86.4c0-.1.1-.1.1-.1a.76.76 0 0 0 .2-.4c.1 0 0-.1.1-.1.1-.1.1-.2.2-.3 0-.1.1-.2.2-.3v.1l-.1.1h-.1v.1c-.1.1-.2.3-.3.4 0 .1-.1.1-.2.2 0 0 0 .1-.1.1v.1c-.2.1-.3.3-.5.5s-.4.3-.5.6c0 .1-.1.1-.1.2-.1.2-.3.2-.3.4-.2.1-.3.3-.5.4-.1.1-.3.2-.4.3-.2.1-.2.3-.4.3-.1 0-.2.2-.3.2-.3-.1-.4.1-.6.3-.2 0-.4.2-.6.1-.1.1-.2-.1-.3 0 0-.1-.1.1-.1 0s0 .1 0 .1 0 .1 0 0-.1 0-.1-.1v-.1.4s0 .1.1.1c0-.1 0 0 0 0s0-.1 0 0h.2s.1 0 0-.1c0 .1.1.1.1.1.1.1 0-.1.1 0 0-.1.1 0 .1-.1h.2c0-.1.1 0 .1-.1h.1s.1 0 .1-.1c0 .1.1.1.1.1 0-.1.1-.1.1-.1h.1c.1-.2.3-.2.5-.2v-.2h.2c.2-.1.4-.3.6-.5v-.1c.1 0 .1-.1.1-.1 0-.1.1 0 0-.1l.3-.3c0-.1.2-.2.2-.3l.4-.4c0-.1.2-.1.2-.2s.1 0 0-.1c0-.1.1-.1.1-.2v-.1c.1 0 .1-.1.1-.2s.1-.1.1-.1c.5 0 .5-.1.5-.2zm.4-.5zm-5.1 3.8zm5.7-5.8z"/><path d="M105 83.9c-.1 0 0 0 0 0zm-.1.3zm.1.2c0-.1 0 0 0 0 .1-.1 0-.1 0-.2v-.1c-.1-.1 0-.1 0-.1h-.1v.1h-.1v.1c.1.1 0 0 0 .1l.2.1c-.2 0-.1 0-.2.1s-.1.1-.1.2v.1c.1.1-.1.1 0 .2 0 0-.1.1-.1.2s-.1.1-.1.1c-.1 0 .1.1 0 .2-.1 0 .1.1 0 .1-.2 0-.1.1-.1.2-.1 0 0 .1-.1.1.1.1-.1 0-.1 0-.1 0 .1.1 0 0-.1 0 .1.1.1 0-.1-.1 0 0-.1 0h-.1c.1 0 .1.1.1.1h.1s-.1-.1 0 0v-.1h.1c.1 0-.1-.1 0 0-.1 0 0 0 0-.1h.1c-.1 0 0 0 0-.1v-.1h.1v-.1c-.1-.1 0-.1.1-.1l-.1-.1c.1-.1 0-.2 0-.2v-.2c-.1-.1 0-.1 0-.1-.1-.1 0-.1 0-.1-.1-.1.1 0 0-.1h-.1c-.1-.1.1 0 0-.1.5 0 .4 0 .5-.1v.1c-.1 0 0-.1 0-.1z"/><path d="M105 84.2zm-.6 1.7z"/></g><g class="C"><path d="M230.9,272.6" class="E G H"/><path d="M90 83.2l-20.5-2.7-24.2-34.1S35.6 29.5 51.8 17C69.5 6.4 82 20.6 82 20.6l11.3 15.3 13.2 18.7-4.7 21.1C98.9 83.2 90 83.2 90 83.2" class="B J L"/></g><path d="M89.9 69.6L75.1 49.3 57.3 62.1l13.1 18.2 20.4 2.4z" class="B"/><g class="F"><path d="M92.8 36.5l13.1 18.3-4.3 20.2c-2.7 7.5-11.3 7.7-11.3 7.7l-.4-13-14.8-20.4 17.7-12.8z"/><path d="M89.9 69.6l12.4 2c-.2 1.8-1 4.1-1 4.1l-8.5-1.9-.7 8.9c-1 .5-4.2-.2-4.2-.2l2-12.9z" class="C E G"/><path d="M57.3 62.1L46 46.5s-9.4-16.4 6.1-29l23 31.8-17.8 12.8z"/></g><path d="M45.4 25.7l7.5 10.5 3.4-4.5L48.7 21c-.1-.1-2.4 2.5-3.3 4.7zm-1.1 2.4l7.2 10.1-2.9 4.1-5.5-7.7c.1-.1.1-3.6 1.2-6.5zm9 18.5c6.5.4 8.1-4.6 8.1-4.6l-.1-2.7c-3.9 0-5.8 1.4-5.8 1.4-2.9 1.7-4.6 6.7-4.6 6.7l2.4-.8zm39.5-10.1L81.6 20.9S69.1 6.7 52.1 17.4l23 31.8 17.7-12.7z" class="B"/><g class="C"><g class="F"><path d="M79.3 27.9c-1.7 6.3-6.9 6.3-6.9 6.3l-2.5-1c1.2-3.7 3.2-5.1 3.2-5.1 2.5-2.2 7.8-2.3 7.8-2.3l-1.6 2.1z" class="D P"/><path d="M62.1 13.7l7.5 10.5-5.4 1.7-7.6-10.7s3.4-1.3 5.5-1.5zm9 .7l5.6 7.8-4.8 1.4-7.3-10.1s3.3-.1 6.5.9z" class="E G"/></g><path d="M214.4 238.6l20 2.8 14.5 17.1 11.6 14.9s11.1 17.1-4.7 30.5c-17.4 11.4-30.6-2.4-30.6-2.4l-11.9-15.2-13.8-18.1 3.2-21.3c2.7-7.9 11.7-8.3 11.7-8.3" class="B J L"/></g><path d="M213.5 250.5l17.3 22.1-17.2 13.4-13.7-17.9 3.6-20.6z" class="B"/><g class="F"><path d="M213.6 239.3l20.4 2.8 14.2 17-17.5 13.5-17.3-22.1-10-3c2.6-7.6 10.2-8.2 10.2-8.2z"/><g class="C E G"><path d="M203 249.7l.3-1.5 9 .7 1.8-9.5c.9-.1 1.5.2 1.5.2l-2.1 10.9-10.5-.8z"/><path d="M203.3 248.2s.1-.5.5-1.5l7.3.5 1.4-7.8c1-.2 1.7-.2 1.7-.2l-1.8 9.6-9.1-.6z"/><path d="M203.8 246.7s.2-.6.7-1.4l5.3.4 1.1-5.7 1.5-.5-1.4 7.8-7.2-.6z"/></g><path d="M213.7 286.1l11.8 15.1s13.1 13.7 29.6 2.3l-24.2-30.9-17.2 13.5z"/></g><path d="M248.3 259.1l11.8 15.2s10 16-5 29.2l-24.2-30.9 17.4-13.5z" class="B"/><path d="M240.4 88.7" class="G I K"/><path d="M222.2 91.9c-1.3 2.5-3.2 4.9-4.8 7.2-1.4 2-2.9 4.1-4.8 5.7-2.1 1.9-3.6 2.6-4.2 5.7l-.5-18.5c2.2-.2 2.7-3.6 3.8-5.1 1.3-1.6 3.5-3.3 4.3-5.3l-1.8-.3c-4.3-1.2-8.1 1-12.3 1.6-1.1.2-2.3-.2-3.4-.2-2.5.1-5.4 1.7-5.4 1.7l-1.2.7c1.4-2.4 4.7-6.1 7.3-6.9 1.7-.5 3.9-.9 5.7-1 2.5-.2 5.1-.7 7.5-.7-5.6-.2-11.2.5-16.8.4-5.7-.1-10.3 1.9-14.9 5.1l1 .1c1-3.8 4.5-7.7 7.8-9.5 2.3-1.3 5-.9 7.4-.8 4.9.2 7.6.3 14.4 1.6 0 0 3.6 1 5.2 1.1-1.8-.2-3.8-2.6-5.1-3.9-1.1-1.2-2-2.9-3.3-3.8-3.9-2.9-9.3-3.5-14.3-4.1l2.3-.8c2.9 0 6.8-.1 9.6.8 2.6.8 4.6 2.4 6.6 4.2 1.4 1.3 3.5 2.6 5.3 3.5 1.1.6 2.3 1.4 3.6 1.5l10.1 7.7c1.9 1.8 4.7 4.2 6.9 5.8 2.3 1.7 4.2 4.2 5.7 6.6 2.5 4 6.8 12.6 1.3 16-.6.5-1.4.8-2.1 1l-1.3-.2c1-.8 2.8-2.8 3.3-4.1.7-1.9-.1-4.3-.6-6.1-.6-2.3-1.8-4.2-3.5-5.9-1.4-1.4-3.5-3.3-5.4-3.9l-.9-.2c-.1 2 1.8 3.7 2.4 5.4.7 1.9.8 4.1.7 6.1-.2 2-1.5 3.3-1.7 5.2s1.7 3.2 1.9 5.1c.1.7 1.3 1.7.9 2.3l-.6 1.2c-.2-.8-.7-1.4-1.1-2.3-.4-.8-3.3-2.9-3.2-5.1.2-2.3 1.8-3.9 1.8-6.3 0-2.3-.7-3.7-1.8-5.6a27.55 27.55 0 0 0-1.7-2.9c-.8-1-1.5-2-2.1-3.1 0 0-.6-1.7-.4-3.1-2.3 3 1.1 8.9 1.4 13.4.2 2.3-.1 4.4-.2 6.7-.2 3.1-.1 4.5 1.9 6.8l.3.2c-.1-.1-.2-.2-.3-.2-2.1-1.7-3.2-3.5-3.5-6.2-.2-2.1 0-4.1-.6-6.1-.8-2.8-2-5.4-2.3-8.1-.3-2 .5-4.6.5-7.2-1.4 2.3-2.7 5.8-2.9 8.2-.2 2.6-.4 4.9-2 6.9-1.1 1.4-2.4 3.1-2.1 5.1.2 1.1.8 1.8 1 2.9.2 1.7 0 3.2-1.1 4.7-.2.2-.3.5-.5.7l-.8.5c1.8-.6 0-5.7-.5-6.9-.7-1.4-1.5-2.6-1.6-4-.1-1.1.1-3.7 1.4-4" class="B"/><g class="F"><path d="M217.6 99l-.3.1s-.2.1-.3.2l-.2.2s.1-.2.3-.3c.3-.2.5-.2.5-.2zm-1.5 3.5v-.2s0-.6.1-1.1c.1-.6.3-1.1.3-1.1-.5.9-.4 1.7-.4 2.4zm0 .6c0 .9.3 1.2.3 1.4-.1-.1-.2-.5-.3-.9v-.5zm15 6.3c0 .1 0 .2.1.3 0-.2-.1-.3-.1-.3z"/><path d="M229 89.6l-.1-.2c.5 3.7 2.4 7.7 2.2 11.7v-.3c0 2.2-.3 4.3-.3 6.4 0 1.1.1 2.1.5 3.1.2.5.5.9.8 1.4.1.2.3.4.5.6l.2.3.3.2-.3-.2c-1-.8-2-1.8-2.6-3s-.9-2.5-1-3.9c-.1-1.3-.1-2.7-.3-4.1-.2-1.3-.7-2.6-1.2-3.9.1.1.1.2.1.3-.2-.5-.4-.9-.5-1.5 0-.1.1.1.1.3-.3-1-.8-2.5-1.1-3.9a10 10 0 0 1-.1-3.4c.1-.6.1-.9 0-.5.1-1 .3-1.9.3-2.9v-.7s0-.1 0 0l-.7 1.4c-.8 1.8-1.5 3.7-1.8 5.7-.2 2-.2 4.1-1 6-.4 1-1.1 1.8-1.7 2.5-.6.8-1.1 1.7-1.4 2.6-.1.4-.1.4-.1.3-.2.9 0 1.8.4 2.6.2.4.4.9.5 1.3.1.5.1.9.1 1.4a6.71 6.71 0 0 1-.6 2.8c-.2.4-.5.8-.8 1.2l-.2.3c-.1.1-.2.2-.3.2l-.6.4-.1-.3c.3-.1.5-.4.6-.8s.1-.8.1-1.2c-.1-.8-.2-1.6-.5-2.3-.2-.8-.5-1.5-.8-2.3-.3-.7-.8-1.4-1.1-2.1-.1-.2.3.7 0 0 .5 1 1.1 1.9 1.4 2.8.4.9.6 1.8.8 2.8l-.1-.2c.1.7.1.8.2.9 0 .1.1.2.1.9-.1.6 0-.1 0 .1 0 .6-.2 1.2-.6 1.3l.2.4.8-.5c.3-.3.4-.5.6-.8.4-.5.7-1.1.9-1.8.3-1.3.3-2.6-.1-3.8-.1-.4-.5-1.1-.7-1.9s0-1.8.2-2.3c.3-.7.7-1.4.9-1.7.4-.6.8-1.1 1.2-1.6.4-.6.7-1.2 1-1.9.5-1.3.6-2.7.7-4.1 0-1.4.3-2.7.8-4 .4-1.3 1-2.6 1.6-3.8l.2-.4v.4c0 .7-.1 1.4-.2 2.1-.2 1.4-.4 2.8-.2 4.2.4 2.8 1.6 5.4 2.3 8.1.6 1.9.4 4.1.7 6.3.2 1.1.5 2.3 1.1 3.3s1.4 1.9 2.4 2.6l.3.2.2-.2c-.1-.1-.3-.2-.4-.3l-.3-.4c-.2-.3-.4-.5-.6-.8-.3-.6-.6-1.2-.8-1.8-.5-2 0-5 .1-7.4v-2c0-2.5-.8-4.8-1.4-7.2-.3-1.2-.6-2.4-.7-3.6 0-.6-.1-1.2.1-1.8.1-.6.4-1.1.4-1.1v.5c0 .3.1.6.1.9.1.3.1.6.2.9a.76.76 0 0 0 .2.4l.2.4c.6 1.1 1.4 2.1 2.1 3 .7 1 1.2 2.1 1.9 3.2.6 1.1 1.1 2.2 1.2 3.4.1.6.1 1.2.1 1.8-.1.6-.2 1.2-.4 1.8-.4 1.1-1 2.3-1.3 3.5-.1.6 0 1.3.2 1.9.3.6.6 1.1 1 1.6s.8.9 1.3 1.4c.2.2.4.5.6.7.1.3.3.6.4.8.3.5.5.8.7 1.8.1-.2.3-.7.5-.9l.3-.6c.2-.3.1-.6 0-.8s-.3-.4-.4-.6-.3-.4-.4-.6c-.1-.1-.1-.2-.1-.3s0-.2-.1-.4c-.2-1-.8-1.8-1.3-2.6-.2-.4-.4-.8-.5-1.3-.1-.4 0-.9.1-1.3.2-.9.7-1.7 1.1-2.6a6.71 6.71 0 0 0 .6-2.8c0-.9 0-1.9-.1-2.8s-.3-1.9-.6-2.7c-.3-.9-.9-1.7-1.4-2.5s-.9-1.6-1-2.5v-.1h.1c.2.1.5.1.7.2l1.2.6c1.6 1 2.9 2.2 4.2 3.5s2.3 2.9 2.9 4.7c.5 1.8 1.2 3.6 1.1 5.5 0 0 0 .1 0-.3 0 .6-.1 1.2-.3 1.7s-.5 1-.9 1.5c-.3.5-.7.9-1.1 1.3s-.7.7-1.4 1.3l1.2.1c.2 0 .3.1.5 0l.4-.1c.6-.2 1.2-.5 1.7-.8.8-.6 1.6-1.2 2-2.1.7-1.3.8-2.7.6-4.1-.1-1.4-.5-2.8-1-4.1-1-2.7-2.4-5.2-4.1-7.5-.8-1.2-1.7-2.3-2.7-3.3s-2.2-1.8-3.3-2.7l-3.2-2.6c-.5-.5-1-.9-1.5-1.4l-.7-.7-.8-.6-8-6.1-1-.8-.3-.2c-.1-.1-.2-.1-.3-.1-.2 0-.4-.1-.6-.1-.8-.2-1.6-.7-2.3-1.1-1.5-.8-3.1-1.7-4.5-2.7a16.32 16.32 0 0 1-2-1.7c-.7-.6-1.3-1.2-2.1-1.7-.7-.5-1.5-1-2.3-1.3-.8-.4-1.7-.6-2.5-.8-1.7-.4-3.5-.4-5.2-.5h-3.2c-.2 0-.4.1-.6.2l-1.2.4c-.2.1-.4.1-.6.2h-.1.1c4.4.5 8.9 1.1 12.8 3.2 1 .5 1.9 1.2 2.6 2s1.3 1.7 2.1 2.6c.7.8 1.5 1.7 2.3 2.4s1.7 1.5 2.9 1.6v-.1c-1.8-.1-3.6-.6-5.4-1.1-2.8-.5-5.6-1-8.5-1.2s-5.8-.3-8.7-.4c-1.4 0-2.9.2-4.2.9s-2.5 1.6-3.5 2.6-2 2.1-2.8 3.3c-.4.6-.7 1.2-1 1.9-.2.3-.3.7-.4 1-.1.2-.1.3-.2.5s-.1.4-.3.3c-.2 0-.4 0-.6-.1h-.1l.1-.1.3-.2c.4-.2.8-.5 1.2-.7.8-.5 1.6-1 2.5-1.4 1.7-.9 3.6-1.6 5.6-2.1s4-.6 5.9-.6 3.7-.1 5.4-.1c3.6-.1 7.2-.3 10.7-.2v-.1c-2.5 0-4.9.5-7.4.7-1.2.1-2.5.2-3.7.5s-2.4.5-3.5 1.2c-2.1 1.3-3.8 3.2-5.2 5.2-.2.3-.4.5-.5.8l-.1.2.1-.1.4-.2c.5-.3 1.1-.6 1.6-.9 1.1-.5 2.3-1 3.6-1.2.7-.1 1.4-.1 2.1 0s1.4.2 2.1.1c1.4-.2 2.8-.6 4.1-.9 1.4-.4 2.7-.8 4.1-.9 1.4-.2 2.8-.1 4.2.2l1.3.2.3.1h.2v.1c-.1.3-.2.4-.3.6-.4.7-1 1.4-1.6 2l-1.8 1.9c-.3.3-.6.6-.8 1s-.4.7-.6 1.1c-.4.8-.7 1.6-1.2 2.3-.2.4-.5.7-.9 1l-.6.3c-.2.1-.5 0-.5.2 0 1.7.1 3.4.1 5 .2 4.2.2 8.7.3 13.3v.3l.1-.3c.2-.8.5-1.7.9-2.4.5-.7 1.1-1.3 1.7-1.9l-.2.1c.9-.7 1.9-1.5 2.7-2.4l1.9-2.2-.1.2c.8-.9 1.6-2.4 2.1-2.9l.1-.2c.9-1.2.1-.1.8-1 .2-.3.1-.2.6-.9.2-.1 2.1-3 2.2-3-.4.7.7-1-.2.5.1-.2.6-.8.9-1.4s.6-1.1.5-1c0-.2.4-1.1-.3.2l-.1.3c-.3.4-.2.3-.3.5-1 1.7-1.3 1.8-2.1 3a27.05 27.05 0 0 1-1.8 2.5l-.2.2c-.3.4-1.2 1.9-.9 1.3-1.2 1.6-2.5 3.3-4.1 4.8-.8.7-1.7 1.4-2.5 2.2s-1.3 1.9-1.6 3c0 .1-.1.3-.1.5h.3c0-1-.1-2.7-.1-1.9 0-1.1 0-4.4-.1-5.7v.3c0-2.4-.2-2.8-.1-5.1-.1-.3-.1-4.1-.2-5.3v-.6h.1c.3-.1.5-.2.8-.3.5-.3.8-.7 1.1-1.2.6-.9.9-1.9 1.4-2.8.4-.9 1.2-1.5 1.9-2.2s1.3-1.4 1.9-2c.2-.2.4-.5.5-.8.1-.1.2-.3.3-.4l.1-.2c0-.1.1-.1.1-.3l.1-.2c0-.1.1-.2 0-.1l-1-.2c-.3-.1-.7-.1-1-.2-2.1-.6-4.3-.3-5.7.1-1 .2-2.3.6-3.8.9-.7.2-1.4.4-2.2.5-.4.1-.7.1-1.1.2h-.8c-.8-.1-1.7-.2-2.6-.1s-1.8.3-2.6.6-1.6.6-2.2 1c-.3.2-.7.4-.7.4-.1 0-.3.3-.2.1l.3-.3a3.04 3.04 0 0 0 .5-.7l1.3-1.6a20.35 20.35 0 0 1 3.3-3c.7-.5 1.6-.8 2.5-1s1.8-.4 2.6-.5c.5-.1 2.7-.2 2.9-.2 2.1-.2 4.2-.6 6.5-.7v-.3c-3.9-.1-8.1.2-12.2.3-1 0-2.1.1-3.1.1h-3.1c-2 .1-4 .5-5.9 1.1l.1-.1c-1.2.4-2.6 1.1-3.7 1.8-.1.1-.1 0 .1-.1-.8.4-1.6.9-2.3 1.3-.4.2-.8.5-1.1.7l-.8.5-.1.1h.4c.3 0 .6 0 1 .1.1 0 .1-.1.1-.2l.1-.2.1-.3c.1-.4.3-.8.5-1.2.4-.8.9-1.6 1.4-2.5l.1-.1s.2-.3.4-.5c.2-.3.4-.5.4-.5s0 .1-.4.6c.9-1.1 1.8-2.1 2.9-3s2.3-1.7 3.6-2.1 2.8-.4 4.2-.4c1.4.1 2.9.1 4.3.2 2.9.1 5.7.4 8.6.9l2.1.4 1.1.2c.3.1.7.2 1 .3 1.4.3 2.8.7 4.3.8v-.2c-1.1-.1-2-.9-2.8-1.6s-1.6-1.6-2.3-2.4-1.3-1.8-2.1-2.6c-.7-.9-1.7-1.5-2.7-2l.5.3s-.7-.4-1.4-.7l-1.4-.6s.2 0 .3.1c-3.4-1.4-7.2-1.8-10.8-2.2v.2l.9-.3s-.6.2 0 .1c.3-.1.7-.2 1-.3.2-.1.3-.1.4-.2h4.5c.1 0 .2 0-.1 0 2 .1 4 .2 5.9.9s3.5 1.9 5 3.2c1.5 1.4 3.1 2.6 4.9 3.6.4.3.9.5 1.3.7.4.3.9.5 1.3.7.5.2.9.4 1.4.6.2.1.5.1.8.1l.2.2.3.2 8.3 6.3 1.1.8c.4.3.7.6 1 .9.7.6 1.3 1.2 2 1.8 1.4 1.2 2.7 2.3 4.1 3.3 1.8 1.2 3.2 2.9 4.5 4.7s2.4 3.7 3.4 5.7c.9 2 1.7 4.2 1.9 6.4.1 1.1 0 2.3-.5 3.3-.4 1-1.2 1.9-2.2 2.5-.3.2-.7.4-1 .6-.2.1-.4.2-.6.2-.2.1-.4.2-.6.1-.4 0-.7-.1-1.1-.1.2-.2.4-.4.7-.6l.7-.7c.4-.5.8-.9 1.2-1.5.4-.5.7-1.1.8-1.7.1-.7.2-1.4.1-2.1v-.1c-.1-.8-.3-1.6-.5-2.4s-.4-1.6-.8-2.4c-.6-1.6-1.6-3.1-2.8-4.3s-2.5-2.4-4-3.4l-1.2-.6c-.2-.1-.4-.2-.6-.2l-.7-.2c-.1.9.3 1.7.7 2.5l-.2-.4c.2.5.8 1.4 1.2 2.1s.7 1.3.6 1.1l.4 1.2c.3 1.1.5 2.2.5 3.3s0 2.2-.4 3.3-1 2-1.3 3.2c-.2.6-.2 1.3.1 1.9.2.6.6 1.2 1 1.8l-.2-.3c.4.6.8 1.4.9 2.1 0 .4.2.7.4 1s.4.6.5.8c-.1-.2 0-.1-.2-.4.2.3.4.7.2 1-.2.4-.4.9-.5 1-.1-.3-.3-.8-.6-1.3-.3-.4-.4-.9-.8-1.3-.7-.8-1.5-1.5-2.1-2.3-.3-.4-.5-.9-.7-1.4-.1-.5-.1-1 0-1.5.2-1 .7-2 1.1-2.9l-.2.5c.2-.6.5-1.2.7-2s.1-1.7 0-2.6c-.2-1.8-1.3-3.5-2.1-4.8l.1.2s-.2-.3-.4-.7c-.2-.3-.4-.7-.4-.7V93c-.3-.6-.8-1.1-1.2-1.6a15.26 15.26 0 0 1-1.1-1.6c-.2-.3-.3-.6-.5-.9-.1-.3-.2-.6-.2-.9-.1-.6-.2-1.2-.2-2.1v-.1s0 .1-.1.1l-.2.3c-.1.2-.2.3-.3.5l-.2.5-.1.5c0 .5 0 1.2.1 1.9zm-1.5 7.2c0 .1 0 .1 0 0 .1.2.1.1 0 0z"/><path d="M219.2 96.3c.1-.2.2-.3.3-.4-.1 0-.3.3-.3.4zm-25.6-12.2V84zm.1-.2v.1c.1 0 0-.1 0-.1zm0 0c.1-.1.1-.1 0 0 .1-.1 0-.1 0 0zm3.6-2.5zm1-.6c-.2.1-.4.1-.6.2-.6.2-1 .5-1.5.8 0 0 0 .1-.1.1s-.3.2-.4.2v.1c-.4.2-.8.5-1.1.9-.2.3-.6.6-.8.8.1-.1.1-.2.2-.3.1 0 0-.1.1-.1.1-.1.3-.2.4-.4.1 0 .1-.1.2-.1l.1-.1c.5-.4 1-.7 1.6-1.1.2-.2.6-.3.9-.4.1-.1.3-.1.4-.2l.1-.1c.8-.2 1.6-.5 2.5-.6 1-.2 1.8-.2 2.7-.5.3-.1.5 0 .8-.1.6-.1 1.3-.1 1.9-.2.7-.1 1.6-.1 2.4-.3.6-.1 1.2-.1 1.9-.3.6-.1 1.3-.4 1.9-.5.4 0 .9-.4 1.3-.4.8-.1 1.5-.3 2.2-.6.7-.1 1.4-.4 2.1-.6.3-.2.7-.2 1-.4.2 0 .2-.2.3-.2s.1-.2.1-.2c.1-.1 0 0 .1 0v-.1c.1.1.1-.1.2 0 0 0 .1 0 0 .1l.1-.1c0-.1 0-.1-.1-.1h-.1c-.1.1-.1 0-.2 0 0 .1-.1.1-.1.1s0 .2-.1.1c-.2.1-.4.3-.6.4 0 0-.2.1-.1.1h-.3c-.2 0-.1.1-.3.1 0 .1-.2.1-.3.2-.2.1-.5.1-.7.2-.1.1-.4.1-.5.2-.1 0-.3 0-.5.1s-.4.1-.5.2c-.1-.1-.2 0-.2-.1-.1.1-.4.1-.5.2 0 0-.2.1-.2 0-.5.2-1.1.4-1.7.5-.1.1-.1.2-.2.2h-.3c-.1.1-.2 0-.3.1h-.1v-.1l-2.7.7-.2.1c-.2 0-.5.1-.7.1-.2.1-.3 0-.3.1-.4.1-.9.1-1.4.2-.4.1-.8.1-1.2.2-.5.1-1.1.1-1.6.2-.2 0-.4.1-.6.1-.4.1-.8 0-1.2.2-.1.1-.2 0-.2.1h-.1c-.2.2-.5 0-.8.2-.1 0-.2.1-.2.1-.3 0-.6.1-.8.2-.1.1-.4.1-.6.2l-.1.1c.1-.7-.1-.5-.4-.5zm-2.1 1zm22.7-5.7zm13.9 11.3zm-.1-.1zm-.2-1.3zm-.3-.2v.2c0 .2.1.3.2.5-.1 0 .1.1 0 .1h.1c0 .1.1.3.1.4.1.1.1.2.1.3h.1s-.1-.1 0-.1c0 0-.1 0 0 0 0-.1 0-.1-.1-.1.1 0 0-.1 0-.1h-.1c0-.2-.1-.4-.1-.5-.1-.1 0-.2-.1-.3l-.1-.1h-.1c0-.3-.1-.5-.2-.7-.1-.3-.1-.5-.3-.7-.1-.1-.1-.1-.1-.2-.2-.1-.2-.3-.3-.5s-.3-.4-.4-.6c-.2-.1-.2-.3-.3-.4-.1-.2-.3-.2-.4-.4 0-.2-.3-.1-.3-.2-.1-.3-.3-.3-.6-.4-.1-.2-.4-.1-.5-.3-.1 0-.1-.2-.2-.2 0-.1-.1.1-.1-.1 0-.1-.1.1-.1 0v-.1c0-.1-.1 0 0-.1v-.1h-.1c0 .1-.1.1-.1.1v.2h.1s.1-.1 0 0c.1 0 .1 0 .2.1h.1v.1c0 .1.1-.1.1.1 0-.1 0 .1.1 0 .1 0 .1.1.1.1.1 0 .1.1.2 0 0 0 0 .1.1.1 0 0 .1.1.2 0v.1h.2v.1c.2 0 .3.1.4.3 0 0 .1-.1.2-.1v.1s0 .1.1.1c.2.2.4.3.6.5h.1c0 .1.1.1.1.1.1 0 0 .1.1.1.1.1.2.2.2.3.2 0 .1.2.3.2.1.1.1.3.2.4 0 .1.1.1.1.1.1.1 0 .2.2.3.1 0 0 .1.1 0 .2 0 0 .2.1.2v.1c-.1.1.1.2.1.2.1 0 0 .1.1.1-.4.5-.4.6-.4.7zm.3.6zm-4.1-5zm-12.2-7.7v-.1zm.1-.1c-.1.1 0 0 0 0z"/><path d="M216.3 73.6zm.6.2zm.2-.1c-.2-.1-.3-.1-.4-.1 0-.1-.1 0-.1 0h-.2c-.1.1-.1 0-.2 0v.1h.1s0-.1 0 0h.1v.1c.1.1.2 0 .3.1.1-.1.1.1.2 0h.1c.1.1.2.1.3.2s.2.2.4.1h.1c.1-.1.2.1.3 0 .1 0 .2.1.4.1.1 0 .2.1.3.1.1.1.2-.1.3 0 0 .1.2-.1.2 0 .1.2.2.1.4 0 .1.1.2 0 .3.1.1-.1.1.1.2.1 0 .1.1-.1.1 0s0-.1 0-.1 0-.1 0 0v.2-.4c0 .1 0 0 0 0 0-.1 0 .1 0 0h-.1v.1-.1c0-.1 0 .1 0 0 0 .1 0 0-.1.1 0 0-.1 0-.1-.1 0 .1-.1 0-.1.1 0 0 0-.1-.1 0 0 0-.1 0-.1.1v-.1s-.1 0-.1.1c-.1.1-.2 0-.3-.1l-.1.1s0-.1 0 0c0 0 0-.1 0 0 0 0 0-.1 0 0-.1-.1-.3 0-.4 0h-.1s0-.1-.1 0h-.2c-.1.1-.1 0-.2 0s-.2-.1-.2-.1h-.1c-.1.1-.1-.1-.2 0 0 .1 0 0-.1.1s-.1-.1-.1 0c0-.1-.1 0-.1 0h-.1l-.2-.8zm-.3-.1zm3.5.8zm7 7.9c-.1 0 .1 0 0 0zm0 0zm.2.3zm.2 0c0-.1-.1-.1-.1-.1l-.1-.1c-.1 0-.1 0-.1-.1h.2c0 .1.1.1.1.1.1 0 0 .1.1.1l-.1.1c-.1.1-.1.1-.1.2s0 .2.1.2v.1c.1 0 0 .1.1.1 0 .1.1.1.1.2.1 0 0 .1 0 .2s.1.1.1.1c-.1.1.1 0 0 .1s0 .1.1.2c0 .1.1.1 0 .2.1 0-.1.1-.1.1-.1 0 .1 0 0 0s.1 0 .1 0h-.2.4c-.1 0 0 0 0 0 .1 0-.1 0 0 0v-.1h-.1.1c.1 0-.1 0 0 0h-.1v-.1h-.2c-.1 0-.1-.1 0-.2h-.2c0-.1-.1-.1-.1-.2-.1 0 .1 0-.1 0-.1 0-.1-.1-.1-.1-.1 0 0-.1-.1 0-.1 0 0-.1-.1-.1s.1-.1-.1-.1h-.1c-.1 0 0-.1-.1 0 .9-.7.8-.7.7-.8 0 .1.1.1 0 0zm-.1-.1zm.8 1.7zm5.4-.3zm.1-.1c-.1.1 0 0 0 0z"/><path d="M233.9 83.8c0 .1 0 0 0 0 0 .1 0 0 0 0zm.5.5zm.2 0c-.1 0 0-.1 0 0-.1-.1-.2-.2-.3-.2 0-.1-.1 0 0 0-.1 0-.1-.1-.2-.1s-.1 0-.2-.1h.1v.1c0 .1.2.1.2.2.1 0 .1.1.1.1h.1c0 .1.2.2.2.3.1.1.1.2.3.2 0 0 0 .1.1.1s.1.1.3.1c.1.1.2.2.3.2s.1.2.2.2c0 .1.2 0 .2.2 0 .1.2 0 .1.1 0 .2.1.2.3.2 0 .1.2.1.2.2.1 0 0 .1 0 .2s.1 0 0 0c0 0 .1-.1.1 0l-.1.1h-.1.1l.1-.1s0-.1.1-.1c0 0-.1.1 0 0 0 0-.1 0-.1-.1h-.1V86c.1-.1-.1 0 0-.1-.1.1 0 0-.1 0v-.1c-.1 0 0-.1-.1 0v-.1h-.1c.1-.1 0-.1.1-.1h-.1c-.1 0-.2-.1-.2-.2l-.1.1v-.1s0-.1 0 0c-.1-.1-.2-.1-.3-.2 0 0-.1 0-.1-.1-.1 0 0-.1-.1 0-.1 0-.1-.1-.2-.1s-.1-.1-.2 0c-.1 0-.1-.1-.2-.1h-.1c-.1 0 0-.1-.1-.1h-.1c-.1.1 0-.1-.1-.1 0-.1-.1 0-.1-.1.3-.2.3-.3.2-.3zm-.3-.2zm2.6 2.2zM116.915 241.914l-6.366-4.332L221.495 74.556l6.366 4.332z"/></g><path d="M246.4,46.2" class="C E G H"/><path d="M220.2 68.3" class="I L M N O"/><path d="M106 236.6c-3.3-.3-4.1-5.1-4.1-7.7-.2-4.8.2-8.4-4-11.8" class="B"/><g class="H"><path d="M97.8 217.4zm.2 0h-.1c-.1.1.1 0 .1 0z"/><path d="M98 217.4c0 .1 0 .1 0 0 0 .1 0 0 0 0zm2.3 2.7zm.6.8c-.1-.1-.1-.4-.2-.5a4.44 4.44 0 0 0-.8-1.1h-.1c0-.1-.2-.2-.2-.3h-.1c-.2-.3-.5-.6-.8-.8s-.5-.4-.7-.6c.1.1.2.1.2.2s.1 0 .1 0a1.38 1.38 0 0 0 .4.3c0 .1.1.1.1.2h.1c.3.4.7.7 1 1.2.2.1.3.4.5.7.1.1.1.2.2.3l.1.1c.2.7.5 1.3.6 2 .2.8.2 1.5.4 2.2 0 .2 0 .4.1.6.1.5 0 1.1.2 1.6 0 .6 0 1.3.1 1.9.1.5 0 1 0 1.5s.3 1.1.3 1.6c0 .4.3.7.3 1 0 .7.4 1.2.8 1.7.3.5.7.9 1.1 1.3.3.1.4.4.7.5.1.1.3 0 .3.1s.2-.1.2 0c.1 0 0 0 .1.1 0 0 0-.1.1 0 0 .1.2 0 .2.1 0 0 .1.1 0 .1h.1c0-.1.1-.1 0-.2v-.1c-.1 0-.1-.1-.1-.1h-.1c0-.1-.1.1-.1 0-.2 0-.4-.1-.6-.2 0 0-.1-.1-.1 0 0-.1-.1-.2-.2-.2 0-.1-.2 0-.2-.1-.1.1-.1-.1-.2-.1l-.7-.7c0-.1-.1-.2-.2-.3s-.2-.3-.3-.3c.1-.1 0-.1 0-.2-.1-.1-.2-.3-.3-.4 0 0-.1-.1 0-.1-.3-.4-.4-.9-.4-1.4 0 0-.1-.1-.2-.1v-.7h.1c-.1-.7-.3-1.5-.3-2.2v-.7c-.1-.1.1-.2-.1-.3-.1-.4-.1-.8-.1-1.1-.1-.3 0-.7-.1-1-.1-.4 0-.9-.1-1.3 0-.2 0-.3-.1-.5-.1-.3 0-.7-.1-1-.1 0 0-.2-.1-.2v-.1c-.2-.2 0-.4-.1-.6 0-.1-.1-.1-.1-.2 0-.2-.1-.5-.2-.7-.1-.1-.1-.3-.2-.4l-.1-.1c.1-.1 0-.2-.1-.4zm-1-1.7z"/><path d="M105.7 236.4z"/></g><path d="M96.3,214.5" class="D I M N O"/><path d="M118.3 244.7c1.6.9 2.7 1.9 3.7 3.4 1.3 1.8 3 3.6 5.3 4 .6 1.1 4.3 1.4 5.5 1.6 1.5.1 4.3.4 5.6-.3-3.6-.7-6.6-2-9.7-4-1.3-.8-2.2-2-3.4-2.9-.8-.7-1.6-1.1-2.2-2 3.9 2.1 8.9 1.6 12.9-.1 2.2-.9 4.1-1.8 6.4-2.6 2.2-.7 5.9-2.4 6.7-4.8-2.3 3.9-9.4 4.6-10.9 5.4-2.1 1-6.6.7-8.6-.8 1-.7 2.3-1 3.3-1.9s2.1-2 2.7-3.3c1.3-2.5 1.1-5.9 1.1-8.7-1.2 1.5-1.2 3.4-1.8 5.1-1.1 3.1-4.2 6.7-7.9 6.6 1.9-.9 4-3.5 5-5.3 1.4-2.5.3-5.9 2.5-7.9-.3.6-.8 1-1.2 1.5-1.7 2-2.5 4.6-4.1 6.6-.9 1.1-2 1.6-3.1 2.4-.8.6-1.7 1.4-2.6 1.7-.7.2-1.2.3-2 .2 1.1-1 2-2.2 2.8-3.5 1.4-2.2 3.1-5.3 3.1-8-.7 2.3-2.5 4.5-4.2 6.2-1 1-2.1 2.4-3.3 3.3-.5.4-1.4 1.1-2.1 1 1.4-.1 2.4-1.9 3.1-3 .4-.7.8-1.4 1.1-2.2s.2-1.8.5-2.6c.4-1 1.5-1.8 2.3-2.6 1-1 1-1.7.9-3.1-2.3 1.2-3.2 3-4.5 5.2-1 1.7-3.9 5.7-5.8 5.7 2.2-.5 4.6-5.1 5.4-7 .7-1.5 1.7-6.4 4.4-6-2.7 0-3.9.8-5.8 2.7a65.2 65.2 0 0 0-3.4 4c-.4.5-.5 1.1-1.2.9v-.5c-1.1-4.4-2.9-8.6-2-13.1.5-2.7 4.4-5.1 2.4-8-.2 2.3-1.8 3.6-2.9 5.3-1.2 2-1.3 4.6-2.3 6.5 0 0-.6 8.8 2.6 12.2-2.1-2.1-2.7-7.4-2.8-10.3-.1-2.3 1.4-14.4-3.2-13.1 2.6 5.8-.7 10-.7 15.9 0 0 3.2 5.2 3 8.3.2-4.2-3.6-8.5-4.8-10.1-1.2-1.7-.9-2.1-2.2-3.5 0 0-2.2.5-6.3-2.2 2.9 3.4 3.8 7.4 4.3 10.9.3 2 .6 8.8 3.4 9.1" class="B"/><g class="H"><path d="M103.4 236.8l-.2-.1-.4-.1c0 .1.6.2.6.2zm-2-2v.1s0 .1.1.3c.1.1.2.3.3.5.3.4.6.6.6.6-.4-.5-.8-1-1-1.5zm-.2-.5c-.2-.7-.3-1-.4-1.1.2.2.4 1.2.4 1.1zm6.3-23.5v.2c.1-.1 0-.2 0-.2z"/><path d="M109.9 221v.2c0-3.1.4-6.6-.3-9.8l.1.2c-.2-1-.5-2.1-1.3-2.8-.4-.3-1-.4-1.5-.3h-.2s0 .1.1.2l.1.4c.1.2.2.5.3.7.3 1 .5 1.9.5 2.9s-.1 2-.2 3c-.3 2-.9 3.9-1.2 5.9-.1.5-.1 1-.2 1.5v1.6l1.4 2.7c-.1-.1-.1-.2-.1-.3.2.4.4.7.6 1.2 0 .1-.1-.1-.1-.2.5 1.2 1.3 3.3 1.2 4.8h-.1v-1.2c-.1-.5-.1-.7-.1-.4-.4-2.2-1.6-4.3-2.9-6.2l-2.1-2.8c-.3-.5-.6-1-.8-1.6-.3-.5-.7-1-1-1.3-.4.1-1 0-1.5-.1s-1-.2-1.5-.4l-1.4-.6c-.2-.1-.4-.2-.7-.4l-.4-.2-.2-.2-.2-.1.2.2c.1.1.1.2.2.2l.2.3 1.1 1.8c.7 1.3 1.2 2.7 1.5 4.1.4 1.4.6 2.9.8 4.3l.6 4.3c.1.2-.1-.6 0 0l-.7-5 .1.2c-.2-1.2-.1-.2-.3-1.5-.1-.5.1.1 0-.1-.4-2.6-1.3-5.2-2.6-7.3-.1-.1-.2-.3-.4-.6-.1-.1-.2-.3-.3-.4l-.1-.1c-.2-.2.1 0 .1 0l.1.1.2.1c.1.1.3.1.4.2.3.1.5.2.6.3.6.3 1.2.5 1.9.7.3.1.7.1 1 .2h1l.3.3a1.38 1.38 0 0 1 .3.4l.5.8.9 1.7 2.3 3.1c1.4 2.1 2.7 4.5 2.6 7.1h.3c0-1.4-.4-2.7-.9-4s-1.1-2.5-1.7-3.7c-.1-.2-.3-.4-.4-.7v-.8c0-.6.1-1.1.2-1.7l.7-3.6c.6-2.4 1.2-5 .5-7.6-.1-.4-.2-.9-.4-1.3-.1-.2-.2-.4-.3-.7-.1-.1 0-.1.1-.1h.4c.5 0 1 .3 1.3.7s.5.9.7 1.4l.4 1.6c.2 1.7.2 3.3.2 5l-.1 5.1c.1 1.7.3 3.4.7 5.1.4 1.6.9 3.4 2.1 4.6l.2-.2c-.9-1-1.4-2.3-1.8-3.6s-.6-2.7-.7-4l-.1-4.1v-.5c.1-.2.2-.3.2-.5.1-.3.3-.6.4-1l.6-2c.2-.8.5-1.7.8-2.4.4-.8.9-1.4 1.4-2.1l1.4-2.1c.1-.2.2-.4.2-.6.1-.2.1-.5.1-.5v-.2c0 .1.1.1.1.2.3.7.2 1.6-.1 2.3s-.8 1.4-1.2 2.1c-.5.7-.9 1.4-1.2 2.2s-.3 1.6-.4 2.4c-.2 3.3.8 6.5 1.7 9.6l.3 1.2.2.6v.3c0 .1-.1.4 0 .4.4.1.6 0 .8-.1.2-.2.3-.4.4-.5.2-.3.5-.6.7-1 1-1.3 2-2.6 3.3-3.8 0 0 .1-.1-.2.2.8-.7 1.6-1.4 2.5-1.8s1.9-.5 2.9-.5v-.2c-.9-.2-1.8.4-2.3 1-.5.7-.9 1.4-1.2 2.2-.4.9-.6 1.9-1 2.8l-1.3 2.7c-.5.9-1 1.7-1.7 2.5-.6.8-1.4 1.5-2.3 1.8v.2c.7 0 1.3-.4 1.9-.9.5-.4 1-.9 1.5-1.4.9-1 1.7-2.1 2.4-3.2s1.3-2.3 2.1-3.3c.4-.5.9-1 1.4-1.4.3-.2.5-.4.8-.5l.2-.1.1-.1h.1v.4c0 .6 0 1.3-.3 1.8s-.8.9-1.3 1.4c-.5.4-.9.9-1.3 1.4-.4.6-.4 1.3-.5 1.9 0 .3-.1.7-.2 1s-.2.6-.4.9l-1 1.8c-.4.6-.7 1.2-1.2 1.7s-1 1-1.7 1v.1c.6 0 1.2-.3 1.6-.7l1.4-1.2c.9-.8 1.7-1.8 2.5-2.7 1.7-1.8 3.3-3.7 4.1-6.1 0 1.3-.3 2.5-.8 3.6-.6 1.5-1.3 2.9-2.2 4.2-.8 1.4-1.7 2.6-3 3.7.8.1 1.5 0 2.2-.2.7-.3 1.3-.7 1.9-1.1 1.1-.9 2.5-1.5 3.5-2.6 2-2.2 2.8-5.2 4.8-7.3a4.44 4.44 0 0 0 .8-1.1l.2-.3-.3.3c-1 .9-1.3 2.3-1.5 3.5-.2 1.3-.2 2.6-.7 3.8s-1.3 2.3-2.1 3.3c-.9 1-1.7 1.9-3 2.6-.2.1.1 0 .2 0h.4c.3 0 .5-.1.7-.1.5-.1.9-.3 1.4-.5.9-.4 1.7-1 2.4-1.7 1.4-1.4 2.4-3 3-4.9l.6-2.2c.1-.4.2-.8.4-1.1.1-.2.2-.4.3-.5s.2-.3.3-.4l.1-.1c0-.1 0 .1 0 .1v2.1l-.1 2.5c-.1 1.6-.5 3.3-1.4 4.6-.4.7-1 1.2-1.5 1.8a11.51 11.51 0 0 1-1.7 1.4c-.4.3-.9.5-1.4.7-.2.1-.5.2-.7.3l-.4.2s-.2.1-.1.1l.2.1c.9.6 1.9.9 2.9 1.1 2 .4 4.1.4 6-.5l5.8-1.7c1.8-.7 3.7-1.8 4.8-3.6h-.1c-.5 1.4-1.8 2.4-3.1 3.2s-2.7 1.4-4.2 1.8c-2.5.8-4.8 2-7.2 2.9-2.5.8-5.1 1.1-7.6.8-.6-.1-1.3-.2-1.9-.4l-.9-.3c-.3-.1-.5-.2-.7-.3l-.1-.1.1.1c.1.1.1.2.2.3.1.2.4.4.6.6l1.5 1.2c1 .8 1.8 1.8 2.8 2.5l3.3 1.9 3.4 1.4c.6.2 1.2.4 1.8.5l1 .2h.2c-.2.1-.3.1-.5.2-1.3.3-2.6.2-3.9.2-1.3-.1-2.6-.2-3.9-.5l.2.1c-.9-.2-2-.4-2.8-1-.1-.1-.1-.2-.2-.3-.1 0-.2 0-.3-.1-.2-.1-.4-.1-.6-.2-.4-.1-.7-.3-1-.5l.2.1c-.9-.5-2-1.3-2.3-1.8l-.1-.1c-.8-.9-.1-.1-.7-.9-.2-.3-.1-.1-.5-.7 0-.1-.4-.7-1-1.2l-1.1-1.1c.5.4-.8-.7.4.2-.2-.1-.6-.5-1.1-.8s-.9-.5-.8-.4c-.2 0-.9-.4.2.3l.2.1c.3.3.3.2.4.3 1.3.9 1.4 1.2 2.1 2l1.6 2 .1.2c.2.4 1.4 1.2 1 1 .6.6 1.4 1.1 2.2 1.4.2.1.4.2.6.2.1 0 .2.1.3.1h.2c.3.4.8.6 1.2.8 1.8.6 3.7.7 5.5.9h3c.2 0 .4 0 .6-.1.2 0 .3-.1.5-.1.2-.1.3-.1.5-.2l.2-.1c.1 0 .2-.1.1-.1-.2 0-.3-.1-.5-.1-.3-.1-.6-.1-.9-.2-.4-.1-.7-.2-1-.2h.2c-1.9-.6-2.3-.6-3.9-1.4-.1 0-.9-.4-1.7-.8l-2.2-1.2c-.2-.1-.2-.2-.2-.2-1.4-.9-2.4-2.4-3.8-3.3l-.5-.4-.3-.3.3.1c.4.2.7.2 1.1.4 1.2.3 2.7.5 4.1.5s2.8-.3 3.8-.6c.8-.2 1.9-.5 3.1-1l3.4-1.5-.2.1 4-1.5c1.3-.5 2.5-1.2 3.2-1.7.7-.4 1.7-1.1 2.3-2.2.1-.1.2-.3.3-.6l-.4-.2c-.4.7-1.3 1.7-2.4 2.4s-2.5 1.2-3.6 1.6c-.4.1-2.2.7-2.3.6-.9.3-1.9.5-2.8.9-.9.3-2 .4-3 .4s-2.1-.2-3.1-.5l-1.5-.6-.2-.1h.1c.2-.1.5-.2.7-.4 1-.5 2-1 2.8-1.8s1.6-1.6 2.1-2.5c1.1-1.9 1.3-4.2 1.4-6.2v.1c0-.5 0-1.1-.1-1.7v-1.4l-.3.3c-.1.1-.1.1.1-.2-.1.2-.3.4-.4.6s-.2.3-.3.5c-.1.3-.3.7-.4 1l-.5 2.1v-.3c-.3 1.4-1.1 2.7-2 4l-.1.1s-.2.2-.3.4c-.2.2-.3.4-.3.4s0-.1.4-.5c-.7.9-1.6 1.6-2.6 2.2-.5.3-1 .5-1.6.6-.1 0-.3.1-.4.1h-.2l.1-.1c.3-.2.5-.4.8-.6.5-.4.9-.9 1.4-1.4.8-1 1.6-2.1 2.2-3.3.5-1.3.6-2.6.7-3.9.2-1.3.5-2.6 1.4-3.5l-.2-.2c-.3.6-.9 1.1-1.3 1.6l-1.2 1.8-2.1 3.7c-.4.6-.8 1.2-1.3 1.6-.5.5-1.1.8-1.7 1.2-1.2.7-2.2 1.9-3.5 2.3l.4-.2c-.4.2-.7.3-1.1.3h-.9l.6-.6c.3-.3.5-.6.8-.9l1.4-2 2.2-4.3s-.1.5 0 .1c.5-1.4.7-2.5.7-3.4v-1l-.3 1-.5 1.4c-.1.1-.1.1 0-.1-.9 1.9-2.4 3.6-3.9 5.2l-2.3 2.4c-.4.4-.8.7-1.3 1.1-.4.3-.9.6-1.4.6v.2c.6-.1 1.1-.4 1.5-.8s.8-.9 1.1-1.3c.6-.9 1.2-1.9 1.7-3 .3-.7.3-1.4.4-2.1s.4-1.3.9-1.9l1.6-1.5c.5-.5.9-1.3.9-2v-.9c0-.1 0-.3-.1-.2-.4.2-.7.4-1 .6-.6.4-1.1 1-1.6 1.5-.9 1.2-1.5 2.5-2.3 3.7-.7 1-1.4 2.1-2.3 3-.4.5-.9.9-1.4 1.3s-1.1.7-1.7.8c1.3-.4 2.1-1.5 2.9-2.5.7-1 1.4-2.2 2-3.3s1-2.4 1.4-3.6c.5-1.2 1-2.4 2-3.2.5-.4 1.1-.4 1.5-.4v-.1c-1.2 0-2.3.2-3.3.7s-1.8 1.3-2.7 2.2h-.1a40.31 40.31 0 0 0-2.6 3.2c-.2.3-.5.5-.6.9-.2.3-.4.6-.8.6-.2 0-.1-.2-.1-.3 0-.2 0-.4-.1-.5l-.3-1c-.7-2.8-1.6-5.5-1.8-8.4l.1.4c-.1-.4-.1-1.3-.1-2s.1-1.2.1-1.1l.2-1c.5-1.9 1.9-3.1 2.6-4.8.2-.4.3-.9.3-1.4s-.2-1-.5-1.4v-.1s0-.1 0 0v.2c0 .1 0 .3-.1.4 0 .3-.1.5-.2.8-.2.5-.5 1-.8 1.5l.1-.3-2.1 3c.1-.1 0-.1.2-.3-1.1 1.7-1.3 3.8-2 5.7-.1.2-.2.5-.3.7-.1.3-.1.5-.1.8v1.6c0 1 .1 2.1.2 3.1l-.1-.5c.1.9.3 2.3.7 3.6.4 1.4 1 2.8 1.8 3.7l-.2-.2-.8-1.1c-.8-1.5-1.2-3.1-1.5-4.7-.7-1.8-.8-3.4-.8-5.1z"/><path d="M107.7 228c0-.1 0-.1 0 0zm13.8 19.7l-.3-.3c.1 0 .2.2.3.3zm2.9-7.2zm-.1.1c0-.1 0 0 0 0zm0 0zm-.4 0zm-.1.2c.1-.1.1 0 0 0 .1 0 .2 0 .2-.1 0 .1 0 0 0 0v-.1s.1 0 .1-.1.1-.1.1 0v-.1s0 .1 0 0c0 0 0 .1 0 0v-.1.1h-.2c0 .1-.1 0-.1 0l-.1.4c0-.2-.1-.1-.2-.2-.1 0-.2-.1-.2 0h-.1c-.1.1-.1 0-.2.1h-.2c-.1 0-.1-.1-.2 0-.1 0-.1.1-.2.1 0-.1-.1.1-.1 0-.1-.2-.1-.1-.2 0-.1-.1-.1.1-.2 0 0 .1-.1-.1-.1-.1 0-.1 0 .1 0 0s0 .1 0 .1 0 .1 0 0v-.2.4c0-.1 0 0 0 0 0 .1 0-.1 0 0h.1v-.1.1c0 .1 0-.1 0 0v-.1h.1v-.1s0 .1 0 0v-.1.1l.1-.1c0-.1.1-.1.2 0v-.2s0 .1 0 0c0 0 0 .1 0 0 0 0 0 .1 0 0 .1 0 .2-.1.2-.1h.1c0-.1 0 .1 0 0h.1c0-.1.1 0 .1-.1s.1 0 .1 0h.1c0-.1.1.1.1 0v-.1c0-.1 0 .1.1 0 0 .1.1 0 .1 0 .3.6.4.6.4.6zm.3-.1zm-2.1.2zm-.2 1.2zm.1 0c-.1-.1 0 .1 0 0z"/><path d="M121.9 242.1c-.1 0 0 .1 0 0-.1 0 0 .1 0 0zm-.3.2zm0 .2c0-.1.1 0 0 0 .1 0 .1-.1.1-.1v-.2s0 .1 0 0c0 0 0 .1 0 0v.1l-.1.1c0 .1 0 0 0 0v.1c-.1-.2-.1-.1-.2-.1s-.1 0-.1.1-.1 0-.1.1c0 0-.1 0-.1.1s-.1 0-.1 0c-.1 0 0 .1-.1.1-.1-.1 0 .1-.1 0s-.1 0-.1.1c-.1 0 0 .1-.1 0 0 .1-.1-.1-.1 0 0-.1 0 .1 0 0 0 0 .1.1 0 .1l-.1-.1v-.1c0 .1.1.1.1.1s0 .1.1.1c0 0 0-.1 0 0v-.1c0 .1.1.1.1.1.1.1 0-.1 0 0v-.1h.1v-.2c0 .1 0 .1.1.1v-.1c0-.1 0-.1.1 0 0 0 0-.1-.1-.1.1 0 .1-.1.1-.1 0-.1 0 .1 0 0 0 0 0-.1.1-.1v-.1c0-.1.1 0 .1 0 0-.1.1.1.1 0v-.1c0-.1.1 0 0 0 .3.4.3.3.3.3zm.2-.2zm-1.2.9zm-10.5-11v.1l.1-.1z"/><path d="M110.2 232.2c-.1.1 0 0 0 0z"/><path d="M110.2 232.2zm.1.3z"/><path d="M110.5 232.5c0-.1-.1-.1-.1-.1l-.1-.1c-.1 0-.1 0-.1-.1h.2c0 .1.1.1.1.1.1 0 0 .1 0 .1v.1c-.2.1-.1.1-.1.2s-.1.1.1.2v.1c.1 0 0 .1.1.1 0 .1 0 .1.1.2 0 0-.1.1 0 .1l.1.1c-.1 0 .1.1 0 .1-.2.1-.1.1 0 .2-.1 0 .1.1 0 .2.1 0-.1 0-.1.1-.1 0 .1 0 0 0s.1 0 .1 0h-.2.4c-.1 0 0 0 0 0 .1 0-.1 0 0 0v-.1h-.1.1c.1 0-.1 0 0 0h-.1v-.1c-.1 0 0 0-.1-.1h-.1c-.1 0-.1-.1 0-.1h-.2c0-.1-.1-.1-.1-.2v-.1c-.1 0 .1 0 0 0v-.1c-.1 0 0-.1-.1-.1s0-.1 0-.1c-.1 0 .1-.1 0-.1h-.1c-.1 0 0-.1 0-.1.5-.3.3-.2.3-.4 0 .1.1.1 0 0 .1.1 0 .1 0 0z"/><path d="M110.4 232.4zm.4 1.7zm-5-2.5h-.1.1zm0 0c-.1.1.1 0 0 0zm0 0zm.2.4zm.2.1c0-.1 0-.1 0 0 0-.1-.1-.1-.1-.2l-.1-.1c-.1 0-.1-.1-.1-.1h-.1.2c0 .1.1.1.1.2.1 0 0 .1.1.1v.3c0 .1 0 .2.2.2v.1c.1 0 .1.1.2.1 0 .1.1.1.1.2.1 0 0 .1.1.2 0 .1.2 0 .2.1-.1.1.1 0 .1.1-.1.2 0 .2.2.2 0 .1.2 0 .1.2.1 0 0 .1 0 .1 0 .1.1-.1 0 0 0 0 .1-.1.1 0l-.1.1s0-.1.1-.1c0 0-.1.1 0 0h-.2c0-.1.1-.1 0-.1.1-.1-.1 0 0 0-.1.1 0 0-.1 0v-.1h-.1s0-.1 0 0h-.1l.1-.1h-.1c-.1 0-.1 0-.1-.1l-.1.1c0-.1-.2-.1-.2-.2-.1 0 .1-.1-.1 0-.1 0-.1-.1-.1-.1-.1 0 0-.1-.1-.1s0-.1-.1-.1 0-.1-.1-.1h-.1c-.1 0 0-.1-.1-.1.1-.1 0 0 0-.1.3-.5.4-.6.3-.6zm-.1-.2zm1.3 1.8zm20.7 9.1h-.1zm-.1.1c.1-.2 0 0 0 0z"/><path d="M128 242.9c0-.1 0 0 0 0zm-.2-.1z"/><path d="M127.7 243c0-.1 0 0 0 0h.1c0 .1 0 0 0 0l.1-.1c0-.1.1 0 .1 0v-.1s0 .1 0 0c0 0 0 .1 0 0v-.1h-.1c0 .1 0 0-.1 0l-.1.3c0-.2 0-.1-.1-.2 0 0-.1-.1-.1 0s-.1 0-.1.1h-.1s0-.1-.1 0c0-.1-.1.1-.1 0s-.1.1-.1 0c0-.2-.1-.1-.1 0 0-.1-.1.1-.1-.1 0 .1 0-.1 0-.1 0-.1-.1.1 0 0 0-.1-.1.1 0 .1.1-.1 0 0 0-.1v-.1c0 .1-.1.1-.1.1v.1s0-.1 0 0v-.1.1c0 .1 0-.1 0 0v-.2s0 .1 0 0v-.1.1-.1c.1-.1.1-.1.1 0v-.2s0 .1 0 0c0 0 0 .1 0 0 0 0 0 .1 0 0 0 0 .1-.1.1 0 0-.1 0 .1 0 0h.1c0-.1 0 0 .1-.1 0-.1 0 0 .1 0 0-.1 0 .1.1 0v-.1c.3.7.3.9.4.9h-.1c0-.1 0-.1.1 0-.1-.1-.1-.1 0 0-.1 0 0-.1 0 0 0-.1 0 0 0 0zm.1-.1zm-1.1 0zm-60 57.6l24.1-31"/></g><g class="C D"><path d="M108.4,247" class="B K"/><path d="M107.7 236.6" class="H P"/></g><path d="M96.5,214.6" class="B"/><g class="H"><path d="M114.8 238.6v-.1z"/><path d="M114.8 238.5c0 .1 0-.1 0 0z"/><path d="M114.8 238.5s0-.1 0 0zm.6.1z"/><path d="M115.6 238.5c-.1 0-.1-.1 0 0-.2-.1-.2 0-.3 0 0-.1-.1 0-.1 0h-.2c-.1.1-.1.1-.2 0v.1s0-.1 0 0c0 0 0-.1 0 0h.1v.1h.2c.1-.1.1 0 .1 0h.1c.1.1.2.1.3.2s.2.2.4.1h.1c.1 0 .2.1.3 0 .1.1.2.1.3.1s.1.1.2.1c.1.1.2 0 .3 0 0 .1.2-.1.2 0 .1.2.2.1.3 0 .1.1.2-.1.3.1 0-.1.1.1.1.1 0 .1 0-.1.1 0 0 .1 0-.1 0-.1s0-.1 0 0v.2-.4c0 .1 0 0 0 0 0-.1 0 .1 0 0h-.1v.1-.1c0-.1 0 .1 0 0v.1h-.1c0 .1 0 0-.1.1 0 0 0-.1-.1 0 0 0-.1 0-.1.1v-.1s-.1 0-.1.1c-.1.1-.2 0-.2-.1l-.1.1v-.1s0-.1 0 0c-.1-.1-.3 0-.4-.1h-.1s0-.1-.1 0c-.1 0-.1 0-.2-.1-.1.1-.1 0-.2 0s-.1-.1-.2-.1h-.1c-.1.1-.1-.1-.2-.1l-.1.1c-.1.1 0-.1-.1 0 0-.1-.1 0-.1 0h-.1l.2-.5h.1c-.1-.1-.1 0-.1 0zm-.4-.1zm3.1.8zm-3.8-6zm-.1-.1c.1.1 0 0 0 0zm.1 0s-.1 0 0 0zm.3-.5z"/><path d="M114.7 232.4s-.1 0 0 0c-.1.1-.1.2-.1.3-.1 0 0 .1 0 0v.2c.1.1 0 .1-.1.2v-.1s.1 0 0-.1h.1c.1-.1.1-.2.1-.3-.1-.1.1-.1 0-.1v-.1c.1-.1.1-.2.2-.3s.2-.2.1-.4v-.1c-.1-.1.1-.2 0-.3v-.3c0-.1.1-.2.1-.2.1-.1-.1-.2 0-.3.1 0-.1-.1 0-.2.2-.1.1-.2 0-.3.1-.1-.1-.2 0-.3-.1 0 .1-.1.1-.1.1 0-.1 0 0-.1.1 0-.1 0-.1 0s-.1 0 0 0h.1-.4c-.1 0 .1 0 0 0v.1c-.1 0 .1 0 0 0h.1v.1c.1 0 0 .1.1.1 0 0-.1 0 0 .1 0 0 0 .1.1.1h-.1s0 .1.1.1c.1.1.1.2 0 .2 0 0 .1 0 .2.1 0 0-.1 0 0 0 0 0-.1 0 0 0 0 0-.1 0 0 0 0 .1.1.3 0 .4v.1c.1 0-.1 0 0 .1v.2c.1.1 0 .1.1.2s0 .1 0 .2v.1c.1.1-.1.1 0 .2h.1c.1.1-.1 0 0 .1-.1 0 0 .1 0 .1v.1l-.8.2c0-.1 0-.1 0 0z"/><path d="M114.6 232.7zm.4-3.1zm-9.2-4.4h.1z"/><path d="M105.9 225.2c-.1 0 .1 0 0 0z"/><path d="M105.9 225.2zm.7 1.2zm.4.2c-.1 0 0-.1-.1-.2-.1-.2-.2-.3-.3-.4 0-.1-.1-.1-.1-.1l-.3-.3c-.1-.1-.2-.2-.2-.3 0 .1.1 0 .1.1 0 0 0 .1.1.1v.1h.1c.1.2.2.3.3.5.1 0 .1.2.2.3l.1.1h.1c0 .3.2.5.3.7.1.3.2.5.4.7.1.1.1.1.1.2.2.1.2.4.3.5.1.2.2.4.3.7.1.2.1.4.2.5 0 .2.2.4.2.6-.1.1.2.2.1.4-.1.3 0 .5.2.7 0 .2.1.4 0 .7.1.1-.1.2-.1.3-.1 0 .1.1 0 .1s.1 0 .1.1c-.1 0 0 .1-.1.1h-.1s0 .1.1 0h.3s.1 0 .1-.1c-.1 0 0 0 0-.1.1 0-.1 0 0 0v-.2s0-.1-.1 0c.1 0 .1-.1.1-.1.1 0-.1 0 0-.1-.1 0 0-.1-.1-.1v-.2c-.1 0 0-.1-.1-.2v-.2c0-.1 0-.1-.1-.2.1 0 .1-.1.1-.1s0-.1-.1-.2v-.1c-.2-.1-.2-.3-.1-.5h-.2v-.2c-.1-.3-.3-.5-.3-.8h-.1c0-.1-.1-.1-.1-.2-.1 0 0-.1-.1-.1-.1-.1-.1-.2-.2-.4-.1-.1-.1-.2-.2-.3s-.1-.3-.2-.4c0-.1-.1-.1-.1-.2-.1-.1 0-.3-.2-.3-.1 0 0-.1-.1 0-.2 0 0-.2-.1-.2 0 0-.1 0 0-.1 0-.1-.1-.1-.1-.2-.1 0-.1-.1-.1-.1.2-.2.1-.3.1-.3zm-.5-.6zm2.7 6.7zm-5.6 4.2v-.1l-.1.1zm-.2-.1h.1s-.1.1-.1 0zm0 0s-.1 0 0 0c-.1 0 0 .1 0 0zm-2.2-2.5z"/><path d="M100.8 233.5c.1.1.1.3.1.5.1.4.4.8.6 1.2h.1c0 .1.2.2.2.3h.1c.2.3.5.5.7.8.3.1.5.3.8.5-.1-.1-.2 0-.2-.1h-.1c-.1-.1-.2-.2-.3-.2 0-.1-.1-.1-.1-.2h-.1c-.3-.4-.7-.7-.9-1.2-.2-.2-.2-.5-.3-.7-.1-.1-.1-.2-.1-.3l-.1-.1-.4-2c-.1-.8 0-1.4-.2-2.1 0-.2 0-.4-.1-.6-.1-.5-.1-1-.2-1.5-.1-.6-.2-1.2-.4-1.8-.2-.5-.2-1-.3-1.4-.1-.5-.4-1-.6-1.5 0-.3-.4-.6-.4-.9-.1-.6-.5-1.1-.8-1.6-.2-.5-.5-1-.7-1.5-.2-.2-.2-.5-.4-.7 0-.1-.2-.1-.2-.2s-.2 0-.2-.1c-.1 0 0 0 0-.1h-.1c.1-.1-.1-.1-.1-.2 0 0 0-.1.1-.1 0 0-.1-.1-.1 0s-.1.1-.1.2v.1c.1 0 0 .1.1.2.1 0 .1 0 .1.1h.1c.1.1.3.2.4.4l.1.1c0 .1 0 .2.1.3 0 .1.1.1.1.2.1 0 .1.2.2.2.1.2.1.3.2.5.1.1.1.3.2.4 0 .1 0 .2.1.4.1.1.1.3.2.4-.1.1 0 .1 0 .2.1.1.2.3.3.4 0 0 .1.1 0 .1.3.3.5.8.6 1.2.1 0 .2.1.2.1 0 .1 0 .2.1.2.1.1 0 .2.1.2h-.1c.2.7.6 1.3.7 2l.1.1c0 .2.1.3.1.5.1.1 0 .2.1.3.1.3.2.7.2 1.1.2.3.1.6.2.9.1.4.1.8.1 1.2a.9.9 0 0 0 .1.5c.1.3 0 .6.1.9.1 0 0 .2.1.2v.1c.1.2 0 .4.1.6 0 .1.1.1 0 .2-.1.2.1.4.1.7.1.1.1.3.1.4v.1c-.5-.3-.4-.1-.4.1z"/><path d="M101.6 235.2zM96 217.9c-.1 0-.1 0 0 0zm5.9 5.3zm.1 0c-.2 0 0-.1 0 0zm0 0zm.7 1.3zm.3.4c0-.1 0-.2-.1-.2-.1-.2-.2-.4-.3-.5 0-.1-.1-.1-.1-.1h-.1c-.1-.1-.2-.3-.3-.4-.2-.1-.2-.2-.3-.3 0 .1.1 0 .1.1l.1.1v.1h.1l.3.6c.1.1.1.2.1.3l.1.1h.1c0 .3.1.6.1.9s0 .6.1 1v.3c.1.2 0 .5.1.7v.9c0 .2-.1.4 0 .7 0 .2.1.5.1.7-.1.2.1.3 0 .5-.1.3 0 .6.2.8 0 .3.2.5.2.7.1.1 0 .3.1.4-.1.1.1.1 0 .1h.1c-.1.1.1.1-.1.1h-.1s0 .1.1 0c.1 0 .1 0 .1-.1 0 0 0-.1.1-.1-.1 0 0 0 0-.1 0 0-.1 0 0 0-.1-.1-.1-.1-.1-.2 0 0 0-.1-.1 0 .1 0 0-.1 0-.1.1-.1-.1 0 0-.1-.1 0 0-.1-.1-.1v-.2c-.1 0 0-.1-.1-.2v-.2c0-.1 0-.1-.1-.2.1 0 .1-.1.1-.1-.1 0-.1-.1-.1-.2v-.1c-.1-.2-.1-.4-.1-.6 0 0-.1 0-.2-.1v-.2c0-.3-.1-.6-.1-1v-.3c-.1-.1.1-.1 0-.1v-.5c-.1-.1 0-.3-.1-.4-.1-.2 0-.4 0-.6v-.2c-.1-.1.1-.3-.1-.4-.1 0 0-.1-.1-.1-.1-.1 0-.2-.1-.3v-.1c.1-.1 0-.2-.1-.3-.1 0 0-.1-.1-.2.8-.1.7-.1.7-.2zm-.3-.8zm1.3 8.2c0 .1 0 0 0 0zm11.7 4zm0 0c0-.1.1.1 0 0z"/><path d="M115.7 236.3s0 .1 0 0c0 0 .1.1 0 0zm-.3.2z"/><path d="M115.3 236.7c.1 0 .2-.1.2-.1 0 .1 0 0 0 0l.1-.1c0-.1 0-.1.1-.1 0 0 0 .1 0 0 0 0 0 .1 0 0v.2c-.1 0-.1.1-.2.1 0 .1-.1 0-.1 0h-.1c-.1-.2-.1-.1-.2-.1s-.2-.1-.3.1h-.1c-.1.1-.1 0-.2.1h-.2c-.1 0-.1-.1-.2 0-.1-.1-.1.1-.2 0 0-.1-.1.1-.1 0-.1-.2-.2-.1-.2 0-.1-.1-.1.1-.2 0 0 .1-.1-.1-.1-.1 0-.1 0 .1 0 0s0 .1 0 .1 0 .1 0 0v-.2.4c0-.1 0 0 0 0 0 .1 0-.1 0 0h.1v-.1.1c0 .1 0-.1 0 0v-.1h.1c0-.1 0 0 .1-.1 0 0 0 .1 0 0l.1-.1v.1l.1-.1c.1-.1.1-.1.2 0v-.2s0 .1 0 0c0 0 0 .1 0 0 0 0 0 .1 0 0 .1 0 .2-.1.3-.1h.1c0-.1 0 .1 0 0h.1c0-.1.1 0 .1-.1.1-.1.1 0 .2 0h.1c0-.1.1.1.1 0v-.1c0-.1.1.1.1 0 0 .1.1 0 .1 0 0 .5 0 .5.1.5z"/><path d="M115.5 236.6zm-2.3.3z"/></g><g class="B"><path d="M221.4 77.2zm.1 0c-.1.1 0-.1 0 0zm0 0zm.8.6z"/><path d="M222.6 77.8c-.1 0-.1-.1-.1-.1-.1-.1-.2-.1-.4-.2 0-.1-.1 0-.1-.1-.1 0-.2-.1-.3-.1s-.2-.1-.2-.1h.1s.1.1.1 0v.1h.1c.1.1.2.2.4.2.1 0 .1.1.2.1h.1c.1.2.3.2.4.4.2.1.3.3.6.3.1 0 .1.1.2.1.2 0 .3.2.4.1.1.1.3.2.5.2.1 0 .2.2.4.2.1.1.3 0 .4.1s.2 0 .3.1c.1.2.3.2.5.1.1.1.3 0 .5.1.1-.1.1.1.2.1 0 .1.1-.1.1 0s.1-.1.1-.1 0-.1 0 0 .1 0 0 .1v.1-.4c0 .1 0 0 0 0 0-.1 0 .1 0 0h-.2v.1c0-.1 0-.1-.1-.1 0-.1-.1.1-.1 0 0 .1 0 0-.1.1-.1 0-.1-.1-.1-.1-.1.1-.1-.1-.1 0 0 0-.1-.1-.1 0h-.1V79h-.1v-.1c-.1.1-.3 0-.4-.1l-.1.1s0-.1-.1-.1c0 0 0-.1-.1 0-.2-.1-.4-.1-.6-.1h-.1c0-.1-.1 0-.1 0-.1 0 0-.1-.1 0-.1 0-.2-.1-.3-.1-.1.1-.2-.1-.3 0-.1 0-.2-.1-.3-.2h-.1c-.1 0-.1-.2-.2-.1h-.1c-.1.1-.1-.1-.2-.1h-.1c0-.1-.1-.1-.2-.1h-.1c.1-.3 0-.3 0-.3z"/><path d="M222.1 77.5zm4.9 1.9zm-1.4 2.1v-.1.1zm-.1 0c0-.1 0 .1 0 0z"/><path d="M225.5 81.5s0 .1 0 0zm-1.1-.3zm-.4-.1c.1 0 .1.1.2.1.1.1.3.1.5.2 0 .1.1 0 .1.1h.4c.1-.1.2 0 .3 0v-.1s-.1.1-.1 0c0 0 0 .1 0 0h-.1c0-.1 0 0-.1-.1s-.3-.1-.5-.2c-.1.1-.2-.1-.3-.1h-.2c-.1-.2-.4-.3-.5-.5-.2-.2-.3-.4-.5-.5-.1 0-.1-.1-.1-.2-.2-.1-.2-.3-.4-.4-.1-.2-.3-.4-.4-.5s-.1-.3-.2-.5c0-.2-.3-.3-.3-.5 0-.1-.2-.2-.2-.3 0-.3-.1-.4-.3-.6 0-.2-.2-.3-.2-.6-.1-.1 0-.2 0-.3.1-.1-.1 0 0-.1h-.1s-.1 0 0 0 0 0 .1-.1c-.1 0-.1 0-.1.1l-.1.1c0 .1.1.1.1.2 0 0 0 .1.1 0-.1 0-.1.1 0 .1-.1.1.1 0 0 .1.1 0 0 .1.1.1v.2c.1 0 0 .1.1.1v.1l.1.1-.1.1c.1 0 .1.1.1.1v.1c.2.1.2.3.2.5h.2v.2c.1.2.3.4.4.6h.1c0 .1.1.1.1.2.1 0 0 .1.1.1.1.1.2.2.2.3.1 0 .1.2.3.2.1.1.2.3.3.4 0 .1.1.1.1.1.1 0 .1.2.2.2s0 .1.1 0c.1 0 .1.1.2.1h.1c0 .1.1.1.2.2.1 0 .1.1.1.1-.4.5-.3.5-.3.5zm.7.3zm-4-5.2zm-1.9 3.2h.1zm.2 0c-.2.1 0 0 0 0zm0 .1c-.1 0 0 0 0 0s0-.1 0 0zm1 .7z"/><path d="M220.4 80.2c-.1 0-.1-.1-.2-.1-.1-.1-.3-.1-.5-.2 0-.1-.1 0-.1-.1-.1-.1-.2-.1-.4-.2-.2 0-.2-.1-.3-.2 0 .1.1 0 .1.1l.1.1v.1h.1c.1.1.3.2.5.3.1 0 .2.1.3.1h.2c.2.2.4.2.7.4.3.1.5.3.8.2.1 0 .1.1.2.1.2 0 .4.1.6.1.2.1.4.1.7.1.2 0 .3.1.5.1.2.1.4-.1.6 0 .1.1.3-.1.4 0 .2.2.4.1.7 0 .2.1.4-.1.6.1.1-.1.2.1.3.1 0 .1.1-.1.1 0s0-.1.1-.1c0 0 0-.1 0 0s.1 0 .1.1v.1-.3s0-.1-.1-.1c0 .1 0 0 0 0 0-.1 0 .1 0 0h-.2s-.1 0 0 .1c0-.1-.1-.1-.1-.1 0-.1 0 .1-.1 0 0 .1-.1 0-.1.1h-.2c-.1.1-.1 0-.2.1 0 0-.1-.1-.1 0-.1 0-.1 0-.2.1 0-.1 0-.1-.1-.1 0 0-.1 0-.2.1-.2.1-.3 0-.5-.1 0 0-.1.1-.1.2 0 0-.1-.1-.1 0 0 0-.1-.1-.1 0 0 0 0-.1 0 0-.2-.1-.5 0-.8 0h-.3c-.1 0-.1-.1-.1 0-.1 0-.3 0-.4-.1-.1.1-.2 0-.4 0s-.3-.1-.4-.1h-.2c-.1.1-.2-.2-.3-.1 0 0-.1 0-.1.1-.1.1-.1-.1-.2 0h-.1c0-.1-.2-.1-.2-.1h-.2c0-.8-.1-.8-.1-.9z"/><path d="M219.7 80zm6.6 1.1zm-2.4 3.2zm-.1 0c.1-.1 0 .1 0 0zm0 0s0 .1 0 0c0 0 0 .1 0 0zm-1.3-.4zm-.4-.1c.1 0 .1.1.2.1.2.1.4.1.5.2 0 .1.1 0 .1.1.1 0 .3.1.4.1.1-.1.3 0 .4 0v-.1h-.1s0 .1 0 0h-.2c0-.1-.1 0-.1-.1-.2-.1-.4-.1-.6-.2-.1 0-.2-.1-.3-.1h-.2c-.2-.2-.4-.3-.6-.6-.2-.2-.3-.5-.6-.7-.1-.1-.1-.2-.1-.2-.2-.1-.2-.4-.4-.5-.1-.2-.2-.5-.3-.7s-.1-.4-.2-.6c0-.2-.2-.4-.2-.6.1-.2-.2-.3-.1-.4.1-.3 0-.5-.2-.8 0-.2-.1-.5 0-.7-.1-.1.1-.2.1-.4.1 0-.1-.1 0-.1s-.1-.1-.1-.1-.1 0 0 0 0-.1.1-.1h.1v-.1h-.3s-.1 0-.1.1c.1 0 0 0 0 .1-.1 0 .1 0 0 0v.3s0 .1.1 0c-.1 0-.1.1-.1.1-.1 0 .1.1 0 .1.1 0 0 .1.1.1v.2c.1.1 0 .1.1.2 0 0-.1.1 0 .2 0 .1 0 .1.1.2-.1 0-.1.1-.1.1s.1.1.1.2v.1c.2.2.1.4.1.6h.2v.2s-.1 0 0 0l.3.9h.1c0 .1.1.1.1.2.1 0 0 .1.1.1a.76.76 0 0 1 .2.4c.1.1.1.2.3.3.1.1.2.3.3.5 0 .1.1.1.1.2.1 0 .1.3.3.3.1 0 0 .1.1 0 .2 0 .1.2.2.2 0 0 .1 0 .1.1s.1.1.2.2c.1 0 .1.1.2.1-.6.3-.5.3-.4.3zm.7.4zm-3.4-6.7zm-1.8 3.6zm.1 0c-.1.1 0 0 0 0z"/><path d="M217.7 81.1c0 .1 0 0 0 0zm.8.9zm.4.1c-.1 0-.1-.1-.1-.1a.76.76 0 0 0-.4-.2c0-.1-.1 0-.1-.1-.1-.1-.2-.2-.3-.2s-.2-.1-.2-.2c0 0 .1 0 .1.1l.1.1v.1h.1c.1.1.2.3.4.4.1 0 .1.1.2.2 0 0 .1 0 .1.1h.1c.1.2.4.3.5.4.2.2.4.3.7.3.1 0 .1.1.2.1.2 0 .3.1.5.1.2.1.4.1.6.2.2 0 .3.2.5.2.2.1.4 0 .5.1s.3-.1.3.1c.2.2.4.1.6 0 .2.1.4-.1.6.1.1-.1.2.1.3.1 0 .1.1-.1.1 0s0-.1.1-.1c0 0 0-.1 0 0s.1 0 .1.1v.1-.4s0-.1-.1-.1c0 .1 0 0 0 0 0-.1 0 .1 0 0h-.2s-.1 0 0 .1c0-.1-.1-.1-.1-.1 0-.1 0 .1-.1 0 0 .1-.1 0-.1.1h-.2c0 .1-.1 0-.1.1 0 0-.1-.1-.1 0 0 0-.1 0-.1.1v-.1s-.1 0-.2.1v-.1c-.2.1-.3 0-.4-.1l-.1.1s0-.1-.1-.1c0 0 0-.1-.1 0 0 0 0-.1 0 0-.2-.1-.5 0-.7-.1h-.1c0-.1-.1 0-.2 0s0-.1-.1 0c-.1 0-.2 0-.3-.1-.1.1-.2-.1-.3 0-.2 0-.3-.1-.4-.2h-.1c-.1.1-.1-.2-.3-.1h-.1c-.1.1-.1-.1-.2-.1h-.1c0-.1-.1-.1-.2-.1s-.1-.1-.1-.1c-.3-.8-.4-.8-.4-.8zm-.6-.4zm5.8 1.7zm-1.2 2.5zm-.1 0c.1-.1 0 .1 0 0z"/><path d="M222.8 85.9s0 .1 0 0zm-1.3-.4zm-.4 0c.1 0 .1.1.2.1.2.1.3.1.5.2 0 .1.1 0 .1.1.1 0 .3.1.4.1.1-.1.3 0 .4 0v-.1h-.1s0 .1 0 0h-.2c0-.1-.1 0-.1-.1-.2-.1-.4-.1-.6-.2-.1.1-.2-.1-.3-.1h-.2c-.2-.2-.4-.3-.6-.5s-.4-.4-.7-.5c-.1 0-.1-.1-.2-.2-.2-.1-.3-.3-.5-.4-.1-.2-.3-.4-.5-.6-.1-.2-.1-.4-.3-.5 0-.2-.3-.3-.3-.5s-.2-.2-.2-.4c.1-.3-.1-.5-.3-.7 0-.2-.2-.4-.1-.7-.1-.1.1-.2 0-.3.1 0-.1-.1 0-.1s-.1 0-.1-.1c0 0-.1 0 0 0s0-.1.1-.1h.1s0-.1-.1 0h-.3s-.1 0-.1.1c.1 0 0 0 0 .1-.1 0 .1 0 0 0v.2s0 .1.1 0c-.1 0-.1.1-.1.1-.1.1.1 0 0 .1.1 0 0 .1.1.1v.2c.1 0 0 .1.1.2v.2c0 .1 0 .1.1.2-.1 0-.1.1-.1.1.1 0 .1.1.1.2v.1c.2.1.2.3.2.5h.2v.2c.1.3.3.5.5.8h.1c0 .1.1.1.1.2.1 0 0 .1.1.1a1.38 1.38 0 0 1 .3.4c.2 0 .2.2.3.2.2.1.2.3.3.4 0 .1.1.1.1.1.2 0 .1.2.3.2.1 0 0 .1.1 0 .1 0 .1.2.2.2h.1c0 .1.2.1.2.2.1 0 .1.1.2.1.3 0 .4 0 .4.1zm.7.3zm-4.1-5.9s0-.1 0 0c0-.1 0 0 0 0zm.2-.6zm-.1.1c.1-.2 0 0 0 0z"/><path d="M217.8 79.4c0-.1 0 0 0 0zm.4.9z"/><path d="M218.6 80.4c-.1 0-.1-.1-.2-.1-.1-.1-.3-.2-.5-.3 0-.1-.1 0-.1-.1-.1-.1-.2-.2-.4-.2h-.1l.1-.2c0-.1.2-.1.3-.1s.1 0 .2.1v-.1h-.1s0 .1 0 0c-.1 0-.2 0-.3.1h-.1l-.1.1.1.2v.1h.1c.1.2.3.3.5.4.1 0 .2.2.3.2 0 0 .1 0 .1.1h.1c.2.2.4.3.6.5s.4.4.8.5c.1 0 .1.1.2.1.2 0 .4.2.6.3s.4.3.7.4c.2.1.3.3.5.3.2.1.4.1.6.3.1.2.3 0 .4.2.1.3.4.3.7.3.2.2.5.1.6.4.1 0 .2.2.3.2 0 .1.1 0 .1.1s.1-.1.1 0v.1c-.1.1.1 0 0 .1v.1h.1c0-.1.1-.1.1-.1v-.2h-.1s-.1.1 0 0c-.1 0-.1-.1-.2-.1h-.1V84c0-.1-.1.1-.1-.1 0 .1-.1-.1-.1 0-.1 0-.1-.1-.2-.1s-.1-.1-.2 0l-.1-.1c-.1 0-.1-.1-.2 0v-.1h-.2s-.1 0 0-.1a.55.55 0 0 1-.5-.3l-.1.1s0-.1-.1-.1c0 0 0-.1-.1-.1-.2-.2-.6-.2-.8-.4h-.1c0-.1-.1-.1-.2-.1s0-.1-.1 0a.76.76 0 0 1-.4-.2c-.2 0-.2-.1-.4-.1s-.3-.2-.4-.3c-.1 0-.1 0-.2-.1-.2 0-.2-.2-.3-.2 0 0-.1-.1-.1 0-.1.1-.1-.1-.2-.1h-.1c0-.1-.2-.1-.2-.2-.1 0-.1-.1-.2-.1-.2-.8-.3-.9-.3-.9z"/><path d="M217.9 80zm6.7 3.7zm-8.1-1.4zm.1 0c-.2 0 0-.1 0 0z"/><path d="M216.6 82.3s0-.1 0 0zm.7.9zm.3.2c-.1 0 0-.1-.1-.1l-.3-.3c0-.1-.1-.1-.1-.1l-.3-.3c-.1 0-.2-.1-.2-.2 0 0 .1 0 .1.1l.1.1v.1h.1a1.38 1.38 0 0 0 .3.4c.1 0 .1.2.2.2 0 0 .1 0 .1.1h.1c.1.2.3.4.4.6.2.2.3.4.5.5.1 0 .1.1.2.1.2.1.3.3.4.3.1.1.3.3.5.4s.2.3.4.3c.1.1.4.1.5.2s.3 0 .3.1c.1.2.4.2.6.2.2.1.4 0 .6.2.1 0 .2.1.3.1 0 .1.1-.1.1 0s.1-.1.1-.1 0-.1 0 0 .1 0 0 .1v.1-.4c0 .1 0 0 0 0 0-.1 0 .1 0 0h-.2s-.1 0 0 .1c0-.1-.1-.1-.1-.1 0-.1-.1.1-.1 0 0 .1-.1 0-.1.1-.1 0-.1-.1-.2-.1-.1.1-.1-.1-.2 0l-.1-.1h-.2v-.1h-.2v-.1c-.2.1-.3 0-.4-.2l-.1.1s0-.1-.1-.1c0 0 0-.1-.1 0-.2-.1-.5-.2-.7-.3h-.1c0-.1-.1-.1-.2-.1s0-.1-.1 0c-.1 0-.2-.1-.3-.2-.2 0-.2-.1-.3-.1-.2 0-.2-.2-.3-.3l-.1-.1c-.1 0-.1-.2-.2-.2s0-.1-.1 0c-.1 0 0-.1-.2-.1h-.1c0-.1-.1-.1-.2-.2-.1 0-.1-.1-.1-.1.3-.5.3-.5.2-.5zm-.4-.5zm5.1 3.3zm-6.1-5.2v-.1zm.1-.1c-.1.1 0 0 0 0z"/><path d="M216.3 80.9c0 .1 0 0 0 0 0 .1 0 0 0 0zm.1.4z"/><path d="M216.6 81.3c0-.1-.1-.1-.1-.2l-.1-.1c-.1 0-.1 0-.1-.1h-.1.1c-.1 0 0 0 0 0h.1c0 .1.1.1.1.1.1 0 0 .1 0 .1l.1.2c-.2.1-.1.1-.1.2s0 .2.1.2v.1c.1 0 0 .1.1.1 0 .1.1.1.1.2.1 0 0 .1 0 .1 0 .1.2 0 .1.1s.1 0 .1.1c-.1.1 0 .1.1.1 0 .1.1.1.1.2.1 0-.1.1 0 .1-.1 0 .1 0 0 0 0 0 .1-.1.1 0l-.1.1h-.1c.1 0 .1-.1.1-.1s.1 0 .1-.1c0 0-.1 0 0 0h-.1c.1 0 .1-.1.1-.1.1-.1-.1 0 0 0h-.1v-.1h-.1s0-.1 0 0h-.1c.1-.1.1 0 .1-.1h-.1c-.1 0-.1 0-.1-.1 0 0-.1 0-.1.1 0-.1-.1-.1-.2-.2-.1 0 .1-.1-.1 0-.1 0-.1 0-.1-.1-.1 0 0-.1-.1 0-.1 0 0-.1-.1-.1s.1-.1-.1-.1h-.1c-.1 0 0-.1 0 0 .7-.5.6-.5.6-.6 0 .1.1.1 0 0z"/><path d="M216.5 81.1zm1 1.6z"/></g><g class="C"><path d="M90.6,269.6" class="E G H"/><path d="M231.5 80.1l20.5-2.7 24.2-34.1s9.7-16.9-6.5-29.4c-17.6-10.6-30.2 3.6-30.2 3.6l-11.3 15.3L215 51.5l4.7 21.1c3 7.5 11.8 7.5 11.8 7.5" class="B J L"/></g><path d="M231.6 66.6l14.8-20.4 17.9 12.9-13.1 18.2-20.5 2.4z" class="B"/><g class="F"><path d="M228.7 33.4l-13.1 18.3 4.3 20.2c2.7 7.5 11.3 7.7 11.3 7.7l.4-13 14.8-20.4-17.7-12.8z"/><path d="M231.6 66.6l-12.4 2c.2 1.8 1 4.1 1 4.1l8.5-1.9.7 8.9c1 .5 4.2-.2 4.2-.2l-2-12.9z" class="C E G"/><path d="M264.3 59.1l11.3-15.6s9.4-16.4-6.1-29l-23 31.8 17.8 12.8z"/></g><path d="M276.2 22.6l-7.5 10.5-3.4-4.5 7.6-10.7c.1 0 2.3 2.6 3.3 4.7zm1 2.4L270 35.1l2.9 4.1 5.5-7.7c-.1 0-.1-3.5-1.2-6.5zm-9 18.5c-6.5.4-8.1-4.6-8.1-4.6l.1-2.7c3.9 0 5.8 1.4 5.8 1.4 2.9 1.7 4.6 6.7 4.6 6.7l-2.4-.8zm-39.5-10.1l11.2-15.6s12.5-14.2 29.5-3.5l-23 31.8-17.7-12.7z" class="B"/><g class="C"><g class="F"><path d="M242.3 24.9c1.7 6.3 6.9 6.3 6.9 6.3l2.5-1c-1.2-3.7-3.2-5.1-3.2-5.1-2.5-2.2-7.8-2.3-7.8-2.3l1.6 2.1z" class="D P"/><path d="M259.5 10.6L252 21.1l5.4 1.7 7.6-10.7s-3.4-1.3-5.5-1.5zm-9 .8l-5.6 7.8 4.8 1.4 7.3-10.1c0-.1-3.3-.1-6.5.9z" class="E G"/></g><path d="M107.1 235.5l-20 2.8-14.5 17.1L61 270.3s-11.1 17.1 4.7 30.5c17.4 11.4 30.6-2.4 30.6-2.4l11.9-15.2 13.8-18.1-3.2-21.3c-2.7-7.9-11.7-8.3-11.7-8.3" class="B J L"/></g><path d="M108.1 247.4l-17.4 22.1 17.3 13.4 13.6-17.8-3.5-20.7z" class="B"/><g class="F"><path d="M107.9 236.2L87.5 239l-14.2 17 17.5 13.5 17.3-22.1 10-3c-2.5-7.6-10.2-8.2-10.2-8.2z"/><g class="C E G"><path d="M118.5 246.6l-.3-1.5-9 .7-1.8-9.5c-.9-.1-1.5.2-1.5.2l2.1 10.9 10.5-.8z"/><path d="M118.3 245.2s-.1-.5-.5-1.5l-7.3.5-1.4-7.8c-1-.2-1.7-.2-1.7-.2l1.8 9.6 9.1-.6z"/><path d="M117.8 243.7s-.2-.6-.7-1.4l-5.3.4-1.1-5.7-1.5-.5 1.4 7.8 7.2-.6z"/></g><path d="M107.8 283L96 298.1s-13.1 13.7-29.6 2.3l24.2-30.9 17.2 13.5z"/></g><path d="M73.3 256l-11.8 15.2s-10 16 5 29.2l24.2-30.9L73.3 256z" class="B"/><g class="C D"><path d="M159.7,185.2" class="I K"/><path d="M196.9 277.6c-33.9-50.1-3.6-106.4-3.6-106.4 35.7-60.5-12.5-93.1-12.5-93.1s-14.2-9.5-21.7-20.3c-7.8 10.3-21.7 20.3-21.7 20.3s-48.2 32.7-12.5 93.1c0 0 30.3 56.4-3.6 106.4 0 0 14 22 37.8 32.1 0 0 23.8-8.4 37.8-32.1z" class="B J"/></g><path d="M193.9 278.3c-33.9-50.1-4-106.4-4-106.4 34.7-58.2-8.7-89.7-8.7-89.7s-18.3-13.1-22.1-20.1c-3.8 7-21.2 19.5-21.2 19.5s-45.8 32.2-9.7 90.3c0 0 30 56.1-3.9 106.2 0 0 12.3 18.5 34.8 29 0 0 20-6.3 34.8-28.8z" class="F"/><path d="M154.9 87.8h9.7v29.8h-9.7z" class="B"/><g class="C"><g class="D E"><path d="M169.1 85.8c0 3.1-4.2 5-9.4 5s-9.4-1.9-9.4-5c0-3.2 4.2-5 9.4-5 5.2-.1 9.4 1.8 9.4 5zm-15.7 39h12.1V274l-5.8 12.7-5.8-12.6z" class="F"/><path d="M153.9 274.1l5.8-12.6 5.8 12.5m-5.8-12.5v-133" class="I"/></g><path d="M197.7 178.7l10.4-19s14.3 2 13.6 23.5c0 0 .5 10-6.7 9.1 0 0-10-16.5-23.7-13.6 0 0-14.6 6.8.8 35.8 0 0-3.2 2.5-21.9-3.4 0 0-3.5 13.3 6.4 19.1 15.4 1.1 18.1-2.1 18.1-2.1 1.3-2 3.9-1.7 3.9-1.7 1.8.7 5.5 1.5 5.5 1.5 5.7.8 7-2.9 7-2.9.9-4-1.7-6.2-1.7-6.2-2-2.2-5-2.5-5-2.5l-2.9-7.7c-2.9-6 .3-8 .3-8 5-1.4 5.5 5.6 5.5 5.6.8 7.8 5.1 11.5 5.1 11.5 6 6.3 11.9 1.8 11.9 1.8 22.3-12.8 21.9-42.1 21.9-42.1-3.6-39.2-38.8-35.8-38.8-35.8-6.6 0-4.5-6.3-4.5-6.3 1.7-5.1 2.9-2.1 2.9-2.1 3.6 12.1 18.1 7.5 18.1 7.5 10-4.6 7.2-13.4 7.2-13.4-1.7-12.8-16.3-13.9-16.3-13.9-3.2-1.2-3.2-8.1-3.2-8.1 6.4-35.7-21-48.1-21-48.1-4.8-2.3-1.8 1.8-1.8 1.8 18.3 23.4 6.3 44.4 6.3 44.4-1.8 3.2-1.7 8.4-1.7 8.4-.3 6.9 4.5 11.3 4.5 11.3s-9.2 10.7-.2 22.6c0 0-7.5 14.8-8.9 21.3 0 0-1.2 3.9-5.7 3.8 0 0-11.7.8-12.3-1.5 0 0-1.1-5.9-4.6-5.6l.1 6.8c-6.2 3.3-13.4-.4-13.4-.4v-5.8c-3.1.1-3.4 5-3.4 5-.6 2.3-12.3 1.5-12.3 1.5-4.5.2-5.7-3.8-5.7-3.8-1.4-6.5-8.9-21.3-8.9-21.3 9.1-11.9-.2-22.6-.2-22.6s4.8-4.4 4.5-11.3c0 0 .2-5.3-1.7-8.4 0 0-11.9-21 6.3-44.4 0 0 3-4.1-1.8-1.8 0 0-27.5 12.4-21 48.1 0 0 0 6.9-3.2 8.1 0 0-15 1.1-16.6 13.9 0 0-2.5 8.9 7.6 13.4 0 0 14.5 4.5 18.1-7.5 0 0 1.2-3 2.9 2.1 0 0 2.1 6.3-4.5 6.3 0 0-35.2-3.5-38.8 35.8 0 0-.5 29.3 21.9 42.1 0 0 5.9 4.5 11.9-1.8 0 0 4.3-3.6 5.1-11.5 0 0 .6-7 5.5-5.6 0 0 3.3 2 .3 8l-2.9 7.7s-3 .3-5 2.5c0 0-2.6 2.2-1.7 6.2 0 0 1.3 3.7 7 2.9 0 0 3.7-.8 5.5-1.5 0 0 2.6-.3 3.9 1.7 0 0 2.7 3.1 18.1 2.1 9.9-5.8 6.4-19.1 6.4-19.1-18.8 5.9-21.9 3.4-21.9 3.4 15.4-29 .8-35.8.8-35.8-13.8-2.9-23.7 13.6-23.7 13.6-7.2.9-6.7-9.1-6.7-9.1-.7-21.5 13.6-23.5 13.6-23.5l10.4 19" class="B J Q"/></g><path d="M191.3 178.7s-2.6 1.3-5 5.2l-4.4.2-13.4-.2c-8.1 3.5-17 0-17 0l-13.3.2-4.2-.2s-3.8-5-5.1-5.3" class="B"/><path d="M134.7 217.9l12.4-1.8m-12.4 5.1h10.9m-10.9 4.3h12.4m38.4 0h-12.4m12.4-4.3h-10.9m10.9-3.3l-12.4-1.8" class="C D I J"/><g class="F"><path d="M116.9 223.2c-.3 1.7-1.2 2.3-2.8 2.3-1.5 0-2.8-1.2-2.8-2.8 0-1.5 2.3-2.8 3.4-2.8 1.6.4 2.2 1.8 2.2 3.3z"/><circle cx="102.3" cy="128.5" r="10.9"/></g><g class="I C"><path d="M114.7 117.6s6.2-8.7 3-15.1c0 0-13-26.2 14.2-46.1m73.6 61.2s-6.2-8.7-3-15.1c0 0 13-26.2-14.2-46.1" class="J Q"/><path d="M154.3 175.1s5.3 2.4 11.3 0m-11.3 3.8s5.3 2.4 11.3 0m-11.3 3.1s5.3 2.4 11.3 0" class="D K"/></g><g class="F"><path d="M203.3 223.2c.3 1.7 1.2 2.3 2.8 2.3 1.5 0 2.8-1.2 2.8-2.8 0-1.5-2.3-2.8-3.4-2.8-1.7.4-2.2 1.8-2.2 3.3z"/><circle cx="217.9" cy="128.5" r="10.9"/><path d="M178.6 223.3c0-10.4-8.5-18.9-18.9-18.9s-18.9 8.5-18.9 18.9 8.4 18.9 18.9 18.9 18.9-8.5 18.9-18.9z" class="C D E"/></g><path d="M159.7 238.5c-8.4 0-15.7-6.8-15.7-15.2s7.3-15.2 15.7-15.2v30.4z" class="B C D E"/><g class="F C D E"><path d="M159.7 208.1c8.4 0 14.8 6.8 14.8 15.2s-6.3 15.2-14.7 15.2l-.1-30.4zm-6.3-83.3l6.3 6.8 5.8-6.8"/><path d="M141.6 109.3l13.2 7.4h3.7s1.1-2.9 2.5 0h3.4l13.2-7.4v8.3l-12.2 7.2h-12.1l-11.8-7.2v-8.3z"/></g><ellipse cx="159.8" cy="120.7" rx="1" ry="2" class="B"/><path d="M165.8 85.8c0 1.1-3.1 2.6-6.1 2.6s-6.1-1.3-6.1-2.6 3.1-2.6 6.1-2.6c3-.1 6.1 1.4 6.1 2.6z" class="C D E F"/><path d="M162.8 85.8c0 .6-1.4 1.2-3.1 1.2s-3.1-.6-3.1-1.2c0-.7 1.4-1.2 3.1-1.2s3.1.5 3.1 1.2z" class="B"/></svg>