<svg xmlns="http://www.w3.org/2000/svg" viewBox="0 0 235 320.4"><path fill="#2B2C77" d="M111.7 319.8c-4.3-.7-8.8-2-12.7-2.8-11.8-2.6-15.4-10.3-17.1-20.4-1.9-10.7-2.9-21.4-4.9-32-1.7-8.9-8.9-12-16.4-13-3-.4-6 .1-9-.4-3.2-.5-5.4-2-2.7-5.8 1-1.4 1.4-3.2 2.2-5.1-4-.2-7 1.1-9.9 2.5-2.8 1.4-5.3.7-7.3-.8-1.8-1.5-2.8-3.5-1.4-6.5.9-2.1.6-4.8 1.1-7.3.5-2.4-.2-4.1-3.3-5-2.5-.8-4.9-.6-7.3-.7-6.4-.2-8-1.5-7.2-7.6.8-6.1 1.2-12.4 4.9-17.7.7-.9 1.6-2 .7-3.1-.8-1-2.2-.6-3.3-.7-1.8-.1-3 1.2-4.5 2-4.2 2.1-5.3 1.6-5.9-2.8-2.3-19.9 2.2-38.3 11.8-55.7.6-1 1.2-1.9 2-2.8 2-2.1 1.8-3.2-.9-4.9-9-5.5-15.3-13.4-18.6-23.6C-1 96.3.2 86.7.9 77.3c.6-9.1 2.3-18.2 3.9-27.2C7.2 36.1 7.6 22.1 6 8c-.3-1.1.1-3.7 2-4.5 2.6-1.1 5.4-.7 7.5 1 2.8 2.3 6 4.7 7.8 7.8C26.8 18.5 32 23 37 27.7c10 9.5 19.7 19.4 30 28.7 5.7 5.2 12 10.3 14.9 18.1.7 2 1 3.8 1 5.7 0 1.8.8 3 2.4 3.3 1.4.3 2.5-.2 3.5-1.7 3-4.6 11.5-6.3 16.8-3.7.4.2.9.5 1.3.8 6.7 5.6 13 6.6 20.2.1 4-3.7 14.1-2.1 18.6 1.4 1.3 1 2.7 2.4 4.4 1.7 1.3-.5 1.9-2.1 1.9-3.6-.3-6.4 3.4-10.9 7.4-14.9 14.2-14.3 28.6-28.3 42.8-42.7 4.5-4.6 8.2-9.9 12.4-14.9.8-1 1.9-1.7 2.9-2.6 2.4-1.9 5.1-4.5 7.9-2.9 1.4.8 1.3 4.5 1.2 7.4-.7 19 1.2 37.8 5.5 56.3 1.6 6.8 1.5 14 2.2 21.1.1 1-.6 2.4 1 3 0 3 0 6 0 9-.2.1-.4.1-.5.2-2.7 12.8-8.5 23.5-20.2 30.3-2.5 1.5-3.2 4-.2 6.3 2.2 1.7 3.7 4.2 4.9 6.8 7.5 16.2 10.9 33.1 10 50.9-.2 4.1-2.2 4.4-5.3 2.8-2.2-1.1-4.2-2.6-7-2.2-2.1.3-3 1.8-2 3.2 3.7 5.1 4.7 10.7 5.4 16.9.9 7.8.7 8.5-7.4 8.3-7-.2-8.8 1.6-8.8 8.7 0 2.3-.2 4.7 0 7 .4 4.3-1.9 5.8-5.7 6-3.1.2-5.8-1.1-8.4-2.6-1-.6-2-.8-2.8-.3-1.1.7-.3 1.9 0 2.6.7 2.3 3.8 4.3.7 6.9-2.2 1.9-5 2-7.7 2.3-1.3.2-2.7.1-4 0-8.8-.9-15 6.3-16 14-1.3 9.8-1.7 19.6-3.2 29.4-1.4 9.7-5.5 17.8-15.7 21.1-4.7 1.5-9 2.8-14 3.6-5.6 1-9.6 1.2-15.7.3zm-87-283.3c-1.4.8-1 1.9-1 2.8.2 9.7-1.8 19.2-4.4 28.4-5.3 19.2-3 36.3 10.6 51.4 2.4 2.7 4.4 5.8 6.6 8.7 2.6 3.5 2.8 6.7.8 11.1-3.6 7.6-5.9 15.9-8.8 24 3.7 1.2 6.7-.3 9.8-.6 5.3-.5 9.6 1.5 11.9 5.6 2 3.4-1 6.9-3.1 9.9-4.6 6.5-9.2 13-11.2 20.9-.6 2.4-1.6 5.7 3.4 4.6 8.6-2 15 4.8 12.4 13.1-.7 2.2-1.3 4.3-1.3 6.9.9-.1 1.5-.1 2.1-.3 9.5-2.6 13.1-4.4 16.9 10 1 3.7 3.4 5.6 6.8 6.5 10.2 2.4 14.9 7.6 16.9 17.6 1.5 7.8.6 15.6.9 23.4.2 4.6 1.5 8.6 4.5 12.3 7.6 9.3 17.6 10.5 28.3 8.7 9.6-1.6 17.2-11.2 17.3-20.9 0-5.5-.5-11.1.1-16.5 1.5-15.3 5-22.4 17.6-25.4 4.4-1 6-3.1 6.4-7.3.7-7.8 5.9-11.6 13-10 6.6 1.5 6.6 1.5 4.8-5.2 0-.2-.2-.3-.2-.4-2.7-9.4 2.5-15.1 12.2-13.5 3 .5 4.1-.4 3.3-3.4-1.4-5.3-3.7-10.2-6.9-14.7-2.7-3.8-5.2-7.7-7.8-11.6-2.2-3.3-.8-5.8 1.9-8.2 3.3-3 7-3.3 11.1-2.8 1.5.2 2.9.7 4.4.8 2.5.1 3.7-.2 2.4-3.4-2.6-6.4-4.3-13.1-7.7-19.3-2.8-5.1-2.6-10.4 1.7-15.2 3.4-3.8 6.4-8.1 9.5-12.2 8.1-10.8 9.5-23.1 7.4-35.9-2.3-13.6-7.4-26.7-7.2-41.2-6.3 5.7-11.8 11.4-18 16.2-15.6 12-24.7 28.4-31.8 46.1-1.1 2.8-2.2 3.3-4.7 2.1-2.4-1.1-4.4-2.8-7.1-3.5-9.7-2.4-18.8.2-27.7 3.4-2.6 1-4.3.7-6.8-.1-11.6-3.6-23.3-7.1-34.7.9-3.2 2.2-3.4-.6-4.2-2.5C68.8 83.5 61.6 69.6 50 58.7 41.6 51.2 32.1 45 24.7 36.5z"/><path fill="#F5CD16" d="M24.7 36.5c7.3 8.5 16.8 14.7 25 22.4C61.3 69.8 68.5 83.6 74.8 98c.8 1.9 1.1 4.7 4.2 2.5 11.4-7.9 23.1-4.5 34.7-.9 2.5.8 4.2 1.1 6.8.1 8.9-3.2 18-5.9 27.7-3.4 2.7.7 4.7 2.4 7.1 3.5 2.5 1.1 3.6.7 4.7-2.1 7.1-17.7 16.2-34.1 31.8-46.1 6.2-4.8 11.8-10.5 18-16.2-.2 14.5 4.9 27.6 7.2 41.2 2.2 12.8.7 25.1-7.4 35.9-3.1 4.1-6 8.4-9.5 12.2-4.3 4.8-4.5 10.1-1.7 15.2 3.4 6.2 5.1 12.9 7.7 19.3 1.3 3.2.1 3.6-2.4 3.4-1.5-.1-2.9-.6-4.4-.8-4.1-.5-7.8-.2-11.1 2.8-2.7 2.4-4 4.9-1.9 8.2 2.5 3.9 5.1 7.8 7.8 11.6 3.2 4.5 5.4 9.4 6.9 14.7.8 3.1-.3 4-3.3 3.4-9.8-1.7-14.9 4.1-12.2 13.5 0 .2.2.3.2.4 1.8 6.7 1.8 6.7-4.8 5.2-7.1-1.6-12.3 2.2-13 10-.4 4.3-2.1 6.3-6.4 7.3-12.6 2.9-16.1 10.1-17.6 25.4-.5 5.5 0 11-.1 16.5 0 9.8-7.7 19.3-17.3 20.9-10.8 1.8-20.8.6-28.3-8.7-3-3.7-4.3-7.7-4.5-12.3-.3-7.8.6-15.6-.9-23.4-1.9-10-6.7-15.2-16.9-17.6-3.4-.8-5.8-2.7-6.8-6.5-3.8-14.4-7.4-12.6-16.9-10-.6.2-1.2.2-2.1.3 0-2.6.7-4.7 1.3-6.9 2.6-8.3-3.8-15.1-12.4-13.1-4.9 1.1-4-2.1-3.4-4.6 2-7.9 6.6-14.4 11.2-20.9 2.2-3 5.1-6.5 3.1-9.9-2.3-4.1-6.6-6.1-11.9-5.6-3.1.3-6.1 1.8-9.8.6 2.9-8.1 5.2-16.3 8.8-24 2.1-4.4 1.8-7.6-.8-11.1-2.1-2.9-4.1-6-6.6-8.7C16 104.2 13.6 87.1 19 67.9c2.6-9.2 4.6-18.7 4.4-28.4.3-1.1-.1-2.2 1.3-3zm114.6 243.1"/><path fill="#2B2C77" d="M206.3 104.4c3.6-4 6.2-8.4 5.5-13.8-1.6-12.9-3.4-25.8-5.4-38.7-.2-1.1-.1-3.1-1.6-3.3-1.6-.3-2.3 1.6-3.5 2.5-.7.6-.4 1.4-.9 2.2-9.7 13.5-19.7 26.7-29.9 39.9-1.7 2.2-2.4 5-2.9 7.8-.4 2.2-.2 3.7 1.9 5 1.5.9 3.7 2 3.2 4-.6 2.2-3.2 1.9-5 2.3-6.1 1.4-8.5 4.3-10 10.2-2.2 8.8-3.6 17.8-8.9 25.6-5.6 8.3-14.7 13.5-19.5 22.6-1.1 2.1-2.9.5-4.2-1.1-8.2-10.1-7-8.2-14.5 0-.2.2-.4.6-.5.8-1.4 1.9-3 1.6-4-.1-3.8-6.4-9.5-11.1-14.6-16.2-8.2-8.2-11.2-19-13.7-29.9-1.1-4.8-2.8-8.9-7.8-10.6-2.6-.9-5.4-1.6-8.4-1.2 0-2.8 1.4-4.4 2.9-5.1 4-2.2 3.2-5 2.1-8.4-1.7-5.3-6.1-8.6-9.1-12.9-8.3-11.7-17.9-22.3-25.6-34.4-.7-1.1-1.5-2.5-3-2.3-2 .3-.9 2.1-1.2 3.3-2.5 9-2.1 18.4-3.9 27.4-2.2 10.9-2 21.2 7.9 28.9 1.8 1.4 2.8 3.8 4.5 5.3 7 6.3 10.9 13.2 6.7 22.9-1.5 3.5.7 4.3 3.7 3.1 3.7-1.5 7.5-2.3 11.6-2 3.4.3 4.9 2 4.6 5.2-.5 5.1-1.4 10.1-4.4 14.5-1.1 1.6-2.6 3.1-2.6 5.3 0 11.7 2 22.4 12.8 29.4 1.4.9 2.4 2.3 3.6 3.4 6.7 6.3 10.8 14.1 14.1 22.6 3.5 9 8.4 17.4 10.7 27 2.7 11.5 1.9 23.1 1.8 34.7 0 3.9 1.4 6.8 3.9 9.3 8.9 9 25.8 8.4 34-1.2 2-2.4 2.8-5 2.6-8.5-.7-11.6-1.3-23.2 1.3-34.8 3-13.4 9.8-25.2 14.7-37.8 2.3-5.9 6.9-11 11.9-14.4 6.7-4.7 10.2-10.8 12.1-18.2 1.6-6.4 2.7-12.8-2.4-18.7-2.9-3.3-3.3-7.9-4-12.1-.7-4.7.9-6.1 5.8-6.3 3.1-.1 6 .4 8.8 1.3 1.7.5 3.6 2.2 4.9.9 1.2-1.2 0-3.4-.2-5.2-.5-4.6-4.1-9.2.4-13.9 4.9-5.4 9-11.1 13.7-16.3zm-110.7 84c-3.5-.1-12-8.7-11.7-11.7.2-2.1 1.6-3.5 3.7-2.5 4.7 2.1 8.1 5.7 10.1 10.4.7 1.6.1 3.6-2.1 3.8zm23.7 83.2c-1.5-.2-3-.2-4.5 0-2.4.3-3-.6-3.1-3-1.2-25-.8-50-1-75 0-2.8 1-3.4 3.5-3.3 10.7.3 9-1.9 9.4 8.7.3 10.7.1 21.3.1 32 .1 0 .2 0 .2 0 0 12-.2 24 .1 36 0 3.7-.9 5.3-4.7 4.6zm31.1-93.3c-2.1 3.7-4.9 7-8.7 9.2-1.1.7-2.3 1.4-3.6.1-1.3-1.2-1.4-2.4-.6-4 2.3-4.5 5.9-7.8 9.6-10.4 4 .5 4.6 2.9 3.3 5.1z"/></svg>