<svg xmlns="http://www.w3.org/2000/svg" viewBox="0 0 335 320.4"><path fill="#4A3F8C" d="M177.7 31.5s-5.9 22.5-6.9 25.8c-1 3.3-3.8 12.5-5.7 19.5-2.9 10.9-6.3 26.5-6.6 30.7-.3 4.6-2.4 16.2-2.4 22.4 0 4.2-.1 14 0 18.6.1 3.3.5 15.8.5 21.4s2 13.6 2 13.6l-9.3 2.8s-.5-3.3-3.4-8-11.8-20.7-16.2-28.2c-4.4-7.5-8.2-15.4-11-22-5.5-13-5.3-21.2-5.3-28.7s2.5-19.6 5.8-25.1c7.3-12.2 14.3-18 19.1-21.8 6.8-5.4 20.3-13 25.3-15.3 4.8-2.2 14.1-5.7 14.1-5.7zM114 156c-4.8-4.4-9.1-7.5-16.2-10.9-11.5-5.5-22.6-8.2-37.7-4.6-20.6 4.9-18 27.5-17.5 30.6.6 3.2 2 14.6 6.3 23.2s11.4 20.1 11.4 20.1 5-27.6 19.3-34.8c14.3-7.2 30-3.3 39.7-1.2 9.2 1.9 19.1 6.3 19.1 6.3S124.9 166.1 114 156zm-47.6 8.4l-3.1 6.4-3.4-6.2-7.3-.8 5.1-5-1.4-6.9L63 155l6.4-3.4-1.1 6.9 5.4 4.8-7.3 1.1zM286.1 169.4c-.6-7.2-4-17.1-5.8-21.4s-4.8-14.5-17.9-14.9c-13.1-.4-26.7 9-29 10.4-2.4 1.4-7.9 5.6-17.3 16.2-9.3 10.6-6.6 28.8-6.6 28.8s9.6-9.2 16-13 9.6-5.3 28.1-7.7 33.6 13.4 33.6 13.4-.6-4.6-1.1-11.8zm-21.9-13.5l-3.1 7.3-4.1-6.8-8.2-.6 5.5-5.9-1.9-7.6 7.5 3.1 7-4.1-.8 7.8 6.3 5.1-8.2 1.7zM168.9 201.4s1.5 27.3 7.6 45.1c2.6 7.5 18.6 40.1 25 45.5 0 0 8.5-13.2 13.3-35 2.2-9.9 3.4-22 3.1-34.7 0 0 2.5-17.1-24.5-29.1l-24.5 8.2z"/><path fill="#fff" d="M212.9 320.4l-6-4.4-7.1 2.2 2.5-6.8-4.5-5.8 7.6.1 4.4-5.8 2.2 6.9 7.2 2.2-6.3 4.1zM192.7 20l-6.2-4-7 2.7 2.1-6.9-4.8-5.5 7.4-.3 4-6 2.6 6.7 7.2 1.8-5.8 4.4zM48.6 202.8S5.2 174.5.8 151.5s11.4-31.5 14.6-33.8c5.5-3.9 22.5-8.1 33.2-8.2s27.2.7 34.9 3.5c0 0-19.1-26-18.4-41.9.7-15.8 12.1-26 27.2-31.3s33.5-11.6 59.2-12c25.7-.4 45.6-1.1 80.9 5.3s49.3 14.8 54.8 18.7 12.5 8.4 13.6 20.4-13.6 26-22.8 33.1c-9.2 7-16.2 9.9-16.2 9.9s30.9 3.1 48.5 7.7 24.6 16.3 24.6 16.3-18-13.1-49.6-15.2-41.9-2.5-41.9-2.5 48.9-25 52.9-43.6c4-18.7-18-25-27.9-27.8-9.9-2.8-35.8-13-68.2-17-19.1-2.4-42.9-5.2-96.9 5.7s-29 49.3-27.6 51.7c1.5 2.5 22.1 29.6 22.1 29.6s-37-11.2-75.6-1c0 0-10.4 3.8-14.2 9.9-4.4 6.9-2.7 15.8-2.2 18.2.9 4.4 2.8 9.5 10.2 18.2 4.2 5 16.8 13.1 20.5 15.9 3.7 2.8 9.9 10.2 11 15.8 1.1 5.7 1.1 5.7 1.1 5.7zM181.2 31.5s-15.2 54.9-15.7 73.7c-.5 18.8-5.4 46 0 78.4l30.4-6.6s-2.9-10.8 0-18.3 8.8-15 17.6-21.1c8.8-6.1 24-13.1 24-13.1s-3.4-22.5-9.8-36.1c-6.3-13.7-17.6-33.9-46.5-56.9zM292.2 187.3l-1.5-8.4s20.3-9.4 23.7-12c5.4-4.1 11.9-7.9 19.3-19.4 0 0 3.1 8.6-12.2 22.2-4.7 4.2-13.5 10.1-21.4 13.8-7.9 3.8-7.9 3.8-7.9 3.8z"/><path fill="#4A3F8C" d="M147.2 192.2s-7.8 6.2-6.3 10.6c1.5 4.4 14.5 2.5 17.1 1.4 0 0-10.5.4-12.9-3-2.4-3.3 2.1-9 2.1-9z"/></svg>