<?xml version="1.0" encoding="utf-8"?>
<!-- Generator: Adobe Illustrator 19.1.0, SVG Export Plug-In . SVG Version: 6.00 Build 0)  -->
<svg version="1.1" id="Layer_1" xmlns="http://www.w3.org/2000/svg" xmlns:xlink="http://www.w3.org/1999/xlink" x="0px" y="0px"
	 width="971.1px" height="228px" viewBox="0 0 971.1 228" enable-background="new 0 0 971.1 228" xml:space="preserve">
<g>
	<g>
		<path fill="#FFFFFF" d="M132.7,228c-0.9-1.7-0.7-3.3,1.5-4.4c1-0.5,1.7-1.7,2.5-2.5c0.7,0.6,1.3,1.1,2.1,1.6c0.1,0.7,0,1.4-0.8,2
			c-1.2,0.9-2.2,1.9-3.3,2.9c-0.1,0.1-0.1,0.3-0.2,0.4C133.9,228,133.3,228,132.7,228z M143.7,131.7c0-0.1-0.1-0.4-0.1-0.4
			c-1.4-0.7-2.6-1.4-3.9-1.8c-1.4-0.3-2.1-1.4-3.2-2.1c-1.1-0.7-1.9-2-2.9-2.9c-1.3-1.2-1.7-3.3-3.7-4.1c-0.7-0.3-1.2-1.3-1.8-2.1
			c-0.2,0-0.5,0-0.9-0.1c-0.2-1.2-1.2-1.4-2.2-1.7c-0.9-0.3-1.7-0.7-2.8-1.1c-0.1,0.3-0.3,0.8-0.6,1.4c1.5,0.5,3.1,0.8,3.5,2
			s0.1,2.7,0.1,4.1c-0.4,0.3-1.5-0.4-1.3,0.8c-0.5,0.1-0.9,0.1-1.3,0.3c-1.1,0.6-0.1,1.3,0.1,1.8c0.6,1.4,1.4,2.6,2.1,3.9
			c0.1,0.2,0.3,0.5,0.5,0.5c0.5,0.1,0.6,0.6,0.9,0.8c1.4,1,2.5,2.5,4.5,2.9c1.5,0.3,3,0.4,4.5,0.3c1.4-0.1,2.7-0.5,4.1-0.8
			c0.2,0,0.5,0,0.6,0.1s0.1,0.4,0,0.6c-0.3,1.1-0.5,2.2-0.8,3.2c-0.5,1.6-0.6,3.3-1.8,4.8c-0.7,0.9-1.2,2-2.1,2.7
			c-0.4,0.3-0.9,0.5-1.3,0.7c-0.1,0.1-0.3,0-0.4,0.1c-0.8,1.4-2.4,1.6-3.6,2.4c-0.9,0.5-2.1,0.7-3.2,1c-1.7,0.5-3.3,0.9-5,1.3
			c-0.2,0-0.4,0.2-0.5,0.3c-0.7,1.3-2.4,1.6-2.8,3.1c-0.1,0.4-0.8,0.5-1.2,0.8c-1,1-2,2.1-3.1,3c-1,0.8-2.2,1.2-3.4,1.8
			c-1,0.6-1.9,1.1-2.9,1.8c-0.6,0.4-1,0.9-1.5,1.4c0,0.1,0,0.2,0,0.4c0.6,0.1,1.1,0.4,1.7,0.4c1.5,0,2.8,0.2,4.2,0.7
			c1,0.4,2.5,0.6,3.7-0.4c0.3-0.3,1.1-0.1,1.7-0.1c0.2,0,0.4,0.2,0.7,0.2c0.7-0.1,1.4-0.2,2.1-0.4c0.5-0.1,1-0.4,1.6-0.6
			c0.3-0.1,0.6-0.1,0.9-0.2c0.6-0.2,1.1-0.4,1.7-0.6c1.4-0.5,2.9-0.9,4.3-1.4c1-0.4,2-1,2.9-1.6c0.8-0.5,1.6-1,2.4-1.5
			c0.2-0.1,0.5-0.3,0.8-0.3c1.1-0.1,2.1,0.3,3.2,0c0.6-0.2,1.3-0.3,2.2-0.6c-0.6,1-0.8,1.6-1.8,2.1c-0.9,0.4-1.3,1.6-2,2.4
			c-1.5,1.6-3.1,3.1-4.4,4.9c-1,1.3-1.6,2.8-2.4,4.2c-0.2,0.4-0.5,0.8-0.9,1.1c-0.2,0.1-0.7-0.1-1.1-0.1c-0.4,0-0.7,0-1.1,0
			c-0.3,0-0.6,0.1-0.7-0.1c-0.8-0.9-1.8-0.7-2.8-0.8c-0.3,0-0.6-0.2-0.8-0.2c-0.3,0-0.6,0-0.8,0c-0.3,0-0.6,0.1-0.8,0.1
			c-0.3,0-0.7,0-1,0c-0.3-0.1-0.6-0.3-1-0.3c-1.8,0-3.6-0.1-5.3,0c-1.4,0.1-2.8,0-4,0.5c-1.7,0.6-3.3,0-4.8-0.2
			c-2-0.3-3.8-1.4-5.6-2.3c-0.5-0.2-0.9-0.7-1.3-1.1c0.5-0.4,1-0.8,1.5-1.2s1-0.8,1.6-1.2c1.4-0.9,2.8-1.8,4.1-2.8
			c1.1-0.9,2-2,3.1-3c0.9-0.8,1.9-1.4,2.7-2.3c0.9-0.9,1.6-1.8,2.3-2.8c1-1.4,2-2.8,3-4.3c0.1-0.2,0.3-0.4,0.5-0.5
			c0.5-0.3,0.5-0.6,0.1-1.1c-0.7-0.9-1.3-2-1.9-3c-0.5-0.8-1-1.6-1.4-2.5c-0.7-1.6-1.5-3.2-2-4.9c-0.5-1.6-0.9-3.2-1.3-4.9
			c-0.2-0.8-0.3-1.5-0.4-2.3c-0.1-0.7-0.2-1.5-0.5-2.2c-0.1-0.3-0.7-0.6-1.1-0.5c-2.6,0.1-5.2,0.2-7.9,0.5c-0.3,0-0.9,0.6-0.9,1
			c-0.2,2.6-0.1,5.3-0.6,7.8c-0.3,1.8,0,3.6-0.4,5.2c-0.6,2.1-0.2,4.2-0.4,6.2c0,0.1,0,0.2-0.1,0.3c0,0.1-0.1,0.1-0.3,0.2
			c0-0.6,0-1.1-0.1-1.6c-0.2-1-0.5-1.9-0.7-2.8c0-0.3,0.2-0.6,0.2-0.8c-0.2-1.2,0.4-2.5-0.4-3.7c-0.2-0.3,0-0.9-0.1-1.4
			c-0.2-3.3-0.3-6.7-0.5-10.2c-1.4-0.1-2.8-0.2-4.2-0.3c-0.8-0.1-1.6-0.3-2.5-0.4c-0.4,0-0.7,0.3-1.1,0.3c-0.2,0-0.6,0-0.7-0.1
			c-0.7-0.6-1.1,0.1-1.2,0.4c-0.3,0.7-0.3,1.4-0.5,2.2s-0.5,1.7-0.7,2.5c0,0.1-0.1,0.1-0.1,0.2c0.3,1.4-0.6,2.5-0.9,3.7
			s-0.9,2.3-1.4,3.4c-0.4,0.9-0.8,1.9-1.2,2.8c0,0.1,0,0.2-0.1,0.2c-0.8,1-1.6,2-2.3,3.1c-0.5,0.8-1.3,1.7-0.4,2.8
			c0.2,0.2,0.1,0.6,0.1,0.7c0.4,0.5,0.6,0.9,0.9,1.2c0.7,0.9,1,2.1,2.1,2.6c0.2,0.1,0.3,0.4,0.4,0.5c0.4,0.5,0.3,1.4,1.2,1.5
			c0.2,0,0.4,0.5,0.5,0.7c0.6,1.1,1.5,1.9,2.4,2.6c0.3,0.2,0.5,0.6,0.8,0.9c1.5,1.2,3,2.4,4.5,3.5c1.3,1,2.7,2,3.9,3.1
			c0.4,0.3,0.5,1,0.7,1.3c-1.3,0.7-2.4,1.3-3.6,1.8c-0.4,0.2-0.9,0.4-1.3,0.6c-1.9,0.8-3.9,0.6-5.9,0.5c-0.8,0-1.6-0.3-2.4-0.4
			c-0.2,0-0.5,0.2-0.6,0.1c-0.8-0.2-1.6-0.5-2.4-0.5s-1.7,0.3-2.6,0.4c0.1-1.2-0.9-1.1-1.4-0.8c-1.5,0.7-2.9,0.2-4.4,0.4
			c-1.2,0.2-2.4,0.5-3.6,0.8c-0.7,0.2-1.4,0.6-2,0.4c-0.5-0.2-1-0.9-1.3-1.5c-0.5-0.8-0.7-2-1.4-2.6c-1.6-1.4-2.2-3.6-4-5
			c-0.7-0.6-1.1-1.6-1.7-2.4c-0.1-0.1-0.3-0.2-0.4-0.3c-0.7-0.7-1.3-1.3-1.9-2c-0.2-0.2-0.2-0.5-0.2-0.7c0.6,0.1,1,0.2,1.5,0.3
			c1,0,2.1-0.1,3.1,0c0.7,0.1,1.4,0.5,2.1,0.8c1.1,0.7,2.1,1.4,3.1,2.2c0.3,0.2,0.6,0.5,1.2,0.9c1.2,0.2,2.7,0.4,3.9,1.6
			c0.1,0.1,0.2,0.1,0.3,0.1c1.1,0.2,2.2,0.3,3.3,0.5c0.3,0,0.5,0.2,0.7,0.2c0.7,0.2,1.5,0.4,2.2,0.6c0.6,0.2,1.2,0.3,1.9,0.4
			c0.1,0,0.2,0,0.2,0c1.4-0.5,2.8,0.3,4.3,0c1.5-0.2,3-0.3,4.5-0.5c0.3,0,0.5-0.5,0.8-0.8c-0.2-0.2-0.4-0.3-0.6-0.5
			c-0.7-0.6-1.4-1.1-2.1-1.7c-1.4-1.2-2.8-2.5-4.2-3.7c-1.1-1-2.3-2-3.5-3c-0.4-0.3-0.9-0.5-1.3-0.8s-0.8-0.7-1.1-1.1
			c-1.1-0.4-2.4-0.6-3.2-2c-1.2,0.6-2.5-1.1-3.9,0c-0.2-0.3-0.5-0.6-0.9-1c-0.1,0.3-0.2,0.5-0.2,0.4c-1-0.6-1.9-1-2.8-1.6
			c-0.7-0.5-1.3-1.1-2-1.6c-0.9-0.7-2.2-1.1-2.8-2c-0.9-1.5-2.6-2.4-2.9-4.4c-0.2-1.3-0.1-2.7-1.1-3.8c-0.6-0.7,0.3-2.6,1.1-2.5
			c0.9,0.1,1.9,0.3,2.7,0.7c1.5,0.7,2.9,0.9,4.4,0.3c0.4-0.1,0.9-0.1,1.3-0.2c1-0.2,1.9-0.4,2.2-1.6c0.1-0.4,0.5-0.8,0.9-0.9
			c1.9-0.6,2.4-2.5,3.7-3.8c0.4-0.3,0.7-1.2,0.9-1.8c0.3-0.7,0.3-1.6-0.5-2.3c-0.8-0.8-1.6-1.7-2.3-2.6c-0.2-0.2-0.2-0.7-0.2-1
			c0.1-0.6,0.4-1.2,0.7-2c0.9-0.7,2-1.6,3.1-2.5c-0.5-0.4-0.9-0.8-1.8-0.2c-0.8,0.6-2,0.5-2.9,1c-0.8,0.5-1.9,0.7-2.2,1.9
			c-0.1,0.3-0.4,0.5-0.6,0.7c-0.8,0.8-1.7,1.5-2.4,2.3c-0.8,1-1.4,2.2-2.3,3.1c-0.7,0.7-1.5,1.3-2.3,1.9c-0.4,0.3-0.8,0.5-1.1,0.8
			c-1,1-2.2,1.4-3.5,1.9c-0.3,0.1-0.6,0.2-0.8,0.4c-1.2,1.1-2.8,1-4.2,1.6c-1.2,0.5-2.7,0.4-4,0.5c-0.8,0-1.6-0.2-2.4-0.3
			c-0.9-0.2-1.8-0.3-2.6-0.5c-1.2-0.4-2.3-0.8-3.4-1.4c-1-0.6-2-1.1-3-1.6c-0.3-0.1-0.5-0.3-0.8-0.5c-1.1-1-2.2-2-3.1-3.2
			c-0.9-1.1-1.6-2.4-2.2-3.7c-0.7-1.3-1.2-2.7-1.7-4.1c-0.2-0.7-0.4-1.4-0.5-2.1c-0.2-3-0.4-6-0.4-9.1c0-1.2,0.4-2.4,0.4-3.6
			c0-1.5-0.2-3.1-0.4-4.6c-0.2-1.5-0.5-3-0.9-4.5c-0.4-1.6-0.8-3.2-1.3-4.8c-0.6-1.8-1-3.6-0.8-5.5c0.1-1.5,0.1-3,0.5-4.4
			c0.6-2.1,1.2-4.2,2.3-6c1.1-1.8,2.9-3.2,4.4-4.9c0.9-1.1,2-1.8,3.4-2.2c0.9-0.3,1.7-1,2.5-1.5c0.3-0.2,0.7-0.1,1-0.2
			c0.5-0.2,1-0.4,1.6-0.6c0.6-0.1,1.2-0.2,1.7-0.3s1-0.3,1.5-0.4c0.5-0.1,0.8-0.4,1.5-0.1c0.5,0.2,1.4-0.3,2.1-0.4
			c0.6-0.1,1.2,0,1.8,0c0.1,0,0.3,0.1,0.4,0.1c1.5,0.2,3,0.2,4.5,0.5c1.1,0.2,2.2,0.6,3.3,1s2.1,0.7,3.1,1.2
			c1.3,0.6,2.6,1.2,3.8,1.8c0.7,0.4,1.4,0.8,2,1.2c0.4,0.2,0.7,0.5,1.1,0.8c0.5,0.3,1,0.5,1.5,0.7c0.1-0.1,0.1-0.2,0.2-0.2
			c-0.2-0.7-0.3-1.3-0.5-2c-0.4-1.3-1.3-2.3-1.2-3.8c0-0.3-0.3-0.7-0.4-1c-0.5-1.6-0.9-3.2-1.3-4.9c-0.4-1.6-0.4-3.2-0.9-4.7
			c-0.5-1.3,0-2.6-0.4-3.8c-0.7-2.2-0.3-4.4-0.3-6.6c0-0.9,0.5-1.9,0.7-2.8c0.2-0.6,0.2-1.2,0.5-1.8c0.6-1.4,1.1-2.8,1.8-4.2
			c0.4-0.8,1-1.5,1.6-2.3c0.5-0.7,0.9-1.4,1.5-2c0.7-0.7,1.6-1.2,2.3-1.9c0.7-0.8,1.6-0.9,2.5-1.3c1-0.5,2.1-0.9,3.1-1.2
			c0.7-0.2,1.5-0.4,2.3-0.5c1.3-0.2,2.7-0.5,4-0.4c2.2,0.2,4.4,0.1,6.4,1.2c0.3,0.2,0.7,0,1.1,0.1c1.1,0.4,2.4-0.4,3.3,0.8
			c0.1,0.2,0.7,0.1,1,0c0.7-0.2,1.4-0.3,2.2,0c0.4,0.1,0.9-0.2,1.4-0.2c0.1,0,0.2,0,0.4,0c0.4,0.1,0.9,0.4,1.2,0.3
			c0.6-0.3,1.1,0,1.6,0c1,0.1,2.1,0.1,3.1,0c0.4,0,0.9-0.4,1.3-0.7c0.9,0.7,2,0.4,3.1,0.2c1.5-0.2,2.7-1.4,4.4-1.3
			c1,0.1,2.1-0.3,3.2-0.4c1.6-0.1,2.9,0.6,4.3,1.2c0.2,0.1,0.5,0.1,0.7,0.1c0.7,0,1.3,0.1,1.9,0.6c0.6,0.6,1.7,0.8,2.5,1.1
			c0.1,0.1,0.3,0,0.4,0.1c1.1,1,2.4,1.8,3.4,3c1.5,1.8,3,3.7,3.9,5.8c0.7,1.5,1.3,3.2,1.5,5c0.5,3.3,0.3,6.6,0.3,9.9
			c0,1.7-0.2,3.6-0.9,5c-1,1.8-0.9,3.8-1.6,5.7c-0.6,1.5-0.9,3.2-1.3,4.7c-0.2,0.8-0.6,1.6-0.9,2.4c-0.2,0.4-0.3,0.8-0.5,1.3
			c0.1,0.1,0.2,0.1,0.3,0.2c0.3-0.1,0.6-0.1,0.7-0.3c1-1.2,2.5-1.5,3.8-2.3c1-0.6,2.1-1.2,3.2-1.6c1-0.4,2.2-0.7,3.3-1
			c1.4-0.4,2.8-0.8,4.2-1.2c0.1,0,0.3-0.1,0.4,0c0.9,0.8,1.6,0.4,2.3-0.4c0.2-0.2,0.8-0.1,1.3,0c0.8,0.1,1.6,0.3,2.4,0.4
			c1.5,0.2,2.9,0.2,4.4,0.5c1.7,0.3,3.3,0.8,5,1.3c1.2,0.4,2.2,1.1,3.4,1.6c0.3,0.1,0.7,0.1,1,0.3c0.3,0.2,0.6,0.5,0.9,0.7
			c1.6,1,3.2,2,4.4,3.5c1.5,2,2.8,4.1,4.1,6.2c0.3,0.5,0.4,1.2,0.5,1.9c0.2,1,0.3,2,0.5,3.1s0.5,2.1,0.4,3.2c-0.2,2-0.3,4-1.2,5.9
			c-0.7,1.4-0.9,3.1-1.4,4.6c-0.6,1.7-0.6,3.5-0.9,5.1c-0.6,2.8-0.1,5.6-0.3,8.4c0,0.3,0.2,0.6,0.3,0.8c0,0.6,0,1.1,0,1.7
			c0,0.4-0.2,0.7-0.3,1.1c-0.2,1.4-0.2,2.9-0.5,4.3c-0.2,1.1-0.8,2.1-1.3,3.1c-0.4,0.9-0.8,1.9-1.3,2.8c-0.4,0.7-0.8,1.4-1.3,2
			c-0.8,1-1.5,2-2.4,2.9c-0.7,0.7-1.5,1.2-2.3,1.8c-0.3,0.2-0.6,0.5-1,0.6c-0.5,0.2-0.9,0.5-1.4,0.7s-1.2,0.2-1.5,0.5
			c-0.9,0.9-2.1,0.9-3.2,1.3c-2.7,0.8-5.5,0.2-8.2,0.4c-0.2,0-0.5-0.3-0.8-0.4C145.8,132.1,144.8,131.9,143.7,131.7L143.7,131.7z
			 M109.2,114.9c0-1.2,0-2.1,0-3.1c0-0.7,0.1-1.2,0.6-1.7c0.2-0.2,0.1-0.8,0.1-1.3c0-0.1-0.1-0.3-0.1-0.4c0.7-1.1,1.1-2.3,0.7-3.6
			c0-0.2,0-0.4,0-0.5c0.3-0.8,0.6-1.5,0.9-2.3c0.4-1.3,0.8-2.5,1.2-3.8c0.2-0.5,0.3-1,0.4-1.4c0.3-0.8,0.5-1.6,0.8-2.4
			c0.3-0.9,0.6-1.8,1-2.6c0.6-1.3,0.4-2.9,1.6-3.9c0.3-0.3,0.4-0.8,0.5-1.2c0.5-1.5,0.9-3.1,1.3-4.6c0.4-1.4,0.9-2.7,1.3-4.1
			c0.2-0.7,0.3-1.4,0.5-2.1c0.3-1,0.5-1.9,0.8-2.9c0.1-0.2,0-0.5,0.1-0.6c1.3-0.9,1.1-2.5,1.1-3.6c0.1-3.5,0.6-7.1-0.3-10.6
			c-0.4-1.4-0.6-2.9-0.9-4.4c-0.1-0.5-0.2-1.2-0.6-1.5c-0.9-0.8-1.2-1.8-1.2-3c-0.3-0.1-0.7-0.2-0.8-0.3c-0.6-1.6-1.7-2.9-2.6-4.3
			c-1.1-1.9-2.6-3.3-4-4.8c-0.2-0.2-0.6-0.3-0.8-0.6c-0.8-0.9-1.4-2-2.4-2.6c-2-1.1-3.7-2.4-5.3-4c-0.2-0.2-0.4-0.3-0.6-0.4
			c-0.4-0.3-1-0.6-1.3-1c-1.1-1.6-2-3.3-3-5c-0.1,0.1-0.3,0.3-0.5,0.6c-1,1.5-1.9,3.1-3,4.5c-0.5,0.7-1.3,1.1-2,1.7
			c-0.6,0.5-1.2,0.9-1.9,1.3c-0.8,0.6-1.6,1.1-2.4,1.7c-0.7,0.6-1.5,1.2-2.2,1.7c-0.4,0.3-0.9,0.5-1.3,0.9c-1.5,1.6-3,3.2-4.5,4.9
			c-0.6,0.6-1.1,1.3-1.5,2c-0.7,1.2-1.4,2.4-1.9,3.7c-0.7,1.7-1.4,3.4-2,5.1c-0.3,0.8-0.3,1.7-0.5,2.5c-0.2,1-0.8,1.9-0.8,2.9
			c0,3.6-0.4,7.2,0.8,10.7c0.5,1.5,0.6,3.1,0.9,4.6c0.1,0.5,0.3,0.9,0.4,1.3c0.2,0.9,0.2,1.8,0.5,2.6c0.5,1.5,1.1,3,1.7,4.5
			c0.5,1.3,0.8,2.8,1.4,4.1c0.4,0.9,0.5,1.7,0.8,2.6c0.3,0.8,0.6,1.5,0.9,2.3c0.2,0.6,0.3,1.3,0.5,1.9c0.4,1.2,0.8,2.4,1.2,3.6
			c0.3,0.8,0.5,1.6,0.8,2.3c0.3,1.1,0.7,2.1,0.9,3.2c0.2,0.7,0.3,1.5,0.4,2.2c0.3,1.9,0.6,3.8,0.9,5.7c0.1,1,0.2,2.1,0.4,3.3
			c3.2,0,6.2,0,9.1,0c0.4-5.3-0.2-10.2,0.5-15.2c0.5-3.8-0.2-7.6,0.4-11.4c0.4-2.4,0.3-4.9,0-7.4c-0.3-2.3,0.7-4.5,0.6-6.8
			c0-1.4,0.2-2.9,0.3-4.4c0-0.7-0.1-1.4-0.1-2.1c0.3-5,0.3-9.9,0.5-14.9c0-0.1,0-0.3,0-0.4c0-0.2,0.1-0.3,0.2-0.5c0.1,0,0.1,0,0.2,0
			c0,0.4,0,0.7,0,1.1c0,2.5,0,4.9,0,7.4c0,0.7,0.3,1.4,0.1,2.1c-0.2,0.6,0.3,1.3,0.3,1.9c0.3,3.9-0.1,7.8,0.4,11.7
			c0.6,4.6-0.3,9.4,0.5,14.1c0.2,1,0,2.1,0,3.1c0,6.7,0,13.5,0,20.2c0,1,0.6,1.7,1.3,1.8C103.7,115,106.4,114.9,109.2,114.9z
			 M120.8,85.2L120.8,85.2c-0.2,0.3-0.2,0.7-0.4,1c-0.5,0.9-1.1,1.8-1.6,2.7c-0.7,1.4-1.4,2.9-2.1,4.4c-0.6,1.4-1.3,2.7-1.8,4.1
			c-0.4,1.1-0.7,2.3-1,3.5c-0.4,1.5-0.8,3-1.2,4.6c-0.1,0.2,0,0.5-0.1,0.6c-1.1,1.6-1.3,3.4-1.3,5.3c0,0.3-0.2,0.7-0.3,1
			c-0.3,0.7,0,2.3,0.6,2.5c0.8,0.2,1.7,0.4,2.5,0.5c1.4,0.2,2.8,0.3,4.3,0.4c0.1,0,0.1,0,0.2,0c0.9,0.2,1.8,0.4,2.6,0.5
			c0.3-0.9-0.4-2,0.7-2c0.4-1.2,0.7-2.2,1.2-3.2c0.3-0.8,0.9-1.5,1.3-2.2c0.8-1.6,1.7-3.2,3.1-4.4c1-0.8,1.8-1.9,2.8-3
			c0.2,0.4,0.2,0.6,0.3,0.7c0.5-0.4,0.8-0.8,1.2-0.9c1.1-0.2,2.3-0.4,3.5-0.5c2-0.1,3.8,0.4,5.4,1.7c1.1,0.8,2.6,1.4,3.2,2.4
			c0.7,1.1,1.9,2.2,1.5,3.8c-0.1,0.2,0.1,0.5,0.1,0.7c0.1,1,0.3,1.9,0.3,2.9c-0.1,1.2-0.4,2.4-0.6,3.8c2.2-0.4,4,0.3,5.8-0.5
			c1.2-0.5,2.6-0.4,3.7-1c1.6-0.8,3.1-1.9,4.5-3.1c1.2-1,2.2-2.2,3.2-3.3c0.5-0.5,1-1.1,1.3-1.4c0.4-0.7,0.5-1.3,0.9-1.6
			c1.3-1.1,1.4-2.7,2-4.1c0.6-1.3,0.6-2.8,0.9-4.2c0.1-0.5,0.4-1,0.4-1.4c-0.1-1.6-0.1-3.3-0.5-4.9s-1.1-3.1-1.7-4.7
			c-0.3-0.9-0.6-1.8-1.1-2.5c-0.7-1.1-1.6-2.1-2.3-3.2c-0.6-0.9-1.2-1.7-1.8-2.6c-0.6-1-1.9-0.9-2.5-1.9c-0.4-0.7-1.5-1.1-2.3-1.6
			c-0.6-0.4-1.3-0.7-2-1.1c-1-0.5-1.9-1.1-2.9-1.6c-0.2-0.1-0.5-0.1-0.6,0c-0.6,0.8-0.9,0.1-1.4-0.1c-0.3-0.1-0.6-0.3-0.9-0.4
			c-0.4-0.1-0.9,0.1-1.2-0.1c-1.4-1-2.8-0.3-4.2-0.3c-1.3,0-2.6,0.5-4,0.8c-0.8,0.2-1.6,0.2-2.3,0.5c-1.6,0.6-3.2,1.4-4.7,2.1
			c-0.7,0.4-1.3,0.9-2,1.6c-0.3,0.2-0.9,0.5-1.3,0.9c-1,1-2,1.9-2.8,3c-0.6,0.9-1.2,2-2.3,2.5c-0.2,0.1-0.3,0.4-0.5,0.6
			C122.1,83.5,121.4,84.4,120.8,85.2L120.8,85.2z M85,114.9c-0.3-0.5-0.5-0.9-0.6-1.3c-0.2-1.7-0.3-3.4-0.5-5c0-0.3,0-0.6,0-0.9
			c-0.4-1.6-0.8-3.1-1.3-4.7c-0.4-1.5-0.8-3.1-1.3-4.6c-0.4-1.2-0.8-2.3-1.3-3.4c-0.3-0.6-0.6-1.2-0.9-1.9c-0.4-1-0.6-2-1-3
			c-0.5-1.2-1.3-2.2-1.8-3.4c-0.8-2.1-2.2-4-3.8-5.7c-0.1-0.1-0.3-0.3-0.4-0.4c-0.5-0.8-1-1.7-1.6-2.3c-1-1-2.1-2-3.2-2.9
			c-0.5-0.4-0.9-0.9-1.4-1.3s-1-0.7-1.5-1c-0.7-0.4-1.5-0.9-2.2-1.3c-1.3-0.6-2.7-1.1-4-1.6c-0.7-0.3-1.5-0.3-2.3-0.5
			c-0.7-0.2-1.4-0.4-2-0.5c-1.2-0.1-2.5-0.1-3.7,0c-1.1,0.1-2.1,0.7-3.1,0.8c-1.7,0.1-3,1-4.3,1.8c-1.2,0.7-2.2,1.7-3.3,2.5
			c-0.4,0.3-0.9,0.5-1.2,0.8c-2.1,1.8-3.7,3.9-5,6.2c-0.8,1.5-1.4,3.2-2,4.8c-0.4,1-0.6,2-0.9,3c-0.1,0.4-0.6,0.8-0.1,1.3
			c0.1,0.1-0.1,0.6-0.2,1c-0.2,1-0.5,2-0.5,2.9s0.7,1.8,0.7,2.6c-0.1,1.9,1,3.4,1.5,5c0.7,2.3,2.2,4.2,3.8,6
			c1.5,1.8,3.1,3.4,5.3,4.5c1.6,0.8,3,1.8,4.7,2.3c1.6,0.5,3.5,0.5,5,0.6c1-1.4,0.7-2.8,0.7-4.1c0-1.1,0-2.2,0-3.3
			c0-0.4,0.3-0.8,0.3-1.1c0.1-1.1,0.9-1.9,1.3-2.9c0.4-0.7,0.8-1.3,1.5-1.7c0.2-0.1,0.6-0.1,0.8-0.3c1.6-1.6,3.8-1.6,5.7-1.9
			c1.2-0.2,2.7,0.3,3.9,0.8c2,0.8,3.3,2.6,4.6,4.1c1.1,1.3,1.8,3.1,2.6,4.6c0.4,0.7,0.7,1.4,1,2.1c0.4,1.1,0.6,2.2,1,3.3
			c0.1,0.3,0.6,0.6,1,0.6c0.7,0,1.3-0.3,2-0.4c1.7-0.2,3.4-0.3,5-0.4C83,114.9,83.9,114.9,85,114.9L85,114.9z M70.8,120.9
			c1.1,1.1,2.2,2.1,3.3,3.1c0.2,0.2,0.5,0.5,0.7,0.5c1.5,0.3,3,0.7,4.5,0.9c1.7,0.2,3.4-0.2,5,0.4c0.8,0.3,1.6,0,2.4,0.1
			c1.2,0,2.5,0.4,3.7,0.4c6,0,12,0,17.9,0c0.4,0,0.8,0,1.2,0c0-0.1,0-0.3-0.1-0.4c0.3-0.2,0.7-0.5,1-0.4c1.8,0.3,3.5-0.6,5.3,0
			c0.1,0,0.2-0.1,0.4-0.1s0.3,0,0.5,0c0.4,0,0.8,0.1,1.1,0.1c0.5-0.1,0.9-0.2,1.3-0.4c1.4-0.4,2.9-0.7,3.7-2.1
			c0.2-0.4,0.6-0.8,1-0.9c1.3-0.3,1.2-0.9,0.7-1.8c-0.5-1-2.7-2.5-3.7-2.6c-1.8-0.1-3.6-0.3-5.5-0.4c-0.2,0-0.3-0.2-0.5-0.3
			c-0.8-0.7-1.6-0.7-2.1-0.3c-0.7-0.3-1.2-0.6-1.8-0.6c-6.9-0.3-13.8,0.5-20.7-0.4c-0.9-0.1-1.8-0.2-2.7,0c-0.8,0.2-1.6-0.1-2.5,0
			c-0.1,0.3-0.2,0.6-0.3,0.9c-0.6-0.2-1.2-0.5-1.8-0.5c-1.1,0-2.1,0.3-3.2,0.4c-1.4,0.2-2.8,0.2-4.2,0.5c-0.8,0.2-1.8,0.4-2.3,1
			C72.3,118.5,71.6,119.7,70.8,120.9z M137.5,135.9c-0.2,0-0.3-0.1-0.4-0.1c-0.1,0-0.2,0-0.3,0c-1.6,1.3-3.4,1.4-5.3,1.2
			c-1.2-0.1-2.5,0-3.4-0.6c-1.3-0.8-2.9-1.3-3.7-2.8c-0.6-1.1-1.5-2.1-2.1-3.2c-0.6-1.3-0.9-2.7-1.4-4c-0.1-0.3-0.6-0.7-1-0.7
			c-0.9,0-1.8,0.2-2.7,0.4c-1,0.2-2.1,0.6-3.1,0.8c-1,0.2-2.1,0.2-3.1,0.3c0,0.7-0.1,1.2,0,1.6c0.4,1.4,0.8,2.8,1.3,4.2
			c0.5,1.3,0.9,2.6,1.5,3.9c0.6,1.3,1.2,2.6,2.3,3.7c1,0.9,1.6,2.3,2.5,3.3c0.6,0.7,1.6,1.1,2.2,1.8c0.9,1.1,2.1,1.4,3.3,1.6
			c2.1,0.3,4.2,0.3,6.1-0.8c1-0.6,2.2-1,3.1-1.8c1.4-1.3,2.6-2.7,3.5-4.6C137.5,138.8,137.4,137.4,137.5,135.9L137.5,135.9z
			 M84.6,127.6c-3.4-1.4-6.7-1.5-10-2c-0.4,1.1-0.8,2-1,3c-0.4,2.1-1.8,3.5-3,5c-0.3,0.4-1,0.6-1.4,1c-1.1,1.2-2.6,1.6-4.1,2
			c-2,0.5-3.8-0.3-5.6-1.1c-0.3-0.1-1,0-1.3,0.3s-0.3,0.8-0.3,1.3c0,0.2,0.2,0.5,0.3,0.7c0.2,0.7,0.3,1.4,0.7,2c0.6,1,1.2,2,1.9,2.9
			c0.6,0.7,1.3,1.3,1.9,1.9c0.7,0.7,1.7,1.1,2.4,1.6c1.3,0.9,2.7,1.1,4.1,1.4c0.2,0.1,0.5-0.2,0.8-0.3c0.6-0.1,1.3-0.3,1.9-0.4
			c0.3-0.2,0.6-0.5,0.9-0.6c0.5-0.2,1-0.2,1.4-0.5c1.1-0.8,2.4-1.6,3-2.7c0.7-1.3,1.8-2.3,2.5-3.6c0.9-1.5,1.4-3.2,2.4-4.6
			c0.5-0.7,0.5-1.7,1-2.4C84.3,130.9,84,129.3,84.6,127.6L84.6,127.6z M27,155.9c1.6,2.9,3.9,5.3,6.4,8.1c-1.4,0.7-2.5,1.3-3.7,1.8
			c-1.8,0.8-3.3,0.7-4.9-0.7c-1.3-1.1-2.1-2.4-3-3.8c-0.5-0.8-1.2-1.5-1.7-2.3s-1-1.7-1.6-2.8c0.7,0,1,0,1.4,0
			c1.4,0.1,2.6-0.4,3.9-0.8c0.6-0.2,1.3,0.1,2,0.2C26.1,155.7,26.5,155.8,27,155.9z M43,19.3c0.2,1.5,0.4,2.9,0.6,4.2
			c0.1,0.4,0.5,0.9,0.4,1.2c-0.3,0.9-0.7,1.8-1.1,2.8c-0.1,0.3-0.2,0.5-0.4,0.6c-0.6,0.4-1.2,0.7-1.7,1.2c-0.8,0.7-1.6,1.6-2.4,2.3
			c-0.4,0.4-0.9,0.7-1.5,0.8c-0.3,0.9-0.8,1.4-1.9,1.1c-0.2-1.4-0.3-2.9-0.5-4.4c-0.1-0.4-0.3-0.7-0.4-1.1c-0.2-1.1,0.1-2.1,0.8-2.8
			c1.1-1.1,2.2-2.3,3.4-3.3c1.1-0.9,2.4-1.4,3.3-2.5C41.7,19.1,42.5,19.3,43,19.3z M2.9,122.8c0.1-0.1,0.2-0.5,0.5-1
			c0.4,0.2,0.8,0.3,1.2,0.5c0.1,0,0.2,0.1,0.3,0c0.9-0.5,1.9,0,2.8,0.1c1.8,0.2,3.3,1.3,4.1,2.9c0.8,1.3,1.4,2.8,1.7,4.3
			c0.2,0.9,0.4,1.8,0.9,2.5c0.1,0.2-0.3,0.7-0.4,1.1c-0.7-0.5-1.4-0.6-2.2-0.2c-0.3,0.2-0.8,0.2-1.2,0.1c-0.6-0.1-1.3-0.2-1.9-0.4
			c-0.4-0.1-0.7-0.3-1.1-0.4c-0.2-0.1-0.4-0.4-0.6-0.4c-1.4,0-1.5-1.1-1.8-2c-0.4-1.1-0.8-2.2-1.2-3.2c-0.2-0.7-0.3-1.4-0.6-2.1
			C3.4,124,3.1,123.5,2.9,122.8L2.9,122.8z M115,182.3c-1,0.6-1.9,1.1-2.8,1.8c-0.5,0.3-0.8,0.9-1.2,1.4c-0.5,0.6-0.9,1.3-1.4,1.9
			c-0.9,1.1-1.9,2.2-2.9,3.3c-0.1,0.1-0.3,0.3-0.4,0.3c-1.5-0.1-2.6,0.9-3.9,1.4c-0.7,0.3-1.5,0.5-2.2,0.7c-0.1,0-0.4-0.5-0.4-0.6
			c0.5-1.5,1.3-2.9,1.6-4.5c0.4-1.6,1.3-2.9,2.5-4c0.7-0.6,1.8-0.9,2.7-1.3c2.2-1,4.4-1.6,6.8-1.3c0.5,0.1,1,0.2,1.5,0.4
			C114.9,182,114.9,182.1,115,182.3L115,182.3z M176.4,38.2c-0.9,0.4-1.5,0.9-2.1,1c-1.7,0.3-3.2,1.3-5,0.9
			c-0.9-0.2-1.8-0.4-2.2-1.4c-0.2-0.5-1-0.7-1.4-1.2c-1-0.9-1.9-1.9-2.9-2.9c-0.2-0.2-0.5-0.4-0.7-0.6c-0.2-0.2-0.6-0.4-0.6-0.5
			c0.1-0.3,0.3-0.6,0.6-0.8c1-0.5,2.1-1,3.2-1.3c0.9-0.3,2-0.3,2.9-0.5c0.4-0.1,0.9,0,1.1,0C171.7,33.4,174,35.7,176.4,38.2
			L176.4,38.2z M2.2,119.2c-0.5-3.2-1.5-6.4-1.6-9.8c0.5-0.8,1-0.6,1.6-0.1c0.5,0.4,1.1,0.6,1.7,0.8c0.7,0.2,1.6,0.2,2.3,0.5
			c0.5,0.2,0.8,0.6,1.3,1c0.4,0.3,0.8,0.7,1.3,1c0.3,1.1,0.7,2.2,0.9,3.4c0.2,1.2,0.4,2.4,0.4,3.6c0,0.3-0.5,0.9-0.8,0.9
			c-0.8,0-1.6-0.4-2.3-0.3c-1.5,0.1-2.8-0.5-4.2-1C2.6,119.2,2.5,119.2,2.2,119.2z M183.6,49.9c-1.5,0.4-2.8,0.9-4.1,1
			c-0.8,0.1-1.7-0.2-2.3-0.5c-1.6-0.9-2.9-2.1-3.6-3.9c-0.3-0.7-0.9-1.3-1.4-2s-1.1-1.3-1.6-2c-0.1-0.1,0-0.3,0-0.3
			c1.7-0.5,3.3-1.1,5-1.6c0.3-0.1,0.7,0.2,1.1,0.4c0.9,0.4,1.9,0.5,2.5,1.4c0.9,1.4,2.3,2.4,2.8,4.1c0.2,0.6,0.6,1.1,1.1,1.5
			C183.7,48.5,183.6,49.2,183.6,49.9z M20.8,51.8c-1,0.1-1.7-0.1-1.6-1.3c0-0.1,0-0.3-0.1-0.4c-1.2-0.8-1.5-2.3-2.2-3.5
			c-0.3-0.4-0.2-1.2,0-1.8c0.5-2,2.2-3.2,3.4-4.8c0.6-0.8,1-1.7,1.6-2.5c0.2-0.3,0.7-0.6,0.9-0.5c0.3,0.1,0.7,0.5,0.7,0.8
			c0,1.2,0.8,2,1.2,3.1c0.6,1.7,1.2,3.5-0.1,5.2c-1.2,1.6-1.9,3.5-3.5,4.8C20.9,51.2,20.9,51.5,20.8,51.8z M96.9,8
			c0.4-1.2,0.7-2.2,1.1-3.1c0.3-0.7,0.7-1.5,1.2-2.1c0.7-0.9,1.5-1.8,2.3-2.7c0.1-0.1,0.5,0,0.7,0c0.3,0,0.7,0,1,0
			c0.3,0.1,0.6,0.3,0.9,0.3c0.8-0.1,1.6-0.3,2.5-0.4c0.5,0,0.9,0.3,1.4,0.4c1,0.2,1.9,0.4,3,0.7c-0.4,0.7-1.2,1.5-1.4,2.4
			c-0.2,1.2-1.2,1.8-1.7,2.8c-0.4,0.7-1.3,1.3-2.1,1.5c-1,0.2-2-0.2-3.1-0.3c-0.7,0-1.4,0.2-2.2,0.2c-0.6,0-1.1-0.1-1.7-0.1
			C98.2,7.7,97.7,7.9,96.9,8z M151.3,25.4c0.7-0.3,1.4-0.5,2.1-0.8c0.1-1.4,1.6-1.4,2.6-2c0.4-0.3,0.8-0.5,1.5-0.9
			c0,0,0.1,0.4,0.2,0.4c3.3,0.1,5,2.7,7.1,4.5c0.6,0.6,1.2,1.2,1.8,1.7c-1.5,0.7-3,1.4-4.4,2c-0.2,0.1-0.6,0.1-0.9,0.1
			c-0.9,0.1-1.8,0.4-2.7,0.3c-0.7-0.1-1.5-0.6-2.1-1.1c-1.5-1.2-2.8-2.5-4.3-3.7C152.1,25.9,151.8,25.7,151.3,25.4L151.3,25.4z
			 M9,59.1c1.4,2.1,2.9,3.9,4,6c0.4,0.7-0.1,1.9-0.1,2.9c0,0.2-0.1,0.4-0.2,0.6c-0.4,1.7-0.9,3.5-1.3,5.2c-0.1,0.3-0.4,0.5-0.7,0.9
			c-0.4-0.5-0.8-1-1.3-1.5c-1.2-1.1-2.5-2.2-3.7-3.4c-0.4-0.4-0.4-1.5-0.5-2c0-1.1,0.3-2.1,1-2.8c1-1.3,0.8-3,1.7-4.3
			C8.2,60.1,8.5,59.7,9,59.1z M12.3,145.3c2.3,0,4.6-0.1,6.9,0.1c1.4,0.1,2.1,1.3,2.7,2.5c0.7,1.4,1.5,2.6,2.3,3.9
			c0.2,0.4,0.7,0.9,0.6,1.2c-0.2,0.4-0.7,0.9-1.1,1c-1.3,0.3-2.5,0.3-3.8,0.5c-2.3,0.3-3.5-1-4.5-2.8c-0.5-0.9-1-1.9-1.6-2.9
			c-0.5-1-1-1.9-1.5-2.9C12.2,145.8,12.3,145.6,12.3,145.3z M1.4,83.6c0.3,0.1,0.6,0.1,0.8,0.2c1.1,0.7,2.4,1.2,3.3,2.1
			c1.2,1,2.5,2,2.4,3.9c-0.1,2.1,0,4.3-0.1,6.4c0,0.4-0.4,0.9-0.6,1.3c-0.3-0.2-0.7-0.4-1-0.5c-0.9-0.4-1.7-0.9-2.6-1.2
			c-1.3-0.4-2.2-1.3-2.9-2.3C0.3,93,0.5,92,0.5,91.2s0.3-1.5,0.4-2.3C1.1,87.2,1.2,85.4,1.4,83.6z M18.1,143.8
			c-0.3-0.1-0.7-0.2-1-0.2c-1.2,0-2.5,0-3.7,0c-1.3,0-3.2-1.4-3.8-2.7c-0.7-1.6-1.5-3.2-2.1-4.9c-0.2-0.6,0-1.3,0-2.2
			c1.3,0.2,2.5,0.4,3.8,0.6c0.8,0.1,1.5,0.3,2.3,0.4c1.3,0.3,2.7,1.7,3.1,3.1c0.1,0.5,0.5,1,0.8,1.5c0.6,1,0.2,2.3,1.3,3.1
			c0.2,0.1-0.2,1-0.3,1.5C18.3,144,18.2,143.9,18.1,143.8L18.1,143.8z M179.9,159.1c-0.7-1.4-1.3-2.6-2-3.7c-0.3-0.5-0.6-1-0.8-1.6
			c-0.8-1.9-0.6-4.2,0.9-5.8c0.3-0.3,0.6-0.7,0.8-1.1c0.3-0.7,0.6-1.5,1-2.2c0.2-0.3,0.7-0.4,1.2-0.7c1.1,1.4,2.4,2.8,3.2,4.4
			c0.5,1.1,1,2.4,0.2,3.8c-1.2,2-2.5,4-4.1,5.7C180.1,158.2,180.1,158.5,179.9,159.1L179.9,159.1z M0.7,96.1c0.6,0.3,1.3,0.6,2,0.9
			c1.4,0.8,3,1.3,4.1,2.6c0.7,0.8,1,1.7,1,2.5c0.2,1.8,0.1,3.6,0,5.4c0,1.2-0.7,1.5-1.8,0.9c-0.6-0.3-1.3-0.4-1.9-0.6
			c-0.2-0.1-0.5-0.2-0.7-0.3c-0.5-0.2-0.9-0.5-1.6-0.8c-0.2-0.3-0.9-0.8-1.1-1.4c-0.2-1-1.3-1.9-0.4-3.1c0.1-0.1-0.3-0.6-0.3-1
			c0.1-0.7,0.3-1.4,0.3-2.1c0-0.4-0.4-0.8-0.3-1.1C0.2,97.5,0.4,96.9,0.7,96.1z M123.9,206.7c-0.6,0-1.2-0.1-1.8,0
			c-0.8,0.1-1.6,0.5-2.4,0.7c-1.6,0.2-3.2,1.3-4.9,0.3c-0.7-0.4-1.5-0.6-2.3-1c-0.3-0.2-0.5-0.5-0.8,0c0,0-0.5-0.2-0.7-0.3
			s-0.5-0.5-0.5-0.4c-0.6,0.6-1.1-0.2-2,0c0.5-0.9,0.8-1.6,1.1-2.3c0.3-0.5,0.7-0.8,1.1-1.2c0.8-1.1,1.9-1.4,3.3-1.4
			c0.8,0,1.5-0.1,2.3,0s1.5,0,2.2,0.7c0.4,0.4,1.3,0.4,1.9,1c0.3,0.4,0.8,0.6,1.2,0.9c0.6,0.4,1.3,0.8,1.8,1.4
			c0.4,0.4,0.6,1,0.9,1.5C124.1,206.5,124,206.6,123.9,206.7z M192.1,136.6c-1.5-1.6-2.8-3-4.1-4.3c-1.1-1.1-1.3-2.8-0.6-4.4
			c0.3-0.7,0.4-1.4,0.5-2.2c0.2-1,0.2-2.1,0.5-3.1c0.1-0.4,0.6-0.8,0.9-1c1.3,0.9,2.7,1.7,3.8,2.7c0.6,0.6,0.9,1.5,1.4,2.3
			c0.8,1.4,0,2.6-0.4,3.9c-0.4,1.2-0.6,2.4-0.9,3.6C192.9,134.8,192.6,135.5,192.1,136.6L192.1,136.6z M90,205.6
			c0.2-0.3,0.3-0.9,0.6-0.9c0.9-0.2,0.8-1,1.3-1.5c0.6-0.7,1.4-1.2,2.1-1.7c1.4-0.9,2.9-0.4,4.4-0.4c0.7,0,1.2,0.8,2.1,1
			c0.7,0.2,1.3,1,2,1.6s1.4,1.2,2.2,1.9c-1.4,1.2-2.7,2-4.3,2.5c-0.9,0.3-1.7,0.9-2.6,1.2c-0.5,0.1-1.1-0.2-1.6-0.5
			c-0.9-0.6-1.7-1.3-2.7-1.8C92.5,206.3,91.4,206.1,90,205.6L90,205.6z M72.4,205.8c-0.1,0.3-0.1,0.6-0.2,0.8
			c-0.8-0.3-1.4-0.8-2.3-0.5c-0.5,0.2-1.8-1.2-2-1.8c-0.1-0.3-0.3-0.6-0.4-0.9c-0.3-0.7-0.6-1.4-0.9-2.1c-0.3-0.9-0.6-1.8-0.9-2.8
			c0-0.1,0-0.2,0-0.3c0.3-1-0.2-2.1,0.7-3.1c0.3-0.3,0.1-1,0.2-1.9c0.5,0.4,1,0.6,1.2,1c0.6,1,1.2,1.9,2.2,1.9
			c0.6,0.5,1,1.1,1.5,1.2c1.6,0.3,1.5,1.8,2,2.9c0.3,0.6,0.4,1.5,0.9,1.8c0.8,0.6,0.7,1.6,1.2,2.3c0.1,0.1-0.8,1-1.3,1.3
			c-0.2,0.2-0.6,0-1,0C73,205.8,72.7,205.8,72.4,205.8L72.4,205.8z M3.8,72.1c0.5,0.3,1,0.5,1.5,0.8c0.8,0.5,1.5,1,2.3,1.5
			c1,0.7,1.7,1.5,2.1,2.6c0.1,0.3,0.3,0.6,0.3,0.9c0.1,0.5,0.2,1.1,0,1.6c-0.2,0.6-0.6,0.9-0.4,1.7c0.2,1-0.3,2.1-0.6,3.1
			c0,0.1-0.1,0.3-0.1,0.3c0.8,0.4-0.1,0.8-0.1,0.8c-0.4,0.1-1,0.2-1.2,0.1c-1-1.3-2.5-1.9-3.9-2.7c-0.6-0.3-1-1.2-1.4-1.9
			c-0.7-1.1,0-2.1,0.3-3.1c0-0.1,0.1-0.3,0.1-0.4c-0.1-1.5,0.3-2.9,0.9-4.3c0.1-0.2,0-0.5,0-0.8C3.6,72.3,3.7,72.2,3.8,72.1z
			 M27,167.6c1.2-0.2,2.4-0.3,3.5-0.5c0.2,0,0.4-0.3,0.6-0.4c0.9-0.3,1.9-0.6,2.8-0.9c0.1,0,0.2,0,0.3,0c0.9,0.6,1.9,1.2,2.8,1.9
			c0.8,0.7,1.4,1.7,2.1,2.5c0.4,0.5,1.1,0.9,1.3,1.5c0.3,0.9-0.8,0.8-1.3,1.1c-0.8,0.7-2,1.1-3,1.6c-0.4,0.2-0.7,0.4-1.1,0.4
			c-1.4,0.1-3.5-1.2-4.1-2.4c-0.4-0.6-1.1-1-1.5-1.5c-0.8-0.8-1.5-1.7-2.2-2.6C27.1,168.2,27.1,167.9,27,167.6L27,167.6z
			 M131.8,14.3c1-1.2,1.9-2.2,2.8-3.3c0.1,0.1,0.2,0.1,0.2,0.2c0-0.3,0-0.6,0.1-1c1-0.3,1.9-0.8,2.9-0.9c0.9-0.1,1.9,0.2,2.7,0.6
			c1.7,0.8,3.4,1.7,5.4,2.7c-0.2,0.4-0.4,1-0.8,1.4c-1.1,0.9-2.4,1.7-3.5,2.7c-1.8,1.6-3.3,0.4-4.9-0.2c-1-0.4-2-0.7-3-1.2
			C133,15,132.4,14.7,131.8,14.3z M196.1,123.3c-0.7-0.4-1.4-0.7-2-1.1c-0.9-0.6-1.8-1.2-2.7-1.9c-0.9-0.7-1.5-1.5-1.3-2.8
			c0.2-2.3,0.3-4.6,0.5-6.9c0-0.3,0.3-0.7,0.6-0.9c0.2-0.1,0.6,0.2,0.9,0.3c0.9,0.4,1.6,1.1,2.5,1.4c0.8,0.3,1.6,0.9,2.3,1.8
			c0.9,1.2,0.9,2.4,0.7,3.6c-0.3,1.7-0.2,3.5-1.2,5.1C196.1,122.3,196.2,122.7,196.1,123.3z M14.7,62.8C14,62,13.6,61,12.8,60.5
			c-1.1-0.7-1.5-1.8-2.1-2.8c-0.6-1-0.3-2.5,0.3-3.6c1-1.8,2-3.5,3.1-5.3c0.2-0.3,0.5-0.4,0.8-0.5c0.1,0,0.3,0.4,0.4,0.6
			c0.7,1.1,1.1,2.2,2.1,3.1c0.4,0.4,0.8,1.1,0.8,1.6c0.1,1.5,0.4,2.9-0.7,4.3c-0.6,0.8-0.9,2-1.4,2.9C15.8,61.6,15.2,62.1,14.7,62.8
			z M74.5,192.7c-0.6,0-0.6,0.9-0.9,1.5c-0.1,0.2,0,0.4,0,0.6c-0.1,1.1-0.6,1.3-1.5,1c-1.5-0.6-2.7-1.4-3.3-3
			c-0.2-0.5-0.8-1-0.7-1.3c0.2-0.9,0.5-1.9,1-2.7c0.7-1.1,1.7-2,2.5-3c0.2-0.2,0.3-0.6,0.3-0.6c1-0.5,1.8-0.9,2.6-1.4
			c0.9-0.7,1.9-0.8,3-0.6c-0.3,1-0.6,1.9-0.7,2.9c-0.2,1.3-0.3,2.7-0.5,4c0,0.3-0.3,0.5-0.5,0.7C75.3,191.4,75,191.9,74.5,192.7
			L74.5,192.7z M152.1,180.6c-1-0.9-1-2-0.1-3.1c0.1-0.1,0.3-0.3,0.3-0.5c0-1,0.7-1.6,1.4-2.1c0.9-0.6,1.9-1.2,2.8-1.9
			c0.6-0.4,1.2-0.8,1.7-1.3c0.2-0.2,0.2-0.5,0.6-0.9c0.3,0.8,0.7,1.5,0.9,2.3c0.2,1.4,0.2,2.9,0.5,4.4c0.3,1.7-1,2.5-1.9,3.3
			c-1,0.9-2.2,1.4-3.3,2.1c-0.5,0.3-0.9,0.7-1.4,1c-0.4,0.3-1.6,0-1.6-0.5C151.9,182.5,152,181.6,152.1,180.6z M107.6,214.8
			c-1.1-0.4-2-0.7-2.8-1.1c-1.1-0.4-2.1-0.9-3.2-1.4c-0.8-0.4-1.5-0.9-2.3-1.4c-0.1-0.1-0.2-0.4-0.1-0.5c0.2-0.3,0.5-0.6,0.8-0.7
			c1.6-0.4,3.1-1,4.5-2c0.9-0.7,2.2-1.4,3.6-1s2.9,0.5,4.1,1.4c1,0.7,0.9,2.3-0.1,3c-0.1,0.1-0.2,0.2-0.3,0.4
			c-0.4,1.2-1.3,1.7-2.3,2.2C108.9,214,108.3,214.4,107.6,214.8z M148.5,14.9c0.5,0,1,0,1.5,0c0.1,0.3,0.1,0.5,0.2,0.8
			c0.1-0.1,0.1-0.2,0.2-0.3c0.8,0.5,1.6,1,2.5,1.6c1,0.7,2,1.4,3,2.1c0.5,0.4,0.5,0.7,0,1c-1.1,0.7-2.2,1.3-3.5,1.7
			c-0.1,0.3-0.1,0.5-0.2,0.8c-0.8,0.2-1.6,0.3-2.4,0.5c-1.3,0.4-2.2-0.5-3.2-1.1c-0.8-0.4-1.6-1-2.4-1.5c-0.8-0.5-1.6-0.9-2.7-1.6
			c0.6-0.2,1-0.4,1.6-0.6c0.1-0.5,0.4-1,1.3-1c0.3,0,0.6-0.3,0.8-0.5c0.6-0.5,1.2-0.9,1.8-1.4c0.1-0.1,0.3-0.1,0.4-0.1
			C148.3,15.8,148.3,15.8,148.5,14.9L148.5,14.9z M162.2,176.3c-0.5-1.4-0.8-2.6-1.2-3.7c-0.5-1.4,0.2-4.3,1.3-5.2
			c0.8-0.7,1.7-1.3,2.4-2c0.8-0.8,1.4-1.7,2.1-2.5c0.1-0.1,0.7,0,0.7,0.1c0.5,1.3,0.9,2.6,1.4,4c0.2,0.7,0.4,1.5,0.4,2.2
			c0.2,2.2-1.6,3.2-2.9,4.5c-0.4,0.4-0.9,0.6-1.3,0.9c-0.5,0.4-1,0.8-1.6,1.2C163,176,162.5,176.2,162.2,176.3L162.2,176.3z
			 M45.6,182.3c0.1,0.2,0.1,0.4,0.2,0.5c0-0.1,0-0.3,0-0.4c1.4-0.6,2.8-1.3,4.2-1.9c0.4-0.2,0.8-0.3,1.2-0.4c1.2-0.4,2.1,0.5,3,1
			c1,0.4,1.6,1.4,2.9,1.3c0.4,0,0.9,0.7,1.5,1.1c0,0.1,0,0.5,0,0.7c-0.5,0.3-0.9,0.6-1.3,0.9c-0.4,0.2-0.7,0.4-1.1,0.7
			c-0.3,0.2-0.5,0.5-0.7,0.8c-0.4,0.7-0.8,1.3-1.8,1.3c-0.7,0-1.3,0.3-2,0s-1.4-0.5-2.1-0.9c-1.5-1-2.9-2-4.4-3
			C44.7,183.5,44.6,182.9,45.6,182.3L45.6,182.3z M190.1,85.6c2.5,0.8,5,0.9,7.1,3.5c0.1,0.9,0.2,2.4,0.2,3.9c0,1.6,0,3.2,0,4.9
			c-0.7-0.2-1.4-0.4-2-0.4c-1.1-0.2-2.1-0.7-2.9-1.3c-0.7-0.5-1.2-1.3-1.6-2.1c-0.3-0.7-0.4-1.6-0.5-2.4c-0.2-1.6-0.3-3.1-0.4-4.7
			C190.1,86.6,190.1,86.3,190.1,85.6L190.1,85.6z M147.3,178.5c0.2,0.4,0.2,0.6,0.3,0.8c0.4-0.4,0.7-0.7,1-0.9s0.7-0.4,0.8-0.4
			c0.3,0.2,0.6,0.6,0.6,0.9c0.2,1.7,0.4,3.4,0.4,5.1c0.1,1.1-0.8,2.2-1.8,2.6c-0.3,0.1-0.6,0.3-0.7,0.6c-0.4,0.6-0.9,0.7-1.6,0.8
			c-0.8,0.2-1.6,0.6-2.4,1c-0.6,0.2-1.1,0.6-1.7,0.7c-0.3,0-0.6-0.3-0.9-0.5c0.1,0,0.2-0.1,0.4-0.1c-0.1-0.5-0.2-1-0.2-1.5
			c0-0.3-0.1-0.7-0.1-1.1c0.1-0.6,0.4-1.1,0.4-1.7c-0.1-2,1-3,2.5-3.8c0.9-0.4,1.8-0.9,2.6-1.4C147.1,179.5,147.1,179.1,147.3,178.5
			L147.3,178.5z M58.1,17.5c-0.5,0.4-0.9,0.9-1.4,1.3c-0.5,0.3-1.1,0.5-1.8,0.9c0-0.9,0-1.8,0-2.7c0-1.2,0-2.4,0-3.6
			c0-1.6,1.1-3.1,2.5-3.7c1.1-0.5,2.1-1.2,3.2-1.6c0.9-0.3,1.8-0.5,3.1-0.7c-0.2,0.8-0.5,1.2-0.5,1.7c-0.1,0.9-0.1,1.8,0,2.7
			c0.1,1.6-0.8,2.9-1.6,4c-0.7,0.9-1.8,1.5-2.8,2.1C58.6,17.9,58.3,17.6,58.1,17.5z M193.9,72.7c-1.7,0-3.1,0.1-4.4,0
			c-1.9-0.2-3.5-1-4.1-3.1c-0.5-1.5-1.1-3-1.8-4.5c-0.1-0.3-0.5-0.6-0.9-1c0.1,0,0.4-0.1,0.5-0.2c0.1-0.8,0.3-0.9,1.1-0.4
			c0.4,0.3,1.3,0.1,1.9,0.1c1.2,0.1,2.3-0.3,3.5,0.4c1.1,0.6,1.7,1.5,2.2,2.6c0.3,0.6,0.6,1.3,0.8,1.9
			C193,69.8,193.4,71.2,193.9,72.7z M82.4,206.5c-0.2,1.5-0.2,3.2-0.6,4.7c-0.3,0.9-1.1,2-2,2.4c-0.9,0.3-2.2-0.2-3.3-0.2
			c-1.1,0-2.1-0.4-2.9-1c-1-0.7-1.8-1.6-2.6-2.5c-0.4-0.5-0.7-1.1-0.9-1.5c1.6-0.5,3.1-1.1,4.5-1.5c0.9-0.3,1.8-0.3,2.7-0.5
			c0.4-0.1,0.8-0.2,1.1-0.3c0.1,0,0.3-0.1,0.4-0.1C79.9,206,81,206.2,82.4,206.5L82.4,206.5z M189.5,61.9c-0.5-1.1-1.4-1-2.4-1
			c-1.2,0-2.3-0.1-3.5,0s-1.8-0.4-2.3-1.5c-0.3-0.6-0.7-1.3-1.3-1.7c-0.9-0.8-0.9-1.8-1.3-2.8c-0.3-0.7-0.8-1.4-1.2-2
			c0.2-0.3,0.3-0.5,0.6-0.9c0.1,0.5,0.2,0.7,0.2,0.9c0.5-0.1,0.9-0.2,1.4-0.3c1.1-0.2,2.2,0.3,3.3-0.4c0.7-0.4,2.5,0.5,3,1.3
			c0.4,0.6,0.7,1.3,1,1.9c0.6,1.2,1.1,2.5,1.7,3.7c0.4,0.8,0.7,1.5,1.1,2.3C189.7,61.7,189.6,61.8,189.5,61.9z M186.8,148.1
			c-0.2-0.6-0.4-1-0.6-1.4c-0.1-0.2-0.2-0.4-0.3-0.6c-0.7-0.7-1.2-1.5-2-2.1c-0.7-0.7-1.3-1.6-1.6-2.6c-0.2-0.6,0.2-1.5,0.5-2.1
			c0.4-1,1.1-1.8,1.5-2.8c0.4-1.1,0.6-2.2,0.9-3.5c1.7,2,3.8,3.3,4.8,5.6c0.6,1.4-0.2,2.5-0.6,3.6c-0.6,1.6-1.3,3.1-2,4.6
			C187.3,147.2,187.1,147.5,186.8,148.1L186.8,148.1z M117.3,209.1c1.9-0.6,3.5-1.1,5.1-1.5c0.6-0.1,1.3,0.1,1.8,0.4
			c0.4,0.2,0.6,0.6,1.1,0.1c0.2-0.1,0.9,0.1,1.2,0.4c1,0.8,2,1.6,2.9,2.5c0.9,1,1.6,2.1,2.3,3.2c0.2,0.2,0,0.7,0,1.3
			c-0.6-0.3-1.1-0.5-1.6-0.7c-0.1-0.1-0.3-0.3-0.4-0.3c-1,0.1-1.9,0.3-2.9,0.3c-0.5,0-1.1-0.2-1.6-0.2c-0.8,0-1.6,0-2.6,0
			c-0.5-0.5-1.2-1.2-1.9-1.9c-0.9-0.8-1.8-1.4-2.7-2.2C117.7,210.2,117.6,209.6,117.3,209.1L117.3,209.1z M111.9,9
			c-0.1-0.5-0.3-1.1-1.1-0.3c-0.2,0.2-0.7,0-1.2,0c0.3-0.6,0.4-1.2,0.7-1.7c0.5-0.8,1.1-1.6,1.5-2.4c0.6-1.2,1.4-2,2.7-2.4
			c1.5-0.5,2.7,0.1,4,0.5c1.3,0.3,2.7,0.7,4.1,1c0,0.3,0,0.7,0,0.7c-0.8,0.9-1.7,1.5-2.1,2.4c-1,1.9-3,3.2-5.2,2.9
			C114.3,9.5,113.1,9.2,111.9,9z M52.2,12.2c0.2,0.5,0.4,1,0.5,1.5c0.1,2,0.1,3.9,0,5.9c0,0.5-0.3,1.1-0.6,1.4
			c-1.2,1.3-2.4,2.5-4.1,3.2c-0.2,0.1-0.3,0.4-0.5,0.5c-0.5,0.3-1,0.6-1.6,1c-0.2-1.8-0.4-3.3-0.6-4.8c-0.1-0.4-0.3-0.7-0.4-1.1
			c-0.1-1.1,0-2.1,0.8-2.8c0.9-0.8,1.7-2,2.8-2.3C50,14.1,51,13.2,52.2,12.2z M187.2,75.1c0.1-0.1,0.4-0.3,0.6-0.5
			c0.1,0.1,0.3,0.3,0.5,0.3c1.4,0.2,2.8,0.4,4.2,0.4c1.4,0.1,2.6,1.2,3,2.6c0.4,1.6,0.9,3.1,1.2,4.6c0.2,0.9,0.3,1.8,0.4,2.9
			c-1.8-0.3-3.4-0.9-5.1-1.7l-0.1,0.2c-0.7-0.5-1.5-0.8-2-1.3c-0.4-0.4-0.7-1.1-1-1.7c-0.1-0.3-0.4-0.6-0.3-0.9
			c0.2-1.5-0.8-2.6-1-3.9C187.5,75.7,187.3,75.4,187.2,75.1L187.2,75.1z M45.8,175.1c1.4,1.1,2.6,2.1,3.9,3.1
			c-0.8,0.5-1.6,1-2.4,1.5c-0.1,0.1-0.3,0.2-0.4,0.3c-1.6,1.8-3.7,1.4-5.7,1.4c-0.1,0-0.2-0.1-0.3-0.1c-1.5-1.4-3-2.7-4.4-4.1
			c-0.6-0.5-0.4-1.1,0.3-1.4c0.8-0.3,1.7-0.4,2.3-0.9c0.9-0.7,1.9-0.9,2.8-1.1c0.7-0.2,1.7,0.3,2.5,0.6
			C45,174.5,45.4,174.9,45.8,175.1z M31,27.9c0.5,0.5,0.8,0.8,1.1,1.1c-0.1,0-0.1,0-0.2,0c0.1,0.4,0.2,0.9,0.4,1.3
			c0.1,0.3,0.3,0.6,0.4,1c0.2,0.5,0.4,1.1,0.4,1.7c0,1.9-0.3,3.7-2,5c-0.9,0.7-1.3,1.9-2,2.8c-0.4,0.5-0.9,1-1.5,1.7
			c-0.7-1.8-1.3-3.5-1.9-5.1c-0.2-0.5-0.4-1-0.4-1.5c-0.1-2.4,1.4-3.7,3.2-4.9c0.6-0.4,1.1-0.9,1.5-1.5C30.4,29,30.7,28.4,31,27.9z
			 M171.6,168.6c-1-1.8-0.7-3.9-2.1-5c0.1-0.6,0.3-1.2,0.2-1.7c-0.4-1.5,0.3-2.5,1.1-3.6c0.5-0.8,0.8-1.7,2-1.8c0-0.5,0-1,0-1.2
			c0.6-0.7,1.1-1.2,1.4-1.5c0.7,1.2,1.5,2.4,2.2,3.6c0.1,0.1,0.3,0.1,0.3,0.3c0.2,0.8,0.3,1.6,0.5,2.4c0.3,1.3-0.5,2.1-1.1,3.1
			c-0.5,0.8-1.3,1.5-1.9,2.3C173.3,166.4,172.5,167.4,171.6,168.6L171.6,168.6z M86.1,8.2c0.2-0.6,0.4-1.2,0.6-1.8
			c0.1-0.5,0.3-1,0.4-1.4s0.3-0.8,0.4-1.2c0.3-0.6,0.6-1.2,0.8-1.8c0.4-1,1.1-1.3,2.1-1.5c2-0.5,4-0.3,6-0.3c0.5,0,1,0.3,1.5,0.4
			c-0.7,1.3-1.6,2.1-1.9,3.5c-0.3,1.2-1.3,2.2-2.4,3.1c-1.2,1-2.6,0.7-4,0.9c-1.1,0.1-2.2,0.4-3.3,0.6C86.3,8.4,86.2,8.3,86.1,8.2z
			 M134.3,7.8c-1.3,1.3-2.7,2.8-4.1,4.1c-0.6,0.5-1.3,0.8-1.9,1.1c-2.2-1.4-4.8-1.5-7.4-2.3c0.2-0.4,0.3-0.9,0.6-1.3
			c1-1.2,1.9-2.3,3-3.4c0.9-0.9,1.9-1.4,3.3-0.8c1.3,0.5,2.7,0.6,4,1c0.3,0.1,0.5,0.3,0.8,0.4C133.1,7,133.7,7.4,134.3,7.8z
			 M69.3,12.3c0,0.2-0.1,0.5-0.1,0.6c-1.5,0.5-2.8,1-4.5,1.6c0.2-0.7,0.4-1.3,0.5-1.9c0.1-0.3,0.1-0.7,0.1-1.1
			c-0.1-1.7,0.1-3.3,0.9-4.8C66.5,6,67,5.5,67.9,5.3c1.7-0.4,3.3-1.1,5-1.6c0.5-0.1,1,0,1.7,0c-0.4,1.1-0.6,2.2-0.9,3.4
			c0,0.1-0.1,0.3-0.1,0.4c0.2,2.1-1.4,3.3-2.6,4.5c-0.3,0.3-0.9,0.4-1.4,0.6C69.4,12.5,69.4,12.4,69.3,12.3z M100.1,187.4
			c-0.5,1.3-1.4,2.1-1.4,3.4c-0.1,1.2-0.8,2.6-1.5,3.6c-0.9,1.2-2.1,2-3.8,1.8c-0.7-0.1-1.5,0.1-2.1,0.4c-1.5,0.8-3.1,0.1-4.8,0.5
			c0.2-0.5,0.3-0.8,0.4-1c1.1-1.5,2.1-3.1,3.2-4.5c0.5-0.6,1.3-0.8,2-1.1c1-0.5,2.1-1.1,3.1-1.5c1.1-0.4,2.2-0.7,3.3-1.1
			C99.1,187.8,99.5,187.6,100.1,187.4L100.1,187.4z M85.9,1.5c-0.3,0.3-0.5,0.4-0.5,0.5c-0.2,0.9-0.5,1.8-0.5,2.7
			c0,1.3-1.9,4.1-3.2,4.5c-1.1,0.3-2.2,0.6-3.3,0.9c-0.9,0.2-1.7,0.5-2.5,0.8C75,8,76.8,5.5,77.7,2.7c1.2-0.3,2.7-0.5,4.1-0.9
			c1-0.2,1.9-0.6,2.9-0.8C85,0.9,85.4,1.3,85.9,1.5z M78.5,189.3c-0.3-0.8-0.8-1.5-0.2-2.3c0.2-0.3-0.1-0.9-0.2-1.7
			c0.7-0.8,1.6-1.8,2.7-3c1.2,0,2.7-0.2,4,0.1s2.8,0.5,3.9,1.3c0.4,0.3,1.1,0.3,1.7,0.5c0,0.3,0,0.6,0,0.7c-1,0.8-2.1,1.3-2.8,2.2
			c-1.1,1.3-2.5,1.7-4.1,1.7c-1,0-2-0.1-2.9,0C80,188.9,79.3,189.2,78.5,189.3z M89.4,191.1c-0.9,1.1-1.7,2-2.5,3
			c-0.2,0.2-0.2,0.6-0.5,0.9c-0.7,0.8-1.4,1.5-2.7,1.4c-1-0.1-2,0.4-2.9,0.3c-1-0.1-2-0.5-3-0.7c-0.8-0.1-1.6-0.1-2.7-0.2
			c0.2-0.9,0.1-2,0.7-2.6c1.1-1.2,2-2.8,4.2-2.6c0.9,0.1,1.9-0.3,2.8-0.3c0.5,0,1.2,0.1,1.6,0.4c1.3,0.7,2.6,0.3,3.9,0.4
			C88.6,191,88.9,191,89.4,191.1L89.4,191.1z M93.7,200.1c-0.8,0.7-1.6,1.4-2.4,2.2c-0.4,0.4-0.7,0.9-1,1.4
			c-0.5,0.9-1.6,0.8-2.3,1.3c-1.1,0.6-2.2,0.6-3.4,0.1c-0.9-0.4-2-0.1-3-0.1c-0.2-0.5-0.5-0.9-0.4-1.3c0.6-2,1.2-4,3-5.1
			c0.6-0.4,1.7-1.2,2.7-0.2c0.3,0.3,1.1,0,1.6,0.1s1.1,0.4,1.6,0.5c0.6,0.2,1.3,0.2,2,0.3c0.5,0.1,1.1,0.3,1.6,0.4
			C93.6,199.8,93.7,199.9,93.7,200.1L93.7,200.1z M140.1,183.4c0,1.8,0.1,3.3,0,4.9c-0.1,1.4-1.6,2.8-3,3.2c-0.7,0.2-1.3,0.6-2,0.9
			c-0.5,0.2-1,0.3-1.4,0.4c-0.6,0.2-1.2,0.3-1.7,0.5c-0.4,0.1-0.8,0.3-1.5,0.6c0.2-1.2,0.3-2.2,0.5-3.1c0.1-0.8,0.2-1.5,0.5-2.3
			c0.5-1.9,2.1-2.6,3.8-3.1c1.2-0.4,2.3-0.9,3.5-1.4C139.1,183.8,139.5,183.7,140.1,183.4L140.1,183.4z M68.5,187.5
			c-0.8,1-1.3,1.9-2.1,2.6c-0.7,0.7-1.6,1.2-2.5,1.7c-0.2,0.1-0.7-0.2-1.1-0.3c-0.8-0.2-1.6,0.4-2.4,0c-0.8-0.4-1.7-0.6-2.6-0.8
			c-0.4-0.1-0.9-0.1-1.2-0.1c-0.5-0.4-0.9-0.6-1.1-0.9c-0.1-0.2-0.1-0.7,0-0.8c0.4-0.4,1.1-0.5,1.3-1c0.6-1.1,1.7-1.4,2.4-2.3
			c0.7-0.9,1.6-0.8,2.7-0.4c1,0.4,2.2,0.6,3.3,1C66.2,186.6,67.3,187.1,68.5,187.5z M197.5,110.5c-1.2-0.7-2.2-1.3-3.4-2.1
			c0,0.1-0.1,0.2-0.2,0.6c-1-1.2-1.8-2.3-2.6-3.3c-0.2-0.2-0.2-0.6-0.2-0.9c0-1.8,0-3.6,0-5.4c0-0.5,0.2-1,0.4-1.7
			c1.3,1.4,2.5,2.1,4.1,2.5c1.3,0.3,2,1.4,2,2.9c0,2.1,0,4.3,0,6.4C197.5,109.8,197.5,110.1,197.5,110.5z M118.8,196.4
			c0.3-1.1,0.6-2,0.9-2.9c0.3-1.1,0.5-2.2,1.4-2.9c0.4-0.4,0.8-0.8,1.2-1.1c0.3-0.2,0.7-0.1,1-0.2c1.2-0.3,2.5-0.6,3.7-0.9
			c0.7-0.2,1.3-0.3,2.2-0.5c-0.1,1.1-0.2,2.1-0.3,3.1c-0.2,1-0.5,1.9-0.7,2.8c-0.7,0.5-1.3,0.9-2,1.3c0,0.1,0.1,0.2,0.1,0.3
			c-1.5,0.1-3.1,0.2-4.6,0.4C120.9,195.9,119.9,196.2,118.8,196.4L118.8,196.4z M119,190.7c-0.3,0.9-0.6,1.9-1.1,2.8
			c-0.4,0.8-0.2,2.1-1.3,2.4c-1,0.3-1.8,1.3-3,1.2c-2-0.1-4,0-6.2,0c0.1-0.4,0.1-0.7,0.2-0.8c1.1-0.8,1.4-1.9,1.6-3.2
			c0.2-1.2,1.5-2.1,2.7-2.1c1.8,0,3.5-0.3,5.3-0.8C117.8,190.1,118.5,190.6,119,190.7L119,190.7z M59.5,212.5
			c1.2-1.9,2.7-3.3,4.8-4.1c0.1,0,0.1,0.1,0.1,0.1c0.2,2.1,0.3,4.1,0.5,6.2c0.1,1.9-0.5,3.4-2,4.5c-0.6,0.5-1.1,0.6-1.6,0
			c-1.2-1.4-2.4-2.9-3.4-4.4c-0.2-0.2,0-0.9,0.2-1.2C58.4,213.2,59,212.9,59.5,212.5z M112.3,188.2c-0.7-0.7-0.7-1.1,0.2-2
			c0.6-0.7,1.2-1.3,1.9-1.9c0.4-0.3,0.9-0.4,1.3-0.6c1.4-0.7,2.9-0.7,4.3,0c1.2,0.6,2.3,1.5,2.8,2.9c0.1,0.4,0.3,0.7,0.5,1.4
			c-1.7,0.3-3.3,0.5-4.9,0.8c-0.5,0.1-0.9,0.4-1.3,0.4c-1,0.1-1.9,0.1-2.3-1.1c0-0.1-0.1-0.1-0.2-0.1
			C113.9,188.1,113.2,188.1,112.3,188.2L112.3,188.2z M82.1,213c0.3-0.5,0.8-0.9,1-1.4c0.4-0.9,0.6-1.8,0.9-2.7
			c0.2-0.5,0.2-1,0.5-1.4c0.2-0.3,0.6-0.7,0.9-0.7c0.5,0,1,0.3,1.5,0.4c0.9,0.2,1.8,0.2,2.6,0.5c1.4,0.6,3.1,0.5,4.2,2.1
			c-1.2,0.3-2.4,0.4-3.3,1s-1.9,0.9-2.9,1.3c-0.6,0.3-1.3,0.6-2,0.7c-1,0.2-2,0.4-3,0.5C82.3,213.2,82.2,213.1,82.1,213L82.1,213z
			 M112.5,199.9c-2.8,0.8-4.7,2.2-6.1,4.5c-1.7-1.2-3.2-2.8-5.4-3.6c0-0.2,0-0.6,0-1C104.8,199.5,108.5,198.6,112.5,199.9z
			 M52.1,219.6c0.2,0.2,0.4,0.3,0.6,0.5c1,1,2.1,2,3,3c0.5,0.6,0.9,1.4,1.3,2.1c0.2,0.5-1.2,2.5-1.7,2.3c-0.6-0.3-1.2-0.8-1.6-1.3
			c-0.8-0.9-1.6-1.9-2.4-2.9c-0.5-0.7-1.1-1.3-1.6-2c-0.1-0.1-0.1-0.6,0-0.6C50.5,220.3,51.3,220,52.1,219.6z M79.2,204.7
			c-2-1.4-3.9-2.6-4-5.4c2.3-0.5,4.5-1,6.8-1.5c0.1,0.1,0.2,0.3,0.2,0.4c-0.6,1-1.3,2-1.7,3C80,202.2,79.7,203.4,79.2,204.7z
			 M103.1,193.6c0-0.2,0.1-0.5,0.1-0.6c1.1-0.3,2.1-0.6,3.2-0.9c0,0.1,0.1,0.2,0.1,0.3c0.1-0.2,0.1-0.5,0.3-1
			c0.5,0.2,1.1,0.3,1.5,0.5c-0.7,1.4-1.3,2.5-2,4c-2.1,0.8-4.5,0.6-7.2-0.2c0.3-0.4,0.4-1,0.8-1.1
			C100.9,194.2,101.6,193,103.1,193.6z M66.2,215.3c0-0.3,0-0.6-0.1-0.9c-0.1-1.6,0-3.3-0.5-4.7c-0.5-1.2,0.2-2,0.2-3
			c0.3,0,0.7-0.1,0.9-0.1c0.6,0.9,1.2,1.7,1.7,2.5c0.4,0.7,1,1.3,1.2,2c0.2,1-1.1,2.9-2,3.3C67.2,214.7,66.8,215,66.2,215.3z
			 M121.9,197.3c1-0.4,1.9-0.7,2.7-1.1c1.1-0.4,2.4,0.5,2.4,1.9c0,0.6-0.3,1.2-0.4,1.8c-0.1,0.5,0,0.9,0,1.4
			C125.6,201.4,122,198.3,121.9,197.3L121.9,197.3z M118,212.6c-2,1.4-3.8,3-6.7,2.2c0.6-0.8,1.3-1.5,1.9-2.3
			c0.3-0.4,0.6-0.7,0.8-1.1c0.8-1.4,1.3-1.5,2.4-0.4C116.8,211.5,117.4,212,118,212.6z M96.6,186.7c-0.7,1.3-2,0.9-2.7,1.4
			c-1,0.6-1.9,0.7-2.9,0.8s-2,0.3-3,0.5c0-0.1-0.1-0.2-0.1-0.3c1.2-1,2.5-2.1,3.7-3.1C93.2,186.2,94.9,186.4,96.6,186.7L96.6,186.7z
			 M125.4,204.7c-0.8-0.3-1.5-0.4-1.9-0.7c-1-0.7-2-1.3-2.7-2.2c-0.4-0.6-0.2-1.7,0-2.5c0.1-0.4,0.5-0.6,1.2-0.2
			c1.7,1,2.3,2.6,3.2,4.1C125.4,203.5,125.3,204,125.4,204.7L125.4,204.7z M124.5,216.4c1.2-0.1,2.2-0.2,3.2-0.1
			c0.8,0,1.6,0.3,2.3,0.4c0.8,0.1,0.7,0.5,0.2,0.9c-0.6,0.6-1.2,1.3-1.9,1.8c-0.3,0.2-1,0.3-1.3,0.1c-0.9-0.7-1.7-1.6-2.6-2.5
			C124.4,216.9,124.5,216.6,124.5,216.4L124.5,216.4z M131.2,224.5c-0.1,0-0.1-0.1-0.2-0.1c-0.3-0.4-0.9-1-0.8-1.3
			c0.3-0.6,1-1.1,1.5-1.6c0.2-0.2,0.5-0.4,0.9-0.6c0.6-0.4,1.2-0.9,1.9-1.2c0.3-0.1,0.8-0.3,0.9-0.1c0.2,0.3,0.3,0.7,0.3,1.1
			c-0.2,0.8-1,0.9-1.6,1.4c-0.9,0.7-1.7,1.6-2.6,2.4C131.3,224.4,131.2,224.4,131.2,224.5L131.2,224.5z M55.2,218
			c0.8,0.9,1.5,1.5,2,2.2c0.6,0.8,1.1,1.6,1.5,2.5c0.1,0.2-0.3,0.6-0.6,0.9c-0.1,0.1-0.5-0.1-0.7-0.2c-0.8-0.6-1.3-1.4-1.8-2.4
			c-0.3-0.5-0.9-0.9-1.2-1.4c-0.2-0.3-0.5-0.8-0.4-0.9c0.2-0.3,0.7-0.5,1.1-0.6C55.2,217.9,55.4,218,55.2,218z M60.5,220.7
			c-0.2,0.2-0.3,0.5-0.6,0.7c-0.2,0.1-0.6,0-0.7-0.2c-1.1-1.2-2.3-2.4-3.4-3.7c-0.1-0.1,0.1-0.6,0.2-0.8c0.2-0.2,0.7-0.4,0.8-0.3
			c1.2,1.3,2.4,2.6,3.5,4C60.5,220.4,60.5,220.5,60.5,220.7z M133,216.7c0.2,0.3,0.4,0.6,0.5,0.9c0.5,1-0.6,1.2-1,1.7
			c-0.4,0.6-1.1,0.9-1.5,1.5c-0.6,1-1.6,1.4-2,0.6c-0.2-0.3-0.1-0.7,0-0.9C130.3,219.2,131.6,218,133,216.7z M153.3,83.5
			c-0.1,1.7-0.6,3.5,0,4.7s2.3,1.8,3.5,2.7c-0.3,0.2-0.8,0.5-1.3,0.9c-0.8-1-1.1,0.4-1.7,0.5c-1.1,0.1-1.5,0.5-1.5,1.5
			c0,0.8-0.4,1.5-0.6,2.4c-0.8,0.2-1.1-0.7-1.5-1.2c-0.4-0.6-0.5-1.5-1-2.1c-0.3-0.4-0.9-0.6-1.4-0.6c-1.1,0.1-2.1,0.4-3.2,0.6
			c-0.2-1.1-0.1-1.7,0.9-2c0.5-0.1,1.4-2.7,1.1-3.2c-0.4-0.8-0.8-1.5-1.4-2.6c1,0.4,1.7,0.6,2.4,0.9c0.5,0.2,0.9,0.6,1.4,0.9
			c0.2,0.1,0.6,0,0.6,0c0.4-1.1,1.5-1.3,2.2-2.1C152.2,84.3,152.8,83.9,153.3,83.5z M41.1,89.2c0.8-0.6,1.4-1,2-1.5
			c0.8-0.6,1-1.3,0.9-2.3c-0.1-0.9,0-1.7,0-2.9c0.4,0.2,0.7,0.4,1,0.6c0.8,0.6,1.5,1.2,2.3,1.8c0.8,0.6,1.4,0.5,2.2,0
			c0.5-0.4,1.2-0.6,1.9-0.9c0,0.3,0,0.6-0.1,0.8c-0.4,0.8-0.9,1.6-1.1,2.5c-0.1,0.5,0.4,1.1,0.7,1.5c0.4,0.6,0.9,1.2,1.3,1.9
			c0.1,0.1,0,0.4,0,0.5c-1.7,0.3-3.1,0.2-3.8-0.4c-0.9,1.2-1.9,2.4-2.8,3.6c-0.1-0.1-0.2-0.1-0.3-0.2c0-0.6,0-1.1,0-1.7
			c0-1.4-0.6-1.9-2-2.2C42.5,90.3,41.7,89.6,41.1,89.2z M82.3,121.6c-0.8-0.3-1.4-0.5-2.1-0.6s-1.5,0-2.2,0c-0.5,0-1-0.3-1.4-0.6
			c0.7-0.1,1.3-0.5,2.2-0.4c1.2,0.1,2.4,0.5,3.6-0.3c0.2-0.1,0.7,0.3,1.1,0.3c1.2,0,2.4,0.1,3.6,0c8.1-1,16.2-0.2,24.4-0.4
			c2.3-0.1,4.6,0.2,6.9,0.4c0.3,0,0.6,0.4,1.2,0.7c-1.9,0.2-3.5,0.4-5.1,0.5c-3,0.2-6,0-8.9,0.5c-3.4,0.6-6.7,0.2-10,0.3
			c-1.5,0.1-3-0.4-4.5-0.4c-1.3,0-2.7,0.2-3.9-0.1c-1.4-0.4-2.7-0.2-4-0.3C82.7,121.4,82.4,121.6,82.3,121.6z"/>
	</g>
	<path fill="#FFFFFF" d="M252,57.4c-13.3-0.5-24.9,1.6-28.1,16c-2.4,11,4,18,14.3,21.1c4.5,1.3,10.4,3.3,12.9-3.1
		c2.2-5.5-1.7-7.9-6.6-9.2c-3.6-0.9-6.1-3.2-5.1-7.2c0.8-3.1,3.9-4.2,6.6-3.9c8.4,0.7,19.9-5.6,21.8,10c2.4,18.8-0.6,24.1-16.5,25.4
		c-13.6,1.1-26.9-0.1-37.2-10.5c-10.1-10.3-9.5-29,0.8-39.4c9.8-10,38.6-14.5,46.9-7.3c1.8,1.6,3.1,3.4,2.2,5.7
		C261.2,62.2,255.6,56.7,252,57.4L252,57.4z M794.9,76.2C795,95,781.6,107,761,106.7c-19.4-0.3-33.2-12.7-33.3-30
		c-0.1-17.8,13.1-30.1,32.7-30.4C781,45.9,794.8,57.8,794.9,76.2z M779.6,76.6c-1.2-11.2-6.4-19.1-18.7-18.8
		c-11.5,0.3-16.6,7.9-16.6,18.8c0.1,11.8,5.8,19.2,18.2,18.9C774,95.1,778.7,87.4,779.6,76.6z M861.8,72.4
		c-0.2,27.1-8.9,36.2-32.4,34.2c-16.3-1.4-23.8-9.1-24.6-25.7c-0.3-7.8-0.1-15.6,0-23.4c0.1-5.5,1.5-10.1,8.4-9.9
		c7,0.2,7.6,5.3,7.6,10.6c0.1,6.7,0.1,13.4,0.1,20c-0.1,9.2,1.7,17.6,13.1,17.1c11.2-0.4,12.4-9.1,12.4-18.1c0-6.1-0.2-12.2,0-18.4
		c0.1-4.9-0.4-10.7,6.8-11.1c8.1-0.5,8.5,5.4,8.6,11.2C861.9,63.5,861.8,67.9,861.8,72.4L861.8,72.4z M336.8,72.4
		c0,26.9-8.9,36.2-32.4,34.2c-16.3-1.4-23.9-9.1-24.6-25.7c-0.3-7.8-0.1-15.6,0.1-23.4c0.1-5.6,1.8-10,8.6-9.6
		c5.8,0.3,7.2,4.3,7.3,9.2c0.2,8.3,0.1,16.7,0.4,25c0.3,7.7,3.9,12.8,12,13.2c8.3,0.3,12.2-5,12.9-12.4c0.7-7.7,0.4-15.6,0.6-23.3
		c0.1-5.6-0.5-11.9,8-11.5c7.4,0.3,6.8,6,7,10.9C336.9,63.5,336.8,67.9,336.8,72.4z M939.2,95.5c5.8,0.2,11.3,0.8,12.9-4.1
		c2.3-7-4.7-7.7-8.9-9.4c-11.3-4.5-20.8-10-15.3-24.4c3.6-9.5,21-14.7,32.4-10.6c3.2,1.2,6.6,2.4,6,6.7c-0.6,4.2-3.7,4.7-7.5,4.4
		c-5.4-0.5-13.1-2.4-14.4,4.3c-1.7,8.6,8,7.3,12.8,9.8c7.2,3.7,14.1,7.4,13.8,16.8c-0.2,9.1-6.2,14.1-14.2,16.3
		c-9.2,2.4-18.7,3.8-27.2-2.2c-1.2-0.8-1.7-4.4-1-5.9C931.6,91,936.5,96,939.2,95.5L939.2,95.5z M462,107c-2.8-0.5-6.6-0.9-10.3-2
		c-3.5-1-5.9-3.2-4.7-7.3c1-3.4,3.8-3.3,6.7-2.9c2.7,0.4,5.5,0.8,8.2,0.8c4,0,8.4-0.6,9.6-4.9c1.3-4.9-3.2-6.3-6.8-7.8
		c-1.5-0.6-3.1-1.3-4.6-1.9c-11.3-4-18.8-10.5-13.7-23.6c3.8-9.6,24.9-15.1,34-9.3c1.6,1,3.4,3.2,3.5,5c0.2,3.1-1.9,4.9-5.3,4.8
		c-3.3-0.1-6.7-0.5-9.9-0.3c-3.4,0.2-6.8,1.6-7.3,5.4c-0.5,4.1,3.2,5.3,6.2,6.6c1,0.4,2.1,0.8,3.1,1.2c9.8,4.1,21.3,7.7,17.8,21.7
		C485.3,104.9,473.8,105.9,462,107L462,107z M628,95.5c6,0.1,12.3,1.2,14.1-4.5c2.1-6.8-4.9-7.6-9.3-9.3c-10.4-4.1-20.1-8.8-16-22.7
		c2.9-9.8,18.9-15.6,31.5-12c3.2,0.9,7.1,1.5,7.1,5.7c0,5.5-4.1,5.4-8.3,5.1c-5.4-0.4-12.7-2.4-14.1,4.7c-1.5,7.5,6.9,7.4,11.5,9.4
		c8,3.4,15.6,7,15.7,17.1c0.1,7.6-4.4,12.4-11.2,15c-9.6,3.7-19.5,4.5-29.1-0.1c-2.1-1-3-3.3-2.2-5.6
		C620.1,91.4,625.1,95.6,628,95.5z M707.3,106.8c-26-0.4-40-13.4-38-33.4c1.8-17.9,22.1-30.7,42.8-27c4.3,0.8,9.8,1.1,9.5,7
		c-0.4,7.1-6.1,4.4-10.2,4.1c-14-0.9-25.2,3.9-25.9,19C684.9,90,695,95,707.6,95.9c4.8,0.3,13.6-4.5,13.6,3.7
		C721.3,109,711.1,104.9,707.3,106.8L707.3,106.8z M893,47.7c7.2,0,14.5-0.1,21.7,0.1c2.9,0.1,5.4,1.3,5.9,4.7c0.4,2.6-1,5-3.1,5.1
		c-16.8,1.4-13.2,14-14.5,24.6c-1,8.1,6.2,22.6-8.7,22.2c-13.3-0.4-5.9-14.1-7.1-21.8c-1.7-10.6,4.1-24.7-14.9-25
		c-1.9,0-3.7-2.4-3.3-5c0.5-3.4,2.9-4.8,5.8-4.9c6.1-0.3,12.2-0.1,18.3-0.1C893,47.5,893,47.6,893,47.7L893,47.7z M530.1,47.7
		c7.5-0.5,11,4.9,13.9,10.2c6.3,11.9,11.8,10.9,17.5-0.4c0.7-1.5,2-2.6,3-4c3.5-5.3,9.4-8.3,14.2-4.9c6.4,4.6-1.2,8.4-3.5,11.9
		c-7.4,11.5-17.6,21.6-15.4,37.2c0.6,4.5-2.6,7-7.2,7.3c-4.6,0.2-8.2-2-7.8-6.6c1.7-17.4-9.4-28.8-18.5-41.2
		C522.4,51.9,522,48.2,530.1,47.7z M371.2,29.5c-5.9,8.6-10.2,16.4-14.3,16.4C342,45.9,359,33.7,371.2,29.5z M363.6,77.5
		c0,6.6,0.1,13.2,0,19.8c-0.1,4.4-2,7.3-6.8,7.6c-4.7,0.3-7.4-2.1-7.5-6.7c-0.3-14.3-0.5-28.6-0.6-42.9c0-4.8,3.1-6.7,7.7-6.5
		s7.1,2.6,7.1,7.3C363.5,63.3,363.5,70.4,363.6,77.5C363.5,77.5,363.6,77.5,363.6,77.5L363.6,77.5z"/>
	<g>
		<path fill="#FFFFFF" d="M420,163.7c0.6-30.8,0.6-30.8,18.7-30.3c26.8,0.7,40.4,10.5,40.5,29.1c0.1,19.3-15.9,29.7-43.6,29.5
			C410.4,191.8,423.5,172.7,420,163.7z M436.3,162.5c1.5,6.5-3.6,17,9.4,16.7c10-0.2,16.7-5.5,16.8-16.2
			c0.1-10.5-5.8-16.1-16.2-16.8C433.2,145.4,437.8,155.8,436.3,162.5L436.3,162.5z M684.4,162.8c0,5.5,0.1,11,0,16.5
			c-0.1,5.7-0.1,11.7-8.1,11.5c-7-0.2-7.2-5.5-7.4-10.6c-0.2-6.7,0.4-13.2-9.7-13.6c-10.1-0.4-15.9,1.9-14.9,13.4
			c0.4,4.9,0.1,10.5-7,10.8c-8.1,0.3-8.2-5.7-8.3-11.3c-0.1-12.1-0.1-24.2-0.1-36.3c0-5,2-8.6,7.7-8.7c5.6-0.1,8.1,3.1,7.9,8.3
			c-0.2,8,1.1,13.5,11.4,13.7c10.5,0.1,13.6-4.5,13.1-13.9c-0.2-5.2,2.3-8.5,7.9-8.3c5.7,0.1,7.4,3.9,7.4,8.9
			C684.4,149.6,684.4,156.2,684.4,162.8L684.4,162.8z M771.5,161.5c0-1.6-0.2-3.3,0-4.9c1.2-7.2-3.8-17.5,4.6-21
			c10-4.2,21.6-2.1,32.5-0.6c2.2,0.3,4.1,2.4,3.4,4.8c-0.6,1.8-2.3,4-4,4.4c-3.1,0.9-6.5,0.6-9.8,0.8c-4.1,0.2-9.8-1.8-10.3,4.7
			c-0.6,7.9,6.1,5.8,10.6,6.4c4.5,0.6,11.5-1.4,11,6.1c-0.4,6-6.7,4.1-10.7,4.6c-4.7,0.6-10.6-0.9-11,6.5c-0.5,8.7,6.2,7.1,11.4,7.9
			c4.4,0.7,12-2,12.1,4.6c0.2,8.3-8,5.4-12.8,5.6C771.5,192.5,771.5,192.4,771.5,161.5L771.5,161.5z M491.5,161.5
			c0-1.6-0.2-3.3,0-4.9c1.2-7.2-3.8-17.5,4.6-21c10-4.2,21.6-2.1,32.5-0.6c2.2,0.3,4.1,2.4,3.4,4.8c-0.6,1.8-2.3,4-4,4.4
			c-3.1,0.9-6.5,0.6-9.8,0.8c-4.1,0.2-9.8-1.8-10.3,4.7c-0.6,7.9,6.1,5.8,10.6,6.4c4.5,0.6,11.5-1.4,11,6.1c-0.4,6-6.7,4.1-10.7,4.6
			c-4.7,0.6-10.6-0.9-11,6.5c-0.5,8.7,6.2,7.1,11.4,7.9c4.4,0.7,12-2,12.1,4.6c0.2,8.3-8,5.4-12.8,5.6
			C491.5,192.5,491.5,192.4,491.5,161.5L491.5,161.5z M605,192.4c-24.9-0.3-38.5-12.4-37.1-31.7c1.4-18.5,20.3-31.1,41.5-27.7
			c4.2,0.7,10,0.7,9.7,6.6c-0.3,7.3-6.4,4.1-10.2,3.9c-8-0.4-15.5,0.6-21.2,6.9c-9.8,10.9-4.1,27.3,10.7,30.8
			c4.2,1,8.8,0.5,13.1,0.5c3.2,0,7.3-1,7.8,3.6c0.6,5.3-3.9,6-7.7,6.6C609.1,192.3,606.4,192.3,605,192.4L605,192.4z M744.5,191.1
			c-16.4,3.7-21.6-4.1-20-19.8c0.9-9.3,0.3-18.7,0.3-28.1c0-5,1.8-8.6,7.6-8.6c5.9,0,7.4,3.9,7.5,8.8c0.2,5.5,0.5,11,0.2,16.5
			c-0.7,12.5-0.4,23.9,17.4,21.6c3.3-0.4,7.1,0.8,6.7,5.2c-0.3,3.1-3.3,4.2-6.2,4.3C753.6,191.2,749.2,191.1,744.5,191.1z
			 M711.3,163.2c0,6.6,0.1,13.2,0,19.8c-0.1,4.4-2,7.3-6.8,7.6c-4.7,0.3-7.4-2.1-7.5-6.7c-0.3-14.3-0.5-28.6-0.6-42.9
			c0-4.8,3.1-6.7,7.7-6.5c4.6,0.2,7.1,2.6,7.1,7.3c0,7.2,0,14.3,0,21.5C711.2,163.2,711.2,163.2,711.3,163.2L711.3,163.2z"/>
	</g>
	<path fill="#FFFFFF" d="M435.7,95.3c-6.1-13-12.4-26-18.4-39.1c-2.5-5.6-6.1-8.8-12.6-8.9c-6.7-0.1-9.8,3.8-12.3,9.2
		c-5.5,12.1-11.4,24-16.8,36.2c-1.6,3.6-6.3,8.1-0.5,11.5c4.9,2.9,9,0.2,12.9-3.9c10.2-10.8,23-10.7,33.1,0.2
		c2.9,3.1,5.6,5.2,11.5,5.1C438.8,105,438.2,100.6,435.7,95.3L435.7,95.3z M410,80.9h-10.1c-2,0-3.3-2-2.5-3.8l5-12.1
		c0.9-2.3,4.1-2.3,5.1,0l5,12.1C413.3,78.9,412,80.9,410,80.9z"/>
</g>
</svg>
