<svg xmlns="http://www.w3.org/2000/svg" viewBox="0 0 493.4 97.8"><path fill="#3EB34B" fill-rule="evenodd" d="M0 83.8c-.1 0 2-4.7 2.2-5 .6-.9.8-1.5 1.7-2.2.3-.3 2.1-.8 2-1.2-.1-.6-1.3-.1-1.5-.4-.8-1.2-.3-.7.1-2.1.5-1.5.4-3.2 1.3-4.6.4-.7 1.1-.8 1.4-1.6.4-1 0-2.3.1-3.3.1-.8.1-2.5 1-3s1.8.6 2.8.3c1.9-.5.6-.5 1.5-1.7.3-.4 1.2-1.2 1.3-1.7.4-1.3-.8-2.8-.4-4.1.1-.2 1.1-1.2 1.3-1.5.3-.5.7-1.5 1-2 .9-1.9.7-4.2 1.2-6.4.3-1.1 1-3.3.8-4.4-.1-.6-1-.7-.9-1.5 0-.2 1.2-1.1 1.4-1.4.9-1.4 1.4-2.6 2.7-3.7 1.5-1.3 2-2.5 2.6-4.4.6-1.7 1-3.4 1.9-5.1.4-.7 1.5-1.7 1.6-2.5.2-.9-.7-1.6-.6-2.3.3-1.6 2.4-2.7 3-4.3 1.1-2.6 1.6-4.4 3.3-6.7 1.9-2.5 4.8-4.6 7.4-5.8 1.9-.9 3.4-.7 5.4-1 2-.2 2.8-.1 4.7 1 1.8 1 3.1 2.3 5.3 2.4 1.3 0 2.5-.6 3.9-.5 2.1 0 3.9.1 5.8.9 1.8.7 3.3 1.6 5 2.5 1.7.9 1.3 1.4 2.3 2.7.9 1.3 1.8 1.2 3.2 1.7 1 .3.4.9 1.3.8.1 0-.2-1 0-1 1.4-.3 2.5.1 3.8.2.4 0 .3-.6.9-.5.7.2 2.1 1 2.4 1.7.4.8-.5 1.4-.1 2.1.4.7.8-.6 1-.1.7 1.1 1 1.6 1.9 2.4 1.3 1.2 2.6 3.4 4.2 4.2.3.1 1.6.2 1.6.3.5.3.8 1 1.2 1.2 1.4.8 3.2-.4 5 .2 1.8.6 2.5 2.2 4.3 3 1.2.5.8.7 1.9.7.6-.5 1.3-.8 2-.9.7-.1 1.5-.1 2.2-.1 1.7-.1 3.9.4 5.5.1 1.2-.2 1.3-.8 2.7-.6.9.1 1.8.6 2.7.8.6.2 1.4.6 2.2.5 2-.3 3.6-2.6 5.8-.8 1.2 1 2.9 2.5 4 3.7.9 1 2.3 3.2 2.7 4.4.7 2.2-.8 2.8-1.6 4.5-.7 1.5-1.2 3.5-1.5 5.1-.7 3.4-1.3 3.7-4.6 3.3-.8-.1-1.5-.2-2.3-.1-.2.1-.5.2-.7.3-.7.4-1.3.4-1.9-.1-1.4 0-3 0-4.5.1-1.6.1-2 1-3.3 1.3-.3.1-.9-.5-1.1-.5-.3.1-.7.6-.8.6-.1.2-.2.5-.4.7-.4.3-.9.4-1.4 0-.8.1-1.4-1-2.3-.3-.7.5-.6.6-.5 1.4.1 1.3 1.3.3.2 2.3-1.8 3.4-5 6-8.5 7.5-.7.3-1.2.3-1.9.5-.2.1-.6-.6-.9-.6-.3 0-.4 1-.9 1.1-1.2.3-1.4-.1-2.3-.6-.9-.5-1.1-1-2.3-.9-.7.1-1 1-1.7.9-.8-.1-.8-.8-1.4-1-.4-.2-1 .1-1.2 0-1.8-.9-1.5-1.7-4-.9-1.7.6-4.2 1.2-5.7 2.1-1.5 1-2.4 2.5-4.2 3.4-1.9.9-3 1.1-3.9 3.1-.5 1.1-.2 1.4-1.2 2.2-.6.5-1.4.6-2.1 1.3-.7.6-1 1.5-1.7 2.1-.9.7-2.1.9-2.7 1.8-.8 1-.4 2-2.1 2.2-.4.1-.8-.2-1.2-.2-1.3 0-1.7.2-2.9.4-.6.1-1.4.1-2 .3-1.4.3-.8.5-2 1.2-2.6 1.5-3.1-.6-5.6-.7-1 0-1.3.7-2.1.9-.9.1-1-.1-1.8-.1-1.8.1-4.1 1.5-5.9 1-.1 0-1-.9-1-.9-1.1 0-1.5 1.2-2.3 1.9-.7.6-1.6.8-2.3 1.3-.2.4-.4.7-.5 1.1-.4.2-.8.4-1.2.5-1 1.3-1.5 3.9-2.1 5.6-1 2.7-1.2 3.9-3.5 5.4-2.8 1.9-7.7 5.4-11.4 3.6-.5-.2-.6-.2-1-.5-.5-.3-.4-.9-1.3-1.3-1.5-.6-3.8-.1-5.2-1-1.9-1.2-1.7-4-2.4-5.9-.4-1.3-1.9-3.5-1.9-4.8.1 0 0 .1 0 0z" clip-rule="evenodd"/><g><g fill="#FECC0D"><path d="M149.2 52.9c-.6 4.9-1.8 12.1-6.6 16.1 1.2 1.4 3.8 2.5 6 2.8-4.6-.1-7-1-8-1.4-1.8 1-4 1.4-6.7 1.4 7.6-1.3 14.2-14.4 15.3-18.9zm-1.3-7.4c.4-1.3.7-2.4 1.1-3.5-3.3-1.4-8.8-6.4-8.8-12.8 0-3.3-2.6-8.2-5.8-9.1 2.1.1 5.3 1.5 7.3 4.4 1.4-1.3 2.7-2.1 4.5-2.1 6 0 6.5 7.9 1.8 9 .1 1.7 1 4 4.1 7.6-2.9-1.3-6-5.2-7-9 4 .6 4.4-5 .7-5-1.8 0-2.9 1.7-2.9 4.3 0 3.6 2.2 8.4 9 11.9-2.3 6-5.3 17.2-11.4 23.1 2.7-4.3 4.7-10.5 6.4-16-.9-.6-1.7-1.3-2.5-2.4-.1 3.1-1.2 7.7-4 11.4 2.4-9.4 1.8-14.3.3-20.1 2.4 4.7 5.4 7.2 7.2 8.3zm2.3 13.2c.1 3.5-.4 8-.8 9 1.2 1.6 5.8 3.9 8.1 4-6.1.4-9.5-1.9-11.8-3.1 2.2-2.6 3.5-6 4.5-9.9zm13.3-12.2c-4.6 1.2-6.6 2.3-6.5 8.3-.3-2.1-.6-4-.4-5.9-1.4-2.1-2.8-5-3.8-7.5.6.9 2.8 4.2 5.1 5.5l1.2-1.2c-4-2.2-7.6-9.5-8.3-14.3 2 5.7 8.2 12.9 12.7 15.1zm.1 1.5c3.6-.4 5.6 2 5.9 4.5.2 1.7-1.4 4.6-3.1 4.5.2 2.4 1.9 7.8 6.4 11.9-6.3-2.7-9.3-9.7-10-14.3 1.7 1.5 3.6 0 3.5-1.5-.1-1.5-1.2-2-2.5-1.9-2.4.2-3.7 3.6-1.8 8.1-2.6-.9-3.5-2.9-3.6-4.3-.6-5.1 2.8-6.8 5.2-7zm10.9-21.8c.6-.7 1.1-1.4 1.7-1.9-3 .4-9.2-1.2-13.2-3.9 13.5 4.1 17.8-.7 23.8.1-6.4.8-12.4 7.7-15.8 15.4.3-3.2 1.3-5.8 2.4-7.9-1.5-.7-3.8-1.6-5.3-1.6 2.2-.7 4.6-.6 6.4-.2zm-6.9 18.6c1.5-4.4-2.4-9.2 2.8-15.7-4.3 16 5 14 3.5 29.7-.2-4.4-2.9-13.5-6.3-14zm7.6 19.9c1.6-7.8 1.3-11.8-1.2-17.8 9.8 11.5-3 19.8 8.9 25-11.9-1-14.1-10.6-12.3-18.6.3 5.2 1.5 8.7 4.6 11.4zm-3.6-25.2c1.6-5.3 5.8-10.5 8.4-11.6-3 3.8-4.3 6.7-5.3 10 1.3 2.2 2.3 7.5 2.3 11.7-1.6-5.5-3.1-8.1-5.4-10.1zM191 27.5c0-1.7-.8-3.4-3.2-3.4-1.8 0-2.8 1.3-2.8 2.9 0 1.2.7 2.7 3.6 1.6-1.8 2.6-5.8 2.6-8.1 9.5-.4-3.5 1.3-7.9 2.8-9.2-1.3-2.7.1-7.4 5.3-7.4 4.3 0 9 .1 10.8-1.6-2.1 3.6-6.4 3.8-7.3 4 1.5 1.5 1.9 2.5 1.9 4.6 0 2.2-2.1 4.3-4.7 6.7-.4 2.7-.3 5 .1 7.3-.6.4-1.5 1.5-2 2.3-.2-3.3-.4-5.6-.3-7.5-2.6 2.1-5 5.2-7 9.8.6-11.7 10.9-15.1 10.9-19.6zm-8.8 26c-.3-5.1.8-9.2 1-10.5.3 3 .4 5.4 1 7.5 1.9-2.7 4.1-5.1 5.9-6.1-.1 11 2.9 23.6 14.3 25.9-13 .9-17.2-14.8-16.4-20.3-2.3 1.6-4.9 3.7-7.6 7.5.4-1.3 1.1-2.7 1.8-4zm3.3.5c1.2 8.8 5.1 13.5 13.9 17.2-5.3.4-14.4-4.4-16.5-7.6 1.2 1 2.6 1.8 3.7 1.9-1.5-2.7-1.9-6.6-1.9-7.8-.9.9-2.4 2.1-2.6 3.7.2-3.7 1.7-5.7 3.4-7.4zm31.8-7.4c1 4.4.6 8.6-.7 12.1 1.5.3 3 .1 5.3-.6-1.6 4-5.2 16.5-20.9 12.6 12.7 1 15.8-7.3 16.4-9-.7 0-1.3-.1-2-.3-5.8 8.5-10.2 9.5-16 4.6 4.3 1.9 18.2-.3 17.9-19.4zm-10.5-28.1c5.9 1.4 7.2 2.7 8.1 5.7 2.6-.8 8.5-3.3 11-3.7-3.1 1-10.5 5.2-13.2 8.4.3-4.8-1.4-8.2-5.9-10.4zm18.1 20.1c.2 4.8.5 11.4-2.8 17.7 1-4.4 1-10.4-.1-13.2-1.7 1-6.1 1.3-10.7-1.1 4.9.6 9.7-.7 13.6-3.4zM217.7 26c-3 3.1-1.2 8.1 1.9 8.1 2 0 3.2-1.3 3.2-2.7 0-1.6-1-3-3.2-2.3-.4-4.7 5.2-8.4 10.7-8.4-5.3 1-6.6 4.1-6.9 6 1.8.9 2.7 2.7 2.6 4.6-.1 3.5-2.4 6.4-6.4 6.4-3.6 0-5-2.4-5.5-4.1-1.1 2.6-.8 5.4.2 7-.6.4-2 .7-3.3.3-1.1-5.1.5-11.2 6.7-14.9zm-6.1 17.3c1.3.8 2.1 1.2 3.5 1.5-.5 4.4-1.2 7.9-3.4 10.7.6-4 .9-7.9-.1-12.2zM214.5 72c4.3-1.3 9.4-5.9 10.1-10.7.5 2.6 1.8 4.1 3.9 5.3-4.4-2.1-6.2 4.1-2.4 4.1 1.6 0 2.4-1.2 2.3-1.8 1.9 1.3 5.5 2.7 8 3.1h-21.9zm22.2-21.1c.5.4 1 .7 1.4 1.1 3.3-3.6 9.2-6.1 13.5-6.1-7.7 2-10.5 5.3-12.1 8.2 2 5.1-1.1 10.8-7 10.8-8.8 0-7.8-11-1.3-11 2 0 3.6 1.1 3.6 2.8 0 1.6-1.6 2.9-3.4 2.1 1.8-.7 1.3-2.4-.1-2.4-3.1 0-3.8 5.8 1.3 5.8 6 0 6.1-8.8.4-10.6 3-5.6 7.4-8.1 12.9-14.7-4.7 8.6-8.5 11.8-9.2 14zm7.1-20.4c-.7.3-1.8.5-2.2.5-1.3 3.8-7 10.7-9.7 12.5 4.7-6.2 7.8-11.8 7.6-14.6 4.4-.5 7-1.4 10.1-3.6-3.4 11.3-14.6 18.8-18.6 25.8 1.6-6.7 11.1-14.4 12.8-20.6zm-11.8 37c1 .1 2.8 0 4-.3 1.6 1.7 4.2 3.3 8.7 4.9-3.3-.1-8.1-.9-12.7-4.6zm23.6-21.4c-.9-5.1-6.9-8.6-4.6-23.2-3.6 1.6-8 3.5-11 3.5 2.7-.3 9.8-3.4 13.2-6.3-1.1 8 .7 16.1 3.8 20.6 2.1-1.9 3.2-3.3 6.8-4.4-3.7 2.7-6 6.1-8.2 9.8zm3 14.3c0-7.8-6.4-12.1-15.5-8.1 3.7-2.8 10.8-5.5 15.8-4.9-2.7 1.4-2.5 6.8 2.2 6.8s5.7-8.4-2.4-8.4c1-2.2 3.3-5.3 7-7.8-1.8 2.1-2.8 4.4-3.3 6.1 3 .3 5.5 3.5 5.5 7.1 0 1.3-.4 2.6-1.2 3.8 1 3.2 2.7 7.7 6.2 10.7-3-.9-7.1-5.8-9-8.6-.6.2-1.3.4-2 .4.6 2.9.2 12.6-10.5 14.4 5.7-2.1 7.2-5.9 7.2-11.5zm-1.4-23.1c-1.7-3.8-3-9.2-3-12.9 1 4.4 3.1 8.2 5.4 11.2-.4.3-1.7 1.1-2.4 1.7zm6.8 24c3.2 5 7.5 7.9 16 10.7-6.7-.2-10.9-1.6-14-3.8-1.2 1.9-5.3 3.8-7.5 3.8 3.2-1.7 6.3-6.3 5.5-10.7z"/></g><g fill="#FECC0D"><path d="M303.9 33.8c-.5-4.4.3-7.8 1.9-9.6.1-.1 0-.2-.1-.3-2.4-.8-4-1.8-6.3-3.2-.2-.1 0-.3.1-.3 5.5 1.5 8.1 1.5 13.1.2.2 0 .3.2.1.3-4.1 2.3-7.6 6.8-8.6 12.9 0 .2-.2.2-.2 0zm6 34.5c3.6 0 3.2-4.5.8-4.5-.8 0-1.4.4-1.8.8-.1.1-.3 0-.3-.2.8-1.7 2.4-2.1 3.2-2.1 2.6 0 3.7 3.4 2.6 6.1 0 .1 0 .2.1.2 1.1.5 2.3 1.2 3.6 2.6.1.1 0 .3-.2.3-2.5-1.2-4.2-1.1-5-.8-.8.6-1.8 1-3.1 1-2.1 0-4.1-1.1-4.9-2.8 0-.1-.2-.1-.2-.1-1.9 1.6-4 2.6-6.9 2.8-.2 0-.2-.2-.1-.3 2.9-1.2 5.9-3.8 5.9-6.2 0-5.2 1.7-8.8 5.6-11.6.1 0 .1-.1.1-.2-.6-2.2-3.6-4.9-5.9-7-.1-.1 0-.3.2-.3 3.9 1.6 9.6 5.8 10.7 8.9 0 .1-.1.2-.2.2-2.4-.2-4.5 1-5.8 3-.1.1 0 .3.2.2 1.6-.4 3.4-.1 4.7.9.1.1 0 .3-.1.3-4.2-1-6.3 2-6.3 4.3 0 2.8 1.1 4.5 3.1 4.5zm-1.6-24.5c-1.9-.7-5.4-3-6.8-7.5-.1-.2.2-.3.3-.1.6 1 1.4 2 2.6 2.6.1.1.2 0 .2-.1.3-4.1 1.2-13.1 11.5-17.6.2-.1.3.2.2.3-9.4 7.9-10.2 14.3-7.8 22.3 0 0-.1.1-.2.1zm.2 9c-2.3 1.7-4.4 4.7-5.1 7.2 0 .2-.3.1-.3 0-.2-4.2 2.1-8.3 3.4-9.4 0 0 .1 0 .2 0 .5.3 1.4 1.2 1.9 2 0 .1 0 .2-.1.2zm5.5-26.6c.5 6.1 4.9 10.2 8.7 14.3.1.1-.1.4-.2.2-3.9-3-8.1-6.5-9.8-9.5-.1-.1-.3-.1-.3 0-2.4 9.7 3.9 12.1 2 20.7 0 .1-.2.2-.3 0-1.9-3.5-5.5-5.2-9-6.4-.2-.1-.1-.3.1-.3 3.1.3 4.6.4 5.7.3.1 0 .2-.1.1-.2-2.3-3.9-4.9-12 2.8-19.3.1 0 .2 0 .2.2zm9.2 16.9c.1.1.1.2 0 .3-2.5 1.5-2 5.8 1.3 5.8 2.5 0 2.8-3.9.7-4.5-.1 0-.2-.2-.1-.3 3.4-2.5 6.5-4.9 11.1-12.5.1-.2.4 0 .3.1-3 8.5-10.2 14.3-8.2 23 0 .1-.1.3-.3.2-9.7-7.2-8.9-13-13.4-19.4-.1-.1.1-.3.2-.2 2.8 1.8 7.2 6.4 8.4 7.5zm13-2c2.3-2.4 3.9-3.5 5.9-4.9 0 0 .1-.1.1-.1.2-.9.5-2.2.5-3.3 0-.2.2-.2.3-.1.5.8.8 1.4 1 2.1 0 .1.1.2.2.1.9-.5 1.6-.9 2.4-1.3.1-.1.1-.2 0-.3-1.5-1.2-2.9-2.5-2.9-5.9 0-1.4-.3-4.3-2.8-6.6-.1-.1 0-.3.2-.3 2.1.8 3.4 1.7 4.2 2.5.1.1.2.1.2 0 .9-.8 2.1-1.4 3.9-1.4 1 0 1.9.3 2.7.7.1 0 .1 0 .2 0 1.2-.8 3.5-1.8 5.8-2.1.2 0 .3.2.1.3-2.1.8-3.8 2.1-4.4 3 0 .1 0 .1 0 .2.6.8 1 1.8 1 2.8 0 1.5-1 4.1-3 4.1-1.6 0-2.4-.9-2.9-2.2 0-.1 0-.2.2-.2 1.2 0 2.2-1.3 2.2-2.1 0-1-1-1.8-2.1-1.8-1.3 0-2.4 1.4-2.4 3.2 0 1.9 1 5.1 5.5 6.8.1.1.1.2 0 .3-8.5 3.2-15 7-22.4 16.3-.1.1-.3 0-.3-.1 2.1-10.2 13.9-17.7 7-30-.1-.1.1-.3.2-.2 10.2 6.7 2.6 15.7-.6 20.4-.4.1-.2.3 0 .1zm4 30.7c-1.2.6-3.7 1.1-5.8 1.3-.2 0-.2-.2-.1-.3 1.3-.6 2.6-1.7 4.6-3.4.1-.1.2 0 .3.1.2.8.6 1.5 1.1 2.1.1.1 0 .2-.1.2zm2.4-23c-1 2.4-2 5-.6 10.4 0 .2-.2.3-.3.1-2.7-3.9-3.2-8.5-1.8-12.6 0-.1.1-.1.2-.1.8.4 1.9 1.3 2.4 2 .2.1.2.2.1.2zm5.3-7.9c1 1.4 2.5 4 3.2 7.7 0 .2-.2.3-.3.1-1-1.9-3-4.1-4.6-5.3-.1-.1-.2 0-.2 0-.2.4-.5.9-.8 1.3 0 .1 0 .2 0 .2 1.7 1.4 7.1 8.5 7.1 16.3 0 3.7-1.1 10.7-6.8 10.7-3.5 0-5.5-1.6-5.5-4.9 0-3.3 2.6-5.5 4.2-5 .1 0 .2 0 .2-.1.1-1 .5-4.6-.9-8.9-.1-.2.2-.3.3-.1 3.4 5 3.7 9.4 2.1 13-.1.1-.3.1-.3 0-.2-1.1-.8-1.4-1.4-1.4-2.4 0-2.1 4.4 1 4.4 3 0 4.1-4.1 4.1-7.5 0-7.6-5.2-14.6-8.5-16.3-.1 0-.1-.2-.1-.2 2.5-3.9 6.1-6.4 10.2-7.6.2 0 .3.2.1.3-1.4 1.1-2.4 2-3.1 3 0 .1 0 .2 0 .3zm15.4 31.7s-2.5.1-2.6 0l-5.1-2.5c-3.4-1.6-3.9 3.2-.6 1 .1-.1 1 1.4.8 1.4h-6.4c-.2 0-.2-.2-.1-.3 2-1 3.5-2.3 4.1-7 0-.1.2-.2.3-.1 1.2 1.8 8.8 7.3 9.6 7.5zM364.1 51.6c.5.4 1 .7 1.4 1.1 3.3-3.6 9.2-6.1 13.5-6.1-7.7 2-10.5 5.3-12.1 8.2 2 5.1-1.1 10.8-7 10.8-8.8 0-7.8-11-1.3-11 2 0 3.6 1.1 3.6 2.8 0 1.6-1.6 2.9-3.4 2.1 1.8-.7 1.3-2.4-.1-2.4-3.1 0-3.8 5.8 1.3 5.8 6 0 6.1-8.8.4-10.6 3-5.6 7.4-8.1 12.9-14.7-4.7 8.6-8.6 11.7-9.2 14zm7-20.4c-.7.3-1.8.5-2.2.5-1.3 3.8-7 10.7-9.7 12.5 4.7-6.2 7.8-11.8 7.6-14.6 4.4-.5 7-1.4 10.1-3.6-3.3 11.2-14.5 18.6-18.5 25.7 1.5-6.7 11-14.4 12.7-20.5zm-11.8 36.9c1 .1 2.8 0 4-.3 1.6 1.7 4.2 3.3 8.7 4.9-3.3 0-8.1-.9-12.7-4.6zm23.6-21.4c-.9-5.1-6.9-8.6-4.6-23.2-3.6 1.6-8 3.5-11 3.5 2.7-.3 9.8-3.4 13.2-6.3-1.1 8 .7 16.1 3.8 20.6 2.1-1.9 3.2-3.3 6.8-4.4-3.6 2.7-5.9 6.1-8.2 9.8zm3 14.4c0-7.8-6.4-12.1-15.5-8.1 3.7-2.8 10.8-5.5 15.8-4.9-2.7 1.4-2.5 6.8 2.2 6.8s5.7-8.4-2.4-8.4c1-2.2 3.3-5.3 7-7.8-1.8 2.1-2.8 4.4-3.3 6.1 3 .3 5.5 3.5 5.5 7.1 0 1.3-.4 2.6-1.2 3.8 1 3.2 2.7 7.7 6.2 10.7-3-.9-7.1-5.8-9-8.6-.6.2-1.3.4-2 .4.6 2.9.2 12.6-10.5 14.4 5.8-2.1 7.2-5.9 7.2-11.5zM384.6 38c-1.7-3.8-3-9.2-3-12.9 1 4.4 3.1 8.2 5.4 11.2-.4.3-1.8 1.1-2.4 1.7zm6.8 24c3.2 5 7.5 7.9 16 10.7-6.7-.2-10.9-1.6-14-3.8-1.2 1.9-5.3 3.8-7.5 3.8 3.1-1.7 6.3-6.3 5.5-10.7zM408.1 53.6c-1.3 4.8-9 13.5-5.3 15 3.5 1.3 5.4-10 5.3-15zm-1.1-7.3c.4-1.3.7-2.4 1.1-3.5-3.3-1.4-8.8-6.4-8.8-12.8 0-3.3-2.6-8.2-5.8-9.1 2.1.1 5.3 1.5 7.3 4.4 1.4-1.3 2.7-2.1 4.5-2.1 6 0 6.5 7.9 1.8 9 .1 1.7 1 4 4.1 7.6-2.9-1.3-6-5.2-7-9 4 .6 4.4-5 .7-5-1.8 0-2.9 1.7-2.9 4.3 0 3.6 2.2 8.4 9 11.9-2.3 6-5.3 17.2-11.4 23.1 2.7-4.3 4.7-10.5 6.4-16-.9-.6-1.7-1.3-2.5-2.4-.1 3.1-1.2 7.7-4 11.4 2.4-9.4 1.8-14.3.3-20.1 2.4 4.7 5.5 7.3 7.2 8.3zm1.5 12.9c1.5 5.4.7 8.3 0 9.3 1.2 1.6 5.8 3.9 8.1 4-6.1.4-9.9-2.1-12.2-3.3 3.2-1.5 3.9-5.8 4.1-10zm14-11.9c-4.6 1.2-6.6 2.3-6.5 8.3-.3-2.1-.6-4-.4-5.9-1.4-2.1-2.8-5-3.8-7.5.6.9 2.8 4.2 5.1 5.5l1.2-1.2c-4-2.2-7.6-9.5-8.3-14.3 2 5.7 8.2 12.9 12.7 15.1zm.1 1.5c3.6-.4 5.6 2 5.9 4.5.2 1.7-1.4 4.6-3.1 4.5.2 2.4 1.9 7.8 6.4 11.9-6.3-2.7-9.3-9.7-10-14.3 1.7 1.5 3.6 0 3.5-1.5s-1.2-2-2.5-1.9c-2.4.2-3.7 3.6-1.8 8.1-2.6-.9-3.5-2.9-3.6-4.3-.6-5.1 2.8-6.8 5.2-7zM433.5 27c.6-.7 1.1-1.4 1.7-1.9-3 .4-9.2-1.2-13.2-3.9 13.5 4.1 17.8-.7 23.8.1-6.4.8-12.4 7.7-15.8 15.4.3-3.2 1.3-5.8 2.4-7.9-1.5-.7-3.8-1.6-5.3-1.6 2.2-.6 4.6-.6 6.4-.2zm-6.9 18.6c1.5-4.4-2.4-9.2 2.8-15.7-4.3 16 5 14 3.5 29.7-.2-4.4-2.9-13.4-6.3-14zm7.6 20c1.6-7.8 1.3-11.8-1.2-17.8 9.8 11.5-3 19.8 8.9 25-11.9-1-14.1-10.6-12.3-18.6.3 5.1 1.5 8.6 4.6 11.4zm-3.6-25.3c1.6-5.3 5.8-10.5 8.4-11.6-3 3.8-4.3 6.7-5.3 10 1.3 2.2 2.3 7.5 2.3 11.7-1.6-5.5-3.1-8.1-5.4-10.1zM449.3 51.5c.5.4 1 .7 1.4 1.1 3.3-3.6 9.2-6.1 13.5-6.1-7.7 2-10.5 5.3-12.1 8.2 2 5.1-1.1 10.8-7 10.8-8.8 0-7.8-11-1.3-11 2 0 3.6 1.1 3.6 2.8 0 1.6-1.6 2.9-3.4 2.1 1.8-.7 1.3-2.4-.1-2.4-3.1 0-3.8 5.8 1.3 5.8 6 0 6.1-8.8.4-10.6 3-5.6 7.4-8.1 12.9-14.7-4.7 8.6-8.5 11.8-9.2 14zm7.1-20.4c-.7.3-1.8.5-2.2.5-1.3 3.8-7 10.7-9.7 12.5 4.7-6.2 7.8-11.8 7.6-14.6 4.4-.5 7-1.4 10.1-3.6-3.3 11.2-14.5 18.6-18.5 25.7 1.5-6.6 11-14.3 12.7-20.5zm-16 34.3c2.2 1.5 5.2 1.1 6.4.8-1 2.2-.7 4.6.2 6.8-2.5-1.8-4.6-2.8-6.6-7.6zm27.8-18.7c-.9-5.1-6.9-8.6-4.6-23.2-3.6 1.6-8 3.5-11 3.5 2.7-.3 9.8-3.4 13.2-6.3-1.1 8 .7 16.1 3.8 20.6 2.1-1.9 3.2-3.3 6.8-4.4-3.7 2.7-6 6.1-8.2 9.8zm3 14.3c0-7.8-6.4-12.1-15.5-8.1 3.7-2.8 10.8-5.5 15.8-4.9-2.7 1.4-2.5 6.8 2.2 6.8s5.7-8.4-2.4-8.4c1-2.2 3.3-5.3 7-7.8-1.8 2.1-2.8 4.4-3.3 6.1 3 .3 5.5 3.5 5.5 7.1 0 1.3-.4 2.6-1.2 3.8 1 3.2 2.7 7.7 6.2 10.7-3-.9-7.1-5.8-9-8.6-.6.2-1.3.4-2 .4.6 2.9.2 12.6-10.5 14.4 5.7-2.1 7.2-5.9 7.2-11.5zm-1.4-23.1c-1.7-3.8-3-9.2-3-12.9 1 4.4 3.1 8.2 5.4 11.2-.4.3-1.7 1.1-2.4 1.7zm6.8 24c3.2 5 7.5 7.9 16 10.7-6.7-.2-10.9-1.6-14-3.8-1.2 1.9-5.3 3.8-7.5 3.8 3.2-1.7 6.3-6.3 5.5-10.7z"/></g><g fill="#C9CBD1"><path d="M328.1 17.1h2.2c2.3 0 3.4.9 3.4 2.8 0 .9-.4 1.7-1.1 2.4-.7.7-1.6 1.3-2.7 1.7-1 .4-2 .6-2.9.6-.9 0-1.7-.1-2.5-.4-.8-.3-1.4-.7-2-1.2-.5-.6-.8-1.2-.8-2 0-.2.3-.7.9-1.4.6-.8 1-1.2 1.1-1.3-.1-.1-.4-.4-.9-.9-.4-.5-.7-.8-.7-1 .4-.8 1.1-1.5 1.9-2.2-1.3-.8-2-2.1-2-3.9 0-1.4.5-2.5 1.4-3.3.9-.8 2.1-1.1 3.5-1.1s2.5.2 3.2.7c1.3-.3 2.6-.4 3.9-.4.3 0 .5.2.5.6 0 .7-.1 1.1-.4 1.4l-2.8-.5c.6.8.9 1.7.9 2.7 0 1.6-.5 2.8-1.5 3.5-1 .7-2.2 1.1-3.6 1.1-.4 0-1-.1-1.6-.2-.2.5-.6 1.1-.9 1.7.4.3 1.5.6 3.5.6zm3.2 4.5c.2-.5.2-.9.2-1.4 0-.5-.2-.9-.6-1.2-.4-.3-.9-.4-1.5-.4-2.4 0-3.8 0-4.3-.1-.4.7-.8 1.3-.9 1.8-.2.5-.3.8-.3.8 0 .6.3 1.1.9 1.4.6.3 1.3.5 2.1.5s1.6-.1 2.4-.4c1-.2 1.6-.5 2-1zM330 10.3c0-2-.9-3-2.8-3s-2.8 1-2.8 3c0 1 .2 1.8.7 2.3.5.5 1.2.8 2.1.8 1.9 0 2.8-1.1 2.8-3.1zM341.3 17c.5 0 1-.1 1.6-.3.6-.2 1.1-.5 1.5-.8-.1-3.5-.1-6.2-.2-8-1 0-1.8-.1-2.3-.3l.1-1.3c1.4-.2 2.5-.4 3.3-.4.8 0 1.3 0 1.5 0 0 .3 0 .7-.1 1.2s-.2.8-.2.8l-.3 8.8c.9 0 1.6.1 2.1.3v1.3c-.7.2-1.4.3-2.1.3-.7 0-1.1 0-1.2 0-.3-.6-.5-1.2-.5-1.7-.8.6-1.6 1.1-2.2 1.4-.7.3-1.1.5-1.3.5-1.4 0-2.5-.4-3.1-1.2-.6-.8-1-1.9-1-3.4 0 0 .1-2.1.2-6.3-1 0-1.8-.1-2.6-.3l.1-1.3c1.4-.2 2.5-.4 3.3-.4.8 0 1.3 0 1.5 0 0 .4 0 .8-.1 1.3s-.2.7-.2.7v5.3c0 1.2.2 2.2.5 2.7 0 .8.7 1.1 1.7 1.1zM348.6 6.3c1.4-.2 2.5-.4 3.3-.4.8 0 1.3 0 1.5 0 0 .4 0 .8-.1 1.3-.2.6-.3.8-.3.8l-.2 8.9 2.1.2c0 .5-.1 1-.4 1.5h-5.7l-.1-.9c.8-.3 1.5-.5 2.2-.6-.1-4.1-.2-7.2-.2-9.2-1 0-1.7-.1-2.2-.3l.1-1.3zm4.5-2.6c-.4.1-.8.1-1.2.1-.4 0-.8 0-1.2-.1-.1-.5-.1-.9-.1-1.4 0-.5 0-.8 0-1 .4-.1.7-.1 1.1-.1.4 0 .8 0 1.3 0 .1.4.1.8.1 1.2 0 .5 0 .9 0 1.3zM365.2 10.5l-.1 6.4c.7 0 1.4.2 2.1.3v.9c-.3.1-.7.3-1.4.4-.7.2-1.4.2-2 .2-.3-.6-.5-1.2-.5-1.7-1.9 1.2-3.2 1.8-3.9 1.8-1.2 0-2.1-.3-2.8-.9-.7-.6-1.1-1.5-1.1-2.6 0-2.6 1.6-3.9 4.7-4 1.8 0 2.8-.1 2.8-.1v-.8c0-1.1-.2-2-.6-2.5-.4-.5-1.1-.8-2.1-.8-.4 0-.9.1-1.4.3l-.6 2.5c-.1 0-.2 0-.4 0l-1-.1c-.3-.7-.4-1.7-.4-2.9.3-.2 1-.4 2.1-.8 1.1-.3 1.8-.5 2.1-.5 1.7 0 2.9.4 3.6 1.1.6.9.9 2.2.9 3.8zm-5.4 6.8c.5 0 1.6-.5 3.3-1.6l-.1-3.1c-1.1.1-2.1.2-2.8.3-.8.1-1.4.3-1.8.7-.5.4-.7.9-.7 1.7 0 1.3.7 2 2.1 2zM369.7 17c.6.2 1.3.4 2.1.4s1.5-.2 2-.5.7-.7.7-1.3c0-.5-.2-1-.7-1.4-.4-.4-1-.7-1.6-1-.6-.3-1.3-.6-1.9-.9-.6-.3-1.2-.7-1.6-1.2-.4-.5-.7-1.1-.7-1.8 0-1.1.4-2 1.1-2.7.8-.6 1.8-1 3.1-1s2.6.3 3.8.9c0 .2 0 .6 0 1.3 0 .7-.1 1.3-.2 1.8-.4.1-.9.2-1.4.2l-.8-2.5c-.4-.2-.9-.3-1.5-.3s-1.1.2-1.5.5c-.4.3-.5.7-.5 1.2s.2.9.7 1.3c.5.4 1 .7 1.6 1 .6.3 1.3.6 1.9.9.6.3 1.2.7 1.6 1.3.5.5.7 1.1.7 1.8 0 1.2-.5 2.1-1.4 2.8s-2 1-3.4 1c-.7 0-1.5-.1-2.3-.4-.8-.2-1.5-.5-2.1-.9 0-1.1.1-2.1.3-2.9.4-.1.9-.1 1.5-.1l.5 2.5zM385.8 23.2c.6 0 1.2-.6 1.8-1.8.6-1.2.9-2.1 1-2.8h-.6l-3.9-10.9-2.1-.2c0-.5.1-1 .4-1.5h5.7l.1.9c-.5.2-1.1.4-1.8.5l2.1 6.7.6 2.2h.2l3-8.9-2.1-.5.1-.9h5.5c.3.5.4 1 .4 1.5-.7.1-1.3.1-2 .2-.4 1.3-1.1 3.1-1.9 5.6-.8 2.5-1.5 4.4-2 5.8-.5 1.4-1 2.5-1.4 3.3-.5.9-.9 1.4-1.4 1.7-.5.3-1 .4-1.6.4-1 0-2-.2-2.9-.6l-.4-.2c.1-1.9.2-2.9.2-3.1.1 0 .6-.1 1.4-.1l.8 2.5c.4.2.6.2.8.2zM403.5 17c.6.2 1.3.4 2.1.4s1.5-.2 2-.5.7-.7.7-1.3c0-.5-.2-1-.7-1.4-.4-.4-1-.7-1.6-1-.6-.3-1.3-.6-1.9-.9-.6-.3-1.2-.7-1.6-1.2-.4-.5-.7-1.1-.7-1.8 0-1.1.4-2 1.1-2.7.8-.6 1.8-1 3.1-1s2.6.3 3.8.9c0 .2 0 .6 0 1.3 0 .7-.1 1.3-.2 1.8-.4.1-.9.2-1.4.2l-.8-2.5c-.4-.2-.9-.3-1.5-.3s-1.1.2-1.5.5c-.4.3-.5.7-.5 1.2s.2.9.7 1.3c.5.4 1 .7 1.6 1 .6.3 1.3.6 1.9.9.6.3 1.2.7 1.6 1.3.5.5.7 1.1.7 1.8 0 1.2-.5 2.1-1.4 2.8s-2 1-3.4 1c-.7 0-1.5-.1-2.3-.4-.8-.2-1.5-.5-2.1-.9 0-1.1.1-2.1.3-2.9.4-.1.9-.1 1.5-.1l.5 2.5zM417.5 18.9c-2 0-3.4-.6-4.4-1.7-1-1.1-1.5-2.7-1.5-4.7 0-4.5 2-6.7 6-6.7.6 0 1.3.1 2 .3.7.2 1.2.4 1.6.6 0 1.5-.2 2.6-.5 3.3-.3.1-.5.1-.7.1h-.4c-.1 0-.2 0-.3 0l-.6-2.7c-.5 0-.9-.1-.9-.1-1.2 0-2.1.4-2.8 1.1-.7.7-1 1.9-1 3.7 0 1.7.3 3 .8 3.9.5.9 1.6 1.3 3.1 1.3.7 0 1.9-.3 3.4-1 .3.4.5.8.5 1.1-.8.5-1.7.9-2.5 1.2-.9.2-1.5.3-1.8.3zM422.3 12.4c0-2.1.5-3.7 1.4-4.9 1-1.2 2.4-1.8 4.4-1.8 2 0 3.4.5 4.3 1.6.9 1.1 1.3 2.7 1.3 4.8 0 2.1-.5 3.8-1.4 5-.9 1.2-2.4 1.8-4.3 1.8s-3.4-.6-4.3-1.7c-.9-1.1-1.4-2.7-1.4-4.8zm5.7 5c1.4 0 2.3-.4 2.8-1.3s.7-2.1.7-3.7c0-2.5-.6-4.1-1.7-4.8-.5-.3-1.1-.4-1.9-.4-.8 0-1.6.2-2.4.5-.7 1.3-1 2.7-1 4.4 0 1.6.2 2.9.6 3.7.6 1.1 1.5 1.6 2.9 1.6zM441 17c.5 0 1-.1 1.6-.3.6-.2 1.1-.5 1.5-.8-.1-3.5-.1-6.2-.2-8-1 0-1.8-.1-2.3-.3l.1-1.3c1.4-.2 2.5-.4 3.3-.4.8 0 1.3 0 1.5 0 0 .3 0 .7-.1 1.2s-.2.8-.2.8l-.3 8.8c.9 0 1.6.1 2.1.3v1.3c-.7.2-1.4.3-2.1.3-.7 0-1.1 0-1.2 0-.3-.6-.5-1.2-.5-1.7-.8.6-1.6 1.1-2.2 1.4-.7.3-1.1.5-1.3.5-1.4 0-2.5-.4-3.1-1.2-.6-.8-1-1.9-1-3.4 0 0 .1-2.1.2-6.3-1 0-1.8-.1-2.6-.3l.1-1.3c1.4-.2 2.5-.4 3.3-.4.8 0 1.3 0 1.5 0 0 .4 0 .8-.1 1.3s-.2.7-.2.7v5.3c0 1.2.2 2.2.5 2.7 0 .8.7 1.1 1.7 1.1zM450.1 17.1l-.2-9.3H448v-.9c.2-.1.6-.3 1.4-.6l2-3.2c.3 0 .6.1.8.2V6c1.2 0 2.2.1 3 .2 0 .4-.1.9-.4 1.5h-2.7c0 2-.1 5-.1 9 .9 0 1.8.2 2.8.5v.9c-.2.1-.8.3-1.8.5-.9.2-1.7.3-2.3.3-.1-.1-.2-.4-.3-.9-.2-.4-.3-.7-.3-.9zM458 17c.6.2 1.3.4 2.1.4s1.5-.2 2-.5.7-.7.7-1.3c0-.5-.2-1-.7-1.4-.4-.4-1-.7-1.6-1-.6-.3-1.3-.6-1.9-.9-.6-.3-1.2-.7-1.6-1.2-.4-.5-.7-1.1-.7-1.8 0-1.1.4-2 1.1-2.7.8-.6 1.8-1 3.1-1s2.6.3 3.8.9c0 .2 0 .6 0 1.3 0 .7-.1 1.3-.2 1.8-.4.1-.9.2-1.4.2l-.8-2.5c-.4-.2-.9-.3-1.5-.3s-1.1.2-1.5.5c-.4.3-.5.7-.5 1.2s.2.9.7 1.3c.5.4 1 .7 1.6 1 .6.3 1.3.6 1.9.9.6.3 1.2.7 1.6 1.3.5.5.7 1.1.7 1.8 0 1.2-.5 2.1-1.4 2.8s-2 1-3.4 1c-.7 0-1.5-.1-2.3-.4-.8-.2-1.5-.5-2.1-.9 0-1.1.1-2.1.3-2.9.4-.1.9-.1 1.5-.1l.5 2.5z"/></g><g fill="#C9CBD1"><path d="M145.8 93.7c.7 0 1.6-.2 2.5-.5.9-.3 1.7-.7 2.3-1.2-.1-5.5-.2-9.6-.3-12.5-1.6 0-2.8-.2-3.6-.5l.2-2c2.2-.4 3.9-.6 5.2-.6 1.2 0 2 0 2.4.1 0 .5-.1 1.1-.2 1.9-.1.8-.2 1.2-.3 1.3l-.5 13.8c1.4.1 2.5.2 3.3.5l-.1 2c-1.1.4-2.2.5-3.3.5-1.1 0-1.7 0-1.9 0-.5-1-.8-1.9-.9-2.7-1.3 1-2.4 1.7-3.5 2.2-1.1.5-1.8.8-2.1.8-2.3 0-3.9-.6-4.9-1.8-1-1.2-1.5-3-1.5-5.4 0 0 .1-3.3.3-9.9-1.5 0-2.9-.2-4.1-.5l.2-2c2.2-.4 3.9-.6 5.1-.6 1.2 0 2 0 2.3.1 0 .6-.1 1.3-.2 2-.2.7-.2 1.1-.3 1.1v8.3c0 2 .2 3.4.7 4.3.6.8 1.6 1.3 3.2 1.3zM170.9 76.1c2.5 0 4.3.6 5.4 1.8 1.1 1.2 1.7 3.1 1.7 5.6 0 .7-.1 4.1-.3 10l3.2.3c0 .7-.2 1.5-.7 2.3h-8.9l-.1-1.4c1.2-.4 2.3-.7 3.5-.9-.2-6.7-.3-10.5-.4-11.3-.1-.8-.3-1.4-.6-2-.3-.6-.6-1-1.2-1.2-.5-.2-1.2-.3-2-.3-1.7 0-3.3.4-4.9 1.2-.2 5.9-.3 10.3-.3 13.2l3.2.3c0 .7-.2 1.5-.7 2.3h-8.9l-.1-1.4c1.2-.4 2.3-.7 3.5-.9-.2-6.5-.3-11.4-.4-14.5-1.4-.1-2.6-.2-3.4-.5l.2-2c1.4-.4 3.4-.6 6.1-.6.3.5.5 1.1.7 2 1.1-.6 2.2-1.1 3.3-1.6 1.1-.2 1.8-.4 2.1-.4zM198.2 83.6l-.2 10c1.1.1 2.2.3 3.3.5l-.1 1.4c-.4.2-1.2.4-2.2.7-1.1.2-2.1.4-3.1.4-.5-.9-.7-1.8-.8-2.7-2.9 1.9-5 2.9-6.2 2.9-1.8 0-3.3-.5-4.4-1.5-1.1-1-1.7-2.3-1.7-4.1 0-4 2.5-6.1 7.4-6.3 2.9-.1 4.3-.1 4.4-.1v-1.3c-.1-1.8-.4-3.1-1-3.8-.6-.8-1.7-1.2-3.3-1.2-.7 0-1.4.2-2.2.5l-.9 3.9c-.1 0-.3 0-.7 0l-1.6-.1c-.4-1.1-.6-2.6-.7-4.6.5-.3 1.6-.7 3.4-1.2 1.8-.5 2.9-.8 3.4-.8 2.6 0 4.5.6 5.6 1.7 1 1.1 1.6 3 1.6 5.7zm-8.5 10.5c.7 0 2.5-.8 5.2-2.5l-.2-4.8c-1.8.2-3.2.3-4.4.4-1.2.1-2.1.5-2.9 1-.7.6-1.1 1.4-1.1 2.6.1 2.2 1.2 3.3 3.4 3.3zM225.6 76.1c2.5 0 4.3.6 5.4 1.8 1.1 1.2 1.7 3.1 1.7 5.6 0 .7-.1 4.1-.3 10l3.2.3c0 .7-.2 1.5-.7 2.3H226l-.1-1.4c1.2-.4 2.3-.7 3.5-.9-.2-6.7-.3-10.5-.4-11.3-.1-.8-.3-1.4-.6-2-.3-.6-.6-1-1.2-1.2-.5-.2-1.2-.3-2-.3-1.7 0-3.3.4-4.9 1.2-.2 5.9-.3 10.3-.3 13.2l3.2.3c0 .7-.2 1.5-.7 2.3h-8.9l-.1-1.4c1.2-.4 2.3-.7 3.5-.9-.2-6.5-.3-11.4-.4-14.5-1.4-.1-2.6-.2-3.4-.5l.2-2c1.4-.4 3.4-.6 6.1-.6.3.5.5 1.1.7 2 1.1-.6 2.2-1.1 3.3-1.6 1.1-.2 1.8-.4 2.1-.4zM247.3 93.7c.7 0 1.6-.2 2.5-.5.9-.3 1.7-.7 2.3-1.2-.1-5.5-.2-9.6-.3-12.5-1.6 0-2.8-.2-3.6-.5l.2-2c2.2-.4 3.9-.6 5.2-.6 1.2 0 2 0 2.4.1 0 .5-.1 1.1-.2 1.9-.1.8-.2 1.2-.3 1.3l-.5 13.8c1.4.1 2.5.2 3.3.5l-.1 2c-1.1.4-2.2.5-3.3.5-1.1 0-1.7 0-1.9 0-.5-1-.8-1.9-.9-2.7-1.3 1-2.4 1.7-3.5 2.2-1.1.5-1.8.8-2.1.8-2.3 0-3.9-.6-4.9-1.8-1-1.2-1.5-3-1.5-5.4 0 0 .1-3.3.3-9.9-1.5 0-2.9-.2-4.1-.5l.2-2c2.2-.4 3.9-.6 5.1-.6 1.2 0 2 0 2.3.1 0 .6-.1 1.3-.2 2-.2.7-.2 1.1-.3 1.1v8.3c0 2 .2 3.4.7 4.3.5.8 1.6 1.3 3.2 1.3zM270.1 94.1c1.1 0 2.9-.5 5.3-1.6.5.7.7 1.3.8 1.8-1.3.8-2.6 1.4-3.9 1.8-1.3.4-2.2.7-2.7.7-3 0-5.3-.9-6.8-2.7-1.6-1.8-2.4-4.3-2.4-7.5s.8-5.8 2.3-7.6c1.5-1.8 3.8-2.8 6.9-2.8 2.4 0 4.2.9 5.4 2.6 1.2 1.7 1.9 4 1.9 6.8-.2.4-.4.6-.5.7l-12.4-.2c0 2.6.5 4.6 1.4 6 .9 1.3 2.5 2 4.7 2zm2.4-14.2c-.6-.9-1.6-1.4-3.1-1.4-1.4 0-2.7.3-3.9.8-.8 1.5-1.3 3.1-1.5 4.8 2 0 5.2-.1 9.4-.2 0-1.7-.3-3.1-.9-4zM298.9 79.2l-7.5 17h-2.7l-7.1-17-3.2-.3c0-.7.2-1.5.7-2.3h9.4l.1 1.4c-.8.4-1.7.6-2.7.9l3.5 10.5.9 3.4h.5l1-3.4 3.6-10.5-3.2-.9.1-1.4h9.5c.4.8.7 1.6.7 2.3-1.5.1-2.5.2-3.6.3zM318.4 83.6l-.2 10c1.1.1 2.2.3 3.3.5l-.1 1.4c-.4.2-1.2.4-2.2.7-1.1.2-2.1.4-3.1.4-.5-.9-.7-1.8-.8-2.7-2.9 1.9-5 2.9-6.2 2.9-1.8 0-3.3-.5-4.4-1.5-1.1-1-1.7-2.3-1.7-4.1 0-4 2.5-6.1 7.4-6.3 2.9-.1 4.3-.1 4.4-.1v-1.3c-.1-1.8-.4-3.1-1-3.8-.6-.8-1.7-1.2-3.3-1.2-.7 0-1.4.2-2.2.5l-.9 3.9c-.1 0-.3 0-.7 0l-1.6-.1c-.4-1.1-.6-2.6-.7-4.6.5-.3 1.6-.7 3.4-1.2 1.8-.5 2.9-.8 3.4-.8 2.6 0 4.5.6 5.6 1.7 1.1 1.1 1.6 3 1.6 5.7zM310 94.1c.7 0 2.5-.8 5.2-2.5l-.2-4.8c-1.8.2-3.2.3-4.4.4-1.2.1-2.1.5-2.9 1-.7.6-1.1 1.4-1.1 2.6 0 2.2 1.2 3.3 3.4 3.3zM349.3 83.6l-.2 10c1.1.1 2.2.3 3.3.5l-.1 1.4c-.4.2-1.2.4-2.2.7-1.1.2-2.1.4-3.1.4-.5-.9-.7-1.8-.8-2.7-2.9 1.9-5 2.9-6.2 2.9-1.8 0-3.3-.5-4.4-1.5-1.1-1-1.7-2.3-1.7-4.1 0-4 2.5-6.1 7.4-6.3 2.9-.1 4.3-.1 4.4-.1v-1.3c-.1-1.8-.4-3.1-1-3.8-.6-.8-1.7-1.2-3.3-1.2-.7 0-1.4.2-2.2.5l-.9 3.9c-.1 0-.3 0-.7 0l-1.6-.1c-.4-1.1-.6-2.6-.7-4.6.5-.3 1.6-.7 3.4-1.2 1.8-.5 2.9-.8 3.4-.8 2.6 0 4.5.6 5.6 1.7 1.1 1.1 1.6 3 1.6 5.7zm-8.4 10.5c.7 0 2.5-.8 5.2-2.5l-.2-4.8c-1.8.2-3.2.3-4.4.4-1.2.1-2.1.5-2.9 1-.7.6-1.1 1.4-1.1 2.6 0 2.2 1.1 3.3 3.4 3.3zM373.4 79.2l-7.5 17h-2.7l-7.1-17-3.2-.3c0-.7.2-1.5.7-2.3h9.4l.1 1.4c-.8.4-1.7.6-2.7.9l3.5 10.5.9 3.4h.5l1-3.4 3.6-10.5-3.2-.9.1-1.4h9.5c.4.8.7 1.6.7 2.3-1.5.1-2.5.2-3.6.3zM387.2 94.1c1.1 0 2.9-.5 5.3-1.6.5.7.7 1.3.8 1.8-1.3.8-2.6 1.4-3.9 1.8-1.3.4-2.2.7-2.7.7-3 0-5.3-.9-6.8-2.7-1.6-1.8-2.4-4.3-2.4-7.5s.8-5.8 2.3-7.6c1.5-1.8 3.8-2.8 6.9-2.8 2.4 0 4.2.9 5.4 2.6 1.2 1.7 1.9 4 1.9 6.8-.2.4-.4.6-.5.7l-12.4-.2c0 2.6.5 4.6 1.4 6 .9 1.3 2.4 2 4.7 2zm2.4-14.2c-.6-.9-1.6-1.4-3.1-1.4-1.4 0-2.7.3-3.9.8-.8 1.5-1.3 3.1-1.5 4.8 2 0 5.2-.1 9.4-.2 0-1.7-.3-3.1-.9-4zM409.2 76.1c2.5 0 4.3.6 5.4 1.8 1.1 1.2 1.7 3.1 1.7 5.6 0 .7-.1 4.1-.3 10l3.2.3c0 .7-.2 1.5-.7 2.3h-8.9l-.1-1.4c1.2-.4 2.3-.7 3.5-.9-.2-6.7-.3-10.5-.4-11.3-.1-.8-.3-1.4-.6-2-.3-.6-.6-1-1.2-1.2-.5-.2-1.2-.3-2-.3-1.7 0-3.3.4-4.9 1.2-.2 5.9-.3 10.3-.3 13.2l3.2.3c0 .7-.2 1.5-.7 2.3h-8.9l-.1-1.4c1.2-.4 2.3-.7 3.5-.9-.2-6.5-.3-11.4-.4-14.5-1.4-.1-2.6-.2-3.4-.5l.2-2c1.4-.4 3.4-.6 6.1-.6.3.5.5 1.1.7 2 1.1-.6 2.2-1.1 3.3-1.6 1.1-.2 1.9-.4 2.1-.4zM423.8 93.8l-.3-14.6h-3l-.1-1.4c.3-.2 1-.5 2.2-1l3.2-4.9c.5.1.9.2 1.2.4v4.3c1.9 0 3.5.1 4.8.4 0 .7-.2 1.5-.7 2.3h-4.2c-.1 3.1-.1 7.8-.2 14.1 1.4.1 2.9.3 4.3.8v1.4c-.4.2-1.3.5-2.8.8-1.5.3-2.7.5-3.7.5-.1-.2-.3-.7-.5-1.3-.1-.9-.2-1.4-.2-1.8zM444.4 93.7c.7 0 1.6-.2 2.5-.5.9-.3 1.7-.7 2.3-1.2-.1-5.5-.2-9.6-.3-12.5-1.6 0-2.8-.2-3.6-.5l.2-2c2.2-.4 3.9-.6 5.2-.6 1.2 0 2 0 2.4.1 0 .5-.1 1.1-.2 1.9-.1.8-.2 1.2-.3 1.3l-.5 13.8c1.4.1 2.5.2 3.3.5l-.1 2c-1.1.4-2.2.5-3.3.5-1.1 0-1.7 0-1.9 0-.5-1-.8-1.9-.9-2.7-1.3 1-2.4 1.7-3.5 2.2-1.1.5-1.8.8-2.1.8-2.3 0-3.9-.6-4.9-1.8-1-1.2-1.5-3-1.5-5.4 0 0 .1-3.3.3-9.9-1.5 0-2.9-.2-4.1-.5l.2-2c2.2-.4 3.9-.6 5.1-.6 1.2 0 2 0 2.3.1 0 .6-.1 1.3-.2 2-.2.7-.2 1.1-.3 1.1v8.3c0 2 .2 3.4.7 4.3.6.8 1.6 1.3 3.2 1.3zM468.4 79.2c-.4 0-1.1.2-2 .5-.9.3-1.6.7-2.3 1.1-.2 5.7-.3 10-.3 12.9l3.2.3c0 .7-.2 1.5-.7 2.3h-8.9l-.1-1.4c1.2-.4 2.3-.7 3.5-.9-.2-6.5-.3-11.4-.4-14.5-1.4-.1-2.6-.2-3.4-.5l.2-2c1.4-.4 3.4-.6 6.1-.6.4.6.7 1.5.8 2.5 3-1.8 4.7-2.7 5.3-2.7.6 0 1.2.1 2 .3.7.2 1.3.5 1.7.7 0 2.6-.2 4.7-.7 6.3-.4.1-.8.2-1.3.2s-.8 0-1 0l-.8-4.2c-.1-.3-.4-.3-.9-.3zM490.3 83.6l-.2 10c1.1.1 2.2.3 3.3.5l-.1 1.4c-.4.2-1.2.4-2.2.7-1.1.2-2.1.4-3.1.4-.5-.9-.7-1.8-.8-2.7-2.9 1.9-5 2.9-6.2 2.9-1.8 0-3.3-.5-4.4-1.5-1.1-1-1.7-2.3-1.7-4.1 0-4 2.5-6.1 7.4-6.3 2.9-.1 4.3-.1 4.4-.1v-1.3c-.1-1.8-.4-3.1-1-3.8-.6-.8-1.7-1.2-3.3-1.2-.7 0-1.4.2-2.2.5l-.9 3.9c-.1 0-.3 0-.7 0l-1.6-.1c-.4-1.1-.6-2.6-.7-4.6.5-.3 1.6-.7 3.4-1.2 1.8-.5 2.9-.8 3.4-.8 2.6 0 4.5.6 5.6 1.7s1.6 3 1.6 5.7zm-8.4 10.5c.7 0 2.5-.8 5.2-2.5l-.2-4.8c-1.8.2-3.2.3-4.4.4-1.2.1-2.1.5-2.9 1-.7.6-1.1 1.4-1.1 2.6 0 2.2 1.1 3.3 3.4 3.3z"/></g></g><g fill-rule="evenodd" clip-rule="evenodd"><path fill="#C9CBD1" d="M54.5 68.4s.1.1 0 0c-.1.2-.9.1-1 .2-.3.1-.3.3-.3.4.1.2.4.3.7.4.1 0 .4.1.6.1.1 0 .5 0 .6 0 .1 0 .3 0 .3.1 0 0-.1.1-.4.1-.3 0-.7 0-1-.1-.4-.1-.6-.2-.6 0 0 .1.5.1.8.2.1 0 .5 0 .7.1.3 0 .5-.1.5.1 0 .1-.3.1-.6.1s-.6-.1-.9-.1c-.3 0-.5-.1-.5-.1 0 .1.3.1.6.2.3 0 .7.1 1 .1.3 0 .4 0 .4 0 0 .1-.2.2-.4.2-.3 0-.6 0-.9-.1-.6 0-.7-.1-.7 0s.4.1.7.1c.2 0 .7.1 1 0 .3 0 .4 0 .4.1s-.5.1-1.3.1c-.6 0-1-.1-1.4-.4-.4-.2-.8-.6-1-1.2-.1-.5-.2-.7-.4-.9-.2-.2-.3-.4-.4-.7-.6-1-.8-2.1-.8-3.2 0-1 .1-2 .3-2.9.2-.7.1-1.4 0-2.1-.1-.8-.3-1.6-.3-2.5 0-.7-.1-1.4-.1-2.1 0-.5.1-1 .5-1.4.5-.6 1.1-1.2 1.7-1.7.3-.2.6-.2.9.1.9.8 1.9 1.1 3.1 1.1 1 0 1.9-.4 2.7-1.1.3-.2.7-.2 1 0 .5.5 1.1 1 1.5 1.6.3.5.5 1 .5 1.6 0 1.1-.1 2.3-.2 3.4-.1 1.2-.2 2.5.1 3.7.3 1.5.3 3-.2 4.5-.2.6-.6 1.2-.9 1.8-.2.3-.4.7-.5 1-.2.6-.7 1-1.1 1.1-.6.2-1 .2-1.3.2-.2 0-1-.1-1-.2s.2 0 .7 0c.4 0 1.1 0 1.6-.2.2-.2 0-.1-.2 0-.1 0-.4.1-.9.1-.6 0-1.1 0-1.1-.1 0-.2.3-.1.6-.1.2 0 1 0 1.3-.1.2-.1.4-.1.4-.2 0 0-.3.1-.6.1s-.7.1-1.1.1c-.3 0-.5-.1-.5-.1 0-.1.5 0 .9 0s1.1-.2 1.2-.2c.1 0 .1-.1.1-.1 0-.1-.1 0-.3 0-.2.1-.4.1-.5.1-.2.1-.5.1-.8.1-.1 0-.7 0-.7-.1 0-.2.3-.1.7-.1.3 0 .7-.1 1-.2.4-.1.4-.3.3-.5-.1-.2-.3-.2-.7-.2-.4.1-.7-.1-.7-.2s.3 0 .6-.1c.7-.2 1.1-.1 1.2-.1.4 0 .6-.1.6-.5.1-.7.1-1.5 0-2.2 0-.7-.1-1.4.5-1.9.2-.2.2-.4 0-.6-.2-.2-.3-.4-.3-.7 0-1.5 0-3 0-4.4 0-.4.1-.8.3-1.1.4-.5.5-1.2.7-1.8 0-.1 0-.2 0-.3-.2.1-.2.2-.2.4-.2 1-.7 1.8-1.4 2.5-.4.4-.9.6-1.5.7-.3.1-.6 0-.8-.3-.8-.8-1.8-.8-2.5 0-.3.4-.7.3-1.2.2-.7-.2-1.3-.7-1.7-1.3-.4-.6-.7-1.2-.8-1.9 0-.1 0-.3-.2-.4 0 .5.1 1.1.4 1.5.4.7.5 1.4.5 2.2 0 1.4 0 2.8 0 4.1 0 .2 0 .4-.2.5-.2.2-.3.5 0 .7.4.3.5.8.5 1.2 0 .6 0 1.1 0 1.7 0 .4.1.9.2 1.3s.3.6.9.4c.1.1 1 .1 1.3.2z"/><path fill="#7F8D90" d="M56.1 41.2c-1.1 0-2.2 0-3.3 0-.4 0-.6-.2-.6-.6 0-1.3 0-2.7 0-4 0-.4.2-.6.6-.6.9 0 1.9 0 2.8-.1 1.3 0 2.6 0 3.9.1.3 0 .6.2.6.6 0 1.3 0 2.6 0 4 0 .4-.2.6-.6.6-1.2 0-2.3 0-3.4 0z"/><path fill="#C9CBD1" d="M52.9 46.7c0-.9 0-1.8 0-2.7 0-.6 0-.6.6-.6.4 0 .8 0 1.1 0 .4 0 .6.3.6.5.1.4.1.7 0 1.1-.1.3-.3.6-.6.7-.4.2-.5.5-.4.8.1.3.4.3.6.3.3 0 .5.1.7.2.3.2.5.2.8.1.4-.2.8-.3 1.2-.4.2 0 .3-.2.3-.4s0-.5-.2-.6c-.4-.2-.6-.4-.7-.8-.1-.4-.1-.8.1-1.2.1-.2.2-.3.4-.4.4 0 .9 0 1.3 0 .3 0 .4.2.4.4s.1.5.1.7c0 1.5 0 3 0 4.6 0 .9-.3 1.4-1 1.7-.7.4-1.4.6-2.2.6-1.1 0-2-.4-2.9-1-.3-.2-.4-.6-.4-1 .2-.8.2-1.7.2-2.6zM56.9 46.1c-.1.7-.3 1-.7 1-.4 0-.6-.2-.7-.9-.1.1-.1.2-.2.3-.1.1-.1.2-.3.2-.2 0-.4 0-.5-.2-.1-.2 0-.3.1-.4.1-.1.2-.2.4-.4.6-.6.7-1.2.3-2-.3-.6-.3-.7.2-1.2.4-.4.8-.4 1.2 0 .2.1.3.3.4.5.1.1.1.2 0 .3-.6.7-.4 2.1.4 2.6.2.1.3.2.2.5-.1.2-.3.3-.5.3s-.3-.2-.3-.4c.1-.1.2-.2 0-.2zM53 43.1c-.1-.4 0-.8 0-1.2 0-.3.3-.6.7-.6 1 0 2 0 3.1 0 .7 0 1.4 0 2 0 .5 0 .6.3.7.6 0 .2 0 .5 0 .7 0 .1 0 .1-.1.1 0 0-.1 0-.1-.1-.7-.4-1.5-.6-2.3-.6-.5 0-.9 0-1.4 0-1 0-2 .1-2.6 1.1zM56.5 52.4c-1.3 0-2.3-.4-3.2-1.1-.1-.1-.2-.2-.1-.3.1-.1.2-.2.4-.1.3.2.6.3 1 .4 1.4.5 2.7.3 4-.3.2-.1.3-.2.5-.2.1 0 .2.1.2.2s0 .2-.1.2c-.9.7-1.7 1.2-2.7 1.2zM59.6 44.4c0-.9 0-1.7 0-2.6 0-.2 0-.3.2-.3.2-.1.4 0 .4.3 0 .5 0 1 0 1.5 0 1.2 0 2.4 0 3.7 0 0 0 .1 0 .1 0 .2-.1.3-.3.3-.2 0-.2-.1-.2-.3-.1-1-.1-1.9-.1-2.7z"/><path fill="#C8CAD0" d="M52.6 44.4c0 .8 0 1.7 0 2.5 0 .2 0 .3-.2.4-.2.1-.3 0-.3-.2 0-.1 0-.2 0-.3 0-1.7 0-3.4 0-5 0-.1-.1-.4.2-.4.2 0 .3.2.3.4 0 .4 0 .7 0 1.1 0 .5 0 1 0 1.5z"/><path fill="#7F8D90" d="M56.1 35.8c-.4 0-.9 0-1.3 0-.2 0-.3 0-.3-.3 0-.2.2-.3.3-.3.9 0 1.8 0 2.7 0 .2 0 .3.1.3.3 0 .2-.1.3-.3.3-.5 0-1 0-1.4 0zM54 43.3c-.1-.1-.3 0-.4-.1-.2 0-.3-.3-.1-.4.5-.5 1.1-.7 1.8-.6.1 0 .2.1.1.2-.4.6-.8.8-1.4.9zM57.5 42.3c.5 0 1 .2 1.4.6.1.1.1.2 0 .3-.6.2-1.4 0-1.7-.5 0-.1-.2-.2-.1-.3.1-.1.2-.1.3-.1 0 0 0 0 .1 0z"/><path fill="#18131A" d="M57.3 47.8c-.7 0-1.4 0-2.1 0 .7-.1 1.4-.1 2.1 0 0-.1 0-.1 0 0z"/><path fill="#C8CACF" d="M56.3 66.1c-.2 0-.4-.1-.4-.3 0-.2.3-.3.4-.3.3 0 .4.1.4.3 0 .2-.3.3-.4.3z"/><path fill="#C9CBD1" d="M62.5 72.4c-.1-.2-.1-.4-.2-.6-.3-1.1-.5-2.3-.9-3.4-.1-.2-.2-.2-.3-.1-.2.2-.3.5-.4.7-.2.8-.7 1.4-1.6 1.6-.6.1-1.3.2-1.9.1-.5-.1-.4-.3-.4-.7 0-.3 0-.6.5-.6s.8 0 1.2-.1c.2-.1.5-.1.4-.4-.1-.3-.3-.1-.5-.1-.3.1-.7 0-.9-.3-.1-.1 0-.2.1-.2s.2 0 .3 0c.4-.1.8-.2 1.2-.1.7 0 .8-.1.8-.8 0-.7 0-1.4 0-2.1 0-.6 0-1.3.6-1.7.1-.1.1-.2 0-.2-.3-.1-.3-.3-.3-.6 0-1.6 0-3.1 0-4.7 0-.1 0-.2-.1-.2-.1-.1-.2 0-.2.1-.4.3-.9.6-1.4.7-.4.1-.9.1-1.1-.3-.3-.4-.6-.5-1-.5s-.8 0-1.1.4c-.2.3-.5.4-.9.4-.8 0-1.4-.3-2-.8-.1-.1-.2-.1-.3-.1-.1 0-.1.2-.1.2 0 1.4 0 2.8 0 4.2 0 .1 0 .2 0 .4.1.3.1.6-.2.8-.1.1-.1.2 0 .3.4.4.5.9.5 1.5s0 1.2 0 1.8c0 .4 0 .8.2 1.1.1.2.2.3.4.2.6-.2 1.2.1 1.8.1.1 0 .2.1.1.2s-.2.1-.3.2c-.3.1-.6 0-.9 0-.1 0-.2 0-.2.2 0 .1.1.2.1.2.4.2.9.3 1.4.3.2 0 .5 0 .6.5 0 .4.1.6-.3.7-.5.1-.9 0-1.4 0-1.1 0-2-.6-2.2-1.8 0-.2-.1-.4-.2-.6-.2-.2-.3-.2-.4.1-.2.7-.3 1.4-.4 2.1-.1.8-.2 1.6-.2 2.5 0 1-.3 4.2-.3 4.8 0 .4.3.4.7.3.6-.2 1.1-.5 1.5-.9.5-.6 1.1-.8 2.1-.8.9 0 2.9-.5 3.4-.6.6-.1 1-.1 1.7.1.5.1.9 0 1.3-.3.4-.4.5-1.8 1.4-2.2.5-.3.4-.6.3-1zm-6.9-6.7c0-.3.2-.5.6-.5.4 0 .6.2.6.5s-.3.6-.6.5c-.3.1-.6-.1-.6-.5z"/></g><path fill="#FECC0D" fill-rule="evenodd" d="M63.3 19.5c-.2-.6-.7-.6-1.2-.4-.4.2-.6.5-.7.9-.1.3-.1 1.3.4 1.6.3.1.7.1.9-.1.4-.4.5-.7.6-1 .1-.2.1-.5 0-1z" clip-rule="evenodd"/><g fill="#FECC0D" fill-rule="evenodd" clip-rule="evenodd"><path d="M17.6 62.5c.1-.4.9.1.9 0 .1-.2-1.5-1.5-1.1-1.7.6-.3 1.2 1.6 1.3 1.6.2 0 0-1 .3-.9.4.1-.3.9-.1 1 .2 0 1.7-1.4 2-.9.4.5-1.9 1-1.9 1.2 0 .1 1.2.1 1 .5-.2.3-1-.5-1.1-.4-.1.1 2.3 3.4 1.9 3.7-.7.5-1.9-3.6-2.1-3.6-.2 0 .1 1.2-.3 1.1-.4-.1.3-1.1.2-1.2-.1-.1-1.5 1.4-1.8.9-.4-.5 1.7-.9 1.7-1.1 0-.3-1 .3-.9-.2zM25.2 62.4c.1-.3.6.1.7 0 0-.2-1.1-1.1-.8-1.3.4-.2.9 1.2 1 1.2.2 0 0-.7.2-.7.3 0-.2.7-.1.7s1.2-1 1.5-.7c.3.4-1.4.7-1.4.9 0 .1.9.1.7.4-.1.2-.8-.4-.8-.3 0 .1 1.8 2.5 1.4 2.8-.5.4-1.4-2.7-1.5-2.7-.1 0 .1.9-.2.8-.3 0 .2-.8.1-.9-.1-.1-1.1 1.1-1.4.7-.3-.4 1.3-.7 1.3-.8 0-.1-.8.3-.7-.1zM13.9 68.9c.1-.3.6.1.6 0s-1-1-.8-1.2c.4-.2.8 1.1.9 1.1.1 0 0-.7.2-.6.3 0-.2.6-.1.7.1 0 1.1-.9 1.4-.6.3.3-1.3.7-1.3.8 0 .1.8.1.7.3-.1.2-.7-.3-.7-.3 0 .1 1.6 2.3 1.3 2.5-.5.3-1.3-2.5-1.4-2.5-.1 0 .1.8-.2.8-.3 0 .2-.7.1-.8-.1 0-1 1-1.3.6-.3-.4 1.2-.6 1.2-.8 0 0-.7.4-.6 0zM25.4 76c.1-.3.6.1.6 0s-1-1-.7-1.1c.4-.2.8 1 .9 1 .1 0 0-.6.2-.6.3 0-.2.6-.1.6s1.1-.9 1.3-.6c.2.3-1.2.6-1.2.8 0 .1.8.1.6.3-.1.2-.7-.3-.7-.2 0 .1 1.5 2.2 1.2 2.4-.5.3-1.2-2.3-1.3-2.4-.1 0 .1.8-.2.7-.3 0 .2-.7.1-.8-.1 0-1 .9-1.2.6-.2-.4 1.1-.6 1.1-.7 0-.1-.7.3-.6 0zM23.5 67.8c0-.1.2 0 .2 0 0-.1-.4-.4-.3-.4.1-.1.3.4.3.4.1 0 0-.2.1-.2s-.1.2 0 .2c0 0 .4-.3.5-.2.1.1-.4.2-.5.3 0 0 .3 0 .2.1 0 .1-.2-.1-.3-.1 0 0 .6.8.5.9-.2.1-.4-.9-.5-.9 0 0 0 .3-.1.3s.1-.3 0-.3c0 0-.4.3-.4.2-.1-.1.4-.2.4-.3.1 0-.2.2-.1 0z"/></g><g fill="#CB3025" fill-rule="evenodd" clip-rule="evenodd"><path d="M59.7 48.1c1.2 2.1 2.6 4 5.2 3.9.6 0 1.1-.2 1.7-.3.5-.1.5-.1.4.4-.3.9-.9 1.7-1.6 2.3-.7.6-1.6 1-2.5 1.2-.6.1-.7.1-.7-.4 0-.6 0-1-.2-1.5-.5-1.1-1.5-1.7-2.4-2.5-.5-.5-.2-.6-.1-1.3.1-.4 0-1.8.2-1.8.2.3 0 0 0 0zM52.7 49.8c0 .3.6.8.3 1-.3.2-1.2 1-1.5 1.2-.4.4-.8.7-1.1 1.2-.3.5-.4 1-.4 1.5 0 .4.2.7-.3.8-.9.3-2.3-.8-2.9-1.3-.5-.5-1.6-1.6-1.5-2.5 0-.5.6-.1 1 0 .7.2 1.4.2 2.1.1 1-.2 1.8-.6 2.5-1.3.7-.7 1.3-1.4 1.6-2.3 0-.1.1 0 .1 0 .1.4 0 .8.1 1.6zM39.7 54.1c-4.5 2.5-11.6 3.9-14.6-1.6-1.2-2.1-1-4.4.1-6.5.6-1.3 1.5-2.4 2.5-3.5.2-.2 1.1-1.3 1.5-1.1.2.2-.4 1.3-.5 1.5-.8 2.5-1.6 5.9.7 7.8 1.8 1.5 4.7 1.4 6.9 1.1 1.7-.2 3.4-.7 5.1-1.1.8-.2 1.6-.5 2.4-.8 1-.4 1.4-.7 1.8-.6.5.1-1.4 1.7-1.9 2-1.3 1.2-2.6 2-4 2.8-1.3.7.4-.2 0 0zM71.6 53.7c-1-.6-1.9-1.2-2.8-1.9-.3-.2-2.3-2.1-2.5-2.3-.2-.3 2.5.9 3.5 1.2 1.2.4 2.4.7 3.6 1 1.7.4 3.5.6 5.2.5 2.2 0 4.5-.9 5.3-3.1.7-2-.1-4.4-.7-6.4-.4-1.3-.3-1.4.7-.6.9.8 1.9 1.6 2.6 2.6 1.4 1.8 2.4 4.1 1.8 6.4-.5 1.9-1.8 3.3-3.6 4.2-1.2.6-3.2 1-5.6.9-2.7.1-5.2-1.2-7.5-2.5zM74.1 28.3c-1.4.3-2.8.7-4.2 1.1-.4.1-3.3 1.5-3.5 1.3-.5-.3 3.8-3.4 4.4-3.8 3.6-2.3 8.2-4 12.5-2.8 4.4 1.3 6.6 5.5 4.3 9.6-.3.6-4.2 5.4-4.7 4.7-.3-.4 1-2.7 1.2-3.2.2-.5.8-1.6.7-3.2-.5-5.5-7.2-4.4-10.7-3.7zM59.1 11.7c-1 .3-1.9.7-.8-.5 1.7-1.8 3.8-3.5 6.4-3.9 4.4-.6 7.6 3.2 7.9 7.3.3 4.4-2.3 8.8-5 12.1-.2.2-1.6 2.3-2 2.1-.2-.1.9-2.6 1-2.9.8-2.4 1.4-4.8 1.7-7.2.2-1.7.5-3.6-.3-5.2-.5-1.1-1.2-2.2-2.3-2.6-.7-.2-2.3-.5-3.4-.1-.8.1-2.2.5-3.2.9zM24.3 29.8c.7-6.1 7.7-6.9 12.3-5.3 2.9 1 5.4 2.7 7.8 4.6.3.3 2 1.3 1.2 1.5-.4.1-1.9-.7-2.3-.9-.8-.3-1.6-.5-2.4-.8-4-1.1-13.3-3-12.9 4 .1 1.5.5 3.1 1 4.5.7 2-.7.5-1.4-.3-2-1.9-3.6-4.5-3.3-7.3zM47 7.2c1.9.1 3.7 1.2 5.1 2.4.3.2 2.4 1.9 2.2 2.3-.2.5-1.9-.4-2.4-.5-1.7-.4-3.7-.9-5.4-.2-2.1.8-2.7 3.1-2.8 5.2-.1 1.9.2 3.8.7 5.6.3 1.2.6 2.4 1 3.6.2.5.9 1.9 1.1 2.7.1.3-.3.5-.5.3-1.3-1-4.1-5.8-4.5-6.5-.7-1.4-1.4-3-1.7-4.6-.2-.8-.2-2.5-.2-3.3.1-3.9 3.3-7.3 7.4-7z"/></g><g fill="#FEFEFE"><path fill-rule="evenodd" d="M60.3 35.3c0 .1 0 .2 0 .2 0 .4 0 .4-.4.4s-.8 0-1.3 0c-.4 0-.5-.1-.6-.5 0-.2-.1-.3-.4-.3-.2 0-.5 0-.7 0-.2 0-.3 0-.2-.3.2-.7.5-1.2 1.1-1.6.4-.3 1.2-.1 1.6.2.6.4.9 1.1.9 1.9zM74.1 38.7s-.1 0-.1 0c0-.1 0-.1.1-.1.5-.3.9-.5 1.4-.8.1 0 .1 0 .2 0 0 .1 0 .1-.1.2-.3.2-.7.4-1.1.6-.2 0-.3.1-.4.1z" clip-rule="evenodd"/><path d="M50.6 37.1c-.7-.6-1.4-1.3-2.1-1.8-1.4-1-2.9-1.7-4.7-1.8-.4 0-.8 0-1.3 0-.4 0-.6-.2-.6-.7 0-.2.1-.4.1-.6.1-.7-.1-1.2-.7-1.5-.7-.4-1.5-.6-2.3-.4-1 .2-1.8 1.2-1.7 2.1 0 .6-.2 1-.7 1.3-1.1.7-2.4 1.8-2.8 3.3-.1.1-.2 1.3-.1 1.6 0-.1.3-1.1.7-1.7.3-.5.8-.8 1.3-1 .5-.2.9-.3 1.4-.5.4-.1.8-.3 1-.6.1-.2.2-.4.3-.6 0-.1.1-.2.2-.1s0 .1 0 .2c-.3.8-.3 1-1.7 1.4-.5.1-1 .2-1.5.5-.3.2-1.2.7-1.7 2.5.2-.4.6-1.2 1.2-1.5.4-.2.8-.4 1.3-.4 1.2-.1 1.9-.1 3-1.6.2-.3.4-.5.5-.8.3.4.7.8 1.2 1 .3.1.7.2 1.1.3.3.1.4.2.4.5-.2 1.2-.1 2.3.3 3.4.2.5 0 .7-.6.7s-1.1-.3-1.6-.5c-.7-.3-1.3-.7-2-1-.3-.1-.5-.3-.9-.4-.3-.1-.4-.2-.6-.3-.2-.1-.2-.1-.3 0-.1.1 0 .2.1.2.5.2.9.5 1.4.7.1.1.2.1.2.2 0 0-.1.1-.3 0-.4-.2-1.1-.6-1.4-.7-.2-.1-.2 0-.2 0 0 .1-.1.2.1.2.3.1 1 .5 1.4.7.2.1.2.1.2.2s-.1 0-.2 0c-.2-.1-.4-.2-.6-.3-1-.5-1.1-.5-1.1-.3 0 .1-.1.1.3.3.3.1.7.3 1 .5.1.1.4.2.4.2-.1.1-.3 0-.4-.1-.4-.2-.8-.3-1.2-.5-.1-.1-.2-.2-.3 0-.1.1.1.2.2.3.5.3 1 .5 1.6.7 1.1.5 2.2 1 3.3 1.4.9.3 1.7.4 2.6 0 .9-.3 1.2-1.1.9-2-.1-.3-.2-.5-.4-.8-.2-.4-.3-.7-.3-1.2s.3-.9.8-1c.4-.1.9-.1 1.3.1 1.4.7 2.5 1.6 3.1 3 .3.7.3 1.5 0 2.2-.4.7-1.2.8-1.6.1-.1-.1-.1-.2-.2-.2-.3-.4-.8-.6-1.3-.5-.7.2-1.1.6-1.4 1.2-.3.6-.2 1 .3 1.5.3.3.7.7 1.1.9.5.4 1.2.6 1.7.9.2.1.3.3.3.5-.1.2-.3.2-.5.2-1.8 0-3.6-.1-5.4-.1-.2 0-.4 0-.3.3 0 .2.1.4.4.3.3 0 .7-.1 1-.1.2 0 .4-.1.7.1-.2 0-.3.1-.4.1-.4.1-.9.1-1.3.2-.2 0-.3.2-.3.4s.2.2.3.2c.3-.1.6-.1.9-.2.2 0 .4-.1.7 0-.3.2-.6.2-.9.3-.3 0-.5.1-.8.2-.2.1-.2.3-.2.5.1.2.2.2.4.1.3-.1.6-.2.9-.3.2-.1.4-.2.7-.1-.2.2-.4.2-.6.3-.3.1-.7.2-1 .4-.2.1-.3.2-.2.4.1.2.2.2.4.1s.3-.1.5-.2c1.7-.6 3.5-1.2 5.2-1.7.7-.2 1.3-.4 2.1-.3.5 0 .9-.2 1.2-.5.1-.1.2-.3.2-.5-.1-.5-.7-1-1.2-.9-.1 0-.3.1-.4.1-.3.1-.6-.2-.7-.5-.1-.3.1-.6.4-.7.3-.1.6-.1.8.1.2.2.4.3.7.4.4.2.6.1.6-.3 0-1.5.1-2.9.1-4.4-.2-1.5-.5-2.5-1.5-3.3zM41 32.6c-.4.2-.8.3-1.3.3-.4 0-.9-.1-1.3-.4-.5-.4-.5-1 0-1.3.8-.5 1.7-.5 2.6 0 .7.3.6 1 0 1.4zm8.8 13.5c.1-.3.3-.4.7-.5.4 0 .7.2.8.4.1.4-.2.7-.7.7-.5.1-.8-.2-.8-.6z"/><path fill-rule="evenodd" d="M73.8 33.9c.1 0 .2 0 .2.1 0 0 0 .1.1.1.3.8.9 1.2 1.8 1.4 1.7.4 1.7.7 2.1 1.2.2.3.5.7.7 1.9.1-.7.1-.7 0-1 0-.4-.2-.8-.4-1.3-.7-1.3-1.8-2.1-3-2.9-.3-.2-.3-.4-.3-.7.1-.7 0-1.3-.5-1.7-.7-.7-1.6-.9-2.6-.7-.9.2-1.4.7-1.5 1.4 0 .3 0 .7 0 1 0 .6-.2.8-.8.8-1.4-.1-2.7.2-4 .8-1.8.9-3.3 2.2-4.5 3.8-.5.7-.8 1.5-.8 2.4 0 1.4 0 2.8 0 4.1 0 .3.3.5.6.4.4-.1.7-.3 1-.6.3-.2.9-.1 1.1.2.2.2.1.5-.2.8-.2.2-.4.2-.6.1-.5-.2-1-.1-1.3.3-.3.4-.2 1 .3 1.2.4.2.8.3 1.3.2.3 0 .6 0 .9.1 2.2.7 4.3 1.4 6.5 2.2.1 0 .2.1.3-.1.1-.1.1-.2 0-.3-.2 0-.3-.1-.4-.1-.5-.2-.8-.3-1.3-.4-.1 0-.3-.1-.2-.2 0 0 .2 0 .4.1.4.1.6.2 1 .3.4.1.5 0 .5-.1.1-.3-.2-.4-.3-.4-.3-.2-.6-.3-.9-.3-.2 0-.6-.1-.6-.3 0-.2.4 0 .5 0 .4.1.7.1 1.1.2.2 0 .3 0 .3-.2s0-.3-.2-.3c-.1 0-.2 0-.2 0-.5-.1-1.5 0-1.5-.3 0-.2.4-.1.6-.1.4 0 .7.1 1.1.1.1 0 .2 0 .3-.1.1-.1.1-.2.1-.4-.1-.1-.2-.1-.3-.1-1.8 0-3.6.1-5.3.1-.2 0-.4.1-.5-.2-.1-.3 0-.5.3-.6.2-.1.3-.2.5-.2.9-.4 1.7-.9 2.4-1.6.5-.5.6-1.1.1-1.7-.2-.3-.5-.5-.7-.7-.6-.4-1.2-.4-1.7.2-.2.2-.3.4-.4.5-.4.4-1 .4-1.4-.1-.5-.8-.5-1.6-.1-2.5.6-1.2 1.6-2.1 2.7-2.8.4-.3.9-.3 1.4-.3.6 0 .9.4 1 .9 0 .3 0 .6-.1.8-.1.4-.3.7-.5 1.1-.5 1-.1 1.9 1 2.3.8.3 1.6.2 2.4-.1 1.7-.6 3.4-1.5 5.1-2.2.1 0 .2-.1.1-.2s-.2-.1-.3 0c-.5.2-.9.5-1.4.7-.1 0-.2.1-.3 0-.1-.1.1-.2.2-.2.5-.2.9-.4 1.4-.7.1 0 .2-.1.2-.2-.1-.1-.2 0-.3 0-.5.2-1 .4-1.4.7-.1.1-.3.2-.4 0-.1-.2.1-.2.2-.3.5-.2.9-.5 1.4-.7.1 0 .2-.1.1-.2s-.2-.1-.2 0c-.5.2-.9.5-1.4.7-.2 0-.3 0-.4-.2-.1-.1-.2-.2-.3-.1-.5.3-1 .6-1.5.8-.6.3-1.1.6-1.8.6-.5 0-.7-.2-.5-.7.4-1 .4-2.1.3-3.2-.1-.7-.1-.7.6-.9.6-.2 1.2-.4 1.7-.8.1-.1.2-.4.3-.3.1 0 .2.3.3.4.9 1.5 1.3 1.7 2.4 1.9 2 .4 2.5.2 3.3 2-.3-1.3-.7-1.8-1-2.1-.6-.5-1.1-.6-1.8-.7-.4-.1-.7-.2-1-.4-.5-.3-.9-.7-1.1-1.3 0 0-.1-.1 0-.1zM62.6 46.5c-.1.3-.4.3-.7.3-.1 0-.2 0-.3 0-.3-.1-.4-.2-.4-.5s.1-.5.4-.5c.4-.1.8 0 .9.2.2.1.2.3.1.5zm9.9-13.8c-.5 0-.9-.1-1.3-.4-.5-.4-.5-.9 0-1.3.4-.3.9-.3 1.4-.4.5.1.9.1 1.3.4.5.4.5.9 0 1.3-.4.4-.9.5-1.4.4zM63.9 20.2c-.1-.6-.2-.7-.4-.8.2.5.1 1 0 1.3-.2.6-.5.9-1.1 1-.6.1-.9-.1-1-.7 0 0-.1-.3-.1-.3s-.2.2-.2.3c0 .2 0 .3 0 .4.1.4.2.7.5 1 .2.2.2.4 0 .7-.4.7-.7 1.5-1 2.4-.4 1.1-.7 2.2-1 3.3 0 .2-.3.6-.5.6-.1 0-.4 0-.6-.3-.4-.8-.9-1.4-1.7-1.8-.3-.1-.4-.5-.3-.8.1-.2.1-.5.2-.7.1-.5.1-1-.4-1.4-.4-.3-.4-.7-.2-1.1.6-1.6.7-3.3.2-4.9-.2-.5-.3-.9-.6-1.4-.2-.5-.4-1.1-.4-1.8s.2-1.4.4-1.7c-.2.3-.5.9-.7 1.8-.1.6-.1 1.4 0 2 .1.6.3 1.2.5 1.8.2.8.3 1.1.1 1.9 0 .1-.2.6-.2.8 0-.3.1-.5.1-.8.1-.9 0-1.2-.3-2-.4-1.2-.5-2.2-.4-3.5.2-1.1.6-1.8.8-2.1 0 0 0-.1 0 0-.2.2-.7.7-1.1 1.6-.5 1.1-.6 2.1-.5 3.1.1.6.3 1.3.4 1.9.1.2 0 .4-.3.5-.2 0-.4.1-.6.1-.6.1-1.1.4-1.4.9-.6 1-.5 2.1 0 3.1.2.3.4.6.8.6.3.1.6 0 .9 0 .3 0 .5 0 .7.3.3.5.1 1.1-.5 1.3-.9.2-1.6.7-2 1.5-.3.7-.4 1.4-.5 2.1-.1.9-.1 1.9 0 2.8.1.8.4 1.6.7 2.4.1.1.1.3.3.3.5 0 1 0 1.5 0 .2 0 .3-.1.3-.3 0-.2 0-.3.2-.4.3-.1.3 0 .2-.3-.6-1.4-.9-2.8-.5-4.2.2-.7.6-1.1 1.3-1.2.6-.1 1.2.1 1.6.6.3.5.6.9 1.1 1.3.4.4 1.1.6 1.6.3.6-.3 1-.9 1.2-1.5.7-1.9 1.3-4 1.6-6 .1-.5.2-1 .6-1.4.4-.9.9-1.5.7-2.6zm-10.3 3.9c-.2.2-.4.4-.7.3-.3 0-.5-.3-.5-.5-.2-.7-.1-1.4.3-2.1.1-.1.2-.2.3-.3.3-.3.8-.2 1 .2.2.3.2.6.1.9 0 .5-.2 1.1-.5 1.5z" clip-rule="evenodd"/></g></svg>