<svg xmlns="http://www.w3.org/2000/svg" xmlns:xlink="http://www.w3.org/1999/xlink" viewBox="0 0 130 61.5812"><defs><clipPath id="a"><rect x="41.6923" y="15.7278" width="26.3972" height="32.9584" style="fill:none"/></clipPath></defs><title>DiarioDigital</title><path d="M3.5054.0567A5.4563,5.4563,0,0,1,5.2935.3131a2.4894,2.4894,0,0,1,1.1827.8408,3.8468,3.8468,0,0,1,.6555,1.553,11.7237,11.7237,0,0,1,.2067,2.3937,11.7207,11.7207,0,0,1-.2067,2.3938,3.8407,3.8407,0,0,1-.6555,1.553,2.4894,2.4894,0,0,1-1.1827.8408,5.4563,5.4563,0,0,1-1.7881.2564q-1.0122,0-1.8739-.0357T0,10.0164L.5417,8.9907q.5985.0142,1.3323.0353t1.6314.0214a2.7,2.7,0,0,0,1.4959-.3633,2.0238,2.0238,0,0,0,.7911-1.2255,9.3514,9.3514,0,0,0,.235-2.358,9.3552,9.3552,0,0,0-.235-2.358A2.0585,2.0585,0,0,0,5.0013,1.51,2.6617,2.6617,0,0,0,3.5054,1.14q-.8839,0-1.5887.0144t-1.375.0283L0,.1849Q.77.1282,1.6315.0924T3.5054.0567ZM1.2543.1849v9.8315H0V.1849Z"/><path d="M12.9946.1849v9.8315H11.74V.1849Z"/><path d="M21.6007.1849A.4991.4991,0,0,1,21.9.2778a.44.44,0,0,1,.1709.249l3.1631,9.49H23.9373L21.387,1.952c-.0383-.1332-.0785-.2684-.1212-.4065s-.083-.2679-.1213-.3916H20.746q-.0574.1856-.1143.3916c-.0378.1381-.08.2733-.1283.4065l-2.55,8.0644H16.6566L19.82.5268a.44.44,0,0,1,.171-.249A.4991.4991,0,0,1,20.29.1849ZM23.4245,5.856V6.9388H18.4376V5.856Z"/><path d="M32.2865.0567a5.5941,5.5941,0,0,1,1.8382.2494,1.7745,1.7745,0,0,1,1.0187.8622,3.7786,3.7786,0,0,1,.3206,1.7239,4.1208,4.1208,0,0,1-.1849,1.3323,1.6862,1.6862,0,0,1-.5774.8264,2.2068,2.2068,0,0,1-1.0471.3777V5.5a1.2807,1.2807,0,0,1,.4771.235,1.9958,1.9958,0,0,1,.4348.47,2.1277,2.1277,0,0,1,.2991.7056l.9547,3.1059H34.481l-.8691-3.0776a1.5791,1.5791,0,0,0-.499-.7906,1.3154,1.3154,0,0,0-.812-.2356q-.8691,0-1.51-.0069t-1.0689-.0214Q29.2946,5.87,29.038,5.87l.0427-1.04h3.1775a3.5578,3.5578,0,0,0,1.1469-.1709,1.04,1.04,0,0,0,.6058-.5626,2.8021,2.8021,0,0,0,.1849-1.133,2.6949,2.6949,0,0,0-.1849-1.1181,1.0468,1.0468,0,0,0-.6058-.5487,3.3832,3.3832,0,0,0-1.1469-.157q-1.1681,0-2.0161.0144t-1.147.0144l-.2-.9834q.5418-.0567,1.0117-.0855T30.94.0641Q31.5031.0566,32.2865.0567ZM30.1352.1849v9.8315h-1.24V.1849Z"/><path d="M41.235.1849v9.8315H39.9807V.1849Z"/><path d="M49.5131,0A5.6454,5.6454,0,0,1,51.33.2564a2.4693,2.4693,0,0,1,1.1967.8478,3.9434,3.9434,0,0,1,.6559,1.5743,12.0529,12.0529,0,0,1,.2068,2.4221,12.05,12.05,0,0,1-.2068,2.4222,3.9459,3.9459,0,0,1-.6559,1.5748,2.47,2.47,0,0,1-1.1967.8478,6.5649,6.5649,0,0,1-3.6336,0,2.51,2.51,0,0,1-1.2046-.8478,3.8372,3.8372,0,0,1-.662-1.5748,11.9855,11.9855,0,0,1-.2067-2.4222A11.9879,11.9879,0,0,1,45.83,2.6785a3.8348,3.8348,0,0,1,.662-1.5743A2.51,2.51,0,0,1,47.6963.2564,5.6369,5.6369,0,0,1,49.5131,0Zm0,1.1256a2.7618,2.7618,0,0,0-1.5326.37,2.043,2.043,0,0,0-.7971,1.2324,9.41,9.41,0,0,0-.2345,2.3724,9.4242,9.4242,0,0,0,.2345,2.3655,2.0461,2.0461,0,0,0,.7971,1.2394,3.3494,3.3494,0,0,0,3.0632,0,2.0481,2.0481,0,0,0,.7991-1.2394,9.4242,9.4242,0,0,0,.2345-2.3655,9.41,9.41,0,0,0-.2345-2.3724,2.0451,2.0451,0,0,0-.7991-1.2324A2.75,2.75,0,0,0,49.5131,1.1256Z"/><path d="M66.7531.0567a5.4536,5.4536,0,0,1,1.788.2564,2.4884,2.4884,0,0,1,1.1827.8408,3.83,3.83,0,0,1,.655,1.553,11.6812,11.6812,0,0,1,.2067,2.3937,11.6782,11.6782,0,0,1-.2067,2.3938,3.824,3.824,0,0,1-.655,1.553,2.4884,2.4884,0,0,1-1.1827.8408,5.4536,5.4536,0,0,1-1.788.2564q-1.0122,0-1.8735-.0357-.8631-.0358-1.6319-.0925l.5416-1.0257q.5979.0142,1.3318.0353t1.632.0214a2.7,2.7,0,0,0,1.4958-.3633A2.0238,2.0238,0,0,0,69.04,7.4586a9.3263,9.3263,0,0,0,.2346-2.358,9.33,9.33,0,0,0-.2346-2.358A2.0585,2.0585,0,0,0,68.2489,1.51,2.6614,2.6614,0,0,0,66.7531,1.14c-.5894,0-1.1181.005-1.5892.0144s-.9283.0194-1.3746.0283L63.2477.1849Q64.0169.1282,64.88.0924T66.7531.0567ZM64.5019.1849v9.8315H63.2477V.1849Z"/><path d="M76.2428.1849v9.8315H74.9885V.1849Z"/><path d="M84.75,0q.4979,0,.968.0283T86.63.1208a6.9573,6.9573,0,0,1,.8547.1784l-.1282.94q-.4413-.0424-.89-.0711t-.8617-.0358c-.2763-.0044-.5367-.0069-.7842-.0069a5.1749,5.1749,0,0,0-1.3457.15,1.5975,1.5975,0,0,0-.8766.5769,2.875,2.875,0,0,0-.4771,1.2255,11.6234,11.6234,0,0,0-.15,2.08,10.6722,10.6722,0,0,0,.2,2.3153A2.19,2.19,0,0,0,82.84,8.72a1.9168,1.9168,0,0,0,1.2533.3846,2.99,2.99,0,0,0,.99-.1565,4.0319,4.0319,0,0,0,.8408-.4065q.3921-.249.7624-.52l.1709.7693a4.1545,4.1545,0,0,1-.7047.6271,4.46,4.46,0,0,1-1.0475.5556,3.7775,3.7775,0,0,1-1.3537.2281,2.7905,2.7905,0,0,1-1.788-.5486A3.1317,3.1317,0,0,1,80.9588,7.972a11.1455,11.1455,0,0,1-.3131-2.9,9.4627,9.4627,0,0,1,.3916-3.0562,2.643,2.643,0,0,1,1.297-1.56A5.4037,5.4037,0,0,1,84.75,0Zm2.9916,4.3314v5.685H86.83l-.2-1.4535-.1143-.2848V4.3314Z"/><path d="M93.4828.1849v9.8315H92.2285V.1849Z"/><path d="M104.9383.1849V1.2965H97.344V.1849Zm-3.1774,0v9.8315h-1.2533V.1849Z"/><path d="M111.8061.1849a.498.498,0,0,1,.2992.0929.4417.4417,0,0,1,.1709.249l3.1636,9.49h-1.297l-2.55-8.0644c-.0377-.1332-.0785-.2684-.1212-.4065s-.0835-.2679-.1213-.3916h-.3985c-.0388.1237-.0766.2544-.1143.3916s-.0805.2733-.1282.4065l-2.55,8.0644h-1.297l3.1636-9.49a.4417.4417,0,0,1,.1709-.249.498.498,0,0,1,.2992-.0929ZM113.63,5.856V6.9388h-4.9873V5.856Z"/><path d="M120.3128.1849V8.0217a.9569.9569,0,0,0,.2346.7126.9985.9985,0,0,0,.72.2276h3.5481l.0567.969q-.9258.0717-1.8874.0855t-1.9162.0144a1.9454,1.9454,0,0,1-1.54-.5272,1.9525,1.9525,0,0,1-.4552-1.3254V.1849Z"/><polygon points="5.171 27.275 4.763 25.733 4.491 25.733 4.491 44.648 0 44.648 0 11.308 4.355 11.308 9.118 28.681 9.526 30.223 9.798 30.223 9.798 11.308 14.289 11.308 14.289 44.648 9.934 44.648 5.171 27.275" style="fill:#f7bd00"/><path d="M30.9355,11.3077V37.7985a9.0833,9.0833,0,0,1-.8165,3.6289,6.2418,6.2418,0,0,1-1.95,2.45,5.8229,5.8229,0,0,1-3.765,1.134,5.9586,5.9586,0,0,1-3.81-1.134,6.1163,6.1163,0,0,1-1.9052-2.45,9.0833,9.0833,0,0,1-.8165-3.6289V11.3077h4.899V37.7985a2.89,2.89,0,0,0,.68,2.0867,1.3,1.3,0,0,0,.9526.3628,1.4328,1.4328,0,0,0,1.4516-1.2247,3.1727,3.1727,0,0,0,.1814-1.2248V11.3077Z" style="fill:#f7bd00"/><path d="M41.4586,22.149l-.1361-.8619H41.05l-.1361.8619L39.508,32.6727h3.3568ZM33.1575,44.6481l5.0351-33.34H44.18l5.0351,33.34H44.4524l-.9072-6.8042H38.8276L37.92,44.6481Z" style="fill:#f7bd00"/><polygon points="66.588 44.648 63.458 23.691 63.276 22.285 63.004 22.285 63.004 44.648 58.468 44.648 58.468 11.308 64.456 11.308 67.359 26.549 67.586 28.318 67.676 28.318 67.903 26.549 70.806 11.308 76.794 11.308 76.794 44.648 72.258 44.648 72.258 22.285 71.986 22.285 71.804 23.691 68.674 44.648 66.588 44.648" style="fill:#f7bd00"/><path d="M87.3621,22.149l-.1361-.8619h-.2722l-.1361.8619L85.4115,32.6727h3.3568ZM79.061,44.6481l5.0351-33.34h5.9876l5.0351,33.34H90.3559l-.9072-6.8042H84.7311l-.9072,6.8042Z" style="fill:#f7bd00"/><polygon points="102.557 27.275 102.149 25.733 101.877 25.733 101.877 44.648 97.386 44.648 97.386 11.308 101.741 11.308 106.504 28.681 106.912 30.223 107.184 30.223 107.184 11.308 111.675 11.308 111.675 44.648 107.32 44.648 102.557 27.275" style="fill:#f7bd00"/><path d="M122.2433,22.149l-.1361-.8619h-.2722l-.1361.8619-1.4062,10.5237H123.65Zm-8.3011,22.4991,5.0351-33.34h5.9876L130,44.6481h-4.7629l-.9072-6.8042h-4.7176l-.9072,6.8042Z" style="fill:#f7bd00"/><path d="M4.12,50.1008a4.9437,4.9437,0,0,0-.164-1.4757c-.1435-.41-.3689-.6968-.7173-.6968-.5739.02-.7583.6148-.7583,1.4961a3.3978,3.3978,0,0,0,.5533,1.6191c.328.5739.7583,1.1682,1.1887,1.8036a23.1494,23.1494,0,0,1,1.4142,2.2954,5.1666,5.1666,0,0,1,.6558,2.3569,4.7357,4.7357,0,0,1-.6353,2.6438,2.7169,2.7169,0,0,1-2.4389,1.1477A2.7366,2.7366,0,0,1,.5534,59.9383,6.4294,6.4294,0,0,1,0,56.905L2.1725,56.7a5.6844,5.6844,0,0,0,.1844,1.7421c.1435.4918.3894.82.8608.82.6558,0,.9018-.6969.9018-1.66a3.7446,3.7446,0,0,0-.5739-1.66c-.1844-.2869-.3689-.5944-.5738-.9018-.43-.6148-.9018-1.3117-1.3937-2.07A8.59,8.59,0,0,1,.4919,50.6336a4.0233,4.0233,0,0,1-.1845-1.2092A4.2084,4.2084,0,0,1,.9633,47.047a2.6867,2.6867,0,0,1,2.2339-1.1477,2.5882,2.5882,0,0,1,2.5414,1.3322,5.8788,5.8788,0,0,1,.5533,2.6643Z" style="fill:#ca3024"/><polygon points="7.481 46.063 12.543 46.063 12.543 48.338 9.694 48.338 9.694 52.294 11.744 52.294 11.744 54.712 9.694 54.712 9.694 58.852 12.543 58.852 12.543 61.127 7.481 61.127 7.481 46.063" style="fill:#ca3024"/><path d="M17.3181,51.4739V49.158a1.3666,1.3666,0,0,0-.2869-.9428.6383.6383,0,0,0-.4509-.1639.6846.6846,0,0,0-.6558.5533,1.57,1.57,0,0,0-.082.5534v9.0587a1.3058,1.3058,0,0,0,.3074.9428.5871.5871,0,0,0,.43.1639.6474.6474,0,0,0,.6559-.5533,1.4346,1.4346,0,0,0,.0819-.5534V55.4909h-.8812v-1.865h3.0947V61.127H18.22l-.2664-.7173a2.2029,2.2029,0,0,1-1.7216.8812,2.2443,2.2443,0,0,1-1.5781-.5123,2.7373,2.7373,0,0,1-.7788-1.1067,4.124,4.124,0,0,1-.2459-1.64V49.158a4.0838,4.0838,0,0,1,.3689-1.6191,2.5985,2.5985,0,0,1,2.5823-1.64,2.755,2.755,0,0,1,1.7011.5124,2.8777,2.8777,0,0,1,.8813,1.1272,4.0855,4.0855,0,0,1,.3689,1.6191v2.3159Z" style="fill:#ca3024"/><path d="M27.0327,46.0633v11.969a4.1051,4.1051,0,0,1-.3689,1.64,2.8215,2.8215,0,0,1-.8813,1.1067,2.6309,2.6309,0,0,1-1.7011.5123,2.6922,2.6922,0,0,1-1.7215-.5123,2.7638,2.7638,0,0,1-.8608-1.1067,4.1034,4.1034,0,0,1-.3689-1.64V46.0633h2.2134v11.969a1.3053,1.3053,0,0,0,.3074.9427.5872.5872,0,0,0,.43.164.6475.6475,0,0,0,.6559-.5534,1.432,1.432,0,0,0,.082-.5533V46.0633Z" style="fill:#ca3024"/><rect x="28.6518" y="46.0633" width="2.2134" height="15.0637" style="fill:#ca3024"/><polygon points="36.173 61.127 34.759 51.658 34.677 51.023 34.554 51.023 34.554 61.127 32.505 61.127 32.505 46.063 35.21 46.063 36.522 52.95 36.624 53.749 36.665 53.749 36.768 52.95 38.079 46.063 40.785 46.063 40.785 61.127 38.735 61.127 38.735 51.023 38.612 51.023 38.53 51.658 37.116 61.127 36.173 61.127" style="fill:#ca3024"/><path d="M45.97,49.158a1.3671,1.3671,0,0,0-.2869-.9428.6383.6383,0,0,0-.4509-.1639.6846.6846,0,0,0-.6558.5533,1.57,1.57,0,0,0-.082.5534v8.8743a1.3053,1.3053,0,0,0,.3074.9427.5872.5872,0,0,0,.43.164.6473.6473,0,0,0,.6558-.5534,1.432,1.432,0,0,0,.082-.5533Zm2.2135,8.8743a4.1051,4.1051,0,0,1-.3689,1.64,2.8215,2.8215,0,0,1-.8813,1.1067,2.6311,2.6311,0,0,1-1.7011.5123,2.6925,2.6925,0,0,1-1.7216-.5123,2.7635,2.7635,0,0,1-.8607-1.1067,4.1017,4.1017,0,0,1-.3689-1.64V49.158a4.0821,4.0821,0,0,1,.3689-1.6191,2.5982,2.5982,0,0,1,2.5823-1.64,2.755,2.755,0,0,1,1.7011.5124,2.8777,2.8777,0,0,1,.8813,1.1272,4.0855,4.0855,0,0,1,.3689,1.6191Z" style="fill:#ca3024"/><path d="M53.3481,50.1008a4.9437,4.9437,0,0,0-.164-1.4757c-.1435-.41-.3689-.6968-.7173-.6968-.5739.02-.7583.6148-.7583,1.4961a3.3978,3.3978,0,0,0,.5533,1.6191c.328.5739.7583,1.1682,1.1887,1.8036a23.1494,23.1494,0,0,1,1.4142,2.2954,5.1666,5.1666,0,0,1,.6558,2.3569,4.7357,4.7357,0,0,1-.6353,2.6438,3.2355,3.2355,0,0,1-5.1032-.2049,6.4294,6.4294,0,0,1-.5534-3.0333L51.401,56.7a5.6842,5.6842,0,0,0,.1845,1.7421c.1435.4918.3894.82.8608.82.6558,0,.9018-.6969.9018-1.66a3.7446,3.7446,0,0,0-.5739-1.66c-.1844-.2869-.3689-.5944-.5739-.9018-.43-.6148-.9017-1.3117-1.3936-2.07a8.59,8.59,0,0,1-1.0862-2.3364,4.0233,4.0233,0,0,1-.1845-1.2092,4.2084,4.2084,0,0,1,.6559-2.3774,2.6867,2.6867,0,0,1,2.2339-1.1477,2.5882,2.5882,0,0,1,2.5414,1.3322,5.8788,5.8788,0,0,1,.5533,2.6643Z" style="fill:#ca3024"/><path d="M65.0339,55.9622v2.07a4.1051,4.1051,0,0,1-.3689,1.64,2.82,2.82,0,0,1-.8813,1.1067,2.6311,2.6311,0,0,1-1.7011.5124,2.6922,2.6922,0,0,1-1.7215-.5124A2.7624,2.7624,0,0,1,59.5,59.6718a4.1034,4.1034,0,0,1-.3689-1.64V49.1579A4.0842,4.0842,0,0,1,59.5,47.5388a2.5985,2.5985,0,0,1,2.5823-1.64,2.755,2.755,0,0,1,1.7011.5124,2.8777,2.8777,0,0,1,.8813,1.1272,4.0859,4.0859,0,0,1,.3689,1.6191v2.07h-2.07v-2.07a1.2906,1.2906,0,0,0-.3279-.9427.7454.7454,0,0,0-1.1887.3894,2.2137,2.2137,0,0,0-.1025.5533v8.8743a1.4136,1.4136,0,0,0,.3484.9427.5872.5872,0,0,0,.43.164.7137.7137,0,0,0,.7583-.5534,1.432,1.432,0,0,0,.082-.5533v-2.07Z" style="fill:#ca3024"/><path d="M69.9117,49.1579a1.3662,1.3662,0,0,0-.287-.9427.6377.6377,0,0,0-.4509-.164.6846.6846,0,0,0-.6558.5534,1.57,1.57,0,0,0-.082.5533v8.8743a1.3049,1.3049,0,0,0,.3075.9427.5868.5868,0,0,0,.43.164.6474.6474,0,0,0,.6559-.5534,1.432,1.432,0,0,0,.082-.5533Zm2.2134,8.8743a4.1051,4.1051,0,0,1-.3689,1.64,2.82,2.82,0,0,1-.8813,1.1067,2.6309,2.6309,0,0,1-1.7011.5124,2.6922,2.6922,0,0,1-1.7215-.5124,2.7624,2.7624,0,0,1-.8608-1.1067,4.1051,4.1051,0,0,1-.3689-1.64V49.1579a4.0859,4.0859,0,0,1,.3689-1.6191,2.5985,2.5985,0,0,1,2.5823-1.64,2.7548,2.7548,0,0,1,1.7011.5124,2.8777,2.8777,0,0,1,.8813,1.1272,4.0859,4.0859,0,0,1,.3689,1.6191Z" style="fill:#ca3024"/><polygon points="75.958 53.277 75.773 52.581 75.65 52.581 75.65 61.127 73.621 61.127 73.621 46.063 75.589 46.063 77.741 53.913 77.925 54.61 78.048 54.61 78.048 46.063 80.077 46.063 80.077 61.127 78.11 61.127 75.958 53.277" style="fill:#ca3024"/><polygon points="81.717 46.063 86.779 46.063 86.779 48.338 83.93 48.338 83.93 52.294 85.98 52.294 85.98 54.712 83.93 54.712 83.93 58.852 86.779 58.852 86.779 61.127 81.717 61.127 81.717 46.063" style="fill:#ca3024"/><path d="M93.7677,55.9622v2.07a4.1034,4.1034,0,0,1-.369,1.64,2.8189,2.8189,0,0,1-.8812,1.1067,2.6311,2.6311,0,0,1-1.7011.5124,2.6925,2.6925,0,0,1-1.7216-.5124,2.7633,2.7633,0,0,1-.8608-1.1067,4.1051,4.1051,0,0,1-.3689-1.64V49.1579a4.0859,4.0859,0,0,1,.3689-1.6191,2.5985,2.5985,0,0,1,2.5824-1.64,2.755,2.755,0,0,1,1.7011.5124,2.8765,2.8765,0,0,1,.8812,1.1272,4.0843,4.0843,0,0,1,.369,1.6191v2.07h-2.07v-2.07a1.2906,1.2906,0,0,0-.3279-.9427.7454.7454,0,0,0-1.1887.3894,2.2137,2.2137,0,0,0-.1025.5533v8.8743a1.4131,1.4131,0,0,0,.3484.9427.587.587,0,0,0,.43.164.7138.7138,0,0,0,.7583-.5534,1.432,1.432,0,0,0,.082-.5533v-2.07Z" style="fill:#ca3024"/><polygon points="94.321 48.338 94.321 46.063 100.715 46.063 100.715 48.338 98.625 48.338 98.625 61.127 96.411 61.127 96.411 48.338 94.321 48.338" style="fill:#ca3024"/><path d="M104.7119,50.9615l-.0615-.3894h-.123l-.0614.3894-.6354,4.7548h1.5166Zm-3.7506,10.1654,2.275-15.0637h2.7053l2.2749,15.0637h-2.1519l-.41-3.0742h-2.1315l-.41,3.0742Z" style="fill:#ca3024"/><path d="M111.4547,58.9135c.7583,0,1.1887-.082,1.4141-.82a6.5916,6.5916,0,0,0,.205-1.5986c.02-.7174.02-1.6806.02-2.91s0-2.1929-.02-2.91a6.91,6.91,0,0,0-.205-1.5986c-.2254-.7173-.6558-.7993-1.4141-.7993Zm-2.2134,2.2134V46.0632h1.742c2.0495,0,3.1562.41,3.7506,1.5576.5738,1.1477.6558,3.0332.6558,5.9845s-.082,4.8163-.6558,5.964c-.5944,1.1477-1.7011,1.5576-3.7506,1.5576Z" style="fill:#ca3024"/><path d="M120.4109,49.1579a1.3662,1.3662,0,0,0-.2869-.9427.6379.6379,0,0,0-.4509-.164.6846.6846,0,0,0-.6558.5534,1.57,1.57,0,0,0-.082.5533v8.8743a1.3053,1.3053,0,0,0,.3074.9427.5872.5872,0,0,0,.43.164.6474.6474,0,0,0,.6559-.5534,1.434,1.434,0,0,0,.0819-.5533Zm2.2135,8.8743a4.1051,4.1051,0,0,1-.3689,1.64,2.82,2.82,0,0,1-.8813,1.1067,2.6311,2.6311,0,0,1-1.7011.5124,2.6922,2.6922,0,0,1-1.7215-.5124,2.7624,2.7624,0,0,1-.8608-1.1067,4.1034,4.1034,0,0,1-.3689-1.64V49.1579a4.0842,4.0842,0,0,1,.3689-1.6191,2.5985,2.5985,0,0,1,2.5823-1.64,2.755,2.755,0,0,1,1.7011.5124,2.8777,2.8777,0,0,1,.8813,1.1272,4.0859,4.0859,0,0,1,.3689,1.6191Z" style="fill:#ca3024"/><path d="M127.7891,50.1007a4.9437,4.9437,0,0,0-.164-1.4757c-.1434-.41-.3689-.6968-.7173-.6968-.5738.0205-.7583.6149-.7583,1.4961a3.3969,3.3969,0,0,0,.5534,1.6191c.3279.5739.7583,1.1682,1.1887,1.8036a23.1669,23.1669,0,0,1,1.4141,2.2954,5.1666,5.1666,0,0,1,.6558,2.3569,4.736,4.736,0,0,1-.6353,2.6439,3.2354,3.2354,0,0,1-5.1032-.205,6.4292,6.4292,0,0,1-.5534-3.0332l2.1725-.205a5.6872,5.6872,0,0,0,.1844,1.7421c.1435.4919.3894.82.8608.82.6558,0,.9018-.6968.9018-1.66a3.745,3.745,0,0,0-.5739-1.66c-.1844-.2869-.3689-.5943-.5738-.9018-.43-.6148-.9018-1.3116-1.3937-2.07a8.5951,8.5951,0,0,1-1.0862-2.3365,4.0233,4.0233,0,0,1-.1845-1.2092,4.2086,4.2086,0,0,1,.6559-2.3774,2.6868,2.6868,0,0,1,2.2339-1.1477,2.5882,2.5882,0,0,1,2.5414,1.3322,5.8775,5.8775,0,0,1,.5533,2.6643Z" style="fill:#ca3024"/><path d="M67.0154,19.339a4.6452,4.6452,0,0,0-2.7435-2.4834,16.3556,16.3556,0,0,0-7.3589-.4283,16.5829,16.5829,0,0,1-4.951-.0008c-1.3424-.2131-3.6572-.2145-4.8376.6118a9.0193,9.0193,0,0,0-3.6357,3.9252c-.0608.1686-.25.663-.3547,1.0311A7.3337,7.3337,0,0,0,44.46,27.747a5.76,5.76,0,0,0,1.0556,1.0051,14.44,14.44,0,0,0,5.1362,2.0161c-.295.4917-.5515.9191-.8081,1.3466-.188.2477-.02.46.072.6761a5.082,5.082,0,0,0,5.7749,2.77c.953-.2228,1.0423-.3161,1.0409-1.319,0-.2427-.0041-.485-.02-.73a9.17,9.17,0,0,1,.723,2.8959c.0249.2188-.0253.4525.1391.6407a.2291.2291,0,0,0,.1269-.0208c-.0257.0621-.0434.1259-.0745.1867a6.1489,6.1489,0,0,1-1.3432,2.1913c.177-.8794.3438-1.7529.4446-2.6368a4.274,4.274,0,0,0-.018-.5589c-.0359-.25-.1169-.3415-.41-.2348a5.6351,5.6351,0,0,1-6.25-1.7711c-.2375-.2921-.3445-.7254-.7819-.8355a8.1278,8.1278,0,0,0-.6093,1.4185.2935.2935,0,0,1,.0434.1024A5.37,5.37,0,0,0,53.4786,39.44a8.2271,8.2271,0,0,0,1.9438-.0832c.1394-.0175.3835-.1434.2854.1984a2.3069,2.3069,0,0,1-.1445.2886c-.3973.5105-1.0094.41-1.4965.38A6.2278,6.2278,0,0,1,48.5886,36.9c-.1019-.1885-.1523-.4362-.4282-.4723a16.5213,16.5213,0,0,0-.68,5.0285.2061.2061,0,0,0,.1988-.1113c.051-.0344.0394-.2962.1675-.0436a4.8327,4.8327,0,0,0,1.1185,1.5858,5.0528,5.0528,0,0,0,5.0745.9683c.1529-.0478.3126-.2459.5-.0509a1.0612,1.0612,0,0,1-.13.4142c-.1112.2379-.3547.2625-.5617.3154a5.4538,5.4538,0,0,1-5.8569-1.7727c-.1412-.161-.2359-.3962-.5075-.3956a18.0717,18.0717,0,0,0,.5109,4.0478c.0915.1631.1581.1379.2152.2275a3.07,3.07,0,0,0,3.84,1.373.4771.4771,0,0,1,.3742-.0516A14.8686,14.8686,0,0,0,54.75,44.4217c.163-.32.2685-.32.5045-.086a8.5749,8.5749,0,0,0,1.9312,1.5153c1.2714.69,1.7568.5082,2.1851-.8579a21.3085,21.3085,0,0,0,1.1561-7.9194c-.1453-2.057-.3468-4.0995-1.67-5.8223a.6925.6925,0,0,1-.19-.5247c.6124-.0486,1.2226-.1017,1.8334-.1448A7.7827,7.7827,0,0,0,67.0154,19.339ZM54.8963,31.2a4.2716,4.2716,0,0,1-1.3457-.0011,3.0207,3.0207,0,0,1-1.8846-.788,2.0051,2.0051,0,0,1-.52-2.5885,2.115,2.115,0,0,1,2.6224-.6932c.5911.27-.0368.5353-.0123.8044.0607.1581-.05.3673.145.4852a.2506.2506,0,0,0,.238-.2456c.4152-1.1281,1.2691-1.12,2.1358-1.011.5994.0751,1.03.962,1.0119,1.8148A2.3749,2.3749,0,0,1,54.8963,31.2ZM57.8,36.7793l.0028-.0368a7.2786,7.2786,0,0,0-.0277-2.0635,7.4853,7.4853,0,0,0-1.2037-2.8713c-.11-.1582-.3007-.377-.0557-.5316.2282-.1441.3059.1327.3978.2739a6.3608,6.3608,0,0,1,1.0745,3.8176A5.6507,5.6507,0,0,1,57.8,36.7793Zm2.1352-11.2109a7.33,7.33,0,0,1-1.6831,1.1569.8245.8245,0,0,1-1.02.008,2.829,2.829,0,0,0-2.5058-.4076.9891.9891,0,0,1-.7039-.0919,2.8293,2.8293,0,0,0-2.0278-.1088,1.3771,1.3771,0,0,1-1.3757-.076c-.626-.2352-1.4326-.5453-1.5527-1.3771-.0844-.5835.6131-1.34.8085-1.48a3.0773,3.0773,0,0,1,.4808-.3222,1.9985,1.9985,0,0,1,.7717-.2341,11.4686,11.4686,0,0,1,1.9755.1916,17.5307,17.5307,0,0,0,3.0709-.1331,7.8516,7.8516,0,0,1,2.32.0555,2.9969,2.9969,0,0,1,1.5527,1.0259A1.4767,1.4767,0,0,1,59.9348,25.5684Z" style="fill:#100302"/><path d="M49.8439,32.1148A4.7538,4.7538,0,0,0,53.6016,35.47a5.9466,5.9466,0,0,0,2.5992-.2006.4766.4766,0,0,0,.4066-.5536c-.0085-.5551-.0383-1.1075-.0733-1.67a7.0907,7.0907,0,0,1,1.0661,3.94c.05.0963.1886.1588.1154.3022a5.75,5.75,0,0,1-1.6271,2.5148l.5057-2.9966a1.446,1.446,0,0,0-.0782-1.0391c-.29-.1113-.5481.05-.8174.0972a5.3606,5.3606,0,0,1-5.9059-2.6163,1.2286,1.2286,0,0,1-.1632-.7816A2.5668,2.5668,0,0,1,49.8439,32.1148Z" style="fill:#ca0900"/><path d="M52.1481,48.277c-.5016.5234-1.1166,1.208-1.6383,1.71-.61.5874-1.0652.5019-1.4184-.2826a14.0149,14.0149,0,0,1-.8429-2.3608c.1707-.0795.287.0321.3976.126a3.78,3.78,0,0,0,2.8707.8353C51.6922,48.2918,52.0232,48.0575,52.1481,48.277Z" style="fill:#100302"/><path d="M48.6652,34.7677c.0527.1386.2713.5444.5453,1.1676a5.3591,5.3591,0,0,0,6.2327,3.2679c.1785-.0375.36-.0625.5484-.0949a.7972.7972,0,0,1-.1571.4763,5.7454,5.7454,0,0,1-5.6316-1.2564A4.7942,4.7942,0,0,1,48.465,35.276C48.5235,35.0943,48.5882,34.9526,48.6652,34.7677Z" style="fill:#c80b01"/><path d="M55.67,39.8616a.4571.4571,0,0,1-.4382.4216,6.4714,6.4714,0,0,1-6.83-3.4177c-.0756-.1485-.1612-.2919-.242-.4379.04-.2427.0674-.3906.1282-.6466.3584.1233.3768.488.5048.7568a5.7123,5.7123,0,0,0,4.0711,3.2047,8.2474,8.2474,0,0,0,2.2768.0583C55.3173,39.7936,55.5122,39.6906,55.67,39.8616Z" style="fill:#ca0b00"/><path d="M55.67,39.8616a6.1348,6.1348,0,0,1-6.61-2.54,11.9405,11.9405,0,0,1-.7724-1.54,2.8383,2.8383,0,0,1,.1765-.5175,9.2157,9.2157,0,0,0,1.1626,2.2932,5.8357,5.8357,0,0,0,5.7283,2.03c.159-.0252.3185-.1378.4785-.0018Z" style="fill:#fac80e"/><path d="M56.6743,35.5521a2.8712,2.8712,0,0,1-.08,1.2541v-.7684a5.2966,5.2966,0,0,1-3.4686.2489,5.686,5.686,0,0,1-3.6835-2.703,1.8241,1.8241,0,0,0-.1742-.2156,3.0861,3.0861,0,0,1,.1315-.4323c.3158.0776.3991.3685.5419.6A5.4381,5.4381,0,0,0,56.6743,35.5521Z" style="fill:#c80a00"/><path d="M56.6743,35.5521c-.4318.56-1.0954.522-1.6765.56a5.3769,5.3769,0,0,1-5.3572-2.8054c-.0745-.1271-.1607-.2474-.2413-.3712a1.993,1.993,0,0,0,.2241-.4635A5.1332,5.1332,0,0,0,56.0449,35.64C56.2459,35.5871,56.4426,35.4141,56.6743,35.5521Z" style="fill:#f9c60e"/><path d="M47.4622,41.4561c.0095-.0969.0139-.2126.0139-.3235.2658.0028.4446.3851.5359.556a4.89,4.89,0,0,0,5.8729,2.2224c.25-.091.5031-.2715.799-.1344a.4946.4946,0,0,1-.1212.4015,3.4471,3.4471,0,0,1-2.1011.5852,5.3513,5.3513,0,0,1-5.0345-2.9672C47.4449,41.6827,47.4444,41.57,47.4622,41.4561Z" style="fill:#f9c70e"/><path d="M47.4271,41.7961a1.1545,1.1545,0,0,1,.2569.2377,5.3047,5.3047,0,0,0,6.398,2.2856c.1592-.05.32-.094.4806-.1411.05.3539-.2352.3748-.4549.4455A5.6294,5.6294,0,0,1,47.669,42.57c-.055-.0731-.1234-.1362-.1855-.2042C47.4668,42.1493,47.4483,42.0292,47.4271,41.7961Z" style="fill:#c90b01"/><path d="M52.1157,48.3232a3.7772,3.7772,0,0,1-3.6317-.8285,1.1964,1.1964,0,0,0-.2308-.1367,6.2314,6.2314,0,0,1-.259-.945c.1011.0525.2.1984.3137.2928a7.3891,7.3891,0,0,1,.6394.5989,2.3408,2.3408,0,0,0,1.3.7379,4.68,4.68,0,0,0,1.944-.2016,1.088,1.088,0,0,1,.3769-.0538A3.0871,3.0871,0,0,1,52.1157,48.3232Z" style="fill:#f0b80f"/><path d="M44.4692,27.4939a3.72,3.72,0,0,0,3.8749.1168,2.75,2.75,0,0,0,1.5881-1.6564,2.38,2.38,0,0,0,.2865.1363,1.4174,1.4174,0,0,1-.5611,1.0429,4.2118,4.2118,0,0,1-4.5618,1.0471c-.1981-.066-.2136-.18-.3832-.2923A2.4287,2.4287,0,0,1,44.4692,27.4939Z" style="fill:#c90c01"/><path d="M50.6046,26.2085a1.1126,1.1126,0,0,1-.2588.5615,4.43,4.43,0,0,1-4.0343,1.9593,4.2609,4.2609,0,0,1-.841-.1386,5.57,5.57,0,0,1-.4961-.37,1.5232,1.5232,0,0,1,.37.0431,2.9788,2.9788,0,0,0,1.0815.1465,4.272,4.272,0,0,0,3.8791-2.1854.54.54,0,0,1,.0873-.0745S50.5445,26.1946,50.6046,26.2085Z" style="fill:#c90e02"/><path d="M48.864,24.8429c.0323.0924.1047.2611.1047.2611s-.61.0534-.7519.0645a4.8151,4.8151,0,0,1-4.1386-1.6224,3.7256,3.7256,0,0,1-.8305-1.3327,3.9778,3.9778,0,0,1,.1247-.4621c.2514.17.1973.2277.3.4793a4.42,4.42,0,0,0,3.8131,2.5827C47.8881,24.818,48.37,24.8706,48.864,24.8429Z" style="fill:#c80c01"/><path d="M50.4336,26.1669a2.5413,2.5413,0,0,1-.3407.5861,4.4,4.4,0,0,1-4.4781,1.6678c-.3062-.08-.3345-.1066-.6373-.2a3.1,3.1,0,0,1-.2742-.342,4.7209,4.7209,0,0,0,1.4021.4,4.12,4.12,0,0,0,3.8657-1.7679,1.3681,1.3681,0,0,0,.243-.4256A1.4811,1.4811,0,0,0,50.4336,26.1669Z" style="fill:#f7c60e"/><path d="M64.3615,17.8316a3.2537,3.2537,0,0,1,1.49,1.0456,2.8607,2.8607,0,0,1,.74,1.2721,1.5352,1.5352,0,0,1-.0746.6265c-.0011.0048-.0462.2314-.0725.3544a5.3755,5.3755,0,0,1-4.1368,4.5069,3.7784,3.7784,0,0,1-1.4689.1011,7.1163,7.1163,0,0,0,.7066-1.4269c.0454-.1608.2053-.2072.33-.2848a5.3051,5.3051,0,0,0,2.4929-5.72A.7431.7431,0,0,1,64.3615,17.8316Z" style="fill:#cb0a00"/><path d="M60.3076,26.582a1.3957,1.3957,0,0,0,1.0563.2028,6.2173,6.2173,0,0,0,5.469-3.6024c.0706-.1414.0847-.3217.2834-.4412a6.4893,6.4893,0,0,1-1.6247,4.7454,4.052,4.052,0,0,1-4.9188.74,3.6035,3.6035,0,0,0,.756-.9448c-.2634.1781-.4277.2826-.5851.3967a.8119.8119,0,0,1-1.3019-.3685c-.0815-.1785.02-.23.1158-.3167a4.6919,4.6919,0,0,0,.4789-.5775C60.182,26.2765,60.1659,26.4773,60.3076,26.582Z" style="fill:#cb0a00"/><path d="M60.3959,21.2205a4.3419,4.3419,0,0,0-.3715-4.1992,13.7565,13.7565,0,0,1,2.8683.3081.4971.4971,0,0,1,.4255.3082,4.5244,4.5244,0,0,1-1.642,5.4921,2.0838,2.0838,0,0,0-1.281-1.6871A.149.149,0,0,1,60.3959,21.2205Z" style="fill:#cb0a00"/><path d="M56.7042,22.08a4.9962,4.9962,0,0,0,.8963-1.97,3.8919,3.8919,0,0,0-.41-2.546c-.1869-.3427-.0478-.4155.235-.4463.4995-.0543,1-.0957,1.5007-.1419a.4393.4393,0,0,1,.38.1912,3.45,3.45,0,0,1-.4308,4.8651c-.1172.0916-.2191.191-.3961.1472A9.5422,9.5422,0,0,0,56.7042,22.08Z" style="fill:#cb0a00"/><path d="M57.0144,19.4077a3.4741,3.4741,0,0,1-1.1193,2.5048c-.4358.3982-.6879.323-.8758-.2275a24.2215,24.2215,0,0,1-.59-3.7983c-.0462-.2659.044-.4268.3577-.4166a4.9321,4.9321,0,0,0,.6108-.0646c1-.0945,1.0515-.0653,1.389.87a4.03,4.03,0,0,1,.1478.596C56.974,19.0727,56.9955,19.277,57.0144,19.4077Z" style="fill:#cb0a00"/><path d="M56.4273,40.9894a2.6361,2.6361,0,0,0,.7024-.5546,7.3387,7.3387,0,0,0,2.1759-6.27,2.0572,2.0572,0,0,1,.0124-.2524,4.2383,4.2383,0,0,1,.4065,2.1537c-.1132.8794-.2138,1.5083-.372,2.2381a5.0212,5.0212,0,0,1-3.5431,4.1588c-.3753.12-.5295.1013-.3739-.355a5.4592,5.4592,0,0,0,.2247-.7723A7.0429,7.0429,0,0,0,56.4273,40.9894Z" style="fill:#ca0900"/><path d="M56.3131,40.6869a3.46,3.46,0,0,1-.5974.321c.0192-.1244.0665-.432.1331-.4809a6.88,6.88,0,0,0,1.3456-9.6155c-.07-.1031-.1841-.1914-.1592-.3415.3487-.115.4994.1107.66.36a7.2215,7.2215,0,0,1-.1211,8.3811A6.9458,6.9458,0,0,1,56.3131,40.6869Z" style="fill:#f8c70d"/><path d="M57.1263,44.2086a1.3977,1.3977,0,0,1-1.5877-.7009,5.9768,5.9768,0,0,0,4.1348-2.8347c.2131.4354-.1649.7113-.1857,1.06a2.554,2.554,0,0,1-1.1768,2.1259A1.95,1.95,0,0,1,57.1263,44.2086Z" style="fill:#ca0900"/><path d="M62.2353,29.5361a12.1335,12.1335,0,0,1-4.385.4163c-.1341-.0047-.2828-.0092-.265-.199.02-.2164-.0018-.5148.24-.5767a11.6021,11.6021,0,0,0,1.9451-.499.1379.1379,0,0,1,.1056.028A6.3648,6.3648,0,0,0,62.2353,29.5361Z" style="fill:#c80900"/><path d="M57.7156,37.288,57.6,36.986a6.07,6.07,0,0,0-.5094-3.9577,5.31,5.31,0,0,0-.7942-1.3481c-.2877-.3355-.07-.4789.1569-.66.2922-.2328.35.064.443.2083A6.36,6.36,0,0,1,57.7156,37.288Z" style="fill:#c70900"/><path d="M60.4755,26.4029c-.3558-.1567-.1587-.3939-.06-.3593a2.6035,2.6035,0,0,0,1.0047.0479,5.628,5.628,0,0,0,5.2527-4.4288c.0512-.1937.097-.3889.1481-.5946a.9921.9921,0,0,1,.163.7284,6.2819,6.2819,0,0,1-5.2,4.6962A2.4355,2.4355,0,0,1,60.4755,26.4029Z" style="fill:#f8c70d"/><path d="M55.0449,43.0073c3.6928-1.11,4.8152-2.9689,4.9454-7.06a2.8968,2.8968,0,0,1,.2048.913,5.87,5.87,0,0,1-4.3761,6.288C55.5455,43.22,55.2726,43.3167,55.0449,43.0073Z" style="fill:#f7c60d"/><path d="M54.6839,43.7766a5.1984,5.1984,0,0,1-5.7631-.7061,7.2186,7.2186,0,0,1-1.4447-1.9332c0-.17,0-.379.0184-.6655a5.5031,5.5031,0,0,0,3.909,3.4618,5.1893,5.1893,0,0,0,3.0491-.3961c.0949-.04.206-.16.298-.0549C54.8259,43.569,54.766,43.6907,54.6839,43.7766Z" style="fill:#c90a00"/><path d="M63.5844,17.4828c.78.4512.8152,2.76.1325,4.1729-.657,1.36-2.1424,2.5574-2.88,2.2589a4.7928,4.7928,0,0,0,2.728-2.625A5.3933,5.3933,0,0,0,63.5844,17.4828Z" style="fill:#f2c40d"/><path d="M60.3959,21.2205l-.0007.2221c.0475.2778.2988.4162.4354.6338.1183.1883.3025.3571.31.583.0092.2964.1847.6654-.1533.8695-.3673.2217-.5175-.1713-.715-.3555a2.3425,2.3425,0,0,0-.907-.6519c.0985-.1047.2279-.2156.2279-.2156s.2146-.2907.4307-.5424A5.76,5.76,0,0,0,60.3959,21.2205Z" style="fill:#c90900"/><path d="M47.4846,17.0642a1.3623,1.3623,0,0,1,.33-.18,3.8554,3.8554,0,0,0,1.9422,4.7833c.3094.17.6249.3073.9877.4756.1165.054.382.2156.382.2156a2.3853,2.3853,0,0,0-.3243.09,2.7887,2.7887,0,0,1-1.8168-.7548,4.3741,4.3741,0,0,1-1.7521-3.9591A1.5009,1.5009,0,0,1,47.4846,17.0642Z" style="fill:#c80c00"/><path d="M47.4846,17.0642c-.3412,2.2739.3194,3.8178,2.0841,4.8043a6.9782,6.9782,0,0,0,1.0636.5021.95.95,0,0,1,.17.0777c-.0545.03-.1316.0547-.1962.0825a1.172,1.172,0,0,1-.2095.077,5.2453,5.2453,0,0,1-1.8485-1.0845,4.4321,4.4321,0,0,1-1.5-2.7162,2.71,2.71,0,0,1,.1167-1.5283A2.2187,2.2187,0,0,1,47.4846,17.0642Z" style="fill:#f7c60e"/><path d="M64.6786,28.4282c-.372.6461-2.0281.99-3.1793.7188-1.3413-.316-2.598-1.33-2.6725-2.245C60.3584,29.07,62.3012,29.48,64.6786,28.4282Z" style="fill:#eec30d"/><path d="M52.22,16.8682a.9017.9017,0,0,1,.33.04,3.4161,3.4161,0,0,0-.6888,1.7,3.7323,3.7323,0,0,0,1.6416,3.5276c.1934.1426.51.51.0146.4323a3.7988,3.7988,0,0,1-2.02-3.2616A2.9522,2.9522,0,0,1,52.22,16.8682Z" style="fill:#c70b00"/><path d="M52.22,16.8682a4.1558,4.1558,0,0,0-.467,3.2661,4.0986,4.0986,0,0,0,1.3495,2c.1376.1187.3538.2387.4116.4361-.0955-.0092-.2-.0092-.2838-.0115a4.8666,4.8666,0,0,1-1.913-3.12,3.5788,3.5788,0,0,1,.2214-1.9113,1.8613,1.8613,0,0,1,.4058-.675A.4637.4637,0,0,1,52.22,16.8682Z" style="fill:#f5c30d"/><path d="M51.9679,16.839a4.4291,4.4291,0,0,0,1.2626,5.72,1.4093,1.4093,0,0,1-.3846-.0362,6.84,6.84,0,0,1-1.5881-2.5262,5.3986,5.3986,0,0,1,.2239-2.6334C51.612,16.9037,51.7066,16.8362,51.9679,16.839Z" style="fill:#c70c01"/><path d="M59.2338,22.3437l-.1554.0335c-.0971-.0319-.168-.0493-.0578-.1747,1.634-1.8564,1.7426-3.0045.4966-5.1274-.0141-.0241-.0017-.0638-.0009-.0962.3076-.0151.4647.2529.7882,1.0662a3.7072,3.7072,0,0,1,.2126,2.0426A4.7843,4.7843,0,0,1,59.2338,22.3437Z" style="fill:#ebc00d"/><path d="M56.33,16.9454c.659.2824,1.2073,1.68,1.1208,2.7182-.1041,1.2494-.84,2.4936-1.6776,2.6927C57.5439,20.6931,57.6318,18.898,56.33,16.9454Z" style="fill:#e5bc0d"/><path d="M59.1492,43.793c-.1618.43-.3384.8558-.4807,1.2925-.1082.332-.2855.3825-.5808.2377-.3143-.1543-.6393-.2867-.96-.4287a.2634.2634,0,0,1,.2289-.3248,3.5721,3.5721,0,0,0,1.4564-.7807C58.9073,43.71,59.04,43.6413,59.1492,43.793Z" style="fill:#c70900"/><path d="M58.56,28.6217c-.3089-.0637-.7255.0465-.7908-.2219-.0929-.3826.31-.5378.6158-.6791.2446-.113.9841.3606.98.6243-.0018.1242-.1041.14-.1911.1586C58.9566,28.55,58.7376,28.5879,58.56,28.6217Z" style="fill:#c40900"/><path d="M56.47,44.58c-.065-.0589-.2929-.16-.0173-.1782a7.218,7.218,0,0,0,.9053-.0978,3.3365,3.3365,0,0,0,1.92-1.6414c.0995-.2323.0824-.5185.3033-.6973.0638-.0985-.0262-.2718.2224-.3406a3.3984,3.3984,0,0,1-.7541,1.9218A2.5768,2.5768,0,0,1,56.47,44.58Z" style="fill:#e5b70c"/><path d="M59.581,41.9653a2.8384,2.8384,0,0,1-2.2231,2.3387l-.2316-.0954a3.0442,3.0442,0,0,0,2.3614-2.4756Z" style="fill:#1e0c01"/><path d="M56.47,44.58a3.3411,3.3411,0,0,0,2.5794-1.0335l.1.2463a12.7712,12.7712,0,0,1-2.0212,1.1017Z" style="fill:#240d01"/><path d="M47.1648,17.2788a4.6618,4.6618,0,0,0,1.64,4.41,9.1754,9.1754,0,0,0,1.6532.9093,3.2,3.2,0,0,0-.3666.1387,5.1177,5.1177,0,0,1-2.5343-2.083,4.921,4.921,0,0,1-.7066-2.61C46.8528,17.7676,46.7983,17.5368,47.1648,17.2788Z" style="fill:#c70c01"/><path d="M54.5068,30.1022c.1477-.0789.0982-.1937.0889-.3068a4.1121,4.1121,0,0,0-.0862-.83c-.0046.1387-.0485-.0092-.0416.201.0116.3505.0319.6851.0343,1.0357a1.5548,1.5548,0,0,1-.0585.2917,1.2331,1.2331,0,0,1,.1612.1336,1.0887,1.0887,0,0,1,.1846.25c.0346.0716.0542.1268.1481.1136.0222-.0031.0491.0278.0739.0431-.0232.0121-.0463.0348-.0695.0348q-1.0273.0009-2.0546-.003a.1.1,0,0,1-.0332-.0132l-.0083-.0384.1907-.0373c.0364-.2421.2408-.362.4291-.5193-.1384-.0837-.1149-.2107-.1095-.3375.0136-.3165.0357-.7674.0373-1.005.0006-.0851-.0393-.0046-.0485-.1456-.0347-.0462-.037.007-.04.0894-.0024.0637.0012.153-.0041.255-.0075.1475-.02.2949-.0341.442-.0119.1234-.0569.2512.0775.3472-.129.0319-.2008-.0582-.1869-.2012q.03-.3087.05-.6182c.0051-.0757.0175-.2257.0263-.2818.03-.1918.0947-.1248.0947-.1248a.3394.3394,0,0,1,.1415-.3064,1.0878,1.0878,0,0,1,.945.0069.1684.1684,0,0,1,.0665.0685.6349.6349,0,0,1,.0323.22s.0722-.0575.1179.1894a7.2261,7.2261,0,0,1,.0732.8461C54.7149,30.0528,54.6525,30.1327,54.5068,30.1022ZM53.4921,29.27c-.0184.3342-.038.6624-.0525.9909a.1643.1643,0,0,0,.0426.1.6054.6054,0,0,0,.888.0027.179.179,0,0,0,.0463-.11c-.0127-.3281-.0311-.6559-.0479-.9847h-.2949a.4644.4644,0,0,0,.116.4409.3028.3028,0,0,1,.0633.1082c.029.0745.0131.1245-.0805.1233-.1435-.0019-.2871,0-.4306-.003-.1555-.0034-.18-.0493-.1-.1813a.4542.4542,0,0,1,.065-.0934.4409.4409,0,0,0,.0855-.3934Zm-.3757,1.7138H54.747a1.7227,1.7227,0,0,0-.1238-.2181c-.0434-.0555-.1091-.0931-.157-.1457a.1884.1884,0,0,0-.2706-.04.482.482,0,0,1-.4868.0135.2535.2535,0,0,0-.3651.0668,1.2214,1.2214,0,0,0-.1161.1159A2.1075,2.1075,0,0,0,53.1164,30.9842Zm1.3186-2.0019c.0451-.268-.0046-.34-.2493-.4a1.0667,1.0667,0,0,0-.5116.0011c-.2419.0574-.2942.1324-.2515.3986A1.4279,1.4279,0,0,1,54.435,28.9823Zm-.2864.8748.0384-.0247c-.215-.149-.1954-.4367-.2043-.6433a.4649.4649,0,0,0-.067-.22.3368.3368,0,0,0-.0277.1456,1.6976,1.6976,0,0,0,.004.2461.4406.4406,0,0,1-.1241.3687.7243.7243,0,0,0-.08.1271Zm-.3374-.8488c.0011-.0154-.0208-.03-.0362-.029a1.061,1.061,0,0,0-.24.0615c-.0215.0069-.0508.04-.049.0576.0027.028.0276.0751.0459.0765a.4694.4694,0,0,0,.2169-.0138C53.7849,29.1448,53.8071,29.0644,53.8112,29.0083Zm.2681-.03c-.0573-.0177-.0375.0471-.0365.0632.0022.0353.0594.1237.0868.1287a.9259.9259,0,0,0,.2274-.01c-.0075-.04-.0042-.1065-.0246-.1148A1.8161,1.8161,0,0,0,54.0793,28.9781Z" style="fill:#000001"/><path d="M54.3287,30.1865a1.0743,1.0743,0,0,0-.7818-.0141C53.6935,29.9764,54.238,29.9856,54.3287,30.1865Z" style="fill:#000001"/><path d="M53.6662,30.2292a.4377.4377,0,0,1,.5208,0Z" style="fill:#000001"/><path d="M52.564,47.81c-2.32.6383-2.72.1486-3.53-.3338a2.5391,2.5391,0,0,1-1.0493-1.0618c0-.17-.0971-.3975-.1433-.7024.2369.6153.4276.6618.9471,1.1014a5.26,5.26,0,0,0,.8715.5769,2.6816,2.6816,0,0,0,1.2152.3192,5.83,5.83,0,0,0,1.5505-.2461c.0987-.0288.5869-.1941.5869-.1941S52.6461,47.7244,52.564,47.81Z" style="fill:#c90a00"/><path d="M51.8231,48.6282a3.5829,3.5829,0,0,1-2.0395-.0493,5.5165,5.5165,0,0,1-1.4295-.8071,3.5087,3.5087,0,0,1-.1479-.5484,4.0366,4.0366,0,0,0,1.1029.838,3.0357,3.0357,0,0,0,.9551.345,5.3246,5.3246,0,0,0,1.2754,0c.1427-.0188.5915-.1047.5915-.1047S51.9052,48.5423,51.8231,48.6282Z" style="fill:#c90a00"/><path d="M48.8436,24.5927s-.1534.1015-.2317.14a2.5946,2.5946,0,0,1-1.7041.0314,3.96,3.96,0,0,1-3.4661-3.19,3.4505,3.4505,0,0,1,.2172-.4737c.0324.0555.2254.53.2965.7087a4.9609,4.9609,0,0,0,.2687.5707,3.9544,3.9544,0,0,0,4.279,1.9932,1.7707,1.7707,0,0,0,.3986-.0886A2.216,2.216,0,0,0,48.8436,24.5927Z" style="fill:#c70b01"/><path d="M48.8647,24.8522a5.6455,5.6455,0,0,1-1.3825.1032,4.5128,4.5128,0,0,1-2.0744-.6226,4.1016,4.1016,0,0,1-2.0562-2.5237c.03-.064.12-.32.15-.3836a2.1925,2.1925,0,0,1,.1225.3212,3.9629,3.9629,0,0,0,.335.7209,4.9592,4.9592,0,0,0,.5215.7225,4.2356,4.2356,0,0,0,4.3628,1.4026A.6449.6449,0,0,0,48.8647,24.8522Z" style="fill:#f7c40e"/></svg>