<svg xmlns="http://www.w3.org/2000/svg" viewBox="0 0 43.1343 49.7309"><title>florLissvg</title><path d="M28.955,49.7309a.6289.6289,0,0,1,.3272-.96c.2181-.109.3708-.3708.5453-.5453a3.6066,3.6066,0,0,0,.458.349.42.42,0,0,1-.1745.4363c-.2617.1963-.48.4144-.72.6325-.0218.0218-.0218.0654-.0436.0873Z" style="fill:#390d3b"/><path d="M31.3543,28.7261a.4945.4945,0,0,0-.0218-.0872,5.8141,5.8141,0,0,0-.8507-.3926c-.3054-.0655-.458-.3054-.698-.4581a5.7749,5.7749,0,0,1-.6325-.6325c-.2836-.2618-.3708-.72-.807-.8943-.1527-.0655-.2618-.2836-.3927-.4581a.752.752,0,0,1-.1963-.0218c-.0436-.2617-.2617-.3053-.48-.3708-.1963-.0654-.3708-.1527-.6108-.24a2.4988,2.4988,0,0,1-.1308.3054c.3272.109.6761.1745.7634.4362a3.0359,3.0359,0,0,1,.0218.8943c-.0872.0654-.3272-.0873-.2836.1745a1.0823,1.0823,0,0,0-.2835.0654c-.24.1309-.0218.2836.0218.3926.1309.3054.3054.5671.4581.8507.0218.0436.0654.109.109.109.1091.0219.1309.1309.1963.1745.3054.2182.5453.5453.9815.6326a3.724,3.724,0,0,0,.9816.0654,6.4628,6.4628,0,0,0,.8943-.1745c.0436,0,.109,0,.1308.0218a.1374.1374,0,0,1,0,.1309c-.0654.24-.109.48-.1745.698a2.791,2.791,0,0,1-.3926,1.0469,3.0442,3.0442,0,0,1-.458.589,1.8034,1.8034,0,0,1-.2836.1526c-.0218.0219-.0654,0-.0872.0219-.1745.3053-.5235.3489-.7852.5234a3.2729,3.2729,0,0,1-.698.2182c-.3708.109-.72.1963-1.0906.2835a.1856.1856,0,0,0-.1091.0654c-.1527.2836-.5235.349-.6107.6762-.0218.0873-.1745.1091-.2617.1745-.2182.2181-.4363.4581-.6762.6544a3.9925,3.9925,0,0,1-.7416.3926c-.2181.1308-.4144.24-.6326.3926a2.1672,2.1672,0,0,0-.3271.3054v.0872a2.28,2.28,0,0,0,.3708.0872,2.6091,2.6091,0,0,1,.9161.1527.7876.7876,0,0,0,.807-.0872c.0654-.0655.24-.0218.3708-.0218.0436,0,.0872.0436.1527.0436a3.3722,3.3722,0,0,0,.458-.0873,3.6188,3.6188,0,0,0,.349-.1308c.0655-.0218.1309-.0218.1963-.0437.1309-.0436.24-.0872.3708-.1308.3054-.1091.6326-.1963.9379-.3054a3.575,3.575,0,0,0,.6326-.349l.5235-.3272a.4162.4162,0,0,1,.1744-.0654,3.733,3.733,0,0,0,.698,0c.1309-.0436.2836-.0654.48-.1309-.1309.2182-.1745.349-.3926.4581-.1963.0872-.2836.349-.4363.5235a11.1945,11.1945,0,0,0-.96,1.0687,7.6414,7.6414,0,0,0-.5235.9161.6813.6813,0,0,1-.1963.24c-.0436.0218-.1527-.0218-.24-.0218h-.24c-.0655,0-.1309.0218-.1527-.0219-.1745-.1963-.3926-.1526-.6107-.1745-.0655,0-.1309-.0436-.1745-.0436h-.1745c-.0655,0-.1309.0218-.1745.0218h-.2181a.6409.6409,0,0,0-.2182-.0654c-.3926,0-.7852-.0218-1.156,0a2.8154,2.8154,0,0,0-.8725.1091,2.1091,2.1091,0,0,1-1.0469-.0437A4.247,4.247,0,0,1,21.6262,36.6a.9794.9794,0,0,1-.2835-.24l.3271-.2617c.1091-.0873.2182-.1745.349-.2617.3054-.1964.6108-.3927.8943-.6108.24-.1963.4362-.4362.6762-.6543a6.4974,6.4974,0,0,0,.5889-.5017,4.39,4.39,0,0,0,.5017-.6107c.2181-.3054.4362-.6108.6543-.9379a.2626.2626,0,0,1,.1091-.1091c.109-.0654.109-.1309.0218-.24a6.6351,6.6351,0,0,1-.4144-.6544,4.38,4.38,0,0,1-.3054-.5453,9.1307,9.1307,0,0,1-.4362-1.0688c-.1091-.3489-.1963-.6979-.2836-1.0687a4.0283,4.0283,0,0,1-.0872-.5017,1.9065,1.9065,0,0,0-.1091-.48.2366.2366,0,0,0-.24-.109c-.5671.0218-1.1342.0436-1.7232.109a.2877.2877,0,0,0-.1963.2182,14.5233,14.5233,0,0,1-.1308,1.7013c-.0655.3926,0,.7852-.0873,1.1342a7.1555,7.1555,0,0,0-.0872,1.3523.08.08,0,0,1-.0218.0655c0,.0218-.0219.0218-.0655.0436a1.7636,1.7636,0,0,0-.0218-.349c-.0436-.2181-.109-.4144-.1527-.6107,0-.0655.0437-.1309.0437-.1745-.0437-.2618.0872-.5453-.0873-.8071-.0436-.0654,0-.1963-.0218-.3053-.0436-.72-.0654-1.4614-.1091-2.2248l-.9161-.0655c-.1745-.0218-.3489-.0654-.5453-.0872-.0872,0-.1526.0654-.24.0654-.0436,0-.1309,0-.1527-.0218-.1526-.1309-.24.0218-.2617.0873a3.105,3.105,0,0,0-.1091.48c-.0436.1745-.109.3708-.1526.5453,0,.0218-.0219.0218-.0219.0436.0655.3054-.1308.5453-.1963.8071a4.4224,4.4224,0,0,1-.3053.7416c-.0873.1963-.1745.4144-.2618.6107,0,.0218,0,.0436-.0218.0436a7.7544,7.7544,0,0,0-.5017.6762c-.109.1745-.2835.3708-.0872.6107.0436.0436.0218.1309.0218.1527.0873.1091.1309.1963.1963.2617.1527.1963.2181.4581.4581.5671.0436.0219.0654.0873.0872.1091.0873.1091.0655.3054.2618.3272.0436,0,.0872.109.109.1527a1.8716,1.8716,0,0,0,.5235.5671,1.58,1.58,0,0,1,.1745.1963c.3272.2617.6543.5235.9815.7634.2836.2181.5889.4362.8507.6762.0872.0654.109.2181.1527.2835a8.7535,8.7535,0,0,1-.7853.3926c-.0872.0436-.1963.0873-.2835.1309a2.8516,2.8516,0,0,1-1.2869.109,4.37,4.37,0,0,1-.5235-.0872c-.0436,0-.1091.0436-.1309.0218a2.2408,2.2408,0,0,0-.5234-.109c-.1745,0-.3708.0654-.5672.0872.0219-.2617-.1963-.24-.3053-.1745-.3272.1527-.6326.0436-.96.0873-.2618.0436-.5235.109-.7853.1744-.1526.0437-.3053.1309-.4362.0873a.7068.7068,0,0,1-.2835-.3272c-.1091-.1745-.1527-.4362-.3054-.5671-.349-.3054-.48-.7852-.8725-1.0906a3.1925,3.1925,0,0,1-.3708-.5235c-.0218-.0218-.0654-.0436-.0872-.0654-.1527-.1527-.2836-.2835-.4145-.4362a.2079.2079,0,0,1-.0436-.1527c.1309.0218.2181.0436.3272.0654.2181,0,.458-.0218.6762,0a1.9735,1.9735,0,0,1,.458.1745,7.5457,7.5457,0,0,1,.6762.48c.0654.0436.1308.109.2617.1963a1.4279,1.4279,0,0,1,.8507.349.08.08,0,0,0,.0654.0218c.24.0436.48.0654.72.109.0654,0,.1091.0437.1527.0437.1527.0436.3272.0872.48.1308a2.31,2.31,0,0,0,.4145.0873h.0436c.3054-.1091.6107.0654.9379,0,.3272-.0436.6543-.0655.9815-.1091.0655,0,.1091-.109.1745-.1745-.0436-.0436-.0872-.0654-.1309-.109-.1526-.1309-.3053-.24-.458-.3708-.3054-.2618-.6107-.5453-.9161-.8071-.24-.2181-.5017-.4362-.7634-.6543-.0873-.0655-.1963-.1091-.2836-.1745a1.25,1.25,0,0,1-.24-.24,1.0668,1.0668,0,0,1-.698-.4363c-.2617.1309-.5453-.24-.8506,0a1.5921,1.5921,0,0,0-.1963-.2181c-.0218.0654-.0437.1091-.0437.0872-.2181-.1308-.4144-.2181-.6107-.3489-.1527-.1091-.2835-.24-.4362-.349-.1963-.1527-.48-.24-.6107-.4363-.1964-.3271-.5672-.5234-.6326-.96a1.4143,1.4143,0,0,0-.24-.8288c-.1309-.1527.0654-.5671.24-.5453a1.8041,1.8041,0,0,1,.5889.1527,1.1433,1.1433,0,0,0,.96.0654c.0873-.0218.1964-.0218.2836-.0436.2181-.0437.4144-.0873.48-.349a.2947.2947,0,0,1,.1963-.1963c.4144-.1309.5234-.5453.807-.8289a.9492.9492,0,0,0,.1963-.3926.4171.4171,0,0,0-.1091-.5017,6.23,6.23,0,0,1-.5016-.5671c-.0436-.0436-.0436-.1526-.0436-.2181a2.6439,2.6439,0,0,1,.1526-.4362c.1963-.1527.4363-.349.6762-.5453-.1091-.0873-.1963-.1745-.3926-.0436-.1745.1308-.4362.109-.6326.2181-.1745.109-.4144.1527-.48.4144-.0218.0654-.0873.1091-.1309.1527-.1745.1745-.3708.3272-.5235.5017a7.7519,7.7519,0,0,1-.5016.6761,4.6054,4.6054,0,0,1-.5017.4145,2.2749,2.2749,0,0,0-.24.1744,2.0034,2.0034,0,0,1-.7635.4145.4382.4382,0,0,0-.1744.0872c-.2618.24-.6108.2181-.9161.349a2.9051,2.9051,0,0,1-.8725.1091,4.2932,4.2932,0,0,1-.5235-.0655c-.1963-.0436-.3926-.0654-.5671-.109a4.4194,4.4194,0,0,1-.7416-.3054c-.2181-.1309-.4362-.24-.6544-.349a.7648.7648,0,0,1-.1744-.109,5.1177,5.1177,0,0,1-.6762-.698,3.7564,3.7564,0,0,1-.48-.8071,6.433,6.433,0,0,1-.3708-.8942,3.4889,3.4889,0,0,1-.109-.4581c-.0437-.6543-.0873-1.3087-.0873-1.9849,0-.2617.0873-.5234.0873-.7852A7.7914,7.7914,0,0,0,5.5291,21.07a7.8026,7.8026,0,0,0-.1963-.9816c-.0872-.3489-.1745-.6979-.2835-1.0469a2.8176,2.8176,0,0,1-.1745-1.2,4.6237,4.6237,0,0,1,.109-.96,5.2533,5.2533,0,0,1,.5017-1.3087,8.66,8.66,0,0,1,.96-1.0688,1.4227,1.4227,0,0,1,.7416-.48,2.7827,2.7827,0,0,0,.5453-.3272c.0654-.0436.1527-.0218.2181-.0436.1091-.0437.2181-.0873.349-.1309.1309-.0218.2618-.0436.3708-.0654s.2181-.0655.3272-.0873.1745-.0872.3272-.0218c.109.0436.3053-.0654.458-.0872a2.35,2.35,0,0,1,.3926,0c.0218,0,.0655.0218.0873.0218.3272.0436.6543.0436.9815.109a4.5364,4.5364,0,0,1,.72.2181,6.2271,6.2271,0,0,1,.6762.2618c.2835.1309.5671.2617.8288.3926.1527.0873.3054.1745.4362.2617a1.6738,1.6738,0,0,1,.24.1745,2.1918,2.1918,0,0,0,.3271.1527c.0219-.0218.0219-.0436.0437-.0436-.0437-.1527-.0655-.2836-.1091-.4362-.0872-.2836-.2835-.5017-.2617-.8289,0-.0654-.0655-.1527-.0873-.2181-.109-.349-.1963-.698-.2835-1.0688-.0873-.349-.0873-.698-.1963-1.0251-.1091-.2836,0-.5671-.0873-.8289a4.5664,4.5664,0,0,1-.0654-1.44,3.1232,3.1232,0,0,1,.1527-.6107,2.6381,2.6381,0,0,1,.109-.3926c.1309-.3054.24-.6107.3926-.9161a3.49,3.49,0,0,1,.349-.5017,3.2593,3.2593,0,0,1,.3272-.4362c.1527-.1527.349-.2617.5017-.4144a1.31,1.31,0,0,1,.5453-.2836,4.3153,4.3153,0,0,1,.6761-.2617,3.391,3.391,0,0,1,.5017-.1091,3.95,3.95,0,0,1,.8725-.0872,3.3831,3.3831,0,0,1,1.3959.2617c.0655.0436.1527,0,.24.0218.24.0873.5234-.0872.72.1745.0219.0436.1527.0218.2182,0a.7237.7237,0,0,1,.48,0c.0873.0218.1963-.0436.3054-.0436h.0872c.0873.0218.1963.0872.2618.0654.1308-.0654.24,0,.349,0a3.5029,3.5029,0,0,0,.6761,0,.6074.6074,0,0,0,.2836-.1527c.1963.1527.4362.0873.6761.0437.3272-.0437.589-.3054.96-.2836a4.0695,4.0695,0,0,0,.6979-.0872,2.02,2.02,0,0,1,.938.2617.371.371,0,0,0,.1526.0218.59.59,0,0,1,.4145.1309,1.54,1.54,0,0,0,.5453.24c.0218.0218.0654,0,.0872.0218a6.94,6.94,0,0,1,.7416.6544,5.3633,5.3633,0,0,1,.8507,1.2651A3.5294,3.5294,0,0,1,29.26,8.6375a14.2857,14.2857,0,0,1,.0655,2.1593,2.5587,2.5587,0,0,1-.1963,1.0906,8.0743,8.0743,0,0,0-.349,1.2433,8.9866,8.9866,0,0,0-.2836,1.0251,5.1079,5.1079,0,0,1-.1963.5235c-.0436.0873-.0654.1745-.109.2836.0218.0218.0436.0218.0654.0436.0654-.0218.1309-.0218.1527-.0654.2181-.2618.5453-.3272.8288-.5017a4.1736,4.1736,0,0,1,.698-.349,6.94,6.94,0,0,1,.72-.2181l.9161-.2617c.0218,0,.0654-.0219.0872,0,.1963.1744.349.0872.5017-.0873.0436-.0436.1745-.0218.2836,0,.1744.0218.3489.0654.5234.0873.3272.0436.6326.0436.96.109a10.0139,10.0139,0,0,1,1.09.2836c.2618.0872.48.24.7416.349a.8318.8318,0,0,1,.2182.0654c.0654.0436.1308.109.1963.1527a3.6152,3.6152,0,0,1,.96.7634c.3272.4362.6107.8943.8943,1.3523a1.1564,1.1564,0,0,1,.109.4144c.0436.2182.0655.4363.1091.6762a2.5531,2.5531,0,0,1,.0872.698,3.7626,3.7626,0,0,1-.2617,1.2869,7.6329,7.6329,0,0,0-.3054,1.0033,7.0361,7.0361,0,0,0-.1963,1.1124,12.8585,12.8585,0,0,0-.0654,1.8322.4167.4167,0,0,0,.0654.1745v.3708a.9836.9836,0,0,1-.0654.24c-.0436.3054-.0436.6326-.1091.9379a2.6183,2.6183,0,0,1-.2835.6762c-.0873.1963-.1745.4144-.2836.6107a2.9978,2.9978,0,0,1-.2835.4363,7.3265,7.3265,0,0,1-.5235.6325,4.4261,4.4261,0,0,1-.5017.3926.7263.7263,0,0,1-.2181.1309c-.1091.0436-.1963.109-.3054.1527s-.2617.0436-.3271.109c-.1964.1963-.4581.1963-.698.2836a8.2,8.2,0,0,1-1.7886.0872c-.0436,0-.109-.0654-.1745-.0872Q31.7142,28.7916,31.3543,28.7261Zm-7.5251-3.6644v-.6761a.4609.4609,0,0,1,.1309-.3708c.0436-.0437.0218-.1745.0218-.2836,0-.0218-.0218-.0654-.0218-.0872a.9207.9207,0,0,0,.1527-.7853V22.75c.0654-.1745.1308-.3272.1963-.5017.0872-.2835.1745-.5453.2617-.8288a2.259,2.259,0,0,0,.0873-.3054c.0654-.1745.109-.349.1745-.5235a4.3578,4.3578,0,0,1,.2181-.5671c.1308-.2835.0872-.6325.349-.8506a.56.56,0,0,0,.109-.2618c.1091-.3272.1963-.6762.2836-1.0033.0872-.3054.1963-.5889.2835-.8943.0437-.1527.0655-.3054.1091-.4581.0654-.2181.109-.4144.1745-.6325.0218-.0436,0-.1091.0218-.1309.2835-.1963.24-.5453.24-.7852a8.22,8.22,0,0,0-.0654-2.312c-.0873-.3054-.1309-.6326-.1963-.96-.0218-.109-.0436-.2617-.1309-.3271a.8116.8116,0,0,1-.2617-.6544.7374.7374,0,0,1-.1745-.0654,5.1107,5.1107,0,0,0-.5671-.9379,5.8527,5.8527,0,0,0-.8725-1.047c-.0436-.0436-.1309-.0654-.1745-.1309a2.6124,2.6124,0,0,0-.5235-.5671,5.0367,5.0367,0,0,1-1.156-.8724.4548.4548,0,0,0-.1309-.0873,1.4006,1.4006,0,0,1-.2835-.2181c-.24-.349-.4363-.72-.6544-1.0906a.8272.8272,0,0,0-.109.1309c-.2182.3271-.4145.6761-.6544.9815A2.443,2.443,0,0,1,20.23,7.22a2.78,2.78,0,0,1-.4145.2836c-.1744.1308-.3489.24-.5234.3708-.1527.1308-.3272.2617-.48.3708a2.2108,2.2108,0,0,0-.2836.1963c-.3271.3489-.6543.6979-.9815,1.0687a2.0758,2.0758,0,0,0-.3272.4363,5.6474,5.6474,0,0,0-.4144.807c-.1527.3708-.3053.7416-.4362,1.1124a4.8042,4.8042,0,0,0-.1091.5453,3.4216,3.4216,0,0,0-.1745.6325,7.0021,7.0021,0,0,0,.1745,2.3339,8.1346,8.1346,0,0,1,.1963,1.0033c.0218.1091.0655.1964.0873.2836a4.3579,4.3579,0,0,0,.109.5671c.1091.3272.24.6544.3708.9815.1091.2836.1745.6108.3054.8943a5.6357,5.6357,0,0,1,.1745.5671c.0654.1745.1309.3272.1963.5017.0436.1309.0654.2836.1091.4144l.2617.7852c.0654.1745.1091.349.1745.5017.0654.24.1527.4581.1963.698a3.7186,3.7186,0,0,1,.0873.48l.1963,1.2432c.0218.2181.0436.4581.0872.72h1.9849c.0872-1.156-.0436-2.2248.109-3.3154.1091-.8288-.0436-1.6577.0873-2.4865a5.719,5.719,0,0,0,0-1.6141c-.0655-.5017.1527-.9815.1309-1.4832,0-.3054.0436-.6325.0654-.96,0-.1527-.0218-.3054-.0218-.4581.0654-1.0905.0654-2.1593.109-3.25v-.0873c0-.0436.0218-.0654.0437-.109h.0436v1.854a1.6173,1.6173,0,0,1,.0218.458c-.0436.1309.0654.2836.0654.4145.0655.8506-.0218,1.7013.0873,2.5519.1308,1.0034-.0655,2.05.109,3.0755a3.496,3.496,0,0,1,0,.6762v4.4059a.3694.3694,0,0,0,.2836.3926C22.63,25.0835,23.2185,25.0617,23.8292,25.0617Zm2.53-6.4781-.0218-.0218a.7713.7713,0,0,1-.0655.24c-.109.1963-.24.3926-.349.5889-.1526.3053-.3053.6325-.458.96-.1309.3054-.2836.5889-.3926.8943a7.7644,7.7644,0,0,0-.2181.7634c-.0873.3272-.1745.6543-.2618,1.0033-.0218.0436,0,.1091-.0218.1309a1.9464,1.9464,0,0,0-.2835,1.156.83.83,0,0,1-.0655.2181c-.0654.1527,0,.5017.1309.5453a4.8042,4.8042,0,0,0,.5453.1091c.3054.0436.6107.0654.9379.0872H25.88c.1963.0437.3926.0873.5671.1091.0655-.1963-.0872-.4362.1527-.4362a5.1815,5.1815,0,0,1,.2618-.698,3.4737,3.4737,0,0,1,.2835-.48,2.9514,2.9514,0,0,1,.6762-.96,5.9825,5.9825,0,0,0,.6107-.6543c.0436.0872.0436.1308.0654.1526.1091-.0872.1745-.1745.2618-.1963.24-.0436.5016-.0872.7634-.109a1.66,1.66,0,0,1,1.1778.3708c.24.1745.5671.3053.698.5235.1527.24.4144.48.3272.8288-.0218.0436.0218.1091.0218.1527a6.22,6.22,0,0,1,.0654.6325c-.0218.2618-.0872.5235-.1308.8289.48-.0873.8724.0654,1.265-.1091.2618-.109.5671-.0872.8071-.2181a4.9184,4.9184,0,0,0,.9815-.6762,7.2073,7.2073,0,0,0,.698-.72c.109-.109.2181-.24.2835-.3053.0873-.1527.1091-.2836.1963-.349.2836-.24.3054-.5889.4363-.8943a4.2879,4.2879,0,0,0,.1963-.9161,2.2348,2.2348,0,0,0,.0872-.3054,5.9253,5.9253,0,0,0-.109-1.0687,9.6916,9.6916,0,0,0-.3708-1.0252,2.068,2.068,0,0,0-.24-.5453c-.1526-.24-.349-.458-.5016-.698-.1309-.1963-.2618-.3708-.3927-.5671-.1308-.2181-.4144-.1963-.5452-.4144-.0873-.1527-.3272-.24-.5017-.349-.1309-.0872-.2836-.1527-.4363-.24-.2181-.1091-.4144-.24-.6325-.349a.1374.1374,0,0,0-.1309,0c-.1308.1745-.1963.0218-.3053-.0218-.0655-.0218-.1309-.0654-.1963-.0872-.0873-.0219-.1963.0218-.2618-.0219-.3053-.2181-.6107-.0654-.9161-.0654a4.4157,4.4157,0,0,0-.8724.1745,3.3783,3.3783,0,0,0-.5017.1091c-.349.1308-.698.3053-1.0252.458a2.043,2.043,0,0,0-.4362.349,1.6854,1.6854,0,0,0-.2836.1963,5.7124,5.7124,0,0,0-.6107.6544,1.3387,1.3387,0,0,1-.5017.5452c-.0436.0219-.0654.0873-.109.1309A3.9507,3.9507,0,0,1,26.3594,18.5836Zm-7.8086,6.4781a1.0613,1.0613,0,0,1-.1309-.2835c-.0436-.3708-.0654-.7416-.1091-1.0906v-.1963c-.0872-.349-.1745-.6762-.2835-1.0252-.0873-.3271-.1745-.6761-.2836-1.0033a7.4691,7.4691,0,0,0-.2835-.7416c-.0655-.1309-.1309-.2618-.1963-.4144-.0873-.2182-.1309-.4363-.2182-.6544-.109-.2617-.2835-.48-.3926-.7416a3.8806,3.8806,0,0,0-.8288-1.2433L15.737,17.58a2.9146,2.9146,0,0,0-.3489-.5017c-.2182-.2181-.4581-.4362-.698-.6325-.1091-.0873-.1963-.1963-.3054-.2836a2.8347,2.8347,0,0,0-.3272-.2181c-.1526-.0872-.3271-.1963-.48-.2835-.2836-.1309-.5889-.24-.8725-.349a3.3783,3.3783,0,0,0-.5017-.1091,4.2637,4.2637,0,0,0-.4362-.1091,4.9871,4.9871,0,0,0-.807,0c-.24.0219-.4581.1527-.6762.1745a2.0074,2.0074,0,0,0-.9379.3927,8.8653,8.8653,0,0,0-.72.5453,2.7242,2.7242,0,0,0-.2617.1744A4.9617,4.9617,0,0,0,7.2741,17.733,8.8332,8.8332,0,0,0,6.8378,18.78c-.0872.2182-.1308.4363-.1963.6544-.0218.0872-.1308.1745-.0218.2835.0218.0219-.0218.1309-.0436.2182a3.5011,3.5011,0,0,0-.1091.6325c0,.1963.1527.3926.1527.5671a3.0237,3.0237,0,0,0,.3272,1.0906,3.6107,3.6107,0,0,0,.8288,1.3087,3.602,3.602,0,0,0,1.1561.9815,6.3588,6.3588,0,0,0,1.0251.5017,4.7968,4.7968,0,0,0,1.0906.1309,1.3351,1.3351,0,0,0,.1527-.8943v-.72c0-.0872.0654-.1745.0654-.24.0218-.24.1963-.4144.2836-.6326a.9.9,0,0,1,.3272-.3708c.0436-.0218.1308-.0218.1745-.0654a2.0294,2.0294,0,0,1,1.2432-.4144,1.7074,1.7074,0,0,1,.8507.1745,2.8332,2.8332,0,0,1,1.0033.8943,5.6528,5.6528,0,0,1,.5671,1.0033,4.35,4.35,0,0,1,.2181.458c.0873.24.1309.48.2182.72a.2559.2559,0,0,0,.2181.1309,3.0893,3.0893,0,0,0,.4362-.0872c.3708-.0437.7416-.0655,1.0906-.0873A3.196,3.196,0,0,0,18.5508,25.0617ZM15.4535,26.37c.24.24.48.4581.72.6762.0436.0436.109.1091.1527.1091.3271.0654.6543.1526.9815.1963a4.5115,4.5115,0,0,1,1.0906.0872,2.104,2.104,0,0,0,.5235.0218c.2617,0,.5453.0873.807.0873h4.1661a.1309.1309,0,0,0-.0219-.0873c.0655-.0436.1527-.109.2182-.0872.3926.0654.7634-.1309,1.156,0,.0218,0,.0436-.0218.0872-.0218h.1091c.0872,0,.1745.0218.24.0218a1.0771,1.0771,0,0,0,.2836-.0873,1.1761,1.1761,0,0,0,.807-.458.383.383,0,0,1,.2181-.1963c.2836-.0655.2618-.1963.1527-.3926a1.4938,1.4938,0,0,0-.807-.5671c-.3926-.0218-.7853-.0655-1.2-.0873-.0436,0-.0654-.0436-.109-.0654a.35.35,0,0,0-.4581-.0655,1.04,1.04,0,0,0-.3926-.1308c-1.505-.0655-3.01.109-4.515-.0873a1.78,1.78,0,0,0-.589,0,4.545,4.545,0,0,1-.5452,0l-.0655.1963a1.3245,1.3245,0,0,0-.3926-.109c-.24,0-.458.0654-.698.0872-.3053.0436-.6107.0436-.9161.1091a.958.958,0,0,0-.5016.2181A2.2809,2.2809,0,0,0,15.4535,26.37Zm14.5484,3.2718c-.0436,0-.0654-.0218-.0872-.0218h-.0654a1.4665,1.4665,0,0,1-1.1561.2617,1.6115,1.6115,0,0,1-.7416-.1308c-.2835-.1745-.6325-.2836-.807-.6108-.1309-.24-.3272-.458-.458-.6979-.1309-.2836-.1963-.589-.3054-.8725a.276.276,0,0,0-.2181-.1527,2.7409,2.7409,0,0,0-.5889.0873c-.2182.0436-.4581.1308-.6762.1744s-.4581.0437-.6762.0655a1.83,1.83,0,0,0,0,.349c.0873.3053.1745.6107.2836.9161.109.2835.1963.5671.3272.8506a2.6231,2.6231,0,0,0,.5016.8071,8.8811,8.8811,0,0,1,.5453.72c.1309.1527.349.24.48.3927a1.0778,1.0778,0,0,0,.72.349,2.0042,2.0042,0,0,0,1.3305-.1745,4.1985,4.1985,0,0,0,.6762-.3927,3.2209,3.2209,0,0,0,.7634-1.0033A2.1361,2.1361,0,0,0,30.0019,29.6422Zm-11.5384-1.81a8.7992,8.7992,0,0,0-2.1812-.4362,4.6,4.6,0,0,0-.2181.6543,2.5246,2.5246,0,0,1-.6543,1.0906c-.0655.0873-.2181.1309-.3054.2182a1.7288,1.7288,0,0,1-.8943.4362,1.8557,1.8557,0,0,1-1.2214-.24.347.347,0,0,0-.2836.0654.3957.3957,0,0,0-.0654.2835.4612.4612,0,0,0,.0654.1527,1.4791,1.4791,0,0,0,.1527.4363,6.32,6.32,0,0,0,.4144.6325c.1309.1527.2836.2836.4144.4144a3.6328,3.6328,0,0,0,.5235.349,2.2976,2.2976,0,0,0,.8943.3054c.0436.0218.1091-.0436.1745-.0655.1309-.0218.2836-.0654.4144-.0872a1.0281,1.0281,0,0,1,.1963-.1309,1.2622,1.2622,0,0,0,.3054-.109,2.145,2.145,0,0,0,.6543-.5889c.1527-.2836.3927-.5017.5453-.7853.1963-.3271.3054-.6979.5235-1.0033.1091-.1527.1091-.3708.2181-.5235C18.3981,28.5516,18.3326,28.2026,18.4635,27.8318Z" style="fill:#390d3b"/><path d="M5.9,34.0046a10.1067,10.1067,0,0,0,1.396,1.7667c-.3054.1527-.5453.2836-.807.3926A.8975.8975,0,0,1,5.42,36.0113a3.43,3.43,0,0,1-.6544-.8289c-.109-.1745-.2617-.3272-.3708-.5017s-.2181-.3708-.349-.6107h.3054a2.28,2.28,0,0,0,.8507-.1745,1.0279,1.0279,0,0,1,.4362.0436A2.262,2.262,0,0,0,5.9,34.0046Z" style="fill:#390d3b"/><path d="M9.39,4.21q.0654.4908.1309.9161c.0218.0872.109.1963.0872.2617-.0654.1963-.1526.3926-.24.6107a.2.2,0,0,1-.0872.1309,2.2617,2.2617,0,0,0-.3708.2618c-.1745.1526-.349.3489-.5235.5016a.6.6,0,0,1-.3272.1745c-.0654.1963-.1745.3054-.4144.24-.0436-.3053-.0655-.6325-.1091-.96-.0218-.0872-.0654-.1527-.0872-.24a.6711.6711,0,0,1,.1745-.6107c.24-.24.48-.5017.7416-.72a4.4658,4.4658,0,0,0,.72-.5453C9.1063,4.166,9.2808,4.21,9.39,4.21Z" style="fill:#390d3b"/><path d="M.6433,26.7849c.0218-.0218.0436-.1091.1091-.2182.0872.0437.1744.0655.2617.1091.0218,0,.0436.0218.0654,0,.1963-.1091.4145,0,.6108.0218a1.136,1.136,0,0,1,.8942.6326,2.9069,2.9069,0,0,1,.3708.9379,1.4826,1.4826,0,0,0,.1963.5453c.0219.0436-.0654.1526-.0872.24a.4288.4288,0,0,0-.48-.0436.355.355,0,0,1-.2617.0218,2.7909,2.7909,0,0,1-.4144-.0873c-.0873-.0218-.1527-.0654-.24-.0872-.0436-.0218-.0872-.0873-.1308-.0873-.3054,0-.3272-.24-.3926-.4362-.0873-.24-.1745-.48-.2618-.698a3.616,3.616,0,0,0-.1308-.458A1.53,1.53,0,0,0,.6433,26.7849Z" style="fill:#390d3b"/><path d="M25.0943,39.7629a5.8212,5.8212,0,0,0-.6107.3926,1.2069,1.2069,0,0,0-.2618.3053c-.109.1309-.1963.2836-.3053.4145-.1963.24-.4145.48-.6326.72-.0218.0218-.0654.0654-.0872.0654-.3272-.0218-.5671.1963-.8507.3054a4.0768,4.0768,0,0,1-.48.1526c-.0219,0-.0873-.109-.0873-.1308a7.4717,7.4717,0,0,0,.349-.9816,1.7527,1.7527,0,0,1,.5453-.8724,2.4565,2.4565,0,0,1,.5889-.2836,2.7045,2.7045,0,0,1,1.4832-.2835,1.8181,1.8181,0,0,1,.3272.0872A.1969.1969,0,0,0,25.0943,39.7629Z" style="fill:#390d3b"/><path d="M38.4867,8.3321a2.7333,2.7333,0,0,1-.458.2181c-.3708.0655-.698.2836-1.0906.1963-.1963-.0436-.3926-.0872-.48-.3053-.0436-.1091-.2181-.1527-.3053-.2618-.2181-.1963-.4145-.4144-.6326-.6325-.0436-.0436-.109-.0873-.1527-.1309s-.1308-.0872-.1308-.1091a.339.339,0,0,1,.1308-.1744,3.898,3.898,0,0,1,.698-.2836c.1963-.0654.4363-.0654.6326-.1091a.8679.8679,0,0,1,.24,0C37.4616,7.2851,37.9632,7.7868,38.4867,8.3321Z" style="fill:#390d3b"/><path d="M.4906,26a16.81,16.81,0,0,1-.349-2.1375c.1091-.1745.2181-.1309.349-.0218a1.16,1.16,0,0,0,.3708.1745,4.1282,4.1282,0,0,1,.5017.109,1.24,1.24,0,0,1,.2835.2181A3.2089,3.2089,0,0,0,1.93,24.56a7.3564,7.3564,0,0,1,.1963.7416,4.8079,4.8079,0,0,1,.0872.7852c0,.0654-.109.1963-.1745.1963a4.508,4.508,0,0,0-.5016-.0654A2.2573,2.2573,0,0,1,.6215,26Z" style="fill:#390d3b"/><path d="M40.0572,10.8841a5.3089,5.3089,0,0,1-.8943.2181.9458.9458,0,0,1-.5017-.1091,1.6623,1.6623,0,0,1-.7852-.8506,2.6442,2.6442,0,0,0-.3054-.4363c-.109-.1526-.24-.2835-.349-.4362-.0218-.0218,0-.0654,0-.0654.3708-.1091.72-.24,1.0906-.349.0655-.0218.1527.0436.24.0872.1963.0873.4144.1091.5453.3054.1963.3054.5016.5235.6107.8943a.714.714,0,0,0,.24.3272C40.079,10.5787,40.0572,10.7314,40.0572,10.8841Z" style="fill:#390d3b"/><path d="M4.5476,11.2985c-.2181.0218-.3708-.0218-.349-.2836a.1311.1311,0,0,0-.0218-.0872c-.2617-.1745-.3272-.5017-.48-.7634a.4888.4888,0,0,1,0-.3926c.1091-.4363.48-.698.7416-1.047.1309-.1745.2182-.3708.349-.5453.0437-.0654.1527-.1309.1963-.109a.244.244,0,0,1,.1527.1745c0,.2617.1745.4362.2618.6761a1.113,1.113,0,0,1-.0219,1.1342,5.1516,5.1516,0,0,1-.7634,1.047A.6934.6934,0,0,0,4.5476,11.2985Z" style="fill:#390d3b"/><path d="M21.1464,1.7449c.0872-.2617.1526-.48.24-.6761A1.9154,1.9154,0,0,1,21.648.6107c.1527-.1963.3272-.3926.5017-.5889.0218-.0218.1091,0,.1527,0h.2181a.6934.6934,0,0,0,.1963.0654c.1745-.0218.349-.0654.5453-.0872a1.6077,1.6077,0,0,1,.3054.0872c.2181.0437.4144.0873.6543.1527a2.0635,2.0635,0,0,0-.3053.5235c-.0437.2618-.2618.3926-.3708.6107a.7835.7835,0,0,1-.4581.3272,2.4508,2.4508,0,0,1-.6761-.0654c-.1527,0-.3054.0436-.48.0436-.1309,0-.24-.0218-.3708-.0218C21.43,1.68,21.3209,1.7231,21.1464,1.7449Z" style="fill:#390d3b"/><path d="M33.012,5.54c.1527-.0654.3053-.1091.458-.1745.0218-.3054.349-.3054.5671-.4362a3.1739,3.1739,0,0,1,.3272-.1963s.0218.0872.0436.0872c.72.0218,1.0906.5889,1.5487.9815.1308.1309.2617.2618.3926.3708-.3272.1527-.6544.3054-.96.4363a.5421.5421,0,0,1-.1963.0218,2.71,2.71,0,0,1-.589.0654,1.036,1.036,0,0,1-.458-.24c-.3272-.2618-.6107-.5453-.9379-.807A.9916.9916,0,0,1,33.012,5.54Z" style="fill:#390d3b"/><path d="M1.9738,12.8908A15.1219,15.1219,0,0,1,2.8463,14.2c.0872.1527-.0218.4144-.0218.6325a.3091.3091,0,0,1-.0437.1309c-.0872.3708-.1963.7634-.2835,1.1342-.0218.0654-.0873.1091-.1527.1963a3.7928,3.7928,0,0,0-.2835-.3272c-.2618-.24-.5453-.48-.8071-.7416-.0872-.0872-.0872-.3272-.109-.4362a.841.841,0,0,1,.2181-.6107c.2181-.2836.1745-.6544.3708-.938A1.667,1.667,0,0,1,1.9738,12.8908Z" style="fill:#390d3b"/><path d="M2.6936,31.6925c.5017,0,1.0033-.0218,1.505.0218.3054.0218.4581.2836.5889.5453.1527.3054.3272.5671.5017.8507.0436.0872.1527.1963.1309.2617a.4649.4649,0,0,1-.24.2181c-.2835.0655-.5453.0655-.8288.1091a.9279.9279,0,0,1-.9815-.6107c-.1091-.1963-.2182-.4145-.349-.6326-.1091-.2181-.2181-.4144-.3272-.6325C2.6718,31.8016,2.6936,31.758,2.6936,31.6925Z" style="fill:#390d3b"/><path d="M.3161,18.2346c.0655.0219.1309.0219.1745.0437a4.0417,4.0417,0,0,1,.72.458c.2617.2181.5453.4363.5235.8507-.0218.458,0,.9379-.0218,1.3959,0,.0873-.0873.1963-.1309.2836a1.02,1.02,0,0,0-.2181-.1091c-.1963-.0872-.3708-.1963-.5671-.2617a1.2161,1.2161,0,0,1-.6326-.5017C.0762,20.285.12,20.0668.12,19.8923a4.0088,4.0088,0,0,1,.0873-.5016C.2507,19.02.2725,18.6273.3161,18.2346Z" style="fill:#390d3b"/><path d="M3.9587,31.3653a.7759.7759,0,0,0-.2181-.0436H2.9335a1.1373,1.1373,0,0,1-.8288-.5889c-.1527-.349-.3272-.698-.4581-1.0688a1.75,1.75,0,0,1,0-.48c.2836.0436.5453.0872.8289.1308.1745.0218.3272.0655.5017.0873a1.0453,1.0453,0,0,1,.6761.6761,1.1952,1.1952,0,0,0,.1745.3272c.1309.2181.0436.5017.2836.6762.0436.0218-.0437.2181-.0655.3272A.113.113,0,0,1,3.9587,31.3653Z" style="fill:#390d3b"/><path d="M39.25,34.7025a8.9807,8.9807,0,0,0-.4362-.807,1.74,1.74,0,0,1-.1745-.349,1.1749,1.1749,0,0,1,.1963-1.2651.9645.9645,0,0,0,.1745-.24,4.67,4.67,0,0,1,.2181-.48c.0437-.0654.1527-.0872.2618-.1526a5.9805,5.9805,0,0,1,.6979.96.8533.8533,0,0,1,.0437.8288,7.191,7.191,0,0,1-.8943,1.2433A1.2005,1.2005,0,0,0,39.25,34.7025Z" style="fill:#390d3b"/><path d="M.1634,20.9611c.1309.0655.2836.1309.4363.1963a2.9665,2.9665,0,0,1,.8943.5671.834.834,0,0,1,.2181.5453,7.0839,7.0839,0,0,1,0,1.1779c0,.2617-.1527.3271-.3926.1963a3.0194,3.0194,0,0,0-.4145-.1309c-.0436-.0218-.109-.0436-.1526-.0654-.1091-.0437-.1964-.1091-.349-.1745-.0437-.0655-.1963-.1745-.24-.3054C.12,22.75-.12,22.5534.0762,22.2916c.0218-.0218-.0654-.1308-.0654-.2181a3.31,3.31,0,0,0,.0654-.458c0-.0873-.0873-.1745-.0654-.24C.0544,21.2665.098,21.1356.1634,20.9611Z" style="fill:#390d3b"/><path d="M27.0355,45.0849a2.3609,2.3609,0,0,0-.3926,0,4.7538,4.7538,0,0,0-.5234.1527c-.349.0437-.698.2836-1.0688.0655-.1527-.0873-.3272-.1309-.5017-.2182-.0654-.0436-.1091-.109-.1745,0,0,0-.1091-.0436-.1527-.0654s-.109-.109-.109-.0872c-.1309.1308-.24-.0437-.4363,0a4.9983,4.9983,0,0,0,.24-.5017,1.3636,1.3636,0,0,1,.24-.2617.8.8,0,0,1,.72-.3054,3.8528,3.8528,0,0,1,.5017,0c.1744.0218.3271,0,.48.1527.0873.0872.2836.0872.4144.2181a1.1751,1.1751,0,0,0,.2618.1963,1.7333,1.7333,0,0,1,.3926.3054,1.6271,1.6271,0,0,1,.1963.3271C27.0792,45.0413,27.0574,45.0631,27.0355,45.0849Z" style="fill:#390d3b"/><path d="M41.9112,29.7949c-.3272-.349-.6107-.6544-.8943-.9379a.8491.8491,0,0,1-.1309-.96,1.71,1.71,0,0,0,.1091-.48c.0436-.2181.0436-.458.109-.6762a.4782.4782,0,0,1,.1963-.2181,8.0052,8.0052,0,0,1,.8289.5889,2.79,2.79,0,0,1,.3054.5017c.1745.3054,0,.5671-.0873.8507-.0872.2617-.1309.5235-.1963.7852C42.0857,29.4023,42.02,29.555,41.9112,29.7949Z" style="fill:#390d3b"/><path d="M19.6414,44.845c.0436-.0654.0654-.1963.1308-.1963.1963-.0436.1745-.2181.2836-.3272a2.4408,2.4408,0,0,1,.458-.3708c.3054-.1963.6326-.0872.96-.0872.1527,0,.2618.1745.4581.2181.1527.0436.2835.2181.4362.349s.3054.2617.48.4144a2.5745,2.5745,0,0,1-.9379.5453c-.1963.0655-.3708.1963-.5671.2618a.55.55,0,0,1-.349-.1091,5.5137,5.5137,0,0,0-.5889-.3926A3.0971,3.0971,0,0,0,19.6414,44.845Z" style="fill:#390d3b"/><path d="M15.8025,44.8886c-.0218.0655-.0218.1309-.0436.1745-.1745-.0654-.3054-.1745-.5017-.109-.1091.0436-.3926-.2618-.4362-.3926-.0219-.0655-.0655-.1309-.0873-.1963l-.1963-.4581c-.0654-.1963-.1309-.3926-.1963-.6107v-.0655c.0654-.2181-.0436-.458.1527-.6761.0654-.0655.0218-.2181.0436-.4144.1091.0872.2181.1308.2617.2181.1309.2181.2618.4144.48.4144.1309.1091.2181.24.3272.2617.349.0655.3271.3926.4362.6326.0654.1308.0873.3272.1963.3926.1745.1309.1527.349.2618.5017.0218.0218-.1745.2181-.2836.2835-.0436.0436-.1309,0-.2181,0A.3243.3243,0,0,1,15.8025,44.8886Z" style="fill:#390d3b"/><path d="M.84,15.7263c.1091.0654.2181.1091.3272.1745.1745.109.3272.2181.5016.3272a1.1593,1.1593,0,0,1,.4581.5671.6924.6924,0,0,1,.0654.1963.6321.6321,0,0,1,0,.349c-.0436.1308-.1308.1963-.0872.3708a1.4966,1.4966,0,0,1-.1309.6761.2205.2205,0,0,1-.0218.0655c.1745.0872-.0218.1745-.0218.1745a.5749.5749,0,0,1-.2618.0218A2.584,2.584,0,0,0,.8178,18.06C.6869,17.9947.6,17.7984.5124,17.6457c-.1527-.24,0-.458.0655-.6761,0-.0218.0218-.0655.0218-.0873a2.0171,2.0171,0,0,1,.1963-.9379c.0218-.0436,0-.109,0-.1745Z" style="fill:#390d3b"/><path d="M5.9,36.5565c.2618-.0436.5235-.0654.7634-.109.0437,0,.0873-.0655.1309-.0873.1963-.0654.4144-.1308.6107-.1963H7.47c.1963.1309.4144.2618.6107.4145a5.5091,5.5091,0,0,1,.4581.5452c.0872.1091.24.1964.2835.3272.0654.1963-.1745.1745-.2835.24a3.118,3.118,0,0,1-.6544.3489.5357.5357,0,0,1-.24.0873,1.1376,1.1376,0,0,1-.8943-.5235c-.0873-.1309-.24-.2181-.3272-.3272a5.9778,5.9778,0,0,1-.48-.5671C5.9217,36.6874,5.9217,36.622,5.9,36.5565Z" style="fill:#390d3b"/><path d="M28.7587,3.1191c.2181-.2618.4144-.48.6107-.72.0218.0218.0436.0218.0436.0436a.8185.8185,0,0,1,.0218-.2181,3.5214,3.5214,0,0,1,.6326-.1963,1.1115,1.1115,0,0,1,.5889.1309c.3708.1745.7416.3708,1.1778.5889a1.0913,1.0913,0,0,1-.1745.3053c-.24.1964-.5234.3708-.7634.589-.3926.349-.72.0872-1.0687-.0437-.2182-.0872-.4363-.1526-.6544-.2617A2.4837,2.4837,0,0,1,28.7587,3.1191Z" style="fill:#390d3b"/><path d="M42.7837,26.8939c-.1527-.0872-.3054-.1527-.4363-.24-.1963-.1309-.3926-.2617-.5889-.4144a.6053.6053,0,0,1-.2836-.6108c.0437-.5016.0655-1.0033.1091-1.505a.29.29,0,0,1,.1309-.1963c.0436-.0218.1308.0436.1963.0655.1963.0872.349.24.5453.3053a1.1765,1.1765,0,0,1,.5016.3926.9479.9479,0,0,1,.1527.7853,2.862,2.862,0,0,1-.2617,1.1124C42.7837,26.6758,42.8055,26.7631,42.7837,26.8939Z" style="fill:#390d3b"/><path d="M3.2171,13.6978c-.1527-.1745-.24-.3926-.4144-.5017a1.559,1.559,0,0,1-.4581-.6107A.8464.8464,0,0,1,2.41,11.8c.2182-.3926.4363-.7634.6762-1.1561a.3.3,0,0,1,.1745-.109c.0218,0,.0654.0872.0873.1309a2.84,2.84,0,0,0,.458.6761.5944.5944,0,0,1,.1745.349,1.1984,1.1984,0,0,1-.1527.9379,5.6553,5.6553,0,0,0-.3054.6326A1.9684,1.9684,0,0,1,3.2171,13.6978Z" style="fill:#390d3b"/><path d="M16.2605,42.0313c-.1308,0-.1308.1963-.1963.3272-.0218.0436,0,.0872,0,.1308-.0218.24-.1308.2836-.3272.2182a1.13,1.13,0,0,1-.72-.6544c-.0437-.109-.1745-.2181-.1527-.2835a1.9188,1.9188,0,0,1,.2181-.589,7.8817,7.8817,0,0,1,.5453-.6543.3372.3372,0,0,0,.0654-.1309c.2181-.109.3926-.1963.5671-.3053a.7761.7761,0,0,1,.6544-.1309,3.33,3.33,0,0,0-.1527.6325c-.0436.2836-.0654.5889-.1091.8725,0,.0654-.0654.1091-.109.1527A3.4,3.4,0,0,0,16.2605,42.0313Z" style="fill:#390d3b"/><path d="M33.1865,39.3921a.4448.4448,0,0,1-.0218-.6762.1853.1853,0,0,0,.0654-.1091.5738.5738,0,0,1,.3054-.458c.1963-.1309.4144-.2617.6107-.4144a2.3826,2.3826,0,0,0,.3708-.2836c.0436-.0436.0436-.109.1309-.1963a4.7906,4.7906,0,0,1,.1963.5017c.0436.3054.0436.6325.109.96.0655.3708-.2181.5453-.4144.72a5.0042,5.0042,0,0,1-.72.458c-.109.0655-.1963.1527-.3054.2182-.0872.0654-.3489,0-.3489-.1091A2.9076,2.9076,0,0,1,33.1865,39.3921Z" style="fill:#390d3b"/><path d="M23.48,46.8517a5.9767,5.9767,0,0,1-.6107-.24c-.24-.0873-.4581-.1963-.698-.3054-.1745-.0872-.3272-.1963-.5017-.3054-.0218-.0218-.0436-.0872-.0218-.109a.3882.3882,0,0,1,.1745-.1527,2.8262,2.8262,0,0,0,.9816-.4362.8981.8981,0,0,1,.7852-.2182,2.561,2.561,0,0,1,.8943.3054.41.41,0,0,1-.0218.6544.2992.2992,0,0,0-.0655.0872.8373.8373,0,0,1-.5017.48C23.7638,46.6772,23.6329,46.7645,23.48,46.8517Z" style="fill:#390d3b"/><path d="M32.4012,3.25h.3272c.0218.0654.0218.109.0436.1744.0219-.0218.0219-.0436.0437-.0654.1745.1091.349.2181.5453.349l.6543.458c.1091.0873.1091.1527,0,.2182a3.0956,3.0956,0,0,1-.7634.3708c-.0218.0654-.0218.109-.0436.1745-.1745.0436-.349.0654-.5235.109-.2836.0873-.48-.109-.698-.24-.1745-.0873-.349-.2181-.5235-.3272s-.3489-.1963-.5889-.349c.1309-.0436.2181-.0872.349-.1308a.2539.2539,0,0,1,.2836-.2182c.0654,0,.1308-.0654.1745-.109.1308-.1091.2617-.1963.3926-.3054a.1311.1311,0,0,1,.0872-.0218C32.3576,3.4463,32.3576,3.4463,32.4012,3.25Z" style="fill:#390d3b"/><path d="M35.39,38.4542c-.1091-.3054-.1745-.5671-.2618-.8071a1.3164,1.3164,0,0,1,.2836-1.1342c.1745-.1527.3708-.2835.5235-.4362.1744-.1745.3053-.3708.458-.5453.0218-.0218.1527,0,.1527.0218.109.2836.1963.5671.3053.8725a1.8524,1.8524,0,0,1,.0873.48c.0436.48-.349.698-.6325.9816a2.2313,2.2313,0,0,1-.2836.1963c-.1091.0872-.2181.1745-.349.2617C35.564,38.3887,35.4549,38.4324,35.39,38.4542Z" style="fill:#390d3b"/><path d="M9.9569,39.7629c.0218.0436.0218.0872.0436.109v-.0872c.3054-.1309.6108-.2836.9161-.4144a1.2254,1.2254,0,0,1,.2618-.0873c.2617-.0872.458.1091.6543.2181.2182.0873.349.3054.6326.2836.0872,0,.1963.1527.3272.24v.1527a3.179,3.179,0,0,0-.2836.1963,1.4678,1.4678,0,0,0-.24.1527.5857.5857,0,0,0-.1527.1745c-.0873.1527-.1745.2835-.3926.2835-.1527,0-.2836.0655-.4363,0a4.1229,4.1229,0,0,1-.458-.1963c-.3272-.2181-.6325-.4362-.96-.6543C9.7606,40.0246,9.7388,39.8937,9.9569,39.7629Z" style="fill:#390d3b"/><path d="M41.4749,18.6709a2.6127,2.6127,0,0,1,1.5487.7634,8.39,8.39,0,0,1,.0436.8507v1.0687a1.7178,1.7178,0,0,0-.4362-.0872,1.5239,1.5239,0,0,1-.6326-.2836,1.2219,1.2219,0,0,1-.349-.458,2.0306,2.0306,0,0,1-.109-.5235c-.0436-.349-.0655-.6762-.0873-1.0252A1.1587,1.1587,0,0,0,41.4749,18.6709Z" style="fill:#390d3b"/><path d="M32.14,38.934c.0436.0873.0436.1309.0654.1745a1.592,1.592,0,0,1,.2182-.1963.62.62,0,0,1,.1745-.0872.29.29,0,0,1,.1308.1963,9.5561,9.5561,0,0,1,.0873,1.1124.6114.6114,0,0,1-.3926.5671.23.23,0,0,0-.1527.1309.4243.4243,0,0,1-.349.1745,2.6639,2.6639,0,0,0-.5235.2181,2.6746,2.6746,0,0,1-.3708.1527c-.0654,0-.1309-.0655-.1963-.1091.0218,0,.0436-.0218.0872-.0218a1.6848,1.6848,0,0,1-.0436-.3272c0-.0654-.0218-.1527-.0218-.24a2.2857,2.2857,0,0,0,.0873-.3708.8348.8348,0,0,1,.5453-.8289,4.6876,4.6876,0,0,0,.5671-.3053C32.0959,39.1521,32.0959,39.0649,32.14,38.934Z" style="fill:#390d3b"/><path d="M12.6834,3.8171c-.1091.0872-.1963.1963-.3054.2835-.109.0654-.24.1091-.3926.1963V2.9228a.9133.9133,0,0,1,.5453-.8071c.24-.109.4581-.2617.698-.3489a3.9242,3.9242,0,0,1,.6762-.1527,2.082,2.082,0,0,0-.1091.3708,2.66,2.66,0,0,0,0,.5889,1.3626,1.3626,0,0,1-.349.8725,2.1383,2.1383,0,0,1-.6107.458C12.7925,3.9043,12.727,3.8389,12.6834,3.8171Z" style="fill:#390d3b"/><path d="M42.3038,15.8572c-.3708,0-.6762.0218-.96,0a.9294.9294,0,0,1-.8943-.6762,9.2,9.2,0,0,0-.3926-.9815c-.0218-.0655-.1091-.1309-.1963-.2181a.23.23,0,0,0,.109-.0437c.0218-.1745.0655-.1963.24-.0872.0872.0654.2835.0218.4144.0218.2617.0218.5017-.0654.7634.0872a1.1124,1.1124,0,0,1,.48.5671,3.3741,3.3741,0,0,1,.1745.4145Q42.14,15.3664,42.3038,15.8572Z" style="fill:#390d3b"/><path d="M17.9837,45.0413a8.26,8.26,0,0,1-.1309,1.0252.9406.9406,0,0,1-.4362.5235c-.1964.0654-.48-.0437-.72-.0437a1.0553,1.0553,0,0,1-.6326-.2181,3.3583,3.3583,0,0,1-.5671-.5453,1.8436,1.8436,0,0,1-.1963-.3272c.349-.109.6762-.24.9815-.3271a5.5584,5.5584,0,0,1,.589-.1091c.0872-.0218.1745-.0436.24-.0654.0218,0,.0654-.0218.0872-.0218A3.748,3.748,0,0,1,17.9837,45.0413Z" style="fill:#390d3b"/><path d="M41.3441,13.5015c-.1091-.24-.3054-.2181-.5235-.2181-.2617,0-.5017-.0218-.7634,0a.4518.4518,0,0,1-.5017-.3272.94.94,0,0,0-.2835-.3708c-.1963-.1745-.1963-.3926-.2836-.6107a2.89,2.89,0,0,0-.2617-.4363c.0436-.0654.0654-.109.1308-.1963a1.7893,1.7893,0,0,1,.0437.1963c.109-.0218.1963-.0436.3053-.0654.24-.0436.48.0654.72-.0873.1527-.0872.5453.1091.6544.2836a3.8185,3.8185,0,0,1,.2181.4144c.1309.2618.24.5453.3708.8071.0872.1745.1527.3271.24.5016A.233.233,0,0,1,41.3441,13.5015Z" style="fill:#390d3b"/><path d="M40.7552,32.3032a2.1379,2.1379,0,0,0-.1309-.3053l-.0655-.1309a4.3125,4.3125,0,0,0-.4362-.458,1.3819,1.3819,0,0,1-.349-.5671.7153.7153,0,0,1,.1091-.4581c.0872-.2181.24-.3926.3272-.6107a6.5007,6.5007,0,0,0,.1963-.7634c.3708.4362.8288.72,1.0469,1.2214.1309.3054-.0436.5453-.1308.7852-.1309.349-.2836.6762-.4363,1.0034A1.4985,1.4985,0,0,1,40.7552,32.3032Z" style="fill:#390d3b"/><path d="M25.596,45.6084c.4144-.1308.7634-.24,1.1124-.3271a.6164.6164,0,0,1,.3926.0872c.0872.0436.1309.1309.24.0218a.3434.3434,0,0,1,.2618.0873,7.5482,7.5482,0,0,1,.6325.5453,5.1256,5.1256,0,0,1,.5017.6979c.0436.0437,0,.1527,0,.2836-.1309-.0655-.24-.1091-.349-.1527-.0218-.0218-.0655-.0654-.0873-.0654a6.22,6.22,0,0,1-.6325.0654c-.1091,0-.24-.0436-.349-.0436H26.752l-.4144-.4144c-.1963-.1745-.3926-.3054-.5889-.48C25.6832,45.8484,25.6614,45.7175,25.596,45.6084Z" style="fill:#390d3b"/><path d="M24.4181,1.9631c-.0218-.1091-.0654-.24-.24-.0655-.0436.0436-.1527,0-.2617,0,.0654-.1308.0872-.2617.1526-.3708.1091-.1745.24-.349.3272-.5235A.9361.9361,0,0,1,24.9852.48a1.3245,1.3245,0,0,1,.8725.109c.2836.0655.5889.1527.8943.2181V.96a2.461,2.461,0,0,0-.4581.5235,1.1309,1.1309,0,0,1-1.1342.6325C24.9416,2.0721,24.68,2.0067,24.4181,1.9631Z" style="fill:#390d3b"/><path d="M11.3965,2.661a1.9327,1.9327,0,0,1,.1091.3272,12.67,12.67,0,0,1,0,1.2869.49.49,0,0,1-.1309.3054,2.5527,2.5527,0,0,1-.8943.698c-.0436.0218-.0654.0872-.1091.109-.109.0654-.2181.1309-.3489.2181-.0437-.3926-.0873-.72-.1309-1.0469-.0218-.0873-.0654-.1527-.0873-.24a.6714.6714,0,0,1,.1745-.6107c.1963-.1745.3708-.4362.6108-.5017A2.92,2.92,0,0,0,11.3965,2.661Z" style="fill:#390d3b"/><path d="M40.8424,16.3806c.0218-.0218.0872-.0654.1309-.109a.1854.1854,0,0,0,.109.0654,6.5133,6.5133,0,0,0,.9161.0873.7666.7666,0,0,1,.6544.5671c.0872.349.1963.6761.2617,1.0033a4.9248,4.9248,0,0,1,.0873.6326,4.1755,4.1755,0,0,1-1.1124-.3708l-.0218.0436a3.7926,3.7926,0,0,1-.4363-.2836,1.511,1.511,0,0,1-.2181-.3708c-.0218-.0654-.0872-.1308-.0654-.1963.0436-.3272-.1745-.5671-.2182-.8506A2.2671,2.2671,0,0,0,40.8424,16.3806Z" style="fill:#390d3b"/><path d="M10.0005,38.1924c.3054.24.5672.4581.8507.6762l-.5235.3272c-.0218.0218-.0654.0436-.0872.0654-.349.3926-.8071.3054-1.2433.3054-.0218,0-.0436-.0218-.0654-.0218-.3272-.3054-.6544-.589-.96-.8943-.1309-.1091-.0873-.24.0654-.3054a1.7184,1.7184,0,0,0,.5017-.1963,1.4294,1.4294,0,0,1,.6107-.24,1.0528,1.0528,0,0,1,.5453.1308A1,1,0,0,1,10.0005,38.1924Z" style="fill:#390d3b"/><path d="M6.7724,6.0855l.24.24H6.9687a1.4058,1.4058,0,0,0,.0873.2836,2.254,2.254,0,0,1,.0872.2181,1.0276,1.0276,0,0,1,.0873.3708,1.2443,1.2443,0,0,1-.4363,1.0906,3.0979,3.0979,0,0,0-.4362.6107c-.0873.1091-.1963.2181-.3272.3708-.1527-.3926-.2835-.7634-.4144-1.1124A.9148.9148,0,0,1,5.5291,7.83a1.2,1.2,0,0,1,.698-1.0687,1.17,1.17,0,0,0,.3272-.3272A3.0647,3.0647,0,0,0,6.7724,6.0855Z" style="fill:#390d3b"/><path d="M37.44,36.7747c-.2182-.3927-.1527-.8507-.4581-1.0906a1.142,1.142,0,0,0,.0436-.3708.8668.8668,0,0,1,.24-.7853c.109-.1744.1745-.3708.4362-.3926v-.2617c.1309-.1527.24-.2617.3054-.3272.1527.2618.3271.5235.48.7852.0218.0219.0655.0219.0655.0655.0436.1745.0654.349.109.5235.0655.2835-.109.458-.24.6761-.1091.1745-.2836.3272-.4144.5017A6.1649,6.1649,0,0,0,37.44,36.7747Z" style="fill:#390d3b"/><path d="M18.7907,1.7886l.1309-.3926c.0218-.1091.0654-.2182.0872-.3054s.0654-.1745.0873-.2618a3.1,3.1,0,0,0,.1745-.3926.525.525,0,0,1,.458-.3271A5.2729,5.2729,0,0,1,21.0373.0436a1.8185,1.8185,0,0,1,.3272.0873A2.9,2.9,0,0,0,20.95.8943a1.4,1.4,0,0,1-.5235.6761c-.2618.2182-.5671.1527-.8725.1964-.24.0218-.48.0872-.72.1308A.1281.1281,0,0,0,18.7907,1.7886Z" style="fill:#390d3b"/><path d="M29.304,1.7013c-.2836.2836-.5889.6107-.8943.8943a2.0282,2.0282,0,0,1-.4144.24,6.3415,6.3415,0,0,0-1.6141-.5016,1.6385,1.6385,0,0,1,.1309-.2836c.2181-.2617.4144-.5017.6543-.7416a.5961.5961,0,0,1,.72-.1745c.2836.1091.5889.1309.8725.2181.0654.0218.109.0655.1745.0873C29.0422,1.5268,29.1731,1.6141,29.304,1.7013Z" style="fill:#390d3b"/><path d="M15.1263,2.6828c0,.0437-.0218.1091-.0218.1309-.3272.1091-.6107.2181-.9815.349a3.9334,3.9334,0,0,0,.109-.4144.8184.8184,0,0,0,.0218-.24,1.92,1.92,0,0,1,.1964-1.047.49.49,0,0,1,.3708-.3054c.3708-.0872.72-.24,1.0905-.349a2.09,2.09,0,0,1,.3708,0,7.3974,7.3974,0,0,0-.1963.7416c0,.0218-.0218.0655-.0218.0873.0436.458-.3053.72-.5671.9815a.99.99,0,0,1-.3053.1309C15.1481,2.7265,15.1481,2.7047,15.1263,2.6828Z" style="fill:#390d3b"/><path d="M21.8443,40.8753c-.109.2835-.3053.458-.3053.7416a1.7786,1.7786,0,0,1-.3272.7852.865.865,0,0,1-.8288.3926.8237.8237,0,0,0-.4581.0873c-.3272.1745-.6762.0218-1.047.109.0437-.109.0655-.1745.0873-.2181.24-.3272.458-.6762.698-.9815a1.0689,1.0689,0,0,1,.4362-.24c.2181-.109.458-.24.6762-.3271.24-.0873.48-.1527.72-.24A2.1439,2.1439,0,0,0,21.8443,40.8753Z" style="fill:#390d3b"/><path d="M18.7471.3272c-.0655.0654-.1091.0872-.1091.109a2.7963,2.7963,0,0,0-.109.589,1.4672,1.4672,0,0,1-.698.9815l-.72.1963a3.9768,3.9768,0,0,0-.5453.1745c-.1963-.6326.1963-1.1779.3926-1.7886.2617-.0654.5889-.109.8943-.1963.2181-.0436.4144-.1309.6325-.1745C18.5508.1963,18.638.2836,18.7471.3272Z" style="fill:#390d3b"/><path d="M17.133,41.29c-.0654-.1745-.1745-.3272-.0436-.5017.0436-.0654-.0218-.1963-.0436-.3708q.2289-.2617.5889-.6543a3.9259,3.9259,0,0,1,.8724.0218,2.3064,2.3064,0,0,1,.8507.2835,1.4926,1.4926,0,0,0,.3708.1091V40.33a3.5,3.5,0,0,0-.6107.48,1.0856,1.0856,0,0,1-.8943.3708,6.119,6.119,0,0,0-.6326,0C17.46,41.2025,17.3075,41.2679,17.133,41.29Z" style="fill:#390d3b"/><path d="M19.5105,41.6823c-.1963.24-.3708.4362-.5453.6544-.0436.0436-.0436.1308-.1091.1963a.6689.6689,0,0,1-.5889.3053c-.2181-.0218-.4362.0873-.6325.0655-.2181-.0218-.4363-.1091-.6544-.1527-.1745-.0218-.349-.0218-.5889-.0436.0436-.1963.0218-.4363.1527-.5671.24-.2618.4362-.6108.9161-.5672a5.7786,5.7786,0,0,0,.6107-.0654.64.64,0,0,1,.349.0873,1.8974,1.8974,0,0,0,.8507.0872A.44.44,0,0,1,19.5105,41.6823Z" style="fill:#390d3b"/><path d="M20.4484,43.6454c-.1745.1527-.349.3053-.5235.48a1.5493,1.5493,0,0,0-.2181.3054c-.1091.1963-.349.1745-.5017.2835a.808.808,0,0,1-.7416.0219,1.64,1.64,0,0,0-.6543-.0219c-.0437-.109-.1091-.1963-.0873-.2835a1.7681,1.7681,0,0,1,.6544-1.1124c.1308-.0873.3708-.2618.5889-.0436.0654.0654.24,0,.349.0218s.24.0872.349.109a2.6057,2.6057,0,0,0,.4362.0655c.1091.0218.24.0654.349.0872C20.4266,43.58,20.4484,43.6017,20.4484,43.6454Z" style="fill:#390d3b"/><path d="M30.5691,40.0028c0,.3926.0218.72,0,1.0688a.9235.9235,0,0,1-.6544.698,3.8141,3.8141,0,0,0-.4362.1963,2.2428,2.2428,0,0,1-.3054.0872c-.1309.0436-.2617.0654-.3708.1091a2.4938,2.4938,0,0,0-.3272.1308c.0437-.2617.0655-.48.1091-.6761a2.07,2.07,0,0,1,.109-.5017c.1091-.4144.4581-.5671.8289-.6762.2617-.0872.5017-.1963.7634-.3053C30.3509,40.09,30.4382,40.0682,30.5691,40.0028Z" style="fill:#390d3b"/><path d="M14.9518,40.8971a4.3064,4.3064,0,0,1-.458.5671,2.404,2.404,0,0,1-.5453.3708c-.0436.0218-.1527-.0436-.24-.0654-.1745-.0437-.349.0872-.5235,0a2.4445,2.4445,0,0,0-.5671-.1745,1.1485,1.1485,0,0,0-.2618-.0219,1.2741,1.2741,0,0,1-.24-.1963.2391.2391,0,0,1,0-.1745c.0872-.0872.24-.109.2835-.2181.1309-.24.3708-.3053.5235-.5016s.349-.1745.5889-.0873c.2182.0873.48.1309.72.2181C14.45,40.7008,14.69,40.81,14.9518,40.8971Z" style="fill:#390d3b"/><path d="M43.089,24.102c-.2617-.1527-.48-.2835-.7416-.458,0,.0218-.0218.0436-.0436.1308-.2181-.2617-.3926-.5016-.5671-.72a.2936.2936,0,0,1-.0436-.1964V21.6809A1.48,1.48,0,0,1,41.78,21.31a1.6983,1.6983,0,0,0,.8943.5453.5857.5857,0,0,1,.4362.6325v1.396A.6727.6727,0,0,0,43.089,24.102Z" style="fill:#390d3b"/><path d="M25.9231,42.8383c.0655-.24.1309-.4362.1964-.6325a1.0838,1.0838,0,0,1,.3053-.6325,2.617,2.617,0,0,1,.2618-.24c.0654-.0436.1526-.0218.2181-.0436.2617-.0654.5453-.1309.807-.1963.1527-.0436.2836-.0654.48-.1091-.0218.24-.0437.4581-.0655.6762-.0436.2181-.109.4144-.1526.6107a4.94,4.94,0,0,1-.4363.2836c0,.0218.0218.0436.0218.0654-.3271.0218-.6761.0436-1.0033.0873C26.3812,42.7293,26.1631,42.7947,25.9231,42.8383Z" style="fill:#390d3b"/><path d="M25.9668,41.5951a3.5432,3.5432,0,0,1-.24.6107c-.0872.1745-.0436.458-.2835.5235-.2181.0654-.3926.2835-.6544.2617-.4362-.0218-.8724,0-1.3523,0,.0218-.0872.0218-.1527.0436-.1745a.9464.9464,0,0,0,.349-.698.6087.6087,0,0,1,.5889-.458,4.2443,4.2443,0,0,0,1.1561-.1745C25.705,41.4642,25.8577,41.5733,25.9668,41.5951Z" style="fill:#390d3b"/><path d="M12.9888,46.35a2.0972,2.0972,0,0,1,1.0469-.8943.0214.0214,0,0,1,.0218.0219c.0437.458.0655.8942.1091,1.3523a1.06,1.06,0,0,1-.4362.9815c-.1309.1091-.24.1309-.349,0a10.23,10.23,0,0,1-.7416-.96c-.0437-.0436,0-.1963.0436-.2617A1.8594,1.8594,0,0,1,12.9888,46.35Z" style="fill:#390d3b"/><path d="M24.5054,41.05c-.1527-.1527-.1527-.24.0436-.4363a3.7277,3.7277,0,0,1,.4144-.4144,1.6535,1.6535,0,0,1,.2836-.1309,1.018,1.018,0,0,1,.9379,0,1.1584,1.1584,0,0,1,.6107.6326c.0218.0872.0655.1527.1091.3053-.3708.0655-.72.1091-1.0688.1745a2.0149,2.0149,0,0,1-.2836.0873c-.2181.0218-.4144.0218-.5016-.24,0-.0219-.0218-.0219-.0436-.0219C24.8544,41.028,24.7017,41.028,24.5054,41.05Z" style="fill:#390d3b"/><path d="M17.9182,46.4591a2.6358,2.6358,0,0,0,.2181-.3054,6.1858,6.1858,0,0,0,.1963-.5889,1.2665,1.2665,0,0,1,.1091-.3054c.0436-.0654.1309-.1526.1963-.1526a1.8181,1.8181,0,0,1,.3272.0872,4.3411,4.3411,0,0,1,.5671.1091c.3054.1308.6762.109.9161.458a2.3249,2.3249,0,0,0-.72.2181,3.2977,3.2977,0,0,1-.6325.2836,1.4819,1.4819,0,0,1-.4363.1527c-.2181.0436-.4362.0872-.6543.109A.3.3,0,0,1,17.9182,46.4591Z" style="fill:#390d3b"/><path d="M24.549,43.6017a2.1322,2.1322,0,0,0-1.3305.9816,5.0361,5.0361,0,0,0-1.1779-.7852V43.58A6.0828,6.0828,0,0,1,24.549,43.6017Z" style="fill:#390d3b"/><path d="M11.3747,47.8987c.0436.0436.0872.0654.1309.109.2181.2181.458.4363.6543.6544a3.2285,3.2285,0,0,1,.2836.458c.0436.1091-.2618.5453-.3708.5017a1.108,1.108,0,0,1-.349-.2836c-.1745-.1963-.349-.4144-.5235-.6325-.1091-.1527-.24-.2835-.349-.4362-.0218-.0218-.0218-.1309,0-.1309C11.0257,48.0513,11.2,47.9859,11.3747,47.8987Z" style="fill:#390d3b"/><path d="M17.2857,44.6487c-.4363-.3053-.8507-.5671-.8725-1.1778.5017-.1091.9815-.2181,1.4832-.3272a.1653.1653,0,0,1,.0436.0872,4.994,4.994,0,0,0-.3708.6544C17.46,44.1034,17.3947,44.3652,17.2857,44.6487Z" style="fill:#390d3b"/><path d="M22.4987,42.2276c0-.0436.0218-.1091.0218-.1309.24-.0654.4581-.1308.698-.1963,0,.0218.0218.0437.0218.0655.0218-.0437.0218-.1091.0654-.2182.1091.0437.24.0655.3272.1091-.1527.3054-.2835.5453-.4362.8725a2.4385,2.4385,0,0,1-1.57-.0436c.0655-.0873.0873-.2182.1745-.24C22.0188,42.3585,22.1715,42.0967,22.4987,42.2276Z" style="fill:#390d3b"/><path d="M14.45,46.9608a.6038.6038,0,0,0-.0218-.1963,3.8945,3.8945,0,0,0-.109-1.0252c-.1091-.2617.0436-.4362.0436-.6544.0654,0,.1527-.0218.1963-.0218.1309.1963.2617.3708.3708.5453a2.3069,2.3069,0,0,1,.2617.4363.9159.9159,0,0,1-.4362.72A1.86,1.86,0,0,1,14.45,46.9608Z" style="fill:#390d3b"/><path d="M26.5993,43.0346c.2181-.0872.4144-.1526.5889-.24a.41.41,0,0,1,.5235.4144,2.5346,2.5346,0,0,1-.0872.3926,1.43,1.43,0,0,0,0,.3054A2.0064,2.0064,0,0,1,26.5993,43.0346Z" style="fill:#390d3b"/><path d="M25.7487,46.3718c-.4363.3054-.8289.6544-1.4614.48.1308-.1745.2835-.3272.4144-.5017a1.6655,1.6655,0,0,0,.1745-.24c.1745-.3054.2835-.3272.5235-.0872C25.4869,46.1319,25.6178,46.241,25.7487,46.3718Z" style="fill:#390d3b"/><path d="M21.0809,40.7226c-.1527.2835-.4362.1963-.5889.3054a1.3852,1.3852,0,0,1-.6325.1745c-.2181.0218-.4363.0654-.6544.109,0-.0218-.0218-.0436-.0218-.0654.2617-.2181.5453-.4581.807-.6762C20.3393,40.6135,20.71,40.6572,21.0809,40.7226Z" style="fill:#390d3b"/><path d="M27.3627,44.6487a2.1116,2.1116,0,0,1-.4144-.1527,2.5709,2.5709,0,0,1-.5889-.48.7792.7792,0,0,1,0-.5453c.0218-.0873.109-.1309.2617-.0436a2.1342,2.1342,0,0,1,.698.8942C27.3627,44.387,27.3409,44.496,27.3627,44.6487Z" style="fill:#390d3b"/><path d="M27.1664,47.2007a3.85,3.85,0,0,1,.698-.0218,3.4309,3.4309,0,0,1,.5017.0872c.1745.0218.1526.1091.0436.1963a3.53,3.53,0,0,1-.4144.3926.3261.3261,0,0,1-.2836.0219,6.5652,6.5652,0,0,1-.5671-.5453C27.1446,47.31,27.1664,47.2443,27.1664,47.2007Z" style="fill:#390d3b"/><path d="M28.6278,48.9674c-.0218,0-.0218-.0218-.0436-.0218-.0655-.0872-.1963-.2181-.1745-.2835a1.636,1.636,0,0,1,.3272-.349.76.76,0,0,1,.1963-.1309,2.6633,2.6633,0,0,1,.4144-.2617c.0654-.0218.1745-.0655.1963-.0218a.44.44,0,0,1,.0654.24c-.0436.1745-.2181.1963-.349.3054-.1963.1526-.3708.3489-.5671.5234Q28.6278,48.9347,28.6278,48.9674Z" style="fill:#390d3b"/><path d="M12.0509,47.55c.1744.1963.3271.3272.4362.48a2.7827,2.7827,0,0,1,.3272.5453c.0218.0437-.0655.1309-.1309.1963-.0218.0218-.1091-.0218-.1527-.0436a1.382,1.382,0,0,1-.3926-.5235c-.0654-.109-.1963-.1963-.2617-.3053-.0437-.0655-.1091-.1745-.0873-.1963a.43.43,0,0,1,.24-.1309C12.0509,47.5279,12.0945,47.55,12.0509,47.55Z" style="fill:#390d3b"/><path d="M13.2069,48.1386c-.0436.0436-.0655.1091-.1309.1527a.1349.1349,0,0,1-.1527-.0436c-.24-.2618-.5016-.5235-.7416-.8071-.0218-.0218.0218-.1308.0436-.1745.0437-.0436.1527-.0872.1745-.0654.2618.2835.5235.5671.7635.8725C13.2069,48.0732,13.2069,48.095,13.2069,48.1386Z" style="fill:#390d3b"/><path d="M29.02,47.2661a.887.887,0,0,1,.1091.1963c.109.2181-.1309.2618-.2181.3708-.0873.1309-.24.1963-.3272.3272-.1309.2181-.349.3054-.4363.1309a.2075.2075,0,0,1,0-.1963C28.4315,47.8114,28.7151,47.55,29.02,47.2661Z" style="fill:#390d3b"/><path d="M33.4482,18.2128a2.3087,2.3087,0,0,0,0,1.0252c.1309.2617.5017.3926.7634.5889-.0654.0436-.1745.1091-.2835.1963-.1745-.2181-.24.0873-.3708.1091-.24.0218-.3272.109-.3272.3271a2.6245,2.6245,0,0,1-.1309.5235c-.1745.0437-.24-.1527-.3272-.2617-.0872-.1309-.109-.3272-.2181-.4581a.396.396,0,0,0-.3053-.1308c-.24.0218-.4581.0872-.698.1308-.0436-.24-.0218-.3708.1963-.4362a.9741.9741,0,0,0,.24-.698c-.0872-.1745-.1745-.3271-.3053-.5671.2181.0873.3708.1309.5234.1963a2.4088,2.4088,0,0,1,.3054.1963.25.25,0,0,0,.1309,0c.0872-.24.3272-.2835.48-.458A2.0424,2.0424,0,0,1,33.4482,18.2128Z" style="fill:#390d3b"/><path d="M8.9754,19.4561c.1745-.1309.3054-.2181.4362-.3272a.4908.4908,0,0,0,.1963-.5016,6.0862,6.0862,0,0,1,0-.6326,1.9207,1.9207,0,0,1,.2182.1309c.1744.1309.3271.2617.5016.3926a.3649.3649,0,0,0,.48,0,1.8275,1.8275,0,0,1,.4144-.1963.4255.4255,0,0,1-.0218.1745,2.4344,2.4344,0,0,0-.24.5453c-.0218.109.0872.24.1526.3272.0873.1308.1964.2617.2836.4144.0218.0218,0,.0872,0,.109a1.0715,1.0715,0,0,1-.8288-.0872c-.1964.2617-.4145.5235-.6108.7852-.0218-.0218-.0436-.0218-.0654-.0436v-.3708c0-.3054-.1309-.4144-.4362-.48A1.0016,1.0016,0,0,1,8.9754,19.4561Z" style="fill:#390d3b"/><path d="M17.9618,26.5231a2.1039,2.1039,0,0,0-.458-.1308,3.51,3.51,0,0,0-.48,0,.5482.5482,0,0,1-.3053-.1309,1.5686,1.5686,0,0,1,.48-.0873,1.0946,1.0946,0,0,0,.7853-.0654c.0436-.0218.1526.0654.24.0654.2617,0,.5235.0218.7852,0,1.7668-.2181,3.5335-.0436,5.3221-.0872a11.6149,11.6149,0,0,1,1.505.0872c.0654,0,.1309.0873.2617.1527-.4144.0436-.7634.0873-1.1124.1091a18.9541,18.9541,0,0,0-1.9412.109,14.6628,14.6628,0,0,1-2.1812.0655c-.3272.0218-.6543-.0873-.9815-.0873a3.6721,3.6721,0,0,1-.8507-.0218,4.022,4.022,0,0,0-.8724-.0654C18.0491,26.48,17.9837,26.5231,17.9618,26.5231Z" style="fill:#390d3b"/></svg>