<?xml version="1.0" encoding="UTF-8"?><svg width="100px" height="100px" enable-background="new 0 0 48 48" version="1.1" viewBox="0 0 48 48" xml:space="preserve" xmlns="http://www.w3.org/2000/svg"><path d="M12,44c-1.657,0-3-1.343-3-3V7c0-1.657,1.343-3,3-3h16l11,11v26c0,1.657-1.343,3-3,3H12z" fill="#673AB7"/><polygon points="39 15 28.883 14.125 39 24.124" fill="#5E35B1"/><path d="M39,15h-8c-1.657,0-3-1.343-3-3V4L39,15z" fill="#B39DDB"/><rect x="22" y="23" width="10" height="2" fill="#F5F5F5"/><rect x="22" y="28" width="10" height="2" fill="#F5F5F5"/><rect x="22" y="33" width="10" height="2" fill="#F5F5F5"/><circle cx="17.5" cy="24" r="1.5" fill="#F5F5F5"/><circle cx="17.5" cy="29" r="1.5" fill="#F5F5F5"/><circle cx="17.5" cy="34" r="1.5" fill="#F5F5F5"/></svg>