<svg xmlns="http://www.w3.org/2000/svg" viewBox="0 0 322.3 320.4"><path fill="#F7C317" d="M322.3 170.5c-1.3.3-3.1 22.4-3.8 26-2 9.7-4.9 19.2-8.5 28.4-7.1 18.3-17.4 35.4-30.9 49.8-14.6 15.6-32.7 27.5-52.7 34.8-10.3 3.8-20.9 6.4-31.8 7.9-6.4.9-20.7 4.7-26.5 1.7 3.5-3.5 8-9.1 12.6-11 5.7-2.4 14.5-1.6 20.8-3.2 14-3.7 27.3-9.8 39.6-17.4 25.2-15.8 45.4-38.8 57.1-66.2 23.1-54.3 14.4-119.2-27.7-161.6-39.7-40.1-102.9-59.5-157-40C59.4 39.4 17 90.2 13.4 148.5c-3.7 58 26 118.4 78.6 145.3 12.4 6.3 24.9 10 38.8 9.8 6.8-.1 13.5-.7 19.9-3.1 5.5-2.1 14.9-9.7 20.9-7.3 11.9 4.7-11 17.5-15.8 19.7-14.5 6.5-28.3 6.2-43.3 2-56-15.9-98.7-68.3-109.6-124.4-10.6-55.1 7.9-111 49.5-149.1C102-3.9 172.7-11.9 232.7 16.9c28.9 13.9 54 35.7 70.1 63.7 16.2 28.1 19.5 58.1 19.5 89.9-.1.1 0-7.4 0 0z"/><path fill="#14A1CB" d="M151.2 255.6c-.7.4-.5 1.2-.7 1.9-.9-.5-1.3-1.5-1.8-2.2.4-.7 1 .5 1.1-.2.1-.7.7-.5.9-.8.3-.5.2-1.1 0-1.7-.4-1-.4-1 .7-1.5-.6-.2-1.1-.4-1.4-1 .6-.5.5-1.3 1-2 .6.8.8 1.6.8 2.5 0 .3 0 .6.3.6.2 0 .5-.1.5-.3 0-.9.7-.9 1.5-1.1-.4-.8-1.1-1.1-1-2 .1-.9.3-1.2 1.1-.9.4.2.9.4 1.3.6.3.2.6.2.8 0 .5-.5-.3-.4-.3-.6-.1-.3-.2-.6-.3-.9-.2-.6-.4-1.1-1.2-.5-.4.3-.9-.2-1.3-.3-.6-.2-.4-.7-.2-1.2.2-.4-.2-.5-.5-.6-.3-.1-.6-.1-.6-.5s.1-.7.6-.8c.6-.1.6-.5.1-.9-.1-.1-2.1-1.2-2.3-1.4-.6-.3-1.2-.5-1.5-1.1-.2-.3-.3-.6-.7-.4-.4.3-1 .4-.8 1.1 0 .1.1.3.2.4.1.3-.1.5-.4.6-.3.1-.5.1-.7-.1-.6-.6-.5-2 .2-2.5 1.1-.8 1.8-1.9 3-2.5.1 0 .1-.2.1-.3-.1-.1-.2-.2-.2-.2-.5.3-1 .3-1.3-.3-.2-.4.3-.7 1.1-.8.7-.1 1.4.6 2.2 0 .2-.2.6.3.7.7.1.4-.1.8-.3 1.1.2.1.3.1.4.2.4.1.8-.7 1.3-.1.4.4.2.9 0 1.3-.1.2-.1.4-.1.6-.2.2-.4.4-.1.6.1.1.2-.3.3-.5.5-.6 1-1.2 1.4-1.8.1-.2.1-.7-.1-.6-1.3.5-.9-.7-.7-.8.8-.9.4-2.1.5-3.1 0-1-.2-1.9.3-2.8.1-.2 0-.4-.1-.6-.6-.8-.3-1.5.3-2.1.5-.5.8-1 .4-1.8-.1-.2-.1-.6-.1-.9.3-1.2.5-2.4-.3-3.6.4-.8-.1-2 1.1-2.5.4-.2.3-.6 0-.9-.3-.4-1-.2-1.2-.7 1-.3 1.3-.8 1.1-2-.1-1.1-.1-1.1 1-.8.1 0 .2 0 .3-.2.2-.8-.6-1-1.1-1.5-.4-.4-.6-.7-.2-1.3.4-.5-.2-1.4-.9-1.3-.2 0-.3.1-.4.4-.1.4.1.8.2 1.2.1.3-.2.6-.4.5-.5 0-.1-.3-.1-.5s-.2-.4-.4-.4c-1.1 0-1.8.5-1.4 1.5.3.8.7 1.6.2 2.5-.1.3.1.5.3.6.3.2.5.4.8.6-.5.3-.9 0-1.5-.1.5.9-.1 1.9.6 2.6.1.2.1.5 0 .6-.9.1-.8.8-.9 1.4 0 .1-.2.2-.3.3-.7.3-2-.2-2.4-.8-.2-.3-.4-.7-.1-1.2.8-1.3.9-2.6.5-4-.3-.9.2-1.9.5-2.9.1-.2 0-.5.3-.8.4 0 1 0 1.7 0-.6-.8-1.2-1.3-1.5-2-.2-.7-.4-1.5-.8-2.2-.2-.5-.3-1-.1-1.5.5-1.4.6-2.9.4-4.3 0-.4-.1-.7.3-1 1.5-1.1 1.5-2.6 1.1-4.2-.1-.6-.4-1.1-.7-1.6-.9-1.4-1.3-2.9-1.3-4.6 0-.5.1-1.1-.3-1.5-.9-.9-.7-2.2-.9-3.2-.2-1 0-1.1 1-1.2.5 0 .8-.2.8-.7 0-.5 0-1.1.1-1.6.1-.7.2-1.3.8-1.8.6-.5.8-1.3.7-2.1-.1-.7-.2-1.5.4-2.1.2-.2.3-.6.2-.9-.7-1.5.5-2.4 1.1-3.4.6-1.2.9-2.4 1.1-3.6.1-.3 0-.6 0-.9.1-1.1.1-2.2.8-3.2.7-1 1.3-2.3.6-3.7-.2-.4-.2-1 .1-1.5.9-1.5.8-3.1.3-4.7-.7-2.7-1.3-5.4-1.9-8.1-.3-1.3 0-2.4.8-3.4.7-.9 1-1.8.9-2.9 0-1 0-2-.8-2.9-.9-1-.9-1.6-.1-2.8 1-1.3 1.4-2.7 1-4.4-.2-.7.3-1.7.7-2.4.3-.6.4-1 .2-1.6-.3-.8-.2-1.5.2-2.3.9-2 1.4-4 .5-6.2-.4-.9-.2-1.7.4-2.3.8-.7.8-1.5.5-2.4-.1-.4-.3-.9-.4-1.3-.2-1-.3-2-.1-3.1.2-1.2 0-2.5 0-3.8 0-.2 0-.5-.2-.6-1.2-.6-.6-1.6-.7-2.5 0-.4.1-.7.6-.7.6 0 .6-.4.6-.9.1-1.7.2-3.4.3-5.2 0-.2 0-.4 0-.6.6-1.6.5-3.1-.2-4.7.4-1.8-.8-3.5-.2-5.3.4-1.1-.1-2.2-.5-3.2-.5-1.6-1-3.2-1.3-4.8-.1-.5-.1-1-.1-1.6-.1-.6.2-1 .8-1.2.4-.1.8-.3 1.1-.5.8-.6 1.4-1.3 1.2-2.4-.1-.4-.1-.8.2-1.2.8-1 1.7-1.1 2.5.1.4.6.8 1.4 1.5 1.8.2.2.3.4.3.7 0 1.8 1.1 3.2 1.3 5 0 .1.1.2.1.3 1.4.2 1.7 1.8 2.9 2.1 0 .5-.3.7-.5.9-.5.5-.6 1.1-.3 1.7.3.6.2 1-.4 1.3-.2.1-.4.3-.3.5.4.7-.1 1.9.9 2.4.2.1.3.4.3.7-.2.8.1 1.2.7 1.7.5.4.7 1 .9 1.6.7 2.1 1.5 4.1 2.2 6.2.3.7.5 1.4.2 2.3-.2.5.1.9.7.9.5.1 1 .2 1.5 0 1.9-.5 2.4.7 2.1 2-.3 1.3-.6 2.6-.9 4-.1.6-.5 1-1.1 1.2-1.1.5-2.1 1.1-3.2 1.6-.6.3-1.1.7-1.5 1.1-.7.8-.8 1.1-.2 2.1.4.7.5 1.3 0 1.9-.4.5-.3.9-.2 1.5.2.7.4 1.5.6 2.3.2.7.4 1.4-.2 2-.6.6 0 1.2.3 1.7.4.5.8 1 1 1.6.1.5.1 1-.5 1.1-.1 0-.1.1-.1.1-1.8 0-2.3 1.4-2.7 2.7 0 .1 0 .2-.1.3-.4 1.9-1 3.7-2.6 5-.7.6-1 1.6-.9 2.6.1.8-.1 1.5-.7 2.1-.6.5-.7 1.2-.3 2 .7 1.3.6 2.8.7 4.2.1.6-.3 1.1-.8 1.3-1.2.5-1.5 1.5-1.4 2.7.1.6 0 1.2-.6 1.7-.7.6-.5 2.7.2 3.3.7.6 1.3 1.1 1.1 2.1-.1.4.2.7.4 1 .6.8.9 1.6 1.2 2.5.1.5.3.8.1 1.3-.3.7-.1 1.3.7 1.6.6.2.7.6.6 1.3-.2 1-.6 2 0 3.1.4.8.5 1.8-.6 2.4-.6.3-.7 1-.8 1.6-.1.6-.1 1.2-.3 1.7-1.1 1.6-.5 3.3-.1 4.9.3 1 0 1.8-.6 2.7-.7 1.1-1.9 1.9-2.4 3.2-.1.3-.4.5-.3.8.5 2.4 0 4.9.8 7.3.4 1.2.4 2.6 1 3.7.3.6 0 1-.6 1.2-1.3.4-1.7 1.2-1.5 2.5.1.4-.1.8-.2 1.2-.2 1-.7 2-.5 3 .1.4 0 .7-.3 1-.2.2-.4.4-.1.7.7.5.3 1.2.1 1.7-.3.9-.3 1.8 0 2.8.3.7.4 1.5.3 2.3-.1 1 .2 2 .5 2.9.1.4.2.7.2 1.1 0 .6-.1 1-.8 1-.7 0-1 .5-.6 1.2.3.5.2 1 .1 1.5-.1 1.1.3 2 1.2 2.6.7.5 1.1.9.3 1.6-.4.4-.3.7.1 1.1.3.3.5.5.8.8.3.3.5.6.3 1.1-.2.5-.1 1.1-.1 1.7 0 1.2 0 1.2 1.1 1.4.3.1.6.2.9.3.3.2.7.4.5.8-.2.4-.1 1.3-.9 1.3-.6 0-1.3-.1-2 .2.4.7 1.1.9 1.7 1.4.7.6.7.7.2 1.5-.2.3-.4.6-.6.9-.4.4-.7.8-.3 1.4.1.1.1.3.1.5-.1 1.4-.5 2.7.3 4 .2.3-.1.7-.2 1.1-.3.9-.7 1.8-.2 2.7.3.6-.3.8-.6 1.1-1 1-1.6 2.2-1.5 3.7.1.7.4 1.3.7 1.9.3.6.3 1-.2 1.3-.6.3-.8.8-.7 1.5.1 1.1-.4 2-1 2.9-.3.5-.6 1-.6 1.6 0 .4-.2.7-.4 1-1 1.7-.8 4.1.4 5.6.3.4.6.6 1.2.2.6-.4 1.3-.6 1.9-.1.7.6.7 1.4.6 2.3-.1 1.2-.2 2.5.2 3.5.5 1.2 1.7 2.2 3.2 2.2 1.2 0 2.4 0 3.6 0 .5 0 1 0 1.6.1 1.1.4 2.2.9 3.4.9 0 .2 0 .2 0 .3-.2.5-1.4.3-1 1.3.2.5.5.9.9 1.3s.8.3 1.3 0c.4-.2.6.1.7.4.1.3.1.7.1 1.1 0 2.3 0 4.6.1 6.9 0 .9 0 1.8.2 2.6.2.9 0 1.8-.5 2.5.3.3 1 0 .8.9-.2.6.4 1.3.8 1.9.5.6.7 1.3.4 2-1-.3-1.5-1.3-2.5-1.5-.4-.1-.6-.8-.9-1.2-.2-.2-.5-.3-.7-.2-.3.2-.1.4-.1.7.1.5.7.9.2 1.5-1.1-.6-1.8-1.6-2.5-2.6 0 0-.1-.1-.1-.1 0-.5.5-.3.6-.5.3-.3-.4-.4-.4-.8.1-.3.4-.4.6-.8-.6 0-1.1 0-1.5 0-.8 0-1.4-.2-2-.8-.5-.5-.9-1.2-1.5-.2-1-.1-2.1.2-3.1-.1.7-1.2 1.3-1.5 2.5-1.3.5.1 1 .3.9-.5.3.1.7-.1 1.1.2.2.1.4.2.6.1 1.4-1.2 2.7-.5 4 0 .1 0 .2 0 .3 0 .1.3-.1.6.2.9.4-.4.8-.7-.1-.9-.1-.7-.7-.7-1.1-.9-.7-.4-1.3-.8-1.8-1.5-.6-.7-.4-1.5.4-2 .5-.3 1-.5 1.6-.7.3-.1.4-.4.3-.7-.1-.2-.3-.3-.5-.3-.6 0-1.3 0-1.9.1-.6 0-1-.2-1.2-.8-.2-.6-.3-1.1.4-1.4.6-.3.2-.5.1-.8-.1-.4 0-.7.5-.7 1.4.2 1.4.2 1.9-1.2-.6-.4-1.1 0-1.6.2-.7.4-1.3.8-2 1.2-.5.3-.7.7-.7 1.1 0 1.1-.4 2.1-.3 3.1 0 .3 0 .6-.1.9-.3 1-.6 1.2-1.7.9-.3-.1-.6-.2-.9-.3-1.5-.6-2-.4-2.3 1.3-.1.6-1.2 1.1-1.7.8-.5-.3 0-.7-.1-1.1-.3-.2-.4.1-.6.2-.4.4-.9.3-.9-.2-.1-1.1-1-1.4-1.6-1.9 1-1.1 1.9-1.1 4 .1-.2-1-1-1.4-1.7-1.7-.1 0-.2 0-.3 0-1.2 1.1-1.5-.1-2.1-.7 1-.2 2.1.2 3.2-.1-.2-.5 0-1.3-1-.6-.6.5-.9-.4-1.3-.7-.5-.4.1-.6.3-.8.1-.1.1-.2.1-.3-.3-.3-.8.3-1.1-.1-.3-.4-.3-.9-.1-1.2.4-.6-.2-1.1 0-1.6.4-.4 1 .1 1.3-.4.5-.2 1.3.4 1.4-.7 0 0 .2-.1.3-.1 1-.4 1.1-.5.9-1.8-.5-.2-.5.7-1.1.5-1-.3-1-.2-1.3.8-.1.4-.2.7-.3 1-.6.1-1.2 0-1.2-.8.1-1.1-.2-2-.6-3-.3-.6-.3-1.3-.4-2-.4-.1-.6.6-1.1.3-.6-.4-.4-1.1-.4-1.6.1-1.1.1-1.2-.9-1.3-.6-.1-.9-.2-.9-.8.5-.4 1.6.2 1.8-.9-.8-.1-1.7 0-1.9-1-.2-.7.3-1 1.8-1.5-.2-.4-.9 0-.8-.7.1-.5-.3-1 .2-1.5.6-.7.8-1.4.4-2.5-.5.4-.3.9-.5 1.2-.1.2-.2.7-.4.6-1.3-.3-.7.6-.7 1.1 0 .4 0 .7 0 1.1 0 .9-.1.9-1.5 1.1 0-1-.8-1.9-.6-2.9.1 0 .2-.1.2-.1s-.1-.1-.1-.1c-.1.1-.1.1-.1.2z"/><path fill="#F7C317" d="M234.1 70.2c-.2 13.4-5.6 25.4-14.1 35.5-4.3 5.1-8.9 10-13.5 14.9-2.5 2.6-7.9 10.9-12.3 9.8-7.4-1.9 1.3-10.5 3.3-13 4.2-5.3 8-11.1 10.8-17.2 5.7-12.4 8.1-28.2-.4-39.9-8.2-11.3-18.5-11.7-29.7-4.2-2.3 1.5-5.2 5.1-7.9 5.8-3.4.9-2.4 1.1-2.6-1.8-.2-4.5 8.9-12.4 12.1-15 22.2-18.5 54.2-3.6 54.3 25.1-.1 10.8 0-2.1 0 0zM111.7 77.5c0 13.7 5.7 26.2 13.7 37 2.3 3.1 10.4 9.2 7.9 13.7-3.3 6.1-9.4-2.3-11.7-4.7C104.4 105.4 80.3 80 95.1 53c6.3-11.6 19.5-17.5 32.5-15.9 10.1 1.2 27 11.3 29.5 22.4 1.5 6.6-4 1.1-7.1-1.2-4.8-3.5-10.6-7.7-16.8-7.8-12.9-.2-22 15.6-21.5 27 0 9.8-.2-4.2 0 0zM241.4 130.8c-8.1.4-15.9 2.4-23.4 5.5-3.7 1.5-15.4 9.3-19.4 7.2-7.1-3.7 20-19.4 23.8-21.4 12.6-6.4 25.8-11.2 40-8.5 12.9 2.4 22.9 10.2 26.4 23.2 3.7 14-2 25-12.6 33.8-4.8 4-10.3 7.3-16.2 9.6-4 1.5-11.5 3.8-5.3-2 8.8-8.2 22.2-14.5 17.4-29.4-3.9-12.6-18.6-17.9-30.7-18-5.3.3 1.2 0 0 0zM35.8 142.1c0-31.9 33.3-38.8 57.9-28.8 6.8 2.8 13.4 6.1 19.7 10.1 2.9 1.9 16.7 9.5 15.6 14.1-1.2 4.8-28.5-8.5-33.5-9.6-12.3-2.7-26.9-1.5-36.3 7.8-11.3 11.1-5.8 25.2 5.3 33.7 1.4 1.1 10.7 6 9.3 8.2-1.6 2.5-13.5-4.1-15-5-10.8-6-23.9-17-23-30.5 0-8.5-.1 2 0 0zM239.5 254.4c-13.4.3-24.7-6.8-33.9-16-4.8-4.8-9-10.2-12.9-15.8-2.9-4.2-11.1-13.5-9.8-18.8 1.4-5.3 4.1-2.5 6.9.4 4.3 4.5 8.1 9.4 12.3 13.9 9 9.8 21.5 15.6 35 14.9 13.5-.6 21.9-8.9 21.1-22.5-.2-3.7-.8-7.4-2.3-10.8-.4-1-3.4-4.9-3.1-6.3 1.2-5.5 6.6 2.6 8.7 5.2 7.7 9.5 12.8 23.2 8.4 35.3-4.5 12.3-17 21.1-30.4 20.5-10.3.2 6.4.3 0 0zM85.8 228.6c14-.2 25.1-5.7 34.5-15.7 3.7-3.9 8.4-12.4 13.1-15 7.8-4.4 4.5 5.3 2.3 9.5-11.1 20.6-30.8 45-56.9 42.7-30-2.7-34.9-36.1-18.4-56.4 2.7-3.3 9.6-11.5 7.4-2.5-1.3 5.3-4.3 9.5-4.7 15.5-.5 13.6 9.2 22.2 22.7 21.9 6.8-.1-5.3.1 0 0zM97.3 180.8c.2-.8.4-1.8.7-2.8.4-1.4.7-2.8 1.1-4.2.4-1.2.2-2.1-1-3-1.8-1.3-3.4-2.7-5.1-4.1-.5-.4-1.2-.8-1-1.5.2-.7 1-.5 1.6-.6 2.2-.4 4.5-.4 6.7-.5 1.3-.1 2-.5 2.4-1.7.7-2 1.4-3.9 2.2-5.9.3-.7.4-1.9 1.4-1.9.8 0 .9 1.2 1.2 1.9.8 1.7 2.4 5.9 2.5 6.2.3.9 1 1.3 1.9 1.3 2.4.1 4.8.2 7.2.3.1 0 1.3 0 1.5.6.1.5-.2.8-.6 1.1-1.8 1.5-3.6 3.1-5.4 4.6-1.4 1.1-1.5 1.5-1 3.2.6 2.2 1.8 6.7 1.8 6.8.1.5.3 1-.2 1.3-.4.3-.8 0-1.2-.2-1.8-1.1-3.7-2.2-5.5-3.4-2-1.3-2.5-1.3-4.5 0-1.7 1.2-5.6 3.6-5.8 3.7-.6.1-.9-.1-.9-1.2zM219.5 177.1c-.6-.1-7.3 4.4-7.5 4.5-.4.3-.9.5-1.3.2-.5-.3-.3-.9-.2-1.3.5-2.2 1.7-7.1 1.8-7.3.4-1 0-1.7-.8-2.3-1.7-1.3-5.9-4.7-6.2-5.1-.6-.7-.4-1.1.5-1.3.8-.1 6.1-.6 8-.6 1 0 1.5-.5 1.9-1.3.8-2 2.7-7.3 3.2-7.8.3-.4.7-.5 1 0 .4.8 2.5 5.8 3.2 7.5.4 1.1 1.1 1.6 2.2 1.6 2.2.1 4.5.2 6.7.3.2 0 1.5 0 1.7.5.2.6-.2 1-.6 1.3-1.8 1.6-3.7 3.1-5.6 4.6-.9.7-1.2 1.4-.9 2.6.7 2.2 1.2 4.5 1.8 6.8.1.5.5 1.2 0 1.6-.6.5-1.2-.1-1.7-.4-1.8-1.1-6.6-4.2-7.2-4.1z"/><path fill="#14A1CB" d="M178.1 286.5c.9 0 1.9.1 2.6.8.3.3.5.2.8 0 .3-.2.5.1.5.3 0 .3-.1.5-.5.3-.3-.1-.3-.2-.5.2-.5 1.1-.7 1-1.9.9-1.1-.1-1.9-.4-2.2-1.5-.3-.9-.2-1 .7-1 .2 0 .4 0 .5 0zM167.3 283.3c-.9-.1-1.4-1.2-2.4-1-.1-.2-.1-.5-.3-.4-.3.2-.1.4.1.6.1.5-.2.8-.6.5-.4-.3-.8-.8-1.1-1.3-.2-.3.4-1 .9-1.1.6-.1 3 1 3.3 1.5.1.4-.1.9.1 1.2zM169 278.6c.5.7.6 1.4.4 2-.2.5-.1.9.2 1.2.2.2.2.4 0 .6-.2.2-.5.2-.7.2-1.2-.3-1.7-1.6-1-2.5.4-.5.4-1.1 1.1-1.5zM149.9 225.5c0-.4 0-.8.6-.6.3.1.4-.1.6-.3.5-.4.8-.4 1 .3.1.4.4.4.6.6.3.2.6.2.6.6-.1.5.6.9.2 1.3-.6.4-.7-.4-1-.7-.3-.2-.7-.3-.9-.8-.2-.5-.3-.1-.5.1-.2.3-.5.3-.8.2-.4 0-.3-.4-.4-.7zM152.1 265.4c-.2-.1-.6-.1-.6-.4 0-.9-.1-1.8-.3-2.7.7 0 1 .6 1.6.7.7.2.7 1 .8 1.7.1.5-.2.6-.6.7.1-.3 0-.5-.3-.6-.3-.1-.5.2-.6.6zM148.4 249.5c-.3-.5-.9-.8-.9-1.4 0-.3 0-.5.3-.7.3-.1.5.1.6.3.4.7.7 1.5 1.1 2.2.2.4.1.6-.4.4-.3-.1-.4-.1-.4.2 0 .6-.2.6-.7.3-.7-.4-.8-.6-.1-1.2.1.1.3 0 .5-.1zM153.3 274.9c1.3-.1 2 .5 2.7 1.1.2.2.3.3.2.5-.1.2-.4.4-.6.4-.4 0-.8-.2-1.1-.5-.4-.3-.7-.8-1.2-1.5zM147.7 252.2c.3-.1.6-.1.8-.1.3-.1.7-.4 1-.1.3.3.1.8-.1 1.2-.2.5-.5.9-1 1.3-.4-.5-1.1-.9-.1-1.5-.2-.2-.3-.4-.6-.8zM151.5 259.6c-.4.4-.8.7-1.2 1.1-.4.4-.8.1-1.1-.1-.4-.3 0-.5.2-.7.1-.1.2-.1.3-.2.3-.2-.5-.9.3-.9.6-.1 1 .2 1.5.8zM152.8 230.4c-.7-.5-1.3-1-2-1.6-.2-.2-.4-.4 0-.6.2-.2.3 0 .4.2.4.4 1 .5 1.5.6.4 0 .6.4.6.8.1.4-.1.6-.5.6zM156.9 272.7c0 .2 0 .4 0 .6 0 .2 0 .4-.2.5-.3.1-.4-.1-.5-.3-.2-.4-.2-.8-.6-1-.2-.1-.3-.4-.1-.7.3-.4.6-.5 1.1-.4.3.1.4.3.4.6-.1.2-.1.4-.1.7zM154.4 269.5c.5-.4.7-1.1.6-1.9 1 .4 1.3 1.1 1.5 1.9-.4.3-.7-.1-1-.1-.4-.1-.5.6-1.1.1zM148.4 246.5c.2-.4.7-.3 1-.4.3-.1.5-.5.8 0 .1.3.3.6 0 .9-.3.3-.6.5-1 .3-.3-.1-.7-.3-.8-.8zM151.2 265.8c.2 1 .2 1-.4 2.2-.8-1-.7-1.3.4-2.2zM152.3 267.5c.7 1.3.6 2.2-.2 3.3-.3-.6-.2-1.1-.1-1.6.1-.4.2-.9.3-1.7zM150 263c-.5 0-.9-.4-.9-.8-.1-.5.1-.8.7-.9.4 0 .5.3.5.6-.1.4 0 .8-.3 1.1zM151.7 243.7c.3.6 0 1.1-.2 1.5-.2.2-.4.3-.7.1-.2-.1-.2-.4-.1-.5.2-.4.3-1 1-1.1zM153.1 265.4c.1.8-.3 1.3-1 1.6-.5-.6.3-1.1.1-1.6.3 0 .6 0 .9 0zM152.1 246.5c0 .4.6.7.1 1.2-.6-.1-.9-.6-1.3-1 .5-.3.9-.2 1.2-.2zM179.6 291.9c-.8-.2-1.2-.6-.7-1.4.6.2.6.8.7 1.4zM152.1 246.5c0-.1.1-.3.1-.4 0-.3.1-.5.4-.5.2 0 .4.1.4.4 0 .3-.2.4-.5.5-.1-.1-.2 0-.4 0zM153.6 232.8c-.1-.1-.1-.2-.1-.2 0-.4-.2-.8.3-1.1 0 0 .1 0 .1 0 .2.5.2.9-.3 1.3zM154.5 212.5c.5.2.5.4.4.6 0 .2-.2.3-.4.3s-.4-.2-.3-.4c0-.2.2-.4.3-.5zM152.8 230.4c-.1 1-.6.6-1.2.4.3-.6.8-.3 1.2-.4zM151.5 240.6c.1.1.2.1.2.2 0 .3-.2.5-.4.6-.2.1-.3-.1-.3-.2 0-.4.2-.5.5-.6zM179.5 291.9s.1 0 .1 0c.2-.1.4-.4.6-.1.2.3 0 .5-.2.6-.4.2-.3-.3-.5-.5.1 0 0 0 0 0zM153.1 233.7c.1-.1.2-.3.3-.3.3 0 .3.2.3.4s-.1.3-.3.2c-.2 0-.2-.1-.3-.3zM151.8 227.3c-.1.3-.3.3-.5.3s-.4-.2-.3-.4c0-.1.2-.2.4-.2s.4 0 .4.3zM153.8 266.1c.2 0 .4 0 .4.3 0 .1-.1.2-.2.2-.2 0-.4-.1-.5-.3.1-.1.2-.2.3-.2zM152.4 232.3c.1 0 .3.1.1.3-.1.1-.2.2-.3.2-.2 0-.3-.1-.2-.3 0-.1.2-.2.4-.2zM153 223c.2.1.4.2.4.5 0 .2-.1.3-.3.2-.1-.1-.2-.2-.2-.3-.2-.2-.1-.3.1-.4zM151.4 222.9c-.1.1-.2.2-.3.1-.1 0-.1-.2-.1-.2 0-.1.2-.2.3-.1.1 0 .1.1.1.2zM182.9 289.1c-.1.1-.2.2-.4.1-.1 0-.2-.1-.1-.3.1-.1.2-.2.4-.1s.2.2.1.3zM157.2 276.7c-.1-.1-.1-.1-.2-.2.2-.1.2.1.2.2z"/><path fill="#FFFFFE" d="M158.4 270.7c.1-.3.3-.7.3-1 .2-1 .2-1.1 1.3-.8.7.2.6-.7 1.1-.5.2 1.3.1 1.4-.9 1.8-.1 0-.3.1-.3.1-.1 1.1-.9.5-1.4.7 0-.2-.1-.3-.1-.3zM173.3 283.6c.9.2.5.6.1.9-.3-.2-.1-.5-.1-.9zM153.5 237.7c-.1.2-.1.5-.3.5-.3-.2-.1-.4.1-.6.1.1.1.1.2.1zM151.2 255.6c0-.1.1-.2.1-.2s.1.1.1.1c-.1 0-.1.1-.2.1zM164.7 282.5c-.2-.2-.4-.4-.1-.6.1-.1.2.2.3.4-.1.1-.2.1-.2.2zM153.1 265.4c-.3 0-.6 0-1 0 .1-.4.3-.7.7-.6.3.1.3.3.3.6z"/></svg>