<svg xmlns="http://www.w3.org/2000/svg" viewBox="0 0 1082.9 782.6"><path fill="#3EB34B" fill-rule="evenodd" d="M0 670c-.5-.1 16.4-37.8 17.6-39.8 4.5-7.3 6.7-12.2 13.5-17.6 2.6-2.1 16.6-6 16-10-.6-4.4-10.4-.8-12.2-3.4-6.5-9.6-2.7-5.7.9-16.4 4-12 3.2-25.6 10-36.9 3.2-5.3 8.8-6.4 11.3-12.5 3.3-8.1-.2-18.1.8-26.5.8-6.6 1.1-20 8.4-23.8 7.5-4 14.2 4.7 22.6 2.3 15.2-4.4 4.4-3.8 11.9-13.4 2.7-3.5 9.5-9.7 10.6-13.9 2.9-10.5-6.3-22.6-3.3-32.9.5-1.9 8.7-9.9 10.2-12.2 2.4-3.7 5.7-12 7.7-16.2 7.4-14.9 6-33.7 9.9-51.1 2-9 7.9-26.4 6.5-35.1-.8-4.9-7.7-5.7-6.9-12.1.2-1.5 9.7-8.8 11.1-10.9 7.4-10.9 11.2-20.5 21.7-30 11.9-10.8 16.1-20.3 21-35.3 4.5-13.8 7.8-27.4 14.9-40.5 3.2-5.9 11.7-13.9 13-20.3 1.5-7.5-5.7-12.6-4.4-18.5 2.6-12.5 19.1-21.9 24.1-34.2 8.5-20.7 12.5-35.3 26.7-53.9 15.1-19.8 38.8-37.1 59-46.6C338 1.1 349.7 2.6 366 .6c15.8-1.9 22.7-.6 37.6 7.6 14.2 7.8 25.1 18.8 42.3 19.3 10 .3 20.3-4.5 31.4-4.3 17.2.3 31.3.9 46.4 7.1 14.1 5.8 26.4 12.6 40.2 20.2 13.2 7.3 10.7 10.9 18.4 21.5 7.4 10.2 14.7 9.8 25.5 13.5 7.8 2.7 3.5 7.1 10.1 6.6.9-.1-1.2-7.8-.2-8 10.9-2.1 19.9.7 30.6 1.5 3.1.2 2.6-5.1 7.4-3.9 5.6 1.4 17 8.4 19.5 13.8 3 6.5-4.1 11.5-.9 17.2 3 5.3 6.3-4.5 8.3-1.1 5.3 8.9 8.1 12.4 15.5 19.2 10.4 9.6 20.5 27.5 33.4 33.4 2.1 1 12.6 1.9 13.1 2.2 3.9 2.1 6.4 7.9 9.4 9.5 11.4 6 25.9-2.9 40 2 14 4.8 20.2 17.4 34.3 23.6 9.7 4.3 6.3 5.7 15.1 5.2 4.8-3.9 10.3-6.4 16.3-7.5 5.8-.7 11.6-1 17.5-.8 14-.7 31.4 3.2 44.3 1 9.4-1.7 10-6.4 21.2-4.8 7.1 1 14.2 5 21.2 6.8 5.2 1.3 11.2 4.6 17.3 3.6 16.4-2.6 28.9-20.4 46.3-6.4 9.7 7.9 23.3 20.2 32 29.8 7.1 7.7 18.6 25.4 21.6 34.9 5.7 17.7-6.3 22.5-13 36.2-5.7 11.6-9.3 28.1-11.9 41-5.4 27.3-10.6 29.7-37 26.6-6.4-.8-12-1.5-18.4-.4-1.8.8-3.7 1.5-5.5 2.3-5.2 3.3-10.2 3-15-.9-11.3.1-24 .3-35.9 1.1-12.7.8-16.1 7.7-26.3 10.5-2.4.7-7.2-4.3-8.8-3.7-2.1.8-5.4 4.8-6.1 5-1 1.9-2 3.8-3 5.7-3.5 2.7-7.1 2.8-10.9.2-6.7.9-10.9-7.7-18.4-2.1-5.9 4.3-4.7 5-4.2 11.1.9 10.8 10.6 2.3 1.8 18.7-14.8 27.4-39.9 48.2-67.8 59.8-5.7 2.4-9.8 2.8-15.5 4.2-1.7.4-4.5-4.8-6.8-4.5-2.5.3-3.1 7.7-7.5 8.9-9.5 2.7-11-1-18.3-5-7.4-4.1-8.5-8.3-18.3-6.9-5.2.8-7.9 7.8-13.5 7.4-6.5-.5-6.6-6.2-11-7.9-3.1-1.2-8.3 1-9.9.2-14.6-7-12.1-13.7-31.7-7-13.9 4.8-33.4 9.3-45.4 16.8-12.4 7.7-19.6 20.3-33.7 27.1-15.2 7.3-24.1 8.8-31.3 24.7-3.8 8.4-1.7 10.9-9.6 17.4-5.2 4.3-11.5 5.1-16.5 10-5.2 5.2-7.8 11.6-13.7 16.5-6.8 5.7-16.5 7.4-21.8 14.6-6.2 8.3-3.2 15.9-16.7 17.7-3.2.4-6.3-1.6-9.4-1.7-10.4-.2-13.4 1.3-23.6 3.4-4.9 1-11.2 1-16 2.1-11.5 2.6-6.1 4.4-15.8 10-21.1 12.1-25.2-5.1-45.1-5.7-7.7-.2-10.8 5.9-17.1 6.9-7.2 1.1-8.2-1-14.7-.5-14.8 1.1-33 12.3-47.2 8.3-.5-.2-8.1-7.3-8-7.4-8.5.3-12.3 10-18.7 15.2-5.6 4.5-12.8 6-18.1 10.5-1.4 2.9-2.8 5.7-4.3 8.5-3.1 1.6-6.3 3-9.6 4.1-8.1 10.7-12.2 31.3-17 44.4-7.7 21.3-9.7 31-28.4 43.5-22.7 15.1-61.9 42.9-91.5 28.4-3.9-1.9-5.2-1.7-8.4-3.8-3.7-2.4-3-7.6-10.5-10.8-11.9-5.1-30.3-1.2-41.6-8.2-15.3-9.5-13.5-31.9-18.8-47C12.1 698.3 0 680.8 0 670c1.2.2 0 .8 0 0z" clip-rule="evenodd"/><g fill-rule="evenodd" clip-rule="evenodd"><path fill="#C9CBD1" d="M436.2 547.3c.2.1.3.5.2.6-1 .9-7.4.3-8.3.6-2.1.7-2.7 2.5-2.3 3.5.5 1.4 2.9 2.1 5.3 3.1.8.3 3 .8 4.8.9.9.1 3.9.2 4.5.1.8-.1 2.4.1 2.5.6 0 .3-.7.9-3.1 1-2 .1-5.6-.3-7.8-.7-2.8-.5-4.8-1.3-4.8-.3 0 .7 3.7.9 6.1 1.2.6.1 3.6.4 6 .4 2.3.1 3.9-.4 3.9.5 0 .5-2.1 1.1-4.8 1-2.2-.1-4.8-.5-7-.7-2.3-.2-4.2-1.2-4.3-.5-.1.7 2.6.9 4.8 1.2 2.4.3 5.5.7 7.9.6 2.2-.1 3.6-.2 3.6 0 0 .6-1.4 1.3-3.5 1.4-2.1.1-4.9-.3-7.5-.5-5-.3-5.4-.9-5.5 0-.1.5 3.4.5 5.5.8 1.5.2 5.8.5 8 .4 2.3-.1 3 .1 2.9.8-.1.8-3.8 1.2-10.3.9-4.9-.3-7.8-.6-11.1-2.9-2.3-1.6-5.8-4.7-6.8-9-.9-4.1-1.5-5.6-3-7.3-1.3-1.4-2.2-3.1-3.5-5.3-4.7-8.1-6.1-16.4-6.1-25.8.1-8 .8-15.8 2.5-23.5 1.2-5.6.6-11.4 0-17.1-.7-6.6-2.1-13.2-2.2-19.8-.1-5.5-.6-11-.6-16.5 0-4.4 1-8.1 3.8-11.6 4.2-5 8.6-9.6 13.8-13.5 2.4-1.8 4.9-1.6 7.1.4 7 6.4 15.5 8.7 24.6 8.6 8.1-.1 15.2-3.6 21.5-8.5 2.3-1.8 5.5-1.6 7.6.3 4.3 4 9 7.6 12.2 12.7 2.5 4 3.9 8.4 4 13.2.1 9.1-1 18.1-1.9 27.1-1 9.9-1.6 19.8.6 29.8 2.6 11.9 2.4 24.1-1.3 35.9-1.6 5.1-4.5 9.7-7.3 14.2-1.6 2.6-2.9 5.4-4 8.3-1.9 4.9-6 7.9-9.1 9-4.9 1.7-8.1 1.5-10.4 1.6-1.3.1-8.1-.6-8.2-1.8-.1-.6 1.9.1 5.4.3 3.2.1 8.9.4 12.6-1.5 2-1.3-.4-.5-1.6-.2-.9.2-3.3.8-7.2 1-4.5.2-9-.3-9-.8 0-1.3 2.3-.5 5-.5 2 0 7.7-.2 10.1-.9 1.6-.5 3-1.1 2.9-1.4-.1-.4-2.5.9-5.2 1.2-2.4.3-5.8.9-8.9.6-2.5-.2-4.2-.6-4.1-1 0-.8 4.4-.2 7.1-.4 3.2-.2 9-1.6 9.4-1.8.7-.3 1.1-.9 1.1-1.1-.2-.7-1-.1-2.3.3-1.3.5-3.1.8-3.6.9-1.9.4-4.2.7-6 .9-.8.1-5.6.1-5.4-.9.2-1.5 2.1-1.1 5.7-1.2 2.5 0 5.2-.8 8.2-1.7 3.4-1.1 3.4-2.5 2.8-4.3-.7-1.9-2.3-1.9-5.3-1.2-3.1.7-5.6-.9-5.6-1.3.1-.7 2.2-.4 4.9-1.1 5.3-1.4 8.4-.4 9.8-.5 3.2-.1 4.4-1.2 4.8-4.3.6-5.9.5-11.7.3-17.6-.1-5.2-.7-10.9 4.2-15 1.6-1.3 1.8-3.2.1-4.7s-2.1-3.4-2.1-5.5c0-11.8.1-23.7 0-35.5 0-3.4.7-6.4 2.6-9.2 2.9-4.3 4.3-9.2 5.6-14.2.2-.8 0-1.7 0-2.8-1.6.5-1.6 1.9-1.9 3.1-1.9 7.8-5.2 14.7-11.2 20.2-3.3 3.1-7.3 4.9-11.7 5.7-2.5.4-4.6-.3-6.5-2.1-6.1-6.2-14.3-6.2-20.3 0-2.8 2.9-6 2.4-9.3 1.5-5.9-1.6-10.1-5.4-13.5-10.3-3.3-4.7-5.3-9.9-6.7-15.5-.3-1-.1-2.4-1.9-2.9.2 4.4 1.1 8.5 3.1 12.1 3 5.5 4.1 11.3 4 17.5-.2 11 0 22.1 0 33.1 0 1.6-.4 2.9-1.6 4-1.9 1.8-2.1 4-.1 5.8 3 2.7 3.8 6.1 3.6 9.9-.2 4.4-.3 8.9 0 13.3.2 3.5.4 7 1.3 10.5 1.1 3 2.5 4.4 7.2 2.9.6 0 7.6.3 10.2 1.2z"/><path fill="#7F8D90" d="M448.6 329.4c-8.9 0-17.8 0-26.6 0-3.5 0-4.7-1.2-4.7-4.7 0-10.6 0-21.3 0-31.9 0-3.5 1.2-4.7 4.7-4.7 7.6 0 15.2-.3 22.7-.4 10.5-.1 20.9.2 31.4.4 2.7 0 4.4 1.8 4.4 5.1.1 10.6.1 21.1 0 31.7 0 3-1.8 4.5-4.9 4.5-9 0-18 0-27 0z"/><path fill="#C9CBD1" d="M423.1 373.8c0-7.2 0-14.4 0-21.6 0-4.8.3-4.9 5.1-4.7 3 .2 6.1.1 9.1 0 2.9-.1 4.7 2 5.1 4.1.6 2.9.7 5.9 0 8.7-.6 2.5-2.1 4.5-4.6 5.7-3 1.5-3.7 3.7-2.9 6.4.8 2.5 2.9 2.6 4.7 2.6 2.3 0 4.2.7 6 1.9 2.1 1.3 4.2 1.5 6.5.5 3.2-1.3 6.4-2.7 9.9-2.8 2 0 2.4-1.6 2.6-3.1.3-1.9 0-3.6-2-4.6-2.9-1.4-5.1-3.5-5.8-6.7-.7-3.2-.6-6.5.4-9.6.4-1.4 1.6-2.7 3.5-2.9 3.5-.4 7-.4 10.5-.1 2.1.2 3.1 1.5 3.5 3.3.3 1.8.4 3.6.5 5.4 0 12.2-.3 24.3.2 36.5.3 6.9-2.7 10.8-8.3 13.7-5.6 2.9-11.4 4.8-17.6 4.8-8.6 0-16.4-2.9-23.3-8-2.6-1.9-3-4.7-3-7.7-.1-7.3-.1-14.5-.1-21.8zM455.3 368.4c-.7 5.5-2.4 7.9-5.6 7.9-3.2 0-4.5-1.8-5.3-7.2-1.2.5-1.1 1.8-1.6 2.7-.5.9-1 1.8-2.1 1.6-1.5-.3-3.3-.2-4.1-2-.6-1.2.1-2.2.8-3 .9-1 1.9-1.9 2.9-2.9 4.8-4.9 5.6-9.8 2.6-16-2.5-5.2-2.5-5.2 1.8-9.3 3-2.8 6.3-2.9 9.3-.1 1.3 1.2 2.3 2.6 3.4 4 .6.9.9 1.8 0 2.8-4.9 5.6-3.1 16.5 3.3 20.7 1.4.9 2.5 2 2 3.6s-2.2 2-3.7 2.1c-1.8 0-2.2-1.4-2.7-2.8-.2-.7.1-1.7-1-2.1zM423.7 345.1c-.4-3.5-.3-6.4-.1-9.2.2-2.7 2.4-4.5 5.7-4.6 8.1-.1 16.3 0 24.5 0 5.4 0 10.9 0 16.3-.1 3.6-.1 5.1 2.5 5.3 4.9.2 1.9 0 3.8.1 5.8 0 .5 0 1.1-.5 1.2-.3.1-.7-.3-1-.5-4.9-5.1-11.2-6.5-18-6.4-3.7 0-7.4 0-11 0-8.4-.3-16.1.8-21.3 8.9zM451.7 419.4c-10-.2-18.3-3.4-25.7-9.1-.8-.6-1.6-1.3-.7-2.4.8-1 1.6-1.6 3.1-.9 2.5 1.3 5.1 2.5 7.7 3.5 11 4.2 21.5 2.8 31.7-2.6 1.3-.7 2.6-1.5 4.2-1.3.9.1 1.4.7 1.8 1.4.3.7-.3 1.2-.7 1.6-6.4 5.4-13.4 9.6-21.4 9.8zM476.8 354.8c0-6.9 0-13.9 0-20.8 0-1.2.1-2.3 1.5-2.7 1.9-.6 2.9.2 2.9 2.2 0 4.1 0 8.1 0 12.2 0 9.7 0 19.5-.1 29.2 0 .4.1.8 0 1.2-.4 1.2-1.1 2.2-2.5 2.1-1.4-.1-1.7-1.1-1.7-2.4-.1-6.9-.1-14-.1-21z"/><path fill="#C8CAD0" d="M421 355c0 6.7 0 13.4 0 20.2 0 1.3-.3 2.5-1.6 2.9-1.4.6-2.3-.2-2.6-1.6-.2-.7-.1-1.4-.1-2.2 0-13.4 0-26.9 0-40.3 0-1.2-.5-2.8 1.5-2.9 2-.1 2.6 1.4 2.7 3 .1 3 0 5.9 0 8.9.1 4 .1 8 .1 12z"/><path fill="#7F8D90" d="M448.7 286.2c-3.5 0-7 0-10.5 0-1.5 0-2.7-.2-2.7-2.1 0-1.9 1.3-2.2 2.7-2.2 7.1 0 14.2 0 21.3 0 1.5 0 2.4.7 2.4 2.3-.1 1.5-1 2-2.4 2-3.6 0-7.2 0-10.8 0zM431.8 346.6c-.9-.6-2.3-.3-3.5-.5-1.7-.3-2.1-2.1-.7-3.3 4-3.6 8.7-5.3 14.1-4.7 1.2.1 1.4.7.8 1.7-2.3 4.1-5.9 6.2-10.7 6.8zM459.7 338c4.4-.1 8 1.6 11 4.7 1 1.1.9 1.9-.3 2.3-4.6 1.7-11.3.2-13.3-3.9-.4-.8-1.2-1.5-.9-2.3.5-1.1 1.6-.8 2.5-.8.4 0 .7 0 1 0z"/><path fill="#18131A" d="M458.3 382c-5.6 0-11.2 0-16.8 0 0-.1 0-.2 0-.2 5.6 0 11.2 0 16.8 0 0 .1 0 .2 0 .2z"/><path fill="#C8CACF" d="M450.2 528.6c-1.7 0-3.3-.7-3.3-2.5 0-1.7 2.2-2.4 3.4-2.3 2.2 0 3.1.9 3.1 2.4.1 1.8-1.9 2.5-3.2 2.4z"/><path fill="#C9CBD1" d="M499.6 578.9c-.4-1.7-.9-3.3-1.3-5-2.1-9.2-4.3-18.3-7.2-27.3-.4-1.3-1.7-1.6-2.7-.7-1.7 1.6-2.5 3.6-3 5.8-1.7 6.6-5.5 11.2-12.5 12.7-5.2 1.2-10.4 1.3-15.6.6-4.3-.7-3.6-2.1-3.3-5.3.2-2.5.3-4.5 4.1-4.4 3.8 0 6.4-.2 9.4-1.2 1.4-.5 4-.8 3.3-3.2-.7-2.2-2.8-1-4.3-.7-2.4.4-5.6-.2-7.4-2.3-.6-.7 0-1.7.9-1.6.9.1 1.8 0 2.7-.1 3.3-.5 6.5-1.3 9.9-1.1 5.2.2 6.4-.8 6.4-6.1 0-5.7-.1-11.4.1-17 .2-5 .1-10.2 4.6-13.9.9-.7.5-1.5-.3-1.9-2.1-.9-2.1-2.7-2-4.6.1-12.5 0-25 .1-37.4 0-.7.1-1.5-.6-1.9-.8-.5-1.3.2-1.9.6-3.4 2.7-7.1 4.7-11.4 5.3-3.3.5-6.9.9-9-2.1-2-2.8-4.7-4-7.7-4.4-3.4-.3-6.7 0-9.1 3.2-1.6 2.3-4 3.5-6.9 3.4-6.1-.1-11.1-2.6-15.6-6.5-.6-.5-1.3-1.2-2.1-.7-.8.4-.4 1.3-.4 2 0 11.3 0 22.6 0 33.8 0 1-.2 2 .1 2.9.8 2.6.4 4.7-1.8 6.3-1 .7-1 1.5-.1 2.4 3.5 3.2 4.4 7.6 4 11.9-.3 4.8-.3 9.6-.3 14.3 0 3 .3 6.2 1.7 9 .7 1.4 1.4 2.2 3.3 1.8 4.8-1.2 9.5.5 14.4.9.9.1 1.2 1.1.6 1.7-.7.6-1.5 1-2.4 1.3-2.4.6-4.7.3-7.1.4-.9 0-1.7.1-2 1.2-.3 1.1.5 1.6 1.1 1.8 3.5 1.8 7.1 2.4 11.1 2.5 1.9 0 4.4-.3 4.5 3.9.1 3.5.4 5-2.5 5.7-4 .9-7.1.3-11.1.2-9.1-.3-15.6-4.8-17.6-14.1-.3-1.6-.6-3.3-1.9-4.5-1.5-1.5-2.7-1.3-3.2.8-1.3 5.4-2.3 11-2.9 16.5-.7 6.5-1.3 13.1-1.6 19.7-.4 7.8-2.2 33.5-2.4 38.6-.2 3.5 2.5 3.5 5.9 2.5 4.7-1.4 8.9-3.9 12.1-7.6 4.3-4.9 8.6-6.5 16.6-6.7 6.9-.2 23.2-4.2 27.4-4.8 5.1-.6 8.3-.4 13.7 1 3.7 1 7.3.1 10.2-2.3 3.4-2.8 4-14 11.1-17.5 3.6-1.8 2.8-4.2 1.9-7.8zM445.1 526c0-2.6 1.9-4.1 5.1-4.1 3.2 0 4.9 1.5 4.9 4.3 0 2.5-2.3 4.4-5.1 4.3-2.9-.1-4.9-1.9-4.9-4.5z"/></g><g fill="#FECC0D" fill-rule="evenodd" clip-rule="evenodd"><path d="M140.6 500.1c.8-3.1 6.9.8 7.2-.2.5-1.7-11.7-12-8.8-13.6 4.6-2.6 9.3 12.6 10.4 12.8 1.7.3-.4-7.9 2.2-7.4 3.2.5-2.3 7.5-.7 7.6 1.3.1 13.3-10.9 16-7.5 3 3.7-14.8 7.9-15.2 9.3-.2.7 9.9.7 7.9 4-1.2 2.1-8.2-3.8-8.6-3-.4.8 18.8 27.1 15.1 29.5-5.8 3.8-14.9-28.7-16.4-29-1.5-.3.9 9.6-2.4 9-3.3-.5 2.5-8.7 1.5-9.2-1.1-.6-12.1 11.3-14.7 7.4-2.9-4.3 13.5-7.4 13.7-8.8.2-1.4-8.2 3-7.2-.9zM201.7 499.2c.6-2.3 5.1.6 5.4-.2.4-1.3-8.8-9-6.6-10.2 3.5-1.9 7 9.4 7.8 9.6 1.3.2-.3-5.9 1.7-5.6 2.4.4-1.8 5.6-.5 5.7 1 .1 10-8.2 12-5.6 2.2 2.8-11.1 6-11.4 7-.2.6 7.4.5 5.9 3-.9 1.6-6.1-2.8-6.4-2.3-.3.6 14.1 20.3 11.3 22.1-4.4 2.8-11.2-21.6-12.3-21.8-1.1-.2.7 7.2-1.8 6.8-2.5-.4 1.9-6.5 1.1-6.9-.8-.4-9.1 8.5-11 5.6-2.2-3.2 10.2-5.6 10.3-6.6.1-1-6.2 2.3-5.5-.6zM110.8 551.5c.5-2.1 4.7.5 4.9-.1.4-1.2-8.1-8.3-6.1-9.4 3.2-1.8 6.4 8.7 7.2 8.8 1.2.2-.3-5.4 1.5-5.1 2.2.4-1.6 5.2-.5 5.3.9.1 9.2-7.5 11-5.2 2 2.6-10.2 5.5-10.5 6.4-.2.5 6.8.5 5.4 2.8-.9 1.5-5.6-2.6-5.9-2.1-.3.5 12.9 18.7 10.4 20.3-4 2.6-10.3-19.8-11.3-20-1-.2.6 6.6-1.6 6.2-2.3-.4 1.7-6 1-6.3-.8-.4-8.3 7.8-10.1 5.1-2-3 9.3-5.1 9.5-6.1.2-1-5.5 2-4.9-.6zM203 607.8c.5-2 4.5.5 4.7-.1.3-1.1-7.6-7.8-5.8-8.9 3-1.7 6.1 8.2 6.8 8.3 1.1.2-.3-5.1 1.5-4.9 2.1.3-1.5 4.9-.4 5 .8.1 8.7-7.1 10.5-4.9 1.9 2.4-9.7 5.2-10 6.1-.2.5 6.5.5 5.2 2.6-.8 1.4-5.3-2.5-5.6-2-.3.5 12.3 17.7 9.8 19.3-3.8 2.5-9.7-18.8-10.8-19-1-.2.6 6.3-1.6 5.9-2.1-.3 1.6-5.7 1-6-.7-.4-7.9 7.4-9.6 4.9-1.9-2.8 8.8-4.9 9-5.8.2-.9-5.3 2-4.7-.5zM187.7 542.7c.2-.7 1.6.2 1.7 0 .1-.4-2.8-2.9-2.1-3.3 1.1-.6 2.2 3 2.5 3.1.4.1-.1-1.9.5-1.8.8.1-.6 1.8-.2 1.8.3 0 3.2-2.6 3.8-1.8.7.9-3.6 1.9-3.7 2.2-.1.2 2.4.2 1.9 1-.3.5-2-.9-2.1-.7-.1.2 4.5 6.5 3.6 7.1-1.4.9-3.6-6.9-3.9-7-.4-.1.2 2.3-.6 2.2-.8-.1.6-2.1.4-2.2-.3-.1-2.9 2.7-3.5 1.8-.7-1 3.2-1.8 3.3-2.1.2-.4-1.8.7-1.6-.3z"/></g><g fill="#CB3025" fill-rule="evenodd" clip-rule="evenodd"><path d="M477.5 384.5c9.3 16.6 20.5 31.9 41.7 31 4.7-.2 9.1-1.4 13.7-2.4 3.9-.9 4.1-.9 3 2.8-2.1 7.1-6.8 13.8-12.4 18.5-5.5 4.6-12.5 8-19.6 9.3-4.4.8-5.4.9-5.7-3.4-.3-4.4.1-7.8-1.8-12-3.9-8.9-12.3-13.8-19-20.1-4.2-4-1.2-5-.6-10.2.1-2.1-1-12.9.7-13.5 1.3 2.4-.3.1 0 0zM421.5 398.4c.2 2.8 4.4 6.3 2.3 7.8-2.8 2-9.3 7.7-11.8 9.8-3.4 2.9-6.6 5.9-8.9 9.8-2.1 3.6-3.2 7.6-3.1 11.8 0 3 1.3 5.2-2.3 6.4-7.3 2.4-18.7-6.1-23.5-10.5-4.3-4-12.7-13.1-12.2-19.6.3-3.8 4.9-.4 8 .4 5.6 1.5 11.2 1.9 17.1.9 7.6-1.3 14.6-5.1 20.3-10.4 5.7-5.3 10.1-11.4 13.1-18.4.4-.9.9-.4.9.4-.1 1.9-.3 5.1.1 11.6zM317.4 433.1c-35.8 19.8-92.6 31-116.9-12.4-9.3-16.6-7.8-35.3.5-52 5.1-10.4 12-19.5 20.3-27.6 1.8-1.8 9.1-10.5 12.1-8.5 1.9 1.2-3.3 10.7-3.8 12.1-6.6 19.6-12.7 47.2 5.4 62.8 14.4 12.4 37.9 11.1 55.6 8.7 13.7-1.8 27.4-5.3 40.7-9.1 6.4-1.9 12.8-4 19.1-6.3 2.8-1 11.3-5.9 14.1-5.2 7.4 2-11.4 13.4-14.9 16.1-10.3 7.9-21 14.8-32.2 21.4-9.8 5.5 3.7-2.1 0 0zM633.3 450.4c-21.3-1.5-42-10.1-60.1-20.9-7.9-4.7-15.3-10-22.7-15.4-2.4-1.8-21.6-18.4-19.8-18.5 8.2-.4 20.2 7.1 27.9 9.5 9.6 3 19.3 5.8 29.1 7.9 13.6 2.9 27.9 4.5 41.8 4.4 17.3-.2 36.4-6.9 42.2-24.8 5.3-16.4-.6-35.4-5.9-50.9-3.4-10-2.5-11.5 5.8-4.6 7.5 6.3 15 13.1 21.1 20.9 11.3 14.4 18.9 33 14.3 51.4-3.9 15.5-14.2 26.7-28.6 33.4-10.1 4.8-34 13.4-45.1 7.6-12.3-.8.7.4 0 0zM673.1 255.9c-4.2-38.9-52.4-34.8-80.5-29.4-11.4 2.2-22.7 5.2-33.7 8.7-3.5 1.1-26.2 11.7-28.4 10.1-3.8-2.7 30.7-27 35.4-30 28.9-18.5 65.7-32.4 100-22.5 35.3 10.1 52.7 44.1 34.8 77-2.5 4.6-33.3 43.4-37.4 38-2.2-2.9 7.3-24.8 8.2-29.2.8-3.8 4.6-18.5 1.6-22.7-.9-8.2.5.7 0 0zM498.3 87.4c-8.7.7-17.5 3.2-25.7 6.1-7.9 2.7-14.9 5.4-6.2-4.3 13.4-14.8 30.6-28 50.9-31 35.1-5.2 61.2 25.3 63 58.3 2 35.4-18.7 70.3-39.7 97.1-1.5 2-12.8 18.2-15.6 16.7-1.8-.9 6.9-20.9 7.7-23.5 6.3-18.9 11.1-38.1 13.3-57.9 1.6-13.7 1.9-29-4-41.8-3.9-8.5-10.3-15.4-19.3-18.4-5.4-1.8-19.2-4.4-24.4-1.3-6 .5.9-.5 0 0zM194.3 238.6c5.4-48.5 61.3-54.8 98.2-42.3 23.1 7.8 43.6 21.6 62.4 36.7 2.8 2.2 16.4 10.2 9.9 12.1-3.2 1-15-5.8-18.4-6.9-6.5-2.2-13-4.3-19.6-6.1-32.4-9.1-106.1-24.1-103.5 31.6.6 12.1 3.7 24.5 7.7 35.9 5.5 15.9-5.7 3.8-11.6-2.4-15-15.8-27.6-36.1-25.1-58.6zM316.8 113.4c2.2-31.1 26.5-57.8 59.1-55.7 15.4 1 29.4 9.4 40.9 18.9 2.1 1.8 19.1 15.6 17.7 18.5-1.9 4-14.8-2.9-19.5-4.2-13.3-3.6-29.4-7-42.8-1.7-17.1 6.8-21.7 25.2-22.3 41.8-.5 15.3 1.8 30.1 5.3 45 2.2 9.6 4.9 19.2 7.9 28.6 1.6 5.1 9.9 20.4 8.5 25.3-7.2 3.7-36.6-46.9-40-53.5-5.9-11.4-10.9-23.8-13.5-36.4-1.2-6.5-4.1-20.3-1.3-26.6 1.2-17-.4.9 0 0z"/></g><g><path fill="#FEFEFE" fill-rule="evenodd" d="M482.1 282c0 .6 0 1.3 0 1.9-.1 3.4-.1 3.3-3.4 3-2.9-.2-6.5-.2-10.2-.3-3.5-.1-3.9-.6-4.8-4-.4-1.6-1-2.1-3-2.2-1.7-.1-3.7 0-5.4 0-1.6 0-2.2-.2-1.7-2.1 1.4-5.4 4.1-10 8.9-13.1 3.3-2.2 9.8-1.1 13 1.6 4.4 3.7 6.8 9.3 6.6 15.2z" clip-rule="evenodd"/><path fill="#FECC0D" fill-rule="evenodd" d="M506.2 155.8c-1.3-4.8-5.9-4.9-9.2-3-2.9 1.7-4.8 3.8-5.9 7.2-.7 2.4-.7 10.3 3.4 12.5 2.2.9 5.3.9 7.4-.8 3.5-2.9 4.2-5.4 4.6-7.8.3-1.4.7-4.3-.3-8.1z" clip-rule="evenodd"/><path fill="#FEFEFE" fill-rule="evenodd" d="M592.7 309.7c-.4.1-.7 0-.8-.4-.1-.4.1-.7.4-.8 3.8-2.1 7.5-4.3 11.3-6.4.5-.3 1-.3 1.2.3.3.7-.3.9-.7 1.2-2.7 2-5.6 3.5-8.7 4.9-.8.5-1.8.8-2.7 1.2z" clip-rule="evenodd"/><path fill="#FEFEFE" d="M405.1 296.5c-5.6-4.9-10.9-10.1-16.8-14.5-11.1-8.3-23.2-13.9-37.2-14.7-3.3-.2-6.7 0-10.1-.2-3.5-.1-5-2-4.7-5.5.1-1.5.5-3 .6-4.5.6-5.2-.9-9.5-5.5-12.3-5.7-3.4-11.9-4.8-18.5-3.2-7.7 1.8-14.2 9.4-13.8 16.9.3 4.8-1.5 7.9-5.4 10.6-8.7 5.9-18.8 14.5-22.4 26.1-.5 1.1-1.6 10.2-1.1 12.5.2-1.2 2.3-8.6 5.7-14 2.5-3.8 6.3-6.5 10.6-8.2 3.7-1.4 7.5-2.4 11.2-3.6 2.9-1 6.5-2.2 8.2-4.9 1-1.6 1.7-3 2.1-5 .1-.5.7-1.2 1.5-.8.9.5.3 1.2.1 1.7-2.7 6.2-2 7.8-13.7 11.2-4.3.9-8.2 1.8-12.1 3.9-2.4 1.6-9.4 5.3-13.4 19.7 1.9-3.5 5-9.2 9.4-11.6 3.4-1.9 6.6-3.1 10.5-3.3 9.9-.5 15.5-1.2 23.9-12.7 1.5-2.1 2.8-4.4 4.4-6.7 2.6 3.5 5.8 6 9.7 7.7 2.7 1.2 5.6 1.8 8.4 2.7 2.8.8 3.4 1.5 2.9 4.2-1.6 9.3-.8 18.4 2.1 27.4 1.4 4.3 0 6-4.5 5.9-4.8-.1-8.9-2.1-13-4.3-5.2-2.7-10.3-5.6-15.7-8.1-2.4-1.1-3.8-2.1-6.9-3.5-2.2-1-2.9-1.3-5.1-2.5-1.4-.7-1.6-.8-2.1.2-.4.8.2 1.2 1 1.6 3.8 1.9 7.5 3.9 11.3 5.8.8.5 1.6 1 1.4 1.4-.2.4-.5.7-2.4-.3-2.8-1.5-8.7-4.7-11.4-5.8-1.4-.5-1.6-.3-1.9.4-.2.6-.5 1.3.9 1.9 2.6 1.1 8.2 3.9 11 5.4 1.8.9 1.9 1.2 1.6 1.6-.2.4-.8.2-1.6-.2-1.7-.9-3.2-1.6-4.9-2.4-8.2-3.7-8.7-3.6-9.1-2.5-.3.8-.7 1.2 2.7 2.6 2.6 1.1 5.2 2.2 8.1 3.6 1 .5 3.3 1.2 3 1.9-.5.9-2.4-.4-3.4-.8-3.1-1.3-6.3-2.8-9.5-4.2-1.2-.5-1.9-1.2-2.5.4-.5 1.1.5 1.5 1.6 2 4.1 2 8.3 3.9 12.5 5.8 8.7 4 17.4 8.3 26.4 11.5 6.8 2.4 13.7 3 20.6.3 7-2.8 9.8-9.1 7.2-16.2-.8-2.2-1.9-4.2-2.9-6.3-1.3-2.9-2.3-6-2.2-9.2.2-3.9 2.4-7 6-8 3.4-.9 6.9-1.1 10.1.5 11 5.3 19.8 13 25 24.2 2.6 5.7 2.8 11.6-.1 17.3-3 5.9-9.4 6.1-13.1.8-.4-.7-.8-1.4-1.3-2-2.8-3.4-6.3-4.7-10.7-3.7-5.5 1.3-9.1 4.8-11.3 9.8-2.2 4.9-1.5 8.1 2.3 11.9 2.8 2.8 5.8 5.3 9 7.5 4.4 3 9.3 4.9 14 7.2 1.6.8 2.6 2.2 2.1 4.1-.5 1.9-2.2 1.9-3.7 1.8-14.3-.3-28.6-.5-42.9-.8-1.7 0-2.9.3-2.8 2.3.1 1.9.9 3 3 2.8 2.8-.3 5.6-.7 8.3-1 1.7-.2 3.5-.4 5.5.6-1.3.3-2.2.5-3.1.7-3.5.5-7 1-10.4 1.5-1.7.3-2.5 1.3-2.2 3 .2 1.6 1.3 1.9 2.6 1.6 2.5-.5 5-1.1 7.5-1.6 1.7-.4 3.5-.6 5.9-.2-2.7 1.4-5 2-7.3 2.4-2.1.4-4.3.5-6.3 1.5-1.5.8-1.8 2.1-1.3 3.7.6 1.7 1.8 1.3 3.1.9 2.5-.9 5-1.8 7.5-2.5 1.6-.5 3.3-1.2 5.5-.7-1.9 1.2-3.5 1.9-5.2 2.5-2.8 1-5.6 1.9-8.4 2.9-1.4.5-2.2 1.3-1.6 2.9.6 1.5 1.7 1.4 3 .9 1.3-.6 2.7-1.1 4-1.5 13.9-4.6 27.7-9.3 41.6-13.9 5.3-1.8 10.7-3 16.4-2.6 3.6.2 6.8-1.3 9.4-4 1.1-1.2 1.6-2.5 1.3-4.1-.7-4.1-5.6-7.7-9.8-7.1-1 .1-2 .5-3 .7-2.3.6-5.1-1.2-6-3.9-.7-2.2.6-4.5 3.1-5.4 2.4-.8 4.7-.5 6.8 1 1.7 1.3 3.4 2.6 5.4 3.5 3.3 1.5 4.4.9 4.5-2.7.2-11.7.5-23.3.5-35 .6-9.6-2.3-18.2-9.7-24.7zm-77-35.9c-3 1.8-6.4 2.3-10.1 2.5-3.5-.3-7.3-.7-10.6-3-4.1-2.9-4.1-8.3.4-10.7 6.7-3.6 13.7-3.6 20.5 0 4.9 2.7 4.7 8.3-.2 11.2zm70.6 108.6c.4-2.1 2.5-3.6 5.3-3.7 3.1-.1 5.5 1.2 6 3.3.8 3.1-1.7 5.6-5.7 5.5-3.7 0-6.2-2.3-5.6-5.1z"/><path fill="#FEFEFE" fill-rule="evenodd" d="M590.4 270.8c.7-.3 1.4-.1 1.8.8.2.4.3.7.5 1.1 2.8 6.3 7.6 9.8 14.3 11 13.6 3.3 13.8 5.4 17.1 9.3 2 2.5 3.7 5.8 5.3 15.4.7-5.4.7-5.4.3-8.1-.4-2.8-1.5-6.7-3.6-10.4-5.5-10-14.4-16.6-23.8-22.8-2-1.4-2.6-2.8-2.2-5.2 1.1-5.4-.2-10.1-4.2-14-5.9-5.7-13-7.4-20.8-5.9-7.3 1.4-11.5 5.6-12.4 11.6-.4 2.6.3 5.3.3 7.9.1 4.8-1.7 6.5-6.3 6.1-11.2-1-21.8 1.3-31.7 6.3-14.5 7.2-26.5 17.6-36.4 30.4-4.4 5.6-6.5 11.8-6.3 19.1.4 11 .3 22.1-.1 33.1-.1 2.6 2.1 3.9 4.8 3 2.9-1 5.4-2.6 7.8-4.5 2.4-1.9 7-1.1 9 1.4 1.4 1.7.7 4-1.6 6.6-1.4 1.5-3 1.4-4.8.9-4.3-1.4-7.7-.4-10.4 2.8-2.5 3-1.3 8.2 2.3 9.7 3.2 1.4 6.5 2.1 10 1.7 2.6-.3 5.1 0 7.6.8 17.2 5.8 34.6 11.2 51.7 17.5.9.3 1.5.4 2.1-.4.6-.9.7-1.8-.1-2.6-.6-.7-1.5-.9-2.3-1.2-3.8-1.3-6.3-2.1-10.1-3.4-.7-.3-2.3-.8-1.9-1.8.1-.3 1.5-.1 3.3.5 3.2 1.1 4.9 1.3 8.2 2.4 3.3 1.1 3.9.2 4.3-1.1.6-2.3-1.3-3-2.7-3.3-2.3-.5-4.7-.9-7-1.5-1.5-.4-4.7-1-4.6-2.1.1-1.2 3-.2 4.2 0 3 .5 6 1.1 8.9 1.8 1.4.3 2.1-.4 2.5-1.6.4-1.3-.3-2.2-1.5-2.6-.6-.2-1.3-.2-1.9-.3-3.9-.6-12-.3-11.9-2.2.1-1.4 3.3-.8 4.8-.6 2.9.3 5.7.6 8.6 1 1.1.1 1.9-.1 2.5-1 .6-.9.9-1.9.4-2.9s-1.5-1-2.5-1c-14.2.3-28.4.6-42.7.9-1.6 0-3.4.5-4-1.7-.5-2.1.1-3.8 2.2-4.7 1.3-.6 2.6-1.2 3.9-1.8 7-3.1 13.5-7.2 18.9-12.8 4.2-4.4 4.6-8.9 1.1-13.8-1.6-2.3-3.6-4.3-5.9-5.9-4.8-3.4-9.6-2.9-13.8 1.3-1.3 1.3-2.3 2.9-3.6 4.2-3.4 3.5-8.3 3.1-11.1-1-4.3-6.3-3.8-13.1-.7-19.6 4.6-9.7 12.5-16.4 21.4-22 3.4-2.1 7.3-2.8 11.3-2.5 4.5.3 7.5 3 8.2 7.5.3 2.2.1 4.4-.5 6.6-.8 3-2.4 5.7-3.7 8.5-3.7 8.1-.5 15.3 7.9 18 6.3 2 12.7 1.6 18.8-.7 13.9-5 27-11.9 40.5-18 .7-.3 1.8-.7 1.2-1.9-.6-1.1-1.4-.7-2.2-.3-3.8 1.8-7.6 3.7-11.4 5.5-.7.3-1.7 1.1-2.3-.1-.5-1.2.6-1.4 1.4-1.8 3.7-1.8 7.5-3.6 11.2-5.4.6-.3 1.7-.6 1.2-1.7-.6-1.1-1.4-.3-2 0-3.9 1.7-7.6 3.5-11.3 5.6-.9.5-2.1 1.6-2.9.2-.7-1.3.9-1.6 1.7-2 3.8-1.9 7.5-3.8 11.3-5.6.6-.3 1.5-.5 1-1.5-.5-.9-1.2-.6-1.8-.3-3.7 1.9-7.4 3.7-11 5.7-1.3.7-2.3.9-3.1-.6-.6-1.1-1.2-1.3-2.4-.6-4.1 2.3-8.3 4.4-12.4 6.7-4.6 2.5-9.1 4.9-14.5 4.8-4.3-.1-5.7-1.9-4.3-5.9 2.9-8.3 3.5-16.8 2.5-25.5-.7-5.4-.6-5.3 4.7-6.9 4.9-1.4 9.7-3 13.5-6.7 1-.9 1.6-3 2.7-2.7 1 .3 1.7 2.1 2.5 3.3 7.3 11.7 10.6 13.5 19.3 15.3 15.7 3.3 19.9 1.5 26.7 16-2-10.3-5.4-14.4-7.9-16.6-4.9-3.9-9-5.1-14.3-6-2.8-.5-5.6-1.4-8.1-2.8-4.2-2.4-7-5.9-8.6-10.5-.5-.8-.8-1.5-.1-1.9zm-89.6 101.3c-1.1 2-3.1 2.3-5.6 2.3-.4-.1-1.3-.2-2.1-.4-2.1-.5-3.4-1.8-3.3-4 .1-2.1 1-3.7 3.4-4.2 3.4-.7 6.5-.1 7.6 1.7.8 1.5.8 3.1 0 4.6zM580.2 262c-3.6-.1-7.3-.7-10.3-3.1-3.9-3.1-3.8-7 .2-10 3.3-2.4 7.2-2.7 11.1-3.1 3.7.5 7.4.8 10.5 3.2 3.7 2.8 3.8 7.2 0 10-3.3 2.5-7.4 3.1-11.5 3zM511.1 161.7c-.9-5-2-5.8-3.3-6.5-.2-.1-.3.1-.3.2 1.2 3.9.5 7.9-.2 10.6-1.3 4.4-3.9 7.5-8.7 8.2-4.4.7-7-1.1-8.4-5.6-.1-.4-.6-2.3-1.1-2.3-.2.1-1.3 1.8-1.3 2-.4 1.9-.3 2.8-.1 3.4.6 3 1.9 5.8 3.8 8.3 1.4 1.8 1.4 3.4.3 5.3-3.4 5.9-5.8 12.3-7.9 18.8-3 9.2-5.6 17.4-7.9 26.7-.4 1.4-2.2 4.8-3.9 4.9-1.1 0-3-.1-4.4-2.7-3.4-6-7.4-11.3-13.9-14.4-2.2-1-3-3.9-2.4-6.4.5-1.8 1-3.6 1.5-5.4 1.2-4.2.6-8.1-2.8-11-3.1-2.6-3.2-5.4-1.9-8.9 4.7-12.8 5.5-26.1 1.4-39.2-1.3-4.3-2.7-6.9-4.6-11-1.7-3.7-3.3-8.9-3.4-14.7-.1-5.8 1.7-10.9 2.9-13.6.1-.2-.2-.4-.3-.2-1.6 2.5-4.4 7.5-5.8 14.6-1 5-.6 11.1.2 16.1.8 4.8 2.6 9.3 3.9 14 1.6 6.2 2.3 9 1 15.3-.2 1-1.5 4.8-2 6.1.3-2.6.9-3.9 1.1-6.1.7-7.2 0-9.8-2.3-16.3-3.4-9.5-4.2-17.8-3-27.8 1.8-8.6 4.9-14 6.6-16.4.1-.2-.1-.4-.3-.2-1.9 1.8-5.5 5.8-9 12.4-4.1 8.8-4.6 16.6-3.7 25.1.5 4.7 2.4 10.6 3.5 15.2.4 1.8 0 3.3-2.2 3.7-1.5.2-3.1.6-4.6.9-4.8 1-8.8 3.2-11.3 7.5-4.6 8.2-3.9 16.4 0 24.6 1.2 2.6 3.1 4.4 6.1 5 2.4.5 4.7 0 7-.4 2.3-.3 4.2.1 5.5 2.2 2.7 4.3.8 8.7-4.4 10-7 1.8-13 5.3-16.1 12-2.5 5.3-3.5 11.1-3.9 16.9-.5 7.4-.8 14.8.4 22.2 1.1 6.7 2.9 13.2 5.6 19.4.5 1.1 1.1 2.2 2.5 2.2 3.9 0 7.8.3 11.7-.2 1.5-.2 2.5-.8 2.4-2.6-.1-1.4 0-2.8 1.9-3.2 2.2-.5 2.5-.2 1.3-2.6-5.1-10.9-7.2-22.1-4.3-33.8 1.3-5.4 4.8-8.8 10.3-9.6 5-.8 9.3.5 12.4 5 2.6 3.7 5 7.5 8.4 10.6 3.4 3.1 9.1 4.7 13.2 2.7 4.9-2.4 7.8-7.1 9.6-12.1 5.2-15.1 10.4-31.6 13.2-48.2.7-4.1 1.6-7.9 4.4-11.2 5.3-5.9 9.2-11 7.6-19.5zM428.6 193c-1.3 1.8-3 2.8-5.3 2.5-2.4-.3-3.9-2-4.4-4.2-1.2-5.8-1.2-11.6 2.1-16.8.6-.9 1.3-1.8 2.1-2.6 2.7-2.6 6.4-2 8.2 1.4 1.2 2.3 1.2 4.7 1.1 6.9.3 5-1.1 9.1-3.8 12.8z" clip-rule="evenodd"/></g><g><g fill="#FEFEFE"><path d="M693.9 305.8c-.6 6.4-1.9 15.9-6.9 21.1 1.2 1.8 4.1 3.3 6.3 3.7-4.8-.2-7.3-1.3-8.4-1.8-2 1.3-4.2 1.8-7 1.8 7.9-1.7 14.8-18.8 16-24.8zm-1.4-9.8c.4-1.6.8-3.1 1.2-4.6-3.5-1.8-9.3-8.3-9.3-16.8 0-4.3-2.7-10.8-6.1-11.9 2.3.1 5.6 1.9 7.7 5.8 1.5-1.7 2.8-2.7 4.8-2.7 6.3 0 6.9 10.4 1.9 11.8.2 2.2 1.1 5.2 4.4 10-3-1.7-6.3-6.8-7.4-11.7 4.2.8 4.7-6.5.8-6.5-1.9 0-3 2.2-3 5.6 0 4.8 2.3 11.1 9.4 15.6-2.4 7.9-5.6 22.6-12 30.3 2.8-5.6 5-13.8 6.8-21-.9-.8-1.8-1.7-2.7-3.1-.1 4.1-1.2 10.1-4.2 14.9 2.5-12.3 1.9-18.7.3-26.4 2.3 6.1 5.5 9.4 7.4 10.7zm2.4 17.4c.2 4.6-.4 10.5-.9 11.8 1.2 2 6.1 5.1 8.6 5.2-6.5.6-10-2.5-12.4-4.1 2.3-3.4 3.7-7.7 4.7-12.9zm14-16c-4.9 1.5-6.9 3-6.8 10.9-.3-2.7-.7-5.3-.4-7.8-1.5-2.8-3-6.5-4-9.8.6 1.2 2.9 5.6 5.3 7.3l1.3-1.5c-4.2-2.8-8-12.4-8.8-18.8 2.2 7.4 8.7 16.8 13.4 19.7zm.1 2c3.8-.5 5.9 2.6 6.2 5.9.2 2.2-1.5 6-3.3 5.9.3 3.2 2 10.3 6.7 15.6-6.6-3.6-9.8-12.7-10.5-18.8 1.8 2 3.8 0 3.7-1.9-.2-1.9-1.3-2.7-2.6-2.5-2.5.3-3.9 4.8-1.9 10.6-2.8-1.1-3.7-3.7-3.8-5.7-.6-6.6 3-8.8 5.5-9.1zm11.5-28.6c.6-1 1.2-1.8 1.8-2.5-3.2.6-9.7-1.6-14-5.1 14.3 5.3 18.7-.9 25 .2-6.8 1.1-13.1 10.1-16.6 20.2.3-4.2 1.3-7.6 2.6-10.4-1.6-.9-4-2.1-5.5-2.1 2.3-.9 4.8-.8 6.7-.3zm-7.3 24.4c1.6-5.7-2.5-12 3-20.6-4.5 21 5.2 18.3 3.7 39-.3-5.9-3.1-17.7-6.7-18.4zm8 26.1c1.6-10.3 1.4-15.5-1.2-23.4 10.4 15.1-3.2 26 9.4 32.8-12.6-1.3-14.8-13.9-13-24.5.4 7 1.6 11.5 4.8 15.1zm-3.7-33.1c1.6-6.9 6.1-13.8 8.8-15.2-3.1 4.9-4.5 8.8-5.5 13.1 1.3 2.9 2.4 9.8 2.4 15.3-1.8-7.2-3.3-10.6-5.7-13.2zM737.9 272.5c0-2.2-.9-4.5-3.4-4.5-2 0-3 1.6-3 3.8 0 1.6.7 3.6 3.7 2-1.9 3.4-6.1 3.4-8.5 12.5-.4-4.6 1.3-10.4 3-12.1-1.4-3.5.1-9.7 5.5-9.7 4.5 0 9.5.1 11.4-2.1-2.2 4.8-6.7 5-7.6 5.2 1.6 1.9 2 3.3 2 6 0 2.9-2.3 5.6-5 8.8-.5 3.6-.3 6.5.1 9.5-.6.5-1.6 1.9-2.1 3-.2-4.3-.4-7.4-.3-9.9-2.7 2.8-5.3 6.8-7.3 12.8.6-15 11.5-19.4 11.5-25.3zm-9.3 34c-.3-6.7.9-12 1-13.8.3 3.9.5 7.1 1.1 9.8 2-3.6 4.4-6.7 6.2-8.1-.1 14.5 3.1 31 15.1 34-13.8 1.2-18.1-19.4-17.2-26.6-2.4 2-5.2 4.9-8 9.8.3-1.5 1-3.3 1.8-5.1zm3.5.8c1.2 11.5 5.3 17.7 14.6 22.6-5.6.5-15.2-5.7-17.4-10 1.2 1.4 2.7 2.4 3.9 2.5-1.6-3.6-2-8.6-2-10.2-.9 1.2-2.5 2.8-2.7 4.9.3-5 1.8-7.6 3.6-9.8zm33.6-9.8c1.1 5.8.6 11.3-.8 15.9 1.6.4 3.1.2 5.5-.8-1.6 5.2-5.5 21.6-22 16.6 13.4 1.3 16.6-9.6 17.3-11.8-.7 0-1.4-.1-2.1-.4-6.2 11.1-10.8 12.4-16.9 6.1 4.6 2.4 19.3-.5 19-25.6zm-11.2-36.8c6.2 1.8 7.6 3.6 8.5 7.5 2.7-1 9-4.3 11.6-4.9-3.2 1.3-11.1 6.8-13.9 11 .4-6.3-1.4-10.8-6.2-13.6zm19.2 26.3c.2 6.3.5 14.9-3 23.2 1.1-5.8 1.1-13.6-.2-17.3-1.8 1.3-6.5 1.6-11.2-1.5 5.2.8 10.3-.8 14.4-4.4zm-7.6-16.5c-3.1 4.1-1.2 10.7 2 10.7 2.1 0 3.4-1.7 3.4-3.6 0-2-1-4-3.4-3-.4-6.2 5.5-11.1 11.3-11.1-5.5 1.4-6.9 5.4-7.3 7.9 1.9 1.2 2.8 3.6 2.7 6-.1 4.6-2.5 8.3-6.8 8.3-3.7 0-5.3-3.2-5.8-5.3-1.2 3.4-.9 7.1.2 9.2-.6.5-2.1.9-3.5.4-1.1-6.6.6-14.6 7.2-19.5zm-6.5 22.7c1.3 1 2.3 1.5 3.7 1.9-.5 5.7-1.3 10.3-3.6 14 .7-5.1 1-10.2-.1-15.9zM762.7 330.8c4.5-1.7 9.9-7.8 10.7-14 .5 3.4 1.9 5.3 4.1 7-4.7-2.7-6.6 5.3-2.6 5.3 1.7 0 2.6-1.6 2.4-2.4 2 1.7 5.8 3.5 8.4 4.1h-23zm23.4-27.6c.5.5 1 1 1.5 1.5 3.5-4.7 9.8-8 14.3-8-8.1 2.6-11.1 6.9-12.8 10.8 2.1 6.7-1.2 14.2-7.3 14.2-9.3 0-8.2-14.4-1.3-14.4 2.1 0 3.7 1.5 3.7 3.7 0 2.1-1.7 3.8-3.6 2.8 1.9-.9 1.4-3.2-.2-3.2-3.3 0-4 7.7 1.3 7.7 6.3 0 6.4-11.5.5-13.9 3.2-7.4 7.8-10.7 13.7-19.2-5 10.9-9.1 15-9.8 18zm7.4-26.7c-.8.4-1.9.7-2.3.7-1.3 5-7.3 14.1-10.2 16.4 4.9-8.2 8.3-15.5 8-19.1 4.7-.7 7.4-1.8 10.6-4.7-3.5 14.7-15.3 24.5-19.5 33.7 1.7-8.9 11.6-19 13.4-27zm-12.4 48.4c1.1.2 3 0 4.2-.4 1.6 2.2 4.4 4.4 9.1 6.4-3.4 0-8.4-1.2-13.3-6zm24.9-28.1c-.9-6.7-7.3-11.3-4.8-30.4-3.8 2-8.4 4.6-11.6 4.6 2.8-.4 10.4-4.5 13.9-8.2-1.2 10.5.7 21.2 4 27 2.2-2.5 3.4-4.4 7.2-5.8-3.9 3.5-6.3 8-8.7 12.8zm3.1 18.9c0-10.2-6.8-15.8-16.4-10.6 3.9-3.7 11.4-7.2 16.7-6.4-2.9 1.8-2.7 8.9 2.3 8.9s6-11-2.5-11c1-2.9 3.4-6.9 7.3-10.2-1.9 2.7-3 5.7-3.4 8 3.1.4 5.9 4.6 5.9 9.3 0 1.6-.4 3.4-1.2 4.9 1 4.2 2.9 10.1 6.6 14.1-3.1-1.2-7.5-7.6-9.4-11.3-.6.3-1.3.5-2.1.5.6 3.8.2 16.5-11.1 18.8 5.9-2.7 7.3-7.7 7.3-15zm-1.4-30.3c-1.8-5-3.1-12-3.1-16.9 1 5.7 3.3 10.8 5.7 14.8-.5.2-1.9 1.3-2.6 2.1zm7.2 31.4c3.4 6.5 8 10.4 16.9 14-7-.3-11.5-2-14.7-5-1.2 2.5-5.5 5-7.9 5 3.2-2.1 6.6-8.2 5.7-14z"/></g><g fill="#FEFEFE"><path d="M847.2 281.4c-.6-5.8.3-10.3 2-12.5.1-.1 0-.3-.1-.3-2.5-1-4.2-2.4-6.6-4.3-.2-.1-.1-.4.1-.4 5.8 2 8.6 1.9 13.9.2.2-.1.3.3.1.4-4.3 3-8.1 9-9.1 16.9 0 .2-.3.2-.3 0zm6.4 45.1c3.7 0 3.4-5.9.9-5.9-.8 0-1.4.5-1.9 1-.1.2-.4 0-.3-.2.9-2.2 2.6-2.8 3.4-2.8 2.8 0 3.9 4.5 2.8 8.1 0 .1 0 .2.1.3 1.1.6 2.4 1.5 3.8 3.5.1.2 0 .4-.2.3-2.7-1.6-4.4-1.4-5.3-1.1-.9.8-1.9 1.3-3.3 1.3-2.3 0-4.4-1.4-5.1-3.6 0-.1-.2-.2-.3-.1-2 2.2-4.2 3.4-7.3 3.6-.2 0-.3-.3-.1-.4 3.1-1.6 6.3-5 6.3-8.2 0-6.8 1.8-11.6 5.9-15.3.1-.1.1-.1.1-.2-.6-2.9-3.8-6.4-6.2-9.1-.1-.2 0-.4.2-.4 4.1 2 10.1 7.6 11.2 11.6 0 .1-.1.3-.2.3-2.6-.2-4.7 1.3-6.1 3.9-.1.2 0 .4.2.3 1.7-.5 3.6-.1 5 1.2.1.1 0 .4-.1.4-4.4-1.3-6.6 2.6-6.6 5.6-.2 3.7 1 5.9 3.1 5.9zm-1.7-32.1c-2-1-5.7-3.9-7.1-9.9-.1-.2.2-.4.3-.2.6 1.3 1.4 2.6 2.7 3.4.1.1.2 0 .2-.2.3-5.3 1.3-17.2 12.1-23.1.2-.1.3.2.2.4-9.9 10.3-10.7 18.8-8.2 29.3 0 .2-.1.4-.2.3zm.2 11.9c-2.4 2.2-4.6 6.1-5.4 9.4-.1.2-.3.2-.3 0-.3-5.5 2.2-10.9 3.5-12.3.1-.1.1-.1.2 0 .5.4 1.5 1.5 2 2.7.1 0 .1.1 0 .2zm5.8-35c.6 8 5.1 13.4 9.1 18.7.1.2-.1.5-.2.3-4.1-4-8.5-8.5-10.4-12.4-.1-.2-.3-.1-.3.1-2.6 12.7 4.1 15.8 2.2 27.2 0 .2-.2.2-.3.1-2-4.6-5.8-6.8-9.5-8.4-.2-.1-.1-.4.1-.4 3.3.4 4.8.5 6 .3.1 0 .2-.2.1-.3-2.4-5.1-5.2-15.8 3-25.3.1-.1.2-.1.2.1zm9.8 22.2c.1.1.1.3 0 .3-2.7 1.9-2.1 7.6 1.4 7.6 2.6 0 2.9-5.2.7-5.9-.1 0-.2-.3-.1-.4 3.6-3.2 6.8-6.5 11.7-16.4.1-.2.4-.1.3.2-3.2 11.2-10.7 18.7-8.6 30.2 0 .2-.1.3-.3.2-10.2-9.5-9.4-17-14.1-25.5-.1-.2.1-.4.2-.3 2.8 2.5 7.5 8.5 8.8 10zm13.6-2.5c2.4-3.1 4.1-4.6 6.2-6.4 0 0 .1-.1.1-.1.3-1.2.5-2.9.5-4.4 0-.2.2-.3.3-.1.5 1 .9 1.8 1 2.7 0 .1.2.2.3.1.9-.7 1.7-1.2 2.5-1.7.1-.1.1-.3 0-.4-1.6-1.6-3.1-3.3-3.1-7.8 0-1.8-.3-5.6-3-8.6-.1-.2 0-.4.2-.3 2.3 1.1 3.6 2.2 4.4 3.3.1.1.2.1.2 0 .9-1.1 2.2-1.9 4.1-1.9 1.1 0 2 .4 2.9.9.1 0 .1 0 .2 0 1.3-1 3.7-2.3 6.1-2.7.2 0 .3.3.1.4-2.2 1-4 2.7-4.7 3.9 0 .1 0 .2 0 .2.7 1 1.1 2.4 1.1 3.7 0 1.9-1.1 5.3-3.2 5.3-1.7 0-2.6-1.1-3.1-2.9 0-.1 0-.3.2-.3 1.3 0 2.3-1.7 2.3-2.7 0-1.4-1-2.4-2.3-2.4-1.4 0-2.6 1.8-2.6 4.2 0 2.5 1.1 6.7 5.8 8.9.1.1.1.3 0 .4-8.9 4.2-15.8 9.1-23.7 21.4-.1.2-.3 0-.3-.2 2.3-13.3 14.6-23.2 7.4-39.4-.1-.2.1-.4.2-.3 10.7 8.9 2.7 20.6-.6 26.8.1.3.4.5.5.4zm4.3 40.2c-1.3.7-3.9 1.5-6.2 1.7-.2 0-.2-.3-.1-.4 1.4-.8 2.8-2.2 4.8-4.5.1-.1.2-.1.3.1.2 1 .7 2 1.2 2.8.1.1.1.2 0 .3zm2.5-30.2c-1 3.1-2.1 6.5-.7 13.6 0 .2-.2.4-.3.2-2.8-5.2-3.3-11.2-1.9-16.5 0-.1.1-.2.2-.1.9.5 2 1.6 2.6 2.6.1.1.1.2.1.2zm5.6-10.4c1.1 1.8 2.7 5.3 3.4 10.1 0 .2-.2.4-.3.1-1.1-2.5-3.1-5.4-4.9-7-.1-.1-.2 0-.2.1-.3.6-.5 1.1-.8 1.8 0 .1 0 .2 0 .3 1.8 1.8 7.5 11.2 7.5 21.4 0 4.9-1.2 14.1-7.2 14.1-3.7 0-5.9-2.1-5.9-6.4 0-4.4 2.7-7.2 4.4-6.5.1 0 .2 0 .2-.2.1-1.3.5-6.1-.9-11.7-.1-.2.2-.4.3-.2 3.6 6.5 4 12.3 2.2 17.1-.1.2-.3.2-.3-.1-.2-1.4-.8-1.8-1.5-1.8-2.6 0-2.3 5.8 1 5.8 3.2 0 4.3-5.3 4.3-9.8 0-10-5.4-19.1-9-21.4-.1-.1-.1-.2-.1-.3 2.7-5.1 6.5-8.4 10.8-9.9.2-.1.3.2.2.4-1.4 1.5-2.5 2.7-3.3 3.9.1 0 .1.1.1.2zm16.2 41.6s-2.6.1-2.8 0l-5.3-3.2c-3.6-2.1-4.1 4.2-.6 1.4.2-.1 1 1.9.9 1.9h-6.7c-.2 0-.3-.3-.1-.4 2.2-1.3 3.7-3 4.3-9.2 0-.2.2-.3.3-.1 1.1 2.1 9.1 9.4 10 9.6zM910.7 304.6c.5.5 1 1 1.5 1.5 3.5-4.7 9.8-8 14.3-8-8.1 2.6-11.1 6.9-12.8 10.8 2.1 6.7-1.2 14.2-7.3 14.2-9.3 0-8.2-14.4-1.3-14.4 2.1 0 3.7 1.5 3.7 3.7 0 2.1-1.7 3.8-3.6 2.8 1.9-.9 1.4-3.2-.2-3.2-3.3 0-4 7.7 1.3 7.7 6.3 0 6.4-11.5.5-13.9 3.2-7.4 7.8-10.7 13.7-19.2-5 10.9-9.1 15.1-9.8 18zm7.4-26.7c-.8.4-1.9.7-2.3.7-1.3 5-7.3 14.1-10.2 16.4 4.9-8.2 8.3-15.5 8-19.1 4.7-.7 7.4-1.8 10.6-4.7-3.5 14.7-15.3 24.5-19.5 33.7 1.6-8.8 11.6-18.9 13.4-27zm-12.4 48.4c1.1.2 3 0 4.2-.4 1.6 2.2 4.4 4.4 9.1 6.4-3.4.1-8.4-1.1-13.3-6zm24.9-28c-.9-6.7-7.3-11.3-4.8-30.4-3.8 2-8.4 4.6-11.6 4.6 2.8-.4 10.4-4.5 13.9-8.2-1.2 10.5.7 21.2 4 27 2.2-2.5 3.4-4.4 7.2-5.8-3.9 3.5-6.3 7.9-8.7 12.8zm3.1 18.8c0-10.2-6.8-15.8-16.4-10.6 3.9-3.7 11.4-7.2 16.7-6.4-2.9 1.8-2.7 8.9 2.3 8.9s6-11-2.5-11c1-2.9 3.4-6.9 7.3-10.2-1.9 2.7-3 5.7-3.4 8 3.1.4 5.9 4.6 5.9 9.3 0 1.7-.4 3.4-1.2 5 1 4.2 2.9 10.1 6.6 14.1-3.1-1.2-7.5-7.6-9.4-11.3-.6.3-1.3.5-2.1.5.6 3.8.2 16.5-11.1 18.8 5.9-2.7 7.3-7.7 7.3-15.1zm-1.4-30.3c-1.8-5-3.1-12-3.1-16.9 1 5.7 3.3 10.8 5.7 14.8-.5.3-1.9 1.4-2.6 2.1zm7.2 31.5c3.4 6.5 8 10.4 16.9 14-7-.3-11.5-2-14.7-5-1.2 2.5-5.5 5-7.9 5 3.2-2.2 6.6-8.3 5.7-14zM957.1 307.3c-1.4 6.3-9.5 17.7-5.6 19.6 3.8 1.8 5.7-13.1 5.6-19.6zm-1.1-9.6c.4-1.7.8-3.1 1.2-4.6-3.5-1.8-9.3-8.3-9.3-16.8 0-4.3-2.7-10.8-6.1-11.9 2.3.1 5.6 1.9 7.7 5.8 1.5-1.7 2.8-2.7 4.8-2.7 6.3 0 6.9 10.4 1.9 11.8.2 2.2 1.1 5.2 4.4 10-3-1.7-6.3-6.8-7.4-11.7 4.2.8 4.7-6.5.8-6.5-1.9 0-3 2.2-3 5.6 0 4.8 2.3 11.1 9.4 15.6-2.4 7.9-5.6 22.6-12 30.3 2.8-5.6 5-13.8 6.8-21-.9-.8-1.8-1.7-2.7-3.1-.1 4.1-1.2 10.1-4.2 14.9 2.5-12.3 1.9-18.7.3-26.4 2.4 6.1 5.6 9.4 7.4 10.7zm1.6 17c1.5 7 .7 10.9 0 12.2 1.2 2 6.1 5.1 8.6 5.2-6.5.6-10.5-2.8-12.9-4.4 3.3-2 4-7.5 4.3-13zm14.7-15.7c-4.9 1.5-6.9 3-6.8 10.9-.3-2.7-.7-5.3-.4-7.8-1.5-2.8-3-6.5-4-9.8.6 1.2 2.9 5.6 5.3 7.3l1.3-1.5c-4.2-2.8-8-12.4-8.8-18.8 2.2 7.5 8.7 16.8 13.4 19.7zm.1 2c3.8-.5 5.9 2.6 6.2 5.9.2 2.2-1.5 6-3.3 5.9.3 3.2 2 10.3 6.7 15.6-6.6-3.6-9.8-12.7-10.5-18.8 1.8 2 3.8 0 3.7-1.9-.2-1.9-1.3-2.7-2.6-2.5-2.5.3-3.9 4.8-1.9 10.6-2.8-1.1-3.7-3.7-3.8-5.7-.5-6.6 3-8.8 5.5-9.1zm11.5-28.6c.6-1 1.2-1.8 1.8-2.5-3.2.6-9.7-1.6-14-5.1 14.3 5.3 18.7-.9 25 .2-6.8 1.1-13.1 10.1-16.6 20.2.3-4.2 1.3-7.6 2.6-10.4-1.6-.9-4-2.1-5.5-2.1 2.3-.9 4.8-.8 6.7-.3zm-7.2 24.5c1.6-5.7-2.5-12 3-20.6-4.5 21 5.2 18.3 3.7 39-.3-5.9-3.1-17.8-6.7-18.4zm7.9 26.1c1.6-10.3 1.4-15.5-1.2-23.4 10.4 15.1-3.2 26 9.4 32.8-12.6-1.3-14.8-13.9-13-24.5.4 6.9 1.6 11.5 4.8 15.1zm-3.7-33.1c1.6-6.9 6.1-13.8 8.8-15.2-3.1 4.9-4.5 8.8-5.5 13.1 1.3 2.9 2.4 9.8 2.4 15.3-1.7-7.2-3.3-10.6-5.7-13.2zM1000.6 304.5c.5.5 1 1 1.5 1.5 3.5-4.7 9.8-8 14.3-8-8.1 2.6-11.1 6.9-12.8 10.8 2.1 6.7-1.2 14.2-7.3 14.2-9.3 0-8.2-14.4-1.3-14.4 2.1 0 3.7 1.5 3.7 3.7 0 2.1-1.7 3.8-3.6 2.8 1.9-.9 1.4-3.2-.2-3.2-3.3 0-4 7.7 1.3 7.7 6.3 0 6.4-11.5.5-13.9 3.2-7.4 7.8-10.7 13.7-19.2-5 10.9-9.1 15.1-9.8 18zm7.4-26.7c-.8.4-1.9.7-2.3.7-1.3 5-7.3 14.1-10.2 16.4 4.9-8.2 8.3-15.5 8-19.1 4.7-.7 7.4-1.8 10.6-4.7-3.5 14.7-15.3 24.5-19.5 33.7 1.6-8.8 11.6-18.9 13.4-27zm-16.7 44.9c2.3 2 5.5 1.5 6.8 1.1-1 2.9-.8 6 .2 8.9-2.8-2.3-5-3.7-7-10zm29.2-24.5c-.9-6.7-7.3-11.3-4.8-30.4-3.8 2-8.4 4.6-11.6 4.6 2.8-.4 10.4-4.5 13.9-8.2-1.2 10.5.7 21.2 4 27 2.2-2.5 3.4-4.4 7.2-5.8-3.9 3.5-6.4 7.9-8.7 12.8zm3.1 18.8c0-10.2-6.8-15.8-16.4-10.6 3.9-3.7 11.4-7.2 16.7-6.4-2.9 1.8-2.7 8.9 2.3 8.9s6-11-2.5-11c1-2.9 3.4-6.9 7.3-10.2-1.9 2.7-3 5.7-3.4 8 3.1.4 5.9 4.6 5.9 9.3 0 1.7-.4 3.4-1.2 5 1 4.2 2.9 10.1 6.6 14.1-3.1-1.2-7.5-7.6-9.4-11.3-.6.3-1.3.5-2.1.5.6 3.8.2 16.5-11.1 18.8 5.8-2.8 7.3-7.7 7.3-15.1zm-1.4-30.3c-1.8-5-3.1-12-3.1-16.9 1 5.7 3.3 10.8 5.7 14.8-.5.3-1.9 1.4-2.6 2.1zm7.2 31.5c3.4 6.5 8 10.4 16.9 14-7-.3-11.5-2-14.7-5-1.2 2.5-5.5 5-7.9 5 3.2-2.2 6.6-8.3 5.7-14z"/></g><g fill="#FEFEFE"><path d="M849.2 261c-2.4 0-4.4-.8-5.8-2.5-1.4-1.6-2.2-4.1-2.2-7.3s.6-5.6 1.9-7.2c1.3-1.6 3.3-2.4 6.1-2.4 1.2 0 2.3.2 3.4.5s1.8.6 2.2.8c.4.2.7.4.9.6 0 1.1-.1 2.4-.4 3.8-.5.2-.9.3-1.4.3s-.8 0-1.2-.1l-.6-2.8c-.8-.2-1.6-.3-2.3-.3-1.1 0-2.4.2-3.9.6-.8 1.6-1.2 3.5-1.2 5.7 0 4.9 1.4 7.4 4.3 7.4 1.4 0 2.6-.2 3.5-.7 0-.9.1-2.4.1-4.3l-2.2-.7.2-1.6h6.5c.2.4.4 1.1.5 2.1-.6.1-1.3.2-2 .3.1 2.3.2 4.3.2 5.9-.5.3-1.5.7-2.8 1.2s-2.6.7-3.8.7zM871.8 247c.3 0 .6 0 .6 0 0 .9-.2 1.7-.5 2.4-.1 3.9-.2 6.8-.3 8.7.8.1 1.5.2 2.1.4l-.1 1.9c-1.1.3-2 .5-2.8.5-.8 0-1.3 0-1.6-.1-.2-.4-.4-.9-.5-1.3-1.5 1-2.6 1.5-3.2 1.5-3.2 0-4.8-1.6-4.8-4.8 0-.9.1-3 .2-6.5-.9 0-1.8-.1-2.6-.4 0-.4.1-1.1.2-1.9 1.1-.3 2.9-.4 5.4-.4.3 0 .6 0 .6 0 0 .9-.2 1.7-.5 2.4v5.4c0 1.1.1 2 .4 2.5.2.5.8.8 1.6.8s1.6-.3 2.5-.8l-.2-7.6c-.8 0-1.5-.2-2.2-.4 0-.4.1-1.1.2-1.9 1.2-.3 3-.4 5.5-.4zM880.5 247c.3 0 .6 0 .6 0 0 .9-.2 1.7-.5 2.4-.1 3.9-.1 6.7-.1 8.7l2.1.2c0 .7-.2 1.5-.6 2.3h-6.7l-.2-1.5c1.1-.4 1.9-.7 2.4-.8l-.3-8.7c-1.1-.1-1.8-.2-2.3-.4 0-.4.1-1.1.2-1.9 1.1-.2 2.9-.3 5.4-.3zm-4-2.8l4.2-3.5c1.1.8 1.6 1.6 1.7 2.3-.5.4-1 .9-1.8 1.4s-1.5 1-2.5 1.5c-.5-.5-1.1-1-1.6-1.7zM888.3 261c-1.5 0-2.7-.3-3.5-.9s-1.2-1.7-1.2-3.2c0-1.4.5-2.6 1.5-3.5.6-.5 1.4-.8 2.4-.9 1-.1 2.4-.1 4.2-.1v-.4c0-1.1-.2-1.9-.5-2.4s-1-.8-1.8-.8c-.4 0-.8.1-1.2.3l-.6 2.3-2-.1c-.4-.7-.7-1.8-.7-3.2.4-.2 1.2-.5 2.5-.8 1.3-.4 2.2-.5 2.5-.5 1.9 0 3.3.4 4.2 1.2.9.8 1.3 2.1 1.3 3.8 0 1.7-.1 4-.2 6.8 1 .1 1.8.2 2.4.5 0 .2 0 .5 0 .8v.6c-1.3.4-2.6.6-3.9.6-.3 0-.6 0-.8 0-.3-.5-.4-1.2-.5-1.9h-.1c-.3.3-.9.7-1.8 1.2s-1.7.6-2.2.6zm-.8-2.6c.4.3.8.4 1.2.4s1-.2 1.7-.6c.6-.4 1.2-.8 1.6-1.1l-.1-2.5c-1.4.1-2.5.2-3.2.4-1.1.2-1.7.9-1.7 2.1-.1.6.1 1 .5 1.3zM907.5 247.9v.8c0 1.4-.1 2.3-.3 2.7-.6.2-1.4.3-2.5.3l-.9-2.7c-.2-.1-.6-.1-1-.1s-.7.1-1 .4c-.3.3-.4.5-.4.9 0 .3.1.6.4.9.3.3.5.5.8.7s.7.4 1.2.6c.5.3 1 .5 1.2.6.3.1.6.4 1.1.6.4.3.8.6 1 .8.6.7.9 1.4.9 2.2 0 1.4-.5 2.4-1.6 3.2-1 .7-2.3 1.1-3.8 1.1-.8 0-1.7-.1-2.6-.4-1-.3-1.8-.7-2.4-1.2 0-1.3.1-2.5.4-3.6.7-.1 1.3-.1 1.7-.1.4 0 .7 0 .9 0l.3 2.6c.4.2 1 .2 1.6.2.6 0 1.1-.1 1.5-.4s.5-.6.5-1.1-.2-.8-.6-1.1c-.4-.3-1-.6-1.7-1-.7-.3-1.3-.6-1.7-.8-.4-.2-.8-.5-1.3-.9-.9-.7-1.4-1.6-1.4-2.6 0-1.3.4-2.3 1.3-3 .9-.7 2.1-1.1 3.6-1.1s3.3.7 4.8 1.5zM920.4 267.2c-.5 0-1.1-.1-1.7-.3-.6-.2-1.3-.4-2-.8.1-2.1.2-3.3.3-3.7.7-.2 1.2-.3 1.7-.3.4 0 .7 0 .8 0l.9 2.7h.2c.4-.1.8-.5 1.3-1.5.4-.9.7-1.8.9-2.7h-1.1l-4-11-2.1-.2c0-.7.2-1.5.6-2.3h6.7l.2 1.5c-.7.3-1.3.6-1.8.7l2 6.3.2 1.2h.6l2.3-7.5c-.6-.1-1.4-.3-2.2-.7l.2-1.5h6.7c.4.8.6 1.6.6 2.3-.7.1-1.4.2-2.1.2-1.6 4.7-2.9 8.4-3.8 10.9s-1.7 4.3-2.4 5.2c-.7 1-1.7 1.5-3 1.5zM946.5 258.1c2.1 0 3.1-.9 3.1-2.7 0-.7-.4-1.4-1.2-1.9-.6-.4-1.4-.8-2.3-1.3-1-.5-1.7-.8-2.2-1.1-.5-.3-1.1-.6-1.7-1.1-1.2-.9-1.8-2.1-1.8-3.5s.5-2.6 1.6-3.5 2.6-1.4 4.5-1.4 3.9.6 6 1.8c0 1.3-.1 2.7-.4 4.2-.6.2-1.4.3-2.5.3l-.8-3.2c-.7-.2-1.4-.3-2.2-.3-.8 0-1.4.2-1.8.5-.4.3-.6.8-.6 1.5s.3 1.3 1 1.8 1.5 1 2.4 1.4c.9.4 1.6.7 2 .9.4.2.8.4 1.4.8.6.4 1 .7 1.3 1 .7.9 1.1 1.8 1.1 2.9 0 1.9-.6 3.3-1.8 4.3-1.2 1-2.8 1.5-4.8 1.5-1.1 0-2.2-.2-3.5-.5-1.3-.4-2.3-.8-3.2-1.4 0-1.1.2-2.6.4-4.4.7-.1 1.6-.2 2.6-.2l.6 3.2c.7.3 1.7.4 2.8.4zM962.2 249h-.4c-1 0-1.8.3-2.4 1s-.9 1.8-.9 3.5c0 1.6.2 2.8.7 3.7.5.8 1.3 1.3 2.6 1.3.6 0 1.9-.4 3.9-1.2.4.6.7 1.3.7 2-1 .6-1.9 1.1-2.9 1.4-.9.3-1.6.5-2 .5-2.2 0-3.8-.6-4.9-1.8-1.1-1.2-1.6-2.9-1.6-5.1 0-4.9 2.2-7.4 6.7-7.4.8 0 1.6.1 2.4.3.8.2 1.5.4 1.9.7-.1 1.8-.3 3.1-.6 3.9-.6.1-1.4.2-2.5.2l-.7-3zM974.5 246.8c2.1 0 3.8.6 5 1.9 1.3 1.3 1.9 3.1 1.9 5.3 0 2.3-.6 4-1.9 5.2-1.3 1.2-3 1.8-5.1 1.8-2.1 0-3.8-.6-5-1.8-1.3-1.2-1.9-2.9-1.9-5.2 0-2.3.6-4.1 1.9-5.3 1.4-1.3 3-1.9 5.1-1.9zm0 2.1c-.6 0-1.4.2-2.2.5-.2.4-.5 1-.7 1.9s-.3 1.8-.3 2.7c0 1.7.2 2.9.7 3.6.5.7 1.3 1.1 2.4 1.1s1.9-.4 2.4-1.1c.5-.7.8-1.9.8-3.6 0-1.7-.3-3-.8-3.8-.4-.9-1.2-1.3-2.3-1.3zM994.7 247c.3 0 .6 0 .6 0 0 .9-.2 1.7-.5 2.4-.1 3.9-.2 6.8-.3 8.7.8.1 1.5.2 2.1.4l-.1 1.9c-1.1.3-2 .5-2.8.5-.8 0-1.3 0-1.6-.1-.2-.4-.4-.9-.5-1.3-1.5 1-2.6 1.5-3.2 1.5-3.2 0-4.8-1.6-4.8-4.8 0-.9.1-3 .2-6.5-.9 0-1.8-.1-2.6-.4 0-.4.1-1.1.2-1.9 1.1-.3 2.9-.4 5.4-.4.3 0 .6 0 .6 0 0 .9-.2 1.7-.5 2.4v5.4c0 1.1.1 2 .4 2.5.2.5.8.8 1.6.8s1.6-.3 2.5-.8l-.2-7.6c-.8 0-1.5-.2-2.2-.4 0-.4.1-1.1.2-1.9 1.1-.3 2.9-.4 5.5-.4zM1001 261h-.6c-.1-.2-.3-.6-.4-1.1s-.3-.9-.3-1.2c-.1-1.8-.2-4.8-.3-9.2h-1.9l.1-1.5c.4-.3.9-.5 1.5-.8l2.2-3.4c.7.1 1.2.3 1.6.6v2.5c1.1 0 2.2.1 3.1.3 0 .7-.2 1.5-.7 2.3h-2.5c-.1 3.7-.1 6.6-.1 8.4.7.1 1.7.3 2.9.6v1.4c-.3.2-1 .4-2 .7-1.1.3-1.9.4-2.6.4zM1017 247.9v.8c0 1.4-.1 2.3-.3 2.7-.6.2-1.4.3-2.5.3l-.9-2.7c-.2-.1-.6-.1-1-.1s-.7.1-1 .4c-.3.3-.4.5-.4.9 0 .3.1.6.4.9.3.3.5.5.8.7s.7.4 1.2.6c.5.3 1 .5 1.2.6.3.1.6.4 1.1.6.4.3.8.6 1 .8.6.7.9 1.4.9 2.2 0 1.4-.5 2.4-1.6 3.2-1 .7-2.3 1.1-3.8 1.1-.8 0-1.7-.1-2.6-.4-1-.3-1.8-.7-2.4-1.2 0-1.3.1-2.5.4-3.6.7-.1 1.3-.1 1.7-.1.4 0 .7 0 .9 0l.3 2.6c.4.2 1 .2 1.6.2.6 0 1.1-.1 1.5-.4s.5-.6.5-1.1-.2-.8-.6-1.1c-.4-.3-1-.6-1.7-1-.7-.3-1.3-.6-1.7-.8-.4-.2-.8-.5-1.3-.9-.9-.7-1.4-1.6-1.4-2.6 0-1.3.4-2.3 1.3-3 .9-.7 2.1-1.1 3.6-1.1s3.3.7 4.8 1.5z"/></g><g fill="#C9CBD1"><path d="M55.2 654.7c0 2.4 0 4.2-.1 5.6h2.6l.3-1.7c.9 0 1.7.2 2.5.6v5l-1.7.1c-.4-.6-.6-1.1-.7-1.6h-3l-.1 4.8 2.5.3c0 .7-.2 1.4-.6 2.2H50l-.2-1.4c1.1-.4 1.8-.7 2.1-.7 0-1 0-2.4-.1-4.2-.1-4.1-.1-7.1-.2-9.2l-2.1-.7.2-1.5h12.4c.1.5.1 1 .1 1.7s-.1 1.7-.4 2.9c-.4.1-.9.2-1.7.2h-.7l-.6-2.2h-3.6zM75.8 656.9c.3 0 .5 0 .6 0 0 .9-.1 1.6-.4 2.2-.1 3.7-.2 6.5-.3 8.2.8.1 1.4.2 2 .4l-.1 1.8c-1 .3-1.9.5-2.7.5s-1.3 0-1.5-.1c-.2-.4-.4-.8-.5-1.2-1.4.9-2.4 1.4-3 1.4-3 0-4.5-1.5-4.5-4.6 0-.8.1-2.9.2-6.1-.9 0-1.7-.1-2.5-.4 0-.4.1-1 .2-1.8 1-.3 2.7-.4 5.1-.4.3 0 .5 0 .6 0 0 .8-.1 1.6-.4 2.3v5.1c0 1.1.1 1.9.3 2.4.2.5.7.7 1.5.7s1.5-.3 2.3-.8l-.2-7.2c-.7 0-1.4-.2-2.1-.4 0-.4.1-1 .2-1.8 1.1-.1 2.8-.2 5.2-.2zM90.9 657.9c.8.8 1.1 2 1.1 3.5s-.1 3.5-.3 6l2 .2c0 .7-.2 1.4-.6 2.2h-6.3l-.2-1.4c.8-.3 1.5-.6 2.2-.8-.1-1.9-.1-3.6-.2-4.9-.1-1.3-.2-2.2-.4-2.7s-.7-.7-1.3-.7c-1 0-2 .2-2.8.6 0 .7-.1 1.9-.1 3.6-.1 1.6-.1 3-.1 3.9l2 .2c0 .7-.2 1.4-.6 2.2H79l-.2-1.4c.8-.3 1.6-.6 2.3-.8 0-1-.1-2.4-.2-4.2-.1-1.8-.1-3.1-.2-4-.6-.1-1.3-.2-2-.4l.1-1.8c1.2-.3 2.5-.5 4-.5.2.1.4.5.8 1.1.6-.3 1.3-.6 2.1-.8.8-.3 1.3-.4 1.5-.4 1.7.1 3 .5 3.7 1.3zM105.8 651c.3 0 .5 0 .6 0 0 .9-.1 1.6-.3 2.3-.1 1.8-.1 4.4-.2 7.8-.1 3.4-.2 5.6-.2 6.7 1 .1 1.7.3 2.2.4v1.2c-1.1.5-2.5.7-4.4.7-.1-.2-.2-.6-.4-1.4-1.6.8-2.7 1.3-3.4 1.4-1.7 0-3-.6-3.9-1.9-.9-1.3-1.3-2.9-1.3-4.8 0-2 .4-3.6 1.3-5 .9-1.3 2.1-2 3.8-2 .9 0 1.9.3 2.9.9l-.1-3.7c-.8-.1-1.5-.2-2-.4 0-.4.1-1 .2-1.8 1.1-.2 2.8-.4 5.2-.4zm-5.7 8c-1.5 0-2.2 1.4-2.2 4.2 0 1.6.3 2.8.9 3.6.3.5.7.7 1.2.7.9 0 1.8-.3 2.9-.9l-.2-6.5c-1-.7-1.9-1.1-2.6-1.1zM112.7 666.7c.2.6.2 1.1.2 1.6 0 .4 0 .9-.1 1.5-.6.2-1.1.2-1.6.2s-1.1 0-1.7-.1c-.2-.7-.3-1.2-.3-1.5 0-.3 0-.8.1-1.5.6-.2 1.1-.2 1.6-.2s1.2-.1 1.8 0zM124.1 661.2h-.9c-.3 0-.8-.1-1.5-.2-.3-.9-.5-2-.5-3.3.5-.5 1.1-.9 2-1.3.9-.4 1.7-.6 2.4-.6 1.6 0 2.8.4 3.8 1.2 1 .8 1.4 1.7 1.4 2.8 0 1-.2 2-.7 2.8-.5.8-1.3 1.7-2.4 2.7l-2.7 2.3h2.8c.2-1.3.3-2.1.4-2.3.2 0 .5-.1.9-.1s.9.1 1.3.3c.2 1.2.4 2.3.4 3.4v.9h-9.3c-.3-.6-.4-1.3-.4-2 3.7-3.5 5.7-5.7 6.1-6.3.2-.4.3-1 .3-1.7 0-.4-.2-.8-.5-1.2-.3-.4-.9-.6-1.5-.6-.3 0-.6 0-.7 0-.1.4-.2.9-.3 1.7-.3.9-.4 1.4-.4 1.5zM138.7 660.2c0-1.4-.8-2.2-2.3-2.2-.2 0-.3 0-.6.1l-.6 3.1c-1.2 0-2-.1-2.4-.2-.3-.9-.5-2-.5-3.1v-.2c.4-.5 1-.9 1.9-1.3s1.7-.6 2.3-.6c1.6 0 2.9.4 3.9 1.2 1 .8 1.5 1.7 1.5 2.8 0 1.5-.7 2.7-2.2 3.6.8.3 1.5.7 2.1 1.5.6.7.8 1.7.8 2.8 0 1.1-.4 2.1-1.1 3.1-.7.9-1.6 1.6-2.5 2-1 .4-2 .6-3.1.6s-2.4-.3-3.9-.8c0-.9.2-1.5.6-2l.8.2c.8.2 1.5.3 2 .3s.9 0 1.2-.1c.3-.1.7-.2 1.1-.3.5-.2.9-.5 1.2-.9.3-.5.5-1.1.5-1.8s-.3-1.4-.8-1.9-1.2-.8-2-.8c-.1 0-.6 0-1.7.2-.2-.7-.3-1.2-.3-1.4s0-.5.1-.8l1.5-.2c.7-.1 1.3-.4 1.9-.9.4-.6.6-1.2.6-2zM151.8 652.1c.4 0 1.1.1 2 .2l-6.7 17.6c-.4.1-.8.1-1.5.1-.6 0-1.1 0-1.4-.1l6.4-17.7c.3-.1.7-.1 1.2-.1zM160.7 655.9c2.1 0 3.6.6 4.6 1.8s1.4 2.9 1.4 5.1c0 2.2-.5 4-1.4 5.3s-2.5 2-4.6 2c-2.1 0-3.6-.6-4.5-1.8s-1.4-3-1.4-5.4c0-4.6 1.9-7 5.9-7zm-1.3 11.7c.3.2.8.3 1.3.3s.9-.1 1.3-.3c.3-.2.6-.4.8-.7.2-.3.3-.7.4-1.1.1-.6.2-1.6.2-2.8 0-3.2-.9-4.8-2.7-4.8-.5 0-.9.1-1.3.3-.4.2-.6.4-.8.7-.2.3-.3.6-.4 1.1-.1.6-.2 1.3-.2 2.2 0 .8 0 1.5 0 1.9s.1.9.2 1.4c.1.5.2.9.4 1.2.2.2.5.4.8.6zM169.5 671.9c0-.2 0-.3 0-.3 1.9-.1 3.3-.6 4.3-1.4.9-.8 1.6-1.9 1.9-3.5-.8.3-1.5.5-2.2.5-1.7 0-3.1-.5-4.2-1.6s-1.5-2.4-1.5-4.1c0-1.6.5-3 1.6-4.1 1-1.1 2.5-1.6 4.3-1.6 1.8 0 3.3.6 4.3 1.9 1 1.2 1.5 2.9 1.5 5 0 3.2-.8 5.7-2.4 7.7-1.6 1.9-4 3-7.3 3.1-.2-.4-.3-.9-.3-1.6zm4.5-6.9c.4 0 1.1-.3 2.2-.9.1-.6.1-1.2.1-1.7s0-1-.1-1.4c-.1-.4-.2-.8-.3-1.3-.2-.5-.4-.8-.8-1.1-.4-.3-.8-.4-1.3-.4-1.7 0-2.6 1.2-2.6 3.5 0 1.1.3 1.9.8 2.4.4.6 1.1.9 2 .9z"/></g><g fill="#FEFEFE"><path d="M69.1 705c.3 0 .7-.1 1.2-.1.8 0 1.6.1 2.4.3.6 2.8.8 6.3.8 10.4H49.2c-.6-1-.8-1.8-.8-2.6s0-1.2.1-1.4c9.6-9.1 14.8-14.1 15.5-14.9.7-.8 1.5-2 2.3-3.7.8-1.6 1.1-3.3 1.1-4.9s-.6-3.2-1.9-4.6c-1.3-1.4-3.2-2.1-5.8-2.1-1.4 0-2.7.1-3.7.4l-1.7 8.6c-.5 0-1 .1-1.5.1-.6 0-1.4-.1-2.5-.3-.7-2-1.1-4.8-1.2-8.3 1.2-1.1 2.8-2.2 5-3.2s4.2-1.5 6.2-1.5c4.1 0 7.4 1 9.8 3.1 2.5 2.1 3.7 4.3 3.7 6.8 0 3.2-.7 5.9-2 8.2-1.3 2.3-3.5 4.8-6.6 7.4l-9.3 7.9.2.8 12.2-.1c.2-3 .4-5.1.8-6.3zM95.6 677.2c5.5 0 9.6 1.7 12.2 5.1 2.6 3.4 3.9 8.1 3.9 14.2s-1.3 10.9-3.9 14.6c-2.6 3.7-6.7 5.5-12.3 5.5s-9.6-1.6-12.1-4.9c-2.5-3.3-3.7-8.2-3.7-14.7.1-13.2 5.4-19.8 15.9-19.8zm-8.3 30.2c.6 1.7 1.6 2.9 3 3.7 1.4.8 3.1 1.2 5 1.2 2 0 3.6-.3 4.8-.9 1.3-.6 2.2-1.3 2.9-2.2.7-.8 1.2-2 1.5-3.5.6-2.3.8-5.3.8-8.9 0-10.2-3.2-15.4-9.7-15.4-1.8 0-3.3.3-4.6 1-1.3.6-2.2 1.4-2.9 2.4-.6.9-1.2 2.1-1.5 3.5-.6 2.2-.8 4.7-.8 7.5s.1 5 .3 6.6c.2 1.7.6 3.3 1.2 5zM132.3 677.2c5.5 0 9.6 1.7 12.2 5.1 2.6 3.4 3.9 8.1 3.9 14.2s-1.3 10.9-3.9 14.6c-2.6 3.7-6.7 5.5-12.3 5.5-5.6 0-9.6-1.6-12.1-4.9-2.5-3.3-3.7-8.2-3.7-14.7 0-13.2 5.3-19.8 15.9-19.8zm-8.4 30.2c.6 1.7 1.6 2.9 3 3.7 1.4.8 3.1 1.2 5 1.2 2 0 3.6-.3 4.8-.9 1.3-.6 2.2-1.3 2.9-2.2.7-.8 1.2-2 1.5-3.5.6-2.3.8-5.3.8-8.9 0-10.2-3.2-15.4-9.7-15.4-1.8 0-3.3.3-4.6 1-1.3.6-2.2 1.4-2.9 2.4-.6.9-1.2 2.1-1.5 3.5-.6 2.2-.8 4.7-.8 7.5s.1 5 .3 6.6c.2 1.7.6 3.3 1.2 5zM164.7 695.4c4.6 0 8.3 1.3 11 3.9 2.8 2.6 4.1 6.1 4.1 10.6s-1.8 8.1-5.4 11c-3.6 2.9-7.6 4.3-12 4.3s-7.9-.6-10.5-1.7c0-1.9.3-3.1.9-3.7 2 .7 4.9 1.1 8.5 1.1 3.8 0 6.8-.8 8.9-2.5.9-.7 1.6-1.8 2.3-3.2.6-1.4 1-3.1 1-5 0-3.2-.8-5.8-2.4-7.6-1.6-1.8-3.8-2.7-6.7-2.7-2.2 0-4 .2-5.5.5-1.4.3-2.2.5-2.3.5-1-.6-1.7-1.2-2.3-2l-.8-20.7h23.6c0 4-.3 7.5-.8 10.4-.8.2-2 .3-3.6.3-.3-1.1-.6-3.3-.8-6.5h-12.1l-.2 13.8c1.5-.5 3.2-.8 5.1-.8z"/></g></g></svg>