<?xml version="1.0" encoding="utf-8"?>
<!-- Generator: Adobe Illustrator 19.1.0, SVG Export Plug-In . SVG Version: 6.00 Build 0)  -->
<svg version="1.1" id="Layer_2" xmlns="http://www.w3.org/2000/svg" xmlns:xlink="http://www.w3.org/1999/xlink" x="0px" y="0px"
	 width="188.8px" height="228px" viewBox="0 0 188.8 228" enable-background="new 0 0 188.8 228" xml:space="preserve">
<g>
	<g>
		<g>
			<path fill="#FFFFFF" d="M188.8,11.7c0.1-8.8-3.4-11.8-12-11.7c-27.2,0.3-54.4,0.1-81.6,0.1c-27.2,0-54.4-0.1-81.6,0
				C1.9,0.2,0.4,1.7,0.4,13.6C0.2,49.4,0.1,85.3,0,121.1c0,4.5,0,8.9,1.4,13.3c14.1,43.7,41.1,75.3,84.6,92c5.4,2.1,10.4,2.2,15.8,0
				c25.2-10,47-24.7,63.5-46.5c12.7-16.8,22.7-35.3,23.1-56.9C189.2,86,188.5,48.8,188.8,11.7z M134.5,15.3h6.2v20.2h-6.2V15.3z
				 M111.4,19.6c0.9-1.6,2.2-2.9,4-3.7c1.4-0.7,3.2-1,5.5-1c2.2,0,3.9,0.2,5,0.6c1.1,0.4,2,1,2.8,1.9c0.7,0.8,1.3,1.9,1.6,3.2
				l-6,1.1c-0.2-0.8-0.7-1.3-1.3-1.7c-0.6-0.4-1.3-0.6-2.3-0.6c-1.4,0-2.5,0.5-3.3,1.4c-0.8,0.9-1.2,2.5-1.2,4.5
				c0,2.2,0.4,3.7,1.2,4.7c0.8,0.9,2,1.4,3.4,1.4c0.7,0,1.4-0.1,2-0.3c0.6-0.2,1.4-0.5,2.2-1v-1.9h-4.2V24h9.6v8.6
				c-1.8,1.3-3.5,2.1-4.9,2.6c-1.4,0.5-3.1,0.7-5,0.7c-2.4,0-4.3-0.4-5.9-1.2c-1.5-0.8-2.7-2-3.5-3.6c-0.8-1.6-1.2-3.5-1.2-5.6
				C110,23.2,110.5,21.3,111.4,19.6z M71.6,15.3h6.2v15.2h9.7v5h-16V15.3z M50.1,17.7c1.8-1.8,4.4-2.8,7.7-2.8
				c3.4,0,5.9,0.9,7.8,2.7s2.7,4.3,2.7,7.6c0,2.4-0.4,4.3-1.2,5.8c-0.8,1.5-1.9,2.7-3.4,3.5c-1.5,0.8-3.4,1.3-5.6,1.3
				c-2.3,0-4.2-0.4-5.6-1.1s-2.7-1.9-3.6-3.4c-0.9-1.6-1.4-3.5-1.4-5.9C47.4,22.1,48.3,19.5,50.1,17.7z M28.2,17.7
				c1.8-1.8,4.3-2.7,7.5-2.7c2.5,0,4.5,0.5,6,1.5c1.5,1,2.5,2.6,3.2,4.7l-5.5,1.2c-0.2-0.6-0.4-1.1-0.6-1.3
				c-0.3-0.5-0.8-0.8-1.3-1.1c-0.5-0.3-1.1-0.4-1.7-0.4c-1.4,0-2.5,0.6-3.2,1.7c-0.6,0.8-0.9,2.2-0.9,4c0,2.2,0.3,3.8,1,4.6
				c0.7,0.8,1.6,1.2,2.9,1.2c1.2,0,2.1-0.3,2.7-1c0.6-0.7,1.1-1.6,1.3-2.9l5.5,1.7c-0.4,1.5-0.9,2.8-1.7,3.8c-0.8,1-1.8,1.8-2.9,2.3
				c-1.2,0.5-2.7,0.8-4.5,0.8c-2.2,0-4-0.3-5.4-1c-1.4-0.6-2.6-1.8-3.6-3.4c-1-1.6-1.5-3.7-1.5-6.2C25.5,22,26.4,19.4,28.2,17.7z
				 M61.4,90.6c0.8,39.5,2.3,79.4,3,116.2c-9.2-4.9-18.6-14-18.6-14s2.2-56.2,3.4-85.6c0.2-5.5,0.7-16.3,0.7-16.3s-23.8,0-31.7,0
				c4.9-8.4,5.8-10.5,5.8-10.5l26.3,0c0,0,0.2-9,0.6-20.1c0.1-3.1,0-6.7,0-10.1c8.9,1.4,9.8,1.3,9.9,10.9
				c0.2,10.6,0.2,19.2,0.2,19.2l26.6,0c0,0,2.2,5.5,4.4,10.4C82.7,90.7,71,90.6,61.4,90.6z M90.4,35.5V15.3h16.7v4.3H96.7v3.2h9.7
				v4.1h-9.7v4h10.8v4.6H90.4z M112.5,86h-7.7V59.6h7.6l9.9,14.6V59.6h7.7V86h-7.7l-9.9-14.5V86z M124.9,122.5
				c-1.7-1.7-2.7-3.9-2.9-6.6l7.8-0.5c0.2,1.3,0.5,2.2,1,2.9c0.8,1.1,2,1.6,3.6,1.6c1.2,0,2.1-0.3,2.7-0.8c0.6-0.5,0.9-1.2,0.9-1.9
				c0-0.7-0.3-1.3-0.9-1.8c-0.6-0.5-2-1.1-4.2-1.5c-3.6-0.8-6.1-1.9-7.7-3.2c-1.5-1.3-2.3-3-2.3-5.1c0-1.4,0.4-2.6,1.2-3.8
				s2-2.2,3.5-2.8c1.6-0.7,3.7-1,6.5-1c3.4,0,5.9,0.6,7.7,1.9c1.8,1.3,2.8,3.3,3.2,6l-7.7,0.5c-0.2-1.2-0.6-2.1-1.3-2.6
				c-0.7-0.5-1.6-0.8-2.7-0.8c-0.9,0-1.7,0.2-2.1,0.6c-0.5,0.4-0.7,0.9-0.7,1.5c0,0.4,0.2,0.8,0.6,1.1c0.4,0.3,1.3,0.7,2.7,1
				c3.6,0.8,6.1,1.5,7.7,2.3c1.5,0.8,2.7,1.8,3.4,2.9c0.7,1.2,1.1,2.5,1.1,3.9c0,1.7-0.5,3.3-1.4,4.7c-0.9,1.4-2.2,2.5-3.9,3.3
				c-1.7,0.7-3.8,1.1-6.4,1.1C129.8,125.1,126.7,124.2,124.9,122.5z M164.3,158.2c-2.4,1.6-4.5,2.8-6.4,3.4
				c-1.9,0.6-4.1,0.9-6.6,0.9c-3.1,0-5.7-0.5-7.7-1.6c-2-1.1-3.5-2.7-4.6-4.8c-1.1-2.1-1.6-4.5-1.6-7.3c0-2.9,0.6-5.4,1.8-7.5
				c1.2-2.1,2.9-3.7,5.2-4.9c1.8-0.9,4.2-1.3,7.2-1.3c2.9,0,5.1,0.3,6.5,0.8c1.4,0.5,2.6,1.3,3.6,2.5c1,1.1,1.7,2.5,2.2,4.2
				l-7.9,1.4c-0.3-1-0.9-1.8-1.6-2.3c-0.8-0.5-1.8-0.8-3-0.8c-1.8,0-3.2,0.6-4.3,1.9c-1.1,1.2-1.6,3.2-1.6,5.9
				c0,2.9,0.5,4.9,1.6,6.1c1.1,1.2,2.6,1.8,4.5,1.8c0.9,0,1.8-0.1,2.6-0.4c0.8-0.3,1.8-0.7,2.8-1.4v-2.5h-5.5V147h12.6V158.2z
				 M164.2,31c-0.8,1.5-1.9,2.7-3.4,3.5c-1.5,0.8-3.4,1.3-5.6,1.3c-2.3,0-4.2-0.4-5.6-1.1c-1.5-0.7-2.7-1.9-3.6-3.4
				c-0.9-1.6-1.4-3.5-1.4-5.9c0-3.3,0.9-5.9,2.8-7.7c1.8-1.8,4.4-2.8,7.7-2.8c3.4,0,5.9,0.9,7.8,2.7c1.8,1.8,2.7,4.3,2.7,7.6
				C165.4,27.6,165,29.5,164.2,31z"/>
			<path fill="#FFFFFF" d="M57.8,31.2c1.3,0,2.4-0.4,3.1-1.3c0.7-0.9,1.1-2.4,1.1-4.7c0-1.9-0.4-3.3-1.1-4.2
				c-0.8-0.9-1.8-1.3-3.1-1.3c-1.3,0-2.3,0.4-3,1.3c-0.8,0.9-1.1,2.4-1.1,4.4c0,2,0.4,3.5,1.1,4.4C55.5,30.7,56.5,31.2,57.8,31.2z"
				/>
			<path fill="#FFFFFF" d="M154.9,19.7c-1.3,0-2.3,0.4-3,1.3c-0.8,0.9-1.1,2.4-1.1,4.4c0,2,0.4,3.5,1.1,4.4c0.8,0.9,1.8,1.3,3.1,1.3
				c1.3,0,2.4-0.4,3.1-1.3c0.7-0.9,1.1-2.4,1.1-4.7c0-1.9-0.4-3.3-1.1-4.2C157.2,20.1,156.2,19.7,154.9,19.7z"/>
		</g>
	</g>
	<g>
		<path fill="none" stroke="#FFC414" stroke-miterlimit="10" d="M8,39.7c-0.1,26.8-0.2,53.7-0.3,80.5c0,4.2,0,8.3,1.3,12.4
			c13.1,40.6,38.2,70,78.6,85.4c5,1.9,9.7,2,14.7,0c23.4-9.3,43.7-23,59-43.1c11.8-15.6,21.1-32.8,21.5-52.8
			c0.6-34.5,0-69,0.3-103.4c0.1-8.2-3.2-11-11.1-10.9C146.7,8,121.4,7.8,96.1,7.8c-25.3,0-50.5,0-75.8,0C9.5,7.9,8.1,9.3,8,20.3
			C8,26.8,8,33.2,8,39.7"/>
		<line fill="none" stroke="#FFC414" stroke-miterlimit="10" x1="8" y1="39.7" x2="7.7" y2="39.7"/>
		<line fill="none" stroke="#FFC414" stroke-miterlimit="10" x1="183" y1="39.7" x2="8" y2="39.7"/>
	</g>
</g>
</svg>
