<?xml version="1.0" encoding="utf-8"?>
<!-- Generator: Adobe Illustrator 23.0.0, SVG Export Plug-In . SVG Version: 6.00 Build 0)  -->
<svg version="1.1" id="Layer_2" xmlns="http://www.w3.org/2000/svg" xmlns:xlink="http://www.w3.org/1999/xlink" x="0px" y="0px"
	 viewBox="0 0 980 228" style="enable-background:new 0 0 980 228;" xml:space="preserve">
<style type="text/css">
	.st0{stroke:#FFFFFF;stroke-miterlimit:10;}
	.st1{fill:#FFFFFF;}
</style>
<g>
	<path class="st1" d="M45.8,192.8c0,0,9.4,9.1,18.6,14c0-0.2,0-0.5,0-0.7c-6.7-4.1-12.9-8.8-18.6-14.1
		C45.8,192.5,45.8,192.8,45.8,192.8z"/>
	<path class="st1" d="M176.8,0c-27.2,0.3-54.4,0.1-81.6,0.1C68,0.1,40.8,0,13.6,0.1C1.9,0.2,0.4,1.7,0.4,13.6
		C0.2,49.4,0.1,85.3,0,121.1c0,4.5,0,8.9,1.4,13.3c14.1,43.7,41.1,75.3,84.6,92c5.4,2.1,10.4,2.2,15.8,0c25.2-10,47-24.7,63.5-46.5
		c12.7-16.8,22.7-35.3,23.1-56.9c0.8-37,0.1-74.2,0.4-111.3C188.9,2.9,185.4-0.1,176.8,0z M183.5,63c0,19.4,0.1,39.4-0.2,59.1
		c-0.3,17.2-7.2,34.1-21.6,53.1c-14.5,19-33.9,33.2-59.2,43.3c-2.5,1-5,1.5-7.4,1.5c-2.5,0-5-0.5-7.6-1.5
		c-39.3-15-65.1-43-78.9-85.7c-1.3-4.2-1.3-8.2-1.3-12.6l0.3-80.5V20.3C7.6,9,9.2,7.4,20.3,7.3h75.8c8.4,0,16.9,0,25.3,0
		c16.6,0,33.7,0.1,50.6,0c4.3-0.1,7.2,0.8,9,2.6c1.8,1.8,2.6,4.6,2.6,8.8C183.5,33.4,183.5,48.5,183.5,63z"/>
	<path class="st1" d="M172,8.3c-16.9,0.1-34,0.1-50.6,0c-8.4,0-16.9,0-25.3,0H20.3C9.8,8.4,8.6,9.6,8.5,20.3v18.9h174
		c0-6.8,0-13.7,0.1-20.5c0-3.9-0.7-6.5-2.3-8.1C178.7,9,176,8.3,172,8.3z M43.4,32.7c-0.8,1-1.8,1.8-2.9,2.3
		c-1.2,0.5-2.7,0.8-4.5,0.8c-2.2,0-4-0.3-5.4-1C29.2,34.2,28,33,27,31.4c-1-1.6-1.5-3.7-1.5-6.2c0-3.2,0.9-5.8,2.7-7.5
		c1.8-1.8,4.3-2.7,7.5-2.7c2.5,0,4.5,0.5,6,1.5s2.5,2.6,3.2,4.7l-5.5,1.2c-0.2-0.6-0.4-1.1-0.6-1.3c-0.3-0.5-0.8-0.8-1.3-1.1
		s-1.1-0.4-1.7-0.4c-1.4,0-2.5,0.6-3.2,1.7c-0.6,0.8-0.9,2.2-0.9,4c0,2.2,0.3,3.8,1,4.6c0.7,0.8,1.6,1.2,2.9,1.2
		c1.2,0,2.1-0.3,2.7-1c0.6-0.7,1.1-1.6,1.3-2.9l5.5,1.7C44.7,30.4,44.2,31.7,43.4,32.7z M67.1,31c-0.8,1.5-1.9,2.7-3.4,3.5
		s-3.4,1.3-5.6,1.3c-2.3,0-4.2-0.4-5.6-1.1c-1.4-0.7-2.7-1.9-3.6-3.4c-0.9-1.6-1.4-3.5-1.4-5.9c-0.1-3.3,0.8-5.9,2.6-7.7
		s4.4-2.8,7.7-2.8c3.4,0,5.9,0.9,7.8,2.7c1.9,1.8,2.7,4.3,2.7,7.6C68.3,27.6,67.9,29.5,67.1,31z M87.5,35.5h-16V15.3h0.1h6.2v15.2
		h9.7V35.5z M107.5,35.5H90.4V15.3h16.7v4.3H96.7v3.2h9.7v4.1h-9.7v4h10.8V35.5z M130.4,32.6c-1.8,1.3-3.5,2.1-4.9,2.6
		c-1.4,0.5-3.1,0.7-5,0.7c-2.4,0-4.3-0.4-5.9-1.2c-1.5-0.8-2.7-2-3.5-3.6c-0.8-1.6-1.2-3.5-1.2-5.6c0.1-2.3,0.6-4.2,1.5-5.9
		c0.9-1.6,2.2-2.9,4-3.7c1.4-0.7,3.2-1,5.5-1c2.2,0,3.9,0.2,5,0.6c1.1,0.4,2,1,2.8,1.9c0.7,0.8,1.3,1.9,1.6,3.2l-6,1.1
		c-0.2-0.8-0.7-1.3-1.3-1.7c-0.6-0.4-1.3-0.6-2.3-0.6c-1.4,0-2.5,0.5-3.3,1.4c-0.8,0.9-1.2,2.5-1.2,4.5c0,2.2,0.4,3.7,1.2,4.7
		c0.8,0.9,2,1.4,3.4,1.4c0.7,0,1.4-0.1,2-0.3c0.6-0.2,1.4-0.5,2.2-1v-1.9h-4.2V24h9.6V32.6z M140.7,35.5h-6.2V15.3h6.2V35.5z
		 M164.2,31c-0.8,1.5-1.9,2.7-3.4,3.5s-3.4,1.3-5.6,1.3c-2.3,0-4.2-0.4-5.6-1.1c-1.5-0.7-2.7-1.9-3.6-3.4c-0.9-1.6-1.4-3.5-1.4-5.9
		c0-3.3,0.9-5.9,2.8-7.7c1.8-1.8,4.4-2.8,7.7-2.8c3.4,0,5.9,0.9,7.8,2.7c1.8,1.8,2.7,4.3,2.7,7.6C165.4,27.6,165,29.5,164.2,31z"/>
	<path class="st1" d="M182.5,40.2H8.5l-0.3,80c0,4.2,0,8.2,1.3,12.2c8,24.7,20,44.4,36.4,59.6c0.3-6.9,2.3-57.4,3.4-84.8
		c0.2-5.5,0.7-16.3,0.7-16.3s-23.8,0-31.7,0c4.9-8.4,5.8-10.5,5.8-10.5h26.3c0,0,0.2-9,0.6-20.1c0.1-3.1,0-6.7,0-10.1
		c8.9,1.4,9.8,1.3,9.9,10.9C61,71.7,61,80.3,61,80.3h26.6c0,0,2.2,5.5,4.4,10.4c-9.3,0-21-0.1-30.6-0.1c0.8,39.2,2.3,78.9,3,115.5
		c7.2,4.4,15,8.2,23.4,11.5c5,1.9,9.6,1.9,14.3,0c25.2-10,44.4-24.1,58.8-42.9c14.3-18.9,21.1-35.5,21.4-52.5
		c0.3-19.7,0.3-39.7,0.2-59.1C182.5,55.5,182.5,47.9,182.5,40.2z M112.4,86h-7.6V59.6h7.6l9.9,14.6V59.6h7.7V86h-7.7l-9.9-14.5V86z
		 M124.9,122.5c-1.7-1.7-2.7-3.9-2.9-6.6l7.8-0.5c0.2,1.3,0.5,2.2,1,2.9c0.8,1.1,2,1.6,3.6,1.6c1.2,0,2.1-0.3,2.7-0.8
		c0.6-0.5,0.9-1.2,0.9-1.9s-0.3-1.3-0.9-1.8c-0.6-0.5-2-1.1-4.2-1.5c-3.6-0.8-6.1-1.9-7.7-3.2c-1.5-1.3-2.3-3-2.3-5.1
		c0-1.4,0.4-2.6,1.2-3.8s2-2.2,3.5-2.8c1.6-0.7,3.7-1,6.5-1c3.4,0,5.9,0.6,7.7,1.9c1.8,1.3,2.8,3.3,3.2,6l-7.7,0.5
		c-0.2-1.2-0.6-2.1-1.3-2.6s-1.6-0.8-2.7-0.8c-0.9,0-1.7,0.2-2.1,0.6c-0.5,0.4-0.7,0.9-0.7,1.5c0,0.4,0.2,0.8,0.6,1.1
		c0.4,0.3,1.3,0.7,2.7,1c3.6,0.8,6.1,1.5,7.7,2.3c1.5,0.8,2.7,1.8,3.4,2.9c0.7,1.2,1.1,2.5,1.1,3.9c0,1.7-0.5,3.3-1.4,4.7
		c-0.9,1.4-2.2,2.5-3.9,3.3c-1.7,0.7-3.8,1.1-6.4,1.1C129.8,125.1,126.7,124.2,124.9,122.5z M157.9,161.6c-1.9,0.6-4.1,0.9-6.6,0.9
		c-3.1,0-5.7-0.5-7.7-1.6c-2-1.1-3.5-2.7-4.6-4.8c-1.1-2.1-1.6-4.5-1.6-7.3c0-2.9,0.6-5.4,1.8-7.5c1.2-2.1,2.9-3.7,5.2-4.9
		c1.8-0.9,4.2-1.3,7.2-1.3c2.9,0,5.1,0.3,6.5,0.8c1.4,0.5,2.6,1.3,3.6,2.5c1,1.1,1.7,2.5,2.2,4.2L156,144c-0.3-1-0.9-1.8-1.6-2.3
		c-0.8-0.5-1.8-0.8-3-0.8c-1.8,0-3.2,0.6-4.3,1.9c-1.1,1.2-1.6,3.2-1.6,5.9c0,2.9,0.5,4.9,1.6,6.1c1.1,1.2,2.6,1.8,4.5,1.8
		c0.9,0,1.8-0.1,2.6-0.4c0.8-0.3,1.8-0.7,2.8-1.4v-2.5h-5.5V147h12.6v11.2h0.2C161.9,159.8,159.8,161,157.9,161.6z"/>
	<path class="st1" d="M57.8,19.7c-1.3,0-2.3,0.4-3,1.3c-0.8,0.9-1.1,2.4-1.1,4.4s0.4,3.5,1.1,4.4c0.7,0.9,1.7,1.4,3,1.4
		c1.3,0,2.4-0.4,3.1-1.3c0.7-0.9,1.1-2.4,1.1-4.7c0-1.9-0.4-3.3-1.1-4.2C60.1,20.1,59.1,19.7,57.8,19.7z"/>
	<path class="st1" d="M154.9,19.7c-1.3,0-2.3,0.4-3,1.3c-0.8,0.9-1.1,2.4-1.1,4.4s0.4,3.5,1.1,4.4c0.8,0.9,1.8,1.3,3.1,1.3
		c1.3,0,2.4-0.4,3.1-1.3c0.7-0.9,1.1-2.4,1.1-4.7c0-1.9-0.4-3.3-1.1-4.2C157.2,20.1,156.2,19.7,154.9,19.7z"/>
	<path class="st1" d="M224.6,76.5c4.9,2.3,11.3,3.4,19.1,3.4c6.4,0,11.7-0.9,15.8-2.8s7.6-4.6,10.4-8.3c2.8-3.6,4.8-8.2,6.2-13.6
		l-19.4-5.9c-1,4.5-2.5,8-4.7,10.4c-2.2,2.4-5.4,3.6-9.6,3.6c-4.4,0-7.7-1.5-10.2-4.4c-2.4-2.9-3.6-8.4-3.6-16.3
		c0-6.4,1-11.1,3-14.1c2.7-4,6.5-6,11.5-6c2.2,0,4.2,0.5,6,1.4c1.8,0.9,3.3,2.2,4.5,3.9c0.7,1,1.5,2.6,2.1,4.8l19.5-4.3
		c-2.5-7.6-6.3-13.2-11.5-16.8c-5.2-3.6-12.2-5.5-21.3-5.5c-11.5,0-20.4,3.2-26.7,9.5c-6.3,6.4-9.4,15.5-9.4,27.3
		c0,8.9,1.8,16.2,5.4,21.9C215.4,70.3,219.7,74.3,224.6,76.5z"/>
	<path class="st1" d="M301.8,76.1c5.3,2.6,12,3.9,20,3.9c7.9,0,14.6-1.5,19.9-4.5s9.4-7.1,12.2-12.5c2.8-5.4,4.2-12.2,4.2-20.6
		c0-11.5-3.2-20.5-9.7-26.9c-6.4-6.4-15.6-9.6-27.5-9.6c-11.6,0-20.7,3.3-27.2,9.8c-6.5,6.5-9.8,15.6-9.8,27.3
		c0,8.4,1.6,15.3,4.9,20.9C292.3,69.4,296.5,73.5,301.8,76.1z M310.2,27.4c2.7-3.2,6.3-4.7,10.7-4.7c4.7,0,8.3,1.6,11.1,4.7
		c2.7,3.1,4.1,8,4.1,14.8c0,8-1.3,13.6-3.9,16.7c-2.6,3.1-6.3,4.6-11,4.6c-4.6,0-8.3-1.6-11-4.7c-2.7-3.2-4-8.3-4-15.6
		C306.2,35.8,307.5,30.5,310.2,27.4z"/>
	<polygon class="st1" points="426.8,61.1 392.2,61.1 392.2,7.1 370.1,7.1 370.1,78.7 426.8,78.7 	"/>
	<polygon class="st1" points="497.1,62.5 458.9,62.5 458.9,48.4 493.4,48.4 493.4,33.8 458.9,33.8 458.9,22.4 496.1,22.4 496.1,7.1 
		436.8,7.1 436.8,78.7 497.1,78.7 	"/>
	<path class="st1" d="M523.2,75.6c5.4,2.9,12.3,4.3,20.8,4.3c6.9,0,12.9-0.8,17.9-2.4s10.8-4.6,17.4-9.1V37.9H545v14.9h14.8v6.7
		c-2.9,1.7-5.5,2.9-7.7,3.7c-2.2,0.7-4.6,1.1-7.1,1.1c-5.2,0-9.3-1.7-12.2-5c-2.9-3.3-4.4-8.9-4.4-16.6c0-7.3,1.4-12.6,4.3-16
		s6.7-5.1,11.6-5.1c3.3,0,5.9,0.7,8,2.1c2.1,1.4,3.6,3.5,4.5,6.2l21.3-3.8c-1.3-4.6-3.2-8.4-5.8-11.5c-2.6-3-5.8-5.2-9.8-6.7
		c-3.9-1.4-9.8-2.1-17.7-2.1c-8.2,0-14.7,1.2-19.6,3.5c-6.2,3-10.9,7.4-14.2,13.2c-3.2,5.8-4.8,12.6-4.8,20.4c0,7.4,1.5,14,4.4,19.7
		C513.7,68.4,517.8,72.7,523.2,75.6z"/>
	<rect x="593.2" y="7.1" class="st1" width="22.2" height="71.6"/>
	<path class="st1" d="M646.3,76.1c5.3,2.6,12,3.9,20,3.9c7.9,0,14.6-1.5,19.9-4.5s9.4-7.1,12.2-12.5c2.8-5.4,4.2-12.2,4.2-20.6
		c0-11.5-3.2-20.5-9.7-26.9s-15.6-9.6-27.5-9.6c-11.6,0-20.7,3.3-27.2,9.8c-6.5,6.5-9.8,15.6-9.8,27.3c0,8.4,1.6,15.3,4.9,20.9
		C636.7,69.4,641,73.5,646.3,76.1z M654.6,27.4c2.7-3.2,6.3-4.7,10.7-4.7c4.7,0,8.3,1.6,11.1,4.7c2.7,3.1,4.1,8,4.1,14.8
		c0,8-1.3,13.6-3.9,16.7c-2.6,3.1-6.3,4.6-11,4.6c-4.6,0-8.3-1.6-11-4.7c-2.7-3.2-4-8.3-4-15.6C650.6,35.8,651.9,30.5,654.6,27.4z"
		/>
	<polygon class="st1" points="218.7,118 241.8,155.3 253.4,155.3 253.4,98 242.6,98 242.6,136.3 219.2,98 208,98 208,155.3 
		218.7,155.3 	"/>
	<path class="st1" d="M300.1,154.5c2.8-1.2,5.1-2.7,6.7-4.7s2.8-4.3,3.5-7.2c0.6-2.8,0.9-7.7,0.9-14.6V98h-11.6v31.7
		c0,4.5-0.2,7.8-0.5,9.7c-0.3,2-1.3,3.6-3,4.9c-1.7,1.3-4.1,2-7.4,2c-3.2,0-5.8-0.7-7.6-2.1c-1.9-1.4-3-3.3-3.5-5.6
		c-0.3-1.5-0.4-4.6-0.4-9.6V98h-11.6v30.5c0,6.4,0.4,11.3,1.1,14.5c0.5,2.2,1.6,4.3,3.2,6.3c1.6,2,3.9,3.7,6.7,4.9
		c2.8,1.3,7,1.9,12.4,1.9C293.6,156.3,297.3,155.7,300.1,154.5z"/>
	<polygon class="st1" points="365.9,107.7 365.9,98 323.4,98 323.4,155.3 366.9,155.3 366.9,145.7 335,145.7 335,130.1 363.7,130.1 
		363.7,120.4 335,120.4 335,107.7 	"/>
	<path class="st1" d="M406,144.2c-1.9,1.6-4.7,2.4-8.4,2.4c-3.5,0-6.3-0.9-8.4-2.7c-2.1-1.8-3.4-4.5-4.1-8.3l-11.3,1.1
		c0.8,6.4,3.1,11.3,7,14.6c3.9,3.3,9.4,5,16.7,5c5,0,9.1-0.7,12.5-2.1c3.3-1.4,5.9-3.5,7.7-6.4c1.8-2.9,2.7-5.9,2.7-9.2
		c0-3.6-0.8-6.7-2.3-9.1s-3.6-4.4-6.3-5.8c-2.7-1.4-6.9-2.8-12.5-4.1c-5.6-1.3-9.2-2.6-10.6-3.8c-1.1-1-1.7-2.1-1.7-3.5
		c0-1.5,0.6-2.7,1.8-3.6c1.9-1.4,4.5-2.1,7.9-2.1c3.3,0,5.7,0.6,7.3,1.9c1.6,1.3,2.7,3.4,3.2,6.3l11.6-0.5
		c-0.2-5.3-2.1-9.5-5.7-12.6c-3.6-3.2-9-4.7-16.2-4.7c-4.4,0-8.2,0.7-11.3,2c-3.1,1.3-5.5,3.3-7.1,5.8c-1.7,2.5-2.5,5.3-2.5,8.2
		c0,4.5,1.8,8.4,5.3,11.5c2.5,2.2,6.8,4.1,13,5.7c4.8,1.2,7.9,2,9.3,2.5c2,0.7,3.4,1.5,4.2,2.5c0.8,1,1.2,2.1,1.2,3.5
		C408.8,140.8,407.9,142.6,406,144.2z"/>
	<polygon class="st1" points="454.6,155.3 454.6,107.7 471.5,107.7 471.5,98 426,98 426,107.7 443,107.7 443,155.3 	"/>
	<path class="st1" d="M508.3,142.8l8.4,12.5h13.8l-7-11.2c-2.8-4.5-5-7.6-6.6-9.3c-1.6-1.7-3.7-3.3-6.2-4.8c5-0.7,8.8-2.5,11.3-5.3
		c2.5-2.8,3.8-6.3,3.8-10.6c0-3.4-0.8-6.4-2.5-9c-1.7-2.6-3.9-4.5-6.7-5.5c-2.8-1-7.2-1.5-13.3-1.5H479v57.3h11.6v-23.9h2.3
		c2.7,0,4.6,0.2,5.8,0.6c1.2,0.4,2.4,1.2,3.5,2.4C503.3,135.6,505.3,138.4,508.3,142.8z M490.6,122.3v-14.5h9c4.7,0,7.5,0.1,8.4,0.2
		c1.9,0.3,3.3,1.1,4.4,2.2c1,1.2,1.5,2.7,1.5,4.7c0,1.7-0.4,3.2-1.2,4.3c-0.8,1.1-1.9,2-3.2,2.4c-1.4,0.5-4.8,0.7-10.4,0.7H490.6z"
		/>
	<path class="st1" d="M588.4,155.3L565.5,98h-12.2l-22.3,57.3h12.3l4.7-13h22.9l5,13H588.4z M551.5,132.7l7.7-21.3l7.9,21.3H551.5z"
		/>
	<path class="st1" d="M654.7,147.8c1.8-2.9,2.7-5.9,2.7-9.2c0-3.6-0.8-6.7-2.3-9.1s-3.6-4.4-6.3-5.8c-2.7-1.4-6.9-2.8-12.5-4.1
		c-5.6-1.3-9.2-2.6-10.6-3.8c-1.1-1-1.7-2.1-1.7-3.5c0-1.5,0.6-2.7,1.8-3.6c1.9-1.4,4.5-2.1,7.9-2.1c3.3,0,5.7,0.6,7.3,1.9
		c1.6,1.3,2.7,3.4,3.2,6.3l11.6-0.5c-0.2-5.3-2.1-9.5-5.7-12.6c-3.6-3.2-9-4.7-16.2-4.7c-4.4,0-8.2,0.7-11.3,2
		c-3.1,1.3-5.5,3.3-7.1,5.8c-1.7,2.5-2.5,5.3-2.5,8.2c0,4.5,1.8,8.4,5.3,11.5c2.5,2.2,6.8,4.1,13,5.7c4.8,1.2,7.9,2,9.3,2.5
		c2,0.7,3.4,1.5,4.2,2.5c0.8,1,1.2,2.1,1.2,3.5c0,2.1-0.9,4-2.8,5.5c-1.9,1.6-4.7,2.4-8.4,2.4c-3.5,0-6.3-0.9-8.4-2.7
		c-2.1-1.8-3.4-4.5-4.1-8.3l-11.3,1.1c0.8,6.4,3.1,11.3,7,14.6c3.9,3.3,9.4,5,16.7,5c5,0,9.1-0.7,12.5-2.1
		C650.3,152.8,652.9,150.7,654.7,147.8z"/>
	<polygon class="st1" points="678.7,130.1 707.5,130.1 707.5,120.4 678.7,120.4 678.7,107.7 709.6,107.7 709.6,98 667.1,98 
		667.1,155.3 710.7,155.3 710.7,145.7 678.7,145.7 	"/>
	<path class="st1" d="M735,94.9c0-1.3,0.3-2.1,0.7-2.6s1.1-0.8,2-0.8c1.1,0,2.8,0.5,5.2,1.4c2.4,0.9,3.9,1.4,4.5,1.6
		c0.9,0.2,1.7,0.3,2.6,0.3c2,0,3.7-0.8,5-2.3c1.3-1.5,1.9-4,2-7.5h-5.1c-0.2,1.2-0.5,2.1-1.1,2.6c-0.6,0.5-1.3,0.8-2.1,0.8
		c-1.2,0-2.8-0.5-4.9-1.4c-2.1-0.9-3.5-1.5-4.3-1.7S738,85,737.1,85c-2.1,0-3.8,0.7-5.1,2.2c-1.3,1.5-2,3.6-2,6.3c0,0.3,0,0.8,0,1.4
		H735z"/>
	<polygon class="st1" points="755.3,136.3 731.9,98 720.6,98 720.6,155.3 731.4,155.3 731.4,118 754.4,155.3 766,155.3 766,98 
		755.3,98 	"/>
	<path class="st1" d="M803.6,97.1c-4.7,0-8.8,0.8-12.3,2.3c-2.7,1.1-5.2,2.8-7.4,5.2c-2.3,2.3-4,4.9-5.3,7.9
		c-1.7,4-2.6,8.9-2.6,14.7c0,9.1,2.5,16.3,7.5,21.5c5,5.2,11.8,7.8,20.3,7.8c8.4,0,15.1-2.6,20.2-7.8c5-5.2,7.5-12.5,7.5-21.7
		c0-9.3-2.5-16.6-7.6-21.8C818.8,99.7,812.1,97.1,803.6,97.1z M815.1,141.4c-3,3.3-6.7,5-11.3,5s-8.4-1.7-11.4-5
		c-3-3.3-4.5-8.3-4.5-14.7c0-6.6,1.5-11.5,4.4-14.8c2.9-3.3,6.8-4.9,11.5-4.9s8.6,1.6,11.5,4.8c2.9,3.2,4.3,8.1,4.3,14.7
		C819.5,133.1,818,138.1,815.1,141.4z"/>
	<path class="st1" d="M878.4,134.8c-1.6-1.7-3.7-3.3-6.2-4.8c5-0.7,8.8-2.5,11.3-5.3c2.5-2.8,3.8-6.3,3.8-10.6c0-3.4-0.8-6.4-2.5-9
		c-1.7-2.6-3.9-4.5-6.7-5.5c-2.8-1-7.2-1.5-13.3-1.5h-24.3v57.3h11.6v-23.9h2.3c2.7,0,4.6,0.2,5.8,0.6c1.2,0.4,2.4,1.2,3.5,2.4
		c1.1,1.2,3.1,4,6.1,8.4l8.4,12.5H892l-7-11.2C882.3,139.7,880.1,136.6,878.4,134.8z M860.7,122.3h-8.6v-14.5h9
		c4.7,0,7.5,0.1,8.4,0.2c1.9,0.3,3.3,1.1,4.4,2.2c1,1.2,1.5,2.7,1.5,4.7c0,1.7-0.4,3.2-1.2,4.3c-0.8,1.1-1.9,2-3.2,2.4
		C869.7,122,866.2,122.3,860.7,122.3z"/>
	<path class="st1" d="M909.4,142.3h22.9l5,13h12.6L927,98h-12.2l-22.3,57.3h12.3L909.4,142.3z M920.7,111.4l7.9,21.3H913
		L920.7,111.4z"/>
	<path class="st1" d="M256.7,171.8c-2.8-2.5-6.2-4.3-10.2-5.3c-2.9-0.7-7.2-1.1-12.8-1.1h-24.9v57.3h25.6c5,0,9-0.4,12-1.2
		c4-1.1,7.2-2.6,9.6-4.6c3.1-2.6,5.5-6,7.2-10.1c1.4-3.4,2.1-7.5,2.1-12.2c0-5.4-0.7-9.9-2.2-13.5
		C261.6,177.4,259.5,174.3,256.7,171.8z M249.9,204.6c-0.9,2.6-2.1,4.4-3.6,5.5c-1.5,1.1-3.3,1.9-5.5,2.4c-1.7,0.4-4.4,0.5-8.2,0.5
		h-10.2v-37.9h6.1c5.5,0,9.3,0.2,11.2,0.5c2.5,0.5,4.6,1.4,6.3,2.7c1.7,1.3,2.9,3.2,3.9,5.5c0.9,2.4,1.4,5.8,1.4,10.2
		C251.3,198.5,250.8,202,249.9,204.6z"/>
	<polygon class="st1" points="290.5,197.5 324.3,197.5 324.3,187.8 290.5,187.8 290.5,175.1 326.8,175.1 326.8,165.4 276.9,165.4 
		276.9,222.7 328.1,222.7 328.1,213 290.5,213 	"/>
	<path class="st1" d="M397.2,201.6h15.6v7.3c-2.1,1.4-4.5,2.5-7.4,3.5c-2.9,1-5.7,1.4-8.6,1.4c-5.8,0-10.4-1.7-14-5.1
		c-3.6-3.4-5.3-8.5-5.3-15.3c0-6.3,1.8-11.1,5.3-14.3c3.5-3.2,8.2-4.8,14.2-4.8c3.9,0,7.2,0.8,9.8,2.4c2.6,1.6,4.4,3.8,5.4,6.7
		l13.5-2.1c-1.3-5.3-4.4-9.4-9.1-12.4c-4.7-3-11.2-4.5-19.6-4.5c-6.4,0-11.8,1-16.1,2.9c-5.7,2.5-10,6-12.9,10.7
		c-2.9,4.6-4.4,9.9-4.4,15.9c0,5.5,1.3,10.6,4,15.3c2.6,4.7,6.6,8.3,11.8,10.8c5.2,2.5,11.4,3.8,18.4,3.8c5.5,0,11-0.9,16.4-2.7
		s9.5-3.8,12.4-6.2V192h-29.3V201.6z"/>
	<path class="st1" d="M479.1,197.1c0,4.5-0.2,7.8-0.6,9.7c-0.4,2-1.6,3.6-3.5,4.9c-2,1.3-4.9,2-8.7,2c-3.8,0-6.8-0.7-9-2.1
		c-2.2-1.4-3.6-3.3-4.2-5.6c-0.3-1.5-0.5-4.6-0.5-9.6v-31H439V196c0,6.4,0.4,11.3,1.3,14.5c0.6,2.2,1.9,4.3,3.8,6.3
		c1.9,2,4.6,3.7,7.9,4.9s8.2,1.9,14.6,1.9c5.3,0,9.7-0.6,13-1.7c3.3-1.2,6-2.7,7.9-4.7c2-2,3.3-4.3,4.1-7.2
		c0.7-2.8,1.1-7.7,1.1-14.6v-30.1h-13.6V197.1z"/>
	<path class="st1" d="M526.4,165.4l-26.2,57.3h14.4l5.6-13h26.9l5.9,13h14.8l-27-57.3H526.4z M524.4,200l9.1-21.3l9.3,21.3H524.4z"
		/>
	<path class="st1" d="M622.8,171.8c-2.8-2.5-6.2-4.3-10.2-5.3c-2.9-0.7-7.2-1.1-12.8-1.1H575v57.3h25.6c5,0,9-0.4,12-1.2
		c4-1.1,7.2-2.6,9.6-4.6c3.1-2.6,5.5-6,7.2-10.1c1.4-3.4,2.1-7.5,2.1-12.2c0-5.4-0.7-9.9-2.2-13.5
		C627.8,177.4,625.7,174.3,622.8,171.8z M616,204.6c-0.9,2.6-2.1,4.4-3.6,5.5c-1.5,1.1-3.3,1.9-5.5,2.4c-1.7,0.4-4.4,0.5-8.2,0.5
		h-10.2v-37.9h6.1c5.5,0,9.3,0.2,11.2,0.5c2.5,0.5,4.6,1.4,6.3,2.7s2.9,3.2,3.9,5.5c0.9,2.4,1.4,5.8,1.4,10.2
		C617.4,198.5,617,202,616,204.6z"/>
	<path class="st1" d="M662.4,165.4l-26.2,57.3h14.4l5.6-13h26.9l5.9,13h14.8l-27-57.3H662.4z M660.4,200l9.1-21.3l9.3,21.3H660.4z"
		/>
	<polygon class="st1" points="725,165.9 711.4,165.9 711.4,222.7 758.8,222.7 758.8,213 725,213 	"/>
	<path class="st1" d="M808.6,197.1c0,4.5-0.2,7.8-0.6,9.7c-0.4,2-1.6,3.6-3.5,4.9c-2,1.3-4.9,2-8.7,2c-3.8,0-6.8-0.7-9-2.1
		c-2.2-1.4-3.6-3.3-4.2-5.6c-0.3-1.5-0.5-4.6-0.5-9.6v-31h-13.6V196c0,6.4,0.4,11.3,1.3,14.5c0.6,2.2,1.9,4.3,3.8,6.3
		c1.9,2,4.6,3.7,7.9,4.9s8.2,1.9,14.6,1.9c5.3,0,9.7-0.6,13-1.7c3.3-1.2,6-2.7,7.9-4.7c2-2,3.3-4.3,4.1-7.2
		c0.7-2.8,1.1-7.7,1.1-14.6v-30.1h-13.6V197.1z"/>
	<path class="st1" d="M874.5,166.3c-2.5-0.6-7.9-0.9-16.2-0.9h-21.8v57.3h13.6v-21.6h8.9c6.2,0,10.9-0.3,14.1-0.8
		c2.4-0.4,4.7-1.3,7.1-2.7c2.3-1.4,4.2-3.2,5.7-5.6c1.5-2.4,2.3-5.4,2.3-8.9c0-4.6-1.3-8.3-3.9-11.2
		C881.6,169,878.4,167.1,874.5,166.3z M872.6,187.7c-1,1.3-2.4,2.2-4.3,2.8c-1.8,0.6-5.4,0.9-10.8,0.9h-7.4v-16.3h6.6
		c4.9,0,8.2,0.1,9.8,0.4c2.2,0.3,4,1.2,5.5,2.5c1.4,1.4,2.2,3.1,2.2,5.2C874.1,184.9,873.6,186.4,872.6,187.7z"/>
	<polygon class="st1" points="912.9,213 912.9,197.5 946.7,197.5 946.7,187.8 912.9,187.8 912.9,175.1 949.3,175.1 949.3,165.4 
		899.3,165.4 899.3,222.7 950.6,222.7 950.6,213 	"/>
</g>
</svg>
