<svg xmlns="http://www.w3.org/2000/svg" viewBox="0 0 980 228"><title>nsg_colegiosvg</title><path d="M45.8,192.8s9.4,9.1,18.6,14c-.0046-.24-.01-.4828-.0146-.7228a120.11,120.11,0,0,1-18.5545-14.066C45.8109,192.5219,45.8,192.8,45.8,192.8Z" style="fill:#fff"/><path d="M176.8,0c-27.2.3-54.4.1-81.6.1S40.8,0,13.6.1C1.9.2.4,1.7.4,13.6.2,49.4.1,85.3,0,121.1c0,4.5,0,8.9,1.4,13.3,14.1,43.7,41.1,75.3,84.6,92a20.1582,20.1582,0,0,0,15.8,0c25.2-10,47-24.7,63.5-46.5C178,163.1,188,144.6,188.4,123c.8-37,.1-74.2.4-111.3C188.9,2.9,185.4-.1,176.8,0Zm6.7448,62.9678c.0484,19.38.0982,39.4194-.2446,59.1406-.3442,17.1943-7.208,34.0645-21.6011,53.0937-14.49,19.0342-33.8584,33.1856-59.2143,43.2627a19.8083,19.8083,0,0,1-7.438,1.503,21.3049,21.3049,0,0,1-7.6245-1.5c-39.3164-14.9873-65.1241-43.0254-78.8985-85.7149C7.2,128.5771,7.2,124.5078,7.2,120.2l.3-80.5V20.3c.103-11.3179,1.6577-12.897,12.7954-13H96.1q12.65,0,25.3013.0444c16.584.0445,33.7314.0889,50.5947-.0444,4.3086-.0542,7.1953.77,9.021,2.5947,1.8135,1.813,2.6343,4.6128,2.583,8.8116C183.4716,33.4424,183.5087,48.4521,183.5448,62.9678Z" style="fill:#fff"/><path d="M172.0062,8.3c-16.8715.1333-34.0224.0884-50.6079.0444Q108.7494,8.3114,96.1,8.3H20.3C9.81,8.397,8.5971,9.6313,8.5,20.3042V39.2H182.514c.0051-6.8425.0267-13.7017.086-20.5044.0479-3.9131-.68-6.4844-2.29-8.0937C178.6879,8.9805,176.0424,8.2612,172.0062,8.3ZM43.4,32.7A8.0051,8.0051,0,0,1,40.5,35a11.692,11.692,0,0,1-4.5.8,12.116,12.116,0,0,1-5.4-1A8.32,8.32,0,0,1,27,31.4a11.619,11.619,0,0,1-1.5-6.2c0-3.2.9-5.8,2.7-7.5A10.1369,10.1369,0,0,1,35.7,15a10.6629,10.6629,0,0,1,6,1.5,8.6279,8.6279,0,0,1,3.2,4.7l-5.5,1.2a3.9628,3.9628,0,0,0-.6-1.3A3.482,3.482,0,0,0,37.5,20a3.2868,3.2868,0,0,0-1.7-.4,3.61,3.61,0,0,0-3.2,1.7,6.9539,6.9539,0,0,0-.9,4c0,2.2.3,3.8,1,4.6a3.5606,3.5606,0,0,0,2.9,1.2,3.3375,3.3375,0,0,0,2.7-1,5.5862,5.5862,0,0,0,1.3-2.9l5.5,1.7A10.2258,10.2258,0,0,1,43.4,32.7ZM67.1,31a8.2036,8.2036,0,0,1-3.4,3.5,11.8773,11.8773,0,0,1-5.6,1.3,12.6614,12.6614,0,0,1-5.6-1.1,9.0035,9.0035,0,0,1-3.6-3.4,11.7019,11.7019,0,0,1-1.4-5.9c-.1-3.3.8-5.9,2.6-7.7a10.5155,10.5155,0,0,1,7.7-2.8c3.4,0,5.9.9,7.8,2.7s2.7,4.3,2.7,7.6A12.1916,12.1916,0,0,1,67.1,31Zm20.4,4.5h-16V15.3h6.3V30.5h9.7Zm20,0H90.4V15.3h16.7v4.3H96.7v3.2h9.7v4.1H96.7v4h10.8Zm22.9-2.9a19.6627,19.6627,0,0,1-4.9,2.6,15.0983,15.0983,0,0,1-5,.7,12.91,12.91,0,0,1-5.9-1.2,8.1284,8.1284,0,0,1-3.5-3.6,12.4712,12.4712,0,0,1-1.2-5.6,13.5252,13.5252,0,0,1,1.5-5.9,8.4808,8.4808,0,0,1,4-3.7,12.2942,12.2942,0,0,1,5.5-1,15.72,15.72,0,0,1,5,.6,6.6646,6.6646,0,0,1,2.8,1.9,7.4254,7.4254,0,0,1,1.6,3.2l-6,1.1A2.8261,2.8261,0,0,0,123,20a3.9207,3.9207,0,0,0-2.3-.6,4.2229,4.2229,0,0,0-3.3,1.4,6.9192,6.9192,0,0,0-1.2,4.5,7.3637,7.3637,0,0,0,1.2,4.7,4.4406,4.4406,0,0,0,3.4,1.4,6.4477,6.4477,0,0,0,2-.3,10.1708,10.1708,0,0,0,2.2-1V28.2h-4.2V24h9.6Zm10.3,2.9h-6.2V15.3h6.2ZM164.2,31a8.2036,8.2036,0,0,1-3.4,3.5,11.8773,11.8773,0,0,1-5.6,1.3,12.6614,12.6614,0,0,1-5.6-1.1,8.41,8.41,0,0,1-3.6-3.4,11.7019,11.7019,0,0,1-1.4-5.9c0-3.3.9-5.9,2.8-7.7a10.5155,10.5155,0,0,1,7.7-2.8c3.4,0,5.9.9,7.8,2.7,1.8,1.8,2.7,4.3,2.7,7.6A14.9617,14.9617,0,0,1,164.2,31Z" style="fill:#fff"/><path d="M182.5121,40.2H8.4981L8.2,120.2021c0,4.2266,0,8.2208,1.2764,12.2461,7.9666,24.69,19.994,44.434,36.3544,59.563C46.1,185.1415,48.083,134.5656,49.2,107.2c.2-5.5.7-16.3.7-16.3H18.2C23.1,82.5,24,80.4,24,80.4H50.3s.2-9,.6-20.1c.1-3.1,0-6.7,0-10.1,8.9,1.4,9.8,1.3,9.9,10.9.2,10.6.2,19.2.2,19.2H87.6s2.2,5.5,4.4,10.4c-9.3,0-21-.1-30.6-.1.7948,39.2427,2.28,78.8769,2.9854,115.4772a138.1487,138.1487,0,0,0,23.3928,11.456,18.6731,18.6731,0,0,0,14.3364.0029c25.1832-10.0088,44.4122-24.0537,58.7876-42.9384C175.161,155.7461,181.96,139.0615,182.3,122.09c.3428-19.71.293-39.7446.2446-59.12C182.5261,55.477,182.5084,47.8517,182.5121,40.2ZM112.4,86h-7.6V59.6h7.6l9.9,14.6V59.6H130V86h-7.7l-9.9-14.5Zm12.5,36.5a10.08,10.08,0,0,1-2.9-6.6l7.8-.5a6.5515,6.5515,0,0,0,1,2.9,4.8925,4.8925,0,0,0,6.3.8,2.4628,2.4628,0,0,0,.9-1.9,2.2715,2.2715,0,0,0-.9-1.8,9.9757,9.9757,0,0,0-4.2-1.5,18.6774,18.6774,0,0,1-7.7-3.2,6.4675,6.4675,0,0,1-2.3-5.1,6.5848,6.5848,0,0,1,1.2-3.8,7.557,7.557,0,0,1,3.5-2.8,16.4078,16.4078,0,0,1,6.5-1c3.4,0,5.9.6,7.7,1.9s2.8,3.3,3.2,6l-7.7.5a3.81,3.81,0,0,0-1.3-2.6,4.551,4.551,0,0,0-2.7-.8,3.0977,3.0977,0,0,0-2.1.6,1.7992,1.7992,0,0,0-.7,1.5,1.3818,1.3818,0,0,0,.6,1.1,7.5549,7.5549,0,0,0,2.7,1,36.5184,36.5184,0,0,1,7.7,2.3,9.0048,9.0048,0,0,1,3.4,2.9,7.6547,7.6547,0,0,1,1.1,3.9,8.6323,8.6323,0,0,1-1.4,4.7,9.0986,9.0986,0,0,1-3.9,3.3,16.7167,16.7167,0,0,1-6.4,1.1C129.8,125.1,126.7,124.2,124.9,122.5Zm33,39.1a21.9471,21.9471,0,0,1-6.6.9,15.9916,15.9916,0,0,1-7.7-1.6,11.2314,11.2314,0,0,1-4.6-4.8,15.4052,15.4052,0,0,1-1.6-7.3,14.8709,14.8709,0,0,1,1.8-7.5,12.3338,12.3338,0,0,1,5.2-4.9,16.27,16.27,0,0,1,7.2-1.3,20.6122,20.6122,0,0,1,6.5.8,8.1226,8.1226,0,0,1,3.6,2.5,10.5009,10.5009,0,0,1,2.2,4.2L156,144a4.3677,4.3677,0,0,0-1.6-2.3,5.5713,5.5713,0,0,0-3-.8,5.2789,5.2789,0,0,0-4.3,1.9c-1.1,1.2-1.6,3.2-1.6,5.9,0,2.9.5,4.9,1.6,6.1a5.8022,5.8022,0,0,0,4.5,1.8,7.459,7.459,0,0,0,2.6-.4,12.14,12.14,0,0,0,2.8-1.4v-2.5h-5.5V147h12.6v11.2h.2A26.878,26.878,0,0,1,157.9,161.6Z" style="fill:#fff"/><path d="M57.8,19.7a3.5416,3.5416,0,0,0-3,1.3c-.8.9-1.1,2.4-1.1,4.4a7.2744,7.2744,0,0,0,1.1,4.4,3.6129,3.6129,0,0,0,3,1.4,3.7392,3.7392,0,0,0,3.1-1.3c.7-.9,1.1-2.4,1.1-4.7A6.8077,6.8077,0,0,0,60.9,21,3.8705,3.8705,0,0,0,57.8,19.7Z" style="fill:#fff"/><path d="M154.9,19.7a3.5416,3.5416,0,0,0-3,1.3c-.8.9-1.1,2.4-1.1,4.4a7.2744,7.2744,0,0,0,1.1,4.4,3.8705,3.8705,0,0,0,3.1,1.3,3.7392,3.7392,0,0,0,3.1-1.3c.7-.9,1.1-2.4,1.1-4.7a6.8077,6.8077,0,0,0-1.1-4.2A4.542,4.542,0,0,0,154.9,19.7Z" style="fill:#fff"/><path d="M224.5912,76.522q7.3975,3.39,19.0674,3.3911,9.6189,0,15.8447-2.7832a26.7,26.7,0,0,0,10.4248-8.252,35.766,35.766,0,0,0,6.1519-13.623l-19.3843-5.8594q-1.4649,6.7874-4.7119,10.3516t-9.5947,3.5644q-6.5435,0-10.1563-4.4136T228.62,42.584q0-9.6065,3.0274-14.0938A13.9637,13.9637,0,0,1,249.1762,23.81a12.7349,12.7349,0,0,1,4.541,3.9062,16.7435,16.7435,0,0,1,2.1484,4.7852l19.5308-4.3457q-3.7589-11.3277-11.4985-16.7969T242.6332,5.89q-17.2851,0-26.7334,9.54t-9.4482,27.3008q0,13.322,5.3711,21.8613T224.5912,76.522Z" style="fill:#fff"/><path d="M301.8368,76.0557q7.9337,3.8575,20.044,3.8574,11.9135,0,19.8974-4.4678a30.1178,30.1178,0,0,0,12.2075-12.5q4.2232-8.0318,4.2237-20.581,0-17.2852-9.6685-26.88T321.0019,5.89q-17.4316,0-27.1973,9.7657T284.039,42.95q0,12.5493,4.9316,20.8984A30.1715,30.1715,0,0,0,301.8368,76.0557Zm8.374-48.6817a13.4369,13.4369,0,0,1,10.7422-4.7363q6.9815,0,11.06,4.6631T336.09,42.0713q0,12.0117-3.9062,16.65T321.1483,63.36a13.6365,13.6365,0,0,1-10.9619-4.7364q-4.0283-4.7358-4.0283-15.5761Q306.1581,32.1105,310.2108,27.374Z" style="fill:#fff"/><polygon points="426.764 61.065 392.243 61.065 392.243 7.11 370.123 7.11 370.123 78.692 426.764 78.692 426.764 61.065" style="fill:#fff"/><polygon points="497.125 62.481 458.942 62.481 458.942 48.37 493.366 48.37 493.366 33.771 458.942 33.771 458.942 22.394 496.051 22.394 496.051 7.11 436.774 7.11 436.774 78.692 497.125 78.692 497.125 62.481" style="fill:#fff"/><path d="M523.1752,75.5674q8.0317,4.3461,20.7764,4.3457a58.92,58.92,0,0,0,17.8955-2.417q7.5439-2.4169,17.3584-9.1065V37.8721h-34.18V52.7646h14.7949v6.7383a38.2212,38.2212,0,0,1-7.7148,3.6621,23.1634,23.1634,0,0,1-7.08,1.0743q-7.8135,0-12.1826-4.98-4.3712-4.98-4.37-16.6016,0-10.9373,4.3213-15.9912a14.4813,14.4813,0,0,1,11.5967-5.0537,13.9566,13.9566,0,0,1,8.0322,2.1484,11.5555,11.5555,0,0,1,4.4678,6.2012l21.3379-3.8086a29.62,29.62,0,0,0-5.835-11.45,23.05,23.05,0,0,0-9.7656-6.665Q556.7441,5.89,544.8793,5.89q-12.3046,0-19.58,3.4668a31.31,31.31,0,0,0-14.16,13.1592q-4.834,8.6675-4.834,20.3858a42.529,42.529,0,0,0,4.4189,19.7265A29.7323,29.7323,0,0,0,523.1752,75.5674Z" style="fill:#fff"/><rect x="593.2191" y="7.1104" width="22.168" height="71.582" style="fill:#fff"/><path d="M646.2709,76.0557q7.9336,3.8575,20.0439,3.8574,11.9136,0,19.8975-4.4678a30.1136,30.1136,0,0,0,12.207-12.5q4.2232-8.0318,4.2237-20.581,0-17.2852-9.668-26.88T665.4359,5.89q-17.4316,0-27.1972,9.7657T628.473,42.95q0,12.5493,4.9317,20.8984A30.1715,30.1715,0,0,0,646.2709,76.0557Zm8.374-48.6817a13.4368,13.4368,0,0,1,10.7422-4.7363q6.9814,0,11.06,4.6631t4.0771,14.7705q0,12.0117-3.9062,16.65T665.5824,63.36a13.6365,13.6365,0,0,1-10.9619-4.7364q-4.0283-4.7358-4.0283-15.5761Q650.5922,32.1105,654.6449,27.374Z" style="fill:#fff"/><polygon points="218.703 117.963 241.789 155.308 253.391 155.308 253.391 98.042 242.648 98.042 242.648 136.284 219.211 98.042 207.961 98.042 207.961 155.308 218.703 155.308 218.703 117.963" style="fill:#fff"/><path d="M300.07,154.5459a17.46,17.46,0,0,0,6.7383-4.668,16.1242,16.1242,0,0,0,3.457-7.1875q.9375-4.2569.9375-14.57V98.0415H299.6405v31.68a64.5116,64.5116,0,0,1-.5078,9.7265,7.9511,7.9511,0,0,1-3.0078,4.9414q-2.5005,2.0127-7.4219,2.0118a12.31,12.31,0,0,1-7.6367-2.1289,9.2681,9.2681,0,0,1-3.5351-5.6446,64.2254,64.2254,0,0,1-.43-9.57V98.0415H265.539v30.5474a69.5005,69.5005,0,0,0,1.1328,14.5312,15.7661,15.7661,0,0,0,3.2422,6.3477,17.7784,17.7784,0,0,0,6.6992,4.9218q4.2378,1.894,12.4414,1.8946A29.3248,29.3248,0,0,0,300.07,154.5459Z" style="fill:#fff"/><polygon points="365.851 107.729 365.851 98.042 323.391 98.042 323.391 155.308 366.945 155.308 366.945 145.659 334.953 145.659 334.953 130.073 363.703 130.073 363.703 120.425 334.953 120.425 334.953 107.729 365.851 107.729" style="fill:#fff"/><path d="M405.9877,144.1943q-2.8331,2.3643-8.418,2.3633a12.4569,12.4569,0,0,1-8.3789-2.6562q-3.1055-2.6557-4.1211-8.32l-11.25,1.0937q1.1323,9.6094,6.9532,14.6289t16.68,5.02a32.45,32.45,0,0,0,12.461-2.09,16.3833,16.3833,0,0,0,7.7344-6.3867,18.0275,18.0275,0,0,0,.4492-18.34,16.09,16.09,0,0,0-6.3282-5.82,56.0924,56.0924,0,0,0-12.48-4.1211q-8.4375-1.9929-10.625-3.8286a4.3953,4.3953,0,0,1-1.7188-3.4765,4.1706,4.1706,0,0,1,1.836-3.5547q2.8506-2.07,7.8906-2.07,4.8824,0,7.3242,1.9335t3.1836,6.3477l11.5625-.5078a16.6851,16.6851,0,0,0-5.7227-12.6172q-5.4492-4.7256-16.23-4.7266a28.6479,28.6479,0,0,0-11.27,1.9922,15.5267,15.5267,0,0,0-7.1484,5.8008,14.7174,14.7174,0,0,0-2.4805,8.1836,14.9007,14.9007,0,0,0,5.2735,11.5239q3.75,3.36,13.0469,5.6641,7.2259,1.7973,9.2578,2.5a9.5328,9.5328,0,0,1,4.16,2.4805,5.2166,5.2166,0,0,1,1.1914,3.457A7.0315,7.0315,0,0,1,405.9877,144.1943Z" style="fill:#fff"/><polygon points="454.562 155.308 454.562 107.729 471.515 107.729 471.515 98.042 426.007 98.042 426.007 107.729 442.999 107.729 442.999 155.308 454.562 155.308" style="fill:#fff"/><path d="M508.3119,142.8467l8.3594,12.4609h13.8281l-6.9922-11.1719a65.3646,65.3646,0,0,0-6.582-9.2968,27.0166,27.0166,0,0,0-6.1914-4.8047q7.5381-1.0927,11.3281-5.293a15.29,15.29,0,0,0,3.7891-10.645,16.505,16.505,0,0,0-2.5-9.0234,13.1655,13.1655,0,0,0-6.66-5.4883q-4.16-1.5425-13.34-1.543H479.015v57.2661h11.5625V131.4014h2.3438a19.0606,19.0606,0,0,1,5.82.6445,8.8832,8.8832,0,0,1,3.4766,2.3828A80.8777,80.8777,0,0,1,508.3119,142.8467Zm-17.7344-20.586V107.729h9.0235q7.0313,0,8.4375.1953a7.0838,7.0838,0,0,1,4.3554,2.2461,6.87,6.87,0,0,1,1.543,4.668,7.4578,7.4578,0,0,1-1.1719,4.2973,6.2249,6.2249,0,0,1-3.2421,2.4219q-2.0713.7032-10.3907.7031Z" style="fill:#fff"/><path d="M588.39,155.3076,565.46,98.0415H553.2338l-22.3047,57.2661h12.2656L547.9213,142.3h22.8906l5,13.0078Zm-36.914-22.6562,7.7344-21.2505,7.8906,21.2505Z" style="fill:#fff"/><path d="M654.6791,147.8467a18.0268,18.0268,0,0,0,.4492-18.34,16.0894,16.0894,0,0,0-6.3281-5.82,56.0936,56.0936,0,0,0-12.4805-4.1211q-8.4375-1.9929-10.625-3.8286a4.3951,4.3951,0,0,1-1.7187-3.4765,4.1705,4.1705,0,0,1,1.8359-3.5547q2.8506-2.07,7.8906-2.07,4.8823,0,7.3243,1.9335,2.44,1.9337,3.1836,6.3477l11.5625-.5078a16.6858,16.6858,0,0,0-5.7227-12.6172q-5.4492-4.7256-16.2305-4.7266A28.6473,28.6473,0,0,0,622.55,99.0571a15.5267,15.5267,0,0,0-7.1484,5.8008,14.7174,14.7174,0,0,0-2.4805,8.1836,14.9006,14.9006,0,0,0,5.2734,11.5239q3.75,3.36,13.0469,5.6641,7.2261,1.7973,9.2578,2.5a9.5339,9.5339,0,0,1,4.16,2.4805,5.2172,5.2172,0,0,1,1.1914,3.457,7.0316,7.0316,0,0,1-2.8321,5.5273q-2.8329,2.3643-8.4179,2.3633a12.4569,12.4569,0,0,1-8.3789-2.6562q-3.1055-2.6557-4.1211-8.32l-11.25,1.0937q1.1323,9.6094,6.9531,14.6289t16.68,5.02a32.45,32.45,0,0,0,12.4609-2.09A16.3829,16.3829,0,0,0,654.6791,147.8467Z" style="fill:#fff"/><polygon points="678.703 130.073 707.453 130.073 707.453 120.425 678.703 120.425 678.703 107.729 709.601 107.729 709.601 98.042 667.14 98.042 667.14 155.308 710.695 155.308 710.695 145.659 678.703 145.659 678.703 130.073" style="fill:#fff"/><path d="M734.9916,94.8774a4.0015,4.0015,0,0,1,.7422-2.6367,2.5248,2.5248,0,0,1,1.9531-.7617,17.0224,17.0224,0,0,1,5.2344,1.3672q3.5932,1.3682,4.4922,1.6016a12.5547,12.5547,0,0,0,2.6172.2734,6.2466,6.2466,0,0,0,4.98-2.2656q1.9336-2.2647,1.9727-7.5391h-5.0781a4.2172,4.2172,0,0,1-1.0743,2.6172,2.95,2.95,0,0,1-2.09.7812,13.021,13.021,0,0,1-4.8633-1.3867,32.1179,32.1179,0,0,0-4.2773-1.68,10.4538,10.4538,0,0,0-2.5391-.2929,6.583,6.583,0,0,0-5.1172,2.207,9.1,9.1,0,0,0-1.9922,6.3086q0,.5084.0391,1.4062Z" style="fill:#fff"/><polygon points="755.304 136.284 731.867 98.042 720.617 98.042 720.617 155.308 731.359 155.308 731.359 117.963 754.445 155.308 766.046 155.308 766.046 98.042 755.304 98.042 755.304 136.284" style="fill:#fff"/><path d="M803.6244,97.0649a31.4459,31.4459,0,0,0-12.3437,2.2657,22.2934,22.2934,0,0,0-7.4024,5.1562,26.9562,26.9562,0,0,0-5.332,7.8516,36.4213,36.4213,0,0,0-2.6172,14.688q0,13.6728,7.5391,21.4648t20.3125,7.793q12.6166,0,20.1562-7.8321t7.5391-21.6992q0-13.984-7.5977-21.8364T803.6244,97.0649Zm11.4649,44.356a15.4435,15.4435,0,0,1-22.7539-.0391q-4.4928-5.0186-4.4922-14.7461,0-9.8817,4.375-14.7856a15.9924,15.9924,0,0,1,22.9882-.0586q4.3155,4.8443,4.3165,14.688Q819.5229,136.44,815.0893,141.4209Z" style="fill:#fff"/><path d="M878.4486,134.8389a27.0166,27.0166,0,0,0-6.1914-4.8047q7.5381-1.0927,11.3282-5.293a15.29,15.29,0,0,0,3.789-10.645,16.505,16.505,0,0,0-2.5-9.0234,13.1657,13.1657,0,0,0-6.66-5.4883q-4.16-1.5425-13.34-1.543H840.5385v57.2661H852.101V131.4014h2.3437a19.06,19.06,0,0,1,5.82.6445,8.8817,8.8817,0,0,1,3.4766,2.3828,80.873,80.873,0,0,1,6.0938,8.418l8.3593,12.4609h13.8282l-6.9922-11.1719A65.3632,65.3632,0,0,0,878.4486,134.8389Zm-17.7929-12.5782H852.101V107.729h9.0234q7.0313,0,8.4375.1953a7.0841,7.0841,0,0,1,4.3555,2.2461,6.87,6.87,0,0,1,1.543,4.668,7.4586,7.4586,0,0,1-1.1719,4.2973,6.2252,6.2252,0,0,1-3.2422,2.4219Q868.975,122.2608,860.6557,122.2607Z" style="fill:#fff"/><path d="M909.4447,142.3h22.8907l5,13.0078h12.5781l-22.93-57.2661H914.7572l-22.3047,57.2661h12.2657Zm11.2891-30.8989,7.8906,21.2505h-15.625Z" style="fill:#fff"/><path d="M256.682,171.7939a23.5169,23.5169,0,0,0-10.16-5.2734,56.8516,56.8516,0,0,0-12.8257-1.0937h-24.87v57.2656H234.432a48.0567,48.0567,0,0,0,12.0445-1.211,25.2713,25.2713,0,0,0,9.562-4.57,24.9446,24.9446,0,0,0,7.2173-10.1172,32.4472,32.4472,0,0,0,2.0688-12.1875,36.4135,36.4135,0,0,0-2.2065-13.5351A24.5707,24.5707,0,0,0,256.682,171.7939Zm-6.8037,32.793a11.79,11.79,0,0,1-3.5625,5.5274,13.4679,13.4679,0,0,1-5.4936,2.3828,43.42,43.42,0,0,1-8.2285.5468h-10.16v-37.93h6.1138a72.4953,72.4953,0,0,1,11.1709.5468,13.9051,13.9051,0,0,1,6.2983,2.6953,12.903,12.903,0,0,1,3.8613,5.5469q1.3792,3.5552,1.3794,10.1953A32.0452,32.0452,0,0,1,249.8783,204.5869Z" style="fill:#fff"/><polygon points="290.471 197.458 324.305 197.458 324.305 187.81 290.471 187.81 290.471 175.114 326.833 175.114 326.833 165.427 276.863 165.427 276.863 222.692 328.121 222.692 328.121 213.044 290.471 213.044 290.471 197.458" style="fill:#fff"/><path d="M397.1693,201.6377h15.584v7.2656a31.2064,31.2064,0,0,1-7.3789,3.4571,27.0785,27.0785,0,0,1-8.5732,1.4257q-8.6426,0-13.9756-5.0976t-5.332-15.293q0-9.4526,5.2636-14.2578t14.1817-4.8047a18.291,18.291,0,0,1,9.8144,2.4414,12.2923,12.2923,0,0,1,5.3565,6.66l13.5146-2.1485a20.1114,20.1114,0,0,0-9.0791-12.3632q-7.0562-4.4723-19.6064-4.4727-9.6534,0-16.1358,2.8516a28.1008,28.1008,0,0,0-12.9179,10.664,29.0377,29.0377,0,0,0-4.4131,15.8985,30.5233,30.5233,0,0,0,3.9541,15.2539,26.0408,26.0408,0,0,0,11.8144,10.7812,42.1955,42.1955,0,0,0,18.4336,3.7695,52.19,52.19,0,0,0,16.4346-2.6757q8.1138-2.6748,12.39-6.1914V191.9893H397.1693Z" style="fill:#fff"/><path d="M479.0893,197.1064a54.9643,54.9643,0,0,1-.5977,9.7266,7.8616,7.8616,0,0,1-3.54,4.9414q-2.943,2.0127-8.7344,2.0117-5.7012,0-8.9873-2.1289a9.2251,9.2251,0,0,1-4.16-5.6445,54.6931,54.6931,0,0,1-.5058-9.57V165.4268H438.9564v30.5468q0,9.6094,1.3331,14.5313a15.0426,15.0426,0,0,0,3.8154,6.3476,21.0459,21.0459,0,0,0,7.8838,4.9219q4.9878,1.894,14.6416,1.8945a40.0677,40.0677,0,0,0,12.9638-1.7382,20.9177,20.9177,0,0,0,7.9307-4.668,15.2746,15.2746,0,0,0,4.0684-7.1875q1.1029-4.2568,1.1025-14.57V165.4268H479.0893Z" style="fill:#fff"/><path d="M526.4379,165.4268l-26.249,57.2656h14.4345l5.5625-13.0078h26.94l5.8838,13.0078h14.8027l-26.9853-57.2656ZM524.37,200.0361l9.1026-21.25,9.2861,21.25Z" style="fill:#fff"/><path d="M622.8393,171.7939a23.5216,23.5216,0,0,0-10.1592-5.2734,56.86,56.86,0,0,0-12.8262-1.0937h-24.87v57.2656h25.6055a48.058,48.058,0,0,0,12.0449-1.211,25.2681,25.2681,0,0,0,9.5615-4.57,24.9539,24.9539,0,0,0,7.2178-10.1172,32.4576,32.4576,0,0,0,2.0683-12.1875,36.4027,36.4027,0,0,0-2.207-13.5351A24.5648,24.5648,0,0,0,622.8393,171.7939Zm-6.8038,32.793a11.786,11.786,0,0,1-3.5625,5.5274,13.4686,13.4686,0,0,1-5.4931,2.3828,43.4311,43.4311,0,0,1-8.23.5468H588.5912v-37.93h6.1143a72.4953,72.4953,0,0,1,11.1709.5468,13.9078,13.9078,0,0,1,6.2978,2.6953,12.8945,12.8945,0,0,1,3.8613,5.5469q1.38,3.5552,1.379,10.1953A32.0331,32.0331,0,0,1,616.0355,204.5869Z" style="fill:#fff"/><path d="M662.4193,165.4268,636.17,222.6924h14.4346l5.5625-13.0078h26.9394l5.8838,13.0078h14.8028L676.808,165.4268Zm-2.0683,34.6093,9.1025-21.25,9.2861,21.25Z" style="fill:#fff"/><polygon points="724.987 165.896 711.379 165.896 711.379 222.692 758.821 222.692 758.821 213.044 724.987 213.044 724.987 165.896" style="fill:#fff"/><path d="M808.5619,197.1064a54.9766,54.9766,0,0,1-.5976,9.7266,7.8618,7.8618,0,0,1-3.54,4.9414q-2.9429,2.0127-8.7344,2.0117-5.7011,0-8.9873-2.1289a9.2245,9.2245,0,0,1-4.16-5.6445,54.6894,54.6894,0,0,1-.5059-9.57V165.4268H768.4291v30.5468q0,9.6094,1.333,14.5313a15.0436,15.0436,0,0,0,3.8154,6.3476,21.0467,21.0467,0,0,0,7.8838,4.9219q4.9878,1.894,14.6416,1.8945a40.0687,40.0687,0,0,0,12.9639-1.7382,20.9193,20.9193,0,0,0,7.9307-4.668,15.2744,15.2744,0,0,0,4.0683-7.1875q1.1031-4.2568,1.1026-14.57V165.4268H808.5619Z" style="fill:#fff"/><path d="M874.5287,166.2861q-3.769-.8583-16.1816-.8593h-21.836v57.2656h13.6075V201.0908h8.872a91.16,91.16,0,0,0,14.1133-.82,21.5515,21.5515,0,0,0,7.0566-2.7148,16.777,16.777,0,0,0,5.7237-5.6446,16.3928,16.3928,0,0,0,2.2519-8.8672,15.983,15.983,0,0,0-3.9072-11.1523A18.0558,18.0558,0,0,0,874.5287,166.2861Zm-1.9531,21.3672a8.8716,8.8716,0,0,1-4.2529,2.8125q-2.7129.8994-10.7569.8985h-7.4472v-16.25h6.5742a76.968,76.968,0,0,1,9.791.3906,9.9771,9.9771,0,0,1,5.4707,2.539,6.7719,6.7719,0,0,1,2.1611,5.1563A6.8943,6.8943,0,0,1,872.5756,187.6533Z" style="fill:#fff"/><polygon points="912.914 213.044 912.914 197.458 946.748 197.458 946.748 187.81 912.914 187.81 912.914 175.114 949.278 175.114 949.278 165.427 899.307 165.427 899.307 222.692 950.565 222.692 950.565 213.044 912.914 213.044" style="fill:#fff"/></svg>