<svg xmlns="http://www.w3.org/2000/svg" xmlns:xlink="http://www.w3.org/1999/xlink" viewBox="0 0 1082.9 782.6"><g fill-rule="evenodd"><path fill="#3EB34B" d="M0 670c-.5-.1 16.4-37.8 17.6-39.8 4.5-7.3 6.7-12.2 13.5-17.6 2.6-2.1 16.6-6 16-10-.6-4.4-10.4-.8-12.2-3.4-6.5-9.6-2.7-5.7.9-16.4 4-12 3.2-25.6 10-36.9 3.2-5.3 8.8-6.4 11.3-12.5 3.3-8.1-.2-18.1.8-26.5.8-6.6 1.1-20 8.4-23.8 7.5-4 14.2 4.7 22.6 2.3 15.2-4.4 4.4-3.8 11.9-13.4 2.7-3.5 9.5-9.7 10.6-13.9 2.9-10.5-6.3-22.6-3.3-32.9.5-1.9 8.7-9.9 10.2-12.2 2.4-3.7 5.7-12 7.7-16.2 7.4-14.9 6-33.7 9.9-51.1 2-9 7.9-26.4 6.5-35.1-.8-4.9-7.7-5.7-6.9-12.1.2-1.5 9.7-8.8 11.1-10.9 7.4-10.9 11.2-20.5 21.7-30 11.9-10.8 16.1-20.3 21-35.3 4.5-13.8 7.8-27.4 14.9-40.5 3.2-5.9 11.7-13.9 13-20.3 1.5-7.5-5.7-12.6-4.4-18.5 2.6-12.5 19.1-21.9 24.1-34.2 8.5-20.7 12.5-35.3 26.7-53.9 15.1-19.8 38.8-37.1 59-46.6C338 1.1 349.7 2.6 366 .6c15.8-1.9 22.7-.6 37.6 7.6 14.2 7.8 25.1 18.8 42.3 19.3 10 .3 20.3-4.5 31.4-4.3 17.2.3 31.3.9 46.4 7.1 14.1 5.8 26.4 12.6 40.2 20.2 13.2 7.3 10.7 10.9 18.4 21.5 7.4 10.2 14.7 9.8 25.5 13.5 7.8 2.7 3.5 7.1 10.1 6.6.9-.1-1.2-7.8-.2-8 10.9-2.1 19.9.7 30.6 1.5 3.1.2 2.6-5.1 7.4-3.9 5.6 1.4 17 8.4 19.5 13.8 3 6.5-4.1 11.5-.9 17.2 3 5.3 6.3-4.5 8.3-1.1 5.3 8.9 8.1 12.4 15.5 19.2 10.4 9.6 20.5 27.5 33.4 33.4 2.1 1 12.6 1.9 13.1 2.2 3.9 2.1 6.4 7.9 9.4 9.5 11.4 6 25.9-2.9 40 2 14 4.8 20.2 17.4 34.3 23.6 9.7 4.3 6.3 5.7 15.1 5.2 4.8-3.9 10.3-6.4 16.3-7.5 5.8-.7 11.6-1 17.5-.8 14-.7 31.4 3.2 44.3 1 9.4-1.7 10-6.4 21.2-4.8 7.1 1 14.2 5 21.2 6.8 5.2 1.3 11.2 4.6 17.3 3.6 16.4-2.6 28.9-20.4 46.3-6.4 9.7 7.9 23.3 20.2 32 29.8 7.1 7.7 18.6 25.4 21.6 34.9 5.7 17.7-6.3 22.5-13 36.2-5.7 11.6-9.3 28.1-11.9 41-5.4 27.3-10.6 29.7-37 26.6-6.4-.8-12-1.5-18.4-.4-1.8.8-3.7 1.5-5.5 2.3-5.2 3.3-10.2 3-15-.9-11.3.1-24 .3-35.9 1.1-12.7.8-16.1 7.7-26.3 10.5-2.4.7-7.2-4.3-8.8-3.7-2.1.8-5.4 4.8-6.1 5l-3 5.7c-3.5 2.7-7.1 2.8-10.9.2-6.7.9-10.9-7.7-18.4-2.1-5.9 4.3-4.7 5-4.2 11.1.9 10.8 10.6 2.3 1.8 18.7-14.8 27.4-39.9 48.2-67.8 59.8-5.7 2.4-9.8 2.8-15.5 4.2-1.7.4-4.5-4.8-6.8-4.5-2.5.3-3.1 7.7-7.5 8.9-9.5 2.7-11-1-18.3-5-7.4-4.1-8.5-8.3-18.3-6.9-5.2.8-7.9 7.8-13.5 7.4-6.5-.5-6.6-6.2-11-7.9-3.1-1.2-8.3 1-9.9.2-14.6-7-12.1-13.7-31.7-7-13.9 4.8-33.4 9.3-45.4 16.8-12.4 7.7-19.6 20.3-33.7 27.1-15.2 7.3-24.1 8.8-31.3 24.7-3.8 8.4-1.7 10.9-9.6 17.4-5.2 4.3-11.5 5.1-16.5 10-5.2 5.2-7.8 11.6-13.7 16.5-6.8 5.7-16.5 7.4-21.8 14.6-6.2 8.3-3.2 15.9-16.7 17.7-3.2.4-6.3-1.6-9.4-1.7-10.4-.2-13.4 1.3-23.6 3.4-4.9 1-11.2 1-16 2.1-11.5 2.6-6.1 4.4-15.8 10-21.1 12.1-25.2-5.1-45.1-5.7-7.7-.2-10.8 5.9-17.1 6.9-7.2 1.1-8.2-1-14.7-.5-14.8 1.1-33 12.3-47.2 8.3-.5-.2-8.1-7.3-8-7.4-8.5.3-12.3 10-18.7 15.2-5.6 4.5-12.8 6-18.1 10.5-1.4 2.9-2.8 5.7-4.3 8.5-3.1 1.6-6.3 3-9.6 4.1-8.1 10.7-12.2 31.3-17 44.4-7.7 21.3-9.7 31-28.4 43.5-22.7 15.1-61.9 42.9-91.5 28.4-3.9-1.9-5.2-1.7-8.4-3.8-3.7-2.4-3-7.6-10.5-10.8-11.9-5.1-30.3-1.2-41.6-8.2-15.3-9.5-13.5-31.9-18.8-47C12.1 698.3 0 680.8 0 670c1.2.2 0 .8 0 0z"/><path fill="#C9CBD1" d="M436.2 547.3c.2.1.3.5.2.6-1 .9-7.4.3-8.3.6-2.1.7-2.7 2.5-2.3 3.5.5 1.4 2.9 2.1 5.3 3.1.8.3 3 .8 4.8.9.9.1 3.9.2 4.5.1.8-.1 2.4.1 2.5.6 0 .3-.7.9-3.1 1-2 .1-5.6-.3-7.8-.7-2.8-.5-4.8-1.3-4.8-.3 0 .7 3.7.9 6.1 1.2.6.1 3.6.4 6 .4 2.3.1 3.9-.4 3.9.5 0 .5-2.1 1.1-4.8 1-2.2-.1-4.8-.5-7-.7-2.3-.2-4.2-1.2-4.3-.5s2.6.9 4.8 1.2c2.4.3 5.5.7 7.9.6 2.2-.1 3.6-.2 3.6 0 0 .6-1.4 1.3-3.5 1.4s-4.9-.3-7.5-.5c-5-.3-5.4-.9-5.5 0-.1.5 3.4.5 5.5.8 1.5.2 5.8.5 8 .4 2.3-.1 3 .1 2.9.8-.1.8-3.8 1.2-10.3.9-4.9-.3-7.8-.6-11.1-2.9-2.3-1.6-5.8-4.7-6.8-9-.9-4.1-1.5-5.6-3-7.3-1.3-1.4-2.2-3.1-3.5-5.3-4.7-8.1-6.1-16.4-6.1-25.8.1-8 .8-15.8 2.5-23.5 1.2-5.6.6-11.4 0-17.1-.7-6.6-2.1-13.2-2.2-19.8-.1-5.5-.6-11-.6-16.5 0-4.4 1-8.1 3.8-11.6 4.2-5 8.6-9.6 13.8-13.5 2.4-1.8 4.9-1.6 7.1.4 7 6.4 15.5 8.7 24.6 8.6 8.1-.1 15.2-3.6 21.5-8.5 2.3-1.8 5.5-1.6 7.6.3 4.3 4 9 7.6 12.2 12.7 2.5 4 3.9 8.4 4 13.2.1 9.1-1 18.1-1.9 27.1-1 9.9-1.6 19.8.6 29.8 2.6 11.9 2.4 24.1-1.3 35.9-1.6 5.1-4.5 9.7-7.3 14.2-1.6 2.6-2.9 5.4-4 8.3-1.9 4.9-6 7.9-9.1 9-4.9 1.7-8.1 1.5-10.4 1.6-1.3.1-8.1-.6-8.2-1.8-.1-.6 1.9.1 5.4.3 3.2.1 8.9.4 12.6-1.5 2-1.3-.4-.5-1.6-.2-.9.2-3.3.8-7.2 1-4.5.2-9-.3-9-.8 0-1.3 2.3-.5 5-.5 2 0 7.7-.2 10.1-.9 1.6-.5 3-1.1 2.9-1.4-.1-.4-2.5.9-5.2 1.2-2.4.3-5.8.9-8.9.6-2.5-.2-4.2-.6-4.1-1 0-.8 4.4-.2 7.1-.4 3.2-.2 9-1.6 9.4-1.8.7-.3 1.1-.9 1.1-1.1-.2-.7-1-.1-2.3.3-1.3.5-3.1.8-3.6.9-1.9.4-4.2.7-6 .9-.8.1-5.6.1-5.4-.9.2-1.5 2.1-1.1 5.7-1.2 2.5 0 5.2-.8 8.2-1.7 3.4-1.1 3.4-2.5 2.8-4.3-.7-1.9-2.3-1.9-5.3-1.2-3.1.7-5.6-.9-5.6-1.3.1-.7 2.2-.4 4.9-1.1 5.3-1.4 8.4-.4 9.8-.5 3.2-.1 4.4-1.2 4.8-4.3.6-5.9.5-11.7.3-17.6-.1-5.2-.7-10.9 4.2-15 1.6-1.3 1.8-3.2.1-4.7s-2.1-3.4-2.1-5.5v-35.5c0-3.4.7-6.4 2.6-9.2 2.9-4.3 4.3-9.2 5.6-14.2.2-.8 0-1.7 0-2.8-1.6.5-1.6 1.9-1.9 3.1-1.9 7.8-5.2 14.7-11.2 20.2-3.3 3.1-7.3 4.9-11.7 5.7-2.5.4-4.6-.3-6.5-2.1-6.1-6.2-14.3-6.2-20.3 0-2.8 2.9-6 2.4-9.3 1.5-5.9-1.6-10.1-5.4-13.5-10.3-3.3-4.7-5.3-9.9-6.7-15.5-.3-1-.1-2.4-1.9-2.9.2 4.4 1.1 8.5 3.1 12.1 3 5.5 4.1 11.3 4 17.5-.2 11 0 22.1 0 33.1 0 1.6-.4 2.9-1.6 4-1.9 1.8-2.1 4-.1 5.8 3 2.7 3.8 6.1 3.6 9.9-.2 4.4-.3 8.9 0 13.3.2 3.5.4 7 1.3 10.5 1.1 3 2.5 4.4 7.2 2.9.6 0 7.6.3 10.2 1.2z"/><path fill="#7F8D90" d="M448.6 329.4H422c-3.5 0-4.7-1.2-4.7-4.7v-31.9c0-3.5 1.2-4.7 4.7-4.7 7.6 0 15.2-.3 22.7-.4 10.5-.1 20.9.2 31.4.4 2.7 0 4.4 1.8 4.4 5.1v31.7c0 3-1.8 4.5-4.9 4.5h-27z"/><path d="M423.1 373.8v-21.6c0-4.8.3-4.9 5.1-4.7 3 .2 6.1.1 9.1 0 2.9-.1 4.7 2 5.1 4.1.6 2.9.7 5.9 0 8.7-.6 2.5-2.1 4.5-4.6 5.7-3 1.5-3.7 3.7-2.9 6.4.8 2.5 2.9 2.6 4.7 2.6 2.3 0 4.2.7 6 1.9 2.1 1.3 4.2 1.5 6.5.5 3.2-1.3 6.4-2.7 9.9-2.8 2 0 2.4-1.6 2.6-3.1.3-1.9 0-3.6-2-4.6-2.9-1.4-5.1-3.5-5.8-6.7s-.6-6.5.4-9.6a4 4 0 0 1 3.5-2.9c3.5-.4 7-.4 10.5-.1 2.1.2 3.1 1.5 3.5 3.3.3 1.8.4 3.6.5 5.4 0 12.2-.3 24.3.2 36.5.3 6.9-2.7 10.8-8.3 13.7s-11.4 4.8-17.6 4.8c-8.6 0-16.4-2.9-23.3-8-2.6-1.9-3-4.7-3-7.7l-.1-21.8zm32.2-5.4c-.7 5.5-2.4 7.9-5.6 7.9s-4.5-1.8-5.3-7.2c-1.2.5-1.1 1.8-1.6 2.7s-1 1.8-2.1 1.6c-1.5-.3-3.3-.2-4.1-2-.6-1.2.1-2.2.8-3 .9-1 1.9-1.9 2.9-2.9 4.8-4.9 5.6-9.8 2.6-16-2.5-5.2-2.5-5.2 1.8-9.3 3-2.8 6.3-2.9 9.3-.1 1.3 1.2 2.3 2.6 3.4 4 .6.9.9 1.8 0 2.8-4.9 5.6-3.1 16.5 3.3 20.7 1.4.9 2.5 2 2 3.6s-2.2 2-3.7 2.1c-1.8 0-2.2-1.4-2.7-2.8-.2-.7.1-1.7-1-2.1zm-31.6-23.3c-.4-3.5-.3-6.4-.1-9.2.2-2.7 2.4-4.5 5.7-4.6h24.5l16.3-.1c3.6-.1 5.1 2.5 5.3 4.9.2 1.9 0 3.8.1 5.8 0 .5 0 1.1-.5 1.2-.3.1-.7-.3-1-.5-4.9-5.1-11.2-6.5-18-6.4h-11c-8.4-.3-16.1.8-21.3 8.9zm28 74.3c-10-.2-18.3-3.4-25.7-9.1-.8-.6-1.6-1.3-.7-2.4.8-1 1.6-1.6 3.1-.9 2.5 1.3 5.1 2.5 7.7 3.5 11 4.2 21.5 2.8 31.7-2.6 1.3-.7 2.6-1.5 4.2-1.3.9.1 1.4.7 1.8 1.4.3.7-.3 1.2-.7 1.6-6.4 5.4-13.4 9.6-21.4 9.8zm25.1-64.6V334c0-1.2.1-2.3 1.5-2.7 1.9-.6 2.9.2 2.9 2.2v12.2l-.1 29.2c0 .4.1.8 0 1.2-.4 1.2-1.1 2.2-2.5 2.1s-1.7-1.1-1.7-2.4l-.1-21z" fill="#C9CBD1"/><path fill="#C8CAD0" d="M421 355v20.2c0 1.3-.3 2.5-1.6 2.9-1.4.6-2.3-.2-2.6-1.6-.2-.7-.1-1.4-.1-2.2V334c0-1.2-.5-2.8 1.5-2.9s2.6 1.4 2.7 3v8.9c.1 4 .1 8 .1 12z"/><path d="M448.7 286.2h-10.5c-1.5 0-2.7-.2-2.7-2.1s1.3-2.2 2.7-2.2h21.3c1.5 0 2.4.7 2.4 2.3-.1 1.5-1 2-2.4 2h-10.8zm-16.9 60.4c-.9-.6-2.3-.3-3.5-.5-1.7-.3-2.1-2.1-.7-3.3 4-3.6 8.7-5.3 14.1-4.7 1.2.1 1.4.7.8 1.7-2.3 4.1-5.9 6.2-10.7 6.8zm27.9-8.6c4.4-.1 8 1.6 11 4.7 1 1.1.9 1.9-.3 2.3-4.6 1.7-11.3.2-13.3-3.9-.4-.8-1.2-1.5-.9-2.3.5-1.1 1.6-.8 2.5-.8h1z" fill="#7F8D90"/><path fill="#18131A" d="M458.3 382h-16.8v-.2h16.8v.2z"/><path fill="#C8CACF" d="M450.2 528.6c-1.7 0-3.3-.7-3.3-2.5 0-1.7 2.2-2.4 3.4-2.3 2.2 0 3.1.9 3.1 2.4.1 1.8-1.9 2.5-3.2 2.4z"/><path fill="#C9CBD1" d="M499.6 578.9l-1.3-5c-2.1-9.2-4.3-18.3-7.2-27.3-.4-1.3-1.7-1.6-2.7-.7-1.7 1.6-2.5 3.6-3 5.8-1.7 6.6-5.5 11.2-12.5 12.7-5.2 1.2-10.4 1.3-15.6.6-4.3-.7-3.6-2.1-3.3-5.3.2-2.5.3-4.5 4.1-4.4 3.8 0 6.4-.2 9.4-1.2 1.4-.5 4-.8 3.3-3.2-.7-2.2-2.8-1-4.3-.7-2.4.4-5.6-.2-7.4-2.3-.6-.7 0-1.7.9-1.6s1.8 0 2.7-.1c3.3-.5 6.5-1.3 9.9-1.1 5.2.2 6.4-.8 6.4-6.1 0-5.7-.1-11.4.1-17 .2-5 .1-10.2 4.6-13.9.9-.7.5-1.5-.3-1.9-2.1-.9-2.1-2.7-2-4.6l.1-37.4c0-.7.1-1.5-.6-1.9-.8-.5-1.3.2-1.9.6-3.4 2.7-7.1 4.7-11.4 5.3-3.3.5-6.9.9-9-2.1-2-2.8-4.7-4-7.7-4.4-3.4-.3-6.7 0-9.1 3.2-1.6 2.3-4 3.5-6.9 3.4-6.1-.1-11.1-2.6-15.6-6.5-.6-.5-1.3-1.2-2.1-.7-.8.4-.4 1.3-.4 2v33.8c0 1-.2 2 .1 2.9.8 2.6.4 4.7-1.8 6.3-1 .7-1 1.5-.1 2.4 3.5 3.2 4.4 7.6 4 11.9-.3 4.8-.3 9.6-.3 14.3 0 3 .3 6.2 1.7 9 .7 1.4 1.4 2.2 3.3 1.8 4.8-1.2 9.5.5 14.4.9.9.1 1.2 1.1.6 1.7-.7.6-1.5 1-2.4 1.3-2.4.6-4.7.3-7.1.4-.9 0-1.7.1-2 1.2s.5 1.6 1.1 1.8c3.5 1.8 7.1 2.4 11.1 2.5 1.9 0 4.4-.3 4.5 3.9.1 3.5.4 5-2.5 5.7-4 .9-7.1.3-11.1.2-9.1-.3-15.6-4.8-17.6-14.1-.3-1.6-.6-3.3-1.9-4.5-1.5-1.5-2.7-1.3-3.2.8-1.3 5.4-2.3 11-2.9 16.5-.7 6.5-1.3 13.1-1.6 19.7l-2.4 38.6c-.2 3.5 2.5 3.5 5.9 2.5 4.7-1.4 8.9-3.9 12.1-7.6 4.3-4.9 8.6-6.5 16.6-6.7 6.9-.2 23.2-4.2 27.4-4.8 5.1-.6 8.3-.4 13.7 1 3.7 1 7.3.1 10.2-2.3 3.4-2.8 4-14 11.1-17.5 3.6-1.8 2.8-4.2 1.9-7.8zM445.1 526c0-2.6 1.9-4.1 5.1-4.1s4.9 1.5 4.9 4.3c0 2.5-2.3 4.4-5.1 4.3-2.9-.1-4.9-1.9-4.9-4.5z"/><path d="M140.6 500.1c.8-3.1 6.9.8 7.2-.2.5-1.7-11.7-12-8.8-13.6 4.6-2.6 9.3 12.6 10.4 12.8 1.7.3-.4-7.9 2.2-7.4 3.2.5-2.3 7.5-.7 7.6 1.3.1 13.3-10.9 16-7.5 3 3.7-14.8 7.9-15.2 9.3-.2.7 9.9.7 7.9 4-1.2 2.1-8.2-3.8-8.6-3s18.8 27.1 15.1 29.5c-5.8 3.8-14.9-28.7-16.4-29s.9 9.6-2.4 9c-3.3-.5 2.5-8.7 1.5-9.2-1.1-.6-12.1 11.3-14.7 7.4-2.9-4.3 13.5-7.4 13.7-8.8s-8.2 3-7.2-.9zm61.1-.9c.6-2.3 5.1.6 5.4-.2.4-1.3-8.8-9-6.6-10.2 3.5-1.9 7 9.4 7.8 9.6 1.3.2-.3-5.9 1.7-5.6 2.4.4-1.8 5.6-.5 5.7 1 .1 10-8.2 12-5.6 2.2 2.8-11.1 6-11.4 7-.2.6 7.4.5 5.9 3-.9 1.6-6.1-2.8-6.4-2.3-.3.6 14.1 20.3 11.3 22.1-4.4 2.8-11.2-21.6-12.3-21.8s.7 7.2-1.8 6.8 1.9-6.5 1.1-6.9-9.1 8.5-11 5.6c-2.2-3.2 10.2-5.6 10.3-6.6s-6.2 2.3-5.5-.6zm-90.9 52.3c.5-2.1 4.7.5 4.9-.1.4-1.2-8.1-8.3-6.1-9.4 3.2-1.8 6.4 8.7 7.2 8.8 1.2.2-.3-5.4 1.5-5.1 2.2.4-1.6 5.2-.5 5.3.9.1 9.2-7.5 11-5.2 2 2.6-10.2 5.5-10.5 6.4-.2.5 6.8.5 5.4 2.8-.9 1.5-5.6-2.6-5.9-2.1s12.9 18.7 10.4 20.3c-4 2.6-10.3-19.8-11.3-20s.6 6.6-1.6 6.2c-2.3-.4 1.7-6 1-6.3-.8-.4-8.3 7.8-10.1 5.1-2-3 9.3-5.1 9.5-6.1s-5.5 2-4.9-.6zm92.2 56.3c.5-2 4.5.5 4.7-.1.3-1.1-7.6-7.8-5.8-8.9 3-1.7 6.1 8.2 6.8 8.3 1.1.2-.3-5.1 1.5-4.9 2.1.3-1.5 4.9-.4 5 .8.1 8.7-7.1 10.5-4.9 1.9 2.4-9.7 5.2-10 6.1-.2.5 6.5.5 5.2 2.6-.8 1.4-5.3-2.5-5.6-2s12.3 17.7 9.8 19.3c-3.8 2.5-9.7-18.8-10.8-19-1-.2.6 6.3-1.6 5.9-2.1-.3 1.6-5.7 1-6-.7-.4-7.9 7.4-9.6 4.9-1.9-2.8 8.8-4.9 9-5.8s-5.3 2-4.7-.5zm-15.3-65.1c.2-.7 1.6.2 1.7 0 .1-.4-2.8-2.9-2.1-3.3 1.1-.6 2.2 3 2.5 3.1.4.1-.1-1.9.5-1.8.8.1-.6 1.8-.2 1.8.3 0 3.2-2.6 3.8-1.8.7.9-3.6 1.9-3.7 2.2-.1.2 2.4.2 1.9 1-.3.5-2-.9-2.1-.7s4.5 6.5 3.6 7.1c-1.4.9-3.6-6.9-3.9-7-.4-.1.2 2.3-.6 2.2s.6-2.1.4-2.2c-.3-.1-2.9 2.7-3.5 1.8-.7-1 3.2-1.8 3.3-2.1.2-.4-1.8.7-1.6-.3z" fill="#FECC0D"/><path d="M477.5 384.5c9.3 16.6 20.5 31.9 41.7 31 4.7-.2 9.1-1.4 13.7-2.4 3.9-.9 4.1-.9 3 2.8-2.1 7.1-6.8 13.8-12.4 18.5-5.5 4.6-12.5 8-19.6 9.3-4.4.8-5.4.9-5.7-3.4-.3-4.4.1-7.8-1.8-12-3.9-8.9-12.3-13.8-19-20.1-4.2-4-1.2-5-.6-10.2.1-2.1-1-12.9.7-13.5 1.3 2.4-.3.1 0 0zm-56 13.9c.2 2.8 4.4 6.3 2.3 7.8-2.8 2-9.3 7.7-11.8 9.8-3.4 2.9-6.6 5.9-8.9 9.8-2.1 3.6-3.2 7.6-3.1 11.8 0 3 1.3 5.2-2.3 6.4-7.3 2.4-18.7-6.1-23.5-10.5-4.3-4-12.7-13.1-12.2-19.6.3-3.8 4.9-.4 8 .4 5.6 1.5 11.2 1.9 17.1.9 7.6-1.3 14.6-5.1 20.3-10.4s10.1-11.4 13.1-18.4c.4-.9.9-.4.9.4-.1 1.9-.3 5.1.1 11.6zm-104.1 34.7c-35.8 19.8-92.6 31-116.9-12.4-9.3-16.6-7.8-35.3.5-52 5.1-10.4 12-19.5 20.3-27.6 1.8-1.8 9.1-10.5 12.1-8.5 1.9 1.2-3.3 10.7-3.8 12.1-6.6 19.6-12.7 47.2 5.4 62.8 14.4 12.4 37.9 11.1 55.6 8.7 13.7-1.8 27.4-5.3 40.7-9.1 6.4-1.9 12.8-4 19.1-6.3 2.8-1 11.3-5.9 14.1-5.2 7.4 2-11.4 13.4-14.9 16.1-10.3 7.9-21 14.8-32.2 21.4-9.8 5.5 3.7-2.1 0 0zm315.9 17.3c-21.3-1.5-42-10.1-60.1-20.9-7.9-4.7-15.3-10-22.7-15.4-2.4-1.8-21.6-18.4-19.8-18.5 8.2-.4 20.2 7.1 27.9 9.5 9.6 3 19.3 5.8 29.1 7.9 13.6 2.9 27.9 4.5 41.8 4.4 17.3-.2 36.4-6.9 42.2-24.8 5.3-16.4-.6-35.4-5.9-50.9-3.4-10-2.5-11.5 5.8-4.6 7.5 6.3 15 13.1 21.1 20.9 11.3 14.4 18.9 33 14.3 51.4-3.9 15.5-14.2 26.7-28.6 33.4-10.1 4.8-34 13.4-45.1 7.6-12.3-.8.7.4 0 0zm39.8-194.5c-4.2-38.9-52.4-34.8-80.5-29.4-11.4 2.2-22.7 5.2-33.7 8.7-3.5 1.1-26.2 11.7-28.4 10.1-3.8-2.7 30.7-27 35.4-30 28.9-18.5 65.7-32.4 100-22.5 35.3 10.1 52.7 44.1 34.8 77-2.5 4.6-33.3 43.4-37.4 38-2.2-2.9 7.3-24.8 8.2-29.2.8-3.8 4.6-18.5 1.6-22.7-.9-8.2.5.7 0 0zM498.3 87.4c-8.7.7-17.5 3.2-25.7 6.1-7.9 2.7-14.9 5.4-6.2-4.3 13.4-14.8 30.6-28 50.9-31 35.1-5.2 61.2 25.3 63 58.3 2 35.4-18.7 70.3-39.7 97.1-1.5 2-12.8 18.2-15.6 16.7-1.8-.9 6.9-20.9 7.7-23.5 6.3-18.9 11.1-38.1 13.3-57.9 1.6-13.7 1.9-29-4-41.8-3.9-8.5-10.3-15.4-19.3-18.4-5.4-1.8-19.2-4.4-24.4-1.3-6 .5.9-.5 0 0zm-304 151.2c5.4-48.5 61.3-54.8 98.2-42.3 23.1 7.8 43.6 21.6 62.4 36.7 2.8 2.2 16.4 10.2 9.9 12.1-3.2 1-15-5.8-18.4-6.9-6.5-2.2-13-4.3-19.6-6.1-32.4-9.1-106.1-24.1-103.5 31.6.6 12.1 3.7 24.5 7.7 35.9 5.5 15.9-5.7 3.8-11.6-2.4-15-15.8-27.6-36.1-25.1-58.6zm122.5-125.2c2.2-31.1 26.5-57.8 59.1-55.7 15.4 1 29.4 9.4 40.9 18.9 2.1 1.8 19.1 15.6 17.7 18.5-1.9 4-14.8-2.9-19.5-4.2-13.3-3.6-29.4-7-42.8-1.7-17.1 6.8-21.7 25.2-22.3 41.8-.5 15.3 1.8 30.1 5.3 45 2.2 9.6 4.9 19.2 7.9 28.6 1.6 5.1 9.9 20.4 8.5 25.3-7.2 3.7-36.6-46.9-40-53.5-5.9-11.4-10.9-23.8-13.5-36.4-1.2-6.5-4.1-20.3-1.3-26.6 1.2-17-.4.9 0 0z" fill="#CB3025"/><path fill="#FEFEFE" d="M482.1 282v1.9c-.1 3.4-.1 3.3-3.4 3-2.9-.2-6.5-.2-10.2-.3-3.5-.1-3.9-.6-4.8-4-.4-1.6-1-2.1-3-2.2-1.7-.1-3.7 0-5.4 0-1.6 0-2.2-.2-1.7-2.1 1.4-5.4 4.1-10 8.9-13.1 3.3-2.2 9.8-1.1 13 1.6 4.4 3.7 6.8 9.3 6.6 15.2z"/><path fill="#FECC0D" d="M506.2 155.8c-1.3-4.8-5.9-4.9-9.2-3-2.9 1.7-4.8 3.8-5.9 7.2-.7 2.4-.7 10.3 3.4 12.5 2.2.9 5.3.9 7.4-.8 3.5-2.9 4.2-5.4 4.6-7.8.3-1.4.7-4.3-.3-8.1z"/><path d="M592.7 309.7c-.4.1-.7 0-.8-.4s.1-.7.4-.8l11.3-6.4c.5-.3 1-.3 1.2.3.3.7-.3.9-.7 1.2-2.7 2-5.6 3.5-8.7 4.9-.8.5-1.8.8-2.7 1.2z" fill="#FEFEFE"/></g><path fill="#FEFEFE" d="M405.1 296.5c-5.6-4.9-10.9-10.1-16.8-14.5-11.1-8.3-23.2-13.9-37.2-14.7-3.3-.2-6.7 0-10.1-.2-3.5-.1-5-2-4.7-5.5.1-1.5.5-3 .6-4.5.6-5.2-.9-9.5-5.5-12.3-5.7-3.4-11.9-4.8-18.5-3.2-7.7 1.8-14.2 9.4-13.8 16.9.3 4.8-1.5 7.9-5.4 10.6-8.7 5.9-18.8 14.5-22.4 26.1-.5 1.1-1.6 10.2-1.1 12.5.2-1.2 2.3-8.6 5.7-14 2.5-3.8 6.3-6.5 10.6-8.2 3.7-1.4 7.5-2.4 11.2-3.6 2.9-1 6.5-2.2 8.2-4.9 1-1.6 1.7-3 2.1-5 .1-.5.7-1.2 1.5-.8.9.5.3 1.2.1 1.7-2.7 6.2-2 7.8-13.7 11.2-4.3.9-8.2 1.8-12.1 3.9-2.4 1.6-9.4 5.3-13.4 19.7 1.9-3.5 5-9.2 9.4-11.6 3.4-1.9 6.6-3.1 10.5-3.3 9.9-.5 15.5-1.2 23.9-12.7 1.5-2.1 2.8-4.4 4.4-6.7 2.6 3.5 5.8 6 9.7 7.7 2.7 1.2 5.6 1.8 8.4 2.7 2.8.8 3.4 1.5 2.9 4.2-1.6 9.3-.8 18.4 2.1 27.4 1.4 4.3 0 6-4.5 5.9-4.8-.1-8.9-2.1-13-4.3-5.2-2.7-10.3-5.6-15.7-8.1-2.4-1.1-3.8-2.1-6.9-3.5-2.2-1-2.9-1.3-5.1-2.5-1.4-.7-1.6-.8-2.1.2-.4.8.2 1.2 1 1.6l11.3 5.8c.8.5 1.6 1 1.4 1.4s-.5.7-2.4-.3c-2.8-1.5-8.7-4.7-11.4-5.8-1.4-.5-1.6-.3-1.9.4-.2.6-.5 1.3.9 1.9 2.6 1.1 8.2 3.9 11 5.4 1.8.9 1.9 1.2 1.6 1.6-.2.4-.8.2-1.6-.2-1.7-.9-3.2-1.6-4.9-2.4-8.2-3.7-8.7-3.6-9.1-2.5-.3.8-.7 1.2 2.7 2.6 2.6 1.1 5.2 2.2 8.1 3.6 1 .5 3.3 1.2 3 1.9-.5.9-2.4-.4-3.4-.8-3.1-1.3-6.3-2.8-9.5-4.2-1.2-.5-1.9-1.2-2.5.4-.5 1.1.5 1.5 1.6 2 4.1 2 8.3 3.9 12.5 5.8 8.7 4 17.4 8.3 26.4 11.5 6.8 2.4 13.7 3 20.6.3 7-2.8 9.8-9.1 7.2-16.2-.8-2.2-1.9-4.2-2.9-6.3-1.3-2.9-2.3-6-2.2-9.2.2-3.9 2.4-7 6-8 3.4-.9 6.9-1.1 10.1.5 11 5.3 19.8 13 25 24.2 2.6 5.7 2.8 11.6-.1 17.3-3 5.9-9.4 6.1-13.1.8-.4-.7-.8-1.4-1.3-2-2.8-3.4-6.3-4.7-10.7-3.7-5.5 1.3-9.1 4.8-11.3 9.8-2.2 4.9-1.5 8.1 2.3 11.9a63.94 63.94 0 0 0 9 7.5c4.4 3 9.3 4.9 14 7.2 1.6.8 2.6 2.2 2.1 4.1s-2.2 1.9-3.7 1.8l-42.9-.8c-1.7 0-2.9.3-2.8 2.3.1 1.9.9 3 3 2.8l8.3-1c1.7-.2 3.5-.4 5.5.6l-3.1.7-10.4 1.5c-1.7.3-2.5 1.3-2.2 3 .2 1.6 1.3 1.9 2.6 1.6l7.5-1.6a14.16 14.16 0 0 1 5.9-.2c-2.7 1.4-5 2-7.3 2.4-2.1.4-4.3.5-6.3 1.5-1.5.8-1.8 2.1-1.3 3.7.6 1.7 1.8 1.3 3.1.9 2.5-.9 5-1.8 7.5-2.5 1.6-.5 3.3-1.2 5.5-.7-1.9 1.2-3.5 1.9-5.2 2.5l-8.4 2.9c-1.4.5-2.2 1.3-1.6 2.9.6 1.5 1.7 1.4 3 .9 1.3-.6 2.7-1.1 4-1.5l41.6-13.9c5.3-1.8 10.7-3 16.4-2.6 3.6.2 6.8-1.3 9.4-4 1.1-1.2 1.6-2.5 1.3-4.1-.7-4.1-5.6-7.7-9.8-7.1-1 .1-2 .5-3 .7-2.3.6-5.1-1.2-6-3.9-.7-2.2.6-4.5 3.1-5.4 2.4-.8 4.7-.5 6.8 1 1.7 1.3 3.4 2.6 5.4 3.5 3.3 1.5 4.4.9 4.5-2.7l.5-35c.6-9.6-2.3-18.2-9.7-24.7zm-77-35.9c-3 1.8-6.4 2.3-10.1 2.5-3.5-.3-7.3-.7-10.6-3-4.1-2.9-4.1-8.3.4-10.7 6.7-3.6 13.7-3.6 20.5 0 4.9 2.7 4.7 8.3-.2 11.2zm70.6 108.6c.4-2.1 2.5-3.6 5.3-3.7 3.1-.1 5.5 1.2 6 3.3.8 3.1-1.7 5.6-5.7 5.5-3.7 0-6.2-2.3-5.6-5.1z"/><path d="M590.4 270.8c.7-.3 1.4-.1 1.8.8l.5 1.1c2.8 6.3 7.6 9.8 14.3 11 13.6 3.3 13.8 5.4 17.1 9.3 2 2.5 3.7 5.8 5.3 15.4.7-5.4.7-5.4.3-8.1-.4-2.8-1.5-6.7-3.6-10.4-5.5-10-14.4-16.6-23.8-22.8-2-1.4-2.6-2.8-2.2-5.2 1.1-5.4-.2-10.1-4.2-14-5.9-5.7-13-7.4-20.8-5.9-7.3 1.4-11.5 5.6-12.4 11.6-.4 2.6.3 5.3.3 7.9.1 4.8-1.7 6.5-6.3 6.1-11.2-1-21.8 1.3-31.7 6.3-14.5 7.2-26.5 17.6-36.4 30.4-4.4 5.6-6.5 11.8-6.3 19.1.4 11 .3 22.1-.1 33.1-.1 2.6 2.1 3.9 4.8 3 2.9-1 5.4-2.6 7.8-4.5s7-1.1 9 1.4c1.4 1.7.7 4-1.6 6.6-1.4 1.5-3 1.4-4.8.9-4.3-1.4-7.7-.4-10.4 2.8-2.5 3-1.3 8.2 2.3 9.7 3.2 1.4 6.5 2.1 10 1.7 2.6-.3 5.1 0 7.6.8l51.7 17.5c.9.3 1.5.4 2.1-.4.6-.9.7-1.8-.1-2.6-.6-.7-1.5-.9-2.3-1.2l-10.1-3.4c-.7-.3-2.3-.8-1.9-1.8.1-.3 1.5-.1 3.3.5 3.2 1.1 4.9 1.3 8.2 2.4s3.9.2 4.3-1.1c.6-2.3-1.3-3-2.7-3.3-2.3-.5-4.7-.9-7-1.5-1.5-.4-4.7-1-4.6-2.1.1-1.2 3-.2 4.2 0a127.36 127.36 0 0 1 8.9 1.8c1.4.3 2.1-.4 2.5-1.6.4-1.3-.3-2.2-1.5-2.6-.6-.2-1.3-.2-1.9-.3-3.9-.6-12-.3-11.9-2.2.1-1.4 3.3-.8 4.8-.6l8.6 1c1.1.1 1.9-.1 2.5-1s.9-1.9.4-2.9-1.5-1-2.5-1l-42.7.9c-1.6 0-3.4.5-4-1.7-.5-2.1.1-3.8 2.2-4.7l3.9-1.8c7-3.1 13.5-7.2 18.9-12.8 4.2-4.4 4.6-8.9 1.1-13.8a23.63 23.63 0 0 0-5.9-5.9c-4.8-3.4-9.6-2.9-13.8 1.3-1.3 1.3-2.3 2.9-3.6 4.2-3.4 3.5-8.3 3.1-11.1-1-4.3-6.3-3.8-13.1-.7-19.6 4.6-9.7 12.5-16.4 21.4-22 3.4-2.1 7.3-2.8 11.3-2.5 4.5.3 7.5 3 8.2 7.5.3 2.2.1 4.4-.5 6.6-.8 3-2.4 5.7-3.7 8.5-3.7 8.1-.5 15.3 7.9 18 6.3 2 12.7 1.6 18.8-.7 13.9-5 27-11.9 40.5-18 .7-.3 1.8-.7 1.2-1.9-.6-1.1-1.4-.7-2.2-.3l-11.4 5.5c-.7.3-1.7 1.1-2.3-.1-.5-1.2.6-1.4 1.4-1.8L608 311c.6-.3 1.7-.6 1.2-1.7-.6-1.1-1.4-.3-2 0-3.9 1.7-7.6 3.5-11.3 5.6-.9.5-2.1 1.6-2.9.2-.7-1.3.9-1.6 1.7-2l11.3-5.6c.6-.3 1.5-.5 1-1.5-.5-.9-1.2-.6-1.8-.3l-11 5.7c-1.3.7-2.3.9-3.1-.6-.6-1.1-1.2-1.3-2.4-.6-4.1 2.3-8.3 4.4-12.4 6.7-4.6 2.5-9.1 4.9-14.5 4.8-4.3-.1-5.7-1.9-4.3-5.9 2.9-8.3 3.5-16.8 2.5-25.5-.7-5.4-.6-5.3 4.7-6.9 4.9-1.4 9.7-3 13.5-6.7 1-.9 1.6-3 2.7-2.7 1 .3 1.7 2.1 2.5 3.3 7.3 11.7 10.6 13.5 19.3 15.3 15.7 3.3 19.9 1.5 26.7 16-2-10.3-5.4-14.4-7.9-16.6-4.9-3.9-9-5.1-14.3-6-2.8-.5-5.6-1.4-8.1-2.8-4.2-2.4-7-5.9-8.6-10.5-.5-.8-.8-1.5-.1-1.9zm-89.6 101.3c-1.1 2-3.1 2.3-5.6 2.3-.4-.1-1.3-.2-2.1-.4-2.1-.5-3.4-1.8-3.3-4 .1-2.1 1-3.7 3.4-4.2 3.4-.7 6.5-.1 7.6 1.7.8 1.5.8 3.1 0 4.6zM580.2 262c-3.6-.1-7.3-.7-10.3-3.1-3.9-3.1-3.8-7 .2-10 3.3-2.4 7.2-2.7 11.1-3.1 3.7.5 7.4.8 10.5 3.2 3.7 2.8 3.8 7.2 0 10-3.3 2.5-7.4 3.1-11.5 3zm-69.1-100.3c-.9-5-2-5.8-3.3-6.5-.2-.1-.3.1-.3.2 1.2 3.9.5 7.9-.2 10.6-1.3 4.4-3.9 7.5-8.7 8.2-4.4.7-7-1.1-8.4-5.6-.1-.4-.6-2.3-1.1-2.3-.2.1-1.3 1.8-1.3 2-.4 1.9-.3 2.8-.1 3.4.6 3 1.9 5.8 3.8 8.3 1.4 1.8 1.4 3.4.3 5.3-3.4 5.9-5.8 12.3-7.9 18.8-3 9.2-5.6 17.4-7.9 26.7-.4 1.4-2.2 4.8-3.9 4.9-1.1 0-3-.1-4.4-2.7-3.4-6-7.4-11.3-13.9-14.4-2.2-1-3-3.9-2.4-6.4l1.5-5.4c1.2-4.2.6-8.1-2.8-11-3.1-2.6-3.2-5.4-1.9-8.9 4.7-12.8 5.5-26.1 1.4-39.2-1.3-4.3-2.7-6.9-4.6-11-1.7-3.7-3.3-8.9-3.4-14.7s1.7-10.9 2.9-13.6c.1-.2-.2-.4-.3-.2-1.6 2.5-4.4 7.5-5.8 14.6-1 5-.6 11.1.2 16.1.8 4.8 2.6 9.3 3.9 14 1.6 6.2 2.3 9 1 15.3-.2 1-1.5 4.8-2 6.1.3-2.6.9-3.9 1.1-6.1.7-7.2 0-9.8-2.3-16.3-3.4-9.5-4.2-17.8-3-27.8 1.8-8.6 4.9-14 6.6-16.4.1-.2-.1-.4-.3-.2-1.9 1.8-5.5 5.8-9 12.4-4.1 8.8-4.6 16.6-3.7 25.1.5 4.7 2.4 10.6 3.5 15.2.4 1.8 0 3.3-2.2 3.7-1.5.2-3.1.6-4.6.9-4.8 1-8.8 3.2-11.3 7.5-4.6 8.2-3.9 16.4 0 24.6 1.2 2.6 3.1 4.4 6.1 5 2.4.5 4.7 0 7-.4 2.3-.3 4.2.1 5.5 2.2 2.7 4.3.8 8.7-4.4 10-7 1.8-13 5.3-16.1 12-2.5 5.3-3.5 11.1-3.9 16.9-.5 7.4-.8 14.8.4 22.2 1.1 6.7 2.9 13.2 5.6 19.4.5 1.1 1.1 2.2 2.5 2.2 3.9 0 7.8.3 11.7-.2 1.5-.2 2.5-.8 2.4-2.6-.1-1.4 0-2.8 1.9-3.2 2.2-.5 2.5-.2 1.3-2.6-5.1-10.9-7.2-22.1-4.3-33.8 1.3-5.4 4.8-8.8 10.3-9.6 5-.8 9.3.5 12.4 5 2.6 3.7 5 7.5 8.4 10.6s9.1 4.7 13.2 2.7c4.9-2.4 7.8-7.1 9.6-12.1 5.2-15.1 10.4-31.6 13.2-48.2.7-4.1 1.6-7.9 4.4-11.2 5.3-5.9 9.2-11 7.6-19.5zM428.6 193c-1.3 1.8-3 2.8-5.3 2.5-2.4-.3-3.9-2-4.4-4.2-1.2-5.8-1.2-11.6 2.1-16.8.6-.9 1.3-1.8 2.1-2.6 2.7-2.6 6.4-2 8.2 1.4 1.2 2.3 1.2 4.7 1.1 6.9.3 5-1.1 9.1-3.8 12.8z" fill="#FEFEFE" fill-rule="evenodd"/><path d="M709.5 301.7c-.6 6.8-1.9 16.9-6.9 22.3 1.2 2 4.1 3.5 6.3 3.9-4.8-.2-7.3-1.3-8.4-2-2 1.3-4.2 2-7 2 7.9-1.9 14.8-20 16-26.2zm-1.4-10.4l1.2-4.8c-3.5-2-9.3-8.8-9.3-17.8 0-4.5-2.7-11.4-6.1-12.6 2.3.1 5.6 2.1 7.7 6.2 1.5-1.9 2.8-2.9 4.8-2.9 6.3 0 6.9 11 1.9 12.5.2 2.4 1.1 5.6 4.4 10.6-3-1.7-6.3-7.2-7.4-12.4 4.2.8 4.7-6.9.8-6.9-1.9 0-3 2.4-3 6 0 5 2.3 11.7 9.4 16.5-2.4 8.3-5.6 24-12 32.1 2.8-6 5-14.6 6.8-22.2-.9-.8-1.8-1.9-2.7-3.3-.1 4.3-1.2 10.7-4.2 15.8 2.5-13.1 1.9-19.8.3-28 2.3 6.2 5.5 9.7 7.4 11.2zm2.4 18.4c.2 4.8-.4 11.1-.9 12.5 1.2 2.2 6.1 5.4 8.6 5.6-6.5.6-10-2.7-12.4-4.3 2.3-3.8 3.7-8.4 4.7-13.8zm14-17c-4.9 1.6-6.9 3.1-6.8 11.6-.3-2.9-.7-5.6-.4-8.2-1.5-3-3-6.9-4-10.4.6 1.2 2.9 5.9 5.3 7.7l1.3-1.6c-4.2-3-8-13.2-8.8-19.9 2.2 7.8 8.7 17.7 13.4 20.8zm.1 2.1c3.8-.5 5.9 2.7 6.2 6.2.2 2.4-1.5 6.4-3.3 6.2.3 3.4 2 10.9 6.7 16.5-6.6-3.8-9.8-13.5-10.5-19.9 1.8 2.1 3.8 0 3.7-2-.2-2-1.3-2.8-2.6-2.7-2.5.3-3.9 5.1-1.9 11.2-2.8-1.2-3.7-4-3.8-6-.5-6.9 3.1-9.2 5.5-9.5zm11.5-30.3c.6-1 1.2-2 1.8-2.7-3.2.6-9.7-1.6-14-5.4 14.3 5.7 18.7-.9 25 .2-6.8 1.1-13.1 10.7-16.6 21.4.3-4.4 1.3-8 2.6-11-1.6-.9-4-2.3-5.5-2.3 2.3-.8 4.9-.7 6.7-.2zm-7.2 25.9c1.6-6.1-2.5-12.7 3-21.8-4.5 22.2 5.2 19.4 3.7 41.3-.3-6.3-3.1-18.8-6.7-19.5zm7.9 27.6c1.6-10.9 1.4-16.4-1.2-24.8 10.4 16-3.2 27.5 9.4 34.7-12.6-1.3-14.8-14.7-13-25.9.4 7.4 1.6 12.2 4.8 16zm-3.7-35c1.6-7.3 6.1-14.6 8.8-16.1-3.1 5.2-4.5 9.4-5.5 13.9 1.3 3.1 2.4 10.4 2.4 16.2-1.7-7.6-3.3-11.2-5.7-14zm20.5-16.6c0-2.4-.9-4.7-3.4-4.7-2 0-3 1.7-3 4 0 1.6.7 3.8 3.7 2.2-1.9 3.6-6.1 3.6-8.5 13.3-.4-4.8 1.3-11 3-12.8-1.4-3.7.1-10.3 5.5-10.3 4.5 0 9.5.1 11.4-2.3-2.2 5-6.7 5.3-7.6 5.6 1.6 2.1 2 3.5 2 6.4 0 3.1-2.3 6-5 9.4-.5 3.8-.3 6.9.1 10.1-.6.5-1.6 2.1-2.1 3.2-.2-4.5-.4-7.8-.3-10.5-2.7 3-5.3 7.2-7.3 13.6.5-16.3 11.5-21.1 11.5-27.2zm-9.4 36c-.3-7.1.9-12.7 1-14.6.3 4.1.5 7.5 1.1 10.4 2-3.8 4.4-7.1 6.2-8.5-.1 15.3 3.1 32.8 15.1 36-13.8 1.3-18.1-20.5-17.2-28.2-2.4 2.2-5.2 5.1-8 10.4.4-1.7 1.1-3.7 1.8-5.5zm3.6.7c1.2 12.2 5.3 18.8 14.6 23.9-5.6.6-15.2-6.1-17.4-10.6 1.2 1.4 2.7 2.6 3.9 2.7-1.6-3.8-2-9.1-2-10.8-.9 1.2-2.5 3-2.7 5.1.2-5.1 1.8-7.9 3.6-10.3zm33.5-10.3c1.1 6.2.6 11.9-.8 16.9 1.6.4 3.1.2 5.5-.8-1.6 5.6-5.5 22.9-22 17.5 13.4 1.4 16.6-10.1 17.3-12.5-.7 0-1.4-.1-2.1-.4-6.2 11.8-10.8 13.1-16.9 6.4 4.7 2.6 19.3-.5 19-27.1zm-11.1-39c6.2 2 7.6 3.8 8.5 8 2.7-1.1 9-4.5 11.6-5.1-3.2 1.3-11.1 7.2-13.9 11.7.3-6.9-1.5-11.6-6.2-14.6zm19.1 27.9c.2 6.7.5 15.8-3 24.6 1.1-6.2 1.1-14.4-.2-18.3-1.8 1.3-6.5 1.7-11.2-1.5 5.2.7 10.3-1 14.4-4.8zm-7.6-17.5c-3.1 4.3-1.2 11.3 2 11.3 2.1 0 3.4-1.9 3.4-3.8 0-2.2-1-4.2-3.4-3.2-.4-6.6 5.5-11.7 11.3-11.7-5.5 1.4-6.9 5.8-7.3 8.3 1.9 1.2 2.8 3.8 2.7 6.4-.1 4.8-2.5 8.8-6.8 8.8-3.7 0-5.3-3.4-5.8-5.7-1.2 3.6-.9 7.5.2 9.8-.6.5-2.1.9-3.5.4-1.1-6.9.7-15.4 7.2-20.6zm-6.5 24.1c1.3 1.1 2.3 1.6 3.7 2-.5 6.1-1.3 10.9-3.6 14.8.7-5.4 1-10.8-.1-16.8zm3.1 39.8c4.5-1.7 9.9-8.2 10.7-14.8.5 3.6 1.9 5.7 4.1 7.4-4.7-2.9-6.6 5.7-2.6 5.7 1.7 0 2.6-1.6 2.4-2.6 2 1.9 5.8 3.7 8.4 4.3h-23zm23.4-29.3l1.5 1.5c3.5-4.9 9.8-8.4 14.3-8.4-8.1 2.8-11.1 7.3-12.8 11.4 2.1 7.1-1.2 15-7.3 15-9.3 0-8.2-15.2-1.3-15.2 2.1 0 3.7 1.5 3.7 3.9 0 2.3-1.7 4-3.6 3 1.9-.9 1.4-3.4-.2-3.4-3.3 0-4 8.1 1.3 8.1 6.3 0 6.4-12.2.5-14.7 3.2-7.8 7.8-11.3 13.7-20.4-5 11.7-9 16.1-9.8 19.2zm7.5-28.3c-.8.4-1.9.7-2.3.7-1.3 5.3-7.3 14.9-10.2 17.4 4.9-8.6 8.3-16.4 8-20.3 4.7-.7 7.4-2 10.6-4.9-3.5 15.5-15.3 25.9-19.5 35.7 1.6-9.4 11.6-20 13.4-28.6zm-12.4 51.3c1.1.2 3 0 4.2-.4 1.6 2.4 4.4 4.6 9.1 6.8-3.4 0-8.5-1.2-13.3-6.4zm24.8-29.7c-.9-7.1-7.3-11.9-4.8-32.2-3.8 2.2-8.4 4.8-11.6 4.8 2.8-.4 10.4-4.7 13.9-8.7-1.2 11.1.7 22.4 4 28.6 2.2-2.7 3.4-4.6 7.2-6.2-3.9 3.8-6.3 8.6-8.7 13.7zm3.2 20c0-10.8-6.8-16.8-16.4-11.2 3.9-3.9 11.4-7.6 16.7-6.8-2.9 2-2.7 9.5 2.3 9.5s6-11.6-2.5-11.6c1-3.1 3.4-7.3 7.3-10.8-1.9 2.9-3 6.1-3.4 8.4 3.1.4 5.9 4.8 5.9 9.9 0 1.7-.4 3.6-1.2 5.2 1 4.4 2.9 10.7 6.6 14.9-3.1-1.2-7.5-8-9.4-11.9a4.65 4.65 0 0 1-2.1.5c.6 4 .2 17.5-11.1 19.9 5.8-3 7.3-8.2 7.3-16zm-1.4-32.1c-1.8-5.3-3.1-12.7-3.1-17.9 1 6.1 3.3 11.4 5.7 15.6-.5.3-1.9 1.5-2.6 2.3zm7.1 33.3c3.4 6.9 8 11 16.9 14.8-7-.3-11.5-2.2-14.7-5.3-1.2 2.7-5.5 5.3-7.9 5.3 3.2-2.3 6.6-8.7 5.7-14.8zm32.3-37.6c-.6-6.1.3-10.9 2-13.3.1-.1 0-.3-.1-.4-2.5-1.1-4.2-2.5-6.6-4.5-.2-.1-.1-.5.1-.4 5.8 2.1 8.6 2 13.9.2.2-.1.3.3.1.4-4.3 3.2-8.1 9.5-9.1 17.9 0 .4-.2.4-.3.1zm6.4 47.8c3.7 0 3.4-6.3.9-6.3-.8 0-1.4.5-1.9 1.1-.1.2-.4 0-.3-.3.9-2.4 2.6-3 3.4-3 2.8 0 3.9 4.8 2.8 8.5 0 .1 0 .2.1.3 1.1.6 2.4 1.6 3.8 3.7.1.2 0 .5-.2.3-2.7-1.7-4.4-1.5-5.3-1.1-.9.8-1.9 1.4-3.3 1.4a5.34 5.34 0 0 1-5.1-3.8c0-.1-.2-.2-.3-.1-2 2.3-4.2 3.6-7.3 3.9-.2 0-.3-.3-.1-.4 3.1-1.7 6.3-5.2 6.3-8.7 0-7.2 1.8-12.3 5.9-16.2.1-.1.1-.1.1-.2-.6-3.1-3.8-6.8-6.2-9.7-.1-.2 0-.5.2-.4 4.1 2.2 10.1 8 11.2 12.3 0 .2-.1.3-.2.3-2.6-.3-4.7 1.4-6.1 4.2-.1.2 0 .4.2.3 1.7-.5 3.6-.1 5 1.2.1.1 0 .5-.1.4-4.4-1.4-6.6 2.8-6.6 5.9-.2 4.1 1 6.4 3.1 6.4zm-1.7-34c-2-1-5.7-4.1-7.1-10.4-.1-.3.2-.4.3-.2.6 1.4 1.4 2.7 2.7 3.6.1.1.2 0 .2-.2.3-5.7 1.3-18.2 12.1-24.5.2-.1.3.2.2.4-9.9 10.9-10.7 19.9-8.2 31 .1.3-.1.4-.2.3zm.2 12.6c-2.4 2.3-4.6 6.5-5.4 10-.1.2-.3.2-.3 0-.3-5.8 2.2-11.5 3.5-13 .1-.1.1-.1.2 0 .5.4 1.5 1.6 2 2.8.1 0 .1.1 0 .2zm5.9-37c.6 8.5 5.1 14.1 9.1 19.8.1.2-.1.5-.2.3-4.1-4.2-8.5-9-10.4-13.2-.1-.2-.3-.1-.3.1-2.6 13.4 4.1 16.8 2.2 28.8 0 .2-.2.2-.3.1-2-4.9-5.8-7.2-9.5-8.9-.2-.1-.1-.5.1-.4 3.3.4 4.8.6 6 .4.1 0 .2-.2.1-.3-2.4-5.4-5.2-16.7 3-26.8 0-.2.2-.1.2.1zm9.7 23.5c.1.1.1.3 0 .4-2.7 2-2.1 8.1 1.4 8.1 2.6 0 2.9-5.5.7-6.3-.1 0-.2-.3-.1-.4 3.6-3.4 6.8-6.9 11.7-17.4.1-.2.4-.1.3.2-3.2 11.8-10.7 19.8-8.6 32 0 .2-.1.3-.3.2-10.2-10.1-9.4-18-14.1-27-.1-.2.1-.5.2-.3 2.9 2.5 7.5 8.9 8.8 10.5zm13.6-2.7c2.4-3.3 4.1-4.8 6.2-6.8l.1-.1c.3-1.2.5-3.1.5-4.6 0-.2.2-.3.3-.1.5 1 .9 1.9 1 2.9 0 .1.2.2.3.1.9-.8 1.7-1.3 2.5-1.8.1-.1.1-.3 0-.4-1.6-1.7-3.1-3.5-3.1-8.2 0-1.9-.3-6-3-9.2-.1-.2 0-.5.2-.4 2.3 1.2 3.6 2.4 4.4 3.5.1.1.2.1.2 0 .9-1.2 2.2-2 4.1-2 1.1 0 2 .4 2.9 1h.2c1.3-1.1 3.7-2.4 6.1-2.9.2 0 .3.3.1.4-2.2 1.1-4 2.9-4.7 4.1v.3c.7 1.1 1.1 2.5 1.1 3.9 0 2.1-1.1 5.7-3.2 5.7-1.7 0-2.6-1.2-3.1-3.1 0-.2 0-.3.2-.3 1.3 0 2.3-1.8 2.3-2.9 0-1.4-1-2.6-2.3-2.6-1.4 0-2.6 2-2.6 4.4 0 2.7 1.1 7 5.8 9.5.1.1.1.3 0 .4-8.9 4.5-15.8 9.7-23.7 22.7-.1.2-.3 0-.3-.2 2.3-14.1 14.6-24.5 7.4-41.7-.1-.2.1-.4.2-.3 10.7 9.4 2.7 21.8-.6 28.3.1.3.4.6.5.4zm4.3 42.6c-1.3.8-3.9 1.6-6.2 1.8-.2 0-.2-.3-.1-.4 1.4-.8 2.8-2.3 4.8-4.7.1-.1.2-.1.3.1.2 1.1.7 2.1 1.2 2.9.1.1.1.2 0 .3zm2.5-31.9c-1 3.3-2.1 6.9-.7 14.5 0 .2-.2.4-.3.2-2.8-5.5-3.3-11.8-1.9-17.5 0-.1.1-.2.2-.1.9.6 2 1.7 2.6 2.8.2-.1.2 0 .1.1zm5.6-11.1c1.1 1.9 2.7 5.6 3.4 10.7 0 .3-.2.4-.3.1-1.1-2.6-3.1-5.7-4.9-7.4-.1-.1-.2 0-.2.1-.3.6-.5 1.2-.8 1.9v.3c1.8 1.9 7.5 11.9 7.5 22.7 0 5.1-1.2 14.9-7.2 14.9-3.7 0-5.9-2.3-5.9-6.8 0-4.6 2.7-7.6 4.4-6.9.1 0 .2 0 .2-.2.1-1.4.5-6.4-.9-12.4-.1-.2.2-.4.3-.2 3.6 6.9 4 13.1 2.2 18.1-.1.2-.3.2-.3-.1-.2-1.5-.8-1.9-1.5-1.9-2.6 0-2.3 6.2 1 6.2 3.2 0 4.3-5.7 4.3-10.4 0-10.6-5.4-20.3-9-22.7-.1-.1-.1-.2-.1-.3 2.7-5.4 6.5-8.9 10.8-10.5.2-.1.3.2.2.4-1.4 1.6-2.5 2.8-3.3 4.1.1.1.1.2.1.3zm16.2 44s-2.6.1-2.8 0l-5.3-3.4c-3.6-2.3-4.1 4.4-.6 1.4.2-.1 1 2 .9 2H911c-.2 0-.3-.3-.1-.4 2.2-1.4 3.7-3.2 4.3-9.8 0-.2.2-.3.3-.1 1.1 2.5 9.1 10.1 10 10.3zm.8-29.2l1.5 1.5c3.5-4.9 9.8-8.4 14.3-8.4-8.1 2.8-11.1 7.3-12.8 11.4 2.1 7.1-1.2 15-7.3 15-9.3 0-8.2-15.2-1.3-15.2 2.1 0 3.7 1.5 3.7 3.9 0 2.3-1.7 4-3.6 3 1.9-.9 1.4-3.4-.2-3.4-3.3 0-4 8.1 1.3 8.1 6.3 0 6.4-12.2.5-14.7 3.2-7.8 7.8-11.3 13.7-20.4-5 11.7-9.1 16.2-9.8 19.2zm7.5-28.2c-.8.4-1.9.7-2.3.7-1.3 5.3-7.3 14.9-10.2 17.4 4.9-8.6 8.3-16.4 8-20.3 4.7-.7 7.4-2 10.6-4.9-3.5 15.5-15.3 25.9-19.5 35.7 1.6-9.4 11.6-20.1 13.4-28.6zm-12.4 51.3c1.1.2 3 0 4.2-.4 1.6 2.4 4.4 4.6 9.1 6.8-3.4-.1-8.5-1.3-13.3-6.4zm24.8-29.7c-.9-7.1-7.3-11.9-4.8-32.2-3.8 2.2-8.4 4.8-11.6 4.8 2.8-.4 10.4-4.7 13.9-8.7-1.2 11.1.7 22.4 4 28.6 2.2-2.7 3.4-4.6 7.2-6.2-3.9 3.8-6.3 8.5-8.7 13.7zm3.2 19.9c0-10.8-6.8-16.8-16.4-11.2 3.9-3.9 11.4-7.6 16.7-6.8-2.9 2-2.7 9.5 2.3 9.5s6-11.6-2.5-11.6c1-3.1 3.4-7.3 7.3-10.8-1.9 2.9-3 6.1-3.4 8.4 3.1.4 5.9 4.8 5.9 9.9 0 1.7-.4 3.6-1.2 5.2 1 4.4 2.9 10.7 6.6 14.9-3.1-1.2-7.5-8-9.4-11.9a4.65 4.65 0 0 1-2.1.5c.6 4 .2 17.5-11.1 19.9 5.8-3 7.3-8.2 7.3-16zm-1.4-32.1c-1.8-5.3-3.1-12.7-3.1-17.9 1 6.1 3.3 11.4 5.7 15.6-.5.4-1.9 1.5-2.6 2.3zm7.1 33.3c3.4 6.9 8 11 16.9 14.8-7-.3-11.5-2.2-14.7-5.3-1.2 2.7-5.5 5.3-7.9 5.3 3.2-2.2 6.6-8.7 5.7-14.8zm17.6-11.6c-1.4 6.7-9.5 18.8-5.6 20.8 3.8 1.9 5.8-13.9 5.6-20.8zm-1-10.2l1.2-4.8c-3.5-2-9.3-8.8-9.3-17.8 0-4.5-2.7-11.4-6.1-12.6 2.3.1 5.6 2.1 7.7 6.2 1.5-1.9 2.8-2.9 4.8-2.9 6.3 0 6.9 11 1.9 12.5.2 2.4 1.1 5.6 4.4 10.6-3-1.7-6.3-7.2-7.4-12.4 4.2.8 4.7-6.9.8-6.9-1.9 0-3 2.4-3 6 0 5 2.3 11.7 9.4 16.5-2.4 8.3-5.6 24-12 32.1 2.8-6 5-14.6 6.8-22.2-.9-.8-1.8-1.9-2.7-3.3-.1 4.3-1.2 10.7-4.2 15.8 2.5-13.1 1.9-19.8.3-28 2.3 6.3 5.5 9.8 7.4 11.2zm1.5 18c1.5 7.4.7 11.6 0 13 1.2 2.2 6.1 5.4 8.6 5.6-6.5.6-10.5-3-12.9-4.6 3.3-2.3 4.1-8.2 4.3-14zm14.7-16.6c-4.9 1.6-6.9 3.1-6.8 11.6-.3-2.9-.7-5.6-.4-8.2-1.5-3-3-6.9-4-10.4.6 1.2 2.9 5.9 5.3 7.7l1.3-1.6c-4.2-3-8-13.2-8.8-19.9 2.2 7.8 8.7 17.8 13.4 20.8zm.2 2.1c3.8-.5 5.9 2.7 6.2 6.2.2 2.4-1.5 6.4-3.3 6.2.3 3.4 2 10.9 6.7 16.5-6.6-3.8-9.8-13.5-10.5-19.9 1.8 2.1 3.8 0 3.7-2-.2-2-1.3-2.8-2.6-2.7-2.5.3-3.9 5.1-1.9 11.2-2.8-1.2-3.7-4-3.8-6-.6-6.8 3-9.2 5.5-9.5zm11.4-30.3c.6-1 1.2-2 1.8-2.7-3.2.6-9.7-1.6-14-5.4 14.3 5.7 18.7-.9 25 .2-6.8 1.1-13.1 10.7-16.6 21.4.3-4.4 1.3-8 2.6-11-1.6-.9-4-2.3-5.5-2.3 2.3-.8 4.9-.7 6.7-.2zm-7.2 25.9c1.6-6.1-2.5-12.7 3-21.8-4.5 22.2 5.2 19.4 3.7 41.3-.3-6.2-3.1-18.7-6.7-19.5zm7.9 27.7c1.6-10.9 1.4-16.4-1.2-24.8 10.4 16-3.2 27.5 9.4 34.7-12.6-1.3-14.8-14.7-13-25.9.4 7.4 1.7 12.2 4.8 16zm-3.7-35.1c1.6-7.3 6.1-14.6 8.8-16.1-3.1 5.2-4.5 9.4-5.5 13.9 1.3 3.1 2.4 10.4 2.4 16.2-1.7-7.6-3.3-11.2-5.7-14zm19.7 15.5l1.5 1.5c3.5-4.9 9.8-8.4 14.3-8.4-8.1 2.8-11.1 7.3-12.8 11.4 2.1 7.1-1.2 15-7.3 15-9.3 0-8.2-15.2-1.3-15.2 2.1 0 3.7 1.5 3.7 3.9 0 2.3-1.7 4-3.6 3 1.9-.9 1.4-3.4-.2-3.4-3.3 0-4 8.1 1.3 8.1 6.3 0 6.4-12.2.5-14.7 3.2-7.8 7.8-11.3 13.7-20.4-5 11.7-9.1 16.1-9.8 19.2zm7.5-28.2c-.8.4-1.9.7-2.3.7-1.3 5.3-7.3 14.9-10.2 17.4 4.9-8.6 8.3-16.4 8-20.3 4.7-.7 7.4-2 10.6-4.9-3.5 15.5-15.3 25.9-19.5 35.7 1.6-9.4 11.6-20.1 13.4-28.6zm-16.8 47.5c2.3 2.2 5.5 1.6 6.8 1.1-1 3.1-.8 6.4.2 9.4-2.7-2.3-5-3.8-7-10.5zm29.2-26c-.9-7.1-7.3-11.9-4.8-32.2-3.8 2.2-8.4 4.8-11.6 4.8 2.8-.4 10.4-4.7 13.9-8.7-1.2 11.1.7 22.4 4 28.6 2.2-2.7 3.4-4.6 7.2-6.2-3.9 3.9-6.3 8.6-8.7 13.7zm3.2 20c0-10.8-6.8-16.8-16.4-11.2 3.9-3.9 11.4-7.6 16.7-6.8-2.9 2-2.7 9.5 2.3 9.5s6-11.6-2.5-11.6c1-3.1 3.4-7.3 7.3-10.8-1.9 2.9-3 6.1-3.4 8.4 3.1.4 5.9 4.8 5.9 9.9 0 1.7-.4 3.6-1.2 5.2 1 4.4 2.9 10.7 6.6 14.9-3.1-1.2-7.5-8-9.4-11.9a4.65 4.65 0 0 1-2.1.5c.6 4 .2 17.5-11.1 19.9 5.8-3 7.3-8.2 7.3-16zm-1.4-32.1c-1.8-5.3-3.1-12.7-3.1-17.9 1 6.1 3.3 11.4 5.7 15.6-.5.4-1.9 1.5-2.6 2.3zm7.1 33.3c3.4 6.9 8 11 16.9 14.8-7-.3-11.5-2.2-14.7-5.3-1.2 2.7-5.5 5.3-7.9 5.3 3.2-2.2 6.6-8.7 5.7-14.8z" fill="#FECC0D"/><g fill="#C9CBD1"><path d="M864.8 251.2c-2.4 0-4.4-.8-5.8-2.5-1.4-1.6-2.2-4.1-2.2-7.3s.6-5.6 1.9-7.2 3.3-2.4 6.1-2.4c1.2 0 2.3.2 3.4.5s1.8.6 2.2.8.7.4.9.6c0 1.1-.1 2.4-.4 3.8-.5.2-.9.3-1.4.3s-.8 0-1.2-.1l-.6-2.8c-.8-.2-1.6-.3-2.3-.3-1.1 0-2.4.2-3.9.6-.8 1.6-1.2 3.5-1.2 5.7 0 4.9 1.4 7.4 4.3 7.4 1.4 0 2.6-.2 3.5-.7l.1-4.3-2.2-.7.2-1.6h6.5c.2.4.4 1.1.5 2.1l-2 .3.2 5.9c-.5.3-1.5.7-2.8 1.2a10.21 10.21 0 0 1-3.8.7z"/><use xlink:href="#B"/><path d="M896.2 237.1h.6c0 .9-.2 1.7-.5 2.4l-.1 8.7 2.1.2c0 .7-.2 1.5-.6 2.3H891l-.2-1.5 2.4-.8-.3-8.7c-1.1-.1-1.8-.2-2.3-.4 0-.4.1-1.1.2-1.9 1-.2 2.8-.3 5.4-.3zm-4.1-2.8l4.2-3.5c1.1.8 1.6 1.6 1.7 2.3-.5.4-1 .9-1.8 1.4l-2.5 1.5a8.83 8.83 0 0 1-1.6-1.7zm11.8 16.8c-1.5 0-2.7-.3-3.5-.9s-1.2-1.7-1.2-3.2c0-1.4.5-2.6 1.5-3.5.6-.5 1.4-.8 2.4-.9s2.4-.1 4.2-.1v-.4c0-1.1-.2-1.9-.5-2.4s-1-.8-1.8-.8c-.4 0-.8.1-1.2.3l-.6 2.3-2-.1c-.4-.7-.7-1.8-.7-3.2.4-.2 1.2-.5 2.5-.8 1.3-.4 2.2-.5 2.5-.5 1.9 0 3.3.4 4.2 1.2s1.3 2.1 1.3 3.8l-.2 6.8c1 .1 1.8.2 2.4.5v1.4a13.2 13.2 0 0 1-3.9.6h-.8c-.3-.5-.4-1.2-.5-1.9h-.1c-.3.3-.9.7-1.8 1.2s-1.7.6-2.2.6zm-.8-2.6a1.92 1.92 0 0 0 1.2.4c.4 0 1-.2 1.7-.6l1.6-1.1-.1-2.5c-1.4.1-2.5.2-3.2.4-1.1.2-1.7.9-1.7 2.1-.1.6.1 1 .5 1.3z"/><use xlink:href="#C"/><path d="M936 257.3c-.5 0-1.1-.1-1.7-.3s-1.3-.4-2-.8l.3-3.7c.7-.2 1.2-.3 1.7-.3h.8l.9 2.7h.2c.4-.1.8-.5 1.3-1.5.4-.9.7-1.8.9-2.7h-1.1l-4-11-2.1-.2c0-.7.2-1.5.6-2.3h6.7l.2 1.5c-.7.3-1.3.6-1.8.7l2 6.3.2 1.2h.6l2.3-7.5c-.6-.1-1.4-.3-2.2-.7l.2-1.5h6.7c.4.8.6 1.6.6 2.3l-2.1.2-3.8 10.9c-.9 2.5-1.7 4.3-2.4 5.2-.7 1-1.7 1.5-3 1.5zm26.1-9.1c2.1 0 3.1-.9 3.1-2.7 0-.7-.4-1.4-1.2-1.9-.6-.4-1.4-.8-2.3-1.3l-2.2-1.1c-.5-.3-1.1-.6-1.7-1.1-1.2-.9-1.8-2.1-1.8-3.5s.5-2.6 1.6-3.5 2.6-1.4 4.5-1.4 3.9.6 6 1.8c0 1.3-.1 2.7-.4 4.2-.6.2-1.4.3-2.5.3l-.8-3.2c-.7-.2-1.4-.3-2.2-.3s-1.4.2-1.8.5-.6.8-.6 1.5.3 1.3 1 1.8a13.77 13.77 0 0 0 2.4 1.4l2 .9c.4.2.8.4 1.4.8s1 .7 1.3 1c.7.9 1.1 1.8 1.1 2.9 0 1.9-.6 3.3-1.8 4.3s-2.8 1.5-4.8 1.5c-1.1 0-2.2-.2-3.5-.5-1.3-.4-2.3-.8-3.2-1.4 0-1.1.2-2.6.4-4.4.7-.1 1.6-.2 2.6-.2l.6 3.2c.7.3 1.8.4 2.8.4zm15.7-9.1h-.4c-1 0-1.8.3-2.4 1s-.9 1.8-.9 3.5c0 1.6.2 2.8.7 3.7.5.8 1.3 1.3 2.6 1.3.6 0 1.9-.4 3.9-1.2.4.6.7 1.3.7 2-1 .6-1.9 1.1-2.9 1.4-.9.3-1.6.5-2 .5-2.2 0-3.8-.6-4.9-1.8s-1.6-2.9-1.6-5.1c0-4.9 2.2-7.4 6.7-7.4.8 0 1.6.1 2.4.3s1.5.4 1.9.7c-.1 1.8-.3 3.1-.6 3.9-.6.1-1.4.2-2.5.2l-.7-3zm12.4-2.2c2.1 0 3.8.6 5 1.9 1.3 1.3 1.9 3.1 1.9 5.3 0 2.3-.6 4-1.9 5.2s-3 1.8-5.1 1.8-3.8-.6-5-1.8c-1.3-1.2-1.9-2.9-1.9-5.2s.6-4.1 1.9-5.3c1.3-1.3 3-1.9 5.1-1.9zm0 2.1c-.6 0-1.4.2-2.2.5-.2.4-.5 1-.7 1.9s-.3 1.8-.3 2.7c0 1.7.2 2.9.7 3.6s1.3 1.1 2.4 1.1 1.9-.4 2.4-1.1.8-1.9.8-3.6-.3-3-.8-3.8c-.4-.9-1.2-1.3-2.3-1.3z"/><use xlink:href="#B" x="122.8"/><path d="M1016.7 251.1h-.6c-.1-.2-.3-.6-.4-1.1s-.3-.9-.3-1.2l-.3-9.2h-1.9l.1-1.5c.4-.3.9-.5 1.5-.8l2.2-3.4c.7.1 1.2.3 1.6.6v2.5c1.1 0 2.2.1 3.1.3 0 .7-.2 1.5-.7 2.3h-2.5l-.1 8.4c.7.1 1.7.3 2.9.6v1.4c-.3.2-1 .4-2 .7-1.1.3-2 .4-2.6.4z"/><use xlink:href="#C" x="109.5"/></g><g fill="#FEFEFE"><use xlink:href="#D"/><use xlink:href="#E"/><path d="M749 356.5c-2.2 0-3.9-.5-5.1-1.4s-1.8-2.4-1.8-4.6c0-2 .7-3.7 2.1-5 .8-.7 2-1.2 3.4-1.3l6.1-.2v-.6c0-1.6-.3-2.7-.8-3.5-.5-.7-1.4-1.1-2.6-1.1-.6 0-1.2.1-1.7.4l-.9 3.4-2.9-.1c-.6-1-1-2.5-1-4.7.5-.3 1.7-.6 3.6-1.2l3.7-.8c2.8 0 4.8.6 6.1 1.7s1.9 3 1.9 5.4l-.3 9.8c1.5.1 2.6.3 3.4.7v1.9c-1.9.6-3.7.9-5.6.9h-1.1c-.4-.8-.6-1.7-.7-2.8h-.2c-.5.5-1.3 1-2.6 1.8-1.2.9-2.2 1.3-3 1.3zm-1.1-3.8c.5.4 1.1.6 1.8.6s1.5-.3 2.4-.9l2.2-1.6-.2-3.5c-2 .1-3.6.3-4.6.6-1.6.3-2.4 1.3-2.4 3 0 .7.3 1.4.8 1.8zm43.1-14.9c1.2 1.3 1.7 3 1.7 5.3l-.4 9.2 3 .3c0 1.1-.3 2.2-.9 3.4h-9.6l-.3-2.1c1.2-.5 2.3-.9 3.4-1.2l-.2-7.5c-.1-2-.3-3.4-.6-4.1s-1-1.1-2-1.1c-1.6 0-3 .3-4.3.8l-.2 5.4-.2 6 3 .3c0 1.1-.3 2.2-.9 3.4h-9.6l-.3-2.1 3.5-1.2-.3-6.4-.3-6.1c-1-.1-2-.3-3-.6l.2-2.8c1.8-.5 3.8-.7 6.1-.7.3.2.7.7 1.2 1.7.9-.4 1.9-.9 3.2-1.3l2.3-.6c2.5.1 4.4.8 5.5 2z"/><use xlink:href="#D" x="101.3"/><path d="M829.6 352.7c.9 0 2.6-.6 5.3-1.8.6.8 1 1.8 1.3 2.9-1.4.9-2.8 1.5-4.1 2s-2.3.7-2.9.7c-3.1 0-5.5-.9-7.1-2.6s-2.4-4.2-2.4-7.3c0-3.2.8-5.7 2.4-7.7 1.6-1.9 4-2.9 7.1-2.9 2.5 0 4.4.8 5.7 2.4s2 3.7 2 6.3c0 .5-.3 1.2-.9 1.9l-11.1-.2c.1 2.1.4 3.6 1.2 4.7.6 1 1.8 1.6 3.5 1.6zm-.8-13.6c-1 0-1.9.2-2.7.6-.6 1.2-1 2.4-1.1 3.4l6.8-.2c-.2-2.5-1.1-3.8-3-3.8z"/><use xlink:href="#F"/><use xlink:href="#G"/><use xlink:href="#G" x="30.8"/><use xlink:href="#F" x="74.3"/><path d="M946.4 352.7c.9 0 2.6-.6 5.3-1.8.6.8 1 1.8 1.3 2.9-1.4.9-2.8 1.5-4.1 2s-2.3.7-2.9.7c-3.1 0-5.5-.9-7.1-2.6s-2.4-4.2-2.4-7.3c0-3.2.8-5.7 2.4-7.7 1.6-1.9 4-2.9 7.1-2.9 2.5 0 4.4.8 5.7 2.4s2 3.7 2 6.3c0 .5-.3 1.2-.9 1.9l-11.1-.2c.1 2.1.4 3.6 1.2 4.7.6 1 1.8 1.6 3.5 1.6zm-.7-13.6c-1 0-1.9.2-2.7.6-.6 1.2-1 2.4-1.1 3.4l6.8-.2c-.2-2.5-1.2-3.8-3-3.8z"/><use xlink:href="#E" x="237.9"/><path d="M984.3 356.5h-.8c-.2-.3-.4-.8-.6-1.6-.3-.8-.4-1.3-.4-1.7l-.4-13.2h-2.7l.1-2.2c.6-.4 1.3-.8 2.1-1.1l3.1-4.9c1 .1 1.8.4 2.4.8v3.7l4.5.5c0 1-.3 2.1-1 3.3H987l-.2 12.1c1 .1 2.4.4 4.2.9v2c-.4.3-1.4.6-2.9 1l-3.8.4z"/><use xlink:href="#D" x="298"/><path d="M1027.4 340.1c-.1-.1-.3-.2-.8-.2s-1.3.3-2.4 1l-.2 11.3 3 .4c0 1.1-.3 2.2-.9 3.3h-9.6l-.3-2.1 3.5-1.2-.4-12.5c-1.3-.1-2.5-.3-3.4-.6l.3-2.8c.7-.3 3.2-.5 7.5-.6.2.2.3.7.3 1.3 2.3-1.1 3.7-1.7 4.3-1.7a6.43 6.43 0 0 1 2.2.4c.9.3 1.6.6 2 .9v.7c0 2.1-.3 4.1-.8 5.9-.4.2-1 .3-1.7.3s-1.4 0-2-.1c0-.1-.2-1.4-.6-3.7zm13.2 16.4c-2.2 0-3.9-.5-5.1-1.4s-1.8-2.4-1.8-4.6c0-2 .7-3.7 2.1-5 .8-.7 2-1.2 3.4-1.3l6.1-.2v-.6c0-1.6-.3-2.7-.8-3.5-.5-.7-1.4-1.1-2.6-1.1-.6 0-1.2.1-1.7.4l-.9 3.4-2.9-.1c-.6-1-1-2.5-1-4.7.5-.3 1.7-.6 3.6-1.2l3.7-.8c2.8 0 4.8.6 6.1 1.7s1.9 3 1.9 5.4l-.3 9.8c1.5.1 2.6.3 3.4.7v1.9c-1.9.6-3.7.9-5.6.9h-1.1c-.4-.8-.6-1.7-.7-2.8h-.2c-.5.5-1.3 1-2.6 1.8-1.3.9-2.2 1.3-3 1.3zm-1.1-3.8c.5.4 1.1.6 1.8.6s1.5-.3 2.4-.9l2.2-1.6-.2-3.5c-2 .1-3.6.3-4.6.6-1.6.3-2.4 1.3-2.4 3 0 .7.2 1.4.8 1.8zM40.1 725.4v-6.6c6.2-4.8 9.4-7.7 15.9-14.4 2.3-2.6 4-5 5-7s1.5-3.9 1.5-5.7c0-2.4-.5-4.4-1.6-6s-2.7-2.4-4.8-2.5c-2.3-.1-4 .7-5.2 2.3s-1.8 3.8-1.8 6.6l-9.6-1.1c0-.1 0-.1-.1-.2-.1-4.5 1.3-8.1 4.4-11.2s7.2-4.8 12.4-4.8c5.1 0 9.1 1.5 12.1 4.7 2.9 3.2 4.3 7.6 4.3 12.9 0 3.6-.9 6.9-2.6 9.8s-4.5 6.5-8.3 10.5c-3.6 3.8-5.3 5.6-8.8 8.9 0 .1 0 .1.1.2 5.1 1.4 7.6 2 12.8 3.2l.5-5.7c3 .6 4.5.8 7.6 1.3l-.1 15.2c-11.6-2.6-22.8-6-33.7-10.4zm73.2-10.4c0 8.5-1.5 15-4.6 19.3s-7.3 6.3-12.5 5.8c-5.3-.5-9.4-3.3-12.4-8s-4.5-11.1-4.4-19.2l.1-13.5c.1-8.1 1.6-14.1 4.7-18.4 3.1-4.2 7.2-6.4 12.3-6.4s9.2 2.2 12.3 6.7c3 4.4 4.6 10.9 4.6 19.4l-.1 14.3zm-10-15.7c0-5.1-.6-8.8-1.7-11.2-1.2-2.4-2.9-3.6-5.1-3.6-2.3 0-4 1.1-5.2 3.4s-1.8 5.9-1.8 10.9l-.1 16.3c0 5.1.5 8.8 1.7 11.2s2.9 3.8 5.2 4 4-.9 5.2-3.1c1.2-2.3 1.8-6 1.8-11.2v-16.7zm50.4 13.4c.1 8.1-1.4 14.4-4.4 19.1s-7.1 7.5-12.3 8.1c-5.3.6-9.5-1.4-12.6-5.7s-4.6-10.7-4.6-19.3v-14.2c0-8.5 1.5-15 4.5-19.4s7.1-6.6 12.3-6.6c5.1 0 9.3 2.2 12.3 6.4 3.1 4.2 4.7 10.2 4.7 18.3l.1 13.3zm-10.1-14c0-5-.7-8.6-1.9-10.8-1.2-2.3-2.9-3.4-5.2-3.4s-4 1.2-5.1 3.6c-1.2 2.4-1.7 6.1-1.7 11.2l.1 16.7c0 5.2.6 8.9 1.8 11.1 1.2 2.3 3 3.3 5.3 3.1s4-1.6 5.1-4c1.2-2.4 1.7-6.2 1.7-11.2l-.1-16.3zm41.3-11.4l-.9-3.5-13.4.7-1.3 13.3a11.44 11.44 0 0 1 3.3-2.3c1.3-.6 2.7-1.1 4.3-1.3 4.8-.6 8.4.5 11 3.1s3.9 6.4 3.9 11.7c0 4.8-1.4 9.2-4.2 13.4-2.8 4.3-6.8 7.5-12.1 9.2-4.5 1.4-8.4 1.1-11.7-1.1s-4.9-6.1-4.8-11.3c0-.1 0-.1.1-.2l9.5-2.3c0 2.6.7 4.4 1.9 5.6 1.3 1.1 2.9 1.4 4.9.9 2.3-.6 4-2 5.1-4.1s1.6-4.6 1.6-7.4c0-3.1-.6-5.4-1.8-7.1s-2.9-2.3-5.3-2c-1.9.3-3.3.9-4.3 1.8-1 1-1.7 2.2-2.1 3.6-3.5.3-5.3.4-8.8.6l2.6-33.2 28.6-.1v11.4c-2.4.3-3.6.4-6.1.6z"/></g><path d="M38.8 664.1l2.1-.4v-9.8h-2.4v-3h2.4V649c0-1.8.5-3.1 1.5-4.1s2.5-1.4 4.3-1.4c.4 0 .7 0 1.1.1s.8.1 1.2.2l-.4 3.2c-.2 0-.5-.1-.7-.1h-.8c-.7 0-1.2.2-1.6.6s-.5.9-.5 1.6v1.8h3.1v3H45v9.8l2.1.4v2.6h-8.4v-2.6zm22.1.5c-.5.7-1.1 1.3-1.9 1.7s-1.6.6-2.6.6c-1.7 0-3-.5-3.9-1.6s-1.4-2.7-1.4-5v-6.5l-1.7-.4v-2.6h6v9.6c0 1.2.2 2 .6 2.5s1 .8 1.7.8 1.3-.1 1.8-.3a2.73 2.73 0 0 0 1.2-.9V654l-1.9-.4V651H65v12.8l1.9.4v2.6h-5.7l-.3-2.2zm7.4-.5l2.1-.4v-9.8l-2.3-.4v-2.6h6.3l.2 2.3c.5-.8 1.2-1.4 1.9-1.9s1.6-.7 2.6-.7c1.6 0 2.9.5 3.8 1.5s1.3 2.6 1.3 4.7v6.9l2.1.4v2.6H78v-2.6l1.8-.4v-6.9c0-1.1-.2-1.8-.6-2.3s-1.1-.7-1.9-.7c-.6 0-1.1.1-1.5.3s-.8.6-1.1 1v8.5l1.7.4v2.6h-8.1v-2.5zm29.4.6c-.5.7-1.1 1.3-1.8 1.7s-1.5.6-2.3.6c-2 0-3.5-.7-4.5-2.1s-1.6-3.3-1.6-5.7v-.3c0-2.5.5-4.5 1.6-6s2.6-2.3 4.6-2.3a4.65 4.65 0 0 1 2.1.5c.6.3 1.2.8 1.7 1.5v-5.7l-2.3-.4v-2.6h6.6v19.8l2.1.4v2.6H98l-.3-2zm-6-5.5c0 1.4.2 2.5.7 3.3s1.2 1.2 2.3 1.2c.6 0 1.2-.1 1.6-.4s.8-.6 1.1-1.1v-6.7c-.3-.5-.7-.9-1.1-1.2-.5-.3-1-.4-1.6-.4-1 0-1.8.5-2.3 1.4s-.7 2.1-.7 3.6v.3zm23.5 7.4l-.3-.8c-.1-.3-.2-.6-.2-.8-.5.6-1.1 1.1-1.9 1.4s-1.6.5-2.5.5c-1.6 0-2.8-.4-3.7-1.3s-1.4-2-1.4-3.5.6-2.6 1.8-3.4 2.9-1.2 5.2-1.2h2.2V656c0-.8-.2-1.4-.7-1.8s-1.1-.6-1.9-.6c-.5 0-.9.1-1.3.2s-.7.2-.9.4l-.3 1.7h-3.2v-3.5c.8-.5 1.7-1 2.7-1.3s2.1-.5 3.3-.5c2 0 3.6.5 4.8 1.4s1.8 2.3 1.8 4.1v7.2c0 .2 0 .4.1.6l1.3.2v2.6h-4.9zm-3.7-2.8c.6 0 1.2-.1 1.8-.4.5-.3.9-.6 1.2-1V660h-2.2c-.9 0-1.6.2-2.1.6s-.7.9-.7 1.5c0 .5.2 1 .5 1.3s.9.4 1.5.4zm20.4.9c-.5.7-1.1 1.3-1.8 1.7s-1.5.6-2.3.6c-2 0-3.5-.7-4.5-2.1s-1.6-3.3-1.6-5.7v-.3c0-2.5.5-4.5 1.6-6s2.6-2.3 4.6-2.3a4.65 4.65 0 0 1 2.1.5c.6.3 1.2.8 1.7 1.5v-5.7l-2.3-.4v-2.6h6.6v19.8l2.1.4v2.6h-5.8l-.4-2zm-5.9-5.5c0 1.4.2 2.5.7 3.3s1.2 1.2 2.3 1.2c.6 0 1.2-.1 1.6-.4s.8-.6 1.1-1.1v-6.7c-.3-.5-.7-.9-1.1-1.2-.5-.3-1-.4-1.6-.4-1 0-1.8.5-2.3 1.4s-.7 2.1-.7 3.6v.3zm13.4-.6c0-2.4.7-4.3 2-5.8s3.2-2.3 5.5-2.3 4.2.8 5.5 2.3 2 3.4 2 5.8v.3c0 2.4-.7 4.3-2 5.8s-3.1 2.2-5.5 2.2-4.2-.7-5.5-2.2-2-3.4-2-5.8v-.3zm4.2.3c0 1.4.3 2.6.8 3.5s1.3 1.3 2.5 1.3c1.1 0 1.9-.4 2.4-1.3s.8-2 .8-3.5v-.3c0-1.4-.3-2.6-.8-3.4s-1.3-1.3-2.4-1.3-1.9.4-2.4 1.3-.8 2-.8 3.4v.3zm27.5 8c-2.3 0-4.1-.7-5.5-2.2s-2.1-3.3-2.1-5.6v-.6c0-2.4.6-4.3 1.9-5.8s3-2.3 5.2-2.3c2.1 0 3.8.6 5 1.9s1.8 3 1.8 5.2v2.3H168v.1c.1 1 .4 1.9 1 2.6s1.5 1 2.5 1c.9 0 1.7-.1 2.4-.3.6-.2 1.3-.5 2.1-.9l1.2 2.6c-.7.5-1.5 1-2.5 1.3-1.1.6-2.3.7-3.6.7zm-.4-13.1a2.32 2.32 0 0 0-1.9.9c-.5.6-.7 1.4-.8 2.4v.1h5.2v-.4c0-.9-.2-1.6-.6-2.2-.4-.5-1-.8-1.9-.8zm8.6 10.3l2.1-.4v-9.8l-2.3-.4v-2.6h6.3l.2 2.3c.5-.8 1.2-1.4 1.9-1.9s1.6-.7 2.6-.7c1.6 0 2.9.5 3.8 1.5s1.3 2.6 1.3 4.7v6.9l2.1.4v2.6H189v-2.6l1.8-.4v-6.9c0-1.1-.2-1.8-.6-2.3s-1.1-.7-1.9-.7c-.6 0-1.1.1-1.5.3s-.8.6-1.1 1v8.5l1.7.4v2.6h-8.1v-2.5z" fill="#C9CBD1"/><defs ><path id="B" d="M887.5 237.1h.6c0 .9-.2 1.7-.5 2.4l-.3 8.7c.8.1 1.5.2 2.1.4l-.1 1.9c-1.1.3-2 .5-2.8.5s-1.3 0-1.6-.1c-.2-.4-.4-.9-.5-1.3-1.5 1-2.6 1.5-3.2 1.5-3.2 0-4.8-1.6-4.8-4.8l.2-6.5c-.9 0-1.8-.1-2.6-.4 0-.4.1-1.1.2-1.9 1.1-.3 2.9-.4 5.4-.4h.6c0 .9-.2 1.7-.5 2.4v5.4c0 1.1.1 2 .4 2.5.2.5.8.8 1.6.8s1.6-.3 2.5-.8l-.2-7.6c-.8 0-1.5-.2-2.2-.4 0-.4.1-1.1.2-1.9 1.1-.3 2.9-.4 5.5-.4z"/><path id="C" d="M923.1 238v.8c0 1.4-.1 2.3-.3 2.7-.6.2-1.4.3-2.5.3l-.9-2.7c-.2-.1-.6-.1-1-.1s-.7.1-1 .4-.4.5-.4.9c0 .3.1.6.4.9s.5.5.8.7.7.4 1.2.6c.5.3 1 .5 1.2.6.3.1.6.4 1.1.6l1 .8c.6.7.9 1.4.9 2.2 0 1.4-.5 2.4-1.6 3.2-1 .7-2.3 1.1-3.8 1.1-.8 0-1.7-.1-2.6-.4-1-.3-1.8-.7-2.4-1.2 0-1.3.1-2.5.4-3.6.7-.1 1.3-.1 1.7-.1h.9l.3 2.6c.4.2 1 .2 1.6.2s1.1-.1 1.5-.4.5-.6.5-1.1-.2-.8-.6-1.1-1-.6-1.7-1l-1.7-.8c-.4-.2-.8-.5-1.3-.9-.9-.7-1.4-1.6-1.4-2.6 0-1.3.4-2.3 1.3-3s2.1-1.1 3.6-1.1 3.3.8 4.8 1.5z"/><path id="D" d="M713.5 336.2h.9c0 1.3-.2 2.4-.7 3.4l-.4 12.5c1.2.1 2.2.3 3 .6l-.1 2.7c-1.6.5-2.9.7-4 .7s-1.9 0-2.3-.1c-.3-.6-.6-1.2-.8-1.9-2.1 1.4-3.7 2.2-4.6 2.2-4.6 0-6.9-2.3-6.9-7l.3-9.3c-1.4 0-2.6-.2-3.7-.5 0-.6.1-1.6.3-2.8 1.5-.4 4.1-.6 7.8-.6h.9c0 1.3-.2 2.4-.7 3.5v7.8c0 1.6.2 2.8.5 3.6s1.1 1.1 2.2 1.1 2.3-.4 3.5-1.2l-.2-11c-1.1-.1-2.2-.2-3.2-.5 0-.6.1-1.6.3-2.8l7.9-.4z"/><path id="E" d="M736.5 337.8c1.2 1.3 1.7 3 1.7 5.3l-.4 9.2 3 .3c0 1.1-.3 2.2-.9 3.4h-9.6l-.3-2.1c1.2-.5 2.3-.9 3.4-1.2l-.2-7.5c-.1-2-.3-3.4-.6-4.1s-1-1.1-2-1.1c-1.6 0-3 .3-4.3.8l-.2 5.4-.2 6 3 .3c0 1.1-.3 2.2-.9 3.4h-9.6l-.3-2.1 3.5-1.2-.3-6.4-.3-6.1c-1-.1-2-.3-3-.6l.2-2.8c1.8-.5 3.8-.7 6.1-.7.3.2.7.7 1.2 1.7.9-.4 1.9-.9 3.2-1.3l2.3-.6c2.4.1 4.3.8 5.5 2z"/><path id="F" d="M849.6 350.2l1.4-5.7 2-4.9c-.9-.2-2-.5-3.2-1l.3-2.1h9.6c.6 1.2.9 2.3.9 3.4-1 .2-2 .3-3 .3-.5 1.7-1.5 4.4-3 8l-3 7.9h-5l-6.1-15.9-3-.3c0-1.1.3-2.2.9-3.4h9.6l.3 2.1c-1.1.5-1.9.8-2.7 1l1.9 4.9 1.4 5.8h.7z"/><path id="G" d="M869.1 356.5c-2.2 0-3.9-.5-5.1-1.4s-1.8-2.4-1.8-4.6c0-2 .7-3.7 2.1-5 .8-.7 2-1.2 3.4-1.3l6.1-.2v-.6c0-1.6-.3-2.7-.8-3.5-.5-.7-1.4-1.1-2.6-1.1-.6 0-1.2.1-1.7.4l-.9 3.4-2.9-.1c-.6-1-1-2.5-1-4.7.5-.3 1.7-.6 3.6-1.2l3.7-.8c2.8 0 4.8.6 6.1 1.7s1.9 3 1.9 5.4l-.3 9.8c1.5.1 2.6.3 3.4.7v1.9c-1.9.6-3.7.9-5.6.9h-1.1c-.4-.8-.6-1.7-.7-2.8h-.2c-.5.5-1.3 1-2.6 1.8-1.3.9-2.3 1.3-3 1.3zm-1.2-3.8c.5.4 1.1.6 1.8.6s1.5-.3 2.4-.9l2.2-1.6-.2-3.5c-2 .1-3.6.3-4.6.6-1.6.3-2.4 1.3-2.4 3 0 .7.3 1.4.8 1.8z"/></defs></svg>