<?xml version="1.0" encoding="utf-8"?>
<!-- Generator: Adobe Illustrator 19.1.0, SVG Export Plug-In . SVG Version: 6.00 Build 0)  -->
<svg version="1.1" id="Layer_1" xmlns="http://www.w3.org/2000/svg" xmlns:xlink="http://www.w3.org/1999/xlink" x="0px" y="0px"
	 width="980px" height="228px" viewBox="0 0 980 228" enable-background="new 0 0 980 228" xml:space="preserve">
<g>
	<path fill="#FFFFFF" d="M607.7,81.3c0-13.5,0.2-27.1-0.1-40.6c-0.1-3.9,1.1-4.8,4.8-4.6c4.8,0.3,9.7,0.3,14.5,0
		c4.1-0.3,5.4,0.9,5.3,5.2c-0.2,24.4-0.1,48.8-0.1,73.2c0,2.3,0.1,4.7,0.4,7c1.8,13.4,10.2,21.7,23.7,23c5.3,0.5,10.7,0.5,15.9-1
		c14.5-4.3,19.1-12.9,19.4-28.3c0.4-24.6,0.2-49.2,0-73.7c0-4.5,1.2-5.7,5.5-5.4c5,0.4,10,0.2,15,0.1c2.4-0.1,3.6,0.4,3.6,3.2
		c-0.1,26.6,0.6,53.2-0.3,79.7c-0.9,26.6-18.2,43-45,45.6c-10.2,1-20.3,0.6-30.1-2.1c-20-5.6-31.9-20.8-32.4-41.6
		C607.5,107.7,607.8,94.6,607.7,81.3C607.8,81.3,607.7,81.3,607.7,81.3z"/>
	<path fill="#FFFFFF" d="M907,33.2c12.7-0.4,23.7,2.6,34.2,8.3c3,1.6,3.6,3.2,1.7,6.2c-2.5,3.7-3.7,9.3-7,11.2
		c-3.3,1.9-7.3-3-11.2-4.5c-8.4-3.2-16.8-4.1-25.2-0.4c-11.5,5-12.9,17-2.9,24.6c6.2,4.7,13.6,6.8,20.6,9.9c4.1,1.9,8.2,3.7,12.1,6
		c13.5,7.7,19.7,19.8,18.6,35s-9.7,25.8-23.7,31.3c-21.9,8.5-43.1,4.6-63.7-5.2c-1.8-0.8-2.1-1.9-1.2-3.5c2.5-4.5,5.1-9,7.4-13.6
		c1.2-2.3,2.4-2.1,4.4-1c6.8,3.5,13.8,6.5,21.5,7.7c7.1,1.1,14,0.5,20.3-3.2c10.1-5.9,11.5-18.1,3.2-26.2c-4.1-4-9.2-6.5-14.3-8.9
		c-6.5-3-13.2-5.4-19.3-9.2c-13.8-8.5-19.6-21.2-17-37c2.2-13.2,12.9-23.3,28-26.4C898.1,33.3,902.9,33,907,33.2z"/>
	<path fill="#FFFFFF" d="M267.4,33.2c12.9-0.4,24.2,2.5,34.7,8.4c2.6,1.4,3.7,2.7,1.7,5.6c-2.6,3.9-3.7,9.7-7.2,11.6
		c-3.4,2-7.5-3.2-11.6-4.7c-9.2-3.3-18.2-4-27,0.9c-9,5.1-10.1,14.9-2.4,22c4.2,3.9,9.5,6,14.7,8.2c5.5,2.4,11.1,4.5,16.4,7.2
		c16.1,8.1,23.1,20.9,21.6,38.6c-1.2,14.1-12.1,26.6-28,31.2c-20.4,5.9-39.8,2.3-58.7-6.5c-2.6-1.2-2.5-2.5-1.3-4.6
		c2.3-4,4.7-8.1,6.7-12.2c1.3-2.7,2.6-2.7,5-1.4c6.6,3.5,13.6,6.3,21,7.5c6.9,1.2,13.6,0.5,19.9-2.9c11.3-6,12.5-19.7,2.5-27.8
		c-7-5.6-15.3-8.6-23.3-12.1c-5.2-2.3-10.3-4.8-14.6-8.5c-11.2-9.4-13.8-21.8-10.6-35.5c3.3-14.2,14.1-20.7,27.3-23.9
		C258.9,33.2,263.5,33,267.4,33.2z"/>
	<path fill="#FFFFFF" d="M330.3,99.6c0.4-39.6,27.4-66.2,67.2-66.4c11.9-0.1,22.6,3.2,33,8.3c2.6,1.3,3.7,2.7,1.6,5.2
		c-0.2,0.3-0.3,0.6-0.5,0.9c-2.1,3.6-3.3,8.4-6.4,10.5c-3.5,2.4-7.2-2.2-11.1-3.2c-30-8-57.1,9.9-57.7,42
		c-0.3,15,3.7,28.5,15.5,38.5c13.2,11.2,33.5,12.6,49.7,3.6c3.7-2.1,5.3-1.7,6.9,2.1s3.7,7.4,5.8,11c1.2,2,1,3.1-1.2,4.3
		c-24.4,12.5-60.3,12.9-82.3-6.6C337.3,137.6,330.1,120.3,330.3,99.6z"/>
	<path fill="#FFFFFF" d="M851.3,36.2c-3.6,6.3-6.7,11.6-9.6,17.1c-1.2,2.2-3,2.3-5,2.3c-9.3,0-18.7,0.2-28-0.1
		c-4.1-0.1-5,1.4-4.9,5.1c0.1,32.1,0,64.2,0.2,96.3c0,4.7-1.4,6-5.9,5.7c-4.5-0.4-9-0.3-13.5,0c-3.7,0.2-4.9-0.9-4.8-4.7
		c0.2-12.8,0.1-25.8,0.1-38.6c0-19.6-0.1-39.1,0.1-58.7c0-3.8-0.9-5.3-5-5.1c-9.8,0.3-19.7,0-29.5,0.2c-3.3,0.1-5-0.6-4.6-4.3
		c0.4-4.8-1.9-11,0.9-14c2.9-3.1,9.1-0.9,13.9-1c29.8-0.1,59.8-0.1,89.6-0.1C846.8,36.2,848.6,36.2,851.3,36.2z"/>
	<path fill="#FFFFFF" d="M99.4,58.9c-2,16.3-2.4,32.5-2.3,48.9c0,5.4-3,7.7-8.2,6.4c-0.9-0.2-1.5-0.7-1.6-1.6
		C85.9,99.8,79.4,89,74.9,77.3c-7.4-18.9-3.5-33.1,12.3-45.5c3.1-2.5,6.3-5,9.1-7.8c2.1-2.1,3.3-1.7,5.2,0.2
		c3.2,3.1,6.7,5.9,10.3,8.7c13.2,10.4,17.8,24.7,12.3,40.5c-2.5,7.4-6,14.4-8.9,21.8c-2,4.8-3.9,9.7-4.2,14.8
		c-0.4,5.7-4.1,3.6-7.1,3.8c-3.8,0.3-3.3-2.1-3.3-4.5c-0.1-13.7-0.2-27.4-0.4-41.1C100.1,65.1,99.7,62,99.4,58.9z"/>
	<path fill="#FFFFFF" d="M98.2,151.2c2.9-5.6,1.8-10.8,2.1-15.9c0.1-2.7,0.3-5.2,3.9-4.8c2.8,0.3,6.4-1.7,7,3.6
		c0.6,5.3,3,10.2,6,14.6c1.8,2.5,1.5,4.4-0.2,6.7c-2.5,3.4-5,6.6-8.3,9.2c-9.2,7.4-11.3,7.4-20.3-0.3c-1.4-1.2-2.7-2.5-3.9-3.8
		c-6.2-7-6.2-7-2.1-15.3c1.9-3.7,3.5-7.6,4.1-11.7c0.7-4.9,4.4-2.7,6.9-3c2.9-0.4,3.6,1.4,3.7,4C97.5,139.9,97.9,145.2,98.2,151.2z"
		/>
	<path fill="#FFFFFF" d="M858.7,201.9c2.9-8.3,5.4-15.4,7.9-22.5c0.3-0.9,0.7-1.9,1-2.8c0.7-1.8,2.2-2,3.7-1.6
		c2.3,0.6,0.8,2.3,0.5,3.2c-3.7,10.5-7.5,21-11.4,31.4c-0.4,1.2-0.2,2.8-2.1,3.5c-3.6-8.9-7.3-18-11.4-28.1
		c-4,9.9-7.6,18.8-11.1,27.6c-2.2-0.3-2.1-2.1-2.5-3.3c-3.7-10.1-7.4-20.4-10.9-30.6c-0.4-1.1-2.4-2.7,0.1-3.6
		c2-0.7,3.4,0.2,4.2,2.3c2.4,7,4.9,14.1,7.3,21.2c0.2,0.6,0.5,1.1,1.4,2.9c4-9.7,7.6-18.6,11.6-28.4
		C851,183,854.6,191.9,858.7,201.9z"/>
	<path fill="#FFFFFF" d="M56.2,139.3c10.6,1.5,11.9,0.9,17.3-9c1.8-3.3,4.1-0.4,6.2-0.7c4.7-0.6,5.8,1.7,4.2,5.9
		c-1.4,3.6-2.7,7.2-5,10.3c-3.7,5-8.2,6.9-13.4,5.6C60.5,150.1,57.1,145.8,56.2,139.3z"/>
	<path fill="#FFFFFF" d="M141.4,139.3c-0.5,5.7-3.9,10.3-8.8,11.9c-4.9,1.5-9.5-0.2-13.1-4.8c-2.8-3.6-4.5-7.7-5.8-12
		c-1-3.1,0.1-4.3,3.4-4.8c4.3-0.6,7-0.5,8.9,4.5C128.1,139.4,132.4,140.3,141.4,139.3z"/>
	<path fill="#FFFFFF" d="M479.8,204.3c1.2,3.3,0.3,5.2-2.7,6.6c-7.8,3.6-17.3,1.5-23-5.3c-5.7-6.9-5.7-17.1-0.1-24
		c5.6-6.9,15.2-9.3,22.9-5.6c3.4,1.6,3.4,1.7,3,6.6c-4.9-2.6-9.6-5.6-15.4-3.3c-3.2,1.3-5.8,3.1-7.7,6c-3.7,5.8-3,13.4,1.8,18.5
		C464,209.5,470.5,209.7,479.8,204.3z"/>
	<path fill="#FFFFFF" d="M580.7,200.1c0-3,0-6,0-9c0-1.2,0.2-3,1.6-2.2c3.1,1.7,5.4-0.4,8-0.8c4.6-0.6,8,2.2,8.3,7.2
		c0.3,4.6,0.1,9.3,0.1,13.9c0,1.4-0.2,2.7-2.1,2.6c-2,0-1.9-1.4-1.9-2.8c0-3.7,0-7.3,0-11c0-3.1-0.8-5.6-4.6-5.7
		c-3.7-0.1-5,2.3-5.3,5.3c-0.3,3.5-0.1,7-0.2,10.4c-0.1,1.5,0.6,3.7-2.1,3.6c-2.8-0.1-1.6-2.4-1.7-3.8
		C580.6,205.4,580.7,202.8,580.7,200.1z"/>
	<path fill="#FFFFFF" d="M919.6,191.7c0,5.7,0,11.3,0,17.1c0,1.4,0.2,3.2-2,3.3c-2.6,0.1-2.4-1.7-2.4-3.4c0-11.3,0-22.7,0-34
		c0-1.6,0-3,2.3-3s2.2,1.6,2.2,3.1C919.6,180.3,919.6,186.1,919.6,191.7z"/>
	<path fill="#FFFFFF" d="M558.3,212c-2.2,0-2.2-1.6-2.2-3.1c0-3.6,0.1-7.3-0.1-10.9c-0.1-2,0.9-4.3-1.8-5.7c-1-0.5-0.8-2.3-0.3-2.6
		c2.7-1.7,2-4.2,2.1-6.6c0-1.6,0.6-2.4,2.4-2.4c1.9,0,2,1.3,2,2.7c0.2,2.4-1.1,5.4,3.2,5.8c1.2,0.1,1.6,3.1-0.3,3.3
		c-3.8,0.3-2.9,2.8-2.9,5c-0.1,3.8,0,7.6,0,11.4C560.5,210.4,560.5,211.9,558.3,212z"/>
	<path fill="#FFFFFF" d="M753.9,192.4c-3.9-0.2-5.7,1.2-5.1,5.4c0.4,3.3,0.2,6.6,0,10c-0.1,1.6,0.9,4.1-2.2,4
		c-3-0.1-1.8-2.7-1.9-4.2c-0.2-3.3,0-6.7-0.1-10c-0.1-1.8,0.8-4-1.5-5.4c-0.9-0.6-0.8-2.3-0.2-2.7c2.3-1.7,1.7-4.1,1.8-6.3
		c0-1.4,0.2-2.6,2.1-2.6c2,0,2.2,1.3,2,2.7c-0.6,4,0.7,6.4,5,6.3C754.8,190.6,754.8,191.5,753.9,192.4z"/>
	<path fill="#FFFFFF" d="M898.9,200.5c0-0.8-0.1-1.7,0-2.5c0.5-3-1.6-6.9,1.1-8.8c1.8-1.2,5.3,0.2,8-1c0.9-0.4,3.3-0.2,3.2,1.9
		c0,1.2-0.5,2.9-2.3,2.6c-5.5-0.9-5.4,3.3-5.8,6.5c-0.4,3.1,0,6.3-0.1,9.4c0,1.4,0.5,3.2-1.9,3.2c-2.3,0.1-2.2-1.5-2.2-3
		C898.9,206.1,898.9,203.3,898.9,200.5z"/>
	<path fill="#FFFFFF" d="M489.3,188.9c1.5,1.5,3.2,0.2,5.1-0.5c1.7-0.6,4.1-0.6,4.5,1.5c0.3,1.9-1.2,3-3.7,2.6
		c-3.3-0.5-3.9,2.3-4.1,4.5c-0.4,3.9-0.4,7.9-0.5,11.9c0,1.5,0.1,3.1-2.2,3c-2-0.1-1.8-1.6-1.8-2.8c0-6,0-11.9,0-18
		C486.6,189.7,486.9,188.5,489.3,188.9z"/>
	<path fill="#FFFFFF" d="M792.6,200.2c0-0.8-0.1-1.7,0-2.5c0.4-2.9-1.5-6.8,1-8.4c2-1.3,5.5,0.1,8.3-1c0.8-0.3,2.9,0,2.8,1.9
		c-0.1,1.4-0.7,2.7-2.4,2.5c-4.9-0.5-5.3,2.9-5.5,6.3c-0.1,3.3,0,6.6,0,10c0,1.6-0.1,3.1-2.3,3c-2-0.1-1.9-1.5-1.9-2.8
		C792.6,206.1,792.7,203.2,792.6,200.2z"/>
	<path fill="#FFFFFF" d="M753.9,192.4c0-0.9,0-1.8,0-2.7c2.3-1.1,3.1-2.9,2.8-5.4c-0.1-1.2-0.8-3.3,1.5-3.5c2.5-0.2,1.7,1.9,1.8,3.2
		c0.1,2.5-0.5,5.2,3.5,4.9c1-0.1,1.2,1,1.2,1.8c0.1,1.2-0.5,2-1.7,1.9c-3.6-0.3-2.9,2.2-3,4.2c0,3.8,0.1,7.6,0,11.4
		c0,1.3,0.8,3.4-1.5,3.5c-2.4,0.1-1.7-2-1.8-3.3c-0.1-4.1-0.1-8.3,0-12.4C756.7,194,756.4,192.5,753.9,192.4z"/>
	<path fill="#FFFFFF" d="M124.2,185.5c-4,3.3-9.4,2.9-13.7,5.2c-1.8,0.9-3.1-1.5-3.9-3.1c-1-1.8,0.4-2.6,1.8-3.4
		C114.4,180.7,120.1,181.1,124.2,185.5z"/>
	<path fill="#FFFFFF" d="M93.1,204.6c3.7-1.5,11,0.1,13.6,2.9c1.3,1.3,1,2.4-0.2,3.3c-1.6,1.2-2.8,3.6-5.4,1.8
		c-1.5-1-2.8-2.4-4.8-1.9c-1.2,0.9-2.6,1.2-4,0.8c-1.8-0.9-3.2-2.2-2.8-4.5C89.8,205.1,91.5,204.9,93.1,204.6z"/>
	<path fill="#FFFFFF" d="M568.7,200.2c0-3,0-6,0-9c0-1.1-0.1-2.4,1.7-2.4c1.8,0,2.2,1,2.2,2.5c0,6,0,12,0,18c0,1.4-0.2,2.7-2.1,2.7
		c-2.1,0-1.8-1.5-1.8-2.8C568.7,206.2,568.7,203.2,568.7,200.2z"/>
	<path fill="#FFFFFF" d="M81.5,191.5c-2.1,0.1-3,1.8-4.3,3.1c-1.2,1.2-1.9,3.7-4.1,1.6c-1.8-1.7-3.3-3.8-1.4-6.5
		c0.4-0.5,0.8-1,1.3-1.5c2.4-2.3,5.4-5.4,8.4-4.2c2.2,0.9-0.3,4.9,0,7.6L81.5,191.5z"/>
	<path fill="#FFFFFF" d="M69.2,194.9c3,3.6,6.8,5.7,7.3,10.1c0.2,1.4,3.9,2.7,0.6,4.1c-2.2,0.9-5.3,1.7-7-1.4
		C68.1,203.8,67.4,199.7,69.2,194.9z"/>
	<path fill="#FFFFFF" d="M116.7,197.8c1.4-8.4,1.9-8.9,11.7-11.4C128.4,194.1,125.8,196.5,116.7,197.8z"/>
	<path fill="#FFFFFF" d="M122.4,203.7c-6.3,5.4-12.6,5.1-19-0.5c6.7-4.4,12.9-2.1,19.2,0.6L122.4,203.7z"/>
	<path fill="#FFFFFF" d="M94.1,190.9c-1.8-0.4-3.6-0.6-5.4-1.2c-1.5-0.5-4.4,1.3-4.2-1.6c0.2-2.8,1.8-5.5,5.5-5.1
		c3.4,0.3,6.4,1.6,9.1,3.7C99.9,190.9,97.2,191.1,94.1,190.9z"/>
	<path fill="#FFFFFF" d="M121.7,206.5c4.7-0.1,6.9,2.7,9.1,5.4c0.6,0.7,0.5,1.4-0.7,1.8c-2,0.6-4.5,2.6-5.6,1.9
		c-2.6-1.4-5.6-3.8-6.6-6.4C116.9,206.6,120.5,207,121.7,206.5z"/>
	<path fill="#FFFFFF" d="M112.4,217.2c-2.5-0.5-6.3,0.3-6.5-2.5c-0.1-1.6,2.7-4.8,6.3-5c3.8-0.2,6.8,1.9,6.8,4.8
		C118.9,217.4,114.9,216.7,112.4,217.2z"/>
	<path fill="#FFFFFF" d="M131.5,192.8c-0.6-4.6-0.4-8.4,4.9-9.4c1.4-0.3,3-3.3,4.2-0.3c0.9,2.3,1.9,5.3-1.7,6.7
		C136.4,190.7,134,191.7,131.5,192.8z"/>
	<path fill="#FFFFFF" d="M93.2,193.7c-0.3,0.3-0.7,0.7-1,1c-1.9,0.8-0.2,4.3-3.4,4.1c-3.4-0.2-7-0.6-9.4-2.7c-2.1-1.8,1.9-2.8,2-4.6
		l-0.1,0.2c2.5,0.1,5.1,0.1,7.6,0.2C90.3,192.5,92.4,191.7,93.2,193.7z"/>
	<path fill="#FFFFFF" d="M38,30.4c-3.4-4.2-3.5-7.7,1.6-10.3c1.3-0.7,2.9-3.3,3.9-1.5c1,1.9,3.1,4.7,0.2,7.1
		C41.8,27.3,39.9,28.9,38,30.4z"/>
	<path fill="#FFFFFF" d="M167.6,37.6c7.1-3.3,7.4-3.1,12.2,5.4C173.2,45.8,173.2,45.8,167.6,37.6z"/>
	<path fill="#FFFFFF" d="M80.4,8.9c-0.9-5.7,1.2-8.6,6.7-7.9c1.3,0.2,3.8-2,3.8,0.9c0,2.1,0,5.3-3.3,6C85.2,8.3,82.8,8.5,80.4,8.9z"
		/>
	<path fill="#FFFFFF" d="M8.7,82c-7.1-3.6-7.3-4.6-3.3-13.3C10.8,72.4,10.8,72.4,8.7,82z"/>
	<path fill="#FFFFFF" d="M47.2,23c-2.5-4.9-1.8-8.3,3.2-10.1c1.3-0.5,3-3,3.9-0.9c0.9,2,2.4,5.1-0.8,7.1
		C51.5,20.4,49.4,21.6,47.2,23z"/>
	<path fill="#FFFFFF" d="M29.3,39.2c-3.5-4.1-4.2-7.6,0.4-10.6c1.2-0.8,2.4-3.7,3.6-2.1c1.3,1.7,3.5,4.4,1.1,7.1
		C32.9,35.4,31.2,37.1,29.3,39.2z"/>
	<path fill="#FFFFFF" d="M24.1,35c3.9,6.2,3.9,6.2-2.3,13.6C16.8,42.2,16.8,42.2,24.1,35z"/>
	<path fill="#FFFFFF" d="M56.5,188.4c5.1-5.4,5.1-5.4,13.5-1.6C66,193.3,65.7,193.4,56.5,188.4z"/>
	<path fill="#FFFFFF" d="M171.8,33c-6.2,3.5-6.2,3.5-12.7-3.8C164.1,25.1,164.2,23.2,171.8,33z"/>
	<path fill="#FFFFFF" d="M187,54.2c-7.1,1.4-9.3,0.2-11.4-5.6c-0.3-0.7-0.8-1.9,0.3-2c2.3-0.1,4.8-2.6,6.8,0.4
		C184.2,49.1,185.4,51.4,187,54.2z"/>
	<path fill="#FFFFFF" d="M138.7,15.7c5.8-5.3,5.8-5.3,13.7,0.6C146.6,21.4,146.6,21.4,138.7,15.7z"/>
	<path fill="#FFFFFF" d="M122.5,203.9c-0.4-3.8,0.4-6.8,4.6-8.1c2.2-0.7,3.4-0.7,3.5,1.9c0.1,1.3,0.2,2.6,0.1,3.9
		c-0.4,3.5-1.7,5.8-5.7,3.2c-0.8-0.5-1.8-0.7-2.7-1C122.4,203.7,122.5,203.9,122.5,203.9z"/>
	<path fill="#FFFFFF" d="M78.2,2.6c-0.1,7,1.7,6.7-9.3,9.4C67.5,4.7,67.8,4.4,78.2,2.6z"/>
	<path fill="#FFFFFF" d="M6.1,132.1c7.8-0.2,7.8-0.2,10.6,8.9C9,141.9,9,141.9,6.1,132.1z"/>
	<path fill="#FFFFFF" d="M103.7,0.5C102,7.6,102,7.6,92.3,6.9C93.5-0.5,93.5-0.5,103.7,0.5z"/>
	<path fill="#FFFFFF" d="M39,169.2c-6.9,4.2-7,4.2-13.2-4C32.7,162.4,32.7,162.4,39,169.2z"/>
	<path fill="#FFFFFF" d="M127.7,11.6c2.3-4.5,5.1-7,9.8-3.7c1.2,0.8,4.2,0.8,3.2,2.6c-1,1.8-2.4,4.8-5.7,3.8
		C132.6,13.6,130.3,12.6,127.7,11.6z"/>
	<path fill="#FFFFFF" d="M48.6,176.3c-6.4,5.1-6.7,5-13.5-2.1C40.4,168.3,44.3,172.8,48.6,176.3z"/>
	<path fill="#FFFFFF" d="M8.7,117.9c-7.2-0.6-7.2-0.6-8-10.6C8,107.9,8,107.9,8.7,117.9z"/>
	<path fill="#FFFFFF" d="M149.3,21.7c6.1-4.6,6.1-4.6,13.5,2C157.1,28.3,157.1,28.3,149.3,21.7z"/>
	<path fill="#FFFFFF" d="M104.2,7c0.7-5.4,3.4-7.3,8.2-5.9c1.5,0.4,4.4-0.2,4,1.5c-0.5,2.2-1.3,5.5-4.8,5.4
		C109.2,7.9,106.7,7.4,104.2,7z"/>
	<path fill="#FFFFFF" d="M12,129.6c-7.8,0.2-7.8,0.2-9.4-9.6C9.8,120,9.3,118.4,12,129.6z"/>
	<path fill="#FFFFFF" d="M6.9,106c-7.5-1.7-7.5-1.7-6.4-11.8C7.2,96.5,7.5,93.9,6.9,106z"/>
	<path fill="#FFFFFF" d="M11.4,70.1c-6.5-4.2-6.6-4.9-1.3-13.2C15.8,61.8,15.8,61.8,11.4,70.1z"/>
	<path fill="#FFFFFF" d="M11.3,144.1c7.6-3.8,8.8,2.5,11.5,6.6C15.5,153.8,15.2,153.7,11.3,144.1z"/>
	<path fill="#FFFFFF" d="M173.9,163.3c-4-6.4-4-6.4,2.1-13.3C181,155.3,180.9,155.9,173.9,163.3z"/>
	<path fill="#FFFFFF" d="M115.9,8.5c3.9-7,4.5-7.2,13.1-3.2C125.4,11.6,126.7,11.4,115.9,8.5z"/>
	<path fill="#FFFFFF" d="M181,57.9c4.8-2.4,8.1-1.5,9.3,4c0.3,1.4,2.4,3.4,0,4.1c-1.8,0.6-4.7,1.6-6.2-1.4
		C183.1,62.4,182,60.2,181,57.9z"/>
	<path fill="#FFFFFF" d="M7.1,93.9c-5.2-0.6-7.4-3.1-6-8.1c0.4-1.5-0.3-4.5,1.9-4c2.1,0.4,5.5,1.3,5.1,5C7.8,89,7.5,91.3,7.1,93.9z"
		/>
	<path fill="#FFFFFF" d="M143.7,187.2c-1.2-7.8-1.2-7.8,7-11.4C153.3,183,153.3,183,143.7,187.2z"/>
	<path fill="#FFFFFF" d="M45.5,182c5.1-4.7,5.1-4.7,13.3-0.1C54.7,188.4,53.6,188.4,45.5,182z"/>
	<path fill="#FFFFFF" d="M30.2,160.8c-7.1,3.1-7.1,3.1-12.2-5.4C25.1,152.6,25.1,152.6,30.2,160.8z"/>
	<path fill="#FFFFFF" d="M186,68.7c7.4-0.6,7.8-0.3,8.9,9.5C188,78.3,188,78.3,186,68.7z"/>
	<path fill="#FFFFFF" d="M16.3,45.5c6.5,4.4,2.8,8.7,0.1,13C10.1,55.2,10.1,53.4,16.3,45.5z"/>
	<path fill="#FFFFFF" d="M160,168.4c3.9,6.2,3.6,6.8-4.9,11.9C152.4,173.4,152.4,173.4,160,168.4z"/>
	<path fill="#FFFFFF" d="M86.3,207c-2.8-0.7-6.4,0.4-7.9-3.5c-0.8-2-0.5-2.8,1.6-2.8c4.2,0,8.5-0.8,12.3,2
		C90.8,204.8,89.9,207.8,86.3,207z"/>
	<path fill="#FFFFFF" d="M57.7,16.8c-1.9-4.8-1.3-8.3,4.1-9.4c1.4-0.3,3.4-2.6,4.1-0.4c0.7,2.1,1.6,5.3-1.7,6.9
		C62.2,14.9,60.1,15.8,57.7,16.8z"/>
	<path fill="#FFFFFF" d="M189.7,116.3c5.8,3.2,6.6,5.7,3.7,11.7c-0.4,0.8-0.7,1.7-1.6,0.9c-1.6-1.4-4.9-1.7-4.2-4.7
		C188.1,121.7,188,118.7,189.7,116.3z"/>
	<path fill="#FFFFFF" d="M181.9,139.4c5.7,4.6,5.7,4.7,0,13.2C176.4,148,176.4,148,181.9,139.4z"/>
	<path fill="#FFFFFF" d="M187.8,141.5c-3.8-2.7-5.9-5.4-3-9.7c1.2-1.7,2.1-3,4.3-2.2c2.2,0.9,3,2.8,2.1,4.9
		C190.4,136.8,189.1,139,187.8,141.5z"/>
	<path fill="#FFFFFF" d="M190.6,104.4c6.7,2.3,7.9,4.9,5.7,11c-0.3,0.9-0.7,1.8-1.6,1.2c-1.7-1.2-4.8-1.2-4.6-4.4
		C190.2,109.8,190.4,107.3,190.6,104.4z"/>
	<path fill="#FFFFFF" d="M197.1,103.9c-6.3-1.4-7.1-2.7-6.2-11.5C198.2,93.8,198.2,93.8,197.1,103.9z"/>
	<path fill="#FFFFFF" d="M168.8,159.8c4.2,6.1,4,6.7-3.9,12.5C161.5,165.3,161.5,165.3,168.8,159.8z"/>
	<path fill="#FFFFFF" d="M196.1,91.1c-5,0.3-6.2-2.9-6.5-6.7c-0.1-1.3-1.6-3.6,1.3-3.8c2.2-0.2,4.9-0.4,5.5,2.8
		C196.7,85.9,196.7,88.5,196.1,91.1z"/>
	<path fill="#FFFFFF" d="M84.1,216.5c-4.1,0.7-7.1-1.4-10.8-4.4c5.2-0.2,9-3.6,13.8-2C88.4,213.3,88.2,215.8,84.1,216.5z"/>
	<path fill="#FFFFFF" d="M104.2,196.7c1-1,2-2,3.1-3c2.7,0.4,4.9-1.4,7.9-1.5c-0.1,3,0.2,6.1-3.3,6.9
		C109.1,199.6,105.6,201,104.2,196.7z"/>
	<path fill="#FFFFFF" d="M93.4,209.7c0.9,0.3,1.9,0.7,2.8,1c1,1.2,2.9,2.1,0.1,3.7c-2.9,1.7-5.8,3-9.1,3.2
		C86.4,211.4,88.4,208.9,93.4,209.7z"/>
	<path fill="#FFFFFF" d="M59.8,212.3c2-2.1,3.2-3.6,4.7-4.9c1.1-1,3.1-2,3.4,0.2c0.3,2.2,5.3,3.3,1.5,6.4c-1.2,1-2.2,1.3-3.3,0.2
		C64.6,212.7,62.6,212.6,59.8,212.3z"/>
	<path fill="#FFFFFF" d="M93.4,209.7c-6.3-0.7-4.3,5.1-6.1,7.9c-1.2-0.1-2.3-0.5-3.3-1.3c1.7-1.8,2.8-3.9,3-6.4
		c0.6-1.2,0.2-2.2-0.8-3c2.9-0.1,3.8-3.1,5.9-4.3c0.3,0.6,0.6,1.3,0.9,1.9C89.9,206.6,90.4,208.2,93.4,209.7z"/>
	<path fill="#FFFFFF" d="M134.4,220.7c-0.8,0-1.8-0.3-2.4,0c-2.5,1.6-4.4,0.5-5-1.8c-0.6-2.3,1.7-2.9,3.4-3.1
		c2.5-0.4,4.2,0.5,3.8,3.5c-0.1,0.5,0,1,0,1.5L134.4,220.7z"/>
	<path fill="#FFFFFF" d="M65.6,217.3c-0.8,1.5-1.8,3.1-3.5,3c-2.3-0.1-3.6-2.4-4.1-4.1c-0.5-1.6,1.7-1.6,2.9-1.6
		C62.9,214.5,64.7,215.1,65.6,217.3z"/>
	<path fill="#FFFFFF" d="M54.6,219.1c2,1,4.5,1.2,4.5,4c0,1.6-0.9,3.7-2.1,3.2c-2.2-0.8-4-2.9-4.6-5.3
		C52.1,219.9,53.7,219.4,54.6,219.1z"/>
	<path fill="#FFFFFF" d="M134.3,220.9c1.7,0.2,3.8-0.8,5,1.1c1.2,2-1.2,2.7-2,4c-0.6,1-1.5,2.7-3,1.7c-1.5-1-1.9-2.5-0.4-4.1
		c0.5-0.6,0.4-1.9,0.5-2.8C134.4,220.7,134.3,220.9,134.3,220.9z"/>
	<path fill="#FFFFFF" d="M570.7,182.6c-1.7-0.1-2.8-1-2.9-2.7c-0.1-1.7,0.4-3,2.4-3.1c1.7-0.2,3,0.4,3.3,2.2
		C573.6,180.8,572.5,181.9,570.7,182.6z"/>
	<path fill="#FFFFFF" d="M107.2,193.7c-0.3-5-2.6-6.9-5.9-4.9c-1.8,3.1-5.7,2.7-8.1,4.9c-0.3-0.1-0.5-0.2-0.8-0.3
		c-0.2,0.4-0.3,0.9-0.2,1.4c-0.7,3.3,1,4.3,4,4.3c2.9,0,5.3-1.4,8-2.2C106.7,197.2,107.7,196.2,107.2,193.7z"/>
	<path fill="#FFFFFF" d="M623.6,189.2c-1.8,2.3-2.8,0.7-4.3,0c-2-0.8-4-1.3-6.3-0.8c-4.8,1-7.6,4-8.8,8.5c-1.3,5-0.4,9.7,3.6,13.2
		c3.6,3.2,7.7,3.4,12,1.3c0.8-0.4,1.5-1.4,2.8-0.6c0.1,3.9-0.3,7.8-4.6,9.3c-4.1,1.5-7.6,0.3-9.3-4.1c-0.7-2-1.9-2.9-3.7-2.1
		c-2,0.9-0.6,2.7-0.2,3.9c0.9,3.5,4,5.1,6.9,6.8c2.7,0,5.3,0,8,0c3.2-2.6,6.7-5.1,6.9-9.7c0.2-8,0.1-16,0.1-24
		C626.7,188.6,624.5,188,623.6,189.2z M615.2,208.7c-4-0.1-7.4-4.1-7.2-8.6c0.2-4.5,3.4-7.7,7.5-7.6c4.2,0.1,7.2,3.4,7.2,7.9
		C622.7,205.1,619.4,208.8,615.2,208.7z"/>
	<path fill="#FFFFFF" d="M514.9,33.5c-38.7,0.1-65.4,27.3-65.3,66.4c0.1,38.7,27,65.6,65.5,65.5c39.5-0.1,66.5-27.1,66.3-66.5
		C581.2,59.4,554.7,33.3,514.9,33.5z M551.7,119.6c-5.9,15.8-19.3,25-36.1,25c-17.3,0-30.8-9.3-36.6-25.7
		c-4.5-12.6-4.8-25.5-0.9-38.3c5.5-18.3,20.2-28.8,38.8-28.3c17.7,0.5,32.1,12.4,36.7,30.6C556.7,95.3,556.2,107.6,551.7,119.6z"/>
	<path fill="#FFFFFF" d="M84.7,111.1c-1.7-11.4-5.7-22-13-31c-5.8-7.1-13-11.9-23.4-11.8c-1.9-0.3-4.5,0.5-7,1.3
		C31.1,73,24,83.7,24.6,94.5c0.7,11.3,7.6,20.1,17.5,22.3c3.9,0.9,6.3,1,5.8-4.4c-0.5-5,2-9.1,7-10.9s9.2-0.1,12.5,3.7
		c1.4,1.6,3.1,3.5,3.4,5.4c1,5.7,4.6,5.4,8.8,4.5c0.8-0.2,1.6-0.4,2.5-0.4C84.7,114.6,85,113.4,84.7,111.1z M42,95.7
		c-0.6-3.9-2.2-5.8-6.6-5.1c2.7-2.3,6.1-3.3,4.1-7.3c2.6,1.6,4.6,3,8.4,0c-2.1,4-1.5,6.3,1.2,8.7C45.8,92.2,42.5,90.9,42,95.7z"/>
	<path fill="#FFFFFF" d="M173.2,92c-1.5-14-11.4-23.6-24.4-23.7c-5.7-0.1-10.9,1.6-15.3,5c-12.3,9.5-17.7,22.9-20.1,37.8
		c-0.2,1.1-0.7,3,1.2,3.3c3.1,0.5,6.3,1.3,9.4,1c2.4-0.2,1.9-3.5,3.1-5.2c1.1-1.5,1.8-3.2,2.9-4.6c3.5-4.4,8-5.8,12.8-4.2
		c4.4,1.5,7.7,5.9,7.4,11.2c-0.3,4.9,1.9,5,5.7,4.1C166.5,114.3,174.4,103.1,173.2,92z M156.2,95.4c-2-2.4-3.2-5.1-7-3.9
		c2.9-2.4,3-4.6,0.2-7.4c3.5,0.2,6.2,3.4,8.2-1.5c0.4,3.8,1.2,6.4,4.5,7.5C158.4,89.8,156.9,91.9,156.2,95.4z"/>
	<path fill="#FFFFFF" d="M711.7,196c-2.3-3-2.9-5-2-8.9c1.9-7.9-2.9-11.9-12.5-12.3c-4-0.1-5.6,0.8-5.4,5.1
		c0.4,8.3,0.1,16.8,0.1,25.1c0.1,7.7-1.2,6.9,8.1,7c0.9-0.1,3.1,0,5.2-0.4C712.7,210.1,716.3,202.2,711.7,196z M699.1,179.3
		c4.5,0.1,6.8,1.9,6.7,5.9c-0.1,4.3-2.7,5.5-6.5,5.6c-5.2,0.2-2.5-3.8-3.5-5.7C696.6,182.9,694.4,179.3,699.1,179.3z M700.3,207.9
		c-6.4,0.5-3.7-4.2-4.4-6.9c0.6-2.3-1.6-6.1,3.5-6c5.8,0.1,10.1,2.8,10,6.6C709.3,205.4,705.8,207.5,700.3,207.9z"/>
	<path fill="#FFFFFF" d="M123.8,118.8c-3.8-0.9-7.8-1.5-11.8-1.8c-13-1-25.9-1-38.7,2c-1.9,0.5-4.9,0.6-4.8,3.4
		c0.1,2.3,2.8,2.5,4.6,3c8.4,2.5,17.1,2.1,25.8,2.9c8.3-0.9,16.8-0.4,25.1-2.8c2-0.6,5-0.7,5-3.2
		C129.3,119.3,125.9,119.3,123.8,118.8z M75,122.2c16-2.5,32-2.4,48,0C107,125.1,91,125,75,122.2z"/>
	<path fill="#FFFFFF" d="M947.5,175c0-1.6,0.4-3.5-2.3-3.4c-2.4,0.1-1.9,1.9-1.9,3.3c0,5.1,0,10.2,0,15.9c-1.2-0.6-1.8-0.9-2.3-1.1
		c-5.7-2.6-10.5-1.7-13.8,2.5c-3.6,4.6-3.6,11.5,0,16.3c3.2,4.2,7.9,5.2,13.4,3c0.9-0.4,1.4-1.5,3-0.4c2.9,2.1,4.1,0.6,4.1-2.6
		C947.5,197.4,947.5,186.3,947.5,175z M935.9,208.7c-3.9-0.1-7-3.6-7-8.1c-0.1-4.9,2.9-8.2,7.3-8.1c4.3,0.1,6.9,3,6.9,7.9
		C943.3,205.2,940.2,208.8,935.9,208.7z"/>
	<path fill="#FFFFFF" d="M549.5,205.6c0.2-1.6,0-3.3,0-5c0-3-0.1-6,0-9c0.1-3-2.1-3.9-3.7-2.5c-2.1,1.8-3.1,0.4-4.6-0.2
		c-4.6-1.8-9.6-0.4-12.5,3.3c-3.3,4.2-3.3,11.6-0.2,16c3,4.2,7.9,5.6,12.8,3.7c0.9-0.4,2.1-1.4,2.6-1.1
		C551.2,214.9,549.2,208.9,549.5,205.6z M538,208.7c-3.9,0.1-7.1-3.3-7.3-7.8c-0.2-4.8,2.8-8.3,7.1-8.4c4.4,0,7.2,2.9,7.3,7.6
		C545.2,204.8,542.1,208.5,538,208.7z"/>
	<path fill="#FFFFFF" d="M774.3,201.7c1.5-0.1,3,0,4.5,0c1.8,0,3.7-0.1,5.5,0c3.9,0.4,4-1.6,3.3-4.6c-1.5-5.6-5.1-8.9-10.4-9
		c-5-0.1-9.6,3.4-11,8.4c-1.6,5.8,0.8,12.3,5.3,14.9c4.4,2.5,10.9,1.5,14.2-2.2c0.9-1,2.5-2.2,1-3.8c-1.4-1.3-2.5-1.1-4,0.6
		c-2.9,3.3-6.5,3.8-10.1,0.8c-1.3-1.1-2.6-2.6-2.1-4.2C770.9,200.8,772.9,201.8,774.3,201.7z M782,195.1c1.2,1.7,1.2,2.7-1.2,2.7
		c-3.3,0-6.6,0-10.5,0C773.9,191.8,779.1,190.9,782,195.1z"/>
	<path fill="#FFFFFF" d="M508,201.6c4,0.1,8-0.1,12,0c2.7,0.1,3.5-0.9,3.1-3.6c-0.9-6.2-5.8-10.4-11.6-10c-6.6,0.5-10.9,6-10.5,13.3
		c0.4,6.8,4.9,11.3,11.4,11.3c3.2,0.1,5.9-1,8.1-3.2c1-1,3.2-2.1,1.5-4c-1.7-2-2.9-0.6-4.4,0.8c-3.9,3.7-9.1,2.8-11.2-1.5
		C505.3,202.8,505.3,201.6,508,201.6z M511.8,192.5c3.2-0.1,5.2,1.5,6.6,4.9c-4.3,0-8.3,0-12.6,0
		C506.7,194.2,508.6,192.6,511.8,192.5z"/>
	<path fill="#FFFFFF" d="M733.6,206.5c-3.8,3.3-8.6,2.6-11-1.6c-1.3-2.2-1-3.4,1.8-3.4c3.5,0.1,7-0.3,10.5,0.1c4,0.4,4.4-1.6,4-4.7
		c-0.7-5.1-5.7-9.2-11-8.9c-6.3,0.4-10.2,5-10.2,12.8c-0.6,4.7,1.4,8.7,6.2,10.8c4.5,2,8.9,1.4,12.5-2.1c1.1-1.1,3.7-2.1,1.7-4.3
		C736.2,203.2,735.1,205.4,733.6,206.5z M728.5,192.5c3-0.1,6.1,1.7,5.8,4.2c-0.4,2.6-4,0.2-5.8,1.4c-2.1-1-5.5,1-5.7-1.4
		C722.4,193.8,725.6,192.6,728.5,192.5z"/>
	<path fill="#FFFFFF" d="M669.9,200.5c0-3-0.1-6,0-9c0.1-2.2-1.6-3.7-2.9-2.4c-2.1,2.1-3.2,0.8-4.9,0c-4.3-1.9-9.3-0.7-12.2,2.7
		c-3.7,4.4-4.1,10.8-1,15.9c2.4,3.9,7.3,6,11.7,4.7c2.3-0.6,4.3-2.5,7.1-0.6c1.3,0.9,2.1-0.8,2.1-2.4
		C669.9,206.4,669.9,203.5,669.9,200.5z M658.5,208.7c-3.7-0.1-7.2-4.1-7.2-8.2c0-4.7,3.3-8.1,7.6-8c4.2,0.1,7.1,3.3,7,7.9
		C665.8,205.2,662.6,208.8,658.5,208.7z"/>
	<path fill="#FFFFFF" d="M882.2,188.1c-6.7-0.1-12.3,5.6-12.2,12.5c0.1,7,5.5,12.3,12.4,12.2c6.8-0.1,11.6-5.3,11.6-12.3
		C894,193.6,888.8,188.2,882.2,188.1z M882,208.7c-4.1-0.1-7.9-4-7.9-8.1c0-4.6,3.7-8.2,8.3-8.1c4.4,0.1,7.7,3.7,7.6,8.2
		C889.8,205.1,886.2,208.8,882,208.7z"/>
	<g>
		<path fill="#FFFFFF" d="M969.6,33.2c-6.3-0.1-11.2,4.8-11.1,10.9c0.1,5.9,4.9,10.5,11,10.4c6.3,0,10.5-4.3,10.5-10.6
			C980.2,37.6,975.9,33.2,969.6,33.2z M975.2,50.3l-0.1-0.1c-4.4,3.2-9.1,3-12.2-0.7c-3-3.7-2.5-8.3,1.4-12.2
			c0.1-0.1,0.3-0.2,0.4-0.3c4.6-2.8,8.3-2.4,11.4,1.3c3.1,3.6,2.7,7.7-1,11.8C975.1,50.2,975.2,50.3,975.2,50.3z"/>
	</g>
	<path fill="#FFFFFF" d="M974,42.8c1.6-1.9,0.3-4.6-2.6-5.1c-1.9-0.3-3.9-0.2-5.9-0.3c-0.5,4.3-0.7,8.5,0.2,13
		c2.8-1.4,0.8-4.1,3.1-5.2c2.4,1.2,2.4,5.8,6.4,5C973.8,48,971.2,46.2,974,42.8z M969.5,43.1c-1.1,0.1-1.9-0.3-1.9-1.6
		c0.1-1.5,1-1.9,2.4-1.8c0.9,0.2,2,0.3,2,1.6C971.9,42.8,970.7,43,969.5,43.1z"/>
</g>
</svg>
