<?xml version="1.0" encoding="utf-8"?>
<!-- Generator: Adobe Illustrator 23.0.0, SVG Export Plug-In . SVG Version: 6.00 Build 0)  -->
<svg version="1.1" id="Layer_1" xmlns="http://www.w3.org/2000/svg" xmlns:xlink="http://www.w3.org/1999/xlink" x="0px" y="0px"
	 viewBox="0 0 980 228" style="enable-background:new 0 0 980 228;" xml:space="preserve">
<style type="text/css">
	.st0{fill:#95008F;}
</style>
<g>
	<path class="st0" d="M607.7,81.3c0-13.5,0.2-27.1-0.1-40.6c-0.1-3.9,1.1-4.8,4.8-4.6c4.8,0.3,9.7,0.3,14.5,0
		c4.1-0.3,5.4,0.9,5.3,5.2c-0.2,24.4-0.1,48.8-0.1,73.2c0,2.3,0.1,4.7,0.4,7c1.8,13.4,10.2,21.7,23.7,23c5.3,0.5,10.7,0.5,15.9-1
		c14.5-4.3,19.1-12.9,19.4-28.3c0.4-24.6,0.2-49.2,0-73.7c0-4.5,1.2-5.7,5.5-5.4c5,0.4,10,0.2,15,0.1c2.4-0.1,3.6,0.4,3.6,3.2
		c-0.1,26.6,0.6,53.2-0.3,79.7c-0.9,26.6-18.2,43-45,45.6c-10.2,1-20.3,0.6-30.1-2.1c-20-5.6-31.9-20.8-32.4-41.6
		C607.5,107.7,607.8,94.6,607.7,81.3C607.8,81.3,607.7,81.3,607.7,81.3z"/>
	<path class="st0" d="M907,33.2c12.7-0.4,23.7,2.6,34.2,8.3c3,1.6,3.6,3.2,1.7,6.2c-2.5,3.7-3.7,9.3-7,11.2s-7.3-3-11.2-4.5
		c-8.4-3.2-16.8-4.1-25.2-0.4c-11.5,5-12.9,17-2.9,24.6c6.2,4.7,13.6,6.8,20.6,9.9c4.1,1.9,8.2,3.7,12.1,6
		c13.5,7.7,19.7,19.8,18.6,35s-9.7,25.8-23.7,31.3c-21.9,8.5-43.1,4.6-63.7-5.2c-1.8-0.8-2.1-1.9-1.2-3.5c2.5-4.5,5.1-9,7.4-13.6
		c1.2-2.3,2.4-2.1,4.4-1c6.8,3.5,13.8,6.5,21.5,7.7c7.1,1.1,14,0.5,20.3-3.2c10.1-5.9,11.5-18.1,3.2-26.2c-4.1-4-9.2-6.5-14.3-8.9
		c-6.5-3-13.2-5.4-19.3-9.2c-13.8-8.5-19.6-21.2-17-37c2.2-13.2,12.9-23.3,28-26.4C898.1,33.3,902.9,33,907,33.2z"/>
	<path class="st0" d="M267.4,33.2c12.9-0.4,24.2,2.5,34.7,8.4c2.6,1.4,3.7,2.7,1.7,5.6c-2.6,3.9-3.7,9.7-7.2,11.6
		c-3.4,2-7.5-3.2-11.6-4.7c-9.2-3.3-18.2-4-27,0.9c-9,5.1-10.1,14.9-2.4,22c4.2,3.9,9.5,6,14.7,8.2c5.5,2.4,11.1,4.5,16.4,7.2
		c16.1,8.1,23.1,20.9,21.6,38.6c-1.2,14.1-12.1,26.6-28,31.2c-20.4,5.9-39.8,2.3-58.7-6.5c-2.6-1.2-2.5-2.5-1.3-4.6
		c2.3-4,4.7-8.1,6.7-12.2c1.3-2.7,2.6-2.7,5-1.4c6.6,3.5,13.6,6.3,21,7.5c6.9,1.2,13.6,0.5,19.9-2.9c11.3-6,12.5-19.7,2.5-27.8
		c-7-5.6-15.3-8.6-23.3-12.1c-5.2-2.3-10.3-4.8-14.6-8.5c-11.2-9.4-13.8-21.8-10.6-35.5c3.3-14.2,14.1-20.7,27.3-23.9
		C258.9,33.2,263.5,33,267.4,33.2z"/>
	<path class="st0" d="M330.3,99.6c0.4-39.6,27.4-66.2,67.2-66.4c11.9-0.1,22.6,3.2,33,8.3c2.6,1.3,3.7,2.7,1.6,5.2
		c-0.2,0.3-0.3,0.6-0.5,0.9c-2.1,3.6-3.3,8.4-6.4,10.5c-3.5,2.4-7.2-2.2-11.1-3.2c-30-8-57.1,9.9-57.7,42
		c-0.3,15,3.7,28.5,15.5,38.5c13.2,11.2,33.5,12.6,49.7,3.6c3.7-2.1,5.3-1.7,6.9,2.1s3.7,7.4,5.8,11c1.2,2,1,3.1-1.2,4.3
		c-24.4,12.5-60.3,12.9-82.3-6.6C337.3,137.6,330.1,120.3,330.3,99.6z"/>
	<path class="st0" d="M851.3,36.2c-3.6,6.3-6.7,11.6-9.6,17.1c-1.2,2.2-3,2.3-5,2.3c-9.3,0-18.7,0.2-28-0.1c-4.1-0.1-5,1.4-4.9,5.1
		c0.1,32.1,0,64.2,0.2,96.3c0,4.7-1.4,6-5.9,5.7c-4.5-0.4-9-0.3-13.5,0c-3.7,0.2-4.9-0.9-4.8-4.7c0.2-12.8,0.1-25.8,0.1-38.6
		c0-19.6-0.1-39.1,0.1-58.7c0-3.8-0.9-5.3-5-5.1c-9.8,0.3-19.7,0-29.5,0.2c-3.3,0.1-5-0.6-4.6-4.3c0.4-4.8-1.9-11,0.9-14
		c2.9-3.1,9.1-0.9,13.9-1c29.8-0.1,59.8-0.1,89.6-0.1C846.8,36.2,848.6,36.2,851.3,36.2z"/>
	<path class="st0" d="M99.4,58.9c-2,16.3-2.4,32.5-2.3,48.9c0,5.4-3,7.7-8.2,6.4c-0.9-0.2-1.5-0.7-1.6-1.6
		C85.9,99.8,79.4,89,74.9,77.3c-7.4-18.9-3.5-33.1,12.3-45.5c3.1-2.5,6.3-5,9.1-7.8c2.1-2.1,3.3-1.7,5.2,0.2
		c3.2,3.1,6.7,5.9,10.3,8.7c13.2,10.4,17.8,24.7,12.3,40.5c-2.5,7.4-6,14.4-8.9,21.8c-2,4.8-3.9,9.7-4.2,14.8
		c-0.4,5.7-4.1,3.6-7.1,3.8c-3.8,0.3-3.3-2.1-3.3-4.5c-0.1-13.7-0.2-27.4-0.4-41.1C100.1,65.1,99.7,62,99.4,58.9z"/>
	<path class="st0" d="M98.2,151.2c2.9-5.6,1.8-10.8,2.1-15.9c0.1-2.7,0.3-5.2,3.9-4.8c2.8,0.3,6.4-1.7,7,3.6s3,10.2,6,14.6
		c1.8,2.5,1.5,4.4-0.2,6.7c-2.5,3.4-5,6.6-8.3,9.2c-9.2,7.4-11.3,7.4-20.3-0.3c-1.4-1.2-2.7-2.5-3.9-3.8c-6.2-7-6.2-7-2.1-15.3
		c1.9-3.7,3.5-7.6,4.1-11.7c0.7-4.9,4.4-2.7,6.9-3c2.9-0.4,3.6,1.4,3.7,4C97.5,139.9,97.9,145.2,98.2,151.2z"/>
	<path class="st0" d="M56.2,139.3c10.6,1.5,11.9,0.9,17.3-9c1.8-3.3,4.1-0.4,6.2-0.7c4.7-0.6,5.8,1.7,4.2,5.9
		c-1.4,3.6-2.7,7.2-5,10.3c-3.7,5-8.2,6.9-13.4,5.6C60.5,150.1,57.1,145.8,56.2,139.3z"/>
	<path class="st0" d="M141.4,139.3c-0.5,5.7-3.9,10.3-8.8,11.9c-4.9,1.5-9.5-0.2-13.1-4.8c-2.8-3.6-4.5-7.7-5.8-12
		c-1-3.1,0.1-4.3,3.4-4.8c4.3-0.6,7-0.5,8.9,4.5C128.1,139.4,132.4,140.3,141.4,139.3z"/>
	<path class="st0" d="M124.2,185.5c-4,3.3-9.4,2.9-13.7,5.2c-1.8,0.9-3.1-1.5-3.9-3.1c-1-1.8,0.4-2.6,1.8-3.4
		C114.4,180.7,120.1,181.1,124.2,185.5z"/>
	<path class="st0" d="M93.1,204.6c3.7-1.5,11,0.1,13.6,2.9c1.3,1.3,1,2.4-0.2,3.3c-1.6,1.2-2.8,3.6-5.4,1.8c-1.5-1-2.8-2.4-4.8-1.9
		c-1.2,0.9-2.6,1.2-4,0.8c-1.8-0.9-3.2-2.2-2.8-4.5C89.8,205.1,91.5,204.9,93.1,204.6z"/>
	<path class="st0" d="M81.5,191.5c-2.1,0.1-3,1.8-4.3,3.1c-1.2,1.2-1.9,3.7-4.1,1.6c-1.8-1.7-3.3-3.8-1.4-6.5c0.4-0.5,0.8-1,1.3-1.5
		c2.4-2.3,5.4-5.4,8.4-4.2c2.2,0.9-0.3,4.9,0,7.6L81.5,191.5z"/>
	<path class="st0" d="M69.2,194.9c3,3.6,6.8,5.7,7.3,10.1c0.2,1.4,3.9,2.7,0.6,4.1c-2.2,0.9-5.3,1.7-7-1.4
		C68.1,203.8,67.4,199.7,69.2,194.9z"/>
	<path class="st0" d="M116.7,197.8c1.4-8.4,1.9-8.9,11.7-11.4C128.4,194.1,125.8,196.5,116.7,197.8z"/>
	<path class="st0" d="M122.4,203.7c-6.3,5.4-12.6,5.1-19-0.5c6.7-4.4,12.9-2.1,19.2,0.6L122.4,203.7z"/>
	<path class="st0" d="M94.1,190.9c-1.8-0.4-3.6-0.6-5.4-1.2c-1.5-0.5-4.4,1.3-4.2-1.6c0.2-2.8,1.8-5.5,5.5-5.1
		c3.4,0.3,6.4,1.6,9.1,3.7C99.9,190.9,97.2,191.1,94.1,190.9z"/>
	<path class="st0" d="M121.7,206.5c4.7-0.1,6.9,2.7,9.1,5.4c0.6,0.7,0.5,1.4-0.7,1.8c-2,0.6-4.5,2.6-5.6,1.9
		c-2.6-1.4-5.6-3.8-6.6-6.4C116.9,206.6,120.5,207,121.7,206.5z"/>
	<path class="st0" d="M112.4,217.2c-2.5-0.5-6.3,0.3-6.5-2.5c-0.1-1.6,2.7-4.8,6.3-5c3.8-0.2,6.8,1.9,6.8,4.8
		C118.9,217.4,114.9,216.7,112.4,217.2z"/>
	<path class="st0" d="M131.5,192.8c-0.6-4.6-0.4-8.4,4.9-9.4c1.4-0.3,3-3.3,4.2-0.3c0.9,2.3,1.9,5.3-1.7,6.7
		C136.4,190.7,134,191.7,131.5,192.8z"/>
	<path class="st0" d="M93.2,193.7c-0.3,0.3-0.7,0.7-1,1c-1.9,0.8-0.2,4.3-3.4,4.1c-3.4-0.2-7-0.6-9.4-2.7c-2.1-1.8,1.9-2.8,2-4.6
		l-0.1,0.2c2.5,0.1,5.1,0.1,7.6,0.2C90.3,192.5,92.4,191.7,93.2,193.7z"/>
	<path class="st0" d="M38,30.4c-3.4-4.2-3.5-7.7,1.6-10.3c1.3-0.7,2.9-3.3,3.9-1.5c1,1.9,3.1,4.7,0.2,7.1
		C41.8,27.3,39.9,28.9,38,30.4z"/>
	<path class="st0" d="M167.6,37.6c7.1-3.3,7.4-3.1,12.2,5.4C173.2,45.8,173.2,45.8,167.6,37.6z"/>
	<path class="st0" d="M80.4,8.9c-0.9-5.7,1.2-8.6,6.7-7.9c1.3,0.2,3.8-2,3.8,0.9c0,2.1,0,5.3-3.3,6C85.2,8.3,82.8,8.5,80.4,8.9z"/>
	<path class="st0" d="M8.7,82c-7.1-3.6-7.3-4.6-3.3-13.3C10.8,72.4,10.8,72.4,8.7,82z"/>
	<path class="st0" d="M47.2,23c-2.5-4.9-1.8-8.3,3.2-10.1c1.3-0.5,3-3,3.9-0.9c0.9,2,2.4,5.1-0.8,7.1C51.5,20.4,49.4,21.6,47.2,23z"
		/>
	<path class="st0" d="M29.3,39.2c-3.5-4.1-4.2-7.6,0.4-10.6c1.2-0.8,2.4-3.7,3.6-2.1c1.3,1.7,3.5,4.4,1.1,7.1
		C32.9,35.4,31.2,37.1,29.3,39.2z"/>
	<path class="st0" d="M24.1,35c3.9,6.2,3.9,6.2-2.3,13.6C16.8,42.2,16.8,42.2,24.1,35z"/>
	<path class="st0" d="M56.5,188.4c5.1-5.4,5.1-5.4,13.5-1.6C66,193.3,65.7,193.4,56.5,188.4z"/>
	<path class="st0" d="M171.8,33c-6.2,3.5-6.2,3.5-12.7-3.8C164.1,25.1,164.2,23.2,171.8,33z"/>
	<path class="st0" d="M187,54.2c-7.1,1.4-9.3,0.2-11.4-5.6c-0.3-0.7-0.8-1.9,0.3-2c2.3-0.1,4.8-2.6,6.8,0.4
		C184.2,49.1,185.4,51.4,187,54.2z"/>
	<path class="st0" d="M138.7,15.7c5.8-5.3,5.8-5.3,13.7,0.6C146.6,21.4,146.6,21.4,138.7,15.7z"/>
	<path class="st0" d="M122.5,203.9c-0.4-3.8,0.4-6.8,4.6-8.1c2.2-0.7,3.4-0.7,3.5,1.9c0.1,1.3,0.2,2.6,0.1,3.9
		c-0.4,3.5-1.7,5.8-5.7,3.2c-0.8-0.5-1.8-0.7-2.7-1C122.4,203.7,122.5,203.9,122.5,203.9z"/>
	<path class="st0" d="M78.2,2.6c-0.1,7,1.7,6.7-9.3,9.4C67.5,4.7,67.8,4.4,78.2,2.6z"/>
	<path class="st0" d="M6.1,132.1c7.8-0.2,7.8-0.2,10.6,8.9C9,141.9,9,141.9,6.1,132.1z"/>
	<path class="st0" d="M103.7,0.5C102,7.6,102,7.6,92.3,6.9C93.5-0.5,93.5-0.5,103.7,0.5z"/>
	<path class="st0" d="M39,169.2c-6.9,4.2-7,4.2-13.2-4C32.7,162.4,32.7,162.4,39,169.2z"/>
	<path class="st0" d="M127.7,11.6c2.3-4.5,5.1-7,9.8-3.7c1.2,0.8,4.2,0.8,3.2,2.6s-2.4,4.8-5.7,3.8
		C132.6,13.6,130.3,12.6,127.7,11.6z"/>
	<path class="st0" d="M48.6,176.3c-6.4,5.1-6.7,5-13.5-2.1C40.4,168.3,44.3,172.8,48.6,176.3z"/>
	<path class="st0" d="M8.7,117.9c-7.2-0.6-7.2-0.6-8-10.6C8,107.9,8,107.9,8.7,117.9z"/>
	<path class="st0" d="M149.3,21.7c6.1-4.6,6.1-4.6,13.5,2C157.1,28.3,157.1,28.3,149.3,21.7z"/>
	<path class="st0" d="M104.2,7c0.7-5.4,3.4-7.3,8.2-5.9c1.5,0.4,4.4-0.2,4,1.5c-0.5,2.2-1.3,5.5-4.8,5.4
		C109.2,7.9,106.7,7.4,104.2,7z"/>
	<path class="st0" d="M12,129.6c-7.8,0.2-7.8,0.2-9.4-9.6C9.8,120,9.3,118.4,12,129.6z"/>
	<path class="st0" d="M6.9,106c-7.5-1.7-7.5-1.7-6.4-11.8C7.2,96.5,7.5,93.9,6.9,106z"/>
	<path class="st0" d="M11.4,70.1c-6.5-4.2-6.6-4.9-1.3-13.2C15.8,61.8,15.8,61.8,11.4,70.1z"/>
	<path class="st0" d="M11.3,144.1c7.6-3.8,8.8,2.5,11.5,6.6C15.5,153.8,15.2,153.7,11.3,144.1z"/>
	<path class="st0" d="M173.9,163.3c-4-6.4-4-6.4,2.1-13.3C181,155.3,180.9,155.9,173.9,163.3z"/>
	<path class="st0" d="M115.9,8.5c3.9-7,4.5-7.2,13.1-3.2C125.4,11.6,126.7,11.4,115.9,8.5z"/>
	<path class="st0" d="M181,57.9c4.8-2.4,8.1-1.5,9.3,4c0.3,1.4,2.4,3.4,0,4.1c-1.8,0.6-4.7,1.6-6.2-1.4
		C183.1,62.4,182,60.2,181,57.9z"/>
	<path class="st0" d="M7.1,93.9c-5.2-0.6-7.4-3.1-6-8.1c0.4-1.5-0.3-4.5,1.9-4c2.1,0.4,5.5,1.3,5.1,5C7.8,89,7.5,91.3,7.1,93.9z"/>
	<path class="st0" d="M143.7,187.2c-1.2-7.8-1.2-7.8,7-11.4C153.3,183,153.3,183,143.7,187.2z"/>
	<path class="st0" d="M45.5,182c5.1-4.7,5.1-4.7,13.3-0.1C54.7,188.4,53.6,188.4,45.5,182z"/>
	<path class="st0" d="M30.2,160.8c-7.1,3.1-7.1,3.1-12.2-5.4C25.1,152.6,25.1,152.6,30.2,160.8z"/>
	<path class="st0" d="M186,68.7c7.4-0.6,7.8-0.3,8.9,9.5C188,78.3,188,78.3,186,68.7z"/>
	<path class="st0" d="M16.3,45.5c6.5,4.4,2.8,8.7,0.1,13C10.1,55.2,10.1,53.4,16.3,45.5z"/>
	<path class="st0" d="M160,168.4c3.9,6.2,3.6,6.8-4.9,11.9C152.4,173.4,152.4,173.4,160,168.4z"/>
	<path class="st0" d="M86.3,207c-2.8-0.7-6.4,0.4-7.9-3.5c-0.8-2-0.5-2.8,1.6-2.8c4.2,0,8.5-0.8,12.3,2
		C90.8,204.8,89.9,207.8,86.3,207z"/>
	<path class="st0" d="M57.7,16.8c-1.9-4.8-1.3-8.3,4.1-9.4c1.4-0.3,3.4-2.6,4.1-0.4c0.7,2.1,1.6,5.3-1.7,6.9
		C62.2,14.9,60.1,15.8,57.7,16.8z"/>
	<path class="st0" d="M189.7,116.3c5.8,3.2,6.6,5.7,3.7,11.7c-0.4,0.8-0.7,1.7-1.6,0.9c-1.6-1.4-4.9-1.7-4.2-4.7
		C188.1,121.7,188,118.7,189.7,116.3z"/>
	<path class="st0" d="M181.9,139.4c5.7,4.6,5.7,4.7,0,13.2C176.4,148,176.4,148,181.9,139.4z"/>
	<path class="st0" d="M187.8,141.5c-3.8-2.7-5.9-5.4-3-9.7c1.2-1.7,2.1-3,4.3-2.2c2.2,0.9,3,2.8,2.1,4.9
		C190.4,136.8,189.1,139,187.8,141.5z"/>
	<path class="st0" d="M190.6,104.4c6.7,2.3,7.9,4.9,5.7,11c-0.3,0.9-0.7,1.8-1.6,1.2c-1.7-1.2-4.8-1.2-4.6-4.4
		C190.2,109.8,190.4,107.3,190.6,104.4z"/>
	<path class="st0" d="M197.1,103.9c-6.3-1.4-7.1-2.7-6.2-11.5C198.2,93.8,198.2,93.8,197.1,103.9z"/>
	<path class="st0" d="M168.8,159.8c4.2,6.1,4,6.7-3.9,12.5C161.5,165.3,161.5,165.3,168.8,159.8z"/>
	<path class="st0" d="M196.1,91.1c-5,0.3-6.2-2.9-6.5-6.7c-0.1-1.3-1.6-3.6,1.3-3.8c2.2-0.2,4.9-0.4,5.5,2.8
		C196.7,85.9,196.7,88.5,196.1,91.1z"/>
	<path class="st0" d="M84.1,216.5c-4.1,0.7-7.1-1.4-10.8-4.4c5.2-0.2,9-3.6,13.8-2C88.4,213.3,88.2,215.8,84.1,216.5z"/>
	<path class="st0" d="M104.2,196.7c1-1,2-2,3.1-3c2.7,0.4,4.9-1.4,7.9-1.5c-0.1,3,0.2,6.1-3.3,6.9
		C109.1,199.6,105.6,201,104.2,196.7z"/>
	<path class="st0" d="M93.4,209.7c0.9,0.3,1.9,0.7,2.8,1c1,1.2,2.9,2.1,0.1,3.7c-2.9,1.7-5.8,3-9.1,3.2
		C86.4,211.4,88.4,208.9,93.4,209.7z"/>
	<path class="st0" d="M59.8,212.3c2-2.1,3.2-3.6,4.7-4.9c1.1-1,3.1-2,3.4,0.2s5.3,3.3,1.5,6.4c-1.2,1-2.2,1.3-3.3,0.2
		C64.6,212.7,62.6,212.6,59.8,212.3z"/>
	<path class="st0" d="M93.4,209.7c-6.3-0.7-4.3,5.1-6.1,7.9c-1.2-0.1-2.3-0.5-3.3-1.3c1.7-1.8,2.8-3.9,3-6.4c0.6-1.2,0.2-2.2-0.8-3
		c2.9-0.1,3.8-3.1,5.9-4.3c0.3,0.6,0.6,1.3,0.9,1.9C89.9,206.6,90.4,208.2,93.4,209.7z"/>
	<path class="st0" d="M134.4,220.7c-0.8,0-1.8-0.3-2.4,0c-2.5,1.6-4.4,0.5-5-1.8s1.7-2.9,3.4-3.1c2.5-0.4,4.2,0.5,3.8,3.5
		c-0.1,0.5,0,1,0,1.5L134.4,220.7z"/>
	<path class="st0" d="M65.6,217.3c-0.8,1.5-1.8,3.1-3.5,3c-2.3-0.1-3.6-2.4-4.1-4.1c-0.5-1.6,1.7-1.6,2.9-1.6
		C62.9,214.5,64.7,215.1,65.6,217.3z"/>
	<path class="st0" d="M54.6,219.1c2,1,4.5,1.2,4.5,4c0,1.6-0.9,3.7-2.1,3.2c-2.2-0.8-4-2.9-4.6-5.3
		C52.1,219.9,53.7,219.4,54.6,219.1z"/>
	<path class="st0" d="M134.3,220.9c1.7,0.2,3.8-0.8,5,1.1c1.2,2-1.2,2.7-2,4c-0.6,1-1.5,2.7-3,1.7s-1.9-2.5-0.4-4.1
		c0.5-0.6,0.4-1.9,0.5-2.8C134.4,220.7,134.3,220.9,134.3,220.9z"/>
	<path class="st0" d="M107.2,193.7c-0.3-5-2.6-6.9-5.9-4.9c-1.8,3.1-5.7,2.7-8.1,4.9c-0.3-0.1-0.5-0.2-0.8-0.3
		c-0.2,0.4-0.3,0.9-0.2,1.4c-0.7,3.3,1,4.3,4,4.3c2.9,0,5.3-1.4,8-2.2C106.7,197.2,107.7,196.2,107.2,193.7z"/>
	<path class="st0" d="M514.9,33.5c-38.7,0.1-65.4,27.3-65.3,66.4c0.1,38.7,27,65.6,65.5,65.5c39.5-0.1,66.5-27.1,66.3-66.5
		C581.2,59.4,554.7,33.3,514.9,33.5z M551.7,119.6c-5.9,15.8-19.3,25-36.1,25c-17.3,0-30.8-9.3-36.6-25.7
		c-4.5-12.6-4.8-25.5-0.9-38.3c5.5-18.3,20.2-28.8,38.8-28.3c17.7,0.5,32.1,12.4,36.7,30.6C556.7,95.3,556.2,107.6,551.7,119.6z"/>
	<path class="st0" d="M84.7,111.1c-1.7-11.4-5.7-22-13-31c-5.8-7.1-13-11.9-23.4-11.8c-1.9-0.3-4.5,0.5-7,1.3
		C31.1,73,24,83.7,24.6,94.5c0.7,11.3,7.6,20.1,17.5,22.3c3.9,0.9,6.3,1,5.8-4.4c-0.5-5,2-9.1,7-10.9s9.2-0.1,12.5,3.7
		c1.4,1.6,3.1,3.5,3.4,5.4c1,5.7,4.6,5.4,8.8,4.5c0.8-0.2,1.6-0.4,2.5-0.4C84.7,114.6,85,113.4,84.7,111.1z M42,95.7
		c-0.6-3.9-2.2-5.8-6.6-5.1c2.7-2.3,6.1-3.3,4.1-7.3c2.6,1.6,4.6,3,8.4,0c-2.1,4-1.5,6.3,1.2,8.7C45.8,92.2,42.5,90.9,42,95.7z"/>
	<path class="st0" d="M173.2,92c-1.5-14-11.4-23.6-24.4-23.7c-5.7-0.1-10.9,1.6-15.3,5c-12.3,9.5-17.7,22.9-20.1,37.8
		c-0.2,1.1-0.7,3,1.2,3.3c3.1,0.5,6.3,1.3,9.4,1c2.4-0.2,1.9-3.5,3.1-5.2c1.1-1.5,1.8-3.2,2.9-4.6c3.5-4.4,8-5.8,12.8-4.2
		c4.4,1.5,7.7,5.9,7.4,11.2c-0.3,4.9,1.9,5,5.7,4.1C166.5,114.3,174.4,103.1,173.2,92z M156.2,95.4c-2-2.4-3.2-5.1-7-3.9
		c2.9-2.4,3-4.6,0.2-7.4c3.5,0.2,6.2,3.4,8.2-1.5c0.4,3.8,1.2,6.4,4.5,7.5C158.4,89.8,156.9,91.9,156.2,95.4z"/>
	<path class="st0" d="M123.8,118.8c-3.8-0.9-7.8-1.5-11.8-1.8c-13-1-25.9-1-38.7,2c-1.9,0.5-4.9,0.6-4.8,3.4c0.1,2.3,2.8,2.5,4.6,3
		c8.4,2.5,17.1,2.1,25.8,2.9c8.3-0.9,16.8-0.4,25.1-2.8c2-0.6,5-0.7,5-3.2C129.3,119.3,125.9,119.3,123.8,118.8z M75,122.2
		c16-2.5,32-2.4,48,0C107,125.1,91,125,75,122.2z"/>
	<g>
		<path class="st0" d="M969.6,33.2c-6.3-0.1-11.2,4.8-11.1,10.9c0.1,5.9,4.9,10.5,11,10.4c6.3,0,10.5-4.3,10.5-10.6
			C980.2,37.6,975.9,33.2,969.6,33.2z M975.2,50.3L975.2,50.3c-4.5,3.1-9.2,2.9-12.3-0.8c-3-3.7-2.5-8.3,1.4-12.2
			c0.1-0.1,0.3-0.2,0.4-0.3c4.6-2.8,8.3-2.4,11.4,1.3c3.1,3.6,2.7,7.7-1,11.8C975.1,50.2,975.2,50.3,975.2,50.3z"/>
	</g>
	<path class="st0" d="M974,42.8c1.6-1.9,0.3-4.6-2.6-5.1c-1.9-0.3-3.9-0.2-5.9-0.3c-0.5,4.3-0.7,8.5,0.2,13c2.8-1.4,0.8-4.1,3.1-5.2
		c2.4,1.2,2.4,5.8,6.4,5C973.8,48,971.2,46.2,974,42.8z M969.5,43.1c-1.1,0.1-1.9-0.3-1.9-1.6c0.1-1.5,1-1.9,2.4-1.8
		c0.9,0.2,2,0.3,2,1.6C971.9,42.8,970.7,43,969.5,43.1z"/>
	<g>
		<path class="st0" d="M382,195.1c0,0.9-0.2,1.9-0.7,3s-1.2,2.1-2.1,3.1c-1,1-2.2,1.9-3.7,2.5c-1.5,0.6-3.2,1-5.2,1
			c-1.5,0-2.9-0.1-4.1-0.4c-1.2-0.3-2.4-0.7-3.4-1.3c-1-0.6-1.9-1.4-2.8-2.4c-0.8-0.9-1.4-1.9-1.9-3c-0.5-1.1-0.9-2.3-1.2-3.6
			c-0.3-1.3-0.4-2.6-0.4-4c0-2.3,0.3-4.4,1-6.2c0.7-1.8,1.6-3.4,2.9-4.7s2.7-2.3,4.4-3s3.5-1,5.4-1c2.3,0,4.4,0.5,6.2,1.4
			c1.8,0.9,3.2,2.1,4.2,3.4c1,1.4,1.4,2.6,1.4,3.9c0,0.7-0.2,1.3-0.7,1.8s-1,0.8-1.7,0.8c-0.7,0-1.3-0.2-1.7-0.5s-0.8-1-1.2-1.8
			c-0.8-1.4-1.6-2.5-2.7-3.2c-1-0.7-2.3-1.1-3.8-1.1c-2.4,0-4.3,0.9-5.7,2.7c-1.4,1.8-2.1,4.4-2.1,7.7c0,2.2,0.3,4.1,0.9,5.6
			s1.5,2.6,2.7,3.3c1.1,0.7,2.5,1.1,4,1.1c1.7,0,3.1-0.4,4.2-1.2s2-2,2.6-3.6c0.2-0.8,0.6-1.4,0.9-1.8c0.4-0.5,1-0.7,1.8-0.7
			c0.7,0,1.3,0.2,1.8,0.7C381.8,193.8,382,194.4,382,195.1z"/>
		<path class="st0" d="M395,191.9h-2v9.2c0,1.2-0.3,2.1-0.8,2.7c-0.5,0.6-1.2,0.9-2.1,0.9c-0.9,0-1.6-0.3-2.1-0.9s-0.8-1.5-0.8-2.6
			v-22c0-1.3,0.3-2.2,0.8-2.7c0.6-0.6,1.5-0.8,2.7-0.8h9.4c1.3,0,2.4,0.1,3.3,0.2c0.9,0.1,1.8,0.3,2.5,0.7c0.9,0.4,1.7,0.9,2.4,1.6
			c0.7,0.7,1.2,1.5,1.6,2.5c0.4,0.9,0.5,1.9,0.5,3c0,2.1-0.6,3.8-1.8,5.1c-1.2,1.3-3,2.2-5.5,2.7c1,0.5,2,1.4,2.9,2.4
			s1.8,2.2,2.5,3.4c0.7,1.2,1.3,2.3,1.7,3.3s0.6,1.6,0.6,2c0,0.4-0.1,0.8-0.4,1.1c-0.2,0.4-0.6,0.7-1,0.9c-0.4,0.2-0.9,0.3-1.4,0.3
			c-0.7,0-1.2-0.2-1.6-0.5c-0.4-0.3-0.8-0.7-1.1-1.2c-0.3-0.5-0.8-1.2-1.3-2.1l-2.3-3.9c-0.8-1.4-1.6-2.5-2.2-3.2
			c-0.7-0.7-1.3-1.3-2-1.5C396.9,192,396,191.9,395,191.9z M398.3,179.9H393v7.9h5.2c1.4,0,2.6-0.1,3.5-0.4c1-0.2,1.7-0.7,2.2-1.2
			c0.5-0.6,0.8-1.4,0.8-2.4c0-0.8-0.2-1.5-0.6-2.1c-0.4-0.6-1-1.1-1.7-1.4C401.7,180,400.3,179.9,398.3,179.9z"/>
		<path class="st0" d="M434.9,180h-13.1v7h12c0.9,0,1.5,0.2,2,0.6s0.7,0.9,0.7,1.6s-0.2,1.2-0.6,1.6s-1.1,0.6-2,0.6h-12v8.1h13.5
			c0.9,0,1.6,0.2,2.1,0.6s0.7,1,0.7,1.7c0,0.7-0.2,1.2-0.7,1.7s-1.1,0.6-2.1,0.6h-15.8c-1.3,0-2.2-0.3-2.7-0.8
			c-0.6-0.6-0.8-1.5-0.8-2.7v-21.5c0-0.8,0.1-1.5,0.4-2c0.2-0.5,0.6-0.9,1.2-1.2s1.2-0.4,2-0.4h15.3c0.9,0,1.6,0.2,2.1,0.6
			s0.7,0.9,0.7,1.6c0,0.7-0.2,1.2-0.7,1.6S435.8,180,434.9,180z"/>
		<path class="st0" d="M461,200.9l-1.4-3.6H448l-1.4,3.7c-0.5,1.4-1,2.4-1.4,2.9s-1,0.8-1.9,0.8c-0.7,0-1.4-0.3-1.9-0.8
			s-0.8-1.1-0.8-1.8c0-0.4,0.1-0.8,0.2-1.2s0.3-1,0.6-1.7l7.3-18.6c0.2-0.5,0.5-1.2,0.8-1.9s0.6-1.4,0.9-1.9s0.8-0.9,1.3-1.2
			s1.2-0.5,2-0.5c0.8,0,1.5,0.2,2,0.5s1,0.7,1.3,1.2s0.6,1,0.8,1.6s0.5,1.3,0.9,2.2l7.5,18.5c0.6,1.4,0.9,2.4,0.9,3.1
			c0,0.7-0.3,1.3-0.8,1.8s-1.2,0.8-2,0.8c-0.5,0-0.8-0.1-1.2-0.2s-0.6-0.4-0.8-0.7s-0.5-0.7-0.7-1.3S461.2,201.4,461,200.9z
			 M449.5,193h8.6l-4.3-11.8L449.5,193z"/>
		<path class="st0" d="M479,178.5l11.2,16.9v-17c0-1.1,0.2-1.9,0.7-2.5s1.1-0.8,1.9-0.8c0.8,0,1.5,0.3,2,0.8s0.7,1.4,0.7,2.5v22.5
			c0,2.5-1,3.8-3.1,3.8c-0.5,0-1-0.1-1.4-0.2s-0.8-0.4-1.2-0.7c-0.4-0.3-0.7-0.7-1-1.1s-0.6-0.9-0.9-1.3l-10.9-16.7v16.8
			c0,1.1-0.3,1.9-0.8,2.5s-1.2,0.8-2,0.8c-0.8,0-1.5-0.3-2-0.8s-0.7-1.4-0.7-2.5v-22.1c0-0.9,0.1-1.7,0.3-2.2
			c0.2-0.6,0.7-1.1,1.2-1.4s1.2-0.6,1.9-0.6c0.5,0,1,0.1,1.3,0.3s0.7,0.4,1,0.7s0.6,0.7,0.9,1.1S478.7,178,479,178.5z"/>
		<path class="st0" d="M505.4,175.5h7.6c2,0,3.7,0.2,5.1,0.5s2.7,1,3.8,2.1c3,2.6,4.5,6.4,4.5,11.6c0,1.7-0.1,3.3-0.4,4.7
			s-0.8,2.7-1.4,3.8s-1.4,2.2-2.4,3.1c-0.8,0.7-1.6,1.2-2.5,1.7s-1.9,0.7-2.9,0.9s-2.2,0.3-3.5,0.3h-7.6c-1.1,0-1.8-0.2-2.4-0.5
			s-0.9-0.8-1-1.3s-0.2-1.3-0.2-2.3v-21c0-1.3,0.3-2.2,0.8-2.7S504.2,175.5,505.4,175.5z M507.7,180.1v19.4h4.4c1,0,1.7,0,2.3-0.1
			s1.1-0.2,1.7-0.4s1.1-0.5,1.5-0.9c1.9-1.6,2.9-4.5,2.9-8.5c0-2.8-0.4-4.9-1.3-6.3s-1.9-2.3-3.2-2.7s-2.8-0.6-4.5-0.6H507.7z"/>
		<path class="st0" d="M544,175c3,0,5.5,0.6,7.6,1.8s3.7,2.9,4.8,5.1s1.6,4.8,1.6,7.8c0,2.2-0.3,4.2-0.9,6s-1.5,3.4-2.7,4.7
			s-2.7,2.3-4.4,3s-3.7,1.1-6,1.1c-2.2,0-4.2-0.4-6-1.1s-3.2-1.7-4.4-3.1s-2.1-2.9-2.7-4.7s-0.9-3.8-0.9-6c0-2.2,0.3-4.2,0.9-6.1
			s1.5-3.4,2.7-4.7s2.7-2.3,4.4-3S541.9,175,544,175z M552.3,189.8c0-2.1-0.3-3.9-1-5.4s-1.6-2.7-2.9-3.5s-2.7-1.2-4.3-1.2
			c-1.2,0-2.2,0.2-3.2,0.7s-1.8,1.1-2.5,1.9s-1.3,1.9-1.7,3.2s-0.6,2.8-0.6,4.4c0,1.6,0.2,3.1,0.6,4.4s1,2.4,1.7,3.3
			s1.6,1.5,2.6,1.9s2,0.6,3.2,0.6c1.5,0,2.8-0.4,4.1-1.1s2.2-1.9,3-3.4S552.3,192,552.3,189.8z"/>
		<path class="st0" d="M573.2,192.3v-13.8c0-1.2,0.3-2.1,0.8-2.6s1.2-0.9,2.1-0.9c0.9,0,1.6,0.3,2.1,0.9s0.8,1.5,0.8,2.6v14.1
			c0,1.6,0.2,2.9,0.5,4s1,1.9,1.9,2.5s2.2,0.9,3.8,0.9c2.3,0,3.9-0.6,4.8-1.8s1.4-3,1.4-5.5v-14.2c0-1.2,0.3-2.1,0.8-2.6
			s1.2-0.9,2.1-0.9s1.6,0.3,2.1,0.9s0.8,1.5,0.8,2.6v13.8c0,2.2-0.2,4.1-0.7,5.6s-1.3,2.8-2.5,3.9c-1,1-2.3,1.7-3.6,2.1
			s-3,0.7-4.8,0.7c-2.2,0-4.1-0.2-5.7-0.7s-2.9-1.2-3.9-2.2s-1.7-2.3-2.2-3.8S573.2,194.5,573.2,192.3z"/>
		<path class="st0" d="M611.1,178.5l11.2,16.9v-17c0-1.1,0.2-1.9,0.7-2.5s1.1-0.8,1.9-0.8c0.8,0,1.5,0.3,2,0.8s0.7,1.4,0.7,2.5v22.5
			c0,2.5-1,3.8-3.1,3.8c-0.5,0-1-0.1-1.4-0.2s-0.8-0.4-1.2-0.7s-0.7-0.7-1-1.1s-0.6-0.9-0.9-1.3L609,184.5v16.8
			c0,1.1-0.3,1.9-0.8,2.5s-1.2,0.8-2,0.8c-0.8,0-1.5-0.3-2-0.8s-0.7-1.4-0.7-2.5v-22.1c0-0.9,0.1-1.7,0.3-2.2
			c0.2-0.6,0.7-1.1,1.2-1.4s1.2-0.6,1.9-0.6c0.5,0,1,0.1,1.3,0.3s0.7,0.4,1,0.7s0.6,0.7,0.9,1.1S610.8,178,611.1,178.5z"/>
		<path class="st0" d="M653.6,199.8l-4.6-18.2v19.8c0,1.1-0.2,1.9-0.7,2.5s-1.1,0.8-1.9,0.8c-0.8,0-1.4-0.3-1.9-0.8
			s-0.7-1.4-0.7-2.5v-22.7c0-1.3,0.3-2.1,1-2.5s1.5-0.7,2.6-0.7h1.8c1.1,0,1.9,0.1,2.4,0.3s0.8,0.5,1.1,1.1s0.5,1.3,0.8,2.5
			l4.2,15.7l4.2-15.7c0.3-1.1,0.6-2,0.8-2.5s0.6-0.9,1.1-1.1s1.3-0.3,2.4-0.3h1.8c1.1,0,2,0.2,2.6,0.7s1,1.3,1,2.5v22.7
			c0,1.1-0.2,1.9-0.7,2.5s-1.1,0.8-2,0.8c-0.8,0-1.4-0.3-1.9-0.8s-0.7-1.4-0.7-2.5v-19.8l-4.6,18.2c-0.3,1.2-0.5,2.1-0.7,2.6
			s-0.5,1.1-1,1.5s-1.2,0.7-2.1,0.7c-0.7,0-1.3-0.1-1.7-0.4s-0.8-0.7-1.1-1.1s-0.5-1-0.6-1.5S653.7,200.4,653.6,199.8z"/>
		<path class="st0" d="M677.3,192.3v-13.8c0-1.2,0.3-2.1,0.8-2.6s1.2-0.9,2.1-0.9c0.9,0,1.6,0.3,2.1,0.9s0.8,1.5,0.8,2.6v14.1
			c0,1.6,0.2,2.9,0.5,4s1,1.9,1.9,2.5s2.2,0.9,3.8,0.9c2.3,0,3.9-0.6,4.8-1.8s1.4-3,1.4-5.5v-14.2c0-1.2,0.3-2.1,0.8-2.6
			s1.2-0.9,2.1-0.9s1.6,0.3,2.1,0.9s0.8,1.5,0.8,2.6v13.8c0,2.2-0.2,4.1-0.7,5.6s-1.3,2.8-2.5,3.9c-1,1-2.3,1.7-3.6,2.1
			s-3,0.7-4.8,0.7c-2.2,0-4.1-0.2-5.7-0.7s-2.9-1.2-3.9-2.2s-1.7-2.3-2.2-3.8S677.3,194.5,677.3,192.3z"/>
		<path class="st0" d="M715.2,178.5l11.2,16.9v-17c0-1.1,0.2-1.9,0.7-2.5s1.1-0.8,1.9-0.8c0.8,0,1.5,0.3,2,0.8s0.7,1.4,0.7,2.5v22.5
			c0,2.5-1,3.8-3.1,3.8c-0.5,0-1-0.1-1.4-0.2s-0.8-0.4-1.2-0.7s-0.7-0.7-1-1.1s-0.6-0.9-0.9-1.3l-10.9-16.7v16.8
			c0,1.1-0.3,1.9-0.8,2.5s-1.2,0.8-2,0.8c-0.8,0-1.5-0.3-2-0.8s-0.7-1.4-0.7-2.5v-22.1c0-0.9,0.1-1.7,0.3-2.2
			c0.2-0.6,0.7-1.1,1.2-1.4s1.2-0.6,1.9-0.6c0.5,0,1,0.1,1.3,0.3s0.7,0.4,1,0.7s0.6,0.7,0.9,1.1S714.9,178,715.2,178.5z"/>
		<path class="st0" d="M741.6,175.5h7.6c2,0,3.7,0.2,5.1,0.5s2.7,1,3.8,2.1c3,2.6,4.5,6.4,4.5,11.6c0,1.7-0.1,3.3-0.4,4.7
			s-0.8,2.7-1.4,3.8s-1.4,2.2-2.4,3.1c-0.8,0.7-1.6,1.2-2.5,1.7s-1.9,0.7-2.9,0.9s-2.2,0.3-3.5,0.3h-7.6c-1.1,0-1.8-0.2-2.4-0.5
			s-0.9-0.8-1-1.3s-0.2-1.3-0.2-2.3v-21c0-1.3,0.3-2.2,0.8-2.7S740.3,175.5,741.6,175.5z M743.8,180.1v19.4h4.4c1,0,1.7,0,2.3-0.1
			s1.1-0.2,1.7-0.4s1.1-0.5,1.5-0.9c1.9-1.6,2.9-4.5,2.9-8.5c0-2.8-0.4-4.9-1.3-6.3s-1.9-2.3-3.2-2.7s-2.8-0.6-4.5-0.6H743.8z"/>
		<path class="st0" d="M780.2,175c3,0,5.5,0.6,7.6,1.8s3.7,2.9,4.8,5.1s1.6,4.8,1.6,7.8c0,2.2-0.3,4.2-0.9,6s-1.5,3.4-2.7,4.7
			s-2.7,2.3-4.4,3s-3.7,1.1-6,1.1c-2.2,0-4.2-0.4-6-1.1s-3.2-1.7-4.4-3.1s-2.1-2.9-2.7-4.7s-0.9-3.8-0.9-6c0-2.2,0.3-4.2,0.9-6.1
			s1.5-3.4,2.7-4.7s2.7-2.3,4.4-3S778,175,780.2,175z M788.5,189.8c0-2.1-0.3-3.9-1-5.4s-1.6-2.7-2.9-3.5s-2.7-1.2-4.3-1.2
			c-1.2,0-2.2,0.2-3.2,0.7s-1.8,1.1-2.5,1.9s-1.3,1.9-1.7,3.2s-0.6,2.8-0.6,4.4c0,1.6,0.2,3.1,0.6,4.4s1,2.4,1.7,3.3
			s1.6,1.5,2.6,1.9s2,0.6,3.2,0.6c1.5,0,2.8-0.4,4.1-1.1s2.2-1.9,3-3.4S788.5,192,788.5,189.8z"/>
		<path class="st0" d="M819,199.8l-4.6-18.2v19.8c0,1.1-0.2,1.9-0.7,2.5s-1.1,0.8-1.9,0.8c-0.8,0-1.4-0.3-1.9-0.8s-0.7-1.4-0.7-2.5
			v-22.7c0-1.3,0.3-2.1,1-2.5s1.5-0.7,2.6-0.7h1.8c1.1,0,1.9,0.1,2.4,0.3s0.8,0.5,1.1,1.1s0.5,1.3,0.8,2.5l4.2,15.7l4.2-15.7
			c0.3-1.1,0.6-2,0.8-2.5s0.6-0.9,1.1-1.1s1.3-0.3,2.4-0.3h1.8c1.1,0,2,0.2,2.6,0.7s1,1.3,1,2.5v22.7c0,1.1-0.2,1.9-0.7,2.5
			s-1.1,0.8-2,0.8c-0.8,0-1.4-0.3-1.9-0.8s-0.7-1.4-0.7-2.5v-19.8l-4.6,18.2c-0.3,1.2-0.5,2.1-0.7,2.6s-0.5,1.1-1,1.5
			s-1.2,0.7-2.1,0.7c-0.7,0-1.3-0.1-1.7-0.4s-0.8-0.7-1.1-1.1s-0.5-1-0.6-1.5S819.1,200.4,819,199.8z"/>
		<path class="st0" d="M861.5,180h-13.1v7h12c0.9,0,1.5,0.2,2,0.6s0.7,0.9,0.7,1.6s-0.2,1.2-0.6,1.6s-1.1,0.6-2,0.6h-12v8.1h13.5
			c0.9,0,1.6,0.2,2.1,0.6s0.7,1,0.7,1.7c0,0.7-0.2,1.2-0.7,1.7s-1.1,0.6-2.1,0.6h-15.8c-1.3,0-2.2-0.3-2.7-0.8s-0.8-1.5-0.8-2.7
			v-21.5c0-0.8,0.1-1.5,0.4-2s0.6-0.9,1.2-1.2s1.2-0.4,2-0.4h15.3c0.9,0,1.6,0.2,2.1,0.6s0.7,0.9,0.7,1.6c0,0.7-0.2,1.2-0.7,1.6
			S862.4,180,861.5,180z"/>
		<path class="st0" d="M885.9,178.6v15c0,1.3-0.1,2.4-0.2,3.3s-0.4,1.8-0.8,2.8c-0.7,1.6-1.7,2.8-3.2,3.7s-3.3,1.3-5.5,1.3
			c-1.9,0-3.6-0.3-4.9-0.9s-2.3-1.6-3.1-3c-0.4-0.7-0.8-1.6-1-2.5s-0.4-1.9-0.4-2.7c0-0.9,0.3-1.6,0.8-2.1s1.2-0.7,2-0.7
			c0.8,0,1.3,0.2,1.7,0.7s0.7,1.1,0.9,2.1c0.2,1,0.4,1.8,0.7,2.4s0.6,1.1,1.1,1.5s1.3,0.6,2.2,0.6c2.6,0,3.8-1.9,3.8-5.6v-15.8
			c0-1.2,0.3-2.1,0.8-2.6s1.2-0.9,2.1-0.9c0.9,0,1.6,0.3,2.1,0.9S885.9,177.4,885.9,178.6z"/>
		<path class="st0" d="M904.8,175c3,0,5.5,0.6,7.6,1.8s3.7,2.9,4.8,5.1s1.6,4.8,1.6,7.8c0,2.2-0.3,4.2-0.9,6s-1.5,3.4-2.7,4.7
			s-2.7,2.3-4.4,3s-3.7,1.1-6,1.1c-2.2,0-4.2-0.4-6-1.1s-3.2-1.7-4.4-3.1s-2.1-2.9-2.7-4.7s-0.9-3.8-0.9-6c0-2.2,0.3-4.2,0.9-6.1
			s1.5-3.4,2.7-4.7s2.7-2.3,4.4-3S902.6,175,904.8,175z M913.1,189.8c0-2.1-0.3-3.9-1-5.4s-1.6-2.7-2.9-3.5s-2.7-1.2-4.3-1.2
			c-1.2,0-2.2,0.2-3.2,0.7s-1.8,1.1-2.5,1.9s-1.3,1.9-1.7,3.2s-0.6,2.8-0.6,4.4c0,1.6,0.2,3.1,0.6,4.4s1,2.4,1.7,3.3
			s1.6,1.5,2.6,1.9s2,0.6,3.2,0.6c1.5,0,2.8-0.4,4.1-1.1s2.2-1.9,3-3.4S913.1,192,913.1,189.8z"/>
		<path class="st0" d="M931.7,191.9h-2v9.2c0,1.2-0.3,2.1-0.8,2.7s-1.2,0.9-2.1,0.9c-0.9,0-1.6-0.3-2.1-0.9s-0.8-1.5-0.8-2.6v-22
			c0-1.3,0.3-2.2,0.8-2.7s1.5-0.8,2.7-0.8h9.4c1.3,0,2.4,0.1,3.3,0.2s1.8,0.3,2.5,0.7c0.9,0.4,1.7,0.9,2.4,1.6s1.2,1.5,1.6,2.5
			s0.5,1.9,0.5,3c0,2.1-0.6,3.8-1.8,5.1s-3,2.2-5.5,2.7c1,0.5,2,1.4,2.9,2.4s1.8,2.2,2.5,3.4s1.3,2.3,1.7,3.3s0.6,1.6,0.6,2
			c0,0.4-0.1,0.8-0.4,1.1s-0.6,0.7-1,0.9s-0.9,0.3-1.4,0.3c-0.7,0-1.2-0.2-1.6-0.5s-0.8-0.7-1.1-1.2s-0.8-1.2-1.3-2.1l-2.3-3.9
			c-0.8-1.4-1.6-2.5-2.2-3.2s-1.3-1.3-2-1.5S932.7,191.9,931.7,191.9z M935,179.9h-5.4v7.9h5.2c1.4,0,2.6-0.1,3.5-0.4
			s1.7-0.7,2.2-1.2s0.8-1.4,0.8-2.4c0-0.8-0.2-1.5-0.6-2.1s-1-1.1-1.7-1.4C938.3,180,937,179.9,935,179.9z"/>
	</g>
</g>
</svg>
