<?xml version="1.0" standalone="no"?>
<!DOCTYPE svg PUBLIC "-//W3C//DTD SVG 20010904//EN"
 "http://www.w3.org/TR/2001/REC-SVG-20010904/DTD/svg10.dtd">
<svg version="1.0" xmlns="http://www.w3.org/2000/svg"
 width="781.000000pt" height="781.000000pt" viewBox="0 0 781.000000 781.000000"
 preserveAspectRatio="xMidYMid meet">
<metadata>
Created by potrace 1.11, written by Peter Selinger 2001-2013
</metadata>
<g transform="translate(0.000000,781.000000) scale(0.100000,-0.100000)"
fill="#000000" stroke="none">
<path d="M2669 6719 c-31 -13 -72 -18 -142 -18 -87 -1 -107 -5 -167 -31 -38
-16 -80 -30 -93 -30 -19 0 -30 -9 -44 -37 -12 -26 -35 -48 -73 -70 -161 -94
-164 -96 -260 -224 -103 -136 -155 -230 -165 -293 -14 -89 -35 -131 -115 -226
-44 -52 -80 -99 -80 -104 0 -5 9 -28 20 -51 24 -51 15 -94 -35 -159 -36 -47
-67 -104 -80 -146 -4 -14 -21 -53 -36 -87 -16 -33 -29 -73 -29 -87 0 -15 -14
-52 -30 -83 -18 -32 -30 -71 -30 -92 0 -33 -9 -44 -102 -130 -118 -108 -132
-127 -153 -198 -12 -40 -22 -55 -50 -72 -42 -24 -43 -34 -10 -73 29 -34 31
-52 10 -101 -8 -20 -15 -60 -15 -88 0 -32 -12 -86 -31 -141 -29 -84 -30 -95
-24 -191 l7 -102 -40 -43 c-30 -31 -43 -57 -51 -95 -8 -39 -20 -60 -45 -82
l-34 -30 11 -70 c6 -38 10 -94 9 -123 -1 -45 -6 -57 -36 -87 -23 -23 -38 -49
-43 -77 -7 -35 -15 -46 -43 -61 -35 -18 -57 -18 -168 -1 l-42 6 -22 -48 c-17
-39 -23 -76 -28 -184 -4 -74 -10 -143 -14 -152 -4 -9 -22 -28 -40 -41 -24 -19
-38 -44 -59 -105 -15 -44 -27 -100 -27 -124 0 -35 -7 -54 -30 -83 -50 -62 -39
-88 43 -99 69 -10 64 -34 -18 -76 -78 -40 -109 -69 -134 -126 -11 -23 -37 -69
-59 -101 -31 -45 -43 -77 -56 -144 -17 -83 -17 -86 2 -120 46 -79 118 -297
137 -414 14 -87 61 -136 147 -155 24 -5 72 -16 108 -24 36 -9 80 -16 99 -16
32 0 97 -32 113 -54 4 -6 6 -16 3 -23 -7 -19 16 -29 94 -43 101 -17 163 -14
218 10 25 11 56 20 70 20 13 0 39 6 57 14 37 16 211 130 220 145 4 5 28 17 55
26 57 19 113 74 140 138 10 23 28 83 41 132 13 50 34 104 46 120 25 35 40 80
50 150 9 69 18 82 72 107 32 16 48 31 52 48 4 18 22 33 69 56 40 21 86 57 131
103 38 39 74 71 80 71 6 0 15 -11 21 -24 24 -51 97 -60 189 -21 33 14 78 25
101 25 24 0 57 5 75 12 28 10 36 9 52 -5 26 -23 40 -21 90 13 61 41 118 48
173 21 24 -12 59 -31 77 -42 44 -28 124 -29 161 -2 14 11 35 36 46 56 l20 37
73 0 c56 0 89 6 140 26 61 25 70 26 127 15 132 -24 178 -5 191 79 8 47 34 69
110 90 47 13 69 36 128 125 22 33 51 60 87 81 92 54 120 83 125 134 3 25 10
57 16 71 13 37 87 87 176 120 98 37 167 84 233 158 55 63 73 73 154 90 28 5
99 31 159 56 180 75 220 78 257 18 22 -35 42 -40 90 -19 12 5 23 -3 39 -28 30
-49 61 -55 108 -22 29 20 50 26 88 26 45 0 56 -5 103 -45 69 -59 108 -61 157
-10 l33 35 32 -19 c37 -23 60 -18 151 32 35 19 81 40 103 47 65 20 101 47 136
103 18 29 65 86 105 127 86 91 144 175 144 211 0 17 -9 32 -25 43 -29 19 -33
56 -10 80 9 9 33 21 54 27 32 10 44 8 89 -11 68 -29 94 -22 115 30 17 44 27
47 82 25 37 -16 37 -16 76 20 21 19 42 35 47 35 4 0 85 5 180 10 150 8 178 7
207 -7 30 -14 35 -14 66 1 54 27 128 31 227 11 52 -11 100 -15 117 -11 63 16
105 95 105 197 0 36 8 71 24 106 13 28 29 77 36 108 17 81 35 120 79 168 25
27 40 53 41 72 5 75 -1 104 -26 133 -15 17 -40 61 -56 98 -40 95 -66 125 -174
205 -51 38 -104 86 -118 107 -31 49 -44 59 -88 67 -55 10 -90 -2 -148 -51 -56
-48 -85 -54 -126 -27 -21 13 -30 14 -45 5 -22 -14 -49 -16 -49 -3 0 13 -181
71 -222 71 -21 0 -50 -10 -73 -26 -29 -19 -45 -24 -64 -18 -43 12 -288 16
-373 6 -57 -7 -90 -17 -118 -36 -47 -31 -73 -33 -108 -7 -15 10 -54 32 -87 49
-38 19 -76 48 -103 81 -47 55 -71 66 -184 77 -52 5 -77 3 -118 -12 l-51 -18
-50 51 c-44 45 -53 51 -69 41 -22 -14 -41 -6 -116 51 -30 22 -60 57 -77 89
-16 28 -38 57 -50 63 -12 7 -39 27 -60 46 -22 19 -51 39 -66 44 -21 8 -31 21
-42 57 -14 47 -14 47 -53 44 l-39 -4 5 44 c3 23 9 51 13 61 9 22 -56 85 -115
112 -38 17 -41 17 -60 0 -16 -14 -24 -15 -51 -6 -18 6 -65 11 -105 11 l-73 0
-3 -32 c-4 -44 -20 -45 -66 -4 -30 28 -48 36 -77 36 -48 0 -111 35 -125 71 -7
16 -18 34 -26 40 -8 6 -14 24 -14 40 0 31 -41 63 -130 102 -25 10 -59 33 -77
50 -23 21 -47 32 -85 38 -29 5 -64 18 -78 29 -65 53 -59 51 -264 57 -172 4
-202 3 -246 -13 -44 -16 -57 -17 -112 -5 -73 15 -125 39 -193 91 -27 21 -63
42 -80 46 -38 9 -84 32 -110 54 -31 26 -57 29 -106 9z"/>
</g>
</svg>
