<svg xmlns="http://www.w3.org/2000/svg" viewBox="0 0 130 45.4274"><title>TapatiLetrassvg</title><path d="M20.7578,24.1746c-.292,1.1032-1.1357,3.7965-1.2655,4.3481a14.7,14.7,0,0,1-1.2655,3.6343c-.4867.5517-.7139.0649-.4867-.4218a24.5773,24.5773,0,0,0,1.2655-3.2125c.26-1.0059,1.9469-5.9382,1.9469-6.1653s.4868-1.3953-.4543-1.2655c-.7184.0991-1.8719.1982-2.3773.2395a.2221.2221,0,0,0-.2.2663,30.1453,30.1453,0,0,1,.6617,4.4589,18.9949,18.9949,0,0,1-.1057,2.4661c-.0879.4219-.8343,2.888-1.4508,2.4013s.4953-1.0384.7344-1.59.2584-1.0709-.092-1.298-1.6808,1.7847-1.6159,2.6284-.1884,2.3038,1.22,3.18a1.9234,1.9234,0,0,0,2.8037-1.2006,29.6888,29.6888,0,0,0,1.0059-5.1594c.0649-1.2656.2891-2.7861.2921-3.2449C21.3815,23.1362,21.05,23.0713,20.7578,24.1746Zm-1.0346,7.3026a.2434.2434,0,0,1-.3036.1621c-.1286-.0391-.1339-.1546-.0948-.2832s.1239-.2563.2525-.2172A.2741.2741,0,0,1,19.7232,31.4772Zm.4006-1.2582a.3457.3457,0,0,1-.31.1974c-.0989-.0156.02-.1261.0247-.226.0081-.1739.0554-.2212.1542-.2056A.1972.1972,0,0,1,20.1238,30.219Z" style="fill:#390d3b"/><path d="M17.6643,20.49a.2554.2554,0,0,0,.2455.2725,7.4338,7.4338,0,0,0,1.2256-.011.3524.3524,0,0,0,0-.4868,2.7285,2.7285,0,0,1-.9086-1.2168,17.9213,17.9213,0,0,1-.5841-3.2287,5.1916,5.1916,0,0,1,.4868-3.0664c.6814-1.298.4073-1.1069.2758-1.2818,0,0-.2742.0093-.6166.0487-.2591.03-.5645.1306-.7787-.0487a3.959,3.959,0,0,1-1.6225-3.326c.0162-1.7522.146-2.5635,1.2169-3.18a2.34,2.34,0,0,1,3.0664.2758c.6976.8924.6976,1.8009.99,2.0768s.5354.6814,1.12.3569S24.0839,5.76,24.814,5.2405s.941-.5084.9734-.7085.13-.4921-.3731-.3947a6.4184,6.4184,0,0,0-1.4765.4218,12.0026,12.0026,0,0,0-1.9793,1.2168S20.1251,3.1151,17.5292,3.05a7.5524,7.5524,0,0,0-5.4028,2.3039c-.6977.795-.99,1.1033-.99,1.1033v.2758s1.6711-.4868,2.4986.1785.9572,1.8658.2758,2.2552-.7626.3731-.7788.4542-.0811.3408.0325.4057a5.2109,5.2109,0,0,1,1.736.584,2.4244,2.4244,0,0,1,.6652,1.4278c.0649.3569,1.0059,3.975,1.0059,3.975s.99,3.326,1.0708,3.6505A3.3314,3.3314,0,0,1,17.6643,20.49Z" style="fill:#390d3b"/><path d="M4.0466,8.2907a1.2349,1.2349,0,0,1,.5516-1.3142.9746.9746,0,0,1,1.3142.4868,5.2549,5.2549,0,0,1,.292,1.1033A5.9527,5.9527,0,0,0,7.8756,6.6521a2.6981,2.6981,0,0,0,.2109-2.7582c-.5354-1.2169-1.9956-1.33-3.1314-1.0546A3.2556,3.2556,0,0,0,3.1055,3.91c-.0649.146-.0324.3083.2272.2109a4.6119,4.6119,0,0,1,2.5148-.6165A1.5645,1.5645,0,0,1,7.3888,5.0783,2.611,2.611,0,0,1,6.48,7.1063a1.8664,1.8664,0,0,0-.7521-.9572,1.6722,1.6722,0,0,0-1.9411.7788,1.6692,1.6692,0,0,0-.1785,1.5413,1.08,1.08,0,0,0,.263.4918C4.1439,9.1831,4.2088,8.8586,4.0466,8.2907Z" style="fill:#390d3b"/><path d="M5.4716,7.8256s-.3867-.4921-.6787.1082a.5511.5511,0,0,0,.3894.8437c.1136-.0163.2434-.1785.13-.4381s.0487-.331.26-.1168.4263.6684.1564.928a.7843.7843,0,0,1-1.1623-.1191,1.2169,1.2169,0,0,1,.0811-1.5844.59.59,0,0,1,.8761,0c.2109.2271.2208.3968.1783.4357C5.61,7.9667,5.4716,7.8256,5.4716,7.8256Z" style="fill:#b55069"/><path d="M3.8632,6.2339a2.0068,2.0068,0,0,0-.5846,1.2618,3.06,3.06,0,0,0,.4759,1.8064c.27.4434.2488.6057.2055.6489s-.3668.0433-.6863-.3353A3.9527,3.9527,0,0,1,2.2619,7.2516a2.7249,2.7249,0,0,1,.5841-2.33,3.3667,3.3667,0,0,1,1.3087-.8869,2.8431,2.8431,0,0,1,1.7-.1947A1.4294,1.4294,0,0,1,7.0211,4.9863a3.1974,3.1974,0,0,1-.26,1.5035c-.1731.2488-.3642.1572-.4652-.166-.1622-.5193-.3893-.7858-.8436-.6993,0,0-.1082-1.2547-1.0816-.9086C3.5024,5.0248,3.8632,6.2339,3.8632,6.2339Z" style="fill:#b55069"/><path d="M4.75,5.7651s-.45.3461-.5662-.0572A.5979.5979,0,0,1,4.3,5.1161c.2008-.1622.4619-.1559.6983.1839C5.1715,5.5488,4.75,5.7651,4.75,5.7651Z" style="fill:#390d3b"/><path d="M8.1676,3.2233a3.337,3.337,0,0,0-3.09-.887,3.8989,3.8989,0,0,0-1.7445.712c-.411.1317-.4686-.1063-.2559-.3334A5.4743,5.4743,0,0,1,4.8253,1.709a4.1761,4.1761,0,0,1,3.2882.2379,3.0074,3.0074,0,0,1,1.6008,2.596A3.1155,3.1155,0,0,1,9.3358,6.187l-.26.3785s1.179-1.1141,1.4385-1.4277A3.7527,3.7527,0,0,1,11.91,4.2725c.3353-.0758.79-.0758.2812.4975s-.8545.7572-1.0546,1.0276A3.9905,3.9905,0,0,1,9.9523,7.0414c-.5408.27-1.7739.887-2.0551.9843s-.6057.1515-.6923.0757,0-.1189.1082-.2163a4.5565,4.5565,0,0,0,.79-1.0067A5.6508,5.6508,0,0,0,8.73,5.17a2.61,2.61,0,0,0-.3507-1.6657C8.2727,3.3536,8.1676,3.2233,8.1676,3.2233Z" style="fill:#b55069"/><path d="M8.5137,0a8.7669,8.7669,0,0,1,4.2184.8112,8.2509,8.2509,0,0,0,3.5369.8221c1.3629.0432,4.5.822,5.4407.822s8.4584.0108,9.3886,0A13.1393,13.1393,0,0,0,34.2134,2.25c.3461-.2163.0973-.6706.1947-.8545s.4651-.2163,1.3088-.2163h2.39c.5083,0-.0375.8133-1.947,1.5684a74.4561,74.4561,0,0,1-8.3286,2.4661,10.6917,10.6917,0,0,1-2.3579.5624c-.3029-.0432-.2813-.0649-.0325-.3245s1.828-1.4926,1.9578-1.72-.0108-.2271-.2272-.2271-5.6245.2812-6.7386.2488a5.1575,5.1575,0,0,0-2.5742-.9627,8.3317,8.3317,0,0,0-2.8123.2577c-.6382.175-1.0492.6617-1.4386.6617a23.4064,23.4064,0,0,1-3.2341-.1731c-.4218-.1514-.5516-.4218-.8653-.8869A2.99,2.99,0,0,0,6.9345,1.19a8.7132,8.7132,0,0,0-1.86.1947c-.3569.0757-.27-.27-.119-.3786A4.2926,4.2926,0,0,1,6.9021.1082,15.3364,15.3364,0,0,1,8.5137,0Z" style="fill:#390d3b"/><path d="M21.6015,4.1318c.2921-.0209,1.6441-.1189,1.828-.1189s.4975.2379.13.4434-1.2764.7356-1.3737.8-.1623-.0216-.238-.13a6.7415,6.7415,0,0,0-.5624-.6382C21.31,4.4347,20.9535,4.1783,21.6015,4.1318Z" style="fill:#390d3b"/><path d="M20.1089,7.247a3.3455,3.3455,0,0,0-.7356-1.4643c-.2487-.2529-.4326-.1041-.4218.1987a5.6834,5.6834,0,0,0,.5408,1.2439c.0433.1082.0433.1839-.0973.3029a5.3536,5.3536,0,0,1-1.1682.3786,4.3109,4.3109,0,0,0-.8329.2163c-.6706.2271-.8112.5408-.8112.5408L16.3664,8.22a.8047.8047,0,0,0,.5624-.18c.238-.2124.1738-.3446-.1081-.653-.403-.441-.1406-.8329.1839-1.417s1.08-.4118,1.1491-.6037c.0515-.1426-.4461-.4887-1.1816-.0878-.9486.5171-1.1249,2.13-1.1249,2.13a4.8619,4.8619,0,0,0,.4219,2.6608c.5191.887,1.2871,1.0059,2.4336.93s1.6225-1.7414,1.6657-2.1416A7.7143,7.7143,0,0,0,20.1089,7.247ZM18.2376,9.5833c-.3894-.0108-.8112.2163-1.07-.3245-.1715-.3579.3889-.649.4862-.6165s-.3569.2812-.2271.4753.27.13.4.0871.2687-.0757.2687-.0757c.2072-.0973.6615-.26.7156.0649C18.8393,9.3646,18.627,9.5941,18.2376,9.5833Z" style="fill:#390d3b"/><path d="M18.865,6.89c.1081.6057-.3259.649-.7381.649s-.8736.1082-.7546-.649c.0621-.3954.2055-.93.7463-.93C18.7893,5.96,18.7946,6.496,18.865,6.89Z" style="fill:#390d3b"/><path d="M19.1935,11.9141a4.9086,4.9086,0,0,0-1.0982,3.9535c.1964,2.32.7967,3.7641,1.6728,4.3319a1.93,1.93,0,0,0,1.8334.2434,1.1191,1.1191,0,0,0,.0974-.8761c-.0974-.4056-.5841-.3894-.9573-.4381s-1.9094-.2758-1.9282-2.92,1.2955-3.3422,1.7335-3.4071.6977-.1623.7139-.8113-.1136-1.2436-.7463-.9706A4.0674,4.0674,0,0,0,19.1935,11.9141Z" style="fill:#b55069"/><path d="M19.16,15.5756a4.139,4.139,0,0,0,.5517,2.4417,2.2634,2.2634,0,0,0,.9978.8194,15.3058,15.3058,0,0,0,5.2161.3082.4518.4518,0,0,0,.3894-.4542c-.0081-.3975-.2758-.5354-.73-.5192a27.2989,27.2989,0,0,1-4.1453-.0406,2.3369,2.3369,0,0,1-1.6793-1.46c-.2271-.9167-.1217-1.9469.7626-2.2714s.722-.56.6895-.8762-.284-.748-1.0789-.0811A3.0965,3.0965,0,0,0,19.16,15.5756Z" style="fill:#390d3b"/><path d="M21.3419,16.2975c-.0041-.4137.0325-1.3385-.4137-1.3385s-.9167.6-.9248,1.0627a1.3773,1.3773,0,0,0,.6976,1.3061C21.2365,17.5874,21.3474,16.8492,21.3419,16.2975Z" style="fill:#b55069"/><path d="M8.1784,18.3878c1.2329-.0232,4.6727-.2163,5.43-.1947a13.6073,13.6073,0,0,1,3.0286.2812c.411.2164.4543.2164.5625.5841s-.6058.5408-1.06.4976-3.4829-.2164-4.1535-.1947-4.4329.2077-4.953.2012-3.6352-.1363-3.6352-.1363-.0216.1215-.1947.1364-.3461-.1581-.4327-.1581-.2163.145-.4326.1591-.0649-.1374-.3678-.1591a14.4616,14.4616,0,0,1-1.6441.0649c-.2379-.0865-.4326-.6922-.26-.8653a1.2685,1.2685,0,0,1,1.0168-.1947,15.7054,15.7054,0,0,0,1.7955-.1081c.3894,0,2.12-.0433,2.942.0216S7.5082,18.4,8.1784,18.3878Z" style="fill:#390d3b"/><path d="M25.6793,22.7468c.03.6483.3193,2.3664.3353,3.2016.02,1.0452-.0433,1.3953.26,1.7847s.5949.3245.7355,0a11.0682,11.0682,0,0,0,.3245-2.1416c.0324-.5516.3786-2.3147.4-2.7365s.13-.9627-.4868-1.3521a.9957.9957,0,0,0-1.4307.3678A2.57,2.57,0,0,0,25.6793,22.7468Z" style="fill:#390d3b"/><path d="M27.3991,17.7605a1.3527,1.3527,0,0,1,1.3628.9842,6.774,6.774,0,0,1-.054,2.8015c-.1839.7788.2487,1.0167.2487.5732a5.2681,5.2681,0,0,1,.238-2.2389c.3461-.649,1.0492-.119,1.0384.5949a44.1667,44.1667,0,0,1-.93,5.56,2.3483,2.3483,0,0,1-.768,1.0167c-.1623.0974-.27-.0433-.2488-.2055a7.9515,7.9515,0,0,0,.13-.8869c-.0108-.1731-.13,0-.1406.1514s-.1082,1.0384-.1082,1.6224-.1081.27-.1406.7247.0866.79.0217.93a.5689.5689,0,0,1-.887.1947,2.19,2.19,0,0,1-.0541-.9085c.0757-.5084.2488-1.5143.357-2.1849s.173-1.1574.2271-1.5143.2812-1.5684.3245-2.1417.1839-1.7414-.4435-1.8928-1.0209.1123-1.3412-.16c-.1672-.1424-.1082-1.0942-.0757-1.44s.2107-1.2325.7139-1.5034A1.67,1.67,0,0,1,27.3991,17.7605Z" style="fill:#390d3b"/><path d="M28.4807,23.6229a6.7471,6.7471,0,0,0-.0541,1.471,5.0507,5.0507,0,0,0,.26-1.2979c.0757-.6166.1082-1.0384,0-1.06S28.4807,23.6229,28.4807,23.6229Z" style="fill:#b55069"/><path d="M30.9306,16.476c.2961.0494.4462.146.43.3651a4.1805,4.1805,0,0,1-.43,1.1925c-.17.2677-.3164.4461-.5111.2514a1.4807,1.4807,0,0,1-.3082-1.0059c0-.2028-.2353-.219-.26-.0568a1.1656,1.1656,0,0,0,.2271.9735c.3326.4786.5841.5354.6977.7463a.6453.6453,0,0,1-.183.7707c-.2551.2028-.7662-.17-1.0582-.6a3.5129,3.5129,0,0,1-.6814-1.6955,2.1923,2.1923,0,0,1,.7625-1.7117,2.0023,2.0023,0,0,1,1.7847-.365c.5679.1622.3732.5354.3083.6814s-.5922.2353-1.0465.1866a.5094.5094,0,0,0-.6084.4543c.01.0508.0811.1785.1786.1055A.9272.9272,0,0,1,30.9306,16.476Z" style="fill:#390d3b"/><path d="M31.4417,14.9266c.5922,0,.8274-.0406,1.0627-.3732a.68.68,0,0,0-.3-.9816,4.1125,4.1125,0,0,0-2.028.1866,6.3226,6.3226,0,0,0-2.5473,1.7279c-.8518.9654-.9085,1.444-.6571,1.7847a.8426.8426,0,0,0,1.1114.073,15.3546,15.3546,0,0,0,1.014-1.444,2.518,2.518,0,0,1,1.03-.8761A4.1633,4.1633,0,0,1,31.4417,14.9266Z" style="fill:#b55069"/><path d="M34.1268,7.3822c.2756.0128.8113.0486.8762-.2434s-.3407-.5516-.8762-.5354-1.8982.0973-2.2552,1.2006a4.1648,4.1648,0,0,0-.1784,2.6446c.2433.5354.8112,1.2168,1.2006,1.2006s.5516-.1622.5841-.5516c.0162-.86-.7069-1.0384-.7788-1.6874a1.8106,1.8106,0,0,1,.2434-1.444A1.2178,1.2178,0,0,1,34.1268,7.3822Z" style="fill:#b55069"/><path d="M34.5811,8.2907a1.8216,1.8216,0,0,0,.503.0406c.219-.0649.3245-.4624,0-.5111a2.3684,2.3684,0,0,0-1.2006-.0568,1.2441,1.2441,0,0,0-.7869.8843,1.2367,1.2367,0,0,0,0,.9653.9155.9155,0,0,0,1.0951.13,1.5292,1.5292,0,0,0,.3651-.7463A3.7975,3.7975,0,0,0,34.5811,8.2907Z" style="fill:#390d3b"/><path d="M35.3761,18.4148c1.0222,0,2.0768-.0324,2.239,0s.0974-.0649,0-.2271-.438-.6652-.2271-.8437.6-.1244.99.4165.699,1.06,1.0877,1.7252A20.8833,20.8833,0,0,1,41.12,23.9148a13.0183,13.0183,0,0,1,0,4.9486c-.4056,1.2493-.8423,2.9529-1.6542,2.9367s-.7632-3.1962-.6821-3.4072,1.0221-1.1032,1.1844-1.736a7.9411,7.9411,0,0,0-.0162-3.683c-.4057-1.3628-.9086-3.31-1.947-3.3422S35.652,19.34,35.1814,19.34s-3.0908.1136-3.3869.0649-.7828-.1784-.7665-.584.26-.5355.9734-.503,1.8821.0973,2.4013.1136S35.3761,18.4148,35.3761,18.4148Z" style="fill:#390d3b"/><path d="M37.8747,20.0535a21.3589,21.3589,0,0,0,.1136,3.0827c.0811.3731.4218,2.4337.4218,2.5959a4.4158,4.4158,0,0,0,.1947,1.298.4867.4867,0,0,0,.6,0,3.4153,3.4153,0,0,0,.6166-2.1741,9.4546,9.4546,0,0,0-.73-3.6343c-.3894-.7463-.5355-1.0871-.73-1.1682S38.0045,19.8913,37.8747,20.0535Z" style="fill:#b55069"/><path d="M41.9633,21.4245a4.6462,4.6462,0,0,0-.7139,1.4927c-.0008.8193,1.1357,1.736,1.2736,1.8739s.9654,1.0789,1.0952,1.2168a.6893.6893,0,0,0,.6733.1785c.1947-.1055.073-.6084-.146-.8112s-.7382-.6409-1.0384-.9167a2.8617,2.8617,0,0,1-.7544-1.1142c0-.2081.1785-.7111.3-.6705s-.0162.4137,0,.6327a2.87,2.87,0,0,0,.6734,1.0952c.2433.219.3751.3837.5922.3164.2352-.073.1865-.6635.0486-1.1714s-.2515-1.1244-.6084-1.1974-.4.1577-.5394.0892c-.215-.1054-.0357-.2509.0689-.3569a1.1172,1.1172,0,0,0,.3488-.6571c0-.2353-.1133-.8842-.4177-.9S42.0834,21.239,41.9633,21.4245Z" style="fill:#b55069"/><path d="M41.774,25.5374a2.0847,2.0847,0,0,0,.4219,1.5143c.4434.4976,1.2546,1.32,1.4493,1.6008s.3245.6815.6707.6706.584-.703.4218-1.352a5.4226,5.4226,0,0,0-1.4559-1.9361c-.3829-.3353-.6749-1.0925-1.14-1.2547S41.774,25.5374,41.774,25.5374Z" style="fill:#390d3b"/><path d="M41.7655,28.1658c.0441.5064-.5,1.59-.3484,1.8712s.2163.4327.79.5192a2.4159,2.4159,0,0,1,1.2763.822c.292.2921.6706.6058.9735.357s.0973-1.0817-.1839-1.4927A19.8216,19.8216,0,0,0,42.78,28.1658c-.6338-.7081-.6057-.7788-.8328-.66S41.7354,27.82,41.7655,28.1658Z" style="fill:#b55069"/><path d="M41.9038,32.7736c.1834-.0138,1.1036.2271,1.3739.2055s.8435-.3029.4649-.8113-1.2439-1.4061-2.1633-1.2979a2.1334,2.1334,0,0,0-1.6333,1.2439c-.1946.4218-.6165,1.6116-.4218,1.99s.53.5408.8545.1838.4976-.8434.7144-1.0514C41.3615,32.9791,41.4712,32.806,41.9038,32.7736Z" style="fill:#390d3b"/><path d="M42.38,33.4658a2.1451,2.1451,0,0,0,.7139-.119c.1514,0,.4218.119.4.3786s-.649.4326-.9086.53-.8683.4867-1.2237.4218-.1067-.66.11-.8436A1.4909,1.4909,0,0,1,42.38,33.4658Z" style="fill:#390d3b"/><path d="M51.4871,2.4824H48.6478a10.6165,10.6165,0,0,1-2.3363-.8437c-.6166-.3407-.9573-.26-1.1357.1135-.1879.3928.2433.649.6814.9573s.5516.649.4543.7788-.8275-.2434-1.0708-.13c-.4086.1906-.2272.8437.0162,1.1681s.438.3083.6165.2272.4381-.13.5516.1785a.3335.3335,0,0,1-.2758.4867c-.1784.0162-.86.0162-.86.0162s-.0649.8437.1623,1.0546.9572-.0162.9572-.0162l.0325.8437a.1423.1423,0,0,0-.1461.0811.5438.5438,0,0,0,0,.4218.1534.1534,0,0,0,.1623.0487v.2758s-.13-.0487-.1785.0487-.0649.3569,0,.4056a.4326.4326,0,0,0,.1623.0649V8.891s-.1623-.0811-.2109.0325a.55.55,0,0,0,.0162.4543.1822.1822,0,0,0,.1784.0487v.292s-.1135-.0487-.1622.0324a.6255.6255,0,0,0,0,.4219.2788.2788,0,0,0,.1622.0487v.1946a.204.204,0,0,0-.1622.0812.5432.5432,0,0,0-.0162.3894c.0486.0486.1784.0324.1784.0324l-.0162.2272s-.0811-.0163-.146.1135a.2917.2917,0,0,0,.1136.3407.2247.2247,0,0,1,.0486.2759c-.0486.0649-.1784.0973-.1784.26a.5126.5126,0,0,0,.1947.438c.13.0649.0486.3407-.0163.3732a.3527.3527,0,0,0-.1135.26c0,.0811.13.2433.13.292s-.0974.0974-.0974.2272a.8009.8009,0,0,0,.0811.3893A5.8778,5.8778,0,0,1,46.4575,15.3c-.0162.0649-.1136.0325-.146.0812a.3132.3132,0,0,0,.0162.292c.0649.0649.1136.0487.13.1622s-.1136.1461-.13.2272,0,.292.0487.3083.0162.146-.0487.2433-.1622.3083-.0811.3732.0973.0324.13.1785a.27.27,0,0,1-.0974.292.349.349,0,0,0-.0486.3732c.0648.0973.13.0811.1622.2109s0,.4056-.2109.438-2.093-.0649-2.5311-.0649-1.3628.0812-1.5251-.1135-4.121-8.8748-4.3481-9.4427-.5517-1.6874-.5517-1.6874a8.353,8.353,0,0,0,1.1358.2759c.1622-.0163.3082-.0974.3082-.2759a1.0732,1.0732,0,0,0-.649-.795,5.2534,5.2534,0,0,0-1.0023-.2816c-.2547-.05-.2536-.2908-.1983-.562.0852-.4178-.3335-.9105-.9248-1.1358-.511-.1946-.7057.1947-.7463.4706-.02.1363-.1217.43-.4218.3731-.4825-.0913-2.1741-.4867-2.8231-.0811s-3.8939,7.3335-4.1373,7.7878-.6489,1.1357-.4867,1.3791.5516.13.795-.0487a11.811,11.811,0,0,1,1.7847-.99,10.8549,10.8549,0,0,1,2.4256-.4218c.511.0081.2758-.5517.1379-.6653s-1.29-.8031-1.3142-1.6549a5.26,5.26,0,0,1,.576-3.2043A3.0186,3.0186,0,0,1,34.0052,6.1a3.166,3.166,0,0,1,1.1681.0974,1.2608,1.2608,0,0,1,.2028.649c.0568.3731.7139,3.8127.8275,4.51s.5678,3.0583.6571,3.6424a1.8077,1.8077,0,0,0,.7544,1.1681,12.4788,12.4788,0,0,1,2.0768,2.8231,12.9284,12.9284,0,0,1,.8274,1.8821c.0974.3893.1785.584.3407.6733a.3767.3767,0,0,0,.5679-.1542c.1866-.3.6976-1.2006.7869-1.3709a.4679.4679,0,0,1,.5273-.3c.3488.0162,1.0465.0974,1.5738.0974s1.7116.0162,1.8333.0162.2272.0973.2191.2839-.0487,2.6122-.0487,2.9691.2515.2921.4137.1055a4.6537,4.6537,0,0,0,.6084-.7058c.1785-.3.9492-1.8009,1.0952-2.0605s1.0059-1.4683,1.0546-1.6711.4756-.6386-.4219-2.7176a36.0609,36.0609,0,0,1-1.233-6.5629c-.0487-.7788-.13-1.2655-.1136-1.6387s.0974-2.531.0974-2.7094.2109-.1623.2109,0-.0325.9572-.0649,1.233-.13.6652.0649.7463.5516-.0973.6976-.4542a7.2143,7.2143,0,0,1,1.2818-2.0768c.5678-.5192,1.2006-1.2979,1.4764-1.4764S51.7467,2.4824,51.4871,2.4824Zm-3.31,1.9956c-.1785.0162-.3407-.1947-.2434-.3245s.0811-.1785.2434-.1623S48.3558,4.4617,48.1773,4.478Zm.1275-.9411c-.16.1947-.3969.2272-.4,0a.2788.2788,0,0,1,.2-.2791C48.2909,3.1151,48.4648,3.3423,48.3048,3.5369Zm1.5436-.0649c-.1784.1947-.6976.8275-.8112.8924s0-.2434,0-.4218-.2109-.3245-.26-.4706.1361-.2328.5679-.2109C49.7668,3.2826,50.0269,3.2774,49.8484,3.472Z" style="fill:#390d3b"/><path d="M76.3755,18.8545a1.5594,1.5594,0,0,0-1.0221-.1638c-.357,0-.8761.0811-1.7036.0973a20.0572,20.0572,0,0,1-2.3363-.0973,5.2927,5.2927,0,0,0-1.5576.1546.4087.4087,0,0,1-.438-.2358c-.0974-.1784-.0812-.8436-.2272-1.1032a1.3633,1.3633,0,0,0-.8437-.4543,3.8367,3.8367,0,0,0-1.2006.0973,2.7094,2.7094,0,0,1-.8112.0974c-.146-.0162-.4056-.0487-.503.0811s-.0486.3407-.0486.6977a.653.653,0,0,1-.3408.6976,8.1257,8.1257,0,0,1-2.3038.0974c-.7788.0162-6.717-.0974-7.1064-.1136a22.9383,22.9383,0,0,1-4.2447-.2434c-.61-.292-.6064-1.2817-.7524-2.32s-.503-2.093-.7626-3.3747a6.4369,6.4369,0,0,1,.1785-2.9853,5.1487,5.1487,0,0,1,.6652-1.1844,15.11,15.11,0,0,0-.26,2.0443A4.104,4.104,0,0,0,51.86,13.9044c1.2817,1.3629,3.5748,1.4981,5.208,1.444a14.5241,14.5241,0,0,0,6.2627-2.1416,18.3591,18.3591,0,0,0,3.5207-4.186,36.963,36.963,0,0,0,1.444-3.6829c.1136-.3245-.1947-.8924-.6165-.6815a1.2236,1.2236,0,0,0-.6166,1.152A1.5391,1.5391,0,0,1,66.3,7.0577c-.503.3731-1.8658.2433-2.239.2758s-.9248.0324-.649.5841a1.6718,1.6718,0,0,1,0,1.6549,5.858,5.858,0,0,1-1.5575,1.6224A6.9859,6.9859,0,0,1,57.5388,12.72a7.977,7.977,0,0,1-3.975-1.1844,2.4356,2.4356,0,0,1-1.2817-2.4174,2.4668,2.4668,0,0,1,1.6387-2.3688,1.3312,1.3312,0,0,1,1.444.26c.2758.3083.3293,1.0169-.211,1.2006-.8112.2758-.4542,1.0384.2434.7139a1.6774,1.6774,0,0,0,1.0708-1.736,1.5225,1.5225,0,0,0-1.3628-1.4927,3.8453,3.8453,0,0,0-2.0119.26,8.3761,8.3761,0,0,1,1.5089-.795,8.7581,8.7581,0,0,1,3.7317-.47,8.0022,8.0022,0,0,1,3.764,1.3791c.211.1622.503.0486.4354-.2434a5.3821,5.3821,0,0,1-.4354-1.6711c.0325-.6328.7139-1.152,1.1358-1.3953s.795-.2272.7463-.6328-.4381-.3894-1.0059-.438a3.6239,3.6239,0,0,0-1.6225.3244,9.8578,9.8578,0,0,1-2.6121.5355c-1.0222.0648-2.8069.13-3.2125.1622a19.21,19.21,0,0,0-2.0443.3245,6.4034,6.4034,0,0,0-3.5772,2.0443,10.2157,10.2157,0,0,0-1.5011,3.7154,22.9853,22.9853,0,0,0,.1785,4.3319,23.49,23.49,0,0,0,1.3629,4.3158c.2758.6.4543,1.2493.3407,1.3791a.9017.9017,0,0,0-.0487.6652c.0487.2271.2434.3569.73.4867s6.7819.0324,7.6093.0324,7.1064.1136,7.1064.1136-.1623.6166.292.7139,1.46-.0973,1.72-.0324.1785.2595.1623.6165-.357,2.2552-.5355,3.1638-.3731,1.9631-.4705,2.4336a14.3346,14.3346,0,0,0-.0649,1.5576.7467.7467,0,0,0,.5517.7626c.4056.1135.5354-.0649.7138-.3894s-.146-.5517-.438-.7626-.0487-.3407.3083-.4056.5678-.2109.5678-.3894-.1947-.3083-.4867-.3407-.3894-.0811-.3407-.3569.2758-.2434.5029-.211.5354.0325.4705-.3245-.3245-.292-.5678-.3893-.13-.5192-.0487-.6166.4056.0811.7139,0,.3407-.26.1784-.5354-.4867-.2271-.6489-.3731.0162-.3732.0162-.3732a1.4311,1.4311,0,0,0,.7463,0c.1947-.0811.1947-.4381.0811-.5679s-.3082.0163-.5516-.146a.45.45,0,0,1-.1622-.4705s.4705.2434.7138.0811a.5294.5294,0,0,0,.1136-.73.8025.8025,0,0,0-.4867-.13l.0487-.3894a1.418,1.418,0,0,0,.4218.1623c.3083.0811.4705-.1136.4705-.4543a.5082.5082,0,0,0-.4867-.4867c-.1947-.0325-.4868-.4057,0-.73s.9572-.0486,1.3628-.0162,2.5959.2109,3.1314.26a20.7719,20.7719,0,0,0,2.4336.0811.6056.6056,0,0,0,.5841-.584A1.0315,1.0315,0,0,0,76.3755,18.8545Zm-21.0432-5.34c.0649-.13.26-.0649.37-.1375s.0839-.2843.2137-.3222.2758.2,0,.46S55.2235,13.7327,55.3323,13.515Zm-1.2655-.7787a1.8124,1.8124,0,0,1,.649,0,.916.916,0,0,1-.503.2758,2.0092,2.0092,0,0,1-.8112,0A1.9642,1.9642,0,0,1,54.0668,12.7363ZM52.72,11.5356a8.9586,8.9586,0,0,1,.6814.7626c-.0487.0487-.6328.1947-.8112,0a7.4771,7.4771,0,0,1-.5517-1.3142A6.7529,6.7529,0,0,1,52.72,11.5356ZM51.1788,7.82a.68.68,0,0,1,.3245-.3245l-.0811.3245c-.0811.3245-.2434.3245-.2434.3245S51.0815,8.0474,51.1788,7.82Z" style="fill:#390d3b"/><path d="M47.3661,31.4756a8.7025,8.7025,0,0,1-.3732,2.677c-.26.3732-.503.5679-.3569.795a.5334.5334,0,0,0,.795,0,2.2869,2.2869,0,0,0,.5354-1.233c.0649-.503.0649-3.18.146-3.4721s.292-2.616.3245-3.1089a1.2548,1.2548,0,0,0-.6652-1.0932c-.3732-.26-.3338-1.0011-.2561-1.2793a9.54,9.54,0,0,1,.9235-1.9656,3.35,3.35,0,0,1,1.6365-1.4278c.8761-.3245.9248-.6652.6165-.941s-1.3791-.0649-1.8172.3894a18.2265,18.2265,0,0,0-2.06,3.44,20.9818,20.9818,0,0,0,.357,4.2021A26.0005,26.0005,0,0,1,47.3661,31.4756Z" style="fill:#390d3b"/><path d="M50.0756,23.0713c-.014-.4541.0324-1.0708-.5192-.8924a3.8024,3.8024,0,0,0-1.4927,2.2552,1.3216,1.3216,0,0,0,.5354,1.444c.4056.2434.3083.9086.2434,1.4765s-.3083,2.7419-.3245,3.2935-.0487,1.4116-.0973,1.801a1.7356,1.7356,0,0,0,.3075,1.3628c.3414.3407.601.2921.6659,0,.1136-.6-.3358-.9734-.3382-1.5413a20.7229,20.7229,0,0,1,.3058-2.742c.13-.6489.4705-3.1962.4705-3.8452s-.0811-.8923-.4867-1.0383a.6918.6918,0,0,1-.29-.9248c.1435-.13.2247.3245.5492.3407S50.0909,23.5689,50.0756,23.0713Z" style="fill:#b55069"/><path d="M48.6154,34.9152c.2365-.208.3731-.3732.2109-.6328a.4584.4584,0,0,0-.5192-.2667c-.1785.04-.5679.7048-.4867.8995S48.4208,35.0862,48.6154,34.9152Z" style="fill:#390d3b"/><path d="M63.9962,5.5a1.3818,1.3818,0,0,0,1.736.0811,1.3681,1.3681,0,0,0,.2921-1.1195.4878.4878,0,0,1,.26-.6165.579.579,0,0,1,.6.4381,2.0657,2.0657,0,0,1,0,.8923,1.6606,1.6606,0,0,1-.3407,1.0708,1.962,1.962,0,0,1-1.9145.6815,2.431,2.431,0,0,1-1.7361-1.1033,2.6317,2.6317,0,0,1,.0812-2.2552,1.9336,1.9336,0,0,1,1.7522-.7139c.5517.0162.649.2272.6328.4056a.5682.5682,0,0,1-.5544.4868,1.3787,1.3787,0,0,0-.987.3894A1.0164,1.0164,0,0,0,63.9962,5.5Z" style="fill:#b55069"/><path d="M64.3045,5.2567a.7945.7945,0,0,0,1.087.1623c.2921-.2109.2434-.8112.1947-1.0384s.1136-.146.1785-.2758a.34.34,0,0,0,0-.4056.2645.2645,0,0,0-.3894,0c-.146.1136-.11.3245-.3067.3732s-.4721-.0649-.7641.1135S63.9313,4.8187,64.3045,5.2567Z" style="fill:#390d3b"/><path d="M65.2455,23.6554a13.5561,13.5561,0,0,0,.3569,1.8982c.0974.4219.1785.5354.2921.5192s.2109-.0324.2758-.6a12.5145,12.5145,0,0,1,.1622-1.2817,2.9362,2.9362,0,0,0,.1623-.941c-.0325-.2759-.2109-.503-.7788-.3894S65.234,23.4311,65.2455,23.6554Z" style="fill:#b55069"/><path d="M65.9756,22.4385h.6977a7.6725,7.6725,0,0,1,0,1.5414c-.0974.5029-.4219,2.45-.4706,2.6121s-.1946.9086.0163.9573.3731-.3245.4867-1.0871.3833-1.6933.4543-2.19c.06-.4188.146-1.3466.1622-1.8334s.0325-.7139-.2271-.8761a2.7408,2.7408,0,0,0-1.3466-.13.5676.5676,0,0,0-.5143.5679C65.2293,22.3736,65.3915,22.4385,65.9756,22.4385Z" style="fill:#390d3b"/><path d="M67.452,16.7221c.6312-.0517,1.1033.0433,1.298-.1082s.1947-.3894.1082-.9951a1.8868,1.8868,0,0,1,.5191-1.6224c.3678-.26.4111-.5192,1.1466-.5409s.5841.2813.8653.3678.5408.0649.649-.1947a2.5921,2.5921,0,0,1,.3894-.9735c.3028-.3677.3677-.7571.173-.8436a1.3813,1.3813,0,0,0-.9951,0,10.2353,10.2353,0,0,0-2.2282.93,5.6035,5.6035,0,0,0-1.4493,1.3845,7.6638,7.6638,0,0,1-1.2547,1.4926,1.579,1.579,0,0,0-.6058,1.1033c.0433.2379.26.3028.4976.2163A3.247,3.247,0,0,1,67.452,16.7221Z" style="fill:#b55069"/><path d="M69.6153,14.3478a2.4669,2.4669,0,0,0-.411,1.5955,8.3811,8.3811,0,0,0,.1826,1.7624c.1419.3576.4664.12.488-.1183s-.1118-.5568-.12-.9728a1.9986,1.9986,0,0,1,.4657-1.2986c.1546-.2136.2164-.5409.4543-.5409s.1731.2813.5841.1515c.2032-.0642.3461-.7139-.13-1.0168A1.2268,1.2268,0,0,0,69.6153,14.3478Z" style="fill:#390d3b"/><path d="M70.07,16.0731c.1833-.3847.3029-.649.6057-.649s.4976.26.5408.649a.6276.6276,0,0,1-.3245.7139c-.26.173-.2379.5192-.3461.6273s-.3894.0866-.4759-.2163A1.9241,1.9241,0,0,1,70.07,16.0731Z" style="fill:#390d3b"/><path d="M69.7235,12.1792c.7355-.3461,1.6657-.5192,2.2281-.8653s.6058-.4975.6058-1.0816a26.093,26.093,0,0,1,.2812-3.4829,5.1389,5.1389,0,0,1,1.5792-2.16,3.2082,3.2082,0,0,1,2.1632-.5443,1.2815,1.2815,0,0,1,1.1466,1.2114c0,.4327-.1947,3.418-.3461,4.3482s-.3462,5.0671-.3894,5.9191-.2164,1.4793.3677,2.085a15.546,15.546,0,0,1,1.7523,2.25c.3461.5841.8869,1.7739,1.1465,2.358s.3678.93.5841,1.0167.5408-.0865.8-.2379a1.03,1.03,0,0,0,.5624-.887c0-.4543-.4542-1.4926-.411-1.6873s.2164-.3461.5841-.3678,3.0719-.0865,3.7208-.0649c0,0-.6273.5192-.4975.6706s.4975.0217.6706-.1081a.6107.6107,0,0,0,.2163-.26.891.891,0,0,0,.2164.3894c.13.0865.4975-.3678.6706-.4111s.0649.1947.1947.238.4975-.1514.7355-.3028a6.3647,6.3647,0,0,1,.6922-.3462s-.3245.5192-.1947.6274,1.2764-.6706,1.3629-.6274.0432.3462.2163.3678.3029-.13.6706-.3894a3.48,3.48,0,0,1,1.8172-.26c.6922.0216,1.0816.0216,1.1032-.13s-.3244-.3894-1.0167-.3678-1.6224.238-2.1849-.3461-.5841-.26-.5841-.0432-.4543,0-.7571-.2164-.0433.3462-.2813.3245-1.0383-.9085-1.2547-.9085.1947.8436.0649.9518-.9951-.93-1.2546-.8653.3461.7355.1514.8-.9086-.7788-1.1466-.7572.4327.7356.2813.887-.6057-.0865-1.1682-.1082-3.3314.0217-3.3314.0217-.8653-4.7592-1.1466-5.9923a67.7224,67.7224,0,0,1-.8436-7.5066c.1081-.26,1.0167-.5624,1.19-.822a1.0411,1.0411,0,0,0-.1947-1.1465c-.3029-.238-.8653.4759-1.1682.4543s.0649-.7356.13-1.2331.0865-1.2547-.5625-1.2763-.9951.2163-1.0383.6057.1947,1.5792.0865,1.6657-1.32-1.5792-2.531-1.4278-2.1417,1.4927-2.5094,1.8821S70.221,7.1388,69.94,7.6363s-2.0551,3.7859-2.4229,4.64a21.43,21.43,0,0,1-1.1032,1.9794c-.1731.3461-.1515.6489,0,.7571s.5624-.0649.7787-.3461.4111-.8221.6923-1.1249a5.1841,5.1841,0,0,1,1.0816-.9951C69.3125,12.3739,69.7235,12.1792,69.7235,12.1792Z" style="fill:#390d3b"/><path d="M74.5908,6.6521A3.3565,3.3565,0,0,1,75.97,5.5812c.4219-.1135,1.1357.0974,1.3142,0s.4543-.438,0-.6814a2.3015,2.3015,0,0,0-1.8009-.0973,6.6448,6.6448,0,0,0-1.8821,1.6711,4.2933,4.2933,0,0,0-.5354,1.9307,6.5911,6.5911,0,0,1,.0974.9248c-.0325.2109-.0649.795.3407.8112s.4705-.26.5029-.5678A16.3888,16.3888,0,0,1,74.12,7.9013,3.1108,3.1108,0,0,1,74.5908,6.6521Z" style="fill:#b55069"/><path d="M74.8018,6.8954a1.7815,1.7815,0,0,0-.211,1.3791c.13.1785.4056.3732.6166.2758s.09-.79.09-.9572a.9841.9841,0,0,1,.5752-.86c.3082-.1136.819-.0649.8394-.4543s-.4176-.5516-.7908-.3083A5.9661,5.9661,0,0,0,74.8018,6.8954Z" style="fill:#390d3b"/><path d="M75.8077,7.216c.1878-.1285.5029-.24.6-.1746s.13.3408-.0811.5679-.5539.3894-.7069.2758S75.6068,7.3535,75.8077,7.216Z" style="fill:#390d3b"/><path d="M76.712,20.4916c.2638,0,.3774.146.491.3731a13.6064,13.6064,0,0,1,1.1357,2.6771,12.1731,12.1731,0,0,1-.0973,3.0178,13.3679,13.3679,0,0,1-1.2493,2.8086.5682.5682,0,0,1-.9411-.3587,17.8453,17.8453,0,0,1-.1135-2.7582c.0486-.7463.1135-2.92.1622-3.6343a12.3736,12.3736,0,0,1,.0649-1.8009A.5351.5351,0,0,1,76.712,20.4916Z" style="fill:#390d3b"/><path d="M78.89,24.9209a9.8041,9.8041,0,0,1-.8112,4.0074C77.43,30.1452,76.8623,30.5021,76.83,31.2s.0649,1.0059.4219.99.6-.2272.9734-.8437a23.052,23.052,0,0,0,1.5089-3.05,6.9169,6.9169,0,0,0,.3993-1.8009,9.8231,9.8231,0,0,0-.2641-3.5263,19.0937,19.0937,0,0,0-1.48-3.2556c-.3641-.6041-.6185-1.1211-1.3161-.99s.6814,1.5089,1.1682,2.8069A6.8972,6.8972,0,0,1,78.89,24.9209Z" style="fill:#390d3b"/><path d="M80.9508,24.7262a2.0886,2.0886,0,0,0,.9248,1.6062,3.6649,3.6649,0,0,0,1.4116.6328c.3245.0044.3894-.1379.3894-.2921a.5089.5089,0,0,0-.3083-.5354c-.6206-.3691-.2885-.3925-.0892-.3407.2028.0527.32-.0811.219-.4381a1.4729,1.4729,0,0,0-.26-.6327.2993.2993,0,0,0-.4056,0c-.0974.0973-.3894.2993-.5192.2794s.0325-.1983.146-.247a1.8182,1.8182,0,0,0,.6328-.4056.8422.8422,0,0,0,.0811-.8274c-.1622-.4056-.3083-.649-.5678-.6166a4.1359,4.1359,0,0,0-1.1358.649A1.7479,1.7479,0,0,0,80.9508,24.7262Z" style="fill:#390d3b"/><path d="M80.95,27.3329c-.0022.4327-.0319.649.1844.8329s.9627.8328,1.2223,1.0816.5083.4976.649.4976a.499.499,0,0,0,.5191-.3768,3.848,3.848,0,0,0,0-1.224c-.0757-.1947-.5624-.3786-.8544-.5625s-.8113-.6382-1.0168-.7463-.4326-.1839-.5841-.0541S80.9516,27.0733,80.95,27.3329Z" style="fill:#390d3b"/><path d="M80.3451,29.3682c.0919-.1672.1631-.4163.2164-.5318.0261-.0566.1307-.0863.2514-.0921a.9922.9922,0,0,1,.3543.0123,11.8926,11.8926,0,0,1,.8437.9127c.2271.2163.7138.7138.7787.79a.4618.4618,0,0,1,.119.3569c-.0216.1514-.119.66-.1622.79s-.0649.3245-.2813.3461a.6345.6345,0,0,1-.53-.2488c-.1838-.173-.8-.7355-.941-.8869a2.2774,2.2774,0,0,0-.5841-.465.3251.3251,0,0,1-.228-.3246A1.8617,1.8617,0,0,1,80.3451,29.3682Z" style="fill:#390d3b"/><path d="M80.7961,31.387a10.0224,10.0224,0,0,1,.99,1.0864,1,1,0,0,1,.13.8193c-.1379.26-.26.43-.5841.43a1.8112,1.8112,0,0,1-.9816-.3164c-.2271-.1785-.511-.4867-.7787-.4867a1.3015,1.3015,0,0,0-.7464.3894,5.25,5.25,0,0,1-1.0951.5678c-.2921.1136-.6409.17-.7545.0811s-.0081-.511.1379-.657.6247-.8032.9086-.8924.4381-.0649.576-.1785-.0325-.3407.2352-.6165.649-.6733.7869-.8031a.36.36,0,0,1,.5111,0C80.3019,30.9645,80.6382,31.25,80.7961,31.387Z" style="fill:#390d3b"/><path d="M78.0142,35.548a2.42,2.42,0,0,0,.6571-.1461,6.2519,6.2519,0,0,1,.9654-.3407,2.0315,2.0315,0,0,1,.6652,0,1.0529,1.0529,0,0,0,.7057.0162c.1947-.1054.3-.2028.2921-.3488s-.357-.5369-.73-.7268a2.0908,2.0908,0,0,0-1.01-.3278,3.0338,3.0338,0,0,0-1.1481.3894,5.061,5.061,0,0,0-1.0384.649c-.1541.1947-.0081.3813,0,.4624a.9062.9062,0,0,0,.0974.3C77.5518,35.6047,77.86,35.5585,78.0142,35.548Z" style="fill:#390d3b"/><path d="M100.2256,31.5405c.5217.12.6328.0162.795.1622.0734.0661.0487.4219,0,.5354s-.0162.2434.2109.2921.3894.0324.4219-.146a.6636.6636,0,0,0-.1136-.4705c-.0811-.13-.08-.3732.1221-.3732a3.3576,3.3576,0,0,1,.5755,0,.284.284,0,0,1,.1785.2758,13.7975,13.7975,0,0,1,0,1.6387c-.0649.1622-.1785.941-.6652.9735a.852.852,0,0,1-.9735-.5192c-.1622-.4056-.2271.1135-.2109.3894s.0974.9572-.3407.9734a5.9251,5.9251,0,0,1-1.4278,0c-.2271-.0973-.3245-.2758-.3082-.6652a5.0017,5.0017,0,0,0-.0812-1.1842,3.8911,3.8911,0,0,1-.2271-1.2332c.0325-.4219.146-.86.3407-.86s.503-.0649.6166.2109-.1785.503.0811.5354.2737-.1082.2469-.2913C99.4144,31.4269,99.8038,31.4431,100.2256,31.5405Z" style="fill:#390d3b"/><path d="M99.9822,30.7293c.2426-.0193.73-.1136.9086-.1136a5.9648,5.9648,0,0,1,.7626,0c.146.0324.1946.0811.1946.2271s-.0973.4248-.5516.48a7.4114,7.4114,0,0,1-1.6873-.0745,3.7614,3.7614,0,0,1-1.1033-.2109c-.3453-.1623-.3569-1.8982-.47-2.71s-.3083-2.9528-.4056-3.8127-.6-5.8409-.6977-6.7332a11.655,11.655,0,0,0-.9735-3.8777,8.4084,8.4084,0,0,0-1.0708-1.233c-.0811-.1785-.0811-.4868.0974-.5841s.438.13.6652,0a1.1254,1.1254,0,0,0,.4543-.7139,11.1252,11.1252,0,0,1,.7463-2.2444,4.0674,4.0674,0,0,1,2.3228-1.7306,3.2685,3.2685,0,0,1,3.2584.5678c1.4116,1.0384,1.0871,1.72.9411,1.8334s-.4706.0325-.7788-.3407a2.6976,2.6976,0,0,0-2.093-1.2006,2.727,2.727,0,0,0-2.45,1.736,10.051,10.051,0,0,0-.3894,3.05c.0325.6328-.13,2.8555.9086,3.6343s1.5251.4219,2.0118.5841.1785.86-.0162.9086a1.5025,1.5025,0,0,0-1.12,1.1681,26.9622,26.9622,0,0,0-.4056,2.9205c-.0973.9734-.292,3.05-.3245,4.1048s-.1335,3.4008.3083,3.9588A1.1053,1.1053,0,0,0,99.9822,30.7293Z" style="fill:#390d3b"/><path d="M100.0147,30.1127a5.55,5.55,0,0,0,1.6387-.1622.8285.8285,0,0,0,.3893-.795c-.0649-.26-.584-.26-.7463-.1785s-.9572.3732-1.3791.1136-.3245-.7463-.3082-1.2169.26-2.5959.2758-2.9041c0,0-.3894,2.9041.1136,3.2286a1.276,1.276,0,0,0,1.0383.3083c.3407-.0487.3083-.0973.3083-.2434s-.0649-.3407-.3732-.4867a.7352.7352,0,0,1-.5192-.8275c.0487-.5029.0649-.86.1136-1.2817s.2024-1.9632.2553-2.4823a5.7345,5.7345,0,0,1,.54-2.19,2.7441,2.7441,0,0,1,.6165-.5191,2.39,2.39,0,0,0,.0775-.6328,2.2965,2.2965,0,0,0-.6778,0,1.2572,1.2572,0,0,0-.5559.5516,4.2828,4.2828,0,0,0-.2553.8113,4.48,4.48,0,0,1,.2553-1.0871,9.1035,9.1035,0,0,1,1.0427-1.1519,2.1092,2.1092,0,0,0,.5354-.8924c.0162-.2433-.0487-.5029-.2272-.5029a1.0062,1.0062,0,0,0-.8112.3245c-.3569.3407-.8761.6976-1.0546.9085a2.573,2.573,0,0,0-.7188,1.2331c-.06.5354-.206,1.5413-.2709,2.3039s-.2109,2.19-.26,2.6933-.0811,1.2979-.1135,2.06a7.3616,7.3616,0,0,0,.0811,2.3039c.1487.4542.3059.7029.5029.7138A4.58,4.58,0,0,0,100.0147,30.1127Z" style="fill:#b55069"/><path d="M101.0205,24.5724l.0007-.0182a17.718,17.718,0,0,1,.2265-2.6835c.1623-.4056.3083-.6166.5679-.5841s.3569.5678.292,1.0546a16.3215,16.3215,0,0,0-.2433,1.6549c0,.438-.24,1.4764-.29,2.0605s.1281,1.0546-.1315,1.1682-.5678.146-.6165-.13A7.7876,7.7876,0,0,1,100.94,25.44,5.6481,5.6481,0,0,0,101.0205,24.5724Z" style="fill:#390d3b"/><path d="M102.93,11.0543a2.026,2.026,0,0,0-1.0817-1.7306,2.505,2.505,0,0,0-2.9525.3461c-.725.8437-.725,2.358-.725,3.5478s-.295,2.3794.8437,3.0935a2.7589,2.7589,0,0,0,1.797.5408,1.64,1.64,0,0,0,1.4262-.649,6.293,6.293,0,0,0,.1647-2.5094c-.0349-.4976-.0387-.9771-.6838-1.1249a6.8225,6.8225,0,0,1-1.07-.292,3.861,3.861,0,0,0-.6179-.1623A6.4548,6.4548,0,0,1,99.88,11.011c0-.4326.1974-1.06.7693-1.06s.7227.0649.82.3029-.8082-.411-.82.5625.096.93.3556.9734.3461-.1514.3461-.3461c-.0649-.8653.2812-.7788.3029-.0216a.3864.3864,0,0,0,.4737.3894s-.0627.3893.1536.5624.649-.0973.649-.0973A9.0435,9.0435,0,0,0,102.93,11.0543ZM100.4365,14.05c.0974.0812.3083.1623.503.32s.13.28-.0974.3128-.4218-.0487-.4218-.1785a2.2335,2.2335,0,0,0-.1136-.4543S100.3392,13.9693,100.4365,14.05Zm-1.4277.2434a8.5781,8.5781,0,0,1-.1133-2.0172c.0009-.0871.0646-.1406.2106-.1406s.4381.0811.4705.2109a8.8581,8.8581,0,0,0-.3035,1.4251,2.4321,2.4321,0,0,0,.3846,1.4953C99.317,15.1213,99.171,14.6994,99.0088,14.2938Z" style="fill:#390d3b"/><path d="M83.947,7.7553a.9453.9453,0,0,1,1.1249-.2271c.5083.2271.6814.703,1.233.4218s.26-.7463,0-.9735A1.9573,1.9573,0,0,0,84.3688,6.23,2.5913,2.5913,0,0,0,82.3353,7.68a2.7687,2.7687,0,0,0-.3785,1.6116c.0324.3894.03,1.1856.8,1.46.5841.2081,1.1357.2595,1.32-.1839s.3461-.9086.0432-1.2764A1.1193,1.1193,0,0,1,83.947,7.7553Z" style="fill:#b55069"/><path d="M84.2066,8.0257a.7274.7274,0,0,1,.8977-.0432.7062.7062,0,0,1,.0649.9194.6955.6955,0,0,1-.9155.1406A.7308.7308,0,0,1,84.2066,8.0257Z" style="fill:#390d3b"/><path d="M84.4878,11.93c.1628.0588.4327-.2163.5408-.7247A2.3586,2.3586,0,0,1,85.71,9.6374a.6809.6809,0,0,1,.9843-.0108c.2638.2355.3565.8062.5949.9518.4948.3022.6883-1.0157.7031-1.2879a5.8421,5.8421,0,0,0-.6814-3.1739c-.5625-.7841-.8868-.9479-2.1525-1.0654a3.8465,3.8465,0,0,0-2.4553.79c-.3786.2488-1.33,1.3629-1.06,1.5684s.66-.1947.8653-.411a2.6283,2.6283,0,0,1,2.1667-1.19,2.1426,2.1426,0,0,1,2.1274,1.2871,1.9025,1.9025,0,0,1,0,1.5576,1.8069,1.8069,0,0,0-1.5684.5093,4.937,4.937,0,0,0-.9085,1.8469C84.1741,11.4762,84.0984,11.79,84.4878,11.93Z" style="fill:#390d3b"/><path d="M86.2725,9.9835c.3241-.0152.8653.5733.8,1.3953S86.7268,12.59,86.359,12.59s-.3894-.4-.3461-.53.238-.2487.2163-.5191c-.0108-.5192-.3028-.4868-.4434-.0758s.173,1.006-.3894.9627-.1659-1.1033-.0884-1.3737S85.58,10.0159,86.2725,9.9835Z" style="fill:#390d3b"/><path d="M91.1561,5.8084c.438-.13.438.1622.941.0973.1938-.025.7626-.1116.8924.001s-.5841.5831-.9167.7291-.8328.4965-1.1439.3063A.6623.6623,0,0,1,91.1561,5.8084Z" style="fill:#390d3b"/><path d="M120.0952,1.6549a4.7154,4.7154,0,0,0-2.3363.7463,20.5818,20.5818,0,0,1-3.2016,1.2331,23.6955,23.6955,0,0,1-4.2617.7788c-1.6549.0865-3.591.2055-4.2833.2163s-3.7641-.13-4.2183-.119a25.0052,25.0052,0,0,1-5.949-.3137c-1.7306-.5191-4.7376-2.823-7.3011-2.8447a5.888,5.888,0,0,0-4.2075,1.5468c-.2055.2163-.2488.7247.1838.649a7.6829,7.6829,0,0,1,2.5852-.119A8.4823,8.4823,0,0,1,89.896,4.9431a3.67,3.67,0,0,0,2.2822.5949c.7139-.0541,1.85.0541,1.417.4326A9.1909,9.1909,0,0,1,91.54,7.1836c-.5084.1823-1.006.4015-.887.6651s.7788.2448,1.2872,0,2.3579-1.2291,2.942-1.5a9.2676,9.2676,0,0,1,2.5419-1.0925,3.5542,3.5542,0,0,1,1.3844.1515,8.0913,8.0913,0,0,1-1.46.2488,6.3275,6.3275,0,0,0-2.38.9842,26.3961,26.3961,0,0,0-2.4661,1.5143c-.3108.2871-.5192.3432-1.2763.3284a7.7461,7.7461,0,0,1-1.5792,0c-.1082-.112.2561-.5855.2163-1.4208a3.2311,3.2311,0,0,0-1.9253-2.92A4.718,4.718,0,0,0,84.0335,3.98c-.4106.1525-.79.5408-1.179.6165-.1384.027-.4137-.012-.4759.0325-.2271.1622-.1544.448.119.5733.26.1189,1.1589-.2238,1.352-.3353a3.7442,3.7442,0,0,1,1.3629-.238,3.0836,3.0836,0,0,1,2.3688.9086,3.0106,3.0106,0,0,1,.822,2.3107c-.0108.4042-.1839,1.3019.0649,1.5507a1.494,1.494,0,0,0,1.32.2488,6.0483,6.0483,0,0,1,2.769-.0974,10.2545,10.2545,0,0,1,2.358,1.1574c.4651.2812.822.2163.8977.0433a8.5868,8.5868,0,0,0,.6166-1.5143c.0432-.3678-.2388-.8835-.9519-.3786-.6417.4543-.9518.27-.2163-.3747a8.06,8.06,0,0,1,4.4455-1.6912,4.4045,4.4045,0,0,1,3.2463,1.0509c.3988.3552.626.7879,1.2533.8527a2.2064,2.2064,0,0,0,1.3737-.26c.4867-.2164,2.888-1.2331,3.4071-1.59s1.2872-1.125,1.6766-1.125-.1623.6166-.5408.8329A16.2438,16.2438,0,0,1,108.1,7.6472c-.7247.2812-2.769,1.1379-2.65,1.3585s1.352-.093,2.2714-.4824,5.7154-2.2481,6.2735-2.477c1.0119-.415,5.7-2.4661,6.36-2.8771A.8171.8171,0,0,0,120.0952,1.6549ZM108.9706,5.8733c-.4056.292-1.6711,1.2168-1.9632,1.3953a6.6577,6.6577,0,0,1-2.1091.9032c-.41-.0594-.2746-.4707-.3516-.7356a1.1644,1.1644,0,0,0-.703-.8c-.3318-.1568-.2272-.3353,0-.3245.587.028,1.3574.1244,1.6819.1244s.9342-.1,1.0005.0108c.0974.1623-.3948.3678-.6706.4976s-.518.3237-.4056.4867c.1082.1569.6662-.0541,1.1844-.3569A10.4313,10.4313,0,0,0,107.9,6.126c.1082-.0905.1082-.2473-.1785-.2527-.2381-.0045-3.7374-.1238-3.975-.146l2.7257-.1623c.8762-.0649,2.0119-.1136,2.3364-.1136S109.3762,5.5812,108.9706,5.8733Z" style="fill:#390d3b"/><ellipse cx="104.9777" cy="6.9325" rx="0.3029" ry="0.3218" style="fill:#390d3b"/><path d="M108.0566,16.7437a8.411,8.411,0,0,0,2.2715-.1081,1.3456,1.3456,0,0,0,.4759-1.0168c.0433-.3028.1465-1.5191.1514-1.9172a6.6092,6.6092,0,0,0-.0645-1.6794c-.1031-.2486-.3627-.3784-.9578-.3606-.3892.0117-1.314.02-1.6818-.0016s-1.6224-.1514-2.0334-.1514c-.357,0-.4551.2163-.4543.4976.0011.4061.4434.3677,1.2006.4326a1.5384,1.5384,0,0,1,1.5467,1.5756c.0217,1.0852-.0432,1.6206-.5138,1.8262a4.1249,4.1249,0,0,1-1.3243.0517c-.601.0186-.7091.8893.048.8518C107.2182,16.72,108.0566,16.7437,108.0566,16.7437Z" style="fill:#390d3b"/><path d="M107.0074,15.6945a1.0322,1.0322,0,0,0,.8491-.26,1.52,1.52,0,0,0,.3624-.93c.0108-.3731.0407-1.088-.3516-1.4061a1.5677,1.5677,0,0,0-1.1249-.4218c-.4653.0024-.8.0486-.8.2758,0,.1362.2053.2336.6869.2379.6057.0055.9626.1785.9464.914s-.292,1.0168-.6814,1.0168-.4219.1514-.4273.3082C106.464,15.5048,106.45,15.6729,107.0074,15.6945Z" style="fill:#b55069"/><path d="M107.2724,14.1911a.6772.6772,0,0,1-.6652.6814.6577.6577,0,0,1-.6976-.6858c0-.3226.0757-.7149.722-.7149C107.1859,13.4718,107.2724,13.8685,107.2724,14.1911Z" style="fill:#390d3b"/><path d="M108.0458,17.4792c.93-.0089,1.86-.0757,2.2606-.0541s.8978,0,.8978.3462c0,.4083-.376.4286-.96.4813a12.4708,12.4708,0,0,0-1.8747.3083,3.47,3.47,0,0,1,1.0067,1.763c.1731,1.0168.13,1.2439.3894,1.3737s.6814.1731.93.3137a.5605.5605,0,0,1,.1893.6787c-.0757.2934-.1541.6409-.6976.6409-.4922,0-.806-.0433-.8045.1352.0013.1568.21.1352.7612.1352.53,0,.822.3677.6922.822a4.472,4.472,0,0,1-.7679,1.4386c-.2812.3137-2.2715,3.591-2.5743,4.24a5.4626,5.4626,0,0,0-.6057,1.7631,1.8692,1.8692,0,0,0,.9843,1.72c.584.292.6706.3028.8653.3028a.9325.9325,0,0,0,1.1681-.6706,5.6176,5.6176,0,0,0,.0866-1.99c-.0217-.4867-.0649-1.7847-.1082-2.0443s-.2163-.5624-.4759-.1081a15.5541,15.5541,0,0,0-.9735,1.99,3.5885,3.5885,0,0,0-.1406.6922c-.0108.2921-.0433.6706.3137.649.1955-.0119.3461-.292.3136-.6057a1.3661,1.3661,0,0,1,.0217-.8112.2584.2584,0,0,1,.411-.0758,1.3365,1.3365,0,0,1,.1731.8978,1.7563,1.7563,0,0,1-.4493,1.2934,1.0345,1.0345,0,0,1-1.0542-.0063,1.3,1.3,0,0,1-.4868-1.233,4.1886,4.1886,0,0,1,.4219-1.8712c.3028-.5517,1.3088-2.2282,1.471-2.4337a.7764.7764,0,0,1,.5949-.3786c.26,0,.4651.0757.5084.4218s0,2.5311.0216,3.0827a27.2305,27.2305,0,0,1,.0433,2.9637c-.0834.5-.3245.8869-1.32.93a5.7666,5.7666,0,0,1-2.8339-.9194c-.3477-.2119-.66-.3894-.66-.79a13.8609,13.8609,0,0,1,.9735-3.1584,4.9836,4.9836,0,0,0,.4651-1.99,13.196,13.196,0,0,0-.7464-3.2882c-.3353-.9085-.7616-1.9927-.87-2.3821a17.4664,17.4664,0,0,1-.59-2.0526,4.1041,4.1041,0,0,1,.0433-1.7387c.1367-.4288.4261-.5923.8815-.7707A6.3007,6.3007,0,0,1,108.0458,17.4792Z" style="fill:#390d3b"/><path d="M111.7342,18.139c-.4543,0-.7588.6706-.7588.6706a1.3966,1.3966,0,0,0-.9718-.2487c-.91.0618-.8221.4759-.6057.71a1.5353,1.5353,0,0,1,.4,1.1939.8806.8806,0,0,0,.2812,1.006c.3569.26.5516,0,.7139-.1872s.9843-1.5975,1.352-2.16S112.1885,18.139,111.7342,18.139Zm-1.0494,1.6117a.1894.1894,0,1,1,.1839-.1893A.1867.1867,0,0,1,110.6848,19.7507Z" style="fill:#b55069"/><path d="M126.252,7.88l-.1739-.0466V7.625l.22-.1158.1158.1158.0464.1158-.0694.1394Zm-1.4028,9.0776-.5216-.0231-.4523-.1739-.22-.2086-.6375-.383-.1391-.1855-.4059-.4287-.1624-.1393-.1274-.22-.2551-.1389-.2665-.406-.2783-.336-.4522-.4176-.29-.3128-.2319-.1394-.22-.29-.3477-.0231-.1045-.3128-.255-.1625-.4058-.29-.4057-.232-.2782-.139L117.87,11.59l-.4058-.2436-1.0434-.4984-.1972-.209-.255-.1389-.4289-.4291-.07-.139-.0927.0231-.3362-.197-.3362-.2783-.0927.0231v1.02l-.07.3825.07.2321-.0233.36.0233.4983-.07.545-.0927.6608-.1274.3826.081.2085-.081.5219.0231.1971-.0231.4983-.07.5219.07.4057-.0928.1389v.1393l-.116.22-.1622-.023-.0464-.0231v-.1971l-.0812-.3479.0812-.5565.0231-.6377v-.5681l-.1043-.7069.1043-.8814V11.0218l-.1043-.6724v-.2086l-.0927-.5219-.0231-.3128-.1855-.2552.0463-.3129.1159-.1855.116-.0462h.3129l.29-.07.2782.2086.4756.3363.5216.2783.4057.336.29.2551.6144.3364.4753.3129.5217.2086,1.09.6608.6841.406.4522.3826.2665.2663.2319.1393.2434.2086.2782.3133.9508.8112.3593.3941.3364.2667.1855.2321.2665.1971.2782.1855.3131.1158.2783.174,1.0781.0927.5448-.0231.371-.197.22-.371.1855-.2206.0233-.2782.0695-.3595-.1158-.4753-.1855-.3129-.1973-.394-.255-.2668-.2434-.3363-.1855-.5215-.1391-.3479-.0464-.1971-.1276-.2086-.0463-.765.0233-.209.1273-.3595.2088-.2086.1855-.15.29-.0465.2667.0465.1392.1274.3361.2086.2319.2436.2086.139.2434.3017.2088.3591.1971.3825.0232.2321.1855.1509.1159.6142.197.6608.0928.4291-.07.545v.4753l-.07.5214-.1739.4522-.2317.4292-.0927.2663-.1973.0927-.452.4292-.3479.232-.3362.2433-.3825.0465h-.36l-.3477-.0465Z" style="fill:#390d3b"/><path d="M113.3011,9.1053l.0886-.479.1526-.2444.2584-.0866h.288l.3619-.087.8284.601.5344.2882.6829.58.594.3252.472.31.5019.2008,1.8033,1.0812.4806.4028.261.26.21.1261.2721.2292.2988.3335.93.7911.3782.4122.3453.277.1681.2107.4937.3467.3285.1261.2352.1467,1.0275.0887.4695-.0215.2768-.1471.19-.32.162-.1962.0179-.2127.0639-.3364-.0977-.4-.1694-.2857-.19-.3788-.2331-.2436-.29-.4114-.3691-1.0553-.1381-.2255-.05-.8175.0351-.2922.177-.4382.2088-.2086.2455-.2008.38-.061.3623.0631.1845.169.3467.2189.2156.2267.2362.169.2434.3018.2269.3854.2247.4675.0144.1447.1775.1443.13.69.1919.64.1045.48-.074.5809.0017.4485-.0837.5973-.174.4522-.243.4534-.1084.3195-.2467.1159-.4273.4056-.75.5252-.4366.0531-.385.0017-.3473-.0449-.5128.0688-.6068-.0379-.5215-.2177-.2036-.1929-.6779-.4254L122.71,16.11l-.5821-.5891-.0977-.1686-.25-.136-.2956-.45-.2644-.317-.4329-.3974-.2809-.3021-.2655-.1773-.1622-.2135-.3932-.026-.1256-.3764-.1919-.122-.4151-.296-.6554-.3541-.5571-.4278-.3848-.2292-1.0883-.5347-.1742-.1843-.2737-.1591-.4623-.4716-.0124.0029-.41-.24-.1111-.0911v.674l-.0643.37.0664.2206-.0258.3974.0235.4749-.1642,1.2449-.1126.3471.0744.1912-.0853.55.02.1682-.0219.533-.0669.5079.0783.4572-.1039.1554v.1278l-.21.3978-.42-.0874-.117-.0582V16.217l-.0848-.3631.087-.5961.021-.615,0-.56-.1061-.704.1076-.909-.0015-1.4477-.1018-.64-.0025-.2408-.0894-.4848-.0212-.2741Zm.47-.2927-.0274.1839.17.2341.0274.3727.09.5.0033.2457.1018.64.0025,1.5046-.1025.8781.1006.7593.0489-.3154-.0881-.2267.1513-.4547.1534-1.1658-.0248-.4616.0213-.3447-.0736-.2448.0789-.4325-.0035-1.1472.3564-.0886.4182.3463.2331.1339.1742-.0433.13.26.3834.3833.2807.1649.17.18,1.0077.4814.4235.2531.5427.42.2428.1167.4164.2378.7323.4976.0835.2494.3021.02.254.3339.2432.1558.29.3129.4407.406.2976.3562.251.38.261.1422.1391.24.1352.1159.4217.4439.1295.1707.6389.39.19.18.3811.1463.4687.0206.531-.0709.3757.0507.3315-.002.3025-.0384.647-.4481.4793-.4443.117-.0553.0635-.1822.2453-.46.1537-.4044.0664-.4972-.0018-.4472.0665-.5355-.0851-.3941-.1929-.6451-.1066-.5594-.1937-.1575-.0281-.28-.3823-.6967-.2043-.2493-.2182-.1517-.2131-.2243-.3133-.1942-.1231-.1092-.1729-.03-.1991.0322-.1418.115-.1585.16-.1035.2919-.0206.1851.0437.676.1259.2259.0464.197.13.3179.1781.5.2259.3121.2727.296.1973.394.2017.3574.1268.52-.0783.4048-.0258.3227-.2286.2721-.2306.3937-.5134.2494-.5448.0231-1.1559-.0977-.303-.19-.3365-.1306-.5926-.4263-.1705-.2135-.3176-.2519-.3842-.4171-.9318-.7932-.2991-.3335-.2228-.1884-.2438-.15-.2665-.2663-.4393-.3706-1.747-1.0475-.5283-.2127-.4753-.3129-.6377-.3545-.6744-.5734-.5029-.2679-.7016-.5029-.2426.0523-.2865.0058Zm.2911,6.857-.0239.1657.0255.1093L114.1,15.89Zm11.8047-7.674v-.498l.4708-.2477.2725.2968.0814.2036-.17.3409-.3244-.007Z" style="fill:#390d3b"/><path d="M120.4784,28.1337l-.4984-.0231-.3364-.1855-.3592-.0231h-.2088l-.2086-.1158-.4753-.07-.174.07-.2549-.07-.4986-.1278-.4522-.023-.5448-.1625-.4522-.0927-.5913-.2432-.1971-.0231-.1158-.1624-.2319-.1159-.22-.3133-.4059-.162-.1391-.1162-.07-.29-.116-.1855-.1507-.0577-.3013-.6147-.1973-.568v-.4753l.1276-.2552v-.2667l.1624-.4056v-.2552l.1392-.29.29-.6142.1391-.22.3129-.3014.371-.568.3131-.174.0927-.1158.1507-.0928.2782-.1393.5914-.2432.742-.2086.6608-.29.7651-.162.7535-.1971.8581-.0927.6839-.1163.4753-.0927h.4522l.3825-.0462.3131.0462.5217.1162h.2088l.2434.1159.6608.0461.6839.174.4522.1624.6144.1389,1.0782.4523.4522.22.4174.3013.29.3129.1855.0928.29.4522.3361.4984-.0463.406-.0347.6608-.2551.3595-.1392.2547-.1739.2206-.1158.0692-.3131.1855-.1159.0235-.2088-.0466-.197-.0927-.0928-.1855-.3246-.4522-.4753-.4753-.4289-.4522-.197-.139-.07-.1508-.1855-.0928-.1159-.0927-.4289-.29-.4522-.2548-.7884-.406-.5911-.2086-.4986-.29-.29-.2086-.5217-.0466h-.5913l-.4753-.0812-.8232.0235-.7187.0808-.7072.1393-.6493.1855-.4289.1274-.2319.07-.4522.1158-.5217.1624-.4058.2667-.452.3245-.3015.3594-.2668.36-.1855.3825-.1737.4753-.0464.3014-.0464.22-.1624.5911.1624.545.0928.4287.3592.4522.3595.4988.1855.0231.3131.3014.5911.22.4059.0466.0927.1158.2667-.0231.2086.0928.6377.1274h.7651l.4753-.0813.5217-.0692.4522.1505.6377.0927h.6608l1.2637-.2432.3595-.0928h.2086l.4753-.2782.4522-.174.4289-.2086.1158-.1739.1973-.0466.3477-.371.3825-.2432.3826-.1624.3827-.0928h.371l.1971.0231.0927.1158v.0928l-.0463.0927-.2435.1163-.5682.2432-.4753.29-.3014.3479-.29.2436-.1625.0928-.4983.3825-.4523.2317-.116.1158-.2434.1047-.452.0928-.3828.1389-.4289.1159-.4638.0927-.4289-.07-.1739.07Zm5.2171-8.7528-.0463-.1971.1042-.1393.1855.1158-.07.2206Zm-8.301,3.3271-.1507-.0347v-.1624l.1507-.1158.1391.1624Z" style="fill:#390d3b"/><path d="M113.0678,24.4942v-.5607l.1276-.2551.015-.2952.1474-.3681.0208-.3059.4283-.9024.1836-.2827.2956-.2849.3865-.5915.3225-.1794.1208-.131.1507-.0928.2945-.1484.6054-.25.7653-.2164.6742-.2935.7651-.162.7438-.1946.8888-.0985,1.1415-.2066.4926-.0037.3854-.0482.3409.05.5141.1142.2764.0206.2073.0985.6208.0433.7212.18.4716.1682.2995.0668-.0538-.2284.2795-.3739.4887.3055-.15.4757.8393.35.4631.2255.4483.32.2942.312.204.1018.6981,1.06-.0552.4835-.0367.709-.2906.4094-.126.2337-.251.3-.4951.2808-.16.0321-.2966-.0713-.2632-.1237-.1256-.251-.3073-.4234-.8858-.9056-.2119-.1443-.0623-.1348-.1568-.0837-.1159-.0927-.4151-.28-.4378-.2457-.7813-.4024-.5648-.197-.5344-.3063-.26-.1859-.4644-.0416-.5726.0008-.5108-.0841-.7817.0264-.7012.08-.69.1365-2.2337.6463-.3811.2507-.4231.3038-.2844.3393-.2591.35-.1651.3488-.1653.4559-.0845.4926-.15.5454.1451.4872.0864.3962.3288.4139.3114.4316.1641.0206.332.3194.526.1959.4666.0535.0765.0957.2086-.0177.2368.1051.6149.1228.7236-.0041.44-.0783.5775-.0767.4984.1657.6014.0841.63-.0021,1.2237-.2395.4-.0964h.1513l.426-.2494.4829-.1888.3607-.176.13-.1958.2162-.0512.345-.3582.3826-.2432.4132-.1785.4652-.11h.371l.3078.0347.1931.2411v.2169l-.101.202-.309.1475-.5761.247-.42.2584-.28.3232-.3135.2671-.1936.1146-.4744.3665-.4547.2366-.1587.1373-.2845.1179-.452.0927-.3532.13-.4459.1212-.5148.1035-.4088-.0664-.198.0631-.7169,0-.5476-.0252-.3381-.1863-.3122-.02-.25,0-.2229-.1237-.3806-.0556-.187.0746-.8187-.2152-.46-.0251-.5448-.1625-.4343-.0882-.6016-.244-.2618-.03-.14-.1958-.2325-.1163-.2148-.3054-.4048-.1728-.1927-.1611-.0777-.324-.06-.0965-.1622-.0623-.3378-.6892Zm.4221-.4609v.39l.1855.5343.2548.5165.1393.0532.18.3083.0532.2218.06.05.4021.16-.2539-.3525-.3838-.4827-.1033-.477-.1756-.587.2218-.8574.0443-.29.1841-.5157.1939-.4019.2871-.3933.348-.4052.9182-.6212.5217-.1625,1.767-.5.7243-.1434.736-.0837.8407-.0248.5167.0841.5559-.0028.5982.0527.3366.242.4814.2787.5553.1921,1.274.676.5551.3875.232.1158.0771.167.1507.1064.9318.9505.3469.4782.0761.1484.1111.0524.142.0317.0369-.0078.3642-.216.15-.19.12-.2251.2329-.33.07-.9415-.5539-.8414-.1939-.1121-.29-.3129-.3861-.2737-.4213-.202L125.637,19.83l-.5794-.1278-.4769-.1694-.6646-.1682-.7-.06-.2-.0952-.2072-.0049-.7915-.1559-.3545.0429-.4775.0017-.4349.089-.6889.1171-.8708.0944-.7228.1912-.7536.16-.6408.2815-.77.2185-.5681.2354-.3671.1966-.1325.1406-.2673.1484-.3729.561-.2943.2837-.1255.1986-.3964.84-.015.2852-.1474.3681v.2758Zm1.6409,2.4812-.1872-.0231.0773.11.2313.1155.0919.129.16.0264.5914.2432.4256.0849-.0948-.1183-.369-.0486-.6638-.2659Zm1.7293.6748-.29.0251.4773.1418.4271.0219.73.1859.1609-.0647.6035.1022.1608.0895h.1542l.4612.0494.2933.1616.4444.0206h.6617l.19-.0762.4491.0729.4263-.0853.4153-.1125.3658-.1336.46-.0969.1869-.08.14-.1258.4522-.2316.4662-.362.1861-.1088.2587-.2218.3273-.3665.4753-.29.6687-.2923-.0151-.0017-.3209.0013-.3586.0869-.35.1513-.3288.2123-.3734.3987-.1783.042-.1014.1525-.48.2333-.4687.1814-.4938.2923h-.2391l-.3335.0862-1.2765.2461-.7008.0037-.668-.0948-.4417-.1439-.9417.143-.8006.0029-.7234-.1455Zm.1727-4.3478V22.407l.3918-.3013.3916.4572-.35.378Z" style="fill:#390d3b"/><path d="M128.3851,34.5912l-.1391-.0461h-.2434l-.1855-.07-.4059-.1158h-.29l-.1855-.1163-.4289.0928h-.4753l-.4986-.1159-1.0433-.1043-.4753-.0927-.5914.0231L122.8551,34h-.4986l-.4289.0231-.4753-.07-.4059-.0231h-.6375l-.4289-.1158h-.4522l-.545-.0927-.452-.1043-.9739-.1163-.568-.0231-.2434-.0231-.1625-.1158-.3594.1158-.5217-.0465-.568.0465h-.5217l-.2088.0231-.1507-.0231-.3013.139-.2667.0812-.4059-.0812-.1158-.1159v-.1855l.1158-.15.4523-.1394.4058-.0927.6608-.0928.4522-.0231.7651-.07.7535.0231h.7651l.9739.07h2.2261l.9275-.0927.7651-.1274.7071-.07.6493-.1389.6375-.0927.7538-.0235.4056.0235.3362-.0235.1391-.0693.0927-.1509-.0927-.3479-.1855-.3129-.29-.2436-.255-.3013-.6956-.5219-.3477-.2432-.22-.07-.1855-.1158-.313-.1624-.2086-.3826-.0464-.22.0231-.2321.116-.1158.2086-.1043.29-.0231.2783.0812.3825.162.22.1158.4522.1163.3711.0692.3361.1509.4289.3248.1855.29.3362.3129.1855.1389.22.0928h.1622l.29.1162.1391.1274.1853.2321.1045.1855.6839.5561.3364.209.2316.1389.07.1971.1739.232.07.4057-.0231.3825-.1276.3826-.1624.3479-.2316.3129-.3131.209-.2667.0461Zm-.9042-4.4866-.1391-.139-.0464-.232.2086-.1971.22.07.0928.2667-.1507.2086Z" style="fill:#390d3b"/><path d="M112.9519,33.5656V33.221l.2006-.26.5163-.1592.4211-.0968.6785-.0961.4708-.0247.7566-.0693.7791.0223h.7587l.989.07,2.211,0,.9064-.0915.7515-.1258.7212-.0717.6258-.1352.6513-.0952.7775-.0256.4243.0239.315-.0441.0136-.0223-.0618-.232-.1524-.2569-.2623-.2205-.2643-.3079-.9926-.7284-.2377-.0825-.1855-.1158-.3557-.1839-.2608-.4963-.0531-.2523.0338-.34.2242-.2085.2863-.1258.3283-.0264.3156.0924.62.282.4287.11.4048.0812.3772.1752.4792.3793.1713.2671.4633.4036.1451.061-.2242-.2239-.0818-.41.3837-.3624.44.139.1636.4707-.2687.3723-.2195.0272.3722.1636.1391.1274.2078.2564.1028.1777.6538.5317.6087.37.0841.2383.1853.2469.082.48-.035.4609-.1276.3826-.1929.4068-.2841.3628-.3943.2411-.2667.0466-.3483.0029-.1391-.0462-.2836-.0136-.1855-.07-.361-.1023h-.3211l-.1643-.103-.3895.08-.5231-.0053-.4986-.1159-1.0166-.1-.47-.0907-.567.0222-.5934-.047-.4815.0009-.4176.0226-.5173-.0713-.3871-.0214-.6536,0-.4289-.1158h-.4242l-.58-.0957-.464-.1067-.9514-.1126-.863-.0507-.1222-.0874-.2993.0965-.5643-.05-.532.0466-.539.0008-.2133.0247-.1155-.0177-.2436.1125-.3444.1068-.5206-.1039Zm.4222-.2011.0088.035.2911.0585.216-.0659.332-.155.1859.0284.181-.02.545-.0012.5507-.0458.5145.0429.42-.1352.2026.1443.187.0177.5567.0223.99.1178.4744.1081.533.09.4448-.0029.429.1159h.6094l.4178.0235.4941.0713.3869-.0247.51,0,.5851.047.59-.0247.4995.0973,1.0239.1018.5015.1146h.4289l.4908-.1059.2067.1294.2871.0083.5714.1772.272.0107.1066.0355h.2443l.1855-.0346.2465-.1645.1972-.2663.1534-.329.11-.3331.02-.331-.0569-.3314-.1733-.2473-.0445-.1258-.5056-.31-.7565-.6319-.1045-.1855-.2531-.2808-.2182-.0873-.2033-.0165-.265-.1183-.1855-.139-.3873-.3681-.1653-.258-.38-.2878-.2914-.1306-.3463-.0648-.5118-.1368-.22-.1159-.3665-.1545-.2172-.0619-.2109.0165-.18.1092-.0124.1245.0332.1579.1628.2989.4331.2424.2525.09.3477.2433.7358.5585.255.3014.31.2724.2077.3661.1163.4357-.1719.2795-.2727.1179-.3362.0235-.4324-.0235-.735.0239-.6138.0907-.6355.1365-.7306.0733-.7511.1254-.9411.0944-2.2471.0012-.9889-.07-.75,0-.76-.0231-1.2.0924-.6422.0911-.3882.0894-.3728.1155Zm14.1845-3.5893-.0334.0317.0276.0713.0289-.04Z" style="fill:#390d3b"/><path d="M125.6722,35.4491l-.1391-.0693-.0927-.2205.0463-.1389.1625-.0231.22.0927v.2432Zm-.73,9.3559-.4522-.0462h-.429l-.4522-.0927-.568-.0812-.6144-.1159-.8115-.3248-.4059-.0231-.1855-.1509-.7071-.2547-.429-.2667-.29-.07-.4983-.2086-.4986-.29-.4984-.3133-.4755-.2317-.452-.3363-.545-.3245-.2086-.2667-.3363-.1389-.3826-.3364-.4056-.4056-.4174-.2782-.3364-.2668-.3592-.3363-.4059-.2317-.371-.1855-.29-.174-.2667-.2321-.0927-.0927.0927-.1736.2436.0693.3593.0235,1.3216.58.6493.4172.1855.197.3594.1855.5681.3364.4289.2317.4986.3363.568.2667.4289.3014.9739.568L121,42.6952l.4058.2086h.2088l.197.1158.5448.2206.545.1855.4752.1389.348.0812h.4289l.4984-.0581h.2667l-.0464-.162-.29-.07-.3594-.0927-.2783-.2437-.452-.2316-.4522-.5219-.3362-.4287-.4174-.8117-.0348-.4984-.0928-.6608.0928-.5915.174-.3826.1855-.5911.22-.4061.3244-.2432.1509-.0231.3941-.232.5565-.1855.4637-.0347.3826-.0927.545-.1159.6028.1159.6375.0461.5217.174.3828.0466.3244.1855.29.22.3592.3479.3711.7185.2436.4061.0925.4753.0233.4407v.58l-.07.5214-.1158.5916-.1739.4983-.2086.2783-.1855.3129-.3362.4988-.1161.0231-.1275.197-.1622.1158-.2783.1625-.3131.22-.5447.3013-.4986.1975-.4986.1158-.4289.0231-.29.0231Zm-12.034-6.5037-.22-.0928.1622-.2667.22.0462v.2205Zm13.17,4.8692.3361-.0231.36-.22.3477-.2548.29-.3364.1161-.2667.0463-.1389.1507-.209v-.359l-.0812-.3133-.1158-.3244-.1161-.4061-.1622-.29-.1276-.0692-.0231-.1394-.1391-.1158-.0927-.1971-.3362-.2782-.3828-.174-.3477-.1624-.22-.1158h-.255l-.22.0927-.2319-.0466-.2667.0466-.0464.0928-.2316.1389-.22.1278-.07.1389-.2318.2783v.4291l.116.3129.2319.1393.29.0462.3362.07.2318.0813.2667.1389.2086.1855.0928.2436.116.3825.0579.3941-.1739.29-.0464.2552v.2667l.29.2667Z" style="fill:#390d3b"/><path d="M112.38,38.3079l.3669-.6031.5342.1117v.5145l-.15.0857.406.0392,1.3216.58.7183.4658.1606.1706.3275.169,1.0005.57.5163.3471.54.2506.4607.3195.9588.5585,1.537.6126.3784.1933h.2154l.2465.1451.5169.2066,1,.3178.3129.0725h.35l-.2733-.239-.492-.27-.4523-.5219-.3427-.4366-.4619-.9271-.0349-.4984-.0954-.6772.114-.6773.174-.3826.1762-.5668.2951-.512.3667-.2749.163-.0248.4-.23.6076-.1958.4638-.0346.9411-.2131.6447.1236.6645.0532.5015.1674.4409.0705.3244.1855.3129.2349.4192.4193.371.7185.2632.4625.0926.4753.027.47,0,.5908-.0715.5494-.1179.604-.2123.5845-.2086.2783-.1728.2939-.3914.5812-.1137.0227-.1336.1793-.1622.1158-.2945.1728-.2981.2106-.5639.3133-.5231.209-.5285.1253-.9858.0515-.463-.0474-.4289.0013-.4732-.0969-.5555-.0791-.6237-.1175-.8183-.3236-.44-.0248-.2107-.1714-.7133-.2618-.4-.2486-.2568-.0618-.5305-.2193-.5234-.3018-.5045-.3174-.4558-.2205-.4854-.3566-.5853-.364-.1742-.2226-.3438-.1542-.3825-.3368-.4155-.4147-.3853-.2518-.35-.2771-.3541-.3306-.3846-.2193-.3607-.18-.304-.1818-.5107-.4671.1793-.3359Zm1.0221.55-.2067-.0136.0595.0519.26.1521.3568.1777.4557.2663.3593.3364.3232.2556.4033.2679.4378.432.3463.3038.3553.1468.2187.28.511.3042.47.3483.4421.2115,1.0106.61.4737.1966.32.0849.41.2552.7478.282.1325.1076.4042.0342.8115.3248.575.1043.5588.08.4436.0907h.4077l.6608.0461.7073-.0457.4622-.1109.4687-.188.52-.29.2939-.2082.4063-.2535.1545-.2387.1183-.0235.6681-1,.1632-.4679.108-.5623.0676-.5091-.0018-.5515-.0231-.43-.0814-.4093-.2249-.3747-.3617-.6992-.3344-.324-.2708-.2036-.264-.1492-.3824-.0508-.4965-.1657-.6111-.0441-.5854-.1113-.88.1987-.471.0375-.5111.1707-.45.2473-.0985.0153-.2453.1838-.1982.3653-.17.5536-.1713.38-.0834.5326.0884.63.0334.47.3976.7733.3145.3949.4188.4831.4584.242.24.2107.717.1776.1573.5495h-.5466l-.4739.0569-.4778.0013-.3716-.0866-.4864-.1422-.5538-.188-.5559-.2247-.1744-.1005h-.2034l-.4512-.2321-1.5469-.618-1.0019-.5816-.444-.3108-.5363-.2486-.527-.3525-.4112-.2209-.5753-.34-.4056-.2226-.1676-.1781-.6276-.4031Zm10.1923,1.2556V39.57l.2653-.3182.087-.1736.4509-.265.0666-.1332.4106-.0717.2071.0416.2424-.0841h.3071l.6052.2981.4281.2028.3924.3508.073.1546.1634.136.019.115.0907.05.2108.3879.1161.406.1115.3117.0936.3842v.427l-.1717.2383-.0363.1084-.1562.3376-.3251.369-.3477.2547-.418.2573-.4046.028-.3432-.0313-.4106-.3776v-.36l.0765-.364.1352-.2251-.047-.3194-.1787-.5331-.1506-.1339-.2435-.127-.204-.0693-.6649-.1339-.2954-.1777Zm.4221-.3908v.315l.0771.2081.1334.08.5952.1113.2587.0886.3372.18.2473.22.1111.2919.1208.3961.0757.5-.193.3212-.0395.2176.002.1348.1705.1571.1671.0148.2678-.0181.3151-.1934.3139-.2308.2534-.2939.1719-.4155.1108-.1538v-.2642l-.0744-.2874-.11-.3062L127.215,40.4l-.12-.2152-.1645-.089-.0272-.1636-.1346-.1381-.0727-.1542-.2783-.23-.89-.4217h-.16l-.241.1014-.2566-.0515-.1228.0215-.0264.0523-.4528.2684-.0678.1232Zm1.1984-4.5543.1127-.338.3494-.05.4031.17v.5041l-.4.235-.3119-.155Z" style="fill:#390d3b"/><path d="M53.4233,42.2434a3.6431,3.6431,0,0,1-3.4009,1.5459,3.2,3.2,0,0,1-2.7392-3.4751q.037-3.0979,3.2586-3.2649,2.3621-.1236,3.0979,1.0941l-1.2243,1.2738q-.8965-1.2-2.6465-.1979-1.4037,1.1934-.2721,2.4363,1.2615.9027,2.09-.08l-.0185-.3034-1.4346-.216.2968-1.3356,3.1226-.0561-.1607,2.5542Z" style="fill:#b55069"/><path d="M53.3182,37.6306l1.9848-.2226v4.2665q-.0309.8472,1.0821.8715,1.144.0557,1.1687-1.4964l-.05-4.0192,1.9787.4889-.0556,3.8584q0,3.2587-3.1783,3.0423-2.7949,0-2.9062-2.69Z" style="fill:#b55069"/><path d="M63.8772,35.8094c.2292.1443-.6648,1.002-.8132,1.1858-.1936.24-.6684.7285-.8605.9182a2.6807,2.6807,0,0,1-.724.5246,1.1691,1.1691,0,0,1-.7016.1736c-.1215-.0611-.1221-.2945-.1012-.53a3.8238,3.8238,0,0,1,.43-1.1805c.16-.2167.67-1.1317.9706-1.1647.1731-.0217.942.0069,1.0966.021A3.2589,3.2589,0,0,1,63.8772,35.8094Zm-3.72,3.5336,1.8179.136.167,5.3177-1.9045.0314Z" style="fill:#b55069"/><path d="M63.8423,43.7893l-.3092.8285-1.2181-.1921.1732-.7106-.7977-.05L61.53,42.917l1.2243-.3092,1.3542-5.5956,1.6262-.1484,2.3126,7.4383-1.96.4147-.1484-.8039Zm1.7128-1.8922-.3339-1.775-.7729,2.0529Z" style="fill:#b55069"/><path d="M72.6166,45.4274l-1.41-1.0882,1.6509-2.9062-2.4919-3.419,1.7932-1.2557,1.7066,2.9062,1.6634-2.9309,1.9786,1.249Z" style="fill:#b55069"/><path d="M79.9254,44.1042l1.07-1.44q1.7684,1.1316,2.6465.2473.7791-.8286-.7606-1.8616a7.4048,7.4048,0,0,1-2.2446-1.5764q-.8779-.7171-.136-2.282a2.7631,2.7631,0,0,1,2.95-.6926,3.7735,3.7735,0,0,1,2.3,1.2928l-.8162,1.1872q-1.9354-1.3172-2.7083-.897-.34.6987,2.09,1.9663,2.4981,1.5273.439,4.3844Q83.2459,46.2812,79.9254,44.1042Z" style="fill:#b55069"/><path d="M90.8329,41.2969l1.2243,1.2738a3.1046,3.1046,0,0,1-2.8815,1.2243q-3.4133,0-3.45-3.0974a3.2,3.2,0,0,1,2.7392-3.4751,3.6428,3.6428,0,0,1,3.4009,1.5458L90.32,39.8566a1.435,1.435,0,0,0-2.3807-.5013q-1.1314,1.2429.2721,2.4363A2.0009,2.0009,0,0,0,90.8329,41.2969Z" style="fill:#b55069"/><path d="M97.1523,38.4992a3.2579,3.2579,0,0,1,0,4.7241,3.55,3.55,0,0,1-4.8972,0,3.2579,3.2579,0,0,1,0-4.7241,3.5493,3.5493,0,0,1,4.8972,0Zm-.5132,2.1052a1.108,1.108,0,0,1-1.5059.0033.9375.9375,0,0,1-.312-.7082.9274.9274,0,0,1,.312-.7049,1.0637,1.0637,0,0,1,.7515-.29.9854.9854,0,0,1,.1608.0123,1.6388,1.6388,0,0,0-.7544-.1731,1.6184,1.6184,0,0,0-1.172.4728,1.58,1.58,0,0,0,0,2.2784,1.6965,1.6965,0,0,0,2.344,0,1.5264,1.5264,0,0,0,.4852-1.1377,1.745,1.745,0,0,0-.0186-.26A.9622.9622,0,0,1,96.6391,40.6044Z" style="fill:#b55069"/><path d="M98.0489,37.6306l1.9849-.2226v4.2665q-.0309.8472,1.0821.8715,1.1439.0557,1.1686-1.4964l-.0494-4.0192,1.9787.4889-.0557,3.8584q0,3.2587-3.1783,3.0423-2.7948,0-2.9062-2.69Z" style="fill:#b55069"/><path d="M104.3683,38.8178V36.8886l6.95-.4889-.0557,2.0966-2.6836.216.4885,5.8684-2.4486.3216.136-6.1653Z" style="fill:#b55069"/></svg>