<?xml version="1.0" encoding="utf-8"?>
<!-- Generator: Adobe Illustrator 19.1.0, SVG Export Plug-In . SVG Version: 6.00 Build 0)  -->
<svg version="1.1" id="Layer_1" xmlns="http://www.w3.org/2000/svg" xmlns:xlink="http://www.w3.org/1999/xlink" x="0px" y="0px"
	 width="784.7px" height="228px" viewBox="0 0 784.7 228" enable-background="new 0 0 784.7 228" xml:space="preserve">
<g>
	<path fill="#FFFFFF" d="M126.8,190.4c-0.5-4.3-1.8-8.5-3.9-12.3c-2.1-4.2-4.4-9.1-4.4-9.1l2.1-2.4c1.6,3.8,3.8,7.4,6.5,10.5
		c4.9,5.8,7.7,13.1,7.9,20.7c0,11.9-11.6,27.9-38.3,27.9c-5.7,0-11.3-0.9-16.7-2.8C20.1,204.2-13.5,140.4,5.2,80.2
		S87.7-13.5,147.8,5.2s93.7,82.6,75.1,142.7c-14.5,46.6-57.1,78.9-105.9,80.2c1.2-0.3,2.4-0.7,3.6-1.3c2.8-1.3,5.5-2.9,8-4.8
		c2-1.5,3.7-3.4,4.9-5.6c56.5-10.7,93.6-65.2,82.8-121.7C205.7,38.1,151.2,1.1,94.7,11.8S1.1,77,11.9,133.5
		c6.7,35.3,31.1,64.6,64.5,77.6c6.3,2.8,13.1,4.4,20,4.5c0,0,30.4,1.4,30.4-25.4 M114.2,62.1l-4.7,43.4c-0.5,2.9-0.8,5.8-0.8,8.7
		c0,3.9,2.7,8,6.3,8s6-3.9,6-8c-0.1-2.5-0.4-5-0.8-7.5L114.2,62.1 M154.7,108.4l-2.7,8.5h-9.1l7.4,5.5l-2.9,8.4l7.3-5.4l7.3,5.4
		l-2.8-8.5l7.3-5.5h-9.1L154.7,108.4z M75.8,108.4l-2.7,8.5H64l7.4,5.5l-2.9,8.4l7.3-5.4l7.3,5.4l-2.8-8.7l7.3-5.5h-9.1L75.8,108.4z
		 M129.8,141.6c10.5,24.7,27,36.7,40.8,36.7c12.2,0.3,22.3-9.3,22.6-21.5c0-0.4,0-0.7,0-1.1c0-11.8-12.1-24.5-12.1-24.5l-2.7,2
		c3.3,4,5.4,8.9,6.2,14c0,1.7,0,14.7-16.8,14.7c-21,0-33.8-22.9-33.8-22.9L129.8,141.6 M98.4,141.6l-4.2-2.5
		c0,0-12.8,22.9-33.8,22.9c-17,0-16.8-13.1-16.8-14.7c0.8-5.1,3-10,6.3-14l-2.5-2.2c0,0-12.1,12.7-12.1,24.5
		c-0.3,12.1,9.3,22.2,21.4,22.5c0.4,0,0.7,0,1.1,0c13.9,0,30.2-12.1,40.8-36.7 M88.7,96.1C68,79.1,48,75.9,35.8,82.2
		c-10.9,5.3-15.5,18.5-10.2,29.4c0.2,0.3,0.3,0.6,0.5,0.9c5.4,10.5,22,16.3,22,16.3l1.5-3c-4.8-2.1-8.9-5.4-12-9.6
		c-0.7-1.5-6.8-13,8.3-20.8c18.7-9.6,40.5,4.9,40.5,4.9L88.7,96.1 M139.6,96.1l2.5,4.1c0,0,21.9-14.5,40.5-4.9
		c15.1,7.7,9,19.3,8.2,20.8c-3.1,4.2-7.2,7.5-12,9.6l1.5,3c0,0,16.6-5.7,22-16.3c5.8-10.7,1.9-24-8.8-29.9c-0.3-0.2-0.6-0.3-0.9-0.5
		C180.3,75.8,160.2,79,139.6,96.1 M91.4,94l3.3-3.5c0,0-19.8-17.2-15.4-37.7C82.7,36.1,95.4,38.9,97,39.2c4.9,1.8,9.1,4.9,12.4,9
		l2.5-2.3c0,0-9.9-14.4-21.6-16.8C78.6,26.3,66.8,33.7,64,45.6c-0.1,0.3-0.1,0.7-0.2,1C61,60.2,69.5,78.6,91.5,94 M136.9,94
		c22-15.4,30.5-33.8,27.7-47.4c-2.2-12-13.7-19.9-25.6-17.7c-0.3,0.1-0.7,0.1-1,0.2c-11.6,2.4-21.6,16.8-21.6,16.8l2.5,2.3
		c3.3-4,7.6-7.1,12.4-9c1.6-0.3,14.4-3.1,17.8,13.5c4.3,20.5-15.4,37.7-15.4,37.7l3.3,3.5 M114.7,133.9c0.6,1,1,2.1,1,3.2
		c-0.6,2.1-1.6,4.1-3,5.9l-3.9,5.7c-2.2,3.5-3.6,7.4-3.9,11.6c0.1,5.6,2.6,11,6.8,14.8c3.9,3.4,7.7,6.6,7.7,6.6l1.1-1.3
		c-4-5.8-6.2-12.7-6.3-19.8c0.1-4.9,1.5-9.8,3.9-14.1c0.9-1.7,1.3-3.7,1.3-5.6c-0.4-2.9-1.6-5.6-3.6-7.7l-1.2,1"/>
	<path fill="#FFFFFF" d="M275.5,39.5c-0.5,0-0.7,0-0.8,0.5L269,64.5c-0.1,0.4-0.5,0.7-1,0.7H263c-0.5,0-0.9-0.3-1-1l-9.3-45.9
		c0-0.7,0-1,0.9-1h7.4c0.5,0,0.9,0.3,1,0.8l3.6,18.9c0.1,0.5,0.5,0.8,1,0.8c0.5,0,0.9-0.3,1-0.8l4.6-19c0.1-0.5,0.6-0.7,1-0.7h4.4
		c0.5,0,0.9,0.3,1,0.7l4.8,18.9c0.1,0.5,0.5,0.8,1,0.8c0.5,0,1-0.3,1-0.8L289,18c0.1-0.5,0.5-0.8,1-0.8h7.3c0.7,0,1,0.3,0.9,1
		L289,64.1c0,0.7-0.5,1-1,1h-5c-0.5,0.1-0.9-0.2-1-0.7L276.2,40C276.2,39.7,275.9,39.5,275.5,39.5"/>
	<path fill="#FFFFFF" d="M302.9,23.6c0.9-1.6,2.1-3,3.5-4.1c1.4-1.1,3.1-2,4.8-2.7c3.4-1.3,7.2-1.3,10.6,0c1.7,0.6,3.3,1.5,4.8,2.7
		c1.4,1.1,2.6,2.5,3.5,4.1c0.9,1.6,1.3,3.4,1.3,5.2V53c0,2-0.4,3.9-1.2,5.7c-0.7,1.6-1.8,3-3.2,4.2c-1.4,1.1-3,2-4.7,2.5
		c-1.9,0.6-3.8,0.9-5.7,0.9c-2,0-3.9-0.4-5.8-1c-1.7-0.5-3.3-1.4-4.7-2.5c-1.4-1.1-2.4-2.6-3.2-4.2c-0.8-1.8-1.2-3.8-1.2-5.8V28.8
		C301.5,27,302,25.2,302.9,23.6 M311.2,53c0,1.3,0.6,2.5,1.6,3.2c1,0.8,2.2,1.2,3.4,1.2c1.4,0,2.7-0.4,3.9-1.2
		c1.1-0.7,1.7-2,1.7-3.3V28.9c0-0.6-0.3-1.2-0.7-1.7c-0.7-1-1.8-1.8-3-2.2c-1.1-0.4-2.3-0.4-3.5,0c-0.6,0.2-1.1,0.5-1.7,0.8
		c-0.5,0.3-0.9,0.8-1.3,1.3c-0.3,0.5-0.5,1.1-0.5,1.7L311.2,53z"/>
	<path fill="#FFFFFF" d="M368.3,64.1c0.1,0.5-0.2,1-0.7,1.1c-0.1,0-0.1,0-0.2,0h-8.5c-0.2,0-0.4,0-0.5,0c-0.2-0.1-0.3-0.2-0.4-0.4
		l-6.2-16.6c-0.1-0.3-0.4-0.5-0.7-0.6c-0.4-0.1-0.8-0.2-1.2-0.2h-2.2c-0.4,0-0.6,0-0.6,0.5v16.2c0,0.7-0.3,1.1-1,1.1h-7.7
		c-0.5,0.1-1-0.3-1.1-0.8c0-0.1,0-0.2,0-0.3V18.2c0-0.7,0.3-1,1.1-1h10.1c2.2,0,4.4,0.3,6.5,1.1c1.9,0.7,3.6,1.7,5.1,3.1
		c1.5,1.4,2.6,3,3.4,4.9c0.8,2,1.2,4.2,1.2,6.4c-0.1,1.9-0.3,3.8-0.8,5.7c-0.4,1.9-1.4,3.7-2.7,5.1l-0.4,0.5
		c-0.2,0.1-0.3,0.3-0.3,0.5c0.1,0.5,0.3,1,0.5,1.5l1.3,3.3l1.7,4.6l1.8,4.4l1.6,3.3c0.4,1,0.7,1.7,0.8,1.9v0.3c0,0.1,0,0.2,0,0.3
		 M346.9,37.6c0,0.3,0.1,0.7,0.4,0.9c0.2,0.3,0.6,0.4,0.9,0.4c1.8,0.1,3.5-0.5,4.8-1.7c1.3-1.3,2-3,1.9-4.9c0.1-1.7-0.6-3.3-1.9-4.4
		c-1.3-0.9-2.9-1.4-4.5-1.3c-0.4-0.1-0.7-0.1-1.1,0c-0.3,0-0.5,0.5-0.5,1.1L346.9,37.6z"/>
	<path fill="#FFFFFF" d="M398.2,58.2V64c0.1,0.5-0.3,1-0.8,1.1c-0.1,0-0.2,0-0.3,0h-23.6c-0.5,0.1-1-0.3-1.1-0.8c0-0.1,0-0.2,0-0.3
		V18.2c0-0.7,0.4-1,1.1-1h7.7c0.5-0.1,1,0.3,1,0.8c0,0.1,0,0.2,0,0.2v37.9c-0.1,0.5,0.3,1,0.8,1c0.1,0,0.2,0,0.2,0h14
		c0.7,0,1.1,0.3,1.1,1"/>
	<path fill="#FFFFFF" d="M403.3,64V18.2c0-0.7,0.3-1,1.1-1h14c2.2-0.1,4.5,0.3,6.6,1.1c1.8,0.7,3.3,1.8,4.6,3.1
		c1.2,1.4,2.2,3,2.7,4.7c0.6,1.9,0.9,3.9,0.9,5.9v19.6c0,2-0.3,4-1.1,5.8c-0.7,1.6-1.8,3.1-3.2,4.2c-1.4,1.1-3,2-4.7,2.5
		c-1.9,0.6-3.9,0.9-5.9,0.8h-14c-0.5,0.1-1-0.3-1.1-0.8C403.3,64.2,403.3,64.1,403.3,64 M413.8,57.2h4.1c1.5,0,2.9-0.6,3.9-1.7
		c0.9-1.1,1.4-2.4,1.4-3.9V32.1c0-0.8-0.1-1.7-0.3-2.5c-0.2-0.8-0.5-1.5-1-2.2c-0.4-0.6-0.9-1.2-1.5-1.6c-0.7-0.4-1.4-0.6-2.2-0.6
		h-4.4c-0.7,0-1,0.4-1,1.1v29.9c0,0.7,0.3,1.1,1,1.1"/>
	<path fill="#FFFFFF" d="M476.3,65.3c-0.3,0-0.6-0.1-0.8-0.4l-1.7-6.6c0-0.5-0.5-0.7-1.2-0.7h-8.9c-0.5-0.1-1,0.3-1.1,0.8l-1.7,6.5
		c0,0.3-0.3,0.4-0.8,0.4h-8c-0.7,0-1-0.4-0.8-1.3l12.3-46.3c0-0.3,0.3-0.5,0.8-0.5h7.5c0.5,0,0.7,0,0.8,0.5l12.5,46.5v0.4
		c0,0.4-0.3,0.6-0.8,0.6L476.3,65.3z M468.2,36.8c-0.5-0.1-1.1,0.3-1.2,0.8l-2.7,10.4c-0.1,0.4-0.1,0.8,0,1.1
		c0.1,0.2,0.2,0.3,0.3,0.5c0.1,0.1,0.3,0.1,0.5,0h5.5c0.4,0,0.8-0.2,1-0.5c0.2-0.4,0.2-0.8,0-1.2l-2.4-10.4
		c-0.1-0.5-0.6-0.9-1.2-0.8"/>
	<path fill="#FFFFFF" d="M501.2,66.2c-1.7,0-3.3-0.2-4.9-0.7c-1.6-0.4-3.2-1.1-4.6-2c-1.4-0.9-2.5-2-3.4-3.4
		c-0.9-1.5-1.4-3.1-1.3-4.9c0-0.6,0.3-0.9,1-0.9h7.2c0.3,0,0.6,0,0.7,0.2l0.4,0.7c0.5,0.8,1.3,1.5,2.2,1.9c0.9,0.3,1.9,0.5,2.9,0.5
		c1.2,0,2.3-0.3,3.4-0.9c1.1-0.6,1.7-1.8,1.5-3.1c0-0.7-0.2-1.5-0.6-2.1c-0.4-0.6-0.9-1.1-1.4-1.6l-11.1-10.5
		c-1.5-1.4-2.8-3.1-3.7-4.9c-0.9-1.9-1.3-3.9-1.3-6c0-1.8,0.3-3.6,1-5.2c0.7-1.5,1.7-2.8,2.9-3.9c1.3-1.1,2.8-2,4.5-2.5
		c1.9-0.7,3.8-1,5.8-1c1.6,0,3.3,0.3,4.8,0.8c1.5,0.6,2.9,1.4,4.2,2.4c1.2,1.1,2.2,2.4,3,3.9c0.8,1.4,1.2,3,1.2,4.6
		c0,0.3-0.1,0.5-0.3,0.7c-0.2,0.1-0.5,0.2-0.7,0.2h-6.9c-0.4,0-0.8-0.2-1-0.6c0-0.4-0.4-0.8-0.7-1.3c-0.3-0.5-0.7-0.9-1.2-1.3
		c-0.8-0.4-1.7-0.6-2.6-0.6c-1.1,0-2.1,0.3-3,0.9c-0.8,0.7-1.3,1.7-1.2,2.7c0,1,0.3,2,0.8,2.8c0.5,0.8,1.1,1.6,1.9,2.2l10.2,9.4
		c0.9,0.8,1.7,1.6,2.4,2.5c0.7,0.8,1.3,1.7,1.7,2.6c0.5,0.9,0.8,1.9,1,3c0.2,1.2,0.4,2.3,0.3,3.5c0.1,1.9-0.4,3.7-1.2,5.4
		c-0.8,1.4-1.9,2.7-3.2,3.6c-1.4,1-3,1.7-4.7,2.1c-1.8,0.4-3.6,0.7-5.4,0.7"/>
	<path fill="#FFFFFF" d="M533.5,66.2c-1.7,0-3.3-0.2-4.9-0.7c-1.6-0.4-3.2-1.1-4.6-2c-1.4-0.9-2.5-2-3.4-3.4
		c-0.9-1.5-1.4-3.1-1.3-4.9c0-0.6,0.3-0.9,1-0.9h7.2c0.3,0,0.6,0,0.7,0.2c0.1,0.2,0.2,0.4,0.4,0.7c0.5,0.8,1.3,1.5,2.2,1.9
		c0.9,0.3,1.9,0.5,2.9,0.5c1.2,0,2.3-0.3,3.4-0.9c1-0.6,1.6-1.8,1.5-3c0-0.7-0.2-1.5-0.6-2.1c-0.4-0.6-0.9-1.1-1.4-1.6l-10.9-10.5
		c-1.5-1.4-2.8-3.1-3.7-4.9c-0.9-1.9-1.3-3.9-1.3-6c0-1.8,0.3-3.6,1-5.2c0.7-1.5,1.7-2.8,2.9-3.9c1.3-1.1,2.8-2,4.5-2.5
		c1.8-0.6,3.7-0.9,5.6-0.9c1.6,0,3.3,0.3,4.8,0.8c1.5,0.6,2.9,1.4,4.2,2.4c1.2,1.1,2.2,2.4,3,3.9c0.8,1.4,1.2,3,1.2,4.6
		c0,0.3-0.1,0.5-0.3,0.7c-0.2,0.1-0.5,0.2-0.7,0.2h-6.9c-0.4,0-0.8-0.2-1-0.6l-0.8-1.4c-0.3-0.5-0.7-0.9-1.2-1.3
		c-0.8-0.4-1.7-0.6-2.6-0.6c-1.1,0-2.1,0.3-3,0.9c-0.8,0.7-1.3,1.7-1.2,2.7c0,1,0.3,2,0.8,2.8c0.5,0.8,1.1,1.6,1.9,2.2l10.1,9.4
		c0.9,0.8,1.7,1.6,2.4,2.5c0.7,0.8,1.3,1.7,1.7,2.6c0.5,0.9,0.8,1.9,1,3c0.2,1.2,0.4,2.3,0.3,3.5c0.1,1.9-0.4,3.7-1.2,5.4
		c-0.8,1.4-1.9,2.7-3.2,3.6c-1.4,1-3,1.7-4.7,2.1c-1.8,0.4-3.6,0.7-5.4,0.7"/>
	<path fill="#FFFFFF" d="M553.8,23.6c0.9-1.6,2-3,3.5-4.1c1.4-1.1,3.1-2,4.8-2.7c3.4-1.3,7.2-1.3,10.6,0c1.7,0.6,3.3,1.5,4.8,2.7
		c1.4,1.1,2.6,2.5,3.5,4.1c0.9,1.6,1.3,3.4,1.3,5.2V53c0,2-0.4,3.9-1.2,5.7c-0.7,1.6-1.8,3-3.2,4.2c-1.4,1.1-3,2-4.7,2.5
		c-1.9,0.6-3.8,0.9-5.7,0.9c-2,0-3.9-0.3-5.8-0.8c-1.7-0.5-3.3-1.4-4.7-2.5c-1.4-1.1-2.4-2.6-3.2-4.2c-0.8-1.8-1.2-3.8-1.2-5.8V28.8
		C552.5,27,552.9,25.2,553.8,23.6 M562.2,53c0,1.3,0.6,2.5,1.6,3.2c1,0.8,2.2,1.2,3.4,1.2c1.4,0,2.7-0.4,3.9-1.2
		c1.1-0.7,1.7-2,1.7-3.3V28.9c0-0.6-0.2-1.2-0.5-1.7c-0.7-1-1.8-1.8-3-2.2c-1.1-0.4-2.3-0.4-3.5,0c-0.6,0.2-1.1,0.5-1.7,0.8
		c-0.5,0.3-0.9,0.8-1.3,1.3c-0.3,0.5-0.5,1.1-0.5,1.7L562.2,53z"/>
	<path fill="#FFFFFF" d="M615.9,29.6c0,0.7-0.3,1-1,1h-7.7c-0.7,0-1-0.3-1-1c0-0.8-0.1-1.6-0.5-2.4c-0.3-0.5-0.7-1-1.2-1.4
		c-0.4-0.3-1-0.6-1.5-0.7c-0.5-0.1-1.1-0.1-1.6,0c-1.1,0-2.1,0.5-2.9,1.2c-0.9,0.8-1.3,1.9-1.3,3v24.9c0,0.9,0.5,1.8,1.3,2.2
		c0.8,0.6,1.8,1,2.9,1c0.5,0,1,0,1.5,0c0.5-0.1,0.9-0.3,1.3-0.6c0.4-0.4,0.7-0.8,0.9-1.3c0.3-0.8,0.4-1.7,0.3-2.5
		c0-0.6,0.3-0.9,1-0.9h7.7c0.7,0,1,0.3,1,0.9c0.3,3.9-1.1,7.7-3.9,10.4c-2.8,2.3-6.4,3.4-10,3.2c-1.8,0-3.6-0.2-5.3-0.8
		c-1.6-0.5-3.1-1.3-4.4-2.3c-1.3-1-2.3-2.4-3-3.9c-0.8-1.7-1.2-3.5-1.1-5.3V29.3c0-1.8,0.4-3.6,1.2-5.2c0.7-1.6,1.8-3,3-4.2
		c1.3-1.2,2.8-2.2,4.4-2.8c1.7-0.7,3.5-1,5.3-1c1.8,0,3.6,0.2,5.4,0.7c1.7,0.4,3.2,1.2,4.6,2.3c1.4,1.1,2.5,2.6,3.2,4.2
		c0.9,2,1.3,4.2,1.2,6.4"/>
	<path fill="#FFFFFF" d="M629.9,65.3h-7.5c-0.5,0.1-1-0.3-1.1-0.8c0-0.1,0-0.2,0-0.3v-46c-0.1-0.5,0.3-1,0.8-1c0.1,0,0.2,0,0.2,0
		h7.7c0.7,0,1.1,0.3,1.1,1V64c0.1,0.5-0.3,1-0.8,1.1c-0.1,0-0.2,0-0.3,0"/>
	<path fill="#FFFFFF" d="M660.2,65.3c-0.3,0-0.6-0.1-0.8-0.4l-1.7-6.6c0-0.5-0.5-0.7-1.2-0.7h-8.8c-0.5-0.1-1,0.3-1.1,0.8l-1.7,6.4
		c0,0.3-0.3,0.4-0.8,0.4h-8.3c-0.7,0-1-0.4-0.8-1.3l12.3-46.3c0-0.3,0.3-0.5,0.8-0.5h7.5c0.5,0,0.7,0,0.8,0.5L669,64v0.4
		c0,0.4-0.3,0.6-0.8,0.6L660.2,65.3z M652.1,36.8c-0.5-0.1-1.1,0.3-1.2,0.8l-2.7,10.4c-0.1,0.4-0.1,0.8,0,1.1
		c0.1,0.2,0.2,0.3,0.3,0.5c0.1,0.1,0.3,0.1,0.5,0h5.5c0.4,0,0.8-0.2,1-0.5c0.2-0.4,0.2-0.8,0-1.2l-2.4-10.4
		c-0.1-0.5-0.6-0.9-1.2-0.8"/>
	<path fill="#FFFFFF" d="M686.4,65.3h-7.9c-0.5,0.1-1-0.3-1.1-0.8c0-0.1,0-0.2,0-0.3V25.7c0.1-0.5-0.3-1-0.8-1c-0.1,0-0.2,0-0.2,0
		H667c-0.5,0.1-1-0.3-1.1-0.8c0-0.1,0-0.2,0-0.3v-5.4c0-0.7,0.3-1,1.1-1h30.8c0.7,0,1.1,0.3,1.1,1v5.4c0.1,0.5-0.3,1-0.8,1.1
		c-0.1,0-0.2,0-0.3,0h-9.3c-0.5-0.1-1,0.3-1,0.8c0,0.1,0,0.2,0,0.2V64c0.1,0.5-0.3,1-0.8,1.1c-0.1,0-0.2,0-0.3,0"/>
	<path fill="#FFFFFF" d="M712,65.3h-7.5c-0.5,0.1-1-0.3-1.1-0.8c0-0.1,0-0.2,0-0.3v-46c-0.1-0.5,0.3-1,0.8-1c0.1,0,0.2,0,0.2,0h7.7
		c0.7,0,1.1,0.3,1.1,1V64c0.1,0.5-0.3,1-0.8,1.1c-0.1,0-0.2,0-0.3,0"/>
	<path fill="#FFFFFF" d="M720.3,23.6c0.9-1.6,2.1-3,3.5-4.1c1.4-1.1,3.1-2,4.8-2.7c3.4-1.3,7.2-1.3,10.6,0c1.7,0.6,3.3,1.5,4.8,2.7
		c1.4,1.1,2.6,2.5,3.5,4.1c0.9,1.6,1.3,3.4,1.3,5.2V53c0,2-0.4,3.9-1.2,5.7c-0.7,1.6-1.8,3-3.2,4.2c-1.4,1.1-3,2-4.7,2.5
		c-1.9,0.6-3.8,0.9-5.7,0.9c-2,0-3.9-0.3-5.8-0.8c-1.7-0.5-3.3-1.4-4.7-2.5c-1.4-1.1-2.4-2.6-3.2-4.2c-0.8-1.8-1.2-3.8-1.2-5.8V28.8
		C719,27,719.5,25.2,720.3,23.6 M728.7,53c0,1.3,0.6,2.5,1.6,3.2c0.9,0.8,2.1,1.3,3.4,1.3c1.4,0,2.7-0.4,3.9-1.2
		c1.1-0.7,1.7-2,1.7-3.3V28.9c0-0.6-0.2-1.2-0.5-1.7c-0.7-1-1.8-1.8-3-2.2c-1.1-0.4-2.3-0.4-3.5,0c-0.6,0.2-1.1,0.5-1.7,0.8
		c-0.5,0.3-0.9,0.8-1.2,1.3c-0.3,0.5-0.5,1.1-0.5,1.7L728.7,53z"/>
	<path fill="#FFFFFF" d="M765.6,40.9c-0.1-0.4-0.5-0.6-0.9-0.5c-0.5-0.1-1,0.3-1,0.8c0,0.1,0,0.2,0,0.2V64c0,0.7-0.3,1.1-1,1.1h-6.9
		c-0.5,0.1-1-0.3-1.1-0.8c0-0.1,0-0.2,0-0.3V18.2c-0.1-0.5,0.3-1,0.8-1c0.1,0,0.2,0,0.2,0h5.6c0.4,0,0.8,0.3,1,0.7l11.6,24.6
		c0.2,0.3,0.5,0.5,0.9,0.4c0.5,0.1,1-0.3,1-0.8c0-0.1,0-0.2,0-0.2V18.2c-0.1-0.5,0.3-1,0.8-1c0.1,0,0.2,0,0.2,0h6.9
		c0.7,0,1.1,0.3,1.1,1v45.9c0,0.7-0.4,1-1.1,1h-5.1c-0.4,0-0.8-0.3-1-0.7L765.6,40.9z"/>
	<path fill="#FFFFFF" d="M257.5,96.7c0.9-1.6,2.1-3,3.5-4.1c1.4-1.1,3.1-2,4.8-2.7c3.4-1.3,7.2-1.3,10.6,0c1.7,0.6,3.3,1.5,4.8,2.7
		c1.4,1.1,2.6,2.5,3.5,4.1c0.9,1.6,1.3,3.4,1.3,5.2V126c0,2-0.4,3.9-1.2,5.7c-0.7,1.6-1.8,3-3.2,4.2c-1.4,1.2-3,2-4.8,2.6
		c-1.9,0.6-3.8,0.8-5.8,0.8c-1.9,0-3.9-0.2-5.7-0.8c-1.7-0.5-3.3-1.4-4.7-2.5c-1.4-1.1-2.4-2.6-3.2-4.2c-0.8-1.8-1.2-3.8-1.2-5.8
		v-24.1C256.2,100.1,256.7,98.3,257.5,96.7 M265.9,126c0,1.3,0.6,2.5,1.6,3.2c1,0.8,2.2,1.2,3.4,1.2c1.4,0.1,2.7-0.4,3.9-1.2
		c1.1-0.7,1.7-2,1.7-3.3V102c0-0.6-0.2-1.2-0.5-1.7c-0.7-1-1.8-1.8-3-2.2c-1.1-0.4-2.3-0.4-3.5,0c-0.6,0.2-1.1,0.5-1.7,0.8
		c-0.5,0.3-0.9,0.8-1.3,1.3c-0.3,0.5-0.5,1.1-0.5,1.7L265.9,126z"/>
	<path fill="#FFFFFF" d="M312.7,111.1v6.6c0,0.7-0.3,1.1-1,1.1h-9.1c-0.5-0.1-0.9,0.3-1,0.7c0,0.1,0,0.2,0,0.2v17.3
		c0,0.7-0.3,1.1-1,1.1h-7.7c-0.5,0.1-1-0.3-1.1-0.8c0-0.1,0-0.2,0-0.3V91.2c0-0.7,0.3-1,1.1-1h22.6c0.5-0.1,1,0.3,1,0.8
		c0,0.1,0,0.2,0,0.2v6.9c0,0.7-0.3,1.1-1,1.1h-12.8c-0.5-0.1-1,0.3-1,0.8c0,0.1,0,0.2,0,0.2v8.8c0,0.7,0.3,1,1,1h9.1
		C312.3,110.1,312.7,110.4,312.7,111.1"/>
	<path fill="#FFFFFF" d="M366.5,101.9c0,0.6-0.3,0.9-1,0.9h-7.7c-0.7,0-1-0.3-1-0.9c0-0.6-0.2-1.3-0.5-1.8c-0.3-0.5-0.8-1-1.3-1.3
		c-0.5-0.3-1.1-0.6-1.7-0.8c-0.6-0.2-1.2-0.3-1.9-0.3c-0.5,0-1,0.1-1.5,0.3c-0.6,0.2-1.1,0.5-1.7,0.8c-0.5,0.3-0.9,0.7-1.3,1.2
		c-0.3,0.4-0.5,1-0.5,1.5v25.1c0,1.2,0.6,2.2,1.7,2.8c1.1,0.7,2.3,1,3.6,1c1.2,0,2.5-0.4,3.5-1c1-0.6,1.7-1.6,1.7-2.8v-6.2
		c0-0.7-0.2-1.2-0.6-1.3c-0.4-0.1-0.8-0.2-1.2-0.2h-2.1c-0.4,0-0.8-0.1-1.1-0.3c-0.4-0.2-0.5-0.7-0.5-1.1v-6.9
		c-0.1-0.5,0.3-1,0.8-1.1c0.1,0,0.2,0,0.3,0h12.9c0.5-0.1,1,0.3,1.1,0.8c0,0.1,0,0.2,0,0.3v16c0.1,2-0.3,3.9-1.2,5.7
		c-0.7,1.5-1.8,2.8-3.2,3.9c-1.4,1-3,1.8-4.7,2.2c-1.9,0.5-3.8,0.7-5.7,0.7c-1.9,0-3.9-0.2-5.7-0.7c-1.7-0.5-3.3-1.3-4.7-2.4
		c-1.3-1-2.4-2.3-3.2-3.9c-0.8-1.7-1.3-3.5-1.3-5.4v-25.4c0-1.8,0.4-3.6,1.2-5.2c0.8-1.5,1.9-2.8,3.2-3.9c1.4-1.1,3-2,4.7-2.5
		c1.9-0.6,3.8-0.9,5.7-0.9c2,0,4,0.3,6,0.9c1.7,0.6,3.3,1.5,4.7,2.7c2.7,2.3,4.3,5.7,4.2,9.3"/>
	<path fill="#FFFFFF" d="M380.5,138.2H373c-0.5,0.1-1-0.3-1.1-0.8c0-0.1,0-0.2,0-0.3V91.2c-0.1-0.5,0.3-1,0.8-1c0.1,0,0.2,0,0.2,0
		h7.7c0.7,0,1.1,0.3,1.1,1v45.8c0.1,0.5-0.3,1-0.8,1.1c-0.1,0-0.2,0-0.3,0"/>
	<path fill="#FFFFFF" d="M419.1,137.1c0.1,0.5-0.3,1-0.8,1c-0.1,0-0.2,0-0.2,0h-8.5c-0.2,0-0.4,0-0.5,0c-0.2-0.1-0.3-0.2-0.4-0.4
		l-6.2-16.6c-0.1-0.3-0.4-0.5-0.7-0.6c-0.4-0.1-0.8-0.2-1.2-0.2h-2.4c-0.4,0-0.6,0-0.6,0.5v16.2c0,0.7-0.3,1.1-1,1.1h-7.7
		c-0.5,0.1-1-0.3-1.1-0.8c0-0.1,0-0.2,0-0.3V91.2c0-0.7,0.3-1,1.1-1H399c2.2,0,4.4,0.3,6.5,1.1c1.9,0.7,3.6,1.7,5.1,3.1
		c1.4,1.4,2.6,3,3.3,4.9c0.8,2,1.2,4.2,1.2,6.4c0,2-0.2,3.9-0.7,5.9c-0.4,1.9-1.4,3.7-2.7,5.1l-0.4,0.5c-0.2,0.1-0.3,0.3-0.3,0.5
		c0.1,0.5,0.3,1,0.5,1.5l1.3,3.3l1.7,4.3l1.8,4.4l1.5,3.6c0.4,1,0.7,1.6,0.8,1.9v0.3c0,0.1,0,0.2,0,0.3 M397.3,110.8
		c0,0.3,0.1,0.7,0.4,0.9c0.2,0.3,0.6,0.4,0.9,0.4c1.8,0.1,3.5-0.5,4.8-1.7c1.3-1.3,2-3,1.9-4.9c0.1-1.7-0.6-3.3-1.9-4.4
		c-1.3-1-2.9-1.5-4.5-1.5c-0.4-0.1-0.7-0.1-1.1,0c-0.3,0-0.5,0.5-0.5,1.1L397.3,110.8z"/>
	<path fill="#FFFFFF" d="M449,131.3v5.8c0.1,0.5-0.3,1-0.8,1.1c-0.1,0-0.2,0-0.3,0h-23.6c-0.5,0.1-1-0.3-1.1-0.8c0-0.1,0-0.2,0-0.3
		V91.2c0-0.7,0.4-1,1.1-1h7.7c0.5-0.1,1,0.3,1,0.8c0,0.1,0,0.2,0,0.2v37.9c-0.1,0.5,0.3,1,0.8,1c0.1,0,0.2,0,0.2,0h14
		c0.7,0,1.1,0.3,1.1,1"/>
	<path fill="#FFFFFF" d="M498.9,101.9c0,0.6-0.3,0.9-1,0.9h-7.7c-0.7,0-1-0.3-1-0.9c0-0.6-0.2-1.3-0.5-1.8c-0.3-0.5-0.8-1-1.3-1.3
		c-0.5-0.3-1.1-0.6-1.7-0.8c-0.6-0.2-1.2-0.3-1.9-0.3c-0.5,0-1,0.1-1.5,0.3c-0.6,0.2-1.1,0.5-1.7,0.8c-0.5,0.3-1,0.7-1.4,1.1
		c-0.3,0.4-0.5,1-0.5,1.5v25.1c0,1.2,0.6,2.2,1.7,2.8c1.1,0.7,2.3,1,3.6,1c1.2,0,2.5-0.4,3.5-1c1-0.6,1.7-1.6,1.7-2.8v-6.2
		c0-0.7-0.2-1.2-0.6-1.3c-0.4-0.1-0.8-0.2-1.2-0.2h-2.1c-0.4,0-0.8-0.1-1.1-0.3c-0.4-0.2-0.5-0.7-0.5-1.1v-6.8
		c-0.1-0.5,0.3-1,0.8-1.1c0.1,0,0.2,0,0.3,0h12.9c0.5-0.1,1,0.3,1.1,0.8c0,0.1,0,0.2,0,0.3v16c0.1,2-0.3,3.9-1.2,5.7
		c-0.7,1.5-1.8,2.8-3.2,3.9c-1.4,1-3,1.8-4.7,2.2c-1.9,0.5-3.8,0.7-5.7,0.7c-2,0-3.9-0.2-5.8-0.8c-1.7-0.5-3.3-1.3-4.7-2.4
		c-1.4-1-2.4-2.3-3.2-3.9c-0.8-1.7-1.2-3.6-1.2-5.5v-25.3c0-1.8,0.4-3.6,1.2-5.2c0.8-1.5,1.9-2.8,3.2-3.9c1.4-1.1,3-2,4.7-2.5
		c1.9-0.6,3.8-0.9,5.7-0.9c2,0,4,0.3,6,0.9c1.7,0.6,3.3,1.5,4.7,2.7c2.7,2.3,4.3,5.7,4.2,9.3"/>
	<path fill="#FFFFFF" d="M505,90.1h7.7c0.7,0,1.1,0.3,1.1,1v34.3c0,1.1,0.5,2.2,1.5,2.9c1.9,1.5,4.6,1.5,6.6,0
		c0.9-0.7,1.4-1.8,1.4-2.9V91.2c-0.1-0.5,0.3-1,0.8-1c0.1,0,0.2,0,0.2,0h7.7c0.7,0,1.1,0.3,1.1,1v34.7c0.1,2-0.3,4-1.2,5.8
		c-0.7,1.6-1.8,3-3.2,4.2c-1.4,1.1-2.9,2-4.6,2.5c-1.8,0.6-3.7,0.8-5.6,0.8c-2,0.1-4-0.1-5.9-0.7c-1.7-0.6-3.2-1.4-4.5-2.6
		c-1.3-1.1-2.4-2.6-3.1-4.2c-0.8-1.8-1.2-3.7-1.1-5.6V91.4c-0.1-0.5,0.3-1,0.8-1c0.1,0,0.2,0,0.2,0"/>
	<path fill="#FFFFFF" d="M547.4,138.2h-7.5c-0.5,0.1-1-0.3-1.1-0.8c0-0.1,0-0.2,0-0.3V91.2c-0.1-0.5,0.3-1,0.8-1c0.1,0,0.2,0,0.2,0
		h7.7c0.7,0,1.1,0.3,1.1,1v45.8c0.1,0.5-0.3,1-0.8,1.1c-0.1,0-0.2,0-0.3,0"/>
	<path fill="#FFFFFF" d="M554.9,137.1V91.2c0-0.7,0.4-1,1.1-1h14c2.3,0,4.5,0.3,6.6,1.2c1.8,0.7,3.3,1.8,4.6,3.1
		c1.2,1.4,2.2,3,2.7,4.7c0.6,1.9,0.9,3.9,0.9,5.9v19.6c0,2-0.4,4-1.2,5.8c-0.7,1.6-1.8,3.1-3.2,4.2c-1.4,1.2-3,2-4.7,2.5
		c-1.9,0.6-3.9,0.9-5.9,0.8h-14c-0.5,0.1-1-0.3-1.1-0.8C554.8,137.3,554.8,137.2,554.9,137.1 M565.4,130.3h4.1
		c1.5,0,2.9-0.6,3.9-1.7c0.9-1.1,1.4-2.4,1.4-3.9v-19.6c0-0.8-0.1-1.7-0.3-2.5c-0.2-0.8-0.5-1.5-1-2.2c-0.4-0.6-0.9-1.2-1.5-1.6
		c-0.7-0.4-1.4-0.6-2.2-0.6h-4.4c-0.7,0-1,0.4-1,1.1v29.9c0,0.7,0.3,1.1,1,1.1"/>
	<path fill="#FFFFFF" d="M614.6,91.2v6.8c0.1,0.5-0.3,1-0.8,1.1c-0.1,0-0.2,0-0.3,0h-12.1c-0.5-0.1-1,0.3-1,0.8c0,0.1,0,0.2,0,0.2
		v8.8c0,0.3,0.2,0.5,0.5,0.5c0,0,0.1,0,0.1,0h8.7c0.7,0,1,0.3,1,1.1v6.5c0.1,0.5-0.3,1-0.8,1c-0.1,0-0.2,0-0.2,0h-8.3
		c-0.5-0.1-1,0.3-1,0.8c0,0.1,0,0.2,0,0.2v8.9c-0.1,0.5,0.3,1,0.8,1c0.1,0,0.2,0,0.2,0h12.1c0.7,0,1.1,0.3,1.1,1v6.9
		c0.1,0.5-0.3,1-0.8,1.1c-0.1,0-0.2,0-0.3,0h-21.7c-0.5,0.1-1-0.3-1.1-0.8c0-0.1,0-0.2,0-0.3V91.2c0-0.7,0.3-1,1.1-1h21.7
		C614.2,90.2,614.6,90.6,614.6,91.2"/>
	<path fill="#FFFFFF" d="M632.6,139.3c-1.7,0-3.3-0.2-4.9-0.7c-1.6-0.4-3.2-1.1-4.6-2c-1.4-0.9-2.5-2-3.4-3.4
		c-0.9-1.5-1.4-3.1-1.3-4.9c0-0.6,0.3-0.9,1-0.9h7.2c0.3,0,0.6,0,0.7,0.2l0.4,0.7c0.5,0.8,1.3,1.5,2.2,1.9c0.9,0.3,1.9,0.5,2.9,0.5
		c1.2,0,2.3-0.3,3.4-0.9c1-0.6,1.6-1.8,1.5-3c0-0.7-0.2-1.5-0.6-2.1c-0.4-0.6-0.9-1.1-1.4-1.6l-11.1-10.5c-1.5-1.4-2.8-3.1-3.7-4.9
		c-0.9-1.9-1.3-3.9-1.3-6c0-1.8,0.3-3.6,1-5.2c0.7-1.5,1.7-2.8,2.9-3.9c1.3-1.1,2.8-2,4.5-2.5c1.8-0.6,3.7-0.9,5.6-0.9
		c1.6,0,3.3,0.3,4.8,0.8c1.5,0.6,2.9,1.4,4.2,2.4c1.2,1.1,2.3,2.4,3,3.9c0.8,1.4,1.2,3,1.2,4.6c0,0.3-0.1,0.5-0.3,0.7
		c-0.2,0.1-0.5,0.2-0.7,0.2h-6.9c-0.4,0-0.8-0.2-1-0.6l-0.7-1.3c-0.3-0.5-0.7-0.9-1.2-1.3c-0.8-0.4-1.7-0.6-2.6-0.6
		c-1.1,0-2.1,0.3-3,0.9c-0.8,0.7-1.3,1.7-1.2,2.7c0,1,0.3,2,0.8,2.8c0.5,0.8,1.1,1.6,1.9,2.2l10.2,9.4c0.9,0.8,1.7,1.7,2.4,2.5
		c0.7,0.8,1.3,1.7,1.7,2.6c0.5,0.9,0.8,1.9,1,3c0.2,1.2,0.4,2.3,0.3,3.5c0.1,1.9-0.4,3.7-1.2,5.4c-0.8,1.4-1.9,2.7-3.2,3.6
		c-1.4,1-3,1.7-4.7,2.1c-1.8,0.4-3.6,0.7-5.4,0.7"/>
	<path fill="#FFFFFF" d="M277.7,211.2c-0.3,0-0.6-0.1-0.8-0.4l-1.7-6.7c0-0.5-0.5-0.7-1.2-0.7h-8.8c-0.5-0.1-1,0.3-1.1,0.8l-1.7,6.5
		c0,0.3-0.3,0.4-0.8,0.4h-8.3c-0.7,0-1-0.4-0.8-1.3l12.3-46.3c0-0.3,0.3-0.5,0.8-0.5h7.5c0.5,0,0.7,0,0.8,0.5l12.4,46.7v0.4
		c0,0.4-0.3,0.6-0.8,0.6H277.7z M269.6,182.8c-0.5-0.1-1,0.3-1.2,0.8l-2.7,10.4c-0.1,0.4-0.1,0.8,0,1.1c0.1,0.2,0.1,0.4,0.3,0.5
		c0.1,0.1,0.3,0.1,0.5,0h5.6c0.4,0,0.8-0.2,1-0.5c0.2-0.4,0.2-0.8,0-1.2l-2.1-10.3c-0.1-0.5-0.6-0.9-1.2-0.8"/>
	<path fill="#FFFFFF" d="M301.6,187c-0.1-0.4-0.5-0.6-0.9-0.5c-0.5-0.1-1,0.3-1,0.8c0,0.1,0,0.2,0,0.2v22.6c0,0.7-0.3,1.1-1,1.1
		h-6.9c-0.5,0.1-1-0.3-1.1-0.8c0-0.1,0-0.2,0-0.3v-45.8c-0.1-0.5,0.3-1,0.8-1c0.1,0,0.2,0,0.2,0h5.6c0.4,0,0.8,0.3,1,0.7l11.3,24.7
		c0.2,0.3,0.5,0.5,0.9,0.4c0.5,0.1,1-0.3,1-0.8c0-0.1,0-0.2,0-0.2v-23.7c-0.1-0.5,0.3-1,0.8-1c0.1,0,0.2,0,0.2,0h6.9
		c0.7,0,1.1,0.3,1.1,1v45.9c0,0.7-0.4,1-1.1,1h-4.9c-0.4,0-0.8-0.3-1-0.7L301.6,187z"/>
	<path fill="#FFFFFF" d="M327.1,210.1v-45.8c0-0.7,0.4-1,1.1-1h14c2.3,0,4.5,0.4,6.6,1.2c1.8,0.7,3.3,1.8,4.6,3.1
		c1.2,1.4,2.2,3,2.7,4.7c0.6,1.9,0.9,3.9,0.9,5.9v19.6c0,2-0.4,4-1.2,5.8c-0.7,1.7-1.8,3.1-3.1,4.3c-1.4,1.1-3,2-4.7,2.5
		c-1.9,0.6-3.9,0.9-5.9,0.8h-14c-0.5,0.1-1-0.3-1.1-0.8C327.1,210.4,327.1,210.3,327.1,210.1 M337.7,203.4h4.1
		c1.5,0.1,2.9-0.6,3.9-1.7c0.9-1.1,1.4-2.4,1.4-3.9v-19.7c0-0.8-0.1-1.7-0.3-2.5c-0.2-0.8-0.5-1.5-1-2.2c-0.4-0.6-0.9-1.2-1.5-1.6
		c-0.6-0.4-1.4-0.6-2.2-0.6h-4.3c-0.7,0-1,0.4-1,1.1v29.9C336.6,203,337,203.4,337.7,203.4"/>
	<path fill="#FFFFFF" d="M408.3,174.9c0,0.6-0.3,0.9-1,0.9h-7.7c-0.7,0-1-0.3-1-0.9c0-0.6-0.1-1.2-0.4-1.7c-0.3-0.5-0.8-1-1.3-1.3
		c-0.5-0.3-1.1-0.6-1.7-0.8c-0.6-0.2-1.2-0.3-1.9-0.3c-0.5,0-1,0.1-1.5,0.3c-0.6,0.2-1.1,0.5-1.7,0.8c-0.5,0.3-0.9,0.7-1.3,1.2
		c-0.3,0.4-0.5,1-0.5,1.5v25.1c0,1.2,0.6,2.2,1.7,2.8c1.1,0.7,2.3,1,3.6,1c1.2,0,2.5-0.4,3.5-1c1-0.6,1.7-1.6,1.7-2.8v-6.2
		c0-0.7-0.2-1.2-0.6-1.3c-0.4-0.1-0.8-0.2-1.2-0.2h-2.1c-0.4,0-0.8-0.1-1.1-0.3c-0.4-0.2-0.5-0.7-0.5-1.1v-7c-0.1-0.5,0.3-1,0.8-1.1
		c0.1,0,0.2,0,0.3,0h12.9c0.5-0.1,1,0.3,1.1,0.8c0,0.1,0,0.2,0,0.3v16c0.1,2-0.3,3.9-1.2,5.7c-0.7,1.5-1.8,2.8-3.2,3.9
		c-1.4,1-3,1.8-4.7,2.2c-1.9,0.5-3.8,0.7-5.7,0.7c-2,0-3.9-0.3-5.8-0.8c-1.7-0.5-3.3-1.3-4.7-2.4c-1.3-1-2.4-2.3-3.2-3.9
		c-0.8-1.7-1.2-3.6-1.2-5.5v-25.2c0-1.8,0.4-3.6,1.2-5.2c0.8-1.5,1.9-2.8,3.2-3.9c1.4-1.1,3-2,4.7-2.5c1.9-0.6,3.8-0.9,5.7-0.9
		c2,0,4,0.3,6,0.9c1.7,0.6,3.3,1.5,4.7,2.7c2.7,2.3,4.3,5.7,4.2,9.3"/>
	<path fill="#FFFFFF" d="M422.4,211.2h-7.5c-0.5,0.1-1-0.3-1.1-0.8c0-0.1,0-0.2,0-0.3v-45.8c-0.1-0.5,0.3-1,0.8-1c0.1,0,0.2,0,0.2,0
		h7.7c0.7,0,1.1,0.3,1.1,1v45.8c0.1,0.5-0.3,1-0.8,1.1c-0.1,0-0.2,0-0.3,0"/>
	<path fill="#FFFFFF" d="M460.9,210.2c0.1,0.5-0.3,1-0.8,1c-0.1,0-0.2,0-0.2,0h-8.5c-0.2,0-0.4,0-0.5,0c-0.2-0.1-0.3-0.2-0.4-0.4
		l-6.2-16.6c-0.1-0.3-0.4-0.5-0.7-0.6c-0.4-0.1-0.8-0.2-1.2-0.2h-2.2c-0.4,0-0.6,0-0.6,0.5v16.2c0,0.7-0.3,1.1-1,1.1h-7.7
		c-0.5,0.1-1-0.3-1.1-0.8c0-0.1,0-0.2,0-0.3v-45.9c0-0.7,0.3-1,1.1-1h10.2c2.2,0,4.4,0.3,6.6,1.1c1.9,0.7,3.6,1.7,5.1,3.1
		c1.4,1.4,2.6,3,3.3,4.9c0.8,2,1.2,4.2,1.2,6.4c0,2-0.2,3.9-0.7,5.9c-0.4,1.9-1.4,3.7-2.7,5.1l-0.4,0.5c-0.2,0.1-0.3,0.3-0.3,0.5
		c0.1,0.5,0.3,1,0.5,1.5l1.3,3.3c0.5,1.3,1.1,2.7,1.7,4.3l1.8,4.4l1.5,3.6c0.4,1,0.7,1.7,0.8,1.9v0.3c0,0.1,0,0.2,0,0.3
		 M439.3,183.9c0,0.3,0.1,0.7,0.4,0.9c0.2,0.2,0.6,0.4,0.9,0.4c1.8,0.1,3.5-0.5,4.8-1.7c1.3-1.2,2-3,1.9-4.8
		c0.1-1.7-0.6-3.3-1.9-4.4c-1.3-1-2.9-1.5-4.5-1.5c-0.4-0.1-0.7-0.1-1.1,0c-0.3,0-0.5,0.5-0.5,1.1L439.3,183.9z"/>
	<path fill="#FFFFFF" d="M490.7,204.3v5.8c0.1,0.5-0.3,1-0.8,1.1c-0.1,0-0.2,0-0.3,0H466c-0.5,0.1-1-0.3-1.1-0.8c0-0.1,0-0.2,0-0.3
		v-45.9c0-0.7,0.3-1,1.1-1h7.7c0.5-0.1,1,0.3,1,0.8c0,0.1,0,0.2,0,0.2v37.9c-0.1,0.5,0.3,1,0.8,1c0.1,0,0.2,0,0.2,0h14
		c0.7,0,1.1,0.3,1.1,1"/>
	<path fill="#FFFFFF" d="M523.1,212.3c-1.7,0-3.3-0.2-4.9-0.7c-1.6-0.4-3.2-1.1-4.6-2c-1.4-0.9-2.5-2-3.4-3.4
		c-0.9-1.5-1.4-3.2-1.3-4.9c0-0.6,0.3-0.9,1-0.9h7.2c0.3,0,0.6,0,0.7,0.2c0.1,0.2,0.2,0.4,0.4,0.7c0.5,0.8,1.3,1.5,2.2,1.9
		c0.9,0.3,1.9,0.5,2.9,0.5c1.2,0,2.4-0.3,3.4-0.9c1-0.6,1.6-1.8,1.5-3c0-0.7-0.2-1.5-0.6-2.1c-0.4-0.6-0.9-1.1-1.4-1.6L515,185.6
		c-1.5-1.4-2.8-3.1-3.7-4.9c-0.9-1.9-1.3-3.9-1.3-6c0-1.8,0.3-3.6,1-5.2c0.7-1.5,1.7-2.8,2.9-3.9c1.3-1.1,2.8-2,4.5-2.5
		c1.8-0.6,3.7-0.9,5.6-0.9c1.6,0,3.3,0.3,4.8,0.8c1.5,0.5,2.9,1.4,4.2,2.4c1.2,1.1,2.2,2.4,3,3.9c0.8,1.4,1.2,3,1.2,4.6
		c0,0.3-0.1,0.5-0.3,0.7c-0.2,0.1-0.5,0.2-0.7,0.2h-6.8c-0.4,0-0.8-0.2-1-0.6c0-0.4-0.4-0.8-0.7-1.3c-0.3-0.5-0.7-0.9-1.2-1.3
		c-0.8-0.4-1.7-0.6-2.6-0.6c-1.1,0-2.1,0.3-3,0.9c-0.8,0.7-1.3,1.7-1.2,2.7c0,1,0.3,2,0.8,2.8c0.5,0.8,1.1,1.6,1.9,2.2l10.2,9.4
		c0.9,0.8,1.7,1.6,2.4,2.5c0.7,0.8,1.3,1.7,1.7,2.6c0.5,0.9,0.8,1.9,1,3c0.2,1.2,0.4,2.3,0.3,3.5c0.1,1.9-0.4,3.7-1.2,5.4
		c-0.8,1.4-1.9,2.7-3.2,3.6c-1.4,1-3,1.7-4.7,2.1c-1.8,0.4-3.6,0.7-5.4,0.7"/>
	<path fill="#FFFFFF" d="M570.4,175.7c0,0.7-0.3,1-1,1h-7.7c-0.7,0-1-0.3-1-1c0-0.8-0.1-1.7-0.5-2.5c-0.3-0.5-0.7-1-1.2-1.4
		c-0.4-0.3-1-0.6-1.5-0.7c-0.5-0.1-1.1-0.1-1.6,0c-1.1,0-2.1,0.5-2.9,1.2c-0.9,0.8-1.3,1.9-1.3,3v24.8c0,0.9,0.5,1.8,1.3,2.2
		c0.8,0.6,1.8,1,2.9,1c0.5,0,1,0,1.5,0c0.5-0.1,0.9-0.3,1.3-0.6c0.4-0.4,0.7-0.8,0.9-1.3c0.3-0.8,0.4-1.6,0.3-2.5
		c0-0.6,0.3-0.9,1-0.9h7.7c0.7,0,1,0.3,1,0.9c0.3,3.9-1.1,7.7-3.9,10.4c-2.8,2.3-6.4,3.4-10,3.2c-1.8,0-3.6-0.3-5.3-0.8
		c-1.6-0.5-3.1-1.3-4.4-2.3c-1.3-1-2.3-2.4-3-3.9c-0.8-1.7-1.2-3.5-1.1-5.3v-24.9c0-1.8,0.4-3.6,1.2-5.2c0.7-1.6,1.8-3,3-4.2
		c1.3-1.2,2.8-2.2,4.4-2.9c1.7-0.7,3.5-1,5.3-1c1.8,0,3.6,0.2,5.4,0.7c1.7,0.4,3.2,1.2,4.6,2.3c1.4,1.1,2.5,2.6,3.2,4.2
		c0.9,2,1.3,4.2,1.2,6.4"/>
	<path fill="#FFFFFF" d="M576.8,169.7c0.9-1.6,2.1-3,3.5-4.1c1.4-1.1,3.1-2,4.8-2.7c3.4-1.3,7.2-1.3,10.6,0c1.7,0.6,3.3,1.5,4.8,2.7
		c1.4,1.1,2.6,2.5,3.5,4.1c0.9,1.6,1.3,3.4,1.3,5.2v24c0,2-0.4,3.9-1.2,5.7c-0.7,1.6-1.8,3-3.2,4.2c-1.4,1.1-3,2-4.7,2.5
		c-1.9,0.6-3.8,0.9-5.7,0.9c-2,0-3.9-0.3-5.8-0.8c-1.7-0.5-3.3-1.3-4.7-2.5c-1.4-1.1-2.4-2.6-3.2-4.2c-0.8-1.8-1.2-3.8-1.1-5.8
		v-24.1C575.6,173.1,576,171.3,576.8,169.7 M585.2,199.1c0,1.3,0.6,2.5,1.6,3.2c1,0.8,2.2,1.2,3.4,1.2c1.4,0,2.7-0.4,3.9-1.2
		c1.1-0.7,1.7-2,1.7-3.3V175c-0.1-0.7-0.4-1.3-0.9-1.8c-0.4-0.5-0.8-1-1.3-1.3c-0.5-0.4-1.1-0.7-1.7-0.9c-1.1-0.4-2.3-0.4-3.5,0
		c-0.6,0.2-1.1,0.5-1.7,0.8c-0.5,0.3-0.9,0.8-1.3,1.3c-0.3,0.5-0.5,1.1-0.5,1.7L585.2,199.1z"/>
	<path fill="#FFFFFF" d="M611.7,163.2h7.7c0.7,0,1.1,0.3,1.1,1v34.3c0,1.1,0.5,2.2,1.5,2.9c1.9,1.5,4.6,1.5,6.6,0
		c0.9-0.7,1.4-1.8,1.4-2.9v-34.2c-0.1-0.5,0.3-1,0.8-1c0.1,0,0.2,0,0.2,0h7.7c0.7,0,1.1,0.3,1.1,1v34.7c0,2-0.4,4-1.2,5.8
		c-0.7,1.6-1.8,3-3.2,4.2c-1.4,1.1-2.9,2-4.6,2.5c-1.8,0.6-3.6,0.8-5.5,0.8c-1.9,0-3.7-0.3-5.5-0.9c-1.7-0.6-3.2-1.4-4.5-2.6
		c-1.3-1.1-2.4-2.6-3.1-4.2c-0.8-1.8-1.2-3.7-1.1-5.6v-34.7c-0.1-0.5,0.3-1,0.8-1c0.1,0,0.2,0,0.2,0"/>
	<path fill="#FFFFFF" d="M664.2,211.2h-8.1c-0.5,0.1-1-0.3-1.1-0.8c0-0.1,0-0.2,0-0.3v-38.3c0.1-0.5-0.3-1-0.8-1c-0.1,0-0.2,0-0.2,0
		h-9.3c-0.5,0.1-1-0.3-1.1-0.8c0-0.1,0-0.2,0-0.3v-5.4c0-0.7,0.3-1,1.1-1h30.8c0.7,0,1.1,0.3,1.1,1v5.4c0.1,0.5-0.3,1.1-0.9,1.1
		c-0.1,0-0.2,0-0.2,0h-9.3c-0.5-0.1-1,0.3-1,0.8c0,0.1,0,0.2,0,0.2v38.3c0.1,0.5-0.3,1-0.8,1.1c-0.1,0-0.2,0-0.3,0"/>
	<path fill="#FFFFFF" d="M693.2,212.3c-1.7,0-3.3-0.2-4.9-0.7c-1.6-0.4-3.2-1.1-4.6-2c-1.4-0.9-2.5-2-3.4-3.4
		c-0.9-1.5-1.4-3.2-1.3-4.9c0-0.6,0.3-0.9,1-0.9h7.2c0.4,0,0.6,0,0.7,0.2c0.1,0.2,0.2,0.4,0.4,0.7c0.5,0.8,1.3,1.5,2.2,1.9
		c0.9,0.3,1.9,0.5,2.9,0.5c1.2,0,2.4-0.3,3.4-0.9c1-0.6,1.6-1.8,1.5-3c0-0.7-0.2-1.5-0.6-2.1c-0.4-0.6-0.9-1.1-1.4-1.6L685,185.6
		c-1.5-1.4-2.7-3.1-3.7-4.9c-0.9-1.9-1.3-3.9-1.3-6c0-1.8,0.3-3.6,1-5.2c0.7-1.5,1.7-2.8,2.9-3.9c1.3-1.1,2.8-2,4.5-2.5
		c1.8-0.6,3.7-0.9,5.6-0.9c1.6,0,3.3,0.3,4.8,0.8c1.5,0.6,2.9,1.4,4.2,2.4c1.2,1.1,2.3,2.4,3,3.9c0.8,1.4,1.2,3,1.2,4.6
		c0,0.3-0.1,0.5-0.3,0.7c-0.2,0.1-0.5,0.2-0.7,0.2h-6.9c-0.4,0-0.8-0.2-1-0.6l-0.7-1.3c-0.3-0.5-0.7-0.9-1.2-1.3
		c-0.8-0.4-1.7-0.6-2.6-0.6c-1.1,0-2.1,0.3-3,0.9c-0.8,0.7-1.3,1.7-1.2,2.7c0,1,0.3,2,0.8,2.8c0.5,0.8,1.1,1.6,1.9,2.2l10.2,9.4
		c0.9,0.8,1.7,1.7,2.4,2.5c0.7,0.8,1.3,1.7,1.7,2.6c0.5,0.9,0.8,1.9,1,3c0.2,1.2,0.4,2.3,0.3,3.5c0.1,1.9-0.4,3.7-1.2,5.4
		c-0.8,1.4-1.9,2.7-3.2,3.6c-1.4,1-3,1.7-4.7,2.1c-1.8,0.4-3.6,0.7-5.4,0.7"/>
</g>
</svg>
