<svg xmlns="http://www.w3.org/2000/svg" xml:space="preserve" id="Capa_1" x="0" y="0" style="enable-background:new 0 0 512 512" viewBox="0 0 512 512"><style>.st3,.st40{fill:#fff}.st40{stroke:#235b2f;stroke-width:.331;stroke-miterlimit:10}.st41{fill:#235b2f}.st45{fill:#1e5a2d}.st49,.st50,.st51,.st53{fill:#fff;stroke:#235b2f;stroke-width:.166;stroke-miterlimit:10}.st50,.st51,.st53{fill:#235b2f;stroke:#fff;stroke-width:8.300000e-02}.st51,.st53{stroke:#1e5a2d;stroke-width:.331}.st53{stroke:#fff}</style><path d="M324.6 293.2c5.9-56.2 31.3-49.4 31.3-49.4 26.7 1.2 29.2 27.7 29.2 27.7.5 10-4.5 12.3-4.5 12.3 28.6 0 55.5-24.5 55.5-54.6s-26.2-54.6-58.5-54.6c0 0-83.5-1.9-83.5 121.2 0 0 0 63.5 59.8 47.8 0 0 23.2-5.4 16.9-33.4-.1 0-34.7 25-46.2-17z" class="st40"></path><path d="M321.7 287.5c5.1-57.1 34.7-47.4 34.7-47.4 25.4 1.2 31.7 27 31.7 27 1.9 9.5-1.2 13.2-1.2 13.2 24.2-2.8 45.7-27.4 45.7-50.1 0-28.6-24.9-52.4-55.5-52.4 0 0-79.4.3-79.4 116.9 0 0 1.4 52.7 45.7 48.1 0 0 28.2-1.8 25.3-27.4 0 .1-44.1 22.6-47-27.9z" class="st41"></path><path d="m402.7 204.8-10 6.1-10.9-4.3 3.1 10.7-7.8 8.5 11.9.5 6.2 9.6 4.3-10.4 11.6-2.6-9.3-7 .9-11.1z" class="st3"></path><path d="M187.4 293c-5.9-56.2-31.3-49.4-31.3-49.4-26.7 1.2-29.2 27.7-29.2 27.7-.5 10 4.5 12.3 4.5 12.3-28.6 0-55.5-24.5-55.5-54.6s26.2-54.6 58.5-54.6c0 0 83.5-1.9 83.5 121.2 0 0 0 63.5-59.8 47.8 0 0-23.2-5.4-16.9-33.4.1.1 34.7 24.9 46.2-17z" class="st40"></path><path d="M190.3 287.4c-5.1-57.1-34.7-47.4-34.7-47.4-25.4 1.2-31.7 27-31.7 27-1.9 9.5 1.2 13.2 1.2 13.2-24.2-2.8-45.7-27.4-45.7-50.1 0-28.6 24.9-52.4 55.5-52.4 0 0 79.4.3 79.4 116.9 0 0-1.4 52.7-45.7 48.1 0 0-28.2-1.8-25.3-27.4 0 0 44.1 22.6 47-27.9z" class="st41"></path><path d="m109.3 204.7 10 5.9 10.9-4.2-3.1 10.7 7.8 8.5-11.9.5-6.2 9.5-4.3-10.3-11.6-2.7 9.3-6.9-.9-11zM174.1 114.9c1.8 3.4 4.3 6.6 6.5 9.7 1.9 2.7 3.9 5.5 6.5 7.7 2.8 2.6 4.9 3.5 5.7 7.7l.7-25c-3-.3-3.6-4.9-5.1-6.9-1.8-2.2-4.2-3.5-5.3-6.1l.4.1c5.8-1.6 12.3-.3 18.1.7 1.5.3 3.1-.3 4.6-.3 3.4.1 6.9 4.3 6.9 4.3l2-.9c-1.9-3.2-6.3-8.2-9.9-9.3-2.3-.7-5.3-1.2-7.7-1.4-3.4-.3-6.9-.9-10.1-.9 7.6-.3 15.1.7 22.7.5 7.7-.1 13.9 2.6 20.1 6.9l-1.4.1c-1.4-5.1-6.1-10.4-10.5-12.8-3.1-1.8-6.8-1.2-10-1.1-6.6.3-13.5.3-20.1-.1 0 0-4.2 3.6-6.3 3.6 2.4-.3 5.1-3.5 6.9-5.3 1.5-1.6 2.7-3.9 4.5-5.1 5.3-3.9 10.9-7 17.7-7.8l-1.6 1.2c-3.9 0-9.2-.1-13 1.1-3.5 1.1-6.2 3.2-8.9 5.7-1.9 1.8-4.7 3.5-7.2 4.7-1.5.8-3.1 1.9-4.9 2l-13.6 10.4c-2.6 2.4-6.3 5.7-9.3 7.8-3.1 2.3-5.7 5.7-7.7 8.9-3.4 5.4-9.2 17-1.8 21.6.8.7 1.9 1.1 2.8 1.4l1.8-.3c-1.4-1.1-3.8-3.8-4.5-5.5-.9-2.6.1-5.8.8-8.2.8-3.1 2.4-5.7 4.7-8 1.9-1.9 4.7-4.5 7.3-5.3l1.2-.3c.1 2.7-2.4 5-3.2 7.3-.9 2.6-1.1 5.5-.9 8.2.3 2.7 2 4.5 2.3 7 .3 2.6-2.3 4.3-2.6 6.9-.1.9-1.8 2.3-1.2 3.1l.8 1.6c.3-1.1.9-1.9 1.5-3.1.5-1.1 4.5-3.9 4.3-6.9-.3-3.1-2.4-5.3-2.4-8.5 0-3.1.9-5 2.4-7.6.7-1.4 1.5-2.7 2.3-3.9 1.1-1.4 2.7-2.6 3.5-4.1 0 0 .5-2.7-.1-4.3 1.5 5.9-1.5 12-1.9 18.1-.3 3.1.1 5.9.3 9.1.3 4.2.1 6.1-2.6 9.2l-.4.3c.1-.1.3-.3.4-.3 2.8-2.3 4.3-4.7 4.7-8.4.3-2.8 0-5.5.8-8.2 1.1-3.8 2.7-7.3 3.1-10.9.4-2.7 1.1-6.2-.7-9.7.9 3.2 1.1 4.7 1.1 4.7 2.3 3.2 2.6 3.1 2.7 6.3.3 3.5.5 6.6 2.7 9.3 1.5 1.9 3.2 4.2 2.8 6.9-.3 1.5-1.1 2.4-1.4 3.9-.3 2.3 0 4.3 1.5 6.3.3.3.4.7.7.9l1.1.7c-2.4-.8 0-7.7.7-9.3.9-1.9 2-3.5 2.2-5.4.1-1.5-.1-5-1.9-5.4" class="st3"></path><path d="m180.1 124.9.3.1s.1 0 .3.1l.3.3s-.1-.1-.4-.3c-.2-.1-.5-.1-.5-.2zm1.9 4.1v-.3s0-.8-.3-1.5c-.1-.7-.5-1.4-.5-1.4.5 1.4.8 2.4.8 3.2zm0 1-.3 1.9c0-.1.3-.7.3-1.2v-.7zm-19.8 9c0 .1-.1.3-.1.4 0-.2.1-.2.1-.4z" class="st41"></path><path d="M164.1 112.2v-.3c-.1 2.6-.8 5.1-1.4 7.8-.5 2.7-.8 5.4-.7 8.1v-.4l.4 8.4c0 1.4-.1 2.7-.7 4.1-.3.7-.5 1.2-.9 1.8-.1.3-.4.5-.5.8l-.3.4-.4.3v.1l.4-.3c1.5-1.2 2.7-2.6 3.5-4.3.8-1.6 1.1-3.5 1.2-5.4.1-1.9 0-3.8.4-5.5.4-1.9 1.1-3.6 1.6-5.4 0 .1-.1.3-.1.5.1-.7.4-1.4.7-2 .1-.1 0 .1-.1.4.5-1.4 1.1-3.4 1.4-5.3l.5-4.6v-.7c0-1.6-.3-3.2-1.1-4.9l.1-.1c.4 1.5.9 3.1 1.1 4.7l1.6 2.3c.5.8.9 1.8 1.1 2.7l.5 5.7c.3 1.9 1.1 3.6 2.2 5 1.2 1.5 2.4 3 2.8 4.9.1.5.1.7 0 .5.1.7.1 1.2 0 1.9s-.4 1.2-.7 1.8c-.3.5-.5 1.1-.5 1.8-.1.5-.1 1.2-.1 1.9 0 1.2.3 2.4.8 3.5.3.5.6 1 1.1 1.5l.3.4c0 .1.3.1.4.3l.8.5 1.5.9-1.6-.5c-.7-.3-.9-.8-1.1-1.4-.1-.5-.1-1.1-.1-1.8.1-1.1.4-2.2.7-3.2.3-1.1.7-2.2 1.1-3.1l1.5-2.8c.1-.3-.4.8-.1 0l-1.9 3.8c-.4 1.2-.8 2.6-1.1 3.9v-.4c-.3.9-.1 1.1-.1 1.2s0 .3-.1 1.4v.1c0 .4 0 .9.3 1.4.1.4.5.8.9 1.1l.3-.5-1.1-.7-.7-.9c-.5-.7-.8-1.5-1.1-2.2-.4-1.6-.4-3.2-.1-4.7.1-.4.7-1.4 1.1-2.7.3-1.2 0-2.6-.3-3.4-.4-1.1-1.1-2-1.4-2.3-.9-1.4-2-2.4-2.7-3.9s-.9-3-1.2-4.6c-.3-1.6-.1-3.2-.5-4.9-.1-.8-.7-1.6-1.1-2.2l-1.4-1.9c-.1-1.5-.7-3.2-1.1-4.7l-.4.1c.8 1.5 1.1 3.2 1.1 5s-.3 3.4-.5 5.1c-.5 3.4-1.9 6.6-3 10-.9 2.7-.5 5.8-.9 8.9-.1 1.5-.7 3.1-1.5 4.5s-1.9 2.6-3.2 3.6l-.4.3.3.3c.1-.1.3-.1.5-.4l.4-.5c.3-.3.5-.6.7-.9.4-.7.8-1.5 1.1-2.3.8-2.7.1-6.8 0-10 0 0 0-.7-.1-1.4V127c0-3.4.8-6.6 1.5-9.9.7-3.2 1.2-6.6.5-10l-.3.1c.3.7.3 1.6.3 2.4 0 .4 0 .8-.1 1.2 0 .1-.1.3-.3.5-.9 1.4-2.3 2.4-3.4 3.6-.9 1.4-1.8 2.8-2.6 4.3s-1.6 3-1.9 4.6c-.3 1.6-.4 3.4.1 5l1.8 4.6c.3.8.4 1.6.1 2.4-.1.8-.7 1.5-1.1 2.2l-1.6 1.9c-.5.7-1.2 1.1-1.6 2l-.8 1.4c-.1.3-.3.5-.3.7s-.1.3-.1.3 0-.1-.1-.1l-.5-1.1c-.1-.1-.1-.4 0-.7s.3-.5.5-.8c.1-.3.4-.5.5-.8.1-.1.1-.3.1-.5v-.4c.3-1.2.9-2.3 1.6-3.4.3-.5.7-1.1.8-1.8.1-.7.1-1.4 0-2-.3-1.2-.9-2.4-1.4-3.5-.5-1.1-.8-2.3-.9-3.5l.1-3.6c.1-1.2.4-2.4.7-3.5.4-1.2 1.1-2.2 1.6-3.2.7-1.1 1.4-2.2 1.6-3.4 0-.3.1-.5.1-1.1v-.1s0-.1-.1-.1l-.4.1-.5.1c-.5.1-1.2.4-1.8.7-2.2 1.2-4.1 2.8-5.8 4.6-1.8 1.8-3.2 3.8-4.2 6.2-.5 1.2-.8 2.4-1.1 3.6l-.7 3.8v-.4c-.8 3.8 2.7 6.9 4.6 8.8l-.9.1h-.5l-.5-.1c-.8-.3-1.5-.7-2.2-1.1l-1.1-.8c-.4-.3-.7-.7-.9-.9-1.1-1.5-1.6-3.4-1.6-5.3s.4-3.8 1.1-5.5c1.2-3.6 3.1-7 5.1-10.3 2.2-3.2 4.6-6.2 7.8-8.2 3-2.3 5.8-4.7 8.4-7.3l10.8-8.2c.9-.7 1.9-1.4 2.7-2.2.5-.1 1.1-.1 1.6-.4.5-.1 1.1-.4 1.6-.7s1.1-.5 1.5-.8l1.6-.8c1.1-.5 2-1.2 3-1.9.9-.7 1.9-1.4 2.8-2.2.8-.8 1.7-1.6 2.7-2.3 1.9-1.5 3.9-2.7 6.2-3.4 2.3-.7 4.6-.9 7-.9h3.5c1.1-.1 2.4.3 3.2-.7l.5-.4.3-.1h-.3l-1.2.1c-.8.1-1.5.3-2.2.5-1.5.4-2.8.8-4.3 1.5-2.8 1.2-5.4 2.7-7.8 4.3-1.2.8-2.6 1.6-3.5 2.8l-2.8 3.5s-2 2.3-3.1 3.2c-1.1.9-2.3 2-3.8 2.2v.1c1.2-.1 2.3-.8 3.4-1.5s2-1.5 3-2.3h.4c7.6.4 15.4.4 23.2-.1 1.9 0 3.9.1 5.8.9 1.8.8 3.4 2 4.9 3.4 2.8 2.7 5.3 5.9 6.2 9.6 0 0 0 .1.1.1h.7c.3 0 .9 0 .4-.3-.5-.4-1.1-.7-1.6-1.1-1.1-.7-2.2-1.4-3.4-1.9-2.3-1.2-4.9-2.3-7.6-2.8-2.7-.7-5.4-.8-8-.8s-5 0-7.3-.1c-5-.3-10-.5-15-.5v.1c2.8 0 5.7.5 8.4.8 2.8.1 5.7.4 8.4 1.2 2.8.7 5 2.6 7 4.6.9 1.1 1.9 2.2 2.7 3.2.3.3.4.5.7.8l.3.4.1.3.1.1h-.1l-1.9.9c-1.2-1.4-2.7-2.6-4.3-3.4-.9-.5-1.9-.8-3-.8s-2.2.1-3.1.3c-1.1 0-2.2-.3-3.1-.4l-3.1-.4c-4.2-.5-8.5-.9-12.6.1-.1 0-.3.1-.4 0-.1 0-.3-.1-.3 0 .1.1.1.3.3.5.3.4.5.8.9 1.2.7.8 1.5 1.5 2.2 2.2.8.7 1.5 1.5 2.2 2.3.5.9.9 1.9 1.4 2.8.4.9.9 1.9 1.6 2.6.4.4.8.7 1.2.8.1 0 .3 0 .4.1.1 0 .4 0 .3.3v.8c-.1 2-.1 4.1-.3 6.2l-.5 17.8h.1c-.3-1.1-.5-2.3-1.2-3.2-.7-1.1-1.5-1.9-2.4-2.6l.3.3c-1.1-1.1-2.6-2.2-3.6-3.2-1.1-1.1-2-2.2-2.6-3l.3.3c-.9-1.4-2.4-3-3-3.8l-.1-.1c-1.2-1.6-.1-.3-.9-1.5-.4-.4-.1-.1-.9-1.1 0-.3-2.8-3.9-2.7-4.2.5.9-.8-1.5.5.5-.1-.3-.7-1.1-1.2-1.9-.4-.8-.8-1.4-.8-1.2-.1-.3-.8-1.4 0 .5l.3.3c.3.7.3.4.3.7 1.4 2.3 1.5 2.6 2.6 4.2.8 1.1 1.9 2.4 2.4 3.4l.3.4c.3.5 1.9 2.4 1.4 1.8 1.6 2.2 3.4 4.5 5.5 6.5 1.1.9 2.3 1.9 3.4 3s1.8 2.4 2.2 3.8c0 .1.1.4.1.7l.4 1.4v-1.5c0-1.4.1-3.5 0-2.6.1-1.5.3-5.9.4-7.6v.4c.3-3.2 0-3.8.3-6.9-.1-.5.1-5.5.1-7.2 0-.4 0-.5.1-.4v-1.1h-.4c-.4-.1-.7-.1-.9-.3-.5-.3-.9-.8-1.4-1.4-.7-1.1-1.2-2.4-1.9-3.8-.5-1.4-1.6-2.3-2.6-3.1-.9-.9-1.9-1.8-2.6-2.6-.1-.1-.3-.4-.4-.5-.1-.1-.1-.3-.3-.4.3 0 .5-.1.8-.1 1.1-.3 2.2-.4 3.4-.4 2.3-.1 4.5 0 6.2.1 1.7.2 3.4.4 5.1.8.9.1 1.9.4 3 .4s2-.3 3-.3h-.4c.8-.1 1.5-.1 2.3.1.8.1 1.5.5 2.2.9.7.4 1.3.9 1.9 1.5l1.6 1.6c.7-.3 1.2-.5 1.8-.8.1-.1.4-.1.5-.3.1 0 0-.1 0-.3l-.1-.3c-.1-.3-.3-.4-.4-.7-.7-1.2-1.8-2.7-3.1-4.1-1.1-1.1-2.7-2.7-4.9-3.9-1.1-.7-2.4-.9-3.5-1.2-1.2-.3-2.4-.4-3.5-.5-.7-.1-3.6-.3-3.9-.4-2.6-.3-5.3-.7-8.2-.7v.4c5.4-.1 10.9.3 16.6.4 1.4 0 2.8.1 4.2.1 1.4 0 2.8 0 4.2.1 2.7.1 5.4.8 8 1.6h-.1c1.6.5 3.5 1.2 5.1 2 .1.1.1.1-.3-.1 1.1.5 2.2 1.2 3.1 1.8l.8.5.5.4.1.1h-.6c-.3 0-.3.1-.4-.1-.1-.3-.1-.5-.3-.8-.1-.5-.4-1.1-.7-1.8-.5-1.1-1.2-2.3-2-3.4l-.1-.1s-.3-.4-.5-.7c-.3-.4-.5-.7-.5-.7s.1 0 .7.8c-2-2.6-4.5-4.9-7.6-6.3-1.5-.7-3.2-.9-4.9-.9s-3.2.1-5 .1c-6.7.3-13.3.3-20 0-1.1.9-1.9 1.6-3 2.3-1.1.7-2.2 1.4-3.2 1.5v.3c1.5-.1 2.7-1.2 3.9-2.2 1.1-.9 2-2 3-3.2.9-1.1 1.8-2.3 2.7-3.4.5-.5.9-1.1 1.5-1.5.5-.4 1.2-.8 1.8-1.2l-.7.5s.8-.7 1.8-1.2c.8-.5 1.8-1.1 1.8-1.1s-.1.1-.4.3c2.3-1.4 4.7-2.6 7.3-3.5 1.2-.4 2.6-.8 3.9-1.1.7-.1 1.4-.3 1.6-.3h.3l-.1.1-.5.4c.1-.1.4-.3 0-.1-.1.1-.4.3-.5.4h-4.1c-1.4 0-2.4 0-3.4.1h.1c-2.7.1-5.4.7-8 1.8-2.4 1.2-4.6 3-6.6 4.9-2 1.8-4.3 3.2-6.8 4.6-1.2.7-2.3 1.4-3.6 1.9-.3.1-.7.3-.9.3-.1 0-.3 0-.5.1h-.3c-.1 0-.3.1-.3.1l-.7-.3c-3.5 2.8-7.3 5.7-11.1 8.6l-.7.5-.7.7-1.4 1.2-2.7 2.4-5.5 4.3c-2.2 1.8-3.9 4.1-5.5 6.5-1.6 2.4-3.1 4.9-4.3 7.6s-2.2 5.5-2.3 8.4c0 1.5.1 3 .7 4.3.6 1.3 1.6 2.4 2.8 3.2.7.5 1.6.9 2.4 1.2.4.3.8.1 1.2 0 .4 0 .8-.1 1.1-.1-.3-.1-.4-.4-.7-.5l-.5-.5c-.4-.4-.7-.7-.9-1.1-.7-.7-1.2-1.5-1.8-2.2-1.1-1.5-1.2-3.6-.8-5.7v-.1c.1-1.1.5-2.2.8-3.2s.7-2.2 1.1-3.2c.9-2 2.4-3.9 4.2-5.5 1.8-1.6 3.5-3.1 5.5-4.3.5-.3 1.1-.5 1.6-.7.3 0 .5-.3.7-.1v.8c-.3 1.1-.8 2.2-1.4 3.1l.3-.5c-.3.7-1.1 1.8-1.6 2.8-.5 1.1-.7 1.9-.5 1.6l-.3.8v.8c-.3 1.5-.4 3-.3 4.5 0 .7 0 1.5.1 2.2.2.7.4 1.5.7 2.2.5 1.4 1.4 2.7 1.5 4.5s-1.2 3.1-2 4.9l.1-.4c-.3.4-.4.9-.5 1.5s-.1 1.1-.4 1.5l-.8 1.2c-.3.4-.4.8-.1 1.2-.1-.1-.1-.1-.1-.5 0 .1 0 .4.1.5l.8 1.6v.1c.1-.9.5-1.5.9-2.2.4-.7.7-1.4 1.2-1.9.9-1.1 2-2.2 2.8-3.4.4-.7.7-1.4.8-2.2 0-.8-.1-1.5-.4-2.2-.4-1.5-1.2-2.7-1.6-4.2l.3.7c-.3-.8-.7-1.6-.7-2.7-.1-1.1 0-2.3.3-3.4.5-2.4 2.2-4.5 3.1-6.3l-.1.3s.3-.4.5-.9c.3-.4.5-.9.5-.9h.1c1.1-1.5 2.6-2.4 3.5-3.9.1-.1.3-.4.4-.5v-.8c0-.4.1-.8.1-1.4 0-.8 0-1.8-.3-2.6h-.1c.4 2.5.4 4.4.2 6.3z" class="st41"></path><path d="M167 120.9s0 .2 0 0c0 .3 0 .2 0 0zm10.8.2c-.1-.3-.3-.4-.4-.5 0-.1.2.2.4.5zm35.4-16.9h-.2.2zm-.4-.1.3.1c-.1-.1-.3 0-.3-.1zm0 0c0-.2 0 0 0 0zm-6.5-4c.3 0 .5.3.8.4l2.2.9h.1c.1.1.3.2.5.3h.1c.5.3 1.1.7 1.6 1.1.5.2.9.6 1.2 1.1-.1-.1-.3-.1-.4-.3 0-.1-.1 0-.1-.1-.1-.1-.4-.4-.5-.4 0-.1-.1-.1-.3-.3 0 0-.1-.1-.1 0-.7-.5-1.5-.9-2.2-1.5-.4 0-.8-.4-1.2-.7-.1 0-.4-.1-.5-.1h-.1c-1.1-.5-2.2-.8-3.2-1.1-1.2-.4-2.4-.7-3.6-.7-.4 0-.7-.1-1.1-.1-.8 0-1.8-.3-2.7-.1-.9-.1-2.2-.1-3.2-.3-.8 0-1.6-.4-2.4-.5-.8-.3-1.8-.3-2.7-.5-.5-.3-1.2-.1-1.8-.4-.9-.5-2-.5-3.1-.7-.9-.3-1.9-.4-2.8-.8-.4 0-.8-.4-1.2-.7-.1-.1-.4 0-.4-.3 0-.1-.3 0-.3-.1-.1 0 0 0 0-.1h-.1c.1-.1-.3-.1-.1-.3 0 0 0-.1.1 0 0 0-.1-.1-.3-.1 0 0-.1 0-.1.1v.1c.1.1.1.1.1.3.1 0 .1.1.3.1 0 .1.3 0 .1 0 .3.1.5.3.9.5 0 0 .3.1.3 0 0 .1.3.3.4.3.1.1.3 0 .4.1 0-.1.3.1.4 0v.1c.3.1.7.3.9.3s.5.1.8.1c.1 0 .4.1.7.1s.5.1.8.1c0 .1.1.1.3.3.1 0 .5.1.8.1 0 0 .3 0 .3.1.8 0 1.6.3 2.3.7.1 0 .3-.1.4-.1.1 0 .3.1.4.1.1 0 .3.1.4.1h.1s0 .1-.1 0l3.6.7h.3c.3.1.7.1.9.1s.4.1.5 0c.7 0 1.2.1 1.9.1.5-.1 1.1.1 1.6 0 .7 0 1.5.1 2.2.3.3 0 .5 0 .8.1.5-.1 1.1.3 1.6.3.1 0 .3.1.3 0h.1c.4-.1.7.3 1.1.1h.3c.3.3.8.1 1.1.3.1 0 .5.1.8.1h.1c-.9.7-.6.8-.3.8zm-45.9 8.7h-.1.1zm-.2-.1c.2.1 0 0 0 0zm.3-2.2c0 .1-.1.1-.1.3-.1.3 0 .4 0 .7-.1 0 0 .1 0 .1v.5c.1.1 0 .3 0 .4h.1s-.1-.1 0-.1c0 0-.1 0 0 0v-.3c.1 0 0-.1.1-.1.1-.3 0-.5.1-.7-.1-.1.1-.3.1-.4v-.1c.3-.3.3-.7.4-.9.1-.4.4-.5.4-.9 0-.1.1-.1.1-.3 0-.3.3-.4.3-.7.1-.3.3-.5.5-.8.1-.3.4-.3.5-.5.3-.1.3-.5.5-.7.3 0 .1-.4.4-.4.4 0 .5-.3.7-.5.3-.1.4-.4.7-.4 0-.1.3 0 .4-.1.1.1 0-.1.1 0v-.1c0 .1 0 0 .1.1v.1-.1c0-.1 0-.1-.1-.1 0 0-.1 0-.1-.1 0 .1 0 0 0 0s0 .1 0 0c-.1 0-.1.1-.3.1 0 0-.1 0 0 .1 0-.1-.1-.1-.1 0-.1-.1 0 .1-.1 0 0 .1-.1 0 0 .1-.1 0-.1 0-.3.1 0 .1-.1 0-.1.1 0 0-.1 0-.1.1 0 0-.1.1-.1.3-.1-.1-.1 0-.1-.1 0 .1-.1.1-.1.3h-.1c0 .3-.3.4-.5.4 0 0 0 .1.1.3h-.1s-.1 0-.1.1c-.3.3-.4.5-.7.9v.1c-.1 0-.1.1-.1.3s-.1 0 0 .1c0 .1-.1.3-.3.4 0 .3-.1.3-.1.5 0 .3-.3.4-.3.5s0 .1-.1.3c0 .1-.3.3-.1.4v.1c.1.1-.1.1-.1.3v.1c-.1 0 0 .3-.1.3v.3c-1.3-.5-1.3-.5-1.3-.4zM182 89.7c-.2-.1 0 0 0 0zM180.9 90.3h.1c.1 0 .1-.1.3-.3 0 .1 0-.1.1 0 .1 0 .1-.1.3-.1 0-.1.1-.1.3-.1v-.1s0 .1 0 0c0 0 0 .1 0 0 0 0-.1 0-.1.1h-.1v.1c-.1 0-.3.1-.4.1 0 .1-.1 0-.1.1 0 0 0 .1-.1 0-.3 0-.4.1-.5.1s-.4 0-.5.3h-.1c-.1.1-.3.1-.4.3-.1 0-.3.1-.4.1-.1.1-.3 0-.4 0-.1 0-.3.3-.4.1s-.1.1-.3.1c-.3-.1-.3 0-.4.1-.1 0-.3.1-.4 0 0 .1-.1-.1-.3 0 0-.1 0 .1-.1 0v.1s0 .1 0 0v-.1.5c0-.1 0 0 0 0 0 .1 0-.1 0 0h.1v-.1c0 .1.1.1.1.1 0 .1 0-.1 0 0v-.1h.1c0-.1.1 0 .1-.1 0 0 .1.1.1 0 0 0 .1 0 .1-.1 0 .1 0 .1.1.1 0 0 .1 0 .1-.1.1-.1.3-.1.4 0v-.3h.1s0 .1 0 0c.1 0 .4-.3.5-.3h.1c0-.1.1.1 0-.1.1-.1.1-.1.3-.1 0-.1.1 0 .1-.1.1-.1.3 0 .3-.1h.1c0-.1.1 0 .3-.1v-.1c0-.1.1 0 .1-.1.1.1.1 0 .1 0 0-.1.1 0 .1-.1l.6.3c0 .1 0 0 0 0zm-14.2 11.3c-.1-.1.1 0 0 0zm0 .7c.1-.1 0-.1 0-.3v-.1c-.1-.1 0-.1 0-.1v.1h-.1s0 .1-.1.1c.1.1 0 0 0 .1l.2.2c-.3-.1-.1 0-.3.1s-.3.1-.1.3v.1c.1.1-.1.1 0 .3 0 .1-.1.1-.1.3s-.1.1-.1.1c-.1 0 .1.1 0 .3-.1 0 .1.1 0 .1-.3 0-.1.1 0 .3-.1.1.1.1 0 .3.1 0-.1.1-.1.1-.1 0 .1 0 0 0h.1-.1.5c-.1 0 0 0 0 0 .1 0-.1 0 0 0v-.1h-.1.1c.1 0-.1 0 0 0h-.3l-.1-.1h.1l-.1-.1c-.1-.1-.1-.1 0-.1 0 0-.1 0-.1-.1v-.5c-.1-.1 0-.1 0-.1-.1-.1 0-.1 0-.1v-.4c-.1-.1.1 0 0-.1l-.1-.1c-.1-.1.1 0 0-.1.8-.1.7-.3.8-.4v.1c-.1 0 0 0 0-.1zM166.2 104.3c0 .2 0 0 0 0zm-8.1-.6c-.2-.2 0 0 0 0zM157.4 104.5c.3-.1.3-.3.3-.4.1 0 0-.1.1 0 0-.1.1-.1.1-.3s0-.1.1-.1c0 0 0 .1 0 0v.1h-.1c-.1 0-.1.1-.3.3 0 .1-.1 0-.1.1v.1c-.1 0-.3.1-.4.3s-.4.1-.4.4c0 0-.1 0-.1.1s-.1.1-.1.3c-.1.1-.3.3-.3.4 0 .1-.3.1-.3.3-.1 0-.1.3-.3.3s0 .3-.1.1c-.3 0-.3.1-.3.4-.1 0-.1.3-.3.3 0 .1-.1 0-.3.1-.1 0 .1.1 0 0-.1 0 .1.1 0 .1-.1-.1 0 0-.1 0l-.1-.1.1.1h.1s-.1-.1 0 0c0 0 0-.1.1-.1v-.1h.1c.1 0-.1-.1 0 0-.1-.1 0 0 0-.1h.1c0-.1.1 0 0-.1h.1v-.1c.1.1.1 0 .1.1v-.1c0-.1.1-.3.3-.3l-.1-.1h.1c.1-.1.1-.3.3-.4 0 0 0-.1.1-.1 0-.1.1 0 0-.1 0-.1.1-.1.1-.1 0-.1.1-.1.1-.3s.1-.1.3-.3v-.1c0-.1.1 0 .1-.1v-.1c-.1-.1.1 0 .1-.1.1 0 .1-.1.1-.1.7-.1.7 0 .8-.2 0 .1 0 .1 0 0zM166.4 97.2l8.6-5.9 149.9 220.2-8.6 5.9L166.4 97.2z" class="st41"></path><path d="M331.1 310.3c4.5-.4 5.5-6.9 5.5-10.4.3-6.5-.3-11.3 5.4-15.9" class="st3"></path><path d="M341.6 284s0 .1 0 0v-.1.1zm0 .1c-.1 0-.1 0 0 0zm-3.6 5c0-.3.3-.4.3-.7.3-.5.5-1.1.9-1.6v-.1c.1 0 .1-.4.3-.4v-.1c.3-.4.7-.8.9-1.2.1-.4.5-.7.9-.9-.1 0-.1.3-.3.3s0 .1 0 .1l-.4.4c-.1 0-.1.1-.3.1v.1c-.5.4-.9 1.1-1.4 1.6-.1.4-.4.5-.5.9 0 .1-.1.3-.3.4v.1c-.5.8-.8 1.8-1.1 2.7-.3 1.1-.5 2-.4 3.1v.8c.1.7-.1 1.5 0 2.2v2.7c0 .7-.1 1.4-.1 2-.1.7 0 1.5-.3 2.2-.3.4-.1 1.1-.4 1.4-.4.8-.7 1.6-.9 2.4-.5.7-.8 1.4-1.6 1.8-.3.3-.7.3-1.1.4-.1 0-.3.3-.4.1-.1 0-.1.3-.1.1h-.1s0 .1 0 0-.3.1-.3-.1c0 0-.1 0 0-.1 0 0-.1 0-.1.1v.3c.1 0 .1 0 .3.1 0-.1.1 0 .1 0s.1-.1.1 0c.3 0 .5-.3.8-.3 0 0 .3-.1.1-.1.1 0 .3 0 .4-.1.3 0 .1-.1.3-.1 0-.1.3-.1.3-.3.2-.1.4-.3.5-.5 0-.3.4-.3.3-.5.1-.1.3-.3.3-.4.1-.1.2-.3.3-.5.1 0 .1-.1.3-.1 0-.1.1-.4.1-.7.1 0 0-.1.1-.1.1-.7.4-1.4.7-1.9 0-.1-.1-.3-.1-.3 0-.1.1-.3.1-.3 0-.1.1-.3.1-.4v-.1c.3-.9.1-2 .3-3.1v-.9c-.1-.1.1-.3 0-.4v-1.5c-.1-.4 0-.9-.1-1.4-.1-.5 0-1.2.1-1.8v-.7c-.1-.4.3-.8.1-1.4 0-.1 0-.3-.1-.3v-.1c-.1-.3.1-.5.1-.9v-.3c.1-.3.1-.7.3-.9 0-.1.1-.4.1-.7v-.2c.8.5.8.3.9.1zm-6.5 21.4c-.1 0 0 0 0 0z" class="st45"></path><path d="M314.4 321.3c-2.2 1.2-3.6 2.6-5 4.6-1.8 2.4-4.1 4.9-7.2 5.4-.8 1.5-5.8 1.9-7.4 2.2-2 .1-5.8.5-7.6-.4 4.9-.9 8.9-2.7 13.1-5.4 1.8-1.1 3-2.7 4.6-3.9 1.1-.9 2.2-1.5 3-2.7-5.3 2.8-12 2.2-17.4-.1-3-1.2-5.5-2.4-8.6-3.5-3-.9-8-3.2-9.1-6.5 3.1 5.3 12.7 6.2 14.7 7.3 2.8 1.4 8.9.9 11.6-1.1-1.4-.9-3.1-1.4-4.5-2.6s-2.8-2.7-3.6-4.5c-1.8-3.4-1.5-8-1.5-11.8 1.6 2 1.6 4.6 2.4 6.9 1.5 4.2 5.7 9.1 10.7 8.9-2.6-1.2-5.4-4.7-6.8-7.2-1.9-3.4-.4-8-3.4-10.7.4.8 1.1 1.4 1.6 2 2.3 2.7 3.4 6.2 5.5 8.9 1.2 1.5 2.7 2.2 4.2 3.2 1.1.8 2.3 1.9 3.5 2.3.9.3 1.6.4 2.7.3-1.5-1.4-2.7-3-3.8-4.7-1.9-3-4.2-7.2-4.2-10.8.9 3.1 3.4 6.1 5.7 8.4 1.4 1.5 2.8 3.2 4.5 4.5.7.5 1.9 1.5 2.8 1.4-1.9-.1-3.2-2.6-4.2-4.1-.5-.9-1.1-1.9-1.5-3-.4-1.1-.3-2.4-.7-3.5-.5-1.4-2-2.4-3.1-3.5-1.4-1.4-1.4-2.3-1.2-4.2 3.1 1.6 4.3 4.1 6.1 7 1.4 2.3 5.3 7.7 7.8 7.7-3-.7-6.2-6.9-7.3-9.5-.9-2-2.3-8.6-5.9-8.1 3.6 0 5.3 1.1 7.8 3.6 1.6 1.7 3.1 3.5 4.6 5.4.5.7.7 1.5 1.6 1.2v-.7c1.5-5.9 3.9-11.6 2.7-17.7-.7-3.6-5.9-6.9-3.2-10.8.3 3.1 2.4 4.9 3.9 7.2 1.6 2.7 1.8 6.2 3.1 8.8 0 0 .8 11.9-3.5 16.5 2.8-2.8 3.6-10 3.8-13.9.1-3.1-1.9-19.5 4.3-17.7-3.5 7.8.9 13.5.9 21.5 0 0-4.3 7-4.1 11.2-.3-5.7 4.9-11.5 6.5-13.6 1.6-2.3 1.2-2.8 3-4.7 0 0 3 .7 8.5-3-3.9 4.6-5.1 10-5.8 14.7-.4 2.7-.8 11.9-4.6 12.3" class="st3"></path><path d="M334.6 311.1h.3l.7-.3-1 .3zm3-3.2c0 .1 0 0-.1.1 0 0 0 .1-.1.4l-.4.8c-.1.3-.3.5-.5.8l-.3.3c1-.8 1.1-1.7 1.4-2.4zm.3-.7c.4-.9.3-1.4.4-1.6 0 .4-.6 1.9-.4 1.6zm-8.5-31.7v.3c-.2-.2 0-.3 0-.3z" class="st45"></path><path d="M325.8 289.3v.3c-.1-4.2-.5-8.9.3-13.2v.3c.3-1.4.7-2.8 1.8-3.6.5-.4 1.2-.5 1.9-.4h.1v.1l-.1.4c-.1.3-.3.7-.4.9-.4 1.4-.7 2.7-.7 4.1s.1 2.7.3 4.1c.4 2.7 1.2 5.3 1.6 8 .1.7.1 1.4.3 2v1.6c0 .1.1.4 0 .5L329 298c0-.1.1-.3.1-.4-.3.5-.4 1.1-.7 1.6-.1.1 0-.1.1-.4-.8 1.6-1.8 4.5-1.6 6.5h-.1c0-.7 0-1.2.1-1.6 0-.7.1-.9 0-.5.5-3.1 2.2-5.8 3.9-8.4l2.8-3.8c.4-.7.7-1.4 1.1-2.2.4-.8.8-1.4 1.5-2 1.5.3 2.7-.1 3.9-.7.7-.3 1.2-.5 1.8-.8.3-.1.5-.3.8-.5l.5-.3.7-.4c.5-.4.5-.4.4-.1l.9-.5-.7.8c-.4.4-1.1 1.4-1.2 1.6l-1.5 2.4c-.8 1.8-1.5 3.5-2 5.4-.5 1.9-.8 3.8-1.1 5.8l-.8 5.8c0 .3.1-.8.1 0 .5-2.4.5-4.6.9-6.8v.3c.3-1.6 0-.4.3-2 .1-.7 0 .1.1-.1.5-3.4 1.8-6.9 3.4-9.7.1-.1.3-.4.5-.8.1-.1.3-.3.4-.5.3-.3.5-.7.8-1.1l.9-1.1.4-.4h-.1c-.1.1-.4.3-.5.4l-1.9 1.2c-.3.1-.5.3-.7.4-.1.1-.3.2-.5.3-.3.1-.7.3-.8.4-.8.4-1.6.7-2.4.9-.4.1-.8.1-1.2.3h-1.4l-.5.5c-.1.1-.3.4-.4.5l-.7 1.1-1.2 2.3-3.1 4.2c-1.9 2.8-3.6 6.2-3.5 9.9h.4c0-1.8.5-3.5 1.1-5.3.7-1.8 1.5-3.4 2.3-5 .1-.4.4-.5.5-1.1v-1.2c0-.8-.1-1.6-.3-2.3l-.9-4.9c-.8-3.2-1.5-6.8-.7-10.1.1-.5.3-1.2.5-1.8.1-.3.3-.7.4-1.1l.1-.1v-.1h-.1l-.4-.1h-.5c-.8 0-1.5.4-2 1.1-.4.5-.8 1.2-.9 1.9l-.3 1.1c-.1.5-.1 1.1-.1 1.1-.3 2.2-.4 4.5-.4 6.8l.1 6.9c-.1 2.3-.4 4.6-.9 6.8s-1.2 4.5-2.8 6.1l.3.3c1.2-1.4 2-3.2 2.4-5 .5-1.8.8-3.6.9-5.5l.1-5.5c0-.3 0-.4-.1-.8-.1-.3-.3-.4-.3-.7-.1-.4-.3-.8-.5-1.2-.3-.8-.5-1.8-.7-2.7-.3-1.1-.7-2.3-1.1-3.4-.5-1.1-1.2-2-1.9-2.8-.7-.9-1.4-1.8-1.8-2.8-.1-.3-.3-.5-.3-.8-.1-.3-.1-.4-.3-.9l-.1-.7v-.3s-.1.1-.1.3c-.1.4-.5.8-.7 1.2-.4 1.1-.3 2.4.1 3.4.4 1.1 1.1 2 1.8 2.8.5.9 1.2 1.9 1.6 2.8.3.9.4 2.2.5 3.1.3 4.3-1.1 8.6-2.3 12.8l-.4 1.6-.1.8v.7s-.3 0-.5-.1c-.1-.1-.3-.4-.4-.5-.3-.5-.7-.9-1.1-1.4-1.4-1.8-2.8-3.5-4.6-5.1l.3.3c-1.1-.9-2.2-1.9-3.5-2.6-1.4-.5-2.7-.8-4.1-.8v.3c1.1-.1 2.2.4 2.7 1.4.7.8 1.2 1.9 1.6 2.8.5 1.2.9 2.4 1.4 3.8.5 1.2 1.2 2.4 1.9 3.6s1.4 2.3 2.3 3.4c.8 1.1 1.9 2.2 3.2 2.4v-.3c-.9 0-1.6-.5-2.4-1.1-.7-.5-1.4-1.2-1.9-1.9-1.2-1.4-2.3-2.8-3.2-4.3s-1.8-3.1-2.8-4.5c-.5-.7-1.2-1.4-1.9-1.9-.4-.3-.7-.5-1.1-.7l-.3-.1-.1-.1s-.1-.1-.1 0v.7c0 .8 0 1.8.5 2.4.4.8 1.1 1.4 1.8 1.9s1.2 1.2 1.8 1.9c.5.7.5 1.6.7 2.6 0 .4.1.9.3 1.4s.3.8.5 1.2l1.4 2.4c.5.8.9 1.6 1.6 2.3s1.4 1.4 2.4 1.5v-.1c-.8 0-1.5-.4-2.2-.8l-1.9-1.6c-1.2-1.1-2.3-2.4-3.4-3.6-2.3-2.4-4.5-5-5.5-8.2v-.1.1c0 1.8.5 3.4 1.1 4.9.8 2 1.9 3.9 3 5.7.5.9 1.1 1.8 1.8 2.6.3.4.7.8 1.1 1.2s.7.8 1.1 1.1H309c-.5 0-.9-.1-1.5-.3-.9-.4-1.8-.9-2.4-1.5-1.5-1.2-3.4-2.2-4.7-3.5-2.7-3-3.6-7-6.5-9.9-.4-.4-.8-.9-1.1-1.4l-.1.1c1.2 1.2 1.8 3 2 4.6.3 1.8.3 3.5.9 5.1s1.8 3.1 3 4.5c1.1 1.4 2.4 2.7 4.1 3.4.3.1 0 0-.1 0h-.4c-.3 0-.7-.1-.9-.1-.7-.1-1.2-.4-1.9-.7-1.2-.5-2.3-1.4-3.2-2.3-1.9-1.9-3.2-4.2-4.1-6.6-.5-1.9-.5-4.1-2-5.9l-.1-.1v3.1l.1 3.4c.3 2.2.7 4.5 1.9 6.2.5.9 1.4 1.6 2 2.4.7.7 1.4 1.4 2.2 1.9.5.4 1.2.7 1.8.9.3.1.7.3.9.5l.4.3.1.1-.1.1c-1.1.7-2.4 1.1-3.8 1.4-2.7.4-5.5.5-8-.7l-7.8-2.3c-2.4-.9-5-2.3-6.5-4.7h-.1c.8 2 2.6 3.2 4.3 4.3 1.8 1.1 3.8 1.8 5.7 2.4 3.4 1.1 6.5 2.8 9.7 3.9 3.4 1.1 6.9 1.5 10.3 1.1.8-.1 1.8-.3 2.6-.5l1.2-.4c.1 0 .5-.1.7-.3l.7-.3c.1 0 .3-.1.3-.1l-.3.3c-.1.1-.3.4-.4.5-.4.4-.7.7-1.1.9l-2 1.6c-1.2 1.1-2.4 2.4-3.9 3.4-1.4.9-2.9 1.7-4.5 2.4l-4.6 1.9c-.8.3-1.6.5-2.4.7-.4.1-.8.1-1.2.3h-.3c.1.1.4.1.5.3 1.6.4 3.5.4 5.3.3l5.3-.5h-.3c1.2-.1 2.7-.5 3.8-1.4.1-.1.1-.3.3-.4.1 0 .3-.1.4-.1.3-.1.5-.1.8-.3.5-.1.9-.4 1.4-.5l-.3.1c1.2-.5 2.4-2 3-2.6l.1-.1c1.1-1.2.1-.1.9-1.1.3-.4 0-.1.7-.9.1 0 .7-.8 1.4-1.6.7-.7 1.5-1.4 1.6-1.4-.7.5 1.1-.8-.4.4.3-.1.8-.7 1.5-1.1.5-.4 1.1-.7.9-.7.1-.1 1.1-.8-.4 0l-.3.3c-.5.3-.4.3-.5.3-1.8 1.2-2 1.5-3.1 2.6-.7.8-1.5 2-2 2.7l-.3.3c-.4.4-1.6 1.8-1.2 1.4-.8.7-1.8 1.4-2.8 1.9-.3.1-.5.3-.8.3-.1 0-.3.1-.4.1h-.3c-.1 0-.3.1-.3.3-.3.4-.8.7-1.5.9-2.3.8-4.9.9-7.3 1.2-.7.1-3.8 0-2.7.1-.3 0-.8-.1-1.4-.1-.3 0-.5-.1-.8-.1-.1 0-.3-.1-.3-.1s-.1 0 0 0h.5l1.4-.3s-.1 0-.3.1c2.6-.7 3-1.1 5.4-1.9.1-.1 1.2-.5 2.3-1.2 1.1-.5 2.3-1.4 2.8-1.8.3-.1.4-.1.3-.1 2-1.2 3.4-3.2 5.3-4.5l.7-.5.7-.7c.4-.4.7-.8.9-1.1l.4-.5.1-.1h-.1l-.3.1c-.4.1-.8.3-1.2.5-.3.1-.5.3-.7.3l-.4.1-1.4.4c-1.5.5-3.5.7-5.4.7-1.9 0-3.6-.4-5-.7-2.3-.5-5.7-2.2-8.6-3.4l.3.1-5.4-2c-1.8-.7-3.4-1.5-4.3-2.2-.8-.7-2-1.6-2.8-3-.1-.1-.1-.4-.4-.8l-.5.3c.7 1.1 1.9 2.4 3.5 3.4 1.6.9 3.4 1.6 5 2.2.5.3 3 .8 3.1.9 1.2.3 2.6.5 3.8 1.2 1.4.4 2.8.5 4.2.5 1.5 0 2.8-.3 4.3-.7l2-.8.7-.4.1-.1-.1-.1-.4-.3c-.4-.3-.7-.4-1.1-.5-1.4-.7-2.6-1.4-3.6-2.4s-2-2.2-2.8-3.4c-1.5-2.6-1.6-5.5-1.6-8.2v.1c0-.7-.1-1.5-.1-2.3v-1.4l.1.1c0 .1 0 .1 0 0 .1.1.1.3.3.4.1.3.3.4.3.7l.4 1.4c.3.9.4 1.9.7 3l-.1-.3c.5 1.9 1.4 3.8 2.8 5.5v.1s.3.3.4.5l.5.5s-.1 0-.7-.5c1.1 1.2 2.2 2.3 3.6 3.1 1.5.8 2.7 1.2 5.5 1.1-.4-.1-.8-.4-1.2-.7-.4-.1-.9-.5-.9-.5-.4-.3-.7-.5-.9-.8-.7-.5-1.2-1.2-1.8-1.9-1.1-1.4-2.2-2.8-2.8-4.3-.7-1.6-.8-3.4-.9-5.1-.3-1.8-.7-3.6-2.2-4.9l-.8-.7.5.9c.4.9 1.2 1.5 1.8 2.3.5.7 1.1 1.5 1.6 2.3l2.8 5c.5.8 1.1 1.6 1.9 2.3.7.7 1.5 1.2 2.3 1.8 1.6.9 3 2.4 4.9 3.1l-.7-.3c.5.3 1.1.4 1.6.4h1.9l-.1-.1s.1.1.3.1h-.8.3l-.9-.8-.5-.5c-.4-.4-.7-.8-1.1-1.2-.7-.8-1.2-1.8-1.9-2.7-1.2-1.9-2.2-3.8-3-5.8 0 0 .3.7.1 0-.7-1.8-.9-3.2-.9-4.5h-.4c.2.7.5 1.3.8 1.9 0 .1.1.3-.1 0 1.4 2.7 3.4 5 5.4 7l3.1 3.2c.5.5 1.1.9 1.8 1.5.7.4 1.4.8 2.2.8v-.3c-.7-.1-1.4-.5-1.9-.9-.5-.5-1-1.1-1.4-1.8-.8-1.2-1.6-2.6-2.2-3.9-.4-.8-.4-1.8-.5-2.7s-.7-1.9-1.4-2.6l-2.2-2c-.7-.7-1.1-1.6-1.1-2.6 0-.4 0-1.1.1-1.2l1.2.7c.8.5 1.5 1.2 2.2 2 1.2 1.5 2.2 3.4 3.1 5l3.1 4.1c.5.7 1.2 1.2 1.9 1.8s1.5.9 2.3 1.1c-1.6-.4-2.8-2-3.8-3.2-.9-1.4-1.9-3-2.7-4.5-.8-1.5-1.4-3.2-1.9-4.9-.7-1.6-1.4-3.2-2.7-4.3-.7-.5-1.5-.7-2-.5v.1c1.6 0 3.1.3 4.5.9 1.4.7 2.4 1.8 3.6 3v.1c1.4 1.4 2.4 2.7 3.6 4.2.3.4.7.7.8 1.2.3.4.5.8 1.1.8h.1c.1 0 .1 0 .1-.1v-1c0-.3 0-.4.1-.7l.4-1.4c1.1-3.8 2.3-7.4 2.4-11.3v.5-2.7c0-.9-.1-1.6-.3-1.5 0 0-.1-1.4-.3-1.4-.8-2.4-2.7-4.2-3.6-6.5-.3-.5-.3-1.2-.3-1.9s.3-1.4.7-1.9c0 0 .1-.3.1-.1v.3c0 .1 0 .3.1.5 0 .3.1.7.3 1.1.3.7.7 1.4 1.1 2l-.3-.3c.9 1.4 2.3 2.8 2.8 3.9-.1-.1 0-.1-.3-.4 1.4 2.3 1.6 5.1 2.7 7.8.1.3.3.7.4.9s.1.7.1 1.1v2.2c0 1.4-.1 2.8-.3 4.2v-.7c-.1 1.2-.3 3.1-.8 4.9s-1.4 3.6-2.4 5l.3-.3s1.1-1.5.9-1.5h.1c1.1-2 1.6-4.3 2-6.5 1-2.6 1.1-4.7 1.1-7zm2.9 9.4c0-.1 0-.1 0 0 .1-.2.1-.1 0 0z" class="st45"></path><path d="m309.6 324.9.4-.4-.4.4zm-3.3-8.9c0 .3 0 0 0 0zm0 .1s0-.1 0 0zm.6-.2s0-.2 0 0c-.1 0-.3 0-.3.1 0-.1 0 0 0 0v.1s-.1 0-.1.1-.1.1-.1 0v.1s0-.1 0 0c0 0 0-.1 0 0v.1-.1h.3c0-.1.1 0 .1 0l.1-.4c0 .3.1.1.3.3.1 0 .3.1.3 0h.1c.1-.1.1 0 .3-.1h.3c.1 0 .1.1.3 0 .1 0 .1-.1.3-.1 0 .1.1-.1.1 0 .1.3.1.1.3 0 .1.1.1-.1.3 0 0-.1.1.1.1.1 0 .1 0-.1 0 0v-.1s0-.1 0 0v.3-.5c0 .1 0 0 0 0 0-.1 0 .1 0 0h-.1v.1-.1c0-.1 0 .1 0 0v.1h-.1v.1s0-.1 0 0v.1-.1l-.1.1c0 .1-.1.1-.3 0v.3s0-.1 0 0c0 0 0-.1 0 0 0 0 0-.1 0 0-.1 0-.3.1-.3.1h-.1c0 .1 0-.1 0 0h-.1c0 .1-.1 0-.1.1s-.1 0-.1 0h-.1c0 .1-.1-.1-.1 0v.1c0 .1 0-.1-.1 0 0-.1-.1 0-.1 0-.8-.8-.8-1-1-.8 0-.2 0 0 0 0zm2.5 2.1c-.2.2 0 0 0 0zM309.4 318c0 .2 0 0 0 0zm.5.2s0-.2 0 0c-.1-.1-.1 0-.3 0 0-.1 0 0 0 0h-.1c-.1.1-.1 0-.1 0s0-.1 0 0h.1v.1h.1c.1-.1 0 0 .1 0s.1-.1.2-.1c-.1.3 0 .1 0 .3 0 0 .1.1.3 0s.1 0 .1 0h.1c.1 0 0 .1.1.1 0 .1.1-.1.1 0s.1-.1.1 0c0 .3.1.1.1 0 0 .1.1 0 .1.1.1-.1 0 .1 0 .1 0 .1.1-.1 0 0 0 .1.1-.1 0-.1-.1.1 0 0 0 .1v.1l.1-.1v-.1s-.1.1 0 0h-.1v-.1c0-.1-.1.1 0 0 0 .1 0 0-.1.1v-.1c0 .1 0 0-.1 0 0 0 0-.1 0 0h-.1v-.1h-.1c-.1.1-.1 0-.1-.1l-.1.1s0-.1 0 0c0 0 0-.1 0 0h-.3s0-.1 0 0h-.1c-.1.1-.1 0-.1.1-.1.1-.1 0-.1 0-.1.1 0-.1-.1 0v.1c-.1.1 0-.1-.1 0 .7-.7.5-.5.4-.5.1-.2 0 0 0 0zm15.1-13.9c-.1-.2 0 0 0 0zm0-.2c-.1 0 0 .2 0 0 0 .2 0 .2 0 0z" class="st45"></path><path d="M325 304.8c-.1 0 0 0 0 0 .1-.1 0-.1 0-.3v-.1c-.1-.1 0-.1 0-.1v.1h-.1v.1c.1.1 0 0 0 .1l.1.2c-.3 0-.1 0-.3.1 0 .1-.1.1 0 .3v.1c.1.1 0 .1.1.3v.3c0 .1-.1.1 0 .1 0 0 .1.1 0 .3-.1 0 .1.1 0 .1-.3.1-.1.1 0 .3-.1.1.1.1 0 .3.1 0-.1.1-.1.1-.1 0 .1 0 0 0h.1-.1.5c-.1 0 0 0 0 0s-.1 0 0 0h-.1.1c.1 0-.1 0 0 0h-.4c-.1 0-.1-.1 0-.1h-.3c0-.1-.1-.1-.1-.3v-.1c-.1 0 .1 0 0 0v-.1c-.1 0 0-.1-.1-.1-.1-.1 0-.1 0-.1-.1-.1.1 0 0-.1h-.1c-.1-.1.1 0 0-.1.8-1 .7-1.2.8-1.3v.1c-.1 0 0 0 0-.1zm5.8-1.4c-.1-.1.2 0 0 0z" class="st45"></path><path d="M330.8 304.1c.1-.1 0-.3 0-.3v-.3c-.1-.1 0-.1 0-.1h-.1v.1h-.1c-.1 0 0 .1-.1.3.1.1 0 .1 0 .1l.3.2c-.3-.1-.1 0-.3.1s-.3.1-.1.4v.1c0 .1-.1.1 0 .3 0 .1-.1.1-.1.3 0 .1-.1.1-.1.1-.1 0 0 .3-.1.3s0 .1-.1.1c-.3 0-.1.1-.1.3-.1 0 0 .3-.3.1 0 .1-.1 0-.1 0-.1 0 .1.1 0 0 0 0 .1.1 0 .1l-.1-.1s.1 0 .1.1c0 0-.1-.1 0 0v-.3h.1c.1.1-.1-.1 0 0-.1-.1 0 0 0-.1h.1c0-.1.1 0 0-.1v-.1c.1.1.1 0 .1 0v-.1c-.1-.1 0-.1.1-.1l-.1-.1c.1-.1 0-.3.1-.4v-.1s.1 0 0-.1c0-.1 0-.1.1-.1-.1-.1 0-.1 0-.3 0-.1.1-.1.1-.1v-.3c-.1-.1.1 0 0-.1l-.1-.1c-.1-.1.1 0 0-.1.1 0 0-.1 0-.1.7.7.8.7.8.5 0 .2 0 0 0 0zM301.4 319.3v-.1.1zm0-.2c.1.2 0 0 0 0zm.3-.3s0-.1 0 0c-.2-.1-.2 0 0 0-.2 0-.2.2 0 0-.2 0-.2 0 0 0-.1 0-.1.1-.1.1v.4s0-.1 0 0c0 0 0-.1 0 0v-.1c0 .1 0 0 0 0v-.1h.1c0-.1 0 0 0 0v-.3c.1.3.1.1.1.1s.1.1.1-.1c0-.1.1 0 .1-.1h.1s.1.1.1 0c0 0 0-.1.1-.1 0 .1 0-.1.1 0s.1 0 .1-.1c0 0 0-.1.1 0 0-.1.1.1.1 0 0 .1 0-.1 0 0s-.1-.1 0-.1l.1.1v.1c0-.1-.1-.1-.1-.1v-.1s0 .1 0 0v.1-.1c0-.1 0 .1 0 0v.3s0-.1 0 0v.1-.1.1c0 .1 0 .1-.1 0v.3s0-.1 0 0l-.1.1c0 .1 0-.1 0 0h-.1v.1c0 .1 0 0-.1 0 0 .1-.1-.1 0 0v.1c0 .1 0-.1 0 0-.5-.6-.5-.6-.6-.6.1-.1.1 0 0 0 .1 0 0-.1 0 0 0-.1 0 0 0 0zm82.5 77.7-32.7-41.7M319.2 312.4v-.1.1zm-.1 0c0-.2 0 .1 0 0zM318.1 312.9c0-.1.2 0 0 0 .3 0 .3-.1.4-.1 0 .1 0 0 .1 0v-.1c.1 0 .1 0 .3-.1 0-.1.1-.1.3-.1v-.1s0 .1-.1 0c0 0 0 .1 0 0 0 0-.1 0-.1.1v-.1.1c-.1 0-.3 0-.4.1 0 .1-.1 0-.1.1h-.1c-.1-.1-.3.1-.5.1-.1 0-.4 0-.4.3 0 0-.1 0-.1.1s-.3.1-.3.3c-.1 0-.3.1-.4.3-.1.1-.3 0-.3.1-.1 0-.1.3-.3.1-.1-.1-.1.3-.3.1-.1-.1-.3 0-.4.1-.1 0-.3.1-.4 0 0 .1-.1-.1-.1-.1 0-.1 0 .1-.1 0v.1s0 .1 0 0v-.2.5c0-.1 0 0 0 0 0 .1 0-.1 0 0h.1v-.1.1c0 .1 0-.1 0 0v-.1h.1c0-.1.1 0 .1-.1 0 0 .1.1.1 0 0 0 .1 0 .1-.1 0 .1 0 .1.1.1l.1-.1c0-.1.1-.1.4-.1v-.3h.1s0 .1 0 0c.1 0 .3-.3.4-.3l.1-.1c0-.1.1.1 0-.1 0-.1.1-.1.3-.1 0-.1.1-.1.1-.3s.1-.1.3-.1l.1-.1c0-.1.1 0 .1-.1v-.1c0-.1.1 0 .1-.1.1.1.1 0 .1 0 .3.5.4.5.5.5-.1 0 0 0 0 0zm1.9-7.7-.1.1.1-.1zM319.2 304.5s0 .2 0 0c0 .3.1.3.3.4 0 0 .1 0 0 .1 0 0 .1.1.3.1.1 0 .1 0 .1.1 0 0-.1 0 0 0h-.1v-.1h-.1c0-.1-.1-.1-.1-.3-.1 0 0-.1-.1-.1 0-.1-.1-.3 0-.4 0-.1 0-.4-.1-.4v-.1c-.1-.1 0-.3-.1-.3 0-.1 0-.3-.1-.4-.1-.1 0-.3 0-.4s-.1-.3-.1-.4c.1-.1-.1-.1 0-.3.1-.1 0-.3-.1-.4.1-.1-.1-.3 0-.4-.1 0 .1-.1.1-.1.1 0-.1 0 0 0h-.1s-.1 0 0 0h-.3c-.1 0 .1 0 0 0v.1c-.1 0 .1 0 0 0h.1v.1c.1 0 0 .1.1.1 0 0-.1 0 0 .1 0 0 0 .1.1.1h-.1l.1.1c.1.1.1.3 0 .3h.3s-.1 0 0 0c0 .1.1.3.1.5v.1h.1c.1.1.1.1.1.3.1 0 0 .1.1.1.1.1 0 .1.1.3v.1c.1 0-.1.1.1.3h.1c.1 0 0 .1.1.1-.1.1 0 .1 0 .1-.9.5-1 .5-.9.6zM330.7 294.7c-.1-.2.1 0 0 0zm-.9 2.1c0-.1.1-.1.1-.3.1-.1.1-.4.3-.7.1 0 0-.1.1-.1.1-.1.1-.4.1-.5 0-.3.1-.3.1-.4v.1c0 .1-.1.1 0 .3h-.1v.1c-.1.3-.3.4-.4.7 0 .1-.1.3-.1.4v.3c-.3.3-.4.5-.5.8-.3.3-.5.5-.5 1.1 0 .1-.1.1-.1.3 0 .3-.3.5-.3.8-.1.3-.3.5-.4.9 0 .3-.3.4-.3.7-.1.3 0 .5-.1.8-.1.1 0 .4-.1.5-.3.3-.3.7-.1.9-.1.3 0 .5-.1.8.1.1-.1.3-.1.4-.1 0 .1.1 0 .1s.1.1.1.1c-.1 0 0 .1-.1.1h-.1s0 .1 0 0h.4s.1 0 .1-.1c-.1 0 0 0 0-.1.1 0-.1 0 0 0v-.3s0-.1-.1 0c.1 0 .1-.1.1-.1.1 0-.1-.1 0-.1-.1 0 0-.1-.1-.1 0-.1 0-.1.1-.3-.1-.1 0-.1-.1-.3 0 0 .1-.1 0-.1v-.3h.1v-.2h.1c-.1-.3 0-.5.1-.7l-.1-.1s.1 0 .1-.1c0 0 .1 0 0-.1.1-.4.1-.8.3-1.1v-.1c.1-.1 0-.1.1-.3 0-.1.1 0 0-.1 0-.1.1-.4.1-.5-.1-.3.1-.3.1-.5s.1-.4.3-.5c0-.1 0-.1.1-.3 0-.3.3-.3.3-.4 0 0 .1-.1 0-.1-.1-.1.1-.1.1-.3v-.1c.1 0 .1-.3.1-.3 0-.1.1-.1.1-.3.3-.1.3-.3.3-.3zm5 14.1-.1.1c.1.1-.1-.1.1-.1zm3.2-4.9c0 .3-.1.4-.3.7-.3.5-.4 1.1-.7 1.6v.1c-.1.1-.1.4-.3.4-.3.4-.5.8-.9 1.2-.3.4-.7.7-.9.8.1 0 .1-.3.3-.3s0-.1.1-.1l.4-.4c.1 0 .1-.1.3-.1v-.1c.5-.4.9-1.1 1.2-1.6 0-.4.4-.7.4-.9 0-.1.1-.3.1-.4v-.1c.4-.8.5-1.8.7-2.7.1-1.1.4-1.9.3-3v-.8c0-.7.1-1.4.1-2l.4-2.4c.1-.7.4-1.2.5-1.9.3-.7.3-1.4.7-2 .3-.4.3-.9.5-1.2.5-.7.8-1.4 1.1-2.3.4-.7.5-1.5.9-2 .1-.4.5-.5.7-.9.1 0 .1-.3.3-.3s0-.3.1-.3h.1v-.1c.1.1.1-.1.3 0 0 0 .1 0 0 .1l.1-.1c0-.1 0-.1-.1-.1h-.3c0 .1-.1.1-.1.1-.1 0 0 .1-.1.1-.1.1-.4.4-.5.7 0 0-.1.1 0 .1-.1 0-.3.1-.3.3-.1 0 0 .3-.1.3.1.1-.1.3-.1.3-.1.3-.3.4-.4.7 0 .3-.3.4-.1.5-.1.1-.3.3-.3.4-.1.1-.1.4-.1.5-.1 0-.1.1-.3.1 0 .1-.1.4-.1.5 0 0 0 .1-.1.1-.1.5-.5 1.2-.8 1.6 0 .1.1.3.1.3 0 .1-.1.1-.1.3s-.1.1-.1.3v.1c-.4.9-.5 1.9-.8 2.8v.1c-.1.3-.1.5-.1.7s-.1.3 0 .4c0 .5-.1.9-.3 1.5 0 .4-.1.8 0 1.4 0 .5-.1 1.1-.1 1.8v.7c.1.4-.1.8-.1 1.2.1.1 0 .3.1.3v.1c.1.3-.1.5 0 .8v.3c-.1.3 0 .5-.1.9 0 .1-.1.4-.1.5v.1c-1.1-.1-1.1 0-1.1.3zm-1.9-14.3v.1-.1zm0 .3c0-.3.1 0 0 0zm-.9 2.5c0-.1.1-.1.1-.3.1-.3.1-.5.1-.8.1 0 0-.1.1-.1.1-.3.1-.4.3-.7 0-.3.1-.4.3-.5-.1 0 0 .1-.1.1v.1c0 .1-.1.1-.1.3-.1 0 0 .1-.1.1v.1l-.4.8c.1.1-.1.3-.1.5v.4c-.3.4-.3.8-.4 1.2s-.3.9-.1 1.4v.4c.1.3 0 .7.1.9v1.2c0 .3-.1.5 0 .9-.1.3.1.7 0 .9-.1.1.1.4 0 .7-.3.4-.1.7-.1 1.1-.1.3 0 .7-.3.9 0 .1-.3.3-.3.4-.1 0 .1.1-.1.1-.1 0 .1.1 0 .1h-.1c-.1 0 0 .1-.1 0h-.1v.1c.1 0 .1.1.1.1h.3v-.1c.1 0-.1-.1 0 0 0-.1.1-.3.1-.4v-.1c.1 0 .1-.1.1-.1.1 0-.1-.1.1-.1-.1 0 .1-.1 0-.1 0-.1.1-.3.1-.3-.1-.1.1-.1 0-.3 0 0 .1-.1.1-.3v-.3c.1 0 .1 0 .1-.1v-.3s0-.1.1-.1c-.1-.3 0-.5.1-.8 0 0-.1-.1-.3-.1 0 0 .1-.1 0-.1 0 0 .1-.1 0-.1 0-.4-.1-.9 0-1.4v-.4c-.1-.1.1-.1 0-.1v-.7c-.1-.1 0-.4-.1-.5-.1-.3 0-.5 0-.8v-.3c-.1-.1.1-.4 0-.5-.1 0 0-.1-.1-.1-.1-.1.1-.3 0-.4.1-.1 0-.3 0-.4v-.3c.7-.6.7-.8.7-.8zm-17.6 15.7c0 .1.1 0 0 0zm.9.1c-.1 0-.1-.1 0 0-.1-.1-.3 0-.3 0 0-.1 0 0 0 0h-.2c-.1.1-.1 0-.1 0s0-.1 0 0h.1v.1c.1.1.1 0 .3.1.1-.1.1 0 .1 0h.1v-.2c0 .3.1.1.3.3.1 0 .3.1.4 0h.1c.1-.1.1 0 .3-.1h.3c.1 0 .1.1.3 0 .1 0 .1-.1.3-.1 0 .1.1-.1.1 0 .1.3.3 0 .3-.1.1.1.1-.1.3 0 0-.1.1.1.1.1 0 .1 0-.1 0 0v-.1s0-.1 0 0v.1-.5c0 .1 0 0 0 0 0-.1 0 .1 0 0h-.1v.1-.1c0-.1 0 .1 0 0v.1h-.2c0 .1 0 0-.1.1 0 0 0-.1 0 0l-.1.1v-.1l-.1.1c0 .1-.1.1-.3 0v.3s0-.1 0 0c-.1 0-.3.1-.4.1h-.1c0 .1 0-.1 0 0h-.1c0 .1-.1 0-.1.1-.1.1-.1 0-.3 0h-.1c0 .1-.1-.1-.1 0v.1c0 .1 0-.1-.1 0 0-.1-.1 0-.1 0-.3-.5-.3-.5-.5-.5z" class="st45"></path><path d="M173.6 95.8s.1 0 .1-.1l.4-.4c.1 0 0-.1.1-.1.1-.1.3-.1.3-.3s.1-.3.3-.3c0 0 0 .1-.1.1 0 0 0 .1 0 0 0 0-.1 0-.1.1h-.1v.2l-.4.4c0 .1-.1.1-.3.1 0 0 0 .1-.1.1v.2c-.3 0-.4.3-.7.4s-.5.1-.7.5c0 0-.1 0-.1.1-.1.1-.4.1-.4.4-.3.1-.4.3-.7.4-.1.1-.4.1-.5.1-.3 0-.3.3-.5.3-.1-.1-.3.3-.4.1-.3-.1-.4 0-.7.3-.3 0-.4.3-.7.1-.1.1-.3-.1-.3 0 0-.1 0 .1-.1 0v.1s0 .1 0 0 0 0-.1-.1v-.1.5s0 .1.1.1c0-.1 0 0 0 0s0-.1 0 0c0 0 .1 0 .3-.1v-.1c0 .1.1.1.1.1 0 .1 0-.1.1 0 0-.1.1 0 .1-.1h.3c0-.1.1 0 .1-.1h.1s.1 0 .1-.1c0 .1 0 .1.1.1l.1-.1c.1-.3.3-.3.5-.1v-.3h.3s0 .1 0 0c.3 0 .5-.3.8-.4.1 0 .1-.1.1-.1 0-.1.1 0 .1-.1.1-.1.3-.1.4-.3 0-.1.3-.1.3-.3.1-.1.3-.1.4-.3l.1-.1c0-.1.3 0 .3-.3 0-.1.1 0 0-.1 0-.1.1 0 .1-.1 0 0 0-.1 0 0 .1 0 .1-.1.3-.1 0-.1.1-.1.1-.1.4.1.4-.1.5-.1z" class="st3"></path><path d="M169.5 101.2c.2 0 .2-.1 0 0zm2.1-1.1c0 .1-.1 0-.3.1-.1.1-.3.3-.5.4-.1 0-.1.1-.1 0v.1c-.1.1-.3.1-.5.3-.1.1-.3.1-.4.1v.1s.1-.1.1 0c0 0 0-.1 0 0 .1 0 .1 0 .3-.1 0 .1.1 0 .1 0v-.1c.3 0 .5-.1.7-.3 0-.1.3-.1.4-.3 0 0 0-.1.1-.1v-.1c.4-.1.5-.4.8-.5.3-.3.7-.4.7-.8 0-.1.1-.1.1-.3 0-.3.3-.4.4-.7s.4-.5.4-.8c.1-.3.3-.4.4-.5.1-.1.1-.5.3-.7s0-.4.3-.4c.3-.1.3-.5.3-.8.1-.3.1-.5.4-.7 0-.1.3-.1.3-.4.1 0-.1-.1 0-.1s-.1-.1 0-.1 0-.1.1 0h.1v-.1c-.1 0-.1-.1-.3-.1h-.3v.1c-.1 0 .1.1 0 0 0 .1 0 .1-.1.3v.1c-.1 0-.1 0-.1.1-.1 0 .1.1-.1.1.1 0 0 .1 0 .1 0 .1-.1.1-.1.3s-.1.1 0 .3l-.1.1v.3h-.1v.3h-.1c0 .3-.1.4-.3.5l.1.1s-.1 0-.1.1c0 0-.1 0 0 .1-.1.3-.3.7-.4.9v.1c-.1 0 0 .1-.1.3 0 .1-.1 0 0 .1 0 .1-.1.3-.3.4 0 .3-.1.3-.1.4 0 .3-.3.3-.4.5l-.1.1c0 .1-.3.1-.3.4 0 .1-.1 0 0 .1 0 .1-.1.1-.1.3v.1c-.1 0-.1.1-.3.3 0 .1-.1.1-.1.1-.7-.2-.7-.1-.7-.1zm6.5-2.5h.1-.1zm.1.1c-.1-.1 0 0 0 0z" class="st3"></path><path d="M176.6 99.1c0-.1.1 0 .3-.1.3-.1.4-.3.5-.4.1 0 .1-.1.1-.1l.4-.4c0-.1.1-.3.3-.4 0 0 0 .1-.1.1l-.1.1h-.1v.1c-.3.1-.4.3-.5.4 0 .1-.3.1-.3.3l-.1.1v.1c-.3 0-.5.3-.9.3-.4.1-.7.1-.9.4-.1 0-.1 0-.3.1-.3.1-.5.1-.7.3-.3 0-.5.1-.9.3-.3.1-.5 0-.7 0-.3 0-.5.3-.8.1-.1-.1-.4.1-.5 0-.3-.1-.5 0-.9.1-.3 0-.5.1-.8 0-.1.1-.3-.1-.4-.1 0-.1-.1.1-.1 0s0 .1-.1.1c0 0 0 .1 0 0s-.1 0-.1-.1v-.1.5s0 .1.1.1c0-.1 0 0 .1 0 0 .1 0-.1 0 0h.3s.1 0 0-.1c0 .1.1.1.1.1 0 .1 0-.1.1 0 0-.1.1 0 .1-.1h.3c0-.1.1 0 .3-.1 0 0 .1.1.1 0 .1 0 .1 0 .3-.1 0 .1 0 .1.1.1 0 0 .1 0 .3-.1h.1c.1-.1.4-.1.7 0 0 0 0-.1.1-.3h.3s0 .1 0 0c.4 0 .7-.3 1.1-.3h.3c0-.1.1.1.1-.1.1-.1.4-.1.5-.1.1-.1.3-.1.4-.3s.4-.1.5-.1.1 0 .3-.1.3 0 .4-.1c0-.1.1 0 0-.1 0-.1.3 0 .3-.1h.1c.1.1.1-.1.3-.1 0-.1.1 0 .1-.1-.3.4-.3.4-.1.3zm-8 1.7c-.1 0 0 0 0 0zm3.2 4.2c0 .1 0 0 0 0zm.2 0s0-.1 0 0z" class="st3"></path><path d="M174.1 103.8c0 .1-.1.1-.3.1-.3.1-.4.3-.7.4-.1 0-.1.1-.1 0v.1c-.1.1-.4.1-.5.3s-.4.1-.5.1v.1s.1-.1.1 0c0 0 0-.1 0 0 .1 0 .1 0 .3-.1 0 .1.1 0 .1 0v-.1c.3 0 .5-.3.8-.3 0-.1.3-.1.4-.3l.1-.1v-.1c.4-.1.7-.4.9-.7.4-.3.7-.5.8-.9 0-.1.1-.1.1-.3l.4-.8c.1-.3.3-.7.4-.9 0-.3.3-.5.3-.8.1-.3 0-.7.1-.9.1-.1 0-.4.1-.5.3-.3.1-.7.1-1.1.1-.3 0-.7.1-.9-.1-.1.1-.3.1-.5.1 0-.1-.1 0-.1s-.1-.1-.1-.1-.1 0 0 0 0-.1.1-.1h.1s0-.1-.1-.1h-.4s-.1 0-.1.1c.1 0 0 0 0 .1-.1 0 .1 0 0 0v.3s0 .1.1 0c-.1 0-.1.1-.1.1-.1 0 .1.1 0 .1.1 0 0 .1.1.1v.3c.1.1 0 .1.1.3 0 0-.1.1 0 .3 0 .1 0 .1.1.3-.1 0-.1 0-.1.1v.3s0 .1-.1 0c.1.3 0 .5-.1.8l.1.1-.1.1s-.1.1 0 .1c0 0-.1 0 0 0-.1.4-.1.8-.3 1.2v.1c-.1.1 0 .3-.1.3 0 .1-.1.1 0 .1 0 .3-.1.4-.3.5.1.3-.1.3-.1.5 0 .3-.3.4-.4.7 0 .1-.1.1-.1.3 0 .3-.3.3-.3.4s-.1 0 0 .1c0 .3-.1.1-.3.3 0 0 0 .1-.1.1s-.1.1-.3.3c0 .1-.1.1-.1.1s0 .1-.2.1zm5.7-3.9v.1-.1zm0 .1c-.1-.1 0 0 0 0z" class="st3"></path><path d="M178.6 101.6c0-.1.1 0 .1-.1l.4-.4c.1 0 0-.1.1-.1.1-.1.1-.3.3-.4 0-.1.1-.3.1-.4v.1s-.1.1 0 .1h-.1v.1c-.1.1-.3.4-.4.5 0 .1-.1.1-.3.3 0 0 0 .1-.1.1v.1l-.8.4c-.3.1-.7.1-.8.5-.1 0-.1 0-.3.1-.1.3-.4.1-.5.4-.3.1-.5.1-.8.3-.1.1-.4 0-.7.1-.3 0-.4.3-.7.3-.1-.1-.3.3-.4.1-.3-.1-.5 0-.8.1-.3 0-.5.1-.8 0-.1.1-.3-.1-.4-.1 0-.1-.1.1-.1 0s0 .1-.1.1c0 0 0 .1 0 0s-.1 0-.1-.1v-.1.4s0 .1.1.1c0-.1 0 0 0 0 0 .1 0-.1 0 0h.3s.1 0 0-.1c0 .1.1.1.1.1 0 .1 0-.1.1 0 0-.1.1 0 .1-.1h.3c0-.1.1 0 .1-.1 0 0 .1.1.1 0 0 0 .1 0 .1-.1 0 .1 0 .1.1.1 0 0 .1 0 .1-.1h.1c.1-.1.4-.1.7-.1v-.3h.3s0 .1 0 0c.3 0 .7-.3.9-.3.1 0 .1-.1.3-.1 0-.1.1.1.1-.1.1-.1.3-.1.4-.1.1-.1.3-.1.4-.3.1-.1.4-.1.5-.3.1 0 .1-.1.1-.1 0-.1.3 0 .4-.3 0-.1.1 0 0-.1 0-.1.1 0 .3-.1 0 0 0-.1.1 0 .1 0 .1-.1.3-.1 0-.1.1-.1.1-.1.6.4.7.2.7.2zM173.2 107.3v-.1.1zm.1-.1c0 .1-.1-.2 0 0z" class="st3"></path><path d="M173.3 107.2s0-.2 0 0zm2.2-1.1c0 .1-.1 0-.3.1-.3.1-.4.3-.5.4-.1 0-.1.1-.1 0v.1c-.1.1-.4.1-.5.3s-.3.1-.5.1v.1s.1-.1.1 0c0 0 0-.1 0 0 .1 0 .1 0 .3-.1h.1v-.1c.3 0 .5-.1.8-.3 0-.1.3-.1.4-.3l.1-.1v-.1c.4-.1.7-.4.9-.5.4-.3.7-.4.8-.8 0-.1.1-.1.3-.3.1-.3.4-.4.4-.7.3-.3.4-.5.5-.8s.4-.4.4-.7c.1-.3.1-.5.3-.8.1-.1 0-.4.1-.5.3-.3.3-.5.3-.9.1-.3 0-.7.3-.9-.1-.1.1-.3.1-.4.1 0-.1-.1 0-.1s-.1-.1-.1-.1-.1 0 0 0 0-.1.1-.1h.1v-.1h-.4s-.1 0-.1.1c.1 0 0 0 0 .1-.1 0 .1 0 0 0v.3s0 .1.1 0c-.1 0-.1.1-.1.1-.1 0 .1.1 0 .1.1 0 0 .1.1.1 0 .1-.1.1-.1.3.1.1-.1.1 0 .3l-.1.1v.3h-.1v.3s0 .1-.1 0c.1.3 0 .5-.3.7l.1.1s-.1 0-.1.1c0 0-.1 0 0 .1-.1.3-.3.8-.4 1.1v.1c-.1 0-.1.1-.1.3s-.1 0 0 .1c0 .2-.1.4-.3.5 0 .3-.1.3-.3.5 0 .3-.3.4-.4.5-.1 0-.1.1-.1.1 0 .3-.3.1-.4.4 0 .1-.1 0 0 .1 0 .3-.3.1-.3.3 0 0 0 .1-.1.1s-.1.1-.3.3c0 .1-.1.1-.1.1-.4-.2-.5-.2-.5 0z" class="st3"></path><path d="M179 99.3c0-.1.1-.1.3-.1.3-.1.4-.4.5-.5.1 0 .1-.1.1-.1l.4-.4v.3h-.4v.1c.1 0 .1-.1.1 0 0 0 0-.1 0 0V98h-.1v.1c-.3.1-.4.4-.7.5 0 .1-.3.1-.3.3l-.1.1v.1c-.4.1-.7.4-.9.5-.4.3-.7.3-.9.7-.1.1-.3.1-.3.1-.1.3-.5.3-.7.5-.3.1-.5.4-.9.5-.3.1-.5.1-.7.4-.3.1-.4.4-.7.5-.1-.3-.1.1-.4.1-.4 0-.7.3-.8.5-.3.1-.5.4-.8.4-.1.1-.3 0-.4.1-.1 0 0 .1-.1.1v.1c-.1-.1 0 .1-.1-.1v-.1s-.1 0 0 .1l-.1.1h.1c0-.1 0 0 0 0s0-.1 0 0c.1-.1.1-.1.3-.1 0 0 .1 0 0-.1.1.1.1 0 .1 0 .1.1 0-.1.1 0 0-.1.1 0 .1-.1.1 0 .3 0 .3-.1s.1 0 .1-.1c0 0 .1 0 .1-.1.1 0 .1-.1.1-.3.1.1.1 0 .1.1 0-.1.1-.1.1-.3h.1c.1-.3.4-.4.7-.4v-.3h.3c.4-.1.7-.5.9-.7v-.1c.1 0 .1-.1.3-.1 0-.1.1 0 .1-.1.1-.1.3-.3.5-.3.1-.3.3-.1.4-.4.1-.3.4-.3.5-.4.1 0 .1-.1.3-.1 0-.3.4-.1.4-.3s.1 0 0-.1c0-.3.3 0 .3-.3 0 0 0-.1.1-.1s.1-.1.3-.3c0-.1.1-.1.1-.1 1.1 1.1 1.2.9 1.2.9zM180.2 103.2c0-.1.1-.1.1-.1.1-.1.2-.3.3-.5.1 0 0-.1.1-.1.1-.1.1-.3.3-.4 0-.1.1-.3.3-.4v.1l-.1.1h-.2v.1c-.1.1-.3.4-.4.5 0 .1-.1.1-.3.3 0 0 0 .1-.1.1v.1c-.3.1-.4.4-.7.7s-.5.4-.7.8c0 .1-.1.1-.1.3-.1.3-.4.3-.4.5-.3.1-.4.4-.7.5-.1.1-.4.3-.5.4-.3.1-.3.4-.5.4-.1 0-.3.3-.4.3-.4-.1-.5.1-.8.4-.3 0-.5.3-.8.1-.1.1-.3-.1-.4 0 0-.1-.1.1-.1 0v.1s0 .1 0 0-.1 0-.1-.1v-.1.5s0 .1.1.1c0-.1 0 0 0 0s0-.1 0 0h.3s.1 0 0-.1c0 .1.1.1.1.1.1.1 0-.1.1 0 0-.1.1 0 .1-.1h.3c0-.1.1 0 .1-.1h.1s.1 0 .1-.1c0 .1.1.1.1.1 0-.1.1-.1.1-.1h.1c.1-.3.4-.3.7-.3v-.3h.3c.3-.1.5-.4.8-.7v-.1c.1 0 .1-.1.1-.1 0-.1.1 0 0-.1l.4-.4c0-.1.3-.3.3-.4l.5-.5c0-.1.3-.1.3-.3s.1 0 0-.1c0-.1.1-.1.1-.3v-.1c.1 0 .1-.1.1-.3s.1-.1.1-.1c.9 0 .9-.1.9-.3z" class="st3"></path><path d="M181.7 99.9c-.1 0 0 0 0 0zm0 .6c0-.1 0 0 0 0 .1-.1 0-.1 0-.3v-.1c-.1-.1 0-.1 0-.1h-.1v.1h-.1v.1c.1.1 0 0 0 .1l.2.2c-.3 0-.1 0-.3.1s-.1.1-.1.3v.1c.1.1-.1.1 0 .3 0 0-.1.1-.1.3s-.1.1-.1.1c-.1 0 .1.1 0 .3-.1 0 .1.1 0 .1-.3 0-.1.1-.1.3-.1 0 0 .1-.1.1.1.1-.1 0-.1 0-.1 0 .1.1 0 0-.1 0 .1.1.1 0-.1-.1 0 0-.1 0h-.1c.1 0 .1.1.1.1h.1s-.1-.1 0 0v-.1h.1c.1 0-.1-.1 0 0-.1 0 0 0 0-.1h.1c-.1 0 0 0 0-.1v-.1h.1v-.2c-.1-.1 0-.1.1-.1l-.1-.1c.1-.1 0-.3 0-.3v-.3c-.1-.1 0-.1 0-.1-.1-.1 0-.1 0-.1-.1-.1.1 0 0-.1h-.2c-.1-.1.1 0 0-.1.7-.1.6-.1.7-.3v.1c-.1.1 0-.1 0-.1z" class="st3"></path><path d="m161.4 98.9-27.7-3.6L101 49.2s-13.1-22.8 8.8-39.7c23.9-14.3 40.8 4.9 40.8 4.9L165.9 35l17.8 25.3-6.3 28.5c-3.9 10.1-16 10.1-16 10.1" class="st49"></path><path d="m161.3 80.6-20-27.4-24 17.3L135 95l27.6 3.2-1.3-17.6z" class="st3"></path><path d="m165.2 35.8 17.7 24.7-5.8 27.3c-3.6 10.1-15.3 10.4-15.3 10.4l-.5-17.6-20-27.6 23.9-17.2z" class="st41"></path><path d="m161.3 80.6 16.8 2.7c-.3 2.4-1.4 5.5-1.4 5.5l-11.5-2.6-.9 12c-1.4.7-5.7-.3-5.7-.3l2.7-17.3z" class="st50"></path><path d="M117.3 70.4 102 49.3s-12.7-22.2 8.2-39.2l31.1 43-24 17.3z" class="st41"></path><path d="m101.2 21.2 10.1 14.2 4.6-6.1-10.3-14.5c-.1 0-3.2 3.5-4.4 6.4zm-1.5 3.3 9.7 13.6-3.9 5.5-7.4-10.4c.1-.1.1-4.8 1.6-8.7zm12.2 25c8.8.5 10.9-6.2 10.9-6.2l-.1-3.6c-5.3 0-7.8 1.9-7.8 1.9-3.9 2.3-6.2 9.1-6.2 9.1l3.2-1.2zm53.3-13.7-15.1-21.1S133.2-4.5 110.2 10l31.1 43 23.9-17.2z" class="st3"></path><path d="M147 24.2c-2.3 8.5-9.3 8.5-9.3 8.5l-3.4-1.4c1.6-5 4.3-6.9 4.3-6.9 3.4-3 10.5-3.1 10.5-3.1l-2.1 2.9z" class="st51"></path><path d="m123.7 5 10.1 14.2-7.3 2.3-10.2-14.4s4.6-1.8 7.4-2.1zm12.2 1 7.6 10.5-6.5 1.9-9.9-13.6s4.5-.2 8.8 1.2z" class="st50"></path><path d="m329.5 308.9 27 3.8 19.6 23.1 15.7 20.1s15 23.1-6.3 41.2c-23.5 15.4-41.3-3.2-41.3-3.2L328 373.3l-18.6-24.5 4.3-28.8c3.6-10.6 15.8-11.1 15.8-11.1" class="st49"></path><path d="m328.3 324.9 23.4 29.9-23.2 18.1-18.5-24.2 4.9-27.8 13.4 4z" class="st3"></path><path d="m328.4 309.8 27.6 3.8 19.2 23-23.6 18.2-23.4-29.9-13.5-4.1c3.4-10.2 13.7-11 13.7-11z" class="st41"></path><path d="m314.1 323.8.4-2 12.2.9 2.4-12.8c1.2-.1 2 .3 2 .3l-2.8 14.7-14.2-1.1z" class="st50"></path><path d="M314.5 321.8s.1-.7.7-2l9.9.7L327 310c1.4-.3 2.3-.3 2.3-.3l-2.4 13-12.4-.9z" class="st50"></path><path d="M315.2 319.8s.3-.8.9-1.9l7.2.5 1.5-7.7 2-.7-1.9 10.5-9.7-.7z" class="st50"></path><path d="m328.5 373 15.9 20.4s17.7 18.5 40 3.1l-32.7-41.7-23.2 18.2z" class="st41"></path><path d="m375.3 336.5 15.9 20.5s13.5 21.6-6.8 39.4l-32.7-41.7 23.6-18.2zM340 110.7c-1.8 3.4-4.3 6.6-6.5 9.7-1.9 2.7-3.9 5.5-6.5 7.7-2.8 2.6-4.9 3.5-5.7 7.7l-.7-25c3-.3 3.6-4.9 5.1-6.9 1.8-2.2 4.7-4.5 5.8-7.2l-2.4-.4c-5.8-1.6-10.9 1.4-16.6 2.2-1.5.3-3.1-.3-4.6-.3-3.4.1-7.3 2.3-7.3 2.3l-1.6.9c1.9-3.2 6.3-8.2 9.9-9.3 2.3-.7 5.3-1.2 7.7-1.4 3.4-.3 6.9-.9 10.1-.9-7.6-.3-15.1.7-22.7.5-7.7-.1-13.9 2.6-20.1 6.9l1.4.1c1.4-5.1 6.1-10.4 10.5-12.8 3.1-1.8 6.8-1.2 10-1.1 6.6.3 10.3.4 19.5 2.2 0 0 4.9 1.4 7 1.5-2.4-.3-5.1-3.5-6.9-5.3-1.5-1.6-2.7-3.9-4.5-5.1-5.3-3.9-12.6-4.7-19.3-5.5l3.1-1.1c3.9 0 9.2-.1 13 1.1 3.5 1.1 6.2 3.2 8.9 5.7 1.9 1.8 4.7 3.5 7.2 4.7 1.5.8 3.1 1.9 4.9 2L352.3 94c2.6 2.4 6.3 5.7 9.3 7.8 3.1 2.3 5.7 5.7 7.7 8.9 3.4 5.4 9.2 17 1.8 21.6-.8.7-1.9 1.1-2.8 1.4l-1.8-.3c1.4-1.1 3.8-3.8 4.5-5.5.9-2.6-.1-5.8-.8-8.2-.8-3.1-2.4-5.7-4.7-8-1.9-1.9-4.7-4.5-7.3-5.3l-1.2-.3c-.1 2.7 2.4 5 3.2 7.3.9 2.6 1.1 5.5.9 8.2-.3 2.7-2 4.5-2.3 7-.3 2.6 2.3 4.3 2.6 6.9.1.9 1.8 2.3 1.2 3.1l-.8 1.6c-.3-1.1-.9-1.9-1.5-3.1-.5-1.1-4.5-3.9-4.3-6.9.3-3.1 2.4-5.3 2.4-8.5 0-3.1-.9-5-2.4-7.6-.7-1.4-1.5-2.7-2.3-3.9-1.1-1.4-2-2.7-2.8-4.2 0 0-.8-2.3-.5-4.2-3.1 4.1 1.5 12 1.9 18.1.3 3.1-.1 5.9-.3 9.1-.3 4.2-.1 6.1 2.6 9.2l.4.3c-.1-.1-.3-.3-.4-.3-2.8-2.3-4.3-4.7-4.7-8.4-.3-2.8 0-5.5-.8-8.2-1.1-3.8-2.7-7.3-3.1-10.9-.4-2.7.7-6.2.7-9.7-1.9 3.1-3.6 7.8-3.9 11.1-.3 3.5-.5 6.6-2.7 9.3-1.5 1.9-3.2 4.2-2.8 6.9.3 1.5 1.1 2.4 1.4 3.9.3 2.3 0 4.3-1.5 6.3-.3.3-.4.7-.7.9l-1.1.7c2.4-.8 0-7.7-.7-9.3-.9-1.9-2-3.5-2.2-5.4-.1-1.5.1-5 1.9-5.4" class="st3"></path><path d="m333.8 120.3-.4.1s-.3.1-.4.3l-.3.3s.1-.3.4-.4c.4-.3.7-.3.7-.3zm-2 4.7v-.3s0-.8.1-1.5c.1-.8.4-1.5.4-1.5-.7 1.3-.5 2.4-.5 3.3zm0 .8c0 1.2.4 1.6.4 1.9-.1-.1-.3-.7-.4-1.2v-.7zm20.2 8.5c0 .1 0 .3.1.4.1-.2-.1-.4-.1-.4z" class="st41"></path><path d="m349.2 107.6-.1-.3c.7 5 3.2 10.4 3 15.8v-.4c0 3-.4 5.8-.4 8.6 0 1.5.1 2.8.7 4.2.3.7.7 1.2 1.1 1.9.1.3.4.5.7.8l.3.4.4.3-.4-.3c-1.4-1.1-2.7-2.4-3.5-4.1-.8-1.6-1.2-3.4-1.4-5.3-.1-1.8-.1-3.6-.4-5.5-.3-1.8-.9-3.5-1.6-5.3.1.1.1.3.1.4-.3-.7-.5-1.2-.7-2 0-.1.1.1.1.4-.4-1.4-1.1-3.4-1.5-5.3-.3-1.5-.4-3.1-.1-4.6.1-.8.1-1.2 0-.7.1-1.4.4-2.6.4-3.9v-.9s0-.1 0 0l-.9 1.9c-1.1 2.4-2 5-2.4 7.7-.3 2.7-.3 5.5-1.4 8.1-.5 1.4-1.5 2.4-2.3 3.4-.8 1.1-1.5 2.3-1.9 3.5-.1.5-.1.5-.1.4-.3 1.2 0 2.4.5 3.5.3.5.5 1.2.7 1.8.1.7.1 1.2.1 1.9 0 1.3-.3 2.6-.8 3.8-.3.5-.7 1.1-1.1 1.6l-.3.4c-.1.1-.3.3-.4.3l-.8.5-.1-.4c.4-.1.7-.5.8-1.1.1-.5.1-1.1.1-1.6-.1-1.1-.3-2.2-.7-3.1-.3-1.1-.7-2-1.1-3.1-.4-.9-1.1-1.9-1.5-2.8-.1-.3.4.9 0 0 .7 1.4 1.5 2.6 1.9 3.8.5 1.2.8 2.4 1.1 3.8l-.1-.3c.1.9.1 1.1.3 1.2 0 .1.1.3.1 1.2-.1.8 0-.1 0 .1 0 .8-.3 1.6-.8 1.8l.3.5 1.1-.7c.4-.4.5-.7.8-1.1.5-.7.9-1.5 1.2-2.4.4-1.8.4-3.5-.1-5.1-.1-.5-.7-1.5-.9-2.6-.3-1.1 0-2.4.3-3.1.4-.9.9-1.9 1.2-2.3.5-.8 1.1-1.5 1.6-2.2.5-.8.9-1.6 1.4-2.6.7-1.8.8-3.6.9-5.5 0-1.9.4-3.6 1.1-5.4.5-1.8 1.4-3.5 2.2-5.1l.3-.5v.5c0 .9-.1 1.9-.3 2.8-.3 1.9-.5 3.8-.3 5.7.5 3.8 2.2 7.3 3.1 10.9.8 2.6.5 5.5.9 8.5.3 1.5.7 3.1 1.5 4.5s1.9 2.6 3.2 3.5l.4.3.3-.3c-.1-.1-.4-.3-.5-.4l-.4-.5c-.3-.4-.5-.7-.8-1.1-.4-.8-.8-1.6-1.1-2.4-.7-2.7 0-6.8.1-10v-2.7c0-3.4-1.1-6.5-1.9-9.7-.4-1.6-.8-3.2-.9-4.9 0-.8-.1-1.6.1-2.4.1-.8.5-1.5.5-1.5v.7c0 .4.1.8.1 1.2.1.4.1.8.3 1.2 0 .2.1.4.3.5l.3.5c.8 1.5 1.9 2.8 2.8 4.1.9 1.4 1.6 2.8 2.6 4.3.8 1.5 1.5 3 1.6 4.6.1.8.1 1.6.1 2.4-.1.8-.3 1.6-.5 2.4-.5 1.5-1.4 3.1-1.8 4.7-.1.8 0 1.8.3 2.6.4.8.8 1.5 1.4 2.2.5.7 1.1 1.2 1.8 1.9.3.3.5.7.8.9.1.4.4.8.5 1.1.4.7.7 1.1.9 2.4.1-.3.4-.9.7-1.2l.4-.8c.3-.4.1-.8 0-1.1-.1-.3-.4-.5-.5-.8-.1-.3-.4-.5-.5-.8-.1-.1-.1-.3-.1-.4 0-.1 0-.3-.1-.5-.3-1.4-1.1-2.4-1.8-3.5-.3-.5-.5-1.1-.7-1.8-.1-.5 0-1.2.1-1.8.3-1.2.9-2.3 1.5-3.5.5-1.2.8-2.5.8-3.8 0-1.2 0-2.6-.1-3.8-.1-1.2-.4-2.6-.8-3.6-.4-1.2-1.2-2.3-1.9-3.4s-1.2-2.2-1.4-3.4v-.1h.1c.3.1.7.1.9.3l1.6.8c2.2 1.4 3.9 3 5.7 4.7 1.8 1.8 3.1 3.9 3.9 6.3.7 2.4 1.6 4.9 1.5 7.4v-.4c0 .8-.1 1.6-.4 2.3-.3.7-.7 1.4-1.2 2-.4.7-.9 1.2-1.5 1.8-.5.5-.9.9-1.9 1.8l1.6.1c.3 0 .4.1.7 0l.5-.1c.8-.3 1.6-.7 2.3-1.1 1.1-.8 2.2-1.6 2.7-2.8.9-1.8 1.1-3.6.8-5.5-.1-1.9-.7-3.8-1.4-5.5-1.4-3.6-3.2-7-5.5-10.1-1.1-1.6-2.3-3.1-3.6-4.5-1.4-1.4-3-2.4-4.5-3.6l-4.3-3.5c-.7-.7-1.4-1.2-2-1.9l-.9-.9-1.1-.8-10.8-8.2-1.4-1.1-.4-.3c-.1-.1-.3-.1-.4-.1-.3 0-.5-.1-.8-.1-1.1-.3-2.2-.9-3.1-1.5-2-1.1-4.2-2.3-6.1-3.6-1-.7-1.9-1.5-2.7-2.3-.9-.8-1.8-1.6-2.8-2.3-.9-.7-2-1.4-3.1-1.8-1.1-.5-2.3-.8-3.4-1.1-2.3-.5-4.7-.5-7-.7h-4.3c-.3 0-.5.1-.8.3l-1.6.5c-.3.1-.5.1-.8.3h-.1.1c5.9.7 12 1.5 17.3 4.3 1.4.7 2.6 1.6 3.5 2.7.9 1.1 1.8 2.3 2.8 3.5.9 1.1 2 2.3 3.1 3.2 1.1.9 2.3 2 3.9 2.2v-.1c-2.4-.1-4.9-.8-7.3-1.5-3.8-.7-7.6-1.4-11.5-1.6-3.9-.3-7.8-.4-11.8-.5-1.9 0-3.9.3-5.7 1.2-1.8.9-3.4 2.2-4.7 3.5-1.4 1.4-2.7 2.8-3.8 4.5-.5.8-.9 1.6-1.4 2.6-.3.4-.4.9-.5 1.4-.1.3-.1.4-.3.7-.1.3-.1.5-.4.4-.3 0-.5 0-.8-.1h-.1l.1-.1.4-.3c.5-.3 1.1-.7 1.6-.9 1.1-.7 2.2-1.4 3.4-1.9 2.3-1.2 4.9-2.2 7.6-2.8 2.7-.7 5.4-.8 8-.8s5-.1 7.3-.1c4.9-.1 9.7-.4 14.5-.3v-.1c-3.4 0-6.6.7-10 .9-1.6.1-3.4.3-5 .7-1.6.4-3.2.7-4.7 1.6-2.8 1.8-5.1 4.3-7 7-.3.4-.5.7-.7 1.1l-.1.3.1-.1.5-.3c.7-.4 1.5-.8 2.2-1.2 1.5-.7 3.1-1.4 4.9-1.6.9-.1 1.9-.1 2.8 0 .9.1 1.9.3 2.8.1 1.9-.3 3.8-.8 5.5-1.2 1.9-.5 3.6-1.1 5.5-1.2 1.9-.3 3.8-.1 5.7.3l1.8.3.4.1h.3v.1c-.1.4-.3.5-.4.8-.5.9-1.4 1.9-2.2 2.7l-2.4 2.6c-.4.4-.8.8-1.1 1.4-.3.5-.5.9-.8 1.5-.5 1.1-.9 2.2-1.6 3.1-.3.5-.7.9-1.2 1.4l-.8.4c-.3.1-.7 0-.7.3 0 2.3.1 4.6.1 6.8.3 5.7.3 11.8.4 18v.4l.1-.4c.3-1.1.7-2.3 1.2-3.2.7-.9 1.5-1.8 2.3-2.6l-.3.1c1.2-.9 2.6-2 3.6-3.2l2.6-3-.1.3c1.1-1.2 2.2-3.2 2.8-3.9l.1-.3c1.2-1.6.1-.1 1.1-1.4.3-.4.1-.3.8-1.2.3-.1 2.8-4.1 3-4.1-.5.9.9-1.4-.3.7.1-.3.8-1.1 1.2-1.9.4-.8.8-1.5.7-1.4 0-.3.5-1.5-.4.3l-.1.4c-.4.5-.3.4-.4.7-1.4 2.3-1.8 2.4-2.8 4.1-.7 1.2-1.6 2.3-2.4 3.4l-.3.3c-.4.5-1.6 2.6-1.2 1.8-1.6 2.2-3.4 4.5-5.5 6.5-1.1.9-2.3 1.9-3.4 3s-1.8 2.6-2.2 4.1c0 .1-.1.4-.1.7h.4c0-1.4-.1-3.6-.1-2.6 0-1.5 0-5.9-.1-7.7v.4c0-3.2-.3-3.8-.1-6.9-.1-.4-.1-5.5-.3-7.2v-.8h.1c.4-.1.7-.3 1.1-.4.7-.4 1.1-.9 1.5-1.6.8-1.2 1.2-2.6 1.9-3.8.5-1.2 1.6-2 2.6-3 .9-.9 1.8-1.9 2.6-2.7.3-.3.5-.7.7-1.1.1-.1.3-.4.4-.5l.1-.3c0-.1.1-.1.1-.4l.1-.3c0-.1.1-.3 0-.1l-1.4-.3c-.4-.1-.9-.1-1.4-.3-2.8-.8-5.8-.4-7.7.1-1.4.3-3.1.8-5.1 1.2-.9.3-1.9.5-3 .7-.5.1-.9.1-1.5.3H311c-1.1-.1-2.3-.3-3.5-.1-1.2.1-2.4.4-3.5.8s-2.2.8-3 1.4c-.4.3-.9.5-.9.5-.1 0-.4.4-.3.1l.4-.4c.3-.3.5-.6.7-.9l1.8-2.2c1.3-1.5 2.8-2.9 4.5-4.1.9-.7 2.2-1.1 3.4-1.4s2.4-.5 3.5-.7c.7-.1 3.6-.3 3.9-.3 2.8-.3 5.7-.8 8.8-.9v-.4c-5.3-.1-10.9.3-16.5.4-1.4 0-2.8.1-4.2.1h-4.2c-2.7.1-5.4.7-8 1.5l.1-.1c-1.6.5-3.5 1.5-5 2.4-.1.1-.1 0 .1-.1-1.1.5-2.2 1.2-3.1 1.8-.5.3-1.1.7-1.5.9l-1.1.7-.1.1h.5c.4 0 .8 0 1.4.1.1 0 .1-.1.1-.3l.1-.3.1-.4c.1-.5.4-1.1.7-1.6.5-1.1 1.2-2.2 1.9-3.4l.1-.1s.3-.4.5-.7c.3-.4.5-.7.5-.7s0 .1-.5.8c1.2-1.5 2.4-2.8 3.9-4.1s3.1-2.3 4.9-2.8c1.8-.5 3.8-.5 5.7-.5 1.9.1 3.9.1 5.8.3 3.9.1 7.7.5 11.6 1.2l2.8.5 1.5.3c.4.1.9.3 1.4.4 1.9.4 3.8.9 5.8 1.1V87c-1.5-.1-2.7-1.2-3.8-2.2-1.1-.9-2.2-2.2-3.1-3.2s-1.8-2.4-2.8-3.5c-.9-1.2-2.3-2-3.6-2.7l.7.4s-.9-.5-1.9-.9l-1.9-.8s.3 0 .4.1c-4.6-1.9-9.7-2.4-14.6-3v.3l1.2-.4s-.8.3 0 .1c.4-.1.9-.3 1.4-.4.3-.1.4-.1.5-.3h6.1-.1c2.7.1 5.4.3 8 1.2 2.6.9 4.7 2.6 6.8 4.3 2 1.9 4.2 3.5 6.6 4.9.5.4 1.2.7 1.8.9.5.4 1.2.7 1.8.9.7.3 1.2.5 1.9.8.3.1.7.1 1.1.1l.3.3.4.3 11.2 8.5 1.5 1.1c.5.4.9.8 1.4 1.2l2.7 2.4c1.9 1.6 3.6 3.1 5.5 4.5 2.4 1.6 4.3 3.9 6.1 6.3 1.8 2.4 3.2 5 4.6 7.7 1.2 2.7 2.3 5.7 2.6 8.6.1 1.5 0 3.1-.7 4.5-.5 1.4-1.6 2.6-3 3.4-.4.3-.9.5-1.4.8-.3.1-.5.3-.8.3-.3.1-.5.3-.8.1-.5 0-.9-.1-1.5-.1.3-.3.5-.5.9-.8l.9-.9c.5-.7 1.1-1.2 1.6-2 .5-.7.9-1.5 1.1-2.3.1-.9.3-1.9.1-2.8v-.1c-.1-1.1-.4-2.2-.7-3.2s-.5-2.2-1.1-3.2c-.8-2.2-2.2-4.2-3.8-5.8-1.6-1.6-3.4-3.2-5.4-4.6l-1.6-.8c-.3-.1-.5-.3-.8-.3l-.9-.3c-.1 1.2.4 2.3.9 3.4l-.3-.5c.3.7 1.1 1.9 1.6 2.8.5.9.9 1.8.8 1.5l.5 1.6c.4 1.5.7 3 .7 4.5s0 3-.5 4.5-1.4 2.7-1.8 4.3c-.3.8-.3 1.8.1 2.6.3.8.8 1.6 1.4 2.4l-.3-.4c.5.8 1.1 1.9 1.2 2.8 0 .5.3.9.5 1.4s.5.8.7 1.1c-.1-.3 0-.1-.3-.5.3.4.5.9.3 1.4-.3.5-.5 1.2-.7 1.4-.1-.4-.4-1.1-.8-1.8-.4-.5-.5-1.2-1.1-1.8-.9-1.1-2-2-2.8-3.1-.4-.5-.7-1.2-.9-1.9-.1-.7-.1-1.4 0-2 .3-1.4.9-2.7 1.5-3.9l-.3.7c.3-.8.7-1.6.9-2.7s.1-2.3 0-3.5c-.3-2.4-1.8-4.7-2.8-6.5l.1.3s-.3-.4-.5-.9c-.3-.4-.5-.9-.5-.9v-.1c-.4-.8-1.1-1.5-1.6-2.2-.5-.7-1-1.4-1.5-2.2-.3-.4-.4-.8-.7-1.2-.1-.4-.3-.8-.3-1.2-.1-.8-.3-1.6-.3-2.8v-.1s0 .1-.1.1l-.3.4c-.1.3-.3.4-.4.7l-.3.7-.1.7c.1.2.1 1.1.2 2.1zm-2 9.7c0 .1 0 .1 0 0 .1.3.1.1 0 0z" class="st41"></path><path d="M336 116.6c.1-.3.3-.4.4-.5-.2 0-.4.4-.4.5zm-34.6-16.5v-.1.1zm.1-.2v.1c.2 0 0-.1 0-.1zm0 0c.2-.2.2-.2 0 0zm6.2-4.2c-.3.1-.5.1-.8.3-.8.3-1.4.7-2 1.1 0 0 0 .1-.1.1s-.4.3-.5.3v.1c-.5.3-1.1.7-1.5 1.2-.3.4-.8.8-1.1 1.1.1-.1.1-.3.3-.4.1 0 0-.1.1-.1.1-.1.4-.3.5-.5.1 0 .1-.1.3-.1l.1-.1c.7-.5 1.4-.9 2.2-1.5.3-.3.8-.4 1.2-.5.1-.1.4-.1.5-.3l.1-.1c1.1-.3 2.2-.7 3.4-.8 1.4-.3 2.4-.3 3.6-.7.4-.1.7 0 1.1-.1.8-.1 1.8-.1 2.6-.3.9-.1 2.2-.1 3.2-.4.8-.1 1.6-.1 2.6-.4.8-.1 1.8-.5 2.6-.7.5 0 1.2-.5 1.8-.5 1.1-.1 2-.4 3-.8.9-.1 1.9-.5 2.8-.8.4-.3.9-.3 1.4-.5.3 0 .3-.3.4-.3s.1-.3.1-.3c.1-.1 0 0 .1 0v-.1c.1.1.1-.1.3 0 0 0 .1 0 0 .1l.1-.1c0-.1 0-.1-.1-.1h-.1c-.1.1-.1 0-.3 0 0 .1-.1.1-.1.1s0 .3-.1.1c-.3.1-.5.4-.8.5 0 0-.3.1-.1.1h-.4c-.3 0-.1.1-.4.1 0 .1-.3.1-.4.3-.3.1-.7.1-.9.3-.1.1-.5.1-.7.3-.1 0-.4 0-.7.1s-.5.1-.7.3c-.1-.1-.3 0-.3-.1-.1.1-.5.1-.7.3 0 0-.3.1-.3 0-.7.3-1.5.5-2.3.7-.1.1-.1.3-.3.3h-.4c-.1.1-.3 0-.4.1h-.1v-.1l-3.6.9-.3.1c-.3 0-.7.1-.9.1-.3.1-.4 0-.4.1-.5.1-1.2.1-1.9.3-.5.1-1.1.1-1.6.3-.7.1-1.5.1-2.2.3-.3 0-.5.1-.8.1-.5.1-1.1 0-1.6.3-.1.1-.3 0-.3.1h-.1c-.3.3-.7 0-1.1.3-.1 0-.3.1-.3.1-.4 0-.8.1-1.1.3-.1.1-.5.1-.8.3l-.1.1c0-1.2-.3-.9-.7-.9zm45.8 6.7v.3c0 .3.1.4.3.7-.1 0 .1.1 0 .1h.1c0 .1.1.4.1.5.1.1.1.3.1.4h.1s-.1-.1 0-.1c0 0-.1 0 0 0 0-.1 0-.1-.1-.1.1 0 0-.1 0-.1h-.1c0-.3-.1-.5-.1-.7-.1-.1 0-.3-.1-.4l-.1-.1h-.1c0-.4-.1-.7-.3-.9-.1-.4-.1-.7-.4-.9-.1-.1-.1-.1-.1-.3-.3-.1-.3-.4-.4-.7-.1-.3-.4-.5-.5-.8-.3-.1-.3-.4-.4-.5-.1-.3-.4-.3-.5-.5 0-.3-.4-.1-.4-.3-.1-.4-.4-.4-.8-.5-.1-.3-.5-.1-.7-.4-.1 0-.1-.3-.3-.3 0-.1-.1.1-.1-.1 0-.1-.1.1-.1 0v-.1c0-.1-.1 0 0-.1v-.1h-.1c0 .1-.1.1-.1.1v.3h.1s.1-.1 0 0c.1 0 .1 0 .3.1h.1v.1c0 .1.1-.1.1.1 0-.1 0 .1.1 0 .1 0 .1.1.1.1.1 0 .1.1.3 0 0 0 0 .1.1.1 0 0 .1.1.3 0v.1h.3v.1c.3 0 .4.1.5.4 0 0 .1-.1.3-.1v.1s0 .1.1.1c.3.3.5.4.8.7h.1c0 .1.1.1.1.1.1 0 0 .1.1.1.1.1.3.3.3.4.3 0 .1.3.4.3.1.1.1.4.3.5 0 .1.1.1.1.1.1.1 0 .3.3.4.1 0 0 .1.1 0 .3 0 0 .3.1.3v.1c-.1.1.1.3.1.3.1 0 0 .1.1.1-.5.8-.5.9-.5 1zm-21.6-16.3V86v.1zm.2-.1c-.2.1 0 0 0 0zM333.1 86.1c-.3-.1-.4-.1-.5-.1 0-.1-.1 0-.1 0h-.3c-.1.1-.1 0-.3 0v.1h.1s0-.1 0 0h.1v.1c.1.1.3 0 .4.1.1-.1.1.1.3 0h.1c.1.1.3.1.4.3s.3.3.5.1h.1c.1-.1.3.1.4 0 .1 0 .3.1.5.1.1 0 .3.1.4.1.1.1.3-.1.4 0 0 .1.3-.1.3 0 .1.3.3.1.5 0 .1.1.3 0 .4.1.1-.1.1.1.3.1 0 .1.1-.1.1 0V87s0-.1 0 0v.3-.5c0 .1 0 0 0 0 0-.1 0 .1 0 0h-.1v.2-.1c0-.1 0 .1 0 0 0 .1 0 0-.1.1 0 0-.1 0-.1-.1 0 .1-.1 0-.1.1 0 0 0-.1-.1 0 0 0-.1 0-.1.1V87s-.1 0-.1.1c-.1.1-.3 0-.4-.1l-.1.1s0-.1 0 0c0 0 0-.1 0 0 0 0 0-.1 0 0-.1-.1-.4 0-.5 0h-.1s0-.1-.1 0h-.3c-.1.1-.1 0-.3 0s-.3-.1-.3-.1h-.1c-.1.1-.1-.1-.3 0 0 .1 0 0-.1.1s-.1-.1-.1 0c0-.1-.1 0-.1 0h-.1l-.5-1zm13.8 11.6c-.1 0 .1 0 0 0zm.6.4c0-.1-.1-.1-.1-.1l-.1-.1c-.1 0-.1 0-.1-.1h.3c0 .1.1.1.1.1.1 0 0 .1.1.1l-.2.1c-.1.1-.1.1-.1.3 0 .1 0 .3.1.3v.1c.1 0 0 .1.1.1 0 .1.1.1.1.3.1 0 0 .1 0 .3s.1.1.1.1c-.1.1.1 0 0 .1s0 .1.1.3c0 .1.1.1 0 .3.1 0-.1.1-.1.1-.1 0 .1 0 0 0h.1-.3.5c-.1 0 0 0 0 0 .1 0-.1 0 0 0v-.1h-.1.1c.1 0-.1 0 0 0h-.1v-.1h-.3c-.1 0-.1-.1 0-.3h-.3c0-.1-.1-.1-.1-.3h-.1c-.1 0-.1-.1-.1-.1-.1 0 0-.1-.1 0-.1 0 0-.1-.1-.1s.1-.1-.1-.1h-.1c-.1 0 0-.1-.1 0 1.1-1.1 1-1.1.9-1.2 0 .1.1.1 0 0zm8.3 1.6c-.1.2 0 0 0 0zM355.8 99.7c0 .2 0 0 0 0zm1 .7c-.2 0 0-.1 0 0-.1-.1-.3-.3-.4-.3 0-.1-.1 0 0 0-.1 0-.1-.1-.3-.1s-.1 0-.3-.1h.1v.1c0 .1.3.1.3.3.1 0 .1.1.1.1h.1c0 .1.3.3.3.4.1.1.1.3.4.3 0 0 0 .1.1.1s.1.1.4.1c.1.1.3.3.4.3s.1.3.3.3c0 .1.3 0 .3.3 0 .1.3 0 .1.1 0 .3.1.3.4.3 0 .1.3.1.3.3.1 0 0 .1 0 .3s.1 0 0 0c0 0 .1-.1.1 0l-.1.1h-.1.1l.1-.1s0-.1.1-.1c0 0-.1.1 0 0 0 0-.1 0-.1-.1h-.1v-.1c.1-.1-.1 0 0-.1-.1.1 0 0-.1 0v-.1c-.1 0 0-.1-.1 0v-.1h-.1c.1-.1 0-.1.1-.1h-.1c-.1 0-.3-.1-.3-.3l-.1.1v-.1s0-.1 0 0c-.1-.1-.3-.1-.4-.3 0 0-.1 0-.1-.1-.1 0 0-.1-.1 0-.1 0-.1-.1-.3-.1s-.1-.1-.3 0c-.1 0-.1-.1-.3-.1h-.2c-.1 0 0-.1-.1-.1h-.1c-.1.1 0-.1-.1-.1 0-.1-.1 0-.1-.1.3-.8.3-.9.2-.9zm-159 212.9-8.6-5.9L339.1 87.2l8.6 5.9-149.9 220.2z" class="st41"></path><path d="M183.1 306.2c-4.5-.4-5.5-6.9-5.5-10.4-.3-6.5.3-11.3-5.4-15.9" class="st3"></path><path d="M172.2 280.2h-.1c-.1.1.1 0 .1 0zM172.2 280.2c0 .1 0 .1 0 0zm4 4.7c-.1-.1-.1-.5-.3-.7-.3-.5-.6-1-1.1-1.5h-.1c0-.1-.3-.3-.3-.4h-.1c-.3-.4-.7-.8-1.1-1.1-.4-.3-.7-.5-.9-.8.1.1.3.1.3.3s.1 0 .1 0c.2.2.3.3.5.4 0 .1.1.1.1.3h.1c.4.5.9.9 1.4 1.6.3.1.4.5.7.9.1.1.1.3.3.4l.1.1c.3.9.7 1.8.8 2.7.3 1.1.3 2 .5 3 0 .3 0 .5.1.8.1.7 0 1.5.3 2.2 0 .8 0 1.8.1 2.6.1.7 0 1.4 0 2s.4 1.5.4 2.2c0 .5.4.9.4 1.4 0 .9.5 1.6 1.1 2.3.4.7.9 1.2 1.5 1.8.4.1.5.5.9.7.1.1.4 0 .4.1s.3-.1.3 0c.1 0 0 0 .1.1 0 0 0-.1.1 0 0 .1.3 0 .3.1 0 0 .1.1 0 .1h.1c0-.1.1-.1 0-.3v-.1c-.1 0-.1-.1-.1-.1h-.1c0-.1-.1.1-.1 0-.3 0-.5-.1-.8-.3 0 0-.1-.1-.1 0 0-.1-.1-.3-.3-.3 0-.1-.3 0-.3-.1-.1.1-.1-.1-.3-.1l-.9-.9c0-.1-.1-.3-.3-.4s-.3-.4-.4-.4c.1-.1 0-.1 0-.3-.1-.1-.3-.4-.4-.5 0 0-.1-.1 0-.1-.4-.5-.5-1.2-.5-1.9 0 0-.1-.1-.3-.1v-.9h.1c-.1-.9-.4-2-.4-3v-.9c-.1-.1.1-.3-.1-.4-.1-.5-.1-1.1-.1-1.5-.1-.4 0-.9-.1-1.4-.1-.5 0-1.2-.1-1.8 0-.3 0-.4-.1-.7-.1-.4 0-.9-.1-1.4-.1 0 0-.3-.1-.3v-.1c-.3-.3 0-.5-.1-.8 0-.1-.1-.1-.1-.3 0-.3-.1-.7-.3-.9-.1-.1-.1-.4-.3-.5l-.1-.1c-.1-.3-.2-.4-.3-.7z" class="st45"></path><path d="M199.7 317.1c2.2 1.2 3.6 2.6 5 4.6 1.8 2.4 4.1 4.9 7.2 5.4.8 1.5 5.8 1.9 7.4 2.2 2 .1 5.8.5 7.6-.4-4.9-.9-8.9-2.7-13.1-5.4-1.8-1.1-3-2.7-4.6-3.9-1.1-.9-2.2-1.5-3-2.7 5.3 2.8 12 2.2 17.4-.1 3-1.2 5.5-2.4 8.6-3.5 3-.9 8-3.2 9.1-6.5-3.1 5.3-12.7 6.2-14.7 7.3-2.8 1.4-8.9.9-11.6-1.1 1.4-.9 3.1-1.4 4.5-2.6 1.4-1.2 2.8-2.7 3.6-4.5 1.8-3.4 1.5-8 1.5-11.8-1.6 2-1.6 4.6-2.4 6.9-1.5 4.2-5.7 9.1-10.7 8.9 2.6-1.2 5.4-4.7 6.8-7.2 1.9-3.4.4-8 3.4-10.7-.4.8-1.1 1.4-1.6 2-2.3 2.7-3.4 6.2-5.5 8.9-1.2 1.5-2.7 2.2-4.2 3.2-1.1.8-2.3 1.9-3.5 2.3-.9.3-1.6.4-2.7.3 1.5-1.4 2.7-3 3.8-4.7 1.9-3 4.2-7.2 4.2-10.8-.9 3.1-3.4 6.1-5.7 8.4-1.4 1.4-2.8 3.2-4.5 4.5-.7.5-1.9 1.5-2.8 1.4 1.9-.1 3.2-2.6 4.2-4.1.5-.9 1.1-1.9 1.5-3 .4-1.1.3-2.4.7-3.5.5-1.4 2-2.4 3.1-3.5 1.4-1.4 1.4-2.3 1.2-4.2-3.1 1.6-4.3 4.1-6.1 7-1.4 2.3-5.3 7.7-7.8 7.7 3-.7 6.2-6.9 7.3-9.5.9-2 2.3-8.6 5.9-8.1-3.6 0-5.3 1.1-7.8 3.6-1.6 1.7-3.1 3.5-4.6 5.4-.5.7-.7 1.5-1.6 1.2v-.5c-1.5-5.9-3.9-11.6-2.7-17.7.7-3.6 5.9-6.9 3.2-10.8-.3 3.1-2.4 4.9-3.9 7.2-1.6 2.7-1.8 6.2-3.1 8.8 0 0-.8 11.9 3.5 16.5-2.8-2.8-3.6-10-3.8-13.9-.1-3.1 1.9-19.5-4.3-17.7 3.5 7.8-.9 13.5-.9 21.5 0 0 4.3 7 4.1 11.2.3-5.7-4.9-11.5-6.5-13.6-1.6-2.3-1.2-2.8-3-4.7 0 0-3 .7-8.5-3 3.9 4.6 5.1 10 5.8 14.7.4 2.7.8 11.9 4.6 12.3" class="st3"></path><path d="m179.5 306.4-.3-.1-.5-.1c0 .1.8.2.8.2zm-2.7-2.7v.1s0 .1.1.4c.1.1.3.4.4.7.4.5.8.8.8.8-.5-.6-1-1.3-1.3-2zm-.2-.7c-.3-.9-.4-1.4-.5-1.5.2.3.5 1.7.5 1.5zm8.5-31.7v.3c.1-.2 0-.3 0-.3z" class="st45"></path><path d="M188.3 285.1v.3c0-4.2.5-8.9-.4-13.2l.1.3c-.3-1.4-.7-2.8-1.8-3.8-.5-.4-1.4-.5-2-.4h-.2s0 .1.1.3l.1.5c.1.3.3.7.4.9.4 1.4.7 2.6.7 3.9 0 1.4-.1 2.7-.3 4.1-.4 2.7-1.2 5.3-1.6 8-.1.7-.1 1.4-.3 2v2.2l1.9 3.6c-.1-.1-.1-.3-.1-.4.3.5.5.9.8 1.6 0 .1-.1-.1-.1-.3.7 1.6 1.8 4.5 1.6 6.5h-.1v-1.6c-.1-.7-.1-.9-.1-.5-.5-3-2.2-5.8-3.9-8.4l-2.8-3.8c-.4-.7-.8-1.4-1.1-2.2-.4-.7-.9-1.4-1.4-1.8-.5.1-1.4 0-2-.1s-1.4-.3-2-.5l-1.9-.8c-.3-.1-.5-.3-.9-.5l-.5-.3-.3-.3-.3-.1.3.3c.1.1.1.3.3.3l.3.4 1.5 2.4c.9 1.8 1.6 3.6 2 5.5.5 1.9.8 3.9 1.1 5.8l.8 5.8c.1.3-.1-.8 0 0l-.9-6.8.1.3c-.3-1.6-.1-.3-.4-2-.1-.7.1.1 0-.1-.5-3.5-1.8-7-3.5-9.9-.1-.1-.3-.4-.5-.8-.1-.1-.3-.4-.4-.5l-.1-.1c-.3-.3.1 0 .1 0l.1.1.3.1c.1.1.4.1.5.3.4.1.7.3.8.4.8.4 1.6.7 2.6.9.4.1.9.1 1.4.3h1.4l.4.4c.2.2.3.3.4.5l.7 1.1 1.2 2.3 3.1 4.2c1.9 2.8 3.6 6.1 3.5 9.6h.4c0-1.9-.5-3.6-1.2-5.4-.7-1.8-1.5-3.4-2.3-5-.1-.3-.4-.5-.5-.9v-1.1c0-.8.1-1.5.3-2.3l.9-4.9c.8-3.2 1.6-6.8.7-10.3-.1-.5-.3-1.2-.5-1.8-.1-.3-.3-.5-.4-.9-.1-.1 0-.1.1-.1h.5c.7 0 1.4.4 1.8.9s.7 1.2.9 1.9l.5 2.2c.3 2.3.3 4.5.3 6.8l-.1 6.9c.1 2.3.4 4.6.9 6.9.5 2.2 1.2 4.6 2.8 6.2l.3-.3c-1.2-1.4-1.9-3.1-2.4-4.9-.5-1.8-.8-3.6-.9-5.4l-.1-5.5v-.7c.1-.3.3-.4.3-.7.1-.4.4-.8.5-1.4l.8-2.7c.3-1.1.7-2.3 1.1-3.2.5-1.1 1.2-1.9 1.9-2.8l1.9-2.8c.1-.3.3-.5.3-.8.1-.3.1-.7.1-.7v-.3c0 .1.1.1.1.3.4.9.3 2.2-.1 3.1s-1.1 1.9-1.6 2.8c-.7.9-1.2 1.9-1.6 3s-.4 2.2-.5 3.2c-.3 4.5 1.1 8.8 2.3 13l.4 1.6.3.8v.4c0 .1-.1.5 0 .5.5.1.8 0 1.1-.1.3-.3.4-.5.5-.7.3-.4.7-.8.9-1.4 1.4-1.8 2.7-3.5 4.5-5.1l-.3.3c1.1-.9 2.2-1.9 3.4-2.4 1.2-.5 2.6-.7 3.9-.7v-.3c-1.2-.3-2.4.5-3.1 1.4-.7.9-1.2 1.9-1.6 3-.5 1.2-.8 2.6-1.4 3.8l-1.8 3.6c-.7 1.2-1.4 2.3-2.3 3.4-.8 1.1-1.9 2-3.1 2.4v.3c.9 0 1.8-.5 2.6-1.2.7-.5 1.4-1.2 2-1.9 1.2-1.4 2.3-2.8 3.2-4.3.9-1.5 1.8-3.1 2.8-4.5.5-.7 1.2-1.4 1.9-1.9.4-.3.7-.5 1.1-.7l.3-.1.1-.1h.1v.5c0 .8 0 1.8-.4 2.4s-1.1 1.2-1.8 1.9c-.7.5-1.2 1.2-1.8 1.9-.5.8-.5 1.8-.7 2.6 0 .4-.1.9-.3 1.4s-.3.8-.5 1.2l-1.4 2.4c-.5.8-.9 1.6-1.6 2.3s-1.4 1.4-2.3 1.4v.1c.8 0 1.6-.4 2.2-.9l1.9-1.6c1.2-1.1 2.3-2.4 3.4-3.6 2.3-2.4 4.5-5 5.5-8.2 0 1.8-.4 3.4-1.1 4.9-.8 2-1.8 3.9-3 5.7-1.1 1.9-2.3 3.5-4.1 5 1.1.1 2 0 3-.3.9-.4 1.8-.9 2.6-1.5 1.5-1.2 3.4-2 4.7-3.5 2.7-3 3.8-7 6.5-9.9.4-.4.8-.9 1.1-1.5l.3-.4-.4.4c-1.4 1.2-1.8 3.1-2 4.7-.3 1.8-.3 3.5-.9 5.1-.7 1.6-1.8 3.1-2.8 4.5-1.2 1.4-2.3 2.6-4.1 3.5-.3.1.1 0 .3 0h.5c.4 0 .7-.1.9-.1.7-.1 1.2-.4 1.9-.7 1.2-.5 2.3-1.4 3.2-2.3 1.9-1.9 3.2-4.1 4.1-6.6l.8-3c.1-.5.3-1.1.5-1.5.1-.3.3-.5.4-.7s.3-.4.4-.5l.1-.1v2.9l-.1 3.4c-.1 2.2-.7 4.5-1.9 6.2-.5.9-1.4 1.6-2 2.4-.7.7-1.5 1.3-2.3 1.9-.5.4-1.2.7-1.9.9-.3.1-.7.3-.9.4l-.5.3s-.3.1-.1.1l.3.1c1.2.8 2.6 1.2 3.9 1.5 2.7.5 5.5.5 8.1-.7l7.8-2.3c2.4-.9 5-2.4 6.5-4.9h-.1c-.7 1.9-2.4 3.2-4.2 4.3-1.8 1.1-3.6 1.9-5.7 2.4-3.4 1.1-6.5 2.7-9.7 3.9-3.4 1.1-6.9 1.5-10.3 1.1-.8-.1-1.8-.3-2.6-.5l-1.2-.4c-.4-.1-.7-.3-.9-.4l-.1-.1.1.1c.1.1.1.3.3.4.1.3.5.5.8.8l2 1.6c1.4 1.1 2.4 2.4 3.8 3.4l4.5 2.6 4.6 1.9c.8.3 1.6.5 2.4.7l1.4.3h.3c-.3.1-.4.1-.7.3-1.8.4-3.5.3-5.3.3-1.8-.1-3.5-.3-5.3-.7l.3.1c-1.2-.3-2.7-.5-3.8-1.4-.1-.1-.1-.3-.3-.4-.1 0-.3 0-.4-.1-.3-.1-.5-.1-.8-.3-.5-.1-.9-.4-1.4-.7l.3.1c-1.2-.7-2.7-1.8-3.1-2.4l-.1-.1c-1.1-1.2-.1-.1-.9-1.2-.3-.4-.1-.1-.7-.9 0-.1-.5-.9-1.4-1.6l-1.5-1.5c.7.5-1.1-.9.5.3-.3-.1-.8-.7-1.5-1.1-.7-.4-1.2-.7-1.1-.5-.3 0-1.2-.5.3.4l.3.1c.4.4.4.3.5.4 1.8 1.2 1.9 1.6 2.8 2.7l2.2 2.7.1.3c.3.5 1.9 1.6 1.4 1.4.8.8 1.9 1.5 3 1.9.3.1.5.3.8.3.1 0 .3.1.4.1h.3c.4.5 1.1.8 1.6 1.1 2.4.8 5 .9 7.4 1.2h4.1c.3 0 .5 0 .8-.1.3 0 .4-.1.7-.1.3-.1.4-.1.7-.3l.3-.1c.1 0 .3-.1.1-.1-.3 0-.4-.1-.7-.1-.4-.1-.8-.1-1.2-.3-.5-.1-.9-.3-1.4-.3h.3c-2.6-.8-3.1-.8-5.3-1.9-.1 0-1.2-.5-2.3-1.1l-3-1.6c-.3-.1-.3-.3-.3-.3-1.9-1.2-3.2-3.2-5.1-4.5l-1-.8-.4-.4.4.1c.5.3.9.3 1.5.5 1.6.4 3.6.7 5.5.7s3.8-.4 5.1-.8c1.1-.3 2.6-.7 4.2-1.4l4.6-2-.3.1 5.4-2c1.8-.7 3.4-1.6 4.3-2.3.9-.5 2.3-1.5 3.1-3 .1-.1.3-.4.4-.8l-.5-.3c-.5.9-1.8 2.3-3.2 3.2s-3.4 1.6-4.9 2.2c-.5.1-3 .9-3.1.8-1.2.4-2.6.7-3.8 1.2-1.2.4-2.7.5-4.1.5-1.4 0-2.8-.3-4.2-.7l-2-.8-.3-.1h.1c.3-.1.7-.3.9-.5 1.4-.7 2.7-1.4 3.8-2.4 1.1-1.1 2.2-2.2 2.8-3.4 1.5-2.6 1.8-5.7 1.9-8.4v.1c0-.7 0-1.5-.1-2.3v-1.9l-.4.4c-.1.1-.1.1.1-.3-.1.3-.4.5-.5.8-.1.3-.3.4-.4.7-.1.4-.4.9-.5 1.4l-.7 2.8v-.4c-.4 1.9-1.5 3.6-2.7 5.4l-.1.1s-.3.3-.4.5c-.3.3-.4.5-.4.5s0-.1.5-.7c-.9 1.2-2.2 2.2-3.5 3-.7.4-1.4.7-2.2.8-.1 0-.4.1-.5.1h-.3l.1-.1c.4-.3.7-.5 1.1-.8.7-.5 1.2-1.2 1.9-1.9 1.1-1.4 2.2-2.8 3-4.5.7-1.8.8-3.5.9-5.3.3-1.8.7-3.5 1.9-4.7l-.3-.3c-.4.8-1.2 1.5-1.8 2.2l-1.6 2.4-2.8 5c-.5.8-1.1 1.6-1.8 2.2-.7.7-1.5 1.1-2.3 1.6-1.6.9-3 2.6-4.7 3.1l.5-.3c-.5.3-.9.4-1.5.4h-1.2l.8-.8c.4-.4.7-.8 1.1-1.2l1.9-2.7 3-5.8s-.1.7 0 .1c.7-1.9.9-3.4.9-4.6v-1.4l-.4 1.4-.7 1.9c-.1.1-.1.1 0-.1-1.2 2.6-3.2 4.9-5.3 7l-3.1 3.2c-.5.5-1.1.9-1.8 1.5-.5.4-1.2.8-1.9.8v.3c.8-.1 1.5-.5 2-1.1.5-.5 1.1-1.2 1.5-1.8.8-1.2 1.6-2.6 2.3-4.1.4-.9.4-1.9.5-2.8.1-.9.5-1.8 1.2-2.6l2.2-2c.7-.7 1.2-1.8 1.2-2.7v-1.2c0-.1 0-.4-.1-.3-.5.3-.9.5-1.4.8-.8.5-1.5 1.4-2.2 2-1.2 1.6-2 3.4-3.1 5-.9 1.4-1.9 2.8-3.1 4.1-.5.7-1.2 1.2-1.9 1.8-.7.5-1.5.9-2.3 1.1 1.8-.5 2.8-2 3.9-3.4.9-1.4 1.9-3 2.7-4.5.8-1.5 1.4-3.2 1.9-4.9.7-1.6 1.4-3.2 2.7-4.3.7-.5 1.5-.5 2-.5v-.1c-1.6 0-3.1.3-4.5.9-1.4.7-2.4 1.8-3.6 3h-.1c-1.2 1.4-2.4 2.8-3.5 4.3-.3.4-.7.7-.8 1.2-.3.4-.5.8-1.1.8-.3 0-.1-.3-.1-.4 0-.3 0-.5-.1-.7l-.4-1.4c-.9-3.8-2.2-7.4-2.4-11.3l.1.5c-.1-.5-.1-1.8-.1-2.7 0-.9.1-1.6.1-1.5l.3-1.4c.7-2.6 2.6-4.2 3.5-6.5.3-.5.4-1.2.4-1.9s-.3-1.4-.7-1.9v-.1s0-.1 0 0v.3c0 .1 0 .4-.1.5 0 .4-.1.7-.3 1.1-.3.7-.7 1.4-1.1 2l.1-.4-2.8 4.1c.1-.1 0-.1.3-.4-1.5 2.3-1.8 5.1-2.7 7.7-.1.3-.3.7-.4.9-.1.4-.1.7-.1 1.1v2.2c0 1.4.1 2.8.3 4.2l-.1-.7c.1 1.2.4 3.1.9 4.9.5 1.9 1.4 3.8 2.4 5l-.3-.3-1.1-1.5c-1.1-2-1.6-4.2-2-6.3-.5-1.9-.7-4-.7-6.3z" class="st45"></path><path d="M185.3 294.5c0-.1 0-.1 0 0zm18.7 26.6-.4-.4c.1 0 .3.3.4.4zm3.8-9.5c0-.2 0 0 0 0zm-.7.2c.1-.1.1 0 0 0 .1 0 .3 0 .3-.1 0 .1 0 0 0 0v-.1s.1 0 .1-.1.1-.1.1 0v-.1s0 .1 0 0c0 0 0 .1 0 0v-.1.1h-.3c0 .1-.1 0-.1 0l-.1.4c0-.3-.1-.1-.3-.3-.1 0-.3-.1-.3 0h-.1c-.1.1-.1 0-.3.1h-.3c-.1 0-.1-.1-.3 0-.1 0-.1.1-.3.1 0-.1-.1.1-.1 0-.1-.3-.1-.1-.3 0-.1-.1-.1.1-.3 0 0 .1-.1-.1-.1-.1 0-.1 0 .1 0 0v.1s0 .1 0 0v-.3.5c0-.1 0 0 0 0 0 .1 0-.1 0 0h.1v.2c0 .1 0-.1 0 0v-.1h.1v-.1s0 .1 0 0v-.1.1l.1-.1c0-.1.1-.1.3 0v-.3s0 .1 0 0c0 0 0 .1 0 0 0 0 0 .1 0 0 .1 0 .3-.1.3-.1h.1c0-.1 0 .1 0 0h.1c0-.1.1 0 .1-.1s.1 0 .1 0h.1c0-.1.1.1.1 0v-.3c0-.1 0 .1.1 0 0 .1.1 0 .1 0 .9.8 1 .8 1 .8zm-2.6 1.8c-.1-.2 0 .1 0 0z" class="st45"></path><path d="M204.5 313.6c-.1 0 0 .1 0 0zm-.4.5c0-.1.2 0 0 0 .1 0 .1-.1.1-.1v-.3s0 .1 0 0c0 0 0 .1 0 0v.1l-.1.1c0 .1 0 0 0 0v.2c-.1-.3-.1-.1-.3-.1s-.1 0-.1.1-.1 0-.1.1c0 0-.1 0-.1.1s-.1 0-.1 0c-.1 0 0 .1-.1.1-.1-.1 0 .1-.1 0s-.1 0-.1.1c-.1 0 0 .1-.1 0 0 .1-.1-.1-.1 0 0-.1 0 .1 0 0 0 0 .1.1 0 .1l-.1-.1v-.1c0 .1.1.1.1.1s0 .1.1.1c0 0 0-.1 0 0v-.1c0 .1.1.1.1.1.1.1 0-.1 0 0v-.1h.1v-.3c0 .1 0 .1.1.1v-.1c0-.1 0-.1.1 0 0 0 0-.1-.1-.1.1 0 .1-.1.1-.1 0-.1 0 .1 0 0 0 0 0-.1.1-.1v-.1c0-.1.1 0 .1 0 0-.1.1.1.1 0v-.1c0-.1.1 0 0 0 .4.6.4.4.4.4zm-15.5-13.9v.1l.1-.1h-.1zM189.1 300.6c0-.1-.1-.1-.1-.1l-.1-.1c-.1 0-.1 0-.1-.1h.3c0 .1.1.1.1.1.1 0 0 .1 0 .1v.1c-.3.1-.1.1-.1.3s-.1.1.1.3v.1c.1 0 0 .1.1.1 0 .1 0 .1.1.3 0 0-.1.1 0 .1l.1.1c-.1 0 .1.1 0 .1-.3.1-.1.1 0 .3-.1 0 .1.1 0 .3.1 0-.1 0-.1.1-.1 0 .1 0 0 0h.1-.3.5c-.1 0 0 0 0 0 .1 0-.1 0 0 0v-.1h-.1.1c.1 0-.1 0 0 0h-.1v-.1c-.1 0 0 0-.1-.1h-.1c-.1 0-.1-.1 0-.1h-.3c0-.1-.1-.1-.1-.3v-.1c-.1 0 .1 0 0 0v-.1c-.1 0 0-.1-.1-.1s0-.1 0-.1c-.1 0 .1-.1 0-.1h-.1c-.1 0 0-.1 0-.1.6-.7.3-.5.3-.8 0 .1.2.1 0 0 .2.1 0 .1 0 0zM182.8 299.4h-.1.1zm0 0c-.2.1.1 0 0 0zm.5.7c0-.2 0-.2 0 0 0-.1-.1-.1-.1-.3l-.1-.1c-.1 0-.1-.1-.1-.1h-.1.3c0 .1.1.1.1.3.1 0 0 .1.1.1v.4c0 .1 0 .3.3.3v.1c.1 0 .1.1.3.1 0 .1.1.1.1.3.1 0 0 .1.1.3 0 .1.3 0 .3.1-.1.1.1 0 .1.1-.1.3 0 .3.3.3 0 .1.3 0 .1.3.1 0 0 .1 0 .1 0 .1.1-.1 0 0 0 0 .1-.1.1 0l-.1.1s0-.1.1-.1c0 0-.1.1 0 0h-.3c0-.1.1-.1 0-.1.1-.1-.1 0 0 0-.1.1 0 0-.1 0v-.1h-.1s0-.1 0 0h-.1l.1-.1h-.1c-.1 0-.1 0-.1-.1l-.1.1c0-.1-.3-.1-.3-.3-.1 0 .1-.1-.1 0-.1 0-.1-.1-.1-.1-.1 0 0-.1-.1-.1s0-.1-.1-.1 0-.1-.1-.1h-.1c-.1 0 0-.1-.1-.1.1-.1 0 0 0-.1 0-1 .2-1.1 0-1.1zm29.6 14.4h-.1.1zm-.1.2c.1-.3 0 0 0 0zM212.4 314.8c0-.1 0 0 0 0h.1c0 .1 0 0 0 0l.1-.1c0-.1.1 0 .1 0v-.1s0 .1 0 0c0 0 0 .1 0 0v-.1h-.1c0 .1 0 0-.1 0l-.1.3c0-.3 0-.1-.1-.3 0 0-.1-.1-.1 0s-.1 0-.1.1h-.1s0-.1-.1 0c0-.1-.1.1-.1 0s-.1.1-.1 0c0-.3-.1-.1-.1 0 0-.1-.1.1-.1-.1v-.1c0-.1-.1.1 0 0 0-.1-.1.1 0 .1.1-.1 0 0 0-.1v-.1c0 .1-.1.1-.1.1v.1s0-.1 0 0v-.1.1c0 .1 0-.1 0 0v-.3s0 .1 0 0v-.1.1-.1c.1-.1.1-.1.1 0v-.3s0 .1 0 0c0 0 0 .1 0 0 0 0 0 .1 0 0 0 0 .1-.1.1 0 0-.1 0 .1 0 0h.1c0-.1 0 0 .1-.1 0-.1 0 0 .1 0 0-.1 0 .1.1 0v-.1c.2.9.2 1.2.4 1.2h-.1c-.1-.1-.1-.1.1 0-.2-.1-.2-.1 0 0-.2 0 0-.1 0 0 0-.1 0 0 0 0zM130 392.5l32.6-41.9M196 308.7c-.1 0-.1-.1 0 0-.3-.1-.3 0-.4 0 0-.1-.1 0-.1 0h-.3c-.1.1-.1.1-.3 0v.1s0-.1 0 0c0 0 0-.1 0 0h.1v.1h.3c.1-.1.1 0 .1 0h.1c.1.1.3.1.4.3.1.1.3.3.5.1h.1c.1 0 .3.1.4 0 .1.1.3.1.4.1s.1.1.3.1c.1.1.3 0 .4 0 0 .1.3-.1.3 0 .1.3.3.1.4 0 .1.1.3-.1.4.1 0-.1.1.1.1.1 0 .1 0-.1.1 0v-.1s0-.1 0 0v.3-.5c0 .1 0 0 0 0 0-.1 0 .1 0 0h-.1v.1-.1c0-.1 0 .1 0 0v.1h-.1c0 .1 0 0-.1.1 0 0 0-.1-.1 0 0 0-.1 0-.1.1v-.1s-.1 0-.1.1c-.1.1-.3 0-.3-.1l-.1.1v-.1s0-.1 0 0c-.1-.1-.4 0-.5-.1h-.1s0-.1-.1 0c-.1 0-.1 0-.3-.1-.1.1-.1 0-.3 0s-.1-.1-.3-.1h-.1c-.1.1-.1-.1-.3-.1l-.1.1c-.1.1 0-.1-.1 0 0-.1-.1 0-.1 0h-.1l.1-.6h.1c-.1-.1-.1 0-.1 0zm-1.6-7.3c.1.2 0 0 0 0zm.1 0s-.1 0 0 0zM194.8 300.5s-.1 0 0 0c-.1.1-.1.3-.1.4-.1 0 0 .1 0 0v.3c.1.1 0 .1-.1.3v-.1s.1 0 0-.1h.1c.1-.1.1-.3.1-.4-.1-.1.1-.1 0-.1v-.3c.1-.1.1-.3.3-.4s.3-.3.1-.5v-.1c-.1-.1.1-.3 0-.4v-.4c0-.1.1-.3.1-.3.1-.1-.1-.3 0-.4.1 0-.1-.1 0-.3.3-.1.1-.3 0-.4.1-.1-.1-.3 0-.4-.1 0 .1-.1.1-.1.1 0-.1 0 0-.1h-.1s-.1 0 0 0h.1-.5c-.1 0 .1 0 0 0v.1c-.1 0 .1 0 0 0h.1v.1c.1 0 0 .1.1.1 0 0-.1 0 0 .1 0 0 0 .1.1.1h-.1s0 .1.1.1c.1.1.1.3 0 .3 0 0 .1 0 .3.1 0 0-.1 0 0 0 0 0-.1 0 0 0 0 0-.1 0 0 0 0 .1.1.4 0 .5v.1c.1 0-.1 0 0 .1v.3c.1.1 0 .1.1.3s0 .1 0 .3v.1c.1.1-.1.1 0 .3h.1c.1.1-.1 0 0 .1-.1 0 0 .1 0 .1v.1l-.9.5c0-.2 0-.2 0 0zM184.4 292.6c-.1 0 0-.1-.1-.3-.1-.3-.3-.4-.4-.5 0-.1-.1-.1-.1-.1l-.4-.4c-.1-.1-.3-.3-.3-.4 0 .1.1 0 .1.1 0 0 0 .1.1.1v.1h.1c.1.3.3.4.4.7.1 0 .1.3.3.4l.1.1h.1c0 .4.3.7.4.9.1.4.3.7.5.9.1.1.1.1.1.3.3.1.3.5.4.7.1.3.3.5.4.9.1.3.1.5.3.7 0 .3.3.5.3.8-.1.1.3.3.1.5-.1.4 0 .7.3.9 0 .3.1.5 0 .9.1.1-.1.3-.1.4-.1 0 .1.1 0 .1s.1 0 .1.1c-.1 0 0 .1-.1.1 0 0 0 .1.1 0h.4s.1 0 .1-.1c-.1 0 0 0 0-.1.1 0-.1 0 0 0v-.3s0-.1-.1 0c.1 0 .1-.1.1-.1.1 0-.1 0 0-.1-.1 0 0-.1-.1-.1v-.3c-.1 0 0-.1-.1-.3v-.3c0-.1 0-.1-.1-.3.1 0 .1-.1.1-.1s0-.1-.1-.3v-.1c-.3-.1-.3-.4-.1-.7h-.3v-.3c-.1-.4-.4-.7-.4-1.1h-.1c0-.1-.1-.1-.1-.3-.1 0 0-.1-.1-.1-.1-.1-.1-.3-.3-.5-.1-.1-.1-.3-.3-.4s-.1-.4-.3-.5c0-.1-.1-.1-.1-.3-.1-.1 0-.4-.3-.4-.1 0 0-.1-.1 0-.3 0 0-.3-.1-.3 0 0-.1 0 0-.1 0-.1-.1-.1-.1-.3-.1 0-.1-.1-.1-.1 0 .1-.1-.1-.1-.1zm-4.6 14v-.1l-.1.1h.1zm-.3-.2h.1c.1 0-.1.2-.1 0zm0 0s-.1 0 0 0zM176 302c.1.1.1.4.1.7.1.5.5 1.1.8 1.6h.1c0 .1.3.3.3.4h.1c.3.4.7.7.9 1.1.4.1.7.4 1.1.7-.1-.1-.3 0-.3-.1h-.1c-.1-.1-.3-.3-.4-.3 0-.1-.1-.1-.1-.3h-.1c-.4-.5-.9-.9-1.2-1.6-.3-.3-.3-.7-.4-.9-.1-.1-.1-.3-.1-.4l-.1-.1-.5-2.7c-.1-1.1 0-1.9-.3-2.8 0-.3 0-.5-.1-.8-.1-.7-.1-1.4-.3-2-.1-.8-.3-1.6-.5-2.4-.3-.7-.3-1.4-.4-1.9-.1-.7-.5-1.4-.8-2 0-.4-.5-.8-.5-1.2-.1-.8-.7-1.5-1.1-2.2-.3-.7-.7-1.4-.9-2-.3-.3-.3-.7-.5-.9 0-.1-.3-.1-.3-.3s-.3 0-.3-.1c-.1 0 0 0 0-.1h-.1c.1-.1-.1-.1-.1-.3 0 0 0-.1.1-.1 0 0-.1-.1-.1 0s-.1.1-.1.3v.1c.1 0 0 .1.1.3.1 0 .1 0 .1.1h.1c.1.1.4.3.5.5l.1.1c0 .1 0 .3.1.4 0 .1.1.1.1.3.1 0 .1.3.3.3.1.3.1.4.3.7.1.1.1.4.3.5 0 .1 0 .3.1.5.1.1.1.4.3.5-.1.1 0 .1 0 .3.1.1.3.4.4.5 0 0 .1.1 0 .1.4.4.7 1.1.8 1.6.1 0 .3.1.3.1 0 .1 0 .3.1.3.1.1 0 .3.1.3h-.1c.3.9.8 1.8.9 2.7l.1.1c0 .3.1.4.1.7.1.1 0 .3.1.4.1.4.3.9.3 1.5.3.4.1.8.3 1.2.1.5.1 1.1.1 1.6 0 .2 0 .5.1.7.1.4 0 .8.1 1.2.1 0 0 .3.1.3v.1c.1.3 0 .5.1.8 0 .1.1.1 0 .3-.1.3.1.5.1.9.1.1.1.4.1.5v.1c-.4-.5-.3-.2-.3.1zM169.5 280.9c-.1 0-.1 0 0 0zm8.1 7.1c-.2 0 0-.1 0 0zm1.4 2.3c0-.1 0-.3-.1-.3-.1-.3-.3-.5-.4-.7 0-.1-.1-.1-.1-.1h-.1c-.1-.1-.3-.4-.4-.5-.3-.1-.3-.3-.4-.4 0 .1.1 0 .1.1l.1.1v.1h.1l.4.8c.1.1.1.3.1.4l.1.1h.1c0 .4.1.8.1 1.2 0 .4 0 .8.1 1.4v.4c.1.3 0 .7.1.9v1.2c0 .3-.1.5 0 .9 0 .3.1.7.1.9-.1.3.1.4 0 .7-.1.4 0 .8.3 1.1 0 .4.3.7.3.9.1.1 0 .4.1.5-.1.1.1.1 0 .1h.1c-.1.1.1.1-.1.1h-.1s0 .1.1 0c.1 0 .1 0 .1-.1 0 0 0-.1.1-.1-.1 0 0 0 0-.1 0 0-.1 0 0 0-.1-.1-.1-.1-.1-.3 0 0 0-.1-.1 0 .1 0 0-.1 0-.1.1-.1-.1 0 0-.1-.1 0 0-.1-.1-.1v-.3c-.1 0 0-.1-.1-.3v-.3c0-.1 0-.1-.1-.3.1 0 .1-.1.1-.1-.1 0-.1-.1-.1-.3v-.1c-.1-.3-.1-.5-.1-.8 0 0-.1 0-.3-.1v-.3c0-.4-.1-.8-.1-1.4v-.4c-.1-.1.1-.1 0-.1v-.7c-.1-.1 0-.4-.1-.5-.1-.3 0-.5 0-.8v-.3c-.1-.1.1-.4-.1-.5-.1 0 0-.1-.1-.1-.1-.1 0-.3-.1-.4v-.1c.1-.1 0-.3-.1-.4-.1 0 0-.1-.1-.3.9.1.8.1.8-.1zm1.4 10c0 .2 0 0 0 0zm15.8 5.4c0-.1.1.2 0 0zM195.6 306.3c.1 0 .3-.1.3-.1 0 .1 0 0 0 0l.1-.1c0-.1 0-.1.1-.1 0 0 0 .1 0 0 0 0 0 .1 0 0v.3c-.1 0-.1.1-.3.1 0 .1-.1 0-.1 0l-.1-.1c-.1-.3-.1-.1-.3-.1s-.3-.1-.4.1h-.1c-.1.1-.1 0-.3.1h-.3c-.1 0-.1-.1-.3 0-.1-.1-.1.1-.3 0 0-.1-.1.1-.1 0-.1-.3-.3-.1-.3 0-.1-.1-.1.1-.3 0 0 .1-.1-.1-.1-.1 0-.1 0 .1 0 0v.1s0 .1 0 0v-.3.5c0-.1 0 0 0 0 0 .1 0-.1 0 0h.1v-.1.1c0 .1 0-.1 0 0v-.1h.1c0-.1 0 0 .1-.1 0 0 0 .1 0 0l.1-.1v.1l.1-.1c.1-.1.1-.1.3 0v-.3s0 .1 0 0c0 0 0 .1 0 0 0 0 0 .1 0 0 .1 0 .3-.1.4-.1h.1c0-.1 0 .1 0 0h.1c0-.1.1 0 .1-.1.1-.1.1 0 .3 0h.1c0-.1.1.1.1 0v-.1c0-.1.1.1.1 0 0 .1.1 0 .1 0 .5.6.5.6.6.6z" class="st45"></path><path d="M340.6 91.6c-.1 0-.1-.1-.1-.1-.1-.1-.3-.1-.5-.3 0-.1-.1 0-.1-.1-.1 0-.3-.1-.4-.1s-.3-.1-.3-.1h.1s.1.1.1 0v.1h.1c.1.1.3.3.5.3.1 0 .1.1.3.1h.1c.1.3.4.3.5.5.3.1.4.4.8.4.1 0 .1.1.3.1.3 0 .4.3.5.1.1.1.4.3.7.3.1 0 .3.3.5.3.1.1.4 0 .5.1s.3 0 .4.1c.1.3.4.3.7.1.1.1.4 0 .7.1.1-.1.1.1.3.1 0 .1.1-.1.1 0s.1-.1.1-.1 0-.1 0 0 .1 0 0 .1v.1-.5c0 .1 0 0 0 0 0-.1 0 .1 0 0h-.3v.1c0-.1 0-.1-.1-.1 0-.1-.1.1-.1 0 0 .1 0 0-.1.1-.1 0-.1-.1-.1-.1-.1.1-.1-.1-.1 0 0 0-.1-.1-.1 0h-.1v-.1h-.1V93c-.1.1-.4 0-.5-.1l-.1.1s0-.1-.1-.1c0 0 0-.1-.1 0-.3-.1-.5-.1-.8-.1h-.1c0-.1-.1 0-.1 0-.1 0 0-.1-.1 0-.1 0-.3-.1-.4-.1-.1.1-.3-.1-.4 0-.1 0-.3-.1-.4-.3h-.1c-.1 0-.1-.3-.3-.1h-.1c-.1.1-.1-.1-.3-.1h-.5c0-.1-.1-.1-.3-.1h-.1c.1-.5 0-.5 0-.5zM344.6 96.6v-.1.1zm-.1 0c0-.1 0 .2 0 0z" class="st3"></path><path d="M344.5 96.6s0 .2 0 0zm-2-.5c.1 0 .1.1.3.1.1.1.4.1.7.3 0 .1.1 0 .1.1h.5c.1-.1.3 0 .4 0v-.1s-.1.1-.1 0c0 0 0 .1 0 0h-.1c0-.1 0 0-.1-.1s-.4-.1-.7-.3c-.1.1-.3-.1-.4-.1h-.3c-.1-.3-.5-.4-.7-.7-.3-.3-.4-.5-.7-.7-.1 0-.1-.1-.1-.3-.3-.1-.3-.4-.5-.5-.1-.3-.4-.5-.5-.7s-.1-.4-.3-.7c0-.3-.4-.4-.4-.7 0-.1-.3-.3-.3-.4 0-.4-.1-.5-.4-.8 0-.3-.3-.4-.3-.8-.1-.1 0-.3 0-.4.1-.1-.1 0 0-.1h-.1s-.1 0 0 0 0 0 .1-.1c-.1 0-.1 0-.1.1l-.1.1c0 .1.1.1.1.3 0 0 0 .1.1 0-.1 0-.1.1 0 .1-.1.1.1 0 0 .1.1 0 0 .1.1.1v.3c.1 0 0 .1.1.1v.1l.1.1-.1.1c.1 0 .1.1.1.1v.1c.3.1.3.4.3.7h.3v.5c.1.3.4.5.5.8h.1c0 .1.1.1.1.3.1 0 0 .1.1.1.1.1.3.3.3.4.1 0 .1.3.4.3.1.1.3.4.4.5 0 .1.1.1.1.1.1 0 .1.3.3.3s0 .1.1 0c.1 0 .1.1.3.1h.1c0 .1.1.1.3.3.1 0 .1.1.1.1-.4.8-.2.8-.2.8zm-7.1-2.3h.1-.1zm.3 0c-.3.1 0 0 0 0zm0 .1c-.1 0 0 0 0 0z" class="st3"></path><path d="M337.6 94.9c-.1 0-.1-.1-.3-.1-.1-.1-.4-.1-.7-.3 0-.1-.1 0-.1-.1-.1-.1-.3-.1-.5-.3-.3 0-.3-.1-.4-.3 0 .1.1 0 .1.1l.1.1v.1h.1c.1.1.4.3.7.4.1 0 .3.1.4.1h.3c.3.3.5.3.9.5.4.1.7.4 1.1.3.1 0 .1.1.3.1.3 0 .5.1.8.1.3.1.5.1.9.1.3 0 .4.1.7.1.3.1.5-.1.8 0 .1.1.4-.1.5 0 .3.3.5.1.9 0 .3.1.5-.1.8.1.1-.1.3.1.4.1 0 .1.1-.1.1 0s0-.1.1-.1c0 0 0-.1 0 0s.1 0 .1.1v.1-.4s0-.1-.1-.1c0 .1 0 0 0 0 0-.1 0 .1 0 0h-.3s-.1 0 0 .1c0-.1-.1-.1-.1-.1 0-.1 0 .1-.1 0 0 .1-.1 0-.1.1h-.3c-.1.1-.1 0-.3.1 0 0-.1-.1-.1 0-.1 0-.1 0-.3.1 0-.1 0-.1-.1-.1 0 0-.1 0-.3.1-.3.1-.4 0-.7-.1 0 0-.1.1-.1.3 0 0-.1-.1-.1 0 0 0-.1-.1-.1 0 0 0 0-.1 0 0-.3-.1-.7 0-1.1 0h-.4c-.1 0-.1-.1-.1 0-.1 0-.4 0-.5-.1-.1.1-.3 0-.5 0s-.4-.1-.5-.1h-.3c-.1.1-.3-.3-.4-.1 0 0-.1 0-.1.1-.1.1-.1-.1-.3 0h-.1c0-.1-.3-.1-.3-.1h-.3c0-.8-.1-.8-.1-.9z" class="st3"></path><path d="M342.2 100.4c.1-.1 0 .1 0 0zm0 0s0 .1 0 0zm-2.3-.7c.1 0 .1.1.3.1.3.1.5.1.7.3 0 .1.1 0 .1.1.1 0 .4.1.5.1.1-.1.4 0 .5 0v-.1h-.1s0 .1 0 0h-.3c0-.1-.1 0-.1-.1-.3-.1-.5-.1-.8-.3-.1 0-.3-.1-.4-.1h-.3c-.3-.3-.5-.4-.8-.8-.3-.3-.4-.7-.8-.9-.1-.1-.1-.3-.1-.3-.3-.1-.3-.5-.5-.7-.1-.3-.3-.7-.4-.9s-.1-.5-.3-.8c0-.3-.3-.5-.3-.8.1-.3-.3-.4-.1-.5.1-.4 0-.7-.3-1.1 0-.3-.1-.7 0-.9-.1-.1.1-.3.1-.5.1 0-.1-.1 0-.1s-.1-.1-.1-.1-.1 0 0 0 0-.1.1-.1h.1v-.1h-.4s-.1 0-.1.1c.1 0 0 0 0 .1-.1 0 .1 0 0 0v.4s0 .1.1 0c-.1 0-.1.1-.1.1-.1 0 .1.1 0 .1.1 0 0 .1.1.1v.3c.1.1 0 .1.1.3 0 0-.1.1 0 .3 0 .1 0 .1.1.3-.1 0-.1.1-.1.1s.1.1.1.3v.1c.3.3.1.5.1.8h.3v.3s-.1 0 0 0l.4 1.2h.1c0 .1.1.1.1.3.1 0 0 .1.1.1.1.1.2.3.3.5.1.1.1.3.4.4.1.1.3.4.4.7 0 .1.1.1.1.3.1 0 .1.4.4.4.1 0 0 .1.1 0 .3 0 .1.3.3.3 0 0 .1 0 .1.1s.1.1.3.3c.1 0 .1.1.3.1-.6.2-.4.2-.3.2zm-6-3.6c-.1.1 0 0 0 0z" class="st3"></path><path d="M333.9 96.1c0 .1 0 0 0 0zm1.7 1.3c-.1 0-.1-.1-.1-.1-.1-.1-.3-.2-.5-.3 0-.1-.1 0-.1-.1-.1-.1-.3-.3-.4-.3s-.3-.1-.3-.3c0 0 .1 0 .1.1l.1.1v.1h.1c.1.1.3.4.5.5.1 0 .1.1.3.3 0 0 .1 0 .1.1h.1c.1.3.5.4.7.5.3.3.5.4.9.4.1 0 .1.1.3.1.3 0 .4.1.7.1.3.1.5.1.8.3.3 0 .4.3.7.3.3.1.5 0 .7.1.1.1.4-.1.4.1.3.3.5.1.8 0 .3.1.5-.1.8.1.1-.1.3.1.4.1 0 .1.1-.1.1 0s0-.1.1-.1c0 0 0-.1 0 0s.1 0 .1.1v.1-.5s0-.1-.1-.1c0 .1 0 0 0 0 0-.1 0 .1 0 0h-.3s-.1 0 0 .1c0-.1-.1-.1-.1-.1 0-.1 0 .1-.1 0 0 .1-.1 0-.1.1h-.3c0 .1-.1 0-.1.1 0 0-.1-.1-.1 0 0 0-.1 0-.1.1v-.1s-.1 0-.3.1v-.1c-.3.1-.4 0-.5-.1l-.1.1s0-.1-.1-.1c0 0 0-.1-.1 0 0 0 0-.1 0 0-.3-.1-.7 0-.9-.1h-.1c0-.1-.1 0-.3 0s0-.1-.1 0c-.1 0-.3 0-.4-.1-.1.1-.3-.1-.4 0-.3 0-.4-.1-.5-.3h-.1c-.1.1-.1-.3-.4-.1h-.1c-.1.1-.1-.1-.3-.1h-.1c0-.1-.1-.1-.3-.1s-.1-.1-.1-.1c-.8-.9-.9-.9-.9-.9zm5.2 5.2c.2-.2 0 .1 0 0z" class="st3"></path><path d="M340.8 102.6s0 .1 0 0zm-2.3-.6c.1 0 .1.1.3.1.3.1.4.1.7.3 0 .1.1 0 .1.1.1 0 .4.1.5.1.1-.1.4 0 .5 0v-.1h-.1s0 .1 0 0h-.3c0-.1-.1 0-.1-.1-.3-.1-.5-.1-.8-.3-.1.1-.3-.1-.4-.1h-.3c-.3-.3-.5-.4-.8-.7-.3-.3-.5-.5-.9-.7-.1 0-.1-.1-.3-.3-.3-.1-.4-.4-.7-.5-.1-.3-.4-.5-.7-.8-.1-.3-.1-.5-.4-.7 0-.3-.4-.4-.4-.7s-.3-.3-.3-.5c.1-.4-.1-.7-.4-.9 0-.3-.3-.5-.1-.9-.1-.1.1-.3 0-.4.1 0-.1-.1 0-.1s-.1 0-.1-.1c0 0-.1 0 0 0s0-.1.1-.1h.1s0-.1-.1 0h-.4s-.1 0-.1.1c.1 0 0 0 0 .1-.1 0 .1 0 0 0v.2s0 .1.1 0c-.1 0-.1.1-.1.1-.1.1.1 0 0 .1.1 0 0 .1.1.1v.3c.1 0 0 .1.1.3v.3c0 .1 0 .1.1.3-.1 0-.1.1-.1.1.1 0 .1.1.1.3v.1c.3.1.3.4.3.7h.3v.3c.1.4.4.7.7 1.1h.1c0 .1.1.1.1.3.1 0 0 .1.1.1.2.2.3.3.4.5.3 0 .3.3.4.3.3.1.3.4.4.5 0 .1.1.1.1.1.3 0 .1.3.4.3.1 0 0 .1.1 0 .1 0 .1.3.3.3h.1c0 .1.3.1.3.3.1 0 .1.1.3.1.6 0 .7 0 .7.1zm-4.6-7.5s0-.2 0 0zm.2-.7c.1-.3 0 0 0 0zM335.2 95.1c-.1 0-.1-.1-.3-.1-.1-.1-.4-.3-.7-.4 0-.1-.1 0-.1-.1-.1-.1-.3-.3-.5-.3h-.1l.1-.3c0-.1.3-.1.4-.1.1 0 .1 0 .3.1v-.1h-.1s0 .1 0 0c-.1 0-.3 0-.4.1h-.1l-.1.1.1.3v.1h.1c.1.3.4.4.7.5.1 0 .3.3.4.3 0 0 .1 0 .1.1h.1c.3.3.5.4.8.7.3.3.5.5 1.1.7.1 0 .1.1.3.1.3 0 .5.3.8.4.3.1.5.4.9.5.3.1.4.4.7.4.3.1.5.1.8.4.1.3.4 0 .5.3.1.4.5.4.9.4.3.3.7.1.8.5.1 0 .3.3.4.3 0 .1.1 0 .1.1s.1-.1.1 0v.1c-.1.1.1 0 0 .1v.1h.1c0-.1.1-.1.1-.1v-.3h-.1s-.1.1 0 0c-.1 0-.1-.1-.3-.1h-.1v.1c0-.1-.1.1-.1-.1 0 .1-.1-.1-.1 0-.1 0-.1-.1-.3-.1-.1 0-.1-.1-.3 0l-.1-.1c-.1 0-.1-.1-.3 0v-.1h-.3s-.1 0 0-.1c-.3 0-.5-.2-.7-.4l-.1.1s0-.1-.1-.1c0 0 0-.1-.1-.1-.3-.3-.8-.3-1.1-.5h-.1c0-.1-.1-.1-.3-.1-.1 0 0-.1-.1 0-.2 0-.4-.1-.5-.3-.3 0-.3-.1-.5-.1s-.4-.3-.5-.4c-.1 0-.1 0-.3-.1-.3 0-.3-.3-.4-.3 0 0-.1-.1-.1 0-.1.1-.1-.1-.3-.1h-.1c0-.1-.3-.1-.3-.3-.1 0-.1-.1-.3-.1-.3-1.4-.4-1.6-.4-1.6z" class="st3"></path><path d="M332.5 97.7s0-.1 0 0zm1.3 1.5c-.1 0 0-.1-.1-.1l-.4-.4c0-.1-.1-.1-.1-.1l-.4-.4c-.1 0-.3-.1-.3-.3 0 0 .1 0 .1.1l.1.1v.1h.1c.1.2.2.4.4.5.1 0 .1.3.3.3 0 0 .1 0 .1.1l.2.1c.1.3.4.5.5.8.3.3.4.5.7.7.1 0 .1.1.3.1.3.1.4.4.5.4.1.1.4.4.7.5s.3.4.5.4c.1.1.5.1.7.3s.4 0 .4.1c.1.3.5.3.8.3.3.1.5 0 .8.3.1 0 .3.1.4.1 0 .1.1-.1.1 0s.1-.1.1-.1 0-.1 0 0 .1 0 0 .1v.1-.5c0 .1 0 0 0 0 0-.1 0 .1 0 0h-.3s-.1 0 0 .1c0-.1-.1-.1-.1-.1 0-.1-.1.1-.1 0 0 .1-.1 0-.1.1-.1 0-.1-.1-.3-.1-.1.1-.1-.1-.3 0l-.1-.1h-.3v-.1h-.3v-.1c-.3.1-.4 0-.5-.3l-.1.1s0-.1-.1-.1c0 0 0-.1-.1 0-.3-.1-.7-.3-.9-.4h-.1c0-.1-.1-.1-.3-.1s0-.1-.1 0c-.1 0-.3-.1-.4-.3-.3 0-.3-.1-.4-.1-.3 0-.3-.3-.4-.4l-.1-.1c-.1 0-.1-.3-.3-.3s0-.1-.1 0c-.1 0 0-.1-.3-.1h-.1c0-.1-.1-.1-.3-.3-.1 0-.1-.1-.1-.1.2-.8.2-.8.1-.8zm-1.9-3.2v-.1.1zm.2-.2c-.2.2 0 0 0 0z" class="st3"></path><path d="M332.5 96.4c0-.1-.1-.1-.1-.3l-.1-.1c-.1 0-.1 0-.1-.1h-.1.1c-.1 0 0 0 0 0h.1c0 .1.1.1.1.1.1 0 0 .1 0 .1l.1.3c-.3.1-.1.1-.1.3s0 .3.1.3 0 .1.1.1c0 .1.1.1.1.3.1 0 0 .1 0 .1 0 .1.3 0 .1.1-.1.1.1 0 .1.1-.1.1 0 .1.1.1 0 .1.1.1.1.3.1 0-.1.1 0 .1-.1 0 .1 0 0 0 0 0 .1-.1.1 0l-.1.1h-.1c.1 0 .1-.1.1-.1s.1 0 .1-.1c0 0-.1 0 0 0h-.1c.1 0 .1-.1.1-.1.1-.1-.1 0 0 0h-.2s0-.1 0 0c.1-.1.1 0 .1-.1h-.1c-.1 0-.1 0-.1-.1 0 0-.1 0-.1.1 0-.1-.1-.1-.3-.3-.1 0 .1-.1-.1 0-.1 0-.1 0-.1-.1-.1 0 0-.1-.1 0-.1 0 0-.1-.1-.1s.1-.1-.1-.1h-.1c-.1 0 0-.1 0 0 .7-.8.6-.8.6-.9 0 .1.1.1 0 0z" class="st3"></path><path d="m352.6 94.7 27.7-3.6L413 45s13.1-22.8-8.8-39.7c-23.8-14.3-40.8 4.9-40.8 4.9l-15.3 20.7-17.8 25.3 6.3 28.5c4.1 10 16 10 16 10" class="st49"></path><path d="m352.7 76.5 20-27.6 24.2 17.4L379.2 91l-27.7 3.2 1.2-17.7z" class="st3"></path><path d="m348.8 31.7-17.7 24.7 5.8 27.3c3.6 10.1 15.3 10.4 15.3 10.4l.5-17.6 20-27.6-23.9-17.2z" class="st41"></path><path d="M352.7 76.5 336 79.2c.3 2.4 1.4 5.5 1.4 5.5l11.5-2.6.9 12c1.4.7 5.7-.3 5.7-.3l-2.8-17.3z" class="st50"></path><path d="m396.9 66.4 15.3-21.1s12.7-22.2-8.2-39.2l-31.1 43 24 17.3z" class="st41"></path><path d="m413 17.1-10.1 14.2-4.6-6.1 10.3-14.5s3 3.5 4.4 6.4zm1.3 3.2-9.7 13.6 3.9 5.5 7.4-10.4c-.1.1-.1-4.6-1.6-8.7zm-12.1 25c-8.8.5-10.9-6.2-10.9-6.2l.1-3.6c5.3 0 7.8 1.9 7.8 1.9 3.9 2.3 6.2 9.1 6.2 9.1l-3.2-1.2zm-53.4-13.6 15.1-21.1s16.9-19.2 39.9-4.7l-31.1 43-23.9-17.2z" class="st3"></path><path d="M367.2 20.2c2.3 8.5 9.3 8.5 9.3 8.5l3.4-1.4c-1.6-5-4.3-6.9-4.3-6.9-3.4-3-10.5-3.1-10.5-3.1l2.1 2.9z" class="st51"></path><path d="M390.4.9 380.3 15l7.3 2.3 10.3-14.5c-.1.1-4.7-1.7-7.5-1.9zm-12.1 1-7.6 10.5 6.5 1.9L387 .7c0-.1-4.4-.1-8.7 1.2z" class="st50"></path><path d="m184.5 304.7-27 3.8-19.6 23.1-15.7 20.1s-15 23.1 6.3 41.2c23.5 15.4 41.3-3.2 41.3-3.2l16.1-20.5 18.6-24.5-4.3-28.8c-3.5-10.7-15.7-11.2-15.7-11.2" class="st49"></path><path d="m185.9 320.7-23.5 29.9 23.4 18.1 18.4-24-4.7-28-13.6 4z" class="st3"></path><path d="m185.6 305.6-27.6 3.8-19.2 23 23.6 18.2 23.4-29.9 13.5-4.1c-3.3-10.2-13.7-11-13.7-11z" class="st41"></path><path d="m199.9 319.7-.4-2-12.2.9-2.4-12.8c-1.2-.1-2 .3-2 .3l2.8 14.7 14.2-1.1z" class="st50"></path><path d="M199.7 317.8s-.1-.7-.7-2l-9.9.7-1.9-10.5c-1.4-.3-2.3-.3-2.3-.3l2.4 13 12.4-.9z" class="st50"></path><path d="M199 315.7s-.3-.8-.9-1.9l-7.2.5-1.5-7.7-2-.7 1.9 10.5 9.7-.7z" class="st50"></path><path d="m185.5 368.8-15.9 20.4s-17.7 18.5-40 3.1l32.7-41.7 23.2 18.2z" class="st41"></path><path d="M138.9 332.4 123 352.9s-13.5 21.6 6.8 39.4l32.7-41.7-23.6-18.2z" class="st3"></path><path d="M305.8 361.5c-45.8-67.7-4.9-143.7-4.9-143.7C349.2 136.1 284.1 92 284.1 92s-19.2-12.8-29.3-27.4C244.2 78.5 225.5 92 225.5 92s-65.1 44.2-16.9 125.8c0 0 40.9 76.2-4.9 143.7 0 0 18.9 29.7 51.1 43.4 0 0 32.1-11.3 51-43.4z" class="st40"></path><path d="M301.8 362.5c-45.8-67.7-5.4-143.7-5.4-143.7 46.9-78.6-11.8-121.2-11.8-121.2s-24.7-17.7-29.9-27.2c-5.1 9.5-28.6 26.3-28.6 26.3s-61.9 43.5-13.1 122c0 0 40.5 75.8-5.3 143.5 0 0 16.6 25 47 39.2.1 0 27.1-8.5 47.1-38.9z" class="st41"></path><path d="M249.1 105.1h13.1v40.3h-13.1v-40.3z" class="st3"></path><path d="M268.3 102.4c0 4.2-5.7 6.8-12.7 6.8s-12.7-2.6-12.7-6.8c0-4.3 5.7-6.8 12.7-6.8 7-.1 12.7 2.5 12.7 6.8zm-21.2 52.7h16.3v201.6l-7.8 17.2-7.8-17-.7-201.8z" class="st53"></path><path d="m247.8 356.8 7.8-17 7.8 16.9m-7.8-16.9V160.1" style="fill:none;stroke:#fff;stroke-width:.331;stroke-miterlimit:10"></path><path d="m306.9 227.9 14-25.7s19.3 2.7 18.4 31.7c0 0 .7 13.5-9.1 12.3 0 0-13.5-22.3-32-18.4 0 0-19.7 9.2 1.1 48.4 0 0-4.3 3.4-29.6-4.6 0 0-4.7 18 8.6 25.8 20.8 1.5 24.5-2.8 24.5-2.8 1.8-2.7 5.3-2.3 5.3-2.3 2.4.9 7.4 2 7.4 2 7.7 1.1 9.5-3.9 9.5-3.9 1.2-5.4-2.3-8.4-2.3-8.4-2.7-3-6.8-3.4-6.8-3.4l-3.9-10.4c-3.9-8.1.4-10.8.4-10.8 6.8-1.9 7.4 7.6 7.4 7.6 1.1 10.5 6.9 15.5 6.9 15.5 8.1 8.5 16.1 2.4 16.1 2.4 30.1-17.3 29.6-56.9 29.6-56.9-4.9-53-52.4-48.4-52.4-48.4-8.9 0-6.1-8.5-6.1-8.5 2.3-6.9 3.9-2.8 3.9-2.8 4.9 16.3 24.5 10.1 24.5 10.1 13.5-6.2 9.7-18.1 9.7-18.1-2.3-17.3-22-18.8-22-18.8-4.3-1.6-4.3-10.9-4.3-10.9 8.6-48.2-28.4-65-28.4-65-6.5-3.1-2.4 2.4-2.4 2.4 24.7 31.6 8.5 60 8.5 60-2.4 4.3-2.3 11.3-2.3 11.3-.4 9.3 6.1 15.3 6.1 15.3s-12.4 14.5-.3 30.5c0 0-10.1 20-12 28.8 0 0-1.6 5.3-7.7 5.1 0 0-15.8 1.1-16.6-2 0 0-1.5-8-6.2-7.6l.1 9.2c-8.4 4.5-18.1-.5-18.1-.5v-7.8c-4.2.1-4.6 6.8-4.6 6.8-.8 3.1-16.6 2-16.6 2-6.1.3-7.7-5.1-7.7-5.1-1.9-8.8-12-28.8-12-28.8 12.3-16.1-.3-30.5-.3-30.5s6.5-5.9 6.1-15.3c0 0 .3-7.2-2.3-11.3 0 0-16.1-28.4 8.5-60 0 0 4.1-5.5-2.4-2.4 0 0-37.1 16.8-28.4 65 0 0 0 9.3-4.3 10.9 0 0-20.3 1.5-22.4 18.8 0 0-3.4 12 10.3 18.1 0 0 19.6 6.1 24.5-10.1 0 0 1.6-4.1 3.9 2.8 0 0 2.8 8.5-6.1 8.5 0 0-47.6-4.7-52.4 48.4 0 0-.7 39.6 29.6 56.9 0 0 8 6.1 16.1-2.4 0 0 5.8-4.9 6.9-15.5 0 0 .8-9.5 7.4-7.6 0 0 4.5 2.7.4 10.8l-3.9 10.4s-4.1.4-6.8 3.4c0 0-3.5 3-2.3 8.4 0 0 1.8 5 9.5 3.9 0 0 5-1.1 7.4-2 0 0 3.5-.4 5.3 2.3 0 0 3.6 4.2 24.5 2.8 13.4-7.8 8.6-25.8 8.6-25.8-25.4 8-29.6 4.6-29.6 4.6 20.8-39.2 1.1-48.4 1.1-48.4-18.6-3.9-32 18.4-32 18.4-9.7 1.2-9.1-12.3-9.1-12.3-.9-29 18.4-31.7 18.4-31.7l14 25.7" style="fill:#fff;stroke:#235b2f;stroke-width:.662;stroke-miterlimit:10"></path><path d="M298.3 227.9s-3.5 1.8-6.8 7l-5.9.3-18.1-.3c-10.9 4.7-23 0-23 0l-18 .3-5.7-.3s-5.1-6.8-6.9-7.2" class="st3"></path><path d="m221.8 280.9 16.8-2.4m-16.8 6.8h14.7m-14.7 5.9h16.8m51.8 0h-16.8m16.8-5.9h-14.7m14.7-4.4-16.8-2.4" style="fill:none;stroke:#235b2f;stroke-width:.331;stroke-miterlimit:10"></path><path d="M197.8 288c-.4 2.3-1.6 3.1-3.8 3.1-2 0-3.8-1.6-3.8-3.8 0-2 3.1-3.8 4.6-3.8 2.2.6 3 2.5 3 4.5z" class="st41"></path><circle cx="178.1" cy="160.1" r="14.7" class="st41"></circle><path d="M194.8 145.4s8.4-11.8 4.1-20.4c0 0-17.6-35.4 19.2-62.3m99.4 82.7s-8.4-11.8-4.1-20.4c0 0 17.6-35.4-19.2-62.3" style="fill:none;stroke:#235b2f;stroke-width:.662;stroke-miterlimit:10"></path><path d="M248.3 223.1s7.2 3.2 15.3 0m-15.3 5.1s7.2 3.2 15.3 0m-15.3 4.2s7.2 3.2 15.3 0" style="fill:none;stroke:#231b16;stroke-width:.331;stroke-miterlimit:10"></path><path d="M314.5 288c.4 2.3 1.6 3.1 3.8 3.1 2 0 3.8-1.6 3.8-3.8 0-2-3.1-3.8-4.6-3.8-2.3.6-3 2.5-3 4.5z" class="st41"></path><circle cx="334.2" cy="160.1" r="14.7" class="st41"></circle><path d="M281.1 288.2c0-14-11.5-25.5-25.5-25.5s-25.5 11.5-25.5 25.5 11.3 25.5 25.5 25.5 25.5-11.5 25.5-25.5z" class="st53"></path><path d="M255.6 308.7c-11.3 0-21.2-9.2-21.2-20.5s9.9-20.5 21.2-20.5v41z" style="fill:#fff;stroke:#fff;stroke-width:.331;stroke-miterlimit:10"></path><path d="M255.6 267.7c11.3 0 20 9.2 20 20.5s-8.5 20.5-19.9 20.5l-.1-41zm-8.5-112.6 8.5 9.2 7.8-9.2M231.1 134.2l17.8 10h5s1.5-3.9 3.4 0h4.6l17.8-10v11.2l-16.5 9.7h-16.3l-15.9-9.7v-11.2h.1z" class="st53"></path><ellipse cx="255.7" cy="149.6" class="st3" rx="1.4" ry="2.7"></ellipse><path d="M263.8 102.4c0 1.5-4.2 3.5-8.2 3.5s-8.2-1.8-8.2-3.5c0-1.8 4.2-3.5 8.2-3.5 4-.1 8.2 1.9 8.2 3.5z" class="st53"></path><path d="M259.8 102.4c0 .8-1.9 1.6-4.2 1.6s-4.2-.8-4.2-1.6c0-.9 1.9-1.6 4.2-1.6s4.2.7 4.2 1.6zM176.3 418.2c-.6-2.8-1-4.9-1-6.5 0-1.6.1-3.1.2-4.4h34.9c.2 1.9.2 3.2.2 3.9 0 1.7-.3 4.1-1 7-1.2.3-3.1.5-5.7.5l-1.4-6.1h-5.1c0 1.5-.2 11.8-.5 30.9l4.3.5c0 1.8-.5 3.6-1.4 5.2h-14.6l-.5-3.3c2.8-1 4.5-1.6 5.2-1.7 0-.2-.2-10.7-.7-31.6h-5.9l-1.3 5.9c-2.3.1-4.2-.1-5.7-.3zM231 424.6c-.1-.2-.5-.3-1.2-.3s-2 .5-3.7 1.6c-.2 7.8-.3 13.7-.3 17.6l4.7.6c0 1.7-.5 3.4-1.4 5.2h-14.9l-.5-3.3c2.5-.9 4.3-1.5 5.4-1.8l-.7-19.4c-2.1-.2-3.8-.5-5.2-.9l.4-4.3c1.1-.5 5-.8 11.7-1 .4.4.5 1.1.5 2.1 3.5-1.7 5.8-2.6 6.7-2.6.9 0 2.1.2 3.5.7 1.4.5 2.4 1 3.2 1.5v1c0 3.3-.4 6.3-1.2 9.1-.7.3-1.6.4-2.7.4s-2.2-.1-3.1-.2c-.3-.5-.6-2.5-1.2-6zM256.1 418.1c4.7 0 8.4 1.4 11.3 4.3 2.9 2.9 4.3 6.8 4.3 11.9 0 5.1-1.4 9-4.3 11.7-2.8 2.7-6.6 4-11.3 4-4.7 0-8.5-1.3-11.3-4-2.8-2.7-4.2-6.6-4.2-11.7s1.4-9.1 4.3-11.9c2.7-2.9 6.5-4.3 11.2-4.3zm0 4.8c-1.4 0-3.1.4-4.9 1.1-.5.8-1 2.2-1.5 4.2s-.7 4-.7 6.1c0 3.8.6 6.4 1.7 8 1.1 1.6 2.9 2.4 5.4 2.4 2.5 0 4.3-.8 5.4-2.4 1.1-1.6 1.7-4.3 1.7-8.2 0-3.9-.6-6.7-1.7-8.5-1.1-1.8-3-2.7-5.4-2.7zM291.6 450c-2.3 0-4.8-.8-7.3-2.3-.1 4.2-.1 7.4-.1 9.6l4.7.5c0 1.8-.5 3.5-1.4 5.2h-14.9l-.5-3.3c2.6-1 4.4-1.6 5.4-1.8l-1.1-33.3c-1.9-.2-3.5-.5-4.7-.9 0-1.5.1-2.9.4-4.3 1.7-.4 5.4-.7 11.2-1 .3.5.7 1.4 1.1 2.6 4.2-2 6.9-3.1 8.2-3.1 4 0 6.9 1.4 8.8 4.2 1.9 2.8 2.9 6.5 2.9 11.2s-1.1 8.6-3.2 11.8c-2.3 3.3-5.4 4.9-9.5 4.9zm-6.9-23.6-.2 15.2c.9.8 2 1.6 3.3 2.2 1.3.6 2.3.9 3.2.9 3.5 0 5.3-3.4 5.3-10.1 0-2.5-.3-4.5-.8-6.1-.5-1.5-1.1-2.6-1.7-3.2-.7-.6-1.4-.9-2.3-.9-1.9 0-4.1.7-6.8 2zM316.2 450c-3.4 0-6-.7-7.9-2.1s-2.8-3.8-2.8-7.1c0-3.2 1.1-5.7 3.3-7.7 1.3-1.2 3.1-1.8 5.3-2 2.3-.2 5.4-.3 9.4-.3v-1c0-2.4-.4-4.2-1.2-5.4-.8-1.1-2.2-1.7-4.1-1.7-1 0-1.9.2-2.7.6l-1.4 5.2-4.4-.1c-1-1.5-1.5-3.9-1.6-7.3.8-.4 2.7-1 5.6-1.8 3-.8 4.9-1.2 5.7-1.2 4.3 0 7.5.9 9.4 2.7 2 1.8 2.9 4.6 2.9 8.5 0 3.9-.2 9-.5 15.3 2.3.2 4 .5 5.3 1 0 .5.1 1.1.1 1.7l-.1 1.3c-2.9 1-5.8 1.4-8.7 1.4-.8 0-1.3 0-1.7-.1-.6-1.2-1-2.6-1.1-4.3h-.3c-.8.7-2.1 1.6-4 2.7-1.8 1.2-3.3 1.7-4.5 1.7zm-1.7-5.9c.8.6 1.7.9 2.8.9 1 0 2.3-.5 3.7-1.4 1.4-.9 2.6-1.8 3.5-2.5l-.3-5.5c-3.2.2-5.5.5-7.1.9-2.5.5-3.8 2.1-3.8 4.7-.1 1.3.3 2.3 1.2 2.9zM214.2 455.9l.1.6c0 1.6-.3 3-.8 4.2-.5.4-1.3.7-2.5 1l10 29.6 5.7.7c0 1.6-.5 3.4-1.4 5.2h-14.6l-.5-3.3c1.7-.6 2.8-1.1 3.3-1.3l-2.4-6.8h-13.5c-1.2 3.6-1.8 5.4-1.9 5.6l4.1.5c0 .8-.2 1.8-.5 2.9-.3 1.1-.6 1.9-.9 2.3h-14.6l-.5-3.3c1.8-.8 3.4-1.3 4.9-1.7l10.1-30.8c-2.7-.4-4.7-.9-6.1-1.6 0-1.2.2-2.2.5-3.1.8-.3 2.8-.6 5.9-1 3.1-.4 6.1-.6 8.9-.6 2.9.3 5.1.5 6.7.9zm-7.7 16.5-1.7-7.9h-.6l-1.9 8.3-2.8 7.5h10l-3-7.9zM239.4 453.4c.4 1.4.5 3.1.5 4.9 0 1.8-.8 3.9-2.3 6.1-1.6 2.2-3 3.8-4.4 4.6-1.4-.6-2.5-1.4-3.4-2.4.5-1.6 1.7-3.4 3.4-5.5l-1.5-.2c-.4-1.2-.5-2.5-.5-3.8 0-1.3.1-2.4.2-3.4 1.6-.4 2.9-.5 3.7-.5.8 0 2.3.1 4.3.2zM254.1 498c-3.4 0-6-.7-7.9-2.1s-2.8-3.8-2.8-7.1c0-3.2 1.1-5.7 3.3-7.7 1.3-1.2 3.1-1.8 5.3-2 2.3-.2 5.4-.3 9.4-.3v-1c0-2.4-.4-4.2-1.2-5.4-.8-1.1-2.2-1.7-4.1-1.7-1 0-1.9.2-2.7.6l-1.4 5.2-4.4-.1c-1-1.5-1.5-3.9-1.6-7.3.8-.4 2.7-1 5.6-1.8 3-.8 4.9-1.2 5.7-1.2 4.3 0 7.5.9 9.4 2.7 2 1.8 2.9 4.6 2.9 8.5 0 3.9-.2 9-.5 15.3 2.3.2 4 .5 5.3 1 0 .5.1 1.1.1 1.7l-.1 1.3c-2.9 1-5.8 1.4-8.7 1.4-.8 0-1.3 0-1.7-.1-.6-1.2-1-2.6-1.1-4.3h-.3c-.8.7-2.1 1.6-4 2.7-1.8 1.2-3.4 1.7-4.5 1.7zm-1.8-5.9c.8.6 1.7.9 2.8.9 1 0 2.3-.5 3.7-1.4 1.4-.9 2.6-1.8 3.5-2.5l-.3-5.5c-3.2.2-5.5.5-7.1.9-2.5.5-3.8 2.1-3.8 4.7 0 1.3.4 2.3 1.2 2.9z" class="st3"></path><path d="m282.4 498-1.3-.1c-.2-.4-.6-1.3-1-2.5s-.6-2.1-.7-2.7c-.2-4-.4-10.8-.7-20.6h-4.2l.2-3.4c.9-.6 2-1.2 3.3-1.7l4.9-7.7c1.6.2 2.8.6 3.7 1.3l-.1 5.7c2.5.1 4.9.3 7 .7 0 1.6-.5 3.3-1.5 5.2h-5.6c-.2 8.4-.3 14.7-.3 18.9 1.6.2 3.8.6 6.5 1.4l-.1 3.1c-.7.4-2.2 1-4.5 1.5-2.2.6-4.1.9-5.6.9zM307.3 498c-3.4 0-6-.7-7.9-2.1s-2.8-3.8-2.8-7.1c0-3.2 1.1-5.7 3.3-7.7 1.3-1.2 3.1-1.8 5.3-2 2.3-.2 5.4-.3 9.4-.3v-1c0-2.4-.4-4.2-1.2-5.4-.8-1.1-2.2-1.7-4.1-1.7-1 0-1.9.2-2.7.6l-1.4 5.2-4.4-.1c-1-1.5-1.5-3.9-1.6-7.3.8-.4 2.7-1 5.6-1.8 3-.8 4.9-1.2 5.7-1.2 4.3 0 7.5.9 9.4 2.7 2 1.8 2.9 4.6 2.9 8.5 0 3.9-.2 9-.5 15.3 2.3.2 4 .5 5.3 1 0 .5.1 1.1.1 1.7l-.1 1.3c-2.9 1-5.8 1.4-8.7 1.4-.8 0-1.3 0-1.7-.1-.6-1.2-1-2.6-1.1-4.3h-.3c-.8.7-2.1 1.6-4 2.7-1.8 1.2-3.3 1.7-4.5 1.7zm-1.8-5.9c.8.6 1.7.9 2.8.9 1 0 2.3-.5 3.7-1.4 1.4-.9 2.6-1.8 3.5-2.5l-.3-5.5c-3.2.2-5.5.5-7.1.9-2.5.5-3.8 2.1-3.8 4.7 0 1.3.4 2.3 1.2 2.9z" class="st3"></path></svg>