<svg xmlns="http://www.w3.org/2000/svg" xml:space="preserve" id="Capa_1" x="0" y="0" style="enable-background:new 0 0 512 512" viewBox="0 0 512 512"><style>.st3{fill:#fff}.st73{fill:#a1d7e4}.st74{fill:#008fcb}.st75{fill:#00b7dc}.st76{fill:#78cae1}.st77{fill:#bee2e7}.st78{fill:#39bdde}.st79{fill:#2f97ce}.st80{fill:#c6c6c6}.st81{fill:#eaae00}.st82{fill:#5bc3df}.st84{fill:#9d7250}.st86{fill:#9e7250}.st89{fill:#d58942}.st93{fill:#cf8540}.st94{fill:#d48841}.st96{fill:#d58841}.st99{fill:#cd8442}.st102{fill:#cf8440}.st104{fill:#cf8541}.st108{fill:#d38842}</style><path d="m145.1 420.8-1.9-.1-1.7-7.2c-2.3-.4-4.1-.6-5.2-.6-2.3 0-4.8.5-7.7 1.4-.8 1.6-1.5 3.6-2 6s-.7 4.7-.7 6.9c0 11 3.2 16.6 9.5 16.6 2.7 0 4.9-.4 6.5-1.2l1.3-7.3c2.5 0 4.4.1 5.8.4.6 4.4 1 7.9 1 10.6-1 .7-2.9 1.5-5.8 2.4-2.9.9-5.8 1.3-8.5 1.3-11.9 0-17.9-7.4-17.9-22.1 0-7 1.4-12.3 4.3-16 2.9-3.6 7.5-5.5 13.9-5.5 3.2 0 6 .5 8.4 1.4 2.2.8 4 1.7 5.5 2.6 0 2.7-.3 6-.9 9.8-1.2.5-2.5.6-3.9.6zM169.6 418.1c4.7 0 8.4 1.4 11.3 4.3 2.9 2.9 4.3 6.8 4.3 11.9 0 5.1-1.4 9-4.3 11.7-2.8 2.7-6.6 4-11.3 4-4.7 0-8.5-1.3-11.3-4-2.8-2.7-4.2-6.6-4.2-11.7s1.4-9.1 4.3-11.9c2.8-2.9 6.5-4.3 11.2-4.3zm0 4.8c-1.4 0-3.1.4-4.9 1.1-.5.8-1 2.2-1.5 4.2s-.7 4-.7 6.1c0 3.8.6 6.4 1.7 8 1.1 1.6 2.9 2.4 5.4 2.4 2.5 0 4.3-.8 5.4-2.4 1.1-1.6 1.7-4.3 1.7-8.2 0-3.9-.6-6.7-1.7-8.5-1.1-1.8-2.9-2.7-5.4-2.7zM228.3 431.9c-.1-2.8-.4-4.7-1-5.8-.6-1.1-1.9-1.6-4-1.6s-4 .4-5.7 1.3c0 5.1-.3 11-.8 17.7l4.7.5c0 1.6-.5 3.4-1.4 5.2h-14.9l-.5-3.3c2.1-.8 3.9-1.4 5.5-1.8l-.5-12.5c-.1-2.6-.4-4.4-.9-5.5-.5-1.1-1.6-1.7-3.1-1.7-.8 0-2 .1-3.5.4-1.5.3-2.7.6-3.5.9 0 .1-.2 6-.5 17.7l4.7.5c0 1.8-.5 3.5-1.4 5.2h-14.9l-.6-3.1c2.4-.9 4.2-1.5 5.4-1.8l-.8-19.4c-1.6-.2-3.2-.5-4.7-.9l.3-4.3c.7-.2 2.1-.4 4.4-.7 2.2-.3 3.9-.4 5.1-.4.2.1.5.5.9 1.1.4.6.7 1.1.9 1.5 1.4-.7 3-1.3 5-2 1.9-.6 3.1-1 3.6-1 4.2 0 7.3 1.1 9.3 3.3 1.5-.8 3.4-1.5 5.5-2.2 2.2-.7 3.5-1 4-1 3.8 0 6.6.9 8.5 2.7s2.8 4.8 2.8 9c0 2.3-.2 6.9-.5 13.7l4.7.5c0 1.8-.5 3.5-1.4 5.2h-14.9l-.5-3.3c1.9-.8 3.6-1.4 5.2-1.8 0-.9-.1-2.2-.1-3.9-.2-2.8-.3-5.6-.4-8.4zM260.9 450c-2.3 0-4.8-.8-7.3-2.3-.1 4.2-.1 7.4-.1 9.6l4.7.5c0 1.8-.5 3.5-1.4 5.2h-14.9l-.5-3.3c2.6-1 4.4-1.6 5.4-1.8l-1.1-33.3c-1.9-.2-3.5-.5-4.7-.9 0-1.5.1-2.9.4-4.3 1.7-.4 5.4-.7 11.2-1 .3.5.7 1.4 1.1 2.6 4.2-2 6.9-3.1 8.2-3.1 4 0 6.9 1.4 8.8 4.2 1.9 2.8 2.9 6.5 2.9 11.2s-1.1 8.6-3.2 11.8c-2.4 3.3-5.5 4.9-9.5 4.9zm-7-23.6-.2 15.2c.9.8 2 1.6 3.3 2.2 1.3.6 2.3.9 3.2.9 3.5 0 5.3-3.4 5.3-10.1 0-2.5-.2-4.5-.8-6.1-.5-1.5-1.1-2.6-1.7-3.2s-1.4-.9-2.3-.9c-1.8 0-4.1.7-6.8 2zM285.5 450c-3.4 0-6-.7-7.9-2.1s-2.8-3.8-2.8-7.1c0-3.2 1.1-5.7 3.3-7.7 1.3-1.2 3.1-1.8 5.3-2 2.3-.2 5.4-.3 9.4-.3v-1c0-2.4-.4-4.2-1.2-5.4-.8-1.1-2.2-1.7-4.1-1.7-1 0-1.9.2-2.7.6l-1.4 5.2-4.4-.1c-1-1.5-1.5-3.9-1.6-7.3.8-.4 2.7-1 5.6-1.8 3-.8 4.9-1.2 5.7-1.2 4.3 0 7.5.9 9.4 2.7 2 1.8 2.9 4.6 2.9 8.5 0 3.9-.2 9-.5 15.3 2.3.2 4 .5 5.3 1 0 .5.1 1.1.1 1.7l-.1 1.3c-2.9 1-5.8 1.4-8.7 1.4-.8 0-1.3 0-1.7-.1-.6-1.2-1-2.6-1.1-4.3h-.3c-.8.7-2.1 1.6-4 2.7-1.8 1.2-3.4 1.7-4.5 1.7zm-1.8-5.9c.8.6 1.7.9 2.8.9 1 0 2.3-.5 3.7-1.4 1.4-.9 2.6-1.8 3.5-2.5l-.3-5.5c-3.2.2-5.5.5-7.1.9-2.5.5-3.8 2.1-3.8 4.7 0 1.3.4 2.3 1.2 2.9zM335.2 421c1.8 2 2.7 4.7 2.7 8.2 0 3.5-.2 8.3-.6 14.3l4.7.5c0 1.6-.5 3.4-1.4 5.2h-14.9l-.5-3.3c1.9-.8 3.6-1.4 5.2-1.8-.1-4.6-.2-8.5-.4-11.6-.1-3.1-.4-5.3-.9-6.4-.5-1.1-1.5-1.7-3.2-1.7-2.5 0-4.7.4-6.7 1.3 0 1.7-.1 4.5-.3 8.4-.2 3.9-.3 7-.3 9.3l4.7.5c0 1.6-.5 3.4-1.4 5.2H307l-.5-3.3c2-.8 3.8-1.4 5.4-1.8 0-2.4-.2-5.7-.4-10s-.4-7.4-.4-9.4c-1.5-.2-3.1-.5-4.7-.9l.3-4.3c2.8-.8 6-1.1 9.5-1.1.4.3 1 1.1 1.8 2.6 1.4-.7 3-1.3 5-2 2-.6 3.2-1 3.6-1 3.9.2 6.8 1.2 8.6 3.1zm-21-5.6c-.8-1-1.4-2-1.9-3.2.7-1 2.5-2.6 5.5-4.8.8-.6 1.5-.8 2.2-.8.7 0 2 .4 3.8 1.2 1.8.8 3 1.3 3.7 1.4 3.5-1.7 5.3-2.5 5.3-2.6 1 1.4 1.6 2.4 2 3.2-1.1 1.6-3 3.3-5.6 5-.8.6-1.5.8-2.1.8-.9-.3-2.2-.8-3.7-1.4-1.6-.7-2.7-1.1-3.5-1.3-.6.4-1.5.8-2.8 1.3-1.4.5-2.3.9-2.9 1.2zM356 418.6c.8 0 1.2 0 1.4.1 0 2-.3 3.8-1 5.5-.2 8.6-.3 15.1-.3 19.4l4.7.5c0 1.6-.5 3.4-1.4 5.2h-14.9l-.5-3.3c2.5-.9 4.3-1.5 5.4-1.8l-.7-19.4c-2.4-.2-4.1-.5-5.2-.9 0-1 .1-2.4.4-4.3 2.3-.7 6.4-1 12.1-1zm-9.1-6.3 9.5-7.9c2.4 1.9 3.6 3.6 3.8 5.2-1 1-2.4 2-3.9 3.1-1.6 1.1-3.5 2.2-5.6 3.3-1.4-.9-2.6-2.1-3.8-3.7zM373.3 450c-3.4 0-6-.7-7.9-2.1s-2.8-3.8-2.8-7.1c0-3.2 1.1-5.7 3.3-7.7 1.3-1.2 3.1-1.8 5.3-2 2.3-.2 5.4-.3 9.4-.3v-1c0-2.4-.4-4.2-1.2-5.4-.8-1.1-2.2-1.7-4.1-1.7-1 0-1.9.2-2.7.6l-1.4 5.2-4.4-.1c-1-1.5-1.5-3.9-1.6-7.3.8-.4 2.7-1 5.6-1.8 3-.8 4.9-1.2 5.7-1.2 4.3 0 7.5.9 9.4 2.7 2 1.8 2.9 4.6 2.9 8.5 0 3.9-.2 9-.5 15.3 2.3.2 4 .5 5.3 1 0 .5.1 1.1.1 1.7l-.1 1.3c-2.9 1-5.8 1.4-8.7 1.4-.8 0-1.3 0-1.7-.1-.6-1.2-1-2.6-1.1-4.3h-.3c-.8.7-2.1 1.6-4 2.7-1.8 1.2-3.4 1.7-4.5 1.7zm-1.8-5.9c.8.6 1.7.9 2.8.9 1 0 2.3-.5 3.7-1.4 1.4-.9 2.6-1.8 3.5-2.5l-.3-5.5c-3.2.2-5.5.5-7.1.9-2.5.5-3.8 2.1-3.8 4.7 0 1.3.4 2.3 1.2 2.9zM60.4 455.3c5.1 0 8.9.9 11.3 2.6 2.5 1.8 3.7 5 3.7 9.6 0 3.9-1.2 7.1-3.6 9.7s-6.2 3.9-11.5 3.9c-1.7 0-3.1 0-4.1-.1l-.1 10.6 4.4.5c0 1.8-.5 3.5-1.4 5.2H44.3l-.5-3.3c2.1-.8 3.8-1.4 5-1.7 0-.1-.2-10.7-.5-31.7-.6-.2-2.3-.7-5-1.6l.5-3.7h16.6zm4.9 17.9c1.5-1.4 2.2-3.3 2.2-5.6s-.7-3.9-1.9-4.9c-1.3-1-3.3-1.5-6.1-1.5-1.1 0-2.1 0-3.1.1-.1 6.3-.1 11-.1 14.2l2.8-.1c2.6-.1 4.7-.8 6.2-2.2zM93.6 466.1c4.7 0 8.4 1.4 11.3 4.3 2.9 2.9 4.3 6.8 4.3 11.9 0 5.1-1.4 9-4.3 11.7-2.8 2.7-6.6 4-11.3 4-4.7 0-8.5-1.3-11.3-4-2.8-2.7-4.2-6.6-4.2-11.7s1.4-9.1 4.3-11.9c2.8-2.9 6.5-4.3 11.2-4.3zm-9.7-2.7c-.8-1-1.4-2.1-1.9-3.2.7-1 2.5-2.6 5.5-4.8.8-.6 1.5-.8 2.2-.8.7 0 2 .4 3.8 1.2 1.8.8 3 1.3 3.7 1.4 3.5-1.7 5.3-2.5 5.3-2.6 1 1.4 1.6 2.4 2 3.2-1.1 1.6-3 3.3-5.6 5-.8.6-1.5.8-2.1.8-.9-.3-2.2-.8-3.7-1.4-1.6-.7-2.7-1.1-3.5-1.3-.6.4-1.5.8-2.8 1.3-1.4.5-2.3.9-2.9 1.2zm9.7 7.5c-1.4 0-3.1.4-4.9 1.1-.5.8-1 2.2-1.5 4.2s-.7 4-.7 6.1c0 3.8.6 6.4 1.7 8 1.1 1.6 2.9 2.4 5.4 2.4 2.5 0 4.3-.8 5.4-2.4 1.1-1.6 1.7-4.3 1.7-8.2 0-3.9-.6-6.7-1.7-8.5-1.1-1.8-2.9-2.7-5.4-2.7zM166.4 460.6l-.2 36.7h-7.7L138.7 465c-.2 11.7-.3 20.6-.3 26.5l4.1.5c0 1.6-.5 3.4-1.4 5.2h-14.6l-.5-3.3c2.2-.9 3.9-1.5 5-1.7 0-.1-.2-10.7-.5-31.7l-5-1.6.5-3.7h15.6l17.5 31.3-.9-26.1-5-1.6.5-3.7h15.6v.1c.1.1.1.2.2.5l.3.9c.2.6.4 1.7.5 3.2-1.9.5-3.3.7-3.9.8zM201.4 466.6c.8 0 1.2 0 1.4.1 0 2-.3 3.8-1 5.3-.2 8.8-.4 15.3-.6 19.5 1.8.2 3.4.5 4.7.9l-.1 4.2c-2.4.8-4.5 1.1-6.3 1.1-1.8 0-3 0-3.6-.1-.5-1-.9-1.9-1.2-2.9-3.3 2.2-5.7 3.4-7.2 3.4-7.2 0-10.7-3.6-10.7-10.9 0-2 .2-6.8.5-14.5-2.1 0-4.1-.3-5.8-.8 0-1 .1-2.4.4-4.3 2.4-.6 6.4-1 12.1-1 .8 0 1.2 0 1.4.1 0 2-.3 3.8-1 5.5v12.1c0 2.6.3 4.4.8 5.6s1.7 1.8 3.5 1.8 3.6-.6 5.5-1.9l-.4-17c-1.8-.1-3.4-.4-5-.8 0-1 .1-2.4.4-4.3 2.5-.8 6.5-1.1 12.2-1.1zM220.9 466.6c.8 0 1.2 0 1.4.1 0 2-.3 3.8-1 5.5-.2 8.6-.3 15.1-.3 19.4l4.7.5c0 1.6-.5 3.4-1.4 5.2h-14.9l-.5-3.3c2.5-.9 4.3-1.5 5.4-1.8l-.7-19.4c-2.4-.2-4.1-.5-5.2-.9 0-1 .1-2.4.4-4.3 2.4-.7 6.4-1 12.1-1zm0-11.4c.4 1.8.5 3.2.5 4.1 0 .9-.1 2-.2 3.2-1.6.4-3 .5-4 .5-1.1 0-2.4-.1-4-.2-.4-1.8-.5-3.2-.5-4.1 0-.9.1-2 .2-3.2 1.6-.4 2.9-.5 4-.5s2.5.1 4 .2z" class="st3"></path><path d="M263 486.1c.7-2.5 3.4-11 8-25.5l-5.3-1.6.5-3.7h15.5c.7 1.4 1.1 3 1.1 4.7l-3.7.5-11.9 36.7h-8l-12.9-36.7-5.3-1.6.5-3.7H257c.7 1.4 1.1 3 1.1 4.7-1.7.3-2.9.5-3.5.5l8.4 25.7zM294.3 498c-3.4 0-6-.7-7.9-2.1s-2.8-3.8-2.8-7.1c0-3.2 1.1-5.7 3.3-7.7 1.3-1.2 3.1-1.8 5.3-2 2.3-.2 5.4-.3 9.4-.3v-1c0-2.4-.4-4.2-1.2-5.4-.8-1.1-2.2-1.7-4.1-1.7-1 0-1.9.2-2.7.6l-1.4 5.2-4.4-.1c-1-1.5-1.5-3.9-1.6-7.3.8-.4 2.7-1 5.6-1.8 3-.8 4.9-1.2 5.7-1.2 4.3 0 7.5.9 9.4 2.7 2 1.8 2.9 4.6 2.9 8.5 0 3.9-.2 9-.5 15.3 2.3.2 4 .5 5.3 1 0 .5.1 1.1.1 1.7l-.1 1.3c-2.9 1-5.8 1.4-8.7 1.4-.8 0-1.3 0-1.7-.1-.6-1.2-1-2.6-1.1-4.3h-.3c-.8.7-2.1 1.6-4 2.7-1.8 1.2-3.3 1.7-4.5 1.7zm-1.8-5.9c.8.6 1.7.9 2.8.9 1 0 2.3-.5 3.7-1.4 1.4-.9 2.6-1.8 3.5-2.5l-.3-5.5c-3.2.2-5.5.5-7.1.9-2.5.5-3.8 2.1-3.8 4.7 0 1.3.4 2.3 1.2 2.9zM327.8 466.6c.8 0 1.2 0 1.4.1 0 2-.3 3.8-1 5.5-.2 8.6-.3 15.1-.3 19.4l4.7.5c0 1.6-.5 3.4-1.4 5.2h-14.9l-.5-3.3c2.5-.9 4.3-1.5 5.4-1.8l-.7-19.4c-2.4-.2-4.1-.5-5.2-.9 0-1 .1-2.4.4-4.3 2.4-.7 6.4-1 12.1-1zm0-11.4c.4 1.8.5 3.2.5 4.1 0 .9-.1 2-.2 3.2-1.6.4-3 .5-4 .5-1.1 0-2.4-.1-4-.2-.4-1.8-.5-3.2-.5-4.1 0-.9.1-2 .2-3.2 1.6-.4 2.9-.5 4-.5 1.2 0 2.5.1 4 .2zM345.8 486.9l-.1 4.6 4.7.5c0 1.6-.5 3.4-1.4 5.2h-14.9l-.5-3.3c2.5-.9 4.3-1.5 5.4-1.8l-1.1-33.3c-1.9-.2-3.5-.5-4.7-.9 0-1.5.1-2.9.4-4.3 2.4-.6 6.4-1 12.1-1 .8 0 1.2 0 1.4.1 0 2.1-.3 3.9-.8 5.5-.2 9.6-.4 16.7-.4 21.4l7.1-7.1-3.7-.5c0-1.6.5-3.4 1.4-5.2h14.9l.5 3.3c-2.5.9-4.3 1.5-5.4 1.8l-6.6 6.6 8.4 13 4.7.5c0 1.6-.5 3.4-1.4 5.2h-7.7l-8.9-13.9-3.4 3.6zM380.6 498c-3.4 0-6-.7-7.9-2.1s-2.8-3.8-2.8-7.1c0-3.2 1.1-5.7 3.3-7.7 1.3-1.2 3.1-1.8 5.3-2 2.3-.2 5.4-.3 9.4-.3v-1c0-2.4-.4-4.2-1.2-5.4-.8-1.1-2.2-1.7-4.1-1.7-1 0-1.9.2-2.7.6l-1.4 5.2-4.4-.1c-1-1.5-1.5-3.9-1.6-7.3.8-.4 2.7-1 5.6-1.8 3-.8 4.9-1.2 5.7-1.2 4.3 0 7.5.9 9.4 2.7 2 1.8 2.9 4.6 2.9 8.5 0 3.9-.2 9-.5 15.3 2.3.2 4 .5 5.3 1 0 .5.1 1.1.1 1.7l-.1 1.3c-2.9 1-5.8 1.4-8.7 1.4-.8 0-1.3 0-1.7-.1-.6-1.2-1-2.6-1.1-4.3h-.3c-.8.7-2.1 1.6-4 2.7-1.8 1.2-3.4 1.7-4.5 1.7zm-1.8-5.9c.8.6 1.7.9 2.8.9 1 0 2.3-.5 3.7-1.4 1.4-.9 2.6-1.8 3.5-2.5l-.3-5.5c-3.2.2-5.5.5-7.1.9-2.5.5-3.8 2.1-3.8 4.7 0 1.3.4 2.3 1.2 2.9zM418 488.3l2.2-8.9 3.2-7.7c-1.4-.2-3-.8-5-1.6l.5-3.3h14.9c.9 1.8 1.4 3.6 1.4 5.2-1.6.2-3.1.4-4.7.5-.8 2.7-2.4 6.8-4.7 12.4-2.3 5.6-3.9 9.7-4.7 12.4h-7.7l-9.5-24.7-4.7-.5c0-1.6.5-3.4 1.4-5.2h14.9l.5 3.3c-1.6.8-3 1.3-4.1 1.6l2.9 7.6 2.1 9h1.1zM448.3 498c-3.4 0-6-.7-7.9-2.1s-2.8-3.8-2.8-7.1c0-3.2 1.1-5.7 3.3-7.7 1.3-1.2 3.1-1.8 5.3-2 2.3-.2 5.4-.3 9.4-.3v-1c0-2.4-.4-4.2-1.2-5.4-.8-1.1-2.2-1.7-4.1-1.7-1 0-1.9.2-2.7.6l-1.4 5.2-4.4-.1c-1-1.5-1.5-3.9-1.6-7.3.8-.4 2.7-1 5.6-1.8 3-.8 4.9-1.2 5.7-1.2 4.3 0 7.5.9 9.4 2.7 2 1.8 2.9 4.6 2.9 8.5 0 3.9-.2 9-.5 15.3 2.3.2 4 .5 5.3 1 0 .5.1 1.1.1 1.7l-.1 1.3c-2.9 1-5.8 1.4-8.7 1.4-.8 0-1.3 0-1.7-.1-.6-1.2-1-2.6-1.1-4.3h-.3c-.8.7-2.1 1.6-4 2.7-1.8 1.2-3.3 1.7-4.5 1.7zm-1.7-5.9c.8.6 1.7.9 2.8.9 1 0 2.3-.5 3.7-1.4 1.4-.9 2.6-1.8 3.5-2.5l-.3-5.5c-3.2.2-5.5.5-7.1.9-2.5.5-3.8 2.1-3.8 4.7-.1 1.3.3 2.3 1.2 2.9z" class="st3"></path><path d="M158.3 195.6c-2.1 5.3-6.5 6.5-10.4 5.7-1.9 2.9-2 5.7 1.7 11.6 3.7 5.8 5.3 12.5 6 16 .2.8 0 1.6-.5 2.3 0 .1 0 .2-.1.3-.2.8-.7 1.4-1.4 1.7-.2.1-.4.1-.6.2-.1.1-.3.2-.5.3-.6.2-1.3.2-1.8 0-.1-.1-.2-.1-.3-.2-.1-.1-12.3-8-24.5-16.1-4.7-3.1-7.5-6.6-9.2-10l-1.4-3.8c-1.1-4.6-.4-8.7.7-11.1.6-1.4 2.6-5.7 7.3-7.3 1.5-.7 3.1-1 4.9-.9 1.7.1 3.4.4 5 1.1 1.6.7 3 1.6 4.1 2.8.4-.6.9-1.1 1.4-1.6 4.7-5 10.6-5 13.4-3.7 6.1 2.3 8.4 7.1 6.2 12.7zM262.3 406.8c-24.5-.2-48.5-5.7-61-9.1-8.5 1.3-16.6 3.7-20.6 5.1-.3.1-.7.2-1 .2-.9 0-1.8-.5-2.4-1.3 0 0 0-.1-.1-.1-.5-.4-1-.9-1.2-1.6-.4-1.2 0-2.6 1.1-3.4 12.7-9.3 24.7-10.4 30-10.6-.5-4.7 1.4-8.5 5.5-10.5 1.8-.9 3.6-1.3 5.3-1.3 2.5 0 4.8 1.1 6.4 3 1.2 1 2.1 2.4 2.5 3.8.2.6 2.2 6.7-1.1 11.2-.5.7-1.1 1.3-1.8 1.9 8.3.9 16 1.6 23.1 1.9 18.6-1.3 22.8-5.3 23.7-6.5-.1-.5-.3-1-.3-1.5-7.2 3.4-14.8 5.6-20.3 6.9-.2.1-.5.1-.7.1-.3 0-.6 0-.8-.1h-.1c-.2.1-.5.1-.7.1-1.4 0-2.5-1-2.8-2.3-.3-1.3.4-2.7 1.7-3.2 27.6-12.3 34.3-22.3 35.8-26-1.9-1-4.1-2.8-5-6-7 10.3-12.1 21.2-12.1 21.3-.4.9-1.3 1.4-2.2 1.4-.2 0-.4 0-.7-.1-.1 0-.1 0-.2-.1-.3.1-.5.1-.8.1-.2 0-.4 0-.7-.1-1.1-.3-1.8-1.5-1.7-2.6.1-.5 2-12.6 12.9-29.4.1-.8.1-1.7.2-2.7.7-8.4-1.2-15.5-2.5-19.1-1.2.5-2.5.8-3.8.8-2.9 0-5.6-1.4-6.7-2.7-1.5-1.8-3.6-5.8-2.4-10.4-1 .3-2 .4-3.2.4-1.6 0-3.2-.3-4.9-.9-7.4-2.6-8.9-10.4-8.6-14.3 0-1.3.6-11.1 12.1-21.1 6.6-5.6 10-9.6 11.7-12 .5-.7 1.4-1.2 2.2-1.1.9 0 1.7.4 2.2 1.2.5.7.6 1.7.3 2.5-1.7 4.6-4.7 10.5-8.1 15.8-2.5 3.9-3.2 7.8-3.3 10.9 1.9.9 4.4 2.6 5.6 5.2.6 1.2 1.1 3.1.7 5.4 1.1-.5 2.3-.7 3.6-.7 2.2 0 3.9.7 4.3.9.3.1 1.1.5 2.1 1.2-.9-1.5-1.5-3-1.7-4.2-.9-5.7 1.2-15.3 10.6-17.1 1-.2 2-.3 2.9-.3h1.6c3.9 0 7.4 1.6 10.3 4.6 3.5 3.7 5.5 9.2 5.3 14.6-.2 5.4-1.9 23.3-14.5 39.3h.8c4.8 0 8.2 2.4 9.5 6.6 1.7 5.7-1.6 16.2-12.5 26.7.3.2.6.4.7.5.2.2.9.7 1.6 1.5 1.2 1.1 3.2 3.4 3.3 6.8.1 2.6-1 5.3-3.1 8 9.2-2.1 12.1-4.9 13.1-6.2-2.6-4.4-2.5-9.5.2-13.8 1.4-2.3 4.7-4.6 8.8-4.6 2 0 4 .5 6 1.6 1.5.8 2.8 1.8 4 3.1 4.3 4 6.5 10.9 2.1 17.6-3.4 5.1-14.9 13.7-54 15-2-.2-4.1-.2-6.2-.2z" class="st73"></path><path d="M277.9 311.9c1.7 2.8 3.2 6.8 3.5 12.5.1 2.4.1 4.9 0 7.4 3.2-8.5 2.5-14.8 2-17.4-2.1-.5-3.9-1.4-5.5-2.5zM191.7 384.4c-.5.2-1.1.1-1.7 0-3.6-1-12.3-2.4-29.3-.6-25.6 2.7-35.8-.6-45.6-4.8-13-5.6-13.7-14.3-12.9-18.9.2-1.4.7-2.8 1.5-4 1.4-2.8 3.9-4.8 7-5.7.2 0 .3-.1.5-.1-16.3-20.3-8.3-32.5-7.4-33.8.4-.7 3.3-4.6 8.4-6 .1 0 .2-.1.4-.1.1 0 .3-.1.4-.1 2.6-.7 5.4-.6 8.2.2 3.6 1.1 6.3 3.4 7.9 6.8 2.4 4.8 1.7 10.3 1.1 12.1-1.1 3-3.7 4.9-5.6 6 1.3 4.4 6.2 17.7 12.2 24.5 1.7 1.9 4 3.8 6.8 5.7-5-9.5-1.9-16.2 2.5-19 1.1-.7 2.3-1.3 3.5-1.6 3.4-.9 7-.2 10 2 4.5 3.3 5 8.4 3.9 11-.7 1.8-1.9 3.8-5.6 4.8l-1.5.3c.3 2.1 1 5.5 2.8 9.1 12.1.5 27.2 2 32.1 4.7.7.4 1.3.7 1.8 1.1 1 .7 1.5 1.9 1.2 3.1-.1.6-.3 1.1-.7 1.5-.1.2-.1.4-.2.5-.2.6-.9 1.1-1.7 1.3z" class="st73"></path><path d="M125.6 365.4c.4.7 2.3 2.9 6.4 4.5-2.1-1.6-4.3-3.3-6.4-5.2-.1.3 0 .5 0 .7zM81.7 350.5c-4.4 1.5-8.1-1.2-8.5-1.5-.1-.1-.2-.2-.3-.2-.6-.6-3.3-3.6-2.7-7.4.4-2.6 2.2-4.7 5.3-6.4.5-.2.9-.4 1.4-.6 6.6-2.3 14.3 2.9 18.2 6.2.8.6 1.1 1.6.9 2.6-.2 1-.9 1.8-1.8 2.1-.6.2-1.3.2-1.9 0-1.7-.6-3.8-.9-5.4-1.1 0 1.6-.6 3.2-2.5 4.8-.7.6-1.7 1.1-2.7 1.5zM208.7 323c-4.2.8-8.7-.2-12.1-2.6-2.2-1.4-3.9-3.2-5-5.5-.4-.8-.7-1.7-.9-2.6-1.6 1-3.3 1.8-4.9 2.5-2 2.4-6.9 7.2-15.3 8.9-3 .6-6.2.7-9.5.5-17.7-1.5-23.1-17.8-23.5-19.1-.2-.6-2.2-7.2 1.6-12.3 1.3-2.1 3.2-3.7 5.7-4.8 1-.4 2.1-.7 3.1-.9 2.9-.6 5.6-.1 7.9 1.2 1.6-2.3 3.6-4 5.8-5.2-1.7-.4-3.5-.8-5.6-1-11.3-1.1-15.3-8.3-15.8-12.1-.8-2.9-.5-8.9 5.8-12.2 1.2-.6 2.3-1 3.5-1.2 5.7-1.1 9.3 2.7 10.5 4.8 2.5 4.7 1 8.6-.1 10.4.3.5 1.1 1.4 3 2 5.1 1.6 11.3 5.7 13.7 11.3 2.9 2.8 4.3 7.1 4.9 9.6.5 0 1.1-.1 1.8-.2 3.5-.7 9-3.2 15.5-11 11.9-14.4 32.2-27.9 46.3-30.6.5-.1.9-.2 1.4-.2 1.2-.2 2.4.6 2.6 1.8 0 .2.1.3.1.5 0 .1.1.2.1.3.3 1.2-.4 2.4-1.5 2.8 0 0-1.3.4-3.4 1.6-.2.1-.3.3-.5.4-6.6 3.8-17.8 12.7-19.5 29.7-2.5 24.9-4.3 27.2-10.5 31.4l-.2.2c-1.6.7-3.2 1.3-5 1.6zM96.9 313.4c-1 .1-1.9-.3-2.6-1.1-1-1.3-1.9-2.7-2.9-4.1l-.5-.5c-7.3-10.6-25.5-39-37-75.2-12-38.1-2.7-64.7 1.2-73.4-5.8-1.8-10.9-7.1-10.3-17.6 0-.1 0-.3.1-.4.8-4.2 5.1-11.7 16-12.8.3 0 .6-.1.9-.1.3 0 .5-.1.8-.1.8-.1 1.6-.1 2.4-.1 5.5-.1 10 1.9 12.9 5.7 4.4 5.6 4.8 14.2 3.2 20.2-.5 1.9-1.6 4.8-3.1 8.3-5 12.5-13.3 33.3-11.2 54 .9 8.6 4 20.8 9.3 36.1 1.3-20.1 8.1-38.1 10.8-44.7-3.7-1.4-9.4-5.1-8.2-14.9.6-5.2 4.8-11.6 14.4-12.6 1.1-.1 2.2-.1 3.4-.1 6.1.2 9.3 3.2 11 5.7 3 4.5 3.4 11.1.9 17.5-1.1 3-2.4 5.5-3.9 8.3-3.3 6.4-7.8 15.1-14.2 36.6-3.9 13-3.8 27 .3 41.4 2.8 6.4 5.1 11.7 6.7 15.1.3.6.3 1.3.2 2 .5.9.9 1.8 1.4 2.6.5.8.5 1.8.1 2.7-.3.9-1.1 1.4-2.1 1.5z" class="st73"></path><path d="M105.1 237.6c-1.1.1-2.2-.6-2.5-1.7-.3-1.2-3.3-11.8-.3-17.3 1.6-2.9 4.1-4.7 7-5 2.5-.2 5 .6 7.1 2.4 4.1 3.5 5.1 8.2 2.5 11.8-1.4 1.9-3.1 3-5.2 3.2-1.7.2-3.5-.2-5.7-1.2-.5.9-.8 3.3-.8 5.4 0 1.2-.8 2.2-2 2.4h-.1zM127.5 180.6c-1.7.7-3.8 1-6.1.9-.4 0-.8-.1-1.2-.2-4.5-.8-9.5-4.4-9.9-10.3-.1-1.7 0-3.3.3-4.7.6-3.5 2.3-6.4 5.5-8.9s7.3-3.5 11.7-2.7c2.1.4 4.4 1.2 6.6 2.4.2.1.3.2.5.3-.3-1.3-.4-2.6-.1-3.9.3-2.2 1.4-4.2 3.2-5.5 2.2-1.7 5-2.3 8-1.7 3.2.6 6.5 2.5 10 5.6 2.3 2.1 4 4.1 5.2 5.8.9-1.4 2.1-2.8 3.9-4.1 4.4-3.4 12-4.7 19.7-3.2 4.9.9 9.2 2.7 12.6 5.3 6.6 5 15.6 15.1 19.4 19.5 3.4 2.2 6.8 3.6 11 4.4 1.3.2 2.7.4 4.2.5h.3c1.2.2 2.1 1 2.4 2.2.2.6.1 1.2 0 1.8 0 .4-.1.8-.3 1.2-.4.8-1.1 1.4-2 1.6-2.8.7-7.1 1.3-11.5.5-1.8-.3-3.5-.9-5.1-1.6-3.4-1.6-5.5-3-7.1-4.1-2.4-1.6-4-2.7-8.3-3.6-1.3 2.9-3.9 5.3-8.3 4.5-.2 0-.4-.1-.6-.1-5.8-1.4-8.6-5.4-7.7-10.6 0-.1 0-.2.1-.3 0-.2 0-.3.1-.5.3-1.5 1.3-3.6 3.4-5.2-.5-.1-.9-.2-1.4-.3-3.1-.6-5.6-.3-7 0-.5 3.1-1.6 6.1-5.1 7.9-1.6.8-3.8 1-6.1.6-2.7-.5-5.1-1.8-6.5-3.5-.7-.9-1.3-1.9-1.6-3.1l-.1-.1c-.9-1.1-1.8-2.1-2.6-2.9v.1c0 .7-.3 1.4-1 1.9-.3.2-7.2 5.3-17.3 3.4-.2 0-.4-.1-.5-.1-.4-.1-.8-.2-1.1-.2-1.7-.3-3-.5-4.1-.5.4 1.3.5 2.7.2 4.2-.1.4-.1.8-.2 1.2-.4 1.5-1.1 2.8-2 3.9-.2-.2-1.3 1-3.5 2.2zM133.3 204.4c.1.2.2.4.4.6 0-.2-.1-.5-.1-.7-.1 0-.2 0-.3.1z" class="st73"></path><path d="M151.6 160.8c-.3.4-.6.8-1 1.2.9-.1 1.8-.2 2.7-.4-.7-.3-1.2-.6-1.7-.8zM268.7 244.7c-.8.1-1.5-.1-2.1-.6-2.4-1.9-5.8-5.2-8.2-10.6-1.7-2.8-2.9-5.9-3.7-9.1-1.2-5-2.1-7.8-2.8-9.4-.7.3-1.5.6-2.4.7-1.8.3-3.8.1-5.9-.7-3.3-1.1-5.5-3.9-6-7.4-.5-3.7 1.2-7.5 4.2-9.5 1.5-1 3.1-1.6 4.7-1.9 2.9-.4 5.8.3 8.2 2.1-.1-1.2-.2-2.1-.3-2.8-7.1.5-10.6-3.5-11.5-7.7-.8-3.7 0-7.1 2.3-9.9 1.9-2.8 4.5-4.2 5-4.4.4-.2 1.6-.8 3.4-1.1 2.8-.4 8.1-.2 12.1 6.2 4.8 7.6 3.5 14.8 1.3 28-.5 2.7-1 5.8-1.5 9.2-1.9 12.2 2.7 19.8 5.6 23.3.6.8.8 1.8.5 2.7-.2.4-.4.8-.8 1.1-.4 1.1-1.2 1.7-2.1 1.8zM229.3 177.5h-.4c-.1 0-.2.1-.4.1h-.3c-1.1.1-2.1-.7-2.2-1.8 0-.1-1.6-10.5-9.6-17.1-5.5-4.5-8.5-5.1-12.3-5.9-1.5-.3-3.2-.6-5.1-1.2-7.9-2.4-11.3-10.6-9.4-16.8.9-3.1 2.9-5.4 5.6-6.6-2.9-4.9-2.7-8.8-2.2-11.7.8-4.4 3.9-7.5 8.5-8.4 1.7-.3 3.5-.3 5 0 3.2.8 6.8 3.9 7.3 9.1.3 2.9-.9 4.9-2.4 6.1 13.1 14.9 15.9 30.6 16.4 37.2 3.2 8.3 3.1 14.6 3.1 14.9.1 1-.6 1.9-1.6 2.1z" class="st73"></path><path d="M191 129.8c-.6.1-1.2 0-1.7-.4-.4-.3-.8-.7-1.2-1-.1 0-.2.1-.3.1h-.1c-1 .2-2-.4-2.4-1.4-.2-.6-.4-1.1-.6-1.7-.3.4-.8.7-1.2.8-.4.1-.7 0-1.1-.1-.7-.3-7.2-2.6-10.3-6.3-1.9-2.3-2.6-4.3-2.1-6.2.3-1.3 1.2-2.3 2.5-2.8.2-.1.5-.2.7-.2.5-.1 1-.1 1.5-.1-2.4-5.4-3.5-10.6-3.9-14.7-1.1-9.7.9-17.9 3.3-21.6 1.6-2.5 3.9-4.1 6.6-4.6 3.4-.7 6.3.5 6.6.6h.1c.2.1 1.3.6 2.5 1.7 9.1-11.9 21.7-16.6 30.9-18.4.3 0 .5-.1.8-.1.2 0 .4-.1.7-.1 3.2-.6 6.5-1 9.7-1.1 7.7-.3 14.1 1.4 18.7 4.8 3.9 2.9 6.4 7.2 6.8 11.6.7 7.6-4.6 12.8-9.9 13.8-.2 0-.4.1-.6.1h-.2c-.3.1-.5.1-.8.2-.2 0-.3.1-.5.1-3.2.4-6.2-.2-8.2-1.8-1.8-1.4-2.9-3.4-3.2-5.9-.5-3.8 1.6-6.4 3.4-7.9-2.9-2.2-6.7-3-10.1-3.1 1.9 2 2.5 4.5 2.5 6.1.2 2.8-1.5 8.4-8.9 9.9-.2 0-.5.1-.7.1-.2.1-.5.1-.8.2-.5.1-.9.2-1.4.2-2.8.3-5.2-.3-7-1.8-1.8-1.4-2.8-3.4-3.3-5.1-7.9 4.8-13.2 13.2-15.8 24.9-2.2 10.3-1.7 20.5-1.3 24.8 1.1 2.1 1.9 3.3 1.9 3.3.6.9.4 2-.4 2.7-.5.2-.8.4-1.2.4zM93.1 117.2c-1 .1-1.9-.3-2.5-1.1-.6-.7-.8-1.7-.5-2.6 3.5-12.3 14.4-43.3 40.3-66 2.8-2.5 5.7-4.7 8.5-6.8-.4-.3-.8-.7-1-1.2-.5-1-.3-2.2.5-3 3.4-3.5 5-5.8 5.7-8.2.3-1 .4-2.6.5-4.2.2-2.7.4-5.2 1.4-6.9 1-1.8 2.8-3 4.9-3.2 1.8-.1 3.4.5 4.6 1.8 1.2 1.3 2.4 3.7 1.6 8.2-.5 3-2.4 5.9-4.9 8.5 14.8-7.6 27.9-9.9 35.9-10.5 2.1-.2 3.8-.2 5.2-.2-.9-4.3.3-8 3.4-10.5 2.1-1.7 4.7-2.7 7.3-2.9 3.3-.2 6.6.9 9.4 3.3 3.3 2.8 5 7 4.6 11.4-.4 4-2.7 7.5-6.2 9.3-2.9 1.5-5.1 2.3-8.6 3-2.2.5-4.8 1-7.5 1.2-2.4.3-5.3.7-8.8 1.2-3.1.4-6.8.9-11 1.5-11.9 1.7-22.8 8-30.9 14 4-1.5 7.6-2.4 10.9-2.7 14.3-1.1 16.9 10.2 17 10.3.4 1.6.5 5.5-1.3 8.9-.1.1-.1.3-.2.5-.2.3-.4.6-.7 1-1.8 2.4-4.6 3.9-8.1 4.3-.4.1-.9.1-1.3.2-6 .4-9.6-2.8-11.2-6.4-.3.1-.5.1-.8.2-4.1.9-12.3 3.4-21.7 9.5-8.5 5.7-15.5 13-20.8 19.8 1.1-.6 2.3-.9 3.4-1 3.7-.3 6.3 2.2 7.2 3.7.2.3 1.9 3.1 1.3 6.2-.4 1.8-1.5 3.2-3.2 4.3-1.1.7-2.3 1.1-3.6 1.2-2.8.2-4.8-1.3-5.9-2.3-.6.2-1.8.9-3.6 2.3-.5.4-1.1.7-1.8.7-1.1.1-2.1-.4-2.8-1.3-.1-.2-.2-.4-.3-.5-.7 1.2-1.3 2.3-1.8 3.2-.8 1.2-1.6 1.7-2.6 1.8z" class="st73"></path><path d="M246.2 94.5c-1.5.3-3 0-4.5-.8-.1-.1-.3-.2-.4-.3-1.9-1.6-3.1-4.6-1.4-7.6 1-1.7 2.4-2.3 3.3-2.5 1.5-.3 3 .2 4.2 1.2.1-.2.2-.3.3-.5.4-.7 1-1.2 1.8-1.4.8-.2 1.6.1 2.2.6.6.5.9 1.3.9 2-.1 2.4-.6 4.3-1.5 5.6-1.3 2-3.1 3.3-4.9 3.7z" class="st73"></path><path d="M247.6 391.6c-.6.3-.3 1.1.3 1 7.6-1.8 21.8-6 30.9-13.5 13-10.6 17.3-22.2 15.7-27.7-1.9-6.4-9.5-4.7-9.5-4.7s-6.4 1-5.6 8.4c.6 5.9 5.9 6.7 5.9 6.7s-.1 13-37.7 29.8z" class="st74"></path><path d="M249.3 391.6c-.6.3-.3 1.1.3 1 7.6-1.8 21.8-6 30.9-13.5 13-10.6 17.3-22.2 15.7-27.7-1.9-6.4-9.5-4.7-9.5-4.7s-6.4 1-5.6 8.4c.6 5.9 5.9 6.7 5.9 6.7s-.1 13.1-37.7 29.8z" class="st75"></path><path d="M265.9 385.7c-.3.1-.5-.3-.2-.5 7.8-4.5 13.8-9.1 17.8-13.6 5-5.6 5.2-9.2 5.2-9.6v-1.2c0-.1-.1-.2-.2-.3l-1.1-.2c-.4-.1-4.1-.9-4.5-5.3-.6-5.8 4-6.6 4.2-6.6h.1s.8-.2 1.9-.2c3 0 5 1.3 5.7 3.7 1.2 4.2-1.8 15-15.2 26-4 3.1-8.9 5.7-13.7 7.8z" class="st76"></path><path d="M288 357.2c-1 1.3-3 1-3.8-.4-.4-.8-.7-1.8-.8-3.1-.3-5.2 6.3-4.7 7.5-4s3.3 2.1 2.4 5.6c-.7 2.8-4 .2-5.3 1.9z" class="st73"></path><path d="M286.3 356.2c-.2 0-.3-.1-.4-.2-.3-.6-.5-1.4-.6-2.3-.1-1.1.3-1.5.5-1.6.5-.5 1.5-.8 2.8-.8.8 0 1.4.2 1.5.2 1.2.7 2.1 1.4 1.5 3.4H290.8c-.3 0-.7-.1-1-.1-1.4 0-2.4.4-3.2 1.4-.1-.1-.2 0-.3 0z" class="st77"></path><path d="M93.4 114.6c6.3-11.5 25.8-41.9 57.5-47.5.3 0 .6.1.6.4.5 1.7 2.7 7.2 10.5 6.1 9.2-1.2 8.8-10 8.4-11.9-.4-1.8-6.2-18.7-37.7.7-.6.3-1.2-.4-.7-.9 6.7-6.7 23.6-21.5 43.4-24.3 25.8-3.6 29-3.5 35.1-6.7 6.1-3.2 6.8-12.2 1.2-16.8-5.2-4.4-10.6-2.8-13.7-.3-2.9 2.3-3.6 5.9-1.9 10.3.1.4-.2.8-.5.7-5.3-.3-34.5-.6-63.6 24.9-25.5 22.4-36.2 53.1-39.6 64.8-.2.7.6 1 1 .5z" class="st78"></path><path d="M99.6 100.4c5.8-14.3 16.3-34 33.9-49.4 21.8-19.1 43.7-23.4 54.8-24.2 4.9-.4 7.8-.1 7.9-.1h.4c.7 0 1.3-.4 1.7-.9.5-.7.6-1.5.3-2.3-1.6-3.8-1.3-6.6.9-8.4.8-.6 2.5-1.7 4.7-1.9 2.1-.2 4.2.6 6.1 2.2 2.1 1.8 3.2 4.5 2.9 7.3-.3 2.5-1.6 4.6-3.7 5.7-4.7 2.5-7.5 2.9-23.3 5-3.2.4-6.8.9-11.1 1.5-26.3 3.7-47.1 27.4-48 28.4-.8.9-3.3 4.3-2.5 5.1 1.2 1.3 24.7-12.4 31.5-12.9 10.3-.8 12 6.6 12 6.7.2.7.4 3.9-1.2 6.3-1.1 1.6-2.8 2.5-5.2 2.8-.3 0-.5.1-.8.1-6.1.5-8.3-3.8-8.4-4.3-.2-1.2-.1-2.5-1.3-2.4h-.2c-16.7 2.8-32.7 12.9-46.3 29.2-1.9 2.3-3.6 4.4-5.1 6.5z" class="st76"></path><path d="M108.6 92.6c-.6.7-1.8-.2-1.2-.9 5.6-7.5 17.9-19.1 44.8-29.6 1.6-.6-1.3 2.3 2.5 7.1 2.6 3.2 9.1 2.6 13.3-.7.7-.5 1.6.3 1.1 1-1.1 1.8-3.2 3.6-7.2 4.3-7.6 1.2-9.9-4.1-10.5-6-.1-.4-.5-.6-.9-.5-3.9.5-24.4 5-41.9 25.3zM126.6 63.9s11.7-17.2 37.3-27.7c19.7-8.2 33.8-6.8 41.8-7.6 3.3-.3 5.5-1.6 7.1-3 .8-.8 2.1.4 1.4 1.3-2.1 3-7.1 6.4-18.9 7.6-30.5 3.3-46.2 5.4-68.7 29.4z" class="st79"></path><path d="M140.1 38.2c-.3.3.1.8.4.6 4.4-2.7 13.1-8.9 14.2-15 1.4-8.2-4.9-8.7-6.7-5.3-1.2 2.3-.9 7.7-1.7 10.6-.8 2.6-2.4 5.2-6.2 9.1z" class="st78"></path><path d="M147.3 30.9c.2-.5.4-1 .5-1.5.4-1.4.5-3.1.7-4.9.2-2 .4-4.3.9-5.3.3-.6 1-1 1.6-1.1.4 0 .9 0 1.4.5.8.9 1 2.6.6 4.8-.4 2.5-2.5 5.2-5.1 7.6-.3.4-.7.3-.6-.1z" class="st76"></path><path d="M283.5 77.3s39.1-22.1 54 3.5c19.3 33.4-14.9 78.8-16.5 82.6 0 0 60-56 26-93.7-31.2-34.4-63.5 7.6-63.5 7.6zM336.3 163.8s63.1-39.3 84.9 4c15 29.9-21.6 59-21.6 59s22.7-30.4 9-54.2c-17.5-30.5-72.3-8.8-72.3-8.8zM342.4 203.4l4.7 12.1 13 .1-10 8.2 3.8 12.3-10.8-6.9-10.6 7.5 3.3-12.6-10.4-7.7 12.9-.7zM308.4 272.6s32.7 42.1 72.3 26.9c25.7-9.9 9.5-55.2 9.5-55.2s33 47.3-3.8 65.7c-36.2 18-78-37.4-78-37.4z" class="st80"></path><ellipse cx="302.4" cy="11.7" class="st80" rx="1.6" ry="1.8" transform="matrix(.0216 -.9998 .9998 .0216 284.22 313.813)"></ellipse><ellipse cx="284.7" cy="9.1" class="st80" rx="1.1" ry="1.3" transform="matrix(.0216 -.9998 .9998 .0216 269.46 293.557)"></ellipse><path d="M466.9 198.9c-2.2-54.8-25.6-105.4-65.8-142.6-23.6-21.8-49.6-37.7-79.1-46.6-1.3.2-2.1.4-2.6 1.1-.7.8-1.1 2.5.2 3.9 1 1.1 2.7.8 3.3 0s.4-2.1-.7-2.1c-.8 0-.2.3-.2.3.8.5.5 1.3-.3 1.4-.8.1-1.5-.4-1.6-1.3-.3-1.5 1.4-2.1 3-1.8 1.4.3 3.1 2.1 2.6 3.9-.7 2.8-4.1 1.8-4.1 1.8-6.9-2.2-13.7-8-14.7-8.8-1.1-.8-.8-1 .9-1.5.6-.2.6-.4.5-.7-2.7-.6-5.4-1.1-8.1-1.6-.4.6-.1 1.2.2 1.7.4.8-5.6 1.3-6.6 1.5-1 .2-3.8-1.7-4.8-2.4s-1.2-1.3-.3-1.7c.3-.1.4-.4.4-.7-2.4-.3-4.9-.5-7.4-.7-.2.5-.2 1 .4 1.2 1.3.5-.9 1-4.4 2.3S274 7.3 269.4 7c-2.9-.2-3.2-1.6-3.1-2.4.1-.8 1-1.4 1.9-1.2.9.2 1.7 1 1 1.4-.7.4-1.3-.6-1.3-.6-.1 1 .5 1.6 1.5 1.6s1.4-1.1.7-2.1c-.5-.7-1.7-1.5-2.7-2.1-4.5 0-9.1.1-13.8.3-3.8.2-7.4.6-9.2 1.2-.6.2-.5 1.1.1 1.2 1.9.3 5.5.8 9.2 1.2 2 .2 3.9.4 5.7.7-.1-.3-.1-.6-.1-.9 0-1.3 1-2.4 2.2-2.4 1.2 0 2.1 1.1 2.1 2.5 0 .5-.1.9-.4 1.3 5.2.7 10 1.5 14.6 2.3v-.1c-.5-1-1.4-1.5 1-2.4 2.4-.8 5.9-2.3 6.6-2.1.7.2 5.4 3.4 6.1 4 .7.7 1.5 1.9.4 2.1-.7.1-1 .3-1 .6.7.1 1.4.2 2.1.4.7.1 1.3.2 2 .3-.1-.3-.3-.8-.8-1.3-1.1-1 .2-1.8 2-2.3 1.9-.4 5.5-1.6 7.2-1.3 1.7.3 5.9 4.4 6.6 5.3.6.8.8 1.9-.4 2.6 32.1 7.9 61.7 23 86.7 46 39 36 61.6 85 63.7 138.1 2.4 61-23 118.4-67.4 157.3.5.7 1.1 1.5 1.8 1.7.9.2 1.9-3.1 2.1-3.3.4-.5 2.5 1.2 2 2.4-.3.8-2.9 3.7-3.6 3.9-.5.1-2.6-2.4-3.6-3.6l-5.4 4.5c.5.4 1.3 1.5 1.8 1.8.6.4 2.9-3.5 3.2-3.7.3-.2 1.7 1.2 1.5 2-.3.8-4.3 4.5-4.9 4.7-.6.1-2.8-2.6-3.5-3.3-1.8 1.4-3.4 3.1-5.3 4.5 0 0 1.1 1.5 1.6 1.9.6.4 2.8-3.3 3.2-3.5.3-.2 1.7 1.2 1.4 2.1-.3.8-4.6 4.1-5.2 4.2-.6.1-2.7-2.5-3.3-3.4-1.7 1.2-3.1 2.6-4.8 3.7 0 0 .8 1.5 1.4 1.8.6.4 2.4-2.2 2.8-2.3.3-.2 1.6 1.1 1.3 1.9-.3.8-3.4 2.5-4.1 2.6-.6.1-2.6-2.2-3.2-2.8l-4 3.5c.5.5.6 1.1 1.1 1.4.6.4 2.4-2 2.7-2.2s1.5.7 1.2 1.6c-.3.8-3.4 2.5-4.1 2.6-.6.1-1.9-1.6-2.5-2.3 0 0-4.3 4.8-15 12.7 0 0-.6.5-.7.8-.1.5.5.4.5.4 75.1-35.1 121.2-111.2 117.9-193.6z" class="st80"></path><circle cx="261.7" cy="5.5" r=".8" class="st80"></circle><path d="M267.2 209s-.5-89.6 2.6-98.8c0 0 3 64.2 6.4 83.6 0 0-5.8 7.3-9 15.2z" class="st80"></path><path d="M281.8 75.7s39.1-22.1 54 3.5c19.3 33.4-14.9 78.8-16.5 82.6 0 0 60-56 26-93.7-31.2-34.5-63.5 7.6-63.5 7.6zM334.7 162.1s63.1-39.3 84.9 4c15 29.9-21.6 59-21.6 59s22.7-30.4 9-54.2c-17.6-30.5-72.3-8.8-72.3-8.8zM340.8 201.8l4.7 12 12.9.1-10 8.2 3.9 12.4-10.9-7-10.5 7.5 3.2-12.5-10.4-7.7 12.9-.8zM306.7 270.9s32.7 42.1 72.3 26.9c25.7-9.9 9.5-55.2 9.5-55.2s33 47.3-3.8 65.7c-36.1 18-78-37.4-78-37.4z" class="st81"></path><ellipse cx="300.8" cy="10" class="st81" rx="1.6" ry="1.8" transform="matrix(.0216 -.9998 .9998 .0216 284.256 310.52)"></ellipse><ellipse cx="283" cy="7.4" class="st81" rx="1.1" ry="1.3" transform="matrix(.0216 -.9998 .9998 .0216 269.495 290.264)"></ellipse><path d="M465.3 197.2c-2.2-54.8-25.6-105.4-65.8-142.6-23.6-21.7-49.7-37.7-79.2-46.6-1.3.2-2.1.4-2.6 1.1-.7.8-1.1 2.5.2 3.9 1 1.1 2.7.8 3.3 0s.4-2.1-.7-2.1c-.8 0-.2.3-.2.3.8.5.5 1.3-.3 1.4-.8.1-1.5-.4-1.6-1.3-.3-1.5 1.4-2.1 3-1.8 1.4.3 3.1 2.1 2.6 3.9-.7 2.8-4.1 1.8-4.1 1.8-6.9-2.2-13.7-8-14.7-8.8-1.1-.8-.8-1 .9-1.5.6-.2.6-.4.5-.7-2.7-.6-5.4-1.1-8.1-1.6-.4.6-.1 1.2.2 1.7.4.8-5.6 1.3-6.6 1.5s-3.8-1.7-4.8-2.4-1.2-1.3-.3-1.7c.3-.1.4-.4.4-.7-2.4-.3-4.9-.5-7.4-.7-.2.5-.2 1 .4 1.2 1.3.5-.9 1-4.4 2.3s-3.7 1.6-8.2 1.2c-2.9-.2-3.2-1.6-3.1-2.4.1-.8 1-1.4 1.9-1.2.9.2 1.7 1 1 1.4-.7.4-1.3-.6-1.3-.6-.1 1 .5 1.6 1.5 1.6s1.4-1.1.7-2.1c-.5-.7-1.7-1.5-2.7-2.1-4.5 0-9.1.1-13.8.3-3.8.2-7.4.6-9.2 1.2-.6.2-.5 1.1.1 1.2 1.9.3 5.5.8 9.2 1.2 2 .2 3.9.4 5.7.7-.1-.3-.1-.6-.1-.9 0-1.3 1-2.4 2.2-2.4 1.2 0 2.1 1.1 2.1 2.5 0 .5-.1.9-.4 1.3 5.2.7 10 1.5 14.6 2.3v-.1c-.5-1-1.4-1.5 1-2.4 2.4-.8 5.9-2.3 6.6-2.1.7.2 5.4 3.4 6.1 4 .7.7 1.5 1.9.4 2.1-.7.1-1 .3-1 .6.7.1 1.4.2 2.1.4.7.1 1.3.2 2 .3-.1-.3-.3-.8-.8-1.3-1.1-1 .2-1.8 2-2.3 1.9-.4 5.5-1.6 7.2-1.3 1.7.3 5.9 4.4 6.6 5.3.6.8.8 1.9-.4 2.6 32.1 7.9 61.7 23 86.7 46 39 36 61.6 85 63.7 138.1 2.4 61-23 118.4-67.4 157.3.5.7 1.1 1.5 1.8 1.7.9.2 1.9-3.1 2.1-3.3.4-.5 2.5 1.2 2 2.4-.3.8-2.9 3.7-3.6 3.9-.5.1-2.6-2.4-3.6-3.6l-5.4 4.5c.5.4 1.3 1.5 1.8 1.8.6.4 2.9-3.5 3.2-3.7.3-.2 1.7 1.2 1.5 2-.3.8-4.3 4.5-4.9 4.7-.6.1-2.8-2.6-3.5-3.3-1.8 1.4-3.4 3.1-5.3 4.5 0 0 1.1 1.5 1.6 1.9.6.4 2.8-3.3 3.2-3.5.3-.2 1.7 1.2 1.4 2.1-.3.8-4.6 4.1-5.2 4.2-.6.1-2.7-2.5-3.3-3.4-1.7 1.2-3.1 2.6-4.8 3.7 0 0 .8 1.5 1.4 1.8.6.4 2.4-2.2 2.8-2.3.3-.2 1.6 1.1 1.3 1.9-.3.8-3.4 2.5-4.1 2.6-.6.1-2.6-2.2-3.2-2.8l-4 3.5c.5.5.6 1.1 1.1 1.4.6.4 2.4-2 2.7-2.2s1.5.7 1.2 1.6c-.3.8-3.4 2.5-4.1 2.6-.6.1-1.9-1.6-2.5-2.3 0 0-4.3 4.8-15 12.7 0 0-.6.5-.7.8-.1.5.5.4.5.4 75.1-34.8 121.1-110.8 117.9-193.3z" class="st81"></path><circle cx="260" cy="3.8" r=".8" class="st81"></circle><path d="M247.1 398.4s28.7 3.6 37.3-5c8.5-8.5.9-13.7.9-13.7s-3.7-2.8-7.5-.9-6.5 5.3-4.6 10.8c0 0-.5 7.1-26.1 8.8z" class="st73"></path><path d="M247.9 399.2s28.7 3.6 37.3-5c8.5-8.5.9-13.7.9-13.7s-3.7-2.8-7.5-.9-6.5 5.3-4.6 10.8c.1.1-.5 7.1-26.1 8.8z" class="st75"></path><path d="M268.1 398.1c-.5 0-.7-.7-.2-.9 6.9-2.6 7.7-5.8 7.8-6.6v-.3l-.1-.3c-1.3-3.9-.1-6.8 3.8-8.8.7-.3 1.4-.5 2.2-.5 2 0 3.6 1.2 3.6 1.2l.1.1s2.2 1.5 2.4 4c.2 2.2-1 4.6-3.6 7.1-2.7 2.7-8.2 4.4-16 5z" class="st82"></path><path d="M178.6 398.5c-.6.4-.1 1.4.6 1.1 6.6-2.2 20.8-6.4 33.2-6 16.1.5 11.4-12.8 11.4-12.8-.7-2.3-4.1-6.2-10.1-3.2-6.3 3.1-3.7 10.2-3.7 10.5 0 .7-15.1-1.5-31.4 10.4z" class="st79"></path><path d="M179.4 399.4c-.6.4-.1 1.4.6 1.1 6.6-2.2 20.8-6.4 33.2-6 16.1.5 11.4-12.8 11.4-12.8-.7-2.3-4.1-6.2-10.1-3.2-6.3 3.1-3.7 10.2-3.7 10.5 0 .6-15.1-1.6-31.4 10.4z" class="st75"></path><path d="M186.4 396.8c10.5-5.7 19.6-5.9 23-6 1.4 0 3-.1 3-1.8 0-.2 0-.4-.1-.7-1.1-4.1-.1-6.9 2.9-8.4 1.2-.6 2.4-.9 3.4-.9 2.8 0 4.1 2.3 4.3 3.1.1.2 1.6 4.7-.6 7.7-1.4 2-4.3 3-8.5 3h-2c-8.7 0-18.2 2-25.4 4z" class="st76"></path><path d="M275 353.5s3.9-13.5 3.2-28.1c-.7-13.4-8.4-16.3-8.4-16.3s-6.3-3-9.8 3.3c-2.5 4.4-.4 8.8 1 10.5 1.2 1.4 6.3 3.5 9.9-.2 0 0 4.9 9.9 3.8 23s.3 7.8.3 7.8z" class="st73"></path><path d="M275.8 352.6s3.9-13.5 3.2-28.1c-.7-13.4-8.4-16.3-8.4-16.3s-6.3-3-9.8 3.3c-2.5 4.4-.4 8.8 1 10.5 1.2 1.4 6.3 3.5 9.9-.2 0 0 4.9 9.9 3.8 23s.3 7.8.3 7.8z" class="st75"></path><path d="M276.8 330c-1.2-5.5-2.9-9-3-9.3-.7-1.4-2.1-1.2-3.2-.1 0 0-1.1 1.6-4.4 1.9-1.6.1-3.1-1.9-3.4-2.2-.9-1-2.7-4.4-.7-7.8 1.1-1.9 3.3-2.7 5.2-2.7 1.3 0 2.4.5 2.4.5l.2.1c.2.1 6.4 2.7 6.9 14.3v5.3z" class="st76"></path><path d="M265.9 267.4c.2-.3.8-.1.6.3-1.5 4-4.3 9.7-7.9 15.3-3.2 5.1-3.7 10-3.7 13.5 0 .2.1.3.3.3 1.2.3 8.6 3.3 5.5 10.5-1.9 4.5-6.4 5.4-11.2 3.7-7.8-2.7-7-11.9-7-11.9s-.2-9.5 11.3-19.4c6.7-5.6 10.3-9.7 12.1-12.3z" class="st75"></path><path d="M253.7 309.7c-1 0-2.2-.2-3.4-.7-6-2.1-5.5-9.5-5.5-9.6v-.2c0-.3.1-8.7 10.5-17.6 1.1-1 2.2-1.9 3.2-2.8l-1.8 3c-3.6 5.6-4 11.1-4.1 14.8 0 1.2.8 2.3 2 2.6.6.2 3.2 1.3 4.2 3.3.6 1.2.5 2.5-.2 4.1-.9 2.1-2.5 3.1-4.9 3.1z" class="st76"></path><path d="M153 377.9h-.1s-13.3-2.7-33.3-23c-23.4-23.8-12.9-37.3-12.9-37.3s4.9-7.7 14-4.9 8.4 13.6 7.5 15.8c-1.1 3.1-4.5 4.8-6 5.6-.4.2 5.4 18.6 13.1 27.3 6.4 7.1 18.7 12.5 25.1 14.9 1 .4.7 1.8-.3 1.8-2.5.1-5.3.2-7.1-.2z" class="st73"></path><path d="M152.2 378.1h-.1s-13.3-2.7-33.3-23c-23.4-23.8-12.9-37.3-12.9-37.3s4.9-7.7 14-4.9 8.4 13.6 7.5 15.8c-1.1 3.1-4.5 4.8-6 5.6-.4.2 5.4 18.6 13.1 27.3 6.4 7.1 18.7 12.5 25.1 14.9 1 .4.7 1.8-.3 1.8-2.5.2-5.3.2-7.1-.2z" class="st78"></path><path d="M133.4 364.9c-3.8-2.9-8.1-7.1-12.7-11.7-21.2-21.5-13.1-33.2-12.7-33.7l.1-.2s2-3 5.4-3.9c1.7-.5 3.5-.4 5.3.2 2.3.7 3.8 2 4.9 4.1 1.6 3.3 1.2 7.3.9 8-.7 1.9-3.1 3.3-4.4 4l-.4.3c-.7.4-1.1 1-1.2 1.8v.2c-.4 2.3 6.4 19.1 13.3 28.1.5.6.9 1.1 1.4 1.6 1.3 1.4.1 1.2.1 1.2z" class="st76"></path><path d="M161.9 379.4s-10.1-4.6-15.5-14.1c-5.4-9.6-1.7-15 1.2-16.9 3.3-2.2 7.3-2.3 10.9.3s3.8 6.5 3.1 8.2c-.8 2-1.8 3.5-7.4 4-.1 0-.2 10.4 7.7 18.5z" class="st78"></path><path d="M151.9 365.9c.2.8-.9 1.3-1.4.6-.6-.8-1.2-1.7-1.7-2.6-5.1-9-.7-12.6.3-13.2.7-.4 1.4-.8 2.1-1 1.9-.5 3.8-.1 5.6 1.2 2.5 1.8 2.4 4.3 2.2 4.9-.4 1-.6 1.4-2.2 1.8-.8.2-1.7.4-2.9.5l-1.8.2c-.4 0-.7.4-.7.8v1.8c-.1.2-.1 2.1.5 5z" class="st76"></path><path d="M93.3 343c.4.2.7-.4.4-.7-3.8-3.1-11.3-8.4-17-5.3-7.7 4.1-2.3 9.8-2 10.1.3.2 4.3 3.3 8.4 0 2.4-2 1.6-3.9 1-4.8-.2-.3 0-.6.3-.6 1.7-.1 5.7.1 8.9 1.3z" class="st78"></path><path d="M80.6 347.1c-2.5.9-4.7-.6-5.1-.9-.3-.4-2-2.3-1.7-4.3.2-1.4 1.4-2.7 3.5-3.8.3-.2.6-.3.9-.4 3.3-1.2 7.3.4 10.6 2.5.3.2.1.7-.2.6-2.6-.3-4.8-.2-5-.2l-2 .1c-.3 0-.4.4-.2.6l1.5 1.3s.8.8.8 1.7c0 .6-.4 1.3-1.2 1.9-.7.4-1.3.7-1.9.9z" class="st76"></path><path d="M96.2 310.9c.4.5 1.1 0 .8-.5-6.2-11.1-16.9-35.7-8.7-62.8 9.4-31.1 14.6-35.6 18.2-45 3.6-9.4.6-19.7-9.8-20-11.7-.3-15 6.9-15.4 10.6-.4 3.6-.1 11.1 8.5 12.9.3.1.5.4.4.7-1.6 3.5-10.3 24-11.5 46.8-1.6 27.2 10.5 47.8 17.5 57.3z" class="st78"></path><path d="M82 257.8c0-1.4 0-2.7.1-4.1 1.3-24.1 11.3-45.8 11.4-46l.5-1c.7-1.6-.2-3.4-2-3.7l-1.1-.2c-4.8-.8-6.9-3.9-6.3-9.2.1-1.1 1.2-6.7 9.2-7.5.8-.1 1.7-.1 2.7-.1 2.9.1 5 1.1 6.3 3.1 2 2.9 2.1 7.6.3 12.2-1 2.7-2.2 4.9-3.6 7.7-3.4 6.6-8 15.6-14.6 37.5-1.2 3.8-2 7.6-2.5 11.3-.1 1.5-.4 1.4-.4 0z" class="st76"></path><path d="M95.4 305.7c.2.5-.5 1-.8.5-7.1-10.3-25.3-38.5-36.7-74.5-13.2-41.6-.2-69.3 2.1-73.7.2-.3 0-.7-.4-.7-2.6-.4-11.5-2.6-10.7-15.6v-.1c.1-.7 2.3-10.9 16.2-11 14.4-.2 15.9 14.9 13.8 22.9-2.1 8-17 35.8-14.3 63.2 2.6 25.4 23.9 73.8 30.8 89z" class="st79"></path><path d="M93.8 305.8c.2.5-.5 1-.8.5-7.1-10.3-25.3-38.5-36.7-74.5-13.2-41.6-.2-69.3 2.1-73.7.2-.3 0-.7-.4-.7-2.6-.4-11.5-2.6-10.7-15.6v-.1c.1-.7 2.3-10.9 16.2-11 14.4-.2 15.9 14.9 13.8 22.9-2.1 8-17 35.8-14.3 63.2 2.6 25.5 23.9 73.9 30.8 89z" class="st78"></path><path d="M70.3 257.8c.1.2-.2.4-.3.1-3.7-8.4-7.3-17.5-10.4-27.3-7.2-22.7-6.2-40.9-4.1-52.2 2.3-12.3 6.3-19.3 6.3-19.4l1.2-2c.8-1.3-.2-3-1.7-3l-2.5-.1s-3.4-.2-5.7-2.8c-1.8-2-3.1-5.1-2.4-9 .3-1.1 2-7.1 10.8-7.9.6-.1 1.3-.1 1.9-.1 3.7-.1 6.4 1.1 8.2 3.4 3 3.8 3.3 10.5 2.1 15.1-.4 1.6-1.5 4.4-2.8 7.6-4.8 12.1-13.8 34.6-11.6 56.8 1.3 11.1 5.8 26 11 40.8z" class="st76"></path><path d="M246.7 254.9s-17.7 5.9-36.2 33.3c-18.5 27.3-35.8 27.8-44.6 24.6-8.8-3.3-13.5-13.2-9.9-20.4 3.6-7.2 10.1-10.3 16.8-7.1 5.4 2.6 6.7 11.7 6.7 11.7s9.2 2.3 21-11.9 32.5-28.1 46.2-30.2z" class="st73"></path><path d="M246.8 255.8s-17.7 5.9-36.2 33.3c-18.5 27.3-35.8 27.8-44.6 24.6-8.8-3.3-13.5-13.2-9.9-20.4 3.6-7.2 10.1-10.3 16.8-7.1 5.4 2.6 6.7 11.7 6.7 11.7s9.2 2.3 21-11.9 32.6-28.2 46.2-30.2z" class="st78"></path><path d="M178.3 310.3c-4.8 1-8.5.2-10.8-.7-3.5-1.3-6.3-4.1-7.6-7.4-1-2.6-1-5.1 0-7.2 1.6-3.3 4-5.4 6.5-5.9 1.5-.3 3.1-.1 4.7.7 2.5 1.2 4.1 6.3 4.4 8.5l.4 2.8 2.7.7c.4.1 2.6.6 6-.1 4.5-.9 11.5-3.9 19.2-13.2 1.5-1.8 3.1-3.5 4.8-5.2 1-1 1.2-.4.2 1-.6.8-1.1 1.6-1.7 2.4-9.1 13.5-19.1 21.7-28.8 23.6z" class="st76"></path><path d="M185.6 311s-6.8 11.3-23.8 9.8c-17-1.4-21.4-17.5-21.4-17.5s-3.3-9.7 5.3-13.2c9-3.7 12.4 4.1 12.4 4.1s3.9 7.9-3.3 10.4c0 .1 8.3 17.3 30.8 6.4z" class="st79"></path><path d="M185 312s-6.8 11.3-23.8 9.8c-17-1.4-21.4-17.5-21.4-17.5s-3.3-9.7 5.3-13.2c9-3.7 12.4 4.1 12.4 4.1s3.9 7.9-3.3 10.4c0 0 8.3 17.3 30.8 6.4z" class="st82"></path><path d="M169.6 319.1c-2.5.5-5.3.6-8.2.4-15.2-1.3-19.3-15.6-19.4-15.8v-.1s-.7-2.1-.4-4.4c.3-2.8 1.7-4.7 4.4-5.9.8-.3 1.5-.5 2.2-.7 5-1 7 3.1 7.2 3.5v.1c.4.8 1.3 3.4.5 5.2-.4.9-1.2 1.6-2.5 2l-2.5.9 1.1 2.4c.1.1 5.1 10.3 17.2 11.2 1.6.1 2.1.9.4 1.2z" class="st76"></path><path d="M174.9 287.4s-6.1-6.4-18.6-7.6c-12.7-1.2-13.7-10.2-13.7-10.2s-1.9-6.3 4.6-9.6c7.4-3.8 10.8 2.6 10.8 2.6 2.7 5.1-.6 8.8-.6 8.8s0 3.1 4.9 4.7c4.8 1.5 11.1 5.8 12.6 11.3z" class="st75"></path><path d="M161.1 278.2c-1.5-.3-3-.6-4.7-.7-10.5-1-11.6-7.9-11.7-8.2l-.1-.4c-.1-.4-1.1-4.6 3.4-6.8.8-.4 1.6-.7 2.3-.8 3.6-.7 5.3 2.1 5.5 2.5 1.9 3.5-.1 5.9-.3 6.2l-.6.7v.9c.1 1.6 1.4 5 6.2 6.6z" class="st76"></path><path d="M152.2 229.9c.5.5 1.3 0 1.2-.6-.6-3.2-2.2-9.6-5.7-15.2-4.2-6.7-4.4-10.6-1-15.1.2-.2.5-.3.8-.3 1.5.4 6.6 1.4 8.7-4.1 2.5-6.5-3.2-9.3-4.9-10-1.6-.7-6.6-1.2-10.8 3.2-5.1 5.5-5.5 14-3.7 20.3 2.4 8.5 11.7 18.2 15.4 21.8z" class="st78"></path><path d="M150.3 186.8c-.8-.4-4.7-1-8.2 2.7-4.4 4.7-4.7 12.5-3.1 18.1 1.6 5.5 6.6 11.9 10.5 16.2-.9-2.7-2.1-5.7-3.8-8.4-4.6-7.4-4.9-12.4-.9-17.7.7-1 2.1-1.4 3.3-1.1 2 .6 4.6.6 5.9-2.7.4-1.2 1.8-4.7-3.7-7.1z" class="st76"></path><path d="M127.5 167.5s4.3 1.7 3 6.2c-1.2 4.5-5 5.7-8.9 5.4s-8.6-3.3-8.9-8.3 1.3-8.1 4.7-10.8c3.4-2.7 8.9-3.8 15.7 0 6.8 3.7 14.6 6.8 21.4 4.6 0 0-6.5 4.8-15.9 2.9-9.5-2-11.1 0-11.1 0z" class="st79"></path><path d="M127.7 166.7s4.3 1.7 3 6.2c-1.2 4.5-5 5.7-8.9 5.4s-8.6-3.3-8.9-8.3c-.3-5 1.3-8.1 4.7-10.8 3.4-2.7 8.9-3.8 15.7 0 6.8 3.7 14.6 6.8 21.4 4.6 0 0-6.5 4.8-15.9 2.9s-11.1 0-11.1 0z" class="st78"></path><path d="M121.2 176.3c-3-.6-6.2-3-6.5-6.5-.3-4.1.9-6.7 4-9.2 1.6-1.2 4.3-2.6 8.3-1.8 1.7.3 3.5 1 5.3 2 3.8 2.1 7 3.5 10.1 4.4-.9 0-1.9-.1-2.9-.3-.1 0-.3-.1-.4-.1-.4-.1-.8-.2-1.2-.2-8.2-1.5-10.8-.1-11.6.9l-.2.2c-.7.9-.4 2.2.7 2.6l.3.1c.4.2 2.7 1.3 1.9 4-.3 1.1-1.2 4.5-7 4-.3 0-.6 0-.8-.1z" class="st76"></path><path d="M176.7 163.6s9-3.5 19 3.5 21.2 11.7 21.2 11.7-12.6-15-21-21.4c-8.4-6.4-23-7.1-29.5-2.1-6.5 5.1-5.5 11.1-3.5 13.5 2.1 2.4 7 3.6 9.7 2.3 2.9-1.3 3.8-3.8 4.1-7.5z" class="st78"></path><path d="M168.5 169.8c-1.7-.3-3.2-1.1-4-2-.7-.8-1.3-2.3-1.1-4.2.2-1.7 1.1-4.2 4.2-6.7 3.4-2.7 9.9-3.6 16.4-2.4 4.2.8 8 2.4 10.8 4.5 4.5 3.5 10.4 9.5 14.7 14.3-3.8-2-8.4-4.6-12.8-7.6-3.2-2.2-6.6-3.7-10.1-4.3-6.1-1.1-10.4.5-10.6.6l-1.1.4-.1 1.2c-.3 3.6-1.1 5.2-2.9 6.1-.8.2-2.1.3-3.4.1z" class="st76"></path><path d="M150.4 158.2s4.9-.1 11 7.6c0 0 .3-4.8-7.1-11.4-7.4-6.6-12.4-5.7-15-3.7-2.5 1.9-3.5 5.8-.3 9.3 2.6 2.8 7.4 2 7.4 2 2.5-.3 4-3.8 4-3.8z" class="st77"></path><path d="M150.5 157.4s4.9-.1 11 7.6c0 0 .3-4.8-7.1-11.4-7.4-6.6-12.4-5.7-15-3.7-2.5 1.9-3.5 5.8-.3 9.3 2.6 2.8 7.4 2 7.4 2 2.5-.3 4-3.8 4-3.8z" class="st78"></path><path d="M143.3 159.2c-1.2-.2-2.2-.7-2.8-1.4-1.1-1.2-1.6-2.5-1.5-3.7.1-1.1.7-2.1 1.6-2.8.9-.7 2.4-1.4 4.7-.9 2.4.4 5.1 2 7.9 4.6.8.7 1.4 1.4 2 2-1.5-.8-2.7-1.2-3.6-1.3-.6-.1-1-.1-1.1-.1h-.7c-.3 0-.6.2-.7.5l-.3.6c-.4 1-1.5 2.6-2.4 2.6h-.2s-1.4.2-2.9-.1z" class="st76"></path><path d="M252.9 212.1c-.2-.2-.5-.3-.7-.1-.9.8-3.3 2.5-7.9.9-5.8-2-5.6-9.8-1.3-12.7 4.8-3.2 9.8-1.2 12.4 2.5 2.6 3.7 3.7 10.7 4.7 18.8.7 5.8 4 12.8 5.8 16.3.3.5-.4 1-.8.6-2.5-2.3-6.5-7.1-8.3-14.5-1.7-8-3.2-10.8-3.9-11.8z" class="st78"></path><path d="M257.4 215.3c.1.6-.7.8-.9.2-1.4-3.9-2.4-5.1-2.9-5.4l-1.1-.8c-.2-.2-.5-.1-.7.1l-.8 1.1c-.1.1-.8.8-2.3 1.1-1.1.2-2.4 0-3.8-.5-2.4-.8-3-2.8-3.2-3.9-.3-2.2.7-4.3 2.3-5.5 1-.6 2-1 3-1.2 2.5-.4 5.2.8 6.9 3.2 1.7 2.5 2.8 6.8 3.5 11.6z" class="st76"></path><path d="M104.9 235.3s-.2-9.6 3.9-7.7c4.1 1.9 6.4 1.3 8.2-1.2s1.1-5.9-2.1-8.6c-3.1-2.7-7.9-2.8-10.5 2-2.6 4.8.5 15.5.5 15.5zM208.1 122.8s4.1-1.2 3.6-5.4c-.5-4.2-3.2-6.7-5.7-7.3-3.2-.8-9.7.2-10.9 6.7-.7 3.8-.8 9.1 7.4 16.8 8.3 7.7 19.6 19.4 23.4 29.8 0 .1.4-21.5-17.8-40.6z" class="st78"></path><path d="M222.3 152c.1.3-.3.4-.5.2-4.2-5.9-10.1-12.5-18-19.9-8.3-7.7-7.3-12.5-6.9-15.1.7-3.6 3.3-4.8 5.3-5.2 1.1-.2 2.4-.2 3.3 0 1.4.3 3.9 1.9 4.3 5.6.3 2.5-1.9 3.3-2.3 3.4l-2.5.8c-.2.1-.2.3-.1.4l1.8 1.9c9.3 9.7 13.6 20.2 15.6 27.9z" class="st76"></path><path d="M182.4 85.7s6 1.3 8.2-4.6c2.2-5.9-4.2-8.9-4.2-8.9s-6.7-2.8-10.6 3.2c-4.7 7.4-7.5 34.5 14.8 52.4 0 0-14-21.6-8.2-42.1z" class="st78"></path><path d="M181.8 112.9c.2.8-.8 1.3-1.2.6-8.8-15.1-6.6-31.6-3.2-37 1-1.6 2.3-2.5 4-2.9 2-.4 3.8.2 4.2.4h.1c.8.4 4.6 2.6 3.2 6.5-.7 1.9-2 3-3.8 3.4-1.2.2-2.2 0-2.2 0l-1.1-.2c-.3-.1-.7.1-.8.5l-.3 1.1c-2.9 9.7-1.4 19.7 1.1 27.6z" class="st76"></path><path d="M183 124.1s-6.6-2.3-9.4-5.7c-2.8-3.3-1.8-5.2-.5-5.6 1.3-.5 3.6 0 5.2 4.1s4.7 7.2 4.7 7.2z" class="st78"></path><path d="M177.8 119.8c-1.1-.7-2.2-1.5-2.9-2.4-1.2-1.4-1.5-2.4-1.4-2.8 0 0 0-.2.2-.2h.1c.8-.2 2 .8 2.9 3.2.4.7.7 1.4 1.1 2.2z" class="st76"></path><path d="M106.4 108.8c.2 0 .3.1.4.3.7.8 3.5 3.6 7.1 1.3 4.2-2.6 1.1-7.3 1.1-7.3s-3.1-5.1-8.9-1c-3.9 2.7-5.3 5.4-6.7 8.8-.3.7.6 1.4 1.2.9 1.8-1.5 4.2-3.2 5.8-3z" class="st78"></path><path d="M112.2 110c-2.2.2-3.4-1.6-3.4-1.6-.2-.3-1.3-1.2-1.7-1.3-.4-.1-.9-.2-1.3-.1-.2 0-.5.1-.7.1-.6.1-1.1-.6-.7-1.1.7-.8 1.6-1.6 2.8-2.4 1.1-.7 2.1-1.2 3-1.2 2.1-.2 4.4 1 4.5 1 .9 1.9.7 3.2.5 4.4-.1.6-.6 1.2-1.3 1.6-.6.4-1.2.6-1.7.6z" class="st76"></path><path d="M249.6 84.9c.2-.5.9-.3.9.2 0 1.5-.3 3.3-1.1 4.5-1.6 2.4-4.1 3.7-6.6 2.2 0 0-.1 0-.1-.1-.3-.3-2.5-2.3-.9-4.9 1.5-2.6 4.3-1.5 5.1.2.1.3.4.4.7.2.5-.2 1.4-1 2-2.3z" class="st78"></path><path d="M245.5 91.4c-.7.1-1.4 0-2.1-.4-.1 0-.1-.1-.2-.1-.4-.4-1.6-1.7-.6-3.5.3-.6.8-.9 1.2-1 1-.2 2 .6 2.1 1.4l.1.3c.1.5.6.8 1.1.6l.3-.1c.1 0 .9-.4 1.8-1.3-.1.7-.4 1.3-.7 1.8-.8 1.3-1.9 2.1-3 2.3z" class="st73"></path><path d="M62 133.9c-.4.1-.4.6 0 .7 2.6.6 7.5 2.1 9.6 6.3 2.8 5.7-.7 11.8-6.8 30.1-5.4 16.1-5 27.3-3.6 37.8.1.4.7.4.7 0 .3-6.9 1.5-20.5 3.7-29.2 3.7-14.2 15.9-31.7 8.1-41.7-3.6-4.9-9.1-4.5-11.7-4zM94.2 188.3s4.6-.8 7.3 2.8c2.7 3.6.2 9.9-4 19.5S94 220.8 94 220.8s4.8-11.1 8.6-18.2 2.4-10.4.9-12.7c-1.5-2.3-5-4.9-9.7-3.8-4 .9-.7 2.3.4 2.2z" class="st79"></path><path d="M87.1 191.3c.5-.9 1.8-.5 1.8.4.1 1.9.5 4.1 1.6 3.5 3.3-1.9 6.5 2.4 3.6 4.6-3 2.4-8.4 0-8-5.2.1-1.4.5-2.5 1-3.3z" class="st73"></path><path d="M92.1 341.7c-2.6-1.5-7.7-4.4-9.7-4.3-2.9.1-.7 2.5 2.7 2.7 2.3.1 5.2 1.1 6.9 1.8 1 .4 1 .3.1-.2z" class="st79"></path><path d="M106.6 225.1c-.8.2-1.5-.5-1.4-1.4.3-1.4.9-3.2 2.5-3.9 2.8-1.3 6.1-.9 7.4 1.5 1.3 2.3.3 6.5-2.6 5.3-2.3-.9-4.2-1.8-5.9-1.5z" class="st76"></path><path d="M108.7 220.7c-.5.3-.3 1.1.3 1.1.8 0 1.8.1 2.4.5 1.2.8 2.4.3 2.5-.7-.1-.8-2.7-2.3-5.2-.9z" class="st79"></path><path d="M146.6 187.8c-.6.2-.5 1 .1 1.1 1.5.2 3.1.8 2.6 2.4-.9 2.9.4 4.1 2 3.9 1.6-.3 3.7-4.8.3-7-1.7-1.1-3.6-.9-5-.4z" class="st73"></path><path d="M241.2 256.6c.4-.2.7.5.3.7-6.7 3.9-18.9 13.3-20.7 31.5-2.5 25.3-4.4 26.2-9.7 29.8-5.2 3.5-14.3 1.8-17.4-4.6-2.6-5.5.5-10.7 4-13.6 3.1-2.6 7.8-2.2 9.2-2 .2 0 .4-.1.4-.3.2-2.4 1.9-14.7 11.8-26.5 7.5-8.6 16.6-13 22.1-15z" class="st79"></path><path d="M242.1 257.2c.4-.2.7.5.3.7-6.7 3.9-18.9 13.3-20.7 31.5-2.5 25.3-4.4 26.2-9.7 29.8-5.2 3.5-14.3 1.8-17.4-4.6-2.6-5.5.5-10.7 4-13.6 3.1-2.6 7.8-2.2 9.2-2 .2 0 .4-.1.4-.3.2-2.4 1.9-14.7 11.8-26.5 7.5-8.6 16.7-13 22.1-15z" class="st82"></path><path d="M207.5 316.6c-3.2.6-7.4-.6-9-3.9-2-4.2.1-8.8 5.2-9.6 11.5-1.6 8.7-11.7 13.5-18.3.3-.3.8-.1.8.3l-.4 3.8c-1.2 11.8-2.2 18.3-3.5 21.8-.9 2.7-3.7 5.3-6.6 5.9z" class="st76"></path><path d="M210.8 294.4s5.7-19.9 21.7-31.5c.3-.2 0-.6-.3-.4-5.5 3.1-9.8 8.2-10 8.4-2.8 3.4-9.9 12.7-11.4 23.5z" class="st79"></path><path d="M165 303.8c0 1-1.2 1.4-1.8.6-.9-1.4-1.8-3.4-1.7-6 .1-5.9 4-7.9 7-7.6 3 .4 5.3 5.5 1.4 7-3 1.1-5 3-4.9 6z" class="st73"></path><path d="M163.6 301.7c-.4-1-.5-2.1-.5-3.3.1-4.7 2.7-5.7 3.8-5.9.4-.1.9-.1 1.3 0 .9.1 1.9 1.3 2 2.4.1.7-.2 1.2-1 1.5-3.5 1.2-5.1 3.3-5.6 5.3z" class="st77"></path><path d="M211.7 307.6c.8-.7 2 .1 1.6 1.1-.6 2-1.9 4.3-4.5 5.5-4.9 2.4-8.9-.1-9.3-3.9-.4-3.8 3.8-5.1 5.8-1.9 1.5 2.5 4.4.9 6.4-.8z" class="st73"></path><path d="M143.3 301.1s-1-6.2 4.9-7.2 8.1 4.4 6 6.5-2.1-1.8-5.5-1.8c-3.4.1-5.4 2.5-5.4 2.5z" class="st82"></path><path d="M143.2 300.3s-.8-5.3 5-6.4c5.9-1 7.9 3.6 5.8 5.5-2.1 1.9-2.1-1.5-5.4-1.4-3.4.2-5.4 2.3-5.4 2.3zM75.5 343.3c-.4-.2-.8.3-.6.7.4.8 1.2 1.7 2.7 2.2 2.2.7 4.4-.2 4.7-2 .3-1.8-2.5-2.8-3.9-1.2-.9.9-2.1.7-2.9.3z" class="st73"></path><path d="M192 379.7c.7.5.2 1.7-.7 1.4-3.7-1-12.7-2.6-30.2-.7-24.6 2.6-34.5-.4-44.4-4.7s-12.5-10.6-11.5-16.4 7.5-8.7 12.7-6.3c5 2.3 5.3 10.9 5.4 12.6 0 1.6 6.2 8.9 21.5 8.5 16.2-.4 40.1 1.4 45.8 4.5.5.5 1 .8 1.4 1.1z" class="st79"></path><path d="M191.4 380.7c.7.5.2 1.7-.7 1.4-3.7-1-12.7-2.6-30.2-.7-24.6 2.6-34.5-.4-44.4-4.7s-12.5-10.6-11.5-16.4c1-5.8 7.5-8.7 12.7-6.3 5 2.3 5.3 10.9 5.4 12.6 0 1.6 6.2 8.9 21.5 8.5 16.2-.4 40.1 1.4 45.8 4.5.5.5 1 .8 1.4 1.1z" class="st82"></path><path d="M169.6 378.4c-2.8.1-5.9.4-9.3.7-24.4 2.6-34-.5-43.2-4.5-7.6-3.3-11.1-8.1-10.2-13.9.4-2.4 2.2-4.2 4.6-4.9 1.6-.4 3.3-.3 4.9.4 2.9 1.3 4 6.5 4 10.5 0 1.6 1.4 3.2 2.5 4.3 2.2 2.1 8.6 6.9 21.4 6.5 8-.1 17.2.2 25.3.9z" class="st76"></path><path d="M126 378.2c9.5 2.4 15.7 2.4 18.6 2.2 1.3-.1 1.1-.2-.4-.3-5.1-.2-17.7-1.3-26.6-6.6-7.6-4.5-9.7-9.1-10.4-11.6-.1-.4-.6-.3-.6.1-.2 3.7 1.6 11.6 19.4 16.2z" class="st79"></path><path d="M117.4 365.5c.3.5 1.2.2 1.1-.4-.2-2.2-.8-6.2-3-7.6-3.1-2.1-6.2.1-7 3-.8 2.9 6.7 0 7.9 3.1.4.8.8 1.5 1 1.9z" class="st73"></path><path d="M110.1 338.5c.1.3-.4.5-.6.2-1.7-3.2-4.5-9.4-3.3-14.6 1.6-7.6 7.3-9.4 10-9 2.7.5-6.1 1.4-7.8 9.4-1.1 5.6.7 10.4 1.7 14z" class="st79"></path><path d="M120.7 322.2c.4-.8 1.7-.7 1.9.2.5 1.8.5 4.3-1.6 6.4-3.9 3.9-8.4 1.6-8.6-1.1-.2-2.3 1.3-3.3 4.9-3.2 1.8 0 2.8-1.1 3.4-2.3z" class="st73"></path><path d="M117.5 329.2c-1 .3-1.9.1-2.6-.4-.5-.3-.8-.8-.8-1.2-.1-.8.1-1.1.9-1.3.6-.2 1.4-.2 2.4-.2.5 0 1 0 1.5-.2 1-.3 1.8-.8 2.5-1.6 0 1.3-.5 2.4-1.4 3.3-.9.8-1.7 1.3-2.5 1.6z" class="st77"></path><path d="M151.4 351.9c-.4-.3-.3-.9.2-1.1 1-.3 2.3-.3 3.5.4 2.5 1.7 2.7 3.6 1.9 4.6-.8 1-4.9 1.3-4.8-1.9-.1-1-.4-1.7-.8-2zM54.5 142.2c-.5-1-2-.9-2.3.3-.4 1.6-.3 3.8 1.6 6.2 3.8 5 11 3 11-1.1 0-3.7-7 1.2-10.3-5.4z" class="st73"></path><path d="M60.1 150c-.9.1-3.2 0-5-2.3-.9-1.2-1.4-2.5-1.4-3.7 2.4 3.6 5.9 3.6 8.1 3.6.5 0 1.1 0 1.4.1-.1 1.3-1.6 2.2-3.1 2.3z" class="st77"></path><path d="M152.8 230.9s-12.1-7.9-24.5-16.1c-12.3-8.2-10.5-18.9-9-22 1-2.3 3.4-6.6 8.9-6.4 5.5.2 10.1 4.4 9.4 8.6-.7 4.2-3.8 8-8 7.5 0 0 2.8 7.2 11.9 14.4 12.4 9.6 11.3 14 11.3 14z" class="st79"></path><path d="M151.8 231.3s-12.1-7.9-24.5-16.1c-12.3-8.2-10.5-18.9-9-22 1-2.3 3.4-6.6 8.9-6.4 5.5.2 10.1 4.4 9.4 8.6-.7 4.2-3.8 8-8 7.5 0 0 2.8 7.2 11.9 14.4 12.3 9.7 11.3 14 11.3 14z" class="st78"></path><path d="M130.4 189.9c-1-.5-2.2-.7-3.3-.7-3-.1-5.1 1.5-6.7 5 0 .1-4.6 10.6 8.2 19.1 5.7 3.8 11.4 7.5 15.8 10.4-1.4-1.4-3.1-2.9-5.3-4.6-9.5-7.5-12.5-15-12.6-15.4l-.1-.9c-.1-1 .6-1.9 1.6-2.1l.9-.2c2.8.4 4.9-2.6 5.4-5.6.3-1.7-1.3-3.9-3.9-5z" class="st76"></path><path d="M121.9 204.6c.2.4.8.2.7-.3-.6-2.8-.6-8.2 2.5-9.9 4.6-2.5 5.7 1.2 7.4-1 1.7-2.2-5.1-5.8-9.3-2.5-3.5 2.9-3.6 9.4-1.3 13.7z" class="st77"></path><path d="M150.6 264.3c-.8-.7-.3-1.9.7-1.9s2.2.5 3.1 1.8c2.1 3.2-.1 5.8-1.1 6-1.1.2-3.2-1.4-1.7-3.1.7-1 0-2-1-2.8z" class="st73"></path><path d="M155.2 277.3s8.1 1.5 15.9 5.8c0 0-2.8-2.5-8.9-5s-12.3-2.2-13.5-3.2c0 0 1.2 1.5 6.5 2.4zM249.6 289.2c-2.3 3.9-5.9 11.7-1.4 17.7.4.5.9.8.4-.5-1-2.8-2-8.5 1.5-17 .3-.9.3-1.7-.5-.2z" class="st79"></path><path d="M255.5 303.5c.2-.9 1.5-1 1.9-.1.2.5.4 1 .3 1.6-.2 2.4-1.8 3.5-3.9 3.6s-3.7-1.8-2.4-2.7c1.2-.7 3.7-.5 4.1-2.4z" class="st73"></path><path d="M261.6 377.8s8.9-19.5 19.9-31.3c13.6-14.6 16.9-32.7 17.3-41.7s-6.1-18.4-15.7-16.5c-8.7 1.7-9.2 11.1-8.7 14.4s4.4 8.9 11 9.8c0 0 5 13.8-8.3 32.6-13.4 18.7-15.5 32.7-15.5 32.7z" class="st79"></path><path d="M263.2 377.8s8.9-19.5 19.9-31.3c13.6-14.6 16.9-32.7 17.3-41.7.3-9-6.1-18.4-15.7-16.5-8.7 1.7-9.2 11.1-8.7 14.4s4.4 8.9 11 9.8c0 0 5 13.8-8.3 32.6-13.3 18.7-15.5 32.7-15.5 32.7z" class="st78"></path><path d="M287.5 337.1c-.5.7-1.6.1-1.3-.7 6.4-14.4 3.1-24.3 2.9-24.8l-.3-.9c-.1-.3-.3-.4-.6-.5l-1-.1c-5.5-.7-8.6-5.5-9-7.8 0-.1-1.2-10.2 6.9-11.8.7-.1 1.4-.2 2-.2 3.3 0 5.6 1.7 6.9 3.1 2.6 2.8 4.2 7.1 4 11.2-.3 9.1-3.3 21.5-10.5 32.5z" class="st76"></path><path d="M281.8 292.6c.2-.3-.2-.7-.5-.4-1.6 1.3-3.5 4-3.1 9.3.6 9.2 11.2 9.5 14.5 8.5s-11.2.3-12.4-9.3c-.5-4.2.5-6.7 1.5-8.1z" class="st79"></path><path d="M293.5 299.5c1 .6 2.2-.5 1.7-1.5-.9-1.9-2.5-3.9-5.1-5.1-6.3-2.9-7.6 5-4.6 5.1 1.8-.1 5.4 0 8 1.5z" class="st73"></path><path d="M293 297.5c-2.7-1.1-5.8-1.2-7.5-1.2-.1-.2-.1-.8.2-1.4.3-.7.9-1 1.7-1 .5 0 1.2.2 1.9.5 1.6.6 2.8 1.7 3.7 3.1z" class="st77"></path><path d="M261.4 313.7c-.9 1.8-1.5 4.4.5 6.9 4.2 5.2 9.8-.6 10.1-1.3s-6.7 4.6-9.1-.4c-1.2-2.4-1.2-4.2-.9-5.4.2-1.4.1-1.2-.6.2z" class="st79"></path><path d="M98.4 364c.2 0 .4-.1.5-.1" class="st77"></path><path d="M99 366c.2 0 .4-.1.5-.1 1-.3 1.8-1.5 1.5-2.6-.3-1.1-1.4-1.8-2.6-1.5-.2 0-.4.1-.5.1-1 .3-1.8 1.5-1.5 2.6.4 1.1 1.5 1.8 2.6 1.5zM164.2 257.2c.2 0 .4-.1.5-.1" class="st77"></path><path d="M164.6 259.3c.2 0 .4-.1.5-.1 1.1-.2 1.9-1.4 1.6-2.4-.3-1.1-1.3-1.9-2.4-1.6-.2 0-.4.1-.5.1-1.1.2-1.9 1.4-1.6 2.4.2 1 1.2 1.8 2.4 1.6zM263.6 332.8h.5M263.6 334.9h.5c1.1 0 2.1-.9 2.1-2.1 0-1.1-.9-2.1-2.1-2.1h-.5c-1.1 0-2.1.9-2.1 2.1.1 1.1.9 2.1 2.1 2.1zM107 179.6h.5M90.7 143.9c.2 0 .4.1.5.1 1.1.2 2.2-.6 2.4-1.8.1-1.1-.6-2.2-1.8-2.4-.2 0-.4-.1-.5-.1-1.1-.2-2.2.6-2.4 1.8 0 1.2.7 2.3 1.8 2.4zM237.4 43.3h.5c1.1 0 2.1-1 2.1-2.1-.1-1.1-.9-2.1-2.1-2.1h-.5c-1.1 0-2.1 1-2.1 2.1.1 1.1.9 2.1 2.1 2.1zM260 72.7c.2 0 .3-.1.5-.1" class="st77"></path><path d="M260.3 74.5c.2 0 .3-.1.5-.1 1-.2 1.7-1.2 1.5-2.2-.2-1-1.2-1.7-2.2-1.5-.2 0-.3.1-.5.1-1 .2-1.7 1.2-1.5 2.2.3 1 1.2 1.7 2.2 1.5z" class="st77"></path><path d="M302.3 339.4c2.7 0 2.7-4.1 0-4.2-2.6 0-2.7 4.1 0 4.2zM180.8 176.5c2.7 0 2.7-4.2 0-4.2-2.7.1-2.7 4.2 0 4.2zM217.3 115.8c2.4-.5 1.6-4.1-.7-3.7-2.4.5-1.7 4.2.7 3.7zM81.3 303.9c2.7-.3 2.3-4.4-.4-4.1-2.7.2-2.3 4.4.4 4.1zM52.9 263.9c2.7-.3 2.3-4.4-.4-4.1-2.7.2-2.3 4.4.4 4.1zM214.6 385c-.7.3-1.5-.3-1.2-1 .4-1.2 1.3-2.4 3.2-3.1 4.5-1.7 5.9 2.8 5.6 5-.2 2.2-3.5 1.7-5.7-.3-.8-.8-1.4-.9-1.9-.6zM277.6 387.3c-.5.4-1.2 0-1.2-.7.1-1.2.7-2.8 2.8-3.8 4-1.8 6.6 1.1 6.7 4.1s-4.5 3-6.2.8c-.7-1.1-1.5-.9-2.1-.4z" class="st73"></path><path d="M199.6 393.4c-.5-.1-.6.6-.2.7 11.6 3.2 40.4 10.3 68.2 9.4 35.9-1.2 48.6-8.6 52.2-14 4.5-6.6.8-13.7-4.4-16.4-5.9-3.1-10.3 0-11.7 2.2-1.8 2.9-2.9 7.5.5 12.4.1 0-2.9 20.7-104.6 5.7z" class="st74"></path><path d="M200.5 394.2c-.5-.1-.6.6-.2.7 11.6 3.2 40.4 10.3 68.2 9.4 35.9-1.2 48.6-8.6 52.2-14 4.5-6.6.8-13.7-4.4-16.4-5.9-3.1-10.3 0-11.7 2.2-1.8 2.9-2.9 7.5.5 12.4 0 0-2.9 20.7-104.6 5.7z" class="st78"></path><path d="M262.4 402.6c-6 0-12.1-.4-17.9-1-4.2-.4-3.9-.9 0-.6 5.8.4 11.2.6 16.3.6 18 .1 31.1-1.8 39-5.6 4.1-2 5.9-4.1 6.6-5.5.4-.8.5-1.7.3-2.6l-.1-.3c-3.2-4.5-1.6-8.4-.5-10.3.6-.9 2.4-2.6 5.2-2.6 1.3 0 2.7.4 4 1.1 2.5 1.3 4.4 3.7 5.1 6.4.6 2.5.1 5-1.4 7.4-7.3 10.9-40.6 12.8-50.7 13.1-1.8-.1-3.9-.1-5.9-.1z" class="st76"></path><path d="M306.9 376.2s-5.2 4-.3 11.2c0 0 1.1 1.3 1.7.8s-2-2.1-2.3-5.9c-.3-4.4.9-6.1.9-6.1z" class="st79"></path><path d="M315.1 377.7c1.4.8 2.8 2 3.5 3.9 1.9 4.6-.9 7.5-2.6 8.3-1.6.7-5.6-1.6-2.3-7.4 1.1-2 1.1-3.4.7-4.3-.2-.8-.8-1.4.7-.5z" class="st73"></path><path d="M120.1 167.4s3.5-1.3 7.3 1.1c3.9 2.5.1 6.5.1 6.5s2.4-4-1.6-6c-4.1-2-5.8-1.6-5.8-1.6zM115.1 171.6s1.1 4.1 6.8 4.8c0 0-4.5-1.2-6.8-4.8z" class="st79"></path><path d="M119.1 172.2c-.7 0-.9.9-.4 1.3 1 .8 2.6 1.6 4.9 1.7 4.5.2 4.5-3.9 2.1-5.1-2.3-1.2-3.1-.4-4.3 1.1-.5.7-1.4.9-2.3 1z" class="st77"></path><path d="M139.5 152.5s2.9-5.1 9-1c0 .1-4.8-1.5-9 1z" class="st79"></path><path d="M141.2 155.1c-.5-.3-1.2.1-1.1.7.1.8.6 1.8 2 2.2 3 1 4.3.7 5.3-.8s.3-4.2-1.9-3.5c-1.6.5-2.9 2.2-4.3 1.4z" class="st77"></path><path d="M231.8 182.3c.8.1.9 1.2.1 1.3-3.7.9-9.6 1.5-15-1-8.5-4-8-6.5-17.4-8.2-.4-.1-.7.1-.8.5-.4 1.5-1.9 5.4-6.6 4.2-5.8-1.4-6.4-5.2-5.9-7.9.4-2.1 2.9-5.8 9-5.1 6.1.7 10.3 2.9 17.6 8.8 6 5.1 12.1 6.9 19 7.4z" class="st74"></path><path d="M231.6 183.2c.8.1.9 1.2.1 1.3-3.7.9-9.6 1.5-15-1-8.5-4-8-6.5-17.4-8.2-.4-.1-.7.1-.8.5-.4 1.5-1.9 5.4-6.6 4.2-5.8-1.4-6.4-5.2-5.9-7.9.4-2.1 2.9-5.8 9-5.1 6.1.7 10.3 2.9 17.6 8.8 6.1 5 12.2 6.8 19 7.4z" class="st82"></path><path d="M192.8 178.3c-.1 0-.2 0-.4-.1-3.6-.9-5.1-2.7-4.5-5.8.3-1.5 2.1-4.2 7-3.6.7.1 1.3.2 1.8.3 4.7.9 8.4 2.9 14.7 8.1 3.3 2.7 6.8 4.7 10.6 5.9-.2 0-.3-.1-.5-.1-1.4-.3-2.8-.7-4-1.3-3.1-1.5-4.9-2.7-6.6-3.8-2.8-1.9-5.1-3.4-11.3-4.5-1.3-.2-2.6.6-2.9 1.9-.6 2.4-1.9 3.4-3.9 3z" class="st76"></path><path d="M165.1 168.3s-5.6-4.9 2.5-11.5c8.2-6.6 23.8-1.5 26.3 1.4 0 0-16.3-6.9-24.2-.2-7.9 6.7-4.6 10.3-4.6 10.3z" class="st74"></path><path d="M168.1 168.1c-.5.3-.4 1 .2 1.1 1.4.2 3.1.2 4.4-.9 2.6-2.2 1.1-6.1-.8-6.4-1.9-.3-4.6 1.1-3.3 4 .4 1.2.1 1.9-.5 2.2z" class="st77"></path><path d="M188 175.3s.8 3 5.2 3.1c4.4.2 3.4-5.1 3.4-5.1s-.6 4.1-3.6 3.8c-4.1-.4-5-1.8-5-1.8z" class="st74"></path><path d="M192.2 171.1c.3-.6-.2-1.3-.9-1.1-.8.2-1.6.6-2.2 1.4-1.4 1.8.4 4.2 3.8 3.2 3-1-2-1.2-.7-3.5z" class="st77"></path><path d="M161.1 60.8c-.1-1.5 1.7-2.5 2.7-1.4.3.3.5.6.8.9 2.9 3.8 2.2 6.7-.2 7.9-2.5 1.2-5.5.7-6.1-1.9-.5-1.8 2.9-3.4 2.8-5.5zM201.8 19.2c-1.3.7-2.7-.7-2-1.9.5-1 1.6-1.9 3.6-2.4 5.7-1.3 7.9 3.9 8.3 5.2.4 1.3-.5 5.2-4.6 3.8-3.5-1.1-2.5-6.3-5.3-4.7z" class="st73"></path><path d="M208.8 22.4c-.3 0-.7 0-1.1-.2-.8-.3-1.1-1-1.6-2.2-.5-1.1-1.3-2.9-3.2-3 .3-.1.7-.2 1.1-.3.3-.1.7-.1 1-.2 3.7-.3 5 3.7 5.1 4.1 0 .2 0 .8-.4 1.3-.3.3-.6.4-.9.5z" class="st77"></path><path d="M100 111.2c-.1-.7.1-1.4.4-2 .9-1.8 3.1-5.4 6.3-7.1 4.6-2.3 6.6-.6 7.9 1.3 0 0-3.6-2.2-7.4.2-3.8 2.4-7.2 7.6-7.2 7.6z" class="st79"></path><path d="M110.9 106.4c-1.2 1.1-.2 3.2 1.4 2.9h.1c2.3-.6 2.6-2.9 1.8-3.8-.8-.9-2.6-.9-2.9.2 0 .3-.2.5-.4.7z" class="st77"></path><path d="M151.1 18.1s1.7-.6 2.2 1.8.5 4.8-2.4 8c0 0 2.6-7 .2-9.8z" class="st79"></path><path d="M242.3 203.9s2.4-4.9 8-3c5.2 1.8 6 8.3 6.8 11.6-.1 0-4.3-15.3-14.8-8.6z" class="st74"></path><path d="M244.7 208.4c-.8-.1-1.2.9-.6 1.4.8.6 2 1 3.9.5 4.4-1 2.2-4.8.5-5.4-1.7-.6-2.7 1-1.8 2.9.5.9-.8.8-2 .6z" class="st73"></path><path d="M268 242.3c.4.3.9-.2.5-.6-3.2-3.8-8.1-12.1-6.1-25.1 2.9-18.9 5.7-27.2.5-35.5s-12.5-4.3-12.5-4.3-7 3.2-5.4 10.8c1.4 6.7 9 5.9 10.7 5.6.2 0 .4.1.5.3.3 1.4 1.5 7.4 1.1 22.5-.3 15.4 6.5 23.1 10.7 26.3z" class="st74"></path><path d="M268.7 241.4c.4.3.9-.2.5-.6-3.2-3.8-8.1-12.1-6.1-25.1 2.9-18.9 5.7-27.2.5-35.5s-12.5-4.3-12.5-4.3-7 3.2-5.4 10.8c1.4 6.7 9 5.9 10.7 5.6.2 0 .4.1.5.3.3 1.4 1.5 7.4 1.1 22.5-.3 15.3 6.5 23 10.7 26.3z" class="st82"></path><path d="M261.1 225.9c-.8-3.1-1.3-6.7-1.2-10.9.4-15.2-.8-21.4-1.2-22.9-.3-1.2-1.4-1.9-2.5-1.7h-.1c-2.2.3-7.5.6-8.5-4.2-1.3-6.1 4.1-8.6 4.3-8.7h.2s.9-.5 2.1-.7c3.1-.5 5.8 1 7.9 4.3 3.9 6.2 2.9 12.5.7 25-.5 2.7-1 5.8-1.5 9.2-.6 4-.6 7.5-.2 10.6z" class="st76"></path><path d="M250.9 178.1s5.5-4 10.2 1.7c5 6.1 4.8 14.3 2.3 22.5 0 0 2.5-12.8-2.5-20.1-4.8-7.3-10-4.1-10-4.1z" class="st74"></path><path d="M250.4 183.6c-.8-.5-1.8 0-1.9.9 0 1.3.3 2.9 1.8 4.1 3 2.4 7 .5 8.2-.8 2-2.1 1.8-6.6-2.1-6.6-3.2-.1-3 4.4-6 2.4z" class="st73"></path><path d="M254.4 187.7c-1.1.2-2.1-.1-2.9-.7-.5-.4.2-1.1.7-1.2 1.3-.2 2.1-1.1 2.7-1.8.6-.7.9-1 1.3-1.1h.2c.9 0 1.1.4 1.3.7.3.8.1 2.1-.6 2.8-.3.5-1.4 1.2-2.7 1.3z" class="st77"></path><path d="M207.3 141.7s9.2 1.8 15.5 12.9c6.3 11.1 6.1 20.8 6.1 20.8s-1.5-11.2-10.4-18.5c-8.1-6.7-11.4-5.4-18.1-7.5-6.8-2-9.5-9.2-8-14.2s6-6.6 9.7-6c3.7.6 6.5 4 5.9 8.2l-.7 4.3z" class="st74"></path><path d="M206.6 141.9s9.2 1.8 15.5 12.9c6.3 11.1 6.1 20.8 6.1 20.8s-1.5-11.2-10.4-18.5c-8.1-6.7-11.4-5.4-18.1-7.5-6.8-2-9.5-9.2-8-14.2s6-6.6 9.7-6c3.7.6 6.5 4 5.9 8.2s-.7 4.3-.7 4.3z" class="st82"></path><path d="M221.7 158.2c-.8-.9-1.7-1.8-2.7-2.6-6.3-5.2-9.9-5.9-14.1-6.7-1.5-.3-3-.6-4.7-1.1-5.5-1.7-8-7.6-6.8-11.8 1-3.4 3.6-4.4 5-4.6.8-.2 1.7-.2 2.6 0 2.5.4 4.8 2.7 4.3 6.1l-.6 4.2c-.1 1 .5 1.9 1.5 2.1.3.1 8.4 1.8 14.2 12 .5.7.9 1.6 1.3 2.4z" class="st76"></path><path d="M195.7 132.5s-4.3 2.6-1.9 9.3c2.4 6.7 11.1 7.1 11.1 7.1s-8.2-1.7-9.8-7.7c-1.7-6 .6-8.7.6-8.7z" class="st74"></path><path d="M202 137.6c.9.3 1.9-.3 1.8-1.3 0-.9-.3-1.9-1.2-2.7-2.3-2-5-.9-6.1.6-1.1 1.5-.2 4.6 2.1 3.9 1.4-.4 2.5-.7 3.4-.5z" class="st73"></path><path d="M200.8 129.1s-5.8-5.8-3.8-12.7c1.7-5.7 8.2-4.5 8.2-4.5s-6.4.7-7.3 5.5c-.8 4.5 2.9 11.7 2.9 11.7zM205 122.2s6 5.1 10 11.2 6.2 14.7 6.2 14.7-3.1-8.5-7.1-14.1c-3.9-5.6-9.1-11.8-9.1-11.8z" class="st74"></path><path d="M200.2 117.8c-.5.3-1-.2-.8-.7.4-.9 1.3-2 3.3-2.9 4-1.8 5.4 1.8 5.6 2.7.2.9.4 3.9-3.5 3.5-3.3-.4-2.5-3.9-4.6-2.6z" class="st73"></path><path d="M174.2 91.8c-.3-3.2-.4-9.8 2.4-14.6 2.7-4.8 6.6-4.1 8.5-3.4.8.3.8.5 0 .4-1.9-.1-5.6.4-7.7 5-1.9 4.1-2.6 8.9-2.8 11.8-.2 1.7-.3 2-.4.8zM179 110.6s2.3 6.4 6.4 10.3c0 0-4.5-9.3-5.4-15.1 0 .1 1.3 8-1 4.8z" class="st79"></path><path d="M182.4 81.7c-.2.5.1 1 .6 1 1.2.1 3-.2 4-1.9 1.7-3 0-4.7-1.7-5-1.7-.4-3.6.6-3.6 2.5-.1 1.4 1 2.5.7 3.4z" class="st73"></path><path d="M209 70s.4 9.4 8.6 8.4c9-1 8.5-8 8.5-8s.1-6.6-8.6-7.6c0 0 15.7-3.9 23.1 4.6 0 0-5.3 2.4-4.7 7.4.6 5 4.9 6.4 9 5.8 4.1-.6 9.3-4.7 8.7-11.6s-7.5-15.1-23.3-14.5c-15.9.6-32.7 7.3-42 23.2s-9.1 26.8-1.2 48.7c.1 0-6.7-44.1 21.9-56.4z" class="st74"></path><path d="M210.4 69.7s.4 9.4 8.6 8.4c9-1 8.5-8 8.5-8s.1-6.6-8.6-7.6c0 0 15.7-3.9 23.1 4.6 0 0-5.3 2.4-4.7 7.4.6 5 4.9 6.4 9 5.8 4.1-.6 9.3-4.7 8.7-11.6s-7.5-15.1-23.3-14.5-32.7 7.3-42 23.2-9.1 26.8-1.2 48.7c.2 0-6.6-44.1 21.9-56.4z" class="st78"></path><path d="M186 109.8c-2.5-12.2-.7-20.5 5.7-31.3 8.2-14 21.5-19.2 31.2-21.1 3-.6 6-.9 9.1-1.1 13.8-.5 20.6 5.9 21.2 12.6.5 5.7-3.8 8.8-6.6 9.3-.1 0-.2 0-.3.1-5.9.5-6.4-2.7-6.7-4-1-5.3 5.8-7 5.8-7-12.7-12.6-29.7-4.6-29.7-4.6 1.1.1 8.7 2.3 9.4 7.3.6 5-4.2 5.8-5.1 5.9-8.2 1.1-8.6-8.2-8.6-8.2s-21.7 5.6-24.6 34.5c-.3 2.7-.6 5.2-.8 7.6z" class="st76"></path><path d="M225.6 56.8s15.7-2.9 23.1 4c8.1 7.6 3.3 13.4 3.3 13.4s2.6-7.4-6.6-13.5-19.8-3.9-19.8-3.9z" class="st74"></path><path d="M245.4 70.9c0-.9-.9-1.6-1.7-1.2-1.3.5-2.8 1.8-2.6 4.5.4 4.9 8.6 2.8 8.9-.3.3-2.9-4.7.9-4.6-3zM216 70.9c-1.1.1-1.6 1.3-.9 2.1.7.8 1.8 1.5 3.3 1.5 3.7.1 5.2-1.3 5.1-4.7-.2-3.4-4-3.9-4.9-2.5-.7 1.3.4 3.5-2.6 3.6z" class="st73"></path><path d="M265.5 207.3s-.5-89.6 2.6-98.8c0 0 3 64.2 6.4 83.6 0 0-5.7 7.3-9 15.2z" class="st81"></path><path d="M179.9 216.5c.8-1 1.8-1.8 3.2-1.7 1.5.1 2.9.4 4.4.5 1.4.2 2.8.5 4.1.4 2.3-.3 3.2-1.1 3.7-4.1.4-2.4.8-4.8 1.5-7.1.2-.8 1.1-1.4 1.6-2.1h1.7c.2.2.5.4.6.6.6.8 1.4 1.5 1.6 2.4.6 2.1.7 4.4 1.3 6.5.8 2.9 1.6 3.8 4.9 3.5 1.9-.2 3.8-.6 5.7-.8 1.2-.1 2.4-.5 3.4.6l.9 1.2v1.4c-1.8 2.4-4.5 3.3-7 4.8-1.3.8-2.8 1.5-2.9 3.2-.1 1.1.3 2.4.7 3.4.8 2 1.8 4 2.7 6 .7 1.5.1 3.4-1.4 3.9-.5.2-1.4.2-1.8-.2-1.4-1-2.6-2.1-3.9-3.2-1.1-.9-2.2-1.9-3.4-2.6-2.4-1.5-4.1-.3-5.7 1.2-1.6 1.5-3.1 3.1-4.7 4.6-1 .9-2.5.9-3.4.3-1-.7-1.4-2-.8-3.5.6-1.7 1.4-3.2 2.1-4.9.4-1 .9-2.1 1.1-3.2.4-1.6-.5-3.3-2-4.1-2.2-1.2-4.4-2.3-6.6-3.6-.7-.4-1.2-1.1-1.7-1.6.1-.7.1-1.3.1-1.8zm29.7.2c-.5-.5-1.4-.4-2.2.2h-.2c-1.1-.3-2.2-.6-3.2-1-.2-.1-.5-.2-.6-.4-.4-.9-.7-1.8-1-2.7-.4-1.7-.6-3.4-1-5.1-.3-1.1-.2-2.4-1.6-3-.4-.6-.8-.7-1.2 0-1.8 1.9-1.8 4.3-1.7 6.7-.2.6-.5 1.1-.7 1.7-.5 1.1-.7 2.6-1.5 3.1-1 .7-2.4 1.1-3.8.7-.9-.2-1.9-.1-2.9-.2h-.2c-1.8-.9-3.7-.5-5.5 0v1c.3.5.5 1.3 1 1.5 2.7 1.4 5.4 2.8 8.1 4.1 1.2.6 1.9 1.6 1.4 2.8-.4.9-.8 1.8-1.2 2.6-1 2.2-2.4 4.2-3 6.6-.2.7-.5 1.5.4 2h1c.3-.1.6 0 .8-.2 1.2-1 2.3-2 3.5-3 1.1-1 2-2 3.2-2.9 1.5-1.2 3.1-.9 4.6.4.8.7 1.8 1.1 2.7 1.6.1.3.1.6.2.8 1.2 1.4 2.6 2.4 4.4 3.1.3-.1.7-.1 1-.2.4-.3.8-.4.5-1.1-1.1-2.4-2.2-4.9-3.2-7.4-.4-.9-.5-1.9-.6-2.9 0-.2.4-.4.6-.6.1-.1 0-.2.1-.3.2-.4.2-1 .5-1.2l4.8-3c1.3-.8 2.9-1.3 3.4-3.1-.1-.3-.2-.5-.2-.8-.4-.2-.7-.6-1.1-.7-.9-.1-1.8-.3-2.7-.1-.8.2-1.6.7-2.4 1h-.5z" style="fill:#936847"></path><path d="M189 237.4c-.8-.5-.6-1.3-.4-2 .6-2.4 1.9-4.4 3-6.6.4-.9.8-1.8 1.2-2.6.5-1.2-.1-2.2-1.4-2.8-2.7-1.3-5.5-2.7-8.1-4.1-.5-.3-.7-1-1-1.5.2-.2.5-.4.7-.5-.2-.2-.5-.3-.7-.5 1.8-.5 3.7-.9 5.5 0-.4.2-.9.4-1.3.7-.3.2-.4.6-.6.9l.9.3c.2.2.3.5.5.7.2.3.4.7.7.9 1.1.5 2.2.9 3.2 1.5 1 .5 2 1.1 2.8 1.9.5.5.7 2.1.6 2.1-1 .5-.9 1.5-1.3 2.3-.8 1.7-1.6 3.4-2.4 5-.1.1.1.4.2.5.3.1.6.2 1 .3v-.6c.3-.2.5-.5.8-.7.2.1.6.3.7.2.8-.5 2-.9 2.2-1.6.4-1.1 1.3-1.4 2-2.1.1-.1 0-.2 0-.3-.1-.5-.1-.8.5-.4.2.1.5.1.7 0 .7-.6 1-.1 1.4.3.1.1.2.3.4.4 2.3 1.1 3.8 3.1 5.5 4.9-.6-.2-1.1-.5-1.7-.7-.9-.5-1.9-.9-2.7-1.6-1.5-1.3-3.1-1.6-4.6-.4-1.1.9-2.1 1.9-3.2 2.9s-2.3 2-3.5 3c-.2.2-.5.1-.8.2-.1-.3-.3-.6-.4-.9-.1.3-.3.6-.4.9zm-4.1-18.6c.2-.3.5-.5.5-.7 0-.2-.3-.4-.4-.6-.2.2-.4.3-.4.5-.1.2.1.4.3.8zm6.6 16.1c-.3-.2-.4-.4-.6-.4-.2 0-.3.2-.5.4.2.2.3.4.5.5.2 0 .4-.3.6-.5z" class="st84"></path><path d="m186.8 218.6-.9-.3c.2-.3.3-.7.6-.9.4-.3.9-.5 1.3-.7h.2c.4.2.8.5 1.2.7v.2c-.3.5-.9 1 .3 1.2 0 .3-.1.6-.1 1 0 .1.3.1.5.2l.3-.9c.5.4 1 .8 1.4 1.2.3.2.6.3 1 .5.4.3.5 1.7 1.5.5.3.1.6.2.9.2 0 .3-.1.8 0 .9 1.2.9 1.3 2.1 1.4 3.4-.1.3-.2.6-.3 1 .1.3.1.7.3 1 .1.1.6 0 .8-.1.8-.5 1.5-1.1 2.2-1.6.1-.1.6 0 .7.2 1.3 1.3 2.5 2.6 3.7 3.8.1.1.4-.1.6-.2l1 1c-.8 1 .5 1.1.7 1.6l.5.5c.4.3.8.6 1.2 1-.2.2-.3.5-.5.7-.4-.2-.8-.5-1.2-.7-1.8-1.7-3.2-3.7-5.5-4.9-.2-.1-.3-.3-.4-.4-.4-.4-.8-.9-1.4-.3-.1.1-.5.1-.7 0-.6-.4-.6-.1-.5.4v.3c-.7.7-1.6.9-2 2.1-.2.7-1.4 1.1-2.2 1.6-.1.1-.5-.1-.7-.2-.3 0-.6-.1-.9-.1 0 .3.1.6.1.9v.6c-.3-.1-.7-.1-1-.3-.1-.1-.3-.4-.2-.5.8-1.7 1.6-3.4 2.4-5 .4-.8.2-1.8 1.3-2.3.1-.1-.1-1.6-.6-2.1-.7-.8-1.8-1.4-2.8-1.9-1-.6-2.2-1-3.2-1.5-.3-.2-.5-.6-.7-.9.1-.3.3-.5.4-.8-.1-.1-.4-.1-.7-.1zm7.6 12.1c-.3-.2-.5-.5-.7-.5-.1 0-.4.3-.4.4 0 .2.3.4.4.6.2-.1.4-.2.7-.5zm.7-2.8c-.2.3-.5.4-.5.6 0 .1.3.4.4.4.2 0 .4-.3.6-.4-.1-.2-.3-.4-.5-.6z" style="fill:#9f785c"></path><path d="M206.3 234c.4.2.8.5 1.2.7l1.2.3c-.1.2-.2.4-.2.5h.4c0-.3 0-.6.1-.9v-.5c.1-.2.3-.4.3-.4-.2-.2-.5-.4-.7-.5-.5-1.2-1-2.5-1.5-3.7-.7-1.4-1.5-2.8-2.3-4.2-.3-1.3.3-2.3 1.3-2.9 1.3-.8 2.8-1.3 4.2-2 .9-.5 1.9-1 2.8-1.6.2-.1.3-.5.4-.7.2-.2.5-.4.7-.6-.2-.1-.5-.3-.7-.4-1.1-.1-2.2-.3-3.4-.4.8-.4 1.6-.9 2.4-1 .9-.2 1.8 0 2.7.1.4.1.7.4 1.1.7l-.7.7c.3 0 .6.1.9.1-.5 1.7-2.1 2.3-3.4 3.1-1.6 1-3.3 1.9-4.8 3-.3.2-.4.8-.5 1.2 0 .1 0 .2-.1.3-.2.2-.7.4-.6.6.1 1 .2 2 .6 2.9 1 2.5 2.1 5 3.2 7.4.3.7-.1.8-.5 1.1-.2-.2-.3-.5-.5-.7-.2.3-.3.6-.5.9-1.7-.6-3.2-1.6-4.4-3.1-.2-.2-.1-.5-.2-.8.3.3.9.6 1.5.8z" class="st84"></path><path d="M196.9 211.4c-.2-2.4-.2-4.8 1.7-6.7.4.7.8.6 1.2 0 1.4.5 1.3 1.9 1.6 3 .4 1.7.6 3.4 1 5.1.2.9.6 1.8 1 2.7.1.2.4.3.6.4 1.1.3 2.1.6 3.2 1-.5.2-1.1.4-1.6.5-.6.1-1.3.2-2 .3-1.2-.3-1.4-1.3-1.6-2.3-.6-2.5-1.2-4.9-1.7-7.4 0-.2-.3-.3-.5-.4-.3-.3-.5-.6-.8-.9 0 .4-.1.7-.1 1.1-1 1.6-1.3 3.2-1.2 5.1 0 .7-.5 1.4-.7 2.1 0-.4-.1-.8-.1-1.2-.1-.8 0-1.6 0-2.4z" class="st86"></path><path d="M203.6 217.7c.7-.1 1.3-.1 2-.3.6-.1 1.1-.3 1.6-.5h.2c.7-.1 1.4-.2 2.2-.2h.2c1.1.1 2.2.3 3.4.4v1c-.1.2-.2.6-.4.7-.9.6-1.8 1.1-2.8 1.6-1.4.7-2.9 1.2-4.2 2-1 .6-1.6 1.6-1.3 2.9-.6-.5-1.3-1-1.9-1.5-.6-.6-.2-1 .4-1.3.9-.5 1.8-1.3 2.6-1.9h.9c.5-.2 1-.5 1.5-.7.3-.2.6-.3 1-.5.5-.2 1-.3 1.4-.5.3-.2.6-.3 1-.5l.6-.6c-.2-.1-.4-.3-.7-.4-1.8-.4-3.5.2-5.3.6-.7.3-1.6.6-2.4-.3z" style="fill:#9f775b"></path><path d="M196.9 211.4c0 .8-.1 1.6-.1 2.4 0 .4.1.8.1 1.2 0 .9.1 1.7 0 2.6 0 1.1-.8 1.4-1.7 1.2-1-.2-1.9-.5-2.9-.7-.3-.2-.6-.6-.9-.7-.7-.1-1.4 0-2.2 0-.4-.2-.8-.5-1.2-.7 1 0 2-.1 2.9.2 1.4.4 2.8 0 3.8-.7.8-.6 1-2 1.5-3.1.2-.5.5-1.1.7-1.7z" style="fill:#9d714f"></path><path d="M209.6 216.7c-.7.1-1.4.2-2.2.2.8-.6 1.7-.7 2.2-.2z" class="st86"></path><path d="M199.8 204.7c-.4.6-.8.7-1.2 0 .4-.6.8-.6 1.2 0z" class="st89"></path><path d="M182.3 216.7c.2.2.5.3.7.5-.2.2-.5.4-.7.5v-1z" style="fill:#d58840"></path><path d="M216.3 217.2c-.3 0-.6-.1-.9-.1l.7-.7c.1.3.2.6.2.8z" style="fill:#d38640"></path><path d="M209.2 237.1c.2-.3.3-.6.5-.9.2.2.3.5.5.7-.4.1-.7.1-1 .2z" style="fill:#d1853f"></path><path d="M189 237.4c.2-.3.4-.6.5-.9.1.3.3.6.4.9-.3-.1-.6 0-.9 0z" class="st89"></path><path d="M184.9 218.8c-.2-.3-.4-.6-.4-.8 0-.2.3-.3.4-.5.2.2.4.4.4.6 0 .1-.2.3-.4.7z" class="st93"></path><path d="M186.8 218.6h.9c-.1.3-.3.5-.4.8-.2-.3-.3-.5-.5-.8z" class="st94"></path><path d="M192.1 233.3c0-.3-.1-.6-.1-.9.3 0 .6.1.9.1l-.8.8z" style="fill:#d78b43"></path><path d="M191.5 234.9c-.3.2-.5.5-.6.5-.2-.1-.3-.3-.5-.5.2-.1.3-.4.5-.4s.3.2.6.4z" class="st96"></path><path d="M192.3 218.2c1 .2 1.9.5 2.9.7.9.2 1.7-.1 1.7-1.2v-2.6c.3-.7.7-1.4.7-2.1 0-1.8.3-3.5 1.2-5.1.3-.1.6-.2.9-.2.2.1.4.3.5.4.6 2.5 1.1 4.9 1.7 7.4.2.9.5 2 1.6 2.3.8.9 1.7.6 2.6.4 1.7-.4 3.5-1 5.3-.6.2 0 .4.3.7.4l-.6.6c-.3-.1-.6-.3-.9-.4 0 .3-.1.6-.1.9-.5.2-1 .3-1.4.5-.3-.2-.6-.4-.8-.6 0 .4-.1.7-.1 1.1-.5.2-1 .5-1.5.7-.2-.3-.5-.6-.7-.9-.1.3-.2.6-.2.9-.9.7-1.7 1.4-2.6 1.9-.7.4-1 .7-.4 1.3.6.6 1.2 1 1.9 1.5.8 1.4 1.6 2.8 2.3 4.2.6 1.2 1 2.4 1.5 3.7v.7h-.5c-.4-.3-.8-.6-1.2-1 .2-.2.5-.4.7-.6l-.5-.5c-.2.2-.4.5-.6.7-.2-.6-1.5-.7-.7-1.7.2-.5-.4-1.6-.9-1.5 0 0-.1.4-.1.6-.2.1-.5.2-.6.2-1.3-1.3-2.5-2.6-3.7-3.8-.2-.2-.6-.3-.7-.2-.8.5-1.5 1.1-2.2 1.6-.2.1-.7.2-.8.1-.2-.3-.2-.6-.3-1 .3-.1.6-.1.9-.2-.2-.3-.4-.5-.7-.8-.1-1.3-.2-2.6-1.4-3.4-.2-.1 0-.6 0-.9-.1-.3-.1-.6-.2-.9-.2.2-.5.4-.7.7-.9 1.2-1-.2-1.5-.5 0-.4-.1-.7-.1-1.1-.3.2-.6.4-.8.6-.5-.4-1-.8-1.4-1.2-.2-.1-.5-.2-.7-.2-1.1-.2-.6-.7-.3-1.2.8-.1 1.8.1 2.8.3zm6.4-7.3c0 .6-.1 1.1-.1 1.5 0 .2.4.3.7.4.1-.2.4-.5.3-.6-.2-.4-.5-.8-.9-1.3zm1.3 4.1c-.4-.3-.6-.5-.8-.6-.2 0-.6.4-.5.5.1.2.3.5.5.6.1 0 .4-.3.8-.5zm-2.2 6.9c-.4-.3-.6-.6-.7-.6-.2.1-.4.3-.6.5.2.2.3.5.5.5.2.1.4-.1.8-.4zm2.1-4.4c-.4-.2-.6-.5-.7-.5-.2 0-.5.3-.5.5s.3.6.4.5c.2 0 .4-.3.8-.5zm4.6 11c-.4-.3-.6-.5-.8-.6-.1 0-.5.3-.4.5 0 .2.3.5.5.5.1 0 .3-.2.7-.4zm-2.4-7c-.4-.2-.6-.5-.8-.4-.2 0-.4.3-.5.4.2.2.3.4.5.4.2.1.4-.2.8-.4zm-2.4-11.6c-.3-.2-.5-.5-.7-.5-.1 0-.4.3-.4.4 0 .2.3.4.4.6.2-.2.4-.3.7-.5zm4.8 10.8c-.4-.1-.6-.3-.8-.3-.2 0-.3.3-.4.5.2.1.4.3.6.4l.6-.6zm-3.6 2.8c-.2.3-.4.4-.6.6.2.2.3.4.5.5.1 0 .5-.3.5-.4 0-.2-.2-.4-.4-.7zm-2.1.8c-.3-.2-.5-.4-.7-.3-.1 0-.4.4-.4.4.1.2.3.4.5.4.1.1.3-.2.6-.5zm4.2 2c-.4-.2-.6-.4-.8-.4-.2 0-.3.3-.5.4.2.2.4.4.6.4.2.1.4-.2.7-.4zm-3.2-6c-.1-.1-.2-.2-.2-.4-.2-.1-.4-.3-.5-.3-.2.1-.3.4-.4.5.2.1.4.3.5.3.2.1.4 0 .6-.1zm.1 2c-.3-.2-.4-.4-.6-.5-.2.2-.4.4-.4.6 0 .1.3.5.4.4.2 0 .4-.2.6-.5z" style="fill:#a17c63"></path><path d="M192.3 218.2c-1-.2-2.1-.3-3.1-.5v-.2c.7 0 1.5-.1 2.2 0 .3 0 .6.4.9.7z" class="st84"></path><path d="M204.6 229.9c0-.2.1-.6.1-.6.5 0 1 1 .9 1.5-.4-.2-.7-.5-1-.9z" style="fill:#d48a41"></path><path d="M191.6 220.3c.3-.2.6-.4.8-.6 0 .4.1.7.1 1.1-.2-.2-.6-.3-.9-.5zM206.2 232.6c.2-.2.4-.5.6-.7l.5.5c-.2.2-.5.4-.7.6 0-.1-.2-.3-.4-.4z" class="st99"></path><path d="M207.9 234h.5c.2.1.3.2.5.3v.5c-.1.1-.2.2-.2.3l-1.2-.3c.1-.3.3-.6.4-.8z" style="fill:#cf8542"></path><path d="M196.4 225.9c.2.3.4.5.7.8-.3.1-.6.1-.9.2 0-.4.1-.7.2-1z" class="st93"></path><path d="M194.4 230.7c-.3.2-.5.4-.7.5-.1-.2-.4-.4-.4-.6 0-.1.3-.4.4-.4.2.1.4.3.7.5z" style="fill:#d28640"></path><path d="M189.5 218.9c.2.1.5.2.7.2l-.3.9c-.2-.1-.5-.1-.5-.2 0-.3 0-.6.1-.9z" class="st102"></path><path d="M194 221.3c.2-.2.5-.4.7-.7.1.3.1.6.2.9-.2-.1-.6-.2-.9-.2z" style="fill:#d38741"></path><path d="M195.1 227.9c.2.3.4.4.5.6-.2.2-.4.4-.6.4-.1 0-.5-.3-.4-.4.1-.2.3-.4.5-.6z" class="st104"></path><path d="M213.2 218.2v-1c.2.1.5.3.7.4-.2.2-.5.4-.7.6z" style="fill:#d68942"></path><path d="M208.9 234.2c-.2-.1-.3-.2-.5-.3v-.7c.3.2.5.3.7.5.1.1-.1.4-.2.5zM208.7 235c.1-.1.2-.2.2-.3 0 .3 0 .6-.1.8h-.4c.1-.2.2-.3.3-.5z" class="st84"></path><path d="M199.8 207.6c-.3.1-.6.2-.9.2 0-.4.1-.7.1-1.1.2.3.5.6.8.9z" style="fill:#cb8541"></path><path d="M208.2 219.8c0-.4.1-.7.1-1.1.3.2.6.4.8.6-.3.2-.6.4-.9.5z" style="fill:#cb8340"></path><path d="M210.6 218.9c0-.3.1-.6.1-.9.3.1.6.3.9.4-.4.2-.7.3-1 .5zM205.8 220.6c.1-.3.2-.6.2-.9.2.3.5.6.7.9-.3-.1-.6-.1-.9 0z" class="st108"></path><path d="M198.7 210.9c.4.5.7.9.9 1.3.1.1-.2.4-.3.6-.2-.1-.6-.2-.7-.4 0-.4 0-.9.1-1.5z" style="fill:#cc8541"></path><path d="M200 215c-.4.3-.6.6-.8.5-.2-.1-.5-.4-.5-.6 0-.1.4-.5.5-.5.2 0 .4.3.8.6z" style="fill:#cc8342"></path><path d="M197.8 221.9c-.4.2-.6.5-.9.5-.2 0-.3-.3-.5-.5.2-.2.4-.5.6-.5.2-.1.5.2.8.5z" style="fill:#cd8744"></path><path d="M199.9 217.5c-.4.3-.6.5-.9.6-.1 0-.4-.4-.4-.5 0-.2.3-.5.5-.5.2-.1.5.1.8.4z" class="st104"></path><path d="M204.5 228.5c-.4.2-.6.5-.8.4-.2 0-.5-.3-.5-.5s.3-.5.4-.5c.3 0 .5.3.9.6z" style="fill:#d18743"></path><path d="M202.1 221.5c-.4.2-.6.5-.8.4-.2 0-.3-.3-.5-.4.2-.2.3-.4.5-.4s.4.2.8.4z" style="fill:#d08540"></path><path d="M199.7 209.9c-.3.2-.5.4-.7.5-.1-.2-.4-.4-.4-.6 0-.1.3-.4.4-.4.2 0 .4.2.7.5z" class="st108"></path><path d="M204.5 220.7c-.3.3-.5.5-.6.5-.2 0-.4-.2-.6-.4.1-.2.3-.5.4-.5.1.1.4.2.8.4z" class="st102"></path><path d="M200.9 223.5c.2.3.4.5.5.7 0 .1-.3.4-.5.4-.2-.1-.4-.3-.5-.5.1-.1.2-.3.5-.6z" style="fill:#d18642"></path><path d="M198.8 224.3c-.3.3-.5.5-.6.5-.2 0-.4-.2-.5-.4 0-.1.2-.4.4-.4.1 0 .3.1.7.3z" class="st96"></path><path d="M203 226.3c-.3.2-.5.5-.7.5-.2 0-.4-.3-.6-.4.2-.2.3-.4.5-.4.2-.1.5.1.8.3z" class="st108"></path><path d="M199.8 220.3c-.2.1-.4.2-.7.2-.2 0-.4-.2-.5-.3.1-.2.3-.5.4-.5.1-.1.3.2.5.3l.3.3z" class="st94"></path><path d="M199.9 222.3c-.3.2-.4.5-.6.5-.1 0-.4-.3-.4-.4 0-.2.3-.4.4-.6.2.2.3.3.6.5z" style="fill:#d38740"></path></svg>