<svg xmlns="http://www.w3.org/2000/svg" xml:space="preserve" id="Capa_1" x="0" y="0" style="enable-background:new 0 0 512 512" viewBox="0 0 512 512"><style>.st3{fill:#fff}.st19{fill:#020303}.st62{stroke:#020203;stroke-width:.433;stroke-miterlimit:10}.st62,.st63{fill:#848ea0}.st64{fill:#020203}.st67{fill:#737373}.st69{fill:#4f4f4f}.st70{fill:#777778}.st72{fill:#848ea0;stroke:#040405;stroke-width:.142;stroke-miterlimit:10}</style><path d="M262.4.1c9.3 10.6 17.7 22 25.2 33.8 9.7 15.2 17.9 31.3 23.9 48.4 3.4 9.7 6.1 19.6 7.5 29.8 1.8 12.4 2.8 24.8-1.8 37.1s-11.5 23-21.1 31.9c-4 3.7-8.4 6.8-13 9.7-1.2.7-2.8 1.5-3.8.4-1-.9.3-2.1.7-3.1 3.2-6.3 5.6-13 5.3-20.4-.3-7.7-3.4-13.9-8-19.6-5.5-6.8-12.5-12-18.5-18.3-8.9-9.6-15.7-20.5-17-33.8-1-9.4 1.6-18.3 7.4-26 4.1-5.6 9.4-10.2 14.9-14.6l7.1-5.6c1.9-1.5 3.5-1 4.9.9s.4 3-1.3 4.3c-6.9 5.3-13.4 10.9-16.7 19.5-4.3 11.4-3 22.1 3.4 32.3 4 6.3 9.3 11.8 14.3 17.6 7.7 9 15.7 18 20.2 29.2 1 2.5 1.8 2.2 3.5.4 7.2-7.4 10.9-16.5 12.5-26.4 1.9-11.4-.4-22.3-4-32.9-4.9-14.5-10.3-28.6-17.6-42.1-5.4-10.5-12.2-20.3-19.8-29.6-3-3.5-5.8-6.9-9-10.2-1.8-1.8-3.1-2.1-5.3-.4-9.7 6.5-19.2 13.3-27 22.1-7.2 8.1-13.4 16.8-16.1 27.9-2.1 8.7-.6 16.8 3 24.7 5.5 12.1 13 23 21.4 33.4 7.7 9.3 16.5 17.6 23.3 27.6 5.5 8.1 10.3 16.5 12.8 26.3 3.1 11.8.3 22.1-8.3 30.9-5.5 5.5-10.9 10.8-17.3 15.2-1.5 1-3.1 2.4-5.5 1.6 2.7-3.4 5.3-6.6 7.5-10 3.5-5.3 5.3-11.4 6.1-17.9 1.8-14.5-4.4-26.3-12.4-37.6-4.1-5.8-9.4-10.3-14.2-15.4-10.9-11.8-21-24.2-27.9-38.8-4-8.3-6.8-17-7.7-26.3-1.2-13.6 3.2-25 12.3-34.8 14.8-16.1 32.8-28.1 51.2-39.3.9-.6 1.6-1.2 2.4-1.9h2.5z" style="fill:#fac722"></path><path d="M365.4 321.4c-10.6-5.2-19.8-12.4-28.9-19.5-7.2-5.8-14.3-11.8-20.7-18.3-11.8-12.1-22.9-25-31-39.9-5.6-10.6-7.8-22.1-5.2-34.4 3.1-14 11.5-23.6 23.3-30.9 9.4-5.8 19.3-10.2 30.3-12.3 8.1-1.6 16.2-1.9 24.5-.6 11.2 1.8 21 6.2 28.3 14.8 9.9 11.5 17.4 24.4 19.6 39.7.9 5.6 1 11.2.6 16.8-.1 1.9-1.2 3.5-2.2 5-1.2 1.8-3.5 1.2-4.1-1.2-1.5-5.2-1.6-10.5-2.1-15.8-.6-8.9-2.5-17.4-7.4-25-5.9-9.3-14.5-14.8-25.1-17-14.8-3.1-29.2-.9-43.3 4.4-8.3 3.1-16.4 6.1-23.6 11.5-7.8 5.9-13.1 13-11.8 23.3.7 5.9 4 10.8 8 15.2 12 13 26 23.6 40.3 34 8.4 6.2 17 12.1 24.7 19 6.9 6.2 12.4 13.7 11.4 23.9-.3 2.8-1 5.3-3.2 7.4-.8-.1-1.6-.1-2.4-.1zm78.5-159.7-1.9 8.6c-2.2 11.1-7.2 20.8-14.2 29.5-4 5-8.7 9.4-13.6 13.7-1.9 1.6-3.4 2.1-5.3.6-1.8-1.5-2.8-3.2-2.4-5.6.6-3 2.7-4.9 4.9-6.8 10.8-9.2 20.4-19.3 25.5-32.8 3.5-9 3-17.4-4-25.2-7.8-8.9-17.3-13.7-28.9-15.4-8.4-1-16.8-.9-25.2 0-13.7 1.3-26.7 5.3-39.7 9.6-1.9.6-3.7 1.9-6.3 1.9l7.7-11.1c8-11.5 14.8-23.6 18.8-37.2 1.2-4 2.5-8.1 3-12.3.7-6.5-1.3-12.4-5.9-17.1-10.9-11.7-24.7-17.9-40.2-20.7-6.1-1-12.3-1.9-18.5-1.8-3.1 0-3.1-2.2-3.7-4.1-.3-1.2.7-1 1.5-1 9.3 1.2 18.8 2.1 27.9 4.4 13.6 3.5 26.3 8.9 36.6 18.6 5.5 5.2 8.3 12 9.3 19.5 2.2 14.8-2.7 27.8-9.9 40.3-1.9 3.4-4.1 6.6-6.5 10.5 4.1-1 7.7-1.8 11.2-2.8 7.8-2.2 15.8-3.1 23.9-4 9.2-.9 18 0 26.4 2.8 12.8 4.3 23.2 12 28.5 25.2.1.4.1 1.3 1 1.5v11.2zM61.4 181.5c1-.7 1.6-.7 2.2.6 5.2 10 13.7 16.5 23.5 21.9 8.3 4.4 16.8 8 24.8 12.8 2.4 1.3 4.4 3.1 5.6 5.6.9 1.8 1.3 3.7.1 5.3-1.2 1.9-3.4 1.3-4.9.9-3.2-1-6.6-2.4-9.7-3.8-10.6-5-20.1-11.5-27.9-20.2-5.3-5.9-9.3-12.7-12.4-19.9-.3-.9-.4-1.8-1.3-2.4v-.8zm110-60.7c18.6 0 35.7 5.2 50.6 16.2 11.7 8.7 19.3 20.2 21.4 35.3 1.9 14-.7 26.6-9.7 37.8-6.9 8.6-14 17-21.7 25-12.5 12.8-26 24.5-40.6 34.8-3.4 2.4-6.6 5-10.2 6.9-2.1 1.2-3.4.3-3.2-1.5.3-8.6.3-17.4 7.8-23.3 3.2-2.7 7.2-4.4 10.8-6.6 10.9-6.8 21.4-13.7 31.2-22.1 7.1-6.1 13.9-12.3 19.5-19.5 8.3-10.6 8.9-21.9 4-34-2.7-6.8-6.2-12.8-11.2-18-7.1-7.4-15.9-11.7-26.1-13-10.9-1.3-21.6-.6-31.9 2.8-9.2 3-16.5 8.4-19.8 18.3-.1.3-.4.6-.4.9.3 3.1-.3 6.1-3.1 7.7-4.6 2.8-9 6.1-14.6 6.3-2.1.1-2.8-.7-2.8-2.8.9-16.1 5.2-30.7 18.3-41.2 6.2-5.2 13.7-7.8 21.7-9.2 3.3-.8 6.6-.7 10-.8zm36.3-84c-1.8 4.4-5.2 6.3-9.2 7.4-20.8 5.3-41.5 11.3-61.5 19.4-10.5 4.3-21.3 8.6-30 15.9-5.8 4.9-8.9 10.9-5 19.3 4 8.4 10.5 14 17.6 19.5 4.7 3.5 9.4 7.1 14.8 9.6 1.8.9 2.2 2.1.6 4-3.1 3.8-3.2 4.7-7.5 1.6-6.2-4.3-12.4-8.6-17.6-13.9-6.8-7.1-12.1-15.1-13.9-25-.9-5 .9-10 3.5-14.2 5.9-9.6 14.6-16.4 24.5-21.7 13.7-7.5 28.3-12.7 43.6-16.4 8.7-2.1 17.7-3.7 26.6-4.9 4.3-.2 8.7-1.2 13.5-.6zm-84 107c1.2.1 2.4-.1 1.8 2.2-1.2 4.4-2.5 7.4-9.7 8.1-10.9 1.2-21.7 4.1-32 8.3-6.2 2.5-12.1 5.5-17.7 8.9-.9.6-2.2 1.5-3.2.6s.1-2.1.6-2.8c2.7-4.3 6.6-7.4 11.1-9.9 12.3-7.1 25.5-10.8 39.3-13.3 3.1-.8 6.4-1.5 9.8-2.1zm35.4 0c1.6 0 2.8 1.2 3.8 2.1 4.4 3.1 8.7 6.3 13 9.6.4.4 1.2.9.7 1.5-.3.7-1 1-1.9.9-7.8-1.5-15.8-2.2-23.8-3.2-2.8-.4-.4-2.4 0-3.1 1.9-2.7 4.9-4.4 6.6-7.2.7-.7 1.3-.4 1.6-.6z" style="fill:#e2272a"></path><path d="m203.1 178.5-5.2-5.9-7.8.9 4-6.8-3.4-7.1 7.8 1.6 5.8-5.3.7 7.8 6.9 3.8-7.2 3.2-1.6 7.8zm159 37.4-6.1-5.2-7.7 2.2 3-7.4-4.3-6.6 7.8.6 5-6.2 1.9 7.7 7.4 2.8-6.8 4.1-.2 8z" style="fill:#fbc821"></path><path d="M223.2 305.9c-.6-5.3-1-10.6-1.3-15.9-.3-6.2 2.5-10.5 8-13.1 1.3-.3 2.7 0 3.8.4 9.2 3.5 18.5 3.4 27.8.3 1.3-.4 2.5-.6 3.8-.3 4.9 2.7 7.2 6.6 7.1 12.3-.1 4.6-.6 9.3-1 13.9-.6 5.6-1.6 11.2-3.4 16.7-.1.6-.4 1.3-.7 1.9-.1.4-.6.7-1.2.7-.6-.1-.9-.4-.9-1 0-3-.7-5.9.1-8.9.9-3 1.6-6.1 2.1-8.1-.3 1.2-.7 3.4-1.5 5.5-1 3.4-1.3 6.8-1.3 10.3 0 4.1.3 8.1-.3 12.3-.7 5-3.1 9-8.1 10.8-.7.1-1.5.6-2.2.7.7-.1 1.3-.4 2.1-.6 2.1-.7 3.7-1.9 5.3-3.4.4-.4.9-.7 1.3-1.2.4-.4.9-.7 1.6-.4.6.3.7.9.6 1.5-.1.6 0 1.2.1 1.9 0 .7-.7 1.3-.6 2.2 0 .7-.3 1.5-.9 2.1-1.9.4-2.7 2.2-3.7 3.7-.1.1-.4.3-.6.4-.7 0-1.5.4-2.2.6-1.6.6-3.2.9-5 .9-4.4-.1-8.9.4-13.3-.3-1.9-.3-3.7-.7-5.3-1.8-3.5-2.4-4.4-5.8-4.3-9.6.1-1.5 1-1.8 2.2-.7 1 .9 1.8 1.9 2.8 2.7 1.8 1.2 3.7 2.1 5.8 2.7 1.3.3 2.7.7 3.8.6-1 .1-2.2-.3-3.5-.6-7.1-1.8-10.3-6.1-10.5-13.4-.1-5.2 0-10.3-.3-15.4 0-.9-.1-1.8-.4-2.7-1-3.5-1.6-7.1-2.5-10.2.9 3.2 1.6 7.1 2.7 10.9.7 2.7.1 5.6-.1 8.4 0 .4-.3.9-.7.9-.6.1-.9-.3-1.2-.9-1-2.4-1.6-4.9-2.2-7.2-.8-3.7-1.5-6.6-1.8-9.6z" class="st62"></path><path d="M265.7 246.7c-.1-1-.1-1.9 0-2.8-.1-.7-.3-1.5 0-2.4 0-1.2-.1-2.2 0-3.4-.3-1 0-1.9.1-3-.1.3-.1.1-.6-.3l1.5-16.5c.3-2.4.3-2.4-1.9-2.8l-9.2-1.8c-2.4-.3-2.8.1-2.8 2.5v6.3l-2.1-12c-.3-1.6-.6-3.4-1.5-4.9-.7-1.3-1.3-1.3-2.1 0-1.2 2.1-1.3 4.3-1.8 6.5l-1.9 12c-.1.6-.1 1.2-.7 1.9l.6-7.2c0-.4 0-.9.1-1.5 0-3.8-.4-4.3-4.1-3.4L232 216c-1.8.3-1.9 1.3-1.8 2.8.9 6.1 1.3 12 1.6 18 .6 8.9 0 17.6-1.6 26.3-.7 3.8.1 6.3 3.7 7.8 1.2 1.3 2.8 1.8 4.4 2.1 8.4 1.3 16.8 2.2 24.8-2.1.1-.3.3-.3.6-.3 4.3-1.9 4.3-2.8 4-6.2-.8-6-1.6-11.8-2-17.7z" class="st63"></path><path d="M266.1 192.2c1.3 3.8.9 7.7-.1 11.4-.3 1-1 1.2-1.9.9-6.5-1.6-13.1-1.9-19.9-1.6-3.8.1-7.5.9-11.2 1.8-.7.1-1.5.4-1.8-.6-1.2-4-1.8-8-.1-12 1.3-.6 2.7-.4 4.1-.4 9.9-.4 19-.9 28.9-.1.4-.1 1.4 0 2 .6z" class="st62"></path><path d="M233.7 270.8c5.2 1.8 10.3 2.5 15.7 2.2 4.1-.1 8.3-.6 12.3-2.1.4-.1 1.5-.4 1.9-.6-.7.6-2.7 1-2.7 2.7s.3 2.7 2.1 3.1c.7.1 1.5.3 2.2.7-1.3 0-7.4 1.8-11.2 2.5-7.2 1.3-13.4.4-20.2-2.1-1.2-.4-3.2-.6-4.6-.6 1.2-.4 1.5-.6 2.7-.9.3-.1 1.6-.4 1.8-.9.3-1.2.7-2.7 0-4z" class="st64"></path><path d="M240 344.4c-3.8-.9-7.2-2.5-9.9-5.6-1.2 5.3 1.6 9.7 6.3 11.2 4.6 1.3 9.3.9 13.9.9 2.4 0 4.6-.4 6.8-.7 1 1 .9 1.2-.3 1.9-1.2.6-2.5.4-3.8.6-3.8-.1-7.8-.1-11.7 0-2.2-.1-4.6-.3-6.8-1-4.3-1.2-6.8-4.4-6.9-8.9 0-1.3-.1-2.8.1-4.1.4-2.4-.1-4.7 0-7.1.1-4.6-1.3-8.6-2.4-12.8-.9-3.4-1.5-6.9-2.1-10.5-.1-.9 0-1.6-.1-2.5l2.2 9.4c.6 2.5 1.5 4.7 2.7 7.1.3-3.4.9-6.8 0-10.2l-2.7-12.8c.9.9 1 1.6 1.2 2.4l2.7 9.4c1.5 5 1 10.3 1.2 15.5 0 2.5 0 4.9.4 7.2 1 5.5 4.3 8.9 9.6 10.3 0 .3 0 .5-.4.3z" style="fill:#030304"></path><path d="M266.3 233.9c.6-8.6 2.5-17.4 2.1-26.4 0-.6-.1-1.2.7-1.2.3.1.6.3.9.3 2.4 1 2.7 1.6 2.4 4.1 0 .6-.1 1-.1 1.6-.3 2.1-.4 4.3-1 6.3-.3 1.5-1.3 2.8-.3 4.3-.3 3.4.7 6.6.4 10 0 2.4.3 4.7.4 6.9 0 2.5 0 5.2-.7 7.7-.6 1.6-2.1 2.8-3.5 2.8-1 0-1.6-.4-1.8-1.5 0-1.2-.4-2.4-.3-3.7.3-.9 0-1.8 0-2.7.1-1.2 0-2.2 0-3.4.3-1.4.6-3.5.8-5.1z" class="st62"></path><path d="m228.8 205.8-.4 1.6c-.4 7.2.9 14.3 1.3 21.6.4 6.3 1.2 12.7.6 19-.1 1.5.1 2.2-1.2 1.6-1-.4-2.4-1.9-2.7-3-1.2-3.8-.9-7.8-.6-11.8.3-3.5.6-6.9.6-10.5 0-1 0-2.1.6-3 .1-.3.4-.6.1-.9-1.8-1.8-1.3-4.1-2.1-6.2l-.4-3.8c-.3-2.4 0-3 2.1-3.8.5-.2 1.6-.6 2.1-.8z" class="st63"></path><path d="M228.8 205.8c-.3.9-.3 1.6-.3 2.5v2.5c0 1.7.1 3.5.4 5.2l1.2 10.2.9 10.3c.3 3.4.4 6.9.1 10.3l-.1 1.3v1.3c0 .1 0 .3-.1.6 0 .1-.1.3-.3.4-.2.2-.4.3-.6.3-.7 0-.9-.1-1.2-.3-.4-.1-.9-.6-1.3-.9-.7-.6-1.3-1.3-1.9-2.4-.3-.6-.3-.9-.4-1.3-.1-.4-.1-.9-.3-1.3-.6-3.5-.3-7.1 0-10.5l.7-10.2c0-.9.1-1.9.7-2.8.1-.1.3-.3.3-.4v.1l-.1-.1c-.1-.1-.3-.4-.4-.6-.2-.2-.3-.4-.3-.6-.7-1.8-.6-3.5-1.2-5l-.1-2.8c0-.9-.1-1.8-.1-2.8 0-.4.3-1 .6-1.3.3-.3.7-.6 1.2-.7.8-.4 1.7-.7 2.6-1zm0 0-2.5 1.2c-.4.3-.7.4-1 .7-.3.3-.4.7-.4 1.2 0 .9.1 1.8.3 2.7l.4 2.8v-.1c.7 1.8.6 3.5 1.3 4.9.1.3.3.6.6.9l.3.3c.1.3.1.6 0 .7-.1.3-.3.6-.4.7-.3.6-.4 1.3-.4 2.1.1 1.8 0 3.5 0 5.2l-.3 5.2c-.3 3.4-.4 6.8 0 10 .1.4.1.7.3 1.2.1.4.1.9.3 1 .3.6.9 1.2 1.3 1.6.3.3.6.4.9.6.1.1.3.1.1.1s-.4.3-.4.3c0 .1 0 0 0 0l.1-1.2.1-1.3c.3-3.4.1-6.8 0-10.2l-.6-10.2-.7-10.3v-5.2c0-.9 0-1.8.1-2.5.1-.8.3-1.6.6-2.4z" class="st64"></path><path d="M266.3 338.7c0 .6 0 1.2.3 1.6-.7.6-.6 2.2-2.2 1.6 0-.9.1-1.9-.1-3.1-2.4 2.5-4.9 4.3-8.1 5-.1-.1-.1-.3 0-.4 5.8-2.7 7.7-7.5 7.8-13.3.1-2.7.1-5.5 0-8.1-.3-5.3.7-10.5 2.5-15.5.6-1.9 1-3.8 1.9-5.8.1 1.6-.3 3.2-.6 4.9l-1.8 8c-.6 2.8 0 5.6.4 8.6l1.8-4.7c1.3-4.3 2.4-8.6 2.8-13 0-.3.1-.7.3-1 0 4.3-.9 8.4-1.8 12.5-.6 2.7-1.2 5.5-2.2 8-.6 1.5-.7 3.1-.7 4.7.1 3.2-.9 6.6-.3 10z" style="fill:#050606"></path><path d="M257 352.1c.6-.6.3-1.3.3-1.9.6-.1 1.3-.4 1.9-.6.7.6.4 1.5.4 2.2-.1.1-.3.1-.4 0-.6.1-1.2.3-1.6.3h-.6zm-15.7-1.3c1.8-.6 3.5-.3 5.2-.3 2.2 0 4.3-.3 6.5.3h-11.7z" class="st64"></path><path d="M259.5 351.7c-.7-.6-.6-1.3-.3-2.2l.3-.3c1.3-1 2.5-2.2 3.5-3.5l.9-1.6c.4-.3.6-.9 1-1.3.4-.6 1-1 1.9-.6.9 1 .4 2.4 0 3.4-.7 2.8-2.5 4.9-5.2 6.2-.6.2-1.4.6-2.1-.1z" class="st64"></path><path d="M266.4 342.2c-.9.6-1.3 1.8-2.5 1.9.1-.7.3-1.5.3-2.2.9-.4 1.2-1.3 2.2-1.6v1.6c.2.2.2.2 0 .3zm-33.2-37.9c1 .7 1.9.9 2.8 0 .1 1.2-.3 1.8-1.2 1.8-.8.1-1.4-.5-1.6-1.8zm25.4 0c1 .6 1.9.7 2.8 0 .1 1-.3 1.5-1.2 1.6-1 .2-1.6-.1-1.6-1.6z" class="st64"></path><path d="M263 345.8c-.6 1.8-1.9 2.8-3.5 3.5 1-1.3 1.9-2.8 3.5-3.5zm-17.5-13.2c.3-.7.4-1.8 1.6-.9.7.4.6 1 0 1.3-.6.5-1.3.5-1.6-.4z" class="st63"></path><path d="M245.5 332.6c.4.3 1 .6 1.5.1.4-.3.1-.7 0-1 1 .1.7.9.6 1.5-.3.6-.9.9-1.5.6-.3-.3-1.4-.3-.6-1.2zm-5.5 11.8.3-.3c1.3.3 2.7.7 4 .7-1.3.4-2.8.2-4.3-.4zm16-1v.4c-1.2.6-2.2.9-4 .7l4-1.1z" class="st64"></path><path d="M251.4 241.7c-2.2-.7-4.7-.1-7.2-.1s-4.6-1-5.8-3.2c-.6-1.2-.3-1.9 1-2.1 1.5-.1 3-.1 4.3.6 2.8 1.6 5.6 1.6 8.4 0 1.3-.7 2.8-.7 4.3-.4 1.3.1 1.6.9.9 2.1-1.1 1.9-3.1 2.9-5.9 3.1z" class="st19"></path><path d="M244.3 247.6c2.4-.4 4.8-.4 7.2 0-2.3.7-4.9.6-7.2 0z" class="st67"></path><path d="M271.9 238.3c0-1.8-.3-2.4-.4-4.1 0-.3.1-1 .1-1.3v-.1c-.1-1.2 0-4.1 0-4.9.3-2.8-1.2-5.6-.1-8.6.7-2.1.9-4.6.7-6.9l-1 5.2c-.4 2.1-1.2 3.8-.7 6.3.6 2.8.3 6.1.6 9l.1 3.5c.3 3.5.3 7.1-.6 10.5-.3 1.3-1 2.4-2.4 2.7-1 .3-2.4.1-2.4-1.2 0-1 0-1.6-.1-2.7v-5.8c.1-.1.1-1.8.3-1.9.1-1.3.1-1.8.1-3 0-.6.3-1.9.4-2.4.4-2.8.4-4.6.7-7.5.7-6.2 1.2-11.8 1.2-18.3 0-1.9-.1-2.5-.4-4-.3-2.8-.6-5.2-1.2-7.8-.1-.9-.3-1-.7-2.7l.7 3.5c.1 2.5-.1 3.8-.6 6.3-.3 1.6-1.6 1.6-3.2 1.5-.6 0-1-.1-1.6-.3-4.7-1-9.6-1.3-14.3-1.2-4.4.1-8.9.4-13.1 1.6-1.6.4-3 .6-3.2-1-.4-2.2-.9-5.2-.4-7.5.1-.9.3-1.8.6-3-.4.9-.7 1.6-.9 2.5-.4 2.5-.7 3.5-.7 6.2 0 1.5-.1 2.7-.3 4.7-.1.4-.6 1.5-.6 2.8 0 3 .1 4.7.4 7.7.4 3.8.7 7.8 1 11.7.3 3.8.3 7.4.6 11.2.1 2.2.3 5.2 0 7.4 0 .6-.4 6.2-.4 6.9 0 .6-.1 1-.1 1.6l-1.3 10.5c-.1 1 0 2.1.7 2.8 1.3 1.3 2.8 2.2 4.6 2.5-3.5-1.5-4.4-4-3.7-7.8 1.6-8.7 2.1-17.4 1.6-26.3-.4-6.1-.7-12.1-1.6-18-.3-1.5 0-2.5 1.8-2.8 2.5-.6 4.9-1.3 7.4-1.9 3.7-.9 4.1-.4 4.1 3.4 0 .4 0 .9-.1 1.5-.1 2.4-.3 4.7-.6 7.2.6-.6.6-1.3.7-1.9.7-4 1.3-8 1.9-12 .4-2.2.6-4.6 1.8-6.5.7-1.3 1.3-1.3 2.1 0 .9 1.5 1.2 3.2 1.5 4.9.7 3.8 1.3 7.8 2.1 12v-6.3c0-2.4.6-2.8 2.8-2.5 3.1.4 6.2 1.2 9.2 1.8 2.2.6 2.2.6 1.9 2.8-.6 5.5-1 10.9-1.5 16.5 0 1.3-.1 2.2-.3 3.2v5.8c0 6.5.9 13 1.8 19.5.4 3.2-.1 5.9-3.4 7.2 3.4-.4 5.5-2.8 5-6.1-.4-3.7-.9-7.2-1.5-10.9-.1-1-.9-3.5.3-3.5 1.6 0 1.9.3 3.1-.9 1-1 1.2-1.6 1.2-2.7.1-1.8.6-2.7.4-4.6-.1-1-.1-2.2-.1-3.5z" class="st64"></path><path d="M256 246.6c-.1-.1-.4-.1-.6-.3-.6-.1-1-.1-1.6-.3-5-.9-9.9-.9-14.6 1 4.6-.7 9.3-.6 13.9-.4.1.1.4.1.6.1.9.1 1.8.3 2.7.6.3 0 .7 0 .9-.4-.3-.5-.8-.5-1.3-.3z" class="st19"></path><path d="M427.7 306.9c-.7-5-1.2-9.9-1.5-14.9-.3-5.8 2.7-9.7 8.7-12.3 1.5-.3 2.8 0 4.3.4 10 3.2 20.1 3.2 30.1.3 1.3-.4 2.7-.6 4.1-.3 5.3 2.5 7.8 6.2 7.7 11.5-.1 4.3-.7 8.7-1 13-.7 5.3-1.8 10.5-3.7 15.5-.3.6-.4 1.2-.7 1.8-.1.4-.6.7-1.2.6-.6-.1-.9-.4-.9-.9 0-2.8-.9-5.5.1-8.3s1.8-5.8 2.2-7.5c-.3 1-.7 3.1-1.5 5.2-1.2 3.1-1.5 6.3-1.5 9.6 0 3.8.3 7.7-.3 11.5-.7 4.7-3.2 8.4-8.9 10.2-.7.1-1.6.4-2.4.6.7-.1 1.5-.4 2.2-.6 2.2-.6 4.1-1.8 5.8-3.1.4-.3.9-.7 1.3-1.2.4-.3 1-.7 1.6-.4.7.3.7.9.7 1.3-.1.6 0 1.2.1 1.8 0 .7-.9 1.3-.6 2.1 0 .7-.4 1.3-.9 1.9-2.1.4-3 2.1-4 3.4-.3.1-.4.3-.7.3-.9 0-1.6.4-2.5.4-1.8.6-3.5.9-5.5.7-4.9-.1-9.7.3-14.5-.3-2.1-.3-4.1-.6-5.9-1.6-3.8-2.2-4.9-5.3-4.6-9 .1-1.3 1-1.6 2.4-.7 1 .7 1.9 1.8 3.1 2.5 1.9 1.2 4 1.9 6.2 2.5 1.5.3 3 .6 4.1.6-1 .1-2.4-.3-3.8-.6-7.7-1.8-11.4-5.6-11.5-12.7-.1-4.9 0-9.6-.3-14.5 0-.9-.1-1.6-.4-2.5-1.2-3.2-1.8-6.6-2.7-9.4 1 3.1 1.8 6.6 2.8 10.2.7 2.5.1 5.2-.1 7.8 0 .4-.3.7-.9.9-.7.1-1-.3-1.2-.9-1-2.2-1.8-4.6-2.4-6.8-.3-2.6-1.1-5.2-1.4-8.1z" class="st62"></path><path d="M473.9 251.6c-.1-.9-.1-1.8 0-2.7-.1-.7-.3-1.5 0-2.2 0-1-.1-2.1 0-3.2-.3-.9-.1-1.8.1-2.8-.3.3-.1.1-.6-.3L475 225c.3-2.2.3-2.2-2.2-2.7l-10-1.8c-2.5-.3-3.1.1-3.1 2.4v5.9l-2.2-11.2c-.3-1.6-.7-3.1-1.6-4.6-.9-1.3-1.5-1.3-2.4 0-1.3 1.9-1.5 4-1.9 6.2l-2.2 11.2c-.1.6-.1 1.2-.7 1.8l.6-6.8c0-.4 0-.9.1-1.3 0-3.5-.4-4-4.4-3.1l-8 1.8c-1.9.3-2.2 1.2-1.9 2.7 1 5.6 1.5 11.2 1.8 16.8.6 8.3 0 16.6-1.8 24.7-.7 3.5.1 5.9 4.1 7.2 1.3 1.2 3 1.6 4.7 1.9 9.2 1.3 18.3 2.1 27-1.9.1-.3.4-.3.6-.3 4.7-1.8 4.7-2.7 4.3-5.9l-1.9-16.4z" class="st63"></path><path d="M474.5 200.6c1.3 3.5.9 7.1-.1 10.6-.3 1-1.2 1-2.2.9-7.1-1.5-14.3-1.8-21.6-1.5-4.1.1-8.3.7-12.3 1.6-.9.1-1.6.4-1.9-.6-1.2-3.7-1.9-7.4-.1-11.2 1.5-.6 3-.4 4.4-.4 10.8-.3 20.8-.9 31.4-.1.4.2 1.8.3 2.4.7z" class="st62"></path><path d="M439.2 274.2c5.6 1.6 11.2 2.4 17.1 2.1 4.6-.1 9-.6 13.4-1.9.4-.1 1.6-.4 2.1-.6-.9.6-3 1-3 2.5s.3 2.5 2.2 3c.9.1 1.6.3 2.5.6-1.5 0-8.1 1.6-12.3 2.4-7.8 1.2-14.6.4-22-1.9-1.2-.4-3.5-.6-5-.6 1.3-.3 1.6-.6 2.8-.9.3-.1 1.8-.4 1.9-.9.4-1.3.9-2.6.3-3.8z" class="st64"></path><path d="M446.1 343.1c-4.1-.7-8-2.4-10.8-5.3-1.2 4.9 1.6 9.2 6.9 10.5 5 1.2 10 .9 15.2.9 2.5 0 4.9-.3 7.4-.7 1 1 1 1.2-.3 1.8-1.3.6-2.8.4-4.3.6-4.3-.1-8.4-.1-12.7 0-2.5-.1-4.9-.3-7.4-.9-4.6-1.2-7.4-4.1-7.5-8.3 0-1.3-.1-2.5.1-3.8.4-2.2-.1-4.4 0-6.6.1-4.3-1.3-8.1-2.7-12.1-1-3.2-1.6-6.5-2.4-9.7-.1-.7 0-1.6-.1-2.4.7 3 1.5 5.9 2.4 8.9.6 2.2 1.6 4.4 3 6.6.3-3.2 1-6.3 0-9.6-1.2-3.8-1.9-7.7-2.8-12.1 1 .9 1 1.5 1.3 2.2 1 3 1.8 5.9 2.8 8.9 1.6 4.7 1.2 9.6 1.2 14.5 0 2.2 0 4.6.4 6.8 1.2 5.2 4.6 8.3 10.3 9.6.5.2.3.2 0 .2z" class="st19"></path><path d="M474.6 239.5c.6-8.1 2.8-16.2 2.2-24.8 0-.4-.1-1 .7-1 .3.1.6.1.9.3 2.5.9 3 1.5 2.5 3.8 0 .4-.1 1-.1 1.5-.3 2.1-.6 4-1 5.9-.4 1.3-1.5 2.7-.3 4-.4 3.1.9 6.2.6 9.3 0 2.2.4 4.4.4 6.5 0 2.4 0 4.9-.9 7.1-.6 1.6-2.2 2.5-3.8 2.5-1 0-1.8-.4-1.9-1.3 0-1.2-.4-2.2-.4-3.4.3-.9 0-1.6 0-2.5.1-1 0-2.1 0-3.2.7-1.2 1-3.1 1.1-4.7z" class="st62"></path><path d="M433.9 213.3c-.1.4-.4 1.2-.4 1.6-.6 6.8.9 13.4 1.5 20.1.4 5.9 1.2 11.8.6 17.9-.1 1.3.1 2.1-1.2 1.5-1.2-.4-2.7-1.8-3-2.8-1.2-3.7-1-7.4-.6-11.1.3-3.2.7-6.5.6-9.7 0-.9 0-1.9.6-2.7.1-.3.4-.6.1-.9-1.9-1.6-1.5-3.8-2.2-5.8l-.4-3.7c-.3-2.2 0-2.8 2.4-3.7.2-.1 1.5-.5 2-.7z" class="st63"></path><path d="M433.9 213.3c-.3.7-.4 1.6-.3 2.4v2.4c0 1.6.3 3.2.4 4.9l1.3 9.6 1 9.7c.3 3.2.4 6.5.1 9.9l-.1 1.2v.6c0 .3 0 .4-.3 1-.1.3-.7.6-.9.6h-.6c-.3-.1-.4-.1-.7-.3-.4-.1-.9-.4-1.2-.7-.7-.6-1.3-1.2-1.9-2.1 0-.1-.1-.3-.1-.4 0 0 0-.1-.1-.1v-.1l-.1-.6c-.1-.4-.1-.9-.3-1.3-.7-3.4-.3-6.8 0-9.9l.4-4.9.3-4.9c0-.9.1-1.9.9-2.7.1-.1.1-.3.1-.3s0 .1.1.3l-.1-.1c-.3-.3-.6-.7-.7-1.2-.9-1.6-.7-3.4-1.2-4.7l-.3-2.7c0-.9-.3-1.8 0-2.8.1-.4.4-.9.9-1.2.4-.3.9-.4 1.3-.6l2.1-1zm0 0-2.7.9c-.7.4-1.6.9-1.8 1.6-.1.9.1 1.8.3 2.7l.4 2.7v-.2c.7 1.6.7 3.4 1.5 4.6.1.3.3.6.6.9l.3.1c.3.1.3.6.3.9-.1.4-.3.6-.4.7-.4.4-.4 1.2-.4 1.9.1 1.6.1 3.2 0 4.9l-.4 4.9c-.3 3.2-.6 6.3 0 9.4.1.4.1.7.3 1l.1.6v.1s0 .1.1.1c.3.4.9 1 1.5 1.5.3.1.6.4.9.6.1 0 .3.1.4.1 0 0-.4.1-.4.3-.1.3 0 0 0-.1v-.6l.1-1.2c.3-3.1.1-6.3 0-9.6l-.6-9.7-.9-9.7c-.1-1.6-.1-3.2 0-4.9 0-.7 0-1.6.1-2.4.1-.4.2-1.3.7-2.1zm40.6 124.4c0 .6 0 1 .3 1.5-.7.6-.7 2.1-2.5 1.5-.1-.9.1-1.8-.3-2.8-2.5 2.4-5.3 4.1-8.7 4.7-.1-.1-.1-.3 0-.4 6.2-2.5 8.3-6.9 8.6-12.4.1-2.5.1-5 0-7.5-.3-5 .9-9.7 2.7-14.5.7-1.8 1-3.7 2.1-5.3.1 1.5-.3 3-.6 4.4-.6 2.5-1.3 4.9-1.9 7.4-.6 2.7 0 5.3.6 8 .6-1.5 1.3-3 1.9-4.4 1.5-4 2.5-8 3.1-12.3 0-.3.1-.6.3-1-.1 4-1 7.8-1.9 11.8-.6 2.5-1.3 5-2.5 7.4-.7 1.5-.9 2.8-.7 4.4.1 3.1-1.1 6.2-.5 9.5z" class="st64"></path><path d="M464.4 350.2c.7-.6.4-1.2.3-1.8.7-.1 1.3-.4 2.1-.6.9.6.6 1.3.4 2.1-.1.1-.3.1-.4 0-.6.1-1.2.3-1.8.3h-.6zm-17 .6c1.9-.6 3.8-.3 5.6-.3 2.4 0 4.7-.3 7.1.3h-12.7z" class="st19"></path><path d="M467.2 349.8c-.9-.6-.7-1.3-.3-2.1.1-.1.3-.1.3-.3 1.5-.9 2.7-2.1 3.8-3.2l.9-1.5c.6-.3.6-.9 1-1.3.6-.6 1.2-.9 2.1-.4 1 1 .4 2.2.1 3.1-.9 2.5-2.8 4.6-5.6 5.8-.7.2-1.5.6-2.3-.1z" class="st19"></path><path d="M474.8 340.9c-1 .6-1.5 1.6-2.8 1.8l.4-2.1c.9-.4 1.3-1.3 2.5-1.5v1.5c0 .2 0 .3-.1.3zm-36.1-35.4c1 .7 2.1.7 3.1 0 .1 1-.3 1.6-1.3 1.8-1.2-.1-1.8-.5-1.8-1.8zm27.5 0c1 .6 2.1.7 3.1 0 .1 1-.4 1.5-1.2 1.5-1.2.2-1.9-.2-1.9-1.5z" class="st19"></path><path d="M471.1 344.3c-.6 1.6-2.1 2.7-3.8 3.2 1.1-1.1 2-2.6 3.8-3.2zM452 331.9c.3-.7.4-1.8 1.8-.9.7.4.6 1 0 1.3-.7.5-1.5.5-1.8-.4z" class="st63"></path><path d="M452 331.9c.6.3 1 .6 1.6.1.4-.3.1-.7 0-1 1.2.1.9.7.6 1.3-.3.6-.9.7-1.6.6-.3-.1-1.5-.1-.6-1z" class="st64"></path><path d="m446.1 343.1.3-.3 4.4.7c-1.7.2-3.2.1-4.7-.4zm17.3-1v.4c-1.2.4-2.5.9-4.3.7l4.3-1.1z" class="st19"></path><path d="M458.4 246.9c-2.5-.7-5.2-.1-7.8-.1s-4.9-1-6.2-3.1c-.7-1-.3-1.8 1.2-1.9 1.6-.1 3.2-.1 4.7.6 3.1 1.5 6.2 1.5 9.2 0 1.5-.7 3.1-.6 4.7-.4 1.3.1 1.8.9 1 1.9-1.5 1.9-3.9 2.8-6.8 3z" class="st64"></path><path d="M450.7 252.5c2.7-.4 5.3-.4 7.8 0-2.6.6-5.2.6-7.8 0z" class="st67"></path><path d="M480.7 243.8c0-1.6-.3-2.2-.4-3.8 0-.3.1-.9.1-1.3 0 0 .1-.1 0-.1-.1-1.2 0-3.8 0-4.6.3-2.7-1.3-5.3-.1-8.1.9-1.9.9-4.3.9-6.5l-1.2 4.7c-.4 1.9-1.3 3.7-.7 5.9.6 2.7.3 5.6.6 8.4 0 1 .1 2.2.3 3.2.3 3.2.3 6.6-.6 9.9-.3 1.2-1.2 2.2-2.5 2.5-1 .3-2.5.1-2.5-1 0-1 0-1.6-.1-2.5V245c.1-.1.3-1.6.3-1.8.1-1.2.1-1.6.1-2.8 0-.6.4-1.8.4-2.2.4-2.7.4-4.3.7-6.9.7-5.8 1.2-11.1 1.2-17.1 0-1.8-.3-2.4-.4-3.7-.4-2.5-.7-4.9-1.3-7.4-.1-.9-.3-.9-.7-2.5.4 1.9.7 2.7.7 3.2.3 2.4-.1 3.7-.7 5.9-.4 1.5-1.8 1.5-3.5 1.3-.6 0-1.2-.1-1.6-.3-5.2-.9-10.3-1.2-15.6-1-4.9.1-9.6.4-14.3 1.5-1.8.4-3.2.6-3.5-.9-.4-2.1-.9-4.9-.4-7.1.1-.9.3-1.6.7-2.7-.4.7-.7 1.6-.9 2.4-.4 2.4-.7 3.4-.9 5.8 0 1.5-.1 2.5-.3 4.4-.1.4-.6 1.3-.6 2.7 0 2.8.1 4.4.4 7.2.4 3.5.9 7.4 1.2 10.9.3 3.5.3 6.8.6 10.5.1 2.1.3 4.9 0 6.9-.1.6-.4 5.8-.6 6.5 0 .4-.1 1-.1 1.5l-1.5 9.9c-.1.9 0 1.9.9 2.7 1.5 1.2 3 2.1 5 2.4-3.8-1.3-4.9-3.7-4.1-7.2 1.6-8.1 2.4-16.4 1.8-24.7-.4-5.6-.9-11.4-1.8-16.8-.3-1.5 0-2.4 1.9-2.7 2.7-.4 5.3-1.2 8-1.8 4-.7 4.6-.4 4.4 3.1 0 .4 0 .9-.1 1.3-.1 2.2-.4 4.4-.6 6.8.7-.6.7-1.2.7-1.8.7-3.7 1.3-7.4 2.2-11.2.4-2.1.6-4.3 1.9-6.2.9-1.2 1.5-1.2 2.4 0 .9 1.5 1.2 3 1.6 4.6l2.2 11.2V223c0-2.2.6-2.7 3.1-2.4 3.4.4 6.7 1 10 1.8 2.5.4 2.4.6 2.2 2.7l-1.6 15.4c0 1.2-.1 2.1-.3 3v5.3c0 6.1 1 12.1 1.9 18.2.4 3-.1 5.5-3.7 6.8 3.7-.4 5.9-2.7 5.5-5.6-.4-3.4-1-6.8-1.5-10.2-.1-1-1-3.2.3-3.2 1.8 0 2.1.3 3.2-.9 1-1 1.2-1.5 1.3-2.5.1-1.6.6-2.5.4-4.3-.4-1-.4-2.2-.4-3.3zm-17.3 7.6c-.3-.1-.4-.1-.7-.3-.6-.1-1.2-.1-1.8-.3-5.5-.9-10.8-.7-15.8 1 5-.7 10-.6 15.1-.4.2.1.5.2.7.1l2.8.4c.4 0 .7 0 1-.3-.3-.3-.7-.3-1.3-.2z" class="st64"></path><path d="M292.4 312.7c-.9-5.9-1.5-11.8-1.6-17.7 0-5.3 2.7-9.6 7.5-11.4 10.2 4.9 20.5 4.7 30.9.3 4.3 1.8 6.9 5.9 6.6 10.3-.3 5-.4 10-1.2 15.1 0 .3-.9 6.1-1 6.5 0 .3-.3.9-.4 1.2-1 2.4-1.3 5-3 7.7-.3-3.7-.7-6.8.3-10 .9-3.1.7-6.5 1.5-9.7-1.8 3.7-3.2 6.9-8.1 7.5.6.3.7.4 1 .6 3.7 1.5 3.5 1.5 3.5 5.5l-.3 13.3c0 3.2-.9 6.2-3 8.7-1 1.2-2.5 2.1-3.7 3.1 2.8-.4 4.7-2.2 6.8-4 1.2 4.9-1.3 9-6.2 9.9-5.8 1-11.7 1-17.6 0-4.4-.7-6.6-3.7-6.6-8.1 0-.6-.3-1.2.3-1.5.6-.3.9.4 1.3.9 1.5 1.5 3.2 2.4 5.3 3-.9-.9-1.9-1.5-2.8-2.4-3-2.8-3.5-6.5-3.7-10.3-.1-4.7.3-9.6-.4-14.3-.3-1.5.3-2.1 1.3-2.5s2.2-.6 3.2-1.5c-4.7-.6-6.8-3.8-8.1-7.8.1 6.8 3.7 13.1 1.8 20.2-1.5-2.8-1.8-5.9-3.1-8.6 0-.3 0-.4-.1-.7.1-.4 0-.7-.3-1.2 0-.3-.1-.7-.1-1 .3-.5.2-.8 0-1.1zm19.5 21.3c-.1 1.3.1 1.8.9 1.6.7 0 1-.4.7-1.5-.4.9-1 1-1.6-.1zm21-30.3c-.2 0-.2 0 0 0-.2 0-.2.1 0 0-.2.1-.2.1 0 0zm-27 40.2c-.1 0-.1-.1-.3-.1 0 0-.1 0-.1.1.1 0 .2.1.4 0 0 .1 0 0 0 0z" class="st62"></path><path d="M293.2 316.4c1.3 2.7 1.5 5.8 3.1 8.6 1.9-7.1-1.5-13.4-1.8-20.2 1.3 3.8 3.4 7.1 8.1 7.8-1 1-2.2 1-3.2 1.5-1 .6-1.6 1.2-1.3 2.5.7 4.7.3 9.6.4 14.3 0 3.8.7 7.5 3.7 10.3.9.9 1.9 1.5 2.8 2.4-2.1-.4-3.8-1.5-5.3-3-.3-.3-.6-1.2-1.3-.9-.6.3-.3 1-.3 1.5 0 4.4 2.4 7.4 6.6 8.1 5.8 1 11.8 1 17.6 0 4.7-.9 7.2-5 6.2-9.9-2.1 1.8-4 3.5-6.8 4 1.2-1 2.7-1.8 3.7-3.1 2.1-2.5 3-5.5 3-8.7 0-4.4.1-8.9.3-13.3.1-4 .1-4-3.5-5.5-.3-.1-.4-.3-1-.6 4.7-.6 6.3-3.8 8.1-7.5-.6 3.2-.4 6.5-1.5 9.7-.9 3.2-.6 6.3-.3 10 1.6-2.7 1.9-5.3 3-7.7.3 2.2-.4 4.4-1.2 6.3-1.9 5.2-1.8 10.5-1.5 15.9 0 .7.1 1.5.1 2.2 0 5.6-3.1 9-8.6 9.6-5.6.6-11.2.7-16.8 0-6.8-.7-9.9-4.7-9.2-11.7.3-2.2 0-4.6.1-6.8.1-5-1.8-9.4-2.8-14.2-.4.2-.9-.7-.4-1.6z" class="st64"></path><path d="m335.8 241.8.1 5.3v1.3c-.1 1-1.8 2.4-2.7 2.1-1-.3-.6-1.3-.6-2.1.3-8.2 1-16.4 2.2-24.5.4-3.7.1-7.4.1-10.9v-1.8l1.6.4c3.1.4 3.1.4 2.5 3.5l-2.5 14.2c.2.3-.5 9.1-.7 12.5zm-44.3-31.4c-.6 8.4.3 16.4 1.2 24.5.4 4.1.6 8.3.9 12.4 0 .7.6 2.2-1 2.1-1.3 0-2.7-.6-2.7-2.2 0-1.5.1-3 .1-4.4 0-1.6 0-3.2-.3-5-.1-.7-.7-10.9-.7-11.4-.7-6.9-1.3-8.4-1.9-12.7-.4-3-.4-3 2.7-3.2h1.7v-.1z" style="fill:#848ea0;stroke:#020303;stroke-width:.433;stroke-miterlimit:10"></path><path d="M292.7 314.6c.3.3.4.7.3 1.2-.4-.3-.6-.7-.3-1.2zm-.3-1.9c.1.3.3.4.1.7-.2-.1-.4-.3-.1-.7z" class="st69"></path><path d="M311.9 334c.6 1.3 1.2 1 1.8.3.3.9 0 1.3-.7 1.5-.8-.2-1.2-.7-1.1-1.8z" class="st64"></path><path d="M305.9 343.9s0 .1 0 0c-.3.1-.3 0-.4 0l.1-.1c.1-.1.1.1.3.1z" class="st69"></path><path d="m318.1 228.1-.6-7.7c1.5 3.1 2.7 6.1 6.5 6.9 3.5.7 6.5.3 9.4-2.7l-1.2 11.7c-1 8.7-1 17.4.3 26.3.4 3 .6 5.9 1 8.7.3 1.9-.4 3-2.1 3.8-3 1.6-6.2 2.4-9.4 2.8-7.5 1-15.1 1-22.4-.9h-.1c-6.2-1.8-7.1-2.8-6.1-9.2 2.1-11.5 2.1-22.9.6-34.4-.3-2.7-.7-5.5-1.2-8.7 2.8 2.5 5.8 3.2 9.2 2.7 3.8-.7 5.3-3.4 6.5-6.6.3 4.7-.7 9.2-.9 14 .7-.7.7-1.5.9-2.2.9-4.6 1.2-9.3 2.5-13.9.4-1.3.6-3.2 2.2-3.2 1.8-.1 1.9 1.9 2.5 3.2 1 3.1 1.2 6.3 1.9 9.4.6 2.7 1 5.3 1.3 8.1-.3-2.8-.6-5.3-.8-8.1zm-5.8 26c3.2 0 6.5-.4 9.6-1.5.6-.1 1.3-.4 1.8-1 .4-.6 1-1.2.7-1.9-.1-.9-1-1-1.8-1-2.5-.4-4.7 0-6.9 1.2-1.8 1-3.5 1-5.3-.1-1.8-1.2-3.8-1.3-5.8-1.2-1 .1-2.5 0-2.8 1.3-.3 1.3.9 2.2 2.1 2.7.7.3 1.5.6 2.2.7 2.1.3 4.2.6 6.2.8zm11.4 5.9c-4.6-3-19.3-2.8-23.2.4 7.7-1.6 15.4-1.6 23.2-.4zm-16.1.7c3.4.6 6.6.6 10 0-3.3-.4-6.6-.6-10 0zm5.6-60.2h17.9c1.5 0 2.1.4 2.4 1.9.6 3.5.7 7.1.1 10.6-.3 1.5-.9 2.1-2.5 1.5-11.8-3.5-23.5-3.5-35.3 0-2.2.6-2.5.4-2.8-1.9-.4-3.5-.3-7.1.3-10.6.3-1.3.9-1.6 2.1-1.6 5.9.1 11.8.1 17.8.1z" class="st63"></path><path d="M333 256.9c-.1-1.6-.4-2.4-.4-4.4 0-1.8.3-3.7.3-4.4.3-8.3.9-16.1 2.1-24.2.4-3.7.1-7.4.1-10.9v-1.8c-.6-1.9-.4-3.7-.6-5.8 0-1.5-.3-3.5-.4-4.7-.1-1.8-1.6-2.2-2.8-2.2-13.7.4-21.9.7-35.6 0-2.8-.1-3.2 2.5-3.5 3.7-.4 2.7-.7 5.5-.9 8.3-1 8.3.4 16.5 1.2 24.7.4 4.1.6 8.1.9 12.3 0 .7.3.3.3 1.9 0 1.3-.1 2.5-.1 3.2 0 1-.1 1.9-.3 3-.1 5.2-1.2 10.3-2.1 15.5-.4 3 0 4 2.7 5.3 1.8.9 3.5 1.5 5.5 1.9 1.2.3 2.2.3 2.2 2.1 0 1.5-.3 2.5-1.9 2.7-.6.1-1 .3-1.5.7 10.2 4.9 20.5 4.7 30.9.3-.6-.6-1.3-.9-2.1-1.2-.6-.1-.9-.6-1.2-1.2-.6-2.1.1-3.5 2.2-4.1.7-.1 1.5-.4 2.1-.6 3.8-1 5.2-3.1 4.6-6.9-.6-4.9-1.1-8.2-1.7-13.2zm-39.8-54.8c.3-1.3.9-1.6 2.1-1.6h35.9c1.5 0 2.1.4 2.4 1.9.6 3.5.7 7.1.1 10.6-.3 1.5-.9 2.1-2.5 1.5-11.8-3.5-23.5-3.5-35.3 0-2.2.6-2.5.4-2.8-1.9-.8-3.4-.7-6.9.1-10.5zm38.2 73.1c-3 1.6-6.2 2.4-9.4 2.8-7.5 1-15.1 1-22.4-.9h-.1c-6.2-1.8-7.1-2.8-6.1-9.2 2.1-11.5 2.1-22.9.6-34.4-.3-2.7-.7-5.5-1.2-8.7 2.8 2.5 5.8 3.2 9.2 2.7 3.8-.7 5.3-3.4 6.5-6.6.3 4.7-.7 9.2-.9 14 .7-.7.7-1.5.9-2.2.9-4.6 1.2-9.3 2.5-13.9.4-1.3.6-3.2 2.2-3.2 1.8-.1 1.9 1.9 2.5 3.2 1 3.1 1.2 6.3 1.9 9.4h.6c-.1-2.5-.4-5-.6-7.7 1.5 3.1 2.7 6.1 6.5 6.9 3.5.7 6.5.3 9.4-2.7l-1.2 11.7c-1 8.7-1 17.4.3 26.3.4 3 .6 5.9 1 8.7.2 1.7-.7 2.9-2.2 3.8z" class="st64"></path><path d="m318.8 236.2-.7-8.1h-.6l1.3 8.1zm-6.5 17.9c-2.1 0-4.1-.4-6.2-.9-.7-.1-1.5-.4-2.2-.7-1.2-.6-2.4-1.3-2.1-2.7.3-1.2 1.8-1.2 2.8-1.3 2.1-.1 4 0 5.8 1.2s3.5 1.2 5.3.1c2.2-1.2 4.4-1.6 6.9-1.2.7.1 1.5.3 1.8 1 .1.7-.3 1.3-.7 1.9-.4.6-1 .7-1.8 1-3.1 1.1-6.3 1.6-9.6 1.6zm11.4 5.9c-7.7-1.2-15.5-1.2-23.2.4 3.9-3.1 18.5-3.4 23.2-.4z" class="st64"></path><path d="M307.6 260.7c3.2-.7 6.6-.4 10 0-3.2.6-6.6.8-10 0z" class="st69"></path><path d="M198.1 284.8c5.2 2.2 7.8 6.1 7.5 12-.1 5.5-.7 11.1-1.6 16.1 0 .3-.9 4-.9 4.3-1.3 3-1.9 6.3-3.5 9.2-.4-3.7-.9-7.2.3-10.8 1.2-3.2 1.6-6.9 2.4-10.3-1 1.8-1.5 3.5-2.2 5.5-1.5 4.3-3 8.4-8.3 9.6.9.9 1.8 1 2.5 1.2 1.9.6 3.1 1.6 2.8 4-.3 2.5 0 5.2-.1 7.8 0 3.2-1.1 6.3-3.1 8.7-1.8 1.8-4 2.8-6.1 3.8 2.5-.3 4.9-1 6.8-2.7.4-.3.7-.6 1.2-.9.4-.3.7-1 1.3-.7.6.3.3 1 .3 1.5 0 1.2-.1 2.2-.3 3.2-.3.3-.4.6-.6 1-1.6 2.4-4 3.5-6.8 4.1-2.5.6-5 .3-7.5.6-1.6 0-3.2-.1-4.9-.1-3.7 0-7.5 0-10.9-1.8-2.2-1.2-3.1-3.2-3.7-5.6 0-.9-.1-1.6-.1-2.5 0-.3.1-.6.1-.7.9 0 1.3.7 1.9 1.2 1.6 1.3 3.2 2.4 5.5 2.5-2.1-1.5-4.1-3.1-5.5-5.5-1.6-3.7-1.2-7.5-1.5-11.4-.3-4 .6-6.8 4.9-7.7.1 0 .1-.1.3-.4-7.4-2.1-6.9-9.3-9.6-14.8.3 7.4 4.4 13.9 2.1 21.4-1.6-3.1-2.1-6.5-3.5-9.4 0-.3-.3-1.3-.4-1.8-1.8-6.2-2.1-13.1-2.2-19.9-.1-5.2 4.1-10.2 8.9-10.9.3.6.9.6 1.5.9 5.8 1.9 11.7 3.1 17.9 2.8 5.2-.5 10.1-2 15.1-3.5zm-20 52s-.1 0 0 0c.3 1 .9 1.6 1.9 1.3.9-.3 1.2-.9.7-1.9-.5 1.6-2 .6-2.6.6zm-10.9-22.5c1.2 1.9 1.6 1.9 2.8 0-1 .2-1.9.2-2.8 0zm23.6-.1c.3.6.4.9.6 1 .4.4 1 .7 1.6.3.3-.3.7-.6.6-1-.3-.7-1 .1-1.5-.1-.2-.1-.5-.1-1.3-.2z" class="st63"></path><path d="M198.1 284.8c1.3.6 2.7 1.3 3.8 2.4 1.2.9 2.1 2.2 2.7 3.5.6 1.3 1 2.8 1 4.3.1 1.5 0 3 0 4.4l-.9 8.9-.6 4.4-.9 4.4c-1.3 3-1.8 6.3-3.5 9.2l-.3.4v-.4c-.3-1.8-.4-3.5-.4-5.5 0-1.8.1-3.7.7-5.3 1.2-3.4 1.6-6.9 2.4-10.5l.3.1c-1.5 2.8-2.1 6.1-3.4 9-.6 1.5-1.5 3-2.7 4-.6.6-1.3 1-2.1 1.3-.7.4-1.5.6-2.4.7l.1-.3c.3.4.7.6 1.2.7l1.5.4c.6.1 1 .4 1.5.7.4.3.9.9 1 1.3.1.6.3 1.2.3 1.6l-.1 1.6v3.2c0 2.1.1 4.3-.3 6.5-.4 2.1-1.5 4.1-2.8 5.8-1.8 1.8-4 2.8-6.2 3.8l-.1-.4c2.4-.3 4.9-1 6.6-2.7l.9-.6c.3-.1.4-.3.7-.6.1-.1.3-.3.4-.3.1-.1.4-.1.7 0 .1 0 .4.3.6.4.1.1.1.4.1.6 0 .4 0 .7-.1 1l-.1 1-.1 2.1v.1h-.1c-.3.1-.4.4-.4.9v.1c-.7 1-1.8 2.1-3 2.7-1.2.7-2.4 1.2-3.7 1.5-2.7.6-5.3.4-7.8.7l-5.8-.1c-1.9 0-3.8-.1-5.8-.4-.9-.1-1.9-.4-2.8-.7-.4-.1-.9-.3-1.3-.6-.4-.1-.9-.4-1.3-.7-1.6-1.3-2.4-3.2-2.8-5.2l-.1-2.5v-1.3h.3c.4 0 .9.1 1.2.4l.7.7c.1.1.4.4.7.6.3.1.6.4.9.6 1.2.7 2.5 1.2 3.8 1.3l-.1.6c-2.1-1.5-4.1-3.2-5.5-5.5-.7-1.8-1.2-3.7-1.2-5.5l-.3-5.6c-.1-1.8-.3-3.8.7-5.6.4-.9 1.2-1.6 2.1-1.9.4-.1.9-.4 1.3-.6.3 0 .4-.1.7-.1h.1c-.1 0 0 0 0 0 0-.1.1-.1.1-.3l.1.4-1.2-.4c-.4-.1-.7-.3-1-.4-.3-.1-.7-.4-1-.6-.3-.1-.6-.4-.9-.7-.3-.3-.6-.6-.7-.9-.3-.3-.4-.6-.7-1-.4-.7-.7-1.3-1-2.1-.6-1.5-1-3-1.5-4.4-.3-.7-.4-1.5-.7-2.2l-.9-2.1.4-.1c0 .9.1 1.8.3 2.7l.4 2.7 1.2 5.3c.4 1.8.7 3.5.7 5.5 0 .9 0 1.8-.1 2.8l-.6 2.7-.1.4-.3-.4c-1.6-3-2.1-6.5-3.4-9.4l-.4-2.2c-.1-.7-.4-1.5-.6-2.2l-.7-4.6c-.4-3.1-.6-6.2-.6-9.3v-4.7l.6-2.4c.3-.7.6-1.5 1-2.1 1.6-2.7 4.3-4.7 7.4-5.3h.1c.3.6 1.2.7 1.9.9.7.3 1.3.4 2.1.6 1.5.4 2.8.7 4.3 1 2.8.6 5.8 1 8.7 1 3 0 5.9-.3 8.7-.9l8.4-2.3zm0 0-8.4 2.4c-2.8.6-5.8 1-8.7 1s-5.9-.3-8.7-.9l-4.3-1c-.7-.1-1.5-.4-2.1-.6-.6-.3-1.5-.3-2.1-1h.1c-3.1.6-5.6 2.7-7.2 5.2-.4.6-.7 1.3-1 2.1-.3.7-.4 1.5-.6 2.2-.1.7-.1 1.5 0 2.4v2.4l.6 9.3c.1 1.5.4 3.1.7 4.6.1.7.3 1.5.6 2.2.1.7.3 1.5.6 2.2 1.5 3.1 1.9 6.5 3.5 9.4h-.4l.6-2.7c.1-.9.1-1.8.1-2.7 0-1.8-.3-3.5-.7-5.3l-1.2-5.3-.4-2.7c-.1-.9-.1-1.8-.3-2.7v-1.2l.4 1.2.9 2.2c.3.7.4 1.5.7 2.2l1.5 4.4c.3.7.6 1.3 1 2.1.3.3.4.6.6.9.3.3.4.6.7.9.3.3.6.6.9.7s.6.4.9.6c.3.1.6.3 1 .4l1 .4.3.1-.3.6s0 .1-.3.1h-.1c-.1 0-.4.1-.6.1l-1.2.4c-.7.4-1.5 1-1.9 1.8-.9 1.6-.7 3.4-.6 5.3l.3 5.6c.1 1.8.4 3.7 1.2 5.3 1.3 2.2 3.2 3.8 5.3 5.3l.9.6h-1c-1.5-.1-2.8-.6-4.1-1.3-.3-.1-.6-.4-.9-.6-.3-.3-.6-.4-.9-.7-.4-.6-.9-1-1.5-1l.3-.3-.1.7.1 2.5c.4 1.8 1.2 3.7 2.7 4.7.3.3.7.6 1.2.7.4.1.9.4 1.3.6.9.3 1.8.6 2.7.7 1.9.3 3.7.4 5.6.4l5.8.1c2.7-.3 5.3-.1 7.7-.7 1.2-.3 2.5-.7 3.5-1.3 1-.6 2.1-1.5 2.8-2.5v.1c0-.4.3-.9.6-1.2l-.1.1.1-2.1.1-1c0-.3.1-.7.1-1 0-.3 0-.4-.3-.6-.1-.1-.3 0-.6.3l-.4.4-1.3.9c-.9.9-2.1 1.5-3.2 1.9s-2.4.7-3.7.9l-1.5.3 1.3-.7c2.2-1 4.4-2.1 6.1-3.8 1.3-1.6 2.4-3.5 2.8-5.6.4-2.1.3-4.1.3-6.3V327c0-1 .3-2.2-.1-3.1-.3-.9-1.3-1.5-2.2-1.9l-1.5-.4c-.6-.1-1-.4-1.5-.9l-.3-.3.3-.1c.7-.1 1.5-.4 2.2-.7.7-.3 1.3-.7 1.9-1.3 1.2-1 1.9-2.4 2.7-3.8 1.3-3 1.9-6.1 3.5-9l.6-1-.3 1.2c-.7 3.5-1.2 7.1-2.4 10.5-.6 1.6-.7 3.5-.7 5.3 0 1.8.3 3.5.4 5.3h-.3c1.6-2.8 2.2-6.1 3.5-9.2l.9-4.4.7-4.4.9-8.9c.1-1.5.1-3 .1-4.4-.1-1.5-.4-3-1-4.3-.6-1.3-1.5-2.5-2.7-3.5-.9-1.6-2.2-2.3-3.5-2.9zm-20 52c-.1.1 0 .1 0 0 0 .6.3.9.7 1.2.3.1.7.1 1.2 0 .1 0 .3-.1.4-.3l.3-.3c.1-.3 0-.7-.1-1h.4c-.1.3-.3.4-.6.7-.3.1-.6.3-.9.3-.3-.2-.8-.6-1.4-.6zm0 0c.3 0 .6.1.7.1.3 0 .6.1.7 0 .6 0 .7-.4.9-.9l.1-.7.3.7c.1.4.4.9.1 1.5-.1.3-.3.6-.6.6-.3.1-.4.1-.7.3-.4 0-1 0-1.3-.3.1-.3 0-.7-.2-1.3-.1.1-.1.1 0 0zm-10.9-22.5.7.7c.3.3.6.4.7.4s.4-.1.6-.4l.6-.9.3.4c-1 .3-2 .1-2.9-.2zm0 0c.9 0 1.8 0 2.7-.3l.7-.3-.3.6c-.1.3-.3.6-.6.9l-.4.4c-.2.2-.4.3-.6.3-.3 0-.4-.1-.6-.3-.1-.1-.3-.3-.3-.4-.3-.3-.4-.6-.6-.9zm23.6-.1s.1.1.1.3c.1.1.3.4.4.6.1.1.3.1.4.3.1 0 .3.1.4.1.3 0 .7-.3.9-.4.1-.1.1-.3.1-.3-.1-.1 0-.1-.1-.1s-.3.1-.6.1-.6-.1-.6-.1c-.3-.1-.6-.1-.7-.3-.1-.2-.3-.2-.3-.2zm0 0h1.2c.3 0 .3.1.4 0 .1 0 .3-.1.6-.3h.4c.1 0 .1.1.3.1 0 .1 0 .1.1.1.1.3 0 .7-.1 1-.4.4-.9.7-1.5.7-.3 0-.4-.1-.7-.3l-.4-.4c-.1-.3-.1-.6-.3-.9 0 .1 0 0 0 0z" class="st64"></path><path d="M209.6 236.4c0 3.4.4 6.6 1 10 .4 2.8-2.2 5.5-5.2 4.7-1.2-.3-.9-1.3-.7-2.1 0-3.7.4-7.2.7-10.9.6-6.3 2.1-12.5 2.2-19 .1-2.7-.1-5.5-.3-8.3 2.8 0 3 0 2.8 3-.3 5.5-.7 10.9-.7 16.4 0 .9.1 3.1.1 3.2-.1.9.1 1.9.1 3z" class="st62"></path><path d="M153 209.8c.9 1.9-.1 3.8.1 5.8v2.5c-.4 4.7.9 9.3 1.5 14 .6 5.3 1.3 10.6 1.5 15.9 0 1.6-.3 2.2-2.1 1.8-3-.9-3.4-1.5-3.1-4.6.3-2.5.9-5.2.4-7.8 0-1.2.4-5.5.4-6.5 0-2.7-.1-5.4-.4-8.1-.1-2.4-.2-4.7-.3-7.1 0-.4-.3-2.5-.4-3.1-.4-2.1.4-2.9 2.4-2.8z" class="st63"></path><path d="M153 209.8c.4.9.4 1.9.3 3-.1 1-.3 1.9 0 3v2.7c-.3 4 .6 8 1.2 11.8L156 242l.4 6.1c0 .4 0 1-.1 1.6-.1.3-.3.6-.6.7-.3.1-.6.1-.9.1-.6 0-1-.3-1.5-.4-.4-.1-1-.3-1.5-.6-.4-.3-.9-.7-1-1.3s-.1-1-.1-1.6c0-1 .1-2.1.3-3 .3-1.9.6-4 .3-5.9l.3-3.7.1-1.9v-1.8l-.4-7.4-.1-3.7v-1.9c0-.6 0-1.2-.1-1.8l-.1-1.8c0-.6-.1-1.2-.1-1.9 0-.6.3-1.3.9-1.6.1-.4.7-.4 1.2-.4zm0 0c-.6 0-1.3 0-1.8.3-.6.3-.7 1-.7 1.6s.1 1.2.3 1.8l.3 1.8c.1.6.1 1.2.1 1.9l.1 1.9.1 3.7.4 7.4v1.8l-.1 1.9-.1 3.7c.3 2.1 0 4.1-.3 6.1-.1 1-.3 1.9-.3 3 0 1 .1 1.9 1 2.4.7.4 1.8.7 2.7.9.4 0 .7 0 .9-.4.1-.4.1-.9.1-1.3 0-2-.1-4-.4-5.9l-.6-5.9-.7-5.9c-.6-4-1.5-8-1-12v-2.5c-.1-1 0-1.9.1-3 .4-1.4.4-2.4-.1-3.3zM201.8 322.4c.4-1.5 1-3.4 1.3-5.5-1.3 3-1.9 6.3-3.5 9.2-.4-3.7-.9-7.2.3-10.8 1.2-3.2 1.6-6.9 2.4-10.3-1 1.8-1.5 3.5-2.2 5.5-1.5 4.3-3 8.4-8.3 9.6.9.9 1.8 1 2.5 1.2 1.9.6 3.1 1.6 2.8 4-.3 2.5 0 5.2-.1 7.8 0 3.2-1.1 6.3-3.1 8.7.1.4.4.7.6 1.2.4-.3.7-.6 1.2-.9.4-.3.7-1 1.3-.7.6.3.3 1 .3 1.5 0 1.2-.1 2.2-.3 3.2-.3.3-.4.6-.6 1-1.6 2.4-4 3.5-6.8 4.1-2.5.6-5 .3-7.5.6-1.6 0-3.2-.1-4.9-.1-3.7 0-7.5 0-10.9-1.8-.3-.1-.6-.3-.7-.4-.7-.6-1.3-1.3-1.5-1.5-.6-.7-1-1.8-1-1.9l-.6-1.8c0-1-.1-1.6-.1-2.5 0-.3.1-.6.1-.7.9 0 1.3.7 1.9 1.2 1.6 1.3 3.2 2.4 5.5 2.5-2.1-1.5-4.1-3.1-5.5-5.5-1.6-3.7-1.2-7.5-1.5-11.4-.3-4 .6-6.8 4.9-7.7.1 0 .1-.1.3-.4-7.4-2.1-6.9-9.3-9.6-14.8.3 7.4 4.4 13.9 2.1 21.4-1.6-3.1-2.1-6.5-3.5-9.4.7 2.5.7 3.2 1.2 4.9 1.3 4.4 2.4 8.4 2.4 13.1 0 2.8.1 4.1-.1 6.8 0 .1 0 2.7.4 3.4 0 .1.4 1.8.7 2.2.1.3 1.2 2.1 1.8 2.7.1.1.9.9 2.7 1.8.1.1.3.4.4.6 5.2 1 10.3 1 15.5.9 4.6.1 9.2-.6 13.6-1.6l.4-.9.9-.9c.9-.1 1.2-1.2 1.8-1.6v-1.6c.7-.6.6-1.5.7-2.4.4-2.5-.6-4.9-.4-7.2.5-5.2 1.3-9.9 2.7-14.8z" class="st64"></path><path d="M194.7 342.8c-.1-.4-.4-.7-.6-1.2-1.8 1.8-4 2.8-6.1 3.8 2.4-.2 4.8-.8 6.7-2.6zm-27.5-28.5c.9.1 1.8.3 2.8 0-1.2 1.8-1.6 1.8-2.8 0zm23.6-.1c.7.1 1 .1 1.3.3.4.1 1.2-.6 1.5.1.1.4-.1.7-.6 1-.6.4-1.2.3-1.6-.3l-.6-1.1zm-9.9 22c.4 1.2.1 1.8-.7 1.9-1 .3-1.6-.3-2.1-1.3 0 .1 2.1 1 2.8-.6z" class="st64"></path><path d="M156.7 225c3 2.2 6.1 3 9.7 1.8 3.5-1.2 5.6-3.8 7.5-7.4 1 6.3 1 12.1 1.5 18 .9-4.3.9-8.6 1-12.8.1-2.8.3-5.5 1.2-8.1.6-1.5 1.3-3.1 3.1-3 1.6.1 2.7 1.5 3.1 3.1 1.3 4.3 1 8.7 1.3 13 .1 3 .1 5.9.7 8.9.7-6.1.4-12.4 1.5-19 1.9 3.5 4 6.3 7.5 7.5 3.7 1.3 6.8-.1 10-2.4.3 1.2 0 2.1-.1 3-1.2 8.9-2.7 17.7-1.9 26.7.4 4.9 1.3 9.7 2.4 14.6.4 2.1 0 3.7-1.8 5-4.9 4.1-10.8 6.1-17 7.1-9.7 1.6-18.9.1-27.3-5.2-.9-.6-1.6-1.2-2.4-1.8-1.9-1.5-2.2-3.2-1.6-5.5 3.4-12.3 2.7-24.5.9-36.9-.3-1.9-.6-3.7-1-5.6.1-1.3.7-1.3 1.7-1zm30.2 26.3c.4.1 1 .3 1.2.3h1.6c1-.1 2.2 0 2.4-1.2.1-1.3-.7-2.1-1.9-2.5-1.6-.7-3.4-.4-4.9.3-3.2 1.5-6.3 1.5-9.6 0-1.3-.6-2.8-.7-4.3-.4-1.3.3-2.2 1.2-2.2 2.5s1.3 1.3 2.4 1.5c.4 0 .9.1 1.3 0 6.9-1.7 8.3-1.5 14-.5zm-16.7 10.8c7.1-.7 14.2-.7 21.3 0-7.2-2.5-14.2-2.4-21.3 0zm5.7 1c3.4.7 6.8 1 10.2 0-3.4-.9-6.8-.7-10.2 0zm3.1-62.3c1.3-.1 1.6.3 2.5.1l21.6-.3c1.8 0 2.5.6 2.7 2.4.4 3 .6 6.1 0 9-.4 2.4-1 2.7-3.4 2.1-10.8-2.7-21.9-3.1-32.9-1.9-1.8.1-3.5.6-5.2.7-.3 0-.6 0-.9.3-1.9.1-3.7.7-5.5 1.3-.7 0-1.3 0-2.1-.4-1.3-4.1-1.2-8.3-.1-12.4.3-1 .9-1.5 1.9-1.3 2.2.1 4.3.1 6.5.1 1 0 2.1 0 3 .1h3.8c.9 0 1.6.1 2.5.1 1.9.2 3.7.1 5.6.1z" class="st63"></path><path d="m195.9 351.7.4-.9-.4.9z" class="st19"></path><path d="m211.5 247.7-1.2-6.2-.7-5.2c0 3.4.4 6.6 1 10 .4 2.8-2.2 5.5-5.2 4.7-1.2-.3-.9-1.3-.7-2.1 0-3.7.4-7.2.7-10.9.6-6.3 2.1-12.5 2.2-19 .1-2.7-.1-5.5-.3-8.3-.1-2.8-.4-5.6-.9-8.4-.1-.7-.1-4.1-4.4-4-5.6.1-13.3.3-18.8.1-.7 1-.9 1.3-1.6 2.4l21.6-.3c1.8 0 2.5.6 2.7 2.4.4 3 .6 6.1 0 9-.4 2.4-1 2.7-3.4 2.1-10.8-2.7-21.9-3.1-32.9-1.9-1.8.1-3.5.6-5.2.7-.3 0-.6 0-.9.3-1.9.1-3.7.7-5.5 1.3-.7 0-1.3 0-2.1-.4-1.3-4.1-1.2-8.3-.1-12.4.3-1 .9-1.5 1.9-1.3 2.2.1 4.3.1 6.5.1 1 0 2.1 0 3 .1h3.8c.9 0 1.6.1 2.5.1h5.5c1.6 0 1.6.3 2.5.1.7-1 .9-1.3 1.6-2.4-.9 0-2.1 0-2.8-.1-2.8-.1-6.5-.1-7.5-.1-2.1-.1-4.4-.1-6.5-.1-2.5-.1-4.9 0-7.2-.1-2.8-.1-4.1 2.5-4.4 3.2-.7 2.8-.4 5.8-1.5 8.4.9 1.9-.1 3.8.1 5.8v2.5c-.4 4.7.9 9.3 1.5 14 .6 5.3 1.3 10.6 1.5 15.9 0 1.6-.3 2.2-2.1 1.8-3-.9-3.4-1.5-3.1-4.6.3-2.5.9-5.2.4-7.8-.3 1-1.5 6.2-2.1 8.4-.7 3.7-.3 4.4 3.2 5.5.4.1.9.3 1.5.3 1.8.1 2.1 1.2 1.9 2.8-.4 4.7-1.3 9.3-2.5 13.9-.9 3.1.1 5.2 2.5 6.9 2.7 2.1 5.6 3.7 8.9 4.9.9.3 1.9.4 1.9 1.8 0 1.2-1 1.2-1.6 1.6-.4.1-.9.6-1.2.7.3.6.9.6 1.5.9 5.8 1.9 11.7 3.1 17.9 2.8 5.2-.3 10-1.8 15.1-3.2-.6-.9-1.6-.7-2.4-1.2-.9-.4-2.2-.3-2.2-1.6 0-1.2 1.2-1.2 1.9-1.6 3.5-1.5 6.9-3.1 9.9-5.6 1.8-1.5 2.7-3.2 2.1-5.8-1-4.6-1.9-9.2-2.5-13.7-.1-1.3 0-2.1 1.5-2.4 1.2-.1 2.5-.6 3.7-1.2.7 0 1.5-1.5 1-3.6zm-6 21c.4 2.1 0 3.7-1.8 5-4.9 4.1-10.8 6.1-17 7.1-9.7 1.6-18.9.1-27.3-5.2-.9-.6-1.6-1.2-2.4-1.8-1.9-1.5-2.2-3.2-1.6-5.5 3.4-12.3 2.7-24.5.9-36.9-.3-1.9-.6-3.7-1-5.6-.3-1.2.3-1.3 1.2-1v-.6.6h.1c3 2.2 6.1 3 9.7 1.8 3.5-1.2 5.6-3.8 7.5-7.4 1 6.3 1 12.1 1.5 18 .9-4.3.9-8.6 1-12.8.1-2.8.3-5.5 1.2-8.1.6-1.5 1.3-3.1 3.1-3 1.6.1 2.7 1.5 3.1 3.1 1.3 4.3 1 8.7 1.3 13 .1 3 .1 5.9.7 8.9.7-6.1.4-12.4 1.5-19 1.9 3.5 4 6.3 7.5 7.5 3.7 1.3 6.8-.1 10-2.4.3 1.2 0 2.1-.1 3-1.2 8.9-2.7 17.7-1.9 26.7.8 4.9 1.7 9.8 2.8 14.6zM185.4 251c-5-.9-7.4-.4-12.4.6-.4.1-.9.1-1.3 0-1-.1-2.4-.1-2.4-1.5s.9-2.2 2.2-2.5c1.4-.3 2.9-.1 4.3.4 3.2 1.3 6.3 1.5 9.6 0 1.5-.7 3.2-1.2 4.9-.3 1 .4 2.1 1.3 1.9 2.5s-1.5 1.2-2.4 1.2h-1.6c-.3.2-1.1-.1-2.8-.4zm-15.2 11.1c7.1-2.4 14.2-2.5 21.3 0-7.2-.8-14.2-.8-21.3 0z" class="st64"></path><path d="M175.9 263.1c3.4-.7 6.8-.9 10.2 0-3.4 1-6.8.7-10.2 0z" class="st70"></path><path d="M100.9 295.6c-.1-.1-.4-.3-.6-.4-.3-.4-.6-.6-1-.6-.4-.3-.9-.4-1.3-.7-1.9-1.8-4-3.4-5.6-5.3-1.8-2.2-2.7-4.6-2.2-7.7 1.2-7.8 2.2-15.7 2.2-23.6 0-10.2-.9-20.4-2.2-30.6-.1-1.5.1-1.9 1.8-2.1 4.3-.3 8.4-1.3 11.7-4.4.4-.3.7-1 1.3-.7.6.3.4 1 .4 1.5.1 4.4-.1 9-.4 13.4 0 .4-.6 1 .1 1.6.7-2.7 1-5.3 1.5-8 .7-4.9 1.3-9.6 3-14.3.3-.9.7-1.9 1.6-1.9 1 0 1.3 1 1.8 1.8.2.5.3 1 .4 1.5.6 2.5 1.2 5 1.6 7.5.7 4.1 1 8.4 2.2 12.4 0-2.1-.1-4-.3-5.9-.1-2.7-.3-5.5-.1-8.1 0-.4.1-1 .6-1.3.3-.1.6.1.9.3 3.7 3.7 8.4 4.7 13.4 4.9 1.2 0 1.6.3 1.5 1.6l-1.2 12c-.6 6.6-1 13.3-.9 19.9.1 8 1.5 15.8 2.2 23.6.1 2.1-.3 3.7-1.5 5.3-1.9 2.8-2.4 4.3-7.1 6.8-1.2.6-2.8 1.5-4 2.1-4.3 1.5-8.6 2.5-13.1 1.6-2.4-.7-4.5-1.6-6.7-2.2z" class="st62"></path><path d="M93.4 320.8c-.6-4.1-1-8.3-1-12.5s2.1-7.4 6.2-9c8.1 4 16.1 4 24.4.3 3.7 1.2 6.1 5.3 5.8 8.7-.3 4.4-.6 9.2-1.2 13.4 0 .4-.3 1.3-.4 1.6-1 2.7-1.3 5.6-3 8.6-.1-2.7-.6-4.9.1-7.2.6-1.8.9-3.5 1.3-5.2.4-1.5.4-3 .6-4.7-.9 1.6-1.3 3.1-1.5 4.7-1.3 3.8-2.5 7.5-2.4 11.7v6.2c.1 4-1.2 7.4-5.2 9.9 2.5-.3 3.8-1.8 5.3-3 .9 4.6-1.6 7.7-6.3 8.1-3.8.4-7.7.4-11.5 0-1.2-.1-2.4-.4-3.5-1-2.5-1.3-3.7-4.4-2.8-6.9 3.1 2.5 3.5 2.7 5.2 3-3.7-3.1-4.6-4.3-5-7.8-.1-1.5-.1-3-.1-4.3.6-6.3-.9-12.4-2.8-18.5 0-.1-.1-.6-.6-.4.4 2.5.9 5.2 1.5 7.7.7 3.7.7 5.9 0 7.7-1.2-2.2-1.5-4.7-2.5-7.1 0-.1-.1-.9-.1-1.3-.1-.4-.3-1-.3-1.5l-.2-1.2zm17.6 18.5c-.1-.6-.4-.9-1-.7-.4 0-.9.3-.9.9s.4.9 1 .9c.4-.1.9-.4.9-1.1zm-8.4-22.9c-.4-.4-.7-.1-1-.1-.3 0-.7-.3-1 0 .6 1.3.9 1.3 2 .1z" class="st63"></path><path d="M93.4 320.8c-.6-4-1-8-1-12.1 0-2.1.3-4.1 1.5-5.8 1-1.8 2.8-3 4.7-3.7.9.4 1.9.9 3 1.2s1.9.7 3 .9c1 .3 2.1.4 3.1.6l3.1.3 3.1-.1 3.1-.6 3.1-.9c1-.3 1.9-.7 3-1.2 3 1 5 3.5 5.8 6.5.1.7.3 1.5.1 2.2l-.4 6.6-.4 4.4c-.1 1.5-.3 3-.7 4.4-.9 2.8-1.3 5.8-2.8 8.4l-.4.7v-.6c0-1.5-.3-3-.3-4.4 0-.7 0-1.5.1-2.2.1-.7.4-1.5.6-2.1l1-4.3c.3-1.3.3-2.8.4-4.3l.4.1c-.7 1.5-1.3 3-1.5 4.6-.7 2.4-1.6 4.7-1.9 7.1l-.3 3.7v7.4c0 1.3-.1 2.5-.6 3.8-.4 1.2-1 2.4-1.9 3.4s-1.8 1.8-3 2.5l-.1-.6c1-.1 1.9-.4 2.8-1s1.6-1.2 2.4-1.9l.3-.3v.4c.1.7.1 1.5.1 2.2 0 .7-.1 1.5-.4 2.2-.6 1.5-1.8 2.5-3.1 3.1-1.3.6-3 .9-4.4.9-1.5.1-3 .1-4.4.1s-3-.1-4.4-.1c-.7 0-1.5-.1-2.2-.3-.7-.1-1.5-.4-2.1-.7-.7-.3-1.3-.7-1.9-1.2-.6-.6-1-1.2-1.3-1.9-.6-1.3-.9-3-.3-4.4l.1-.3.1.1c.7.6 1.5 1.3 2.4 1.8.4.3.9.6 1.3.7s.9.3 1.5.3l-.1.3c-1-.9-2.2-1.8-3.1-2.8-.9-1-1.5-2.4-1.8-3.8-.3-1.3-.3-2.8-.3-4.1l.1-4.1c0-2.8-.3-5.6-.9-8.3l-1-4.1-.9-3.1c0-.1-.1-.3-.1-.4 0-.1-.3-.1-.4-.1v-.1l1.5 7.7c.3 1.3.4 2.5.6 3.8 0 1.3 0 2.7-.6 3.8-1.2-2.2-1.5-4.7-2.5-7.1-.1-.6-.1-1.2-.3-1.8-.4-.2-.5-.8-.5-1.4zm0 0c.1.6.1 1.2.3 1.8s.1 1.2.3 1.8c.9 2.4 1.3 4.9 2.5 7.1.6-1.2.6-2.5.6-3.8l-.6-3.8-1.5-7.7c.1 0 .4 0 .6.1.1.1.1.3.1.4l.9 3.1c.4 1.3.7 2.7 1 4.1.6 2.8 1 5.5 1 8.3l-.1 4.1c0 1.3.1 2.8.3 4.1.3 1.3.7 2.7 1.8 3.7.9 1 1.9 1.9 3.1 2.8l.4.3h-.4c-.4 0-1-.1-1.5-.3s-.9-.4-1.3-.7c-.9-.6-1.6-1.2-2.4-1.8l.3-.1c-.4 1.3-.3 2.8.3 4.1.3.6.7 1.2 1.2 1.8.4.4 1.2.9 1.8 1.2s1.3.6 2.1.6c.7.1 1.5.1 2.2.3 1.5.1 3 .1 4.4.1l4.4-.1c1.5-.1 3-.3 4.1-.9 1.3-.6 2.4-1.6 3-3 .3-.6.4-1.3.4-2.1 0-.7 0-1.5-.1-2.1l.4.1c-.7.6-1.5 1.3-2.4 1.9-.9.6-1.9.9-3 1l-1.3.1 1-.7c1-.6 1.9-1.5 2.8-2.4.7-.9 1.3-2.1 1.8-3.1.3-1.2.4-2.4.4-3.5v-7.4c0-1.3.1-2.5.3-3.7.4-2.5 1.2-4.9 2.1-7.2.1-1.6.7-3.2 1.5-4.7l.7-1.5-.3 1.6c-.1 1.5-.1 3-.6 4.3l-1 4.3c-.1.7-.4 1.5-.6 2.1-.1.7-.1 1.5-.1 2.1 0 1.5.1 3 .3 4.3l-.4-.1c1.5-2.5 1.9-5.5 2.8-8.4.4-1.3.6-2.8.7-4.3l.4-4.4.4-6.6c0-.7 0-1.5-.1-2.2-.6-2.8-2.7-5.5-5.5-6.3h.1l-3 1.2-3.1.9c-1 .3-2.1.4-3.1.4-1 .1-2.1.1-3.1.1s-2.1-.1-3.1-.3l-3.1-.6-3-.9-3-1.2c-1.8.7-3.5 1.9-4.7 3.7-1.2 1.6-1.5 3.7-1.5 5.8.1 4.1.5 8.1 1.1 12.2zm17.6 18.5s-.1-.4-.6-.6c-.1 0-.4 0-.7.1-.3.1-.3.3-.3.6s.1.4.4.6c.3 0 .6.1.7 0 .5-.3.5-.7.5-.7zm0 0v.3c0 .1 0 .4-.3.7-.3.1-.6.3-1 .3-.4-.1-.9-.6-.9-1 0-.1 0-.4.1-.7s.4-.3.6-.4c.4-.1.7 0 1 .1.3.1.4.4.4.6v.1zm-8.4-22.9c-.1-.1-.3-.1-.4-.1-.1 0-.3.1-.4.3h-.9v-.4c.2.2.3.4.3.6l.3.3c.1 0 .3-.1.4-.1.2-.3.5-.5.7-.6zm0 0c-.1.3-.3.4-.4.6-.1.1-.3.4-.7.4-.1 0-.4 0-.4-.1l-.3-.3c-.1-.1-.3-.4-.4-.6l-.1-.3.1-.1c.1-.1.6-.1.7-.1s.1 0 .3.1h.3c.1 0 .3-.1.6 0 0 .1.3.2.3.4zm22.2-22.4c2.5-2.1 5-4.1 6.9-6.8 1.2-1.6 1.6-3.2 1.5-5.3-.7-7.8-2.1-15.8-2.2-23.6-.1-6.6.3-13.3.9-19.9l1.2-12c.1-1.3-.3-1.6-1.5-1.6-5-.1-9.7-1.2-13.4-4.9-.3-.3-.4-.6-.9-.3-.4.3-.6.9-.6 1.3-.1 2.7-.1 5.5.1 8.1.1 1.9.3 4 .3 5.9-1-4.1-1.3-8.3-2.2-12.4-.4-2.5-1-5-1.6-7.5-.1-.4-.3-1-.4-1.5-.4-.7-.7-1.9-1.8-1.8-.9 0-1.3 1-1.6 1.9-1.6 4.7-2.2 9.4-3 14.3-.4 2.7-.7 5.3-1.5 8-.7-.6-.3-1-.1-1.6.3-4.4.6-9 .4-13.4 0-.6.1-1.2-.4-1.5-.6-.3-.9.4-1.3.7-3.2 3.1-7.4 4.1-11.7 4.4-1.6.1-1.9.6-1.8 2.1 1.3 10.2 2.2 20.2 2.2 30.6 0 8-.9 15.8-2.2 23.6-.4 3.1.4 5.5 2.2 7.7 1.6 2.1 3.7 3.5 5.6 5.3-1.3.1-2.1-.9-3-1.6-2.2-1.8-4.3-3.8-5.9-6.3-.7-1.3-1.2-2.7-.9-4.1 1-6.3 1.8-12.5 2.4-19 .1-1.8.3-5.9.1-6.8-.1-9.4-.9-18.9-1.9-28.2-1.2-9.2-.4-18.2.4-27.2 0-1 .1-1.9.6-2.8.3-.7.9-1.2 1.6-1-.7.7-1 1.8-1 2.8-.3 3.5-.1 7.1.7 10.5.4 1.5 1 1.8 2.5 1.5 12-3.1 24.1-3 36-.1 1.3.3 1.9 0 2.4-1.2 1.2-4.4 1.8-8.7.3-13.3 1.8.6 1 2.4 1.8 3.5.1 2.8.4 5.5.6 8.3 1 10.5-.6 21-1.5 31.3-.4 5.8-.9 11.4-.7 17.1 0 2.1.1 3.8.4 7.5.4 5.5 1.2 10.9 2.1 16.4.6 3.7-1.5 6.2-3.8 8.6-2 1.4-3.6 3.5-6.3 4.3z" class="st64"></path><path d="M132.4 197c1.6 4.4.9 8.9-.3 13.3-.3 1.2-1 1.5-2.4 1.2-12-2.7-24.1-2.8-36 .1-1.5.4-2.1 0-2.5-1.5-1-3.5-1-6.9-.7-10.5.1-1 .4-1.9 1-2.8 8.3-1 16.5-.9 25-.9 4.6 0 9.2.1 13.7.6.7 0 1.4.3 2.2.5z" class="st62"></path><path d="M89.4 200.5c-.9 9-1.6 18.2-.4 27.2 1.2 9.3 1.9 18.8 1.9 28.2 0 .9.4 2.1-1.2 2.5-3 .9-3.2.7-3.4-2.4-.1-4-.4-8.1-.3-12.1 0-.3-.1-.7 0-1 2.1-3.1 0-6.1 0-9.2-.1-8-1.3-15.8-1.3-23.8 0-2.1.1-4.1.1-6.3.8-2.8 1.8-3.5 4.6-3.1z" class="st63"></path><path d="m89.4 200.5-.9 14.6.1 7.2.7 7.2 1.3 14.6.4 11.1c0 .6 0 1.2.1 1.8 0 .3-.1.7-.3 1-.3.3-.6.4-.9.6l-1.8.4c-.3 0-.6.1-1 0s-.7-.4-.9-.7c-.3-1.3-.3-2.5-.3-3.7l-.1-7.4v-4.1c0-.1.1-.4.1-.6.1-.3.3-.6.4-.7.1-.6.4-1 .4-1.6.1-2.4-1.2-4.7-1-7.2l-.9-14.6-.3-7.4.3-7.4.4-1.5c.1-.4.4-1 .9-1.3.4-.3 1-.4 1.5-.6.6.1 1.2.3 1.8.3zm0 0c-1-.1-2.2-.3-3.1.4-.7.7-1 1.8-1.3 2.8l-.1 7.2.4 7.2 1 14.6c-.1 2.4 1 4.7 1 7.2 0 .7-.2 1.3-.4 1.9l-.4.9c-.1.1-.1.1-.1.3v4.1l.3 7.2c.1 1.2 0 2.5.3 3.5.1.3.1.4.4.4h.7l1.8-.4c.6-.1.9-.6.7-1 0-.6-.1-1.2 0-1.8l-.4-10.9-1.2-14.4-.7-7.2c-.1-2.5-.1-4.9 0-7.4.1-4.9.5-9.7 1.1-14.6z" class="st64"></path><path d="M137.8 203.2c.9 8.1-.1 16.2-.6 24.2-.1 2.8-.4 5.6-.6 8.4 0 1.3 0 2.7-.7 3.8-.3.4-.4 1 0 1.3 1.2 1 .9 2.4.9 3.5l-.1 12.5c0 .9 0 1.9-1.3 1.8-1-.1-2.8.1-2.8-1.8-.1-5.8.3-11.4.7-17.1.9-10.5 2.5-20.8 1.5-31.3-.3-2.8-.4-5.5-.6-8.3 2.5.3 2.9.7 3.6 3z" class="st63"></path><path d="M137.8 203.2c.6 4.9.4 9.9.1 14.8l-.9 14.8-.1 3.7c0 1.2-.1 2.7-.9 3.7-.1.1-.1.4-.1.6s0 .1.1.1l.3.3c.4.6.7 1.3.7 1.9v14.8c0 .3-.1.7-.4 1.2-.4.4-.9.4-1.3.3-.6-.1-1.2 0-1.9-.3-.3-.1-.7-.3-1-.7-.3-.3-.4-.7-.4-1.2v-5.6l.4-7.4 1.5-14.6c.6-4.8.9-9.7.9-14.6 0-2.5-.1-4.9-.3-7.4l-.4-7.4v-.1h.1c.9.1 1.8.1 2.5.6.4.3.6.6.7 1 .1.4.3.9.4 1.5zm0 0c-.3-.9-.4-1.8-1.2-2.2-.7-.4-1.6-.4-2.5-.6l.6 7.4c.1 2.5.4 4.9.4 7.4 0 4.9-.3 9.9-.7 14.8l-1.3 14.6-.4 7.4v5.5c0 .6.4 1.2 1 1.3.6.1 1.2.1 1.8.3.3 0 .6 0 .9-.1.1-.1.3-.4.3-.7 0-1.2 0-2.5.1-3.7l.1-7.4v-3.7c0-.6-.1-1.2-.6-1.6-.1-.3-.4-.4-.6-.7 0-.3 0-.6.1-.9.7-1 .7-2.4.9-3.5l.1-3.7 1-14.8c.3-5.3.5-10.3 0-15.1zm-14.7 96.2c-8.3 3.5-16.5 3.7-24.7-.3.1-.1.4-.4.6-.4 1.9-.3 2.2-1.5 1.9-3.2 2.2.6 4.3 1.5 6.5 1.9 4.6.9 8.9-.1 13.1-1.6-.5 2.1 1.1 2.9 2.6 3.6zm-11.8-42.7c-1.5-.1-3.1 0-4.6-.1-2.1-.3-3.8-1.3-5.2-3-.4-.6-.7-1.2-.9-1.9-.1-2.1.4-2.5 2.4-1.9 1.4.6 2.8 1.3 4 2.2 2.7 2.1 5.6 2.1 8.4-.1 1.3-1 3-1.8 4.6-2.4 1.3-.4 1.9.1 1.9 1.5 0 1-.3 1.8-.9 2.7-1.6 1.9-3.8 3-6.3 3.1l-3.4-.1zm11.6 5.8c-7.7-1-15.4-1-23-.1 7.7-2.8 15.3-2.8 23 .1z" class="st64"></path><path d="M107.4 262.9c2.5-.4 5-.4 7.8-.1-1.6.9-6 1-7.8.1z" class="st70"></path><path d="M111 339.3c0 .6-.4.9-.9.9-.6 0-.9-.3-1-.9 0-.6.3-.7.9-.9.5.1.8.4 1 .9zm16.1-15.8c-1 2.7-1.3 5.6-3 8.6-.1-2.7-.6-4.9.1-7.2.6-1.8.9-3.4 1.3-5.3l.7-4.6-1.5 4.7c-1.3 3.8-2.5 7.5-2.4 11.7v6.2c.1 4-1.2 7.4-5.2 9.9 2.5-.3 3.8-1.8 5.3-3 .9 4.6-1.6 7.7-6.3 8.1-3.8.4-7.7.4-11.5 0-1.2-.1-2.4-.4-3.5-1-2.5-1.3-3.7-4.4-2.8-6.9 3.1 2.5 3.5 2.7 5.2 3-3.7-3.1-4.6-4.3-5-7.8-.1-1.5-.1-3-.1-4.3.6-6.3-.9-12.4-2.8-18.5 0-.1-.1-.6-.6-.4.4 2.5.9 5.2 1.5 7.7.7 3.7.7 5.9 0 7.7-1.2-2.2-1.5-4.7-2.5-7.1-.1 2.4.6 4.4 1.2 6.6.7 2.2 1.2 4.6 1.2 6.9.1 2.7 0 5.2 0 7.8-.1 4.4 1.9 6.8 6.2 7.7 5 .9 10 .9 15.1.1 4.9-.7 6.6-3 6.6-8v-2.2c-.1-4.1-.1-8.4 1.3-12.4.9-2.8.9-5.4 1.5-8zm-24.5-7.1c-1 1.2-1.3 1.2-2.1-.1.3-.3.7.1 1 0 .3.1.6-.2 1.1.1zm15.5 0c-1 1.2-1.3 1.2-2.1-.1.3-.3.7.1 1 0 .5.1.8-.2 1.1.1z" class="st64"></path><path d="M407.3 307.5c0 .6-.1 1.6-.3 2.4-1.2 4-2.1 8.1-4.1 12.5l-.4-7.1c-.1-.9.1-1.3.6-1.9l2.5-11.4c-1.5 3.2-2.4 6.6-4.3 9.6-.3.6-.4.7-1.2 1.2-1.5.9-3.1 1.8-5.3 2.2l4.4 1.8c1 .4 1.9 1.2 1.8 2.5l-.4 12.8c-.1 3.7-1.8 6.6-4.9 8.7-.3.1-.9.3-.7 1 2.4-.4 4-2.2 5.8-3.7.7 4.4-.3 8-3.5 9.2-8 2.8-16.1 3-23.9-.1-3-1.2-4.3-5.8-3-8.9 1.6 1.6 3.1 3.2 5.6 3.4-4-2.7-5.6-6.5-5.8-11.1v-7.2c0-6.1 0-6.1 5.9-8.4-6.3-1.2-8-6.3-9.7-11.4.1 6.1 3.2 11.7 1.6 18.3-.6-1.5-1-2.2-1.3-3.2l-2.2-7.1c0-.4-.9-4.4-.9-5-.6-4.7-.9-9.6-1-14.3-.1-5.2 2.8-9.6 7.8-11.4 2.7 1.6 5.8 2.2 8.7 2.8 7.5 1.6 14.9.6 22-2.5 3.4.3 6.8 4.7 7.4 8.4.1.9.1 1.9.3 3 .1 1.2.1 1.9 0 3.7l-1.5 11.2zm-9.2 2.4c0-.7-.4-.6-.9-.6s-1.2-.3-1.3.4c-.1.6.4.9 1 1 .5-.1.9-.4 1.2-.8zm-22.4-.7H373c1.1 1.7 1.5 1.7 2.7 0zm17 33.6c.6.1 1 .1 1.3-.4l-.1-.3c-.6 0-1.1.1-1.2.7zm-1.2.3c-.1 0-.3-.1-.4 0-.1 0-.3.1 0 .3h.1c0-.1.1-.3.3-.3z" class="st63"></path><path d="m407.3 307.5-.3 1.9c0 .6-.3 1.2-.4 1.9l-1 3.7c-.7 2.5-1.5 5-2.7 7.4v.1-.1l-.4-7.1v-1l.4-.9 2.5-11.4h.1c-1.5 3.1-2.2 6.6-4.3 9.6-.1.3-.3.6-.6.7s-.4.4-.7.6l-1.6.9c-1.2.6-2.4 1-3.5 1.2v-.1l3.8 1.5c.6.3 1.3.4 1.8 1 .6.4.7 1.3.7 1.9l-.4 12.3c0 1.3-.3 2.8-.7 4-.4 1.3-1.2 2.5-2.1 3.5l-1.5 1.5c-.3.1-.6.4-.9.6-.3.1-.4.3-.3.7l-.1-.1c1.2-.3 2.2-.7 3.1-1.5l2.7-2.2.3-.1v.3c.3 1.9.3 3.8-.3 5.8-.3.9-.7 1.8-1.5 2.5-.7.7-1.6 1.2-2.5 1.3-3.5 1.2-7.4 1.9-11.2 1.9-3.8 0-7.7-.6-11.2-1.9-.9-.3-1.9-.6-2.5-1.3-.7-.7-1.2-1.6-1.6-2.5-.6-1.8-.7-3.8 0-5.8l.1-.4.3.3c.7.7 1.6 1.6 2.5 2.2.9.6 1.9 1 3 1.2l-.1.6c-2.2-1.5-4.1-3.7-5-6.3-.4-1.3-.7-2.7-.9-4s0-2.7 0-4v-4l.1-4c0-.7.3-1.3.6-2.1.4-.6 1-1 1.6-1.3l3.7-1.6v.6c-.6-.1-1.3-.3-1.9-.6l-1.8-.9c-.3-.1-.6-.4-.9-.6-.3-.1-.4-.4-.7-.7-.4-.4-.9-1-1.3-1.5-1.6-2.2-2.4-4.7-3.2-7.2l.4-.1c0 3.1.9 6.1 1.5 9.2.3 1.5.4 3.1.6 4.6 0 .7 0 1.6-.1 2.4l-.4 2.4-.1.6-.3-.6-1-2.5c-.4-.9-.6-1.8-.9-2.5l-1.6-5.2-.7-4.3c-.3-1.3-.3-2.8-.6-4.3l-.7-10.6c0-.7 0-1.5.1-2.2.1-1.5.6-2.8 1.3-4.1 1.3-2.5 3.8-4.4 6.5-5.3 2.2 1.3 4.9 2.1 7.4 2.7 2.5.6 5.2 1 7.8 1 2.7 0 5.3-.1 7.8-.7s5-1.5 7.5-2.5c1.2.1 2.4.7 3.4 1.6l1.3 1.3c.4.4.7 1 1 1.5.6 1 1.2 2.2 1.5 3.4.3 1.2.3 2.5.4 3.7.1 1.2.1 2.5 0 3.7l-.4 3.7-.9 6.6zm0 0 1.3-11.1c.1-1.2.1-2.5 0-3.7-.1-1.2-.1-2.5-.4-3.7-.3-1.2-.9-2.4-1.5-3.4l-1-1.5-1.3-1.3c-.9-.7-2.1-1.3-3.2-1.5-2.4 1-4.9 1.9-7.5 2.5-2.5.6-5.2.9-7.8.7-2.7 0-5.3-.4-7.8-1s-5.2-1.2-7.5-2.7h.1c-2.7.9-5 2.8-6.3 5.3-.7 1.2-1 2.7-1.3 4-.1.7-.1 1.5-.1 2.1l.1 2.1.6 8.6.6 4.3.7 4.1 1.6 5.2c.3.9.4 1.8.9 2.5l1 2.5h-.4l.4-2.2c0-.7.1-1.5.1-2.2 0-1.5-.3-3.1-.6-4.6-.6-3-1.5-6.1-1.5-9.2v-1.6l.6 1.5c.9 2.5 1.8 5 3.2 7.1.4.6.7 1 1.3 1.5.3.1.4.4.7.6.3.1.4.4.7.6l1.8.9c.6.3 1.2.4 1.9.6l.9.1-.9.3c-1.2.4-2.5 1-3.5 1.6-.6.3-1 .7-1.5 1.2-.3.4-.4 1.2-.6 1.8-.1 1.3-.1 2.7-.1 4v8c.1 1.3.3 2.7.7 3.8.9 2.5 2.7 4.6 4.7 6.1l.9.6-1.2-.1c-1.2-.1-2.4-.6-3.2-1.3l-2.5-2.2.4-.1c-.6 1.6-.6 3.7 0 5.3.3.9.7 1.6 1.5 2.4.6.6 1.5 1 2.4 1.3 3.5 1.3 7.2 1.9 11.1 1.9 3.7 0 7.5-.7 11.1-1.9.9-.3 1.8-.6 2.4-1.3.6-.6 1.2-1.5 1.5-2.4.6-1.8.6-3.7.3-5.5l.3.1-2.7 2.2c-.9.7-2.1 1.2-3.2 1.5h-.1v-.7l.4-.4c.3-.1.6-.4.9-.6.6-.4 1-.9 1.5-1.3.9-1 1.6-2.2 2.1-3.4.4-1.3.7-2.7.7-4l.4-12.3c0-.6-.1-1.3-.6-1.8-.4-.4-1-.7-1.8-1l-3.8-1.5-.3-.1h.4c1.2-.1 2.4-.6 3.5-1.2l1.6-.9c.3-.1.6-.3.7-.6.3-.1.4-.4.4-.7 2.1-3 2.8-6.3 4.3-9.6l.3-.6-.1.6-2.5 11.4-.4.9c-.1.3-.1.6 0 1l.4 7.1c1.2-2.4 1.9-4.9 2.7-7.4l1-3.7c.1-.6.4-1.2.4-1.9l-.3-1.7zm-9.2 2.4v-.3c0-.1-.1-.3-.4-.3s-.6.1-1 .1c-.1 0-.3 0-.3.1v.3c0 .1.1.4.4.6.3.1.6.1.9.1.3 0 .4-.3.4-.4-.1-.2 0-.2 0-.2zm0 0s0 .4-.6.7c-.3.1-.6.3-1 .1-.2 0-.4-.1-.6-.3-.1-.1-.3-.4-.3-.7 0-.1 0-.4.3-.7.3-.1.6-.1.7-.1.4.1.6.1.9.3.1 0 .3 0 .4.1.1.1.1.1.1.3v.3zm-22.4-.7c-.9.1-1.8.3-2.7.3l.3-.4.6.7c.1.3.4.4.4.4.1 0 .4-.1.6-.4l.8-.6zm0 0-.4.9c-.1.1-.1.3-.3.4-.1.1-.3.3-.6.3s-.4-.1-.6-.3l-.4-.4c-.3-.3-.4-.6-.6-.9l-.3-.4h.4c1 .1 1.9.1 2.8.4zm17 33.6s.3 0 .4-.1c.1 0 .3-.1.3-.1l.1-.1v-.1.1h-.1c-.1 0-.3 0-.4.1l-.3.2zm0 0s0-.3.1-.6c.1-.1.3-.3.6-.4h.6c.1 0 .1 0 .1.1l.1.1v.4s0 .1-.1.1l-.3.3c-.3.1-.4.1-.6.1-.4.1-.5-.1-.5-.1zm-1.2.3s-.1.1-.3.1h-.2c.1 0 .1-.3 0-.3h-.1.1c.3.2.5.2.5.2zm0 0v.4c0 .1-.3.1-.3.1-.1 0-.3 0-.4-.3-.1-.1-.1-.4 0-.4.1-.1.1-.1.3-.1h.1s.1 0 .1.1l.2.2z" class="st64"></path><path d="M411.4 199.5c-.1 2.7.3 5.2-.1 7.8-.4 3.1-1 3.5-4 2.8-14.6-3.2-29.4-3.4-43.8.4-1.9.6-2.8-.1-3.1-2.1-.6-3.2-.4-6.6.1-9.9.3-1.5.9-1.9 2.4-1.9 15.4.6 30.6.4 45.9.1 1.3 0 2.1.6 2.7 1.6l-.1 1.2zm3.1 36.1-.1 8.3c0 1.2 0 2.2-1.3 2.8-2.4 1.2-3.1.7-3-1.8.3-8.6 1.6-17.1 2.8-25.7.6-4 0-8.1-.1-12.1 5.6 0 5.6.1 4.6 5.3-1 5.5-2.1 10.8-2.4 16.4-.2.6-.5 4.8-.5 6.8z" class="st63"></path><path d="m414.5 235.6-.1 6.8v1.8c0 .6 0 1.2-.3 1.6-.3.6-.9.9-1.3 1-.6.3-1 .4-1.6.4-.3 0-.6-.2-.7-.4-.1-.3-.3-.6-.3-.9-.1-.6 0-1.2 0-1.8l.1-3.4.6-6.8 2.2-17c.1-1.2.1-2.2 0-3.4l-.3-6.8v-.3h2.4c.7 0 1.3 0 2.1.3.3.1.7.3.9.7.1.3.3.7.3 1 0 .7-.1 1.5-.3 2.1l-1.5 8.1-1.2 8.1-.3 4.1-.7 4.8zm0 0 .1-4.1.3-4.1 1-8.1 1.3-8.1c.1-.7.1-1.3.1-2.1 0-.7-.3-1.2-.9-1.3-.6-.1-1.3-.1-1.9-.3h-2.1l.3-.3.4 6.8v3.4c0 1.2-.3 2.2-.4 3.4l-1.9 13.4-.7 6.8c-.1 1.2-.1 2.2-.1 3.4v1.6c0 .6.3 1.2.9 1.2.6 0 1-.3 1.6-.4.6-.1 1.1-.5 1.3-1 .6-1 .3-2.2.4-3.4l.3-6.8z" class="st64"></path><path d="M358.6 206.1c-1.3 10.2 1.2 20.2 2.1 30.3.1 2.5.4 5 .6 7.7 0 .7.9 2.4-.7 2.2-1.5 0-3.1-.4-3.2-2.4-.1-1.6.1-3.1.1-4.7 0-2.7.1-5.3 0-8.1-.3-6.8-1.6-13.6-2.8-20.4-1-4.3-1-4.3 3.9-4.6z" class="st63"></path><path d="M358.6 206.1s0 .3-.1 1c-.1.6-.1 1.6-.1 2.8v4.3c0 1.6.3 3.5.4 5.6l1.8 13.9.7 7.8.1 2.1c0 .3 0 .7.1 1 0 .3.1.6.1 1 0 .1 0 .4-.1.6-.1.3-.3.3-.6.4h-1.2c-.7 0-1.5-.3-2.1-.7-.6-.4-1-1.3-1-2.1v-2.1c.1-1.3.1-2.7.1-4V230c-.3-5-1-9.7-1.6-13.9l-.9-5.5c-.1-.9-.3-1.6-.3-2.4 0-.3 0-.7.1-1 .1-.3.4-.6.7-.6 1.2-.4 2.1-.3 2.8-.4.6-.1 1.1-.1 1.1-.1zm0 0s-.3 0-1 .1c-.6.1-1.6 0-2.7.4-.3.1-.5.3-.6.6-.1.3-.1.6-.1 1 0 .7.1 1.5.3 2.2l1 5.5c.7 4 1.5 8.7 1.8 13.9l.1 7.8v4.1c0 1.3-.3 2.8.7 3.5.4.3 1 .6 1.8.6h.9c.3 0 .3-.1.3-.4 0-.3-.1-.6-.1-.9-.1-.4-.1-.7-.1-1l-.1-2.1-.6-7.8-1.6-13.9-.3-5.6.1-4.3.3-2.8c-.3-.6-.1-.9-.1-.9z" class="st64"></path><path d="M370.7 137.6c.3.3.3.6.1 1-.3-.3-.3-.7-.1-1z" class="st69"></path><path d="M406.8 310c-1.2 4-2.1 8.1-4.1 12.5l-.4-7.1c0-.9.3-1.2.6-1.9l2.5-11.4c-1.5 3.2-2.4 6.6-4.3 9.6-.2.5-.7.9-1.2 1.2-1.5.9-3.1 1.8-5.3 2.2l4.4 1.8c1 .4 1.9 1.2 1.8 2.5l-.4 12.8c-.1 3.7-1.8 6.6-4.9 8.7-.3.1-.9.3-.7 1 2.4-.4 4-2.2 5.8-3.7.7 4.4-.3 8-3.5 9.2-8 2.8-16.1 3-23.9-.1-3-1.2-4.3-5.8-3-8.9 1.6 1.6 3.1 3.2 5.6 3.4-4-2.7-5.6-6.5-5.8-11.1v-7.2c0-6.1 0-6.1 5.9-8.4-6.3-1.2-8-6.3-9.7-11.4.1 6.1 3.2 11.7 1.6 18.3-.6-1.5-1-2.2-1.3-3.2l-2.2-7.1c-.3 3.7.9 7.1 1.9 10.5 1.6 5.2 1.8 10.5 1.3 15.8-.7 7.5 2.2 11.5 9.6 12.4 5.5.6 11.1.4 16.7 0 3.7-.3 7.1-1.6 8.6-5.6.9-2.7.7-5.3.6-8-.1-4.7 0-9.4 1.2-14.2 1.6-5.3 2.8-10.9 2.6-12.6zm-8.7-.1c-.1.6-.6.9-1.2.7-.6 0-1-.4-1-1v-.1c.1-.7.7-.4 1.3-.4.3.1.9.1.9.8zm-22.4-.7c-1.2 1.8-1.5 1.9-2.7 0h2.7zm17 33.6c.3-.6.6-.7 1.2-.7.1 0 .3.1.1.3-.3.6-.7.6-1.3.4zm-1.2.3-.3.3h-.2c-.1-.1-.1-.3 0-.3 0-.1.2 0 .5 0z" class="st64"></path><path d="M391.8 226c.1-3.2-.6-6.5 0-9.9 1.3.7 2.1 2.1 3 3 3.8 3.8 8.3 6.2 13.9 5.9 1.6-.1 1.5.6 1.5 1.6l-1.3 10.9c-1.2 9.6.3 19 1.9 28.5.7 4.7.4 5.6-4.1 7.1-7.5 2.5-15.5 3-23.3 2.8-5.3-.1-10.6-.6-15.8-2.1-.9-.3-1.9-.6-2.8-.9-4.1-1.5-4.9-2.5-3.8-6.6 3.1-13 2.8-25.8.7-39-.4-2.7-.4-2.5 2.2-2.5 5.2.3 9.4-1.9 13.1-5.5 1.2-1 2.1-2.4 3.4-3.8.4 6.1-.3 11.7-.3 17.3.7-1.6.7-3.4.9-5.2.4-4.6.7-9.3 1.8-13.9.4-2.1 1.2-4.3 3.5-4.4 2.4 0 3.1 2.4 3.5 4.3 1 4 1.3 8 1.6 12.1l.4 5.9.4 3.2c.6-1 .4-2.1.3-3.1-.4-1.7-.6-3.6-.7-5.7zm-13.5 17.6c0 .2 0 .2 0 0-.6.1-1.2 0-1.8.1-.9.1-1.9.1-2.2 1.2-.3 1.2.6 1.9 1.6 2.5 1.3.7 3 .9 4.4.6 3.8-.9 7.5-.7 11.4 0 1.5.3 3 .1 4.4-.6.9-.4 1.6-1.3 1.3-2.4-.1-1-1.2-1-1.9-1.2-1.5-.1-3-.1-4.4.1-3.2.7-6.5.9-9.7 0-1.1-.1-2-.1-3.1-.3zm18.5 13.3c-4.6-3-17.4-3.1-22.3-.1 7.2-.8 14.6-.8 22.3.1zm-16.1.7c3.2.6 6.5.7 9.6 0-3.1-.4-6.3-.6-9.6 0z" class="st63"></path><path d="m378.3 243.6 3 .3c3.2.9 6.5.7 9.7 0 1.5-.3 3-.4 4.4-.1.7.1 1.8.1 1.9 1.2.1 1-.4 1.9-1.3 2.4-1.3.7-2.8.9-4.4.6-3.8-.7-7.5-.9-11.4 0-1.5.3-3 .1-4.4-.6-1-.6-1.8-1.2-1.6-2.5.1-1 1.3-1 2.2-1.2.8.1 1.4.1 1.9-.1 0 .2 0 .2 0 0zm18.5 13.3c-7.7-.9-15.1-1-22.3-.1 4.9-2.9 17.7-2.9 22.3.1z" class="st64"></path><path d="M380.7 257.6c3.2-.6 6.5-.6 9.6 0-3.1.9-6.3.8-9.6 0z" class="st69"></path><path d="M408.9 193.9c-18 .6-28.6.6-46.8.6-1.8 0-2.5 3-2.8 4.6-.4 2.4-.6 4.7-.9 7.1-1.3 10.2 1.2 20.2 2.1 30.3.1 2.5.4 5 .6 7.7.3 2.2 0 4.9-.1 6.3-.3 6.1-1.5 11.8-2.7 17.7-.4 2.8 0 3.8 2.5 5 2.8 1.3 5.8 2.1 8.9 2.7 1.3.3 3.2-.1 3.5 1.9.3 2.1-1.2 2.5-2.5 3.1l-.4.4c2.7 1.6 5.8 2.2 8.7 2.8 7.5 1.6 14.9.6 22-2.5-.3-.3-.6-.7-1-.9-1.6-.4-2.4-1.5-2.1-3.1.3-1.8 1.8-1.6 3-1.8 3.2-.6 6.5-1.3 9.4-2.7 2.7-1.2 3.1-2.2 2.7-5l-2.4-14.5c-.6-3.7-.6-6.2-.6-8.7.3-8.6 1.6-17.1 2.8-25.7.6-4 0-8.1-.1-12.1-.1-2.1-.9-9.3-1.5-11.2-.1-.4.1 1.8.1 2.8-.1 2.7.3 6.1 0 8.7-.4 3.1-1 3.5-4 2.8-14.6-3.2-29.4-3.4-43.8.4-1.9.6-2.8-.1-3.1-2.1-.6-3.2-.4-6.6.1-9.9.3-1.5.9-1.9 2.4-1.9 15.4.6 30.6.4 45.9.1 1.3 0 2.1.6 2.7 1.6.2-1.2-.2-4.7-2.6-4.5zM363.6 225c5.2.3 9.4-1.9 13.1-5.5 1.2-1 2.1-2.4 3.4-3.8.4 6.1-.3 11.7-.3 17.3.7-1.6.7-3.4.9-5.2.4-4.6.7-9.3 1.8-13.9.4-2.1 1.2-4.3 3.5-4.4 2.4 0 3.1 2.4 3.5 4.3 1 4 1.3 8 1.6 12.1l.4 5.9.4 3.2c.6-1 .4-2.1.3-3.1l-.4-6.1c.1-3.2-.6-6.5 0-9.9 1.3.7 2.1 2.1 3 3 3.8 3.8 8.3 6.2 13.9 5.9 1.6-.1 1.5.6 1.5 1.6l-1.3 10.9c-1.2 9.6.3 19 1.9 28.5.7 4.7.4 5.6-4.1 7.1-7.5 2.5-15.5 3-23.3 2.8-5.3-.1-10.6-.6-15.8-2.1-.9-.3-1.9-.6-2.8-.9-4.1-1.5-4.9-2.5-3.8-6.6 3.1-13 2.8-25.8.7-39-.8-2.2-.8-2.1 1.9-2.1z" class="st64"></path><path d="M35.2 309.8c-.6-5-.9-10-1-15.1-.1-5.8 2.1-9.9 6.3-12.4 1-.3 2.1 0 3.1.4 7.4 3.4 14.8 3.2 22.1.3 1-.4 1.9-.6 3-.3 3.8 2.5 5.8 6.3 5.6 11.7-.1 4.4-.4 8.7-.7 13.1-.4 5.3-1.3 10.6-2.7 15.8-.1.6-.3 1.2-.6 1.8-.1.4-.4.7-.9.6s-.7-.4-.7-.9c0-2.8-.6-5.6.1-8.4s1.2-5.8 1.6-7.7c-.1 1-.6 3.2-1.2 5.2-.9 3.2-1 6.5-1 9.7 0 3.8.3 7.7-.3 11.5-.6 4.9-2.4 8.6-6.5 10.2-.6.1-1.2.6-1.8.7.6-.1 1-.4 1.6-.6 1.6-.7 3-1.9 4.3-3.2.3-.4.6-.7 1-1.2.3-.4.7-.7 1.2-.4s.6.9.4 1.5c0 .6 0 1.2.1 1.8 0 .7-.6 1.3-.4 2.1 0 .7-.3 1.3-.6 1.9-1.6.4-2.2 2.1-3 3.4-.1.1-.3.3-.6.4-.6 0-1.2.4-1.8.4-1.3.6-2.7.9-4 .7-3.5-.1-7.1.3-10.6-.3-1.5-.3-3-.6-4.3-1.6-2.8-2.2-3.5-5.5-3.4-9.2.1-1.3.7-1.6 1.8-.7.7.7 1.5 1.8 2.2 2.5 1.3 1.2 3 2.1 4.6 2.5 1 .3 2.2.6 3.1.6-.7.1-1.8-.3-2.8-.6-5.6-1.8-8.3-5.8-8.4-12.8 0-4.9 0-9.7-.3-14.6 0-.9-.1-1.6-.3-2.5-.9-3.4-1.3-6.8-1.9-9.6.7 3.1 1.3 6.8 2.1 10.3.6 2.7.1 5.3-.1 8 0 .4-.1.7-.6.9-.4.1-.7-.3-.9-.9-.7-2.2-1.3-4.6-1.8-6.9-.2-2.5-.8-5.3-1-8.1z" class="st62"></path><path d="M69 253.6c0-.9-.1-1.8 0-2.7-.1-.7-.1-1.5 0-2.2 0-1-.1-2.2 0-3.2-.1-.9 0-1.9.1-2.8-.1.3-.1.1-.4-.3l1.2-15.7c.1-2.2.1-2.2-1.6-2.7-2.4-.7-4.9-1.3-7.4-1.8-1.9-.3-2.2.1-2.2 2.4v6.1l-1.6-11.2c-.3-1.6-.4-3.2-1.2-4.6-.6-1.3-1-1.3-1.6 0-.9 1.9-1 4.1-1.5 6.2l-1.6 11.2c-.1.6 0 1.2-.6 1.8l.4-6.9v-1.3c0-3.5-.3-4-3.2-3.2l-5.9 1.8c-1.3.3-1.6 1.2-1.3 2.7.7 5.6 1 11.4 1.3 17.1.4 8.4 0 16.7-1.3 25-.6 3.5.1 5.9 3 7.4.9 1.2 2.2 1.8 3.5 1.9 6.8 1.3 13.4 2.1 19.8-2.1.1-.3.3-.3.4-.3 3.4-1.8 3.4-2.7 3.1-5.9L69 253.6z" class="st63"></path><path d="M69.5 202.1c1 3.5.6 7.2-.1 10.8-.3 1-.9 1.2-1.6.9-5.2-1.5-10.5-1.8-15.8-1.5-3.1.1-6.1.7-9 1.6-.6.1-1.2.4-1.5-.6-.9-3.7-1.5-7.5-.1-11.4 1-.6 2.2-.4 3.2-.4 7.8-.3 15.2-.9 23-.1.4.1 1.4.3 1.9.7z" class="st62"></path><path d="M43.6 276.5c4.1 1.6 8.3 2.4 12.5 2.2 3.4-.1 6.6-.6 9.7-1.9.3-.1 1.2-.4 1.5-.6-.6.6-2.2 1-2.1 2.5 0 1.5.3 2.5 1.6 3 .6.1 1.2.3 1.8.6-1 0-5.9 1.6-8.9 2.4-5.8 1.2-10.8.4-16.1-1.9-.9-.4-2.7-.6-3.7-.6.9-.3 1.2-.6 2.1-.9.3-.1 1.3-.4 1.5-.9.3-1.4.6-2.7.1-3.9zm5.1 69.7c-3.1-.7-5.8-2.4-7.8-5.3-.9 5 1.2 9.3 5.2 10.6 3.7 1.2 7.4.9 11.1.9 1.8 0 3.5-.3 5.5-.7.7 1 .7 1.2-.3 1.8-1 .6-2.1.4-3.1.6-3.1-.1-6.2-.1-9.3 0-1.8-.1-3.7-.3-5.3-.9-3.4-1.2-5.5-4.3-5.6-8.4l.1-3.8c.3-2.2 0-4.4 0-6.6.1-4.3-1-8.1-1.9-12.3l-1.8-9.9c-.1-.7 0-1.6 0-2.4l1.8 8.9c.4 2.4 1.2 4.6 2.1 6.6.1-3.2.7-6.3 0-9.6-.9-3.8-1.3-7.8-2.1-12.3.7.9.7 1.5.9 2.2l2.1 9c1.2 4.9.9 9.7.9 14.6l.3 6.9c.9 5.2 3.4 8.4 7.7 9.7-.2.4-.4.6-.5.4z" class="st64"></path><path d="M69.5 241.5c.4-8.1 2.1-16.4 1.6-25.1 0-.4-.1-1 .6-1 .3.1.4.1.7.3 1.8.9 2.1 1.6 1.9 3.8 0 .4 0 1-.1 1.5-.1 2.1-.4 4-.7 6.1-.3 1.3-1.2 2.7-.1 4-.3 3.2.6 6.3.4 9.4 0 2.2.3 4.4.3 6.6 0 2.4 0 4.9-.6 7.2-.4 1.6-1.6 2.7-2.8 2.7-.7 0-1.3-.4-1.3-1.3 0-1.2-.3-2.2-.3-3.4.1-.9 0-1.6 0-2.5.1-1 0-2.2 0-3.2.1-1.7.4-3.6.4-5.1z" class="st62"></path><path d="M39.7 215c-.1.4-.3 1.2-.3 1.6-.4 6.8.7 13.6 1 20.4.3 6.1.9 12 .4 18-.1 1.3.1 2.2-.9 1.5-.9-.4-1.9-1.8-2.2-2.8-.9-3.7-.7-7.4-.4-11.2.3-3.3.4-6.6.4-9.9 0-1 0-1.9.4-2.8.1-.3.3-.6.1-.9-1.3-1.6-1-4-1.6-5.9-.1-1.2-.3-2.5-.3-3.7-.3-2.2 0-2.8 1.6-3.7.4 0 1.5-.5 1.8-.6z" class="st63"></path><path d="M39.7 215c-.1.7-.3 1.6-.3 2.4v2.4c0 1.6.1 3.2.3 4.9l1 9.6.7 9.6c.3 3.2.3 6.5.1 9.7 0 .9-.1 1.6-.1 2.4 0 .3 0 .4-.1.9 0 .1-.1.3-.3.4-.1.1-.4.3-.7.3-.4 0-.6-.1-.7-.1-.3-.1-.4-.3-.7-.4-.3-.1-.4-.3-.6-.4-.7-.6-1.2-1.3-1.6-2.4-.1-.6-.1-.9-.3-1.3-.1-.4-.1-.9-.1-1.2-.4-3.4-.3-6.6.1-9.9l.6-9.6c0-.9 0-1.8.6-2.7.1-.3.1-.3.3-.4v.1l-.1-.1c-.1-.1-.3-.3-.3-.6-.1-.1-.1-.4-.3-.6-.6-1.6-.4-3.4-.9-4.7l-.1-2.5c0-.9-.1-1.6-.1-2.5 0-.4.1-.9.3-1.3.3-.4.6-.6 1-.9.8-.5 1.5-.8 2.3-1.1zm0 0c-.7.4-1.5.7-2.2 1.2-.3.3-.6.6-.7.9-.1.3-.1.7-.1 1.2 0 .7.1 1.6.3 2.5l.3 2.5v-.1c.6 1.6.6 3.2 1.2 4.6 0 .1.1.3.3.4.1.1.1.3.3.4l.1.1c.1.1.1.3.1.4v.6c-.1.3-.3.4-.3.6-.3.6-.3 1.3-.3 2.1.1 3.2 0 6.5-.3 9.7-.1 3.2-.4 6.3 0 9.4 0 .4.1.7.1 1.2 0 .3.1.9.3 1 .1.6.7 1.2 1.2 1.6l.3.3c.1.1.3.1.3.1h-.1c-.1 0-.3 0-.4.1-.1.1-.1.1-.1.3v-.3c0-.9.1-1.6.1-2.4v-9.6l-.3-9.7-.6-9.6v-4.9c0-.7 0-1.6.1-2.4-.1-.6.1-1.5.4-2.2z" class="st64"></path><path d="M69.5 340.8c0 .6 0 1 .3 1.6-.6.6-.6 2.1-1.8 1.5 0-.9.1-1.8-.1-3-1.8 2.4-3.8 4.1-6.3 4.9-.1-.1-.1-.3 0-.4 4.6-2.5 6.1-7.1 6.2-12.5v-7.7c-.3-5 .6-9.9 1.9-14.6.4-1.8.7-3.7 1.6-5.5.1 1.6-.1 3.1-.4 4.6l-1.5 7.5c-.4 2.7 0 5.3.4 8.1l1.3-4.4c1-4 1.8-8.1 2.2-12.4 0-.3.1-.7.3-1 0 4-.7 8-1.5 12-.4 2.5-1 5.2-1.8 7.5-.4 1.5-.6 3-.6 4.4.1 3-.7 6.1-.2 9.4zm-7.4 12.7c.6-.6.3-1.2.3-1.8.4-.1 1-.4 1.5-.6.6.6.4 1.3.3 2.1-.1.1-.1.1-.3 0-.4.1-.9.3-1.3.3-.2.1-.4 0-.5 0z" class="st19"></path><path d="M49.7 354c1.3-.6 2.8-.3 4.1-.3 1.8 0 3.4-.3 5.2.3h-9.3zm14.5-.8c-.6-.6-.4-1.3-.3-2.1l.3-.3c1-.9 1.9-2.1 2.8-3.2l.7-1.6c.4-.3.4-.9.7-1.3.4-.6.9-.9 1.5-.4.7 1 .3 2.2 0 3.1-.6 2.7-2.1 4.6-4.1 5.8-.5.3-1 .7-1.6 0z" class="st19"></path><path d="M69.6 344.2c-.7.6-1 1.6-2.1 1.8.1-.7.1-1.3.3-2.1.6-.4 1-1.3 1.8-1.5v1.5c.2.1.2.1 0 .3z" class="st19"></path><path d="M43.2 308.1c.7.7 1.5.7 2.2 0 .1 1-.3 1.6-.9 1.8-.7 0-1.3-.3-1.3-1.8zm20.2.2c.7.6 1.5.7 2.2 0 .1 1-.3 1.5-.9 1.6-.8 0-1.3-.3-1.3-1.6z" class="st64"></path><path d="M67 347.4c-.4 1.6-1.5 2.7-2.8 3.2.7-1 1.4-2.5 2.8-3.2z" style="fill:#8c8c8d"></path><path d="M52.9 335c.3-.7.3-1.8 1.3-.9.6.4.4 1 0 1.3-.5.5-1 .5-1.3-.4z" class="st63"></path><path d="M52.9 335c.4.3.7.6 1.2.1.3-.3.1-.7 0-1 .9.1.6.7.4 1.3-.1.6-.7.7-1.2.6-.1-.1-.9-.1-.4-1z" class="st64"></path><path d="M48.7 346.2c0-.1.1-.1.1-.3 1 .3 2.1.7 3.2.7-1.1.4-2.3.2-3.3-.4zm12.7-.9v.4c-.9.6-1.8.9-3.1.7l3.1-1.1z" class="st19"></path><path d="M57.7 248.9c-1.8-.7-3.7-.1-5.8-.1-1.9 0-3.5-1-4.6-3.1-.4-1-.1-1.8.9-1.9 1.2-.1 2.4-.1 3.4.6 2.2 1.5 4.6 1.5 6.8 0 1-.7 2.2-.6 3.4-.4 1 .1 1.3.9.7 1.9-1 2-2.6 2.9-4.8 3z" class="st64"></path><path d="M52.1 254.5c1.9-.4 3.9-.4 5.8 0-2 .8-3.9.6-5.8 0z" class="st67"></path><path d="M73.9 245.7c0-1.6-.3-2.2-.3-4 0-.3.1-.9 0-1.3v-.1c-.1-1.2 0-4 0-4.6.3-2.7-1-5.3-.1-8.1.6-2.1.6-4.3.6-6.5l-.9 4.9c-.4 1.9-1 3.7-.6 5.9.4 2.7.3 5.6.4 8.6l.1 3.2c.3 3.4.3 6.6-.4 10-.3 1.2-.9 2.2-1.9 2.7-.7.3-1.9.1-1.9-1.2 0-1 0-1.6-.1-2.5V247c0-.1.1-1.6.1-1.8.1-1.2.1-1.6.1-2.8 0-.6.3-1.8.3-2.2l.6-7.1c.6-5.9.9-11.2.9-17.3 0-1.9-.1-2.4-.3-3.7l-.9-7.5c-.1-.9-.3-1-.6-2.5.3 1.9.6 2.7.6 3.2.1 2.4-.1 3.7-.4 6.1-.3 1.5-1.3 1.5-2.5 1.3-.4 0-.9-.1-1.2-.3-3.8-.9-7.7-1.2-11.5-1.2-3.5.1-7.1.4-10.5 1.5-1.2.4-2.4.6-2.7-.9-.3-2.1-.7-4.9-.3-7.1.1-.9.3-1.6.4-2.8-.3.8-.6 1.6-.7 2.4-.3 2.4-.6 3.4-.6 5.8 0 1.5 0 2.5-.3 4.6-.1.4-.4 1.3-.4 2.7 0 2.8.1 4.4.3 7.4l.9 11.1c.3 3.7.1 6.9.4 10.6.1 2.1.1 4.9 0 6.9 0 .6-.3 5.8-.4 6.6 0 .4-.1 1-.1 1.5l-1.2 10c-.1 1 0 1.9.6 2.7 1 1.2 2.2 2.2 3.7 2.4-2.8-1.5-3.5-3.8-3-7.4 1.2-8.3 1.8-16.5 1.3-25-.3-5.8-.6-11.4-1.3-17.1-.1-1.5 0-2.4 1.3-2.7 1.9-.4 4-1.3 5.9-1.8 3-.7 3.2-.4 3.2 3.2v1.3l-.4 6.9c.4-.6.4-1.2.6-1.8.6-3.7 1-7.5 1.6-11.2.3-2.1.4-4.3 1.5-6.2.6-1.3 1-1.3 1.6 0 .6 1.5.9 3 1.2 4.6.6 3.7 1 7.4 1.6 11.2v-6.1c0-2.2.4-2.7 2.2-2.4 2.5.4 4.9 1 7.4 1.8 1.8.4 1.8.6 1.6 2.7l-1.2 15.7c0 1.2-.1 2.1-.1 3.1v5.3c0 6.2.7 12.3 1.3 18.5.3 3.1 0 5.6-2.7 6.9 2.7-.4 4.3-2.7 4-5.8L69.5 260c-.1-1-.7-3.4.1-3.4 1.3 0 1.5.3 2.4-.9.7-1 .9-1.5 1-2.5.1-1.6.4-2.5.4-4.3.5-.7.5-1.9.5-3.2zm-12.5 7.8c-.1-.1-.3-.1-.6-.3-.4-.1-.9-.1-1.3-.3-4-.9-7.8-.9-11.7 1 3.7-.7 7.4-.6 11.1-.4.1.1.3.1.4.1.7.1 1.3.3 2.1.6.3 0 .6 0 .7-.3 0-.5-.3-.5-.7-.4z" class="st64"></path><path d="m112.3 399.2.9.4c.6.6.7.3.9-.3v-.3c-.5.2-1.1.2-1.8.2zm328.4-1.5c.7.1 1.3 0 1.6-1.2-.6.5-1.1 1-1.6 1.2zM302.5 396c-.6 1-2.2 2.1-3.7 2.7.3.4.6.4 1.5.1.7-.1 1.3 0 2.1.1.9.3 1.9.4 2.1-1.3 0-.1.1-.3.1-.4-.8-.5-1.6-.8-2.1-1.2zm142.1-1.4v.4c0 .6.1.9.6.3l.1-.1c-.2-.3-.4-.4-.7-.6zm-146.3 2.6c1.6-1.8 2.8-4.6 2.4-7.2 1.3 2.1 2.8 3.7 4.7 5 .1-.3.3-.9.7-.7.1 0 .4.1.6.1v1.5l.9.4c.3-.7.4-1.8.1-2.4-.1-.1-.1-.3-.3-.6-2.5-1.5-5.3-4.9-6.6-7.1-.6.1-1.2.3-1.8.3.4 2.2.3 9.2-6.3 11.8.1 0 .3.1.4.1.6.3.9 0 1.2-.7 1.4.2 2.7-.8 4-.5zm-205.5 1.9c0 .1.1.1.4-.1-.2-.1-.4.1-.4.1zm1-.3s.1 0 .1.1c.4.1.6-.1.7-.4-.2 0-.5.1-.8.3zm350-16.3c.4 2.1 1.5 4.4 3.1 6.9h.7c.7.3.7 1.2.7 1.8v2.5c0 .4-.3 1.3.3 1.5.6.1.7-.4.9-1-.4-.3-.7-.6-1.2-1 .6-.9.9-1.2 1.6-2.7l-3.5-7.5c-.9 0-1.9 0-2.6-.5zm3.1 3.6c0 .1 0 .1 0 0z" class="st72"></path><path d="M490.3 350.8c-.1-.7-.6-1.3-1-1.8-.7-.6-1.3-.6-1.9.3-.6.6-1 .7-1.8.3-.7-.6-1.6-.7-2.7-.3-1.9 0-3.7-.1-5.6.4-.1 0-.1 0-.3-.1-1.6-.3-3.1-.3-4.7-.1h-.7c-.4.6-.9.7-1.5.4-.1-.1-.3-.4-.4-.6 0-.1 0-.1-.1-.3h-7.8c-.7-.4-1.3-.1-1.9.4-.7-.1-1.5-.1-2.2 0-1.6 0-3.2.1-4.9.7-.4 0-.6-.6-1-.6-1.8 0-3.4-.3-5.2.1l-.1-.1c-.7-.6-1.3-.6-1.9.3-.6.6-1 .7-1.8.3-.7-.6-1.6-.7-2.7-.3-1.9 0-3.7-.1-5.6.4-.1 0-.1 0-.3-.1-1.6-.3-3.1-.3-4.7-.1-.3 0-.4 0-.7.1-.4.6-.9.7-1.5.4-.1-.1-.3-.4-.4-.6 0-.1 0-.1-.1-.3H419c-.4-.3-.7-.3-1-.1-.1 0-.3.1-.4.3l-.3.3c-.7-.1-1.5-.1-2.2 0-.6-.3-1.3-.3-2.1 0l-3.7.1h-.1c-1.6 0-3.2-.1-4.9 0-.6 0-1.3 0-1.9.1-.3 0-.4 0-.7.1-.4.6-.9.7-1.5.4-.1-.1-.3-.4-.4-.6 0-.1 0-.1-.1-.3h-7.8c-.7-.4-1.3-.1-1.9.4-.7-.1-1.5-.1-2.2 0h-.9v-.1c-.7-.6-1.3-.6-1.9.3-.6.1-1 .1-1.6.3 0 0-.1 0-.1-.1-.7-.6-1.6-.7-2.5-.4-1.3 0-2.8-.1-4.1.1h-.1c-.3 0-.6.1-.9.1-.1 0-.4-.1-.6 0h-.1c-1.6-.3-3.1-.3-4.7-.1h-.7c-.4.6-.9.7-1.5.4-.1-.1-.3-.4-.4-.6 0-.1 0-.1-.1-.3h-7.8c-.7-.4-1.3-.1-1.9.4-.7-.1-1.5-.1-2.2 0-1 0-2.2.1-3.2.3l-.3-.3c-.7-.6-1.3-.6-1.9.3-.1-.1-.3-.1-.4-.1-.7 0-1.3 0-2.1-.1-.4-.1-1-.1-1.6 0-.4 0-.9 0-1.3.1-1.5 0-3.1 0-4.6.4-.1 0-.1 0-.3-.1-1.6-.3-3.1-.3-4.7-.1h-.7c-.4.6-.9.7-1.5.4-.1-.1-.3-.4-.4-.6 0-.1 0-.1-.1-.3h-7.8c-.7-.4-1.3-.1-1.9.4-.7-.1-1.5-.1-2.2 0-1.6 0-3.2.1-4.9.7-.4 0-.6-.6-1-.6-1.8 0-3.4-.3-5.2.1l-.1-.1c-.7-.6-1.3-.6-1.9.3-.6.6-1 .7-1.8.3-.7-.6-1.6-.7-2.7-.3-1.9 0-3.7-.1-5.6.4-.1 0-.1 0-.3-.1-1.6-.3-3.1-.3-4.7-.1-.3 0-.4 0-.7.1-.4.6-.9.7-1.5.4-.1-.1-.3-.4-.4-.6 0-.1 0-.1-.1-.3H282c-.7-.4-1.3-.1-1.9.4-.7-.1-1.5-.1-2.2 0h-.3c-.6-.4-1.3-.6-1.8.1-.6 0-1.2.1-1.8.3-.7-.6-1.6-.7-2.5-.3-1.6 0-3.1-.1-4.7.1h-.1c-.1 0-.1.1-.3.1h-.1c-.3 0-.7-.1-1 0-1.5-.3-2.8-.1-4.3-.1-.3 0-.4 0-.7.1-.4.6-.9.7-1.5.4-.1-.1-.3-.4-.4-.6 0-.1 0-.1-.1-.3h-7.8c-.7-.4-1.3-.1-1.9.4-.7-.1-1.5-.1-2.2 0h-.9v.6c-.7-.6-1.3-.6-1.9.3-.6.1-1 .1-1.6.3 0 0-.1 0-.1-.1-.7-.6-1.6-.7-2.5-.4-1.3 0-2.8-.1-4.1.1h-.1c-.3 0-.6.1-.9.1-.1 0-.4-.1-.6 0h-.1c-1.6-.3-3.1-.3-4.7-.1-.3 0-.4 0-.7.1-.4.6-.9.7-1.5.4-.1-.1-.3-.4-.4-.6 0-.1 0-.1-.1-.3h-7.8c-.7-.4-1.3-.1-1.9.4-.7-.1-1.5-.1-2.2 0-1.6 0-3.2.1-4.9.7-.4 0-.6-.6-1-.6-1.8 0-3.4-.3-5.2.1l-.1-.1c-.7-.6-1.3-.6-1.9.3-.6.6-1 .7-1.8.3-.7-.6-1.6-.7-2.7-.3-1.9 0-3.7-.1-5.6.4-.1 0-.1 0-.3-.1-1.6-.3-3.1-.3-4.7-.1h-.7c-.4.6-.9.7-1.5.4-.1-.1-.3-.4-.4-.6 0-.1 0-.1-.1-.3h-7.8c-.6-.4-1.2-.1-1.8.3-.6-.4-1.2-.6-1.6 0-.1 0-.4 0-.6.1-.6 0-1.2 0-1.8.1-.7-.3-1.5-.3-2.2 0h-2.5c-1.6 0-3.1-.1-4.7.1-1.2-.1-2.2 0-3.4 0-.3 0-.4 0-.7.1-.4.6-.9.7-1.5.4-.1-.1-.3-.4-.4-.6 0-.1 0-.1-.1-.3h-7.8c-.7-.4-1.3-.1-1.9.4-.7-.1-1.5-.1-2.2 0-1.6 0-3.2.1-4.9.7-.1-.3-.3-.5-.6-.6-.6-.4-1.2-.6-1.8 0h-2.7c-.6-.1-1.2-.1-1.8.1-1.9 0-3.7-.1-5.6.4-.1 0-.1 0-.3-.1-1.6-.3-3.1-.3-4.7-.1-.3 0-.4 0-.7.1-.4.6-.9.7-1.5.4-.1-.1-.3-.4-.4-.6 0-.1 0-.1-.1-.3h-7.8c-.7-.4-1.3-.1-1.9.4-.7-.1-1.5-.1-2.2 0-1.6 0-3.2.1-4.9.7-.4 0-.6-.6-1-.6-.9 0-1.9-.1-2.8-.1-.6-.4-1.2-.6-1.6 0-.3 0-.6 0-.9.1h-.1c-.3.3-.7.1-1 .1-.7-.4-1.6-.4-2.4-.1-1.9 0-3.7-.1-5.6.4-.1 0-.1 0-.3-.1-1.6-.3-3.1-.3-4.7-.1h-.7c-.4.6-.9.7-1.5.4-.1-.1-.3-.4-.4-.6 0-.1 0-.1-.1-.3H67c-.7-.4-1.3-.1-1.9.4-.4-.1-.9-.1-1.3-.1-.6-.4-1.2-.4-1.8.1-.7 0-1.5.1-2.1.1-.7-.4-1.5-.4-2.4-.1h-1.2c-1.6 0-3.2-.1-4.9.1h-.1l-.1.1c-1.5-.3-2.8-.3-4.3-.1-.3 0-.4 0-.7.1-.4.6-.9.7-1.5.4-.1-.1-.3-.4-.4-.6 0-.1 0-.1-.1-.3h-7.8c-.7-.4-1.3-.1-1.9.4-.7-.1-1.5-.1-2.2 0-1.6 0-3.2.1-4.9.7-.4 0-.6-.6-1-.6-1.8 0-3.5-.3-5.3.1H21c-.4.4-1 0-1.5.1h-.1c0 .1-.4.3-.4.4-.1.4-.3.6-.3 1.2l-.1 4.6v.3c0 1.3-.4 2.5 0 3.8.1 1.8.6 3.7.4 5.5-.1 1.8.3 3.4.4 5v.1c-.3.7-.1 1.5-.1 2.2.1 2.1-.4 4.1.3 6.1-.3.6-.3 1.2-.1 1.8v.6l-.4.9c0 .3 0 .6.1.9.1.4.1 1 0 1.5.1 1.2 0 1.5 0 2.5 0 .6 0 1.5.1 2.1.1.6 2.4 0 3.2.1.7.3.7 1.2.7 1.8v2.5c0 .4-.3 1.3.3 1.5.6.1.9-.6 1-1.2.3-1.2 1.2-1.6 1.9-1.2.4.4.9 1 1.3 1.6 0 .3 0 .4.1.6.1.3.4.1.7.1 1.5.1 3-.1 4.4.3.4.4.9.3 1.3.3.7-.3 1.6-.1 2.4.1 1 .6 1.9 0 2.8-.1 1-.1 2.4-.6 3.2.3.6.6.7.3.9-.3.3-1.3.3-2.7.3-4 .4-.6.9-.4 1.5-.3l-.1 3.7c-.3.3-.6.6-.3 1.2.1.4.6.4.9.3 1-.4 2.1-.3 3.1.1.6.3.9 0 1.2-.7 1.3 0 2.7-1 4.1-.7.3 1.8.6 2.1 1.8 1.6.7-.1 1.3 0 2.1.1.9.3 1.9.4 2.1-1.3.1-.3.1-.4.3-.7h2.2c0 .1.1.1.3 0 .3 0 .7.1 1 .1.4.4.9.3 1.3.3.7-.3 1.6-.1 2.4.1 1 .6 1.9 0 2.8-.1 1-.1 2.4-.6 3.2.3.6.6.7.3.9-.3.1-.4.1-.7.1-1.2-2.1-.6-4.1-1.6-6.3-3.4.9.1 2.5 0 3.5-.3.7.7 1.6 1.5 2.8 2.2v-1.5c.4-.6.9-.4 1.5-.3 0 .7 0 1.6-.1 2.4l3.5 1.5c-1 0-2.2-.1-3.5-.4v.1c-.3.3-.6.6-.3 1.2.1.4.6.4.9.3 1-.4 2.1-.3 3.1.1.6.3.9 0 1.2-.7 1.3 0 2.7-1 4.1-.7.3 1.8.6 2.1 1.8 1.6.7-.1 1.3 0 2.1.1.9.3 1.9.4 2.1-1.3.1-.4.3-1 .6-1.5.1-.3.4-.7.6-1 .1-.3.3-1 .7-.9.1 0 .4.1.6.1v1.9c2.2-1.9 4-5.2 3.4-8.4 2.8 4.4 6.6 6.9 14.2 9.4-5.9-.1-9.6-1.3-12.4-3.4-.1.3-.4.6-.7.9.4.4.7.9 1 1.3 0 .3 0 .4.1.6.1.3.4.1.7.1 1.5.1 3-.1 4.4.3.4.4.9.3 1.3.3.7-.3 1.6-.1 2.4.1 1 .6 1.9 0 2.8-.1.7-.1 1.5-.3 2.2-.1l2.2-.9c.1-1 .1-1.9.1-3 .4-.6.9-.4 1.5-.3 0 .7 0 1.5-.1 2.4 1.3-.9 2.2-1.9 2.5-2.5.7.6 1.6 1 3.4.9-1.2 1-3 2.5-6.1 3.1-.3.3-.3.6-.1 1 .1.4.6.4.9.3 1-.4 2.1-.3 3.1.1.6.3.9 0 1.2-.7 1.3 0 2.7-1 4.1-.7.3 1.8.6 2.1 1.8 1.6.7-.1 1.3 0 2.1.1.9.3 1.9.4 2.1-1.3v1.1c-1.5-.3-2.8-1.2-3.8-2.2-1.5 1.2-3.4 2.1-6.2 2.2 2.2-1 3.8-2.2 5-3.8-.6-.7-1-1.6-1.2-2.1-.9.4-2.2.6-3 .6-7.7 0-7.5-11.8.1-11.8.6 0 1 0 1.5.1 2.4-1.6 6.3-3.1 8.4-3.4-2.4 1.2-4.5 2.9-6.2 4.9.6.7 1 1.6 1 2.7 0 2.5-2.8 4-4.6 2.4 2.5-1.3 2.7-4.1-.1-4.1-4.4 0-4.3 7.2.3 7.2 1.6 0 3-.4 4-1.2 1.2 4 2.5 6.3 5 8.1 0-.1 0-.1.1-.3 0 0 .1 0 .1.1.6.1.9-.6 1-1.2.1-.6.4-1 .9-1.2 0 .7-.1 1.5 0 2.1 0 .6.1.9.6.3l.3-.3c.3-.6.4-1.3.3-1.9.4.4.7 1 1.2 1.5 0 .3 0 .4.1.6.1.3.4.1.7.1 1.5.1 3-.1 4.4.3.4.4.9.3 1.3.3.1 0 .3 0 .3-.1 3.5-1.3 6.6-3.7 9-6.2-.4-.4-.9-.7-1.3-1.2-1.3 1-2.8 1.8-4.9 2.5-2.2-5.5-2.1-11.4-1.2-15.1 0 7.1 1.8 10.9 2.8 12.3.6-.3 1.3-.6 1.8-1.2-6.2-8.4-.9-21.3 5.6-28.1-3.5 5.3-9 17.6-3.5 26 1.8-3.4 2.7-6.8 1.2-9.4-.4 1.2-.9 2.8-1 4.9-.7-1.8-.9-4.7-.3-6.6l.7-2.8c5.3 2.8 5.6 10.6.6 15.8 1.1 1.3 2.4 2.3 3.8 3.1-.9.7-1.8 1.6-3 2.5 0 1-.1 2.1-.1 3.1-.3.3-.6.6-.3 1.2.1.4.6.4.9.3 1-.4 2.1-.3 3.1.1.6.3.9 0 1.2-.7.3 0 .7-.1 1-.1-2.4-.3-4.7-.9-5.6-1.5.6-.1 1.8-1 2.8-1.6.9.9 1.8 2.1 3.7 3 .7-.3 1.6-.6 2.4-.4.3 1.8.6 2.1 1.8 1.6.7-.1 1.3 0 2.1.1.9.3 1.9.4 2.1-1.3.1-.3.1-.4.3-.7.7 0 1.5 0 2.2.3.4.4.9.3 1.3.3.7-.3 1.6-.1 2.4.1 1 .6 1.9 0 2.8-.1 1-.1 2.4-.6 3.2.3.6.6.7.3.9-.3.1-.6.3-1.2.3-1.8-3.1-1.5-5.9-3.7-7.2-5.9 1 .9 2.2 1.6 3.2 1.6-1.3-2.4-1.6-5.8-1.6-6.8-.7.7-2.1 1.9-2.2 3.2.3-3.4 1.6-5 3.1-6.6.7 5.8 2.4 9.7 5 12.7v-.6c.4-.6.9-.4 1.5-.3 0 .7 0 1.5-.1 2.2.4.4 1 .9 1.6 1.3-.6-.1-1-.3-1.6-.4v.6c-.3.3-.6.6-.3 1.2.1.4.6.4.9.3 1-.4 2.1-.3 3.1.1.6.3.9 0 1.2-.7.9 0 1.8-.4 2.8-.7-10-1.5-12.3-14.9-11.5-19.6-2.1 1.3-4.3 3.2-6.8 6.6.3-1 .9-2.2 1.6-3.4-.3-4.6.7-8.1.9-9.3.3 2.7.4 4.7.9 6.6 1.6-2.4 3.7-4.6 5.2-5.5 0 9.4 1.5 21.1 10.9 24.5h.1c.1 0 .3.1.4.1h-.4c.3 1.3.4 1.8 1.3 1.6 1.8-.4 3.4-1 4.7-1.8.1-.3.3-.7.4-1 .1-.3.4-.7.6-1 .1-.3.3-1 .7-.9.1 0 .4.1.6.1v1.5c.4-.3.7-.6 1.2-.9 0-.4 0-.9-.1-1.2-.1-.3-.3-.6-.3-.7-3.5 2.8-8.1 3.7-12.1 1.3 3.8 1.6 17.6-1.8 17.3-18.6.9 4 .6 7.5-.6 10.8 1.3.3 2.7.1 4.6-.6-.7 2.1-2.5 6.2-6.3 9.3 0 .4-.3 1.2.3 1.3.6.1.9-.6 1-1.2.3-1.2 1.2-1.6 1.9-1.2.4.4.9 1 1.3 1.6 0 .3 0 .4.1.6.1.3.4.1.7.1 1.5.1 3-.1 4.4.3.4.4.9.3 1.3.3.7-.3 1.6-.1 2.4.1 1 .6 1.9 0 2.8-.1 1-.1 2.4-.6 3.2.3.6.6.7.3.9-.3.3-1.3.3-2.7.3-4 .4-.6.9-.4 1.5-.3 0 1.2-.1 2.4-.1 3.7-.3.3-.6.6-.3 1.2.1.4.6.4.9.3 1-.4 2.1-.3 3.1.1.6.3.9 0 1.2-.7 1.3 0 2.7-1 4.1-.7.3 1.8.6 2.1 1.8 1.6.7-.1 1.3 0 2.1.1.9.3 1.9.4 2.1-1.3.1-.3.3-.7.3-1 0 0 0 .1.1.1.1.3.4.1.7.1h1.2c0 .1.1.1.3 0 1 0 1.9 0 2.8.3.4.4.9.3 1.3.3.7-.3 1.6-.1 2.4.1 1 .6 1.9 0 2.8-.1 1-.1 2.4-.6 3.2.3.6.6.7.3.9-.3.3-1.3.3-2.7.3-4 .4-.6.9-.4 1.5-.3 0 1.2-.1 2.4-.1 3.7-.3.3-.6.6-.3 1.2.1.4.6.4.9.3.3-.1.4-.1.7-.1 3.2-1.6 6.6-5.2 7.2-8.7.4 2.2 1.6 3.5 3.4 4.7-3-1.3-4.6 1.3-3.7 2.8h.7c0 .3.1.4.1.6.2.1.5.2.7.1 1.5 0 2.2-1 2.1-1.6.7.6 1.9 1 3 1.5v-.1c.1-.3.1-.4.3-.7h2.2c0 .1.1.3.3 0h.1c-.9-.4-1.9-1.2-2.8-1.9.9.1 2.5 0 3.5-.3.7.9 1.9 1.8 3.4 2.5.6 0 1.2 0 1.6.3 1 .6 1.9 0 2.8-.1 1-.1 2.4-.6 3.2.3.6.6.7.3.9-.3.3-1.3.3-2.7.3-4 .4-.6.9-.4 1.5-.3 0 1.2-.1 2.4-.1 3.7-.3.3-.6.6-.3 1.2.1.4.6.4.9.3.6-.3 1.2-.3 1.8-.1 3.2-1.9 4.1-5 4.1-9.2 0-6.8-5.6-10.6-13.7-7.1 3.2-2.5 9.6-4.9 14-4.3-2.4 1.2-2.2 6.1 1.9 6.1s5-7.4-2.1-7.4c.9-1.9 2.8-4.6 6.2-6.8-1.6 1.8-2.5 3.8-2.8 5.3 2.7.3 4.9 3.1 4.9 6.2 0 1.2-.3 2.2-1 3.4.7 2.4 1.9 5.6 4.1 8.1 0-.4.1-.9.6-1.5l.1-.1c.6 0 1.2-.1 1.5 0 .7.3.7 1.2.7 1.8v2.5c0 .4-.3 1.3.3 1.5s.9-.6 1-1.2c.3-1.2 1.2-1.6 1.9-1.2.4.4.9 1 1.3 1.6 0 .3 0 .4.1.6.1.3.4.1.7.1 1.5.1 3-.1 4.4.3l.3.3c1.5-1.2 2.5-2.8 3.7-5-.4 1.5-.3 2.4-.9 3.8 5.9-3.4 5.9-10.9 5.6-13.3.7.3 2.2 0 3.2-.6.3 5.6-1.8 10-5 13 .1.4.6 1.2 1 1.9.6 0 1.3 0 1.9.6.6.6.7.3.9-.3 0-.1.1-.3.1-.4-.6-.4-1-1-1.5-1.6.7-.4 1.2-1.2 1.6-2.2 0 .1.1.1.1.3.4-.6.9-.4 1.5-.3 0 .9 0 1.8-.1 2.7.4.7 1 1.5 1.8 2.1.6 0 1.2.1 1.8.4.6.3.9 0 1.2-.7 1.3 0 2.7-1 4.1-.7.3 1.8.6 2.1 1.8 1.6.7-.1 1.3 0 2.1.1.6.1 1.2.3 1.6-.1 1.3-3.4-1.2-8-6.1-12.3 3.4 1.5 6.6 4.6 8.6 6.3-1.3 0-1.9 1.8-1.5 3.1.1-.3.4-.7.6-1 .1-.1.1-.4.3-.6l.1.1c.3.3.6.7.9 1v.9c0 .6.1.9.6.3.1.3.4.1.7.1h.7c1.2-1.2.7-4-.6-6.8 1.5 3.2 3.5 5.5 6.2 7.1.6-.1 1.2 0 1.8.3 1 .6 1.9 0 2.8-.1 1-.1 2.4-.6 3.2.3.6.6.7.3.9-.3.3-1.3.3-2.7.3-4 .4-.6.9-.4 1.5-.3 0 1.2-.1 2.4-.1 3.7-.3.3-.6.6-.3 1.2.1.4.4.4.7.3 2.7-2.1 4.9-5.5 4.1-9.2 1.6 3.4 5.8 6.9 10 9.2.1-.3.3-.6.3-1 .1-.3.3-.7.3-1 0 0 0 .1.1.1.1.3.4.1.7.1h1.2c0 .1.1.1.3 0 1 0 1.9 0 2.8.3.4.4.9.3 1.3.3.7-.3 1.6-.1 2.4.1 1 .6 1.9 0 2.8-.1 1-.1 2.4-.6 3.2.3.6.6.7.3.9-.3.3-1.3.3-2.7.3-4 .4-.6.9-.4 1.5-.3 0 1.2-.1 2.4-.1 3.7-.3.3-.6.6-.3 1.2.1.4.6.4.9.3 1-.4 2.1-.3 3.1.1.6.3.9 0 1.2-.7 1.3 0 2.7-1 4.1-.7.3 1.8.6 2.1 1.8 1.6.4-.1.9-.1 1.2 0-1.6-1.9-2.5-4.1-2.7-5.8-2.2.4-5-1.3-5-4.9-.4-4.6-1.3-8.1-3.5-10.8 2.5 1.5 4.6 5.9 5.5 7.7.3-.1.6-.3.7-.3 0-2.1-.7-3.8-1.2-5 1.8 2.2 3.1 4.6 3.4 6.8-.9-.3-2.5 0-2.5 1.8 0 1.5.7 2.4 2.2 2.4s1.9-1.5 1.9-2.7c0-7.8-5-12.3-11.4-13.1 2.1-3.2 3.4-9.3 3.8-12.1.4 3.7 0 8.4-.4 10.6 3.8 1.2 10.2 6.5 10.2 13.4 0 3.7-1.2 4.9-1.2 7.5 0 1.2 0 2.5 1.3 4.7.9.3 1.8.4 2.1-1.3 0-.1.1-.3.1-.4.1 0 .3 0 .4.1.4.4.9.3 1.3.3.7-.3 1.6-.1 2.4.1 1 .6 1.9 0 2.8-.1 1-.1 2.4-.6 3.2.3.6.6.7.3.9-.3.3-1.3.3-2.7.3-4 .4-.6.9-.4 1.5-.3 0 1.2-.1 2.4-.1 3.7-.3.3-.6.6-.3 1.2.1.4.6.4.9.3 1-.4 2.1-.3 3.1.1.6.3.9 0 1.2-.7 1.3 0 2.7-1 4.1-.7.3 1.8.6 2.1 1.8 1.6.1 0 .4-.1.6-.1 2.4-2.1 4.3-5.3 3.5-8.7.7 1.5 1.9 3.1 3.4 4.6 0-.3-.1-.4-.1-.7-.6-1.2-.4-1.9.3-2.8l.1-.1c-3.1-2.5-5.8-6.1-6.1-11.8 2.7 4.1 9.2 4 9.2.1 0-3-4.1-3.1-5.2-.3-3.4-3-4.6-9-4-11.8.6 3.5 2.2 6.6 4.1 8.3 1.2-.6 2.4-.7 3.4-.6-2.5-2.8-6.1-4.7-6.1-9 0-2.7 1.2-5.5 4.6-8-1.5-1-2.7-2.1-4.9-2.8 3.1.1 5.3 1.2 6.6 1.6 1.8-.9 4.7-1.6 8-1.6-7.4 1.6-11.8 5.5-11.8 10.8 0 1.3 1.2 3.2 2.5 3.2 3.8 0 2.7-5-.3-3.1-.4-2.8 2.1-6.2 4.3-7.1-.9 2.1-1.6 3.2-1.6 4.6 3.2.6 4.3 7.5-1.6 8 2.2 2.2 4.3 5 4.3 8 0 2.1-1.3 3.7-3 4.6.9 2.7 1.9 5.3 3.7 8.3-.3.7-.7 1.5-1.2 2.2l.1.1c.4.4.9 1 1.3 1.6 0 .3 0 .4.1.6.1.3.4.1.7.1 1.5.1 3-.1 4.4.3.4.4.9.3 1.3.3.7-.3 1.6-.1 2.4.1 1 .6 1.9 0 2.8-.1 1-.1 2.4-.6 3.2.3.6.6.7.3.9-.3.3-1.3.3-2.7.3-4 .4-.6.9-.4 1.5-.3 0 1.2-.1 2.4-.1 3.7-.3.3-.6.6-.3 1.2.1.4.6.4.9.3 1-.4 2.1-.3 3.1.1.6.3.9 0 1.2-.7 1.3 0 2.7-1 4.1-.7.3 1.8.6 2.1 1.8 1.6.7-.1 1.3 0 2.1.1.9.3 1.9.4 2.1-1.3.1-.4.3-1 .6-1.5.1-.3.4-.7.6-1s.3-1 .7-.9c.1 0 .4.1.6.1 0 .7-.1 1.5 0 2.1 0 .6.1.9.6.3l.3-.3c.4-.9.6-1.8.1-2.5-.6-1.2-.4-1.9.3-2.8.1-.3.3-.6.3-1-.1-.1-.1-.3-.3-.4.6-1.3.1-2.8.1-4.1.1-3.2.1-6.6.3-9.9 0-.3-.1-.6-.1-.9 0-.3 0-.4.1-.7 0-.1-.1-.1-.1-.3-.1-.4 0-.9 0-1.3.1-1.2.6-2.4.3-3.5v-1.5c.3-.4.1-1 .3-1.6.1-1.3 0-2.7.1-3.8l.3-.3h.1c.1-.1.1-1.3.1-1.9v-.7c-2.6-4.6-2.3-6.8-2.6-9zm-469 39.6c0-.2 0-.2 0 0 0-.2 0-.2 0 0zm1.7-14.7h.1c0 .2-.1.2-.1 0zm9.7-8.7-.1-.1h.1v.1zm0 .3c0-.1 0-.1 0 0 0-.1 0-.1 0 0zm.2-2.5s0-.1 0 0c0-.1 0-.1 0 0zm.7-10.5c0 .2 0 .2 0 0 0 .2 0 .2 0 0 0 .2 0 .2 0 0zm0 24.3c0-.2 0-.2 0 0zm2.1 14.6s0-.2 0 0c0-.2 0 0 0 0zm.6-6.4c0-.1 0-.1 0 0 0-.1 0 0 0 0zm-.2-33.6.3.3c-.1 0-.1-.2-.3-.3zm2.7 7.9v-.1.1zm9.7 14.5-.1-.1h.1v.1zm55.2-11.4c0 .2 0 .2 0 0 0 .2 0 .2 0 0zm-.1 2v.1l-.1-.1h.1zm-2.7-12c-.1 0-.1 0 0 0zm-4.5 5s0 .2 0 0c0 .2 0 .2 0 0 0 .2 0 .2 0 0zm-4.2 8.1c-.4.1-1.6.9-2.2 1.5-1.5-3.4-2.7-8.1-2.7-11.4.9 3.9 2.8 7.3 4.9 9.9zm-5.7-13.7c-1 7.1.6 14.2 3.4 18.2 1.8-1.6 2.8-3 6.1-4-3.2 2.4-5.2 5.5-7.2 8.7-.7-4.6-6.1-7.5-4-20.4-3.2 1.3-7.1 3.1-9.7 3.1 2.1-.4 8.4-3.1 11.4-5.6zm-3 13c-.1 0-.1-.2 0 0-.1-.2-.1-.2 0 0-.1-.2 0-.2 0 0zm-14-5.9v.1h-.1l.1-.1zm4.9.7c4-.4 6.2-1.2 8.9-3.1-.7 2.7-2.1 5-3.5 7.2-4.1 6.1-10.2 10.8-12.7 15.4 1.3-5.9 9.7-12.7 11.2-18.2-.6.3-1.6.4-1.9.4-1.2 3.4-6.2 9.4-8.6 11.1 4-5.4 6.8-10.4 6.6-12.8zm6.2 3.3-.1-.1h.1v.1zm-13.5-11.5c-.1 0-.1-.1-.3-.3.2.1.2.3.3.3zm-2.8 24.9c0 .2 0 .2 0 0zm7.4 21.3H52.4c3.8-1.2 8.3-5.2 9-9.4.4 2.2 1.6 3.5 3.4 4.7-4-1.8-5.5 3.5-2.2 3.5 1.5 0 2.2-1 2.1-1.6 1.7 1.1 4.8 2.3 7 2.8zm2.8-15.8c1.8 4.6-1 9.6-6.2 9.6-.7 0-1.5-.1-2.1-.3-5.5-1.5-4.3-9.4.9-9.4 1.8 0 3.1 1 3.1 2.5s-1.5 2.5-3 1.9c1.6-.6 1.2-2.2-.1-2.2-2.8 0-3.4 5.2 1.2 5.2 5.3 0 5.3-7.8.4-9.3 2.7-5 6.5-7.2 11.4-13-4.1 7.4-7.5 10.2-8.1 12.1.4.3.9.6 1.2 1 3-3.1 8.1-5.3 12-5.3-6.9 1.7-9.4 4.5-10.7 7.2zm-7.5 2.9c0-.1 0-.1 0 0 0-.1 0 0 0 0zM79.1 375v.3-.3zm2.6 16.7c.2.1 0 0 0 0zm12 4.3c-.4-1-.4-1.6-.1-2.4.1.3.1.7.1 1.2v1.2zm2.4-9.6c-.6.1-1.2.3-1.8.3.6 2.5.1 11.1-9.3 12.7 5-1.9 6.2-5.2 6.2-10.2 0-6.8-5.6-10.6-13.7-7.1 3.2-2.5 9.6-4.9 14-4.3-2.4 1.2-2.2 6.1 1.9 6.1s5-7.4-2.1-7.4c.9-1.9 2.8-4.6 6.2-6.8-1.6 1.8-2.5 3.8-2.8 5.3 2.7.3 4.9 3.1 4.9 6.2 0 .9-.1 1.8-.7 2.7-.2.2-.3.4-.3.6.9 2.8 2.4 6.8 5.5 9.4-2.7-.7-6.4-5.2-8-7.5zm8.4-8.6s0-.1 0 0zm.6-22.7c0-.2 0-.2 0 0zm2-2.7.3.3c-.1 0-.3-.1-.3-.3zm2.5 8v-.1c.2-.1.2.1 0 .1zm15.5 38.1s-.1 0 0 0c-.1 0-.1 0 0 0zm18.5-6.5s0 .1 0 0c0 .1 0 .1 0 0zm.7-39.6c-.1 0-.1-.1-.3-.3.2.2.3.2.3.3zm10.7 2.4c-1.8 1.3-6.5 2.1-10.5 1.5.7.6 1.2 5.2.9 8.3-.7-4.1-3.5-8.7-6.6-10.8 2.9.8 10.7 1.6 16.2 1zm-13.2 8.4s-.1 0 0 0zm-1.2 2.5v.1l-.1-.1h.1zm-2.8-12c.2 0 .2.2 0 0zm-16.2 16.4c-6.2-.4-7.5-7.1-4.9-10.8-.6-2.2-2.2-4.9-4.3-5.6 2.8 0 5 1.9 6.2 3.8.7-.4 1.6-.6 3-.6 1.6-1.5 4-3.2 7.1-3.2-3.1 1.5-4.6 3.1-5.2 4 2.4 2.1.9 7.7-3.5 5.8 3.1-.7 3.5-4 1-4-4.1 0-4.4 8.4 1.2 8.4 2.2 0 4.6-2.1 4.4-4.6 2.2 7.2-8.1 8.3-8.9 18.8-1.3-4.9 1.1-9.9 3.9-12zm2.1-3.9s0-.2 0 0c0-.2 0 0 0 0zm-2.8-2-.1-.1h.1v.1zm-.9.9c-.2 0-.2 0 0 0-.2 0-.2 0 0 0zm4 16.1s0-.1 0 0zm17.5-3.7c0-.1 0-.1 0 0 0-.1 0-.1 0 0 0-.1 0-.1 0 0zm-21.8 3.7c.6-3 2.8-8.1 7.7-11.2-1.2 1-3.7 5.3-4.1 7.7 4.1-1.9 11.5-3.2 19.3-1.6-9.3-.2-15.5 1.6-22.9 5.1zm25.4-6.5c-4.1-1.6-11.7-1.5-17-.6 5.3-2.4 11.4-3.1 15.7-2.5.6-2.2 2.4-5.9 5-9.4-.6-1.8-1.3-2.8-2.2-4.3 1.5 1 3.1 1.5 4.4 1.6 2.5-2.7 5.6-5 9.2-6.1-8 4-13.1 14.8-15.1 21.3zm1.6-14.6v-.1c.1 0 .1.1 0 .1zm15.5 38.1c-.1 0-.1 0 0 0-.1 0-.1 0 0 0-.1 0-.1 0 0 0zm10.8-6.5s0 .1 0 0c0 .1 0 .1 0 0 0 .1 0 0 0 0zm.7-6.4s0 .2 0 0zm0-33.2c-.1 0-.1-.1-.3-.3l.3.3zm-10.3 1.5c3.1.7 5.5 1.3 11.8-.1-4 1.3-5.9 3.8-5.2 8.4-.9-4.6-5-7.3-6.6-8.3zm22.4 20.7-.1-.1h.1v.1zm.5-9.8c.1-.1.1 0 0 0zm-6.1-7.4c1.3 1.3 1.6 2.2 1.6 4 0 1.9-1.9 3.8-4.1 5.9-.4 2.4-.3 4.4 0 6.3-.6.3-1.3 1.3-1.8 2.1l-.3-6.6c-2.2 1.9-4.4 4.6-6.2 8.6.4-10.2 9.6-13.1 9.6-17.1 0-1.5-.7-3-2.8-3-1.6 0-2.5 1.2-2.5 2.5 0 1 .6 2.4 3.1 1.3-1.6 2.2-5 2.2-7.1 8.4-.3-3.1 1.2-6.9 2.5-8.1-1.2-2.4 0-6.5 4.6-6.5 3.8 0 8 0 9.6-1.5-1.6 3.4-5.5 3.6-6.2 3.7zm-4 2.7v-.1.1zm11.1 3.8-.1-.1h.1v.1zm1.2 27.1c0 .1 0 0 0 0zm1.6-25.3c0 .2 0 0 0 0zm2.4-11.8c5.3.4 6.1 1.6 7.8 3 1.6-1.5 5.6-3 8-3-5 1.3-8 4.9-9.3 8.3-.3-4.3-2.3-7.1-6.5-8.3zm4.4 32.6c0-.1 0-.1 0 0 0-.1 0-.1 0 0zm1 4.3s0-.1 0 0c0-.1 0 0 0 0zm3.6-1.9c0-.2 0-.2 0 0 .1-.2.1 0 0 0zm-1.2-1.5c.6-3.4.7-6.9-.1-10.8 1.2.4 2.1.4 3.2.6-.5 3.9-1.2 7.7-3.1 10.2zm6.5-10.8s0-.1 0 0c0-.1 0-.1 0 0 0-.1 0 0 0 0zm.4 9.5c.9-4 .9-9.2-.1-11.7-1.5.9-5.5 1.2-9.4-1 4.3.6 8.6-.6 12-3 .2 4.3.5 10.1-2.5 15.7zm5.6-20.5-.1-.1h.1v.1zm.2.3s0-.2 0 0c0-.2 0-.2 0 0zm0-2.3c0-.1 0-.1 0 0 0-.1 0-.1 0 0zm.7 13.5c0-.2 0-.2 0 0zm-3.7-17.9c1.6.7 2.4 2.4 2.2 4 0 3.1-2.1 5.6-5.6 5.6-3.1 0-4.4-2.2-4.9-3.5-1 2.2-.7 4.7.1 6.2-.9.4-2 .5-3 .3-1-4.4.4-9.9 5.9-13.1-2.7 2.8-1 7.2 1.6 7.2 1.8 0 2.8-1.2 2.8-2.4 0-1.3-.9-2.7-2.8-2.1-.3-4.1 4.6-7.4 9.4-7.4-4.3.8-5.5 3.6-5.7 5.2zm6.4-7.5.3.3c-.2 0-.3-.2-.3-.3zm2.5 8v-.1c.1-.1.1.1 0 .1zm9.7 14.4-.1-.1h.1v.1zm1.5-10.6-.1-.1h.1v.1zm1.2 27.2s0-.2 0 0zm14.2-25.4-.1-.1h.1v.1zm0 .3c0-.2 0-.2 0 0 0-.2 0-.2 0 0zm.1-2.5s0-.2 0 0c0-.2 0-.2 0 0zm.8-10.5s0 .1 0 0c0 .1 0 .1 0 0 0 .1 0 .1 0 0 0 .1 0 .1 0 0zm0 24.2c0-.2 0-.2 0 0zm2 14.6s0-.1 0 0c0-.1 0 0 0 0zm.6-6.3c0-.2 0-.2 0 0 0-.2 0 0 0 0zm-.1-33.7.3.3c-.2 0-.2-.2-.3-.3zm2.6 8v-.1.1zm9.8 14.4-.1-.1h.1v.1zm1.3-10.6-.1-.1h.1v.1zm32-.4v.1c-.1 0-.1-.1 0-.1-.1 0-.1 0 0 0zm2.2 4.8c-.4.1-1.6.9-2.2 1.5-1.5-3.4-2.7-8.1-2.7-11.4 1.1 3.9 2.9 7.3 4.9 9.9zM281 351.1c-.1 0-.1-.1-.3-.3.2.1.3.1.3.3zm-2 2.2c-.2 0-.2 0 0 0-.2 0-.2 0 0 0zm-.5 8.6c-.1 0-.1 0 0 0zm-.3-9.8c0-.1 0-.1 0 0zm-.7 12.3v.1l-.1-.1h.1zm3.4-1.2c-1.2 3.4-6.2 9.4-8.6 11.1 4.1-5.5 6.9-10.5 6.8-12.8 4-.4 6.2-1.2 8.9-3.1-3 9.9-12.8 16.4-16.4 22.6 1.3-5.9 9.7-12.7 11.2-18.2-.6.3-1.5.4-1.9.4zm2.5-4.4v-.1c.2-.1.2.1 0 .1zm-3.1 32c0-.1 0-.1 0 0 0-.1 0 0 0 0zm.7-6.5c0 .2 0 0 0 0zm-1.9-.7c1.8 4.6-1 9.6-6.2 9.6-7.8 0-6.8-9.6-1.2-9.6 1.8 0 3.1 1 3.1 2.5s-1.5 2.5-3 1.9c1.6-.6 1.2-2.2-.1-2.2-2.8 0-3.4 5.2 1.2 5.2 5.3 0 5.3-7.8.4-9.3 2.7-5 6.5-7.2 11.4-13-4.1 7.4-7.5 10.2-8.1 12.1.4.3.9.6 1.2 1 3-3.1 8.1-5.3 12-5.3-6.8 1.6-9.2 4.4-10.7 7.1zm14.2-7.1c-.7-4.6-6.1-7.5-4-20.4-3.2 1.3-7.1 3.1-9.7 3.1 2.4-.3 8.7-3 11.7-5.6-1 7.1.6 14.2 3.4 18.2 1.8-1.6 2.8-3 6.1-4-3.5 2.3-5.6 5.4-7.5 8.7zm12 13c0-.2 0-.2 0 0zm3.5-1.9c0-.2 0-.2 0 0 .2-.2.2 0 0 0zm1.6-14.5c0-.2 0-.2 0 0zm48.6-22.7c-.1 0-.1-.1-.3-.3.2.1.3.1.3.3zm-2.1 2.2s-.1 0 0 0c-.1 0-.1 0 0 0zm-4.4-.9c0 .1 0 .1 0 0zm-2.8 1.9s-.3 1.6-1.6 3.4c-.9-1.5-3.5-3-6.1-3.4h7.7zm-9.4 10.3s0 .2 0 0c0 .2 0 .2 0 0zm-3-1.7-.1-.1h.1c.1-.1.1.1 0 .1zm0-8.6c-5 1.5-7.7 2.8-9.7 4.4 0 3.1-.4 6.2-1.3 7.2.1-3.4-.1-5.8-1.3-8.4 3.4-1.7 7.6-2.9 12.3-3.2zm-.7 9.5c-.2 0-.2 0 0 0-.2 0-.2 0 0 0zm-.6 9.4v.3c0-.2-.2-.2 0-.3-.2 0 0 0 0 0zm-3 3.8c-.1 0-.1 0 0 0-.1 0-.1 0 0 0-.1 0-.1 0 0 0zm-9.1-25.7c-.1 0-.1-.1-.3-.3l.3.3zm-2.1 2.3s-.1 0 0 0c-.1 0-.1 0 0 0zm-4.9 12.7c0-.2 0-.2 0 0zm3.3-1.4-.1-.1h.1v.1zm.1.3s0-.1 0 0zm.8 11.2c0-.1 0-.1 0 0zm-3.7-22.1H329c-1.6.3-4.1 1.2-6.6 2.2 2.2 2.8 2.7 9 .3 14.6 1.2-11.5-2.2-15-5.3-16.8zm5.7 36.8s0-.2 0 0zm2.2 0c-2.1-2.4-3-6.2-1.9-9.3.7 1 1.8 1.5 2.7 1.5-.7 2.1-.4 4.3.7 5.8-.7 1.4-1.5 2-1.5 2zm13.3-1.2s0 .1 0 0c0 .1 0 .1 0 0zm9.2-4.9c-3.4-4-7.8-8.4-9-9.2 0 0-.9.7-1.6 1.6 4 2.8 10.2 9 11.8 12.8-4-4.3-11.1-8.9-14.6-10.8-1.6 1.2-3.2 2.1-5.9 2.1-3.4 0-5.6-2.5-5.6-5 0-4.3 3.7-4.7 5-10.9.3 2.1.1 4.1-.3 5.6h.9c.6 0 1.2.1 1.6.3.7-5-.6-10.2-1.2-12.3 2.5 3.2 3.5 9.9 3.5 12.4 0 2.7-1.2 4.7-3.1 4.7.6-1.3.6-3.4-1.2-3.4-3.2 0-4.6 6.2 1.6 6.2 4.6 0 6.8-4.7 9.4-7.2 1 1.3 2.5 2.5 3.4 4 2.7-2.8 5.6-7.7 6.6-9.6-1 4.7-3.2 8.9-5 11.7l3.7 7zm-6.1-12.5c-.6-.6-1-1.2-1.8-1.9 2.4-2.2 9.4-10.6 10.8-14.3-2.6 8.3-6.2 13.1-9 16.2zm13.6-8-.1-.1h.1v.1zm3 26.3c0-.2 0-.2 0 0zm3.1-32.1v-.1c.1 0 .1 0 0 .1zm-11.3 5.2c1.2-2.1 2.4-6.8 2.2-9.6h10.5c-10 1.2-7 4.4-12.7 9.6zm14.4 1.9c0 .2 0 .2 0 0zM368 376c0-.1 0-.1 0 0 0-.1 0-.1 0 0zm-2.6-22.4c2.2.4 4.6.9 7.4 3.7-.6.6-1.2 1.2-1.6 2.1-1.3-3-4.1-4.9-5.8-5.8zm8.4 10.8c0 1.3 1.2 3.2 2.5 3.2 3.8 0 2.7-5-.3-3.1-.4-2.8 2.1-6.2 4.3-7.1-.9 2.1-1.6 3.2-1.6 4.6 3.2.6 4.3 7.5-1.6 8 2.2 2.2 4.3 5 4.3 8 0 2.1-1.3 3.7-3 4.6.9 2.7 1.9 5.3 3.7 8.3-.6 1.3-1.3 2.5-2.5 3.8-.6-.1-1.2-.6-1.6-1.2.6-.9.9-1.2 1.6-2.7-1.2-2.2-2.7-5.2-3.5-7.5-.7 0-1.8-.1-2.7-.6.6 2.5 1.9 5.5 4.3 8.6-3.8-2.8-7.7-6.2-8-13.3 2.7 4.1 9.2 4 9.2.1 0-3-4.1-3.1-5.2-.3-3.4-3-4.6-9-4-11.8.6 3.5 2.2 6.6 4.1 8.3 1.2-.6 2.4-.7 3.4-.6-2.5-2.8-6.1-4.7-6.1-9 0-2.7 1.2-5.5 4.6-8-1.5-1-2.7-2.1-4.9-2.8 3.1.1 5.3 1.2 6.6 1.6 1.8-.9 4.7-1.6 8-1.6-7.2 1.3-11.6 5.2-11.6 10.5zm17.8-14.3c-.1 0-.1-.1-.3-.3l.3.3zm-2.2 2c0 .2 0 .2 0 0zm-1.5 11.4-.1-.1h.1v.1zm3 26.3c0-.2 0-.2 0 0zm7.5-17.7c-.6-9.2-1.5-13.3-2.5-15.7-.9-.3-2.2-.3-2.7-.3 1.6 1.6 2.7 5.5 3.2 8.6-2.2-5.6-5.2-10.2-8.9-11.1 4 0 8.3.6 10.8 1.2.9 5.3.9 12.8.1 17.3zm4.2-15.5c-.3 3.4-1.2 7.5-2.1 9.4.4-6.3 0-8.9-.6-11.8 2.8.7 5.9.3 8.3-.4-3.1 1.7-4 2.2-5.6 2.8zm16.5-6.8c-.1 0-.1-.1-.3-.3l.3.3zm-2.7 26.8c1.2-.7 3.4-1.2 5.6.1-3.4-.7-6.2 1-6.2 3.4 0 1 .7 2.1 1.6 2.7-.6 4.6-3.4 7.4-4.1 12.5-1.2-3.5 1.2-6.9 1.2-10.6 0-2.8-4.6-11.2 5.3-13.3-2.1-1.6-3-2.7-4-4.4-.4.9-.1 2.8.4 4.1-2.7-2.1-1.6-6.6.3-8.6 1.2 6.2 5 6.5 8.3 11.2-4.2-.9-7.2.7-8.4 2.9zm8.2-11.9s0-.2 0 0zm3.5 10.8s0-.2 0 0zm3.1-3.6-.1-.1h.1v.1zm.4-9.7s0-.2 0 0c0-.2 0 0 0 0zm.9-.9-.1-.1h.1v.1zm-5.6.1c0 2.4-3.1 4-5.6 2.8.4 1 1.2 2.4 2.2 4-3-1.6-5.6-4.9-5.6-8.1 0-2.2 1.2-4.3 3-5-1.6-.6-3.8-.9-6.1-.6 3-1 8.1-1.6 11.2.7-3.2 0-5.6 2.1-5.6 4.7 0 1.6.7 2.7 2.2 2.7 2.5 0 2.2-3.1.7-3.1-.4 0-1.5.6-1.6 1-.1-1.9 1.3-3.1 2.8-3.1.9 0 1.5.3 1.8.9 1.3-1.9 4.1-4.6 8-4.6-4.6 1.5-7.4 6.3-7.4 7.7zm-5.3-4c-.1 0-.1 0 0 0v-.1c-.1 0 0 0 0 .1zm21.6 30.6c0 .1 0 .1 0 0zm-.2-15.8c-.1 0-.1 0 0 0zm-5.5-9.9c0-.1 0-.1 0 0zm5.8-5c-.6.6-1.2 1.2-1.6 2.1-1.5-3-4.1-4.9-5.9-5.8 2.3.4 4.6.9 7.5 3.7zm14.9 5.6-.1-.1h.1v.1zm0 .3c0-.1 0-.1 0 0 0-.1 0-.1 0 0 0-.1 0-.1 0 0zm.2-2.4c-.2 0-.2 0 0 0-.2 0-.2 0 0 0zm0-.1s0-.2 0 0c0-.2 0-.2 0 0 0-.2 0 0 0 0zm.7-10.5s0 .2 0 0c0 .2 0 .2 0 0 0 .2 0 .2 0 0 0 .2 0 .2 0 0zm0 24.2c0-.1 0-.1 0 0zm2.1 14.6s0-.1 0 0c0-.1 0 0 0 0zm.6-6.3c0-.2 0-.2 0 0 0-.2 0 0 0 0zm-.2-33.7.3.3c-.1 0-.1-.1-.3-.3zm2.7 8v-.1.1zm9.7 14.5-.1-.1h.1v.1zm1.3-10.7-.1-.1h.1v.1zm1.4 27.1c0 .1 0 0 0 0zm1.5-25.3c.1.2 0 0 0 0zm6.7 20.8c0-.1 0-.1 0 0zm1.1 4.3s0-.1 0 0zm-215.6 11.7c.4.1.9.1 1.2 0h-1.2z" class="st72"></path><path d="M373.8 394.2c-.9 1.3-2.1 2.5-3.5 3.4.3 0 .4.1.7.3.6.3.9 0 1.2-.7 1.3 0 2.7-1 4.1-.7.1.6.1 1 .3 1.3.1.1.4.1.6.3-.1 0-.1.1-.3.1.3.1.6.1 1.2 0 .7-.1 1.3 0 2.1.1.3.1.6.1.9.1-3.9-1.2-6.3-3.2-7.3-4.2zm-42 3.5c.1.3.3.5.6.4-.1-.1-.3-.2-.6-.4zM194.7 400h.1c.7.1 1.5.3 1.9-.4l-2 .4zm-50.8-.9c.1 0 .3.1.4.1 1 .6 1.9 0 2.8-.1 1-.1 2.4-.6 3.2.3.6.6.7.3.9-.3.3-.9.3-1.8.3-2.8-2 1.3-4.5 2.3-7.6 2.8zm180.7-2.1-.9.4c.6.3 1.2.3 1.8.1-.3 0-.6-.3-.9-.5zm-119.3-6.8c-.6 0-1.2 0-1.8-.3-.4.7-.9 1.3-1.3 1.9.6.3.7 1.2.7 1.8 1.4-1.3 2.1-2.6 2.4-3.4z" class="st72"></path><path d="m222.9 421-1.9-.1-1.7-7.2c-2.3-.4-4.1-.6-5.2-.6-2.3 0-4.8.5-7.7 1.4-.8 1.6-1.5 3.6-2 6s-.7 4.7-.7 6.9c0 11 3.2 16.6 9.5 16.6 2.7 0 4.9-.4 6.5-1.2l1.3-7.3c2.5 0 4.4.1 5.8.4.6 4.4 1 7.9 1 10.6-1 .7-2.9 1.5-5.8 2.4-2.9.9-5.8 1.3-8.5 1.3-11.9 0-17.9-7.4-17.9-22.1 0-7 1.4-12.3 4.3-16 2.9-3.6 7.5-5.5 13.9-5.5 3.2 0 6 .5 8.4 1.4 2.2.8 4 1.7 5.5 2.6 0 2.7-.3 6-.9 9.8-1.2.5-2.4.6-3.9.6zM243.4 404.9c.8 0 1.2 0 1.4.1 0 2.1-.3 3.9-.8 5.5 0 2.5-.1 6-.2 10.5-.2 9.9-.3 17.5-.4 22.8l4.7.5c0 1.6-.5 3.4-1.4 5.2h-14.9l-.5-3.3c2.5-.9 4.3-1.5 5.4-1.8l-1.1-33.3c-1.9-.2-3.5-.5-4.7-.9 0-1.5.1-2.9.4-4.3 2.4-.7 6.4-1 12.1-1zM260.6 450.2c-3.4 0-6-.7-7.9-2.1s-2.8-3.8-2.8-7.1c0-3.2 1.1-5.7 3.3-7.7 1.3-1.2 3.1-1.8 5.3-2 2.3-.2 5.4-.3 9.4-.3v-1c0-2.4-.4-4.2-1.2-5.4-.8-1.1-2.2-1.7-4.1-1.7-1 0-1.9.2-2.7.6l-1.4 5.2-4.4-.1c-1-1.5-1.5-3.9-1.6-7.3.8-.4 2.7-1 5.6-1.8 3-.8 4.9-1.2 5.7-1.2 4.3 0 7.5.9 9.4 2.7 2 1.8 2.9 4.6 2.9 8.5 0 3.9-.2 9-.5 15.3 2.3.2 4 .5 5.3 1 0 .5.1 1.1.1 1.7l-.1 1.3c-2.9 1-5.8 1.4-8.7 1.4-.8 0-1.3 0-1.7-.1-.6-1.2-1-2.6-1.1-4.3h-.3c-.8.7-2.1 1.6-4 2.7-1.8 1.2-3.4 1.7-4.5 1.7zm-1.8-5.9c.8.6 1.7.9 2.8.9 1 0 2.3-.5 3.7-1.4 1.4-.9 2.6-1.8 3.5-2.5l-.3-5.5c-3.2.2-5.5.5-7.1.9-2.5.5-3.8 2.1-3.8 4.7 0 1.3.4 2.3 1.2 2.9zM310.3 421.2c1.8 2 2.7 4.7 2.7 8.2 0 3.5-.2 8.3-.6 14.3l4.7.5c0 1.6-.5 3.4-1.4 5.2h-14.9l-.5-3.3c1.9-.8 3.6-1.4 5.2-1.8-.1-4.6-.2-8.5-.4-11.6-.1-3.1-.4-5.3-.9-6.4-.5-1.1-1.5-1.7-3.2-1.7-2.5 0-4.7.4-6.7 1.3 0 1.7-.1 4.5-.3 8.4-.2 3.9-.3 7-.3 9.3l4.7.5c0 1.6-.5 3.4-1.4 5.2h-14.9l-.5-3.3c2-.8 3.8-1.4 5.4-1.8 0-2.4-.2-5.7-.4-10s-.4-7.4-.4-9.4c-1.5-.2-3.1-.5-4.7-.9l.3-4.3c2.8-.8 6-1.1 9.5-1.1.4.3 1 1.1 1.8 2.6 1.4-.7 3-1.3 5-2 2-.6 3.2-1 3.6-1 3.9.2 6.8 1.2 8.6 3.1zM144.3 456.1l.1.6c0 1.6-.3 3-.8 4.2-.5.4-1.3.7-2.5 1l10 29.6 5.7.7c0 1.6-.5 3.4-1.4 5.2h-14.6l-.5-3.3c1.7-.6 2.8-1.1 3.3-1.3l-2.4-6.8h-13.5c-1.2 3.6-1.8 5.4-1.9 5.6l4.1.5c0 .8-.2 1.8-.5 2.9-.3 1.1-.6 1.9-.9 2.3H114l-.5-3.3c1.8-.8 3.4-1.3 4.9-1.7l10.1-30.8c-2.7-.4-4.7-.9-6.1-1.6 0-1.2.2-2.2.5-3.1.8-.3 2.8-.6 5.9-1 3.1-.4 6.1-.6 8.9-.6 2.7.3 5 .5 6.6.9zm-7.8 16.5-1.7-7.9h-.6l-1.9 8.3-2.8 7.5h10l-3-7.9zM171.2 452.9l1.4.1c0 2.1-.3 3.9-.8 5.5-.1 4.6-.1 8-.1 10.3 1.3-.6 2.7-1.1 4.4-1.6 1.6-.5 2.7-.8 3.1-.8 4.1 0 7 .9 8.8 2.8 1.8 1.8 2.7 4.7 2.7 8.7 0 .4-.2 5.1-.6 14l4.7.6c0 1.7-.5 3.4-1.4 5.2h-14.9l-.5-3.3c2.7-1.1 4.4-1.7 5.2-1.7-.1-4.3-.2-8.1-.3-11.5-.1-3.3-.4-5.5-1-6.6-.5-1.1-1.3-1.6-2.5-1.6-1.1 0-2.4.1-3.9.4-1.5.3-2.6.6-3.4.9l-.7 17.7 4.7.5c0 1.6-.5 3.4-1.4 5.2h-14.9l-.5-3.3c2.5-.9 4.3-1.5 5.4-1.8l-1.1-33.3c-1.9-.2-3.5-.5-4.7-.9 0-1 .1-2.4.4-4.3 2.1-.9 6.2-1.2 11.9-1.2zM225 466.8c.8 0 1.2 0 1.4.1 0 2-.3 3.8-1 5.3-.2 8.8-.4 15.3-.6 19.5 1.8.2 3.4.5 4.7.9l-.1 4.2c-2.4.8-4.5 1.1-6.3 1.1-1.8 0-3 0-3.6-.1-.5-1-.9-1.9-1.2-2.9-3.3 2.2-5.7 3.4-7.2 3.4-7.2 0-10.7-3.6-10.7-10.9 0-2 .2-6.8.5-14.5-2.1 0-4.1-.3-5.8-.8 0-1 .1-2.4.4-4.3 2.4-.6 6.4-1 12.1-1 .8 0 1.2 0 1.4.1 0 2-.3 3.8-1 5.5v12.1c0 2.6.3 4.4.8 5.6s1.7 1.8 3.5 1.8 3.6-.6 5.5-1.9l-.4-17c-1.8-.1-3.4-.4-5-.8 0-1 .1-2.4.4-4.3 2.5-.8 6.5-1.1 12.2-1.1zM276.9 456.1l.1.6c0 1.6-.3 3-.8 4.2-.5.4-1.3.7-2.5 1l10 29.6 5.7.7c0 1.6-.5 3.4-1.4 5.2h-14.6l-.5-3.3c1.7-.6 2.8-1.1 3.3-1.3l-2.4-6.8h-13.5c-1.2 3.6-1.8 5.4-1.9 5.6l4.1.5c0 .8-.2 1.8-.5 2.9-.3 1.1-.6 1.9-.9 2.3h-14.6l-.5-3.3c1.8-.8 3.4-1.3 4.9-1.7l10.1-30.8c-2.7-.4-4.7-.9-6.1-1.6 0-1.2.2-2.2.5-3.1.8-.3 2.8-.6 5.9-1 3.1-.4 6.1-.6 8.9-.6 2.9.3 5.1.5 6.7.9zm-7.7 16.5-1.7-7.9h-.6L265 473l-2.8 7.5h10l-3-7.9zM304 487.1l-.1 4.6 4.7.5c0 1.6-.5 3.4-1.4 5.2h-14.9l-.5-3.3c2.5-.9 4.3-1.5 5.4-1.8l-1.1-33.3c-1.9-.2-3.5-.5-4.7-.9 0-1.5.1-2.9.4-4.3 2.4-.6 6.4-1 12.1-1 .8 0 1.2 0 1.4.1 0 2.1-.3 3.9-.8 5.5-.2 9.6-.4 16.7-.4 21.4l7.1-7.1-3.7-.5c0-1.6.5-3.4 1.4-5.2h14.9l.5 3.3c-2.5.9-4.3 1.5-5.4 1.8l-6.6 6.6 8.4 13 4.7.5c0 1.6-.5 3.4-1.4 5.2h-7.7l-8.9-13.9-3.4 3.6zM339.9 466.8c.8 0 1.2 0 1.4.1 0 2-.3 3.8-1 5.5-.2 8.6-.3 15.1-.3 19.4l4.7.5c0 1.6-.5 3.4-1.4 5.2h-14.9l-.5-3.3c2.5-.9 4.3-1.5 5.4-1.8l-.7-19.4c-2.4-.2-4.1-.5-5.2-.9 0-1 .1-2.4.4-4.3 2.3-.7 6.4-1 12.1-1zm0-11.4c.4 1.8.5 3.2.5 4.1 0 .9-.1 2-.2 3.2-1.6.4-3 .5-4 .5-1.1 0-2.4-.1-4-.2-.4-1.8-.5-3.2-.5-4.1 0-.9.1-2 .2-3.2 1.6-.4 2.9-.5 4-.5s2.4.1 4 .2zM362.3 488.5l2.2-8.9 3.2-7.7c-1.4-.2-3-.8-5-1.6l.5-3.3h14.9c.9 1.8 1.4 3.6 1.4 5.2-1.6.2-3.1.4-4.7.5-.8 2.7-2.4 6.8-4.7 12.4-2.3 5.6-3.9 9.7-4.7 12.4h-7.7l-9.5-24.7-4.7-.5c0-1.6.5-3.4 1.4-5.2h14.9l.5 3.3c-1.6.8-3 1.3-4.1 1.6l2.9 7.6 2.1 9h1.1zM393.8 466.8c.8 0 1.2 0 1.4.1 0 2-.3 3.8-1 5.5-.2 8.6-.3 15.1-.3 19.4l4.7.5c0 1.6-.5 3.4-1.4 5.2h-14.9l-.5-3.3c2.5-.9 4.3-1.5 5.4-1.8l-.7-19.4c-2.4-.2-4.1-.5-5.2-.9 0-1 .1-2.4.4-4.3 2.3-.7 6.4-1 12.1-1zm0-11.4c.4 1.8.5 3.2.5 4.1 0 .9-.1 2-.2 3.2-1.6.4-3 .5-4 .5-1.1 0-2.4-.1-4-.2-.4-1.8-.5-3.2-.5-4.1 0-.9.1-2 .2-3.2 1.6-.4 2.9-.5 4-.5s2.4.1 4 .2z" class="st3"></path></svg>