<svg xmlns="http://www.w3.org/2000/svg" xml:space="preserve" id="Layer_1" x="0" y="0" style="enable-background:new 0 0 980 228" version="1.1" viewBox="0 0 980 228"><style>.st0{fill:#fff}</style><path d="M607.7 81.3c0-13.5.2-27.1-.1-40.6-.1-3.9 1.1-4.8 4.8-4.6 4.8.3 9.7.3 14.5 0 4.1-.3 5.4.9 5.3 5.2-.2 24.4-.1 48.8-.1 73.2 0 2.3.1 4.7.4 7 1.8 13.4 10.2 21.7 23.7 23 5.3.5 10.7.5 15.9-1 14.5-4.3 19.1-12.9 19.4-28.3.4-24.6.2-49.2 0-73.7 0-4.5 1.2-5.7 5.5-5.4 5 .4 10 .2 15 .1 2.4-.1 3.6.4 3.6 3.2-.1 26.6.6 53.2-.3 79.7-.9 26.6-18.2 43-45 45.6-10.2 1-20.3.6-30.1-2.1-20-5.6-31.9-20.8-32.4-41.6-.3-13.3 0-26.4-.1-39.7.1 0 0 0 0 0zM907 33.2c12.7-.4 23.7 2.6 34.2 8.3 3 1.6 3.6 3.2 1.7 6.2-2.5 3.7-3.7 9.3-7 11.2s-7.3-3-11.2-4.5c-8.4-3.2-16.8-4.1-25.2-.4-11.5 5-12.9 17-2.9 24.6 6.2 4.7 13.6 6.8 20.6 9.9 4.1 1.9 8.2 3.7 12.1 6 13.5 7.7 19.7 19.8 18.6 35s-9.7 25.8-23.7 31.3c-21.9 8.5-43.1 4.6-63.7-5.2-1.8-.8-2.1-1.9-1.2-3.5 2.5-4.5 5.1-9 7.4-13.6 1.2-2.3 2.4-2.1 4.4-1 6.8 3.5 13.8 6.5 21.5 7.7 7.1 1.1 14 .5 20.3-3.2 10.1-5.9 11.5-18.1 3.2-26.2-4.1-4-9.2-6.5-14.3-8.9-6.5-3-13.2-5.4-19.3-9.2-13.8-8.5-19.6-21.2-17-37 2.2-13.2 12.9-23.3 28-26.4 4.6-1 9.4-1.3 13.5-1.1zM267.4 33.2c12.9-.4 24.2 2.5 34.7 8.4 2.6 1.4 3.7 2.7 1.7 5.6-2.6 3.9-3.7 9.7-7.2 11.6-3.4 2-7.5-3.2-11.6-4.7-9.2-3.3-18.2-4-27 .9-9 5.1-10.1 14.9-2.4 22 4.2 3.9 9.5 6 14.7 8.2 5.5 2.4 11.1 4.5 16.4 7.2 16.1 8.1 23.1 20.9 21.6 38.6-1.2 14.1-12.1 26.6-28 31.2-20.4 5.9-39.8 2.3-58.7-6.5-2.6-1.2-2.5-2.5-1.3-4.6 2.3-4 4.7-8.1 6.7-12.2 1.3-2.7 2.6-2.7 5-1.4 6.6 3.5 13.6 6.3 21 7.5 6.9 1.2 13.6.5 19.9-2.9 11.3-6 12.5-19.7 2.5-27.8-7-5.6-15.3-8.6-23.3-12.1-5.2-2.3-10.3-4.8-14.6-8.5-11.2-9.4-13.8-21.8-10.6-35.5 3.3-14.2 14.1-20.7 27.3-23.9 4.7-1.1 9.3-1.3 13.2-1.1zM330.3 99.6c.4-39.6 27.4-66.2 67.2-66.4 11.9-.1 22.6 3.2 33 8.3 2.6 1.3 3.7 2.7 1.6 5.2-.2.3-.3.6-.5.9-2.1 3.6-3.3 8.4-6.4 10.5-3.5 2.4-7.2-2.2-11.1-3.2-30-8-57.1 9.9-57.7 42-.3 15 3.7 28.5 15.5 38.5 13.2 11.2 33.5 12.6 49.7 3.6 3.7-2.1 5.3-1.7 6.9 2.1s3.7 7.4 5.8 11c1.2 2 1 3.1-1.2 4.3-24.4 12.5-60.3 12.9-82.3-6.6-13.5-12.2-20.7-29.5-20.5-50.2zM851.3 36.2c-3.6 6.3-6.7 11.6-9.6 17.1-1.2 2.2-3 2.3-5 2.3-9.3 0-18.7.2-28-.1-4.1-.1-5 1.4-4.9 5.1.1 32.1 0 64.2.2 96.3 0 4.7-1.4 6-5.9 5.7-4.5-.4-9-.3-13.5 0-3.7.2-4.9-.9-4.8-4.7.2-12.8.1-25.8.1-38.6 0-19.6-.1-39.1.1-58.7 0-3.8-.9-5.3-5-5.1-9.8.3-19.7 0-29.5.2-3.3.1-5-.6-4.6-4.3.4-4.8-1.9-11 .9-14 2.9-3.1 9.1-.9 13.9-1 29.8-.1 59.8-.1 89.6-.1 1.5-.1 3.3-.1 6-.1zM99.4 58.9c-2 16.3-2.4 32.5-2.3 48.9 0 5.4-3 7.7-8.2 6.4-.9-.2-1.5-.7-1.6-1.6-1.4-12.8-7.9-23.6-12.4-35.3-7.4-18.9-3.5-33.1 12.3-45.5 3.1-2.5 6.3-5 9.1-7.8 2.1-2.1 3.3-1.7 5.2.2 3.2 3.1 6.7 5.9 10.3 8.7 13.2 10.4 17.8 24.7 12.3 40.5-2.5 7.4-6 14.4-8.9 21.8-2 4.8-3.9 9.7-4.2 14.8-.4 5.7-4.1 3.6-7.1 3.8-3.8.3-3.3-2.1-3.3-4.5-.1-13.7-.2-27.4-.4-41.1-.1-3.1-.5-6.2-.8-9.3zM98.2 151.2c2.9-5.6 1.8-10.8 2.1-15.9.1-2.7.3-5.2 3.9-4.8 2.8.3 6.4-1.7 7 3.6s3 10.2 6 14.6c1.8 2.5 1.5 4.4-.2 6.7-2.5 3.4-5 6.6-8.3 9.2-9.2 7.4-11.3 7.4-20.3-.3-1.4-1.2-2.7-2.5-3.9-3.8-6.2-7-6.2-7-2.1-15.3 1.9-3.7 3.5-7.6 4.1-11.7.7-4.9 4.4-2.7 6.9-3 2.9-.4 3.6 1.4 3.7 4 .4 5.4.8 10.7 1.1 16.7zM858.7 201.9c2.9-8.3 5.4-15.4 7.9-22.5.3-.9.7-1.9 1-2.8.7-1.8 2.2-2 3.7-1.6 2.3.6.8 2.3.5 3.2-3.7 10.5-7.5 21-11.4 31.4-.4 1.2-.2 2.8-2.1 3.5-3.6-8.9-7.3-18-11.4-28.1-4 9.9-7.6 18.8-11.1 27.6-2.2-.3-2.1-2.1-2.5-3.3-3.7-10.1-7.4-20.4-10.9-30.6-.4-1.1-2.4-2.7.1-3.6 2-.7 3.4.2 4.2 2.3 2.4 7 4.9 14.1 7.3 21.2.2.6.5 1.1 1.4 2.9 4-9.7 7.6-18.6 11.6-28.4 4 9.9 7.6 18.8 11.7 28.8zM56.2 139.3c10.6 1.5 11.9.9 17.3-9 1.8-3.3 4.1-.4 6.2-.7 4.7-.6 5.8 1.7 4.2 5.9-1.4 3.6-2.7 7.2-5 10.3-3.7 5-8.2 6.9-13.4 5.6-5-1.3-8.4-5.6-9.3-12.1zM141.4 139.3c-.5 5.7-3.9 10.3-8.8 11.9-4.9 1.5-9.5-.2-13.1-4.8-2.8-3.6-4.5-7.7-5.8-12-1-3.1.1-4.3 3.4-4.8 4.3-.6 7-.5 8.9 4.5 2.1 5.3 6.4 6.2 15.4 5.2zM479.8 204.3c1.2 3.3.3 5.2-2.7 6.6-7.8 3.6-17.3 1.5-23-5.3-5.7-6.9-5.7-17.1-.1-24s15.2-9.3 22.9-5.6c3.4 1.6 3.4 1.7 3 6.6-4.9-2.6-9.6-5.6-15.4-3.3-3.2 1.3-5.8 3.1-7.7 6-3.7 5.8-3 13.4 1.8 18.5 5.4 5.7 11.9 5.9 21.2.5zM580.7 200.1v-9c0-1.2.2-3 1.6-2.2 3.1 1.7 5.4-.4 8-.8 4.6-.6 8 2.2 8.3 7.2.3 4.6.1 9.3.1 13.9 0 1.4-.2 2.7-2.1 2.6-2 0-1.9-1.4-1.9-2.8v-11c0-3.1-.8-5.6-4.6-5.7-3.7-.1-5 2.3-5.3 5.3-.3 3.5-.1 7-.2 10.4-.1 1.5.6 3.7-2.1 3.6-2.8-.1-1.6-2.4-1.7-3.8-.2-2.4-.1-5-.1-7.7zM919.6 191.7v17.1c0 1.4.2 3.2-2 3.3-2.6.1-2.4-1.7-2.4-3.4v-34c0-1.6 0-3 2.3-3s2.2 1.6 2.2 3.1c-.1 5.5-.1 11.3-.1 16.9zM558.3 212c-2.2 0-2.2-1.6-2.2-3.1 0-3.6.1-7.3-.1-10.9-.1-2 .9-4.3-1.8-5.7-1-.5-.8-2.3-.3-2.6 2.7-1.7 2-4.2 2.1-6.6 0-1.6.6-2.4 2.4-2.4 1.9 0 2 1.3 2 2.7.2 2.4-1.1 5.4 3.2 5.8 1.2.1 1.6 3.1-.3 3.3-3.8.3-2.9 2.8-2.9 5-.1 3.8 0 7.6 0 11.4.1 1.5.1 3-2.1 3.1zM753.9 192.4c-3.9-.2-5.7 1.2-5.1 5.4.4 3.3.2 6.6 0 10-.1 1.6.9 4.1-2.2 4-3-.1-1.8-2.7-1.9-4.2-.2-3.3 0-6.7-.1-10-.1-1.8.8-4-1.5-5.4-.9-.6-.8-2.3-.2-2.7 2.3-1.7 1.7-4.1 1.8-6.3 0-1.4.2-2.6 2.1-2.6 2 0 2.2 1.3 2 2.7-.6 4 .7 6.4 5 6.3 1 1 1 1.9.1 2.8zM898.9 200.5c0-.8-.1-1.7 0-2.5.5-3-1.6-6.9 1.1-8.8 1.8-1.2 5.3.2 8-1 .9-.4 3.3-.2 3.2 1.9 0 1.2-.5 2.9-2.3 2.6-5.5-.9-5.4 3.3-5.8 6.5-.4 3.1 0 6.3-.1 9.4 0 1.4.5 3.2-1.9 3.2-2.3.1-2.2-1.5-2.2-3v-8.3zM489.3 188.9c1.5 1.5 3.2.2 5.1-.5 1.7-.6 4.1-.6 4.5 1.5.3 1.9-1.2 3-3.7 2.6-3.3-.5-3.9 2.3-4.1 4.5-.4 3.9-.4 7.9-.5 11.9 0 1.5.1 3.1-2.2 3-2-.1-1.8-1.6-1.8-2.8v-18c0-1.4.3-2.6 2.7-2.2zM792.6 200.2c0-.8-.1-1.7 0-2.5.4-2.9-1.5-6.8 1-8.4 2-1.3 5.5.1 8.3-1 .8-.3 2.9 0 2.8 1.9-.1 1.4-.7 2.7-2.4 2.5-4.9-.5-5.3 2.9-5.5 6.3-.1 3.3 0 6.6 0 10 0 1.6-.1 3.1-2.3 3-2-.1-1.9-1.5-1.9-2.8 0-3.1.1-6 0-9z" class="st0"></path><path d="M753.9 192.4v-2.7c2.3-1.1 3.1-2.9 2.8-5.4-.1-1.2-.8-3.3 1.5-3.5 2.5-.2 1.7 1.9 1.8 3.2.1 2.5-.5 5.2 3.5 4.9 1-.1 1.2 1 1.2 1.8.1 1.2-.5 2-1.7 1.9-3.6-.3-2.9 2.2-3 4.2 0 3.8.1 7.6 0 11.4 0 1.3.8 3.4-1.5 3.5-2.4.1-1.7-2-1.8-3.3-.1-4.1-.1-8.3 0-12.4 0-2-.3-3.5-2.8-3.6zM124.2 185.5c-4 3.3-9.4 2.9-13.7 5.2-1.8.9-3.1-1.5-3.9-3.1-1-1.8.4-2.6 1.8-3.4 6-3.5 11.7-3.1 15.8 1.3zM93.1 204.6c3.7-1.5 11 .1 13.6 2.9 1.3 1.3 1 2.4-.2 3.3-1.6 1.2-2.8 3.6-5.4 1.8-1.5-1-2.8-2.4-4.8-1.9-1.2.9-2.6 1.2-4 .8-1.8-.9-3.2-2.2-2.8-4.5.3-1.9 2-2.1 3.6-2.4zM568.7 200.2v-9c0-1.1-.1-2.4 1.7-2.4s2.2 1 2.2 2.5v18c0 1.4-.2 2.7-2.1 2.7-2.1 0-1.8-1.5-1.8-2.8v-9zM81.5 191.5c-2.1.1-3 1.8-4.3 3.1-1.2 1.2-1.9 3.7-4.1 1.6-1.8-1.7-3.3-3.8-1.4-6.5.4-.5.8-1 1.3-1.5 2.4-2.3 5.4-5.4 8.4-4.2 2.2.9-.3 4.9 0 7.6l.1-.1zM69.2 194.9c3 3.6 6.8 5.7 7.3 10.1.2 1.4 3.9 2.7.6 4.1-2.2.9-5.3 1.7-7-1.4-2-3.9-2.7-8-.9-12.8zM116.7 197.8c1.4-8.4 1.9-8.9 11.7-11.4 0 7.7-2.6 10.1-11.7 11.4zM122.4 203.7c-6.3 5.4-12.6 5.1-19-.5 6.7-4.4 12.9-2.1 19.2.6l-.2-.1zM94.1 190.9c-1.8-.4-3.6-.6-5.4-1.2-1.5-.5-4.4 1.3-4.2-1.6.2-2.8 1.8-5.5 5.5-5.1 3.4.3 6.4 1.6 9.1 3.7.8 4.2-1.9 4.4-5 4.2zM121.7 206.5c4.7-.1 6.9 2.7 9.1 5.4.6.7.5 1.4-.7 1.8-2 .6-4.5 2.6-5.6 1.9-2.6-1.4-5.6-3.8-6.6-6.4-1-2.6 2.6-2.2 3.8-2.7zM112.4 217.2c-2.5-.5-6.3.3-6.5-2.5-.1-1.6 2.7-4.8 6.3-5 3.8-.2 6.8 1.9 6.8 4.8-.1 2.9-4.1 2.2-6.6 2.7zM131.5 192.8c-.6-4.6-.4-8.4 4.9-9.4 1.4-.3 3-3.3 4.2-.3.9 2.3 1.9 5.3-1.7 6.7-2.5.9-4.9 1.9-7.4 3z" class="st0"></path><path d="m93.2 193.7-1 1c-1.9.8-.2 4.3-3.4 4.1-3.4-.2-7-.6-9.4-2.7-2.1-1.8 1.9-2.8 2-4.6l-.1.2c2.5.1 5.1.1 7.6.2 1.4.6 3.5-.2 4.3 1.8zM38 30.4c-3.4-4.2-3.5-7.7 1.6-10.3 1.3-.7 2.9-3.3 3.9-1.5 1 1.9 3.1 4.7.2 7.1-1.9 1.6-3.8 3.2-5.7 4.7zM167.6 37.6c7.1-3.3 7.4-3.1 12.2 5.4-6.6 2.8-6.6 2.8-12.2-5.4zM80.4 8.9C79.5 3.2 81.6.3 87.1 1c1.3.2 3.8-2 3.8.9 0 2.1 0 5.3-3.3 6-2.4.4-4.8.6-7.2 1zM8.7 82c-7.1-3.6-7.3-4.6-3.3-13.3 5.4 3.7 5.4 3.7 3.3 13.3zM47.2 23c-2.5-4.9-1.8-8.3 3.2-10.1 1.3-.5 3-3 3.9-.9.9 2 2.4 5.1-.8 7.1-2 1.3-4.1 2.5-6.3 3.9zM29.3 39.2c-3.5-4.1-4.2-7.6.4-10.6 1.2-.8 2.4-3.7 3.6-2.1 1.3 1.7 3.5 4.4 1.1 7.1-1.5 1.8-3.2 3.5-5.1 5.6zM24.1 35c3.9 6.2 3.9 6.2-2.3 13.6-5-6.4-5-6.4 2.3-13.6zM56.5 188.4c5.1-5.4 5.1-5.4 13.5-1.6-4 6.5-4.3 6.6-13.5 1.6zM171.8 33c-6.2 3.5-6.2 3.5-12.7-3.8 5-4.1 5.1-6 12.7 3.8zM187 54.2c-7.1 1.4-9.3.2-11.4-5.6-.3-.7-.8-1.9.3-2 2.3-.1 4.8-2.6 6.8.4 1.5 2.1 2.7 4.4 4.3 7.2zM138.7 15.7c5.8-5.3 5.8-5.3 13.7.6-5.8 5.1-5.8 5.1-13.7-.6zM122.5 203.9c-.4-3.8.4-6.8 4.6-8.1 2.2-.7 3.4-.7 3.5 1.9.1 1.3.2 2.6.1 3.9-.4 3.5-1.7 5.8-5.7 3.2-.8-.5-1.8-.7-2.7-1 .1-.1.2.1.2.1zM78.2 2.6c-.1 7 1.7 6.7-9.3 9.4-1.4-7.3-1.1-7.6 9.3-9.4zM6.1 132.1c7.8-.2 7.8-.2 10.6 8.9-7.7.9-7.7.9-10.6-8.9zM103.7.5C102 7.6 102 7.6 92.3 6.9 93.5-.5 93.5-.5 103.7.5zM39 169.2c-6.9 4.2-7 4.2-13.2-4 6.9-2.8 6.9-2.8 13.2 4zM127.7 11.6c2.3-4.5 5.1-7 9.8-3.7 1.2.8 4.2.8 3.2 2.6s-2.4 4.8-5.7 3.8c-2.4-.7-4.7-1.7-7.3-2.7zM48.6 176.3c-6.4 5.1-6.7 5-13.5-2.1 5.3-5.9 9.2-1.4 13.5 2.1zM8.7 117.9c-7.2-.6-7.2-.6-8-10.6 7.3.6 7.3.6 8 10.6zM149.3 21.7c6.1-4.6 6.1-4.6 13.5 2-5.7 4.6-5.7 4.6-13.5-2zM104.2 7c.7-5.4 3.4-7.3 8.2-5.9 1.5.4 4.4-.2 4 1.5-.5 2.2-1.3 5.5-4.8 5.4-2.4-.1-4.9-.6-7.4-1zM12 129.6c-7.8.2-7.8.2-9.4-9.6 7.2 0 6.7-1.6 9.4 9.6zM6.9 106c-7.5-1.7-7.5-1.7-6.4-11.8 6.7 2.3 7-.3 6.4 11.8zM11.4 70.1c-6.5-4.2-6.6-4.9-1.3-13.2 5.7 4.9 5.7 4.9 1.3 13.2zM11.3 144.1c7.6-3.8 8.8 2.5 11.5 6.6-7.3 3.1-7.6 3-11.5-6.6zM173.9 163.3c-4-6.4-4-6.4 2.1-13.3 5 5.3 4.9 5.9-2.1 13.3zM115.9 8.5c3.9-7 4.5-7.2 13.1-3.2-3.6 6.3-2.3 6.1-13.1 3.2zM181 57.9c4.8-2.4 8.1-1.5 9.3 4 .3 1.4 2.4 3.4 0 4.1-1.8.6-4.7 1.6-6.2-1.4-1-2.2-2.1-4.4-3.1-6.7zM7.1 93.9c-5.2-.6-7.4-3.1-6-8.1.4-1.5-.3-4.5 1.9-4 2.1.4 5.5 1.3 5.1 5-.3 2.2-.6 4.5-1 7.1zM143.7 187.2c-1.2-7.8-1.2-7.8 7-11.4 2.6 7.2 2.6 7.2-7 11.4zM45.5 182c5.1-4.7 5.1-4.7 13.3-.1-4.1 6.5-5.2 6.5-13.3.1zM30.2 160.8c-7.1 3.1-7.1 3.1-12.2-5.4 7.1-2.8 7.1-2.8 12.2 5.4zM186 68.7c7.4-.6 7.8-.3 8.9 9.5-6.9.1-6.9.1-8.9-9.5zM16.3 45.5c6.5 4.4 2.8 8.7.1 13-6.3-3.3-6.3-5.1-.1-13zM160 168.4c3.9 6.2 3.6 6.8-4.9 11.9-2.7-6.9-2.7-6.9 4.9-11.9zM86.3 207c-2.8-.7-6.4.4-7.9-3.5-.8-2-.5-2.8 1.6-2.8 4.2 0 8.5-.8 12.3 2-1.5 2.1-2.4 5.1-6 4.3zM57.7 16.8c-1.9-4.8-1.3-8.3 4.1-9.4 1.4-.3 3.4-2.6 4.1-.4.7 2.1 1.6 5.3-1.7 6.9-2 1-4.1 1.9-6.5 2.9zM189.7 116.3c5.8 3.2 6.6 5.7 3.7 11.7-.4.8-.7 1.7-1.6.9-1.6-1.4-4.9-1.7-4.2-4.7.5-2.5.4-5.5 2.1-7.9zM181.9 139.4c5.7 4.6 5.7 4.7 0 13.2-5.5-4.6-5.5-4.6 0-13.2zM187.8 141.5c-3.8-2.7-5.9-5.4-3-9.7 1.2-1.7 2.1-3 4.3-2.2 2.2.9 3 2.8 2.1 4.9-.8 2.3-2.1 4.5-3.4 7zM190.6 104.4c6.7 2.3 7.9 4.9 5.7 11-.3.9-.7 1.8-1.6 1.2-1.7-1.2-4.8-1.2-4.6-4.4.1-2.4.3-4.9.5-7.8zM197.1 103.9c-6.3-1.4-7.1-2.7-6.2-11.5 7.3 1.4 7.3 1.4 6.2 11.5zM168.8 159.8c4.2 6.1 4 6.7-3.9 12.5-3.4-7-3.4-7 3.9-12.5zM196.1 91.1c-5 .3-6.2-2.9-6.5-6.7-.1-1.3-1.6-3.6 1.3-3.8 2.2-.2 4.9-.4 5.5 2.8.3 2.5.3 5.1-.3 7.7zM84.1 216.5c-4.1.7-7.1-1.4-10.8-4.4 5.2-.2 9-3.6 13.8-2 1.3 3.2 1.1 5.7-3 6.4zM104.2 196.7c1-1 2-2 3.1-3 2.7.4 4.9-1.4 7.9-1.5-.1 3 .2 6.1-3.3 6.9-2.8.5-6.3 1.9-7.7-2.4z" class="st0"></path><path d="M93.4 209.7c.9.3 1.9.7 2.8 1 1 1.2 2.9 2.1.1 3.7-2.9 1.7-5.8 3-9.1 3.2-.8-6.2 1.2-8.7 6.2-7.9zM59.8 212.3c2-2.1 3.2-3.6 4.7-4.9 1.1-1 3.1-2 3.4.2s5.3 3.3 1.5 6.4c-1.2 1-2.2 1.3-3.3.2-1.5-1.5-3.5-1.6-6.3-1.9z" class="st0"></path><path d="M93.4 209.7c-6.3-.7-4.3 5.1-6.1 7.9-1.2-.1-2.3-.5-3.3-1.3 1.7-1.8 2.8-3.9 3-6.4.6-1.2.2-2.2-.8-3 2.9-.1 3.8-3.1 5.9-4.3.3.6.6 1.3.9 1.9-3.1 2.1-2.6 3.7.4 5.2zM134.4 220.7c-.8 0-1.8-.3-2.4 0-2.5 1.6-4.4.5-5-1.8s1.7-2.9 3.4-3.1c2.5-.4 4.2.5 3.8 3.5-.1.5 0 1 0 1.5l.2-.1zM65.6 217.3c-.8 1.5-1.8 3.1-3.5 3-2.3-.1-3.6-2.4-4.1-4.1-.5-1.6 1.7-1.6 2.9-1.6 2-.1 3.8.5 4.7 2.7zM54.6 219.1c2 1 4.5 1.2 4.5 4 0 1.6-.9 3.7-2.1 3.2-2.2-.8-4-2.9-4.6-5.3-.3-1.1 1.3-1.6 2.2-1.9zM134.3 220.9c1.7.2 3.8-.8 5 1.1 1.2 2-1.2 2.7-2 4-.6 1-1.5 2.7-3 1.7s-1.9-2.5-.4-4.1c.5-.6.4-1.9.5-2.8 0-.1-.1.1-.1.1zM570.7 182.6c-1.7-.1-2.8-1-2.9-2.7-.1-1.7.4-3 2.4-3.1 1.7-.2 3 .4 3.3 2.2.1 1.8-1 2.9-2.8 3.6zM107.2 193.7c-.3-5-2.6-6.9-5.9-4.9-1.8 3.1-5.7 2.7-8.1 4.9-.3-.1-.5-.2-.8-.3-.2.4-.3.9-.2 1.4-.7 3.3 1 4.3 4 4.3 2.9 0 5.3-1.4 8-2.2 2.5.3 3.5-.7 3-3.2zM623.6 189.2c-1.8 2.3-2.8.7-4.3 0-2-.8-4-1.3-6.3-.8-4.8 1-7.6 4-8.8 8.5-1.3 5-.4 9.7 3.6 13.2 3.6 3.2 7.7 3.4 12 1.3.8-.4 1.5-1.4 2.8-.6.1 3.9-.3 7.8-4.6 9.3-4.1 1.5-7.6.3-9.3-4.1-.7-2-1.9-2.9-3.7-2.1-2 .9-.6 2.7-.2 3.9.9 3.5 4 5.1 6.9 6.8h8c3.2-2.6 6.7-5.1 6.9-9.7.2-8 .1-16 .1-24 0-2.3-2.2-2.9-3.1-1.7zm-8.4 19.5c-4-.1-7.4-4.1-7.2-8.6s3.4-7.7 7.5-7.6c4.2.1 7.2 3.4 7.2 7.9 0 4.7-3.3 8.4-7.5 8.3zM514.9 33.5c-38.7.1-65.4 27.3-65.3 66.4.1 38.7 27 65.6 65.5 65.5 39.5-.1 66.5-27.1 66.3-66.5-.2-39.5-26.7-65.6-66.5-65.4zm36.8 86.1c-5.9 15.8-19.3 25-36.1 25-17.3 0-30.8-9.3-36.6-25.7-4.5-12.6-4.8-25.5-.9-38.3 5.5-18.3 20.2-28.8 38.8-28.3 17.7.5 32.1 12.4 36.7 30.6 3.1 12.4 2.6 24.7-1.9 36.7zM84.7 111.1c-1.7-11.4-5.7-22-13-31-5.8-7.1-13-11.9-23.4-11.8-1.9-.3-4.5.5-7 1.3C31.1 73 24 83.7 24.6 94.5c.7 11.3 7.6 20.1 17.5 22.3 3.9.9 6.3 1 5.8-4.4-.5-5 2-9.1 7-10.9s9.2-.1 12.5 3.7c1.4 1.6 3.1 3.5 3.4 5.4 1 5.7 4.6 5.4 8.8 4.5.8-.2 1.6-.4 2.5-.4 2.6-.1 2.9-1.3 2.6-3.6zM42 95.7c-.6-3.9-2.2-5.8-6.6-5.1 2.7-2.3 6.1-3.3 4.1-7.3 2.6 1.6 4.6 3 8.4 0-2.1 4-1.5 6.3 1.2 8.7-3.3.2-6.6-1.1-7.1 3.7zM173.2 92c-1.5-14-11.4-23.6-24.4-23.7-5.7-.1-10.9 1.6-15.3 5-12.3 9.5-17.7 22.9-20.1 37.8-.2 1.1-.7 3 1.2 3.3 3.1.5 6.3 1.3 9.4 1 2.4-.2 1.9-3.5 3.1-5.2 1.1-1.5 1.8-3.2 2.9-4.6 3.5-4.4 8-5.8 12.8-4.2 4.4 1.5 7.7 5.9 7.4 11.2-.3 4.9 1.9 5 5.7 4.1 10.6-2.4 18.5-13.6 17.3-24.7zm-17 3.4c-2-2.4-3.2-5.1-7-3.9 2.9-2.4 3-4.6.2-7.4 3.5.2 6.2 3.4 8.2-1.5.4 3.8 1.2 6.4 4.5 7.5-3.7-.3-5.2 1.8-5.9 5.3zM711.7 196c-2.3-3-2.9-5-2-8.9 1.9-7.9-2.9-11.9-12.5-12.3-4-.1-5.6.8-5.4 5.1.4 8.3.1 16.8.1 25.1.1 7.7-1.2 6.9 8.1 7 .9-.1 3.1 0 5.2-.4 7.5-1.5 11.1-9.4 6.5-15.6zm-12.6-16.7c4.5.1 6.8 1.9 6.7 5.9-.1 4.3-2.7 5.5-6.5 5.6-5.2.2-2.5-3.8-3.5-5.7.8-2.2-1.4-5.8 3.3-5.8zm1.2 28.6c-6.4.5-3.7-4.2-4.4-6.9.6-2.3-1.6-6.1 3.5-6 5.8.1 10.1 2.8 10 6.6-.1 3.8-3.6 5.9-9.1 6.3zM123.8 118.8c-3.8-.9-7.8-1.5-11.8-1.8-13-1-25.9-1-38.7 2-1.9.5-4.9.6-4.8 3.4.1 2.3 2.8 2.5 4.6 3 8.4 2.5 17.1 2.1 25.8 2.9 8.3-.9 16.8-.4 25.1-2.8 2-.6 5-.7 5-3.2.3-3-3.1-3-5.2-3.5zM75 122.2c16-2.5 32-2.4 48 0-16 2.9-32 2.8-48 0zM947.5 175c0-1.6.4-3.5-2.3-3.4-2.4.1-1.9 1.9-1.9 3.3v15.9c-1.2-.6-1.8-.9-2.3-1.1-5.7-2.6-10.5-1.7-13.8 2.5-3.6 4.6-3.6 11.5 0 16.3 3.2 4.2 7.9 5.2 13.4 3 .9-.4 1.4-1.5 3-.4 2.9 2.1 4.1.6 4.1-2.6-.2-11.1-.2-22.2-.2-33.5zm-11.6 33.7c-3.9-.1-7-3.6-7-8.1-.1-4.9 2.9-8.2 7.3-8.1 4.3.1 6.9 3 6.9 7.9.2 4.8-2.9 8.4-7.2 8.3zM549.5 205.6c.2-1.6 0-3.3 0-5 0-3-.1-6 0-9s-2.1-3.9-3.7-2.5c-2.1 1.8-3.1.4-4.6-.2-4.6-1.8-9.6-.4-12.5 3.3-3.3 4.2-3.3 11.6-.2 16 3 4.2 7.9 5.6 12.8 3.7.9-.4 2.1-1.4 2.6-1.1 7.3 4.1 5.3-1.9 5.6-5.2zm-11.5 3.1c-3.9.1-7.1-3.3-7.3-7.8-.2-4.8 2.8-8.3 7.1-8.4 4.4 0 7.2 2.9 7.3 7.6.1 4.7-3 8.4-7.1 8.6zM774.3 201.7c1.5-.1 3 0 4.5 0 1.8 0 3.7-.1 5.5 0 3.9.4 4-1.6 3.3-4.6-1.5-5.6-5.1-8.9-10.4-9-5-.1-9.6 3.4-11 8.4-1.6 5.8.8 12.3 5.3 14.9 4.4 2.5 10.9 1.5 14.2-2.2.9-1 2.5-2.2 1-3.8-1.4-1.3-2.5-1.1-4 .6-2.9 3.3-6.5 3.8-10.1.8-1.3-1.1-2.6-2.6-2.1-4.2.4-1.8 2.4-.8 3.8-.9zm7.7-6.6c1.2 1.7 1.2 2.7-1.2 2.7h-10.5c3.6-6 8.8-6.9 11.7-2.7zM508 201.6c4 .1 8-.1 12 0 2.7.1 3.5-.9 3.1-3.6-.9-6.2-5.8-10.4-11.6-10-6.6.5-10.9 6-10.5 13.3.4 6.8 4.9 11.3 11.4 11.3 3.2.1 5.9-1 8.1-3.2 1-1 3.2-2.1 1.5-4-1.7-2-2.9-.6-4.4.8-3.9 3.7-9.1 2.8-11.2-1.5-1.1-1.9-1.1-3.1 1.6-3.1zm3.8-9.1c3.2-.1 5.2 1.5 6.6 4.9h-12.6c.9-3.2 2.8-4.8 6-4.9zM733.6 206.5c-3.8 3.3-8.6 2.6-11-1.6-1.3-2.2-1-3.4 1.8-3.4 3.5.1 7-.3 10.5.1 4 .4 4.4-1.6 4-4.7-.7-5.1-5.7-9.2-11-8.9-6.3.4-10.2 5-10.2 12.8-.6 4.7 1.4 8.7 6.2 10.8 4.5 2 8.9 1.4 12.5-2.1 1.1-1.1 3.7-2.1 1.7-4.3-1.9-2-3 .2-4.5 1.3zm-5.1-14c3-.1 6.1 1.7 5.8 4.2-.4 2.6-4 .2-5.8 1.4-2.1-1-5.5 1-5.7-1.4-.4-2.9 2.8-4.1 5.7-4.2zM669.9 200.5c0-3-.1-6 0-9 .1-2.2-1.6-3.7-2.9-2.4-2.1 2.1-3.2.8-4.9 0-4.3-1.9-9.3-.7-12.2 2.7-3.7 4.4-4.1 10.8-1 15.9 2.4 3.9 7.3 6 11.7 4.7 2.3-.6 4.3-2.5 7.1-.6 1.3.9 2.1-.8 2.1-2.4.1-3 .1-5.9.1-8.9zm-11.4 8.2c-3.7-.1-7.2-4.1-7.2-8.2 0-4.7 3.3-8.1 7.6-8 4.2.1 7.1 3.3 7 7.9-.1 4.8-3.3 8.4-7.4 8.3zM882.2 188.1c-6.7-.1-12.3 5.6-12.2 12.5.1 7 5.5 12.3 12.4 12.2 6.8-.1 11.6-5.3 11.6-12.3 0-6.9-5.2-12.3-11.8-12.4zm-.2 20.6c-4.1-.1-7.9-4-7.9-8.1 0-4.6 3.7-8.2 8.3-8.1 4.4.1 7.7 3.7 7.6 8.2-.2 4.4-3.8 8.1-8 8zM969.6 33.2c-6.3-.1-11.2 4.8-11.1 10.9.1 5.9 4.9 10.5 11 10.4 6.3 0 10.5-4.3 10.5-10.6.2-6.3-4.1-10.7-10.4-10.7zm5.6 17.1c-4.5 3.1-9.2 2.9-12.3-.8-3-3.7-2.5-8.3 1.4-12.2.1-.1.3-.2.4-.3 4.6-2.8 8.3-2.4 11.4 1.3 3.1 3.6 2.7 7.7-1 11.8 0 .1.1.2.1.2z" class="st0"></path><path d="M974 42.8c1.6-1.9.3-4.6-2.6-5.1-1.9-.3-3.9-.2-5.9-.3-.5 4.3-.7 8.5.2 13 2.8-1.4.8-4.1 3.1-5.2 2.4 1.2 2.4 5.8 6.4 5-1.4-2.2-4-4-1.2-7.4zm-4.5.3c-1.1.1-1.9-.3-1.9-1.6.1-1.5 1-1.9 2.4-1.8.9.2 2 .3 2 1.6-.1 1.5-1.3 1.7-2.5 1.8z" class="st0"></path></svg>