<svg xmlns="http://www.w3.org/2000/svg" xml:space="preserve" id="Capa_1" x="0" y="0" style="enable-background:new 0 0 512 512" viewBox="0 0 512 512"><style>.st73{fill:#a1d7e4}.st74{fill:#008fcb}.st75{fill:#00b7dc}.st76{fill:#78cae1}.st77{fill:#bee2e7}.st78{fill:#39bdde}.st79{fill:#2f97ce}.st80{fill:#c6c6c6}.st81{fill:#eaae00}.st82{fill:#5bc3df}.st84{fill:#9d7250}.st86{fill:#9e7250}.st89{fill:#d58942}.st93{fill:#cf8540}.st94{fill:#d48841}.st96{fill:#d58841}.st99{fill:#cd8442}.st102{fill:#cf8440}.st104{fill:#cf8541}.st108{fill:#d38842}</style><path d="M137.5 246.5c-2.5 6.4-7.9 7.8-12.6 7-2.3 3.6-2.4 6.9 2.1 14 4.4 7.1 6.5 15.2 7.3 19.4.2 1 0 2-.6 2.8 0 .2 0 .3-.1.4-.2.9-.8 1.7-1.7 2-.2.1-.5.2-.7.2l-.6.3c-.7.3-1.5.3-2.2 0-.1-.1-.3-.1-.4-.2-.1-.1-14.9-9.7-29.7-19.5-5.7-3.8-9.1-8-11.1-12.2l-1.7-4.6c-1.4-5.5-.5-10.5.9-13.5.8-1.7 3.1-7 8.9-8.8 1.8-.8 3.8-1.2 5.9-1.1 2.1.1 4.2.5 6.1 1.4 1.9.8 3.6 2 4.9 3.4.5-.7 1.1-1.4 1.6-2 5.7-6.1 12.9-6 16.3-4.5 7.3 2.9 10 8.8 7.4 15.5zM263.7 502.7c-29.7-.2-58.8-7-73.9-11.1-10.3 1.5-20.1 4.5-25 6.1-.4.1-.8.2-1.2.2-1.1 0-2.2-.6-2.9-1.5 0 0 0-.1-.1-.1-.7-.4-1.2-1.1-1.4-1.9-.5-1.5 0-3.1 1.3-4.1 15.4-11.3 30-12.6 36.4-12.8-.6-5.7 1.7-10.3 6.6-12.7 2.2-1.1 4.3-1.6 6.4-1.6 3 0 5.8 1.3 7.8 3.6 1.4 1.3 2.5 2.9 3 4.6.3.7 2.6 8.1-1.4 13.6-.6.9-1.3 1.6-2.2 2.3 10.1 1.1 19.4 1.9 28.1 2.3 22.6-1.6 27.7-6.5 28.7-7.9-.2-.6-.3-1.2-.4-1.9-8.8 4.1-18 6.7-24.6 8.3-.3.1-.6.1-.9.1-.3 0-.7-.1-1-.1h-.2c-.3.1-.6.1-.9.1-1.6 0-3-1.2-3.4-2.8-.3-1.6.5-3.2 2-3.9 33.5-14.9 41.5-27 43.5-31.6-2.4-1.2-4.9-3.4-6.1-7.2-8.5 12.4-14.6 25.7-14.7 25.9-.5 1-1.5 1.7-2.6 1.7-.3 0-.5 0-.8-.1-.1 0-.1 0-.2-.1-.3.1-.7.2-1 .2-.3 0-.5 0-.8-.1-1.4-.4-2.2-1.8-2-3.2.1-.6 2.5-15.3 15.6-35.6.1-1 .2-2.1.3-3.3.9-10.2-1.5-18.8-3.1-23.2-1.4.7-3 1-4.7 1-3.5 0-6.8-1.7-8.2-3.3-1.8-2.1-4.3-7.1-2.9-12.6-1.2.4-2.5.5-3.8.5-1.9 0-3.9-.4-6-1.1-9-3.2-10.8-12.6-10.4-17.3 0-1.6.7-13.5 14.7-25.6 8-6.8 12.1-11.7 14.1-14.6.6-.9 1.6-1.4 2.7-1.4s2.1.5 2.7 1.4c.6.9.7 2 .4 3-2.1 5.6-5.7 12.7-9.8 19.1-3.1 4.8-3.8 9.4-4 13.2 2.3 1 5.3 3.1 6.9 6.3.7 1.5 1.3 3.7.8 6.5 1.4-.6 2.8-.8 4.4-.8 2.6 0 4.7.9 5.2 1.1.3.1 1.3.6 2.5 1.5-1.1-1.8-1.8-3.6-2-5.1-1.1-6.9 1.4-18.5 12.9-20.7 1.2-.2 2.4-.3 3.6-.3h2c4.7 0 9 2 12.4 5.5 4.3 4.5 6.7 11.1 6.4 17.7-.2 6.6-2.3 28.3-17.6 47.7h1c5.8 0 10 2.9 11.5 8 2.1 7-1.9 19.7-15.1 32.4.4.3.7.5.9.6.3.2 1.1.8 2 1.8 1.5 1.4 3.8 4.1 4 8.3.1 3.2-1.2 6.4-3.8 9.7 11.1-2.5 14.7-6 15.8-7.5-3.1-5.3-3.1-11.5.2-16.7 1.7-2.8 5.7-5.6 10.7-5.6 2.4 0 4.8.7 7.2 1.9 1.8.9 3.4 2.2 4.8 3.7 5.2 4.8 7.9 13.3 2.5 21.3-4.1 6.1-18.1 16.6-65.5 18.2h-7.4z" class="st73"></path><path d="M282.6 387.6c2.1 3.4 3.9 8.3 4.3 15.2.1 2.9.1 5.9 0 9 3.9-10.3 3-18 2.4-21.1-2.6-.6-4.9-1.8-6.7-3.1zM178.1 475.6c-.7.2-1.4.2-2 0-4.4-1.2-14.9-2.9-35.6-.7-31 3.3-43.4-.7-55.3-5.9-15.8-6.9-16.6-17.3-15.7-23 .3-1.7.9-3.3 1.9-4.8 1.7-3.3 4.7-5.9 8.5-6.9.2-.1.4-.1.6-.1-19.8-24.7-10.1-39.5-9-41 .5-.8 4-5.6 10.1-7.3.1 0 .3-.1.4-.1.2-.1.3-.1.5-.1 3.2-.9 6.5-.8 10 .3 4.3 1.3 7.7 4.2 9.6 8.2 2.9 5.9 2.1 12.5 1.3 14.7-1.3 3.6-4.5 5.9-6.7 7.3 1.6 5.3 7.5 21.5 14.8 29.7 2 2.3 4.8 4.6 8.3 6.9-6-11.6-2.3-19.6 3-23.1 1.4-.9 2.8-1.6 4.3-2 4.1-1.1 8.5-.3 12.1 2.4 5.5 4 6.1 10.2 4.7 13.4-.9 2.2-2.3 4.6-6.8 5.8-.6.2-1.2.3-1.8.4.3 2.5 1.2 6.7 3.4 11.1 14.6.6 33 2.4 38.9 5.6.8.5 1.6.9 2.2 1.4 1.2.9 1.8 2.3 1.5 3.8-.1.7-.4 1.3-.9 1.8l-.3.6c-.2.6-1.1 1.3-2 1.6z" class="st73"></path><path d="M97.8 452.5c.5.9 2.8 3.5 7.7 5.4-2.6-1.9-5.2-4-7.8-6.3.1.4.1.7.1.9zM44.7 434.3c-5.3 1.8-9.8-1.5-10.3-1.9l-.3-.3c-.7-.7-4-4.4-3.3-9 .5-3.1 2.7-5.7 6.4-7.7.5-.3 1.1-.5 1.7-.7 8.1-2.8 17.3 3.5 22.1 7.5.9.8 1.4 2 1.1 3.2-.2 1.2-1.1 2.2-2.2 2.6-.7.3-1.5.2-2.2 0-2.1-.8-4.6-1.1-6.6-1.3 0 1.9-.8 3.9-3 5.8-1.1.8-2.2 1.4-3.4 1.8zM198.7 401.1c-5.1 1-10.6-.2-14.7-3.2-2.7-1.6-4.8-3.9-6.1-6.6-.5-1-.9-2-1.1-3.1-2 1.2-4 2.2-6 3-2.4 3-8.4 8.7-18.6 10.8-3.6.7-7.5.9-11.5.6-21.5-1.8-28-21.5-28.5-23.2-.2-.8-2.7-8.8 1.9-14.9 1.5-2.6 3.8-4.5 6.9-5.8 1.3-.5 2.5-.9 3.7-1.1 3.5-.7 6.8-.2 9.5 1.5 2-2.8 4.4-4.9 7.1-6.3-2-.5-4.3-.9-6.8-1.2-13.7-1.3-18.5-10-19.2-14.7-.9-3.5-.6-10.8 7-14.7 1.4-.7 2.8-1.2 4.2-1.5 6.9-1.4 11.3 3.2 12.7 5.9 3.1 5.8 1.2 10.4-.1 12.6.4.7 1.3 1.7 3.7 2.4 6.2 2 13.7 6.9 16.6 13.6 3.5 3.4 5.2 8.6 5.9 11.7.6 0 1.3-.1 2.2-.3 4.2-.8 10.9-3.8 18.8-13.3 14.5-17.5 39.1-33.8 56.1-37.2.6-.1 1.1-.2 1.7-.3 1.5-.2 2.9.7 3.2 2.2 0 .2.1.4.1.6 0 .1.1.2.1.4.4 1.4-.5 2.9-1.9 3.4 0 0-1.6.5-4.2 1.9-.2.2-.4.3-.6.5-8 4.6-21.6 15.4-23.7 36-3 30.2-5.3 33-12.7 38l-.3.2c-1.4.9-3.3 1.7-5.4 2.1zM63 389.5c-1.2.1-2.4-.4-3.1-1.4-1.2-1.6-2.3-3.3-3.5-5l-.6-.6c-8.9-12.8-31-47.3-44.8-91.1-14.6-46.2-3.3-78.5 1.5-89-7-2.2-13.3-8.6-12.5-21.3 0-.1 0-.4.1-.5 1-5.1 6.1-14.2 19.4-15.5.4 0 .7-.1 1.1-.1.3 0 .6-.1 1-.1.9-.1 1.9-.1 2.9-.2 6.6-.1 12.1 2.3 15.7 6.9 5.3 6.8 5.8 17.2 3.9 24.5-.6 2.3-2 5.8-3.7 10.1-6 15.1-16.1 40.4-13.6 65.5 1 10.5 4.8 25.2 11.3 43.8 1.6-24.3 9.8-46.2 13.1-54.2-4.5-1.7-11.4-6.2-10-18C42 237 47 229.2 58.7 228c1.3-.1 2.7-.2 4.1-.1 7.4.2 11.3 3.9 13.4 6.9 3.7 5.5 4.1 13.4 1.1 21.2-1.4 3.6-2.9 6.6-4.7 10.1-4 7.7-9.4 18.3-17.3 44.3-4.8 15.8-4.6 32.7.4 50.2 3.3 7.8 6.2 14.2 8.1 18.3.4.8.4 1.6.2 2.4.6 1.1 1.1 2.1 1.7 3.1.6 1 .6 2.2.1 3.3-.6.9-1.6 1.6-2.8 1.8z" class="st73"></path><path d="M73 297.5c-1.4.1-2.6-.7-3-2-.4-1.4-4-14.3-.4-21 1.9-3.6 5-5.7 8.5-6.1 3-.3 6.1.8 8.6 2.9 4.9 4.2 6.1 9.9 3 14.3-1.7 2.3-3.8 3.7-6.3 3.9-2 .2-4.2-.3-6.9-1.4-.6 1.1-1 4.1-.9 6.5 0 1.4-1 2.7-2.4 2.9H73zM100.2 228.3c-2.1.9-4.6 1.3-7.4 1-.5 0-1-.1-1.4-.2-5.4-1-11.5-5.4-12-12.5-.1-2.1 0-4 .3-5.7.7-4.3 2.8-7.7 6.6-10.8 3.9-3.1 8.9-4.2 14.2-3.3 2.6.5 5.3 1.5 8 3l.6.3c-.4-1.5-.4-3.1-.1-4.7.3-2.6 1.7-5 3.9-6.7 2.7-2 6.1-2.8 9.7-2.1 3.8.7 7.9 3 12.1 6.8 2.8 2.6 4.9 5 6.3 7.1 1.1-1.7 2.6-3.4 4.7-5 5.3-4.2 14.5-5.7 23.9-3.9 5.9 1.1 11.2 3.3 15.3 6.4 8 6.1 19 18.3 23.6 23.6 4.1 2.7 8.3 4.4 13.3 5.3 1.6.3 3.3.5 5.1.7.1 0 .3 0 .4.1 1.4.3 2.5 1.3 2.9 2.6.2.7.2 1.5 0 2.1 0 .5-.1 1-.3 1.4-.5 1-1.4 1.7-2.5 2-3.4.8-8.6 1.5-14 .6-2.2-.4-4.2-1.1-6.2-2-4.1-1.9-6.6-3.6-8.6-5-2.9-1.9-4.8-3.3-10.1-4.4-1.5 3.6-4.8 6.5-10.1 5.5-.2 0-.5-.1-.8-.2-7-1.7-10.5-6.5-9.3-12.9 0-.1.1-.2.1-.4s.1-.4.1-.6c.3-1.8 1.5-4.4 4.1-6.3-.6-.1-1.1-.3-1.7-.4-3.7-.7-6.8-.3-8.5 0-.6 3.7-2 7.5-6.2 9.5-2 1-4.6 1.3-7.4.8-3.3-.6-6.1-2.1-7.9-4.2-.9-1-1.6-2.3-2-3.8 0 0 0-.1-.1-.1-1.1-1.4-2.1-2.5-3.1-3.5 0 .1 0 .1-.1.2 0 .9-.4 1.7-1.2 2.3-.4.3-8.8 6.4-21 4.2-.2 0-.4-.1-.6-.1-.5-.1-.9-.2-1.4-.3-2-.4-3.6-.6-4.9-.6.5 1.6.6 3.3.2 5.1-.1.5-.2 1-.3 1.4-.5 1.8-1.3 3.4-2.4 4.7.2.1-1.1 1.6-3.8 3zM107.2 257.2c.1.2.3.5.4.7 0-.3-.1-.6-.1-.9 0 .1-.2.1-.3.2z" class="st73"></path><path d="M129.4 204.4c-.3.5-.7 1-1.2 1.5 1.1-.1 2.2-.3 3.2-.5-.7-.5-1.4-.8-2-1zM271.4 306.1c-.9.1-1.8-.1-2.6-.7-2.9-2.3-7-6.3-10-12.8-2.1-3.4-3.6-7.1-4.5-11-1.4-6.1-2.6-9.5-3.4-11.4-.8.4-1.8.7-2.9.9-2.2.3-4.6.1-7.1-.8-4-1.4-6.7-4.7-7.3-8.9-.6-4.5 1.5-9.1 5.1-11.5 1.8-1.2 3.7-1.9 5.7-2.3 3.5-.5 7 .4 9.9 2.5-.1-1.4-.3-2.5-.4-3.4-8.7.6-12.9-4.3-13.9-9.3-.9-4.5 0-8.6 2.8-12 2.3-3.4 5.4-5.1 6.1-5.4.4-.2 2-1 4.2-1.3 3.4-.5 9.8-.2 14.7 7.6 5.8 9.2 4.3 18 1.6 33.9-.6 3.3-1.2 7-1.8 11.1-2.3 14.8 3.3 24 6.8 28.2.8.9 1 2.2.6 3.3-.2.5-.5 1-.9 1.3-.7 1.1-1.6 1.9-2.7 2zM223.6 224.5h-.4c-.1.1-.3.1-.4.1h-.3c-1.3.1-2.5-.9-2.7-2.2 0-.1-1.9-12.7-11.7-20.8-6.7-5.5-10.3-6.2-14.9-7.1-1.8-.4-3.9-.8-6.2-1.5-9.6-2.9-13.7-12.9-11.4-20.4 1.1-3.7 3.5-6.5 6.8-8.1-3.5-5.9-3.3-10.6-2.6-14.2 1-5.4 4.8-9.1 10.3-10.1 2-.4 4.3-.4 6.1 0 3.9.9 8.2 4.7 8.9 11 .4 3.5-1.1 5.9-2.9 7.4 15.9 18 19.2 37.1 19.9 45.1 3.9 10.1 3.8 17.7 3.8 18-.2 1.6-1.1 2.6-2.3 2.8z" class="st73"></path><path d="M177.2 166.8c-.7.1-1.5 0-2.1-.5l-1.5-1.2c-.1 0-.2.1-.3.1h-.1c-1.2.2-2.5-.5-2.9-1.7-.2-.7-.5-1.4-.7-2-.4.5-.9.8-1.5.9-.4.1-.9.1-1.3-.1-.9-.3-8.7-3.2-12.5-7.6-2.3-2.7-3.1-5.3-2.6-7.5.4-1.6 1.5-2.8 3-3.4l.9-.3c.6-.1 1.2-.1 1.8-.1-2.9-6.6-4.2-12.8-4.8-17.8-1.3-11.8 1.1-21.7 4-26.2 1.9-3 4.7-5 8-5.6 4.1-.8 7.6.6 8 .8 0 0 .1 0 .1.1.2.1 1.5.8 3 2 11-14.5 26.3-20.1 37.4-22.3.3-.1.6-.1.9-.2.2 0 .5-.1.8-.2 3.9-.8 7.8-1.2 11.8-1.4 9.3-.4 17.1 1.7 22.7 5.9 4.8 3.6 7.7 8.7 8.2 14.1.8 9.2-5.6 15.5-12.1 16.7-.2 0-.5.1-.7.1h-.2c-.3.1-.6.2-.9.2-.2 0-.4.1-.6.1-3.9.5-7.5-.2-10-2.2-2.2-1.7-3.5-4.1-3.9-7.1-.6-4.6 1.9-7.8 4.1-9.6-3.5-2.7-8.1-3.6-12.3-3.8 2.3 2.5 3.1 5.4 3.1 7.4.2 3.4-1.8 10.2-10.8 12-.3.1-.6.1-.9.2-.3.1-.6.1-.9.2-.6.1-1.1.2-1.7.3-3.4.4-6.2-.4-8.5-2.2-2.2-1.7-3.3-4.1-4-6.2-9.6 5.9-16.1 16-19.2 30.2-2.7 12.6-2 24.9-1.5 30.1 1.3 2.5 2.3 4 2.3 4 .7 1.1.5 2.5-.4 3.3-.4.2-.8.4-1.2.5zM58.4 151.5c-1.2.1-2.3-.4-3-1.3-.7-.9-1-2.1-.6-3.2 4.2-14.9 17.5-52.5 48.9-80 3.5-3 6.9-5.8 10.3-8.2-.5-.3-1-.8-1.3-1.4-.6-1.2-.3-2.7.6-3.7 4.1-4.2 6.1-7.1 6.9-9.9.3-1.2.5-3.2.6-5 .3-3.2.5-6.3 1.7-8.4 1.2-2.2 3.4-3.6 5.9-3.8 2.1-.2 4.2.7 5.6 2.2 1.4 1.5 2.9 4.5 1.9 9.9-.6 3.6-2.9 7.1-6 10.3 17.9-9.3 33.9-12 43.5-12.7 2.5-.2 4.7-.2 6.3-.2-1.1-5.3.3-9.7 4.2-12.7 2.6-2 5.7-3.2 8.8-3.5 4-.3 8 1.1 11.4 4 4 3.4 6.1 8.5 5.5 13.8-.5 4.9-3.3 9.1-7.5 11.3-3.5 1.8-6.2 2.8-10.4 3.7-2.7.6-5.8 1.2-9.1 1.5-2.9.4-6.4.9-10.7 1.5-3.8.5-8.2 1.1-13.4 1.8-14.5 2-27.7 9.7-37.5 17 4.8-1.9 9.2-3 13.2-3.3 17.3-1.3 20.6 12.4 20.6 12.5.4 2 .6 6.7-1.6 10.8l-.3.6c-.2.4-.5.8-.9 1.2-2.2 2.9-5.6 4.7-9.8 5.3-.5.1-1.1.1-1.6.2-7.3.5-11.7-3.4-13.6-7.8-.3.1-.6.1-.9.2-4.9 1.1-15 4.2-26.3 11.5-10.3 6.9-18.8 15.8-25.3 24 1.4-.7 2.8-1.1 4.1-1.2 4.5-.3 7.6 2.7 8.7 4.5.2.3 2.4 3.8 1.5 7.6-.5 2.1-1.8 3.9-3.8 5.2-1.4.9-2.8 1.4-4.3 1.5-3.3.3-5.9-1.6-7.2-2.8-.8.3-2.2 1.1-4.3 2.8-.6.5-1.3.8-2.1.9-1.3.1-2.6-.5-3.4-1.6-.1-.2-.3-.4-.4-.7-.9 1.5-1.6 2.8-2.2 3.9-.4.9-1.5 1.6-2.7 1.7z" class="st73"></path><path d="M244.1 123.9c-1.8.4-3.7 0-5.4-1-.2-.1-.3-.2-.5-.3-2.3-2-3.8-5.6-1.6-9.2 1.2-2.1 2.9-2.8 4-3 1.8-.3 3.7.2 5 1.4l.3-.6c.4-.9 1.2-1.5 2.2-1.7.9-.2 1.9.1 2.6.7.7.6 1.1 1.5 1.1 2.5-.1 2.9-.7 5.2-1.8 6.8-1.5 2.4-3.6 4-5.9 4.4z" class="st73"></path><path d="M245.8 484.2c-.7.3-.4 1.4.4 1.2 9.2-2.2 26.5-7.2 37.5-16.3 15.7-12.9 21-26.9 19-33.6-2.3-7.7-11.6-5.7-11.6-5.7s-7.8 1.3-6.8 10.2c.8 7.1 7.1 8.2 7.1 8.2s.1 15.7-45.6 36z" class="st74"></path><path d="M247.8 484.2c-.7.3-.4 1.4.4 1.2 9.2-2.2 26.5-7.2 37.5-16.3 15.7-12.9 21-26.9 19-33.6-2.3-7.7-11.6-5.7-11.6-5.7s-7.8 1.3-6.8 10.2c.8 7.1 7.1 8.2 7.1 8.2s.1 15.7-45.6 36z" class="st75"></path><path d="M268 477c-.4.2-.7-.4-.3-.6 9.5-5.5 16.7-11 21.6-16.5 6-6.8 6.3-11.2 6.3-11.7v-1.4c0-.2-.1-.3-.3-.3l-1.4-.2c-.5-.1-4.9-1-5.5-6.4-.8-7 4.9-8 5.1-8.1h.1s1-.2 2.4-.2c3.7 0 6 1.5 6.9 4.5 1.5 5.1-2.1 18.2-18.4 31.5-4.7 3.8-10.6 7-16.5 9.4z" class="st76"></path><path d="M294.8 442.6c-1.2 1.5-3.7 1.2-4.6-.5-.5-.9-.9-2.2-.9-3.8-.3-6.3 7.6-5.7 9.1-4.8s4 2.6 2.9 6.7c-.9 3.4-4.9.3-6.5 2.4z" class="st73"></path><path d="M292.7 441.3c-.2 0-.4-.1-.5-.3-.4-.7-.6-1.7-.7-2.8-.1-1.3.4-1.8.6-2 .6-.6 1.9-1 3.4-1 1 0 1.7.2 1.9.3 1.4.8 2.5 1.7 1.9 4.2h-.2c-.3 0-.6 0-.9-.1-.4 0-.8-.1-1.3-.1-1.7 0-3 .5-3.8 1.6-.2.1-.3.2-.4.2z" class="st77"></path><path d="M58.7 148.3c7.6-13.9 31.3-50.9 69.7-57.5.3-.1.7.1.8.5.6 2 3.3 8.7 12.8 7.4 11.2-1.5 10.7-12.1 10.2-14.4-.5-2.2-7.5-22.7-45.7.8-.7.4-1.4-.5-.8-1 8.2-8.1 28.6-26.1 52.6-29.5 31.2-4.3 35.2-4.3 42.6-8.2 7.4-3.9 8.2-14.7 1.5-20.4-6.3-5.3-12.9-3.4-16.6-.4-3.6 2.8-4.3 7.1-2.4 12.5.2.4-.2.9-.7.9-6.5-.3-41.9-.7-77.1 30.2-31 27.1-44 64.4-48 78.6-.3.7.8 1.2 1.1.5z" class="st78"></path><path d="M66.3 131.1c7-17.3 19.7-41.2 41.1-59.9 26.4-23.2 53-28.3 66.5-29.3 5.9-.4 9.5-.1 9.6-.1h.5c.8-.1 1.6-.5 2.1-1.1.6-.8.7-1.8.3-2.8-1.9-4.6-1.6-8 1.1-10.1 1-.8 3-2.1 5.7-2.3 2.6-.2 5 .7 7.4 2.6 2.6 2.1 3.9 5.4 3.5 8.8-.3 3.1-2 5.6-4.5 6.9-5.7 3-9.1 3.5-28.2 6-3.8.5-8.3 1.1-13.4 1.8C126.1 56 100.9 84.8 99.8 86c-.9 1.1-4 5.2-3.1 6.2 1.4 1.6 30-15 38.2-15.6 12.5-.9 14.6 8 14.6 8.1.2.9.5 4.7-1.5 7.6-1.3 1.9-3.4 3-6.3 3.4-.3 0-.6.1-.9.1-7.3.5-10.1-4.6-10.2-5.2-.3-1.4-.2-3-1.6-2.9h-.2c-20.3 3.3-39.7 15.6-56.2 35.4-2.4 2.8-4.5 5.5-6.3 8z" class="st76"></path><path d="M77.2 121.6c-.8.9-2.2-.2-1.5-1.1 6.7-9.1 21.7-23.2 54.3-35.9 2-.8-1.6 2.7 3 8.6 3.1 3.9 11.1 3.2 16.2-.9.8-.6 1.9.3 1.4 1.2-1.4 2.2-3.9 4.4-8.7 5.2-9.2 1.4-12-5-12.7-7.2-.1-.4-.6-.7-1-.6-4.8.7-29.7 6.1-51 30.7zM99.1 86.9s14.2-20.8 45.2-33.6c23.9-9.9 41-8.2 50.6-9.2 4-.4 6.7-1.9 8.6-3.6 1-.9 2.5.4 1.7 1.6-2.5 3.6-8.6 7.7-22.9 9.2-37 3.8-56 6.4-83.2 35.6z" class="st79"></path><path d="M115.4 55.6c-.4.4.1 1 .5.7 5.3-3.3 15.9-10.8 17.2-18.2 1.7-9.9-5.9-10.5-8.1-6.5-1.5 2.8-1.1 9.3-2.1 12.8-.9 3.3-2.9 6.5-7.5 11.2z" class="st78"></path><path d="m124.2 46.8.6-1.8c.5-1.7.6-3.7.8-5.9.2-2.5.4-5.3 1.1-6.5.4-.7 1.2-1.3 2-1.3.5 0 1.1.1 1.7.7.9 1 1.2 3.2.7 5.8-.5 3.1-3.1 6.3-6.2 9.3-.4.4-.9.2-.7-.3z" class="st76"></path><path d="M289.3 103.1s47.5-26.8 65.4 4.3c23.4 40.5-18.1 95.6-20.1 100.2 0 0 72.7-67.9 31.5-113.6-37.6-41.9-76.8 9.1-76.8 9.1zM353.4 207.9s76.6-47.7 103 4.9c18.2 36.3-26.2 71.6-26.2 71.6s27.5-36.9 10.9-65.8c-21.3-36.9-87.7-10.7-87.7-10.7zM360.8 256l5.7 14.6 15.7.2-12.1 9.9 4.7 15-13.2-8.4-12.8 9 4-15.1-12.6-9.4 15.6-.9zM319.5 339.9s39.6 51.1 87.6 32.6c31.2-12 11.6-67 11.6-67s40.1 57.4-4.7 79.7c-43.7 21.9-94.5-45.3-94.5-45.3z" class="st80"></path><ellipse cx="312.3" cy="23.5" class="st80" rx="1.9" ry="2.1" transform="matrix(.0216 -.9998 .9998 .0216 282.084 335.246)"></ellipse><ellipse cx="290.8" cy="20.4" class="st80" rx="1.3" ry="1.6" transform="matrix(.0216 -.9998 .9998 .0216 264.181 310.68)"></ellipse><path d="M511.8 250.5c-2.6-66.4-31-127.9-79.9-173C403.3 51.1 371.8 31.8 336 21c-1.5.2-2.5.5-3.2 1.4-.8 1-1.3 3.1.2 4.8 1.2 1.4 3.3 1 4.1 0 .8-1 .4-2.5-.9-2.5-.9 0-.2.4-.2.4 1 .6.6 1.6-.3 1.7-.9.1-1.8-.5-2-1.5-.4-1.8 1.7-2.6 3.7-2.1 1.6.4 3.7 2.5 3.2 4.7-.9 3.4-4.9 2.2-4.9 2.2-8.3-2.7-16.6-9.8-17.9-10.7-1.3-.9-1-1.2 1.1-1.8.7-.2.8-.5.6-.8-3.3-.7-6.6-1.4-9.9-1.9-.4.7-.1 1.5.2 2.1.5.9-6.7 1.6-8 1.8s-4.6-2.1-5.8-2.9c-1.2-.9-1.4-1.5-.4-2.1.3-.2.4-.5.4-.8l-9-.9c-.2.6-.2 1.2.5 1.4 1.5.7-1.1 1.3-5.3 2.8-4.2 1.6-4.5 1.9-10 1.4-3.5-.3-3.9-1.9-3.8-2.9.1-1 1.2-1.7 2.3-1.5 1 .2 2.1 1.2 1.3 1.7s-1.5-.7-1.5-.7c-.1 1.2.7 2 1.8 2 1.2 0 1.7-1.4.8-2.6-.6-.9-2.1-1.8-3.2-2.5-5.5 0-11.1.1-16.7.4-4.6.2-8.9.7-11.1 1.5-.8.3-.7 1.4.1 1.5 2.3.3 6.7.9 11.2 1.4 2.4.3 4.7.5 6.9.8-.1-.3-.2-.7-.2-1.1 0-1.6 1.2-2.9 2.7-2.9 1.5 0 2.6 1.4 2.6 3 0 .6-.2 1.1-.4 1.6 6.3.9 12.1 1.8 17.8 2.8v-.1c-.7-1.2-1.6-1.9 1.2-2.9 2.9-1 7.1-2.8 8-2.5.9.2 6.6 4.1 7.4 4.9s1.8 2.3.5 2.6c-.8.2-1.3.4-1.3.8.9.1 1.7.3 2.6.4.8.1 1.6.3 2.4.4-.1-.4-.3-1-1-1.6-1.3-1.2.2-2.2 2.5-2.7 2.2-.5 6.7-1.9 8.7-1.6 2.1.4 7.2 5.4 8.1 6.5.7.9 1 2.3-.4 3.1 38.9 9.5 74.8 27.8 105.1 55.8 47.3 43.7 74.7 103.1 77.3 167.4 2.9 74-27.9 143.6-81.8 190.8.6.8 1.4 1.9 2.1 2.1 1.1.3 2.3-3.7 2.6-4 .5-.6 3 1.4 2.4 3-.4 1-3.5 4.5-4.3 4.7-.6.1-3.2-2.9-4.4-4.4-2.1 1.9-4.3 3.7-6.5 5.4.6.5 1.5 1.8 2.2 2.2.8.5 3.5-4.3 3.9-4.5.4-.2 2.1 1.4 1.8 2.4-.3 1-5.2 5.5-6 5.6-.7.1-3.5-3.1-4.2-4-2.2 1.7-4.1 3.8-6.4 5.4 0 0 1.3 1.9 1.9 2.3.8.5 3.4-4 3.8-4.2.4-.2 2 1.5 1.7 2.5-.4 1-5.5 4.9-6.3 5.1-.7.1-3.2-3.1-4.1-4.1-2 1.4-3.8 3.1-5.8 4.5 0 0 1 1.8 1.7 2.2.8.5 3-2.6 3.4-2.8.4-.2 2 1.3 1.6 2.3-.4 1-4.1 3.1-4.9 3.2-.7.1-3.2-2.6-3.8-3.5l-4.8 4.2c.6.6.7 1.3 1.3 1.8.8.5 2.9-2.5 3.3-2.7.4-.2 1.9.9 1.5 1.9-.4 1-4.1 3.1-4.9 3.2-.7.1-2.4-2-3-2.8 0 0-5.2 5.9-18.2 15.4 0 0-.7.6-.8 1-.1.5.7.5.7.5 90.3-42.6 146.2-134.9 142.2-234.9z" class="st80"></path><circle cx="262.9" cy="16" r="1" class="st80"></circle><path d="M269.6 262.8s-.6-108.6 3.2-119.9c0 0 3.6 77.8 7.7 101.4 0 0-7 8.9-10.9 18.5z" class="st80"></path><path d="M287.3 101.1s47.5-26.8 65.4 4.3c23.4 40.5-18.1 95.6-20.1 100.2 0 0 72.7-67.9 31.5-113.6-37.6-41.9-76.8 9.1-76.8 9.1zM351.4 205.9s76.6-47.7 103 4.9c18.2 36.3-26.2 71.6-26.2 71.6s27.5-36.9 10.9-65.8c-21.3-36.9-87.7-10.7-87.7-10.7zM358.8 254l5.7 14.6 15.7.2-12.1 9.9 4.7 15-13.2-8.5-12.8 9.1 3.9-15.2-12.6-9.3 15.7-.9zM317.5 337.9s39.6 51.1 87.6 32.6c31.2-12 11.6-67 11.6-67s40.1 57.4-4.7 79.7c-43.7 21.8-94.5-45.3-94.5-45.3z" class="st81"></path><ellipse cx="310.3" cy="21.5" class="st81" rx="1.9" ry="2.1" transform="matrix(.0216 -.9998 .9998 .0216 282.127 331.252)"></ellipse><ellipse cx="288.8" cy="18.3" class="st81" rx="1.3" ry="1.6" transform="matrix(.0216 -.9998 .9998 .0216 264.224 306.686)"></ellipse><path d="M509.8 248.5c-2.6-66.4-31-127.9-79.9-173C401.4 49.2 369.8 29.8 334 19c-1.5.2-2.5.5-3.2 1.4-.8 1-1.3 3.1.2 4.8 1.2 1.4 3.3 1 4.1 0 .8-1 .4-2.5-.9-2.5-.9 0-.2.4-.2.4 1 .6.6 1.6-.3 1.7-.9.1-1.8-.5-2-1.5-.4-1.8 1.7-2.6 3.7-2.1 1.6.4 3.7 2.5 3.2 4.7-.9 3.4-4.9 2.2-4.9 2.2-8.3-2.7-16.6-9.8-17.9-10.7-1.3-.9-1-1.2 1.1-1.8.7-.2.8-.5.6-.8-3.3-.7-6.6-1.4-9.9-1.9-.4.7-.1 1.5.2 2.1.5.9-6.7 1.6-8 1.8-1.2.2-4.6-2.1-5.8-2.9-1.2-.9-1.4-1.5-.4-2.1.3-.2.4-.5.4-.8l-9-.9c-.2.6-.2 1.2.5 1.4 1.5.7-1.1 1.3-5.3 2.8-4.2 1.6-4.5 1.9-10 1.4-3.5-.3-3.9-1.9-3.8-2.9s1.2-1.7 2.3-1.5c1 .2 2.1 1.2 1.3 1.7s-1.5-.7-1.5-.7c-.1 1.2.7 2 1.8 2 1.2 0 1.7-1.4.8-2.6-.6-.9-2.1-1.8-3.2-2.5-5.5 0-11.1.1-16.7.4-4.6.2-8.9.7-11.1 1.5-.8.3-.7 1.4.1 1.5 2.3.3 6.7.9 11.2 1.4 2.4.3 4.7.5 6.9.8-.1-.3-.2-.7-.2-1.1 0-1.6 1.2-2.9 2.7-2.9 1.5 0 2.6 1.4 2.6 3 0 .6-.2 1.1-.4 1.6 6.3.9 12.1 1.8 17.8 2.8v-.1c-.7-1.2-1.6-1.9 1.2-2.9 2.9-1 7.1-2.8 8-2.5.9.2 6.6 4.1 7.4 4.9.9.8 1.8 2.3.5 2.6-.8.2-1.3.4-1.3.8.9.1 1.7.3 2.6.4.8.1 1.6.3 2.4.4-.1-.4-.3-1-1-1.6-1.3-1.2.2-2.2 2.5-2.7 2.2-.5 6.7-1.9 8.7-1.6 2.1.4 7.2 5.4 8.1 6.5.7.9 1 2.3-.4 3.1 38.9 9.5 74.8 27.8 105.1 55.8 47.3 43.7 74.7 103.1 77.3 167.4 2.9 74-27.9 143.6-81.8 190.8.6.8 1.4 1.9 2.1 2.1 1.1.3 2.3-3.7 2.6-4 .5-.6 3 1.4 2.4 3-.4 1-3.5 4.5-4.3 4.7-.6.1-3.2-2.9-4.4-4.4-2.1 1.9-4.3 3.7-6.5 5.4.6.5 1.5 1.8 2.2 2.2.8.5 3.5-4.3 3.9-4.5.4-.2 2.1 1.4 1.8 2.4-.3 1-5.2 5.5-6 5.6-.7.1-3.5-3.1-4.2-4-2.2 1.7-4.1 3.8-6.4 5.4 0 0 1.3 1.9 1.9 2.3.8.5 3.4-4 3.8-4.2.4-.2 2 1.5 1.7 2.5-.4 1-5.5 4.9-6.3 5.1-.7.1-3.2-3.1-4.1-4.1-2 1.4-3.8 3.1-5.8 4.5 0 0 1 1.8 1.7 2.2.8.5 3-2.6 3.4-2.8.4-.2 2 1.3 1.6 2.3-.4 1-4.1 3.1-4.9 3.2-.7.1-3.2-2.6-3.8-3.5l-4.8 4.2c.6.6.7 1.3 1.3 1.8.8.5 2.9-2.5 3.3-2.7.4-.2 1.9.9 1.5 1.9-.4 1-4.1 3.1-4.9 3.2-.7.1-2.4-2-3-2.8 0 0-5.2 5.9-18.2 15.4 0 0-.7.6-.8 1-.1.5.7.5.7.5 90.3-42.6 146.2-134.9 142.2-234.9z" class="st81"></path><circle cx="260.9" cy="14" r="1" class="st81"></circle><path d="M245.2 492.5s34.8 4.4 45.3-6.1c10.3-10.4 1.1-16.6 1.1-16.6s-4.4-3.4-9.1-1.1c-4.6 2.3-7.8 6.4-5.6 13 0 .2-.7 8.7-31.7 10.8z" class="st73"></path><path d="M246.2 493.5s34.8 4.4 45.3-6.1c10.3-10.4 1.1-16.6 1.1-16.6s-4.4-3.4-9.1-1.1c-4.6 2.3-7.8 6.4-5.6 13 0 .2-.7 8.7-31.7 10.8z" class="st75"></path><path d="M270.7 492.1c-.6.1-.8-.8-.2-1 8.4-3.2 9.3-7 9.4-8.1v-.4l-.1-.4c-1.6-4.8-.1-8.3 4.6-10.7.8-.4 1.7-.6 2.6-.6 2.4 0 4.4 1.5 4.4 1.5l.1.1s2.6 1.8 2.9 4.9c.2 2.6-1.2 5.5-4.3 8.6-3.3 3.3-10 5.4-19.4 6.1z" class="st82"></path><path d="M162.2 492.7c-.7.5-.1 1.7.7 1.4 8-2.7 25.3-7.7 40.3-7.3 19.6.6 13.8-15.5 13.8-15.6-.8-2.7-4.9-7.5-12.2-3.9-7.6 3.8-4.5 12.4-4.5 12.8-.1.8-18.4-1.9-38.1 12.6z" class="st79"></path><path d="M163.1 493.7c-.7.5-.1 1.7.7 1.4 8-2.7 25.3-7.7 40.3-7.3 19.6.6 13.8-15.5 13.8-15.6-.8-2.7-4.9-7.5-12.2-3.9-7.6 3.8-4.5 12.4-4.5 12.8 0 .8-18.3-1.9-38.1 12.6z" class="st75"></path><path d="M171.6 490.6c12.7-6.9 23.8-7.2 27.9-7.3 1.7 0 3.7-.1 3.7-2.1 0-.3-.1-.5-.1-.8-1.3-5-.1-8.4 3.5-10.2 1.5-.7 2.9-1.1 4.2-1.1 3.4 0 5 2.7 5.3 3.8.1.3 1.9 5.7-.7 9.4-1.8 2.4-5.2 3.7-10.4 3.6H202.6c-10.7-.2-22.3 2.3-31 4.7z" class="st76"></path><path d="M279.1 438s4.8-16.4 3.9-34.1c-.8-16.2-10.2-19.8-10.2-19.8s-7.6-3.6-11.9 4c-3 5.4-.5 10.7 1.2 12.7 1.4 1.7 7.6 4.3 12-.2 0 0 5.9 12 4.6 27.9-1.4 15.7.4 9.5.4 9.5z" class="st73"></path><path d="M280.1 437s4.8-16.4 3.9-34.1c-.8-16.2-10.2-19.8-10.2-19.8s-7.6-3.6-11.9 4c-3 5.4-.5 10.7 1.2 12.7 1.4 1.7 7.6 4.3 12-.2 0 0 5.9 12 4.6 27.9-1.4 15.7.4 9.5.4 9.5z" class="st75"></path><path d="M281.2 409.5c-1.5-6.7-3.5-10.9-3.7-11.2-.9-1.8-2.6-1.5-3.9-.1 0 0-1.4 2-5.4 2.3-1.9.1-3.7-2.3-4.1-2.7-1-1.2-3.2-5.3-.9-9.5 1.3-2.3 4-3.3 6.3-3.3 1.6 0 2.9.6 2.9.6l.2.1c.3.1 7.7 3.3 8.4 17.3.3 2.2.3 4.4.2 6.5z" class="st76"></path><path d="M268 333.7c.3-.4 1-.1.8.4-1.8 4.9-5.2 11.8-9.6 18.6-3.9 6.1-4.5 12.2-4.5 16.4 0 .2.1.4.3.4 1.5.4 10.4 4 6.7 12.7-2.4 5.5-7.8 6.6-13.5 4.5-9.4-3.3-8.5-14.5-8.5-14.5s-.2-11.6 13.7-23.5c8.1-6.9 12.4-11.9 14.6-15z" class="st75"></path><path d="M253.2 384.9c-1.3 0-2.7-.3-4.1-.8-7.3-2.6-6.6-11.5-6.6-11.6v-.2c0-.4.1-10.5 12.7-21.3 1.4-1.2 2.7-2.3 3.8-3.4-.7 1.2-1.5 2.5-2.2 3.6-4.4 6.8-4.9 13.5-4.9 17.9 0 1.5 1 2.8 2.4 3.2.8.2 3.9 1.5 5.1 4 .7 1.4.6 3-.2 4.9-1.2 2.4-3.1 3.7-6 3.7z" class="st76"></path><path d="M131 467.7h-.2s-16.1-3.2-40.4-27.9C62 411 74.7 394.6 74.7 394.6s5.9-9.4 16.9-5.9 10.1 16.4 9.1 19.1c-1.4 3.7-5.5 5.8-7.3 6.8-.5.3 6.5 22.5 15.9 33.1 7.7 8.6 22.6 15.1 30.4 18.1 1.2.4.9 2.2-.4 2.2-2.6.1-6 .1-8.3-.3z" class="st73"></path><path d="M130.1 467.9h-.2s-16.1-3.2-40.4-27.9c-28.4-28.8-15.7-45.2-15.7-45.2s5.9-9.4 16.9-5.9 10.1 16.4 9.1 19.1c-1.4 3.7-5.5 5.8-7.3 6.8-.5.3 6.5 22.5 15.9 33.1 7.7 8.6 22.6 15.1 30.4 18.1 1.2.4.9 2.2-.4 2.2-2.7.1-6 .1-8.3-.3z" class="st78"></path><path d="M107.3 451.8c-4.6-3.6-9.8-8.6-15.4-14.2-25.7-26.1-15.8-40.2-15.4-40.8l.2-.2s2.4-3.6 6.6-4.8c2-.6 4.2-.5 6.5.2 2.7.8 4.7 2.5 5.9 5 2 4 1.4 8.9 1.1 9.8-.9 2.3-3.8 4-5.4 4.8l-.5.3c-.8.4-1.4 1.2-1.5 2.1v.2c-.5 2.8 7.7 23.2 16.2 34.1.6.7 1.1 1.3 1.7 1.9 1.4 2 0 1.6 0 1.6z" class="st76"></path><path d="M141.9 469.5s-12.2-5.6-18.8-17.2c-6.6-11.6-2.1-18.2 1.4-20.5 4-2.6 8.9-2.8 13.2.3 4.3 3.1 4.6 7.9 3.8 10-1 2.4-2.1 4.2-9 4.9-.1 0-.2 12.6 9.4 22.5z" class="st78"></path><path d="M129.7 453c.2 1-1.1 1.6-1.7.7-.7-1-1.4-2-2-3.1-6.2-10.9-.8-15.2.3-16 .8-.5 1.6-.9 2.5-1.2 2.3-.6 4.7-.2 6.8 1.4 3 2.2 2.9 5.2 2.6 5.9-.5 1.2-.7 1.7-2.6 2.2-.9.3-2.1.5-3.5.6l-2.2.2c-.5 0-.9.5-.9.9v2.2c0 .4 0 2.8.7 6.2z" class="st76"></path><path d="M58.7 425.3c.5.2.9-.5.5-.8-4.6-3.8-13.7-10.1-20.6-6.5-9.4 4.9-2.8 11.8-2.4 12.2.4.3 5.3 4 10.1 0 2.9-2.4 2-4.7 1.2-5.8-.2-.3 0-.8.4-.8 2 0 6.9.2 10.8 1.7z" class="st78"></path><path d="M43.3 430.3c-3 1-5.7-.8-6.2-1.1H37c-.4-.4-2.4-2.8-2.1-5.3.3-1.7 1.7-3.3 4.2-4.6.4-.2.7-.3 1.1-.5 4-1.4 8.8.5 12.8 3 .4.2.2.8-.3.8-3.2-.4-5.8-.3-6-.3l-2.4.1c-.4 0-.5.5-.3.7l1.8 1.6s1 .9 1 2.1c0 .8-.5 1.6-1.5 2.3-.6.6-1.3 1-2 1.2z" class="st76"></path><path d="M62.2 386.4c.4.6 1.3 0 1-.6-7.6-13.5-20.5-43.3-10.6-76.2 11.4-37.7 17.7-43.2 22-54.6s.7-23.9-11.9-24.3c-14.2-.4-18.1 8.4-18.7 12.9-.5 4.4-.1 13.5 10.3 15.6.4.1.6.5.4.8-1.9 4.3-12.4 29.1-14 56.7-1.7 33.1 13.1 58.2 21.5 69.7z" class="st78"></path><path d="M44.9 321.9c0-1.7.1-3.3.1-5 1.6-29.3 13.8-55.6 13.9-55.8l.6-1.2c.9-1.9-.3-4.2-2.4-4.5l-1.3-.2c-5.8-1-8.4-4.7-7.6-11.1.2-1.3 1.5-8.1 11.2-9.1 1-.1 2.1-.1 3.2-.1 3.5.1 6.1 1.4 7.7 3.8 2.4 3.5 2.5 9.2.4 14.8-1.2 3.2-2.6 6-4.4 9.4-4.1 8-9.7 18.9-17.7 45.5-1.4 4.7-2.4 9.3-3 13.8-.2 1.6-.7 1.5-.7-.3z" class="st76"></path><path d="M61.2 380c.3.7-.6 1.2-1 .6-8.6-12.4-30.6-46.7-44.5-90.4-16-50.5-.2-84 2.6-89.4.2-.4 0-.8-.4-.9-3.2-.4-14-3.1-13-19v-.1c.2-.8 2.8-13.2 19.6-13.4 17.5-.2 19.3 18.1 16.7 27.8s-20.7 43.5-17.4 76.6C27 302.9 52.9 361.6 61.2 380z" class="st79"></path><path d="M59.3 380.2c.3.7-.6 1.2-1 .6-8.6-12.4-30.6-46.7-44.5-90.4-16-50.5-.2-84 2.6-89.4.2-.4 0-.8-.4-.9-3.2-.4-14-3.1-13-19v-.1c.2-.8 2.8-13.2 19.6-13.4 17.5-.2 19.3 18.1 16.7 27.8-2.5 9.7-20.7 43.5-17.4 76.6 3.1 31.1 29 89.8 37.4 108.2z" class="st78"></path><path d="M30.8 322c.1.3-.3.4-.4.2-4.5-10.2-8.9-21.3-12.6-33.1-8.7-27.5-7.5-49.6-5-63.3 2.7-14.9 7.6-23.4 7.6-23.5l1.5-2.6c.9-1.6-.2-3.6-2-3.7l-3-.1s-4.1-.3-6.9-3.4c-2.2-2.4-3.7-6.2-2.9-10.9.3-1.4 2.5-8.6 13.1-9.6.8-.1 1.6-.1 2.4-.1 4.5-.1 7.7 1.3 10 4.2 3.6 4.6 4.1 12.7 2.6 18.3-.5 1.9-1.9 5.3-3.4 9.3-5.8 14.7-16.7 42-14 68.8 1.3 13.4 6.6 31.6 13 49.5z" class="st76"></path><path d="M244.7 318.5s-21.4 7.2-43.9 40.3-43.4 33.7-54.1 29.8c-10.7-4-16.4-16-12-24.7 4.3-8.7 12.2-12.5 20.3-8.6 6.6 3.1 8.1 14.1 8.1 14.1s11.2 2.8 25.5-14.5c14.4-17.2 39.6-33.9 56.1-36.4z" class="st73"></path><path d="M244.9 319.5s-21.4 7.2-43.9 40.3-43.4 33.7-54.1 29.8c-10.7-4-16.4-16-12-24.7 4.3-8.7 12.2-12.5 20.3-8.6 6.6 3.1 8.1 14.1 8.1 14.1s11.2 2.8 25.5-14.5c14.4-17.2 39.5-33.9 56.1-36.4z" class="st78"></path><path d="M161.8 385.7c-5.9 1.2-10.4.2-13.1-.8-4.2-1.6-7.6-4.9-9.3-9-1.2-3.1-1.2-6.2 0-8.7 2-4 4.8-6.5 7.9-7.2 1.8-.4 3.7-.1 5.7.9 3.1 1.5 4.9 7.7 5.3 10.3l.5 3.4 3.3.8c.5.1 3.2.7 7.3-.1 5.5-1.1 14-4.8 23.3-16.1 1.8-2.1 3.7-4.3 5.8-6.3 1.2-1.2 1.5-.5.3 1.2-.7 1-1.4 1.9-2 3-11.2 16.3-23.3 26.3-35 28.6z" class="st76"></path><path d="M170.7 386.6s-8.2 13.7-28.8 11.9-26-21.2-26-21.2-4-11.7 6.4-16c10.9-4.5 15 4.9 15 4.9s4.7 9.6-4 12.6c0 0 10.1 21 37.4 7.8z" class="st79"></path><path d="M169.9 387.7s-8.2 13.7-28.8 11.9c-20.6-1.7-26-21.2-26-21.2s-4-11.7 6.4-16c10.9-4.5 15 4.9 15 4.9s4.7 9.6-4 12.6c0 .1 10.1 21 37.4 7.8z" class="st82"></path><path d="M151.2 396.4c-3.1.6-6.4.8-9.9.5-18.4-1.6-23.5-19-23.5-19.1v-.2s-.8-2.5-.5-5.4c.3-3.4 2.1-5.8 5.3-7.1.9-.4 1.8-.7 2.6-.8 6.1-1.2 8.5 3.7 8.7 4.3v.1c.5 1 1.5 4.1.6 6.3-.5 1.1-1.4 1.9-3 2.4l-3 1 1.4 2.9c.1.1 6.2 12.5 20.9 13.6 1.9.1 2.4 1.1.4 1.5z" class="st76"></path><path d="M157.6 357.9s-7.4-7.8-22.6-9.2c-15.4-1.5-16.6-12.4-16.6-12.4s-2.3-7.7 5.5-11.6c9-4.6 13.1 3.1 13.1 3.1 3.3 6.2-.7 10.7-.7 10.7s0 3.8 5.9 5.7 13.6 7 15.4 13.7z" class="st75"></path><path d="M140.9 346.7c-1.8-.4-3.6-.7-5.7-.9-12.8-1.3-14.1-9.6-14.1-10l-.1-.4c-.1-.5-1.4-5.5 4.1-8.3 1-.5 1.9-.8 2.8-1 4.3-.9 6.4 2.6 6.6 3 2.3 4.2-.1 7.2-.4 7.5l-.7.8v1.1c.1 2.2 1.6 6.2 7.5 8.2z" class="st76"></path><path d="M130.1 288.2c.6.6 1.6 0 1.4-.8-.8-3.9-2.7-11.7-6.9-18.4-5.1-8.1-5.3-12.9-1.2-18.3.2-.3.6-.4.9-.3 1.9.5 8 1.7 10.6-4.9 3.1-7.9-3.9-11.3-5.9-12.2-2-.9-8-1.5-13.1 3.9-6.2 6.6-6.6 17-4.5 24.6 2.9 10.2 14.2 22 18.7 26.4z" class="st78"></path><path d="M127.8 235.9c-1-.4-5.7-1.2-9.9 3.2-5.3 5.7-5.8 15.1-3.8 21.9 1.9 6.7 8 14.4 12.7 19.7-1.1-3.2-2.6-6.9-4.7-10.2-5.6-9-5.9-15-1.1-21.5.9-1.2 2.5-1.7 3.9-1.3 2.4.7 5.6.7 7.2-3.2.7-1.4 2.3-5.7-4.3-8.6z" class="st76"></path><path d="M100.2 212.4s5.2 2.1 3.7 7.6-6.1 6.9-10.8 6.5c-4.7-.4-10.4-4.1-10.8-10.1-.4-6 1.6-9.8 5.7-13.1s10.8-4.6 19 0c8.2 4.5 17.6 8.3 26 5.5 0 0-7.9 5.9-19.3 3.5-11.6-2.3-13.5.1-13.5.1z" class="st79"></path><path d="M100.3 211.4s5.2 2.1 3.7 7.6-6.1 6.9-10.8 6.5c-4.7-.4-10.4-4.1-10.8-10.1-.4-6 1.6-9.8 5.7-13.1s10.8-4.6 19 0c8.2 4.5 17.6 8.3 26 5.5 0 0-7.9 5.9-19.3 3.5s-13.5.1-13.5.1z" class="st78"></path><path d="M92.5 223.2c-3.7-.7-7.5-3.6-7.8-7.9-.3-4.9 1.1-8.2 4.9-11.2 1.9-1.5 5.2-3.1 10.1-2.2 2.1.4 4.2 1.2 6.4 2.4 4.6 2.5 8.5 4.3 12.2 5.4-1.1 0-2.3-.2-3.5-.4-.2 0-.4-.1-.5-.1l-1.5-.3c-10-1.8-13.1-.1-14.1 1.1l-.2.3c-.8 1-.4 2.6.8 3.1l.3.1c.5.2 3.2 1.6 2.3 4.9-.4 1.3-1.5 5.4-8.5 4.9-.3 0-.6-.1-.9-.1z" class="st76"></path><path d="M159.8 207.7s11-4.2 23 4.3c12.1 8.5 25.7 14.2 25.7 14.2s-15.3-18.1-25.4-25.9-27.9-8.7-35.8-2.5-6.7 13.5-4.2 16.4c2.5 3 8.5 4.4 11.8 2.7 3.4-1.6 4.5-4.6 4.9-9.2z" class="st78"></path><path d="M149.8 215.2c-2.1-.4-3.9-1.3-4.9-2.5-.8-.9-1.5-2.8-1.3-5.1.2-2 1.3-5.1 5.2-8.1 4.2-3.2 11.9-4.4 19.9-2.9 5.1.9 9.7 2.9 13.1 5.5 5.5 4.2 12.6 11.6 17.8 17.3-4.6-2.4-10.2-5.6-15.5-9.3-3.8-2.7-8-4.5-12.3-5.3-7.3-1.3-12.6.6-12.9.7l-1.3.5-.1 1.4c-.4 4.4-1.3 6.3-3.6 7.4-.9.6-2.4.7-4.1.4z" class="st76"></path><path d="M127.9 201.2s5.9-.1 13.3 9.2c0 0 .3-5.8-8.6-13.8s-15-6.9-18.2-4.5c-3 2.3-4.2 7-.4 11.2 3.1 3.4 9 2.5 9 2.5 3.1-.3 4.9-4.6 4.9-4.6z" class="st77"></path><path d="M128.1 200.2s5.9-.1 13.3 9.2c0 0 .3-5.8-8.6-13.8s-15-6.9-18.2-4.5c-3 2.3-4.2 7-.4 11.2 3.1 3.4 9 2.5 9 2.5 3.1-.3 4.9-4.6 4.9-4.6z" class="st78"></path><path d="M119.3 202.4c-1.5-.3-2.6-.8-3.4-1.7-1.3-1.4-2-3-1.8-4.5.1-1.3.8-2.5 1.9-3.4 1.1-.8 2.9-1.7 5.7-1.1 2.9.5 6.1 2.4 9.6 5.5.9.8 1.7 1.6 2.5 2.4-1.8-1-3.3-1.4-4.4-1.6-.7-.1-1.2-.1-1.3-.1h-.8c-.4 0-.7.2-.9.6l-.3.8c-.5 1.2-1.8 3.1-3 3.2h-.2s-1.7.3-3.6-.1z" class="st76"></path><path d="M252.3 266.5c-.2-.3-.6-.3-.9-.1-1 1-4 3-9.6 1.1-7.1-2.4-6.8-11.8-1.5-15.4 5.8-3.8 11.8-1.5 15 3 3.2 4.5 4.5 12.9 5.7 22.8.9 7.1 4.9 15.6 7.1 19.8.3.6-.4 1.2-.9.7-3-2.8-7.9-8.6-10-17.6-2.3-9.6-4.1-13.1-4.9-14.3z" class="st78"></path><path d="M257.7 270.5c.1.7-.9.9-1.1.3-1.7-4.7-2.9-6.2-3.5-6.6l-1.4-1c-.3-.2-.6-.1-.8.1l-1 1.3v.1c-.2.2-1 1-2.7 1.3-1.4.2-2.9 0-4.7-.6-2.9-1-3.7-3.4-3.8-4.7-.3-2.6.8-5.3 2.8-6.6 1.2-.8 2.4-1.3 3.6-1.5 3.1-.5 6.3 1 8.3 3.9 2.2 2.9 3.4 8.1 4.3 14z" class="st76"></path><path d="M72.8 294.7s-.3-11.6 4.7-9.3c5 2.3 7.8 1.6 10-1.4s1.3-7.2-2.5-10.4-9.6-3.5-12.8 2.4c-3.2 5.7.6 18.7.6 18.7zM197.9 158.3s4.9-1.4 4.4-6.5-3.9-8.1-6.9-8.8c-3.9-.9-11.7.3-13.2 8.1-.9 4.6-1 11 9 20.4s23.7 23.5 28.3 36.1c0 0 .4-26.1-21.6-49.3z" class="st78"></path><path d="M215.1 193.6c.1.3-.4.5-.5.2-5-7.2-12.3-15.1-21.9-24.1-10-9.4-8.9-15.2-8.3-18.3.8-4.3 4-5.8 6.4-6.3 1.4-.3 2.9-.3 4 0 1.7.4 4.7 2.3 5.2 6.8.3 3-2.3 4-2.8 4.1l-3 .9c-.2.1-.3.3-.1.5l2.2 2.3c11.2 11.9 16.4 24.6 18.8 33.9z" class="st76"></path><path d="M166.7 113.3s7.2 1.5 9.9-5.6-5.1-10.8-5.1-10.8-8.2-3.4-12.9 3.9c-5.7 8.9-9.1 41.8 18 63.5.1 0-17-26.2-9.9-51z" class="st78"></path><path d="M166 146.2c.3.9-1 1.5-1.5.7-10.7-18.3-8.1-38.4-3.9-44.9 1.3-1.9 2.8-3.1 4.9-3.5 2.4-.5 4.6.3 5.1.4h.1c.9.5 5.6 3.2 3.8 7.9-.9 2.3-2.4 3.7-4.6 4.1-1.5.3-2.7.1-2.7.1l-1.3-.3c-.4-.1-.8.2-1 .6l-.4 1.3c-3.4 11.9-1.5 24 1.5 33.6z" class="st76"></path><path d="M167.5 159.9s-8-2.8-11.3-6.9c-3.4-4-2.1-6.2-.6-6.9 1.5-.6 4.4 0 6.3 5 1.8 4.9 5.6 8.8 5.6 8.8z" class="st78"></path><path d="M161.2 154.6c-1.4-.9-2.6-1.8-3.5-2.9-1.4-1.7-1.8-2.9-1.7-3.4 0-.1 0-.2.2-.3h.1c.9-.2 2.4.9 3.5 3.8.5 1 .9 1.9 1.4 2.8z" class="st76"></path><path d="M74.5 141.3c.2 0 .4.1.5.3.8 1 4.2 4.4 8.6 1.6 5.1-3.2 1.4-8.9 1.4-8.9s-3.8-6.1-10.8-1.2c-4.7 3.3-6.4 6.5-8.2 10.7-.4.9.7 1.7 1.5 1.1 2.2-1.8 5.2-3.8 7-3.6z" class="st78"></path><path d="M81.6 142.8c-2.7.2-4.1-2-4.1-2-.3-.4-1.5-1.4-2-1.6-.5-.1-1.1-.2-1.6-.2-.3 0-.6.1-.9.1-.8.2-1.4-.8-.8-1.4.9-1 2-1.9 3.3-2.9 1.3-.9 2.5-1.4 3.6-1.5 2.5-.2 5.4 1.2 5.4 1.3 1.1 2.4.9 3.9.6 5.3-.2.8-.7 1.4-1.6 2-.6.6-1.2.8-1.9.9z" class="st76"></path><path d="M248.3 112.3c.3-.6 1.1-.4 1.1.3 0 1.8-.3 4-1.3 5.5-2 2.9-5 4.5-8.1 2.7 0 0-.1 0-.1-.1-.4-.3-3-2.7-1.1-5.9 1.9-3.1 5.2-1.8 6.2.3.1.3.5.5.8.3.6-.6 1.7-1.5 2.5-3.1z" class="st78"></path><path d="M243.3 120.2c-.8.2-1.7 0-2.6-.5-.1 0-.1-.1-.2-.1-.5-.5-2-2.1-.7-4.2.4-.7.9-1.1 1.5-1.2 1.2-.2 2.4.8 2.6 1.7l.1.4c.1.6.7.9 1.3.7l.4-.2c.1 0 1.1-.5 2.2-1.6-.2.8-.4 1.6-.8 2.2-1.2 1.5-2.5 2.5-3.8 2.8z" class="st73"></path><path d="M20.7 171.7c-.4.1-.5.7 0 .8 3.1.7 9.1 2.6 11.6 7.6 3.4 6.9-.8 14.3-8.2 36.5-6.5 19.5-6.1 33.1-4.4 45.8.1.5.8.5.9 0 .3-8.3 1.8-24.8 4.5-35.4 4.5-17.3 19.3-38.4 9.9-50.6-4.4-5.7-11.1-5.3-14.3-4.7zM59.8 237.6s5.6-1 8.8 3.4c3.3 4.3.2 12-4.8 23.7s-4.3 12.4-4.3 12.4S65.4 263.6 70 255c4.6-8.6 2.9-12.6 1.1-15.4s-6.1-6-11.7-4.7c-5 1.2-1 3 .4 2.7z" class="st79"></path><path d="M51.1 241.3c.6-1 2.2-.7 2.2.5.1 2.3.6 5 1.9 4.3 4-2.3 7.8 2.9 4.4 5.6-3.6 2.9-10.2 0-9.7-6.3.2-1.8.6-3.1 1.2-4.1z" class="st73"></path><path d="M57.3 423.7c-3.1-1.8-9.4-5.3-11.7-5.2-3.6.1-.9 3.1 3.3 3.3 2.8.2 6.3 1.4 8.4 2.2 1 .4 1.1.3 0-.3z" class="st79"></path><path d="M74.8 282.3c-1 .2-1.8-.7-1.7-1.6.3-1.7 1.1-3.8 3-4.7 3.4-1.6 7.4-1.1 9 1.8s.4 7.9-3.2 6.4c-2.7-1.2-5-2.3-7.1-1.9z" class="st76"></path><path d="M77.3 277c-.6.4-.4 1.3.4 1.3 1 0 2.2.1 2.9.6 1.5.9 2.9.3 3-.8 0-.9-3.2-2.8-6.3-1.1z" class="st79"></path><path d="M123.3 237c-.7.2-.6 1.3.1 1.4 1.8.3 3.8 1 3.2 3-1.1 3.5.5 5 2.5 4.7 1.9-.3 4.4-5.8.3-8.4-2.1-1.4-4.4-1.2-6.1-.7z" class="st73"></path><path d="M238 320.5c.5-.2.9.6.4.9-8.1 4.7-22.9 16.1-25.1 38.2-3 30.7-5.3 31.8-11.7 36.1-6.3 4.2-17.3 2.2-21-5.6-3.2-6.6.6-13 4.8-16.5 3.8-3.2 9.5-2.6 11.2-2.4.3 0 .5-.2.5-.4.3-2.9 2.3-17.8 14.4-32.1 8.8-10.5 19.9-15.8 26.5-18.2z" class="st79"></path><path d="M239.2 321.3c.5-.2.9.6.4.9-8.1 4.7-22.9 16.1-25.1 38.2-3 30.7-5.3 31.8-11.7 36.1-6.3 4.2-17.3 2.2-21-5.6-3.2-6.6.6-13 4.8-16.5 3.8-3.2 9.5-2.6 11.2-2.4.3 0 .5-.2.5-.4.3-2.9 2.3-17.8 14.4-32.1 8.8-10.5 19.9-15.8 26.5-18.2z" class="st82"></path><path d="M197.1 393.3c-3.9.8-9-.8-10.9-4.7-2.4-5.1.1-10.7 6.3-11.6 13.9-2 10.5-14.1 16.4-22.2.3-.4 1-.2.9.4l-.5 4.7c-1.4 14.3-2.7 22.2-4.2 26.5-1 3-4.4 6.2-8 6.9z" class="st76"></path><path d="M201.2 366.4s7-24.1 26.3-38.2c.3-.2 0-.7-.3-.5-6.6 3.7-11.8 10-12.1 10.2-3.5 4.1-12.1 15.4-13.9 28.5z" class="st79"></path><path d="M145.6 377.8c0 1.2-1.5 1.7-2.2.7-1.1-1.7-2.1-4.1-2.1-7.3.1-7.2 4.8-9.6 8.5-9.2s6.4 6.7 1.7 8.5c-3.6 1.3-6 3.6-5.9 7.3z" class="st73"></path><path d="M143.9 375.2c-.4-1.2-.7-2.6-.6-4 .1-5.7 3.3-6.9 4.6-7.2.5-.1 1.1-.1 1.6-.1 1.1.1 2.3 1.5 2.4 2.9.1.9-.3 1.4-1.2 1.8-4.3 1.7-6.1 4.2-6.8 6.6z" class="st77"></path><path d="M202.3 382.4c1-.8 2.4.2 2 1.4-.8 2.4-2.3 5.2-5.4 6.7-5.9 2.9-10.7-.1-11.2-4.7-.5-4.6 4.6-6.2 7-2.3 1.7 2.9 5.1.9 7.6-1.1z" class="st73"></path><path d="M119.3 374.5s-1.2-7.5 5.9-8.7c7.1-1.2 9.8 5.3 7.3 7.9-2.5 2.6-2.6-2.2-6.7-2.2-4 .1-6.5 3-6.5 3z" class="st82"></path><path d="M119.2 373.5s-1-6.5 6.1-7.7 9.6 4.4 7 6.7c-2.6 2.4-2.5-1.8-6.6-1.7-4 .1-6.5 2.7-6.5 2.7zM37 425.7c-.5-.2-1 .3-.8.8.5.9 1.4 2.1 3.3 2.6 2.6.8 5.4-.3 5.7-2.4.3-2.2-3.1-3.4-4.7-1.5-.9 1.2-2.4.9-3.5.5z" class="st73"></path><path d="M178.3 469.8c.9.6.2 2-.8 1.7-4.5-1.2-15.4-3.1-36.6-.8-29.8 3.2-41.9-.4-53.9-5.6-12-5.2-15.1-12.8-14-19.9 1.2-7 9-10.5 15.4-7.6 6.1 2.8 6.5 13.3 6.5 15.3s7.6 10.8 26 10.3c19.7-.5 48.7 1.7 55.5 5.5.8.4 1.4.8 1.9 1.1z" class="st79"></path><path d="M177.6 471.1c.9.6.2 2-.8 1.7-4.5-1.2-15.4-3.1-36.6-.8-29.8 3.2-41.9-.4-53.9-5.6-12-5.2-15.1-12.8-14-19.9 1.2-7 9-10.5 15.4-7.6 6.1 2.8 6.5 13.3 6.5 15.3s7.6 10.8 26 10.3c19.7-.5 48.7 1.7 55.5 5.5.8.3 1.5.7 1.9 1.1z" class="st82"></path><path d="M151.2 468.3c-3.4.2-7.2.5-11.3.9-29.6 3.2-41.3-.6-52.5-5.4-9.2-4-13.5-9.8-12.3-16.8.5-2.9 2.6-5.1 5.6-6 2-.5 4.1-.4 5.9.5 3.5 1.6 4.8 7.9 4.9 12.8 0 1.9 1.7 3.9 3 5.2 2.6 2.5 10.4 8.3 25.9 7.9 9.8-.4 21 0 30.8.9z" class="st76"></path><path d="M98.3 467.9c11.6 2.9 19.1 2.9 22.6 2.7 1.5-.1 1.3-.3-.5-.4-6.2-.3-21.5-1.6-32.2-8-9.2-5.5-11.8-11-12.6-14.1-.1-.4-.7-.4-.8.1-.2 4.6 2 14.3 23.5 19.7z" class="st79"></path><path d="M88 452.6c.4.7 1.4.3 1.4-.5-.2-2.7-1-7.5-3.6-9.3-3.7-2.6-7.5.1-8.5 3.6-.9 3.5 8.1 0 9.6 3.7.3 1.2.7 2 1.1 2.5z" class="st73"></path><path d="M79.1 419.8c.1.4-.5.6-.7.3-2.1-3.9-5.4-11.3-4-17.8 2-9.2 8.9-11.5 12.1-10.9s-7.4 1.7-9.4 11.4c-1.4 6.9.8 12.7 2 17z" class="st79"></path><path d="M91.9 400.1c.5-1 2-.8 2.3.3.6 2.2.6 5.2-2 7.7-4.7 4.8-10.2 2-10.4-1.3-.2-2.8 1.6-4 5.9-3.9 2.3 0 3.5-1.4 4.2-2.8z" class="st73"></path><path d="M88 408.5c-1.2.3-2.3.2-3.2-.5-.6-.4-.9-.9-1-1.4-.1-1 .1-1.3 1-1.5.7-.2 1.7-.3 2.9-.2.6 0 1.2-.1 1.8-.2 1.2-.3 2.2-1 3-2 0 1.5-.6 2.9-1.7 4-.8.9-1.8 1.5-2.8 1.8z" class="st77"></path><path d="M129.2 436.1c-.5-.4-.4-1.1.2-1.3 1.2-.3 2.8-.4 4.2.5 3 2 3.3 4.4 2.3 5.6s-6 1.6-5.9-2.3c.1-1.3-.3-2.1-.8-2.5zM11.6 181.8c-.6-1.2-2.5-1-2.8.3-.5 2-.3 4.6 1.9 7.5 4.6 6 13.4 3.7 13.4-1.3 0-4.5-8.4 1.5-12.5-6.5z" class="st73"></path><path d="M18.4 191.2c-1.1.1-3.9.1-6.1-2.8-1.1-1.5-1.7-3-1.7-4.5 2.9 4.3 7.2 4.4 9.8 4.4.6 0 1.3 0 1.7.1 0 1.6-1.9 2.7-3.7 2.8z" class="st77"></path><path d="M130.9 289.4s-14.7-9.5-29.7-19.5C86.3 260 88.5 247 90.3 243.2c1.3-2.8 4.1-8 10.8-7.8 6.7.2 12.3 5.4 11.5 10.4-.8 5.1-4.6 9.7-9.7 9.1 0 0 3.4 8.8 14.4 17.4 14.8 11.8 13.6 17.1 13.6 17.1z" class="st79"></path><path d="M129.6 289.9s-14.7-9.5-29.7-19.5C85 260.5 87.2 247.5 89 243.7c1.3-2.8 4.1-8 10.8-7.8 6.7.2 12.3 5.4 11.5 10.4-.8 5.1-4.6 9.7-9.7 9.1 0 0 3.4 8.8 14.4 17.4 14.8 11.8 13.6 17.1 13.6 17.1z" class="st78"></path><path d="M103.7 239.6c-1.3-.5-2.6-.9-4-.9-3.6-.1-6.2 1.8-8.1 6.1-.1.1-5.6 12.9 9.9 23.2 6.9 4.6 13.8 9.1 19.2 12.7-1.7-1.6-3.8-3.5-6.5-5.6-11.5-9-15.1-18.3-15.3-18.6l-.1-1.1c-.1-1.2.7-2.3 1.9-2.5l1.1-.2c3.4.4 6-3.2 6.6-6.8.4-2.3-1.6-5-4.7-6.3z" class="st76"></path><path d="M93.3 257.5c.3.5 1 .2.9-.3-.8-3.3-.8-10 3-12 5.6-3 6.9 1.4 9-1.2 2.1-2.6-6.2-7.1-11.2-3-4.3 3.4-4.4 11.2-1.7 16.5z" class="st77"></path><path d="M128.2 329.8c-.9-.8-.3-2.3.9-2.3s2.6.6 3.7 2.2c2.6 3.8-.1 7-1.4 7.2-1.3.3-3.8-1.6-2.1-3.8 1-1 0-2.3-1.1-3.3z" class="st73"></path><path d="M133.8 345.7s9.8 1.8 19.3 7c0 0-3.4-3-10.8-6.1s-14.9-2.7-16.3-3.9c-.1 0 1.3 1.8 7.8 3zM248.2 360c-2.8 4.7-7.2 14.2-1.7 21.4.5.6 1.1 1 .5-.6-1.2-3.4-2.4-10.3 1.8-20.6.4-1 .5-1.9-.6-.2z" class="st79"></path><path d="M255.4 377.4c.3-1.1 1.8-1.2 2.3-.2.3.6.4 1.2.4 2-.2 2.9-2.2 4.3-4.8 4.4-2.6.1-4.5-2.2-2.9-3.3 1.4-.9 4.5-.6 5-2.9z" class="st73"></path><path d="M262.8 467.5s10.8-23.6 24.1-38c16.5-17.7 20.5-39.7 20.9-50.6.4-10.9-7.5-22.3-19.1-20-10.5 2-11.2 13.5-10.6 17.5s5.4 10.8 13.3 11.9c0 0 6 16.8-10.1 39.5-15.9 22.7-18.5 39.7-18.5 39.7z" class="st79"></path><path d="M264.8 467.5s10.8-23.6 24.1-38c16.5-17.7 20.5-39.7 20.9-50.6.4-10.9-7.5-22.3-19.1-20-10.5 2-11.2 13.5-10.6 17.5.6 4 5.4 10.8 13.3 11.9 0 0 6 16.8-10.1 39.5-15.9 22.7-18.5 39.7-18.5 39.7z" class="st78"></path><path d="M294.2 418.2c-.6.9-2 .2-1.5-.8 7.8-17.4 3.7-29.5 3.5-30.1l-.4-1.1c-.1-.3-.4-.5-.7-.6l-1.2-.2c-6.7-.9-10.5-6.7-10.9-9.5 0-.1-1.5-12.4 8.3-14.3.8-.2 1.7-.2 2.5-.2 4 0 6.7 2.1 8.4 3.8 3.2 3.3 5.1 8.6 4.9 13.6-.5 11-4.2 26-12.9 39.4z" class="st76"></path><path d="M287.3 364.2c.3-.4-.2-.8-.6-.5-2 1.6-4.2 4.8-3.8 11.2.7 11.1 13.6 11.5 17.6 10.3 4-1.2-13.6.3-15-11.3-.6-5 .6-8 1.8-9.7z" class="st79"></path><path d="M301.4 372.5c1.2.7 2.6-.6 2-1.9-1.1-2.3-3-4.7-6.2-6.2-7.7-3.5-9.2 6.1-5.6 6.1 2.4.2 6.7.3 9.8 2z" class="st73"></path><path d="M300.9 370.1c-3.3-1.3-7-1.4-9-1.4-.1-.3-.1-1 .2-1.7.4-.8 1.1-1.2 2.1-1.2.7 0 1.4.2 2.3.6 1.8.7 3.3 2 4.4 3.7z" class="st77"></path><path d="M262.6 389.8c-1.1 2.2-1.8 5.4.6 8.4 5 6.3 11.9-.7 12.3-1.6s-8.1 5.6-11.1-.5c-1.4-2.9-1.5-5.1-1.1-6.6.3-1.7.1-1.4-.7.3z" class="st79"></path><path d="M64.9 450.7c.2-.1.4-.1.6-.2" class="st77"></path><path d="M65.6 453.1c.2-.1.4-.1.6-.2 1.3-.4 2.2-1.8 1.8-3.1-.4-1.3-1.7-2.1-3.1-1.8-.2.1-.4.1-.6.2-1.3.4-2.2 1.8-1.8 3.1.4 1.4 1.7 2.2 3.1 1.8zM144.6 321.3c.2 0 .4-.1.6-.1" class="st77"></path><path d="M145.1 323.8c.2 0 .4-.1.6-.1 1.3-.3 2.3-1.6 2-3-.3-1.3-1.6-2.3-3-2-.2 0-.4.1-.6.1-1.3.3-2.3 1.6-2 3 .4 1.3 1.6 2.3 3 2zM265.3 412.9h.7M265.2 415.5h.7c1.3 0 2.6-1.1 2.5-2.5-.1-1.4-1.1-2.5-2.5-2.5h-.7c-1.3 0-2.6 1.1-2.5 2.5.1 1.3 1.1 2.4 2.5 2.5zM75.3 227.1h.7M55.6 183.9c.2 0 .4.1.7.1 1.3.2 2.7-.8 2.9-2.1.1-1.4-.7-2.7-2.1-2.9-.2 0-.4-.1-.7-.1-1.3-.2-2.7.8-2.9 2.1-.2 1.4.7 2.7 2.1 2.9zM233.4 61.8h.7c1.3 0 2.6-1.2 2.5-2.5-.1-1.4-1.1-2.5-2.5-2.5h-.7c-1.3 0-2.6 1.2-2.5 2.5.1 1.3 1.1 2.5 2.5 2.5zM260.8 97.5c.2 0 .4-.1.6-.1" class="st77"></path><path d="M261.3 99.7c.2 0 .4-.1.6-.1 1.2-.2 2.1-1.5 1.8-2.7-.3-1.2-1.4-2-2.7-1.8-.2 0-.4.1-.6.1-1.2.2-2.1 1.5-1.8 2.7.3 1.2 1.4 2 2.7 1.8z" class="st77"></path><path d="M312.2 420.9c3.2 0 3.3-5 0-5-3.2-.1-3.3 5 0 5zM164.7 223.4c3.2 0 3.3-5 0-5-3.2 0-3.2 5 0 5zM209 149.8c2.9-.6 2-5-.9-4.4-2.8.5-1.9 4.9.9 4.4zM44.1 377.9c3.2-.3 2.7-5.3-.5-5-3.2.3-2.7 5.3.5 5zM9.7 329.4c3.2-.3 2.7-5.3-.5-5-3.3.3-2.8 5.3.5 5zM205.8 476.2c-.9.4-1.8-.3-1.5-1.2.5-1.4 1.6-2.9 3.9-3.8 5.4-2 7.1 3.4 6.8 6.1-.3 2.6-4.2 2.1-7-.4-.8-.9-1.6-1-2.2-.7zM282.2 479c-.6.5-1.5 0-1.4-.8.1-1.5.9-3.4 3.5-4.6 4.9-2.2 8 1.3 8.2 4.9.1 3.6-5.5 3.7-7.5 1-1.1-1.3-2.1-1.1-2.8-.5z" class="st73"></path><path d="M187.7 486.4c-.6-.1-.8.7-.2.9 14.1 3.9 49 12.5 82.7 11.5 43.5-1.4 58.9-10.5 63.2-16.9 5.4-8 1-16.6-5.3-19.9-7.2-3.7-12.5 0-14.2 2.6-2.1 3.5-3.5 9.1.6 15 0-.1-3.5 25-126.8 6.8z" class="st74"></path><path d="M188.6 487.4c-.6-.1-.8.7-.2.9 14.1 3.9 49 12.5 82.7 11.5 43.5-1.4 58.9-10.5 63.2-16.9 5.4-8 1-16.6-5.3-19.9-7.2-3.7-12.5 0-14.2 2.6-2.1 3.5-3.5 9.1.6 15 .1-.1-3.4 25-126.8 6.8z" class="st78"></path><path d="M263.7 497.6c-7.3-.1-14.6-.5-21.7-1.3-5.1-.5-4.8-1.1 0-.8 7 .4 13.6.7 19.8.7 21.8.2 37.7-2.1 47.3-6.8 5-2.4 7.1-5 8-6.7.5-1 .6-2.1.4-3.2l-.1-.3c-3.9-5.4-2-10.2-.6-12.5.7-1.1 2.9-3.2 6.3-3.1 1.6 0 3.2.5 4.9 1.3 3 1.6 5.4 4.5 6.2 7.7.8 3 .2 6.1-1.7 8.9-8.9 13.2-49.3 15.5-61.5 15.9-2.3.1-4.8.2-7.3.2z" class="st76"></path><path d="M317.7 465.6s-6.3 4.8-.4 13.6c0 0 1.3 1.5 2 .9s-2.4-2.5-2.7-7.2c-.3-5.3 1.1-7.3 1.1-7.3z" class="st79"></path><path d="M327.7 467.3c1.7 1 3.4 2.5 4.3 4.8 2.3 5.6-1.1 9.1-3.1 10-2 .9-6.8-1.9-2.8-8.9 1.4-2.5 1.3-4.1.9-5.2-.4-1-1.1-1.7.7-.7z" class="st73"></path><path d="M91.2 212.3s4.3-1.6 8.9 1.4c4.7 3.1.1 7.9.1 7.9s2.9-4.9-2-7.3c-4.9-2.4-7-2-7-2zM85.1 217.5s1.3 5 8.3 5.8c0 0-5.5-1.5-8.3-5.8z" class="st79"></path><path d="M90 218.1c-.8.1-1.1 1.1-.5 1.6 1.2.9 3.1 1.9 5.9 2 5.5.2 5.4-4.7 2.6-6.2-2.8-1.5-3.8-.5-5.2 1.3-.6 1-1.8 1.2-2.8 1.3z" class="st77"></path><path d="M114.7 194.3s3.5-6.2 10.9-1.2c0 .1-5.8-1.9-10.9 1.2z" class="st79"></path><path d="M116.8 197.4c-.6-.4-1.4.1-1.3.9.2 1 .8 2.2 2.4 2.7 3.6 1.2 5.2.9 6.4-1 1.2-1.9.3-5.1-2.2-4.3-2.1.6-3.7 2.7-5.3 1.7z" class="st77"></path><path d="M226.6 230.5c.9.1 1.1 1.4.1 1.6-4.5 1.1-11.7 1.9-18.2-1.2-10.3-4.9-9.7-7.8-21.1-9.9-.4-.1-.8.2-1 .6-.5 1.9-2.3 6.5-8 5.1-7.1-1.8-7.8-6.3-7.2-9.6.5-2.6 3.5-7.1 10.9-6.2 7.4.9 12.5 3.5 21.3 10.6 7.5 6.1 14.9 8.3 23.2 9z" class="st74"></path><path d="M226.5 231.4c.9.1 1.1 1.4.1 1.6-4.5 1.1-11.7 1.9-18.2-1.2-10.3-4.9-9.7-7.8-21.1-9.9-.4-.1-.8.2-1 .6-.5 1.9-2.3 6.5-8 5.1-7.1-1.8-7.8-6.3-7.2-9.6.5-2.6 3.5-7.1 10.9-6.2 7.4.9 12.5 3.5 21.3 10.6 7.5 6.2 14.9 8.4 23.2 9z" class="st82"></path><path d="M179.3 225.6c-.1 0-.3-.1-.5-.1-4.4-1.1-6.2-3.3-5.5-7 .3-1.8 2.5-5 8.4-4.4.8.1 1.5.2 2.2.3 5.6 1 10.2 3.5 17.9 9.8 4 3.3 8.2 5.7 12.9 7.2-.2 0-.4-.1-.6-.1-1.7-.3-3.4-.8-4.9-1.6-3.8-1.8-6-3.3-8-4.6-3.4-2.3-6.1-4.1-13.7-5.5-1.6-.3-3.2.7-3.6 2.2-.5 3-2.1 4.2-4.6 3.8z" class="st76"></path><path d="M145.7 213.5s-6.8-6 3.1-13.9c9.9-8 28.8-1.8 31.9 1.7 0 0-19.7-8.4-29.4-.2-9.6 8-5.6 12.4-5.6 12.4z" class="st74"></path><path d="M149.4 213.2c-.6.3-.4 1.2.2 1.3 1.6.3 3.7.3 5.3-1.1 3.1-2.7 1.3-7.4-1-7.8-2.3-.3-5.6 1.3-4 4.9.6 1.5.2 2.3-.5 2.7z" class="st77"></path><path d="M173.6 221.9s1 3.6 6.4 3.8c5.4.2 4.2-6.2 4.2-6.2s-.7 5-4.4 4.6c-5.1-.5-6.2-2.2-6.2-2.2z" class="st74"></path><path d="M178.6 216.8c.4-.7-.3-1.5-1.1-1.3-.9.2-1.9.7-2.6 1.6-1.7 2.2.5 5.1 4.6 3.9 3.6-1.1-2.5-1.4-.9-4.2z" class="st77"></path><path d="M140.9 83.1c-.1-1.9 2-3 3.3-1.7.3.3.6.7.9 1.1 3.5 4.6 2.7 8.1-.3 9.6s-6.7.9-7.4-2.3c-.4-2.2 3.6-4.2 3.5-6.7zM190.2 32.6c-1.5.9-3.3-.8-2.4-2.4.7-1.2 2-2.3 4.4-2.9 6.9-1.6 9.6 4.8 10.1 6.3s-.7 6.3-5.6 4.7c-4.2-1.3-3-7.7-6.5-5.7z" class="st73"></path><path d="M198.7 36.4c-.4 0-.8 0-1.4-.2-.9-.3-1.4-1.2-2-2.7-.6-1.4-1.5-3.6-3.9-3.6.4-.2.8-.3 1.3-.4.4-.1.8-.2 1.2-.2 4.4-.3 6.1 4.5 6.2 5 0 .2 0 1-.5 1.6-.2.4-.4.5-.9.5z" class="st77"></path><path d="M66.9 144.2c-.1-.8.1-1.7.5-2.4 1.1-2.2 3.8-6.6 7.7-8.6 5.5-2.8 8-.8 9.5 1.5 0 0-4.4-2.7-9 .2-4.7 2.9-8.7 9.3-8.7 9.3z" class="st79"></path><path d="M80 138.4c-1.5 1.4-.2 3.9 1.7 3.5h.1c2.8-.7 3.1-3.5 2.2-4.6-.9-1.1-3.2-1.1-3.5.3 0 .2-.2.5-.5.8z" class="st77"></path><path d="M128.7 31.3s2.1-.7 2.7 2.2c.6 2.9.5 5.9-2.9 9.6 0 0 3.2-8.5.2-11.8z" class="st79"></path><path d="M239.3 256.6s2.9-5.9 9.7-3.6c6.3 2.2 7.3 10.1 8.2 14.1 0 0-5.1-18.6-17.9-10.5z" class="st74"></path><path d="M242.3 262c-1-.2-1.5 1.1-.7 1.7 1 .7 2.5 1.2 4.8.7 5.3-1.2 2.6-5.8.6-6.5-2-.7-3.3 1.2-2.2 3.6.5.9-1 .8-2.5.5z" class="st73"></path><path d="M270.6 303.2c.5.4 1-.3.7-.7-3.9-4.7-9.8-14.6-7.4-30.5 3.5-22.9 6.9-33 .6-43.1s-15.1-5.2-15.1-5.2-8.5 3.8-6.5 13.1c1.7 8.2 10.9 7.2 13 6.8.3 0 .5.1.6.4.4 1.8 1.8 9 1.4 27.2-.7 18.7 7.6 28.1 12.7 32z" class="st74"></path><path d="M271.4 302.1c.5.4 1-.3.7-.7-3.9-4.7-9.8-14.6-7.4-30.5 3.5-22.9 6.9-33 .6-43.1-6.3-10.1-15.1-5.2-15.1-5.2s-8.5 3.8-6.5 13.1c1.7 8.2 10.9 7.2 13 6.8.3 0 .5.1.6.4.4 1.8 1.8 9 1.4 27.2-.7 18.7 7.6 28 12.7 32z" class="st82"></path><path d="M262.1 283.3c-1-3.7-1.5-8.1-1.4-13.2.4-18.5-1-26-1.4-27.8-.3-1.4-1.7-2.3-3.1-2.1h-.2c-2.7.4-9.1.8-10.3-5.1-1.6-7.4 5-10.4 5.2-10.6h.2s1-.6 2.6-.8c3.8-.6 7 1.2 9.6 5.2 4.7 7.6 3.5 15.2.9 30.3-.6 3.3-1.2 7.1-1.8 11.2-.7 4.9-.7 9.1-.3 12.9z" class="st76"></path><path d="M249.8 225.3s6.7-4.9 12.3 2.1c6 7.4 5.8 17.3 2.8 27.3 0 0 3-15.5-3-24.4-5.8-8.9-12.1-5-12.1-5z" class="st74"></path><path d="M249.3 231.9c-.9-.6-2.2 0-2.2 1.1-.1 1.5.4 3.5 2.2 4.9 3.6 2.9 8.5.6 9.9-1 2.4-2.6 2.1-8-2.5-8-4.1.1-3.8 5.5-7.4 3z" class="st73"></path><path d="M254.1 237c-1.4.2-2.6-.1-3.5-.8-.6-.4.2-1.3.9-1.4 1.6-.2 2.5-1.4 3.2-2.2.7-.8 1-1.2 1.6-1.3h.3c1.1 0 1.4.4 1.5.8.4 1 .1 2.5-.7 3.4-.4.5-1.7 1.3-3.3 1.5z" class="st77"></path><path d="M196.9 181.2s11.1 2.1 18.7 15.6S223 222 223 222s-1.9-13.6-12.6-22.4c-9.8-8.1-13.8-6.6-22-9.1s-11.5-11.2-9.7-17.2c1.8-6 7.3-8 11.7-7.3 4.5.7 7.9 4.8 7.1 10l-.6 5.2z" class="st74"></path><path d="M196.1 181.4s11.1 2.1 18.7 15.6 7.4 25.2 7.4 25.2-1.9-13.6-12.6-22.4c-9.8-8.1-13.8-6.6-22-9.1s-11.5-11.2-9.7-17.2c1.8-6 7.3-8 11.7-7.3 4.5.7 7.9 4.8 7.1 10l-.6 5.2z" class="st82"></path><path d="M214.4 201.2c-1-1.1-2.1-2.1-3.3-3.1-7.6-6.3-12-7.1-17-8.1-1.8-.4-3.6-.7-5.7-1.4-6.7-2-9.7-9.2-8.2-14.4 1.2-4.1 4.3-5.3 6.1-5.6 1-.2 2.1-.2 3.1-.1 3 .5 5.8 3.2 5.2 7.4l-.7 5.1c-.2 1.2.6 2.3 1.8 2.6.4.1 10.2 2.2 17.2 14.5.5 1 1 2.1 1.5 3.1z" class="st76"></path><path d="M182.9 170s-5.2 3.2-2.3 11.3c2.9 8.2 13.5 8.6 13.5 8.6s-9.9-2-11.9-9.3c-2.1-7.3.7-10.6.7-10.6z" class="st74"></path><path d="M190.5 176.3c1.1.3 2.3-.4 2.2-1.5 0-1.1-.4-2.3-1.5-3.3-2.7-2.4-6-1.1-7.3.8-1.3 1.9-.3 5.6 2.5 4.7 1.7-.6 3-1.1 4.1-.7z" class="st73"></path><path d="M189.1 165.9s-7.1-7.1-4.6-15.4c2-6.9 9.9-5.5 9.9-5.5s-7.8.9-8.8 6.7c-1.1 5.5 3.5 14.2 3.5 14.2zM194.1 157.5s7.3 6.2 12.2 13.6 7.5 17.8 7.5 17.8-3.8-10.3-8.6-17.1-11.1-14.3-11.1-14.3z" class="st74"></path><path d="M188.3 152.2c-.6.4-1.3-.3-1-.9.5-1.1 1.6-2.4 4-3.5 4.9-2.2 6.6 2.2 6.8 3.3.3 1.1.4 4.8-4.2 4.2-4-.4-3-4.7-5.6-3.1z" class="st73"></path><path d="M156.8 120.6c-.3-3.9-.4-11.9 2.9-17.7 3.3-5.8 8-5 10.3-4.1.9.4.9.6 0 .5-2.3-.1-6.8.5-9.4 6.1-2.3 5-3.1 10.8-3.4 14.3-.1 2-.3 2.4-.4.9zM162.7 143.5s2.7 7.8 7.8 12.5c0 0-5.5-11.3-6.6-18.3-.1 0 1.5 9.7-1.2 5.8z" class="st79"></path><path d="M166.7 108.3c-.2.6.1 1.2.7 1.3 1.5.1 3.6-.2 4.8-2.4 2.1-3.6 0-5.7-2.1-6.1-2.1-.4-4.3.7-4.3 3 0 1.9 1.4 3.2.9 4.2z" class="st73"></path><path d="M199 94.2s.4 11.3 10.5 10.2c11-1.2 10.3-9.6 10.3-9.6s.2-8-10.4-9.3c0 0 19.1-4.8 28.1 5.6 0 0-6.5 2.9-5.7 8.9.8 6.1 5.9 7.8 11 7.1 5-.7 11.3-5.6 10.6-14.1-.7-8.4-9-18.3-28.3-17.6-19.2.7-39.6 8.8-50.9 28.1-11.3 19.2-11 32.5-1.5 59.1-.1 0-8.3-53.5 26.3-68.4z" class="st74"></path><path d="M200.7 93.8s.4 11.3 10.5 10.2c11-1.2 10.3-9.6 10.3-9.6s.2-8-10.4-9.3c0 0 19.1-4.8 28.1 5.6 0 0-6.5 2.9-5.7 8.9.8 6.1 5.9 7.8 11 7.1 5-.7 11.3-5.6 10.6-14.1-.7-8.4-9-18.3-28.3-17.6-19.2.7-39.6 8.8-50.9 28.1-11.3 19.2-11 32.5-1.5 59.1 0 .1-8.3-53.4 26.3-68.4z" class="st78"></path><path d="M171.1 142.5c-3.1-14.8-.8-24.9 6.9-38 9.9-16.9 26.1-23.3 37.8-25.6 3.6-.7 7.3-1.1 11-1.3 16.7-.6 25 7.2 25.7 15.3.6 7-4.6 10.6-8 11.3-.1 0-.3.1-.4.1-7.1.6-7.8-3.2-8.1-4.9-1.3-6.5 7.1-8.5 7.1-8.5-15.4-15.2-36-5.6-36-5.6 1.3.2 10.6 2.7 11.4 8.9.8 6.1-5.1 7-6.2 7.2-9.9 1.3-10.4-9.9-10.4-9.9s-26.3 6.7-29.8 41.9c-.4 3.1-.8 6.1-1 9.1z" class="st76"></path><path d="M219.2 78.2s19-3.5 28 4.9c9.9 9.2 3.9 16.2 3.9 16.2s3.1-9-8-16.3c-11.1-7.3-23.9-4.8-23.9-4.8z" class="st74"></path><path d="M243.1 95.4c0-1.1-1.1-1.9-2.1-1.5-1.6.7-3.4 2.1-3.1 5.4.5 5.9 10.4 3.4 10.8-.4.4-3.4-5.7 1.1-5.6-3.5zM207.5 95.3c-1.3.1-2 1.6-1.1 2.6.9 1 2.2 1.8 4.1 1.9 4.4.1 6.3-1.6 6.2-5.7s-4.9-4.7-5.9-3c-1 1.4.4 4.1-3.3 4.2z" class="st73"></path><path d="M267.6 260.7s-.6-108.6 3.2-119.9c0 0 3.6 77.8 7.7 101.4 0 .1-7 8.9-10.9 18.5z" class="st81"></path><path d="M163.7 271.9c1-1.2 2.2-2.2 3.8-2.1 1.8.1 3.5.5 5.3.7 1.7.2 3.4.6 5 .4 2.8-.3 3.8-1.3 4.5-5 .5-2.9 1-5.8 1.8-8.7.3-1 1.3-1.7 2-2.6h2c.3.3.6.5.8.8.7.9 1.7 1.8 2 2.9.7 2.6.8 5.3 1.6 7.9 1 3.5 1.9 4.6 5.9 4.2 2.3-.2 4.6-.8 6.9-1 1.4-.2 3-.6 4.2.7.4.4.7 1 1.1 1.4v1.7c-2.1 2.9-5.5 4-8.4 5.8-1.6.9-3.4 1.9-3.6 3.9-.1 1.4.3 2.9.8 4.2 1 2.5 2.2 4.8 3.3 7.2.8 1.8.1 4.1-1.7 4.8-.6.2-1.7.2-2.2-.2-1.7-1.2-3.2-2.6-4.7-3.8-1.3-1.1-2.6-2.3-4.1-3.2-2.9-1.8-4.9-.4-6.9 1.4-2 1.8-3.7 3.8-5.7 5.5-1.2 1.1-3.1 1.1-4.1.3-1.2-.9-1.7-2.5-1-4.3.8-2 1.7-3.9 2.6-5.9.5-1.3 1.1-2.5 1.4-3.8.5-2-.7-4-2.4-4.9-2.7-1.4-5.4-2.8-8-4.4-.8-.5-1.4-1.3-2.1-2-.1-.6-.1-1.3-.1-1.9zm36.1.3c-.6-.6-1.7-.5-2.6.3h-.3l-3.9-1.2c-.3-.1-.7-.3-.7-.5-.4-1.1-.9-2.2-1.2-3.3-.5-2.1-.7-4.2-1.2-6.2-.3-1.3-.3-3-2-3.6-.5-.8-1-.8-1.5 0-2.2 2.3-2.2 5.2-2 8.1-.3.7-.6 1.3-.9 2-.6 1.3-.8 3.1-1.8 3.8-1.2.8-2.9 1.3-4.6.8-1.1-.3-2.3-.1-3.5-.2h-.3c-2.2-1.1-4.5-.6-6.7 0v1.2c.4.6.6 1.6 1.2 1.9 3.2 1.7 6.5 3.4 9.9 5 1.5.7 2.3 1.9 1.6 3.4-.5 1.1-1 2.1-1.5 3.2-1.2 2.7-2.9 5.1-3.6 8-.2.8-.6 1.8.5 2.4h1.2c.3-.1.7 0 .9-.2l4.2-3.6c1.3-1.2 2.5-2.4 3.8-3.5 1.8-1.5 3.8-1.1 5.6.5.9.8 2.2 1.3 3.3 1.9.1.3.1.7.3.9 1.4 1.7 3.2 3 5.3 3.7l1.2-.3c.4-.3 1-.5.6-1.4-1.4-3-2.7-6-3.9-9-.4-1.1-.6-2.3-.7-3.5 0-.2.5-.5.8-.7.1-.1 0-.3.1-.4.2-.5.3-1.3.6-1.5 1.9-1.3 3.9-2.4 5.9-3.6 1.6-1 3.5-1.6 4.2-3.7l-.3-.9c-.4-.3-.9-.7-1.3-.8-1.1-.2-2.2-.3-3.3-.1-1 .2-2 .8-2.9 1.2-.4-.1-.5-.1-.5-.1z" style="fill:#936847"></path><path d="M174.7 297.2c-1-.6-.7-1.6-.5-2.4.7-2.9 2.3-5.4 3.6-8 .5-1.1 1-2.1 1.5-3.2.6-1.4-.2-2.6-1.6-3.4-3.3-1.6-6.6-3.2-9.9-5-.6-.3-.8-1.2-1.2-1.9.3-.2.6-.4.8-.7-.3-.2-.6-.4-.8-.6 2.2-.6 4.5-1.1 6.7 0-.5.3-1.1.5-1.6.9-.3.3-.5.7-.7 1.1.4.1.7.2 1.1.3l.6.9c.3.4.5.9.8 1.1 1.3.7 2.7 1.1 3.9 1.8 1.2.6 2.5 1.3 3.4 2.3.6.6.9 2.5.7 2.6-1.3.6-1.1 1.8-1.5 2.8-1 2-1.9 4.1-2.9 6.1-.1.1.1.5.2.6.4.2.8.2 1.2.3v-.8l.9-.9c.3.1.7.3.9.2.9-.6 2.4-1.1 2.6-1.9.4-1.4 1.6-1.7 2.4-2.5.1-.1 0-.3 0-.4-.1-.5-.1-1 .6-.4.2.1.7.2.8 0 .8-.7 1.2-.1 1.7.4.2.2.3.4.5.5 2.7 1.4 4.6 3.8 6.7 5.9-.7-.3-1.4-.6-2-.9-1.1-.6-2.3-1.1-3.3-1.9-1.8-1.6-3.7-1.9-5.6-.5-1.3 1.1-2.5 2.4-3.8 3.5l-4.2 3.6c-.2.2-.6.2-.9.2-.2-.4-.3-.7-.5-1.1-.2.7-.4 1-.6 1.4zm-5-22.6c.3-.4.6-.6.6-.8-.1-.3-.3-.5-.5-.7-.2.2-.5.4-.5.6-.1.2.2.5.4.9zm8.1 19.6c-.3-.2-.5-.5-.7-.5-.2 0-.4.3-.6.5.2.2.4.5.6.6.1 0 .4-.3.7-.6z" class="st84"></path><path d="M172.1 274.5c-.4-.1-.7-.2-1.1-.3.2-.4.4-.8.7-1.1.5-.4 1.1-.6 1.6-.9h.3l1.5.9v.3c-.4.6-1 1.3.3 1.5 0 .4-.1.8-.1 1.2 0 .1.4.1.6.2.1-.4.2-.7.4-1.1.6.5 1.2 1 1.7 1.4l1.2.6c.5.4.6 2.1 1.8.6l1.2.3c0 .4-.2 1 0 1.1 1.4 1.1 1.6 2.6 1.7 4.1l-.3 1.2c.1.4.2.9.4 1.2.1.1.7 0 .9-.1.9-.6 1.8-1.3 2.7-1.9.2-.1.7 0 .9.2 1.5 1.5 3 3.1 4.5 4.6.1.1.5-.1.7-.2l1.2 1.2c-1 1.2.6 1.3.9 2l.6.6 1.5 1.2-.6.9-1.5-.9c-2.1-2.1-3.9-4.5-6.7-5.9-.2-.1-.3-.3-.5-.5-.5-.5-.9-1.1-1.7-.4-.1.1-.6.1-.8 0-.7-.5-.7-.1-.6.4 0 .1.1.3 0 .4-.8.8-2 1.1-2.4 2.5-.3.9-1.7 1.4-2.6 1.9-.2.1-.6-.1-.9-.2-.3 0-.7-.1-1-.1 0 .3.1.7.1 1v.8l-1.2-.3c-.2-.1-.3-.5-.2-.6.9-2 1.9-4.1 2.9-6.1.4-.9.3-2.2 1.5-2.8.2-.1-.1-2-.7-2.6-.9-1-2.2-1.6-3.4-2.3-1.3-.7-2.7-1.2-3.9-1.8-.4-.2-.6-.7-.8-1.1.2-.3.3-.6.5-.9-.6-.2-1-.2-1.3-.2zm9.3 14.7c-.4-.3-.6-.6-.9-.6-.1 0-.5.4-.5.5.1.3.3.5.5.7.2-.2.5-.4.9-.6zm.8-3.5c-.3.3-.6.5-.6.8 0 .1.4.5.5.5.3-.1.5-.3.7-.5-.2-.3-.4-.5-.6-.8z" style="fill:#9f785c"></path><path d="m195.7 293.1 1.5.9c.5.1.9.2 1.4.3l-.3.6c.2 0 .3 0 .5.1 0-.3 0-.7.1-1v-.6c.1-.2.4-.5.3-.5l-.9-.6c-.6-1.5-1.2-3-1.9-4.5-.9-1.8-1.9-3.4-2.8-5.2-.4-1.6.4-2.8 1.6-3.6 1.6-1 3.4-1.6 5.1-2.4 1.1-.6 2.3-1.2 3.3-1.9.2-.1.3-.6.5-.8.3-.2.6-.5.8-.7-.3-.2-.6-.3-.8-.5-1.4-.2-2.7-.4-4.1-.5 1-.4 1.9-1.1 2.9-1.2 1.1-.2 2.2 0 3.3.1.5.1.9.5 1.3.8-.3.3-.5.6-.8.9.4 0 .7.1 1.1.1-.6 2.1-2.6 2.7-4.2 3.7-2 1.2-3.9 2.3-5.9 3.6-.4.3-.4 1-.6 1.5 0 .1 0 .3-.1.4-.3.3-.8.5-.8.7.2 1.2.3 2.4.7 3.5 1.2 3 2.5 6 3.9 9 .4.9-.1 1-.6 1.4-.2-.3-.4-.6-.6-.8-.2.4-.4.7-.6 1.1-2.1-.7-3.9-2-5.3-3.7-.2-.2-.2-.6-.3-.9.9.1 1.6.4 2.3.7z" class="st84"></path><path d="M184.3 265.7c-.2-2.9-.2-5.8 2-8.1.5.8 1 .8 1.5 0 1.7.6 1.6 2.3 2 3.6.5 2.1.8 4.2 1.2 6.2.3 1.1.7 2.2 1.2 3.3.1.2.5.4.7.5l3.9 1.2c-.7.2-1.3.4-2 .6-.8.2-1.6.2-2.4.3-1.4-.3-1.7-1.6-2-2.7l-2.1-9c-.1-.2-.4-.3-.6-.5-.3-.4-.6-.7-1-1.1-.1.5-.1.9-.2 1.4-1.2 1.9-1.5 3.9-1.5 6.1 0 .9-.6 1.7-.9 2.6 0-.5-.1-1-.1-1.5.2-.9.3-1.9.3-2.9z" class="st86"></path><path d="m192.5 273.3 2.4-.3c.7-.1 1.3-.4 2-.6h.3c.9-.1 1.7-.2 2.6-.3h.3c1.4.2 2.7.4 4.1.5v1.2c-.2.3-.2.7-.5.8-1.1.7-2.2 1.3-3.3 1.9-1.7.8-3.5 1.4-5.1 2.4-1.2.7-2 2-1.6 3.6-.8-.6-1.6-1.2-2.3-1.9-.7-.7-.3-1.2.5-1.6 1.1-.7 2.1-1.6 3.2-2.3h1.1l1.8-.9 1.2-.6c.6-.2 1.2-.4 1.7-.6l1.2-.6.7-.7c-.3-.2-.5-.4-.8-.5-2.2-.5-4.3.2-6.4.8-1 .5-2.2.8-3.1-.3z" style="fill:#9f775b"></path><path d="M184.3 265.7c0 1-.1 1.9-.1 2.9 0 .5.1 1 .1 1.5 0 1 .1 2.1.1 3.1 0 1.4-.9 1.7-2.1 1.5-1.2-.2-2.3-.6-3.5-.9-.4-.3-.7-.8-1.1-.8-.9-.1-1.8 0-2.6 0l-1.5-.9c1.2 0 2.4-.1 3.5.2 1.7.5 3.4 0 4.6-.8 1-.7 1.2-2.5 1.8-3.8.2-.6.5-1.3.8-2z" style="fill:#9d714f"></path><path d="M199.8 272.2c-.9.1-1.7.2-2.6.3.9-.9 1.9-1 2.6-.3z" class="st86"></path><path d="M187.8 257.6c-.5.8-1 .8-1.5 0 .6-.8 1-.7 1.5 0z" class="st89"></path><path d="M166.6 272.1c.3.2.6.4.8.6-.3.2-.6.4-.8.7v-1.3z" style="fill:#d58840"></path><path d="M207.9 272.8c-.4 0-.7-.1-1.1-.1.3-.3.5-.6.8-.9.1.3.2.7.3 1z" style="fill:#d38640"></path><path d="M199.2 296.9c.2-.4.4-.7.6-1.1.2.3.4.6.6.8l-1.2.3z" style="fill:#d1853f"></path><path d="M174.7 297.2c.2-.4.4-.7.7-1.1.2.4.3.7.5 1.1h-1.2z" class="st89"></path><path d="M169.7 274.6c-.2-.4-.5-.7-.5-.9 0-.2.3-.4.5-.6.2.2.5.4.5.7.1.2-.2.4-.5.8z" class="st93"></path><path d="M172.1 274.5h1.1c-.2.3-.3.6-.5.9l-.6-.9z" class="st94"></path><path d="M178.5 292.3c0-.3-.1-.7-.1-1 .3 0 .7.1 1 .1l-.9.9z" style="fill:#d78b43"></path><path d="M177.8 294.2c-.3.3-.6.6-.7.6-.2-.1-.4-.4-.6-.6.2-.2.4-.5.6-.5.2 0 .4.3.7.5z" class="st96"></path><path d="M178.8 273.9c1.2.3 2.3.6 3.5.9 1.2.2 2.1-.1 2.1-1.5 0-1 0-2.1-.1-3.1.3-.9.9-1.7.9-2.6-.1-2.2.3-4.2 1.5-6.1.4-.1.7-.2 1.1-.3.2.2.5.3.6.5l2.1 9c.3 1.1.6 2.4 2 2.7.9 1.1 2.1.7 3.2.5 2.1-.5 4.2-1.2 6.4-.8.3.1.5.3.8.5l-.7.7c-.3-.2-.7-.3-1-.5 0 .4-.1.7-.1 1.1-.6.2-1.2.4-1.7.6-.3-.3-.7-.5-1-.8 0 .4-.1.9-.1 1.3l-1.8.9c-.3-.4-.6-.7-.8-1.1-.1.4-.2.7-.3 1.1-1.1.8-2.1 1.7-3.2 2.3-.8.5-1.2.9-.5 1.6.7.7 1.5 1.2 2.3 1.9.9 1.7 1.9 3.4 2.8 5.2.7 1.4 1.2 3 1.9 4.5v.9h-.6l-1.5-1.2.8-.8c-.2-.2-.4-.4-.7-.6-.3.3-.5.6-.8.8-.3-.7-1.8-.8-.9-2 .2-.6-.5-1.9-1.1-1.9 0 0-.1.4-.1.7-.3.1-.7.3-.7.2-1.5-1.5-3-3.1-4.5-4.6-.2-.2-.7-.4-.9-.2-.9.6-1.8 1.3-2.7 1.9-.2.2-.8.2-.9.1-.2-.3-.3-.8-.4-1.2.4-.1.8-.2 1.1-.2-.3-.3-.5-.6-.8-.9-.2-1.6-.3-3.1-1.7-4.1-.2-.1 0-.7 0-1.1-.1-.4-.2-.7-.3-1.1-.3.3-.6.5-.9.8-1.1 1.5-1.2-.2-1.8-.6 0-.4-.1-.9-.1-1.3-.3.3-.7.5-1 .8-.6-.5-1.2-1-1.7-1.4-.3-.1-.6-.2-.8-.3-1.4-.2-.7-.9-.3-1.5.9-.1 2.1.1 3.4.3zm7.7-8.8c0 .8-.2 1.3-.1 1.9 0 .2.5.3.8.5.1-.3.5-.6.4-.7-.3-.6-.6-1.1-1.1-1.7zm1.6 4.9c-.4-.3-.7-.7-1-.7-.2 0-.7.4-.6.6.1.3.4.6.7.7.1.1.4-.3.9-.6zm-2.6 8.5c-.4-.4-.7-.7-.9-.7-.3.1-.5.4-.8.6.2.2.4.6.6.6.3.1.6-.3 1.1-.5zm2.5-5.4c-.4-.3-.7-.6-.9-.6-.2 0-.6.3-.6.6 0 .2.4.7.5.7.2-.1.5-.4 1-.7zm5.5 13.3c-.5-.3-.7-.6-1-.7-.1 0-.5.4-.5.6 0 .2.4.6.6.6.2.1.5-.2.9-.5zm-2.9-8.4c-.4-.3-.7-.5-.9-.5-.2 0-.4.3-.6.5.2.2.4.5.6.5.2 0 .4-.3.9-.5zm-2.9-14.2c-.4-.3-.6-.6-.9-.6-.1 0-.5.4-.5.5.1.3.3.5.5.7.3-.1.6-.3.9-.6zm5.8 13.2c-.5-.2-.7-.4-1-.4-.2 0-.3.4-.5.6.3.2.5.4.8.4.1 0 .3-.3.7-.6zm-4.4 3.4-.7.7c.2.2.4.5.7.6.2 0 .6-.3.6-.5s-.3-.4-.6-.8zm-2.5 1c-.4-.2-.7-.4-.9-.4-.2 0-.5.4-.4.5.1.2.4.5.6.5.1 0 .3-.3.7-.6zm5.1 2.3c-.4-.2-.7-.5-.9-.5-.2 0-.4.3-.6.5.2.2.5.5.7.5.2.1.5-.2.8-.5zm-3.9-7.2c-.1-.1-.2-.3-.3-.4-.2-.1-.5-.4-.6-.4-.2.1-.4.4-.5.7.2.1.4.4.7.4.2 0 .5-.2.7-.3zm.2 2.5c-.3-.3-.5-.4-.7-.6-.2.2-.5.4-.5.7 0 .2.4.6.5.5.2-.1.4-.4.7-.6z" style="fill:#a17c63"></path><path d="M178.8 273.9c-1.3-.2-2.5-.4-3.8-.6v-.3c.9 0 1.8-.1 2.6 0 .5.1.8.6 1.2.9z" class="st84"></path><path d="M193.6 288.2c0-.2.1-.7.1-.7.6 0 1.3 1.2 1.1 1.9l-1.2-1.2z" style="fill:#d48a41"></path><path d="M177.9 276.5c.3-.3.7-.5 1-.8 0 .4.1.9.1 1.3-.3-.1-.7-.3-1.1-.5zM195.7 291.4c.3-.3.5-.6.8-.8.2.2.4.4.7.6l-.8.8c-.3-.2-.5-.4-.7-.6z" class="st99"></path><path d="M197.7 293.1h.6l.6.3v.6l-.3.3c-.5-.1-.9-.2-1.4-.3.2-.3.3-.6.5-.9z" style="fill:#cf8542"></path><path d="M183.7 283.2c.3.3.5.6.8.9-.4.1-.8.2-1.1.2.1-.3.2-.7.3-1.1z" class="st93"></path><path d="M181.4 289.2c-.4.3-.6.5-.9.6-.2-.2-.4-.5-.5-.7 0-.1.3-.5.5-.5s.4.3.9.6z" style="fill:#d28640"></path><path d="M175.3 274.8c.3.1.6.2.8.3-.1.4-.2.7-.4 1.1-.2-.1-.6-.1-.6-.2.1-.4.2-.8.2-1.2z" class="st102"></path><path d="M180.8 277.7c.3-.3.6-.5.9-.8.1.4.2.7.3 1.1l-1.2-.3z" style="fill:#d38741"></path><path d="M182.2 285.7c.3.3.5.5.6.7-.2.2-.4.5-.7.5-.1 0-.6-.4-.5-.5 0-.2.3-.4.6-.7z" class="st104"></path><path d="M204.1 273.9v-1.2c.3.2.6.3.8.5-.2.2-.5.5-.8.7z" style="fill:#d68942"></path><path d="m198.8 293.4-.6-.3v-.9l.9.6c.1.1-.1.4-.3.6zM198.6 294.3l.3-.3c0 .3 0 .7-.1 1-.2 0-.3 0-.5-.1l.3-.6z" class="st84"></path><path d="M187.8 261.1c-.4.1-.7.2-1.1.3.1-.5.1-.9.2-1.4.2.4.6.7.9 1.1z" style="fill:#cb8541"></path><path d="M198 275.9c0-.4.1-.9.1-1.3.3.3.7.5 1 .8-.3.1-.7.3-1.1.5z" style="fill:#cb8340"></path><path d="M200.9 274.8c0-.4.1-.7.1-1.1.3.2.7.3 1 .5-.3.2-.7.4-1.1.6zM195.1 276.8c.1-.4.2-.7.3-1.1.3.4.6.7.8 1.1h-1.1z" class="st108"></path><path d="M186.5 265.1c.5.6.9 1.1 1.1 1.6.1.1-.2.5-.4.7-.3-.2-.8-.3-.8-.5-.1-.5 0-1 .1-1.8z" style="fill:#cc8541"></path><path d="M188.1 270c-.5.3-.8.7-1 .6-.3-.1-.6-.4-.7-.7 0-.1.4-.6.6-.6.4.1.6.4 1.1.7z" style="fill:#cc8342"></path><path d="M185.5 278.5c-.5.3-.8.6-1.1.6-.2 0-.4-.4-.6-.6.3-.2.5-.6.8-.6.1-.2.4.2.9.6z" style="fill:#cd8744"></path><path d="M188 273.1c-.5.3-.7.6-1.1.7-.1 0-.5-.5-.5-.7 0-.2.4-.5.6-.6.3 0 .6.3 1 .6z" class="st104"></path><path d="M193.5 286.4c-.5.3-.7.6-1 .5-.2 0-.6-.4-.6-.6 0-.2.4-.7.5-.6.4.1.7.4 1.1.7z" style="fill:#d18743"></path><path d="M190.6 278c-.4.3-.7.6-1 .5-.2 0-.4-.3-.6-.5.2-.2.4-.5.6-.5.3-.1.5.2 1 .5z" style="fill:#d08540"></path><path d="M187.7 263.8c-.4.3-.6.5-.9.6-.2-.2-.4-.5-.5-.7 0-.1.3-.5.5-.5.3.1.5.3.9.6z" class="st108"></path><path d="M193.5 277c-.3.3-.6.7-.7.6-.3 0-.5-.3-.8-.4.2-.2.3-.6.5-.6s.5.2 1 .4z" class="st102"></path><path d="M189.1 280.4c.3.3.5.6.6.8 0 .1-.4.5-.6.5-.3-.1-.4-.4-.7-.6.3-.2.4-.4.7-.7z" style="fill:#d18642"></path><path d="M186.6 281.4c-.3.3-.6.7-.7.6-.2 0-.5-.3-.6-.5 0-.1.3-.5.4-.5.2-.1.5.2.9.4z" class="st96"></path><path d="M191.7 283.7c-.4.3-.6.6-.8.6-.3 0-.5-.3-.7-.5.2-.2.4-.5.6-.5.2 0 .5.2.9.4z" class="st108"></path><path d="M187.8 276.5c-.3.1-.5.3-.8.3-.2 0-.4-.3-.7-.4.2-.2.3-.5.5-.7.1-.1.4.2.6.4.2.1.3.2.4.4z" class="st94"></path><path d="M188 279c-.3.3-.5.6-.8.6-.1 0-.5-.4-.5-.5 0-.3.3-.5.5-.7.2.1.4.3.8.6z" style="fill:#d38740"></path></svg>