<svg xmlns="http://www.w3.org/2000/svg" xml:space="preserve" id="Capa_1" x="0" y="0" style="enable-background:new 0 0 512 512" viewBox="0 0 512 512"><style>.st3,.st40{fill:#fff}.st40{stroke:#235b2f;stroke-width:.331;stroke-miterlimit:10}.st41{fill:#235b2f}.st45{fill:#1e5a2d}.st49,.st50,.st51,.st53{fill:#fff;stroke:#235b2f;stroke-width:.166;stroke-miterlimit:10}.st50,.st51,.st53{fill:#235b2f;stroke:#fff;stroke-width:8.300000e-02}.st51,.st53{stroke:#1e5a2d;stroke-width:.331}.st53{stroke:#fff}</style><path d="M342.8 370.7c7.5-71.1 39.6-62.5 39.6-62.5 33.8 1.5 36.9 35 36.9 35 .7 12.6-5.6 15.5-5.6 15.5 36.2 0 70.2-30.9 70.2-69s-33.1-69-74-69c0 0-105.6-2.4-105.6 153.2 0 0 0 80.3 75.7 60.5 0 0 29.4-6.8 21.4-42.2-.4.1-44.1 31.7-58.6-21.5z" class="st40"></path><path d="M339 363.6c6.5-72.3 43.9-60 43.9-60 32.1 1.5 40.1 34.2 40.1 34.2 2.4 12-1.5 16.7-1.5 16.7 30.6-3.6 57.7-34.7 57.7-63.4 0-36.2-31.4-66.3-70.2-66.3 0 0-100.4.3-100.4 147.8 0 0 1.7 66.6 57.7 60.8 0 0 35.7-2.2 31.9-34.7.3.2-55.4 28.7-59.2-35.1z" class="st41"></path><path d="m441.5 259-12.6 7.7-13.8-5.5 3.9 13.5-9.9 10.8 15 .7 7.9 12.1 5.5-13.2 14.7-3.2-11.8-8.9 1.1-14z" class="st3"></path><path d="M169.2 370.6c-7.5-71.1-39.6-62.5-39.6-62.5-33.8 1.5-36.9 35-36.9 35-.7 12.6 5.6 15.5 5.6 15.5-36.2 0-70.2-30.9-70.2-69s33.1-69 74-69c0 0 105.6-2.4 105.6 153.2 0 0 0 80.3-75.7 60.5 0 0-29.4-6.8-21.4-42.2.4 0 44.1 31.4 58.6-21.5z" class="st40"></path><path d="M173 363.4c-6.5-72.3-43.9-60-43.9-60-32.1 1.6-40.2 34.2-40.2 34.2-2.4 12 1.5 16.7 1.5 16.7-30.6-3.6-57.7-34.7-57.7-63.4 0-36.2 31.4-66.3 70.2-66.3 0 0 100.4.3 100.4 147.8 0 0-1.7 66.6-57.7 60.8 0 0-35.7-2.2-31.9-34.7-.2.2 55.5 28.8 59.3-35.1z" class="st41"></path><path d="m70.5 258.8 12.6 7.5 13.8-5.3-3.9 13.6 9.9 10.8-15 .7-7.9 12-5.5-13-14.7-3.4 11.8-8.7-1.1-14.2zM152.5 145.2c2.2 4.3 5.5 8.4 8.2 12.3 2.4 3.4 5 7 8.2 9.7 3.6 3.2 6.1 4.4 7.2 9.7l.9-31.6c-3.8-.3-4.6-6.1-6.5-8.7-2.2-2.7-5.3-4.4-6.7-7.7l.5.2c7.3-2 15.5-.3 22.9.9 1.9.3 3.9-.3 5.8-.3 4.3.2 8.7 5.5 8.7 5.5l2.6-1.2c-2.4-4.1-8-10.4-12.5-11.8-2.9-.9-6.7-1.5-9.7-1.7-4.3-.3-8.7-1.2-12.8-1.2 9.6-.3 19.1.9 28.7.7 9.7-.2 17.6 3.2 25.5 8.7l-1.7.2c-1.7-6.5-7.7-13.2-13.3-16.2-3.9-2.2-8.5-1.5-12.6-1.4-8.4.3-17.1.3-25.5-.2 0 0-5.3 4.6-8 4.6 3.1-.3 6.5-4.4 8.7-6.7 1.9-2 3.4-5 5.6-6.5 6.7-5 13.8-8.9 22.4-9.9l-2 1.5c-5 0-11.6-.2-16.4 1.4-4.4 1.4-7.9 4.1-11.3 7.2-2.4 2.2-6 4.4-9.1 6-1.9 1-3.9 2.4-6.1 2.6l-17.3 13.2c-3.2 3.1-8 7.2-11.8 9.9-3.9 2.9-7.2 7.2-9.7 11.3-4.3 6.8-11.6 21.5-2.2 27.3 1 .9 2.4 1.4 3.6 1.7l2.2-.3c-1.7-1.4-4.8-4.8-5.6-7-1.2-3.2.2-7.3 1-10.4 1-3.9 3.1-7.2 6-10.1 2.4-2.4 6-5.6 9.2-6.7l1.5-.3c.2 3.4-3.1 6.3-4.1 9.2-1.2 3.2-1.4 7-1.2 10.4.3 3.4 2.6 5.6 2.9 8.9.3 3.2-2.9 5.5-3.2 8.7-.2 1.2-2.2 2.9-1.5 3.9l1 2c.3-1.4 1.2-2.4 1.9-3.9.7-1.4 5.6-5 5.5-8.7-.3-3.9-3.1-6.7-3.1-10.8 0-3.9 1.2-6.3 3.1-9.6.9-1.7 1.8-3.4 2.9-5 1.4-1.7 3.4-3.2 4.4-5.1 0 0 .7-3.4-.2-5.5 1.9 7.5-1.9 15.2-2.4 22.9-.3 3.9.2 7.5.3 11.4.3 5.3.2 7.7-3.2 11.6l-.5.3c.2-.2.3-.3.5-.3 3.6-2.9 5.5-6 6-10.6.3-3.6 0-7 1-10.4 1.4-4.8 3.4-9.2 3.9-13.8.5-3.4 1.4-7.9-.9-12.3 1.2 4.1 1.4 6 1.4 6 2.9 4.1 3.2 3.9 3.4 8 .3 4.4.7 8.4 3.4 11.8 1.9 2.4 4.1 5.3 3.6 8.7-.3 1.9-1.4 3.1-1.7 5-.3 2.9 0 5.5 1.9 8 .3.3.5.9.9 1.2l1.4.9c-3.1-1 0-9.7.9-11.8 1.2-2.4 2.6-4.4 2.7-6.8.2-1.9-.2-6.3-2.4-6.8" class="st3"></path><path d="m160 157.9.3.2s.2 0 .3.2l.3.3s-.2-.2-.5-.3c-.1-.2-.4-.2-.4-.4zm2.4 5.3v-.3s0-1-.3-1.9c-.2-.9-.7-1.7-.7-1.7.6 1.5 1 2.9 1 3.9zm0 1.2-.3 2.4c0-.2.3-.9.3-1.5v-.9zm-24.9 11.4c0 .2-.2.3-.2.5 0-.3.2-.3.2-.5z" class="st41"></path><path d="M139.8 141.8v-.3c-.2 3.2-1 6.5-1.7 9.9-.7 3.4-1 6.8-.9 10.2v-.5l.5 10.6c0 1.7-.2 3.4-.9 5.1-.3.9-.7 1.5-1.2 2.2-.2.3-.5.7-.7 1l-.3.5-.5.3v.2l.5-.3c1.9-1.5 3.4-3.2 4.4-5.5 1-2 1.4-4.4 1.5-6.8.2-2.4 0-4.8.5-7 .5-2.4 1.4-4.6 2-6.8 0 .2-.2.3-.2.7.2-.9.5-1.7.9-2.6.2-.2 0 .2-.2.5.7-1.7 1.4-4.3 1.7-6.7l.7-5.8v-.7c0-2-.3-4.1-1.4-6.1l.2-.2c.5 1.9 1.2 3.9 1.4 6l2 2.9c.7 1 1.2 2.2 1.4 3.4l.7 7.2c.3 2.4 1.4 4.6 2.7 6.3 1.5 1.9 3.1 3.8 3.6 6.1.2.7.2.9 0 .7.2.9.2 1.5 0 2.4-.2.9-.5 1.5-.9 2.2-.3.7-.7 1.4-.7 2.2-.2.7-.2 1.5-.2 2.4 0 1.5.3 3.1 1 4.4.4.7.8 1.3 1.4 1.9l.3.5c0 .2.3.2.5.3l1 .7 1.9 1.2-2-.7c-.9-.3-1.2-1-1.4-1.7-.2-.7-.2-1.4-.2-2.2.2-1.4.5-2.7.9-4.1.3-1.4.9-2.7 1.4-3.9l1.9-3.6c.2-.3-.5 1-.2 0l-2.4 4.8c-.5 1.5-1 3.2-1.4 5v-.5c-.3 1.2-.2 1.4-.2 1.5 0 .2 0 .3-.2 1.7v.2c0 .5 0 1.2.3 1.7.2.5.7 1 1.2 1.4l.3-.7-1.4-.9-.9-1.2c-.7-.9-1-1.9-1.4-2.7-.5-2-.5-4.1-.2-6 .2-.5.9-1.7 1.4-3.4.3-1.5 0-3.2-.3-4.3-.5-1.4-1.4-2.6-1.7-2.9-1.2-1.7-2.6-3.1-3.4-5-.9-1.9-1.2-3.8-1.5-5.8-.3-2-.2-4.1-.7-6.1-.2-1-.9-2-1.4-2.7l-1.7-2.4c-.2-1.9-.9-4.1-1.4-6l-.5.2c1 1.9 1.4 4.1 1.4 6.3s-.3 4.3-.7 6.5c-.7 4.3-2.4 8.4-3.8 12.6-1.2 3.4-.7 7.3-1.2 11.3-.2 1.9-.9 3.9-1.9 5.6s-2.4 3.2-4.1 4.6l-.5.3.3.3c.2-.2.3-.2.7-.5l.5-.7.9-1.2c.5-.9 1-1.9 1.4-2.9 1-3.4.2-8.5 0-12.6 0 0 0-.9-.2-1.7v-1.7c0-4.3 1-8.4 1.9-12.5.9-4.1 1.5-8.4.7-12.6l-.3.2c.3.9.3 2 .3 3.1 0 .5 0 1-.2 1.5 0 .2-.2.3-.3.7-1.2 1.7-2.9 3.1-4.3 4.6-1.2 1.7-2.2 3.6-3.2 5.5s-2 3.8-2.4 5.8c-.3 2-.5 4.3.2 6.3l2.2 5.8c.3 1 .5 2 .2 3.1-.2 1-.9 1.9-1.4 2.7l-2 2.4c-.7.9-1.5 1.4-2 2.6l-1 1.7c-.2.3-.3.7-.3.9s-.2.3-.2.3 0-.2-.2-.2l-.2-1.3c-.2-.2-.2-.5 0-.9.2-.3.3-.7.7-1 .2-.3.5-.7.7-1 .2-.2.2-.3.2-.7v-.5c.3-1.5 1.2-2.9 2-4.3.3-.7.9-1.4 1-2.2.2-.9.2-1.7 0-2.6-.3-1.5-1.2-3.1-1.7-4.4-.7-1.4-1-2.9-1.2-4.4l.2-4.6c.2-1.5.5-3.1.9-4.4.5-1.5 1.4-2.7 2-4.1.9-1.4 1.7-2.7 2-4.3 0-.3.2-.7.2-1.4v-.2s0-.2-.2-.2l-.5.2-.7.2c-.7.2-1.5.5-2.2.9-2.7 1.5-5.1 3.6-7.3 5.8-2.2 2.2-4.1 4.8-5.3 7.9-.7 1.5-1 3.1-1.4 4.6l-.9 4.8v-.5c-1 4.8 3.4 8.7 5.8 11.1l-1.2.2h-.7l-.7-.2c-1-.3-1.9-.9-2.7-1.4l-1.4-1c-.5-.3-.9-.9-1.2-1.2-1.4-1.9-2-4.3-2-6.7 0-2.4.5-4.8 1.4-7 1.5-4.6 3.9-8.9 6.5-13 2.7-4.1 5.8-7.9 9.9-10.4 3.8-2.9 7.3-6 10.6-9.2l13.7-10.4c1.2-.9 2.4-1.7 3.4-2.7.7-.2 1.4-.2 2-.5.7-.2 1.4-.5 2-.9.7-.3 1.4-.7 1.9-1l2-1c1.4-.7 2.6-1.5 3.8-2.4 1.2-.9 2.4-1.7 3.6-2.7 1.1-1.1 2.2-2 3.4-2.9 2.4-1.9 5-3.4 7.9-4.3 2.9-.9 5.8-1.2 8.9-1.2h4.4c1.4-.2 3.1.3 4.1-.9l.7-.5.3-.2h-.3l-1.5.2c-1 .2-1.9.3-2.7.7-1.9.5-3.6 1-5.5 1.9-3.6 1.5-6.8 3.4-9.9 5.5-1.5 1-3.2 2-4.4 3.6l-3.6 4.4s-2.6 2.9-3.9 4.1c-1.4 1.2-2.9 2.6-4.8 2.7v.2c1.5-.2 2.9-1 4.3-1.9 1.4-.9 2.6-1.9 3.8-2.9h.5c9.6.5 19.5.5 29.4-.2 2.4 0 5 .2 7.3 1.2 2.2 1 4.3 2.6 6.1 4.3 3.6 3.4 6.7 7.5 7.9 12.1 0 0 0 .2.2.2h.9c.3 0 1.2 0 .5-.3-.7-.5-1.4-.9-2-1.4-1.4-.9-2.7-1.7-4.3-2.4-2.9-1.5-6.1-2.9-9.6-3.6-3.4-.9-6.8-1-10.1-1s-6.3 0-9.2-.2c-6.3-.3-12.6-.7-19-.7v.2c3.6 0 7.2.7 10.6 1 3.6.2 7.2.5 10.6 1.5 3.6.9 6.3 3.2 8.9 5.8 1.2 1.4 2.4 2.7 3.4 4.1.3.3.5.7.9 1l.3.5.2.3.2.2h-.2l-2.4 1.2c-1.5-1.7-3.4-3.2-5.5-4.3-1.2-.7-2.4-1-3.8-1s-2.7.2-3.9.3c-1.4 0-2.7-.3-3.9-.5l-3.9-.5c-5.3-.7-10.8-1.2-15.9.2-.2 0-.3.2-.5 0-.2 0-.3-.2-.3 0 .2.2.2.3.3.7.3.5.7 1 1.2 1.5.9 1 1.9 1.9 2.7 2.7 1 .9 1.9 1.9 2.7 2.9.7 1.2 1.2 2.4 1.7 3.6s1.2 2.4 2 3.2c.5.5 1 .9 1.5 1 .2 0 .3 0 .5.2.2 0 .5 0 .3.3v1c-.2 2.6-.2 5.1-.3 7.9l-.7 22.5h.2c-.3-1.4-.7-2.9-1.5-4.1-.9-1.4-1.9-2.4-3.1-3.2l.3.3c-1.4-1.4-3.2-2.7-4.6-4.1-1.4-1.4-2.6-2.7-3.2-3.8l.3.3c-1.2-1.7-3.1-3.8-3.8-4.8l-.2-.2c-1.5-2-.2-.3-1.2-1.9-.5-.5-.2-.2-1.2-1.4 0-.3-3.6-5-3.4-5.3.7 1.2-1-1.9.7.7-.2-.3-.9-1.4-1.5-2.4-.5-1-1-1.7-1-1.5-.2-.3-1-1.7 0 .7l.3.3c.3.9.3.5.3.9 1.7 2.9 1.9 3.2 3.2 5.3 1 1.4 2.4 3.1 3.1 4.3l.3.5c.3.7 2.4 3.1 1.7 2.2 2 2.7 4.3 5.6 7 8.2 1.4 1.2 2.9 2.4 4.3 3.8s2.2 3.1 2.7 4.8c0 .2.2.5.2.9l.5 1.7v-1.9c0-1.7.2-4.4 0-3.2.2-1.9.3-7.5.5-9.6v.5c.3-4.1 0-4.8.3-8.7-.2-.7.2-7 .2-9.1 0-.5 0-.7.2-.5v-1.4h-.5c-.5-.2-.9-.2-1.2-.3-.7-.3-1.2-1-1.7-1.7-.9-1.4-1.5-3.1-2.4-4.8-.7-1.7-2-2.9-3.2-3.9-1.2-1.2-2.4-2.2-3.2-3.2-.2-.2-.3-.5-.5-.7-.2-.2-.2-.3-.3-.5.3 0 .7-.2 1-.2 1.4-.3 2.8-.5 4.3-.5 2.9-.2 5.6 0 7.9.2 2.2.2 4.3.6 6.5 1 1.2.2 2.4.5 3.8.5s2.6-.3 3.8-.3h-.5c1-.2 1.9-.2 2.9.2 1 .2 1.9.7 2.7 1.2.9.5 1.7 1.2 2.4 1.9l2 2c.9-.3 1.5-.7 2.2-1 .2-.2.5-.2.7-.3.2 0 0-.2 0-.3l-.2-.3c-.2-.3-.3-.5-.5-.9-.9-1.5-2.2-3.4-3.9-5.1-1.4-1.4-3.4-3.4-6.1-5-1.4-.9-3.1-1.2-4.4-1.5-1.5-.3-3.1-.5-4.4-.7-.9-.2-4.6-.3-5-.5-3.2-.3-6.7-.9-10.4-.9v.5c6.8-.2 13.8.3 21 .5 1.7 0 3.6.2 5.3.2s3.6 0 5.3.2c3.4.2 6.8 1 10.1 2h-.2c2 .7 4.4 1.5 6.5 2.6.2.2.2.2-.3-.2 1.4.7 2.7 1.5 3.9 2.2l1 .7.7.5.2.2h-.5c-.3 0-.3.2-.5-.2-.2-.3-.2-.7-.3-1-.2-.7-.5-1.4-.9-2.2-.7-1.4-1.5-2.9-2.6-4.3l-.2-.2s-.3-.5-.7-.9c-.3-.5-.7-.9-.7-.9s.2 0 .9 1c-2.6-3.2-5.6-6.1-9.6-8-1.9-.9-4.1-1.2-6.1-1.2s-4.1.2-6.3.2c-8.4.3-16.9.3-25.3 0-1.4 1.2-2.4 2-3.8 2.9-1.4.9-2.7 1.7-4.1 1.9v.3c1.9-.2 3.4-1.5 5-2.7 1.4-1.2 2.6-2.6 3.8-4.1 1.2-1.4 2.2-2.9 3.4-4.3.7-.7 1.2-1.4 1.9-1.9s1.5-1 2.2-1.5l-.9.7s1-.9 2.2-1.5c1-.7 2.2-1.4 2.2-1.4s-.2.2-.5.3c2.9-1.7 6-3.2 9.2-4.4 1.5-.5 3.2-1 5-1.4.9-.2 1.7-.3 2-.3h.3l-.2.2-.7.5c.2-.2.5-.3 0-.2-.2.2-.5.3-.7.5H191c-1.7 0-3.1 0-4.3.2h.2c-3.4.2-6.8.9-10.1 2.2-3.1 1.5-5.8 3.8-8.4 6.1-2.6 2.2-5.5 4.1-8.5 5.8-1.5.9-2.9 1.7-4.6 2.4-.3.2-.9.3-1.2.3-.2 0-.3 0-.7.2h-.4c-.2 0-.3.2-.3.2l-.9-.3c-4.4 3.6-9.2 7.2-14 10.9l-.9.7-.9.9-1.7 1.5c-1.2 1-2.2 2-3.4 3.1l-7 5.5c-2.7 2.2-5 5.1-7 8.2-2 3.1-3.9 6.1-5.5 9.6-1.5 3.4-2.7 7-2.9 10.6 0 1.9.2 3.8.9 5.5.8 1.7 2 3.1 3.6 4.1.9.7 2 1.2 3.1 1.5.5.3 1 .2 1.5 0 .5 0 1-.2 1.4-.2-.3-.2-.5-.5-.9-.7l-.7-.7c-.5-.5-.9-.9-1.2-1.4-.9-.9-1.5-1.9-2.2-2.7-1.4-1.9-1.5-4.6-1-7.2v-.2c.2-1.4.7-2.7 1-4.1.3-1.4.9-2.7 1.4-4.1 1.2-2.6 3.1-5 5.3-7 2.2-2 4.4-3.9 7-5.5.7-.3 1.4-.7 2-.9.3 0 .7-.3.9-.2v1c-.3 1.4-1 2.7-1.7 3.9l.3-.7c-.3.9-1.4 2.2-2 3.6-.7 1.4-.9 2.4-.7 2l-.3 1v1c-.3 1.9-.5 3.8-.3 5.6 0 .9 0 1.9.2 2.7.2.9.5 1.8.9 2.7.7 1.7 1.7 3.4 1.9 5.6.2 2.2-1.5 3.9-2.6 6.1l.2-.5c-.3.5-.5 1.2-.7 1.9-.2.7-.2 1.4-.5 1.9l-1 1.5c-.3.5-.5 1-.2 1.5-.2-.2-.2-.2-.2-.7 0 .2 0 .5.2.7l1 2v.2c.2-1.2.7-1.9 1.2-2.7.5-.9.9-1.7 1.5-2.4 1.2-1.4 2.6-2.7 3.6-4.3.5-.9.9-1.7 1-2.7 0-1-.2-1.9-.5-2.7-.5-1.9-1.5-3.4-2-5.3l.3.9c-.3-1-.9-2-.9-3.4-.2-1.4 0-2.9.3-4.3.7-3.1 2.7-5.6 3.9-8l-.2.3s.3-.5.7-1.2c.3-.5.7-1.2.7-1.2h.2c1.4-1.9 3.2-3.1 4.4-5 .2-.2.3-.5.5-.7v-1c0-.5.2-1 .2-1.7 0-1 0-2.2-.3-3.2h-.2c.5 3 .5 5.4.3 7.8z" class="st41"></path><path d="M143.4 152.9s0 .2 0 0c0 .4 0 .2 0 0zm13.7.2c-.2-.3-.3-.5-.5-.7 0 0 .3.4.5.7zm44.7-21.3h-.2.2zm-.5-.2.3.2c.1-.2-.3 0-.3-.2zm0 0c0-.2 0 0 0 0zm-8.2-5c.3 0 .7.3 1 .5l2.7 1.2h.2c.2.2.4.3.7.3h.2c.7.3 1.4.9 2 1.4.6.3 1.2.8 1.5 1.4-.2-.2-.3-.2-.5-.3 0-.2-.2 0-.2-.2-.2-.2-.5-.5-.7-.5 0-.2-.2-.2-.3-.3 0 0-.2-.2-.2 0-.9-.7-1.9-1.2-2.7-1.9-.5 0-1-.5-1.5-.9-.2 0-.5-.2-.7-.2h-.2c-1.4-.7-2.7-1-4.1-1.4-1.5-.5-3.1-.9-4.6-.9-.5 0-.9-.2-1.4-.2-1 0-2.2-.3-3.4-.2-1.2-.2-2.7-.2-4.1-.3-1 0-2-.5-3.1-.7-1-.3-2.2-.3-3.4-.7-.7-.3-1.5-.2-2.2-.5-1.2-.7-2.6-.7-3.9-.9-1.2-.3-2.4-.5-3.6-1-.5 0-1-.5-1.5-.9-.2-.2-.5 0-.5-.3 0-.2-.3 0-.3-.2-.2 0 0 0 0-.2h-.2c.2-.2-.3-.2-.2-.3 0 0 0-.2.2 0 0 0-.2-.2-.3-.2 0 0-.2 0-.2.2v.2c.2.2.2.2.2.3.2 0 .2.2.3.2 0 .2.3 0 .2 0 .3.2.7.3 1.2.7 0 0 .3.2.3 0 0 .2.3.3.5.3.2.2.3 0 .5.2 0-.2.3.2.5 0v.2c.3.2.9.3 1.2.3.3 0 .7.2 1 .2.2 0 .5.2.9.2.3 0 .7.2 1 .2 0 .2.2.2.3.3.2 0 .7.2 1 .2 0 0 .3 0 .3.2 1 0 2 .3 2.9.9.2 0 .3-.2.5-.2s.3.2.5.2.3.2.5.2h.2s0 .2-.2 0l4.6.9h.3c.3.2.9.2 1.2.2.3 0 .5.2.7 0 .9 0 1.5.2 2.4.2.7-.2 1.4.2 2 0 .9 0 1.9.2 2.7.3.3 0 .7 0 1 .2.7-.2 1.4.3 2 .3.2 0 .3.2.3 0h.2c.5-.2.9.3 1.4.2h.3c.3.3 1 .2 1.4.3.2 0 .7.2 1 .2h.2c-.6.5-.3.6 0 .6zm-58 11h-.2.2zm-.2-.2c.2.2 0 0 0 0zm.3-2.7c0 .2-.2.2-.2.3-.2.3 0 .5 0 .9-.2 0 0 .2 0 .2v.7c.2.2 0 .3 0 .5h.2s-.2-.2 0-.2c0 0-.2 0 0 0v-.3c.2 0 0-.2.2-.2.2-.3 0-.7.2-.9-.2-.2.2-.3.2-.5v-.2c.3-.3.3-.9.5-1.2.2-.5.5-.7.5-1.2 0-.2.2-.2.2-.3 0-.3.3-.5.3-.9.2-.3.3-.7.7-1 .2-.3.5-.3.7-.7.3-.2.3-.7.7-.9.3 0 .2-.5.5-.5.5 0 .7-.3.9-.7.3-.2.5-.5.9-.5 0-.2.3 0 .5-.2.2.2 0-.2.2 0v-.2c0 .2 0 0 .2.2v.2-.1c0-.2 0-.2-.2-.2 0 0-.2 0-.2-.2 0 .2 0 0 0 0s0 .2 0 0c-.2 0-.2.2-.3.2 0 0-.2 0 0 .2 0-.2-.2-.2-.2 0-.2-.2 0 .2-.2 0 0 .2-.2 0 0 .2-.2 0-.2 0-.3.2 0 .2-.2 0-.2.2 0 0-.2 0-.2.2 0 0-.2.2-.2.3-.2-.2-.2 0-.2-.2 0 .2-.2.2-.2.3h-.2c0 .3-.3.5-.7.5 0 0 0 .2.2.3h-.2s-.2 0-.2.2c-.3.3-.5.7-.9 1.2v.2c-.2 0-.2.2-.2.3s-.2 0 0 .2c0 .2-.2.3-.3.5 0 .3-.2.3-.2.7 0 .3-.3.5-.3.7s0 .2-.2.3c0 .2-.3.3-.2.5v.2c.2.2-.2.2-.2.3v.2c-.2 0 0 .3-.2.3v.3c-1.2-.6-1.2-.6-1.2-.4zm27.2-21.2c-.2-.2 0 0 0 0zM161 114.2h.2c.2 0 .2-.2.3-.3 0 .2 0-.2.2 0 .2 0 .2-.2.3-.2 0-.2.2-.2.3-.2v-.2s0 .2 0 0c0 0 0 .2 0 0 0 0-.2 0-.2.2h-.1v.2c-.2 0-.3.2-.5.2 0 .2-.2 0-.2.2 0 0 0 .2-.2 0-.3 0-.5.2-.7.2s-.5 0-.7.3h-.2c-.2.2-.3.2-.5.3-.2 0-.3.2-.5.2-.2.2-.3 0-.5 0s-.3.3-.5.2c-.2-.2-.2.2-.3.2-.3-.2-.3 0-.5.2-.2 0-.3.2-.5 0 0 .2-.2-.2-.3 0 0-.2 0 .2-.2 0v.2s0 .2 0 0v-.2.7c0-.2 0 0 0 0 0 .2 0-.2 0 0h.2v-.4c0 .2.2.2.2.2 0 .2 0-.2 0 0v-.2h.2c0-.2.2 0 .2-.2 0 0 .2.2.2 0 0 0 .2 0 .2-.2 0 .2 0 .2.2.2 0 0 .2 0 .2-.2.2-.2.3-.2.5 0v-.3h.2s0 .2 0 0c.2 0 .5-.3.7-.3h.2c0-.2.2.2 0-.2.2-.2.2-.2.3-.2 0-.2.2 0 .2-.2.2-.2.3 0 .3-.2h.2c0-.2.2 0 .3-.2 0-.2.2 0 .2-.2.2.2.2 0 .2 0 0-.2.2 0 .2-.2l.2.6c0 .1 0 0 0 0zm-17.9 14.3c-.2-.2.2 0 0 0zm0 .9c.2-.2 0-.2 0-.3v-.2c-.2-.2 0-.2 0-.2v.2h-.2s0 .2-.2.2c.2.2 0 0 0 .2l.4.1c-.3-.2-.2 0-.3.2-.2.2-.3.2-.2.3v.2c.2.2-.2.2 0 .3 0 .2-.2.2-.2.3s-.2.2-.2.2c-.2 0 .2.2 0 .3-.2 0 .2.2 0 .2-.3 0-.2.2 0 .3-.2.2.2.2 0 .3.2 0-.2.2-.2.2-.2 0 .2 0 0 0h.2-.2.7c-.2 0 0 0 0 0 .2 0-.2 0 0 0v-.2h-.2.2c.2 0-.2 0 0 0h-.3l-.2-.2h.2l-.2-.2c-.2-.2-.2-.2 0-.2 0 0-.2 0-.2-.2v-.7c-.2-.2 0-.2 0-.2-.2-.2 0-.2 0-.2v-.2c-.2-.2.2 0 0-.2l-.2-.2c-.2-.2.2 0 0-.2 1.3.4 1.1.2 1.3.1v.2c-.2-.1 0-.1 0-.2zM142.4 131.9c0 .2 0 0 0 0zm-10.2-.8c-.2-.2 0 0 0 0zM131.3 132.1c.3-.2.3-.3.3-.5.2 0 0-.2.2 0 0-.2.2-.2.2-.3s0-.2.2-.2c0 0 0 .2 0 0v.2h-.2c-.2 0-.2.2-.3.3 0 .2-.2 0-.2.2v.2c-.2 0-.3.2-.5.3-.2.2-.5.2-.5.5 0 0-.2 0-.2.2s-.2.2-.2.3c-.2.2-.3.3-.3.5s-.3.2-.3.3c-.2 0-.2.3-.3.3s0 .3-.2.2c-.3 0-.3.2-.3.5-.2 0-.2.3-.3.3 0 .2-.2 0-.3.2-.2 0 .2.2 0 0-.2 0 .2.2 0 .2-.2-.2 0 0-.2 0l-.2-.2.2.2h.2s-.2-.2 0 0c0 0 0-.2.2-.2v-.2h.2c.2 0-.2-.2 0 0-.2-.2 0 0 0-.2h.2c0-.2.2 0 0-.2h.2c.2.2.2 0 .2.2v-.2c0-.2.2-.3.3-.3l-.2-.2h.2c.2-.2.2-.3.3-.5 0 0 0-.2.2-.2 0-.2.2 0 0-.2 0-.2.2-.2.2-.2 0-.2.2-.2.2-.3 0-.2.2-.2.3-.3v-.2c0-.2.2 0 .2-.2v-.2c-.2-.2.2 0 .2-.2.2 0 .2-.2.2-.2-.1.5-.1.6.1.3 0 .2 0 .2 0 0zM142.7 122.9l10.9-7.4L343.1 394l-10.9 7.4-189.5-278.5z" class="st41"></path><path d="M351 392.4c5.6-.5 7-8.7 7-13.2.3-8.2-.3-14.3 6.8-20.2" class="st3"></path><path d="M364.3 359.1s0 .2 0 0v-.2.2zm0 .2c-.2 0-.2 0 0 0zm-4.6 6.3c0-.3.3-.5.3-.9.3-.7.7-1.4 1.2-2v-.2c.2 0 .2-.5.3-.5v-.2c.3-.5.9-1 1.2-1.5.2-.5.7-.9 1.2-1.2-.2 0-.2.3-.3.3s0 .2 0 .2l-.5.5c-.2 0-.2.2-.3.2v.2c-.7.5-1.2 1.4-1.7 2-.2.5-.5.7-.7 1.2 0 .2-.2.3-.3.5v.2c-.7 1-1 2.2-1.4 3.4-.3 1.4-.7 2.6-.5 3.9v1c.2.9-.2 1.9 0 2.7v3.4c0 .9-.2 1.7-.2 2.6-.2.9 0 1.9-.3 2.7-.3.5-.2 1.4-.5 1.7-.5 1-.9 2-1.2 3.1-.7.9-1 1.7-2 2.2-.3.3-.9.3-1.4.5-.2 0-.3.3-.5.2-.2 0-.2.3-.2.2h-.2s0 .2 0 0-.3.2-.3-.2c0 0-.2 0 0-.2 0 0-.2 0-.2.2v.3c.2 0 .2 0 .3.2 0-.2.2 0 .2 0s.2-.2.2 0c.3 0 .7-.3 1-.3 0 0 .3-.2.2-.2.2 0 .3 0 .5-.2.3 0 .2-.2.3-.2 0-.2.3-.2.3-.3.3-.1.5-.4.7-.7 0-.3.5-.3.3-.7.2-.2.3-.3.3-.5.2-.2.3-.4.3-.7.2 0 .2-.2.3-.2 0-.2.2-.5.2-.9.2 0 0-.2.2-.2.2-.9.5-1.7.9-2.4 0-.2-.2-.3-.2-.3 0-.2.2-.3.2-.3 0-.2.2-.3.2-.5v-.2c.3-1.2.2-2.6.3-3.9v-1.2c-.2-.2.2-.3 0-.5V376c-.2-.5 0-1.2-.2-1.7-.2-.7 0-1.5.2-2.2v-.9c-.2-.5.3-1 .2-1.7 0-.2 0-.3-.2-.3v-.2c-.2-.3.2-.7.2-1.2v-.3c.2-.3.2-.9.3-1.2 0-.2.2-.5.2-.9v-.2c.9.9.9.6 1.1.4zm-8.2 27c-.2 0 0 0 0 0z" class="st45"></path><path d="M329.8 406.3c-2.7 1.5-4.6 3.2-6.3 5.8-2.2 3.1-5.1 6.1-9.1 6.8-1 1.9-7.3 2.4-9.4 2.7-2.6.2-7.3.7-9.6-.5 6.1-1.2 11.3-3.4 16.6-6.8 2.2-1.4 3.8-3.4 5.8-5 1.4-1.2 2.7-1.9 3.8-3.4-6.7 3.6-15.2 2.7-22-.2-3.8-1.5-7-3.1-10.9-4.4-3.8-1.2-10.1-4.1-11.4-8.2 3.9 6.7 16.1 7.9 18.6 9.2 3.6 1.7 11.3 1.2 14.7-1.4-1.7-1.2-3.9-1.7-5.6-3.2-1.7-1.5-3.6-3.4-4.6-5.6-2.2-4.3-1.9-10.1-1.9-14.9 2 2.6 2 5.8 3.1 8.7 1.9 5.3 7.2 11.4 13.5 11.3-3.2-1.5-6.8-6-8.5-9.1-2.4-4.3-.5-10.1-4.3-13.5.5 1 1.4 1.7 2 2.6 2.9 3.4 4.3 7.9 7 11.3 1.5 1.9 3.4 2.7 5.3 4.1 1.4 1 2.9 2.4 4.4 2.9 1.2.3 2 .5 3.4.3-1.9-1.7-3.4-3.8-4.8-6-2.4-3.8-5.3-9.1-5.3-13.7 1.2 3.9 4.3 7.7 7.2 10.6 1.7 1.9 3.6 4.1 5.6 5.6.9.7 2.4 1.9 3.6 1.7-2.4-.2-4.1-3.2-5.3-5.1-.7-1.2-1.4-2.4-1.9-3.8s-.3-3.1-.9-4.4c-.7-1.7-2.6-3.1-3.9-4.4-1.7-1.7-1.7-2.9-1.5-5.3 3.9 2 5.5 5.1 7.7 8.9 1.7 2.9 6.7 9.7 9.9 9.7-3.8-.9-7.9-8.7-9.2-12-1.2-2.6-2.9-10.9-7.5-10.2 4.6 0 6.7 1.4 9.9 4.6 2 2.2 4 4.5 5.8 6.8.7.9.9 1.9 2 1.5v-.9c1.9-7.5 5-14.7 3.4-22.4-.9-4.6-7.5-8.7-4.1-13.7.3 3.9 3.1 6.1 5 9.1 2 3.4 2.2 7.9 3.9 11.1 0 0 1 15-4.4 20.8 3.6-3.6 4.6-12.6 4.8-17.6.2-3.9-2.4-24.6 5.5-22.4-4.4 9.9 1.2 17.1 1.2 27.2 0 0-5.5 8.9-5.1 14.2-.3-7.2 6.1-14.5 8.2-17.3 2-2.9 1.5-3.6 3.8-6 0 0 3.8.9 10.8-3.8-5 5.8-6.5 12.6-7.3 18.6-.5 3.4-1 15-5.8 15.5" class="st3"></path><path d="M355.4 393.5h.3l.9-.3-1.2.3zm3.8-4.1c0 .2 0 0-.2.2 0 0 0 .2-.2.5l-.5 1c-.2.3-.3.7-.7 1l-.3.3c1.4-1 1.5-2.2 1.9-3zm.3-.9c.5-1.2.3-1.7.5-2 0 .5-.7 2.3-.5 2zm-10.7-40.1v.3c-.2-.2 0-.3 0-.3z" class="st45"></path><path d="M344.3 365.8v.3c-.2-5.3-.7-11.3.3-16.7v.3c.3-1.7.9-3.6 2.2-4.6.7-.5 1.5-.7 2.4-.5h.2v.2l-.2.5c-.2.3-.3.9-.5 1.2-.5 1.7-.9 3.4-.9 5.1 0 1.7.2 3.4.3 5.1.5 3.4 1.5 6.7 2 10.1.2.9.2 1.7.3 2.6v2c0 .2.2.5 0 .7l-2.4 4.6c0-.2.2-.3.2-.5-.3.7-.5 1.4-.9 2-.2.2 0-.2.2-.5-1 2-2.2 5.6-2 8.2h-.2c0-.9 0-1.5.2-2 0-.9.2-1.2 0-.7.7-3.9 2.7-7.3 5-10.6l3.6-4.8c.5-.9.9-1.7 1.4-2.7.5-1 1-1.7 1.9-2.6 1.9.3 3.4-.2 5-.9.9-.3 1.5-.7 2.2-1 .3-.2.7-.3 1-.7l.7-.3.9-.5c.7-.5.7-.5.5-.2l1.2-.7-.9 1c-.5.5-1.4 1.7-1.5 2l-1.9 3.1c-1 2.2-1.9 4.4-2.6 6.8-.7 2.4-1 4.8-1.4 7.3l-1 7.3c0 .3.2-1 .2 0 .7-3.1.7-5.8 1.2-8.5v.3c.3-2 0-.5.3-2.6.2-.9 0 .2.2-.2.7-4.3 2.2-8.7 4.3-12.3.2-.2.3-.5.7-1 .2-.2.3-.3.5-.7.3-.3.7-.9 1-1.4l1.2-1.4.5-.5h-.2c-.2.2-.5.3-.7.5l-2.4 1.5c-.3.2-.7.3-.9.5-.2.2-.4.3-.7.3-.3.2-.9.3-1 .5-1 .5-2 .9-3.1 1.2-.5.2-1 .2-1.5.3h-1.7l-.7.7c-.2.2-.3.5-.5.7l-.9 1.4-1.5 2.9-3.9 5.3c-2.4 3.6-4.6 7.9-4.4 12.5h.5c0-2.2.7-4.4 1.4-6.7.9-2.2 1.9-4.3 2.9-6.3.2-.5.5-.7.7-1.4v-1.5c0-1-.2-2-.3-2.9l-1.2-6.1c-1-4.1-1.9-8.5-.9-12.8.2-.7.3-1.5.7-2.2.2-.3.3-.9.5-1.4l.2-.2v-.2h-.1l-.5-.2h-.7c-1 0-1.9.5-2.6 1.4-.5.7-1 1.5-1.2 2.4l-.3 1.4c-.2.7-.2 1.4-.2 1.4-.3 2.8-.5 5.7-.5 8.5l.2 8.7c-.2 2.9-.5 5.8-1.2 8.5s-1.5 5.6-3.6 7.7l.3.3c1.5-1.7 2.6-4.1 3.1-6.3.7-2.2 1-4.6 1.2-7l.2-7c0-.3 0-.5-.2-1-.2-.3-.3-.5-.3-.9-.2-.5-.3-1-.7-1.5-.3-1-.7-2.2-.9-3.4-.4-1.4-.8-2.9-1.4-4.3-.7-1.4-1.5-2.6-2.4-3.6-.9-1.2-1.7-2.2-2.2-3.6-.2-.3-.3-.7-.3-1-.2-.3-.2-.5-.3-1.2l-.2-.9v-.3s-.2.2-.2.3c-.2.5-.7 1-.9 1.5-.5 1.4-.3 3.1.2 4.3.5 1.4 1.4 2.6 2.2 3.6.7 1.2 1.5 2.4 2 3.6.3 1.2.5 2.7.7 3.9.3 5.5-1.4 10.9-2.9 16.2l-.5 2-.2 1v.9s-.3 0-.7-.2c-.2-.2-.3-.5-.5-.7-.3-.7-.9-1.2-1.4-1.7-1.7-2.2-3.6-4.4-5.8-6.5l.3.3c-1.4-1.2-2.7-2.4-4.4-3.2-1.7-.7-3.4-1-5.1-1v.3c1.4-.2 2.7.5 3.4 1.7.9 1 1.5 2.4 2 3.6.7 1.5 1.2 3.1 1.7 4.8.7 1.5 1.5 3.1 2.4 4.6.9 1.5 1.7 2.9 2.9 4.3 1 1.4 2.4 2.7 4.1 3.1v.2c-1.2 0-2-.7-3.1-1.4-.9-.7-1.7-1.5-2.4-2.4-1.5-1.7-2.9-3.6-4.1-5.5-1.2-1.9-2.2-3.9-3.6-5.6-.7-.9-1.5-1.7-2.4-2.4-.5-.3-.9-.7-1.4-.9l-.3-.2-.2-.2s-.2-.2-.2 0v.9c0 1 0 2.2.7 3.1.5 1 1.4 1.7 2.2 2.4.9.7 1.5 1.5 2.2 2.4s.7 2 .9 3.2c0 .5.2 1.2.3 1.7.2.5.3 1 .7 1.5l1.7 3.1c.7 1 1.2 2 2 2.9.9.9 1.7 1.7 3.1 1.9v-.2c-1 0-1.9-.5-2.7-1l-2.4-2c-1.5-1.4-2.9-3.1-4.3-4.6-2.9-3.1-5.6-6.3-7-10.4v-.2.2c0 2.2.7 4.3 1.4 6.1 1 2.6 2.4 5 3.8 7.2.7 1.2 1.4 2.2 2.2 3.2.3.5.9 1 1.4 1.5.5.5.9 1 1.4 1.4H323c-.7 0-1.2-.2-1.9-.3-1.2-.5-2.2-1.2-3.1-1.9-1.9-1.5-4.3-2.7-6-4.4-3.4-3.8-4.6-8.9-8.2-12.5-.5-.5-1-1.2-1.4-1.7l-.2.2c1.5 1.5 2.2 3.8 2.6 5.8.3 2.2.3 4.4 1.2 6.5.9 2 2.2 3.9 3.8 5.6 1.4 1.7 3.1 3.4 5.1 4.3.3.2 0 0-.2 0h-.5c-.3 0-.9-.2-1.2-.2-.9-.2-1.5-.5-2.4-.9-1.5-.7-2.9-1.7-4.1-2.9-2.4-2.4-4.1-5.3-5.1-8.4-.7-2.4-.7-5.1-2.6-7.5l-.2-.2v3.9l.2 4.3c.3 2.7.9 5.6 2.4 7.9.7 1.2 1.7 2 2.6 3.1.9.9 1.7 1.7 2.7 2.4.7.5 1.5.9 2.2 1.2.3.2.9.3 1.2.7l.5.3.2.2-.2.2c-1.4.9-3.1 1.4-4.8 1.7-3.4.5-7 .7-10.1-.9l-9.9-2.9c-3.1-1.2-6.3-2.9-8.2-6h-.2c1 2.6 3.2 4.1 5.5 5.5s4.8 2.2 7.2 3.1c4.3 1.4 8.2 3.6 12.3 5 4.3 1.4 8.7 1.9 13 1.4 1-.2 2.2-.3 3.2-.7l1.5-.5c.2 0 .7-.2.9-.3l.9-.3c.2 0 .3-.2.3-.2l-.3.3c-.2.2-.3.5-.5.7-.5.5-.9.9-1.4 1.2l-2.6 2c-1.5 1.4-3.1 3.1-5 4.3-1.8 1.2-3.7 2.2-5.6 3.1l-5.8 2.4c-1 .3-2 .7-3.1.9-.5.2-1 .2-1.5.3h-.2c.2.2.5.2.7.3 2 .5 4.4.5 6.7.3l6.7-.7h-.3c1.5-.2 3.4-.7 4.8-1.7.2-.2.2-.3.3-.5.2 0 .3-.2.5-.2.3-.2.7-.2 1-.3.7-.2 1.2-.5 1.7-.7l-.3.2c1.5-.7 3.1-2.6 3.8-3.2l.2-.2c1.4-1.5.2-.2 1.2-1.4.3-.5 0-.2.9-1.2.2 0 .9-1 1.7-2 .9-.9 1.9-1.7 2-1.7-.9.7 1.4-1-.5.5.3-.2 1-.9 1.9-1.4.7-.5 1.4-.9 1.2-.9.2-.2 1.4-1-.5 0l-.3.3c-.7.3-.5.3-.7.3-2.2 1.5-2.6 1.9-3.9 3.2-.9 1-1.9 2.6-2.6 3.4l-.3.3c-.5.5-2 2.2-1.5 1.7-1 .9-2.2 1.7-3.6 2.4-.3.2-.7.3-1 .3-.2 0-.3.2-.5.2h-.3c-.2 0-.3.2-.3.3-.3.5-1 .9-1.9 1.2-2.9 1-6.1 1.2-9.2 1.5-.9.2-4.8 0-3.4.2-.3 0-1-.2-1.7-.2-.3 0-.7-.2-1-.2-.2 0-.3-.2-.3-.2s-.2 0 0 0h.7l1.7-.3s-.2 0-.3.2c3.2-.9 3.8-1.4 6.8-2.4.2-.2 1.5-.7 2.9-1.5 1.4-.7 2.9-1.7 3.6-2.2.3-.2.5-.2.3-.2 2.6-1.5 4.3-4.1 6.7-5.6l.9-.7.9-.9c.5-.5.9-1 1.2-1.4l.5-.7.2-.2h-.2l-.3.2c-.5.2-1 .3-1.5.7-.3.2-.7.3-.9.3l-.5.2-1.7.5c-1.9.7-4.4.9-6.8.9s-4.6-.5-6.3-.9c-2.9-.7-7.2-2.7-10.9-4.3l.3.2-6.8-2.6c-2.2-.9-4.3-1.9-5.5-2.7-1-.9-2.6-2-3.6-3.8-.2-.2-.2-.5-.5-1l-.7.3c.9 1.4 2.4 3.1 4.4 4.3s4.3 2 6.3 2.7c.7.3 3.8 1 3.9 1.2 1.5.3 3.2.7 4.8 1.5 1.7.5 3.6.7 5.3.7 1.9 0 3.6-.3 5.5-.9l2.6-1 .9-.5.2-.2-.2-.2-.5-.3c-.5-.3-.9-.5-1.4-.7-1.7-.9-3.2-1.7-4.6-3.1-1.4-1.4-2.6-2.7-3.6-4.3-1.9-3.2-2-7-2-10.4v.2c0-.9-.2-1.9-.2-2.9v-1.7l.2.2c0 .2 0 .2 0 0 .2.2.2.3.3.5.2.3.3.5.3.9l.5 1.7c.3 1.2.5 2.4.9 3.8l-.2-.3c.7 2.4 1.7 4.8 3.6 7v.2s.3.3.5.7l.7.7s-.2 0-.9-.7c1.4 1.5 2.7 2.9 4.6 3.9s3.4 1.5 7 1.4c-.5-.2-1-.5-1.5-.9-.5-.2-1.2-.7-1.2-.7-.5-.3-.9-.7-1.2-1-.9-.7-1.5-1.5-2.2-2.4-1.4-1.7-2.7-3.6-3.6-5.5-.9-2-1-4.3-1.2-6.5-.3-2.2-.9-4.6-2.7-6.1l-1-.9.7 1.2c.5 1.2 1.5 1.9 2.2 2.9.7.9 1.4 1.9 2 2.9l3.6 6.3c.7 1 1.4 2 2.4 2.9.9.9 1.9 1.5 2.9 2.2 2 1.2 3.8 3.1 6.1 3.9l-.9-.3c.7.3 1.4.5 2 .5h2.4l-.2-.2s.2.2.3.2h-.3.3l-1.2-1-.7-.7c-.5-.5-.9-1-1.4-1.5-.9-1-1.5-2.2-2.4-3.4-1.5-2.4-2.7-4.8-3.8-7.3 0 0 .3.9.2 0-.9-2.2-1.2-4.1-1.2-5.6h-.5c.3.8.6 1.6 1 2.4 0 .2.2.3-.2 0 1.7 3.4 4.3 6.3 6.8 8.9l3.9 4.1c.7.7 1.4 1.2 2.2 1.9.9.5 1.7 1 2.7 1v-.3c-.9-.2-1.7-.7-2.4-1.2-.7-.7-1.2-1.4-1.7-2.2-1-1.5-2-3.2-2.7-5-.5-1-.5-2.2-.7-3.4s-.9-2.4-1.7-3.2l-2.7-2.6c-.9-.9-1.4-2-1.4-3.2 0-.5 0-1.4.2-1.5l1.5.9c1 .7 1.9 1.5 2.7 2.6 1.5 1.9 2.7 4.3 3.9 6.3l3.9 5.1c.7.9 1.5 1.5 2.4 2.2.9.7 1.9 1.2 2.9 1.4-2-.5-3.6-2.6-4.8-4.1-1.2-1.7-2.4-3.8-3.4-5.6s-1.7-4.1-2.4-6.1c-.9-2-1.7-4.1-3.4-5.5-.9-.7-1.9-.9-2.6-.7v.2c2 0 3.9.3 5.6 1.2s3.1 2.2 4.6 3.8v.2c1.7 1.7 3.1 3.4 4.6 5.3.3.5.9.9 1 1.5.3.5.7 1 1.4 1h.2c.2 0 .2 0 .2-.2v-.5c0-.3 0-.5.2-.9l.5-1.7c1.4-4.8 2.9-9.4 3.1-14.3v.7-3.4c0-1.2-.2-2-.3-1.9 0 0-.2-1.7-.3-1.7-1-3.1-3.4-5.3-4.6-8.2-.3-.7-.3-1.5-.3-2.4s.3-1.7.9-2.4c0 0 .2-.3.2-.2v.3c0 .2 0 .3.2.7 0 .3.2.9.3 1.4.3.9.9 1.7 1.4 2.6l-.3-.3c1.2 1.7 2.9 3.6 3.6 5-.2-.2 0-.2-.3-.5 1.7 2.9 2 6.5 3.4 9.9.2.3.3.9.5 1.2.2.3.2.9.2 1.4v2.7c0 1.7-.2 3.6-.3 5.3v-.9c-.2 1.5-.3 3.9-1 6.1-.7 2.2-1.7 4.6-3.1 6.3l.3-.3s1.4-1.9 1.2-1.9h.2c1.4-2.6 2-5.5 2.6-8.2 0-3.6.2-6.3.2-9.2zm3.6 11.9c0-.1 0-.1 0 0 .2-.3.2-.1 0 0z" class="st45"></path><path d="m323.8 410.9.5-.5-.5.5zm-4.3-11.3c0 .3 0 0 0 0zm0 .2s0-.2 0 0zm.9-.4s0-.1 0 0c-.2 0-.3 0-.3.2 0-.2 0 0 0 0v.2s-.2 0-.2.2-.2.2-.2 0v.2s0-.2 0 0c0 0 0-.2 0 0v.2-.2h.3c0-.2.2 0 .2 0l.2-.8c0 .3.2.2.3.3.2 0 .3.2.3 0h.2c.2-.2.2 0 .3-.2h.3c.2 0 .2.2.3 0 .2 0 .2-.2.3-.2 0 .2.2-.2.2 0 .2.3.2.2.3 0 .2.2.2-.2.3 0 0-.2.2.2.2.2 0 .2 0-.2 0 0v-.2s0-.2 0 0v.3-.7c0 .2 0 0 0 0 0-.2 0 .2 0 0h-.2v.2-.2c0-.2 0 .2 0 0v.2h-.2v.2s0-.2 0 0v.2-.2l-.2.2c0 .2-.2.2-.3 0v.3s0-.2 0 0c0 0 0-.2 0 0 0 0 0-.2 0 0-.2 0-.3.2-.3.2h-.2c0 .2 0-.2 0 0h-.2c0 .2-.2 0-.2.2s-.2 0-.2 0h-.2c0 .2-.2-.2-.2 0v.2c0 .2 0-.2-.2 0 0-.2-.2 0-.2 0 0-1 0-1.1-.2-1 0-.1 0 0 0 0zm3.1 2.8c-.2.1 0 0 0 0zM323.5 402.2c0 .1 0 0 0 0zm.7.1s0-.1 0 0c-.2-.2-.2 0-.3 0 0-.2 0 0 0 0h-.2c-.2.2-.2 0-.2 0s0-.2 0 0h.2v.2h.2c.2-.2 0 0 .2 0-.1 0-.1-.2.1-.2-.2.3 0 .2 0 .3 0 0 .2.2.3 0s.2 0 .2 0h.2c.2 0 0 .2.2.2 0 .2.2-.2.2 0s.2-.2.2 0c0 .3.2.2.2 0 0 .2.2 0 .2.2.2-.2 0 .2 0 .2 0 .2.2-.2 0 0 0 .2.2-.2 0-.2-.2.2 0 0 0 .2v.2l.2-.2v-.2s-.2.2 0 0h-.2v-.2c0-.2-.2.2 0 0 0 .2 0 0-.2.2v-.2c0 .2 0 0-.2 0 0 0 0-.2 0 0h-.2v-.2h-.3c-.2.2-.2 0-.2-.2l-.2.2s0-.2 0 0c0 0 0-.2 0 0h-.3s0-.2 0 0h-.2c-.2.2-.2 0-.2.2-.2.2-.2 0-.2 0-.2.2 0-.2-.2 0v.2c-.2.2 0-.2-.2 0 1.2-.8 1-.7.9-.7.1-.1 0 0 0 0zm19.1-17.6c-.2-.1 0 0 0 0zm0-.1c-.2 0 0 .1 0 0 0 .1 0 .1 0 0zM343.3 385.4c-.2 0 0 0 0 0 .2-.2 0-.2 0-.3v-.2c-.2-.2 0-.2 0-.2v.2h-.2v.2c.2.2 0 0 0 .2l.2.1c-.3 0-.2 0-.3.2 0 .2-.2.2 0 .3v.2c.2.2 0 .2.2.3v.3c0 .2-.2.2 0 .2 0 0 .2.2 0 .3-.2 0 .2.2 0 .2-.3.2-.2.2 0 .3-.2.2.2.2 0 .3.2 0-.2.2-.2.2-.2 0 .2 0 0 0h.2-.2.7c-.2 0 0 0 0 0s-.2 0 0 0h-.2.2c.2 0-.2 0 0 0h-.5c-.2 0-.2-.2 0-.2h-.3c0-.2-.2-.2-.2-.3v-.2c-.2 0 .2 0 0 0v-.2c-.2 0 0-.2-.2-.2-.2-.2 0-.2 0-.2-.2-.2.2 0 0-.2h-.2c-.2-.2.2 0 0-.2 1-.7.8-.9 1-1.1v.2c-.2 0 0 0 0-.2zm7.3-1.7c-.1-.2.2 0 0 0zM350.6 384.6c.2-.2 0-.3 0-.3v-.3c-.2-.2 0-.2 0-.2h-.2v.2h-.2c-.2 0 0 .2-.2.3.2.2 0 .2 0 .2l.6.1c-.3-.2-.2 0-.3.2s-.3.2-.2.5v.2c0 .2-.2.2 0 .3 0 .2-.2.2-.2.3s-.2.2-.2.2c-.2 0 0 .3-.2.3s0 .2-.2.2c-.3 0-.2.2-.2.3-.2 0 0 .3-.3.2 0 .2-.2 0-.2 0-.2 0 .2.2 0 0 0 0 .2.2 0 .2l-.2-.2s.2 0 .2.2c0 0-.2-.2 0 0v-.3h.2c.2.2-.2-.2 0 0-.2-.2 0 0 0-.2h.2c0-.2.2 0 0-.2v-.2c.2.2.2 0 .2 0v-.2c-.2-.2 0-.2.2-.2l-.2-.2c.2-.2 0-.3.2-.5v-.2s.2 0 0-.2c0-.2 0-.2.2-.2-.2-.2 0-.2 0-.3s.2-.2.2-.2v-.2c-.2-.2.2 0 0-.2l-.2-.2c-.2-.2.2 0 0-.2.2 0 0-.2 0-.2.9 1.3 1 1.3 1 1.2 0 .1 0 0 0 0zM313.4 403.7v-.2.2zm0-.2c.2.2 0 0 0 0zm.3-.3s0-.2 0 0c-.1-.2-.1 0 0 0-.1 0-.1.2 0 0-.1 0-.1 0 0 0-.2 0-.2.2-.2.2v.5s0-.2 0 0c0 0 0-.2 0 0v-.2c0 .2 0 0 0 0v-.2h.2c0-.2 0 0 0 0v-.3c.2.3.2.2.2.2s.2.2.2-.2c0-.2.2 0 .2-.2h.2s.2.2.2 0c0 0 0-.2.2-.2 0 .2 0-.2.2 0s.2 0 .2-.2c0 0 0-.2.2 0 0-.2.2.2.2 0 0 .2 0-.2 0 0s-.2-.2 0-.2l.2.2v.2c0-.2-.2-.2-.2-.2v-.2s0 .2 0 0v.2-.2c0-.2 0 .2 0 0v.3s0-.2 0 0v.2-.2.2c0 .2 0 .2-.2 0v.3s0-.2 0 0l-.2.2c0 .2 0-.2 0 0h-.2v.2c0 .2 0 0-.2 0 0 .2-.2-.2 0 0v.2c0 .2 0-.2 0 0-1-.6-1-.6-1.2-.6.2-.2.2 0 0 0 .2 0 0-.2 0 0 0-.2 0 0 0 0zm104.4 98.2-41.3-52.8M335.9 395v-.2.2zm-.1 0c0-.2 0 .2 0 0zM334.6 395.7c0-.2.1 0 0 0 .3 0 .3-.2.5-.2 0 .2 0 0 .2 0v-.2c.2 0 .2 0 .3-.2 0-.2.2-.2.3-.2v-.2s0 .2-.2 0c0 0 0 .2 0 0 0 0-.2 0-.2.2v-.2.2c-.2 0-.3 0-.5.2 0 .2-.2 0-.2.2h-.2c-.2-.2-.3.2-.7.2-.2 0-.5 0-.5.3 0 0-.2 0-.2.2s-.3.2-.3.3c-.2 0-.3.2-.5.3s-.3 0-.3.2c-.2 0-.2.3-.3.2s-.2.3-.3.2-.3 0-.5.2c-.2 0-.3.2-.5 0 0 .2-.2-.2-.2-.2 0-.2 0 .2-.2 0v.2s0 .2 0 0v-.4.7c0-.2 0 0 0 0 0 .2 0-.2 0 0h.2v-.2.2c0 .2 0-.2 0 0v-.2h.2c0-.2.2 0 .2-.2 0 0 .2.2.2 0 0 0 .2 0 .2-.2 0 .2 0 .2.2.2l.2-.2c0-.2.2-.2.5-.2v-.3h.2s0 .2 0 0c.2 0 .3-.3.5-.3l.2-.2c0-.2.2.2 0-.2 0-.2.2-.2.3-.2 0-.2.2-.2.2-.3s.2-.2.3-.2l.2-.2c0-.2.2 0 .2-.2v-.2c0-.2.2 0 .2-.2.2.2.2 0 .2 0-.3 1.3-.1 1.3.1 1.3-.2 0 0 0 0 0zm2.4-9.8-.2.2.2-.2zM335.9 385.1s0 .2 0 0c0 .3.2.3.3.5 0 0 .2 0 0 .2 0 0 .2.2.3.2s.2 0 .2.2c0 0-.2 0 0 0h-.2v-.2h-.2c0-.2-.2-.2-.2-.3-.2 0 0-.2-.2-.2 0-.2-.2-.3 0-.5 0-.2 0-.5-.2-.5v-.2c-.2-.2 0-.3-.2-.3 0-.2 0-.3-.2-.5s0-.3 0-.5-.2-.3-.2-.5c.2-.2-.2-.2 0-.3s0-.3-.2-.5c.2-.2-.2-.3 0-.5-.2 0 .2-.2.2-.2.2 0-.2 0 0 0h-.2s-.2 0 0 0h-.3c-.2 0 .2 0 0 0v.2c-.2 0 .2 0 0 0h.2v.2c.2 0 0 .2.2.2 0 0-.2 0 0 .2 0 0 0 .2.2.2h-.2l.2.2c.2.2.2.3 0 .3h.3s-.2 0 0 0c0 .2.2.3.2.7v.2h.2c.2.2.2.2.2.3.2 0 0 .2.2.2.2.2 0 .2.2.3v.2c.2 0-.2.2.2.3h.2c.2 0 0 .2.2.2-.2.2 0 .2 0 .2-1.2-.2-1.3-.2-1.2 0zM350.5 372.6c-.2-.2.1 0 0 0zm-1.2 2.7c0-.2.2-.2.2-.3.2-.2.2-.5.3-.9.2 0 0-.2.2-.2.2-.2.2-.5.2-.7 0-.3.2-.3.2-.5v.2c0 .2-.2.2 0 .3h-.2v.2c-.2.3-.3.5-.5.9 0 .2-.2.3-.2.5v.3c-.3.3-.5.7-.7 1-.3.3-.7.7-.7 1.4 0 .2-.2.2-.2.3 0 .3-.3.7-.3 1-.2.3-.3.7-.5 1.2 0 .3-.3.5-.3.9-.2.3 0 .7-.2 1-.2.2 0 .5-.2.7-.3.3-.3.9-.2 1.2-.2.3 0 .7-.2 1 .2.2-.2.3-.2.5-.2 0 .2.2 0 .2s.2.2.2.2c-.2 0 0 .2-.2.2h-.2s0 .2 0 0h.5s.2 0 .2-.2c-.2 0 0 0 0-.2.2 0-.2 0 0 0v-.3s0-.2-.2 0c.2 0 .2-.2.2-.2.2 0-.2-.2 0-.2-.2 0 0-.2-.2-.2 0-.2 0-.2.2-.3-.2-.2 0-.2-.2-.3 0 0 .2-.2 0-.2v-.3h.2v-.3h.2c-.2-.3 0-.7.2-.9l-.2-.2s.2 0 .2-.2c0 0 .2 0 0-.2.2-.5.2-1 .3-1.4v-.2c.2-.2 0-.2.2-.3 0-.2.2 0 0-.2 0-.2.2-.5.2-.7-.2-.3.2-.3.2-.7 0-.3.2-.5.3-.7 0-.2 0-.2.2-.3 0-.3.3-.3.3-.5 0 0 .2-.2 0-.2-.2-.2.2-.2.2-.3v-.2c.2 0 .2-.3.2-.3 0-.2.2-.2.2-.3.3.1.3-.1.3-.1zm6.3 17.8-.2.2c.2.2 0-.2.2-.2zm4.1-6.1c0 .3-.2.5-.3.9-.3.7-.5 1.4-.9 2v.2c-.2.2-.2.5-.3.5-.3.5-.7 1-1.2 1.5-.3.5-.9.9-1.2 1 .2 0 .2-.3.3-.3s0-.2.2-.2l.5-.5c.2 0 .2-.2.3-.2v-.2c.7-.5 1.2-1.4 1.5-2 0-.5.5-.9.5-1.2 0-.2.2-.3.2-.5v-.2c.5-1 .7-2.2.9-3.4.2-1.4.5-2.4.3-3.8v-1c0-.9.2-1.7.2-2.6l.5-3.1c.2-.9.5-1.5.7-2.4.3-.9.3-1.7.9-2.6.3-.5.3-1.2.7-1.5.7-.9 1-1.7 1.4-2.9.5-.9.7-1.9 1.2-2.6.2-.5.7-.7.9-1.2.2 0 .2-.3.3-.3s0-.3.2-.3h.2v-.1c.2.2.2-.2.3 0 0 0 .2 0 0 .2l.2-.2c0-.2 0-.2-.2-.2h-.3c0 .2-.2.2-.2.2-.2 0 0 .2-.2.2-.2.2-.5.5-.7.9 0 0-.2.2 0 .2-.2 0-.3.2-.3.3-.2 0 0 .3-.2.3.2.2-.2.3-.2.3-.2.3-.3.5-.5.9 0 .3-.3.5-.2.7-.2.2-.3.3-.3.5-.2.2-.2.5-.2.7-.2 0-.2.2-.3.2 0 .2-.2.5-.2.7 0 0 0 .2-.2.2-.2.7-.7 1.5-1 2 0 .2.2.3.2.3 0 .2-.2.2-.2.3s-.2.2-.2.3v.2c-.5 1.2-.7 2.4-1 3.6v.2c-.2.3-.2.7-.2.9 0 .2-.2.3 0 .5 0 .7-.2 1.2-.3 1.9 0 .5-.2 1 0 1.7 0 .7-.2 1.4-.2 2.2v.9c.2.5-.2 1-.2 1.5.2.2 0 .3.2.3v.2c.2.3-.2.7 0 1v.3c-.2.3 0 .7-.2 1.2 0 .2-.2.5-.2.7v.2c-1-.1-1 .1-1 .5zm-2.4-18.1v.2-.2zm0 .3c0-.3.2 0 0 0zm-1.2 3.2c0-.2.2-.2.2-.3.2-.3.2-.7.2-1 .2 0 0-.2.2-.2.2-.3.2-.5.3-.9 0-.3.2-.5.3-.7-.2 0 0 .2-.2.2v.2c0 .2-.2.2-.2.3-.2 0 0 .2-.2.2v.2l-.5 1c.2.2-.2.3-.2.7v.5c-.3.5-.3 1-.5 1.5s-.3 1.2-.2 1.7v.5c.2.3 0 .9.2 1.2v1.5c0 .3-.2.7 0 1.2-.2.3.2.9 0 1.2-.2.2.2.5 0 .9-.3.5-.2.9-.2 1.4-.2.3 0 .9-.3 1.2 0 .2-.3.3-.3.5-.2 0 .2.2-.2.2-.2 0 .2.2 0 .2h-.2c-.2 0 0 .2-.2 0h-.2v.2c.2 0 .2.2.2.2h.3v-.2c.2 0-.2-.2 0 0 0-.2.2-.3.2-.5v-.2c.2 0 .2-.2.2-.2.2 0-.2-.2.2-.2-.2 0 .2-.2 0-.2 0-.2.2-.3.2-.3-.2-.2.2-.2 0-.3 0 0 .2-.2.2-.3v-.3c.2 0 .2 0 .2-.2v-.3s0-.2.2-.2c-.2-.3 0-.7.2-1 0 0-.2-.2-.3-.2 0 0 .2-.2 0-.2 0 0 .2-.2 0-.2 0-.5-.2-1.2 0-1.7v-.5c-.2-.2.2-.2 0-.2v-.9c-.2-.2 0-.5-.2-.7-.2-.3 0-.7 0-1v-.3c-.2-.2.2-.5 0-.7-.2 0 0-.2-.2-.2-.2-.2.2-.3 0-.5v-.2c.2-.2 0-.3 0-.5v-.3c.8-.9.8-1.1.8-1.1zm-22.2 19.9c0 .1.2 0 0 0zm1.2.1c-.2 0-.2-.1 0 0-.2-.2-.3 0-.3 0 0-.2 0 0 0 0h-.3c-.2.2-.2 0-.2 0s0-.2 0 0h.2v.2c.2.2.2 0 .3.2.2-.2.2 0 .2 0h.2l-.1-.4c0 .3.2.2.3.3.2 0 .3.2.5 0h.2c.2-.2.2 0 .3-.2h.3c.2 0 .2.2.3 0 .2 0 .2-.2.3-.2 0 .2.2-.2.2 0 .2.3.3 0 .3-.2.2.2.2-.2.3 0 0-.2.2.2.2.2 0 .2 0-.2 0 0v-.2s0-.2 0 0v.2-.7c0 .2 0 0 0 0 0-.2 0 .2 0 0h-.2v.2-.2c0-.2 0 .2 0 0v.2h-.2c0 .2 0 0-.2.2 0 0 0-.2 0 0l-.2.2v-.2l-.2.2c0 .2-.2.2-.3 0v.3s0-.2 0 0c-.2 0-.3.2-.5.2h-.2c0 .2 0-.2 0 0h-.2c0 .2-.2 0-.2.2-.2.2-.2 0-.3 0h-.2c0 .2-.2-.2-.2 0v.2c0 .2 0-.2-.2 0 0-.2-.2 0-.2 0 .5-.7.5-.7.3-.7z" class="st45"></path><path d="M151.8 121.2s.2 0 .2-.2l.5-.5c.2 0 0-.2.2-.2.2-.2.3-.2.3-.3 0-.2.2-.3.3-.3 0 0 0 .2-.2.2 0 0 0 .2 0 0 0 0-.2 0-.2.2h-.2v.2l-.5.5c0 .2-.2.2-.3.2 0 0 0 .2-.2.2-.3 0-.5.3-.9.5-.3.2-.7.2-.9.7 0 0-.2 0-.2.2-.2.2-.5.2-.5.5-.3.2-.5.3-.9.5-.2.2-.5.2-.7.2-.3 0-.3.3-.7.3-.2-.2-.3.3-.5.2-.3-.2-.5 0-.9.3-.3 0-.5.3-.9.2-.2.2-.3-.2-.3 0 0-.2 0 .2-.2 0v.2s0 .2 0 0 0 0-.2-.2v-.2.7s0 .2.2.2c0-.2 0 0 0 0s0-.2 0 0c0 0 .2 0 .3-.2v-.2c0 .2.2.2.2.2 0 .2 0-.2.2 0 0-.2.2 0 .2-.2h.3c0-.2.2 0 .2-.2h.2s.2 0 .2-.2c0 .2 0 .2.2.2l.2-.2c.2-.3.3-.3.7-.2v-.3h.3s0 .2 0 0c.3 0 .7-.3 1-.5.2 0 .2-.2.2-.2 0-.2.2 0 .2-.2.2-.2.3-.2.5-.3 0-.2.3-.2.3-.3.2-.2.3-.2.5-.3l.2-.2c0-.2.3 0 .3-.3 0-.2.2 0 0-.2 0-.2.2 0 .2-.2 0 0 0-.2 0 0 .2 0 .2-.2.3-.2 0-.2.2-.2.2-.2.4.2.4.1.6.1z" class="st3"></path><path d="M146.7 128c.1 0 .1-.2 0 0zm2.5-1.4c0 .2-.2 0-.3.2-.2.2-.3.3-.7.5-.2 0-.2.2-.2 0v.2c-.2.2-.3.2-.7.3-.2.2-.3.2-.5.2v.2s.2-.2.2 0c0 0 0-.2 0 0 .2 0 .2 0 .3-.2 0 .2.2 0 .2 0v-.2c.3 0 .7-.2.9-.3 0-.2.3-.2.5-.3 0 0 0-.2.2-.2v-.2c.5-.2.7-.5 1-.7.3-.3.9-.5.9-1 0-.2.2-.2.2-.3 0-.3.3-.5.5-.9.2-.3.5-.7.5-1 .2-.3.3-.5.5-.7.2-.2.2-.7.3-.9.2-.2 0-.5.3-.5.3-.2.3-.7.3-1 .2-.3.2-.7.5-.9 0-.2.3-.2.3-.5.2 0-.2-.2 0-.2s-.2-.2 0-.2 0-.2.2 0h.2v-.2c-.2 0-.2-.2-.3-.2h-.3v.2c-.2 0 .2.2 0 0 0 .2 0 .2-.2.3v.2c-.2 0-.2 0-.2.2-.2 0 .2.2-.2.2.2 0 0 .2 0 .2 0 .2-.2.2-.2.3 0 .2-.2.2 0 .3l-.2.2v.3h-.2v.3c0 .3-.2.5-.3.7l.2.2s-.2 0-.2.2c0 0-.2 0 0 .2-.2.3-.3.9-.5 1.2v.2c-.2 0 0 .2-.2.3 0 .2-.2 0 0 .2 0 .2-.2.3-.3.5 0 .3-.2.3-.2.5 0 .3-.3.3-.5.7l-.2.2c0 .2-.3.2-.3.5 0 .2-.2 0 0 .2 0 .2-.2.2-.2.3v.2c-.2 0-.2.2-.3.3 0 .2-.2.2-.2.2-.6-.6-.6-.5-.6-.5zm8.2-3.2h.2-.2zm.2.2c-.2-.2 0 0 0 0z" class="st3"></path><path d="M155.6 125.3c0-.2.2 0 .3-.2.3-.2.5-.3.7-.5.2 0 .2-.2.2-.2l.5-.5c0-.2.2-.3.3-.5 0 0 0 .2-.2.2l-.2.2h-.2v.2c-.3.2-.5.3-.7.5 0 .2-.3.2-.3.3l-.2.2v.2c-.3 0-.7.3-1.2.3-.5.2-.9.2-1.2.5-.2 0-.2 0-.3.2-.3.2-.7.2-.9.3-.3 0-.7.2-1.2.3-.3.2-.7 0-.9 0-.3 0-.7.3-1 .2-.2-.2-.5.2-.7 0-.3-.2-.7 0-1.2.2-.3 0-.7.2-1 0-.2.2-.3-.2-.5-.2 0-.2-.2.2-.2 0s0 .2-.2.2c0 0 0 .2 0 0s-.2 0-.2-.2v-.2.7s0 .2.2.2c0-.2 0 0 .2 0 0 .2 0-.2 0 0h.3s.2 0 0-.2c0 .2.2.2.2.2 0 .2 0-.2.2 0 0-.2.2 0 .2-.2h.3c0-.2.2 0 .3-.2 0 0 .2.2.2 0 .2 0 .2 0 .3-.2 0 .2 0 .2.2.2 0 0 .2 0 .3-.2h.2c.2-.2.5-.2.9 0 0 0 0-.2.2-.3h.3s0 .2 0 0c.5 0 .9-.3 1.4-.3h.3c0-.2.2.2.2-.2.2-.2.5-.2.7-.2.2-.2.3-.2.5-.3.2-.2.5-.2.7-.2s.2 0 .3-.2c.2-.2.3 0 .5-.2 0-.2.2 0 0-.2 0-.2.3 0 .3-.2h.2c.2.2.2-.2.3-.2 0-.2.2 0 .2-.2.2 1 .2 1 .4.9zm-10.1 2.2c-.2 0 0 0 0 0zm4.1 5.3c0 .1 0 0 0 0zm.1 0s0-.2 0 0z" class="st3"></path><path d="M152.5 131.2c0 .2-.2.2-.3.2-.3.2-.5.3-.9.5-.2 0-.2.2-.2 0v.2c-.2.2-.5.2-.7.3-.2.2-.5.2-.7.2v.2s.2-.2.2 0c0 0 0-.2 0 0 .2 0 .2 0 .3-.2 0 .2.2 0 .2 0v-.2c.3 0 .7-.3 1-.3 0-.2.3-.2.5-.3l.2-.2v-.2c.5-.2.9-.5 1.2-.9.5-.3.9-.7 1-1.2 0-.2.2-.2.2-.3l.5-1c.2-.3.3-.9.5-1.2 0-.3.3-.7.3-1 .2-.3 0-.9.2-1.2.2-.2 0-.5.2-.7.3-.3.2-.9.2-1.4.2-.3 0-.9.2-1.2-.2-.2.2-.3.2-.7.2 0-.2-.2 0-.2s-.2-.2-.2-.2-.2 0 0 0 0-.2.2-.2h.2s0-.2-.2-.2h-.5s-.2 0-.2.2c.2 0 0 0 0 .2-.2 0 .2 0 0 0v.3s0 .2.2 0c-.2 0-.2.2-.2.2-.2 0 .2.2 0 .2.2 0 0 .2.2.2v.3c.2.2 0 .2.2.3 0 0-.2.2 0 .3 0 .2 0 .2.2.3-.2 0-.2 0-.2.2v.3s0 .2-.2 0c.2.3 0 .7-.2 1l.2.2-.2.2s-.2.2 0 .2c0 0-.2 0 0 0-.2.5-.2 1-.3 1.5v.2c-.2.2 0 .3-.2.3 0 .2-.2.2 0 .2 0 .3-.2.5-.3.7.2.3-.2.3-.2.7 0 .3-.3.5-.5.9 0 .2-.2.2-.2.3 0 .3-.3.3-.3.5s-.2 0 0 .2c0 .3-.2.2-.3.3 0 0 0 .2-.2.2s-.2.2-.3.3c0 .2-.2.2-.2.2-.4.2-.4.3-.6.3zm7.2-4.9v.2-.2zm0 .2c-.2-.2 0 0 0 0z" class="st3"></path><path d="M158.1 128.5c0-.2.2 0 .2-.2l.5-.5c.2 0 0-.2.2-.2.2-.2.2-.3.3-.5 0-.2.2-.3.2-.5v.2s-.2.2 0 .2h-.2v.2c-.2.2-.3.5-.5.7 0 .2-.2.2-.3.3 0 0 0 .2-.2.2v.2l-1 .5c-.3.2-.9.2-1 .7-.2 0-.2 0-.3.2-.2.3-.5.2-.7.5-.3.2-.7.2-1 .3-.2.2-.5 0-.9.2-.3 0-.5.3-.9.3-.2-.2-.3.3-.5.2-.3-.2-.7 0-1 .2-.3 0-.7.2-1 0-.2.2-.3-.2-.5-.2 0-.2-.2.2-.2 0s0 .2-.2.2c0 0 0 .2 0 0s-.2 0-.2-.2v-.2.5s0 .2.2.2c0-.2 0 0 0 0 0 .2 0-.2 0 0h.3s.2 0 0-.2c0 .2.2.2.2.2 0 .2 0-.2.2 0 0-.2.2 0 .2-.2h.3c0-.2.2 0 .2-.2 0 0 .2.2.2 0 0 0 .2 0 .2-.2 0 .2 0 .2.2.2 0 0 .2 0 .2-.2h.2c.2-.2.5-.2.9-.2v-.3h.3s0 .2 0 0c.3 0 .9-.3 1.2-.3.2 0 .2-.2.3-.2 0-.2.2.2.2-.2.2-.2.3-.2.5-.2.2-.2.3-.2.5-.3.2-.2.5-.2.7-.3.2 0 .2-.2.2-.2 0-.2.3 0 .5-.3 0-.2.2 0 0-.2 0-.2.2 0 .3-.2 0 0 0-.2.2 0 .2 0 .2-.2.3-.2 0-.2.2-.2.2-.2.1.6.3.4.3.4zM151.3 135.7v-.2.2zm.2-.2c0 .2-.2-.2 0 0z" class="st3"></path><path d="M151.5 135.5s0-.2 0 0zm2.7-1.4c0 .2-.2 0-.3.2-.3.2-.5.3-.7.5-.2 0-.2.2-.2 0v.2c-.2.2-.5.2-.7.3-.2.2-.3.2-.7.2v.2s.2-.2.2 0c0 0 0-.2 0 0 .2 0 .2 0 .3-.2h.2v-.2c.3 0 .7-.2 1-.3 0-.2.3-.2.5-.3l.2-.2v-.2c.5-.2.9-.5 1.2-.7.5-.3.9-.5 1-1 0-.2.2-.2.3-.3.2-.3.5-.5.5-.9.3-.3.5-.7.7-1 .2-.3.5-.5.5-.9.2-.3.2-.7.3-1 .2-.2 0-.5.2-.7.3-.3.3-.7.3-1.2.2-.3 0-.9.3-1.2-.2-.2.2-.3.2-.5.2 0-.2-.2 0-.2s-.2-.2-.2-.2-.2 0 0 0 0-.2.2-.2h.2v-.2h-.5s-.2 0-.2.2c.2 0 0 0 0 .2-.2 0 .2 0 0 0v.3s0 .2.2 0c-.2 0-.2.2-.2.2-.2 0 .2.2 0 .2.2 0 0 .2.2.2 0 .2-.2.2-.2.3.2.2-.2.2 0 .3l-.2.2v.3h-.2v.3s0 .2-.2 0c.2.3 0 .7-.3.9l.2.2s-.2 0-.2.2c0 0-.2 0 0 .2-.2.3-.3 1-.5 1.4v.2c-.2 0-.2.2-.2.3s-.2 0 0 .2c0 .3-.2.5-.3.7 0 .3-.2.3-.3.7 0 .3-.3.5-.5.7-.2 0-.2.2-.2.2 0 .3-.3.2-.5.5 0 .2-.2 0 0 .2 0 .3-.3.2-.3.3 0 0 0 .2-.2.2s-.2.2-.3.3c0 .2-.2.2-.2.2-.2-.4-.4-.4-.4-.3z" class="st3"></path><path d="M158.6 125.6c0-.2.2-.2.3-.2.3-.2.5-.5.7-.7.2 0 .2-.2.2-.2l.5-.5v.3h-.5v.2c.2 0 .2-.2.2 0 0 0 0-.2 0 0v-.7h-.2v.2c-.3.2-.5.5-.9.7 0 .2-.3.2-.3.3l-.2.2v.2c-.5.2-.9.5-1.2.7-.5.3-.9.3-1.2.9-.2.2-.3.2-.3.2-.2.3-.7.3-.9.7-.3.2-.7.5-1.2.7-.3.2-.7.2-.9.5-.3.2-.5.5-.9.7-.2-.3-.2.2-.5.2-.5 0-.9.3-1 .7-.3.2-.7.5-1 .5-.2.2-.3 0-.5.2-.2 0 0 .2-.2.2v.2c-.2-.2 0 .2-.2-.2v-.2s-.2 0 0 .2l-.2.2h.2c0-.2 0 0 0 0s0-.2 0 0c.2-.2.2-.2.3-.2 0 0 .2 0 0-.2.2.2.2 0 .2 0 .2.2 0-.2.2 0 0-.2.2 0 .2-.2.2 0 .3 0 .3-.2s.2 0 .2-.2c0 0 .2 0 .2-.2.2 0 .2-.2.2-.3.2.2.2 0 .2.2 0-.2.2-.2.2-.3h.2c.2-.3.5-.5.9-.5v-.3h.3c.5-.2.9-.7 1.2-.9v-.2c.2 0 .2-.2.3-.2 0-.2.2 0 .2-.2.2-.2.3-.3.7-.3.2-.3.3-.2.5-.5s.5-.3.7-.5c.2 0 .2-.2.3-.2 0-.3.5-.2.5-.3 0-.2.2 0 0-.2 0-.3.3 0 .3-.3 0 0 0-.2.2-.2s.2-.2.3-.3c0-.2.2-.2.2-.2 1.1.9 1.2.7 1.2.7zM160.2 130.6c0-.2.2-.2.2-.2.2-.2.3-.4.3-.7.2 0 0-.2.2-.2.2-.2.2-.3.3-.5 0-.2.2-.3.3-.5v.2l-.2.2h-.2v.2c-.2.2-.3.5-.5.7 0 .2-.2.2-.3.3 0 0 0 .2-.2.2v.2c-.3.2-.5.5-.9.9-.3.3-.7.5-.9 1 0 .2-.2.2-.2.3-.2.3-.5.3-.5.7-.3.2-.5.5-.9.7-.2.2-.5.3-.7.5-.3.2-.3.5-.7.5-.2 0-.3.3-.5.3-.5-.2-.7.2-1 .5-.3 0-.7.3-1 .2-.2.2-.3-.2-.5 0 0-.2-.2.2-.2 0v.2s0 .2 0 0-.2 0-.2-.2v-.2.7s0 .2.2.2c0-.2 0 0 0 0s0-.2 0 0h.3s.2 0 0-.2c0 .2.2.2.2.2.2.2 0-.2.2 0 0-.2.2 0 .2-.2h.3c0-.2.2 0 .2-.2h.2s.2 0 .2-.2c0 .2.2.2.2.2 0-.2.2-.2.2-.2h.2c.2-.3.5-.3.9-.3v-.3h.3c.3-.2.7-.5 1-.9v-.2c.2 0 .2-.2.2-.2 0-.2.2 0 0-.2l.5-.5c0-.2.3-.3.3-.5l.7-.7c0-.2.3-.2.3-.3 0-.2.2 0 0-.2 0-.2.2-.2.2-.3v-.2c.2 0 .2-.2.2-.3s.2-.2.2-.2c.9 0 .9-.2.9-.3z" class="st3"></path><path d="M162 126.3c-.1 0 0 0 0 0zm0 .8c0-.1 0 0 0 0 .2-.2 0-.2 0-.3v-.2c-.2-.2 0-.2 0-.2h-.2v.2h-.2v.2c.2.2 0 0 0 .2l.4.1c-.3 0-.2 0-.3.2-.2.2-.2.2-.2.3v.2c.2.2-.2.2 0 .3 0 0-.2.2-.2.3s-.2.2-.2.2c-.2 0 .2.2 0 .3-.2 0 .2.2 0 .2-.3 0-.2.2-.2.3-.2 0 0 .2-.2.2.2.2-.2 0-.2 0-.2 0 .2.2 0 0-.2 0 .2.2.2 0-.2-.2 0 0-.2 0h-.2c.2 0 .2.2.2.2h.2s-.2-.2 0 0v-.2h.2c.2 0-.2-.2 0 0-.2 0 0 0 0-.2h.2c-.2 0 0 0 0-.2v-.2h.2c-.2-.2 0-.2.2-.2l-.2-.2c.2-.2 0-.3 0-.3v-.3c-.2-.2 0-.2 0-.2-.2-.2 0-.2 0-.2-.2-.2.2 0 0-.2h-.2c-.2-.2.2 0 0-.2.9.1.8.1.9-.1v.2c-.1 0 0-.2 0-.2z" class="st3"></path><path d="m136.4 125.1-35-4.6-41.3-58.3S43.5 33.3 71.2 12c30.2-18.1 51.6 6.1 51.6 6.1l19.3 26.1 22.5 31.9-8 36c-5 13-20.2 13-20.2 13" class="st49"></path><path d="M136.3 101.9 111 67.2 80.6 89l22.4 31.1 34.8 4.1-1.5-22.3z" class="st3"></path><path d="m141.2 45.3 22.4 31.3-7.3 34.5c-4.6 12.8-19.3 13.2-19.3 13.2l-.7-22.2L111 67.2l30.2-21.9z" class="st41"></path><path d="m136.3 101.9 21.2 3.4c-.3 3.1-1.7 7-1.7 7l-14.5-3.2-1.2 15.2c-1.7.9-7.2-.3-7.2-.3l3.4-22.1z" class="st50"></path><path d="M80.6 89 61.3 62.4s-16.1-28 10.4-49.5L111 67.2 80.6 89z" class="st41"></path><path d="M60.2 26.9 73 44.8l5.8-7.7-13-18.3c-.1-.1-4 4.3-5.6 8.1zM58.4 31l12.3 17.3-5 7-9.4-13.2c.2-.2.2-6.2 2.1-11.1zm15.3 31.6c11.1.7 13.8-7.9 13.8-7.9l-.2-4.6c-6.7 0-9.9 2.4-9.9 2.4-5 2.9-7.9 11.4-7.9 11.4l4.2-1.3zm67.5-17.3-19.1-26.6s-21.4-24.3-50.4-6L111 67l30.2-21.7z" class="st3"></path><path d="M118.1 30.6c-2.9 10.8-11.8 10.8-11.8 10.8l-4.3-1.7c2-6.3 5.5-8.7 5.5-8.7 4.3-3.8 13.3-3.9 13.3-3.9l-2.7 3.5z" class="st51"></path><path d="m88.8 6.4 12.8 17.9-9.2 2.9-13-18.3s5.8-2.2 9.4-2.5zm15.3 1.2 9.6 13.3-8.2 2.4L93 6s5.7-.1 11.1 1.6z" class="st50"></path><path d="m348.9 390.5 34.2 4.8 24.8 29.2 19.8 25.5s19 29.2-8 52.1c-29.7 19.5-52.3-4.1-52.3-4.1L347 472l-23.6-30.9 5.5-36.4c4.7-13.5 20-14.2 20-14.2" class="st49"></path><path d="m347.4 410.9 29.6 37.8-29.4 22.9-23.4-30.6 6.1-35.2 17.1 5.1z" class="st3"></path><path d="m347.6 391.7 34.8 4.8 24.3 29-29.9 23.1-29.6-37.8-17.1-5.1c4.5-12.9 17.5-14 17.5-14z" class="st41"></path><path d="m329.5 409.5.5-2.6 15.4 1.2 3.1-16.2c1.5-.2 2.6.3 2.6.3l-3.6 18.6-18-1.3z" class="st50"></path><path d="M330 406.9s.2-.9.9-2.6l12.5.9 2.4-13.3c1.7-.3 2.9-.3 2.9-.3l-3.1 16.4-15.6-1.1z" class="st50"></path><path d="M330.8 404.4s.3-1 1.2-2.4l9.1.7 1.9-9.7 2.6-.9-2.4 13.3-12.4-1z" class="st50"></path><path d="m347.7 471.7 20.2 25.8s22.4 23.4 50.6 3.9l-41.3-52.8-29.5 23.1z" class="st41"></path><path d="m406.8 425.6 20.2 26s17.1 27.3-8.5 49.9l-41.3-52.8 29.6-23.1zM362.3 140c-2.2 4.3-5.5 8.4-8.2 12.3-2.4 3.4-5 7-8.2 9.7-3.6 3.2-6.1 4.4-7.2 9.7l-.9-31.6c3.8-.3 4.6-6.1 6.5-8.7 2.2-2.7 6-5.6 7.3-9.1l-3.1-.5c-7.3-2-13.8 1.7-21 2.7-1.9.3-3.9-.3-5.8-.3-4.3.2-9.2 2.9-9.2 2.9l-2 1.2c2.4-4.1 8-10.4 12.5-11.8 2.9-.9 6.7-1.5 9.7-1.7 4.3-.3 8.7-1.2 12.8-1.2-9.6-.3-19.1.9-28.7.7-9.7-.2-17.6 3.2-25.5 8.7l1.7.2c1.7-6.5 7.7-13.2 13.3-16.2 3.9-2.2 8.5-1.5 12.6-1.4 8.4.3 13 .5 24.6 2.7 0 0 6.1 1.7 8.9 1.9-3.1-.3-6.5-4.4-8.7-6.7-1.9-2-3.4-5-5.6-6.5-6.7-5-15.9-6-24.4-7l3.9-1.4c5 0 11.6-.2 16.4 1.4 4.4 1.4 7.9 4.1 11.3 7.2 2.4 2.2 6 4.4 9.1 6 1.9 1 3.9 2.4 6.1 2.6l17.3 13.2c3.2 3.1 8 7.2 11.8 9.9 3.9 2.9 7.2 7.2 9.7 11.3 4.3 6.8 11.6 21.5 2.2 27.3-1 .9-2.4 1.4-3.6 1.7l-2.2-.3c1.7-1.4 4.8-4.8 5.6-7 1.2-3.2-.2-7.3-1-10.4-1-3.9-3.1-7.2-6-10.1-2.4-2.4-6-5.6-9.2-6.7l-1.5-.3c-.2 3.4 3.1 6.3 4.1 9.2 1.2 3.2 1.4 7 1.2 10.4-.3 3.4-2.6 5.6-2.9 8.9s2.9 5.5 3.2 8.7c.2 1.2 2.2 2.9 1.5 3.9l-1 2c-.3-1.4-1.2-2.4-1.9-3.9-.7-1.4-5.6-5-5.5-8.7.3-3.9 3.1-6.7 3.1-10.8 0-3.9-1.2-6.3-3.1-9.6-.9-1.7-1.8-3.4-2.9-5-1.4-1.7-2.6-3.4-3.6-5.3 0 0-1-2.9-.7-5.3-3.9 5.1 1.9 15.2 2.4 22.9.3 3.9-.2 7.5-.3 11.4-.3 5.3-.2 7.7 3.2 11.6l.5.3c-.2-.2-.3-.3-.5-.3-3.6-2.9-5.5-6-6-10.6-.3-3.6 0-7-1-10.4-1.4-4.8-3.4-9.2-3.9-13.8-.5-3.4.9-7.9.9-12.3-2.4 3.9-4.6 9.9-5 14-.3 4.4-.7 8.4-3.4 11.8-1.9 2.4-4.1 5.3-3.6 8.7.3 1.9 1.4 3.1 1.7 5 .3 2.9 0 5.5-1.9 8-.3.3-.5.9-.9 1.2l-1.4.9c3.1-1 0-9.7-.9-11.8-1.2-2.4-2.6-4.4-2.7-6.8-.2-1.9.2-6.3 2.4-6.8" class="st3"></path><path d="m354.4 152.1-.5.2s-.3.2-.5.3l-.3.3s.2-.3.5-.5c.5-.3.8-.3.8-.3zm-2.6 6v-.3s0-1 .2-1.9c.2-1 .5-1.9.5-1.9-.8 1.5-.7 2.9-.7 4.1zm0 1c0 1.5.5 2 .5 2.4-.2-.2-.3-.9-.5-1.5v-.9zm25.7 10.7c0 .2 0 .3.2.5-.1-.3-.2-.5-.2-.5z" class="st41"></path><path d="m373.9 136-.2-.3c.9 6.3 4.1 13.2 3.8 20v-.5c0 3.8-.5 7.3-.5 10.9 0 1.9.2 3.6.9 5.3.3.9.9 1.5 1.4 2.4.2.3.5.7.9 1l.3.5.5.3-.5-.3c-1.7-1.4-3.4-3.1-4.4-5.1s-1.5-4.3-1.7-6.7c-.2-2.2-.2-4.6-.5-7-.3-2.2-1.2-4.4-2-6.7.2.2.2.3.2.5-.3-.9-.7-1.5-.9-2.6 0-.2.2.2.2.5-.5-1.7-1.4-4.3-1.9-6.7-.4-1.9-.4-3.9-.2-5.8.2-1 .2-1.5 0-.9.2-1.7.5-3.2.5-5v-1.2s0-.2 0 0l-1.2 2.4c-1.4 3.1-2.6 6.3-3.1 9.7-.3 3.4-.3 7-1.7 10.2-.7 1.7-1.9 3.1-2.9 4.3-1 1.4-1.9 2.9-2.4 4.4-.2.7-.2.7-.2.5-.3 1.5 0 3.1.7 4.4.3.7.7 1.5.9 2.2.2.9.2 1.5.2 2.4 0 1.6-.3 3.3-1 4.8-.3.7-.9 1.4-1.4 2l-.3.5c-.2.2-.3.3-.5.3l-1 .7-.2-.5c.5-.2.9-.7 1-1.4.2-.7.2-1.4.2-2-.2-1.4-.3-2.7-.9-3.9-.3-1.4-.9-2.6-1.4-3.9-.5-1.2-1.4-2.4-1.9-3.6-.2-.3.5 1.2 0 0 .9 1.7 1.9 3.2 2.4 4.8.7 1.5 1 3.1 1.4 4.8l-.2-.3c.2 1.2.2 1.4.3 1.5 0 .2.2.3.2 1.5-.2 1 0-.2 0 .2 0 1-.3 2-1 2.2l.3.7 1.4-.9c.5-.5.7-.9 1-1.4.7-.9 1.2-1.9 1.5-3.1.5-2.2.5-4.4-.2-6.5-.2-.7-.9-1.9-1.2-3.2-.3-1.4 0-3.1.3-3.9.5-1.2 1.2-2.4 1.5-2.9.7-1 1.4-1.9 2-2.7.7-1 1.2-2 1.7-3.2.9-2.2 1-4.6 1.2-7 0-2.4.5-4.6 1.4-6.8.7-2.2 1.7-4.4 2.7-6.5l.3-.7v.7c0 1.2-.2 2.4-.3 3.6-.3 2.4-.7 4.8-.3 7.2.7 4.8 2.7 9.2 3.9 13.8 1 3.2.7 7 1.2 10.8.3 1.9.9 3.9 1.9 5.6s2.4 3.2 4.1 4.4l.5.3.3-.3c-.2-.2-.5-.3-.7-.5l-.5-.7c-.3-.5-.7-.9-1-1.4-.5-1-1-2-1.4-3.1-.9-3.4 0-8.5.2-12.6v-3.4c0-4.3-1.4-8.2-2.4-12.3-.5-2-1-4.1-1.2-6.1 0-1-.2-2 .2-3.1.2-1 .7-1.9.7-1.9v.9c0 .5.2 1 .2 1.5.2.5.2 1 .3 1.5 0 .3.2.5.3.7l.3.7c1 1.9 2.4 3.6 3.6 5.1 1.2 1.7 2 3.6 3.2 5.5 1 1.9 1.9 3.8 2 5.8.2 1 .2 2 .2 3.1-.2 1-.3 2-.7 3.1-.7 1.9-1.7 3.9-2.2 6-.2 1 0 2.2.3 3.2.5 1 1 1.9 1.7 2.7.7.9 1.4 1.5 2.2 2.4.3.3.7.9 1 1.2.2.5.5 1 .7 1.4.5.9.9 1.4 1.2 3.1.2-.3.5-1.2.9-1.5l.5-1c.3-.5.2-1 0-1.4s-.5-.7-.7-1-.5-.7-.7-1c-.2-.2-.2-.3-.2-.5s0-.3-.2-.7c-.3-1.7-1.4-3.1-2.2-4.4-.3-.7-.7-1.4-.9-2.2-.2-.7 0-1.5.2-2.2.3-1.5 1.2-2.9 1.9-4.4.7-1.5 1-3.1 1-4.8 0-1.5 0-3.2-.2-4.8-.2-1.5-.5-3.2-1-4.6-.5-1.5-1.5-2.9-2.4-4.3-.9-1.4-1.5-2.7-1.7-4.3v-.2h.2c.3.2.9.2 1.2.3l2 1c2.7 1.7 5 3.8 7.2 6s3.9 5 5 8c.9 3.1 2 6.1 1.9 9.4v-.5c0 1-.2 2-.5 2.9-.3.9-.9 1.7-1.5 2.6-.5.9-1.2 1.5-1.9 2.2-.7.7-1.2 1.2-2.4 2.2l2 .2c.3 0 .5.2.9 0l.7-.2c1-.3 2-.9 2.9-1.4 1.4-1 2.7-2 3.4-3.6 1.2-2.2 1.4-4.6 1-7-.2-2.4-.9-4.8-1.7-7-1.7-4.6-4.1-8.9-7-12.8-1.4-2-2.9-3.9-4.6-5.6-1.7-1.7-3.8-3.1-5.6-4.6l-5.5-4.4c-.9-.9-1.7-1.5-2.6-2.4l-1.2-1.2-1.4-1-13.7-10.4-1.7-1.4-.5-.3c-.2-.2-.3-.2-.5-.2-.3 0-.7-.2-1-.2-1.4-.3-2.7-1.2-3.9-1.9-2.6-1.4-5.3-2.9-7.7-4.6-1.2-.9-2.4-1.8-3.4-2.9-1.2-1-2.2-2-3.6-2.9-1.2-.9-2.6-1.7-3.9-2.2-1.4-.7-2.9-1-4.3-1.4-2.9-.7-6-.7-8.9-.9h-5.5c-.3 0-.7.2-1 .3l-2 .7c-.3.2-.7.2-1 .3h-.2.2c7.5.9 15.2 1.9 21.9 5.5 1.7.9 3.2 2 4.4 3.4s2.2 2.9 3.6 4.4c1.2 1.4 2.6 2.9 3.9 4.1 1.4 1.2 2.9 2.6 5 2.7v-.2c-3.1-.2-6.1-1-9.2-1.9-4.8-.9-9.6-1.7-14.5-2-5-.3-9.9-.5-14.9-.7-2.4 0-5 .3-7.2 1.5s-4.3 2.7-6 4.4c-1.7 1.7-3.4 3.6-4.8 5.6-.7 1-1.2 2-1.7 3.2-.3.5-.5 1.2-.7 1.7-.2.3-.2.5-.3.9s-.2.7-.5.5c-.3 0-.7 0-1-.2h-.2l.2-.2.5-.3c.7-.3 1.4-.9 2-1.2 1.4-.9 2.7-1.7 4.3-2.4 2.9-1.5 6.1-2.7 9.6-3.6 3.4-.9 6.8-1 10.1-1s6.3-.2 9.2-.2c6.1-.2 12.3-.5 18.3-.3v-.2c-4.3 0-8.4.9-12.6 1.2-2 .2-4.3.3-6.3.9-2 .5-4.1.9-6 2-3.6 2.2-6.5 5.5-8.9 8.9-.3.5-.7.9-.9 1.4l-.2.3.2-.2.7-.3c.9-.5 1.9-1 2.7-1.5 1.9-.9 3.9-1.7 6.1-2 1.2-.2 2.4-.2 3.6 0 1.2.2 2.4.3 3.6.2 2.4-.3 4.8-1 7-1.5 2.4-.7 4.6-1.4 7-1.5 2.4-.3 4.8-.2 7.2.3l2.2.3.5.2h.3v.2c-.2.5-.3.7-.5 1-.7 1.2-1.7 2.4-2.7 3.4l-3.1 3.2c-.5.5-1 1-1.4 1.7s-.7 1.2-1 1.9c-.7 1.4-1.2 2.7-2 3.9-.3.7-.9 1.2-1.5 1.7l-1 .5c-.3.2-.9 0-.9.3 0 2.9.2 5.8.2 8.5.3 7.2.3 14.9.5 22.7v.5l.2-.5c.3-1.4.9-2.9 1.5-4.1.9-1.2 1.9-2.2 2.9-3.2l-.3.2c1.5-1.2 3.2-2.6 4.6-4.1l3.2-3.8-.2.3c1.4-1.5 2.7-4.1 3.6-5l.2-.3c1.5-2 .2-.2 1.4-1.7.3-.5.2-.3 1-1.5.3-.2 3.6-5.1 3.8-5.1-.7 1.2 1.2-1.7-.3.9.2-.3 1-1.4 1.5-2.4s1-1.9.9-1.7c0-.3.7-1.9-.5.3l-.2.5c-.5.7-.3.5-.5.9-1.7 2.9-2.2 3.1-3.6 5.1-.9 1.5-2 2.9-3.1 4.3l-.3.3c-.5.7-2 3.2-1.5 2.2-2 2.7-4.3 5.6-7 8.2-1.4 1.2-2.9 2.4-4.3 3.8s-2.2 3.2-2.7 5.1c0 .2-.2.5-.2.9h.5c0-1.7-.2-4.6-.2-3.2 0-1.9 0-7.5-.2-9.7v.5c0-4.1-.3-4.8-.2-8.7-.2-.5-.2-7-.3-9.1v-1h.2c.5-.2.9-.3 1.4-.5.9-.5 1.4-1.2 1.9-2 1-1.5 1.5-3.2 2.4-4.8.7-1.5 2-2.6 3.2-3.8s2.2-2.4 3.2-3.4c.3-.3.7-.9.9-1.4.2-.2.3-.5.5-.7l.2-.3c0-.2.2-.2.2-.5l.2-.3c0-.2.2-.3 0-.2l-1.7-.3c-.5-.2-1.2-.2-1.7-.3-3.6-1-7.3-.5-9.7.2-1.7.3-3.9 1-6.5 1.5-1.2.3-2.4.7-3.8.9-.7.2-1.2.2-1.9.3h-1.4c-1.4-.2-2.9-.3-4.4-.2-1.5.2-3.1.5-4.4 1-1.4.5-2.7 1-3.8 1.7-.5.3-1.2.7-1.2.7-.2 0-.5.5-.3.2l.5-.5.9-1.2 2.2-2.7c1.7-1.9 3.6-3.6 5.6-5.1 1.2-.9 2.7-1.4 4.3-1.7 1.5-.3 3.1-.7 4.4-.9.9-.2 4.6-.3 5-.3 3.6-.3 7.2-1 11.1-1.2v-.5c-6.7-.2-13.8.3-20.8.5-1.7 0-3.6.2-5.3.2H314c-3.4.2-6.8.9-10.1 1.9l.2-.2c-2 .7-4.4 1.9-6.3 3.1-.2.2-.2 0 .2-.2-1.4.7-2.7 1.5-3.9 2.2-.7.3-1.4.9-1.9 1.2l-1.4.9-.2.2h.7c.5 0 1 0 1.7.2.2 0 .2-.2.2-.3l.2-.3.2-.5c.2-.7.5-1.4.9-2 .7-1.4 1.5-2.7 2.4-4.3l.2-.2s.3-.5.7-.9c.3-.5.7-.9.7-.9s0 .2-.7 1c1.5-1.9 3.1-3.6 5-5.1 1.9-1.5 3.9-2.9 6.1-3.6 2.2-.7 4.8-.7 7.2-.7 2.4.2 5 .2 7.3.3 5 .2 9.7.7 14.7 1.5l3.6.7 1.9.3c.5.2 1.2.3 1.7.5 2.4.5 4.8 1.2 7.3 1.4v-.3c-1.9-.2-3.4-1.5-4.8-2.7s-2.7-2.7-3.9-4.1c-1.2-1.4-2.2-3.1-3.6-4.4-1.2-1.5-2.9-2.6-4.6-3.4l.9.5s-1.2-.7-2.4-1.2l-2.4-1s.3 0 .5.2c-5.8-2.4-12.3-3.1-18.4-3.8v.3l1.5-.5s-1 .3 0 .2c.5-.2 1.2-.3 1.7-.5.3-.2.5-.2.7-.3h7.7-.2c3.4.2 6.8.3 10.1 1.5 3.2 1.2 6 3.2 8.5 5.5 2.6 2.4 5.3 4.4 8.4 6.1.7.5 1.5.9 2.2 1.2.7.5 1.5.9 2.2 1.2.9.3 1.5.7 2.4 1 .3.2.9.2 1.4.2l.3.3.5.3 14.2 10.8 1.9 1.4c.7.5 1.2 1 1.7 1.5 1.2 1 2.2 2 3.4 3.1 2.4 2 4.6 3.9 7 5.6 3.1 2 5.5 5 7.7 8 2.2 3.1 4.1 6.3 5.8 9.7 1.5 3.4 2.9 7.2 3.2 10.9.2 1.9 0 3.9-.9 5.6-.7 1.7-2 3.2-3.8 4.3-.5.3-1.2.7-1.7 1-.3.2-.7.3-1 .3-.3.2-.7.3-1 .2-.7 0-1.2-.2-1.9-.2.3-.3.7-.7 1.2-1l1.2-1.2c.7-.9 1.4-1.5 2-2.6.7-.9 1.2-1.9 1.4-2.9.2-1.2.3-2.4.2-3.6v-.2c-.2-1.4-.5-2.7-.9-4.1s-.7-2.7-1.4-4.1c-1-2.7-2.7-5.3-4.8-7.3s-4.3-4.1-6.8-5.8l-2-1c-.3-.2-.7-.3-1-.3l-1.2-.3c-.2 1.5.5 2.9 1.2 4.3l-.3-.7c.3.9 1.4 2.4 2 3.6.7 1.2 1.2 2.2 1 1.9l.7 2c.5 1.9.9 3.8.9 5.6 0 1.9 0 3.8-.7 5.6-.7 1.9-1.7 3.4-2.2 5.5-.3 1-.3 2.2.2 3.2.3 1 1 2 1.7 3.1l-.3-.5c.7 1 1.4 2.4 1.5 3.6 0 .7.3 1.2.7 1.7.3.5.7 1 .9 1.4-.2-.3 0-.2-.3-.7.3.5.7 1.2.3 1.7-.3.7-.7 1.5-.9 1.7-.2-.5-.5-1.4-1-2.2-.5-.7-.7-1.5-1.4-2.2-1.2-1.4-2.6-2.6-3.6-3.9-.5-.7-.9-1.5-1.2-2.4-.2-.9-.2-1.7 0-2.6.3-1.7 1.2-3.4 1.9-5l-.3.9c.3-1 .9-2 1.2-3.4.3-1.4.2-2.9 0-4.4-.3-3.1-2.2-6-3.6-8.2l.2.3s-.3-.5-.7-1.2c-.3-.5-.7-1.2-.7-1.2v-.2c-.5-1-1.4-1.9-2-2.7-.7-.9-1.3-1.8-1.9-2.7-.3-.5-.5-1-.9-1.5-.2-.5-.3-1-.3-1.5-.2-1-.3-2-.3-3.6v-.2s0 .2-.2.2l-.3.5c-.2.3-.3.5-.5.9l-.3.9-.2.9c-.4.9-.4 2.1-.2 3.3zm-2.6 12.3c0 .2 0 .2 0 0 .2.4.2.2 0 0z" class="st41"></path><path d="M357.1 147.5c.2-.3.3-.5.5-.7-.1 0-.5.5-.5.7zm-43.7-20.9v-.2.2zm.2-.3v.2c.1 0 0-.2 0-.2zm0 0c.1-.2.1-.2 0 0zm7.8-5.3c-.3.2-.7.2-1 .3-1 .3-1.7.9-2.6 1.4 0 0 0 .2-.2.2s-.5.3-.7.3v.2c-.7.3-1.4.9-1.9 1.5-.3.5-1 1-1.4 1.4.2-.2.2-.3.3-.5.2 0 0-.2.2-.2.2-.2.5-.3.7-.7.2 0 .2-.2.3-.2l.2-.2c.9-.7 1.7-1.2 2.7-1.9.3-.3 1-.5 1.5-.7.2-.2.5-.2.7-.3l.2-.2c1.4-.3 2.7-.9 4.3-1 1.7-.3 3.1-.3 4.6-.9.5-.2.9 0 1.4-.2 1-.2 2.2-.2 3.2-.3 1.2-.2 2.7-.2 4.1-.5 1-.2 2-.2 3.2-.5 1-.2 2.2-.7 3.2-.9.7 0 1.5-.7 2.2-.7 1.4-.2 2.6-.5 3.8-1 1.2-.2 2.4-.7 3.6-1 .5-.3 1.2-.3 1.7-.7.3 0 .3-.3.5-.3s.2-.3.2-.3c.2-.2 0 0 .2 0v-.1c.2.2.2-.2.3 0 0 0 .2 0 0 .2l.2-.2c0-.2 0-.2-.2-.2h.1c-.2.2-.2 0-.3 0 0 .2-.2.2-.2.2s0 .3-.2.2c-.3.2-.7.5-1 .7 0 0-.3.2-.2.2h-.5c-.3 0-.2.2-.5.2 0 .2-.3.2-.5.3-.3.2-.9.2-1.2.3-.2.2-.7.2-.9.3-.2 0-.5 0-.9.2-.3.2-.7.2-.9.3-.2-.2-.3 0-.3-.2-.2.2-.7.2-.9.3 0 0-.3.2-.3 0-.9.3-1.9.7-2.9.9-.2.2-.2.3-.3.3h-.5c-.2.2-.3 0-.5.2h-.2v-.2l-4.6 1.2-.3.2c-.3 0-.9.2-1.2.2-.3.2-.5 0-.5.2-.7.2-1.5.2-2.4.3-.7.2-1.4.2-2 .3-.9.2-1.9.2-2.7.3-.3 0-.7.2-1 .2-.7.2-1.4 0-2 .3-.2.2-.3 0-.3.2h-.2c-.3.3-.9 0-1.4.3-.2 0-.3.2-.3.2-.5 0-1 .2-1.4.3-.2.2-.7.2-1 .3l-.2.2c0-1-.4-.7-.9-.7zm57.9 8.5v.3c0 .3.2.5.3.9-.2 0 .2.2 0 .2h.2c0 .2.2.5.2.7.2.2.2.3.2.5h.2s-.2-.2 0-.2c0 0-.2 0 0 0 0-.2 0-.2-.2-.2.2 0 0-.2 0-.2h-.2c0-.3-.2-.7-.2-.9-.2-.2 0-.3-.2-.5l-.2-.2h-.2c0-.5-.2-.9-.3-1.2-.2-.5-.2-.9-.5-1.2-.2-.2-.2-.2-.2-.3-.3-.2-.3-.5-.5-.9s-.5-.7-.7-1c-.3-.2-.3-.5-.5-.7-.2-.3-.5-.3-.7-.7 0-.3-.5-.2-.5-.3-.2-.5-.5-.5-1-.7-.2-.3-.7-.2-.9-.5-.2 0-.2-.3-.3-.3 0-.2-.2.2-.2-.2 0-.2-.2.2-.2 0v-.2c0-.2-.2 0 0-.2v-.2h-.2c0 .2-.2.2-.2.2v.3h.2s.2-.2 0 0c.2 0 .2 0 .3.2h.2v.2c0 .2.2-.2.2.2 0-.2 0 .2.2 0 .2 0 .2.2.2.2.2 0 .2.2.3 0 0 0 0 .2.2.2 0 0 .2.2.3 0v.2h.3v.2c.3 0 .5.2.7.5 0 0 .2-.2.3-.2v.2s0 .2.2.2c.3.3.7.5 1 .9h.2c0 .2.2.2.2.2.2 0 0 .2.2.2.2.2.3.3.3.5.3 0 .2.3.5.3.2.2.2.5.3.7 0 .2.2.2.2.2.2.2 0 .3.3.5.2 0 0 .2.2 0 .3 0 0 .3.2.3v.2c-.2.2.2.3.2.3.2 0 0 .2.2.2-.6.8-.6 1-.6 1.1zM352 108.9v-.2.2zm.2-.2c-.2.2 0 0 0 0zM353.5 108.9c-.3-.2-.5-.2-.7-.2 0-.2-.2 0-.2 0h-.3c-.2.2-.2 0-.3 0v.2h.2s0-.2 0 0h.2v.2c.2.2.3 0 .5.2.2-.2.2.2.3 0h.2c.2.2.3.2.5.3.2.2.3.3.7.2h.2c.2-.2.3.2.5 0 .2 0 .3.2.7.2.2 0 .3.2.5.2.2.2.3-.2.5 0 0 .2.3-.2.3 0 .2.3.3.2.7 0 .2.2.3 0 .5.2.2-.2.2.2.3.2 0 .2.2-.2.2 0v-.2s0-.2 0 0v.3-.7c0 .2 0 0 0 0 0-.2 0 .2 0 0h-.2v.2-.2c0-.2 0 .2 0 0 0 .2 0 0-.2.2 0 0-.2 0-.2-.2 0 .2-.2 0-.2.2 0 0 0-.2-.2 0 0 0-.2 0-.2.2v-.2s-.2 0-.2.2c-.2.2-.3 0-.5-.2l-.2.2s0-.2 0 0c0 0 0-.2 0 0 0 0 0-.2 0 0-.2-.2-.5 0-.7 0h-.2s0-.2-.2 0h-.3c-.2.2-.2 0-.3 0-.2 0-.3-.2-.3-.2h-.2c-.2.2-.2-.2-.3 0 0 .2 0 0-.2.2s-.2-.2-.2 0c0-.2-.2 0-.2 0h-.2l-.1-1.5zm17.5 14.7c-.2 0 .1 0 0 0zm.6.5c0-.2-.2-.2-.2-.2l-.2-.2c-.2 0-.2 0-.2-.2h.3c0 .2.2.2.2.2.2 0 0 .2.2.2l-.1.2c-.2.2-.2.2-.2.3s0 .3.2.3v.2c.2 0 0 .2.2.2 0 .2.2.2.2.3.2 0 0 .2 0 .3 0 .2.2.2.2.2-.2.2.2 0 0 .2s0 .2.2.3c0 .2.2.2 0 .3.2 0-.2.2-.2.2-.2 0 .2 0 0 0h.2-.4.7c-.2 0 0 0 0 0 .2 0-.2 0 0 0v-.2h-.2.2c.2 0-.2 0 0 0h-.2v-.2h-.3c-.2 0-.2-.2 0-.3h-.3c0-.2-.2-.2-.2-.3h-.2c-.2 0-.2-.2-.2-.2-.2 0 0-.2-.2 0-.2 0 0-.2-.2-.2s.2-.2-.2-.2h-.2c-.2 0 0-.2-.2 0 1.7-1.1 1.5-1.1 1.3-1.2 0 .1.2.1 0 0zm10.6 2c-.1.2 0 0 0 0zM382.2 126.1c0 .2 0 0 0 0zm1.2.9c-.1 0 0-.2 0 0-.2-.2-.3-.3-.5-.3 0-.2-.2 0 0 0-.2 0-.2-.2-.3-.2-.2 0-.2 0-.3-.2h.2v.2c0 .2.3.2.3.3.2 0 .2.2.2.2h.2c0 .2.3.3.3.5.2.2.2.3.5.3 0 0 0 .2.2.2s.2.2.5.2c.2.2.3.3.5.3s.2.3.3.3c0 .2.3 0 .3.3 0 .2.3 0 .2.2 0 .3.2.3.5.3 0 .2.3.2.3.3.2 0 0 .2 0 .3s.2 0 0 0c0 0 .2-.2.2 0l-.2.2h-.2.2l.2-.2s0-.2.2-.2c0 0-.2.2 0 0 0 0-.2 0-.2-.2h-.2v-.2c.2-.2-.2 0 0-.2-.2.2 0 0-.2 0v-.2c-.2 0 0-.2-.2 0v-.2h-.2c.2-.2 0-.2.2-.2h-.2c-.2 0-.3-.2-.3-.3l-.2.2v-.2s0-.2 0 0c-.2-.2-.3-.2-.5-.3 0 0-.2 0-.2-.2-.2 0 0-.2-.2 0-.2 0-.2-.2-.3-.2s-.2-.2-.3 0c-.2 0-.2-.2-.3-.2h-.2c-.2 0 0-.2-.2-.2h-.2c-.2.2 0-.2-.2-.2 0-.2-.2 0-.2-.2.7.1.7 0 .5 0zm-201 269.2-10.9-7.4L361 110.3l10.9 7.4-189.5 278.5z" class="st41"></path><path d="M163.8 387.1c-5.6-.5-7-8.7-7-13.2-.3-8.2.3-14.3-6.8-20.2" class="st3"></path><path d="M150.1 354.3h-.2c-.2.2.2 0 .2 0zM150.1 354.3c0 .2 0 .2 0 0zm4.9 6c-.2-.2-.2-.7-.3-.9-.4-.7-.8-1.3-1.4-1.9h-.2c0-.2-.3-.3-.3-.5h-.2c-.3-.5-.9-1-1.4-1.4-.5-.3-.9-.7-1.2-1 .2.2.3.2.3.3s.2 0 .2 0c.2.2.4.4.7.5 0 .2.2.2.2.3h.2c.5.7 1.2 1.2 1.7 2 .3.2.5.7.9 1.2.2.2.2.3.3.5l.2.2c.3 1.2.9 2.2 1 3.4.3 1.4.3 2.6.7 3.8 0 .3 0 .7.2 1 .2.9 0 1.9.3 2.7 0 1 0 2.2.2 3.2.2.9 0 1.7 0 2.6s.5 1.9.5 2.7c0 .7.5 1.2.5 1.7 0 1.2.7 2 1.4 2.9.5.9 1.2 1.5 1.9 2.2.5.2.7.7 1.2.9.2.2.5 0 .5.2s.3-.2.3 0c.2 0 0 0 .2.2 0 0 0-.2.2 0 0 .2.3 0 .3.2 0 0 .2.2 0 .2h.2c0-.2.2-.2 0-.3v-.2c-.2 0-.2-.2-.2-.2h-.2c0-.2-.2.2-.2 0-.3 0-.7-.2-1-.3 0 0-.2-.2-.2 0 0-.2-.2-.3-.3-.3 0-.2-.3 0-.3-.2-.2.2-.2-.2-.3-.2l-1.2-1.2c0-.2-.2-.3-.3-.5-.2-.2-.3-.5-.5-.5.2-.2 0-.2 0-.3-.2-.2-.3-.5-.5-.7 0 0-.2-.2 0-.2-.5-.7-.7-1.5-.7-2.4 0 0-.2-.2-.3-.2v-1.2h.2c-.2-1.2-.5-2.6-.5-3.8v-1.2c-.2-.2.2-.3-.2-.5-.2-.7-.2-1.4-.2-1.9-.2-.5 0-1.2-.2-1.7-.2-.7 0-1.5-.2-2.2 0-.3 0-.5-.2-.9-.2-.5 0-1.2-.2-1.7-.2 0 0-.3-.2-.3v-.2c-.3-.3 0-.7-.2-1 0-.2-.2-.2-.2-.3 0-.3-.2-.9-.3-1.2-.2-.2-.2-.5-.3-.7l-.2-.2c.2 0 0-.1-.2-.5z" class="st45"></path><path d="M184.8 401c2.7 1.5 4.6 3.2 6.3 5.8 2.2 3.1 5.1 6.1 9.1 6.8 1 1.9 7.3 2.4 9.4 2.7 2.6.2 7.3.7 9.6-.5-6.1-1.2-11.3-3.4-16.6-6.8-2.2-1.4-3.8-3.4-5.8-5-1.4-1.2-2.7-1.9-3.8-3.4 6.7 3.6 15.2 2.7 22-.2 3.8-1.5 7-3.1 10.9-4.4 3.8-1.2 10.1-4.1 11.4-8.2-3.9 6.7-16.1 7.9-18.6 9.2-3.6 1.7-11.3 1.2-14.7-1.4 1.7-1.2 3.9-1.7 5.6-3.2 1.7-1.5 3.6-3.4 4.6-5.6 2.2-4.3 1.9-10.1 1.9-14.9-2 2.6-2 5.8-3.1 8.7-1.9 5.3-7.2 11.4-13.5 11.3 3.2-1.5 6.8-6 8.5-9.1 2.4-4.3.5-10.1 4.3-13.5-.5 1-1.4 1.7-2 2.6-2.9 3.4-4.3 7.9-7 11.3-1.5 1.9-3.4 2.7-5.3 4.1-1.4 1-2.9 2.4-4.4 2.9-1.2.3-2 .5-3.4.3 1.9-1.7 3.4-3.8 4.8-6 2.4-3.8 5.3-9.1 5.3-13.7-1.2 3.9-4.3 7.7-7.2 10.6-1.7 1.7-3.6 4.1-5.6 5.6-.9.7-2.4 1.9-3.6 1.7 2.4-.2 4.1-3.2 5.3-5.1.7-1.2 1.4-2.4 1.9-3.8s.3-3.1.9-4.4c.7-1.7 2.6-3.1 3.9-4.4 1.7-1.7 1.7-2.9 1.5-5.3-3.9 2-5.5 5.1-7.7 8.9-1.7 2.9-6.7 9.7-9.9 9.7 3.8-.9 7.9-8.7 9.2-12 1.2-2.6 2.9-10.9 7.5-10.2-4.6 0-6.7 1.4-9.9 4.6-2 2.2-4 4.5-5.8 6.8-.7.9-.9 1.9-2 1.5v-.9c-1.9-7.5-5-14.7-3.4-22.4.9-4.6 7.5-8.7 4.1-13.7-.3 3.9-3.1 6.1-5 9.1-2 3.4-2.2 7.9-3.9 11.1 0 0-1 15 4.4 20.8-3.6-3.6-4.6-12.6-4.8-17.6-.2-3.9 2.4-24.6-5.5-22.4 4.4 9.9-1.2 17.1-1.2 27.2 0 0 5.5 8.9 5.1 14.2.3-7.2-6.1-14.5-8.2-17.3-2-2.9-1.5-3.6-3.8-6 0 0-3.8.9-10.8-3.8 5 5.8 6.5 12.6 7.3 18.6.5 3.4 1 15 5.8 15.5" class="st3"></path><path d="m159.3 387.5-.3-.2-.7-.2c0 .2 1 .4 1 .4zm-3.4-3.4v.2s0 .2.2.5c.2.2.3.5.5.9.5.7 1 1 1 1-.7-.9-1.4-1.8-1.7-2.6zm-.3-.9c-.3-1.2-.5-1.7-.7-1.9.3.4.7 2.1.7 1.9zm10.7-40.1v.3c.2-.2 0-.3 0-.3z" class="st45"></path><path d="M170.4 360.5v.3c0-5.3.7-11.3-.5-16.7l.2.3c-.3-1.7-.9-3.6-2.2-4.8-.7-.5-1.7-.7-2.6-.5h-.3s0 .2.2.3l.2.7c.2.3.3.9.5 1.2.5 1.7.9 3.2.9 5 0 1.7-.2 3.4-.3 5.1-.5 3.4-1.5 6.7-2 10.1-.2.9-.2 1.7-.3 2.6v2.7l2.4 4.6c-.2-.2-.2-.3-.2-.5.3.7.7 1.2 1 2 0 .2-.2-.2-.2-.3.9 2 2.2 5.6 2 8.2h-.2v-2c-.2-.9-.2-1.2-.2-.7-.7-3.8-2.7-7.3-5-10.6l-3.6-4.8c-.5-.9-1-1.7-1.4-2.7-.5-.9-1.2-1.7-1.7-2.2-.7.2-1.7 0-2.6-.2-.9-.2-1.7-.3-2.6-.7l-2.4-1c-.3-.2-.7-.3-1.2-.7l-.7-.3-.3-.3-.3-.2.3.3c.2.2.2.3.3.3l.3.5 1.9 3.1c1.2 2.2 2 4.6 2.6 7 .7 2.4 1 5 1.4 7.3l1 7.3c.2.3-.2-1 0 0l-1.2-8.5.2.3c-.3-2-.2-.3-.5-2.6-.2-.9.2.2 0-.2-.7-4.4-2.2-8.9-4.4-12.5-.2-.2-.3-.5-.7-1-.2-.2-.3-.5-.5-.7l-.2-.2c-.3-.3.2 0 .2 0l.2.2.3.2c.2.2.5.2.7.3.5.2.9.3 1 .5 1 .5 2 .9 3.2 1.2.5.2 1.2.2 1.7.3h1.7l.5.5c.2.2.4.4.5.7l.9 1.4 1.5 2.9 3.9 5.3c2.4 3.6 4.6 7.7 4.4 12.1h.5c0-2.4-.7-4.6-1.5-6.8-.9-2.2-1.9-4.3-2.9-6.3-.2-.3-.5-.7-.7-1.2v-1.4c0-1 .2-1.9.3-2.9l1.2-6.1c1-4.1 2-8.5.9-13-.2-.7-.3-1.5-.7-2.2-.2-.3-.3-.7-.5-1.2-.2-.2 0-.2.2-.2h.7c.9 0 1.7.5 2.2 1.2.5.7.9 1.5 1.2 2.4l.7 2.7c.3 2.9.3 5.6.3 8.5l-.2 8.7c.2 2.9.5 5.8 1.2 8.7.7 2.7 1.5 5.8 3.6 7.9l.3-.3c-1.5-1.7-2.4-3.9-3.1-6.1-.7-2.2-1-4.6-1.2-6.8l-.2-7v-.9c.2-.3.3-.5.3-.9.2-.5.5-1 .7-1.7l1-3.4c.3-1.4.9-2.9 1.4-4.1.7-1.4 1.5-2.4 2.4-3.6l2.4-3.6c.2-.3.3-.7.3-1 .2-.3.2-.9.2-.9v-.3c0 .2.2.2.2.3.5 1.2.3 2.7-.2 3.9s-1.4 2.4-2 3.6c-.9 1.2-1.5 2.4-2 3.8s-.5 2.7-.7 4.1c-.3 5.6 1.4 11.1 2.9 16.4l.5 2 .3 1v.5c0 .2-.2.7 0 .7.7.2 1 0 1.4-.2.3-.3.5-.7.7-.9.3-.5.9-1 1.2-1.7 1.7-2.2 3.4-4.4 5.6-6.5l-.3.3c1.4-1.2 2.7-2.4 4.3-3.1 1.5-.7 3.2-.9 5-.9v.1c-1.5-.3-3.1.7-3.9 1.7-.9 1.2-1.5 2.4-2 3.8-.7 1.5-1 3.2-1.7 4.8l-2.2 4.6c-.9 1.5-1.7 2.9-2.9 4.3-1 1.4-2.4 2.6-3.9 3.1v.3c1.2 0 2.2-.7 3.2-1.5.9-.7 1.7-1.5 2.6-2.4 1.5-1.7 2.9-3.6 4.1-5.5 1.2-1.9 2.2-3.9 3.6-5.6.7-.9 1.5-1.7 2.4-2.4.5-.3.9-.7 1.4-.9l.3-.2.2-.2h.2v.7c0 1 0 2.2-.5 3.1s-1.4 1.5-2.2 2.4c-.9.7-1.5 1.5-2.2 2.4-.7 1-.7 2.2-.9 3.2 0 .5-.2 1.2-.3 1.7-.2.5-.3 1-.7 1.5L189 384c-.7 1-1.2 2-2 2.9-.9.9-1.7 1.7-2.9 1.7v.2c1 0 2-.5 2.7-1.2l2.4-2c1.5-1.4 2.9-3.1 4.3-4.6 2.9-3.1 5.6-6.3 7-10.4 0 2.2-.5 4.3-1.4 6.1-1 2.6-2.2 5-3.8 7.2-1.4 2.4-2.9 4.4-5.1 6.3 1.4.2 2.6 0 3.8-.3 1.2-.5 2.2-1.2 3.2-1.9 1.9-1.5 4.3-2.6 6-4.4 3.4-3.8 4.8-8.9 8.2-12.5.5-.6 1-1.2 1.4-1.9l.3-.5-.5.5c-1.7 1.5-2.2 3.9-2.6 6-.3 2.2-.3 4.4-1.2 6.5-.9 2-2.2 3.9-3.6 5.6-1.5 1.7-2.9 3.2-5.1 4.4-.3.2.2 0 .3 0h.7c.5 0 .9-.2 1.2-.2.9-.2 1.5-.5 2.4-.9 1.5-.7 2.9-1.7 4.1-2.9 2.4-2.4 4.1-5.1 5.1-8.4l1-3.8c.2-.7.3-1.4.7-1.9.2-.3.3-.7.5-.9.2-.2.3-.5.5-.7l.2-.2V375.6l-.2 4.3c-.2 2.7-.9 5.6-2.4 7.9-.7 1.2-1.7 2-2.6 3.1-.9.9-1.9 1.7-2.9 2.4-.7.5-1.5.9-2.4 1.2-.3.2-.9.3-1.2.5l-.7.3s-.3.2-.2.2l.3.2c1.5 1 3.2 1.5 5 1.9 3.4.7 7 .7 10.2-.9l9.9-2.9c3.1-1.2 6.3-3.1 8.2-6.1h-.2c-.9 2.4-3.1 4.1-5.3 5.5-2.2 1.4-4.6 2.4-7.2 3.1-4.3 1.4-8.2 3.4-12.3 5-4.3 1.4-8.7 1.9-13 1.4-1-.2-2.2-.3-3.2-.7l-1.5-.5c-.5-.2-.9-.3-1.2-.5l-.2-.2.2.2c.2.2.2.3.3.5.2.3.7.7 1 1l2.6 2c1.7 1.4 3.1 3.1 4.8 4.3l5.6 3.2 5.8 2.4c1 .3 2 .7 3.1.9l1.7.3h.3c-.3.2-.5.2-.9.3-2.2.5-4.4.3-6.7.3-2.2-.2-4.4-.3-6.7-.9l.3.2c-1.5-.3-3.4-.7-4.8-1.7-.2-.2-.2-.3-.3-.5-.2 0-.3 0-.5-.2-.3-.2-.7-.2-1-.3-.7-.2-1.2-.5-1.7-.9l.3.2c-1.5-.9-3.4-2.2-3.9-3.1l-.2-.2c-1.4-1.5-.2-.2-1.2-1.5-.3-.5-.2-.2-.9-1.2 0-.2-.7-1.2-1.7-2l-1.9-1.9c.9.7-1.4-1.2.7.3-.3-.2-1-.9-1.9-1.4-.9-.5-1.5-.9-1.4-.7-.3 0-1.5-.7.3.5l.3.2c.5.5.5.3.7.5 2.2 1.5 2.4 2 3.6 3.4l2.7 3.4.2.3c.3.7 2.4 2 1.7 1.7 1 1 2.4 1.9 3.8 2.4.3.2.7.3 1 .3.2 0 .3.2.5.2h.3c.5.7 1.4 1 2 1.4 3.1 1 6.3 1.2 9.4 1.5h5.1c.3 0 .7 0 1-.2.3 0 .5-.2.9-.2.3-.2.5-.2.9-.3l.3-.2c.2 0 .3-.2.2-.2-.3 0-.5-.2-.9-.2-.5-.2-1-.2-1.5-.3-.7-.2-1.2-.3-1.7-.3h.3c-3.2-1-3.9-1-6.7-2.4-.2 0-1.5-.7-2.9-1.4l-3.8-2c-.3-.2-.3-.3-.3-.3-2.4-1.5-4.1-4.1-6.5-5.6l-.9-.7-.5-.5.5.2c.7.3 1.2.3 1.9.7 2 .5 4.6.9 7 .9s4.8-.5 6.5-1c1.4-.3 3.2-.9 5.3-1.7l5.8-2.6-.3.2 6.8-2.6c2.2-.9 4.3-2 5.5-2.9 1.2-.7 2.9-1.9 3.9-3.8.2-.2.3-.5.5-1l-.7-.3c-.7 1.2-2.2 2.9-4.1 4.1s-4.3 2-6.1 2.7c-.7.2-3.8 1.2-3.9 1-1.5.5-3.2.9-4.8 1.5-1.5.5-3.4.7-5.1.7s-3.6-.3-5.3-.9l-2.6-1-.3-.2h.2c.3-.2.9-.3 1.2-.7 1.7-.9 3.4-1.7 4.8-3.1 1.4-1.4 2.7-2.7 3.6-4.3 1.9-3.2 2.2-7.2 2.4-10.6v.2c0-.9 0-1.9-.2-2.9v-2.4l-.5.5c-.2.2-.2.2.2-.3-.2.3-.5.7-.7 1-.2.3-.3.5-.5.9-.2.5-.5 1.2-.7 1.7l-.9 3.6v-.5c-.5 2.4-1.9 4.6-3.4 6.8l-.2.2s-.3.3-.5.7c-.3.3-.5.7-.5.7s0-.2.7-.9c-1.2 1.5-2.7 2.7-4.4 3.8-.9.5-1.7.9-2.7 1-.2 0-.5.2-.7.2h.1l.2-.2c.5-.3.9-.7 1.4-1 .9-.7 1.5-1.5 2.4-2.4 1.4-1.7 2.7-3.6 3.8-5.6.9-2.2 1-4.4 1.2-6.7.3-2.2.9-4.4 2.4-6l-.4-.1c-.5 1-1.5 1.9-2.2 2.7l-2 3.1-3.6 6.3c-.7 1-1.4 2-2.2 2.7-.9.9-1.9 1.4-2.9 2-2 1.2-3.8 3.2-6 3.9l.7-.3c-.7.3-1.2.5-1.9.5h-1.5l1-1c.5-.5.9-1 1.4-1.5l2.4-3.4 3.8-7.3s-.2.9 0 .2c.9-2.4 1.2-4.3 1.2-5.8v-1.7l-.5 1.7-.9 2.4c-.2.2-.2.2 0-.2-1.5 3.2-4.1 6.1-6.7 8.9l-3.9 4.1c-.7.7-1.4 1.2-2.2 1.9-.7.5-1.5 1-2.4 1v.3c1-.2 1.9-.7 2.6-1.4.7-.7 1.4-1.5 1.9-2.2 1-1.5 2-3.2 2.9-5.1.5-1.2.5-2.4.7-3.6.2-1.2.7-2.2 1.5-3.2l2.7-2.6c.9-.9 1.5-2.2 1.5-3.4v-1.5c0-.2 0-.5-.2-.3-.7.3-1.2.7-1.7 1-1 .7-1.9 1.7-2.7 2.6-1.5 2-2.6 4.3-3.9 6.3-1.2 1.7-2.4 3.6-3.9 5.1-.7.9-1.5 1.5-2.4 2.2-.9.7-1.9 1.2-2.9 1.4 2.2-.7 3.6-2.6 5-4.3 1.2-1.7 2.4-3.8 3.4-5.6s1.7-4.1 2.4-6.1c.9-2 1.7-4.1 3.4-5.5.9-.7 1.9-.7 2.6-.7v-.2c-2 0-3.9.3-5.6 1.2s-3.1 2.2-4.6 3.8h-.2c-1.6 1.7-3.1 3.6-4.4 5.5-.3.5-.9.9-1 1.5-.3.5-.7 1-1.4 1-.3 0-.2-.3-.2-.5 0-.3 0-.7-.2-.9l-.5-1.7c-1.2-4.8-2.7-9.4-3.1-14.3l.2.7c-.2-.7-.2-2.2-.2-3.4s.2-2 .2-1.9l.3-1.7c.9-3.2 3.2-5.3 4.4-8.2.3-.7.5-1.5.5-2.4s-.3-1.7-.9-2.4v-.2s0-.2 0 0v.3c0 .2 0 .5-.2.7 0 .5-.2.9-.3 1.4-.3.9-.9 1.7-1.4 2.6l.2-.5-3.6 5.1c.2-.2 0-.2.3-.5-1.9 2.9-2.2 6.5-3.4 9.7-.2.3-.3.9-.5 1.2-.2.5-.2.9-.2 1.4v2.7c0 1.7.2 3.6.3 5.3l-.2-.9c.2 1.5.5 3.9 1.2 6.1.7 2.4 1.7 4.8 3.1 6.3l-.3-.3-1.4-1.9c-1.4-2.6-2-5.3-2.6-8-1.2-3.1-1.4-5.8-1.4-8.7z" class="st45"></path><path d="M166.7 372.4c0-.1 0-.1 0 0zm23.5 33.7-.5-.5c.2 0 .4.3.5.5zM195 394c0-.2 0 0 0 0zm-.8.3c.1-.2.1 0 0 0 .2 0 .3 0 .3-.2 0 .2 0 0 0 0v-.1s.2 0 .2-.2.2-.2.2 0v-.2s0 .2 0 0c0 0 0 .2 0 0v-.2.2h-.3c0 .2-.2 0-.2 0l-.2.7c0-.3-.2-.2-.3-.3-.2 0-.3-.2-.3 0h-.2c-.2.2-.2 0-.3.2h-.3c-.2 0-.2-.2-.3 0-.2 0-.2.2-.3.2 0-.2-.2.2-.2 0-.2-.3-.2-.2-.3 0-.2-.2-.2.2-.3 0 0 .2-.2-.2-.2-.2 0-.2 0 .2 0 0v.2s0 .2 0 0v-.4.7c0-.2 0 0 0 0 0 .2 0-.2 0 0h.2v-.2.2c0 .2 0-.2 0 0v-.2h.2v-.2s0 .2 0 0v-.2.2l.2-.2c0-.2.2-.2.3 0v-.3s0 .2 0 0c0 0 0 .2 0 0 0 0 0 .2 0 0 .2 0 .3-.2.3-.2h.2c0-.2 0 .2 0 0h.2c0-.2.2 0 .2-.2s.2 0 .2 0h.2c0-.2.2.2.2 0v-.2c0-.2 0 .2.2 0 0 .2.2 0 .2 0 0 1.1.2 1.1.2 1.1zm-3.3 2.2c-.2-.1 0 .2 0 0z" class="st45"></path><path d="M190.9 396.5c-.2 0 0 .2 0 0zm-.5.7c0-.2.2 0 0 0 .2 0 .2-.2.2-.2v-.3s0 .2 0 0c0 0 0 .2 0 0v.2l-.2.2c0 .2 0 0 0 0v.1c-.2-.3-.2-.2-.3-.2-.2 0-.2 0-.2.2s-.2 0-.2.2c0 0-.2 0-.2.2s-.2 0-.2 0c-.2 0 0 .2-.2.2-.2-.2 0 .2-.2 0s-.2 0-.2.2c-.2 0 0 .2-.2 0 0 .2-.2-.2-.2 0 0-.2 0 .2 0 0 0 0 .2.2 0 .2l-.2-.2v-.2c0 .2.2.2.2.2s0 .2.2.2c0 0 0-.2 0 0v-.2c0 .2.2.2.2.2.2.2 0-.2 0 0v-.2h.2v-.3c0 .2 0 .2.2.2v-.2c0-.2 0-.2.2 0 0 0 0-.2-.2-.2.2 0 .2-.2.2-.2 0-.2 0 .2 0 0 0 0 0-.2.2-.2v-.2c0-.2.2 0 .2 0 0-.2.2.2.2 0v-.2c0-.2.2 0 0 0 .5.7.5.5.5.5zm-19.6-17.6v.2l.2-.2h-.2z" class="st45"></path><path d="M171.4 380.1c0-.2-.2-.2-.2-.2l-.2-.2c-.2 0-.2 0-.2-.2h.3c0 .2.2.2.2.2.2 0 0 .2 0 .2v.2c-.3.2-.2.2-.2.3s-.2.2.2.3v.2c.2 0 0 .2.2.2 0 .2 0 .2.2.3 0 0-.2.2 0 .2l.2.2c-.2 0 .2.2 0 .2-.3.2-.2.2 0 .3-.2 0 .2.2 0 .3.2 0-.2 0-.2.2-.2 0 .2 0 0 0h.2-.3.7c-.2 0 0 0 0 0 .2 0-.2 0 0 0v-.2h-.2.2c.2 0-.2 0 0 0h-.2v-.2c-.2 0 0 0-.2-.2h-.2c-.2 0-.2-.2 0-.2h-.3c0-.2-.2-.2-.2-.3v-.2c-.2 0 .2 0 0 0v-.2c-.2 0 0-.2-.2-.2s0-.2 0-.2c-.2 0 .2-.2 0-.2h-.2c-.2 0 0-.2 0-.2 1-.2.6 0 .6-.4 0 .2.2.2 0 0 .2.2 0 .2 0 0zM163.4 378.6h-.2.2zm0 0c-.2.2.2 0 0 0zm.7.8c0-.1 0-.1 0 0 0-.2-.2-.2-.2-.3l-.2-.2c-.2 0-.2-.2-.2-.2h-.2.3c0 .2.2.2.2.3.2 0 0 .2.2.2v.5c0 .2 0 .3.3.3v.2c.2 0 .2.2.3.2 0 .2.2.2.2.3.2 0 0 .2.2.3 0 .2.3 0 .3.2-.2.2.2 0 .2.2-.2.3 0 .3.3.3 0 .2.3 0 .2.3.2 0 0 .2 0 .2 0 .2.2-.2 0 0 0 0 .2-.2.2 0l-.2.2s0-.2.2-.2c0 0-.2.2 0 0h-.2c0-.2.2-.2 0-.2.2-.2-.2 0 0 0-.2.2 0 0-.2 0h-.2s0-.2 0 0h-.2l.2-.2h-.2c-.2 0-.2 0-.2-.2l-.2.2c0-.2-.3-.2-.3-.3-.2 0 .2-.2-.2 0-.2 0-.2-.2-.2-.2-.2 0 0-.2-.2-.2s0-.2-.2-.2 0-.2-.2-.2h-.2c-.2 0 0-.2-.2-.2.2-.2 0 0 0-.2.8-.7 1-.9.8-.9zm37.4 18.3h-.2.2zm-.2.2c.2-.3 0 0 0 0zM200.8 398.1c0-.2 0 0 0 0h.2c0 .2 0 0 0 0l.2-.2c0-.2.2 0 .2 0v-.2s0 .2 0 0c0 0 0 .2 0 0v-.2h-.2c0 .2 0 0-.2 0l-.2.6c0-.3 0-.2-.2-.3 0 0-.2-.2-.2 0s-.2 0-.2.2h-.2s0-.2-.2 0c0-.2-.2.2-.2 0s-.2.2-.2 0c0-.3-.2-.2-.2 0 0-.2-.2.2-.2-.2v-.2c0-.2-.2.2 0 0 0-.2-.2.2 0 .2.2-.2 0 0 0-.2v-.2c0 .2-.2.2-.2.2v.2s0-.2 0 0v-.2.2c0 .2 0-.2 0 0v-.3s0 .2 0 0v-.2.2-.2c.2-.2.2-.2.2 0v-.3s0 .2 0 0c0 0 0 .2 0 0 0 0 0 .2 0 0 0 0 .2-.2.2 0 0-.2 0 .2 0 0h.2c0-.2 0 0 .2-.2 0-.2 0 0 .2 0 0-.2 0 .2.2 0v-.2c.7 1.1.7 1.5.8 1.5h-.2c.1-.2.1-.2.2 0-.1-.2-.1-.2 0 0-.1 0 0-.2 0 0 0-.2 0 0 0 0zM96.6 496.3l41.2-53M180.2 390.4c-.2 0-.2-.2 0 0-.3-.2-.3 0-.5 0 0-.2-.2 0-.2 0h-.3c-.2.2-.2.2-.3 0v.2s0-.2 0 0c0 0 0-.2 0 0h.2v.2h.3c.2-.2.2 0 .2 0h.2c.2.2.3.2.5.3.2.2.3.3.7.2h.2c.2 0 .3.2.5 0 .2.2.3.2.5.2s.2.2.3.2c.2.2.3 0 .5 0 0 .2.3-.2.3 0 .2.3.3.2.5 0 .2.2.3-.2.5.2 0-.2.2.2.2.2 0 .2 0-.2.2 0v-.2s0-.2 0 0v.3-.7c0 .2 0 0 0 0 0-.2 0 .2 0 0h-.2v.2-.2c0-.2 0 .2 0 0v.2h-.2c0 .2 0 0-.2.2 0 0 0-.2-.2 0 0 0-.2 0-.2.2v-.2s-.2 0-.2.2c-.2.2-.3 0-.3-.2l-.2.2v-.2s0-.2 0 0c-.2-.2-.5 0-.7-.2h-.2s0-.2-.2 0c-.2 0-.2 0-.3-.2-.2.2-.2 0-.3 0s-.2-.2-.3-.2h-.2c-.2.2-.2-.2-.3-.2l-.2.2c-.2.2 0-.2-.2 0 0-.2-.2 0-.2 0h-.2l.5-.9h.2c-.2-.2-.2 0-.2 0zm-2.1-9.2c.2.1 0 0 0 0zm.2 0s-.2 0 0 0zM178.6 380s-.2 0 0 0c-.2.2-.2.3-.2.5-.2 0 0 .2 0 0v.3c.2.2 0 .2-.2.3v-.1s.2 0 0-.2h.2c.2-.2.2-.3.2-.5-.2-.2.2-.2 0-.2v-.1c.2-.2.2-.3.3-.5.2-.2.3-.3.2-.7v-.2c-.2-.2.2-.3 0-.5v-.5c0-.2.2-.3.2-.3.2-.2-.2-.3 0-.5.2 0-.2-.2 0-.3.3-.2.2-.3 0-.5.2-.2-.2-.3 0-.5-.2 0 .2-.2.2-.2.2 0-.2 0 0-.2h-.2s-.2 0 0 0h.2-.7c-.2 0 .2 0 0 0v.2c-.2 0 .2 0 0 0h.2v.2c.2 0 0 .2.2.2 0 0-.2 0 0 .2 0 0 0 .2.2.2h-.2s0 .2.2.2c.2.2.2.3 0 .3 0 0 .2 0 .3.2 0 0-.2 0 0 0 0 0-.2 0 0 0 0 0-.2 0 0 0 0 .2.2.5 0 .7v.2c.2 0-.2 0 0 .2v.3c.2.2 0 .2.2.3.2.2 0 .2 0 .3v.2c.2.2-.2.2 0 .3h.2c.2.2-.2 0 0 .2-.2 0 0 .2 0 .2v.2l-1.5.1c0-.2 0-.2 0 0zM165.5 370c-.2 0 0-.2-.2-.3-.2-.3-.3-.5-.5-.7 0-.2-.2-.2-.2-.2l-.5-.5c-.2-.2-.3-.3-.3-.5 0 .2.2 0 .2.2 0 0 0 .2.2.2v.2h.2c.2.3.3.5.5.9.2 0 .2.3.3.5l.2.2h.2c0 .5.3.9.5 1.2.2.5.3.9.7 1.2.2.2.2.2.2.3.3.2.3.7.5.9.2.3.3.7.5 1.2.2.3.2.7.3.9 0 .3.3.7.3 1-.2.2.3.3.2.7-.2.5 0 .9.3 1.2 0 .3.2.7 0 1.2.2.2-.2.3-.2.5-.2 0 .2.2 0 .2s.2 0 .2.2c-.2 0 0 .2-.2.2h-.2s0 .2.2 0h.5s.2 0 .2-.2c-.2 0 0 0 0-.2.2 0-.2 0 0 0v-.5s0-.2-.2 0c.2 0 .2-.2.2-.2.2 0-.2 0 0-.2-.2 0 0-.2-.2-.2v-.3c-.2 0 0-.2-.2-.3v-.3c0-.2 0-.2-.2-.3.2 0 .2-.2.2-.2s0-.2-.2-.3v-.2c-.3-.2-.3-.5-.2-.9h-.3v-.3c-.2-.5-.5-.9-.5-1.4h-.2c0-.2-.2-.2-.2-.3-.2 0 0-.2-.2-.2-.2-.2-.2-.3-.3-.7-.2-.2-.2-.3-.3-.5s-.2-.5-.3-.7c0-.2-.2-.2-.2-.3-.2-.2 0-.5-.3-.5-.2 0 0-.2-.2 0-.3 0 0-.3-.2-.3 0 0-.2 0 0-.2 0-.2-.2-.2-.2-.3-.2 0-.2-.2-.2-.2.4-.5.3-.7.3-.7zm-5.8 17.6v-.2l-.2.2h.2zm-.4-.1h.2s-.2.1-.2 0zm0 0s-.2 0 0 0zM154.9 381.8c.2.2.2.5.2.9.2.7.7 1.4 1 2h.2c0 .2.3.3.3.5h.2c.3.5.9.9 1.2 1.4.5.2.9.5 1.4.9-.2-.2-.3 0-.3-.2h-.2c-.2-.2-.3-.3-.5-.3 0-.2-.2-.2-.2-.3h-.2c-.5-.7-1.2-1.2-1.5-2-.3-.3-.3-.9-.5-1.2-.2-.2-.2-.3-.2-.5l-.2-.2-.7-3.4c-.2-1.4 0-2.4-.3-3.6 0-.3 0-.7-.2-1-.2-.9-.2-1.7-.3-2.6-.2-1-.3-2-.7-3.1-.3-.9-.3-1.7-.5-2.4-.2-.9-.7-1.7-1-2.6 0-.5-.7-1-.7-1.5-.2-1-.9-1.9-1.4-2.7-.3-.9-.9-1.7-1.2-2.6-.3-.3-.3-.9-.7-1.2 0-.2-.3-.2-.3-.3s-.3 0-.3-.2c-.2 0 0 0 0-.2h-.3c.2-.2-.2-.2-.2-.3 0 0 0-.2.2-.2 0 0-.2-.2-.2 0s-.2.2-.2.3v.2c.2 0 0 .2.2.3.2 0 .2 0 .2.2h.2c.2.2.5.3.7.7l.2.2c0 .2 0 .3.2.5 0 .2.2.2.2.3.2 0 .2.3.3.3.2.3.2.5.3.9.2.2.2.5.3.7 0 .2 0 .3.2.7.2.2.2.5.3.7-.2.2 0 .2 0 .3.2.2.3.5.5.7 0 0 .2.2 0 .2.5.5.9 1.4 1 2 .2 0 .3.2.3.2 0 .2 0 .3.2.3.2.2 0 .3.2.3h-.1c.3 1.2 1 2.2 1.2 3.4l.2.2c0 .3.2.5.2.9.2.2 0 .3.2.5.2.5.3 1.2.3 1.9.3.5.2 1 .3 1.5.2.7.2 1.4.2 2 0 .3 0 .6.2.9.2.5 0 1 .2 1.5.2 0 0 .3.2.3v.2c.2.3 0 .7.2 1 0 .2.2.2 0 .3-.2.3.2.7.2 1.2.2.2.2.5.2.7v.2c-1.1-.4-.9-.1-.9.2zM146.7 355.2c-.2 0-.2 0 0 0zm10.2 9c-.3 0 0-.1 0 0zm1.7 2.9c0-.2 0-.3-.2-.3-.2-.3-.3-.7-.5-.9 0-.2-.2-.2-.2-.2h-.2c-.2-.2-.3-.5-.5-.7-.3-.2-.3-.3-.5-.5 0 .2.2 0 .2.2l.2.2v.2h.2l.5 1c.2.2.2.3.2.5l.2.2h.2c0 .5.2 1 .2 1.5s0 1 .2 1.7v.5c.2.3 0 .9.2 1.2v1.5c0 .3-.2.7 0 1.2 0 .3.2.9.2 1.2-.2.3.2.5 0 .9-.2.5 0 1 .3 1.4 0 .5.3.9.3 1.2.2.2 0 .5.2.7-.2.2.2.2 0 .2h.2c-.2.2.2.2-.2.2h-.2s0 .2.2 0c.2 0 .2 0 .2-.2 0 0 0-.2.2-.2-.2 0 0 0 0-.2 0 0-.2 0 0 0-.2-.2-.2-.2-.2-.3 0 0 0-.2-.2 0 .2 0 0-.2 0-.2.2-.2-.2 0 0-.2-.2 0 0-.2-.2-.2v-.3c-.2 0 0-.2-.2-.3v-.3c0-.2 0-.2-.2-.3.2 0 .2-.2.2-.2-.2 0-.2-.2-.2-.3v-.2c-.2-.3-.2-.7-.2-1 0 0-.2 0-.3-.2v-.3c0-.5-.2-1-.2-1.7v-.6c-.2-.2.2-.2 0-.2v-.9c-.2-.2 0-.5-.2-.7-.2-.3 0-.7 0-1v-.3c-.2-.2.2-.5-.2-.7-.2 0 0-.2-.2-.2-.2-.2 0-.3-.2-.5v-.2c.2-.2 0-.3-.2-.5-.2 0 0-.2-.2-.3 1.5-.2 1.3-.2 1.3-.4zm1.7 12.7c0 .2 0 0 0 0zm20 6.8c0-.2.2.2 0 0zM179.6 387.3c.2 0 .3-.2.3-.2 0 .2 0 0 0 0l.2-.2c0-.2 0-.2.2-.2 0 0 0 .2 0 0 0 0 0 .2 0 0v.3c-.2 0-.2.2-.3.2 0 .2-.2 0-.2 0l-.2.1c-.2-.3-.2-.2-.3-.2-.2 0-.3-.2-.5.2h-.2c-.2.2-.2 0-.3.2h-.3c-.2 0-.2-.2-.3 0-.2-.2-.2.2-.3 0 0-.2-.2.2-.2 0-.2-.3-.3-.2-.3 0-.2-.2-.2.2-.3 0 0 .2-.2-.2-.2-.2 0-.2 0 .2 0 0v.2s0 .2 0 0v-.3.7c0-.2 0 0 0 0 0 .2 0-.2 0 0h.2v-.2.2c0 .2 0-.2 0 0v-.2h.2c0-.2 0 0 .2-.2 0 0 0 .2 0 0l.2-.2v.2l.2-.2c.2-.2.2-.2.3 0v-.3s0 .2 0 0c0 0 0 .2 0 0 0 0 0 .2 0 0 .2 0 .3-.2.5-.2h.2c0-.2 0 .2 0 0h.2c0-.2.2 0 .2-.2.2-.2.2 0 .3 0h.2c0-.2.2.2.2 0v-.2c0-.2.2.2.2 0 0 .2.2 0 .2 0-.4.9-.4.9-.3.9z" class="st45"></path><path d="M362.9 115.9c-.2 0-.2-.2-.2-.2-.2-.2-.3-.2-.7-.3 0-.2-.2 0-.2-.2-.2 0-.3-.2-.5-.2s-.3-.2-.3-.2h.2s.2.2.2 0v.2h.2c.2.2.3.3.7.3.2 0 .2.2.3.2h.2c.2.3.5.3.7.7.3.2.5.5 1 .5.2 0 .2.2.3.2.3 0 .5.3.7.2.2.2.5.3.9.3.2 0 .3.3.7.3.2.2.5 0 .7.2s.3 0 .5.2c.2.3.5.3.9.2.2.2.5 0 .9.2.2-.2.2.2.3.2 0 .2.2-.2.2 0s.2-.2.2-.2 0-.2 0 0 .2 0 0 .2v.2-.7c0 .2 0 0 0 0 0-.2 0 .2 0 0h-.3v.2c0-.2 0-.2-.2-.2 0-.2-.2.2-.2 0 0 .2 0 0-.2.2-.2 0-.2-.2-.2-.2-.2.2-.2-.2-.2 0 0 0-.2-.2-.2 0h-.2v-.2h-.2v-.2c-.2.2-.5 0-.7-.2l-.2.2s0-.2-.2-.2c0 0 0-.2-.2 0-.3-.2-.7-.2-1-.2h-.2c0-.2-.2 0-.2 0-.2 0 0-.2-.2 0-.2 0-.3-.2-.5-.2-.2.2-.3-.2-.5 0-.2 0-.3-.2-.5-.3h-.2c-.2 0-.2-.3-.3-.2-.2.2-.2-.2-.3-.2h-.2c0-.2-.2-.2-.3-.2h-.2c.1-.4-.1-.4-.1-.4zM368.1 122.2v-.2.2zm-.2 0c0-.2 0 .2 0 0z" class="st3"></path><path d="M367.9 122.2s0 .2 0 0zm-2.6-.7c.2 0 .2.2.3.2.2.2.5.2.9.3 0 .2.2 0 .2.2h.7c.2-.2.3 0 .5 0v-.2s-.2.2-.2 0c0 0 0 .2 0 0h-.2c0-.2 0 0-.2-.2s-.5-.2-.9-.3c-.2.2-.3-.2-.5-.2h-.3c-.2-.3-.7-.5-.9-.9-.3-.3-.5-.7-.9-.9-.2 0-.2-.2-.2-.3-.3-.2-.3-.5-.7-.7-.2-.3-.5-.7-.7-.9-.2-.2-.2-.5-.3-.9 0-.3-.5-.5-.5-.9 0-.2-.3-.3-.3-.5 0-.5-.2-.7-.5-1 0-.3-.3-.5-.3-1-.2-.2 0-.3 0-.5.2-.2-.2 0 0-.2h-.2s-.2 0 0 0 0 0 .2-.2c-.2 0-.2 0-.2.2l-.1.4c0 .2.2.2.2.3 0 0 0 .2.2 0-.2 0-.2.2 0 .2-.2.2.2 0 0 .2.2 0 0 .2.2.2v.3c.2 0 0 .2.2.2v.2l.2.2-.2.2c.2 0 .2.2.2.2v.2c.3.2.3.5.3.9h.3v.3c.2.3.5.7.7 1h.2c0 .2.2.2.2.3.2 0 0 .2.2.2.2.2.3.3.3.5.2 0 .2.3.5.3.2.2.3.5.5.7 0 .2.2.2.2.2.2 0 .2.3.3.3s0 .2.2 0c.2 0 .2.2.3.2h.2c0 .2.2.2.3.3.2 0 .2.2.2.2-.7.7-.6.7-.6.7zm-8.9-2.9h.2-.2zm.4 0c-.4.2 0 0 0 0zm0 .2c-.2 0 0 0 0 0z" class="st3"></path><path d="M359.2 120c-.2 0-.2-.2-.3-.2-.2-.2-.5-.2-.9-.3 0-.2-.2 0-.2-.2-.2-.2-.3-.2-.7-.3-.3 0-.3-.2-.5-.3 0 .2.2 0 .2.2l.2.2v.2h.2c.2.2.5.3.9.5.2 0 .3.2.5.2h.3c.3.3.7.3 1.2.7.5.2.9.5 1.4.3.2 0 .2.2.3.2.3 0 .7.2 1 .2.3.2.7.2 1.2.2.3 0 .5.2.9.2.3.2.7-.2 1 0 .2.2.5-.2.7 0 .3.3.7.2 1.2 0 .3.2.7-.2 1 .2.2-.2.3.2.5.2 0 .2.2-.2.2 0s0-.2.2-.2c0 0 0-.2 0 0s.2 0 .2.2v.2-.5s0-.2-.2-.2c0 .2 0 0 0 0 0-.2 0 .2 0 0h-.3s-.2 0 0 .2c0-.2-.2-.2-.2-.2 0-.2 0 .2-.2 0 0 .2-.2 0-.2.2h-.3c-.2.2-.2 0-.3.2 0 0-.2-.2-.2 0-.2 0-.2 0-.3.2 0-.2 0-.2-.2-.2 0 0-.2 0-.3.2-.3.2-.5 0-.9-.2 0 0-.2.2-.2.3 0 0-.2-.2-.2 0 0 0-.2-.2-.2 0 0 0 0-.2 0 0-.3-.2-.9 0-1.4 0h-.5c-.2 0-.2-.2-.2 0-.2 0-.5 0-.7-.2-.2.2-.3 0-.7 0s-.5-.2-.7-.2h-.3c-.2.2-.3-.3-.5-.2 0 0-.2 0-.2.2-.2.2-.2-.2-.3 0h-.2c0-.2-.3-.2-.3-.2h-.3c-.1-1.7-.2-1.7-.2-1.8z" class="st3"></path><path d="M365 127c.2-.2 0 .1 0 0zm0 0s0 .1 0 0zm-2.9-.9c.2 0 .2.2.3.2.3.2.7.2.9.3 0 .2.2 0 .2.2.2 0 .5.2.7.2.2-.2.5 0 .7 0v-.2h-.2s0 .2 0 0h-.3c0-.2-.2 0-.2-.2-.3-.2-.7-.2-1-.3-.2 0-.3-.2-.5-.2h-.3c-.3-.3-.7-.5-1-1-.3-.3-.5-.9-1-1.2-.2-.2-.2-.3-.2-.3-.3-.2-.3-.7-.7-.9-.2-.3-.3-.9-.5-1.2-.2-.3-.2-.7-.3-1 0-.3-.3-.7-.3-1 .2-.3-.3-.5-.2-.7.2-.5 0-.9-.3-1.4 0-.3-.2-.9 0-1.2-.2-.2.2-.3.2-.7.2 0-.2-.2 0-.2s-.2-.2-.2-.2-.2 0 0 0 0-.2.2-.2h.2v-.2h-.5s-.2 0-.2.2c.2 0 0 0 0 .2-.2 0 .2 0 0 0v.5s0 .2.2 0c-.2 0-.2.2-.2.2-.2 0 .2.2 0 .2.2 0 0 .2.2.2v.3c.2.2 0 .2.2.3 0 0-.2.2 0 .3 0 .2 0 .2.2.3-.2 0-.2.2-.2.2s.2.2.2.3v.2c.3.3.2.7.2 1h.3v.3s-.2 0 0 0l.5 1.5h.2c0 .2.2.2.2.3.2 0 0 .2.2.2.2.2.3.4.3.7.2.2.2.3.5.5.2.2.3.5.5.9 0 .2.2.2.2.3.2 0 .2.5.5.5.2 0 0 .2.2 0 .3 0 .2.3.3.3 0 0 .2 0 .2.2s.2.2.3.3c.2 0 .2.2.3.2-1.4.8-1.2.8-1 .8zm-7.5-4.6c-.2.2 0 0 0 0z" class="st3"></path><path d="M354.6 121.5c0 .2 0 0 0 0zm2 1.7c-.2 0-.2-.2-.2-.2-.2-.2-.4-.3-.7-.3 0-.2-.2 0-.2-.2-.2-.2-.3-.3-.5-.3s-.3-.2-.3-.3c0 0 .2 0 .2.2l.2.2v.2h.2c.2.2.3.5.7.7.2 0 .2.2.3.3 0 0 .2 0 .2.2h.2c.2.3.7.5.9.7.3.3.7.5 1.2.5.2 0 .2.2.3.2.3 0 .5.2.9.2.3.2.7.2 1 .3.3 0 .5.3.9.3.3.2.7 0 .9.2.2.2.5-.2.5.2.3.3.7.2 1 0 .3.2.7-.2 1 .2.2-.2.3.2.5.2 0 .2.2-.2.2 0s0-.2.2-.2c0 0 0-.2 0 0s.2 0 .2.2v.2-.7s0-.2-.2-.2c0 .2 0 0 0 0 0-.2 0 .2 0 0h-.3s-.2 0 0 .2c0-.2-.2-.2-.2-.2 0-.2 0 .2-.2 0 0 .2-.2 0-.2.2h-.3c0 .2-.2 0-.2.2 0 0-.2-.2-.2 0 0 0-.2 0-.2.2v-.2s-.2 0-.3.2v-.2c-.3.2-.5 0-.7-.2l-.2.2s0-.2-.2-.2c0 0 0-.2-.2 0 0 0 0-.2 0 0-.3-.2-.9 0-1.2-.2h-.2c0-.2-.2 0-.3 0s0-.2-.2 0c-.2 0-.3 0-.5-.2-.2.2-.3-.2-.5 0-.3 0-.5-.2-.7-.3h-.2c-.2.2-.2-.3-.5-.2h-.2c-.2.2-.2-.2-.3-.2h-.2c0-.2-.2-.2-.3-.2s-.2-.2-.2-.2c-.5-1.5-.7-1.5-.7-1.5zm6.7 6.5c.1-.2 0 .2 0 0z" class="st3"></path><path d="M363.3 129.7s0 .2 0 0zm-2.9-.7c.2 0 .2.2.3.2.3.2.5.2.9.3 0 .2.2 0 .2.2.2 0 .5.2.7.2.2-.2.5 0 .7 0v-.2h-.2s0 .2 0 0h-.3c0-.2-.2 0-.2-.2-.3-.2-.7-.2-1-.3-.2.2-.3-.2-.5-.2h-.3c-.3-.3-.7-.5-1-.9-.3-.3-.7-.7-1.2-.9-.2 0-.2-.2-.3-.3-.3-.2-.5-.5-.9-.7-.2-.3-.5-.7-.9-1-.2-.3-.2-.7-.5-.9 0-.3-.5-.5-.5-.9s-.3-.3-.3-.7c.2-.5-.2-.9-.5-1.2 0-.3-.3-.7-.2-1.2-.2-.2.2-.3 0-.5.2 0-.2-.2 0-.2s-.2 0-.2-.2c0 0-.2 0 0 0s0-.2.2-.2h.2s0-.2-.2 0h-.5s-.2 0-.2.2c.2 0 0 0 0 .2-.2 0 .2 0 0 0v.3s0 .2.2 0c-.2 0-.2.2-.2.2-.2.2.2 0 0 .2.2 0 0 .2.2.2v.3c.2 0 0 .2.2.3v.3c0 .2 0 .2.2.3-.2 0-.2.2-.2.2.2 0 .2.2.2.3v.2c.3.2.3.5.3.9h.3v.3c.2.5.5.9.9 1.4h.2c0 .2.2.2.2.3.2 0 0 .2.2.2.2.2.4.4.5.7.3 0 .3.3.5.3.3.2.3.5.5.7 0 .2.2.2.2.2.3 0 .2.3.5.3.2 0 0 .2.2 0 .2 0 .2.3.3.3h.2c0 .2.3.2.3.3.2 0 .2.2.3.2.3.3.5.3.5.5zm-5.8-9.5s0-.2 0 0zm.1-.9c.2-.3 0 0 0 0z" class="st3"></path><path d="M356.1 120.3c-.2 0-.2-.2-.3-.2-.2-.2-.5-.3-.9-.5 0-.2-.2 0-.2-.2-.2-.2-.3-.3-.7-.3h-.2l.2-.3c0-.2.3-.2.5-.2s.2 0 .3.2v-.2h-.2s0 .2 0 0c-.2 0-.3 0-.5.2h-.2l-.2.2.2.3v.2h.2c.2.3.5.5.9.7.2 0 .3.3.5.3 0 0 .2 0 .2.2h.2c.3.3.7.5 1 .9.3.3.7.7 1.4.9.2 0 .2.2.3.2.3 0 .7.3 1 .5.3.2.7.5 1.2.7.3.2.5.5.9.5.3.2.7.2 1 .5.2.3.5 0 .7.3.2.5.7.5 1.2.5.3.3.9.2 1 .7.2 0 .3.3.5.3 0 .2.2 0 .2.2s.2-.2.2 0v.2c-.2.2.2 0 0 .2v.2h.2c0-.2.2-.2.2-.2v-.3h-.2s-.2.2 0 0c-.2 0-.2-.2-.3-.2h-.2v-.2c0-.2-.2.2-.2-.2 0 .2-.2-.2-.2 0-.2 0-.2-.2-.3-.2s-.2-.2-.3 0l-.2-.2c-.2 0-.2-.2-.3 0v-.2h-.3s-.2 0 0-.2c-.4 0-.7-.2-.9-.5l-.2.2s0-.2-.2-.2c0 0 0-.2-.2-.2-.3-.3-1-.3-1.4-.7h-.2c0-.2-.2-.2-.3-.2s0-.2-.2 0c-.3 0-.5-.2-.7-.3-.3 0-.3-.2-.7-.2-.3 0-.5-.3-.7-.5-.2 0-.2 0-.3-.2-.3 0-.3-.3-.5-.3 0 0-.2-.2-.2 0-.2.2-.2-.2-.3-.2h-.2c0-.2-.3-.2-.3-.3-.2 0-.2-.2-.3-.2-.3-1.3-.5-1.5-.5-1.5zM352.7 123.6s0-.2 0 0zm1.7 1.8c-.2 0 0-.2-.2-.2l-.5-.5c0-.2-.2-.2-.2-.2l-.5-.5c-.2 0-.3-.2-.3-.3 0 0 .2 0 .2.2l.2.2v.2h.2c.1.3.3.5.5.7.2 0 .2.3.3.3 0 0 .2 0 .2.2l.1-.1c.2.3.5.7.7 1 .3.3.5.7.9.9.2 0 .2.2.3.2.3.2.5.5.7.5.2.2.5.5.9.7.3.2.3.5.7.5.2.2.7.2.9.3s.5 0 .5.2c.2.3.7.3 1 .3.3.2.7 0 1 .3.2 0 .3.2.5.2 0 .2.2-.2.2 0s.2-.2.2-.2 0-.2 0 0 .2 0 0 .2v.2-.7c0 .2 0 0 0 0 0-.2 0 .2 0 0h-.3s-.2 0 0 .2c0-.2-.2-.2-.2-.2 0-.2-.2.2-.2 0 0 .2-.2 0-.2.2-.2 0-.2-.2-.3-.2-.2.2-.2-.2-.3 0l-.2-.2h-.3v-.2h-.3v-.2c-.3.2-.5 0-.7-.3l-.2.2s0-.2-.2-.2c0 0 0-.2-.2 0-.3-.2-.9-.3-1.2-.5h-.2c0-.2-.2-.2-.3-.2s0-.2-.2 0c-.2 0-.3-.2-.5-.3-.3 0-.3-.2-.5-.2-.3 0-.3-.3-.5-.5l-.2-.2c-.2 0-.2-.3-.3-.3s0-.2-.2 0c-.2 0 0-.2-.3-.2h-.2c0-.2-.2-.2-.3-.3-.2 0-.2-.2-.2-.2.4-.8.4-.8.2-.8zm-2.4-4.1v-.2.2zm.2-.1c-.2.1 0 0 0 0z" class="st3"></path><path d="M352.7 121.8c0-.2-.2-.2-.2-.3l-.2-.2c-.2 0-.2 0-.2-.2h-.1.2c-.2 0 0 0 0 0h.2c0 .2.2.2.2.2.2 0 0 .2 0 .2l.1.3c-.3.2-.2.2-.2.3 0 .2 0 .3.2.3v.2c.2 0 0 .2.2.2 0 .2.2.2.2.3.2 0 0 .2 0 .2 0 .2.3 0 .2.2-.2.2.2 0 .2.2-.2.2 0 .2.2.2 0 .2.2.2.2.3.2 0-.2.2 0 .2-.2 0 .2 0 0 0 0 0 .2-.2.2 0l-.2.2h-.2c.2 0 .2-.2.2-.2s.2 0 .2-.2c0 0-.2 0 0 0h-.2c.2 0 .2-.2.2-.2.2-.2-.2 0 0 0h-.2v-.2h-.2s0-.2 0 0h-.2c.2-.2.2 0 .2-.2h-.2c-.2 0-.2 0-.2-.2 0 0-.2 0-.2.2 0-.2-.2-.2-.3-.3-.2 0 .2-.2-.2 0-.2 0-.2 0-.2-.2-.2 0 0-.2-.2 0-.2 0 0-.2-.2-.2s.2-.2-.2-.2h-.2c-.2 0 0-.2 0 0 1.3-.7 1.1-.7 1.1-.9 0 .2.2.2 0 0z" class="st3"></path><path d="m378.1 119.8 35-4.6L454.4 57S471 28.1 443.3 6.8c-30.1-18.1-51.6 6.1-51.6 6.1L372.5 39 350 70.9l8 36c5.1 12.9 20.1 12.9 20.1 12.9" class="st49"></path><path d="m378.3 96.7 25.3-34.8 30.6 22-22.4 31.1-35 4.1 1.5-22.4z" class="st3"></path><path d="M373.4 40 351 71.3l7.3 34.5c4.6 12.8 19.3 13.2 19.3 13.2l.7-22.2L403.6 62c0-.1-30.2-22-30.2-22z" class="st41"></path><path d="m378.3 96.7-21.2 3.4c.3 3.1 1.7 7 1.7 7l14.5-3.2 1.2 15.2c1.7.9 7.2-.3 7.2-.3l-3.4-22.1z" class="st50"></path><path d="m434.2 83.9 19.3-26.6s16.1-28-10.4-49.5l-39.3 54.3 30.4 21.8z" class="st41"></path><path d="m454.5 21.6-12.8 17.9-5.8-7.7 13-18.3c.1 0 3.9 4.5 5.6 8.1zm1.7 4.1L443.9 43l5 7 9.4-13.2c-.2 0-.2-6-2.1-11.1zm-15.4 31.6c-11.1.7-13.8-7.9-13.8-7.9l.2-4.6c6.7 0 9.9 2.4 9.9 2.4 5 2.9 7.9 11.4 7.9 11.4l-4.2-1.3zM373.4 40l19.1-26.6s21.4-24.3 50.4-6l-39.3 54.3L373.4 40z" class="st3"></path><path d="M396.6 25.5c2.9 10.8 11.8 10.8 11.8 10.8l4.3-1.7c-2-6.3-5.5-8.7-5.5-8.7-4.3-3.8-13.3-3.9-13.3-3.9l2.7 3.5z" class="st51"></path><path d="M426 1.1 413.2 19l9.2 2.9 13-18.3s-5.8-2.2-9.4-2.5zm-15.4 1.3L401 15.8l8.2 2.4L421.7.9c0-.2-5.6-.2-11.1 1.5z" class="st50"></path><path d="m165.6 385.3-34.2 4.8-24.8 29.2-19.8 25.5s-19 29.2 8 52.1c29.7 19.5 52.3-4.1 52.3-4.1l20.3-26 23.6-30.9-5.5-36.4c-4.5-13.6-19.9-14.2-19.9-14.2" class="st49"></path><path d="m167.3 405.6-29.7 37.8 29.6 22.9 23.2-30.4-6-35.4-17.1 5.1z" class="st3"></path><path d="m167 386.4-34.8 4.8-24.3 29 29.9 23.1 29.6-37.8 17.1-5.1c-4.3-12.9-17.5-14-17.5-14z" class="st41"></path><path d="m185.1 404.2-.5-2.6-15.4 1.2-3.1-16.2c-1.5-.2-2.6.3-2.6.3l3.6 18.6 18-1.3z" class="st50"></path><path d="M184.8 401.8s-.2-.9-.9-2.6l-12.5.9-2.4-13.3c-1.7-.3-2.9-.3-2.9-.3l3.1 16.4 15.6-1.1z" class="st50"></path><path d="M183.9 399.3s-.3-1-1.2-2.4l-9.1.7-1.9-9.7-2.6-.9 2.4 13.3 12.4-1z" class="st50"></path><path d="m166.8 466.4-20.2 25.8s-22.4 23.4-50.6 3.9l41.3-52.8 29.5 23.1z" class="st41"></path><path d="m107.9 420.3-20.2 26s-17.1 27.3 8.5 49.9l41.3-52.8-29.6-23.1z" class="st3"></path><path d="M319 457.2c-57.9-85.6-6.1-181.8-6.1-181.8 61-103.3-21.4-159-21.4-159s-24.3-16.2-37.1-34.7c-13.3 17.6-37.1 34.7-37.1 34.7s-82.3 55.9-21.4 159c0 0 51.8 96.3-6.1 181.8 0 0 23.9 37.6 64.6 54.8.1 0 40.7-14.3 64.6-54.8z" class="st40"></path><path d="M313.9 458.4c-57.9-85.6-6.8-181.8-6.8-181.8 59.3-99.4-14.9-153.2-14.9-153.2S261 101 254.5 89c-6.5 12-36.2 33.3-36.2 33.3s-78.2 55-16.6 154.3c0 0 51.2 95.8-6.7 181.4 0 0 21 31.6 59.4 49.5.1.1 34.2-10.7 59.5-49.1z" class="st41"></path><path d="M247.3 132.9h16.6v50.9h-16.6v-50.9z" class="st3"></path><path d="M271.5 129.5c0 5.3-7.2 8.5-16.1 8.5-8.9 0-16.1-3.2-16.1-8.5 0-5.5 7.2-8.5 16.1-8.5 9-.2 16.1 3.1 16.1 8.5zm-26.8 66.7h20.7V451l-9.9 21.7-9.9-21.5-.9-255z" class="st53"></path><path d="m245.6 451.2 9.9-21.5 9.9 21.4m-9.9-21.4V202.5" style="fill:none;stroke:#fff;stroke-width:.331;stroke-miterlimit:10"></path><path d="m320.4 288.2 17.8-32.5s24.4 3.4 23.2 40.1c0 0 .9 17.1-11.4 15.5 0 0-17.1-28.2-40.5-23.2 0 0-24.9 11.6 1.4 61.2 0 0-5.5 4.3-37.4-5.8 0 0-6 22.7 10.9 32.6 26.3 1.9 30.9-3.6 30.9-3.6 2.2-3.4 6.7-2.9 6.7-2.9 3.1 1.2 9.4 2.6 9.4 2.6 9.7 1.4 12-5 12-5 1.5-6.8-2.9-10.6-2.9-10.6-3.4-3.8-8.5-4.3-8.5-4.3l-5-13.2c-5-10.2.5-13.7.5-13.7 8.5-2.4 9.4 9.6 9.4 9.6 1.4 13.3 8.7 19.6 8.7 19.6 10.2 10.8 20.3 3.1 20.3 3.1 38.1-21.9 37.4-71.9 37.4-71.9-6.1-67-66.3-61.2-66.3-61.2-11.3 0-7.7-10.8-7.7-10.8 2.9-8.7 5-3.6 5-3.6 6.1 20.7 30.9 12.8 30.9 12.8 17.1-7.9 12.3-22.9 12.3-22.9-2.9-21.9-27.8-23.7-27.8-23.7-5.5-2-5.5-13.8-5.5-13.8 10.9-61-35.9-82.2-35.9-82.2-8.2-3.9-3.1 3.1-3.1 3.1 31.3 40 10.8 75.8 10.8 75.8-3.1 5.5-2.9 14.3-2.9 14.3-.5 11.8 7.7 19.3 7.7 19.3s-15.7 18.3-.3 38.6c0 0-12.8 25.3-15.2 36.4 0 0-2 6.7-9.7 6.5 0 0-20 1.4-21-2.6 0 0-1.9-10.1-7.9-9.6l.2 11.6c-10.6 5.6-22.9-.7-22.9-.7v-9.9c-5.3.2-5.8 8.5-5.8 8.5-1 3.9-21 2.6-21 2.6-7.7.3-9.7-6.5-9.7-6.5-2.4-11.1-15.2-36.4-15.2-36.4 15.5-20.3-.3-38.6-.3-38.6s8.2-7.5 7.7-19.3c0 0 .3-9.1-2.9-14.3 0 0-20.3-35.9 10.8-75.8 0 0 5.1-7-3.1-3.1 0 0-47 21.2-35.9 82.2 0 0 0 11.8-5.5 13.8 0 0-25.6 1.9-28.4 23.7 0 0-4.3 15.2 13 22.9 0 0 24.8 7.7 30.9-12.8 0 0 2-5.1 5 3.6 0 0 3.6 10.8-7.7 10.8 0 0-60.1-6-66.3 61.2 0 0-.9 50.1 37.4 71.9 0 0 10.1 7.7 20.3-3.1 0 0 7.3-6.1 8.7-19.6 0 0 1-12 9.4-9.6 0 0 5.6 3.4.5 13.7l-5 13.2s-5.1.5-8.5 4.3c0 0-4.4 3.8-2.9 10.6 0 0 2.2 6.3 12 5 0 0 6.3-1.4 9.4-2.6 0 0 4.4-.5 6.7 2.9 0 0 4.6 5.3 30.9 3.6 16.9-9.9 10.9-32.6 10.9-32.6-32.1 10.1-37.4 5.8-37.4 5.8 26.3-49.5 1.4-61.2 1.4-61.2-23.6-5-40.5 23.2-40.5 23.2-12.3 1.5-11.4-15.5-11.4-15.5-1.2-36.7 23.2-40.1 23.2-40.1l17.8 32.5" style="fill:#fff;stroke:#235b2f;stroke-width:.662;stroke-miterlimit:10"></path><path d="M309.5 288.2s-4.4 2.2-8.5 8.9l-7.5.3-22.9-.3c-13.8 6-29 0-29 0l-22.7.3-7.2-.3s-6.5-8.5-8.7-9.1" class="st3"></path><path d="m212.8 355.2 21.2-3.1m-21.2 8.7h18.6m-18.6 7.4H234m65.6 0h-21.2m21.2-7.4H281m18.6-5.6-21.2-3.1" style="fill:none;stroke:#235b2f;stroke-width:.331;stroke-miterlimit:10"></path><path d="M182.4 364.2c-.5 2.9-2 3.9-4.8 3.9-2.6 0-4.8-2-4.8-4.8 0-2.6 3.9-4.8 5.8-4.8 2.8.8 3.8 3.2 3.8 5.7z" class="st41"></path><circle cx="157.4" cy="202.5" r="18.6" class="st41"></circle><path d="M178.6 183.9s10.6-14.9 5.1-25.8c0 0-22.2-44.8 24.3-78.7m125.7 104.5s-10.6-14.9-5.1-25.8c0 0 22.2-44.8-24.3-78.7" style="fill:none;stroke:#235b2f;stroke-width:.662;stroke-miterlimit:10"></path><path d="M246.3 282.1s9.1 4.1 19.3 0m-19.3 6.5s9.1 4.1 19.3 0m-19.3 5.3s9.1 4.1 19.3 0" style="fill:none;stroke:#231b16;stroke-width:.331;stroke-miterlimit:10"></path><path d="M330 364.2c.5 2.9 2 3.9 4.8 3.9 2.6 0 4.8-2 4.8-4.8 0-2.6-3.9-4.8-5.8-4.8-3 .8-3.8 3.2-3.8 5.7z" class="st41"></path><circle cx="354.9" cy="202.5" r="18.6" class="st41"></circle><path d="M287.8 364.4c0-17.8-14.5-32.3-32.3-32.3s-32.3 14.5-32.3 32.3 14.3 32.3 32.3 32.3 32.3-14.5 32.3-32.3z" class="st53"></path><path d="M255.5 390.4c-14.3 0-26.8-11.6-26.8-26s12.5-26 26.8-26v52z" style="fill:#fff;stroke:#fff;stroke-width:.331;stroke-miterlimit:10"></path><path d="M255.5 338.4c14.3 0 25.3 11.6 25.3 26s-10.8 26-25.1 26l-.2-52zm-10.8-142.2 10.8 11.6 9.9-11.6M224.6 169.7l22.5 12.6h6.3s1.9-5 4.3 0h5.8l22.5-12.6v14.2l-20.8 12.3h-20.7l-20.2-12.3v-14.2h.3z" class="st53"></path><ellipse cx="255.7" cy="189.1" class="st3" rx="1.7" ry="3.4"></ellipse><path d="M265.9 129.5c0 1.9-5.3 4.4-10.4 4.4s-10.4-2.2-10.4-4.4 5.3-4.4 10.4-4.4c5.1-.2 10.4 2.4 10.4 4.4z" class="st53"></path><path d="M260.8 129.5c0 1-2.4 2-5.3 2s-5.3-1-5.3-2c0-1.2 2.4-2 5.3-2s5.3.8 5.3 2z" class="st3"></path></svg>