<svg xmlns="http://www.w3.org/2000/svg" xml:space="preserve" id="Capa_1" x="0" y="0" style="enable-background:new 0 0 512 512" viewBox="0 0 512 512"><style>.st1{fill:#292960}</style><path d="M441.2 0C380.1.7 319 .2 257.9.2S135.8 0 74.7.2C48.4.5 45.1 3.8 45.1 30.5c-.4 80.4-.7 161-.9 241.4 0 10.1 0 20 3.1 29.9 31.7 98.1 92.3 169.1 190 206.6 12.1 4.7 23.4 4.9 35.5 0 56.6-22.5 105.5-55.5 142.6-104.4 28.5-37.7 51-79.3 51.9-127.8 1.8-83.1.2-166.6.9-249.9.1-19.8-7.7-26.5-27-26.3z" style="fill:#dbbf1d"></path><path d="M441.2 0C380.1.7 319 .2 257.9.2S135.8 0 74.7.2C48.4.5 45.1 3.8 45.1 30.5c-.4 80.4-.7 161-.9 241.4 0 10.1 0 20 3.1 29.9 31.7 98.1 92.3 169.1 190 206.6 12.1 4.7 23.4 4.9 35.5 0 56.6-22.5 105.5-55.5 142.6-104.4 28.5-37.7 51-79.3 51.9-127.8 1.8-83.1.2-166.6.9-249.9.1-19.8-7.7-26.5-27-26.3zm15 141.5c0 43.6.2 88.5-.4 132.7-.7 38.6-16.2 76.6-48.5 119.2-32.6 42.7-76.1 74.5-132.9 97.2-5.6 2.2-11.2 3.4-16.6 3.4-5.6 0-11.2-1.1-17.1-3.4C152.4 457 94.5 394.1 63.5 298.2c-2.9-9.4-2.9-18.4-2.9-28.3l.7-180.8V45.6c0-25.4 3.6-29 28.5-29.2h227c37.3 0 75.7.2 113.6 0 9.7-.2 16.2 1.8 20.2 5.8s5.8 10.3 5.8 19.8c-.2 33-.2 66.9-.2 99.5z" class="st1"></path><path d="M367.3 75.4h-4v6h3.8c.4 0 1.2-.1 2.4-.4.6-.1 1.1-.4 1.5-.9.4-.5.6-1.1.6-1.7 0-.9-.3-1.7-.9-2.2s-1.7-.8-3.4-.8zM332 87.6h6.4l-3.2-10.5zM99.8 86.5h-4.6v5.9h4.6c1.6 0 2.7-.3 3.3-.8.6-.6 1-1.3 1-2.2 0-.9-.3-1.6-.9-2.1-.7-.5-1.8-.8-3.4-.8zM311.1 52.2c1.9 0 3.5-.6 4.5-1.9 1.1-1.3 1.6-3.5 1.6-6.8 0-2.8-.6-4.8-1.7-6-1.1-1.3-2.6-1.9-4.5-1.9-1.8 0-3.3.6-4.4 1.9-1.1 1.3-1.7 3.4-1.7 6.4 0 3 .6 5.1 1.7 6.4 1.1 1.3 2.6 1.9 4.5 1.9z" class="st1"></path><path d="M446.6 27.1c-3.3-3.9-7.2-5.1-16.2-5.1-37.9.2-76.3.2-113.6 0H93.2c-23.6.2-26.3-.5-26.5 23.5v61.2h383.9c0-15.3 0-49.5.2-64.8 0-8.7-1.2-11.1-4.2-14.8zm-146.7 5.6c2.7-2.7 6.4-4 11.1-4 4.9 0 8.6 1.3 11.3 3.9 2.6 2.6 4 6.3 4 11 0 3.4-.6 6.2-1.7 8.4-1.2 2.2-2.8 3.9-5 5.1-2.2 1.2-4.9 1.8-8.1 1.8-3.3 0-6-.5-8.2-1.6s-3.9-2.7-5.3-5c-1.3-2.3-2-5.1-2-8.6-.1-4.6 1.3-8.4 3.9-11zm-32.4-3.5h24.3v6.3h-15.2v4.7h14.1v6h-14.1V52h15.6v6.6h-24.7V29.2zm-47.5 0h9.1v29.3H220V29.2zM112.1 94.5c-.7 1.2-1.7 2.2-2.9 2.9-.8.4-1.9.8-3.4 1-2 .3-3.4.4-4.1.4H86V69.5h17c2.8 0 5 .7 6.5 2.1 1.5 1.4 2.3 3.1 2.3 5.2 0 1.7-.5 3.2-1.6 4.5-.7.8-1.8 1.5-3.2 2 2.1.5 3.7 1.4 4.7 2.6 1 1.2 1.5 2.8 1.5 4.6-.1 1.5-.4 2.8-1.1 4zm15.2 4.3h-9.1V69.5h9.1v29.3zm31.4-4c-1.1 1.5-2.6 2.6-4.3 3.4-1.7.8-3.9 1.1-6.5 1.1-3.2 0-5.8-.5-7.8-1.4-2-.9-3.8-2.6-5.2-4.9-1.5-2.3-2.2-5.3-2.2-9 0-4.8 1.3-8.6 3.9-11.2 2.6-2.6 6.2-3.9 10.9-3.9 3.7 0 6.6.7 8.7 2.2s3.7 3.8 4.7 6.9l-8 1.8c-.3-.9-.6-1.5-.9-2-.5-.7-1.1-1.2-1.9-1.6-.7-.4-1.6-.6-2.5-.6-2.1 0-3.6.8-4.7 2.5-.8 1.2-1.2 3.1-1.2 5.8 0 3.2.5 5.5 1.5 6.7 1 1.2 2.4 1.8 4.2 1.8 1.7 0 3-.5 3.9-1.5.9-1 1.5-2.4 1.9-4.2l7.9 2.4c-.4 2.3-1.2 4.2-2.4 5.7zm31.7 4h-24.7V69.5H190v6.3h-15.2v4.7h14.1v6h-14.1v5.8h15.6v6.5zm2-69.6h9.1v22.1h14.1v7.2h-23.2V29.2zm30.9 69.6h-8.5l-11-16.1v16.1h-8.5V69.5h8.5l11 16.2V69.5h8.5v29.3zm31.5-22.1h-9.2v22.1h-9.1V76.7h-9.2v-7.2h27.5v7.2zm-5-17.7c-3.2 0-5.8-.5-7.8-1.4-2-.9-3.8-2.6-5.2-4.9-1.5-2.3-2.2-5.3-2.2-9 0-4.8 1.3-8.6 3.9-11.2s6.2-3.9 10.9-3.9c3.7 0 6.6.7 8.7 2.2 2.1 1.5 3.7 3.8 4.7 6.9l-8 1.8c-.3-.9-.6-1.5-.9-2-.5-.7-1.1-1.2-1.9-1.6-.7-.4-1.6-.6-2.5-.6-2.1 0-3.6.8-4.7 2.5-.8 1.2-1.2 3.1-1.2 5.8 0 3.2.5 5.5 1.5 6.7 1 1.2 2.4 1.8 4.2 1.8 1.7 0 3-.5 3.9-1.5.9-1 1.5-2.4 1.9-4.2l7.9 2.4c-.5 2.2-1.4 4.1-2.5 5.6s-2.6 2.6-4.3 3.4c-1.6.8-3.8 1.2-6.4 1.2zm33.8 39.8h-24.7V69.5h24.3v6.3H268v4.7h14.1v6H268v5.8h15.6v6.5zm33 0h-8.5l-11-16.1v16.1h-8.5V69.5h8.5l11 16.2V69.5h8.5v29.3zm25.1 0-1.5-4.8H330l-1.4 4.8h-9.2l11-29.3h9.9l11 29.3h-9.6zm31.1 0-4.8-9c-.6-1.2-1.2-1.9-1.6-2.3-.7-.5-1.4-.7-2.2-.7h-.8v11.9h-9.1V69.5h15.1c2.8 0 4.9.2 6.4.7 1.5.5 2.7 1.4 3.6 2.7.9 1.3 1.4 2.9 1.4 4.8 0 1.6-.3 3-1 4.2-.7 1.2-1.6 2.1-2.9 2.9-.8.5-1.8.9-3.2 1.2 1.1.4 1.9.7 2.4 1.1.3.2.8.8 1.4 1.5.6.8 1.1 1.4 1.3 1.8l4.4 8.5h-10.4zm22.6 0h-9.1V69.5h9.1v29.3zm34-6.5c-1.2 2.2-2.8 3.9-5 5.1s-4.9 1.8-8.1 1.8c-3.3 0-6-.5-8.2-1.6-2.2-1.1-3.9-2.7-5.3-5s-2-5.1-2-8.6c0-4.8 1.3-8.5 4-11.2 2.7-2.7 6.4-4 11.1-4 4.9 0 8.6 1.3 11.3 3.9 2.6 2.6 4 6.3 4 11-.1 3.6-.6 6.4-1.8 8.6z" class="st1"></path><path d="M415.9 75.8c-1.8 0-3.3.6-4.4 1.9-1.1 1.3-1.7 3.4-1.7 6.4 0 3 .5 5.1 1.6 6.4s2.6 1.9 4.5 1.9 3.5-.6 4.5-1.9c1.1-1.3 1.6-3.5 1.6-6.8 0-2.8-.6-4.8-1.7-6.1-1-1.1-2.5-1.8-4.4-1.8zM102.1 80.2c.6-.5.8-1.2.8-2.1 0-.9-.3-1.5-.8-2-.6-.5-1.5-.7-2.9-.7h-4V81h3.9c1.4 0 2.4-.3 3-.8zM450.3 112.5H66.4L65.7 270c0 9.4-.2 17.1 2.7 26.1 18 55.5 41.7 97.6 78.5 131.7.7-15.5 5.2-106.7 7.6-168.2.4-12.4 1.6-36.6 1.6-36.6H84.9c11-18.9 13-23.6 13-23.6H157s.4-20.2 1.3-45.1c0-7.1.5-14.8.5-22.7 20 3.1 21.5 2.9 21.7 24.5.2 23.8.2 43.1.2 43.1h59.7s4.9 12.4 9.9 23.4c-20.9 0-47.2-.2-68.7-.2 1.8 88 5.2 155 6.7 237.2 16.2 9.9 33.7 18.4 52.5 25.8 11.2 4.3 21.6 4.3 32.1 0 56.6-22.5 99.7-54.1 132-96.3 32.1-42.4 44-79.7 44.6-117.9m-153.2-78.1h-17.1v-59.3h17.1l22.2 32.8v-32.8h17.3v59.3h-17.3l-22.2-32.6v32.6zm28.1 82c-3.8-3.8-6.1-8.8-6.5-14.8l17.5-1.1c.4 2.9 1.1 4.9 2.2 6.5 1.8 2.5 4.5 3.6 8.1 3.6 2.7 0 4.7-.7 6.1-1.8 1.3-1.1 2-2.7 2-4.3s-.7-2.9-2-4-4.5-2.5-9.4-3.4c-8.1-1.8-13.7-4.3-17.3-7.2-3.4-2.9-5.2-6.7-5.2-11.5 0-3.1.9-5.8 2.7-8.5s4.5-4.9 7.9-6.3c3.6-1.6 8.3-2.2 14.6-2.2 7.6 0 13.2 1.3 17.3 4.3s6.3 7.4 7.2 13.5l-17.3 1.1c-.4-2.7-1.3-4.7-2.9-5.8-1.6-1.1-3.6-1.8-6.1-1.8-2 0-3.8.4-4.7 1.3-1.1.9-1.6 2-1.6 3.4 0 .9.4 1.8 1.3 2.5s2.9 1.6 6.1 2.2c8.1 1.8 13.7 3.4 17.3 5.2 3.4 1.8 6.1 4 7.6 6.5 1.6 2.7 2.5 5.6 2.5 8.8 0 3.8-1.1 7.4-3.1 10.6-2 3.1-4.9 5.6-8.8 7.4-3.8 1.6-8.5 2.5-14.4 2.5-10.1-.9-17.1-2.9-21.1-6.7zm74.1 87.8c-4.3 1.3-9.2 2-14.8 2-7 0-12.8-1.1-17.3-3.6s-7.9-6.1-10.3-10.8c-2.5-4.7-3.6-10.1-3.6-16.4 0-6.5 1.3-12.1 4-16.8s6.5-8.3 11.7-11c4-2 9.4-2.9 16.2-2.9 6.5 0 11.5.7 14.6 1.8 3.1 1.1 5.8 2.9 8.1 5.6 2.2 2.5 3.8 5.6 4.9 9.4l-17.7 3.1c-.7-2.2-2-4-3.6-5.2-1.8-1.1-4-1.8-6.7-1.8-4 0-7.2 1.3-9.7 4.3-2.5 2.7-3.6 7.2-3.6 13.2 0 6.5 1.1 11 3.6 13.7 2.5 2.7 5.8 4 10.1 4 2 0 4-.2 5.8-.9 1.8-.7 4-1.6 6.3-3.1V342h-12.4v-11.9h28.3v25.1h.4c-5.3 3.6-10.1 6.3-14.3 7.7z" class="st1"></path></svg>