<svg xmlns="http://www.w3.org/2000/svg" viewBox="0 0 784.7 228"><title>Asociación Mundial de Guías y Guías Scouts</title><g fill="#fff"><path d="M126.8 190.4c-.5-4.3-1.8-8.5-3.9-12.3-2.1-4.2-4.4-9.1-4.4-9.1l2.1-2.4c1.6 3.8 3.8 7.4 6.5 10.5 4.9 5.8 7.7 13.1 7.9 20.7 0 11.9-11.6 27.9-38.3 27.9-5.7 0-11.3-.9-16.7-2.8-59.9-18.7-93.5-82.5-74.8-142.7s82.5-93.7 142.6-75 93.7 82.6 75.1 142.7c-14.5 46.6-57.1 78.9-105.9 80.2 1.2-.3 2.4-.7 3.6-1.3 2.8-1.3 5.5-2.9 8-4.8 2-1.5 3.7-3.4 4.9-5.6 56.5-10.7 93.6-65.2 82.8-121.7-10.6-56.6-65.1-93.6-121.6-82.9S1.1 77 11.9 133.5c6.7 35.3 31.1 64.6 64.5 77.6 6.3 2.8 13.1 4.4 20 4.5 0 0 30.4 1.4 30.4-25.4M114.2 62.1l-4.7 43.4c-.5 2.9-.8 5.8-.8 8.7 0 3.9 2.7 8 6.3 8s6-3.9 6-8c-.1-2.5-.4-5-.8-7.5l-6-44.6m40.5 46.3l-2.7 8.5h-9.1l7.4 5.5-2.9 8.4 7.3-5.4 7.3 5.4-2.8-8.5 7.3-5.5h-9.1l-2.7-8.4zm-78.9 0l-2.7 8.5H64l7.4 5.5-2.9 8.4 7.3-5.4 7.3 5.4-2.8-8.7 7.3-5.5h-9.1l-2.7-8.2zm54 33.2c10.5 24.7 27 36.7 40.8 36.7 12.2.3 22.3-9.3 22.6-21.5 0-.4 0-.7 0-1.1 0-11.8-12.1-24.5-12.1-24.5l-2.7 2c3.3 4 5.4 8.9 6.2 14 0 1.7 0 14.7-16.8 14.7-21 0-33.8-22.9-33.8-22.9l-4.2 2.6m-31.4 0l-4.2-2.5S81.4 162 60.4 162c-17 0-16.8-13.1-16.8-14.7.8-5.1 3-10 6.3-14l-2.5-2.2s-12.1 12.7-12.1 24.5c-.3 12.1 9.3 22.2 21.4 22.5.4 0 .7 0 1.1 0 13.9 0 30.2-12.1 40.8-36.7m-9.9-45.3C68 79.1 48 75.9 35.8 82.2c-10.9 5.3-15.5 18.5-10.2 29.4.2.3.3.6.5.9 5.4 10.5 22 16.3 22 16.3l1.5-3c-4.8-2.1-8.9-5.4-12-9.6-.7-1.5-6.8-13 8.3-20.8 18.7-9.6 40.5 4.9 40.5 4.9l2.3-4.2m50.9 0l2.5 4.1s21.9-14.5 40.5-4.9c15.1 7.7 9 19.3 8.2 20.8-3.1 4.2-7.2 7.5-12 9.6l1.5 3s16.6-5.7 22-16.3c5.8-10.7 1.9-24-8.8-29.9-.3-.2-.6-.3-.9-.5-12.3-6.2-32.4-3-53 14.1M91.4 94l3.3-3.5S74.9 73.3 79.3 52.8C82.7 36.1 95.4 38.9 97 39.2c4.9 1.8 9.1 4.9 12.4 9l2.5-2.3S102 31.5 90.3 29.1C78.6 26.3 66.8 33.7 64 45.6c-.1.3-.1.7-.2 1-2.8 13.6 5.7 32 27.7 47.4m45.4 0c22-15.4 30.5-33.8 27.7-47.4-2.2-12-13.7-19.9-25.6-17.7-.3.1-.7.1-1 .2-11.6 2.4-21.6 16.8-21.6 16.8l2.5 2.3c3.3-4 7.6-7.1 12.4-9 1.6-.3 14.4-3.1 17.8 13.5 4.3 20.5-15.4 37.7-15.4 37.7l3.3 3.5m-22.3 40c.6 1 1 2.1 1 3.2-.6 2.1-1.6 4.1-3 5.9l-3.9 5.7c-2.2 3.5-3.6 7.4-3.9 11.6.1 5.6 2.6 11 6.8 14.8 3.9 3.4 7.7 6.6 7.7 6.6l1.1-1.3c-4-5.8-6.2-12.7-6.3-19.8.1-4.9 1.5-9.8 3.9-14.1.9-1.7 1.3-3.7 1.3-5.6-.4-2.9-1.6-5.6-3.6-7.7l-1.2 1M275.5 39.5c-.5 0-.7 0-.8.5L269 64.5c-.1.4-.5.7-1 .7h-5c-.5 0-.9-.3-1-1l-9.3-45.9c0-.7 0-1 .9-1h7.4c.5 0 .9.3 1 .8l3.6 18.9c.1.5.5.8 1 .8s.9-.3 1-.8l4.6-19c.1-.5.6-.7 1-.7h4.4c.5 0 .9.3 1 .7l4.8 18.9c.1.5.5.8 1 .8s1-.3 1-.8L289 18c.1-.5.5-.8 1-.8h7.3c.7 0 1 .3.9 1L289 64.1c0 .7-.5 1-1 1h-5c-.5.1-.9-.2-1-.7L276.2 40c0-.3-.3-.5-.7-.5"></path><path d="M302.9 23.6c.9-1.6 2.1-3 3.5-4.1 1.4-1.1 3.1-2 4.8-2.7 3.4-1.3 7.2-1.3 10.6 0 1.7.6 3.3 1.5 4.8 2.7 1.4 1.1 2.6 2.5 3.5 4.1.9 1.6 1.3 3.4 1.3 5.2V53c0 2-.4 3.9-1.2 5.7-.7 1.6-1.8 3-3.2 4.2-1.4 1.1-3 2-4.7 2.5-1.9.6-3.8.9-5.7.9-2 0-3.9-.4-5.8-1-1.7-.5-3.3-1.4-4.7-2.5-1.4-1.1-2.4-2.6-3.2-4.2-.8-1.8-1.2-3.8-1.2-5.8v-24c-.2-1.8.3-3.6 1.2-5.2m8.3 29.4c0 1.3.6 2.5 1.6 3.2 1 .8 2.2 1.2 3.4 1.2 1.4 0 2.7-.4 3.9-1.2 1.1-.7 1.7-2 1.7-3.3v-24c0-.6-.3-1.2-.7-1.7-.7-1-1.8-1.8-3-2.2-1.1-.4-2.3-.4-3.5 0-.6.2-1.1.5-1.7.8-.5.3-.9.8-1.3 1.3-.3.5-.5 1.1-.5 1.7l.1 24.2zM368.3 64.1c.1.5-.2 1-.7 1.1-.1 0-.1 0-.2 0h-8.5c-.2 0-.4 0-.5 0-.2-.1-.3-.2-.4-.4l-6.2-16.6c-.1-.3-.4-.5-.7-.6-.4-.1-.8-.2-1.2-.2h-2.2c-.4 0-.6 0-.6.5v16.2c0 .7-.3 1.1-1 1.1h-7.7c-.5.1-1-.3-1.1-.8 0-.1 0-.2 0-.3V18.2c0-.7.3-1 1.1-1h10.1c2.2 0 4.4.3 6.5 1.1 1.9.7 3.6 1.7 5.1 3.1 1.5 1.4 2.6 3 3.4 4.9.8 2 1.2 4.2 1.2 6.4-.1 1.9-.3 3.8-.8 5.7-.4 1.9-1.4 3.7-2.7 5.1l-.4.5c-.2.1-.3.3-.3.5.1.5.3 1 .5 1.5l1.3 3.3 1.7 4.6 1.8 4.4 1.6 3.3c.4 1 .7 1.7.8 1.9v.3c0 .1 0 .2 0 .3m-21.3-26.5c0 .3.1.7.4.9.2.3.6.4.9.4 1.8.1 3.5-.5 4.8-1.7 1.3-1.3 2-3 1.9-4.9.1-1.7-.6-3.3-1.9-4.4-1.3-.9-2.9-1.4-4.5-1.3-.4-.1-.7-.1-1.1 0-.3 0-.5.5-.5 1.1v9.9zM398.2 58.2V64c.1.5-.3 1-.8 1.1-.1 0-.2 0-.3 0h-23.6c-.5.1-1-.3-1.1-.8 0-.1 0-.2 0-.3V18.2c0-.7.4-1 1.1-1h7.7c.5-.1 1 .3 1 .8 0 .1 0 .2 0 .2v37.9c-.1.5.3 1 .8 1 .1 0 .2 0 .2 0h14c.7 0 1.1.3 1.1 1M403.3 64V18.2c0-.7.3-1 1.1-1h14c2.2-.1 4.5.3 6.6 1.1 1.8.7 3.3 1.8 4.6 3.1 1.2 1.4 2.2 3 2.7 4.7.6 1.9.9 3.9.9 5.9v19.6c0 2-.3 4-1.1 5.8-.7 1.6-1.8 3.1-3.2 4.2-1.4 1.1-3 2-4.7 2.5-1.9.6-3.9.9-5.9.8h-14c-.5.1-1-.3-1.1-.8.1.1.1 0 .1-.1m10.5-6.8h4.1c1.5 0 2.9-.6 3.9-1.7.9-1.1 1.4-2.4 1.4-3.9V32.1c0-.8-.1-1.7-.3-2.5-.2-.8-.5-1.5-1-2.2-.4-.6-.9-1.2-1.5-1.6-.7-.4-1.4-.6-2.2-.6h-4.4c-.7 0-1 .4-1 1.1v29.9c0 .7.3 1.1 1 1.1M476.3 65.3c-.3 0-.6-.1-.8-.4l-1.7-6.6c0-.5-.5-.7-1.2-.7h-8.9c-.5-.1-1 .3-1.1.8l-1.7 6.5c0 .3-.3.4-.8.4h-8c-.7 0-1-.4-.8-1.3l12.3-46.3c0-.3.3-.5.8-.5h7.5c.5 0 .7 0 .8.5l12.5 46.5v.4c0 .4-.3.6-.8.6l-8.1.1zm-8.1-28.5c-.5-.1-1.1.3-1.2.8L464.3 48c-.1.4-.1.8 0 1.1.1.2.2.3.3.5.1.1.3.1.5 0h5.5c.4 0 .8-.2 1-.5.2-.4.2-.8 0-1.2l-2.4-10.4c-.1-.5-.6-.9-1.2-.8M501.2 66.2c-1.7 0-3.3-.2-4.9-.7-1.6-.4-3.2-1.1-4.6-2-1.4-.9-2.5-2-3.4-3.4-.9-1.5-1.4-3.1-1.3-4.9 0-.6.3-.9 1-.9h7.2c.3 0 .6 0 .7.2l.4.7c.5.8 1.3 1.5 2.2 1.9.9.3 1.9.5 2.9.5 1.2 0 2.3-.3 3.4-.9 1.1-.6 1.7-1.8 1.5-3.1 0-.7-.2-1.5-.6-2.1-.4-.6-.9-1.1-1.4-1.6l-11.1-10.5c-1.5-1.4-2.8-3.1-3.7-4.9-.9-1.9-1.3-3.9-1.3-6 0-1.8.3-3.6 1-5.2.7-1.5 1.7-2.8 2.9-3.9 1.3-1.1 2.8-2 4.5-2.5 1.9-.7 3.8-1 5.8-1 1.6 0 3.3.3 4.8.8 1.5.6 2.9 1.4 4.2 2.4 1.2 1.1 2.2 2.4 3 3.9.8 1.4 1.2 3 1.2 4.6 0 .3-.1.5-.3.7-.2.1-.5.2-.7.2h-6.9c-.4 0-.8-.2-1-.6 0-.4-.4-.8-.7-1.3-.3-.5-.7-.9-1.2-1.3-.8-.4-1.7-.6-2.6-.6-1.1 0-2.1.3-3 .9-.8.7-1.3 1.7-1.2 2.7 0 1 .3 2 .8 2.8.5.8 1.1 1.6 1.9 2.2l10.2 9.4c.9.8 1.7 1.6 2.4 2.5.7.8 1.3 1.7 1.7 2.6.5.9.8 1.9 1 3 .2 1.2.4 2.3.3 3.5.1 1.9-.4 3.7-1.2 5.4-.8 1.4-1.9 2.7-3.2 3.6-1.4 1-3 1.7-4.7 2.1-1.8.4-3.6.7-5.4.7M533.5 66.2c-1.7 0-3.3-.2-4.9-.7-1.6-.4-3.2-1.1-4.6-2-1.4-.9-2.5-2-3.4-3.4-.9-1.5-1.4-3.1-1.3-4.9 0-.6.3-.9 1-.9h7.2c.3 0 .6 0 .7.2.1.2.2.4.4.7.5.8 1.3 1.5 2.2 1.9.9.3 1.9.5 2.9.5 1.2 0 2.3-.3 3.4-.9 1-.6 1.6-1.8 1.5-3 0-.7-.2-1.5-.6-2.1-.4-.6-.9-1.1-1.4-1.6l-10.9-10.5c-1.5-1.4-2.8-3.1-3.7-4.9-.9-1.9-1.3-3.9-1.3-6 0-1.8.3-3.6 1-5.2.7-1.5 1.7-2.8 2.9-3.9 1.3-1.1 2.8-2 4.5-2.5 1.8-.6 3.7-.9 5.6-.9 1.6 0 3.3.3 4.8.8 1.5.6 2.9 1.4 4.2 2.4 1.2 1.1 2.2 2.4 3 3.9.8 1.4 1.2 3 1.2 4.6 0 .3-.1.5-.3.7-.2.1-.5.2-.7.2H540c-.4 0-.8-.2-1-.6l-.8-1.4c-.3-.5-.7-.9-1.2-1.3-.8-.4-1.7-.6-2.6-.6-1.1 0-2.1.3-3 .9-.8.7-1.3 1.7-1.2 2.7 0 1 .3 2 .8 2.8.5.8 1.1 1.6 1.9 2.2l10.1 9.4c.9.8 1.7 1.6 2.4 2.5.7.8 1.3 1.7 1.7 2.6.5.9.8 1.9 1 3 .2 1.2.4 2.3.3 3.5.1 1.9-.4 3.7-1.2 5.4-.8 1.4-1.9 2.7-3.2 3.6-1.4 1-3 1.7-4.7 2.1-1.8.4-3.6.7-5.4.7"></path><path d="M553.8 23.6c.9-1.6 2-3 3.5-4.1 1.4-1.1 3.1-2 4.8-2.7 3.4-1.3 7.2-1.3 10.6 0 1.7.6 3.3 1.5 4.8 2.7 1.4 1.1 2.6 2.5 3.5 4.1.9 1.6 1.3 3.4 1.3 5.2V53c0 2-.4 3.9-1.2 5.7-.7 1.6-1.8 3-3.2 4.2-1.4 1.1-3 2-4.7 2.5-1.9.6-3.8.9-5.7.9-2 0-3.9-.3-5.8-.8-1.7-.5-3.3-1.4-4.7-2.5-1.4-1.1-2.4-2.6-3.2-4.2-.8-1.8-1.2-3.8-1.2-5.8V28.8c-.1-1.8.3-3.6 1.2-5.2m8.4 29.4c0 1.3.6 2.5 1.6 3.2 1 .8 2.2 1.2 3.4 1.2 1.4 0 2.7-.4 3.9-1.2 1.1-.7 1.7-2 1.7-3.3v-24c0-.6-.2-1.2-.5-1.7-.7-1-1.8-1.8-3-2.2-1.1-.4-2.3-.4-3.5 0-.6.2-1.1.5-1.7.8-.5.3-.9.8-1.3 1.3-.3.5-.5 1.1-.5 1.7l-.1 24.2zM615.9 29.6c0 .7-.3 1-1 1h-7.7c-.7 0-1-.3-1-1 0-.8-.1-1.6-.5-2.4-.3-.5-.7-1-1.2-1.4-.4-.3-1-.6-1.5-.7-.5-.1-1.1-.1-1.6 0-1.1 0-2.1.5-2.9 1.2-.9.8-1.3 1.9-1.3 3v24.9c0 .9.5 1.8 1.3 2.2.8.6 1.8 1 2.9 1 .5 0 1 0 1.5 0 .5-.1.9-.3 1.3-.6.4-.4.7-.8.9-1.3.3-.8.4-1.7.3-2.5 0-.6.3-.9 1-.9h7.7c.7 0 1 .3 1 .9.3 3.9-1.1 7.7-3.9 10.4-2.8 2.3-6.4 3.4-10 3.2-1.8 0-3.6-.2-5.3-.8-1.6-.5-3.1-1.3-4.4-2.3-1.3-1-2.3-2.4-3-3.9-.8-1.7-1.2-3.5-1.1-5.3v-25c0-1.8.4-3.6 1.2-5.2.7-1.6 1.8-3 3-4.2 1.3-1.2 2.8-2.2 4.4-2.8 1.7-.7 3.5-1 5.3-1 1.8 0 3.6.2 5.4.7 1.7.4 3.2 1.2 4.6 2.3 1.4 1.1 2.5 2.6 3.2 4.2.9 2 1.3 4.2 1.2 6.4M629.9 65.3h-7.5c-.5.1-1-.3-1.1-.8 0-.1 0-.2 0-.3v-46c-.1-.5.3-1 .8-1 .1 0 .2 0 .2 0h7.7c.7 0 1.1.3 1.1 1V64c.1.5-.3 1-.8 1.1-.1 0-.2 0-.3 0M660.2 65.3c-.3 0-.6-.1-.8-.4l-1.7-6.6c0-.5-.5-.7-1.2-.7h-8.8c-.5-.1-1 .3-1.1.8l-1.7 6.4c0 .3-.3.4-.8.4h-8.3c-.7 0-1-.4-.8-1.3l12.3-46.3c0-.3.3-.5.8-.5h7.5c.5 0 .7 0 .8.5L669 64v.4c0 .4-.3.6-.8.6l-8 .3zm-8.1-28.5c-.5-.1-1.1.3-1.2.8L648.2 48c-.1.4-.1.8 0 1.1.1.2.2.3.3.5.1.1.3.1.5 0h5.5c.4 0 .8-.2 1-.5.2-.4.2-.8 0-1.2l-2.4-10.4c-.1-.5-.6-.9-1.2-.8M686.4 65.3h-7.9c-.5.1-1-.3-1.1-.8 0-.1 0-.2 0-.3V25.7c.1-.5-.3-1-.8-1-.1 0-.2 0-.2 0H667c-.5.1-1-.3-1.1-.8 0-.1 0-.2 0-.3v-5.4c0-.7.3-1 1.1-1h30.8c.7 0 1.1.3 1.1 1v5.4c.1.5-.3 1-.8 1.1-.1 0-.2 0-.3 0h-9.3c-.5-.1-1 .3-1 .8 0 .1 0 .2 0 .2V64c.1.5-.3 1-.8 1.1-.1 0-.2 0-.3 0M712 65.3h-7.5c-.5.1-1-.3-1.1-.8 0-.1 0-.2 0-.3v-46c-.1-.5.3-1 .8-1 .1 0 .2 0 .2 0h7.7c.7 0 1.1.3 1.1 1V64c.1.5-.3 1-.8 1.1-.1 0-.2 0-.3 0"></path><path d="M720.3 23.6c.9-1.6 2.1-3 3.5-4.1 1.4-1.1 3.1-2 4.8-2.7 3.4-1.3 7.2-1.3 10.6 0 1.7.6 3.3 1.5 4.8 2.7 1.4 1.1 2.6 2.5 3.5 4.1.9 1.6 1.3 3.4 1.3 5.2V53c0 2-.4 3.9-1.2 5.7-.7 1.6-1.8 3-3.2 4.2-1.4 1.1-3 2-4.7 2.5-1.9.6-3.8.9-5.7.9-2 0-3.9-.3-5.8-.8-1.7-.5-3.3-1.4-4.7-2.5-1.4-1.1-2.4-2.6-3.2-4.2-.8-1.8-1.2-3.8-1.2-5.8V28.8c-.1-1.8.4-3.6 1.2-5.2m8.4 29.4c0 1.3.6 2.5 1.6 3.2.9.8 2.1 1.3 3.4 1.3 1.4 0 2.7-.4 3.9-1.2 1.1-.7 1.7-2 1.7-3.3V28.9c0-.6-.2-1.2-.5-1.7-.7-1-1.8-1.8-3-2.2-1.1-.4-2.3-.4-3.5 0-.6.2-1.1.5-1.7.8-.5.3-.9.8-1.2 1.3-.3.5-.5 1.1-.5 1.7l-.2 24.2zM765.6 40.9c-.1-.4-.5-.6-.9-.5-.5-.1-1 .3-1 .8 0 .1 0 .2 0 .2V64c0 .7-.3 1.1-1 1.1h-6.9c-.5.1-1-.3-1.1-.8 0-.1 0-.2 0-.3V18.2c-.1-.5.3-1 .8-1 .1 0 .2 0 .2 0h5.6c.4 0 .8.3 1 .7l11.6 24.6c.2.3.5.5.9.4.5.1 1-.3 1-.8 0-.1 0-.2 0-.2V18.2c-.1-.5.3-1 .8-1 .1 0 .2 0 .2 0h6.9c.7 0 1.1.3 1.1 1v45.9c0 .7-.4 1-1.1 1h-5.1c-.4 0-.8-.3-1-.7l-12-23.5zM257.5 96.7c.9-1.6 2.1-3 3.5-4.1 1.4-1.1 3.1-2 4.8-2.7 3.4-1.3 7.2-1.3 10.6 0 1.7.6 3.3 1.5 4.8 2.7 1.4 1.1 2.6 2.5 3.5 4.1.9 1.6 1.3 3.4 1.3 5.2V126c0 2-.4 3.9-1.2 5.7-.7 1.6-1.8 3-3.2 4.2-1.4 1.2-3 2-4.8 2.6-1.9.6-3.8.8-5.8.8-1.9 0-3.9-.2-5.7-.8-1.7-.5-3.3-1.4-4.7-2.5-1.4-1.1-2.4-2.6-3.2-4.2-.8-1.8-1.2-3.8-1.2-5.8v-24.1c0-1.8.5-3.6 1.3-5.2m8.4 29.3c0 1.3.6 2.5 1.6 3.2 1 .8 2.2 1.2 3.4 1.2 1.4.1 2.7-.4 3.9-1.2 1.1-.7 1.7-2 1.7-3.3V102c0-.6-.2-1.2-.5-1.7-.7-1-1.8-1.8-3-2.2-1.1-.4-2.3-.4-3.5 0-.6.2-1.1.5-1.7.8-.5.3-.9.8-1.3 1.3-.3.5-.5 1.1-.5 1.7l-.1 24.1zM312.7 111.1v6.6c0 .7-.3 1.1-1 1.1h-9.1c-.5-.1-.9.3-1 .7 0 .1 0 .2 0 .2V137c0 .7-.3 1.1-1 1.1h-7.7c-.5.1-1-.3-1.1-.8 0-.1 0-.2 0-.3V91.2c0-.7.3-1 1.1-1h22.6c.5-.1 1 .3 1 .8 0 .1 0 .2 0 .2v6.9c0 .7-.3 1.1-1 1.1h-12.8c-.5-.1-1 .3-1 .8 0 .1 0 .2 0 .2v8.8c0 .7.3 1 1 1h9.1c.5.1.9.4.9 1.1M366.5 101.9c0 .6-.3.9-1 .9h-7.7c-.7 0-1-.3-1-.9 0-.6-.2-1.3-.5-1.8s-.8-1-1.3-1.3c-.5-.3-1.1-.6-1.7-.8-.6-.2-1.2-.3-1.9-.3-.5 0-1 .1-1.5.3-.6.2-1.1.5-1.7.8-.5.3-.9.7-1.3 1.2-.3.4-.5 1-.5 1.5v25.1c0 1.2.6 2.2 1.7 2.8 1.1.7 2.3 1 3.6 1 1.2 0 2.5-.4 3.5-1s1.7-1.6 1.7-2.8v-6.2c0-.7-.2-1.2-.6-1.3-.4-.1-.8-.2-1.2-.2H353c-.4 0-.8-.1-1.1-.3-.4-.2-.5-.7-.5-1.1v-6.9c-.1-.5.3-1 .8-1.1.1 0 .2 0 .3 0h12.9c.5-.1 1 .3 1.1.8 0 .1 0 .2 0 .3v16c.1 2-.3 3.9-1.2 5.7-.7 1.5-1.8 2.8-3.2 3.9-1.4 1-3 1.8-4.7 2.2-1.9.5-3.8.7-5.7.7-1.9 0-3.9-.2-5.7-.7-1.7-.5-3.3-1.3-4.7-2.4-1.3-1-2.4-2.3-3.2-3.9-.8-1.7-1.3-3.5-1.3-5.4v-25.4c0-1.8.4-3.6 1.2-5.2.8-1.5 1.9-2.8 3.2-3.9 1.4-1.1 3-2 4.7-2.5 1.9-.6 3.8-.9 5.7-.9 2 0 4 .3 6 .9 1.7.6 3.3 1.5 4.7 2.7 2.7 2.3 4.3 5.7 4.2 9.3M380.5 138.2H373c-.5.1-1-.3-1.1-.8 0-.1 0-.2 0-.3V91.2c-.1-.5.3-1 .8-1 .1 0 .2 0 .2 0h7.7c.7 0 1.1.3 1.1 1V137c.1.5-.3 1-.8 1.1-.1 0-.2 0-.3 0"></path><path d="M419.1 137.1c.1.5-.3 1-.8 1-.1 0-.2 0-.2 0h-8.5c-.2 0-.4 0-.5 0-.2-.1-.3-.2-.4-.4l-6.2-16.6c-.1-.3-.4-.5-.7-.6-.4-.1-.8-.2-1.2-.2h-2.4c-.4 0-.6 0-.6.5V137c0 .7-.3 1.1-1 1.1h-7.7c-.5.1-1-.3-1.1-.8 0-.1 0-.2 0-.3V91.2c0-.7.3-1 1.1-1H399c2.2 0 4.4.3 6.5 1.1 1.9.7 3.6 1.7 5.1 3.1 1.4 1.4 2.6 3 3.3 4.9.8 2 1.2 4.2 1.2 6.4 0 2-.2 3.9-.7 5.9-.4 1.9-1.4 3.7-2.7 5.1l-.4.5c-.2.1-.3.3-.3.5.1.5.3 1 .5 1.5l1.3 3.3 1.7 4.3 1.8 4.4 1.5 3.6c.4 1 .7 1.6.8 1.9v.3c0 .1 0 .2 0 .3m-21.3-26.5c0 .3.1.7.4.9.2.3.6.4.9.4 1.8.1 3.5-.5 4.8-1.7 1.3-1.3 2-3 1.9-4.9.1-1.7-.6-3.3-1.9-4.4-1.3-1-2.9-1.5-4.5-1.5-.4-.1-.7-.1-1.1 0-.3 0-.5.5-.5 1.1v10.1zM449 131.3v5.8c.1.5-.3 1-.8 1.1-.1 0-.2 0-.3 0h-23.6c-.5.1-1-.3-1.1-.8 0-.1 0-.2 0-.3V91.2c0-.7.4-1 1.1-1h7.7c.5-.1 1 .3 1 .8 0 .1 0 .2 0 .2v37.9c-.1.5.3 1 .8 1 .1 0 .2 0 .2 0h14c.7 0 1.1.3 1.1 1M498.9 101.9c0 .6-.3.9-1 .9h-7.7c-.7 0-1-.3-1-.9 0-.6-.2-1.3-.5-1.8s-.8-1-1.3-1.3c-.5-.3-1.1-.6-1.7-.8-.6-.2-1.2-.3-1.9-.3-.5 0-1 .1-1.5.3-.6.2-1.1.5-1.7.8-.5.3-1 .7-1.4 1.1-.3.4-.5 1-.5 1.5v25.1c0 1.2.6 2.2 1.7 2.8 1.1.7 2.3 1 3.6 1 1.2 0 2.5-.4 3.5-1s1.7-1.6 1.7-2.8v-6.2c0-.7-.2-1.2-.6-1.3-.4-.1-.8-.2-1.2-.2h-2.1c-.4 0-.8-.1-1.1-.3-.4-.2-.5-.7-.5-1.1v-6.8c-.1-.5.3-1 .8-1.1.1 0 .2 0 .3 0h12.9c.5-.1 1 .3 1.1.8 0 .1 0 .2 0 .3v16c.1 2-.3 3.9-1.2 5.7-.7 1.5-1.8 2.8-3.2 3.9-1.4 1-3 1.8-4.7 2.2-1.9.5-3.8.7-5.7.7-2 0-3.9-.2-5.8-.8-1.7-.5-3.3-1.3-4.7-2.4-1.4-1-2.4-2.3-3.2-3.9-.8-1.7-1.2-3.6-1.2-5.5v-25.3c0-1.8.4-3.6 1.2-5.2.8-1.5 1.9-2.8 3.2-3.9 1.4-1.1 3-2 4.7-2.5 1.9-.6 3.8-.9 5.7-.9 2 0 4 .3 6 .9 1.7.6 3.3 1.5 4.7 2.7 2.7 2.3 4.3 5.7 4.2 9.3M505 90.1h7.7c.7 0 1.1.3 1.1 1v34.3c0 1.1.5 2.2 1.5 2.9 1.9 1.5 4.6 1.5 6.6 0 .9-.7 1.4-1.8 1.4-2.9V91.2c-.1-.5.3-1 .8-1 .1 0 .2 0 .2 0h7.7c.7 0 1.1.3 1.1 1v34.7c.1 2-.3 4-1.2 5.8-.7 1.6-1.8 3-3.2 4.2-1.4 1.1-2.9 2-4.6 2.5-1.8.6-3.7.8-5.6.8-2 .1-4-.1-5.9-.7-1.7-.6-3.2-1.4-4.5-2.6-1.3-1.1-2.4-2.6-3.1-4.2-.8-1.8-1.2-3.7-1.1-5.6V91.4c-.1-.5.3-1 .8-1 .1 0 .2 0 .2 0M547.4 138.2h-7.5c-.5.1-1-.3-1.1-.8 0-.1 0-.2 0-.3V91.2c-.1-.5.3-1 .8-1 .1 0 .2 0 .2 0h7.7c.7 0 1.1.3 1.1 1V137c.1.5-.3 1-.8 1.1-.1 0-.2 0-.3 0M554.9 137.1V91.2c0-.7.4-1 1.1-1h14c2.3 0 4.5.3 6.6 1.2 1.8.7 3.3 1.8 4.6 3.1 1.2 1.4 2.2 3 2.7 4.7.6 1.9.9 3.9.9 5.9v19.6c0 2-.4 4-1.2 5.8-.7 1.6-1.8 3.1-3.2 4.2-1.4 1.2-3 2-4.7 2.5-1.9.6-3.9.9-5.9.8h-14c-.5.1-1-.3-1.1-.8.1.1.1 0 .2-.1m10.5-6.8h4.1c1.5 0 2.9-.6 3.9-1.7.9-1.1 1.4-2.4 1.4-3.9v-19.6c0-.8-.1-1.7-.3-2.5-.2-.8-.5-1.5-1-2.2-.4-.6-.9-1.2-1.5-1.6-.7-.4-1.4-.6-2.2-.6h-4.4c-.7 0-1 .4-1 1.1v29.9c0 .7.3 1.1 1 1.1M614.6 91.2V98c.1.5-.3 1-.8 1.1-.1 0-.2 0-.3 0h-12.1c-.5-.1-1 .3-1 .8 0 .1 0 .2 0 .2v8.8c0 .3.2.5.5.5 0 0 .1 0 .1 0h8.7c.7 0 1 .3 1 1.1v6.5c.1.5-.3 1-.8 1-.1 0-.2 0-.2 0h-8.3c-.5-.1-1 .3-1 .8 0 .1 0 .2 0 .2v8.9c-.1.5.3 1 .8 1 .1 0 .2 0 .2 0h12.1c.7 0 1.1.3 1.1 1v6.9c.1.5-.3 1-.8 1.1-.1 0-.2 0-.3 0h-21.7c-.5.1-1-.3-1.1-.8 0-.1 0-.2 0-.3V91.2c0-.7.3-1 1.1-1h21.7c.7 0 1.1.4 1.1 1M632.6 139.3c-1.7 0-3.3-.2-4.9-.7-1.6-.4-3.2-1.1-4.6-2-1.4-.9-2.5-2-3.4-3.4-.9-1.5-1.4-3.1-1.3-4.9 0-.6.3-.9 1-.9h7.2c.3 0 .6 0 .7.2l.4.7c.5.8 1.3 1.5 2.2 1.9.9.3 1.9.5 2.9.5 1.2 0 2.3-.3 3.4-.9 1-.6 1.6-1.8 1.5-3 0-.7-.2-1.5-.6-2.1-.4-.6-.9-1.1-1.4-1.6l-11.1-10.5c-1.5-1.4-2.8-3.1-3.7-4.9-.9-1.9-1.3-3.9-1.3-6 0-1.8.3-3.6 1-5.2.7-1.5 1.7-2.8 2.9-3.9 1.3-1.1 2.8-2 4.5-2.5 1.8-.6 3.7-.9 5.6-.9 1.6 0 3.3.3 4.8.8 1.5.6 2.9 1.4 4.2 2.4 1.2 1.1 2.3 2.4 3 3.9.8 1.4 1.2 3 1.2 4.6 0 .3-.1.5-.3.7-.2.1-.5.2-.7.2h-6.9c-.4 0-.8-.2-1-.6l-.7-1.3c-.3-.5-.7-.9-1.2-1.3-.8-.4-1.7-.6-2.6-.6-1.1 0-2.1.3-3 .9-.8.7-1.3 1.7-1.2 2.7 0 1 .3 2 .8 2.8.5.8 1.1 1.6 1.9 2.2l10.2 9.4c.9.8 1.7 1.7 2.4 2.5s1.3 1.7 1.7 2.6c.5.9.8 1.9 1 3 .2 1.2.4 2.3.3 3.5.1 1.9-.4 3.7-1.2 5.4-.8 1.4-1.9 2.7-3.2 3.6-1.4 1-3 1.7-4.7 2.1-1.8.4-3.6.7-5.4.7M277.7 211.2c-.3 0-.6-.1-.8-.4l-1.7-6.7c0-.5-.5-.7-1.2-.7h-8.8c-.5-.1-1 .3-1.1.8l-1.7 6.5c0 .3-.3.4-.8.4h-8.3c-.7 0-1-.4-.8-1.3l12.3-46.3c0-.3.3-.5.8-.5h7.5c.5 0 .7 0 .8.5l12.4 46.7v.4c0 .4-.3.6-.8.6h-7.8zm-8.1-28.4c-.5-.1-1 .3-1.2.8l-2.7 10.4c-.1.4-.1.8 0 1.1.1.2.1.4.3.5.1.1.3.1.5 0h5.6c.4 0 .8-.2 1-.5.2-.4.2-.8 0-1.2l-2.1-10.3c-.1-.5-.6-.9-1.2-.8"></path><path d="M301.6 187c-.1-.4-.5-.6-.9-.5-.5-.1-1 .3-1 .8 0 .1 0 .2 0 .2v22.6c0 .7-.3 1.1-1 1.1h-6.9c-.5.1-1-.3-1.1-.8 0-.1 0-.2 0-.3v-45.8c-.1-.5.3-1 .8-1 .1 0 .2 0 .2 0h5.6c.4 0 .8.3 1 .7l11.3 24.7c.2.3.5.5.9.4.5.1 1-.3 1-.8 0-.1 0-.2 0-.2v-23.7c-.1-.5.3-1 .8-1 .1 0 .2 0 .2 0h6.9c.7 0 1.1.3 1.1 1v45.9c0 .7-.4 1-1.1 1h-4.9c-.4 0-.8-.3-1-.7L301.6 187zM327.1 210.1v-45.8c0-.7.4-1 1.1-1h14c2.3 0 4.5.4 6.6 1.2 1.8.7 3.3 1.8 4.6 3.1 1.2 1.4 2.2 3 2.7 4.7.6 1.9.9 3.9.9 5.9v19.6c0 2-.4 4-1.2 5.8-.7 1.7-1.8 3.1-3.1 4.3-1.4 1.1-3 2-4.7 2.5-1.9.6-3.9.9-5.9.8h-14c-.5.1-1-.3-1.1-.8.1 0 .1-.1.1-.3m10.6-6.7h4.1c1.5.1 2.9-.6 3.9-1.7.9-1.1 1.4-2.4 1.4-3.9v-19.7c0-.8-.1-1.7-.3-2.5-.2-.8-.5-1.5-1-2.2-.4-.6-.9-1.2-1.5-1.6-.6-.4-1.4-.6-2.2-.6h-4.3c-.7 0-1 .4-1 1.1v29.9c-.2.8.2 1.2.9 1.2M408.3 174.9c0 .6-.3.9-1 .9h-7.7c-.7 0-1-.3-1-.9 0-.6-.1-1.2-.4-1.7-.3-.5-.8-1-1.3-1.3-.5-.3-1.1-.6-1.7-.8-.6-.2-1.2-.3-1.9-.3-.5 0-1 .1-1.5.3-.6.2-1.1.5-1.7.8-.5.3-.9.7-1.3 1.2-.3.4-.5 1-.5 1.5v25.1c0 1.2.6 2.2 1.7 2.8 1.1.7 2.3 1 3.6 1 1.2 0 2.5-.4 3.5-1s1.7-1.6 1.7-2.8v-6.2c0-.7-.2-1.2-.6-1.3-.4-.1-.8-.2-1.2-.2h-2.1c-.4 0-.8-.1-1.1-.3-.4-.2-.5-.7-.5-1.1v-7c-.1-.5.3-1 .8-1.1.1 0 .2 0 .3 0h12.9c.5-.1 1 .3 1.1.8 0 .1 0 .2 0 .3v16c.1 2-.3 3.9-1.2 5.7-.7 1.5-1.8 2.8-3.2 3.9-1.4 1-3 1.8-4.7 2.2-1.9.5-3.8.7-5.7.7-2 0-3.9-.3-5.8-.8-1.7-.5-3.3-1.3-4.7-2.4-1.3-1-2.4-2.3-3.2-3.9-.8-1.7-1.2-3.6-1.2-5.5v-25.2c0-1.8.4-3.6 1.2-5.2.8-1.5 1.9-2.8 3.2-3.9 1.4-1.1 3-2 4.7-2.5 1.9-.6 3.8-.9 5.7-.9 2 0 4 .3 6 .9 1.7.6 3.3 1.5 4.7 2.7 2.7 2.3 4.3 5.7 4.2 9.3M422.4 211.2h-7.5c-.5.1-1-.3-1.1-.8 0-.1 0-.2 0-.3v-45.8c-.1-.5.3-1 .8-1 .1 0 .2 0 .2 0h7.7c.7 0 1.1.3 1.1 1v45.8c.1.5-.3 1-.8 1.1-.1 0-.2 0-.3 0"></path><path d="M460.9 210.2c.1.5-.3 1-.8 1-.1 0-.2 0-.2 0h-8.5c-.2 0-.4 0-.5 0-.2-.1-.3-.2-.4-.4l-6.2-16.6c-.1-.3-.4-.5-.7-.6-.4-.1-.8-.2-1.2-.2h-2.2c-.4 0-.6 0-.6.5v16.2c0 .7-.3 1.1-1 1.1h-7.7c-.5.1-1-.3-1.1-.8 0-.1 0-.2 0-.3v-45.9c0-.7.3-1 1.1-1h10.2c2.2 0 4.4.3 6.6 1.1 1.9.7 3.6 1.7 5.1 3.1 1.4 1.4 2.6 3 3.3 4.9.8 2 1.2 4.2 1.2 6.4 0 2-.2 3.9-.7 5.9-.4 1.9-1.4 3.7-2.7 5.1l-.4.5c-.2.1-.3.3-.3.5.1.5.3 1 .5 1.5l1.3 3.3c.5 1.3 1.1 2.7 1.7 4.3l1.8 4.4 1.5 3.6c.4 1 .7 1.7.8 1.9v.3c0 .1 0 .2 0 .3m-21.5-26.4c0 .3.1.7.4.9.2.2.6.4.9.4 1.8.1 3.5-.5 4.8-1.7 1.3-1.2 2-3 1.9-4.8.1-1.7-.6-3.3-1.9-4.4-1.3-1-2.9-1.5-4.5-1.5-.4-.1-.7-.1-1.1 0-.3 0-.5.5-.5 1.1v10zM490.7 204.3v5.8c.1.5-.3 1-.8 1.1-.1 0-.2 0-.3 0H466c-.5.1-1-.3-1.1-.8 0-.1 0-.2 0-.3v-45.9c0-.7.3-1 1.1-1h7.7c.5-.1 1 .3 1 .8 0 .1 0 .2 0 .2v37.9c-.1.5.3 1 .8 1 .1 0 .2 0 .2 0h14c.7 0 1.1.3 1.1 1M523.1 212.3c-1.7 0-3.3-.2-4.9-.7-1.6-.4-3.2-1.1-4.6-2-1.4-.9-2.5-2-3.4-3.4-.9-1.5-1.4-3.2-1.3-4.9 0-.6.3-.9 1-.9h7.2c.3 0 .6 0 .7.2.1.2.2.4.4.7.5.8 1.3 1.5 2.2 1.9.9.3 1.9.5 2.9.5 1.2 0 2.4-.3 3.4-.9 1-.6 1.6-1.8 1.5-3 0-.7-.2-1.5-.6-2.1-.4-.6-.9-1.1-1.4-1.6L515 185.6c-1.5-1.4-2.8-3.1-3.7-4.9-.9-1.9-1.3-3.9-1.3-6 0-1.8.3-3.6 1-5.2.7-1.5 1.7-2.8 2.9-3.9 1.3-1.1 2.8-2 4.5-2.5 1.8-.6 3.7-.9 5.6-.9 1.6 0 3.3.3 4.8.8s2.9 1.4 4.2 2.4c1.2 1.1 2.2 2.4 3 3.9.8 1.4 1.2 3 1.2 4.6 0 .3-.1.5-.3.7-.2.1-.5.2-.7.2h-6.8c-.4 0-.8-.2-1-.6 0-.4-.4-.8-.7-1.3-.3-.5-.7-.9-1.2-1.3-.8-.4-1.7-.6-2.6-.6-1.1 0-2.1.3-3 .9-.8.7-1.3 1.7-1.2 2.7 0 1 .3 2 .8 2.8.5.8 1.1 1.6 1.9 2.2l10.2 9.4c.9.8 1.7 1.6 2.4 2.5.7.8 1.3 1.7 1.7 2.6.5.9.8 1.9 1 3 .2 1.2.4 2.3.3 3.5.1 1.9-.4 3.7-1.2 5.4-.8 1.4-1.9 2.7-3.2 3.6-1.4 1-3 1.7-4.7 2.1-1.8.4-3.6.7-5.4.7M570.4 175.7c0 .7-.3 1-1 1h-7.7c-.7 0-1-.3-1-1 0-.8-.1-1.7-.5-2.5-.3-.5-.7-1-1.2-1.4-.4-.3-1-.6-1.5-.7-.5-.1-1.1-.1-1.6 0-1.1 0-2.1.5-2.9 1.2-.9.8-1.3 1.9-1.3 3v24.8c0 .9.5 1.8 1.3 2.2.8.6 1.8 1 2.9 1 .5 0 1 0 1.5 0 .5-.1.9-.3 1.3-.6.4-.4.7-.8.9-1.3.3-.8.4-1.6.3-2.5 0-.6.3-.9 1-.9h7.7c.7 0 1 .3 1 .9.3 3.9-1.1 7.7-3.9 10.4-2.8 2.3-6.4 3.4-10 3.2-1.8 0-3.6-.3-5.3-.8-1.6-.5-3.1-1.3-4.4-2.3-1.3-1-2.3-2.4-3-3.9-.8-1.7-1.2-3.5-1.1-5.3v-24.9c0-1.8.4-3.6 1.2-5.2.7-1.6 1.8-3 3-4.2 1.3-1.2 2.8-2.2 4.4-2.9 1.7-.7 3.5-1 5.3-1 1.8 0 3.6.2 5.4.7 1.7.4 3.2 1.2 4.6 2.3 1.4 1.1 2.5 2.6 3.2 4.2.9 2 1.3 4.2 1.2 6.4"></path><path d="M576.8 169.7c.9-1.6 2.1-3 3.5-4.1 1.4-1.1 3.1-2 4.8-2.7 3.4-1.3 7.2-1.3 10.6 0 1.7.6 3.3 1.5 4.8 2.7 1.4 1.1 2.6 2.5 3.5 4.1.9 1.6 1.3 3.4 1.3 5.2v24c0 2-.4 3.9-1.2 5.7-.7 1.6-1.8 3-3.2 4.2-1.4 1.1-3 2-4.7 2.5-1.9.6-3.8.9-5.7.9-2 0-3.9-.3-5.8-.8-1.7-.5-3.3-1.3-4.7-2.5-1.4-1.1-2.4-2.6-3.2-4.2-.8-1.8-1.2-3.8-1.1-5.8v-24.1c-.1-1.7.3-3.5 1.1-5.1m8.4 29.4c0 1.3.6 2.5 1.6 3.2 1 .8 2.2 1.2 3.4 1.2 1.4 0 2.7-.4 3.9-1.2 1.1-.7 1.7-2 1.7-3.3v-24c-.1-.7-.4-1.3-.9-1.8-.4-.5-.8-1-1.3-1.3-.5-.4-1.1-.7-1.7-.9-1.1-.4-2.3-.4-3.5 0-.6.2-1.1.5-1.7.8-.5.3-.9.8-1.3 1.3-.3.5-.5 1.1-.5 1.7l.3 24.3zM611.7 163.2h7.7c.7 0 1.1.3 1.1 1v34.3c0 1.1.5 2.2 1.5 2.9 1.9 1.5 4.6 1.5 6.6 0 .9-.7 1.4-1.8 1.4-2.9v-34.2c-.1-.5.3-1 .8-1 .1 0 .2 0 .2 0h7.7c.7 0 1.1.3 1.1 1V199c0 2-.4 4-1.2 5.8-.7 1.6-1.8 3-3.2 4.2-1.4 1.1-2.9 2-4.6 2.5-1.8.6-3.6.8-5.5.8s-3.7-.3-5.5-.9c-1.7-.6-3.2-1.4-4.5-2.6-1.3-1.1-2.4-2.6-3.1-4.2-.8-1.8-1.2-3.7-1.1-5.6v-34.7c-.1-.5.3-1 .8-1 .1 0 .2 0 .2 0M664.2 211.2h-8.1c-.5.1-1-.3-1.1-.8 0-.1 0-.2 0-.3v-38.3c.1-.5-.3-1-.8-1-.1 0-.2 0-.2 0h-9.3c-.5.1-1-.3-1.1-.8 0-.1 0-.2 0-.3v-5.4c0-.7.3-1 1.1-1h30.8c.7 0 1.1.3 1.1 1v5.4c.1.5-.3 1.1-.9 1.1-.1 0-.2 0-.2 0h-9.3c-.5-.1-1 .3-1 .8 0 .1 0 .2 0 .2v38.3c.1.5-.3 1-.8 1.1-.1 0-.2 0-.3 0M693.2 212.3c-1.7 0-3.3-.2-4.9-.7-1.6-.4-3.2-1.1-4.6-2-1.4-.9-2.5-2-3.4-3.4-.9-1.5-1.4-3.2-1.3-4.9 0-.6.3-.9 1-.9h7.2c.4 0 .6 0 .7.2.1.2.2.4.4.7.5.8 1.3 1.5 2.2 1.9.9.3 1.9.5 2.9.5 1.2 0 2.4-.3 3.4-.9 1-.6 1.6-1.8 1.5-3 0-.7-.2-1.5-.6-2.1-.4-.6-.9-1.1-1.4-1.6L685 185.6c-1.5-1.4-2.7-3.1-3.7-4.9-.9-1.9-1.3-3.9-1.3-6 0-1.8.3-3.6 1-5.2.7-1.5 1.7-2.8 2.9-3.9 1.3-1.1 2.8-2 4.5-2.5 1.8-.6 3.7-.9 5.6-.9 1.6 0 3.3.3 4.8.8 1.5.6 2.9 1.4 4.2 2.4 1.2 1.1 2.3 2.4 3 3.9.8 1.4 1.2 3 1.2 4.6 0 .3-.1.5-.3.7-.2.1-.5.2-.7.2h-6.9c-.4 0-.8-.2-1-.6l-.7-1.3c-.3-.5-.7-.9-1.2-1.3-.8-.4-1.7-.6-2.6-.6-1.1 0-2.1.3-3 .9-.8.7-1.3 1.7-1.2 2.7 0 1 .3 2 .8 2.8.5.8 1.1 1.6 1.9 2.2l10.2 9.4c.9.8 1.7 1.7 2.4 2.5s1.3 1.7 1.7 2.6c.5.9.8 1.9 1 3 .2 1.2.4 2.3.3 3.5.1 1.9-.4 3.7-1.2 5.4-.8 1.4-1.9 2.7-3.2 3.6-1.4 1-3 1.7-4.7 2.1-1.8.4-3.6.7-5.4.7"></path></g></svg>