<svg xmlns="http://www.w3.org/2000/svg" xml:space="preserve" id="Capa_1" x="0" y="0" style="enable-background:new 0 0 512 512" viewBox="0 0 512 512"><style>.st19{fill:#020303}.st62{stroke:#020203;stroke-width:.433;stroke-miterlimit:10}.st62,.st63{fill:#848ea0}.st64{fill:#020203}.st67{fill:#737373}.st69{fill:#4f4f4f}.st70{fill:#777778}.st72{fill:#848ea0;stroke:#040405;stroke-width:.142;stroke-miterlimit:10}</style><path d="M262.9 39.7c10 11.4 19.1 23.7 27.2 36.4 10.5 16.4 19.2 33.7 25.7 52.1 3.7 10.5 6.5 21.1 8.1 32.1 1.9 13.3 3 26.7-1.9 39.9s-12.4 24.8-22.7 34.3c-4.3 4-9.1 7.3-14 10.5-1.3.8-3 1.6-4.1.5-1.1-1 .3-2.2.8-3.3 3.5-6.8 6-14 5.7-21.9-.3-8.3-3.7-14.9-8.6-21.1-5.9-7.3-13.5-12.9-19.9-19.7-9.5-10.3-16.8-22.1-18.3-36.4-1.1-10.2 1.7-19.7 7.9-28 4.4-6 10.2-11 16-15.7l7.6-6c2.1-1.6 3.8-1.1 5.2 1s.5 3.2-1.4 4.6c-7.5 5.7-14.5 11.8-17.9 21-4.6 12.2-3.2 23.8 3.7 34.8 4.3 6.8 10 12.7 15.4 18.9 8.3 9.7 16.8 19.4 21.8 31.5 1.1 2.7 1.9 2.4 3.8.5 7.8-7.9 11.8-17.8 13.5-28.4 2.1-12.2-.5-24-4.3-35.4-5.2-15.6-11.1-30.8-18.9-45.3-6.2-11.4-13.5-21.9-21.8-31.9-3.2-3.8-6.2-7.5-9.7-11-1.9-1.9-3.3-2.2-5.7-.5-10.5 7-20.6 14.3-29.1 23.8-7.8 8.7-14.5 18.1-17.3 30-2.2 9.4-.6 18.1 3.2 26.5 5.9 13 14 24.8 23 35.9 8.3 10 17.8 18.9 25.1 29.7 5.9 8.7 11.1 17.8 13.8 28.3 3.3 12.7.3 23.8-8.9 33.2-5.9 5.9-11.8 11.6-18.6 16.4-1.6 1.1-3.3 2.5-5.9 1.7 2.9-3.7 5.7-7.1 8.1-10.8 3.8-5.7 5.7-12.2 6.5-19.2 1.9-15.6-4.8-28.3-13.3-40.5-4.4-6.2-10.2-11.1-15.2-16.5-11.8-12.7-22.6-26.1-30-41.8-4.3-8.9-7.3-18.3-8.3-28.3-1.3-14.6 3.5-26.8 13.2-37.5 15.9-17.3 35.3-30.2 55.1-42.3 1-.6 1.7-1.3 2.5-2.1h2.9z" style="fill:#fac722"></path><path d="M373.6 385.4c-11.4-5.6-21.3-13.3-31.1-21-7.8-6.2-15.4-12.7-22.2-19.7-12.7-13-24.6-26.8-33.4-42.9-6-11.4-8.4-23.8-5.6-37 3.3-15.1 12.4-25.4 25.1-33.2 10.2-6.2 20.8-11 32.6-13.2 8.7-1.7 17.5-2.1 26.4-.6 12.1 1.9 22.6 6.7 30.5 15.9 10.6 12.4 18.7 26.2 21.1 42.7 1 6 1.1 12.1.6 18.1-.2 2.1-1.3 3.8-2.4 5.4-1.3 1.9-3.8 1.3-4.4-1.3-1.6-5.6-1.7-11.3-2.2-17-.6-9.5-2.7-18.7-7.9-26.8-6.4-10-15.6-15.9-27-18.3-15.9-3.3-31.5-1-46.5 4.8-8.9 3.3-17.6 6.5-25.4 12.4-8.4 6.4-14.1 14-12.7 25.1.8 6.4 4.3 11.6 8.6 16.4 12.9 14 28 25.4 43.4 36.5 9.1 6.7 18.3 13 26.5 20.5 7.5 6.7 13.3 14.8 12.2 25.7-.3 3-1.1 5.7-3.5 7.9-.9-.4-1.7-.4-2.7-.4zm84.6-171.9-2.1 9.2c-2.4 11.9-7.8 22.4-15.2 31.8-4.3 5.4-9.4 10.2-14.6 14.8-2.1 1.7-3.7 2.2-5.7.6-1.9-1.6-3-3.5-2.5-6 .6-3.2 2.9-5.2 5.2-7.3 11.6-9.8 21.9-20.8 27.5-35.3 3.8-9.7 3.2-18.7-4.3-27.2-8.4-9.5-18.6-14.8-31.1-16.5-9.1-1.1-18.1-1-27.2 0-14.8 1.4-28.8 5.7-42.7 10.3-2.1.6-4 2.1-6.8 2.1l8.3-11.9c8.6-12.4 15.9-25.4 20.2-40 1.3-4.3 2.7-8.7 3.2-13.2.8-7-1.4-13.3-6.4-18.4-11.8-12.5-26.5-19.2-43.2-22.2-6.5-1.1-13.2-2.1-19.9-1.9-3.3 0-3.3-2.4-4-4.4-.3-1.3.8-1.1 1.6-1.1 10 1.3 20.2 2.2 30 4.8 14.6 3.8 28.3 9.5 39.4 20 5.9 5.6 8.9 12.9 10 21 2.4 15.9-2.9 29.9-10.6 43.4-2.1 3.7-4.4 7.1-7 11.3 4.4-1.1 8.3-1.9 12.1-3 8.4-2.4 17-3.3 25.7-4.3 9.8-1 19.4 0 28.4 3 13.8 4.6 24.9 12.9 30.7 27.2.2.5.2 1.4 1.1 1.6l-.1 11.6zM46.6 234.8c1.1-.8 1.7-.8 2.4.6 5.6 10.8 14.8 17.8 25.3 23.5 8.9 4.8 18.1 8.6 26.7 13.8 2.5 1.4 4.8 3.3 6 6 1 1.9 1.4 4 .2 5.7-1.3 2.1-3.7 1.4-5.2 1-3.5-1.1-7.1-2.5-10.5-4.1-11.4-5.4-21.6-12.4-30-21.8-5.7-6.4-10-13.7-13.3-21.4-.3-1-.5-1.9-1.4-2.5-.2 0-.2-.8-.2-.8zm118.3-65.3c20 0 38.4 5.6 54.5 17.5 12.5 9.4 20.8 21.8 23 38 2.1 15.1-.8 28.6-10.5 40.7-7.5 9.2-15.1 18.3-23.3 26.8-13.5 13.8-28 26.4-43.7 37.5-3.7 2.5-7.1 5.4-11 7.5-2.2 1.3-3.7.3-3.5-1.6.3-9.2.3-18.7 8.4-25.1 3.5-2.9 7.8-4.8 11.6-7.1 11.8-7.3 23-14.8 33.5-23.8 7.6-6.5 14.9-13.2 21-21 8.9-11.4 9.5-23.5 4.3-36.5-2.9-7.3-6.7-13.8-12.1-19.4-7.6-7.9-17.2-12.5-28.1-14-11.8-1.4-23.2-.6-34.3 3-9.8 3.2-17.8 9.1-21.3 19.7-.2.3-.5.6-.5 1 .3 3.3-.3 6.5-3.3 8.3-4.9 3-9.7 6.5-15.7 6.8-2.2.2-3-.8-3-3 1-17.3 5.6-33 19.7-44.3 6.7-5.6 14.8-8.4 23.3-9.8 3.9-1.2 7.4-1 11-1.2zM204 79.1c-1.9 4.8-5.6 6.8-9.8 7.9-22.4 5.7-44.6 12.2-66.2 21-11.3 4.6-22.9 9.2-32.2 17.2-6.2 5.2-9.5 11.8-5.4 20.8 4.3 9.1 11.3 15.1 18.9 21 5.1 3.8 10.2 7.6 15.9 10.3 1.9 1 2.4 2.2.6 4.3-3.3 4.1-3.5 5.1-8.1 1.7-6.7-4.6-13.3-9.2-18.9-14.9-7.3-7.6-13-16.2-14.9-26.8-1-5.4 1-10.8 3.8-15.2 6.4-10.3 15.7-17.6 26.4-23.3 14.8-8.1 30.5-13.7 46.9-17.6 9.4-2.2 19.1-4 28.6-5.2 4.6-.7 9.3-1.8 14.4-1.2zm-90.4 115.2c1.3.2 2.5-.2 1.9 2.4-1.3 4.8-2.7 7.9-10.5 8.7-11.8 1.3-23.3 4.4-34.5 8.9-6.7 2.7-13 5.9-19.1 9.5-1 .6-2.4 1.6-3.5.6s.2-2.2.6-3c2.9-4.6 7.1-7.9 11.9-10.6 13.2-7.6 27.5-11.6 42.3-14.3 3.8-.8 7.3-1.6 10.9-2.2zm38.1 0c1.7 0 3 1.3 4.1 2.2 4.8 3.3 9.4 6.8 14 10.3.5.5 1.3 1 .8 1.6-.3.8-1.1 1.1-2.1 1-8.4-1.6-17-2.4-25.6-3.5-3-.5-.5-2.5 0-3.3 2.1-2.9 5.2-4.8 7.1-7.8.8-.7 1.4-.4 1.7-.5z" style="fill:#e2272a"></path><path d="m199.1 231.6-5.6-6.4-8.4 1 4.3-7.3-3.7-7.6 8.4 1.7 6.2-5.7.8 8.4 7.5 4.1-7.8 3.5-1.7 8.3zm171.1 40.2-6.5-5.6-8.3 2.4 3.2-7.9-4.6-7.1 8.4.6 5.4-6.7 2.1 8.3 7.9 3-7.3 4.4-.3 8.6z" style="fill:#fbc821"></path><path d="M220.7 368.7c-.6-5.7-1.1-11.4-1.4-17.2-.3-6.7 2.7-11.3 8.6-14.1 1.4-.3 2.9 0 4.1.5 9.8 3.8 19.9 3.7 29.9.3 1.4-.5 2.7-.6 4.1-.3 5.2 2.9 7.8 7.1 7.6 13.2-.2 4.9-.6 10-1.1 14.9-.6 6-1.7 12.1-3.7 17.9-.2.6-.5 1.4-.8 2.1-.2.5-.6.8-1.3.8-.6-.2-1-.5-1-1.1 0-3.2-.8-6.4.2-9.5 1-3.2 1.7-6.5 2.2-8.7-.3 1.3-.8 3.7-1.6 5.9-1.1 3.7-1.4 7.3-1.4 11.1 0 4.4.3 8.7-.3 13.2-.8 5.4-3.3 9.7-8.7 11.6-.8.2-1.6.6-2.4.8.8-.2 1.4-.5 2.2-.6 2.2-.8 4-2.1 5.7-3.7.5-.5 1-.8 1.4-1.3s1-.8 1.7-.5c.6.3.8 1 .6 1.6-.2.6 0 1.3.2 2.1 0 .8-.8 1.4-.6 2.4 0 .8-.3 1.6-1 2.2-2.1.5-2.9 2.4-4 4-.2.2-.5.3-.6.5-.8 0-1.6.5-2.4.6-1.7.6-3.5 1-5.4 1-4.8-.2-9.5.5-14.3-.3-2.1-.3-4-.8-5.7-1.9-3.8-2.5-4.8-6.2-4.6-10.3.2-1.6 1.1-1.9 2.4-.8 1.1 1 1.9 2.1 3 2.9 1.9 1.3 4 2.2 6.2 2.9 1.4.3 2.9.8 4.1.6-1.1.2-2.4-.3-3.8-.6-7.6-1.9-11.1-6.5-11.3-14.5-.2-5.6 0-11.1-.3-16.5 0-1-.2-1.9-.5-2.9-1.1-3.8-1.7-7.6-2.7-11 1 3.5 1.7 7.6 2.9 11.8.8 2.9.2 6-.2 9.1 0 .5-.3 1-.8 1-.6.2-1-.3-1.3-1-1.1-2.5-1.7-5.2-2.4-7.8-.4-4.1-1.2-7.2-1.5-10.4z" class="st62"></path><path d="M266.4 305c-.2-1.1-.2-2.1 0-3-.2-.8-.3-1.6 0-2.5 0-1.3-.2-2.4 0-3.7-.3-1.1 0-2.1.2-3.2-.2.3-.2.2-.6-.3l1.6-17.8c.3-2.5.3-2.5-2.1-3l-9.8-1.9c-2.5-.3-3 .2-3 2.7v6.8l-2.2-12.9c-.3-1.7-.6-3.7-1.6-5.2-.8-1.4-1.4-1.4-2.2 0-1.3 2.2-1.4 4.6-1.9 7l-2.1 12.9c-.2.6-.2 1.3-.8 2.1l.6-7.8c0-.5 0-1 .2-1.6 0-4.1-.5-4.6-4.4-3.7l-7.9 2.1c-1.9.3-2.1 1.4-1.9 3 1 6.5 1.4 12.9 1.7 19.4.6 9.5 0 18.9-1.7 28.3-.8 4.1.2 6.8 4 8.4 1.3 1.4 3 1.9 4.8 2.2 9.1 1.4 18.1 2.4 26.7-2.2.2-.3.3-.3.6-.3 4.6-2.1 4.6-3 4.3-6.7-1.2-6.6-2-12.8-2.5-19.1z" class="st63"></path><path d="M266.9 246.4c1.4 4.1 1 8.3-.2 12.2-.3 1.1-1.1 1.3-2.1 1-7-1.7-14.1-2.1-21.4-1.7-4.1.2-8.1 1-12.1 1.9-.8.2-1.6.5-1.9-.6-1.3-4.3-1.9-8.6-.2-12.9 1.4-.6 2.9-.5 4.4-.5 10.6-.5 20.5-1 31.1-.2.7 0 1.8.1 2.4.8z" class="st62"></path><path d="M232 330.9c5.6 1.9 11.1 2.7 16.8 2.4 4.4-.2 8.9-.6 13.2-2.2.5-.2 1.6-.5 2.1-.6-.8.6-2.9 1.1-2.9 2.9 0 1.7.3 2.9 2.2 3.3.8.2 1.6.3 2.4.8-1.4 0-7.9 1.9-12.1 2.7-7.8 1.4-14.5.5-21.8-2.2-1.3-.5-3.5-.6-4.9-.6 1.3-.5 1.6-.6 2.9-1 .3-.2 1.7-.5 1.9-1 .5-1.5 1-3.1.2-4.5z" class="st64"></path><path d="M238.8 410.1c-4.1-1-7.8-2.7-10.6-6-1.3 5.7 1.7 10.5 6.8 12.1 4.9 1.4 10 1 14.9 1 2.5 0 4.9-.5 7.3-.8 1.1 1.1 1 1.3-.3 2.1-1.3.6-2.7.5-4.1.6-4.1-.2-8.4-.2-12.5 0-2.4-.2-4.9-.3-7.3-1.1-4.6-1.3-7.3-4.8-7.5-9.5 0-1.4-.2-3 .2-4.4.5-2.5-.2-5.1 0-7.6.2-4.9-1.4-9.2-2.5-13.8-1-3.7-1.6-7.5-2.2-11.3-.2-1 0-1.7-.2-2.7l2.4 10.2c.6 2.7 1.6 5.1 2.9 7.6.3-3.7 1-7.3 0-11l-2.9-13.8c1 1 1.1 1.7 1.3 2.5l2.9 10.2c1.6 5.4 1.1 11.1 1.3 16.7 0 2.7 0 5.2.5 7.8 1.1 5.9 4.6 9.5 10.3 11.1-.2.1-.2.3-.7.1z" style="fill:#030304"></path><path d="M267.1 291.2c.6-9.2 2.7-18.7 2.2-28.4 0-.6-.2-1.3.8-1.3.3.2.6.3 1 .3 2.5 1.1 2.9 1.7 2.5 4.4 0 .6-.2 1.1-.2 1.7-.3 2.2-.5 4.6-1.1 6.8-.3 1.6-1.4 3-.3 4.6-.3 3.7.8 7.1.5 10.8 0 2.5.3 5.1.5 7.5 0 2.7 0 5.6-.8 8.3-.6 1.7-2.2 3-3.8 3-1.1 0-1.7-.5-1.9-1.6 0-1.3-.5-2.5-.3-4 .3-1 0-1.9 0-2.9.2-1.3 0-2.4 0-3.7.4-1.6.7-3.8.9-5.5z" class="st62"></path><path d="m226.7 261-.5 1.7c-.5 7.8 1 15.4 1.4 23.2.5 6.8 1.3 13.7.6 20.5-.2 1.6.2 2.4-1.3 1.7-1.1-.5-2.5-2.1-2.9-3.2-1.3-4.1-1-8.4-.6-12.7.3-3.8.6-7.5.6-11.3 0-1.1 0-2.2.6-3.2.2-.3.5-.6.2-1-1.9-1.9-1.4-4.4-2.2-6.7l-.5-4.1c-.3-2.5 0-3.2 2.2-4.1.7-.2 1.9-.7 2.4-.8z" class="st63"></path><path d="M226.7 261c-.3 1-.3 1.7-.3 2.7v2.7c0 1.9.2 3.7.5 5.6l1.3 11 1 11.1c.3 3.7.5 7.5.2 11.1l-.2 1.4v1.4c0 .2 0 .3-.2.6 0 .2-.2.3-.3.5-.2.2-.4.3-.6.3-.8 0-1-.2-1.3-.3-.5-.2-1-.6-1.4-1-.8-.6-1.4-1.4-2.1-2.5-.3-.6-.3-1-.5-1.4-.2-.5-.2-1-.3-1.4-.6-3.8-.3-7.6 0-11.3l.8-11c0-1 .2-2.1.8-3 .2-.2.3-.3.3-.5v.2l-.2-.2c-.2-.2-.3-.5-.5-.6-.2-.2-.3-.4-.3-.6-.8-1.9-.6-3.8-1.3-5.4l-.2-3c0-1-.2-1.9-.2-3 0-.5.3-1.1.6-1.4.3-.3.8-.6 1.3-.8 1.2-.6 2.2-.9 3.1-1.2zm0 0-2.7 1.3c-.5.3-.8.5-1.1.8s-.5.8-.5 1.3c0 1 .2 1.9.3 2.9l.5 3v-.3c.8 1.9.6 3.8 1.4 5.2.2.3.3.6.6 1l.3.3c.2.3.2.6 0 .8-.2.3-.3.6-.5.8-.3.6-.5 1.4-.5 2.2.2 1.9 0 3.8 0 5.6l-.3 5.6c-.3 3.7-.5 7.3 0 10.8.2.5.2.8.3 1.3s.2 1 .3 1.1c.3.6 1 1.3 1.4 1.7.3.3.6.5 1 .6.2.2.3.2.2.2s-.5.3-.5.3c0 .2 0 0 0 0l.2-1.3.2-1.4c.3-3.7.2-7.3 0-11l-.6-11-.8-11.1v-5.6c0-1 0-1.9.2-2.7.1-.7.3-1.6.6-2.4z" class="st64"></path><path d="M267.1 403.9c0 .6 0 1.3.3 1.7-.8.6-.6 2.4-2.4 1.7 0-1 .2-2.1-.2-3.3-2.5 2.7-5.2 4.6-8.7 5.4-.2-.2-.2-.3 0-.5 6.2-2.9 8.3-8.1 8.4-14.3.2-2.9.2-5.9 0-8.7-.3-5.7.8-11.3 2.7-16.7.6-2.1 1.1-4.1 2.1-6.2.2 1.7-.3 3.5-.6 5.2l-1.9 8.6c-.6 3 0 6 .5 9.2l1.9-5.1c1.4-4.6 2.5-9.2 3-14 0-.3.2-.8.3-1.1 0 4.6-1 9.1-1.9 13.5-.6 2.9-1.3 5.9-2.4 8.6-.6 1.6-.8 3.3-.8 5.1.1 3.6-1 7.3-.3 10.9z" style="fill:#050606"></path><path d="M257.1 418.4c.6-.6.3-1.4.3-2.1.6-.2 1.4-.5 2.1-.6.8.6.5 1.6.5 2.4-.2.2-.3.2-.5 0-.6.2-1.3.3-1.7.3h-.7zm-16.9-1.4c1.9-.6 3.8-.3 5.6-.3 2.4 0 4.6-.3 7 .3h-12.6z" class="st64"></path><path d="M259.8 417.9c-.8-.6-.6-1.4-.3-2.4l.3-.3c1.4-1.1 2.7-2.4 3.8-3.8l1-1.7c.5-.3.6-1 1.1-1.4.5-.6 1.1-1.1 2.1-.6 1 1.1.5 2.5 0 3.7-.8 3-2.7 5.2-5.6 6.7-.9.1-1.6.6-2.4-.2z" class="st64"></path><path d="M267.2 407.8c-1 .6-1.4 1.9-2.7 2.1.2-.8.3-1.6.3-2.4 1-.5 1.3-1.4 2.4-1.7v1.7c.2.1.2.1 0 .3zm-35.7-40.9c1.1.8 2.1 1 3 0 .2 1.3-.3 1.9-1.3 1.9-.9.2-1.6-.4-1.7-1.9zm27.3 0c1.1.6 2.1.8 3 0 .2 1.1-.3 1.6-1.3 1.7-1.1.2-1.7-.1-1.7-1.7z" class="st64"></path><path d="M263.6 411.6c-.6 1.9-2.1 3-3.8 3.8 1.1-1.4 2-3 3.8-3.8zm-18.9-14.2c.3-.8.5-1.9 1.7-1 .8.5.6 1.1 0 1.4-.6.6-1.4.6-1.7-.4z" class="st63"></path><path d="M244.7 397.4c.5.3 1.1.6 1.6.2.5-.3.2-.8 0-1.1 1.1.2.8 1 .6 1.6-.3.6-1 1-1.6.6-.3-.3-1.4-.3-.6-1.3zm-5.9 12.7.3-.3c1.4.3 2.9.8 4.3.8-1.4.3-3 .2-4.6-.5zm17.1-1.1v.5c-1.3.6-2.4 1-4.3.8l4.3-1.3z" class="st64"></path><path d="M251 299.6c-2.4-.8-5.1-.2-7.8-.2s-4.9-1.1-6.2-3.5c-.6-1.3-.3-2.1 1.1-2.2 1.6-.2 3.2-.2 4.6.6 3 1.7 6 1.7 9.1 0 1.4-.8 3-.8 4.6-.5 1.4.2 1.7 1 1 2.2-1.1 2.3-3.4 3.4-6.4 3.6z" class="st19"></path><path d="M243.4 305.9c2.6-.5 5.2-.5 7.8 0-2.6.8-5.3.7-7.8 0z" class="st67"></path><path d="M273.1 295.9c0-1.9-.3-2.5-.5-4.4 0-.3.2-1.1.2-1.4v-.2c-.2-1.3 0-4.4 0-5.2.3-3-1.3-6-.2-9.2.8-2.2 1-4.9.8-7.5l-1.1 5.6c-.5 2.2-1.3 4.1-.8 6.8.6 3 .3 6.5.6 9.7l.2 3.8c.3 3.8.3 7.6-.6 11.3-.3 1.4-1.1 2.5-2.5 2.9-1.1.3-2.5.2-2.5-1.3 0-1.1 0-1.7-.2-2.9v-6.2c.2-.2.2-1.9.3-2.1.2-1.4.2-1.9.2-3.2 0-.6.3-2.1.5-2.5.5-3 .5-4.9.8-8.1.8-6.7 1.3-12.7 1.3-19.7 0-2.1-.2-2.7-.5-4.3-.3-3-.6-5.6-1.3-8.4-.2-1-.3-1.1-.8-2.9l.8 3.8c.2 2.7-.2 4.1-.6 6.8-.3 1.7-1.7 1.7-3.5 1.6-.6 0-1.1-.2-1.7-.3-5.1-1.1-10.3-1.4-15.4-1.3-4.8.2-9.5.5-14.1 1.7-1.7.5-3.2.6-3.5-1.1-.5-2.4-1-5.6-.5-8.1.2-1 .3-1.9.6-3.2-.5 1-.8 1.7-1 2.7-.5 2.7-.8 3.8-.8 6.7 0 1.6-.2 2.9-.3 5.1-.2.5-.6 1.6-.6 3 0 3.2.2 5.1.5 8.3.5 4.1.8 8.4 1.1 12.5.3 4.1.3 7.9.6 12.1.2 2.4.3 5.6 0 7.9 0 .6-.5 6.7-.5 7.5 0 .6-.2 1.1-.2 1.7l-1.4 11.3c-.2 1.1 0 2.2.8 3 1.4 1.4 3 2.4 4.9 2.7-3.8-1.6-4.8-4.3-4-8.4 1.7-9.4 2.2-18.7 1.7-28.3-.5-6.5-.8-13-1.7-19.4-.3-1.6 0-2.7 1.9-3 2.7-.6 5.2-1.4 7.9-2.1 4-1 4.4-.5 4.4 3.7 0 .5 0 1-.2 1.6-.2 2.5-.3 5.1-.6 7.8.6-.6.6-1.4.8-2.1.8-4.3 1.4-8.6 2.1-12.9.5-2.4.6-4.9 1.9-7 .8-1.4 1.4-1.4 2.2 0 1 1.6 1.3 3.5 1.6 5.2.8 4.1 1.4 8.4 2.2 12.9v-6.8c0-2.5.6-3 3-2.7 3.3.5 6.7 1.3 9.8 1.9 2.4.6 2.4.6 2.1 3-.6 5.9-1.1 11.8-1.6 17.8 0 1.4-.2 2.4-.3 3.5v6.2c0 7 1 14 1.9 21 .5 3.5-.2 6.4-3.7 7.8 3.7-.5 5.9-3 5.4-6.5-.5-4-1-7.8-1.6-11.8-.2-1.1-1-3.8.3-3.8 1.7 0 2.1.3 3.3-1 1.1-1.1 1.3-1.7 1.3-2.9.2-1.9.6-2.9.5-4.9.3-1.1.3-2.3.3-3.8z" class="st64"></path><path d="M255.9 304.8c-.2-.2-.5-.2-.6-.3-.6-.2-1.1-.2-1.7-.3-5.4-1-10.6-1-15.7 1.1 4.9-.8 10-.6 14.9-.5.2.2.5.2.6.2 1 .2 1.9.3 2.9.6.3 0 .8 0 1-.5-.2-.4-.7-.4-1.4-.3z" class="st19"></path><path d="M440.7 369.8c-.8-5.4-1.3-10.6-1.6-16-.3-6.2 2.9-10.5 9.4-13.2 1.6-.3 3 0 4.6.5 10.8 3.5 21.6 3.5 32.4.3 1.4-.5 2.9-.6 4.4-.3 5.7 2.7 8.4 6.7 8.3 12.4-.2 4.6-.8 9.4-1.1 14-.8 5.7-1.9 11.3-4 16.7-.3.6-.5 1.3-.8 1.9-.2.5-.6.8-1.3.6-.6-.2-1-.5-1-1 0-3-1-5.9.2-8.9 1.1-3 1.9-6.2 2.4-8.1-.3 1.1-.8 3.3-1.6 5.6-1.3 3.3-1.6 6.8-1.6 10.3 0 4.1.3 8.3-.3 12.4-.8 5.1-3.5 9.1-9.5 11-.8.2-1.7.5-2.5.6.8-.2 1.6-.5 2.4-.6 2.4-.6 4.4-1.9 6.2-3.3.5-.3 1-.8 1.4-1.3.5-.3 1.1-.8 1.7-.5.8.3.8 1 .8 1.4-.2.6 0 1.3.2 1.9 0 .8-1 1.4-.6 2.2 0 .8-.5 1.4-1 2.1-2.2.5-3.2 2.2-4.3 3.7-.3.2-.5.3-.8.3-1 0-1.7.5-2.7.5-1.9.6-3.8 1-5.9.8-5.2-.2-10.5.3-15.6-.3-2.2-.3-4.4-.6-6.4-1.7-4.1-2.4-5.2-5.7-4.9-9.7.2-1.4 1.1-1.7 2.5-.8 1.1.8 2.1 1.9 3.3 2.7 2.1 1.3 4.3 2.1 6.7 2.7 1.6.3 3.2.6 4.4.6-1.1.2-2.5-.3-4.1-.6-8.3-1.9-12.2-6-12.4-13.7-.2-5.2 0-10.3-.3-15.6 0-1-.2-1.7-.5-2.7-1.3-3.5-1.9-7.1-2.9-10.2 1.1 3.3 1.9 7.1 3 11 .8 2.7.2 5.6-.2 8.4 0 .5-.3.8-1 1-.8.2-1.1-.3-1.3-1-1.1-2.4-1.9-4.9-2.5-7.3-.3-2.9-1.3-5.8-1.6-8.8z" class="st62"></path><path d="M490.4 310.2c-.2-1-.2-1.9 0-2.9-.2-.8-.3-1.6 0-2.4 0-1.1-.2-2.2 0-3.5-.3-1-.2-1.9.2-3-.3.3-.2.2-.6-.3l1.7-16.5c.3-2.4.3-2.4-2.4-2.9l-10.8-1.9c-2.7-.3-3.3.2-3.3 2.5v6.4l-2.4-12.1c-.3-1.7-.8-3.3-1.7-4.9-1-1.4-1.6-1.4-2.5 0-1.4 2.1-1.6 4.3-2.1 6.7l-2.4 12.1c-.2.6-.2 1.3-.8 1.9l.6-7.3c0-.5 0-1 .2-1.4 0-3.8-.5-4.3-4.8-3.3l-8.6 1.9c-2.1.3-2.4 1.3-2.1 2.9 1.1 6 1.6 12.1 1.9 18.1.6 8.9 0 17.8-1.9 26.5-.8 3.8.2 6.4 4.4 7.8 1.4 1.3 3.2 1.7 5.1 2.1 9.8 1.4 19.7 2.2 29.1-2.1.2-.3.5-.3.6-.3 5.1-1.9 5.1-2.9 4.6-6.4l-2-17.7z" class="st63"></path><path d="M491 255.4c1.4 3.8 1 7.6-.2 11.4-.3 1.1-1.3 1.1-2.4 1-7.6-1.6-15.4-1.9-23.2-1.6-4.4.2-8.9.8-13.2 1.7-1 .2-1.7.5-2.1-.6-1.3-4-2.1-7.9-.2-12.1 1.6-.6 3.2-.5 4.8-.5 11.6-.3 22.4-1 33.8-.2.7.3 2.1.4 2.7.9z" class="st62"></path><path d="M453.1 334.5c6 1.7 12.1 2.5 18.4 2.2 4.9-.2 9.7-.6 14.5-2.1.5-.2 1.7-.5 2.2-.6-1 .6-3.2 1.1-3.2 2.7s.3 2.7 2.4 3.2c1 .2 1.7.3 2.7.6-1.6 0-8.7 1.7-13.2 2.5-8.4 1.3-15.7.5-23.7-2.1-1.3-.5-3.8-.6-5.4-.6 1.4-.3 1.7-.6 3-1 .3-.2 1.9-.5 2.1-1 .3-1.1.8-2.5.2-3.8z" class="st64"></path><path d="M460.5 408.7c-4.4-.8-8.6-2.5-11.6-5.7-1.3 5.2 1.7 9.8 7.5 11.3 5.4 1.3 10.8 1 16.4 1 2.7 0 5.2-.3 7.9-.8 1.1 1.1 1.1 1.3-.3 1.9-1.4.6-3 .5-4.6.6-4.6-.2-9.1-.2-13.7 0-2.7-.2-5.2-.3-7.9-1-4.9-1.3-7.9-4.4-8.1-8.9 0-1.4-.2-2.7.2-4.1.5-2.4-.2-4.8 0-7.1.2-4.6-1.4-8.7-2.9-13-1.1-3.5-1.7-7-2.5-10.5-.2-.8 0-1.7-.2-2.5.8 3.2 1.6 6.4 2.5 9.5.6 2.4 1.7 4.8 3.2 7.1.3-3.5 1.1-6.8 0-10.3-1.3-4.1-2.1-8.3-3-13 1.1 1 1.1 1.6 1.4 2.4 1.1 3.2 1.9 6.4 3 9.5 1.7 5.1 1.3 10.3 1.3 15.6 0 2.4 0 4.9.5 7.3 1.3 5.6 4.9 8.9 11.1 10.3.3.4.2.4-.2.4z" class="st19"></path><path d="M491.2 297.2c.6-8.7 3-17.5 2.4-26.7 0-.5-.2-1.1.8-1.1.3.2.6.2 1 .3 2.7 1 3.2 1.6 2.7 4.1 0 .5-.2 1.1-.2 1.6-.3 2.2-.6 4.3-1.1 6.4-.5 1.4-1.6 2.9-.3 4.3-.5 3.3 1 6.7.6 10 0 2.4.5 4.8.5 7 0 2.5 0 5.2-1 7.6-.6 1.7-2.4 2.7-4.1 2.7-1.1 0-1.9-.5-2.1-1.4 0-1.3-.5-2.4-.5-3.7.3-1 0-1.7 0-2.7.2-1.1 0-2.2 0-3.5.8-1.1 1.1-3.2 1.3-4.9z" class="st62"></path><path d="M447.4 269.1c-.2.5-.5 1.3-.5 1.7-.6 7.3 1 14.5 1.6 21.6.5 6.4 1.3 12.7.6 19.2-.2 1.4.2 2.2-1.3 1.6-1.3-.5-2.9-1.9-3.2-3-1.3-4-1.1-7.9-.6-11.9.3-3.5.8-7 .6-10.5 0-1 0-2.1.6-2.9.2-.3.5-.6.2-1-2.1-1.7-1.6-4.1-2.4-6.2l-.5-4c-.3-2.4 0-3 2.5-4 .4 0 1.9-.5 2.4-.6z" class="st63"></path><path d="M447.4 269.1c-.3.8-.5 1.7-.3 2.5v2.5c0 1.7.3 3.5.5 5.2l1.4 10.3 1.1 10.5c.3 3.5.5 7 .2 10.6l-.2 1.3v.6c0 .3 0 .5-.3 1.1-.2.3-.8.6-1 .6h-.6c-.3-.2-.5-.2-.8-.3-.5-.2-1-.5-1.3-.8-.8-.6-1.4-1.3-2.1-2.2 0-.2-.2-.3-.2-.5 0 0 0-.2-.2-.2v-.2l-.2-.6c-.2-.5-.2-1-.3-1.4-.8-3.7-.3-7.3 0-10.6l.5-5.2.3-5.2c0-1 .2-2.1 1-2.9.2-.2.2-.3.2-.3s0 .2.2.3l-.2-.2c-.3-.3-.6-.8-.8-1.3-1-1.7-.8-3.7-1.3-5.1l-.3-2.9c0-1-.3-1.9 0-3 .2-.5.5-1 1-1.3.5-.3 1-.5 1.4-.6l2.3-.7zm0 0-2.9 1c-.8.5-1.7 1-1.9 1.7-.2 1 .2 1.9.3 2.9l.5 2.9v-.2c.8 1.7.8 3.7 1.6 4.9.2.3.3.6.6 1l.3.2c.3.2.3.6.3 1-.2.5-.3.6-.5.8-.5.5-.5 1.3-.5 2.1.2 1.7.2 3.5 0 5.2l-.5 5.2c-.3 3.5-.6 6.8 0 10.2.2.5.2.8.3 1.1l.2.6v.2s0 .2.2.2c.3.5 1 1.1 1.6 1.6.3.2.6.5 1 .6.2 0 .3.2.5.2 0 0-.5.2-.5.3-.2.3 0 0 0-.2v-.6l.2-1.3c.3-3.3.2-6.8 0-10.3l-.6-10.5-1-10.5c-.2-1.7-.2-3.5 0-5.2 0-.8 0-1.7.2-2.5-.1-.9.1-1.8.6-2.6zM491 402.8c0 .6 0 1.1.3 1.6-.8.6-.8 2.2-2.7 1.6-.2-1 .2-1.9-.3-3-2.7 2.5-5.7 4.4-9.4 5.1-.2-.2-.2-.3 0-.5 6.7-2.7 8.9-7.5 9.2-13.3.2-2.7.2-5.4 0-8.1-.3-5.4 1-10.5 2.9-15.6.8-1.9 1.1-4 2.2-5.7.2 1.6-.3 3.2-.6 4.8-.6 2.7-1.4 5.2-2.1 7.9-.6 2.9 0 5.7.6 8.6.6-1.6 1.4-3.2 2.1-4.8 1.6-4.3 2.7-8.6 3.3-13.2 0-.3.2-.6.3-1.1-.2 4.3-1.1 8.4-2.1 12.7-.6 2.7-1.4 5.4-2.7 7.9-.8 1.6-1 3-.8 4.8.5 3.5-.8 6.8-.2 10.3z" class="st64"></path><path d="M480.2 416.3c.8-.6.5-1.3.3-1.9.8-.2 1.4-.5 2.2-.6 1 .6.6 1.4.5 2.2-.2.2-.3.2-.5 0-.6.2-1.3.3-1.9.3h-.6zm-18.2.7c2.1-.6 4.1-.3 6-.3 2.5 0 5.1-.3 7.6.3H462z" class="st19"></path><path d="M483.2 415.9c-1-.6-.8-1.4-.3-2.2.2-.2.3-.2.3-.3 1.6-1 2.9-2.2 4.1-3.5l1-1.6c.6-.3.6-1 1.1-1.4.6-.6 1.3-1 2.2-.5 1.1 1.1.5 2.4.2 3.3-1 2.7-3 4.9-6 6.2-.8.3-1.8.8-2.6 0z" class="st19"></path><path d="M491.4 406.3c-1.1.6-1.6 1.7-3 1.9l.5-2.2c1-.5 1.4-1.4 2.7-1.6v1.6c-.1.2-.1.3-.2.3zm-38.8-38.1c1.1.8 2.2.8 3.3 0 .2 1.1-.3 1.7-1.4 1.9-1.3 0-1.9-.5-1.9-1.9zm29.5 0c1.1.6 2.2.8 3.3 0 .2 1.1-.5 1.6-1.3 1.6-1.2.3-2-.2-2-1.6z" class="st19"></path><path d="M487.4 410c-.6 1.7-2.2 2.9-4.1 3.5 1.2-1.3 2.2-2.9 4.1-3.5zm-20.5-13.4c.3-.8.5-1.9 1.9-1 .8.5.6 1.1 0 1.4-.8.6-1.6.6-1.9-.4z" class="st63"></path><path d="M466.9 396.6c.6.3 1.1.6 1.7.2.5-.3.2-.8 0-1.1 1.3.2 1 .8.6 1.4-.3.6-1 .8-1.7.6-.3-.1-1.6-.1-.6-1.1z" class="st64"></path><path d="m460.5 408.7.3-.3 4.8.8c-1.9.1-3.5 0-5.1-.5zm18.6-1.1v.5c-1.3.5-2.7 1-4.6.8l4.6-1.3z" class="st19"></path><path d="M473.7 305.1c-2.7-.8-5.6-.2-8.4-.2s-5.2-1.1-6.7-3.3c-.8-1.1-.3-1.9 1.3-2.1 1.7-.2 3.5-.2 5.1.6 3.3 1.6 6.7 1.6 9.8 0 1.6-.8 3.3-.6 5.1-.5 1.4.2 1.9 1 1.1 2.1-1.6 2.3-4.1 3.3-7.3 3.4z" class="st64"></path><path d="M465.5 311.2c2.9-.5 5.7-.5 8.4 0-2.8.6-5.7.6-8.4 0z" class="st67"></path><path d="M497.7 301.8c0-1.7-.3-2.4-.5-4.1 0-.3.2-1 .2-1.4 0 0 .2-.2 0-.2-.2-1.3 0-4.1 0-4.9.3-2.9-1.4-5.7-.2-8.7 1-2.1 1-4.6 1-7l-1.3 5.1c-.5 2.1-1.4 4-.8 6.4.6 2.9.3 6 .6 9.1 0 1.1.2 2.4.3 3.5.3 3.5.3 7.1-.6 10.6-.3 1.3-1.3 2.4-2.7 2.7-1.1.3-2.7.2-2.7-1.1 0-1.1 0-1.7-.2-2.7v-5.9c.2-.2.3-1.7.3-1.9.2-1.3.2-1.7.2-3 0-.6.5-1.9.5-2.4.5-2.9.5-4.6.8-7.5.8-6.2 1.3-11.9 1.3-18.4 0-1.9-.3-2.5-.5-4-.5-2.7-.8-5.2-1.4-7.9-.2-1-.3-1-.8-2.7.5 2.1.8 2.9.8 3.5.3 2.5-.2 4-.8 6.4-.5 1.6-1.9 1.6-3.8 1.4-.6 0-1.3-.2-1.7-.3-5.6-1-11.1-1.3-16.8-1.1-5.2.2-10.3.5-15.4 1.6-1.9.5-3.5.6-3.8-1-.5-2.2-1-5.2-.5-7.6.2-1 .3-1.7.8-2.9-.5.8-.8 1.7-1 2.5-.5 2.5-.8 3.7-1 6.2 0 1.6-.2 2.7-.3 4.8-.2.5-.6 1.4-.6 2.9 0 3 .2 4.8.5 7.8.5 3.8 1 7.9 1.3 11.8.3 3.8.3 7.3.6 11.3.2 2.2.3 5.2 0 7.5-.2.6-.5 6.2-.6 7 0 .5-.2 1.1-.2 1.6l-1.6 10.6c-.2 1 0 2.1 1 2.9 1.6 1.3 3.2 2.2 5.4 2.5-4.1-1.4-5.2-4-4.4-7.8 1.7-8.7 2.5-17.6 1.9-26.5-.5-6-1-12.2-1.9-18.1-.3-1.6 0-2.5 2.1-2.9 2.9-.5 5.7-1.3 8.6-1.9 4.3-.8 4.9-.5 4.8 3.3 0 .5 0 1-.2 1.4-.2 2.4-.5 4.8-.6 7.3.8-.6.8-1.3.8-1.9.8-4 1.4-7.9 2.4-12.1.5-2.2.6-4.6 2.1-6.7 1-1.3 1.6-1.3 2.5 0 1 1.6 1.3 3.2 1.7 4.9l2.4 12.1v-6.4c0-2.4.6-2.9 3.3-2.5 3.6.5 7.2 1.1 10.8 1.9 2.7.5 2.5.6 2.4 2.9l-1.7 16.5c0 1.3-.2 2.2-.3 3.2v5.7c0 6.5 1.1 13 2.1 19.5.5 3.2-.2 5.9-4 7.3 4-.5 6.4-2.9 5.9-6-.5-3.7-1.1-7.3-1.6-11-.2-1.1-1.1-3.5.3-3.5 1.9 0 2.2.3 3.5-1 1.1-1.1 1.3-1.6 1.4-2.7.2-1.7.6-2.7.5-4.6-.6-.9-.6-2.1-.6-3.4zm-18.6 8.3c-.3-.2-.5-.2-.8-.3-.6-.2-1.3-.2-1.9-.3-5.9-1-11.6-.8-17 1.1 5.4-.8 10.8-.6 16.2-.5.2.1.5.2.8.2l3 .5c.5 0 .8 0 1.1-.3-.3-.6-.7-.6-1.4-.4z" class="st64"></path><path d="M295.2 376c-1-6.4-1.6-12.7-1.7-19.1 0-5.7 2.9-10.3 8.1-12.2 11 5.2 22.1 5.1 33.2.3 4.6 1.9 7.5 6.4 7.1 11.1-.3 5.4-.5 10.8-1.3 16.2 0 .3-1 6.5-1.1 7 0 .3-.3 1-.5 1.3-1.1 2.5-1.4 5.4-3.2 8.3-.3-4-.8-7.3.3-10.8 1-3.3.8-7 1.6-10.5-1.9 4-3.5 7.5-8.7 8.1.6.3.8.5 1.1.6 4 1.6 3.8 1.6 3.8 5.9l-.3 14.3c0 3.5-1 6.7-3.2 9.4-1.1 1.3-2.7 2.2-4 3.3 3-.5 5.1-2.4 7.3-4.3 1.3 5.2-1.4 9.7-6.7 10.6-6.2 1.1-12.5 1.1-18.9 0-4.8-.8-7.1-4-7.1-8.7 0-.6-.3-1.3.3-1.6.6-.3 1 .5 1.4 1 1.6 1.6 3.5 2.5 5.7 3.2-1-1-2.1-1.6-3-2.5-3.2-3-3.8-7-4-11.1-.2-5.1.3-10.3-.5-15.4-.3-1.6.3-2.2 1.4-2.7 1.1-.5 2.4-.6 3.5-1.6-5.1-.6-7.3-4.1-8.7-8.4.2 7.3 4 14.1 1.9 21.8-1.6-3-1.9-6.4-3.3-9.2 0-.3 0-.5-.2-.8.2-.5 0-.8-.3-1.3 0-.3-.2-.8-.2-1.1.5-.5.3-.8.2-1.1zm20.9 22.9c-.2 1.4.2 1.9 1 1.7.8 0 1.1-.5.8-1.6-.5 1-1.1 1.1-1.8-.1zm22.6-32.6c-.2 0-.2 0 0 0-.2 0-.2.2 0 0-.2.2-.2.2 0 0zm-29.1 43.2c-.2 0-.2-.2-.3-.2 0 0-.2 0-.2.2.2 0 .4.2.5 0 0 .2 0 0 0 0z" class="st62"></path><path d="M296 380c1.4 2.9 1.6 6.2 3.3 9.2 2.1-7.6-1.6-14.5-1.9-21.8 1.4 4.1 3.7 7.6 8.7 8.4-1.1 1.1-2.4 1.1-3.5 1.6-1.1.6-1.7 1.3-1.4 2.7.8 5.1.3 10.3.5 15.4 0 4.1.8 8.1 4 11.1 1 1 2.1 1.6 3 2.5-2.2-.5-4.1-1.6-5.7-3.2-.3-.3-.6-1.3-1.4-1-.6.3-.3 1.1-.3 1.6 0 4.8 2.5 7.9 7.1 8.7 6.3 1.1 12.7 1.1 18.9 0 5.1-1 7.8-5.4 6.7-10.6-2.2 1.9-4.3 3.8-7.3 4.3 1.3-1.1 2.9-1.9 4-3.3 2.2-2.7 3.2-5.9 3.2-9.4 0-4.8.2-9.5.3-14.3.2-4.3.2-4.3-3.8-5.9-.3-.2-.5-.3-1.1-.6 5.1-.6 6.8-4.1 8.7-8.1-.6 3.5-.5 7-1.6 10.5-1 3.5-.6 6.8-.3 10.8 1.7-2.9 2.1-5.7 3.2-8.3.3 2.4-.5 4.8-1.3 6.8-2.1 5.6-1.9 11.3-1.6 17.2 0 .8.2 1.6.2 2.4 0 6-3.3 9.7-9.2 10.3-6 .6-12.1.8-18.1 0-7.3-.8-10.6-5.1-9.8-12.5.3-2.4 0-4.9.2-7.3.2-5.4-1.9-10.2-3-15.2-.7-.1-1.2-1.1-.7-2z" class="st64"></path><path d="m341.9 299.7.2 5.7v1.4c-.2 1.1-1.9 2.5-2.9 2.2-1.1-.3-.6-1.4-.6-2.2.3-8.8 1.1-17.6 2.4-26.4.5-4 .2-7.9.2-11.8v-1.9l1.7.5c3.3.5 3.3.5 2.7 3.8l-2.7 15.2c-.1.4-.9 9.9-1 13.5zm-47.7-33.8c-.6 9.1.3 17.6 1.3 26.4.5 4.4.6 8.9 1 13.3 0 .8.6 2.4-1.1 2.2-1.4 0-2.9-.6-2.9-2.4 0-1.6.2-3.2.2-4.8 0-1.7 0-3.5-.3-5.4-.2-.8-.8-11.8-.8-12.2-.8-7.5-1.4-9.1-2.1-13.7-.5-3.2-.5-3.2 2.9-3.5h1.8v.1z" style="fill:#848ea0;stroke:#020303;stroke-width:.433;stroke-miterlimit:10"></path><path d="M295.5 378.1c.3.3.5.8.3 1.3-.5-.4-.6-.9-.3-1.3zm-.3-2.1c.2.3.3.5.2.8-.4-.2-.5-.3-.2-.8z" class="st69"></path><path d="M316.1 398.9c.6 1.4 1.3 1.1 1.9.3.3 1 0 1.4-.8 1.6-.7-.2-1.2-.7-1.1-1.9z" class="st64"></path><path d="M309.6 409.5s0 .2 0 0c-.3.2-.3 0-.5 0l.2-.2c.2 0 .2.2.3.2z" class="st69"></path><path d="m322.8 285-.6-8.3c1.6 3.3 2.9 6.5 7 7.5 3.8.8 7 .3 10.2-2.9l-1.3 12.5c-1.1 9.4-1.1 18.7.3 28.3.5 3.2.6 6.4 1.1 9.4.3 2.1-.5 3.2-2.2 4.1-3.2 1.7-6.7 2.5-10.2 3-8.1 1.1-16.2 1.1-24.1-1h-.2c-6.7-1.9-7.6-3-6.5-9.8 2.2-12.4 2.2-24.6.6-37-.3-2.9-.8-5.9-1.3-9.4 3 2.7 6.2 3.5 9.8 2.9 4.1-.8 5.7-3.7 7-7.1.3 5.1-.8 9.8-1 15.1.8-.8.8-1.6 1-2.4 1-4.9 1.3-10 2.7-14.9.5-1.4.6-3.5 2.4-3.5 1.9-.2 2.1 2.1 2.7 3.5 1.1 3.3 1.3 6.8 2.1 10.2.6 2.9 1.1 5.7 1.4 8.7-.4-3.2-.7-5.9-.9-8.9zm-6.2 27.9c3.5 0 7-.5 10.3-1.6.6-.2 1.4-.5 1.9-1.1s1.1-1.3.8-2.1c-.2-1-1.1-1.1-1.9-1.1-2.7-.5-5.1 0-7.5 1.3-1.9 1.1-3.8 1.1-5.7-.2-1.9-1.3-4.1-1.4-6.2-1.3-1.1.2-2.7 0-3 1.4-.3 1.4 1 2.4 2.2 2.9.8.3 1.6.6 2.4.8 2.3.5 4.5.9 6.7 1zm12.3 6.4c-4.9-3.2-20.8-3-24.9.5 8.2-1.8 16.4-1.8 24.9-.5zm-17.4.8c3.7.6 7.1.6 10.8 0-3.6-.5-7.1-.7-10.8 0zm6.1-64.8h19.2c1.6 0 2.2.5 2.5 2.1.6 3.8.8 7.6.2 11.4-.3 1.6-1 2.2-2.7 1.6-12.7-3.8-25.3-3.8-38 0-2.4.6-2.7.5-3-2.1-.5-3.8-.3-7.6.3-11.4.3-1.4 1-1.7 2.2-1.7 6.4.1 12.8.1 19.3.1z" class="st63"></path><path d="M338.9 315.9c-.2-1.7-.5-2.5-.5-4.8 0-1.9.3-4 .3-4.8.3-8.9 1-17.3 2.2-26.1.5-4 .2-7.9.2-11.8v-1.9c-.6-2.1-.5-4-.6-6.2 0-1.6-.3-3.8-.5-5.1-.2-1.9-1.7-2.4-3-2.4-14.8.5-23.5.8-38.3 0-3-.2-3.5 2.7-3.8 4-.5 2.9-.8 5.9-1 8.9-1.1 8.9.5 17.8 1.3 26.5.5 4.4.6 8.7 1 13.2 0 .8.3.3.3 2.1 0 1.4-.2 2.7-.2 3.5 0 1.1-.2 2.1-.3 3.2-.2 5.6-1.3 11.1-2.2 16.7-.5 3.2 0 4.3 2.9 5.7 1.9 1 3.8 1.6 5.9 2.1 1.3.3 2.4.3 2.4 2.2 0 1.6-.3 2.7-2.1 2.9-.6.2-1.1.3-1.6.8 11 5.2 22.1 5.1 33.2.3-.6-.6-1.4-1-2.2-1.3-.6-.2-1-.6-1.3-1.3-.6-2.2.2-3.8 2.4-4.4.8-.2 1.6-.5 2.2-.6 4.1-1.1 5.6-3.3 4.9-7.5-.5-5-1-8.5-1.6-13.9zM296 257c.3-1.4 1-1.7 2.2-1.7h38.6c1.6 0 2.2.5 2.5 2.1.6 3.8.8 7.6.2 11.4-.3 1.6-1 2.2-2.7 1.6-12.7-3.8-25.3-3.8-38 0-2.4.6-2.7.5-3-2.1-.8-3.7-.6-7.5.2-11.3zm41.1 78.6c-3.2 1.7-6.7 2.5-10.2 3-8.1 1.1-16.2 1.1-24.1-1h-.2c-6.7-1.9-7.6-3-6.5-9.8 2.2-12.4 2.2-24.6.6-37-.3-2.9-.8-5.9-1.3-9.4 3 2.7 6.2 3.5 9.8 2.9 4.1-.8 5.7-3.7 7-7.1.3 5.1-.8 9.8-1 15.1.8-.8.8-1.6 1-2.4 1-4.9 1.3-10 2.7-14.9.5-1.4.6-3.5 2.4-3.5 1.9-.2 2.1 2.1 2.7 3.5 1.1 3.3 1.3 6.8 2.1 10.2h.6c-.2-2.7-.5-5.4-.6-8.3 1.6 3.3 2.9 6.5 7 7.5 3.8.8 7 .3 10.2-2.9L338 294c-1.1 9.4-1.1 18.7.3 28.3.5 3.2.6 6.4 1.1 9.4.3 1.7-.7 3-2.3 3.9z" class="st64"></path><path d="m323.6 293.7-.8-8.7h-.6l1.4 8.7zm-7 19.2c-2.2 0-4.4-.5-6.7-1-.8-.2-1.6-.5-2.4-.8-1.3-.6-2.5-1.4-2.2-2.9.3-1.3 1.9-1.3 3-1.4 2.2-.2 4.3 0 6.2 1.3 1.9 1.3 3.8 1.3 5.7.2 2.4-1.3 4.8-1.7 7.5-1.3.8.2 1.6.3 1.9 1.1.2.8-.3 1.4-.8 2.1s-1.1.8-1.9 1.1c-3.3 1.2-6.8 1.6-10.3 1.6zm12.3 6.4c-8.3-1.3-16.7-1.3-24.9.5 4-3.4 19.8-3.7 24.9-.5z" class="st64"></path><path d="M311.5 320.1c3.5-.8 7.1-.5 10.8 0-3.5.6-7.1.8-10.8 0z" class="st69"></path><path d="M193.7 346c5.6 2.4 8.4 6.5 8.1 12.9-.2 5.9-.8 11.9-1.7 17.3 0 .3-1 4.3-1 4.6-1.4 3.2-2.1 6.8-3.8 9.8-.5-4-1-7.8.3-11.6 1.3-3.5 1.7-7.5 2.5-11.1-1.1 1.9-1.6 3.8-2.4 5.9-1.6 4.6-3.2 9.1-8.9 10.3 1 1 1.9 1.1 2.7 1.3 2.1.6 3.3 1.7 3 4.3-.3 2.7 0 5.6-.2 8.4 0 3.4-1.1 6.7-3.3 9.4-1.9 1.9-4.3 3-6.5 4.1 2.7-.3 5.2-1.1 7.3-2.9.5-.3.8-.6 1.3-1 .5-.3.8-1.1 1.4-.8.6.3.3 1.1.3 1.6 0 1.3-.2 2.4-.3 3.5-.3.3-.5.6-.6 1.1-1.7 2.5-4.3 3.8-7.3 4.4-2.7.6-5.4.3-8.1.6-1.7 0-3.5-.2-5.2-.2-4 0-8.1 0-11.8-1.9-2.4-1.3-3.3-3.5-4-6 0-1-.2-1.7-.2-2.7 0-.3.2-.6.2-.8 1 0 1.4.8 2.1 1.3 1.7 1.4 3.5 2.5 5.9 2.7-2.2-1.6-4.4-3.3-5.9-5.9-1.7-4-1.3-8.1-1.6-12.2-.3-4.3.6-7.3 5.2-8.3.2 0 .2-.2.3-.5-7.9-2.2-7.5-10-10.3-15.9.3 7.9 4.8 14.9 2.2 23-1.7-3.3-2.2-7-3.8-10.2 0-.3-.3-1.4-.5-1.9-1.9-6.7-2.2-14.1-2.4-21.4-.2-5.6 4.4-11 9.5-11.8.3.6 1 .6 1.6 1 6.2 2.1 12.5 3.3 19.2 3 6-.3 11.3-1.8 16.7-3.4zm-21.5 55.9s-.1 0 0 0c.3 1.1 1 1.7 2.1 1.4 1-.3 1.3-1 .8-2.1-.6 1.8-2.2.7-2.9.7zm-11.7-24.2c1.3 2.1 1.7 2.1 3 0-1.1.2-2.1.2-3 0zm25.4-.1c.3.6.5 1 .6 1.1.5.5 1.1.8 1.7.3.3-.3.8-.6.6-1.1-.3-.8-1.1.2-1.6-.2-.2 0-.5 0-1.3-.1z" class="st63"></path><path d="M193.7 346c1.4.6 2.9 1.4 4.1 2.5 1.3 1 2.2 2.4 2.9 3.8.6 1.4 1.1 3 1.1 4.6.2 1.6 0 3.2 0 4.8l-1 9.5-.6 4.8-1 4.8c-1.4 3.2-1.9 6.8-3.8 9.8l-.3.5v-.5c-.3-1.9-.5-3.8-.5-5.9 0-1.9.2-4 .8-5.7 1.3-3.7 1.7-7.5 2.5-11.3l.3.2c-1.6 3-2.2 6.5-3.7 9.7-.6 1.6-1.6 3.2-2.9 4.3-.6.6-1.4 1.1-2.2 1.4-.8.5-1.6.6-2.5.8l.2-.3c.3.5.8.6 1.3.8l1.6.5c.6.2 1.1.5 1.6.8s1 1 1.1 1.4c.2.6.3 1.3.3 1.7l-.2 1.7v3.5c0 2.2.2 4.6-.3 7-.5 2.2-1.6 4.4-3 6.2-1.9 1.9-4.3 3-6.7 4.1l-.2-.5c2.5-.3 5.2-1.1 7.1-2.9l1-.6c.3-.2.5-.3.8-.6.2-.2.3-.3.5-.3.2-.2.5-.2.8 0 .2 0 .5.3.6.5.2.2.2.5.2.6 0 .5 0 .8-.2 1.1l-.2 1.1-.2 2.2v.2c-.3.2-.5.5-.5 1v.2c-.8 1.1-1.9 2.2-3.2 2.9-1.3.8-2.5 1.3-4 1.6-2.9.6-5.7.5-8.4.8l-6.2-.2c-2.1 0-4.1-.2-6.2-.5-1-.2-2.1-.5-3-.8-.5-.2-1-.3-1.4-.6-.5-.2-1-.5-1.4-.8-1.7-1.4-2.5-3.5-3-5.6l-.2-2.7v-1.4h.3c.5 0 1 .2 1.3.5l.8.8c.2.2.5.5.8.6.3.2.6.5 1 .6 1.3.8 2.7 1.3 4.1 1.4l-.2.6c-2.2-1.6-4.4-3.5-5.9-5.9-.8-1.9-1.3-4-1.3-5.9l-.3-6c-.2-1.9-.3-4.1.8-6 .5-1 1.3-1.7 2.2-2.1.5-.2 1-.5 1.4-.6.3 0 .5-.2.8-.2h.2c-.2 0 0 0 0 0 0-.2.2-.2.2-.3l.2.5-1.3-.5c-.5-.2-.8-.3-1.1-.5-.3-.2-.8-.5-1.1-.6-.3-.2-.6-.5-1-.8-.3-.3-.6-.6-.8-1-.3-.3-.5-.6-.8-1.1-.5-.8-.8-1.4-1.1-2.2-.6-1.6-1.1-3.2-1.6-4.8-.3-.8-.5-1.6-.8-2.4l-1-2.2.5-.2c0 1 .2 1.9.3 2.9l.5 2.9 1.3 5.7c.5 1.9.8 3.8.8 5.9 0 1 0 1.9-.2 3l-.6 2.9-.2.5-.3-.5c-1.7-3.2-2.2-7-3.7-10.2l-.5-2.4c-.2-.8-.5-1.6-.6-2.4l-.8-4.9c-.5-3.3-.6-6.7-.6-10v-5.1l.6-2.5c.3-.8.6-1.6 1.1-2.2 1.7-2.9 4.6-5.1 7.9-5.7h.2c.3.6 1.3.8 2.1 1 .8.3 1.4.5 2.2.6 1.6.5 3 .8 4.6 1.1 3 .6 6.2 1.1 9.4 1.1s6.4-.3 9.4-1l9-2.6zm0 0-9.1 2.5c-3 .6-6.2 1.1-9.4 1.1s-6.4-.3-9.4-1l-4.6-1.1c-.8-.2-1.6-.5-2.2-.6-.6-.3-1.6-.3-2.2-1.1h.2c-3.3.6-6 2.9-7.8 5.6-.5.6-.8 1.4-1.1 2.2-.3.8-.5 1.6-.6 2.4-.2.8-.2 1.6 0 2.5v2.5l.6 10c.2 1.6.5 3.3.8 4.9.2.8.3 1.6.6 2.4.2.8.3 1.6.6 2.4 1.6 3.3 2.1 7 3.8 10.2h-.5l.6-2.9c.2-1 .2-1.9.2-2.9 0-1.9-.3-3.8-.8-5.7l-1.3-5.7-.5-2.9c-.2-1-.2-1.9-.3-2.9v-1.3l.5 1.3 1 2.4c.3.8.5 1.6.8 2.4l1.6 4.8c.3.8.6 1.4 1.1 2.2.3.3.5.6.6 1 .3.3.5.6.8 1 .3.3.6.6 1 .8.3.2.6.5 1 .6.3.2.6.3 1.1.5l1.1.5.3.2-.3.6s0 .2-.3.2h-.2c-.2 0-.5.2-.6.2l-1.3.5c-.8.5-1.6 1.1-2.1 1.9-1 1.7-.8 3.7-.6 5.7l.3 6c.2 1.9.5 4 1.3 5.7 1.4 2.4 3.5 4.1 5.7 5.7l1 .6H164c-1.6-.2-3-.6-4.4-1.4-.3-.2-.6-.5-1-.6-.3-.3-.6-.5-1-.8-.5-.6-1-1.1-1.6-1.1l.3-.3-.2.8.2 2.7c.5 1.9 1.3 4 2.9 5.1.3.3.8.6 1.3.8s1 .5 1.4.6c1 .3 1.9.6 2.9.8 2 .3 4 .5 6 .5l6.2.2c2.9-.3 5.7-.2 8.3-.8 1.3-.3 2.7-.8 3.8-1.4 1.1-.6 2.2-1.6 3-2.7v.2c0-.5.3-1 .6-1.3l-.2.2.2-2.2.2-1.1c0-.3.2-.8.2-1.1 0-.3 0-.5-.3-.6-.2-.2-.3 0-.6.3l-.5.5-1.4 1c-1 1-2.2 1.6-3.5 2.1-1.3.5-2.5.8-4 1l-1.6.3 1.4-.8c2.4-1.1 4.8-2.2 6.5-4.1 1.4-1.7 2.5-3.8 3-6s.3-4.4.3-6.8v-3.5c0-1.1.3-2.4-.2-3.3-.3-1-1.4-1.6-2.4-2.1l-1.6-.5c-.6-.2-1.1-.5-1.6-1l-.3-.3.3-.2c.8-.2 1.6-.5 2.4-.8.8-.3 1.4-.8 2.1-1.4 1.3-1.1 2.1-2.5 2.9-4.1 1.4-3.2 2.1-6.5 3.8-9.7l.6-1.1-.3 1.3c-.8 3.8-1.3 7.6-2.5 11.3-.6 1.7-.8 3.8-.8 5.7s.3 3.8.5 5.7h-.3c1.7-3 2.4-6.5 3.8-9.8l1-4.8.8-4.8 1-9.5c.2-1.6.2-3.2.2-4.8-.2-1.6-.5-3.2-1.1-4.6s-1.6-2.7-2.9-3.8c-1.3-1.9-2.7-2.7-4.1-3.3zm-21.5 55.9c-.1.1 0 .1 0 0 0 .6.3 1 .8 1.3.3.2.8.2 1.3 0 .2 0 .3-.2.5-.3l.3-.3c.2-.3 0-.8-.2-1.1h.5c-.2.3-.3.5-.6.8-.3.2-.6.3-1 .3-.5-.2-.9-.7-1.6-.7zm0 0c.3 0 .6.2.8.2.3 0 .6.2.8 0 .6 0 .8-.5 1-1l.2-.8.3.8c.2.5.5 1 .2 1.6-.2.3-.3.6-.6.6-.3.2-.5.2-.8.3-.5 0-1.1 0-1.4-.3-.1-.3-.3-.8-.5-1.4-.1.1-.1.1 0 0zm-11.7-24.2.8.8c.3.3.6.5.8.5s.5-.2.6-.5l.6-1 .3.5c-1.1.2-2.2.1-3.1-.3zm0 0c1 0 1.9 0 2.9-.3l.8-.3-.3.6c-.2.3-.3.6-.6 1l-.5.5c-.2.2-.4.3-.6.3-.3 0-.5-.2-.6-.3-.2-.2-.3-.3-.3-.5-.5-.3-.7-.6-.8-1zm25.4-.1s.2.2.2.3c.2.2.3.5.5.6.2.2.3.2.5.3.2 0 .3.2.5.2.3 0 .8-.3 1-.5.2-.2.2-.3.2-.3-.2-.2 0-.2-.2-.2s-.3.2-.6.2-.6-.2-.6-.2c-.3-.2-.6-.2-.8-.3-.5-.1-.7-.1-.7-.1zm0 0h1.3c.3 0 .3.2.5 0 .2 0 .3-.2.6-.3h.5c.2 0 .2.2.3.2 0 .2 0 .2.2.2.2.3 0 .8-.2 1.1-.5.5-1 .8-1.6.8-.3 0-.5-.2-.8-.3l-.5-.5c-.2-.3-.2-.6-.3-1v-.2z" class="st64"></path><path d="M206.1 293.9c0 3.7.5 7.1 1.1 10.8.5 3-2.4 5.9-5.6 5.1-1.3-.3-1-1.4-.8-2.2 0-4 .5-7.8.8-11.8.6-6.8 2.2-13.5 2.4-20.5.2-2.9-.2-5.9-.3-8.9 3 0 3.2 0 3 3.2-.3 5.9-.8 11.8-.8 17.6 0 1 .2 3.3.2 3.5-.2.9 0 2.1 0 3.2z" class="st62"></path><path d="M145.2 265.3c1 2.1-.2 4.1.2 6.2v2.7c-.5 5.1 1 10 1.6 15.1.6 5.7 1.4 11.4 1.6 17.2 0 1.7-.3 2.4-2.2 1.9-3.2-1-3.7-1.6-3.3-4.9.3-2.7 1-5.6.5-8.4 0-1.3.5-5.9.5-7 0-2.9-.2-5.8-.5-8.7-.1-2.5-.2-5.1-.3-7.6 0-.5-.3-2.7-.5-3.3-.6-2.4.2-3.4 2.4-3.2z" class="st63"></path><path d="M145.2 265.3c.5 1 .5 2.1.3 3.2s-.3 2.1 0 3.2v2.9c-.3 4.3.6 8.6 1.3 12.7l1.6 12.7.5 6.5c0 .5 0 1.1-.2 1.7-.2.3-.3.6-.6.8s-.6.2-1 .2c-.6 0-1.1-.3-1.6-.5s-1.1-.3-1.6-.6-1-.8-1.1-1.4c-.2-.6-.2-1.1-.2-1.7 0-1.1.2-2.2.3-3.2.3-2.1.6-4.3.3-6.4l.3-4 .2-2.1v-1.9l-.5-7.9-.2-4v-2.1c0-.6 0-1.3-.2-1.9l-.2-1.9c0-.6-.2-1.3-.2-2.1 0-.6.3-1.4 1-1.7.6-.5 1.2-.5 1.8-.5zm0 0c-.6 0-1.4 0-1.9.3-.6.3-.8 1.1-.8 1.7 0 .6.2 1.3.3 1.9l.3 1.9c.2.6.2 1.3.2 2.1l.2 2.1.2 4 .5 7.9v1.9l-.2 2.1-.2 4c.3 2.2 0 4.4-.3 6.5-.2 1.1-.3 2.1-.3 3.2s.2 2.1 1.1 2.5c.8.5 1.9.8 2.9 1 .5 0 .8 0 1-.5.2-.5.2-1 .2-1.4 0-2.1-.2-4.3-.5-6.4l-.6-6.4-.8-6.4c-.6-4.3-1.6-8.6-1.1-12.9v-2.7c-.2-1.1 0-2.1.2-3.2.1-1.2.1-2.3-.4-3.2zM197.7 386.5c.5-1.6 1.1-3.7 1.4-5.9-1.4 3.2-2.1 6.8-3.8 9.8-.5-4-1-7.8.3-11.6 1.3-3.5 1.7-7.5 2.5-11.1-1.1 1.9-1.6 3.8-2.4 5.9-1.6 4.6-3.2 9.1-8.9 10.3 1 1 1.9 1.1 2.7 1.3 2.1.6 3.3 1.7 3 4.3-.3 2.7 0 5.6-.2 8.4 0 3.4-1.1 6.7-3.3 9.4.2.5.5.8.6 1.3.5-.3.8-.6 1.3-1 .5-.3.8-1.1 1.4-.8.6.3.3 1.1.3 1.6 0 1.3-.2 2.4-.3 3.5-.3.3-.5.6-.6 1.1-1.7 2.5-4.3 3.8-7.3 4.4-2.7.6-5.4.3-8.1.6-1.7 0-3.5-.2-5.2-.2-4 0-8.1 0-11.8-1.9-.3-.2-.6-.3-.8-.5-.8-.6-1.4-1.4-1.6-1.6-.6-.8-1.1-1.9-1.1-2.1l-.6-1.9c0-1.1-.2-1.7-.2-2.7 0-.3.2-.6.2-.8 1 0 1.4.8 2.1 1.3 1.7 1.4 3.5 2.5 5.9 2.7-2.2-1.6-4.4-3.3-5.9-5.9-1.7-4-1.3-8.1-1.6-12.2-.3-4.3.6-7.3 5.2-8.3.2 0 .2-.2.3-.5-7.9-2.2-7.5-10-10.3-15.9.3 7.9 4.8 14.9 2.2 23-1.7-3.3-2.2-7-3.8-10.2.8 2.7.8 3.5 1.3 5.2 1.4 4.8 2.5 9.1 2.5 14.1 0 3 .2 4.4-.2 7.3 0 .2 0 2.9.5 3.7 0 .2.5 1.9.8 2.4.2.3 1.3 2.2 1.9 2.9.2.2 1 1 2.9 1.9.2.2.3.5.5.6 5.6 1.1 11.1 1.1 16.7 1 4.9.2 9.8-.6 14.6-1.7l.5-1 1-1c1-.2 1.3-1.3 1.9-1.7v-1.7c.8-.6.6-1.6.8-2.5.5-2.7-.6-5.2-.5-7.8.8-5.2 1.7-10.3 3.2-15.5z" class="st64"></path><path d="M190 408.4c-.2-.5-.5-.8-.6-1.3-1.9 1.9-4.3 3-6.5 4.1 2.5-.3 5.1-.9 7.1-2.8zm-29.5-30.7c1 .2 1.9.3 3 0-1.3 1.9-1.7 1.9-3 0zm25.4-.1c.8.2 1.1.2 1.4.3.5.2 1.3-.6 1.6.2.2.5-.2.8-.6 1.1-.6.5-1.3.3-1.7-.3l-.7-1.3zm-10.6 23.6c.5 1.3.2 1.9-.8 2.1-1.1.3-1.7-.3-2.2-1.4-.1.1 2.2 1.1 3-.7z" class="st64"></path><path d="M149.2 281.6c3.2 2.4 6.5 3.2 10.5 1.9 3.8-1.3 6-4.1 8.1-7.9 1.1 6.8 1.1 13 1.6 19.4 1-4.6 1-9.2 1.1-13.8.2-3 .3-5.9 1.3-8.7.6-1.6 1.4-3.3 3.3-3.2 1.7.2 2.9 1.6 3.3 3.3 1.4 4.6 1.1 9.4 1.4 14 .2 3.2.2 6.4.8 9.5.8-6.5.5-13.3 1.6-20.5 2.1 3.8 4.3 6.8 8.1 8.1 4 1.4 7.3-.2 10.8-2.5.3 1.3 0 2.2-.2 3.2-1.3 9.5-2.9 19.1-2.1 28.8.5 5.2 1.4 10.5 2.5 15.7.5 2.2 0 4-1.9 5.4-5.2 4.4-11.6 6.5-18.3 7.6-10.5 1.7-20.3.2-29.4-5.6-1-.6-1.7-1.3-2.5-1.9-2.1-1.6-2.4-3.5-1.7-5.9 3.7-13.2 2.9-26.4 1-39.7-.3-2.1-.6-4-1.1-6 .1-1.5.7-1.5 1.8-1.2zm32.4 28.3c.5.2 1.1.3 1.3.3h1.7c1.1-.2 2.4 0 2.5-1.3.2-1.4-.8-2.2-2.1-2.7-1.7-.8-3.7-.5-5.2.3-3.5 1.6-6.8 1.6-10.3 0-1.4-.6-3.1-.8-4.6-.5-1.4.3-2.4 1.3-2.4 2.7s1.4 1.4 2.5 1.6c.5 0 1 .2 1.4 0 7.6-1.7 9.2-1.5 15.2-.4zm-17.9 11.6c7.6-.8 15.2-.8 22.9 0-7.7-2.7-15.3-2.5-22.9 0zm6.2 1.1c3.7.8 7.3 1.1 11 0-3.7-.9-7.4-.8-11 0zm3.3-67c1.4-.2 1.7.3 2.7.2l23.2-.3c1.9 0 2.7.6 2.9 2.5.5 3.2.6 6.5 0 9.7-.5 2.5-1.1 2.9-3.7 2.2-11.6-2.9-23.5-3.3-35.4-2.1-1.9.2-3.8.6-5.6.8-.3 0-.6 0-1 .3-2.1.2-4 .8-5.9 1.4-.8 0-1.4 0-2.2-.5-1.4-4.4-1.3-8.9-.2-13.3.3-1.1 1-1.6 2.1-1.4 2.4.2 4.6.2 7 .2 1.1 0 2.2 0 3.2.2h4.1c1 0 1.7.2 2.7.2 2.1 0 4-.1 6.1-.1z" class="st63"></path><path d="m191.3 417.9.5-1-.5 1z" class="st19"></path><path d="m208.1 306.1-1.3-6.7-.8-5.6c0 3.7.5 7.1 1.1 10.8.5 3-2.4 5.9-5.6 5.1-1.3-.3-1-1.4-.8-2.2 0-4 .5-7.8.8-11.8.6-6.8 2.2-13.5 2.4-20.5.2-2.9-.2-5.9-.3-8.9-.2-3-.5-6.1-1-9.1-.2-.8-.2-4.4-4.8-4.3-6 .2-14.3.3-20.2.2-.8 1.1-1 1.4-1.7 2.5l23.2-.3c1.9 0 2.7.6 2.9 2.5.5 3.2.6 6.5 0 9.7-.5 2.5-1.1 2.9-3.7 2.2-11.6-2.9-23.5-3.3-35.4-2.1-1.9.2-3.8.6-5.6.8-.3 0-.6 0-1 .3-2.1.2-4 .8-5.9 1.4-.8 0-1.4 0-2.2-.5-1.4-4.4-1.3-8.9-.2-13.3.3-1.1 1-1.6 2.1-1.4 2.4.2 4.6.2 7 .2 1.1 0 2.2 0 3.2.2h4.1c1 0 1.7.2 2.7.2h5.9c1.7 0 1.7.3 2.7.2.8-1.1 1-1.4 1.7-2.5-1 0-2.2 0-3-.2-3-.2-7-.2-8.1-.2-2.2-.2-4.8-.2-7-.2-2.7-.2-5.2 0-7.8-.2-3-.2-4.4 2.7-4.8 3.5-.8 3-.5 6.2-1.6 9.1 1 2.1-.2 4.1.2 6.2v2.7c-.5 5.1 1 10 1.6 15.1.6 5.7 1.4 11.4 1.6 17.2 0 1.7-.3 2.4-2.2 1.9-3.2-1-3.7-1.6-3.3-4.9.3-2.7 1-5.6.5-8.4-.3 1.1-1.6 6.7-2.2 9.1-.8 4-.3 4.8 3.5 5.9.5.2 1 .3 1.6.3 1.9.2 2.2 1.3 2.1 3-.5 5.1-1.4 10-2.7 14.9-1 3.3.2 5.6 2.7 7.5 2.9 2.2 6 4 9.5 5.2 1 .3 2.1.5 2.1 1.9 0 1.3-1.1 1.3-1.7 1.7-.5.2-1 .6-1.3.8.3.6 1 .6 1.6 1 6.2 2.1 12.5 3.3 19.2 3 5.6-.3 10.8-1.9 16.2-3.5-.6-1-1.7-.8-2.5-1.3-1-.5-2.4-.3-2.4-1.7 0-1.3 1.3-1.3 2.1-1.7 3.8-1.6 7.5-3.3 10.6-6 1.9-1.6 2.9-3.5 2.2-6.2-1.1-4.9-2.1-9.8-2.7-14.8-.2-1.4 0-2.2 1.6-2.5 1.3-.2 2.7-.6 4-1.3.8-.2 1.6-1.8 1.1-4zm-6.5 22.6c.5 2.2 0 4-1.9 5.4-5.2 4.4-11.6 6.5-18.3 7.6-10.5 1.7-20.3.2-29.4-5.6-1-.6-1.7-1.3-2.5-1.9-2.1-1.6-2.4-3.5-1.7-5.9 3.7-13.2 2.9-26.4 1-39.7-.3-2.1-.6-4-1.1-6-.3-1.3.3-1.4 1.3-1.1v-.6.6h.2c3.2 2.4 6.5 3.2 10.5 1.9 3.8-1.3 6-4.1 8.1-7.9 1.1 6.8 1.1 13 1.6 19.4 1-4.6 1-9.2 1.1-13.8.2-3 .3-5.9 1.3-8.7.6-1.6 1.4-3.3 3.3-3.2 1.7.2 2.9 1.6 3.3 3.3 1.4 4.6 1.1 9.4 1.4 14 .2 3.2.2 6.4.8 9.5.8-6.5.5-13.3 1.6-20.5 2.1 3.8 4.3 6.8 8.1 8.1 4 1.4 7.3-.2 10.8-2.5.3 1.3 0 2.2-.2 3.2-1.3 9.5-2.9 19.1-2.1 28.8.7 5.1 1.7 10.3 2.8 15.6zM180 309.6c-5.4-1-7.9-.5-13.3.6-.5.2-1 .2-1.4 0-1.1-.2-2.5-.2-2.5-1.6s1-2.4 2.4-2.7c1.5-.3 3.2-.2 4.6.5 3.5 1.4 6.8 1.6 10.3 0 1.6-.8 3.5-1.3 5.2-.3 1.1.5 2.2 1.4 2.1 2.7-.2 1.3-1.6 1.3-2.5 1.3H183c-.3.1-1.1-.2-3-.5zm-16.3 11.9c7.6-2.5 15.2-2.7 22.9 0-7.7-.8-15.3-.8-22.9 0z" class="st64"></path><path d="M169.9 322.6c3.7-.8 7.3-1 11 0-3.7 1.1-7.4.8-11 0z" class="st70"></path><path d="M89.2 357.6c-.2-.2-.5-.3-.6-.5-.3-.5-.6-.6-1.1-.6-.5-.3-1-.5-1.4-.8-2.1-1.9-4.3-3.7-6-5.7-1.9-2.4-2.9-4.9-2.4-8.3 1.3-8.4 2.4-16.8 2.4-25.4 0-11-1-21.9-2.4-32.9-.2-1.6.2-2.1 1.9-2.2 4.6-.3 9.1-1.4 12.5-4.8.5-.3.8-1.1 1.4-.8.6.3.5 1.1.5 1.6.2 4.8-.2 9.7-.5 14.5 0 .5-.6 1.1.2 1.7.8-2.9 1.1-5.7 1.6-8.6.8-5.2 1.4-10.3 3.2-15.4.3-1 .8-2.1 1.7-2.1 1.1 0 1.4 1.1 1.9 1.9.2.5.3 1.1.5 1.6.6 2.7 1.3 5.4 1.7 8.1.8 4.4 1.1 9.1 2.4 13.3 0-2.2-.2-4.3-.3-6.4-.2-2.9-.3-5.9-.2-8.7 0-.5.2-1.1.6-1.4.3-.2.6.2 1 .3 4 4 9.1 5.1 14.5 5.2 1.3 0 1.7.3 1.6 1.7l-1.3 12.9c-.6 7.1-1.1 14.3-1 21.4.2 8.6 1.6 17 2.4 25.4.2 2.2-.3 4-1.6 5.7-2.1 3-2.5 4.6-7.6 7.3-1.3.6-3 1.6-4.3 2.2-4.6 1.6-9.2 2.7-14.1 1.7-2.6-.3-4.9-1.3-7.2-1.9z" class="st62"></path><path d="M81.1 384.7c-.6-4.4-1.1-8.9-1.1-13.5s2.2-7.9 6.7-9.7c8.7 4.3 17.3 4.3 26.2.3 4 1.3 6.5 5.7 6.2 9.4-.3 4.8-.6 9.8-1.3 14.5 0 .5-.3 1.4-.5 1.7-1.1 2.9-1.4 6-3.2 9.2-.2-2.9-.6-5.2.2-7.8.6-1.9 1-3.8 1.4-5.6.5-1.6.5-3.2.6-5.1-1 1.7-1.4 3.3-1.6 5.1-1.4 4.1-2.7 8.1-2.5 12.5v6.7c.2 4.3-1.3 7.9-5.6 10.6 2.7-.3 4.1-1.9 5.7-3.2 1 4.9-1.7 8.3-6.8 8.7-4.1.5-8.3.5-12.4 0-1.3-.2-2.5-.5-3.8-1.1-2.7-1.4-4-4.8-3-7.5 3.3 2.7 3.8 2.9 5.6 3.2-4-3.3-4.9-4.6-5.4-8.4-.2-1.6-.2-3.2-.2-4.6.6-6.8-1-13.3-3-19.9 0-.2-.2-.6-.6-.5.5 2.7 1 5.6 1.6 8.3.8 4 .8 6.4 0 8.3-1.3-2.4-1.6-5.1-2.7-7.6 0-.2-.2-1-.2-1.4-.2-.5-.3-1.1-.3-1.6v-1zm18.9 19.9c-.2-.6-.5-1-1.1-.8-.5 0-1 .3-1 1 0 .6.5 1 1.1 1 .5-.1 1-.4 1-1.2zM90.9 380c-.5-.5-.8-.2-1.1-.2-.3 0-.8-.3-1.1 0 .8 1.4 1.1 1.4 2.2.2z" class="st63"></path><path d="M81.1 384.7c-.6-4.3-1.1-8.6-1.1-13 0-2.2.3-4.4 1.6-6.2 1.1-1.9 3-3.2 5.1-4 1 .5 2.1 1 3.2 1.3s2.1.8 3.2 1c1.1.3 2.2.5 3.3.6l3.3.3 3.3-.2 3.3-.6 3.3-1c1.1-.3 2.1-.8 3.2-1.3 3.2 1.1 5.4 3.8 6.2 7 .2.8.3 1.6.2 2.4l-.5 7.1-.5 4.8c-.2 1.6-.3 3.2-.8 4.8-1 3-1.4 6.2-3 9.1l-.5.8v-.8c0-1.6-.3-3.2-.3-4.8 0-.8 0-1.6.2-2.4.2-.8.5-1.6.6-2.2l1.1-4.6c.3-1.4.3-3 .5-4.6l.5.2c-.8 1.6-1.4 3.2-1.6 4.9-.8 2.5-1.7 5.1-2.1 7.6l-.3 4v7.9c0 1.4-.2 2.7-.6 4.1-.5 1.3-1.1 2.5-2.1 3.7-1 1.1-1.9 1.9-3.2 2.7l-.2-.6c1.1-.2 2.1-.5 3-1.1 1-.6 1.7-1.3 2.5-2.1l.3-.3v.5c.2.8.2 1.6.2 2.4 0 .8-.2 1.6-.5 2.4-.6 1.6-1.9 2.7-3.3 3.3-1.4.6-3.2 1-4.8 1-1.6.2-3.2.2-4.8.2s-3.2-.2-4.8-.2c-.8 0-1.6-.2-2.4-.3-.8-.2-1.6-.5-2.2-.8-.8-.3-1.4-.8-2.1-1.3-.6-.6-1.1-1.3-1.4-2.1-.6-1.4-1-3.2-.3-4.8l.2-.3.2.2c.8.6 1.6 1.4 2.5 1.9.5.3 1 .6 1.4.8s1 .3 1.6.3l-.2.3c-1.1-1-2.4-1.9-3.3-3-1-1.1-1.6-2.5-1.9-4.1-.3-1.4-.3-3-.3-4.4l.2-4.4c0-3-.3-6-1-8.9l-1.1-4.4-1-3.3c0-.2-.2-.3-.2-.5s-.3-.2-.5-.2v-.2l1.6 8.3c.3 1.4.5 2.7.6 4.1 0 1.4 0 2.9-.6 4.1-1.3-2.4-1.6-5.1-2.7-7.6-.2-.6-.2-1.3-.3-1.9.2-.3.1-.9.1-1.6zm0 0c.2.6.2 1.3.3 1.9.2.6.2 1.3.3 1.9 1 2.5 1.4 5.2 2.7 7.6.6-1.3.6-2.7.6-4.1l-.6-4.1-1.6-8.3c.2 0 .5 0 .6.2.2.2.2.3.2.5l1 3.3c.5 1.4.8 2.9 1.1 4.4.6 3 1.1 5.9 1.1 8.9l-.2 4.4c0 1.4.2 3 .3 4.4.3 1.4.8 2.9 1.9 4 1 1.1 2.1 2.1 3.3 3l.5.3h-.5c-.5 0-1.1-.2-1.6-.3s-1-.5-1.4-.8c-1-.6-1.7-1.3-2.5-1.9l.3-.2c-.5 1.4-.3 3 .3 4.4.3.6.8 1.3 1.3 1.9.5.5 1.3 1 1.9 1.3.6.3 1.4.6 2.2.6.8.2 1.6.2 2.4.3 1.6.2 3.2.2 4.8.2l4.8-.2c1.6-.2 3.2-.3 4.4-1 1.4-.6 2.5-1.7 3.2-3.2.3-.6.5-1.4.5-2.2s0-1.6-.2-2.2l.5.2c-.8.6-1.6 1.4-2.5 2.1-1 .6-2.1 1-3.2 1.1l-1.4.2 1.1-.8c1.1-.6 2.1-1.6 3-2.5.8-1 1.4-2.2 1.9-3.3.3-1.3.5-2.5.5-3.8V395c0-1.4.2-2.7.3-4 .5-2.7 1.3-5.2 2.2-7.8.2-1.7.8-3.5 1.6-5.1l.8-1.6-.3 1.7c-.2 1.6-.2 3.2-.6 4.6l-1.1 4.6c-.2.8-.5 1.6-.6 2.2-.2.8-.2 1.6-.2 2.2 0 1.6.2 3.2.3 4.6l-.5-.2c1.6-2.7 2.1-5.9 3-9.1.5-1.4.6-3 .8-4.6l.5-4.8.5-7.1c0-.8 0-1.6-.2-2.4-.6-3-2.9-5.9-5.9-6.8h.2L110 363l-3.3 1c-1.1.3-2.2.5-3.3.5-1.1.2-2.2.2-3.3.2-1.1 0-2.2-.2-3.3-.3l-3.3-.6-3.2-1-3.2-1.3c-1.9.8-3.8 2.1-5.1 4-1.3 1.7-1.6 4-1.6 6.2-.4 4.3 0 8.6.7 13zm18.9 19.9s-.2-.5-.6-.6c-.2 0-.5 0-.8.2-.3.2-.3.3-.3.6s.2.5.5.6c.3 0 .6.2.8 0 .4-.3.4-.8.4-.8zm0 0v.3c0 .2 0 .5-.3.8-.3.2-.6.3-1.1.3-.5-.2-1-.6-1-1.1 0-.2 0-.5.2-.8.2-.3.5-.3.6-.5.5-.2.8 0 1.1.2.3.2.5.5.5.6v.2zM90.9 380c-.2-.2-.3-.2-.5-.2s-.3.2-.5.3h-1v-.5c.2.2.3.4.3.6l.3.3c.2 0 .3-.2.5-.2.4 0 .8-.2.9-.3zm0 0c-.2.3-.3.5-.5.6-.2.2-.3.5-.8.5-.2 0-.5 0-.5-.2l-.3-.3c-.2-.2-.3-.5-.5-.6l-.2-.3.2-.2c.2-.2.6-.2.8-.2.2 0 .2 0 .3.2h.3c.2 0 .3-.2.6 0 .3.1.6.3.6.5zm24-24.2c2.7-2.2 5.4-4.4 7.5-7.3 1.3-1.7 1.7-3.5 1.6-5.7-.8-8.4-2.2-17-2.4-25.4-.2-7.1.3-14.3 1-21.4l1.3-12.9c.2-1.4-.3-1.7-1.6-1.7-5.4-.2-10.5-1.3-14.5-5.2-.3-.3-.5-.6-1-.3s-.6 1-.6 1.4c-.2 2.9-.2 5.9.2 8.7.2 2.1.3 4.3.3 6.4-1.1-4.4-1.4-8.9-2.4-13.3-.5-2.7-1.1-5.4-1.7-8.1-.2-.5-.3-1.1-.5-1.6-.5-.8-.8-2.1-1.9-1.9-1 0-1.4 1.1-1.7 2.1-1.7 5.1-2.4 10.2-3.2 15.4-.5 2.9-.8 5.7-1.6 8.6-.8-.6-.3-1.1-.2-1.7.3-4.8.6-9.7.5-14.5 0-.6.2-1.3-.5-1.6-.6-.3-1 .5-1.4.8-3.5 3.3-7.9 4.4-12.5 4.8-1.7.2-2.1.6-1.9 2.2 1.4 11 2.4 21.8 2.4 32.9 0 8.6-1 17-2.4 25.4-.5 3.3.5 5.9 2.4 8.3 1.7 2.2 4 3.8 6 5.7-1.4.2-2.2-1-3.2-1.7-2.4-1.9-4.6-4.1-6.4-6.8-.8-1.4-1.3-2.9-1-4.4 1.1-6.8 1.9-13.5 2.5-20.5.2-1.9.3-6.4.2-7.3-.2-10.2-1-20.3-2.1-30.3-1.3-9.8-.5-19.5.5-29.2 0-1.1.2-2.1.6-3 .3-.8 1-1.3 1.7-1.1-.8.8-1.1 1.9-1.1 3-.3 3.8-.2 7.6.8 11.3.5 1.6 1.1 1.9 2.7 1.6 12.9-3.3 25.9-3.2 38.8-.2 1.4.3 2.1 0 2.5-1.3 1.3-4.8 1.9-9.4.3-14.3 1.9.6 1.1 2.5 1.9 3.8.2 3 .5 5.9.6 8.9 1.1 11.3-.6 22.6-1.6 33.7-.5 6.2-1 12.2-.8 18.4 0 2.2.2 4.1.5 8.1.5 5.9 1.3 11.8 2.2 17.6.6 4-1.6 6.7-4.1 9.2-2.1 1.4-3.8 3.6-6.7 4.4z" class="st64"></path><path d="M123 251.5c1.7 4.8 1 9.5-.3 14.3-.3 1.3-1.1 1.6-2.5 1.3-12.9-2.9-25.9-3-38.8.2-1.6.5-2.2 0-2.7-1.6-1.1-3.8-1.1-7.5-.8-11.3.2-1.1.5-2.1 1.1-3 8.9-1.1 17.8-1 26.8-1 4.9 0 9.8.2 14.8.6.8 0 1.6.3 2.4.5z" class="st62"></path><path d="M76.8 255.3c-1 9.7-1.7 19.5-.5 29.2 1.3 10 2.1 20.2 2.1 30.3 0 1 .5 2.2-1.3 2.7-3.2 1-3.5.8-3.7-2.5-.2-4.3-.5-8.7-.3-13 0-.3-.2-.8 0-1.1 2.2-3.3 0-6.5 0-9.8-.2-8.6-1.4-17-1.4-25.6 0-2.2.2-4.4.2-6.8.7-3.1 1.9-3.9 4.9-3.4z" class="st63"></path><path d="m76.8 255.3-1 15.7.2 7.8.8 7.8 1.4 15.7.5 11.9c0 .6 0 1.3.2 1.9 0 .3-.2.8-.3 1.1-.3.3-.6.5-1 .6l-1.9.5c-.3 0-.6.2-1.1 0s-.8-.5-1-.8c-.3-1.4-.3-2.7-.3-4l-.2-7.9v-4.4c0-.2.2-.5.2-.6.2-.3.3-.6.5-.8.2-.6.5-1.1.5-1.7.2-2.5-1.3-5.1-1.1-7.8l-1-15.7-.3-7.9.3-7.9.5-1.6c.2-.5.5-1.1 1-1.4.5-.3 1.1-.5 1.6-.6.2-.1.8.1 1.5.1zm0 0c-1.1-.2-2.4-.3-3.3.5-.8.8-1.1 1.9-1.4 3l-.2 7.8.5 7.8 1.1 15.7c-.2 2.5 1.1 5.1 1.1 7.8 0 .7-.2 1.4-.5 2.1l-.5 1c-.2.2-.2.2-.2.3v4.4l.3 7.8c.2 1.3 0 2.7.3 3.8.2.3.2.5.5.5h.8l1.9-.5c.6-.2 1-.6.8-1.1 0-.6-.2-1.3 0-1.9l-.5-11.8-1.3-15.7-.8-7.8c-.2-2.7-.2-5.2 0-7.9.3-5.3.7-10.6 1.4-15.8z" class="st64"></path><path d="M128.9 258.1c1 8.7-.2 17.5-.6 26.1-.2 3-.5 6-.6 9.1 0 1.4 0 2.9-.8 4.1-.3.5-.5 1.1 0 1.4 1.3 1.1 1 2.5 1 3.8l-.2 13.5c0 1 0 2.1-1.4 1.9-1.1-.2-3 .2-3-1.9-.2-6.2.3-12.2.8-18.4 1-11.3 2.7-22.4 1.6-33.7-.3-3-.5-5.9-.6-8.9 2.5.2 3 .6 3.8 3z" class="st63"></path><path d="M128.9 258.1c.6 5.2.5 10.6.2 15.9l-1 15.9-.2 4c0 1.3-.2 2.9-1 4-.2.2-.2.5-.2.6 0 .2 0 .2.2.2l.3.3c.5.6.8 1.4.8 2.1V317c0 .3-.2.8-.5 1.3-.5.5-1 .5-1.4.3-.6-.2-1.3 0-2.1-.3-.3-.2-.8-.3-1.1-.8-.3-.3-.5-.8-.5-1.3v-6l.5-7.9 1.6-15.7c.6-5.2 1-10.5 1-15.7 0-2.7-.2-5.2-.3-7.9l-.5-7.9v-.2h.2c1 .2 1.9.2 2.7.6.5.3.6.6.8 1.1.1.4.3 1 .5 1.5zm0 0c-.3-1-.5-1.9-1.3-2.4s-1.7-.5-2.7-.6l.6 7.9c.2 2.7.5 5.2.5 7.9 0 5.2-.3 10.6-.8 15.9l-1.4 15.7-.5 7.9v5.9c0 .6.5 1.3 1.1 1.4.6.2 1.3.2 1.9.3.3 0 .6 0 1-.2.2-.2.3-.5.3-.8 0-1.3 0-2.7.2-4l.2-7.9v-4c0-.6-.2-1.3-.6-1.7-.2-.3-.5-.5-.6-.8 0-.3 0-.6.2-1 .8-1.1.8-2.5 1-3.8l.2-4 1.1-15.9c-.1-5.1.1-10.5-.4-15.8zM113 361.7c-8.9 3.8-17.8 4-26.5-.3.2-.2.5-.5.6-.5 2.1-.3 2.4-1.6 2.1-3.5 2.4.6 4.6 1.6 7 2.1 4.9 1 9.5-.2 14.1-1.7-.6 2.3 1.1 3.1 2.7 3.9zm-12.7-45.9c-1.6-.2-3.3 0-4.9-.2-2.2-.3-4.1-1.4-5.6-3.2-.5-.6-.8-1.3-1-2.1-.2-2.2.5-2.7 2.5-2.1 1.5.6 3 1.4 4.3 2.4 2.9 2.2 6 2.2 9.1-.2 1.4-1.1 3.2-1.9 4.9-2.5 1.4-.5 2.1.2 2.1 1.6 0 1.1-.3 1.9-1 2.9-1.7 2.1-4.1 3.2-6.8 3.3h-3.6v.1zm12.5 6.2c-8.3-1.1-16.5-1.1-24.8-.2 8.3-3 16.6-3 24.8.2z" class="st64"></path><path d="M96.2 322.5c2.7-.5 5.4-.5 8.4-.2-1.8 1-6.5 1.1-8.4.2z" class="st70"></path><path d="M100 404.6c0 .6-.5 1-1 1-.6 0-1-.3-1.1-1 0-.6.3-.8 1-1 .6.2.9.5 1.1 1zm17.3-17c-1.1 2.9-1.4 6-3.2 9.2-.2-2.9-.6-5.2.2-7.8.6-1.9 1-3.7 1.4-5.7l.8-4.9-1.6 5.1c-1.4 4.1-2.7 8.1-2.5 12.5v6.7c.2 4.3-1.3 7.9-5.6 10.6 2.7-.3 4.1-1.9 5.7-3.2 1 4.9-1.7 8.3-6.8 8.7-4.1.5-8.3.5-12.4 0-1.3-.2-2.5-.5-3.8-1.1-2.7-1.4-4-4.8-3-7.5 3.3 2.7 3.8 2.9 5.6 3.2-4-3.3-4.9-4.6-5.4-8.4-.2-1.6-.2-3.2-.2-4.6.6-6.8-1-13.3-3-19.9 0-.2-.2-.6-.6-.5.5 2.7 1 5.6 1.6 8.3.8 4 .8 6.4 0 8.3-1.3-2.4-1.6-5.1-2.7-7.6-.2 2.5.6 4.8 1.3 7.1.8 2.4 1.3 4.9 1.3 7.5.2 2.9 0 5.6 0 8.4-.2 4.8 2.1 7.3 6.7 8.3 5.4 1 10.8 1 16.2.2 5.2-.8 7.1-3.2 7.1-8.6v-2.4c-.2-4.4-.2-9.1 1.4-13.3.8-3.1.8-5.8 1.5-8.6zM90.9 380c-1.1 1.3-1.4 1.3-2.2-.2.3-.3.8.2 1.1 0 .3.2.6-.2 1.1.2zm16.7 0c-1.1 1.3-1.4 1.3-2.2-.2.3-.3.8.2 1.1 0 .5.2.8-.2 1.1.2z" class="st64"></path><path d="M418.8 370.4c0 .6-.2 1.7-.3 2.5-1.3 4.3-2.2 8.7-4.4 13.5l-.5-7.6c-.2-1 .2-1.4.6-2.1l2.7-12.2c-1.6 3.5-2.5 7.1-4.6 10.3-.3.6-.5.8-1.3 1.3-1.6 1-3.3 1.9-5.7 2.4l4.8 1.9c1.1.5 2.1 1.3 1.9 2.7l-.5 13.8c-.2 4-1.9 7.1-5.2 9.4-.3.2-1 .3-.8 1.1 2.5-.5 4.3-2.4 6.2-4 .8 4.8-.3 8.6-3.8 9.8-8.6 3-17.3 3.2-25.7-.2-3.2-1.3-4.6-6.2-3.2-9.5 1.7 1.7 3.3 3.5 6 3.7-4.3-2.9-6-7-6.2-11.9v-7.8c0-6.5 0-6.5 6.4-9.1-6.8-1.3-8.6-6.8-10.5-12.2.2 6.5 3.5 12.5 1.7 19.7-.6-1.6-1.1-2.4-1.4-3.5l-2.4-7.6c0-.5-1-4.8-1-5.4-.6-5.1-1-10.3-1.1-15.4-.2-5.6 3-10.3 8.4-12.2 2.9 1.7 6.2 2.4 9.4 3 8.1 1.7 16 .6 23.7-2.7 3.7.3 7.3 5.1 7.9 9.1.2 1 .2 2.1.3 3.2.2 1.3.2 2.1 0 4l-1.4 12zm-9.9 2.6c0-.8-.5-.6-1-.6s-1.3-.3-1.4.5c-.2.6.5 1 1.1 1.1.5-.2 1-.6 1.3-1zm-24.1-.8h-2.9c1.1 1.9 1.6 1.9 2.9 0zm18.2 36.2c.6.2 1.1.2 1.4-.5l-.2-.3c-.5 0-1 .2-1.2.8zm-1.2.3c-.2 0-.3-.2-.5 0-.2 0-.3.2 0 .3h.2c-.1-.1.1-.3.3-.3z" class="st63"></path><path d="m418.8 370.4-.3 2.1c0 .6-.3 1.3-.5 2.1l-1.1 4c-.8 2.7-1.6 5.4-2.9 7.9v.2-.2l-.5-7.6v-1.1l.5-1 2.7-12.2h.2c-1.6 3.3-2.4 7.1-4.6 10.3-.2.3-.3.6-.6.8-.3.2-.5.5-.8.6l-1.7 1c-1.3.6-2.5 1.1-3.8 1.3v-.2l4.1 1.6c.6.3 1.4.5 1.9 1.1.6.5.8 1.4.8 2.1l-.5 13.2c0 1.4-.3 3-.8 4.3-.5 1.4-1.3 2.7-2.2 3.8L407 406c-.3.2-.6.5-1 .6-.3.2-.5.3-.3.8l-.2-.2c1.3-.3 2.4-.8 3.3-1.6l2.9-2.4.3-.2v.3c.3 2.1.3 4.1-.3 6.2-.3 1-.8 1.9-1.6 2.7-.8.8-1.7 1.3-2.7 1.4-3.8 1.3-7.9 2.1-12.1 2.1-4.1 0-8.3-.6-12.1-2.1-1-.3-2.1-.6-2.7-1.4-.8-.8-1.3-1.7-1.7-2.7-.6-1.9-.8-4.1 0-6.2l.2-.5.3.3c.8.8 1.7 1.7 2.7 2.4 1 .6 2.1 1.1 3.2 1.3l-.2.6c-2.4-1.6-4.4-4-5.4-6.8-.5-1.4-.8-2.9-1-4.3s0-2.9 0-4.3v-4.3l.2-4.3c0-.8.3-1.4.6-2.2.5-.6 1.1-1.1 1.7-1.4l4-1.7v.6c-.6-.2-1.4-.3-2.1-.6l-1.9-1c-.3-.2-.6-.5-1-.6-.3-.2-.5-.5-.8-.8-.5-.5-1-1.1-1.4-1.6-1.7-2.4-2.5-5.1-3.5-7.8l.5-.2c0 3.3 1 6.5 1.6 9.8.3 1.6.5 3.3.6 4.9 0 .8 0 1.7-.2 2.5l-.5 2.5-.2.6-.3-.6-1.1-2.7c-.5-1-.6-1.9-1-2.7l-1.7-5.6-.8-4.6c-.3-1.4-.3-3-.6-4.6l-.8-11.4c0-.8 0-1.6.2-2.4.2-1.6.6-3 1.4-4.4 1.4-2.7 4.1-4.8 7-5.7 2.4 1.4 5.2 2.2 7.9 2.9 2.7.6 5.6 1.1 8.4 1.1 2.9 0 5.7-.2 8.4-.8 2.7-.6 5.4-1.6 8.1-2.7 1.3.2 2.5.8 3.7 1.7l1.4 1.4c.5.5.8 1.1 1.1 1.6.6 1.1 1.3 2.4 1.6 3.7.3 1.3.3 2.7.5 4 .2 1.3.2 2.7 0 4l-.5 4-.3 7.8zm0 0 1.4-11.9c.2-1.3.2-2.7 0-4-.2-1.3-.2-2.7-.5-4-.3-1.3-1-2.5-1.6-3.7l-1.1-1.6-1.4-1.4c-1-.8-2.2-1.4-3.5-1.6-2.5 1.1-5.2 2.1-8.1 2.7-2.7.6-5.6 1-8.4.8-2.9 0-5.7-.5-8.4-1.1-2.7-.6-5.6-1.3-8.1-2.9h.2c-2.9 1-5.4 3-6.8 5.7-.8 1.3-1.1 2.9-1.4 4.3-.2.8-.2 1.6-.2 2.2l.2 2.2.6 9.2.6 4.6.8 4.4 1.7 5.6c.3 1 .5 1.9 1 2.7l1.1 2.7h-.5l.5-2.4c0-.8.2-1.6.2-2.4 0-1.6-.3-3.3-.6-4.9-.6-3.2-1.6-6.5-1.6-9.8v-1.7l.6 1.6c1 2.7 1.9 5.4 3.5 7.6.5.6.8 1.1 1.4 1.6.3.2.5.5.8.6.3.2.5.5.8.6l1.9 1c.6.3 1.3.5 2.1.6l1 .2-1 .3c-1.3.5-2.7 1.1-3.8 1.7-.6.3-1.1.8-1.6 1.3-.3.5-.5 1.3-.6 1.9-.2 1.4-.2 2.9-.2 4.3v8.6c.2 1.4.3 2.9.8 4.1 1 2.7 2.9 4.9 5.1 6.5l1 .6-1.3-.2c-1.3-.2-2.5-.6-3.5-1.4l-2.7-2.4.5-.2c-.6 1.7-.6 4 0 5.7.3 1 .8 1.7 1.6 2.5.6.6 1.6 1.1 2.5 1.4 3.8 1.4 7.8 2.1 11.9 2.1 4 0 8.1-.8 11.9-2.1 1-.3 1.9-.6 2.5-1.4.6-.6 1.3-1.6 1.6-2.5.6-1.9.6-4 .3-5.9l.3.2-2.9 2.4c-1 .8-2.2 1.3-3.5 1.6h-.2v-.8l.5-.5c.3-.2.6-.5 1-.6.6-.5 1.1-1 1.6-1.4 1-1.1 1.7-2.4 2.2-3.7.5-1.4.8-2.9.8-4.3l.5-13.2c0-.6-.2-1.4-.6-1.9s-1.1-.8-1.9-1.1l-4.1-1.6-.3-.2h.5c1.3-.2 2.5-.6 3.8-1.3l1.7-1c.3-.2.6-.3.8-.6.3-.2.5-.5.5-.8 2.2-3.2 3-6.8 4.6-10.3l.3-.6-.2.6-2.7 12.2-.5 1c-.2.3-.2.6 0 1.1l.5 7.6c1.3-2.5 2.1-5.2 2.9-7.9l1.1-4c.2-.6.5-1.3.5-2.1l-.4-1.2zm-9.9 2.6v-.3c0-.2-.2-.3-.5-.3s-.6.2-1.1.2c-.2 0-.3 0-.3.2v.3c0 .2.2.5.5.6.3.2.6.2 1 .2.3 0 .5-.3.5-.5-.2-.4-.1-.4-.1-.4zm0 0s0 .5-.6.8c-.3.2-.6.3-1.1.2-.2 0-.5-.2-.6-.3-.2-.2-.3-.5-.3-.8 0-.2 0-.5.3-.8.3-.2.6-.2.8-.2.5.2.6.2 1 .3.2 0 .3 0 .5.2s.2.2.2.3v.3zm-24.1-.8c-1 .2-1.9.3-2.9.3l.3-.5.6.8c.2.3.5.5.5.5.2 0 .5-.2.6-.5l.9-.6zm0 0-.5 1c-.2.2-.2.3-.3.5-.2.2-.3.3-.6.3s-.5-.2-.6-.3l-.5-.5c-.3-.3-.5-.6-.6-1l-.3-.5h.5c1 .2 1.9.2 2.9.5zm18.2 36.2s.3 0 .5-.2c.2 0 .3-.2.3-.2l.2-.2v-.2.2h-.2c-.2 0-.3 0-.5.2l-.3.4zm0 0s0-.3.2-.6c.2-.2.3-.3.6-.5h.6c.2 0 .2 0 .2.2l.2.2v.5s0 .2-.2.2l-.3.3c-.3.2-.5.2-.6.2-.5-.3-.7-.5-.7-.5zm-1.2.3s-.2.2-.3.2h-.2c.2 0 .2-.3 0-.3h-.2.2c.3.1.5.1.5.1zm0 0v.5c0 .2-.3.2-.3.2-.2 0-.3 0-.5-.3-.2-.2-.2-.5 0-.5.2-.2.2-.2.3-.2h.2s.2 0 .2.2l.1.1z" class="st64"></path><path d="M423.2 254.2c-.2 2.9.3 5.6-.2 8.4-.5 3.3-1.1 3.8-4.3 3-15.7-3.5-31.6-3.7-47.2.5-2.1.6-3-.2-3.3-2.2-.6-3.5-.5-7.1.2-10.6.3-1.6 1-2.1 2.5-2.1 16.5.6 32.9.5 49.4.2 1.4 0 2.2.6 2.9 1.7v1.1zm3.3 38.9-.2 8.9c0 1.3 0 2.4-1.4 3-2.5 1.3-3.3.8-3.2-1.9.3-9.2 1.7-18.4 3-27.6.6-4.3 0-8.7-.2-13 6 0 6 .2 4.9 5.7-1.1 5.9-2.2 11.6-2.5 17.6 0 .6-.4 5-.4 7.3z" class="st63"></path><path d="m426.5 293.1-.2 7.3v1.9c0 .6 0 1.3-.3 1.7-.3.6-1 1-1.4 1.1-.6.3-1.1.5-1.7.5-.3 0-.6-.2-.8-.5-.2-.3-.3-.6-.3-1-.2-.6 0-1.3 0-1.9l.2-3.7.6-7.3 2.4-18.3c.2-1.3.2-2.4 0-3.7l-.3-7.3v-.3h2.5c.8 0 1.4 0 2.2.3.3.2.8.3 1 .8.2.3.3.8.3 1.1 0 .8-.2 1.6-.3 2.2l-1.6 8.7-1.3 8.7-.3 4.4-.7 5.3zm0 0 .2-4.4.3-4.4 1.1-8.7 1.4-8.7c.2-.8.2-1.4.2-2.2 0-.8-.3-1.3-1-1.4-.6-.2-1.4-.2-2.1-.3h-2.2l.3-.3.5 7.3v3.7c0 1.3-.3 2.4-.5 3.7l-2.1 14.5-.8 7.3c-.2 1.3-.2 2.4-.2 3.7v1.7c0 .6.3 1.3 1 1.3.6 0 1.1-.3 1.7-.5.6-.1 1.2-.5 1.4-1.1.6-1.1.3-2.4.5-3.7l.3-7.5z" class="st64"></path><path d="M366.3 261.3c-1.4 11 1.3 21.8 2.2 32.6.2 2.7.5 5.4.6 8.3 0 .8 1 2.5-.8 2.4-1.6 0-3.3-.5-3.5-2.5-.2-1.7.2-3.3.2-5.1 0-2.9.2-5.7 0-8.7-.3-7.3-1.7-14.6-3-21.9-.9-4.8-.9-4.8 4.3-5.1z" class="st63"></path><path d="M366.3 261.3s0 .3-.2 1.1c-.2.6-.2 1.7-.2 3v4.6c0 1.7.3 3.8.5 6l1.9 14.9.8 8.4.2 2.2c0 .3 0 .8.2 1.1 0 .3.2.6.2 1.1 0 .2 0 .5-.2.6-.2.3-.3.3-.6.5h-1.3c-.8 0-1.6-.3-2.2-.8-.6-.5-1.1-1.4-1.1-2.2v-2.2c.2-1.4.2-2.9.2-4.3V287c-.3-5.4-1.1-10.5-1.7-14.9l-1-5.9c-.2-1-.3-1.7-.3-2.5 0-.3 0-.8.2-1.1.2-.3.5-.6.8-.6 1.3-.5 2.2-.3 3-.5.4-.2.8-.2.8-.2zm0 0s-.3 0-1.1.2c-.6.2-1.7 0-2.9.5-.3.1-.5.4-.6.6-.2.3-.2.6-.2 1.1 0 .8.2 1.6.3 2.4l1.1 5.9c.8 4.3 1.6 9.4 1.9 14.9l.2 8.4v4.4c0 1.4-.3 3 .8 3.8.5.3 1.1.6 1.9.6h1c.3 0 .3-.2.3-.5s-.2-.6-.2-1c-.2-.5-.2-.8-.2-1.1l-.2-2.2-.6-8.4-1.7-14.9-.3-6 .2-4.6.3-3c-.1-.8 0-1.1 0-1.1z" class="st64"></path><path d="M379.4 187.6c.3.3.3.6.2 1.1-.4-.3-.4-.8-.2-1.1z" class="st69"></path><path d="M418.3 373.1c-1.3 4.3-2.2 8.7-4.4 13.5l-.5-7.6c0-1 .3-1.3.6-2.1l2.7-12.2c-1.6 3.5-2.5 7.1-4.6 10.3-.2.6-.7 1-1.3 1.3-1.6 1-3.3 1.9-5.7 2.4l4.8 1.9c1.1.5 2.1 1.3 1.9 2.7l-.5 13.8c-.2 4-1.9 7.1-5.2 9.4-.3.2-1 .3-.8 1.1 2.5-.5 4.3-2.4 6.2-4 .8 4.8-.3 8.6-3.8 9.8-8.6 3-17.3 3.2-25.7-.2-3.2-1.3-4.6-6.2-3.2-9.5 1.7 1.7 3.3 3.5 6 3.7-4.3-2.9-6-7-6.2-11.9v-7.8c0-6.5 0-6.5 6.4-9.1-6.8-1.3-8.6-6.8-10.5-12.2.2 6.5 3.5 12.5 1.7 19.7-.6-1.6-1.1-2.4-1.4-3.5l-2.4-7.6c-.3 4 1 7.6 2.1 11.3 1.7 5.6 1.9 11.3 1.4 17-.8 8.1 2.4 12.4 10.3 13.3 5.9.6 11.9.5 17.9 0 4-.3 7.6-1.7 9.2-6 1-2.9.8-5.7.6-8.6-.2-5.1 0-10.2 1.3-15.2 2-5.9 3.2-11.9 3.1-13.7zm-9.4-.1c-.2.6-.6 1-1.3.8-.6 0-1.1-.5-1.1-1v-.1c.2-.8.8-.5 1.4-.5.4 0 1 0 1 .8zm-24.1-.8c-1.3 1.9-1.6 2.1-2.9 0h2.9zm18.2 36.2c.3-.6.6-.8 1.3-.8.2 0 .3.2.2.3-.4.6-.8.6-1.5.5zm-1.2.3-.3.3h-.2c-.2-.2-.2-.3 0-.3 0-.2.1 0 .5 0z" class="st64"></path><path d="M402.1 282.7c.2-3.5-.6-7 0-10.6 1.4.8 2.2 2.2 3.2 3.2 4.1 4.1 8.9 6.7 14.9 6.4 1.7-.2 1.6.6 1.6 1.7l-1.4 11.8c-1.3 10.3.3 20.5 2.1 30.7.8 5.1.5 6-4.4 7.6-8.1 2.7-16.7 3.2-25.1 3-5.7-.2-11.4-.6-17-2.2-1-.3-2.1-.6-3-1-4.4-1.6-5.2-2.7-4.1-7.1 3.3-14 3-27.8.8-41.9-.5-2.9-.5-2.7 2.4-2.7 5.6.3 10.2-2.1 14.1-5.9 1.3-1.1 2.2-2.5 3.7-4.1.5 6.5-.3 12.5-.3 18.6.8-1.7.8-3.7 1-5.6.5-4.9.8-10 1.9-14.9.5-2.2 1.3-4.6 3.8-4.8 2.5 0 3.3 2.5 3.8 4.6 1.1 4.3 1.4 8.6 1.7 13l.5 6.4.5 3.5c.6-1.1.5-2.2.3-3.3-.7-2.1-.9-4.1-1-6.4zm-14.5 18.9c0 .2 0 .2 0 0-.6.2-1.3 0-1.9.2-1 .2-2.1.2-2.4 1.3-.3 1.3.6 2.1 1.7 2.7 1.4.8 3.2 1 4.8.6 4.1-1 8.1-.8 12.2 0 1.6.3 3.2.2 4.8-.6 1-.5 1.7-1.4 1.4-2.5-.2-1.1-1.3-1.1-2.1-1.3-1.6-.2-3.2-.2-4.8.2-3.5.8-7 1-10.5 0-1.1-.4-2.1-.4-3.2-.6zm19.9 14.3c-4.9-3.2-18.7-3.3-24-.2 7.8-.7 15.7-.7 24 .2zm-17.3.8c3.5.6 7 .8 10.3 0-3.3-.4-6.8-.6-10.3 0z" class="st63"></path><path d="m387.6 301.6 3.2.3c3.5 1 7 .8 10.5 0 1.6-.3 3.2-.5 4.8-.2.8.2 1.9.2 2.1 1.3.2 1.1-.5 2.1-1.4 2.5-1.4.8-3 1-4.8.6-4.1-.8-8.1-1-12.2 0-1.6.3-3.2.2-4.8-.6-1.1-.6-1.9-1.3-1.7-2.7.2-1.1 1.4-1.1 2.4-1.3.7.3 1.3.3 1.9.1 0 .2 0 .2 0 0zm19.9 14.3c-8.3-1-16.2-1.1-24-.2 5.2-2.9 19.1-2.9 24 .2z" class="st64"></path><path d="M390.2 316.7c3.5-.6 7-.6 10.3 0-3.3 1-6.8.8-10.3 0z" class="st69"></path><path d="M420.5 248.1c-19.4.6-30.8.6-50.4.6-1.9 0-2.7 3.2-3 4.9-.5 2.5-.6 5.1-1 7.6-1.4 11 1.3 21.8 2.2 32.6.2 2.7.5 5.4.6 8.3.3 2.4 0 5.2-.2 6.8-.3 6.5-1.6 12.7-2.9 19.1-.5 3 0 4.1 2.7 5.4 3 1.4 6.2 2.2 9.5 2.9 1.4.3 3.5-.2 3.8 2.1.3 2.2-1.3 2.7-2.7 3.3l-.5.5c2.9 1.7 6.2 2.4 9.4 3 8.1 1.7 16 .6 23.7-2.7-.3-.3-.6-.8-1.1-1-1.7-.5-2.5-1.6-2.2-3.3.3-1.9 1.9-1.7 3.2-1.9 3.5-.6 7-1.4 10.2-2.9 2.9-1.3 3.3-2.4 2.9-5.4l-2.5-15.6c-.6-4-.6-6.7-.6-9.4.3-9.2 1.7-18.4 3-27.6.6-4.3 0-8.7-.2-13-.2-2.2-1-10-1.6-12.1-.2-.5.2 1.9.2 3-.2 2.9.3 6.5 0 9.4-.5 3.3-1.1 3.8-4.3 3-15.7-3.5-31.6-3.7-47.2.5-2.1.6-3-.2-3.3-2.2-.6-3.5-.5-7.1.2-10.6.3-1.6 1-2.1 2.5-2.1 16.5.6 32.9.5 49.4.2 1.4 0 2.2.6 2.9 1.7.3-1.4-.2-5.2-2.7-5.1zm-48.8 33.5c5.6.3 10.2-2.1 14.1-5.9 1.3-1.1 2.2-2.5 3.7-4.1.5 6.5-.3 12.5-.3 18.6.8-1.7.8-3.7 1-5.6.5-4.9.8-10 1.9-14.9.5-2.2 1.3-4.6 3.8-4.8 2.5 0 3.3 2.5 3.8 4.6 1.1 4.3 1.4 8.6 1.7 13l.5 6.4.5 3.5c.6-1.1.5-2.2.3-3.3l-.5-6.5c.2-3.5-.6-7 0-10.6 1.4.8 2.2 2.2 3.2 3.2 4.1 4.1 8.9 6.7 14.9 6.4 1.7-.2 1.6.6 1.6 1.7l-1.4 11.8c-1.3 10.3.3 20.5 2.1 30.7.8 5.1.5 6-4.4 7.6-8.1 2.7-16.7 3.2-25.1 3-5.7-.2-11.4-.6-17-2.2-1-.3-2.1-.6-3-1-4.4-1.6-5.2-2.7-4.1-7.1 3.3-14 3-27.8.8-41.9-.9-2.7-.9-2.6 1.9-2.6z" class="st64"></path><path d="M18.5 372.8c-.6-5.4-1-10.8-1.1-16.2-.2-6.2 2.2-10.6 6.8-13.3 1.1-.3 2.2 0 3.3.5 7.9 3.7 15.9 3.5 23.8.3 1.1-.5 2.1-.6 3.2-.3 4.1 2.7 6.2 6.8 6 12.5-.2 4.8-.5 9.4-.8 14.1-.5 5.7-1.4 11.4-2.9 17-.2.6-.3 1.3-.6 1.9-.2.5-.5.8-1 .6-.5-.2-.8-.5-.8-1 0-3-.6-6 .2-9.1.8-3 1.3-6.2 1.7-8.3-.2 1.1-.6 3.5-1.3 5.6-1 3.5-1.1 7-1.1 10.5 0 4.1.3 8.3-.3 12.4-.6 5.2-2.5 9.2-7 11-.6.2-1.3.6-1.9.8.6-.2 1.1-.5 1.7-.6 1.7-.8 3.2-2.1 4.6-3.5.3-.5.6-.8 1.1-1.3.3-.5.8-.8 1.3-.5.5.3.6 1 .5 1.6 0 .6 0 1.3.2 1.9 0 .8-.6 1.4-.5 2.2 0 .8-.3 1.4-.6 2.1-1.7.5-2.4 2.2-3.2 3.7-.2.2-.3.3-.6.5-.6 0-1.3.5-1.9.5-1.4.6-2.9 1-4.3.8-3.8-.2-7.6.3-11.4-.3-1.6-.3-3.2-.6-4.6-1.7-3-2.4-3.8-5.9-3.7-9.8.2-1.4.8-1.7 1.9-.8.8.8 1.6 1.9 2.4 2.7 1.4 1.3 3.2 2.2 4.9 2.7 1.1.3 2.4.6 3.3.6-.8.2-1.9-.3-3-.6-6-1.9-8.9-6.2-9.1-13.8 0-5.2 0-10.5-.3-15.7 0-1-.2-1.7-.3-2.7-1-3.7-1.4-7.3-2.1-10.3.8 3.3 1.4 7.3 2.2 11.1.6 2.9.2 5.7-.2 8.6 0 .5-.2.8-.6 1-.5.2-.8-.3-1-1-.8-2.4-1.4-4.9-1.9-7.5-.2-2.9-.9-5.9-1-8.9z" class="st62"></path><path d="M54.9 312.5c0-1-.2-1.9 0-2.9-.2-.8-.2-1.6 0-2.4 0-1.1-.2-2.4 0-3.5-.2-1 0-2.1.2-3-.2.3-.2.2-.5-.3l1.3-16.8c.2-2.4.2-2.4-1.7-2.9-2.5-.8-5.2-1.4-7.9-1.9-2.1-.3-2.4.2-2.4 2.5v6.5l-1.9-12c-.3-1.7-.5-3.5-1.3-4.9-.6-1.4-1.1-1.4-1.7 0-1 2.1-1.1 4.4-1.6 6.7l-1.7 12.1c-.2.6 0 1.3-.6 1.9l.5-7.5v-1.4c0-3.8-.3-4.3-3.5-3.5l-6.4 1.9c-1.4.3-1.7 1.3-1.4 2.9.8 6 1.1 12.2 1.4 18.4.5 9.1 0 17.9-1.4 26.8-.6 3.8.2 6.4 3.2 7.9 1 1.3 2.4 1.9 3.8 2.1 7.3 1.4 14.5 2.2 21.3-2.2.2-.3.3-.3.5-.3 3.7-1.9 3.7-2.9 3.3-6.4l-1.5-17.8z" class="st63"></path><path d="M55.3 257c1.1 3.8.6 7.8-.2 11.6-.3 1.1-1 1.3-1.7 1-5.6-1.6-11.3-1.9-17-1.6-3.3.2-6.5.8-9.7 1.7-.6.2-1.3.5-1.6-.6-1-4-1.6-8.1-.2-12.2 1.1-.6 2.4-.5 3.5-.5 8.4-.3 16.4-1 24.8-.2.5.2 1.7.3 2.1.8z" class="st62"></path><path d="M27.5 337.1c4.4 1.7 8.9 2.5 13.5 2.4 3.7-.2 7.1-.6 10.5-2.1.3-.2 1.3-.5 1.6-.6-.6.6-2.4 1.1-2.2 2.7 0 1.6.3 2.7 1.7 3.2.6.2 1.3.3 1.9.6-1.1 0-6.4 1.7-9.5 2.5-6.2 1.3-11.6.5-17.3-2.1-1-.5-2.9-.6-4-.6 1-.3 1.3-.6 2.2-1 .3-.2 1.4-.5 1.6-1 .2-1.3.5-2.8 0-4zm5.4 74.9c-3.3-.8-6.2-2.5-8.4-5.7-1 5.4 1.3 10 5.6 11.4 4 1.3 7.9 1 11.9 1 1.9 0 3.8-.3 5.9-.8.8 1.1.8 1.3-.3 1.9s-2.2.5-3.3.6c-3.3-.2-6.7-.2-10 0-1.9-.2-4-.3-5.7-1-3.7-1.3-5.9-4.6-6-9.1l.2-4.1c.3-2.4 0-4.8 0-7.1.2-4.6-1.1-8.7-2.1-13.2l-1.9-10.6c-.2-.8 0-1.7 0-2.5l1.9 9.5c.5 2.5 1.3 4.9 2.2 7.1.2-3.5.8-6.8 0-10.3-1-4.1-1.4-8.4-2.2-13.2.8 1 .8 1.6 1 2.4l2.2 9.7c1.3 5.2 1 10.5 1 15.7l.3 7.5c1 5.6 3.7 9.1 8.3 10.5-.2.3-.4.5-.6.3z" class="st64"></path><path d="M55.3 299.4c.5-8.7 2.2-17.6 1.7-27 0-.5-.2-1.1.6-1.1.3.2.5.2.8.3 1.9 1 2.2 1.7 2.1 4.1 0 .5 0 1.1-.2 1.6-.2 2.2-.5 4.3-.8 6.5-.3 1.4-1.3 2.9-.2 4.3-.3 3.5.6 6.8.5 10.2 0 2.4.3 4.8.3 7.1 0 2.5 0 5.2-.6 7.8-.5 1.7-1.7 2.9-3 2.9-.8 0-1.4-.5-1.4-1.4 0-1.3-.3-2.4-.3-3.7.2-1 0-1.7 0-2.7.2-1.1 0-2.4 0-3.5.2-1.7.5-3.8.5-5.4z" class="st62"></path><path d="M23.2 270.8c-.2.5-.3 1.3-.3 1.7-.5 7.3.8 14.6 1.1 21.9.3 6.5 1 12.9.5 19.4-.2 1.4.2 2.4-1 1.6-1-.5-2.1-1.9-2.4-3-1-4-.8-7.9-.5-12.1.3-3.5.5-7.1.5-10.6 0-1.1 0-2.1.5-3 .2-.3.3-.6.2-1-1.4-1.7-1.1-4.3-1.7-6.4-.2-1.3-.3-2.7-.3-4-.3-2.4 0-3 1.7-4 .3.2 1.4-.3 1.7-.5z" class="st63"></path><path d="M23.2 270.8c-.2.8-.3 1.7-.3 2.5v2.5c0 1.7.2 3.5.3 5.2l1.1 10.3.8 10.3c.3 3.5.3 7 .2 10.5 0 1-.2 1.7-.2 2.5 0 .3 0 .5-.2 1 0 .2-.2.3-.3.5s-.5.3-.8.3c-.5 0-.6-.2-.8-.2-.3-.2-.5-.3-.8-.5-.3-.2-.5-.3-.6-.5-.8-.6-1.3-1.4-1.7-2.5-.2-.6-.2-1-.3-1.4-.2-.5-.2-1-.2-1.3-.5-3.7-.3-7.1.2-10.6l.6-10.3c0-1 0-1.9.6-2.9.2-.3.2-.3.3-.5v.2l-.2-.2c-.2-.2-.3-.3-.3-.6-.2-.2-.2-.5-.3-.6-.6-1.7-.5-3.7-1-5.1l-.2-2.7c0-1-.2-1.7-.2-2.7 0-.5.2-1 .3-1.4.3-.5.6-.6 1.1-1 1.4-.1 2.1-.4 2.9-.8zm0 0c-.8.5-1.6.8-2.4 1.3-.3.3-.6.6-.8 1-.2.3-.2.8-.2 1.3 0 .8.2 1.7.3 2.7l.3 2.7v-.2c.6 1.7.6 3.5 1.3 4.9 0 .2.2.3.3.5.2.2.2.3.3.5l.2.2c.2.2.2.3.2.5v.6c-.2.3-.3.5-.3.6-.3.6-.3 1.4-.3 2.2.2 3.5 0 7-.3 10.5-.2 3.5-.5 6.8 0 10.2 0 .5.2.8.2 1.3 0 .3.2 1 .3 1.1.2.6.8 1.3 1.3 1.7l.3.3c.2.2.3.2.3.2H24c-.2 0-.3 0-.5.2s-.2.2-.2.3v-.3c0-1 .2-1.7.2-2.5v-10.3l-.3-10.5-.6-10.3v-5.2c0-.8 0-1.7.2-2.5 0-1.2.1-2.2.4-3z" class="st64"></path><path d="M55.3 406.2c0 .6 0 1.1.3 1.7-.6.6-.6 2.2-1.9 1.6 0-1 .2-1.9-.2-3.2-1.9 2.5-4.1 4.4-6.8 5.2-.2-.2-.2-.3 0-.5 4.9-2.7 6.5-7.6 6.7-13.5v-8.3c-.3-5.4.6-10.6 2.1-15.7.5-1.9.8-4 1.7-5.9.2 1.7-.2 3.3-.5 4.9l-1.6 8.1c-.5 2.9 0 5.7.5 8.7l1.4-4.8c1.1-4.3 1.9-8.7 2.4-13.3 0-.3.2-.8.3-1.1 0 4.3-.8 8.6-1.6 12.9-.5 2.7-1.1 5.6-1.9 8.1-.5 1.6-.6 3.2-.6 4.8 0 3.4-.7 6.8-.3 10.3zm-7.9 13.6c.6-.6.3-1.3.3-1.9.5-.2 1.1-.5 1.6-.6.6.6.5 1.4.3 2.2-.2.2-.2.2-.3 0-.5.2-1 .3-1.4.3-.2.2-.4 0-.5 0z" class="st19"></path><path d="M34 420.5c1.4-.6 3-.3 4.4-.3 1.9 0 3.7-.3 5.6.3H34zm15.6-1c-.6-.6-.5-1.4-.3-2.2l.3-.3c1.1-1 2.1-2.2 3-3.5l.8-1.7c.5-.3.5-1 .8-1.4.5-.6 1-1 1.6-.5.8 1.1.3 2.4 0 3.3-.6 2.9-2.2 4.9-4.4 6.2-.5.4-1.2.9-1.8.1z" class="st19"></path><path d="M55.5 409.8c-.8.6-1.1 1.7-2.2 1.9.2-.8.2-1.4.3-2.2.6-.5 1.1-1.4 1.9-1.6v1.6c.1.2.1.2 0 .3z" class="st19"></path><path d="M27.1 371.1c.8.8 1.6.8 2.4 0 .2 1.1-.3 1.7-1 1.9-.8 0-1.4-.3-1.4-1.9zm21.7.1c.8.6 1.6.8 2.4 0 .2 1.1-.3 1.6-1 1.7-.9.1-1.4-.2-1.4-1.7z" class="st64"></path><path d="M52.6 413.3c-.5 1.7-1.6 2.9-3 3.5.8-1.1 1.6-2.7 3-3.5z" style="fill:#8c8c8d"></path><path d="M37.5 400c.3-.8.3-1.9 1.4-1 .6.5.5 1.1 0 1.4-.6.5-1 .5-1.4-.4z" class="st63"></path><path d="M37.5 400c.5.3.8.6 1.3.2.3-.3.2-.8 0-1.1 1 .2.6.8.5 1.4-.2.6-.8.8-1.3.6-.1-.2-1.1-.2-.5-1.1z" class="st64"></path><path d="M32.9 412c0-.2.2-.2.2-.3 1.1.3 2.2.8 3.5.8-1.3.3-2.6.2-3.7-.5zm13.7-.9v.5c-1 .6-1.9 1-3.3.8l3.3-1.3z" class="st19"></path><path d="M42.6 307.4c-1.9-.8-4-.2-6.2-.2-2.1 0-3.8-1.1-4.9-3.3-.5-1.1-.2-1.9 1-2.1 1.3-.2 2.5-.2 3.7.6 2.4 1.6 4.9 1.6 7.3 0 1.1-.8 2.4-.6 3.7-.5 1.1.2 1.4 1 .8 2.1-1.2 2.3-3 3.2-5.4 3.4z" class="st64"></path><path d="M36.6 313.4c2-.5 4.2-.5 6.2 0-2.1.8-4.1.6-6.2 0z" class="st67"></path><path d="M60.1 303.9c0-1.7-.3-2.4-.3-4.3 0-.3.2-1 0-1.4v-.2c-.2-1.3 0-4.3 0-4.9.3-2.9-1.1-5.7-.2-8.7.6-2.2.6-4.6.6-7l-1 5.2c-.5 2.1-1.1 4-.6 6.4.5 2.9.3 6 .5 9.2l.2 3.5c.3 3.7.3 7.1-.5 10.8-.3 1.3-1 2.4-2.1 2.9-.8.3-2.1.2-2.1-1.3 0-1.1 0-1.7-.2-2.7v-6c0-.2.2-1.7.2-1.9.2-1.3.2-1.7.2-3 0-.6.3-1.9.3-2.4l.6-7.6c.6-6.4 1-12.1 1-18.6 0-2.1-.2-2.5-.3-4l-1-8.1c-.2-1-.3-1.1-.6-2.7.3 2.1.6 2.9.6 3.5.2 2.5-.2 4-.5 6.5-.3 1.6-1.4 1.6-2.7 1.4-.5 0-1-.2-1.3-.3-4.1-1-8.3-1.3-12.4-1.3-3.8.2-7.6.5-11.3 1.6-1.3.5-2.5.6-2.9-1-.3-2.2-.8-5.2-.3-7.6.2-1 .3-1.7.5-3-.3.8-.6 1.7-.8 2.5-.3 2.5-.6 3.7-.6 6.2 0 1.6 0 2.7-.3 4.9-.2.5-.5 1.4-.5 2.9 0 3 .2 4.8.3 7.9l1 11.9c.3 4 .2 7.5.5 11.4.2 2.2.2 5.2 0 7.5 0 .6-.3 6.2-.5 7.1 0 .5-.2 1.1-.2 1.6l-1.3 10.8c-.2 1.1 0 2.1.6 2.9 1.1 1.3 2.4 2.4 4 2.5-3-1.6-3.8-4.1-3.2-7.9 1.3-8.9 1.9-17.8 1.4-26.8-.3-6.2-.6-12.2-1.4-18.4-.2-1.6 0-2.5 1.4-2.9 2.1-.5 4.3-1.4 6.4-1.9 3.2-.8 3.5-.5 3.5 3.5v1.4l-.5 7.5c.5-.6.5-1.3.6-1.9.6-4 1.1-8.1 1.7-12.1.3-2.2.5-4.6 1.6-6.7.6-1.4 1.1-1.4 1.7 0 .6 1.6 1 3.2 1.3 4.9.6 4 1.1 7.9 1.7 12.1v-6.5c0-2.4.5-2.9 2.4-2.5 2.7.5 5.2 1.1 7.9 1.9 1.9.5 1.9.6 1.7 2.9l-1.3 16.8c0 1.3-.2 2.2-.2 3.3v5.7c0 6.7.8 13.2 1.4 19.9.3 3.3 0 6-2.9 7.5 2.9-.5 4.6-2.9 4.3-6.2l-1.3-11.1c-.2-1.1-.8-3.7.2-3.7 1.4 0 1.6.3 2.5-1 .8-1.1 1-1.6 1.1-2.7.2-1.7.5-2.7.5-4.6.9-.9.9-2.2.9-3.6zm-13.5 8.4c-.2-.2-.3-.2-.6-.3-.5-.2-1-.2-1.4-.3-4.3-1-8.4-1-12.5 1.1 4-.8 7.9-.6 11.9-.5.2.2.3.2.5.2.8.2 1.4.3 2.2.6.3 0 .6 0 .8-.3-.1-.7-.4-.7-.9-.5z" class="st64"></path><path d="m101.4 469.1 1 .5c.6.6.8.3 1-.3v-.3c-.6.1-1.2.1-2 .1zm353.3-1.6c.8.2 1.4 0 1.7-1.3-.6.5-1.1 1-1.7 1.3zM306 465.6c-.6 1.1-2.4 2.2-4 2.9.3.5.6.5 1.6.2.8-.2 1.4 0 2.2.2 1 .3 2.1.5 2.2-1.4 0-.2.2-.3.2-.5-.8-.6-1.6-.9-2.2-1.4zm152.9-1.5v.5c0 .6.2 1 .6.3l.2-.2c-.3-.2-.4-.4-.8-.6zm-157.4 2.7c1.7-1.9 3-4.9 2.5-7.8 1.4 2.2 3 4 5.1 5.4.2-.3.3-1 .8-.8.2 0 .5.2.6.2v1.6l1 .5c.3-.8.5-1.9.2-2.5-.2-.2-.2-.3-.3-.6-2.7-1.6-5.7-5.2-7.1-7.6-.6.2-1.3.3-1.9.3.5 2.4.3 9.8-6.8 12.7.2 0 .3.2.5.2.6.3 1 0 1.3-.8 1.3 0 2.7-1.1 4.1-.8zm-221.1 2.1c0 .2.2.2.5-.2-.3.1-.5.2-.5.2zm1.1-.3s.2 0 .2.2c.5.2.6-.2.8-.5-.3 0-.6.1-1 .3zM458 451.1c.5 2.2 1.6 4.8 3.3 7.5h.8c.8.3.8 1.3.8 1.9v2.7c0 .5-.3 1.4.3 1.6s.8-.5 1-1.1c-.5-.3-.8-.6-1.3-1.1.6-1 1-1.3 1.7-2.9l-3.8-8.1c-.9 0-2 0-2.8-.5zm3.3 3.8c0 .2 0 .2 0 0z" class="st72"></path><path d="M508 417c-.2-.8-.6-1.4-1.1-1.9-.8-.6-1.4-.6-2.1.3-.6.6-1.1.8-1.9.3-.8-.6-1.7-.8-2.9-.3-2.1 0-4-.2-6 .5-.2 0-.2 0-.3-.2-1.7-.3-3.3-.3-5.1-.2h-.8c-.5.6-1 .8-1.6.5-.2-.2-.3-.5-.5-.6 0-.2 0-.2-.2-.3h-8.4c-.8-.5-1.4-.2-2.1.5-.8-.2-1.6-.2-2.4 0-1.7 0-3.5.2-5.2.8-.5 0-.6-.6-1.1-.6-1.9 0-3.7-.3-5.6.2l-.2-.2c-.8-.6-1.4-.6-2.1.3-.6.6-1.1.8-1.9.3-.8-.6-1.7-.8-2.9-.3-2.1 0-4-.2-6 .5-.2 0-.2 0-.3-.2-1.7-.3-3.3-.3-5.1-.2-.3 0-.5 0-.8.2-.5.6-1 .8-1.6.5-.2-.2-.3-.5-.5-.6 0-.2 0-.2-.2-.3H431c-.5-.3-.8-.3-1.1-.2-.2 0-.3.2-.5.3l-.3.3c-.8-.2-1.6-.2-2.4 0-.6-.3-1.4-.3-2.2 0l-4 .2h-.2c-1.7 0-3.5-.2-5.2 0-.6 0-1.4 0-2.1.2-.3 0-.5 0-.8.2-.5.6-1 .8-1.6.5-.2-.2-.3-.5-.5-.6 0-.2 0-.2-.2-.3h-8.4c-.8-.5-1.4-.2-2.1.5-.8-.2-1.6-.2-2.4 0h-1v-.2c-.8-.6-1.4-.6-2.1.3-.6.2-1.1.2-1.7.3 0 0-.2 0-.2-.2-.8-.6-1.7-.8-2.7-.5-1.4 0-3-.2-4.4.2h-.2c-.3 0-.6.2-1 .2-.2 0-.5-.2-.6 0h-.2c-1.7-.3-3.3-.3-5.1-.2h-.8c-.5.6-1 .8-1.6.5-.2-.2-.3-.5-.5-.6 0-.2 0-.2-.2-.3h-8.4c-.8-.5-1.4-.2-2.1.5-.8-.2-1.6-.2-2.4 0-1.1 0-2.4.2-3.5.3l-.3-.3c-.8-.6-1.4-.6-2.1.3-.2-.2-.3-.2-.5-.2-.8 0-1.4 0-2.2-.2-.5-.2-1.1-.2-1.7 0-.5 0-1 0-1.4.2-1.6 0-3.3 0-4.9.5-.2 0-.2 0-.3-.2-1.7-.3-3.3-.3-5.1-.2h-.8c-.5.6-1 .8-1.6.5-.2-.2-.3-.5-.5-.6 0-.2 0-.2-.2-.3h-8.4c-.8-.5-1.4-.2-2.1.5-.8-.2-1.6-.2-2.4 0-1.7 0-3.5.2-5.2.8-.5 0-.6-.6-1.1-.6-1.9 0-3.7-.3-5.6.2l-.2-.2c-.8-.6-1.4-.6-2.1.3-.6.6-1.1.8-1.9.3-.8-.6-1.7-.8-2.9-.3-2.1 0-4-.2-6 .5-.2 0-.2 0-.3-.2-1.7-.3-3.3-.3-5.1-.2-.3 0-.5 0-.8.2-.5.6-1 .8-1.6.5-.2-.2-.3-.5-.5-.6 0-.2 0-.2-.2-.3h-8.4c-.8-.5-1.4-.2-2.1.5-.8-.2-1.6-.2-2.4 0h-.3c-.6-.5-1.4-.6-1.9.2-.6 0-1.3.2-1.9.3-.8-.6-1.7-.8-2.7-.3-1.7 0-3.3-.2-5.1.2h.5c-.2 0-.2.2-.3.2h-.2c-.3 0-.8-.2-1.1 0-1.6-.3-3-.2-4.6-.2-.3 0-.5 0-.8.2-.5.6-1 .8-1.6.5-.2-.2-.3-.5-.5-.6 0-.2 0-.2-.2-.3h-8.4c-.8-.5-1.4-.2-2.1.5-.8-.2-1.6-.2-2.4 0h-1v-.2c-.8-.6-1.4-.6-2.1.3-.6.2-1.1.2-1.7.3 0 0-.2 0-.2-.2-.8-.6-1.7-.8-2.7-.5-1.4 0-3-.2-4.4.2h-.2c-.3 0-.6.2-1 .2-.2 0-.5-.2-.6 0h-.2c-1.7-.3-3.3-.3-5.1-.2-.3 0-.5 0-.8.2-.5.6-1 .8-1.6.5-.2-.2-.3-.5-.5-.6 0-.2 0-.2-.2-.3h-8.4c-.8-.5-1.4-.2-2.1.5-.8-.2-1.6-.2-2.4 0-1.7 0-3.5.2-5.2.8-.5 0-.6-.6-1.1-.6-1.9 0-3.7-.3-5.6.2l-.2-.2c-.8-.6-1.4-.6-2.1.3-.6.6-1.1.8-1.9.3-.8-.6-1.7-.8-2.9-.3-2.1 0-4-.2-6 .5-.2 0-.2 0-.3-.2-1.7-.3-3.3-.3-5.1-.2h-.8c-.5.6-1 .8-1.6.5-.2-.2-.3-.5-.5-.6 0-.2 0-.2-.2-.3h-8.4c-.6-.5-1.3-.2-1.9.3-.6-.5-1.3-.6-1.7 0-.2 0-.5 0-.6.2-.6 0-1.3 0-1.9.2-.8-.3-1.6-.3-2.4 0h-2.7c-1.7 0-3.3-.2-5.1.2-1.3-.2-2.4 0-3.7 0-.3 0-.5 0-.8.2-.5.6-1 .8-1.6.5-.2-.2-.3-.5-.5-.6 0-.2 0-.2-.2-.3h-8.4c-.8-.5-1.4-.2-2.1.5-.8-.2-1.6-.2-2.4 0-1.7 0-3.5.2-5.2.8-.1-.3-.4-.5-.6-.6-.6-.5-1.3-.6-1.9 0h-2.9c-.6-.2-1.3-.2-1.9.2-2.1 0-4-.2-6 .5-.2 0-.2 0-.3-.2-1.7-.3-3.3-.3-5.1-.2-.3 0-.5 0-.8.2-.5.6-1 .8-1.6.5-.2-.2-.3-.5-.5-.6 0-.2 0-.2-.2-.3h-8.4c-.8-.5-1.4-.2-2.1.5-.8-.2-1.6-.2-2.4 0-1.7 0-3.5.2-5.2.8-.5 0-.6-.6-1.1-.6-1 0-2.1-.2-3-.2-.6-.5-1.3-.6-1.7 0-.3 0-.6 0-1 .2h-.2c-.3.3-.8.2-1.1.2-.8-.5-1.7-.5-2.5-.2-2.1 0-4-.2-6 .5-.2 0-.2 0-.3-.2-1.7-.3-3.3-.3-5.1-.2h-.8c-.5.6-1 .8-1.6.5-.2-.2-.3-.5-.5-.6 0-.2 0-.2-.2-.3h-8.4c-.8-.5-1.4-.2-2.1.5-.5-.2-1-.2-1.4-.2-.6-.5-1.3-.5-1.9.2-.8 0-1.6.2-2.2.2-.8-.5-1.6-.5-2.5-.2h-1.3c-1.7 0-3.5-.2-5.2.2h-.2l-.2.2c-1.6-.3-3-.3-4.6-.2-.3 0-.5 0-.8.2-.5.6-1 .8-1.6.5-.2-.2-.3-.5-.5-.6 0-.2 0-.2-.2-.3H19c-.8-.5-1.4-.2-2.1.5-.8-.2-1.6-.2-2.4 0-1.7 0-3.5.2-5.2.8-.5 0-.6-.6-1.1-.6-1.9 0-3.8-.3-5.7.2h.4c-.5.5-1.1 0-1.6.2h-.1c0 .2-.5.3-.5.5-.2.5-.3.6-.3 1.3l-.2 4.9v.3c0 1.4-.5 2.7 0 4.1.2 1.9.6 4 .5 5.9s.3 3.7.5 5.4v.2c-.3.8-.2 1.6-.2 2.4.2 2.2-.5 4.4.3 6.5-.3.6-.3 1.3-.2 1.9v.6l-.5 1c0 .3 0 .6.2 1 .2.5.2 1.1 0 1.6.2 1.3 0 1.6 0 2.7 0 .6 0 1.6.2 2.2s2.5 0 3.5.2c.8.3.8 1.3.8 1.9v2.7c0 .5-.3 1.4.3 1.6s1-.6 1.1-1.3c.3-1.3 1.3-1.7 2.1-1.3.5.5 1 1.1 1.4 1.7 0 .3 0 .5.2.6.2.3.5.2.8.2 1.6.2 3.2-.2 4.8.3.5.5 1 .3 1.4.3.8-.3 1.7-.2 2.5.2 1.1.6 2.1 0 3-.2 1.1-.2 2.5-.6 3.5.3.6.6.8.3 1-.3.3-1.4.3-2.9.3-4.3.5-.6 1-.5 1.6-.3l-.2 4c-.3.3-.6.6-.3 1.3.2.5.6.5 1 .3 1.1-.5 2.2-.3 3.3.2.6.3 1 0 1.3-.8 1.4 0 2.9-1.1 4.4-.8.3 1.9.6 2.2 1.9 1.7.8-.2 1.4 0 2.2.2 1 .3 2.1.5 2.2-1.4.2-.3.2-.5.3-.8h2.4c0 .2.2.2.3 0 .3 0 .8.2 1.1.2.5.5 1 .3 1.4.3.8-.3 1.7-.2 2.5.2 1.1.6 2.1 0 3-.2 1.1-.2 2.5-.6 3.5.3.6.6.8.3 1-.3.2-.5.2-.8.2-1.3-2.2-.6-4.4-1.7-6.8-3.7 1 .2 2.7 0 3.8-.3.8.8 1.7 1.6 3 2.4v-1.6c.5-.6 1-.5 1.6-.3 0 .8 0 1.7-.2 2.5l3.8 1.6c-1.1 0-2.4-.2-3.8-.5v.2c-.3.3-.6.6-.3 1.3.2.5.6.5 1 .3 1.1-.5 2.2-.3 3.3.2.6.3 1 0 1.3-.8 1.4 0 2.9-1.1 4.4-.8.3 1.9.6 2.2 1.9 1.7.8-.2 1.4 0 2.2.2 1 .3 2.1.5 2.2-1.4.2-.5.3-1.1.6-1.6.2-.3.5-.8.6-1.1.2-.3.3-1.1.8-1 .2 0 .5.2.6.2v2.1c2.4-2.1 4.3-5.6 3.7-9.1 3 4.8 7.1 7.5 15.2 10.2-6.4-.2-10.3-1.4-13.3-3.7-.2.3-.5.6-.8 1 .5.5.8 1 1.1 1.4 0 .3 0 .5.2.6.2.3.5.2.8.2 1.6.2 3.2-.2 4.8.3.5.5 1 .3 1.4.3.8-.3 1.7-.2 2.5.2 1.1.6 2.1 0 3-.2.8-.2 1.6-.3 2.4-.2l2.4-1c.2-1.1.2-2.1.2-3.2.5-.6 1-.5 1.6-.3 0 .8 0 1.6-.2 2.5 1.4-1 2.4-2.1 2.7-2.7.8.6 1.7 1.1 3.7 1-1.3 1.1-3.2 2.7-6.5 3.3-.3.3-.3.6-.2 1.1.2.5.6.5 1 .3 1.1-.5 2.2-.3 3.3.2.6.3 1 0 1.3-.8 1.4 0 2.9-1.1 4.4-.8.3 1.9.6 2.2 1.9 1.7.8-.2 1.4 0 2.2.2 1 .3 2.1.5 2.2-1.4v-.2c-1.6-.3-3-1.3-4.1-2.4-1.6 1.3-3.7 2.2-6.7 2.4 2.4-1.1 4.1-2.4 5.4-4.1-.6-.8-1.1-1.7-1.3-2.2-1 .5-2.4.6-3.2.6-8.3 0-8.1-12.7.2-12.7.6 0 1.1 0 1.6.2 2.5-1.7 6.8-3.3 9.1-3.7-2.5 1.3-4.8 3.1-6.7 5.2.6.8 1.1 1.7 1.1 2.9 0 2.7-3 4.3-4.9 2.5 2.7-1.4 2.9-4.4-.2-4.4-4.8 0-4.6 7.8.3 7.8 1.7 0 3.2-.5 4.3-1.3 1.3 4.3 2.7 6.8 5.4 8.7 0-.2 0-.2.2-.3 0 0 .2 0 .2.2.6.2 1-.6 1.1-1.3.2-.6.5-1.1 1-1.3 0 .8-.2 1.6 0 2.2 0 .6.2 1 .6.3l.3-.3c.3-.6.5-1.4.3-2.1.5.5.8 1.1 1.3 1.6 0 .3 0 .5.2.6.2.3.5.2.8.2 1.6.2 3.2-.2 4.8.3.5.5 1 .3 1.4.3.2 0 .3 0 .3-.2 3.8-1.4 7.1-4 9.7-6.7-.5-.5-1-.8-1.4-1.3-1.4 1.1-3 1.9-5.2 2.7-2.4-5.9-2.2-12.2-1.3-16.2 0 7.6 1.9 11.8 3 13.2.6-.3 1.4-.6 1.9-1.3-6.7-9.1-1-22.9 6-30.2-3.8 5.7-9.7 18.9-3.8 28 1.9-3.7 2.9-7.3 1.3-10.2-.5 1.3-1 3-1.1 5.2-.8-1.9-1-5.1-.3-7.1l.8-3c5.7 3 6 11.4.6 17 1.2 1.4 2.6 2.5 4.1 3.3-1 .8-1.9 1.7-3.2 2.7 0 1.1-.2 2.2-.2 3.3-.3.3-.6.6-.3 1.3.2.5.6.5 1 .3 1.1-.5 2.2-.3 3.3.2.6.3 1 0 1.3-.8.3 0 .8-.2 1.1-.2-2.5-.3-5.1-1-6-1.6.6-.2 1.9-1.1 3-1.7 1 1 1.9 2.2 4 3.2.8-.3 1.7-.6 2.5-.5.3 1.9.6 2.2 1.9 1.7.8-.2 1.4 0 2.2.2 1 .3 2.1.5 2.2-1.4.2-.3.2-.5.3-.8.8 0 1.6 0 2.4.3.5.5 1 .3 1.4.3.8-.3 1.7-.2 2.5.2 1.1.6 2.1 0 3-.2 1.1-.2 2.5-.6 3.5.3.6.6.8.3 1-.3.2-.6.3-1.3.3-1.9-3.3-1.6-6.4-4-7.8-6.4 1.1 1 2.4 1.7 3.5 1.7-1.4-2.5-1.7-6.2-1.7-7.3-.8.8-2.2 2.1-2.4 3.5.3-3.7 1.7-5.4 3.3-7.1.8 6.2 2.5 10.5 5.4 13.7v-.6c.5-.6 1-.5 1.6-.3 0 .8 0 1.6-.2 2.4.5.5 1.1 1 1.7 1.4-.6-.2-1.1-.3-1.7-.5v.6c-.3.3-.6.6-.3 1.3.2.5.6.5 1 .3 1.1-.5 2.2-.3 3.3.2.6.3 1 0 1.3-.8 1 0 1.9-.5 3-.8-10.8-1.6-13.2-16-12.4-21.1-2.2 1.4-4.6 3.5-7.3 7.1.3-1.1 1-2.4 1.7-3.7-.3-4.9.8-8.7 1-10 .3 2.9.5 5.1 1 7.1 1.7-2.5 4-4.9 5.6-5.9 0 10.2 1.6 22.7 11.8 26.4h.2c.2 0 .3.2.5.2h-.5c.3 1.4.5 1.9 1.4 1.7 1.9-.5 3.7-1.1 5.1-1.9.2-.3.3-.8.5-1.1.2-.3.5-.8.6-1.1.2-.3.3-1.1.8-1 .2 0 .5.2.6.2v1.6c.5-.3.8-.6 1.3-1 0-.5 0-1-.2-1.3s-.3-.6-.3-.8c-3.8 3-8.7 4-13 1.4 4.1 1.7 18.9-1.9 18.6-20 1 4.3.6 8.1-.6 11.6 1.4.3 2.9.2 4.9-.6-.8 2.2-2.7 6.7-6.8 10 0 .5-.3 1.3.3 1.4.6.2 1-.6 1.1-1.3.3-1.3 1.3-1.7 2.1-1.3.5.5 1 1.1 1.4 1.7 0 .3 0 .5.2.6.2.3.5.2.8.2 1.6.2 3.2-.2 4.8.3.5.5 1 .3 1.4.3.8-.3 1.7-.2 2.5.2 1.1.6 2.1 0 3-.2 1.1-.2 2.5-.6 3.5.3.6.6.8.3 1-.3.3-1.4.3-2.9.3-4.3.5-.6 1-.5 1.6-.3 0 1.3-.2 2.5-.2 4-.3.3-.6.6-.3 1.3.2.5.6.5 1 .3 1.1-.5 2.2-.3 3.3.2.6.3 1 0 1.3-.8 1.4 0 2.9-1.1 4.4-.8.3 1.9.6 2.2 1.9 1.7.8-.2 1.4 0 2.2.2 1 .3 2.1.5 2.2-1.4.2-.3.3-.8.3-1.1 0 0 0 .2.2.2.2.3.5.2.8.2h1.3c0 .2.2.2.3 0 1.1 0 2.1 0 3 .3.5.5 1 .3 1.4.3.8-.3 1.7-.2 2.5.2 1.1.6 2.1 0 3-.2 1.1-.2 2.5-.6 3.5.3.6.6.8.3 1-.3.3-1.4.3-2.9.3-4.3.5-.6 1-.5 1.6-.3 0 1.3-.2 2.5-.2 4-.3.3-.6.6-.3 1.3.2.5.6.5 1 .3.3-.2.5-.2.8-.2 3.5-1.7 7.1-5.6 7.8-9.4.5 2.4 1.7 3.8 3.7 5.1-3.2-1.4-4.9 1.4-4 3h.8c0 .3.2.5.2.6.2.1.5.2.8.2 1.6 0 2.4-1.1 2.2-1.7.8.6 2.1 1.1 3.2 1.6v-.2c.2-.3.2-.5.3-.8h2.4c0 .2.2.3.3 0h.2c-1-.5-2.1-1.3-3-2.1 1 .2 2.7 0 3.8-.3.8 1 2.1 1.9 3.7 2.7.6 0 1.3 0 1.7.3 1.1.6 2.1 0 3-.2 1.1-.2 2.5-.6 3.5.3.6.6.8.3 1-.3.3-1.4.3-2.9.3-4.3.5-.6 1-.5 1.6-.3 0 1.3-.2 2.5-.2 4-.3.3-.6.6-.3 1.3.2.5.6.5 1 .3.6-.3 1.3-.3 1.9-.2 3.5-2.1 4.4-5.4 4.4-9.8 0-7.3-6-11.4-14.8-7.6 3.5-2.7 10.3-5.2 15.1-4.6-2.5 1.3-2.4 6.5 2.1 6.5 4.4 0 5.4-7.9-2.2-7.9 1-2.1 3-4.9 6.7-7.3-1.7 1.9-2.7 4.1-3 5.7 2.9.3 5.2 3.3 5.2 6.7 0 1.3-.3 2.4-1.1 3.7.8 2.5 2.1 6 4.4 8.7 0-.5.2-1 .6-1.6l.2-.2c.6 0 1.3-.2 1.6 0 .8.3.8 1.3.8 1.9v2.7c0 .5-.3 1.4.3 1.6.6.2 1-.6 1.1-1.3.3-1.3 1.3-1.7 2.1-1.3.5.5 1 1.1 1.4 1.7 0 .3 0 .5.2.6.2.3.5.2.8.2 1.6.2 3.2-.2 4.8.3l.3.3c1.6-1.3 2.7-3 4-5.4-.5 1.6-.3 2.5-1 4.1 6.4-3.7 6.4-11.8 6-14.3.8.3 2.4 0 3.5-.6.3 6-1.9 10.8-5.4 14 .2.5.6 1.3 1.1 2.1.6 0 1.4 0 2.1.6.6.6.8.3 1-.3 0-.2.2-.3.2-.5-.6-.5-1.1-1.1-1.6-1.7.8-.5 1.3-1.3 1.7-2.4 0 .2.2.2.2.3.5-.6 1-.5 1.6-.3 0 1 0 1.9-.2 2.9.5.8 1.1 1.6 1.9 2.2.6 0 1.3.2 1.9.5s1 0 1.3-.8c1.4 0 2.9-1.1 4.4-.8.3 1.9.6 2.2 1.9 1.7.8-.2 1.4 0 2.2.2.6.2 1.3.3 1.7-.2 1.4-3.7-1.3-8.6-6.5-13.2 3.7 1.6 7.1 4.9 9.2 6.8-1.4 0-2.1 1.9-1.6 3.3.2-.3.5-.8.6-1.1.2-.2.2-.5.3-.6l.2.2c.3.3.6.8 1 1.1v1c0 .6.2 1 .6.3.2.3.5.2.8.2h.8c1.3-1.3.8-4.3-.6-7.3 1.6 3.5 3.8 5.9 6.7 7.6.7-.1 1.3 0 1.9.3 1.1.6 2.1 0 3-.2 1.1-.2 2.5-.6 3.5.3.6.6.8.3 1-.3.3-1.4.3-2.9.3-4.3.5-.6 1-.5 1.6-.3 0 1.3-.2 2.5-.2 4-.3.3-.6.6-.3 1.3.2.5.5.5.8.3 2.9-2.2 5.2-5.9 4.4-9.8 1.7 3.7 6.2 7.5 10.8 9.8.2-.3.3-.6.3-1.1.2-.3.3-.8.3-1.1 0 0 0 .2.2.2.2.3.5.2.8.2h1.3c0 .2.2.2.3 0 1.1 0 2.1 0 3 .3.5.5 1 .3 1.4.3.8-.3 1.7-.2 2.5.2 1.1.6 2.1 0 3-.2 1.1-.2 2.5-.6 3.5.3.6.6.8.3 1-.3.3-1.4.3-2.9.3-4.3.5-.6 1-.5 1.6-.3 0 1.3-.2 2.5-.2 4-.3.3-.6.6-.3 1.3.2.5.6.5 1 .3 1.1-.5 2.2-.3 3.3.2.6.3 1 0 1.3-.8 1.4 0 2.9-1.1 4.4-.8.3 1.9.6 2.2 1.9 1.7.5-.2 1-.2 1.3 0-1.7-2.1-2.7-4.4-2.9-6.2-2.4.5-5.4-1.4-5.4-5.2-.5-4.9-1.4-8.7-3.8-11.6 2.7 1.6 4.9 6.4 5.9 8.3.3-.2.6-.3.8-.3 0-2.2-.8-4.1-1.3-5.4 1.9 2.4 3.3 4.9 3.7 7.3-1-.3-2.7 0-2.7 1.9 0 1.6.8 2.5 2.4 2.5s2.1-1.6 2.1-2.9c0-8.4-5.4-13.2-12.2-14.1 2.2-3.5 3.7-10 4.1-13 .5 4 0 9.1-.5 11.4 4.1 1.3 11 7 11 14.5 0 4-1.3 5.2-1.3 8.1 0 1.3 0 2.7 1.4 5.1 1 .3 1.9.5 2.2-1.4 0-.2.2-.3.2-.5.2 0 .3 0 .5.2.5.5 1 .3 1.4.3.8-.3 1.7-.2 2.5.2 1.1.6 2.1 0 3-.2 1.1-.2 2.5-.6 3.5.3.6.6.8.3 1-.3.3-1.4.3-2.9.3-4.3.5-.6 1-.5 1.6-.3 0 1.3-.2 2.5-.2 4-.3.3-.6.6-.3 1.3.2.5.6.5 1 .3 1.1-.5 2.2-.3 3.3.2.6.3 1 0 1.3-.8 1.4 0 2.9-1.1 4.4-.8.3 1.9.6 2.2 1.9 1.7.2 0 .5-.2.6-.2 2.5-2.2 4.6-5.7 3.8-9.4.8 1.6 2.1 3.3 3.7 4.9 0-.3-.2-.5-.2-.8-.6-1.3-.5-2.1.3-3l.2-.2c-3.3-2.7-6.2-6.5-6.5-12.7 2.9 4.4 9.8 4.3 9.8.2 0-3.2-4.4-3.3-5.6-.3-3.7-3.2-4.9-9.7-4.3-12.7.6 3.8 2.4 7.1 4.4 8.9 1.3-.6 2.5-.8 3.7-.6-2.7-3-6.5-5.1-6.5-9.7 0-2.9 1.3-5.9 4.9-8.6-1.6-1.1-2.9-2.2-5.2-3 3.3.2 5.7 1.3 7.1 1.7 1.9-1 5.1-1.7 8.6-1.7-7.9 1.7-12.7 5.9-12.7 11.6 0 1.4 1.3 3.5 2.7 3.5 4.1 0 2.9-5.4-.3-3.3-.5-3 2.2-6.7 4.6-7.6-1 2.2-1.7 3.5-1.7 4.9 3.5.6 4.6 8.1-1.7 8.6 2.4 2.4 4.6 5.4 4.6 8.6 0 2.2-1.4 4-3.2 4.9 1 2.9 2.1 5.7 4 8.9-.3.8-.8 1.6-1.3 2.4l.2.2c.5.5 1 1.1 1.4 1.7 0 .3 0 .5.2.6.2.3.5.2.8.2 1.6.2 3.2-.2 4.8.3.5.5 1 .3 1.4.3.8-.3 1.7-.2 2.5.2 1.1.6 2.1 0 3-.2 1.1-.2 2.5-.6 3.5.3.6.6.8.3 1-.3.3-1.4.3-2.9.3-4.3.5-.6 1-.5 1.6-.3 0 1.3-.2 2.5-.2 4-.3.3-.6.6-.3 1.3.2.5.6.5 1 .3 1.1-.5 2.2-.3 3.3.2.6.3 1 0 1.3-.8 1.4 0 2.9-1.1 4.4-.8.3 1.9.6 2.2 1.9 1.7.8-.2 1.4 0 2.2.2 1 .3 2.1.5 2.2-1.4.2-.5.3-1.1.6-1.6.2-.3.5-.8.6-1.1.2-.3.3-1.1.8-1 .2 0 .5.2.6.2 0 .8-.2 1.6 0 2.2 0 .6.2 1 .6.3l.3-.3c.5-1 .6-1.9.2-2.7-.6-1.3-.5-2.1.3-3 .2-.3.3-.6.3-1.1-.2-.2-.2-.3-.3-.5.6-1.4.2-3 .2-4.4.2-3.5.2-7.1.3-10.6 0-.3-.2-.6-.2-1 0-.3 0-.5.2-.8 0-.2-.2-.2-.2-.3-.2-.5 0-1 0-1.4.2-1.3.6-2.5.3-3.8v-1.6c.3-.5.2-1.1.3-1.7.2-1.4 0-2.9.2-4.1l.3-.3h.2c.2-.2.2-1.4.2-2.1v-.8c-3.8-6-3.5-8.3-3.8-10.7zM3.5 459.5c0-.1 0-.1 0 0 0-.1 0-.1 0 0zm1.8-15.7h.2c0 .2-.2.2-.2 0zm10.5-9.4-.2-.2h.2v.2zm0 .4c0-.2 0-.2 0 0 0-.2 0-.2 0 0zm.1-2.7s0-.2 0 0c0-.2 0-.2 0 0zm.8-11.3c0 .1 0 .1 0 0 0 .1 0 .1 0 0 0 .1 0 .1 0 0zm0 26c0-.1 0-.1 0 0zm2.3 15.8s0-.2 0 0c0-.2 0 0 0 0zm.6-6.9c0-.1 0-.1 0 0 0-.1 0 0 0 0zm-.2-36.2.3.3c-.1 0-.1-.1-.3-.3zm2.9 8.6v-.2.2zm10.5 15.6-.2-.2h.2v.2zm59.4-12.3c0 .2 0 .2 0 0 0 .2 0 .2 0 0zm-.2 2.1v.2l-.2-.2h.2zm-2.8-12.9c-.2 0-.2 0 0 0zm-5 5.4s0 .2 0 0c0 .2 0 .2 0 0 0 .2 0 .2 0 0zm-4.4 8.8c-.5.2-1.7 1-2.4 1.6-1.6-3.7-2.9-8.7-2.9-12.2 1 4 3.1 7.7 5.3 10.6zM73.6 420c-1.1 7.6.6 15.2 3.7 19.5 1.9-1.7 3-3.2 6.5-4.3-3.5 2.5-5.6 5.9-7.8 9.4-.8-4.9-6.5-8.1-4.3-21.9-3.5 1.4-7.6 3.3-10.5 3.3 2.4-.5 9.2-3.3 12.4-6zm-3.2 14c-.1 0-.1-.2 0 0-.1-.2-.1-.2 0 0-.1-.2 0-.2 0 0zm-15.1-6.4v.2h-.2l.2-.2zm5.3.8c4.3-.5 6.7-1.3 9.5-3.3-.8 2.9-2.2 5.4-3.8 7.8-4.4 6.5-11 11.6-13.7 16.5 1.4-6.4 10.5-13.7 12.1-19.5-.6.3-1.7.5-2.1.5-1.3 3.7-6.7 10.2-9.2 11.9 4.5-6 7.5-11.4 7.2-13.9zm6.6 3.5-.2-.2h.2v.2zm-14.4-12.4c-.2 0-.2-.2-.3-.3.1.2.1.3.3.3zm-3 26.9c0 .1 0 .1 0 0zm7.9 22.8H36.9c4.1-1.3 8.9-5.6 9.7-10.2.5 2.4 1.7 3.8 3.7 5.1-4.3-1.9-5.9 3.8-2.4 3.8 1.6 0 2.4-1.1 2.2-1.7 1.9 1.3 5.2 2.6 7.6 3zm3-17c1.9 4.9-1.1 10.3-6.7 10.3-.8 0-1.6-.2-2.2-.3-5.9-1.6-4.6-10.2 1-10.2 1.9 0 3.3 1.1 3.3 2.7s-1.6 2.7-3.2 2.1c1.7-.6 1.3-2.4-.2-2.4-3 0-3.7 5.6 1.3 5.6 5.7 0 5.7-8.4.5-10 2.9-5.4 7-7.8 12.2-14-4.4 7.9-8.1 11-8.7 13 .5.3 1 .6 1.3 1.1 3.2-3.3 8.7-5.7 12.9-5.7-7.3 2-10 5-11.5 7.8zm-8.1 3.2c0-.2 0-.2 0 0 0-.2 0 0 0 0zM65.7 443v.3-.3zm2.8 18c.2.1 0 0 0 0zm12.9 4.6c-.5-1.1-.5-1.7-.2-2.5.2.3.2.8.2 1.3v1.2zm2.5-10.4c-.6.2-1.3.3-1.9.3.6 2.7.2 11.9-10 13.7 5.4-2.1 6.7-5.6 6.7-11 0-7.3-6-11.4-14.8-7.6 3.5-2.7 10.3-5.2 15.1-4.6-2.5 1.3-2.4 6.5 2.1 6.5 4.4 0 5.4-7.9-2.2-7.9 1-2.1 3-4.9 6.7-7.3-1.7 1.9-2.7 4.1-3 5.7 2.9.3 5.2 3.3 5.2 6.7 0 1-.2 1.9-.8 2.9-.2.2-.3.4-.3.6 1 3 2.5 7.3 5.9 10.2-3-.8-6.9-5.6-8.7-8.2zM93 446s0-.1 0 0zm.6-24.4c0-.2 0-.2 0 0zm2.2-2.9.3.3c-.1 0-.3-.1-.3-.3zm2.7 8.6v-.2c.2 0 .2.2 0 .2zm16.7 41s-.1 0 0 0c-.1 0-.1 0 0 0zm19.9-7s0 .1 0 0c0 .1 0 .1 0 0zm.8-42.6c-.2 0-.2-.2-.3-.3.1.2.3.2.3.3zm11.4 2.6c-1.9 1.4-7 2.2-11.3 1.6.8.6 1.3 5.6 1 8.9-.8-4.4-3.8-9.4-7.1-11.6 3.1.9 11.5 1.7 17.4 1.1zm-14.1 9s-.2 0 0 0zm-1.3 2.7v.2l-.2-.2h.2zm-3-12.9c.1 0 .1.2 0 0zm-17.5 17.7c-6.7-.5-8.1-7.6-5.2-11.6-.6-2.4-2.4-5.2-4.6-6 3 0 5.4 2.1 6.7 4.1.8-.5 1.7-.6 3.2-.6 1.7-1.6 4.3-3.5 7.6-3.5-3.3 1.6-4.9 3.3-5.6 4.3 2.5 2.2 1 8.3-3.8 6.2 3.3-.8 3.8-4.3 1.1-4.3-4.4 0-4.8 9.1 1.3 9.1 2.4 0 4.9-2.2 4.8-4.9 2.4 7.8-8.7 8.9-9.5 20.2-1.6-5.4 1-10.8 4-13zm2.2-4.3s0-.2 0 0c0-.2 0 0 0 0zm-3-2.1-.2-.2h.2v.2zm-.9 1c-.2 0-.2 0 0 0-.2 0-.2 0 0 0zm4.2 17.3s0-.2 0 0zm18.9-4c0-.1 0-.1 0 0 0-.1 0-.1 0 0 0-.1 0-.1 0 0zm-23.5 4c.6-3.2 3-8.7 8.3-12.1-1.3 1.1-4 5.7-4.4 8.3 4.4-2.1 12.4-3.5 20.8-1.7-10.1-.2-16.7 1.7-24.7 5.5zm27.4-7c-4.4-1.7-12.5-1.6-18.3-.6 5.7-2.5 12.2-3.3 16.8-2.7.6-2.4 2.5-6.4 5.4-10.2-.6-1.9-1.4-3-2.4-4.6 1.6 1.1 3.3 1.6 4.8 1.7 2.7-2.9 6-5.4 9.8-6.5-8.5 4.3-13.9 15.9-16.1 22.9zm1.7-15.7v-.2c.2 0 .2.2 0 .2zm16.7 41c-.2 0-.2 0 0 0-.2 0-.2 0 0 0-.2 0-.2 0 0 0zm11.6-7s0 .1 0 0c0 .1 0 .1 0 0 0 .1 0 0 0 0zm.8-6.9s0 .2 0 0zm0-35.7c-.2 0-.2-.2-.3-.3l.3.3zm-11.1 1.6c3.3.8 5.9 1.4 12.7-.2-4.3 1.4-6.4 4.1-5.6 9.1-1-4.9-5.4-7.8-7.1-8.9zm24.1 22.2-.2-.2h.2v.2zm.5-10.5c.1-.1.1 0 0 0zm-6.5-7.9c1.4 1.4 1.7 2.4 1.7 4.3 0 2.1-2.1 4.1-4.4 6.4-.5 2.5-.3 4.8 0 6.8-.6.3-1.4 1.4-1.9 2.2l-.3-7.1c-2.4 2.1-4.8 4.9-6.7 9.2.5-11 10.3-14.1 10.3-18.4 0-1.6-.8-3.2-3-3.2-1.7 0-2.7 1.3-2.7 2.7 0 1.1.6 2.5 3.3 1.4-1.7 2.4-5.4 2.4-7.6 9.1-.3-3.3 1.3-7.5 2.7-8.7-1.3-2.5 0-7 4.9-7 4.1 0 8.6 0 10.3-1.6-1.7 3.6-5.8 3.7-6.6 3.9zm-4.3 2.9v-.2.2zm11.9 4.1-.2-.2h.2v.2zm1.3 29.1c0 .1 0 0 0 0zm1.7-27.2c0 .2 0 0 0 0zm2.5-12.7c5.7.5 6.5 1.7 8.4 3.2 1.7-1.6 6-3.2 8.6-3.2-5.4 1.4-8.6 5.2-10 8.9-.3-4.6-2.3-7.6-7-8.9zm4.8 35.1c0-.2 0-.2 0 0 0-.2 0-.2 0 0zm1.1 4.6s0-.2 0 0c0-.2 0 0 0 0zm3.8-2.1c0-.1 0-.1 0 0 .2-.1.2 0 0 0zm-1.2-1.6c.6-3.7.8-7.5-.2-11.6 1.3.5 2.2.5 3.5.6-.5 4.2-1.3 8.3-3.3 11zm7-11.6s0-.1 0 0c0-.1 0-.1 0 0 0-.1 0 0 0 0zm.4 10.2c1-4.3 1-9.8-.2-12.5-1.6 1-5.9 1.3-10.2-1.1 4.6.6 9.2-.6 12.9-3.2.4 4.6.7 10.8-2.5 16.8zm6.1-22.1-.2-.2h.2v.2zm.1.4s0-.2 0 0c0-.2 0-.2 0 0zm0-2.4c0-.2 0-.2 0 0 0-.2 0-.2 0 0zm.8 14.4c0-.1 0-.1 0 0zm-4-19.2c1.7.8 2.5 2.5 2.4 4.3 0 3.3-2.2 6-6 6-3.3 0-4.8-2.4-5.2-3.8-1.1 2.4-.8 5.1.2 6.7-1 .5-2.1.6-3.2.3-1.1-4.8.5-10.6 6.4-14.1-2.9 3-1.1 7.8 1.7 7.8 1.9 0 3-1.3 3-2.5 0-1.4-1-2.9-3-2.2-.3-4.4 4.9-7.9 10.2-7.9-5 .6-6.3 3.7-6.5 5.4zm6.9-8.1.3.3c-.2 0-.3-.1-.3-.3zm2.7 8.6v-.2c.1 0 .1.2 0 .2zm10.5 15.5-.2-.2h.2v.2zm1.5-11.4-.2-.2h.2v.2zm1.3 29.2s0-.1 0 0zm15.3-27.3-.2-.2h.2v.2zm0 .3c0-.1 0-.1 0 0 0-.1 0-.1 0 0zm.1-2.7s0-.1 0 0c0-.1 0-.1 0 0zm.8-11.2s0 .1 0 0c0 .1 0 .1 0 0 0 .1 0 .1 0 0 0 .1 0 .1 0 0zm0 26c0-.2 0-.2 0 0zm2.2 15.7s0-.1 0 0c0-.1 0 0 0 0zm.7-6.8c0-.2 0-.2 0 0 0-.2 0 0 0 0zm-.2-36.2.3.3c-.1 0-.1-.2-.3-.3zm2.9 8.6v-.2.2zm10.5 15.5-.2-.2h.2v.2zm1.4-11.4-.2-.2h.2v.2zm34.5-.5v.2c-.2 0-.2-.2 0-.2-.2 0-.2 0 0 0zm2.3 5.3c-.5.2-1.7 1-2.4 1.6-1.6-3.7-2.9-8.7-2.9-12.2 1.2 4 3.1 7.7 5.3 10.6zM283 417.3c-.2 0-.2-.2-.3-.3.1.1.3.1.3.3zm-2.3 2.4c-.1 0-.1 0 0 0-.1 0-.1 0 0 0zm-.5 9.2c-.1 0-.1 0 0 0zm-.3-10.5c0-.2 0-.2 0 0zm-.8 13.2v.2l-.2-.2h.2zm3.7-1.3c-1.3 3.7-6.7 10.2-9.2 11.9 4.4-5.9 7.5-11.3 7.3-13.8 4.3-.5 6.7-1.3 9.5-3.3-3.2 10.6-13.8 17.6-17.6 24.3 1.4-6.4 10.5-13.7 12.1-19.5-.7.3-1.6.4-2.1.4zm2.7-4.8v-.2c.2.1.2.2 0 .2zm-3.3 34.5c0-.1 0-.1 0 0 0-.1 0 0 0 0zm.8-7c0 .2 0 0 0 0zm-2.1-.8c1.9 4.9-1.1 10.3-6.7 10.3-8.4 0-7.3-10.3-1.3-10.3 1.9 0 3.3 1.1 3.3 2.7s-1.6 2.7-3.2 2.1c1.7-.6 1.3-2.4-.2-2.4-3 0-3.7 5.6 1.3 5.6 5.7 0 5.7-8.4.5-10 2.9-5.4 7-7.8 12.2-14-4.4 7.9-8.1 11-8.7 13 .5.3 1 .6 1.3 1.1 3.2-3.3 8.7-5.7 12.9-5.7-7.3 1.8-9.8 4.8-11.4 7.6zm15.2-7.6c-.8-4.9-6.5-8.1-4.3-21.9-3.5 1.4-7.6 3.3-10.5 3.3 2.5-.3 9.4-3.2 12.5-6-1.1 7.6.6 15.2 3.7 19.5 1.9-1.7 3-3.2 6.5-4.3-3.6 2.6-5.8 5.9-7.9 9.4zm12.9 14c0-.2 0-.2 0 0zm3.8-2.1c0-.1 0-.1 0 0 .2-.1.2 0 0 0zm1.8-15.5c0-.2 0-.2 0 0zm52.2-24.5c-.2 0-.2-.2-.3-.3.2.1.3.1.3.3zm-2.2 2.4s-.2 0 0 0c-.2 0-.2 0 0 0zm-4.8-1c0 .2 0 .2 0 0zm-3 2.1s-.3 1.7-1.7 3.7c-1-1.6-3.8-3.2-6.5-3.7h8.2zm-10.2 11.1s0 .2 0 0c0 .2 0 .2 0 0zm-3.1-1.9-.2-.2h.2c.1 0 .1.2 0 .2zm0-9.2c-5.4 1.6-8.3 3-10.5 4.8 0 3.3-.5 6.7-1.4 7.8.2-3.7-.2-6.2-1.4-9.1 3.7-1.9 8.2-3.2 13.3-3.5zm-.8 10.2c-.2 0-.2 0 0 0-.2 0-.2 0 0 0zm-.7 10.1v.3c0-.1-.1-.1 0-.3-.1 0 0 0 0 0zm-3.1 4.1c-.2 0-.2 0 0 0-.2 0-.2 0 0 0-.2 0-.2 0 0 0zm-9.9-27.6c-.2 0-.2-.2-.3-.3l.3.3zm-2.2 2.4s-.2 0 0 0c-.2 0-.2 0 0 0zm-5.3 13.7c0-.2 0-.2 0 0zm3.5-1.5-.2-.2h.2v.2zm.2.3s0-.1 0 0zm.8 12.1c0-.1 0-.1 0 0zm-4-23.8h12.5c-1.7.3-4.4 1.3-7.1 2.4 2.4 3 2.9 9.7.3 15.7 1.3-12.4-2.3-16.2-5.7-18.1zm6.2 39.5s0-.1 0 0zm2.4 0c-2.2-2.5-3.2-6.7-2.1-10 .8 1.1 1.9 1.6 2.9 1.6-.8 2.2-.5 4.6.8 6.2-.8 1.6-1.6 2.2-1.6 2.2zm14.3-1.2s0 .1 0 0c0 .1 0 .1 0 0zm9.8-5.3c-3.7-4.3-8.4-9.1-9.7-9.8 0 0-1 .8-1.7 1.7 4.3 3 11 9.7 12.7 13.8-4.3-4.6-11.9-9.5-15.7-11.6-1.7 1.3-3.5 2.2-6.4 2.2-3.7 0-6-2.7-6-5.4 0-4.6 4-5.1 5.4-11.8.3 2.2.2 4.4-.3 6h1c.6 0 1.3.2 1.7.3.8-5.4-.6-11-1.3-13.2 2.7 3.5 3.8 10.6 3.8 13.3 0 2.9-1.3 5.1-3.3 5.1.6-1.4.6-3.7-1.3-3.7-3.5 0-4.9 6.7 1.7 6.7 4.9 0 7.3-5.1 10.2-7.8 1.1 1.4 2.7 2.7 3.7 4.3 2.9-3 6-8.3 7.1-10.3-1.1 5.1-3.5 9.5-5.4 12.5l3.8 7.7zm-6.5-13.5c-.6-.6-1.1-1.3-1.9-2.1 2.5-2.4 10.2-11.4 11.6-15.4-2.8 9.1-6.6 14.2-9.7 17.5zm14.6-8.6-.2-.2h.2v.2zm3.2 28.3c0-.1 0-.1 0 0zm3.4-34.4v-.2c.1 0 .1 0 0 .2zm-12.1 5.5c1.3-2.2 2.5-7.3 2.4-10.3H371c-10.9 1.3-7.7 4.8-13.7 10.3zm15.4 2.1c0 .1 0 .1 0 0zm3.8 11.7c0-.1 0-.1 0 0 0-.1 0-.1 0 0zm-2.9-24.1c2.4.5 4.9 1 7.9 4-.6.6-1.3 1.3-1.7 2.2-1.2-3.2-4.2-5.3-6.2-6.2zm9.1 11.6c0 1.4 1.3 3.5 2.7 3.5 4.1 0 2.9-5.4-.3-3.3-.5-3 2.2-6.7 4.6-7.6-1 2.2-1.7 3.5-1.7 4.9 3.5.6 4.6 8.1-1.7 8.6 2.4 2.4 4.6 5.4 4.6 8.6 0 2.2-1.4 4-3.2 4.9 1 2.9 2.1 5.7 4 8.9-.6 1.4-1.4 2.7-2.7 4.1-.6-.2-1.3-.6-1.7-1.3.6-1 1-1.3 1.7-2.9-1.3-2.4-2.9-5.6-3.8-8.1-.8 0-1.9-.2-2.9-.6.6 2.7 2.1 5.9 4.6 9.2-4.1-3-8.3-6.7-8.6-14.3 2.9 4.4 9.8 4.3 9.8.2 0-3.2-4.4-3.3-5.6-.3-3.7-3.2-4.9-9.7-4.3-12.7.6 3.8 2.4 7.1 4.4 8.9 1.3-.6 2.5-.8 3.7-.6-2.7-3-6.5-5.1-6.5-9.7 0-2.9 1.3-5.9 4.9-8.6-1.6-1.1-2.9-2.2-5.2-3 3.3.2 5.7 1.3 7.1 1.7 1.9-1 5.1-1.7 8.6-1.7-7.7 1.3-12.5 5.5-12.5 11.2zm19.2-15.4c-.2 0-.2-.2-.3-.3l.3.3zm-2.4 2.2c0 .2 0 .2 0 0zm-1.5 12.2-.2-.2h.2v.2zm3.1 28.3c0-.2 0-.2 0 0zm8.1-19.1c-.6-9.8-1.6-14.3-2.7-16.8-1-.3-2.4-.3-2.9-.3 1.7 1.7 2.9 5.9 3.5 9.2-2.4-6-5.6-11-9.5-11.9 4.3 0 8.9.6 11.6 1.3.8 5.7.8 13.8 0 18.5zm4.5-16.6c-.3 3.7-1.3 8.1-2.2 10.2.5-6.8 0-9.5-.6-12.7 3 .8 6.4.3 8.9-.5-3.4 1.9-4.4 2.3-6.1 3zm17.8-7.3c-.2 0-.2-.2-.3-.3l.3.3zm-2.9 28.9c1.3-.8 3.7-1.3 6 .2-3.7-.8-6.7 1.1-6.7 3.7 0 1.1.8 2.2 1.7 2.9-.6 4.9-3.7 7.9-4.4 13.5-1.3-3.8 1.3-7.5 1.3-11.4 0-3-4.9-12.1 5.7-14.3-2.2-1.7-3.2-2.9-4.3-4.8-.5 1-.2 3 .5 4.4-2.9-2.2-1.7-7.1.3-9.2 1.3 6.7 5.4 7 8.9 12.1-4.5-1.3-7.7.5-9 2.9zm8.7-12.9s0-.2 0 0zm3.9 11.6s0-.2 0 0zm3.3-3.8-.2-.2h.2v.2zm.5-10.5s0-.2 0 0c0-.2 0 0 0 0zm.9-1-.2-.2h.2v.2zm-6 .2c0 2.5-3.3 4.3-6 3 .5 1.1 1.3 2.5 2.4 4.3-3.2-1.7-6-5.2-6-8.7 0-2.4 1.3-4.6 3.2-5.4-1.7-.6-4.1-1-6.5-.6 3.2-1.1 8.7-1.7 12.1.8-3.5 0-6 2.2-6 5.1 0 1.7.8 2.9 2.4 2.9 2.7 0 2.4-3.3.8-3.3-.5 0-1.6.6-1.7 1.1-.2-2.1 1.4-3.3 3-3.3 1 0 1.6.3 1.9 1 1.4-2.1 4.4-4.9 8.6-4.9-5.2 1.3-8.2 6.4-8.2 8zm-5.7-4.3c-.2 0-.2 0 0 0v-.1c-.2 0 0 0 0 .1zm23.2 32.9c0 .2 0 .2 0 0zm-.2-17c-.2 0-.2 0 0 0zm-5.9-10.6c0-.2 0-.2 0 0zm6.2-5.4c-.6.6-1.3 1.3-1.7 2.2-1.6-3.2-4.4-5.2-6.4-6.2 2.6.5 4.9.9 8.1 4zm16.1 6-.2-.2h.2v.2zm0 .3c0-.1 0-.1 0 0 0-.1 0-.1 0 0 0-.1 0-.1 0 0zm.1-2.5c-.1 0-.1 0 0 0-.1 0-.1 0 0 0zm0-.2s0-.1 0 0c0-.1 0-.1 0 0 0-.1 0 0 0 0zm.8-11.3s0 .2 0 0c0 .2 0 .2 0 0 0 .2 0 .2 0 0 0 .2 0 .2 0 0zm0 26.1c0-.2 0-.2 0 0zm2.2 15.7s0-.2 0 0c0-.2 0 0 0 0zm.7-6.8c0-.2 0-.2 0 0 0-.2 0 0 0 0zm-.2-36.2.3.3c-.1 0-.1-.2-.3-.3zm2.9 8.5v-.2.2zm10.5 15.6-.2-.2h.2v.2zm1.4-11.4-.2-.2h.2v.2zm1.4 29c0 .2 0 0 0 0zm1.6-27.1c.2.1 0 0 0 0zm7.3 22.4c0-.2 0-.2 0 0zm1.1 4.6s0-.2 0 0zm-231.9 12.5c.5.2 1 .2 1.3 0h-1.3z" class="st72"></path><path d="M382.7 463.7c-1 1.4-2.2 2.7-3.8 3.7.3 0 .5.2.8.3.6.3 1 0 1.3-.8 1.4 0 2.9-1.1 4.4-.8.2.6.2 1.1.3 1.4.2.2.5.2.6.3-.2 0-.2.2-.3.2.3.2.6.2 1.3 0 .8-.2 1.4 0 2.2.2.3.2.6.2 1 .2-4.1-1.6-6.7-3.6-7.8-4.7zm-45.1 3.8c.1.3.3.5.6.5-.1-.2-.3-.4-.6-.5zM190 469.9h.2c.8.2 1.6.3 2.1-.5l-2.3.5zm-54.6-1c.2 0 .3.2.5.2 1.1.6 2.1 0 3-.2 1.1-.2 2.5-.6 3.5.3.6.6.8.3 1-.3.3-1 .3-1.9.3-3-2.3 1.4-5 2.5-8.3 3zm194.4-2.2-1 .5c.6.3 1.3.3 1.9.2-.3-.2-.6-.6-.9-.7zm-128.3-7.3c-.6 0-1.3 0-1.9-.3-.5.8-1 1.4-1.4 2.1.6.3.8 1.3.8 1.9 1.4-1.5 2.1-2.9 2.5-3.7z" class="st72"></path></svg>