<svg xmlns="http://www.w3.org/2000/svg" viewBox="0 0 512 512"><path fill="#AEB9CC" d="M444.15 247.23v70.97l-209.57 2.67v-73.64c0-44.43 27.65-82.4 66.7-97.65 11.8-4.62 24.65-7.14 38.08-7.14 13.37 0 26.13 2.5 37.88 7.05 39.15 15.17 66.9 53.2 66.9 97.73z"/><path fill="#C8D0E2" d="M444.15 278.6v39.6l-209.57 2.66V278.6c0-44.44 27.65-82.42 66.7-97.66 11.8-4.62 24.65-7.14 38.08-7.14 13.37 0 26.13 2.5 37.88 7.05 39.15 15.18 66.9 53.22 66.9 97.74z"/><path fill="#EAA96E" d="m377.24 149.5-13.08 15.1-24.8 28.64-24.96-28.6-13.14-15.06c11.82-4.62 24.67-7.14 38.1-7.14 13.37 0 26.13 2.5 37.88 7.05z"/><path fill="#FBCB99" d="m364.17 164.6-24.8 28.64-24.97-28.6c8-1.97 16.36-3 24.96-3 8.56 0 16.86 1.02 24.8 2.95zm43.33-89.92c0 1.4-.03 2.8-.12 4.17-.16 2.68-.48 5.3-.95 7.9a67.207 67.207 0 0 1-5.14 16.38c-10.78 23.43-34.46 39.7-61.93 39.7-28.08 0-52.2-17-62.6-41.24a66.33 66.33 0 0 1-4.47-14.9c-.46-2.54-.77-5.14-.93-7.8-.1-1.4-.14-2.8-.14-4.22 0-37.63 30.5-68.15 68.14-68.15 37.63 0 68.14 30.52 68.14 68.15z"/><path fill="#EAA96E" d="M406.43 86.74a67.358 67.358 0 0 1-5.14 16.4c-56.96.3-81.88-25-81.88-25-12.94 12.6-29.64 19.6-42.66 23.45a67.36 67.36 0 0 1-4.46-14.9c5.72-31.83 33.57-56 67.07-56 33.5 0 61.36 24.2 67.06 56.04z"/><path fill="#694B4B" d="M407.5 74.68c0 1.4-.03 2.8-.12 4.17-61.27 2.22-87.96-24.9-87.96-24.9-3.84 3.75-8 7-12.3 9.8-12.3 8.07-25.75 12.64-35.75 15.16-.1-1.4-.14-2.8-.14-4.22 0-37.63 30.5-68.15 68.14-68.15 24.3 0 45.63 12.73 57.7 31.88a67.965 67.965 0 0 1 10.44 36.28z"/><path fill="#563939" d="M407.5 74.68c0 1.4-.03 2.8-.12 4.17-61.27 2.22-87.96-24.9-87.96-24.9-3.84 3.75-8 7-12.3 9.8 11.93-19.8 33.63-33.06 58.43-33.06 11.37 0 22.1 2.77 31.5 7.7 6.63 10.5 10.46 22.94 10.46 36.28z"/><path fill="#213847" d="M277.87 247.23v70.97L68.3 320.87v-73.64c0-44.43 27.65-82.4 66.68-97.65 11.8-4.62 24.66-7.14 38.1-7.14 13.36 0 26.13 2.5 37.87 7.05 39.15 15.17 66.92 53.2 66.92 97.73z"/><path fill="#324A5E" d="M277.87 278.6v39.6L68.3 320.86V278.6c0-44.44 27.65-82.42 66.68-97.66 11.8-4.62 24.66-7.14 38.1-7.14 13.36 0 26.13 2.5 37.87 7.05 39.15 15.18 66.92 53.22 66.92 97.74z"/><path fill="#EAA96E" d="m210.95 149.5-13.07 15.1-24.8 28.64-24.97-28.6L135 149.57c11.8-4.62 24.66-7.14 38.1-7.14 13.36 0 26.13 2.5 37.87 7.05z"/><path fill="#FBCB99" d="m197.88 164.6-24.8 28.64-24.97-28.6c8-1.97 16.37-3 24.98-3 8.55 0 16.85 1.02 24.8 2.95zm43.34-89.92c0 1.4-.04 2.8-.13 4.17-.17 2.68-.5 5.3-.95 7.9a67.226 67.226 0 0 1-5.15 16.38c-10.77 23.43-34.44 39.7-61.9 39.7-28.1 0-52.2-17-62.63-41.24a66.81 66.81 0 0 1-4.45-14.9c-.46-2.54-.78-5.14-.94-7.8-.1-1.4-.14-2.8-.14-4.22 0-37.63 30.5-68.15 68.15-68.15 37.62 0 68.12 30.52 68.12 68.15z"/><path fill="#EAA96E" d="M240.15 86.74a67.377 67.377 0 0 1-5.15 16.4c-56.95.3-81.86-25-81.86-25-12.94 12.6-29.65 19.6-42.67 23.45a67.34 67.34 0 0 1-4.45-14.9c5.7-31.83 33.57-56 67.07-56 33.5 0 61.34 24.2 67.05 56.04z"/><path fill="#694B4B" d="M241.22 74.68c0 1.4-.04 2.8-.13 4.17-61.27 2.22-87.96-24.9-87.96-24.9-3.84 3.75-8 7-12.3 9.8-12.3 8.07-25.75 12.64-35.76 15.16-.1-1.4-.14-2.8-.14-4.22 0-37.63 30.5-68.15 68.15-68.15 24.28 0 45.6 12.73 57.67 31.88 6.63 10.5 10.45 22.94 10.45 36.28z"/><path fill="#563939" d="M241.22 74.68c0 1.4-.04 2.8-.13 4.17-61.27 2.22-87.96-24.9-87.96-24.9-3.84 3.75-8 7-12.3 9.8 11.92-19.8 33.63-33.06 58.43-33.06 11.37 0 22.08 2.77 31.5 7.7 6.63 10.5 10.45 22.94 10.45 36.28z"/><path d="M106.77 442.66h14.77v16.94h-14.77z"/><path fill="#C62E1E" d="M502.73 430.9v70.97l-209.57 2.67V430.9c0-44.43 27.65-82.4 66.68-97.65 11.82-4.6 24.67-7.14 38.1-7.14 13.37 0 26.13 2.5 37.87 7.06 39.17 15.18 66.93 53.22 66.93 97.74z"/><path fill="#EF4C35" d="M502.73 462.26v39.6l-209.57 2.68v-42.28c0-44.43 27.65-82.4 66.68-97.65 11.82-4.6 24.67-7.13 38.1-7.13 13.37 0 26.13 2.5 37.87 7.05 39.17 15.18 66.93 53.22 66.93 97.74z"/><path fill="#EAA96E" d="m435.8 333.16-13.06 15.1-24.8 28.65-24.97-28.6-13.13-15.05c11.8-4.62 24.66-7.14 38.1-7.14 13.37 0 26.13 2.5 37.87 7.06z"/><path fill="#FBCB99" d="m422.74 348.26-24.8 28.65-24.97-28.6c8-1.96 16.36-3 24.97-3 8.56 0 16.86 1.03 24.8 2.96zm43.36-89.91c0 1.4-.05 2.8-.15 4.17-.16 2.68-.47 5.3-.94 7.9a67.197 67.197 0 0 1-5.14 16.4c-10.76 23.4-34.44 39.68-61.9 39.68-28.1 0-52.2-16.98-62.63-41.24-2.03-4.7-3.54-9.7-4.45-14.88-.46-2.55-.77-5.15-.93-7.8-.1-1.4-.15-2.8-.15-4.23 0-37.63 30.5-68.15 68.15-68.15 37.63 0 68.14 30.52 68.14 68.15z"/><path fill="#EAA96E" d="M465 270.42a67.197 67.197 0 0 1-5.14 16.4c-56.95.3-81.86-25.02-81.86-25.02-12.94 12.6-29.65 19.63-42.67 23.46-2.02-4.7-3.54-9.7-4.45-14.87 5.7-31.86 33.57-56.03 67.07-56.03 33.5 0 61.36 24.2 67.06 56.05z"/><path fill="#694B4B" d="M466.1 258.35c0 1.4-.05 2.8-.15 4.17-61.26 2.22-87.95-24.88-87.95-24.88-3.84 3.73-8 6.98-12.3 9.8-12.3 8.06-25.75 12.62-35.75 15.14-.1-1.4-.15-2.8-.15-4.23 0-37.63 30.5-68.15 68.15-68.15 24.3 0 45.63 12.73 57.68 31.88 6.63 10.5 10.46 22.93 10.46 36.27z"/><path fill="#563939" d="M466.1 258.35c0 1.4-.05 2.8-.15 4.17-61.26 2.22-87.95-24.88-87.95-24.88-3.84 3.73-8 6.98-12.3 9.8 11.92-19.82 33.63-33.08 58.43-33.08 11.37 0 22.08 2.8 31.5 7.72 6.63 10.5 10.46 22.93 10.46 36.27z"/><path fill="#D1AB0D" d="M219.6 430.9v70.97L10 504.54V430.9c0-44.43 27.65-82.4 66.7-97.64 11.8-4.62 24.65-7.15 38.08-7.15 13.37 0 26.13 2.5 37.88 7.06 39.15 15.18 66.9 53.22 66.9 97.74z"/><path fill="#F8CE19" d="M219.6 462.26v39.6L10 504.55v-42.28c0-44.43 27.65-82.4 66.7-97.65 11.8-4.6 24.65-7.13 38.08-7.13 13.37 0 26.13 2.5 37.88 7.05 39.15 15.18 66.9 53.22 66.9 97.74z"/><path fill="#EAA96E" d="m152.68 333.16-13.08 15.1-24.8 28.65-24.96-28.6-13.14-15.05c11.82-4.62 24.67-7.14 38.1-7.14 13.37 0 26.13 2.5 37.88 7.06z"/><path fill="#FBCB99" d="m139.6 348.26-24.8 28.65-24.96-28.6c8-1.96 16.36-3 24.96-3 8.56 0 16.86 1.03 24.8 2.96zm43.35-89.91a68.709 68.709 0 0 1-1.08 12.07 67.632 67.632 0 0 1-5.14 16.4c-10.77 23.4-34.45 39.68-61.92 39.68-28.07 0-52.18-16.98-62.6-41.24-2.03-4.7-3.55-9.7-4.46-14.88-.46-2.55-.77-5.15-.93-7.8-.1-1.4-.13-2.8-.13-4.23 0-37.63 30.5-68.15 68.14-68.15s68.15 30.52 68.15 68.15z"/><path fill="#EAA96E" d="M181.87 270.42a67.632 67.632 0 0 1-5.14 16.4c-56.96.3-81.87-25.02-81.87-25.02-12.94 12.6-29.64 19.63-42.66 23.46-2.03-4.7-3.55-9.7-4.46-14.87 5.72-31.86 33.57-56.03 67.07-56.03 33.5 0 61.37 24.2 67.07 56.05z"/><path fill="#694B4B" d="M182.95 258.35c0 1.4-.04 2.8-.13 4.17-61.27 2.22-87.96-24.88-87.96-24.88-3.84 3.73-8 6.98-12.3 9.8-12.3 8.06-25.75 12.62-35.75 15.14-.1-1.4-.13-2.8-.13-4.23 0-37.63 30.5-68.15 68.14-68.15 24.3 0 45.64 12.73 57.7 31.88 6.62 10.5 10.45 22.93 10.45 36.27z"/><path fill="#563939" d="M182.95 258.35c0 1.4-.04 2.8-.13 4.17-61.27 2.22-87.96-24.88-87.96-24.88-3.84 3.73-8 6.98-12.3 9.8C94.5 227.6 116.2 214.35 141 214.35c11.36 0 22.08 2.8 31.5 7.72 6.62 10.5 10.45 22.93 10.45 36.27z"/><path fill="#3C6F99" d="M374.23 378.1v80.38l-237.38 3.02v-83.4c0-50.33 31.33-93.35 75.54-110.6 13.36-5.24 27.92-8.1 43.14-8.1 15.14 0 29.6 2.82 42.9 7.98 44.34 17.2 75.8 60.28 75.8 110.7z"/><path fill="#6598CB" d="M374.23 413.6v44.88l-237.38 3.02v-47.9c0-50.3 31.33-93.33 75.54-110.6 13.36-5.22 27.92-8.1 43.14-8.1 15.14 0 29.6 2.84 42.9 8 44.34 17.2 75.8 60.28 75.8 110.7z"/><path fill="#EAA96E" d="m298.44 267.4-14.8 17.1-28.1 32.44-28.28-32.4-14.88-17.05c13.38-5.24 27.94-8.1 43.16-8.1 15.14 0 29.6 2.82 42.9 8z"/><path fill="#FBCB99" d="m283.63 284.5-28.08 32.44-28.3-32.4c9.07-2.22 18.54-3.4 28.3-3.4 9.68 0 19.08 1.17 28.08 3.35zm49.09-101.85c0 1.58-.04 3.16-.15 4.72-.18 3.03-.54 6-1.06 8.94a76.142 76.142 0 0 1-5.82 18.58c-12.2 26.53-39.02 44.95-70.13 44.95-31.8 0-59.12-19.23-70.93-46.7-2.3-5.33-4-10.98-5.04-16.85-.52-2.9-.88-5.84-1.06-8.84-.1-1.6-.16-3.2-.16-4.8 0-42.62 34.55-77.18 77.2-77.18 42.6 0 77.16 34.56 77.16 77.2z"/><path fill="#EAA96E" d="M331.5 196.3a76.142 76.142 0 0 1-5.82 18.58c-64.5.34-92.73-28.33-92.73-28.33-14.66 14.28-33.58 22.23-48.33 26.58-2.3-5.33-4-10.98-5.04-16.85 6.47-36.07 38.02-63.45 75.97-63.45 37.94 0 69.5 27.4 75.96 63.48z"/><path fill="#694B4B" d="M332.72 182.65c0 1.58-.04 3.16-.15 4.72-69.4 2.52-99.62-28.2-99.62-28.2-4.35 4.24-9.06 7.92-13.93 11.1-13.95 9.14-29.17 14.32-40.5 17.17-.1-1.6-.16-3.2-.16-4.8 0-42.62 34.55-77.18 77.2-77.18 27.5 0 51.67 14.4 65.32 36.1 7.5 11.9 11.84 25.98 11.84 41.1z"/><path fill="#563939" d="M332.72 182.65c0 1.58-.04 3.16-.15 4.72-69.4 2.52-99.62-28.2-99.62-28.2-4.35 4.24-9.06 7.92-13.93 11.1 13.5-22.43 38.1-37.45 66.18-37.45 12.88 0 25.02 3.15 35.68 8.74 7.5 11.9 11.84 25.98 11.84 41.1z"/><path d="M433.52 324.02c23.4-12.7 39.3-37.5 39.3-65.93 0-24.95-12.26-47.07-31.05-60.7-13.6-26.52-37.3-47.05-65.96-56.5 23.4-12.7 39.3-37.5 39.3-65.93C415.1 33.63 381.47 0 340.12 0c-41.34 0-74.97 33.63-74.97 74.97 0 8.6 1.47 16.83 4.14 24.5-4.34-.68-8.78-1.05-13.3-1.05s-8.96.37-13.3 1.06a74.212 74.212 0 0 0 4.15-24.5C246.85 33.62 213.22 0 171.87 0S96.9 33.63 96.9 74.97c0 28.44 15.9 53.22 39.3 65.93-28.68 9.45-52.36 29.98-65.97 56.5-18.8 13.63-31.04 35.75-31.04 60.7 0 18.84 7 36.07 18.52 49.25v1.12h.96a75.45 75.45 0 0 0 19.8 15.55C32.95 339.04 0 381.97 0 432.46V512h228.32v-45.02h55.36V512H512v-79.54c0-50.5-32.95-93.42-78.48-108.44zm63.7 173.2h-32.55v-61.37H449.9v61.38H345.77V467h37.88v-88.67c0-1.82-.04-3.62-.12-5.4l6.93 7.93v47.45h14.76v-47.44l33.86-38.82c34.28 15.7 58.15 50.32 58.15 90.42v64.77zM298.46 467H331v30.25h-32.55V467zM47.33 435.86v61.38H14.77v-64.77c0-40.1 23.87-74.72 58.15-90.42l33.86 38.82v47.45h14.76v-47.44l6.93-7.94c-.08 1.8-.12 3.6-.12 5.4V467h37.88v30.23H62.1v-61.38H47.33zm7.7-166.5c17.45-6 29.84-14.25 38.34-21.82 10.94 7.8 36.73 22.2 79.48 23.94a60.034 60.034 0 0 1-5.84 15.43 130.7 130.7 0 0 0-15.76 18.57c-10.23 8.03-23.1 12.83-37.08 12.83-29.35 0-53.85-21.12-59.13-48.96zm342.8 97.5-18.4-21.1c-.92-3.5-2-6.93-3.2-10.3 6.96-1.56 14.2-2.38 21.6-2.38 9.14 0 17.98 1.24 26.38 3.56l-26.36 30.22zm-141.83-61-31.37-35.97c9.96-2.88 20.5-4.44 31.37-4.44 10.88 0 21.4 1.56 31.37 4.45L256 305.83zm-23.48-137c11.94 8.66 41.3 25.5 90.74 27.28-6.56 31.1-34.22 54.55-67.26 54.55-33.8 0-61.96-24.53-67.67-56.7 20.32-6.86 34.57-16.44 44.2-25.13zm91.35 101.4c-9.3-5.85-19.4-10.55-30.1-13.87 17.36-8.84 31.23-23.56 38.97-41.53v6.13a74.477 74.477 0 0 0-9.87 37.12c0 4.14.35 8.2 1 12.16zM218.23 256.4c-10.7 3.32-20.8 8.02-30.1 13.88.65-3.96 1-8.02 1-12.17 0-13.5-3.6-26.17-9.87-37.13v-6.12c7.74 17.97 21.62 32.7 38.97 41.53zm179.6 61.92c-13.97 0-26.84-4.8-37.07-12.83a128.93 128.93 0 0 0-15.77-18.57c-2.97-5.4-5.1-11.32-6.3-17.57 17.46-5.98 29.85-14.23 38.35-21.8 10.94 7.8 36.73 22.2 79.48 23.94-6.1 26.78-30.1 46.83-58.7 46.83zm-10.47-81.65c3.83-4.87 5.55-8.3 5.74-8.7l-13.28-6.44c-.1.23-10.18 20.3-42.03 32.47 2.12-31.28 28.23-56.08 60.04-56.08 32.74 0 59.45 26.27 60.17 58.85-37.35-1.38-60.43-13.3-70.64-20.1zm-62.63-55.26c-43.9-1.43-70.63-15.74-81.9-23.4 4.7-5.83 6.77-9.96 7-10.43l-13.3-6.44c-.12.25-11.9 23.73-49.2 37.53 1.72-36.4 31.86-65.47 68.67-65.47 37.73-.02 68.44 30.53 68.73 68.2zm-210.57 16.5c32.75 0 59.45 26.27 60.17 58.85-37.36-1.38-60.44-13.3-70.65-20.1 3.83-4.87 5.55-8.3 5.75-8.7l-13.3-6.44c-.1.23-10.17 20.3-42 32.47 2.1-31.28 28.22-56.08 60.03-56.08zm21.6 137.54c-1.2 3.38-2.27 6.82-3.2 10.32l-18.4 21.1L87.8 336.6c8.4-2.3 17.24-3.55 26.36-3.55 7.42 0 14.65.82 21.6 2.37zM181 467h32.55v30.23H181v-30.25zm15.42-14.78v-70.07h-14.77v70.07h-38.53v-73.9c0-45.78 27.4-85.3 66.67-102.98l38.8 44.5v53.82h14.78v-53.8l38.83-44.52c39.28 17.7 66.68 57.2 66.68 103v73.88h-38.54v-70.07h-14.76v70.07H196.42zM416.15 185.4c-5.86-1.5-12-2.28-18.3-2.28-19.36 0-37.03 7.37-50.34 19.45v-4.84l33.87-38.8c13.48 6.16 25.34 15.26 34.78 26.46zm-49.66-31.9-26.37 30.23-.64-.73c0-.36.02-.7.02-1.07 0-11.23-2.25-21.95-6.3-31.74 2.3-.17 4.6-.25 6.9-.25 9.13 0 17.97 1.24 26.37 3.55zM340.1 14.77c32.75 0 59.46 26.28 60.18 58.86-37.36-1.38-60.45-13.3-70.66-20.1 3.84-4.87 5.56-8.3 5.75-8.7l-13.28-6.5c-.45.92-10.6 20.5-42.04 32.52 2.13-31.28 28.24-56.08 60.05-56.08zM281 86.22c17.44-6 29.83-14.24 38.33-21.8 10.95 7.8 36.74 22.2 79.48 23.93-6.1 26.78-30.08 46.83-58.68 46.83-5.77 0-11.34-.83-16.63-2.36-9.03-12.36-21.35-22.16-35.68-28.1a59.695 59.695 0 0 1-6.83-18.5zM171.86 14.77c32.75 0 59.45 26.28 60.17 58.86-37.35-1.38-60.44-13.3-70.65-20.1 3.82-4.87 5.54-8.3 5.74-8.7l-13.27-6.5c-.45.92-10.6 20.5-42.05 32.52 2.14-31.28 28.25-56.08 60.05-56.08zm-59.13 71.45c17.45-6 29.84-14.24 38.34-21.8 10.94 7.8 36.73 22.2 79.48 23.93a59.95 59.95 0 0 1-6.38 16.38c-14.33 5.93-26.65 15.73-35.67 28.1a59.985 59.985 0 0 1-16.63 2.35c-29.35 0-53.85-21.12-59.13-48.96zm66.03 63.97a82.94 82.94 0 0 0-6.28 31.73v1.07l-.62.73-26.37-30.23a99.796 99.796 0 0 1 33.28-3.31zm-48.14 8.72 33.86 38.82v4.83c-13.33-12.08-31-19.45-50.34-19.45-6.3 0-12.45.8-18.3 2.27 9.43-11.2 21.3-20.3 34.77-26.48zm259.84 283.75h14.77v16.94h-14.77zm-141.84-52.84h14.76v19.08h-14.76zm225.3-231.42h14.76v16.43h-14.76zm-34.42-56.16h14.78v16.42H439.5zm57.73-60.64H512v16.43h-14.77zM439.5 10.06h14.78v16.42H439.5zM23.32 158.4H38.1v16.43H23.3zm34.4-56.16H72.5v16.42H57.7zM0 41.6h14.77v16.43H0zm57.72-31.54H72.5v16.42H57.7z"/></svg>