<svg xmlns="http://www.w3.org/2000/svg" id="Capa_1" x="0" y="0" viewBox="0 0 512 512" style="enable-background:new 0 0 512 512" xml:space="preserve"><style>.st6{fill:#424457}.st8{fill:#5c5c61}.st9{fill:#303343}.st12{fill:#5a5c62}.st13{fill:#5a5b61}</style><path d="M26.5 87.5c0-9.2 4-16.7 10.7-22.6 3.4-3 6.5-9 11.2-9H81c0 10 .1 20.2.1 30.1-10.5 7.4-13.6 20.2-7.6 31.7 5.8 11.1 18.3 15.6 31.1 11.2 18.4-9.7 20.8-30.3 4.9-42.9 0-10 .1-19.9.1-29.9h96.3c0 9.9.1 19.9.1 29.8-10.4 7.6-13.5 20.3-7.8 31.3 6 11.6 18.4 16.2 31.4 11.6 18.4-9.8 20.7-30.3 4.9-42.8 0-10 .1-20 .1-30h96.1c.1 9.9.1 19.8.2 29.7-10.8 8.4-13.7 21.2-7.4 32.3 6.1 10.9 18.8 15.3 31 10.8 18.2-8.9 20.7-31.1 4.9-42.8.1-10 .1-20 .2-30h52.6c21.3 0 33.9 11.2 36.4 32.4-.1 28.5-.2 56.9-.4 85.4-2.6 0-5.2.1-7.8.1-135.6 0-411.6.1-414.1.2.2-4.6.2-60.3.2-86.6z" style="fill:#e9483c"></path><path d="M50.8 499.2c-14.5.1-33-2.5-38.3-7.4-3.9-3.7-6.5-13.7-6.5-18.9V202.3c6.5-.1 20.1 0 20.5 0v264.4c0 7.7 2.9 14 7.4 20.2 4.3 6.1 6.9 8 16.9 12.3z" style="fill:#cccbca"></path><path d="M6 82.3c0-11.8 11.2-26.4 24-26.4 4.4 0 13.7-.1 18.4 0-3.8 2.6-7.8 6-11.2 9-6.7 5.9-10.7 13.4-10.7 22.6v86.6H6V82.3z" style="fill:#d73422"></path><path d="M26.5 202.3H6v-28.2h20.5v28.2z" style="fill:#de6465"></path><path d="M26.5 174.1c13.1 0 419.3-.3 421.9-.3 0 9.5.1 19 .1 28.5h-422v-28.2z" style="fill:#ef7b7a"></path><path d="M448.5 202.3c0-9.5-.1-19-.1-28.5.1-28.5.2-56.9.4-85.4 6.8 45.1 13.5 90.2 20.3 135.3 0 1.8-.1 3.6-.1 5.4v235.1c0 24-21.2 40-43.8 33.3 14.8-5.1 23.3-16.3 23.4-31.8 0-87.8-.1-175.6-.1-263.4z" style="fill:#a8a8a8"></path><path class="st6" d="M81 56.1c.1-9.4.2-18.7.2-28.1 0-12.1 9.1-18.3 20.5-13.9-5.3 4.3-6 10.1-5.9 16.5.3 20.8.1 41.5.1 62.3 0 4.9 2.4 9.7 6.8 9.7s6.7-4.9 6.9-9.8c.1-2.3.1-4.5.1-6.8 15.9 12.5 13.5 33.2-4.9 42.9-6.5-6.4-12.8-12.9-13.1-22.8 0-.4-.5-.9-.9-1-9.1-3.4-10.2-10.8-9.6-19.1-.1-10-.2-19.9-.2-29.9zM206 56.1c.1-9.4.2-18.7.2-28.1 0-12.1 9.1-18.2 20.5-13.9-2.4 3.2-5.5 5.6-6 10.2-1.7 17.5-.3 35-.7 52.5-.1 6.1-.6 12.3 1 18.4.9 3.7 3 7.3 6.6 7.6 3.5.3 5.4-3.5 6.2-6.6.8-3.2.6-6.7.9-10.1 15.8 12.5 13.5 33-4.9 42.8-6.3-6.5-13-12.8-13.1-22.8 0-.4-.5-.9-.9-1-9.4-3.3-10-10.9-9.6-19.1-.1-10-.2-19.9-.2-29.9zM330.9 56.1c.1-9.4.2-18.8.2-28.1.1-12.1 9.1-18.2 20.6-13.8-4.5 4.2-6.9 9.2-6.8 15.5.1 19.5 0 39 0 58.5 0 4.1.7 8.2 3 11.6 2.6 4 5.7 4.4 8.9.4 3.4-4.2 2.7-9.2 2.8-14 15.8 11.7 13.3 33.9-4.9 42.8-6.2-6.5-13.2-12.5-13-22.7 0-.4-.5-1-.8-1.1-9.5-3.3-10.2-11-9.8-19.4-.1-9.9-.2-19.8-.2-29.7z"></path><path d="M359.6 86.1c-.1 4.8.6 9.8-2.8 14-3.2 4-6.3 3.7-8.9-.4-2.3-3.5-3-7.5-3-11.6 0-19.5.1-39 0-58.5 0-6.3 2.3-11.3 6.8-15.5 5.6 2.5 8 6.8 7.9 13-.1 9.7.1 19.3.2 29-.1 10-.2 20-.2 30z" style="fill:#5b5c61"></path><path class="st8" d="M234.6 86.1c-.2 3.4 0 6.9-.9 10.1-.8 3.1-2.7 6.9-6.2 6.6-3.6-.3-5.6-3.9-6.6-7.6-1.6-6.1-1.1-12.3-1-18.4.4-17.5-1-35 .7-52.5.5-4.6 3.6-7 6-10.2 5.6 2.5 8 6.8 7.9 13-.2 9.7.1 19.4.1 29.1.1 9.9 0 19.9 0 29.9zM109.6 86c0 2.3 0 4.5-.1 6.8-.1 4.8-2.5 9.7-6.9 9.8-4.4 0-6.8-4.8-6.8-9.7 0-20.8.2-41.5-.1-62.3-.1-6.5.6-12.2 5.9-16.5 5.7 2.4 8 6.8 7.9 12.9-.2 9.7.1 19.4.1 29.1.1 10 0 20 0 29.9z"></path><path class="st9" d="M331.1 85.8c-.5 8.3.3 16 9.8 19.4.4.1.8.7.8 1.1-.1 10.1 6.8 16.2 13 22.7-12.3 4.5-24.9.1-31-10.8-6.3-11.2-3.4-24 7.4-32.4zM206.1 86c-.5 8.2.2 15.8 9.6 19.1.4.1.9.7.9 1 .1 10 6.7 16.4 13.1 22.8-13 4.5-25.4-.1-31.4-11.6-5.7-11.1-2.6-23.7 7.8-31.3zM81.1 86c-.7 8.3.5 15.6 9.6 19.1.4.1.9.7.9 1 .3 9.9 6.6 16.4 13.1 22.8-12.8 4.4-25.4-.1-31.1-11.2-6.1-11.5-3-24.3 7.5-31.7z"></path><path d="M448.5 202.3c0 87.8.1 175.6 0 263.4 0 15.5-8.6 26.7-23.4 31.8-2.9.6-5.8 1.1-8.6 1.7-37.6 0-75.2.1-112.8.1-84.3 0-168.6-.1-252.9-.1-7-3.3-12.6-6.2-17-12.4s-7.4-12.5-7.4-20.2V202.2c2.4-.1 4.9 0 7.3 0 138.3.1 276.5.1 414.8.1zM89.2 446.2c4.2-.1 8.5.2 12.6-.1 4.2-.4 6.9-2.8 7-7.3 0-4.7-2.9-7.4-7.2-7.6-8.3-.4-16.6-.3-24.8 0-4.3.2-7.4 2.6-7.4 7.4-.1 4.8 2.9 7.2 7.2 7.6 4.1.4 8.4 0 12.6 0zm276.2-182.7s0-.1 0 0c4.5-.1 9.1.2 13.6-.2 4.1-.3 6.5-3.2 6.5-7.2s-2.4-7.1-6.4-7.3c-8.9-.4-17.8-.4-26.8 0-4 .2-6.5 3-6.5 7.2 0 4.4 2.6 7 6.8 7.4 4.4.4 8.6.1 12.8.1zm-138 167.6c-3.9 0-7.8-.1-11.7 0-4.6.2-8 2.5-8.2 7.3-.2 4.8 3 7.6 7.6 7.8 8.1.3 16.3.3 24.4 0 4.5-.2 7.8-2.7 7.6-7.7-.1-5-3.5-7.1-8.1-7.4-3.8-.2-7.7 0-11.6 0zm.3-182.6c-4.1 0-8.1-.2-12.2 0-4.7.2-7.9 2.7-7.9 7.5-.1 4.6 3 7.3 7.4 7.5 8.3.3 16.6.3 24.8 0 4.3-.2 7.4-2.7 7.4-7.4 0-5-3.3-7.2-7.8-7.6-3.9-.3-7.8-.1-11.7 0zm69.2 182.6c-4.2 0-8.5-.2-12.7.1-4.4.3-7.4 2.9-7.5 7.5 0 4.6 3 7.4 7.4 7.5 8.3.3 16.6.3 24.9 0 4.4-.2 7.5-2.8 7.5-7.4 0-4.8-3.2-7.3-7.8-7.6-4-.3-7.9-.1-11.8-.1zM158.4 263.6c4.1 0 8.1.3 12.2 0 4.3-.4 7.4-2.6 7.4-7.4 0-5.1-3.2-7.4-7.7-7.6-8.1-.3-16.2-.3-24.3 0-4.4.2-7.4 2.7-7.4 7.4-.1 4.7 2.9 7.2 7.3 7.5 4 .3 8.3.1 12.5.1zm138.2-15.1c-4.1 0-8.1-.2-12.2.1-4.6.3-7.8 2.9-7.7 7.7.1 4.6 3.2 7.2 7.6 7.3 8.1.3 16.3.3 24.4 0 4.6-.2 7.8-2.9 7.7-7.7-.1-4.8-3.5-7.2-8.1-7.4-3.9-.2-7.8-.1-11.7 0zM158.7 431.1c-4.2 0-8.5-.2-12.7.1-4.4.3-7.4 2.6-7.6 7.3-.2 4.7 2.7 7.5 7.1 7.7 8.4.3 16.9.4 25.3 0 4.3-.2 7.2-2.9 7.1-7.6-.1-4.8-3.3-6.9-7.6-7.3-3.7-.5-7.7-.2-11.6-.2zm137.7-106.6c4.1 0 8.1.2 12.2 0 4.7-.2 7.8-2.8 7.8-7.6 0-4.5-2.9-7.2-7.5-7.3-8.3-.2-16.6-.2-24.8 0-4.6.1-7.4 3-7.3 7.5 0 4.5 3 7.1 7.5 7.4 4 .2 8.1 0 12.1 0zm-.1 60.7c4.4 0 8.8.2 13.2-.1 4.4-.2 6.9-3.1 6.9-7.3 0-4.2-2.6-7.2-6.9-7.3-8.6-.3-17.2-.3-25.8 0-4.4.1-7 3.1-6.9 7.3 0 4.2 2.5 7.1 7 7.3 4.1.2 8.3.1 12.5.1zm-69.5 0c4.5 0 9.1.2 13.6-.1 4.4-.3 6.8-3 6.8-7.4 0-4.2-2.5-7-6.5-7.2-8.8-.4-17.5-.3-26.3 0-4.4.1-6.9 3.3-6.8 7.4.1 4.2 2.6 7 7 7.2 4.1.2 8.1.1 12.2.1zm138.7 0c4.4 0 8.8.2 13.1-.1 4.5-.2 6.9-3.2 6.9-7.3s-2.6-7.2-7-7.3c-8.6-.2-17.2-.3-25.8 0-4.3.2-6.9 3-6.8 7.4 0 4.3 2.5 7 6.9 7.3 4.3.1 8.5 0 12.7 0zm-137.9-60.7c4.1 0 8.1.2 12.2-.1 4.4-.3 7.4-2.7 7.4-7.5 0-4.7-2.9-7.2-7.4-7.4-8.3-.2-16.6-.2-24.8 0-4.6.1-7.4 2.9-7.4 7.4s2.9 7.2 7.4 7.5c4.2.3 8.4.1 12.6.1zm138.1 0c4.1 0 8.1.2 12.2 0 4.7-.3 7.8-2.9 7.7-7.7-.1-4.5-3-7.1-7.6-7.2-8.1-.1-16.2-.2-24.3 0-4.7.1-7.8 2.7-7.7 7.6.1 4.9 3.4 7.1 8 7.3 3.9.1 7.8 0 11.7 0zM89 385.2c4.4 0 8.8.2 13.1-.1 4.1-.3 6.5-2.9 6.7-7 .1-4.3-2.2-7.4-6.5-7.6-8.7-.4-17.5-.3-26.3 0-4.3.2-6.8 3.1-6.7 7.5.1 4.4 2.7 6.9 7 7.2 4.2.2 8.5 0 12.7 0zm69.4 0c4.2 0 8.5.2 12.7-.1 4.3-.3 6.9-2.9 6.9-7.2.1-4.4-2.5-7.2-6.8-7.4-8.6-.3-17.2-.3-25.8 0-4.3.1-6.9 3-6.9 7.3s2.4 7.1 6.8 7.4c4.3.2 8.7 0 13.1 0zm-69.5-60.7c4.1 0 8.1.2 12.2 0 4.7-.2 7.7-2.7 7.7-7.6 0-4.6-2.8-7.2-7.4-7.3-8.3-.2-16.5-.2-24.8 0-4.5.1-7.3 2.8-7.2 7.4 0 4.7 3 7.1 7.4 7.4 4 .3 8 .1 12.1.1zm69 0c4.2 0 8.5.2 12.6-.1 4.4-.3 7.4-2.6 7.4-7.3 0-4.7-2.7-7.3-7.2-7.5-8.3-.2-16.5-.2-24.8 0-4.6.1-7.4 2.6-7.4 7.3 0 4.9 3 7.4 7.7 7.6 3.9.1 7.8 0 11.7 0z" style="fill:#e7e6e6"></path><path d="M416.5 499.1c2.9-.6 5.8-1.1 8.6-1.7 22.6 6.7 43.8-9.3 43.8-33.3V229c0-1.8.1-3.6.1-5.4 3.9 24 7.8 48.1 11.5 72.1 6.8 43.8 13.5 87.6 20.1 131.5 2 13.2 3.9 26.4 5.2 39.6 1.7 17.1-13.8 31.7-34.2 32.1-18.3.5-36.7.2-55.1.2z" style="fill:#bababa"></path><path class="st12" d="M89.2 446.2c-4.2 0-8.5.3-12.6-.1-4.3-.4-7.3-2.8-7.2-7.6.1-4.8 3.2-7.2 7.4-7.4 8.3-.3 16.6-.3 24.8 0 4.3.2 7.3 2.8 7.2 7.6 0 4.5-2.8 6.9-7 7.3-4.2.5-8.4.2-12.6.2zM365.4 263.5c-4.2 0-8.5.3-12.6-.1-4.2-.4-6.9-3-6.8-7.4 0-4.2 2.5-7.1 6.5-7.2 8.9-.4 17.8-.4 26.8 0 4 .2 6.5 3.3 6.4 7.3 0 4-2.4 6.9-6.5 7.2-4.7.4-9.2.1-13.8.2 0-.1 0 0 0 0zM227.4 431.1c3.9 0 7.8-.2 11.7 0 4.5.3 7.9 2.4 8.1 7.4.1 5-3.1 7.5-7.6 7.7-8.1.3-16.2.3-24.4 0-4.6-.2-7.8-3-7.6-7.8.2-4.8 3.5-7.1 8.2-7.3 3.8-.2 7.7 0 11.6 0zM227.7 248.4c3.9 0 7.8-.2 11.7.1 4.5.3 7.8 2.6 7.8 7.6 0 4.7-3 7.3-7.4 7.4-8.3.3-16.6.3-24.8 0-4.4-.2-7.4-2.9-7.4-7.5.1-4.8 3.3-7.3 7.9-7.5 4-.2 8.1 0 12.2-.1zM296.9 431.1c3.9 0 7.8-.2 11.7.1 4.6.3 7.8 2.8 7.8 7.6 0 4.6-3.1 7.3-7.5 7.4-8.3.3-16.6.3-24.9 0-4.4-.2-7.4-2.9-7.4-7.5s3.1-7.1 7.5-7.5c4.3-.3 8.5-.1 12.8-.1zM158.4 263.6c-4.2 0-8.5.3-12.6-.1-4.4-.4-7.3-2.8-7.3-7.5.1-4.7 3-7.2 7.4-7.4 8.1-.3 16.2-.3 24.3 0 4.5.2 7.7 2.6 7.7 7.6 0 4.8-3.1 7-7.4 7.4-4 .3-8.1 0-12.1 0zM296.6 248.5c3.9 0 7.8-.2 11.7 0 4.6.2 8 2.6 8.1 7.4.1 4.8-3.1 7.5-7.7 7.7-8.1.3-16.3.3-24.4 0-4.4-.1-7.5-2.7-7.6-7.3-.1-4.8 3.1-7.4 7.7-7.7 4.1-.4 8.2-.1 12.2-.1zM158.7 431.1c3.9 0 7.8-.3 11.7.1 4.3.4 7.4 2.5 7.6 7.3.1 4.8-2.8 7.4-7.1 7.6-8.4.4-16.9.3-25.3 0-4.4-.2-7.2-3-7.1-7.7.2-4.7 3.2-7 7.6-7.3 4.2-.2 8.4 0 12.6 0zM296.4 324.5c-4.1 0-8.1.2-12.2-.1-4.5-.3-7.5-2.9-7.5-7.4s2.7-7.3 7.3-7.5c8.3-.2 16.6-.2 24.8 0 4.6.1 7.5 2.8 7.5 7.3 0 4.8-3.1 7.4-7.8 7.6-4 .2-8 .1-12.1.1zM296.3 385.2c-4.2 0-8.5.2-12.7 0-4.4-.2-6.9-3.1-7-7.3 0-4.2 2.6-7.2 6.9-7.3 8.6-.3 17.2-.3 25.8 0 4.4.1 6.9 3.1 6.9 7.3 0 4.2-2.5 7.1-6.9 7.3-4.2.1-8.6 0-13 0zM226.8 385.2c-4.1 0-8.1.2-12.2 0-4.4-.2-7-3-7-7.2-.1-4.2 2.4-7.3 6.8-7.4 8.8-.3 17.5-.3 26.3 0 4 .2 6.5 3 6.5 7.2 0 4.4-2.4 7.1-6.8 7.4-4.5.2-9.1-.1-13.6 0zM365.5 385.2c-4.2 0-8.4.2-12.7-.1-4.4-.3-6.9-2.9-6.9-7.3s2.6-7.2 6.8-7.4c8.6-.3 17.2-.2 25.8 0 4.4.1 7 3.2 7 7.3s-2.4 7.1-6.9 7.3c-4.3.3-8.7.2-13.1.2z"></path><path class="st13" d="M227.6 324.5c-4.2 0-8.5.2-12.7-.1-4.5-.3-7.4-2.9-7.4-7.5 0-4.5 2.7-7.3 7.4-7.4 8.3-.1 16.6-.2 24.8 0 4.5.1 7.3 2.7 7.4 7.4 0 4.7-3 7.1-7.4 7.5-3.9.3-8 .1-12.1.1zM365.7 324.5c-3.9 0-7.8.1-11.7 0-4.6-.2-7.9-2.4-8-7.3-.1-4.9 2.9-7.5 7.7-7.6 8.1-.2 16.2-.1 24.3 0 4.6.1 7.5 2.7 7.6 7.2.1 4.7-3 7.4-7.7 7.7-4.1.2-8.2 0-12.2 0zM89 385.2c-4.2 0-8.4.2-12.6 0-4.3-.2-6.9-2.8-7-7.2-.1-4.4 2.4-7.3 6.7-7.5 8.7-.3 17.5-.3 26.3 0 4.3.2 6.7 3.3 6.5 7.6-.1 4.1-2.5 6.7-6.7 7-4.4.3-8.8 0-13.2.1zM158.4 385.2c-4.4 0-8.8.2-13.1-.1-4.4-.3-6.8-3.1-6.8-7.4 0-4.3 2.6-7.1 6.9-7.3 8.6-.2 17.2-.3 25.8 0 4.3.2 6.8 3 6.8 7.4-.1 4.4-2.6 7-6.9 7.2-4.2.4-8.5.2-12.7.2zM88.9 324.5c-4.1 0-8.1.2-12.2-.1-4.4-.3-7.4-2.6-7.4-7.4 0-4.7 2.7-7.3 7.2-7.4 8.3-.2 16.5-.2 24.8 0 4.6.1 7.4 2.6 7.4 7.3 0 4.9-3 7.3-7.7 7.6-4 .1-8.1 0-12.1 0zM157.9 324.5c-3.9 0-7.8.2-11.7 0-4.7-.2-7.7-2.7-7.7-7.6 0-4.6 2.9-7.2 7.4-7.3 8.3-.1 16.5-.2 24.8 0 4.5.1 7.2 2.8 7.2 7.5 0 4.8-3.1 7-7.4 7.3-4.2.3-8.4.1-12.6.1z"></path></svg>