<svg xmlns="http://www.w3.org/2000/svg" viewBox="0 0 512 512"><path fill="#B71C1C" d="M439.46 76.8v194.05c.17 2.92-1.2 5.72-3.58 7.42a125.309 125.309 0 0 1-69.8 20.4c-7.12 0-14.23-.58-21.25-1.7a115.562 115.562 0 0 1-65.2-32.44c-23.1-22.5-54.28-34.8-86.52-34.13-7.1 0-14.22.57-21.24 1.7-19.62 2.9-38.2 10.67-54.02 22.62-4.78 3.58-11.1 0-11.1-7.17V55.12c-.03-2.44.9-4.8 2.57-6.57a116.669 116.669 0 0 1 62.64-29.86c7-1.1 14.08-1.65 21.17-1.63 32.25-.68 63.43 11.62 86.53 34.13a115.861 115.861 0 0 0 65.03 32.43l52.14-1.97c11.28-2.6 22.14-6.8 32.25-12.46 4.87-2.73 10.4 1.28 10.4 7.6z"/><path fill="#D50000" d="M396.8 81.66v189.2c.16 2.9-1.2 5.7-3.6 7.4-14.58 9.64-31.1 15.98-48.37 18.62a115.687 115.687 0 0 1-65.2-32.35c-23.1-22.5-54.28-34.8-86.52-34.13-7.1 0-14.22.57-21.24 1.7-7.06-1.13-14.2-1.7-21.34-1.7-14.9-.03-29.7 2.45-43.77 7.34V55.12c-.04-2.44.88-4.8 2.56-6.57a116.669 116.669 0 0 1 62.64-29.86c24.6 3.56 47.4 14.96 65.03 32.5a120.152 120.152 0 0 0 86.41 34.14c7.13 0 14.24-.56 21.26-1.7l52.14-1.97z"/><path fill="#555656" d="M89.6 8.45c9.43 0 17.06 7.64 17.06 17.07v460.8c0 9.42-7.63 17.06-17.06 17.06s-17.07-7.63-17.07-17.06V25.5c0-9.43 7.64-17.07 17.07-17.07z"/><path d="M366.08 307.2c-34.54.7-67.9-12.53-92.6-36.7a111.537 111.537 0 0 0-80.37-31.57c-25.2-.33-49.84 7.58-70.14 22.53a14.542 14.542 0 0 1-15.6 1.62c-5.83-3-9.4-9.07-9.23-15.6V55.12c.03-4.68 1.9-9.16 5.2-12.46 24.48-22.4 56.6-34.62 89.78-34.14a128.74 128.74 0 0 1 92.76 36.6c21.4 20.9 50.32 32.3 80.22 31.67 20.55.2 40.82-4.95 58.8-14.93 4.6-2.7 10.32-2.7 14.92 0 5.2 3.16 8.32 8.85 8.2 14.93v194.05c.16 5.77-2.6 11.22-7.34 14.5a133.366 133.366 0 0 1-74.58 21.85zM193.1 221.87a128.65 128.65 0 0 1 92.76 36.6c21.4 20.9 50.32 32.3 80.22 31.66 23 .14 45.54-6.44 64.85-18.94V77.9a136.396 136.396 0 0 1-64.85 15.97c-34.54.7-67.9-12.53-92.6-36.7a111.454 111.454 0 0 0-80.37-31.57c-28.72-.56-56.58 9.85-77.9 29.1v191.15a133.509 133.509 0 0 1 77.9-23.98zM89.6 512C75.46 512 64 500.54 64 486.4V25.6C64 11.46 75.46 0 89.6 0s25.6 11.46 25.6 25.6v460.8c0 14.14-11.47 25.6-25.6 25.6zm0-494.93c-4.7 0-8.54 3.82-8.54 8.53v460.8c0 4.7 3.83 8.53 8.54 8.53s8.53-3.82 8.53-8.53V25.6c0-4.7-3.82-8.53-8.53-8.53z"/></svg>