<?xml version="1.0" encoding="UTF-8"?> <svg xmlns="http://www.w3.org/2000/svg" xmlns:xlink="http://www.w3.org/1999/xlink" viewBox="0,0,256,256" width="512px" height="512px" fill-rule="nonzero"><g fill="none" fill-rule="nonzero" stroke="none" stroke-width="1" stroke-linecap="butt" stroke-linejoin="miter" stroke-miterlimit="10" stroke-dasharray="" stroke-dashoffset="0" font-family="none" font-weight="none" font-size="none" text-anchor="none" style="mix-blend-mode: normal"><g transform="scale(2.56,2.56)"><path d="M22,70.217c0,6.783 0,12.783 -4,16.783c6.709,0 15,-2 20.18,-9.376c3.736,0.894 7.705,1.376 11.82,1.376c22.091,0 40,-13.879 40,-31c0,-17.121 -17.909,-31 -40,-31c-22.091,0 -40,13.879 -40,31c0,8.671 4.595,16.514 12,22.141z" fill="#cb3327"></path><path d="M49.5,28.5c-2.76142,0 -5,2.01472 -5,4.5c0,2.48528 2.23858,4.5 5,4.5c2.76142,0 5,-2.01472 5,-4.5c0,-2.48528 -2.23858,-4.5 -5,-4.5zM42.5,40.5h12v20c0,0.552 0.448,1 1,1h4v4h-18v-4h4c0.552,0 1,-0.448 1,-1v-15c0,-0.552 -0.448,-1 -1,-1h-3z" fill="#ffc41d"></path><path d="M18,88c-0.404,0 -0.769,-0.244 -0.924,-0.617c-0.155,-0.374 -0.069,-0.804 0.217,-1.09c3.629,-3.629 3.706,-9.2 3.707,-15.66c-7.743,-6.04 -12,-14.06 -12,-22.633c0,-17.645 18.393,-32 41,-32c22.607,0 41,14.355 41,32c0,17.645 -18.393,32 -41,32c-3.879,0 -7.711,-0.421 -11.4,-1.252c-6.015,8.033 -15.444,9.252 -20.6,9.252zM50,18c-21.505,0 -39,13.458 -39,30c0,8.078 4.122,15.659 11.605,21.344c0.249,0.19 0.395,0.484 0.395,0.797v0.077c0,5.901 0,11.519 -2.823,15.706c5.067,-0.356 12.451,-2.134 17.184,-8.874c0.236,-0.335 0.651,-0.493 1.051,-0.398c3.737,0.894 7.636,1.348 11.588,1.348c21.505,0 39,-13.458 39,-30c0,-16.542 -17.495,-30 -39,-30z" fill="#1b1b1b"></path><path d="M20.298,63c-0.139,0 -0.277,-0.058 -0.375,-0.17c-3.875,-4.407 -5.923,-9.536 -5.923,-14.83c0,-14.888 16.149,-27 36,-27c9.379,0 18.263,2.697 25.017,7.595c0.223,0.162 0.272,0.475 0.11,0.698c-0.162,0.224 -0.476,0.273 -0.698,0.111c-6.584,-4.775 -15.26,-7.404 -24.429,-7.404c-19.299,0 -35,11.664 -35,26c0,5.048 1.962,9.948 5.674,14.17c0.182,0.208 0.162,0.523 -0.045,0.706c-0.095,0.083 -0.213,0.124 -0.331,0.124zM50,75c-1.178,0 -2.368,-0.043 -3.537,-0.129c-0.275,-0.02 -0.482,-0.26 -0.462,-0.535c0.02,-0.275 0.256,-0.486 0.535,-0.462c1.146,0.084 2.311,0.126 3.464,0.126c19.299,0 35,-11.664 35,-26c0,-4.445 -1.546,-8.836 -4.472,-12.698c-0.167,-0.22 -0.124,-0.534 0.097,-0.7c0.218,-0.167 0.532,-0.125 0.7,0.097c3.059,4.036 4.675,8.636 4.675,13.301c0,14.888 -16.149,27 -36,27zM79.701,34c-0.139,0 -0.276,-0.058 -0.376,-0.17c-0.292,-0.333 -0.595,-0.661 -0.906,-0.983c-0.192,-0.199 -0.187,-0.515 0.012,-0.707c0.198,-0.191 0.517,-0.187 0.707,0.012c0.323,0.334 0.636,0.673 0.939,1.018c0.182,0.208 0.161,0.523 -0.046,0.706c-0.094,0.083 -0.213,0.124 -0.33,0.124zM77.212,31.5c-0.118,0 -0.237,-0.042 -0.333,-0.127c-0.229,-0.205 -0.463,-0.406 -0.7,-0.604c-0.212,-0.177 -0.239,-0.493 -0.062,-0.705c0.177,-0.211 0.492,-0.239 0.704,-0.062c0.245,0.206 0.486,0.414 0.724,0.625c0.206,0.184 0.224,0.5 0.04,0.706c-0.099,0.11 -0.235,0.167 -0.373,0.167z" fill="#1b1b1b"></path><g fill="#1b1b1b"><path d="M49.5,38c-3.033,0 -5.5,-2.243 -5.5,-5c0,-2.757 2.467,-5 5.5,-5c3.032,0 5.5,2.243 5.5,5c0,2.757 -2.468,5 -5.5,5zM49.5,29c-2.481,0 -4.5,1.794 -4.5,4c0,2.206 2.019,4 4.5,4c2.481,0 4.5,-1.794 4.5,-4c0,-2.206 -2.019,-4 -4.5,-4z"></path></g><g fill="#1b1b1b"><path d="M59.5,66h-18c-0.276,0 -0.5,-0.224 -0.5,-0.5v-4c0,-0.276 0.224,-0.5 0.5,-0.5h4c0.276,0 0.5,-0.224 0.5,-0.5v-15c0,-0.276 -0.224,-0.5 -0.5,-0.5h-3c-0.276,0 -0.5,-0.224 -0.5,-0.5v-4c0,-0.276 0.224,-0.5 0.5,-0.5h12c0.276,0 0.5,0.224 0.5,0.5v20c0,0.276 0.225,0.5 0.5,0.5h4c0.276,0 0.5,0.224 0.5,0.5v4c0,0.276 -0.224,0.5 -0.5,0.5zM42,65h17v-3h-3.5c-0.827,0 -1.5,-0.673 -1.5,-1.5v-19.5h-11v3h2.5c0.827,0 1.5,0.673 1.5,1.5v15c0,0.827 -0.673,1.5 -1.5,1.5h-3.5z"></path></g></g></g></svg> 