<svg xmlns="http://www.w3.org/2000/svg" viewBox="0 0 455.4 100"><style>.J{fill:#fff}.K{fill:#323e50}.L{fill:#12100b}.M{fill:#d1d1d7}.N{fill:#e42320}</style><g class="J"><path d="M111.2 54c-.6 4.9-1.8 12.1-6.6 16.1 1.2 1.4 3.8 2.5 6 2.8-4.6-.1-7-1-8-1.4-1.8 1-4 1.4-6.7 1.4 7.6-1.3 14.2-14.4 15.3-18.9zm-1.3-7.4c.4-1.3.7-2.4 1.1-3.5-3.3-1.4-8.8-6.4-8.8-12.8 0-3.3-2.6-8.2-5.8-9.1 2.1.1 5.3 1.5 7.3 4.4 1.4-1.3 2.7-2.1 4.5-2.1 6 0 6.5 7.9 1.8 9 .1 1.7 1 4 4.1 7.6-2.9-1.3-6-5.2-7-9 4 .6 4.4-5 .7-5-1.8 0-2.9 1.7-2.9 4.3 0 3.6 2.2 8.4 9 11.9-2.3 6-5.3 17.2-11.4 23.1 2.7-4.3 4.7-10.5 6.4-16a9.36 9.36 0 0 1-2.5-2.4c-.1 3.1-1.2 7.7-4 11.4 2.4-9.4 1.8-14.3.3-20.1 2.4 4.7 5.4 7.2 7.2 8.3zm2.3 13.2c.1 3.5-.4 8-.8 9 1.2 1.6 5.8 3.9 8.1 4-6.1.4-9.5-1.9-11.8-3.1 2.2-2.6 3.5-6 4.5-9.9zm13.3-12.2c-4.6 1.2-6.6 2.3-6.5 8.3-.3-2.1-.6-4-.4-5.9-1.4-2.1-2.8-5-3.8-7.5.6.9 2.8 4.2 5.1 5.5l1.2-1.2c-4-2.2-7.6-9.5-8.3-14.3 2 5.7 8.2 12.9 12.7 15.1zm.1 1.5c3.6-.4 5.6 2 5.9 4.5.2 1.7-1.4 4.6-3.1 4.5.2 2.4 1.9 7.8 6.4 11.9-6.3-2.7-9.3-9.7-10-14.3 1.7 1.5 3.6 0 3.5-1.5s-1.2-2-2.5-1.9c-2.4.2-3.7 3.6-1.8 8.1-2.6-.9-3.5-2.9-3.6-4.3-.6-5.1 2.8-6.8 5.2-7zm10.9-21.8c.6-.7 1.1-1.4 1.7-1.9-3 .4-9.2-1.2-13.2-3.9 13.5 4.1 17.8-.7 23.8.1-6.4.8-12.4 7.7-15.8 15.4.3-3.2 1.3-5.8 2.4-7.9-1.5-.7-3.8-1.6-5.3-1.6 2.2-.7 4.6-.6 6.4-.2zm-6.9 18.6c1.5-4.4-2.4-9.2 2.8-15.7-4.3 16 5 14 3.5 29.7-.2-4.4-2.9-13.5-6.3-14zm7.6 19.9C138.8 58 138.5 54 136 48c9.8 11.5-3 19.8 8.9 25-11.9-1-14.1-10.6-12.3-18.6.3 5.2 1.5 8.7 4.6 11.4zm-3.6-25.2c1.6-5.3 5.8-10.5 8.4-11.6-3 3.8-4.3 6.7-5.3 10 1.3 2.2 2.3 7.5 2.3 11.7-1.6-5.5-3.1-8.1-5.4-10.1zm19.4-12c0-1.7-.8-3.4-3.2-3.4-1.8 0-2.8 1.3-2.8 2.9 0 1.2.7 2.7 3.6 1.6-1.8 2.6-5.8 2.6-8.1 9.5-.4-3.5 1.3-7.9 2.8-9.2-1.3-2.7.1-7.4 5.3-7.4 4.3 0 9 .1 10.8-1.6-2.1 3.6-6.4 3.8-7.3 4 1.5 1.5 1.9 2.5 1.9 4.6 0 2.2-2.1 4.3-4.7 6.7-.4 2.7-.3 5 .1 7.3-.6.4-1.5 1.5-2 2.3-.2-3.3-.4-5.6-.3-7.5-2.6 2.1-5 5.2-7 9.8.6-11.7 10.9-15.1 10.9-19.6zm-8.8 26c-.3-5.1.8-9.2 1-10.5.3 3 .4 5.4 1 7.5 1.9-2.7 4.1-5.1 5.9-6.1-.1 11 2.9 23.6 14.3 25.9-13 .9-17.2-14.8-16.4-20.3-2.3 1.6-4.9 3.7-7.6 7.5.4-1.3 1.1-2.7 1.8-4zm3.3.5c1.2 8.8 5.1 13.5 13.9 17.2-5.3.4-14.4-4.4-16.5-7.6 1.2 1 2.6 1.8 3.7 1.9-1.5-2.7-1.9-6.6-1.9-7.8-.9.9-2.4 2.1-2.6 3.7.2-3.7 1.7-5.7 3.4-7.4zm31.8-7.4c1 4.4.6 8.6-.7 12.1 1.5.3 3 .1 5.3-.6-1.6 4-5.2 16.5-20.9 12.6 12.7 1 15.8-7.3 16.4-9-.7 0-1.3-.1-2-.3-5.8 8.5-10.2 9.5-16 4.6 4.3 1.9 18.2-.3 17.9-19.4zm-10.5-28.1c5.9 1.4 7.2 2.7 8.1 5.7 2.6-.8 8.5-3.3 11-3.7-3.1 1-10.5 5.2-13.2 8.4.3-4.8-1.4-8.2-5.9-10.4zm18.1 20.1c.2 4.8.5 11.4-2.8 17.7 1-4.4 1-10.4-.1-13.2-1.7 1-6.1 1.3-10.7-1.1 4.9.6 9.7-.7 13.6-3.4zm-7.2-12.6c-3 3.1-1.2 8.1 1.9 8.1 2 0 3.2-1.3 3.2-2.7 0-1.6-1-3-3.2-2.3-.4-4.7 5.2-8.4 10.7-8.4-5.3 1-6.6 4.1-6.9 6 1.8.9 2.7 2.7 2.6 4.6-.1 3.5-2.4 6.4-6.4 6.4-3.6 0-5-2.4-5.5-4.1-1.1 2.6-.8 5.4.2 7-.6.4-2 .7-3.3.3-1.1-5.1.5-11.2 6.7-14.9zm-6.1 17.3c1.3.8 2.1 1.2 3.5 1.5-.5 4.4-1.2 7.9-3.4 10.7.6-4 .9-7.9-.1-12.2zm2.9 28.7c4.3-1.3 9.4-5.9 10.1-10.7.5 2.6 1.8 4.1 3.9 5.3-4.4-2.1-6.2 4.1-2.4 4.1 1.6 0 2.4-1.2 2.3-1.8 1.9 1.3 5.5 2.7 8 3.1h-21.9zM198.7 52c.5.4 1 .7 1.4 1.1 3.3-3.6 9.2-6.1 13.5-6.1-7.7 2-10.5 5.3-12.1 8.2 2 5.1-1.1 10.8-7 10.8-8.8 0-7.8-11-1.3-11 2 0 3.6 1.1 3.6 2.8 0 1.6-1.6 2.9-3.4 2.1 1.8-.7 1.3-2.4-.1-2.4-3.1 0-3.8 5.8 1.3 5.8 6 0 6.1-8.8.4-10.6 3-5.6 7.4-8.1 12.9-14.7-4.7 8.6-8.5 11.8-9.2 14zm7.1-20.4c-.7.3-1.8.5-2.2.5-1.3 3.8-7 10.7-9.7 12.5 4.7-6.2 7.8-11.8 7.6-14.6 4.4-.5 7-1.4 10.1-3.6-3.4 11.3-14.6 18.8-18.6 25.8 1.6-6.7 11.1-14.4 12.8-20.6zm-11.8 37a14.02 14.02 0 0 0 4-.3c1.6 1.7 4.2 3.3 8.7 4.9-3.3-.1-8.1-.9-12.7-4.6zm23.6-21.4c-.9-5.1-6.9-8.6-4.6-23.2-3.6 1.6-8 3.5-11 3.5 2.7-.3 9.8-3.4 13.2-6.3-1.1 8 .7 16.1 3.8 20.6 2.1-1.9 3.2-3.3 6.8-4.4-3.7 2.7-6 6.1-8.2 9.8zm3 14.3c0-7.8-6.4-12.1-15.5-8.1 3.7-2.8 10.8-5.5 15.8-4.9-2.7 1.4-2.5 6.8 2.2 6.8s5.7-8.4-2.4-8.4c1-2.2 3.3-5.3 7-7.8-1.8 2.1-2.8 4.4-3.3 6.1 3 .3 5.5 3.5 5.5 7.1 0 1.3-.4 2.6-1.2 3.8 1 3.2 2.7 7.7 6.2 10.7-3-.9-7.1-5.8-9-8.6-.6.2-1.3.4-2 .4.6 2.9.2 12.6-10.5 14.4 5.7-2.1 7.2-5.9 7.2-11.5zm-1.4-23.1c-1.7-3.8-3-9.2-3-12.9 1 4.4 3.1 8.2 5.4 11.2-.4.3-1.7 1.1-2.4 1.7zm6.8 24c3.2 5 7.5 7.9 16 10.7-6.7-.2-10.9-1.6-14-3.8-1.2 1.9-5.3 3.8-7.5 3.8 3.2-1.7 6.3-6.3 5.5-10.7zm39.9-27.5c-.5-4.4.3-7.8 1.9-9.6.1-.1 0-.2-.1-.3-2.4-.8-4-1.8-6.3-3.2-.2-.1 0-.3.1-.3 5.5 1.5 8.1 1.5 13.1.2.2 0 .3.2.1.3-4.1 2.3-7.6 6.8-8.6 12.9 0 .2-.2.2-.2 0zm6 34.5c3.6 0 3.2-4.5.8-4.5-.8 0-1.4.4-1.8.8-.1.1-.3 0-.3-.2.8-1.7 2.4-2.1 3.2-2.1 2.6 0 3.7 3.4 2.6 6.1 0 .1 0 .2.1.2 1.1.5 2.3 1.2 3.6 2.6.1.1 0 .3-.2.3-2.5-1.2-4.2-1.1-5-.8-.8.6-1.8 1-3.1 1-2.1 0-4.1-1.1-4.9-2.8 0-.1-.2-.1-.2-.1-1.9 1.6-4 2.6-6.9 2.8-.2 0-.2-.2-.1-.3 2.9-1.2 5.9-3.8 5.9-6.2 0-5.2 1.7-8.8 5.6-11.6.1 0 .1-.1.1-.2-.6-2.2-3.6-4.9-5.9-7-.1-.1 0-.3.2-.3 3.9 1.6 9.6 5.8 10.7 8.9 0 .1-.1.2-.2.2-2.4-.2-4.5 1-5.8 3-.1.1 0 .3.2.2 1.6-.4 3.4-.1 4.7.9.1.1 0 .3-.1.3-4.2-1-6.3 2-6.3 4.3 0 2.8 1.1 4.5 3.1 4.5zm-1.6-24.5c-1.9-.7-5.4-3-6.8-7.5-.1-.2.2-.3.3-.1.6 1 1.4 2 2.6 2.6.1.1.2 0 .2-.1.3-4.1 1.2-13.1 11.5-17.6.2-.1.3.2.2.3-9.4 7.9-10.2 14.3-7.8 22.3 0 0-.1.1-.2.1zm.2 9c-2.3 1.7-4.4 4.7-5.1 7.2 0 .2-.3.1-.3 0-.2-4.2 2.1-8.3 3.4-9.4h.2c.5.3 1.4 1.2 1.9 2 0 .1 0 .2-.1.2zm5.5-26.6c.5 6.1 4.9 10.2 8.7 14.3.1.1-.1.4-.2.2-3.9-3-8.1-6.5-9.8-9.5-.1-.1-.3-.1-.3 0-2.4 9.7 3.9 12.1 2 20.7 0 .1-.2.2-.3 0-1.9-3.5-5.5-5.2-9-6.4-.2-.1-.1-.3.1-.3 3.1.3 4.6.4 5.7.3.1 0 .2-.1.1-.2-2.3-3.9-4.9-12 2.8-19.3.1 0 .2 0 .2.2zm9.2 16.9c.1.1.1.2 0 .3-2.5 1.5-2 5.8 1.3 5.8 2.5 0 2.8-3.9.7-4.5-.1 0-.2-.2-.1-.3 3.4-2.5 6.5-4.9 11.1-12.5.1-.2.4 0 .3.1-3 8.5-10.2 14.3-8.2 23 0 .1-.1.3-.3.2-9.7-7.2-8.9-13-13.4-19.4-.1-.1.1-.3.2-.2 2.8 1.8 7.2 6.4 8.4 7.5zm13-2c2.3-2.4 3.9-3.5 5.9-4.9l.1-.1c.2-.9.5-2.2.5-3.3 0-.2.2-.2.3-.1.5.8.8 1.4 1 2.1 0 .1.1.2.2.1.9-.5 1.6-.9 2.4-1.3.1-.1.1-.2 0-.3-1.5-1.2-2.9-2.5-2.9-5.9 0-1.4-.3-4.3-2.8-6.6-.1-.1 0-.3.2-.3 2.1.8 3.4 1.7 4.2 2.5.1.1.2.1.2 0 .9-.8 2.1-1.4 3.9-1.4 1 0 1.9.3 2.7.7h.2c1.2-.8 3.5-1.8 5.8-2.1.2 0 .3.2.1.3-2.1.8-3.8 2.1-4.4 3v.2c.6.8 1 1.8 1 2.8 0 1.5-1 4.1-3 4.1-1.6 0-2.4-.9-2.9-2.2 0-.1 0-.2.2-.2 1.2 0 2.2-1.3 2.2-2.1 0-1-1-1.8-2.1-1.8-1.3 0-2.4 1.4-2.4 3.2 0 1.9 1 5.1 5.5 6.8.1.1.1.2 0 .3-8.5 3.2-15 7-22.4 16.3-.1.1-.3 0-.3-.1 2.1-10.2 13.9-17.7 7-30-.1-.1.1-.3.2-.2 10.2 6.7 2.6 15.7-.6 20.4-.4.1-.2.3 0 .1zm4 30.7c-1.2.6-3.7 1.1-5.8 1.3-.2 0-.2-.2-.1-.3 1.3-.6 2.6-1.7 4.6-3.4.1-.1.2 0 .3.1.2.8.6 1.5 1.1 2.1.1.1 0 .2-.1.2zm2.4-23c-1 2.4-2 5-.6 10.4 0 .2-.2.3-.3.1-2.7-3.9-3.2-8.5-1.8-12.6 0-.1.1-.1.2-.1.8.4 1.9 1.3 2.4 2 .2.1.2.2.1.2zm5.3-7.9c1 1.4 2.5 4 3.2 7.7 0 .2-.2.3-.3.1-1-1.9-3-4.1-4.6-5.3-.1-.1-.2 0-.2 0a9.13 9.13 0 0 1-.8 1.3v.2c1.7 1.4 7.1 8.5 7.1 16.3 0 3.7-1.1 10.7-6.8 10.7-3.5 0-5.5-1.6-5.5-4.9s2.6-5.5 4.2-5c.1 0 .2 0 .2-.1.1-1 .5-4.6-.9-8.9-.1-.2.2-.3.3-.1 3.4 5 3.7 9.4 2.1 13-.1.1-.3.1-.3 0-.2-1.1-.8-1.4-1.4-1.4-2.4 0-2.1 4.4 1 4.4 3 0 4.1-4.1 4.1-7.5 0-7.6-5.2-14.6-8.5-16.3-.1 0-.1-.2-.1-.2 2.5-3.9 6.1-6.4 10.2-7.6.2 0 .3.2.1.3-1.4 1.1-2.4 2-3.1 3v.3zm15.4 31.7s-2.5.1-2.6 0l-5.1-2.5c-3.4-1.6-3.9 3.2-.6 1 .1-.1 1 1.4.8 1.4h-6.4c-.2 0-.2-.2-.1-.3 2-1 3.5-2.3 4.1-7 0-.1.2-.2.3-.1 1.2 1.8 8.8 7.3 9.6 7.5zm.8-21c.5.4 1 .7 1.4 1.1 3.3-3.6 9.2-6.1 13.5-6.1-7.7 2-10.5 5.3-12.1 8.2 2 5.1-1.1 10.8-7 10.8-8.8 0-7.8-11-1.3-11 2 0 3.6 1.1 3.6 2.8 0 1.6-1.6 2.9-3.4 2.1 1.8-.7 1.3-2.4-.1-2.4-3.1 0-3.8 5.8 1.3 5.8 6 0 6.1-8.8.4-10.6 3-5.6 7.4-8.1 12.9-14.7-4.7 8.6-8.6 11.7-9.2 14zm7-20.4c-.7.3-1.8.5-2.2.5-1.3 3.8-7 10.7-9.7 12.5 4.7-6.2 7.8-11.8 7.6-14.6 4.4-.5 7-1.4 10.1-3.6-3.3 11.2-14.5 18.6-18.5 25.7 1.5-6.7 11-14.4 12.7-20.5zm-11.8 36.9a14.02 14.02 0 0 0 4-.3c1.6 1.7 4.2 3.3 8.7 4.9-3.3 0-8.1-.9-12.7-4.6zm23.6-21.4c-.9-5.1-6.9-8.6-4.6-23.2-3.6 1.6-8 3.5-11 3.5 2.7-.3 9.8-3.4 13.2-6.3-1.1 8 .7 16.1 3.8 20.6 2.1-1.9 3.2-3.3 6.8-4.4-3.6 2.7-5.9 6.1-8.2 9.8zm3 14.4c0-7.8-6.4-12.1-15.5-8.1 3.7-2.8 10.8-5.5 15.8-4.9-2.7 1.4-2.5 6.8 2.2 6.8s5.7-8.4-2.4-8.4c1-2.2 3.3-5.3 7-7.8-1.8 2.1-2.8 4.4-3.3 6.1 3 .3 5.5 3.5 5.5 7.1 0 1.3-.4 2.6-1.2 3.8 1 3.2 2.7 7.7 6.2 10.7-3-.9-7.1-5.8-9-8.6-.6.2-1.3.4-2 .4.6 2.9.2 12.6-10.5 14.4 5.8-2.1 7.2-5.9 7.2-11.5zm-1.3-23.1c-1.7-3.8-3-9.2-3-12.9 1 4.4 3.1 8.2 5.4 11.2-.4.3-1.8 1.1-2.4 1.7zm6.8 24c3.2 5 7.5 7.9 16 10.7-6.7-.2-10.9-1.6-14-3.8-1.2 1.9-5.3 3.8-7.5 3.8 3.1-1.7 6.3-6.3 5.5-10.7zm16.7-8.4c-1.3 4.8-9 13.5-5.3 15 3.5 1.3 5.4-10 5.3-15zm-1.1-7.3c.4-1.3.7-2.4 1.1-3.5-3.3-1.4-8.8-6.4-8.8-12.8 0-3.3-2.6-8.2-5.8-9.1 2.1.1 5.3 1.5 7.3 4.4 1.4-1.3 2.7-2.1 4.5-2.1 6 0 6.5 7.9 1.8 9 .1 1.7 1 4 4.1 7.6-2.9-1.3-6-5.2-7-9 4 .6 4.4-5 .7-5-1.8 0-2.9 1.7-2.9 4.3 0 3.6 2.2 8.4 9 11.9-2.3 6-5.3 17.2-11.4 23.1 2.7-4.3 4.7-10.5 6.4-16a9.36 9.36 0 0 1-2.5-2.4c-.1 3.1-1.2 7.7-4 11.4 2.4-9.4 1.8-14.3.3-20.1 2.4 4.7 5.5 7.3 7.2 8.3zm1.5 12.9c1.5 5.4.7 8.3 0 9.3 1.2 1.6 5.8 3.9 8.1 4-6.1.4-9.9-2.1-12.2-3.3 3.2-1.5 3.9-5.8 4.1-10zm14-11.9c-4.6 1.2-6.6 2.3-6.5 8.3-.3-2.1-.6-4-.4-5.9-1.4-2.1-2.8-5-3.8-7.5.6.9 2.8 4.2 5.1 5.5l1.2-1.2c-4-2.2-7.6-9.5-8.3-14.3 2 5.7 8.2 12.9 12.7 15.1zm.1 1.5c3.6-.4 5.6 2 5.9 4.5.2 1.7-1.4 4.6-3.1 4.5.2 2.4 1.9 7.8 6.4 11.9-6.3-2.7-9.3-9.7-10-14.3 1.7 1.5 3.6 0 3.5-1.5s-1.2-2-2.5-1.9c-2.4.2-3.7 3.6-1.8 8.1-2.6-.9-3.5-2.9-3.6-4.3-.6-5.1 2.8-6.8 5.2-7zm10.9-21.8c.6-.7 1.1-1.4 1.7-1.9-3 .4-9.2-1.2-13.2-3.9 13.5 4.1 17.8-.7 23.8.1-6.4.8-12.4 7.7-15.8 15.4.3-3.2 1.3-5.8 2.4-7.9-1.5-.7-3.8-1.6-5.3-1.6 2.2-.6 4.6-.6 6.4-.2zm-6.9 18.6c1.5-4.4-2.4-9.2 2.8-15.7-4.3 16 5 14 3.5 29.7-.2-4.4-2.9-13.4-6.3-14zm7.6 20c1.6-7.8 1.3-11.8-1.2-17.8 9.8 11.5-3 19.8 8.9 25-11.9-1-14.1-10.6-12.3-18.6.3 5.1 1.5 8.6 4.6 11.4zm-3.6-25.3c1.6-5.3 5.8-10.5 8.4-11.6-3 3.8-4.3 6.7-5.3 10 1.3 2.2 2.3 7.5 2.3 11.7-1.6-5.5-3.1-8.1-5.4-10.1zm18.7 11.2c.5.4 1 .7 1.4 1.1 3.3-3.6 9.2-6.1 13.5-6.1-7.7 2-10.5 5.3-12.1 8.2 2 5.1-1.1 10.8-7 10.8-8.8 0-7.8-11-1.3-11 2 0 3.6 1.1 3.6 2.8 0 1.6-1.6 2.9-3.4 2.1 1.8-.7 1.3-2.4-.1-2.4-3.1 0-3.8 5.8 1.3 5.8 6 0 6.1-8.8.4-10.6 3-5.6 7.4-8.1 12.9-14.7-4.7 8.6-8.5 11.8-9.2 14zm7.1-20.4c-.7.3-1.8.5-2.2.5-1.3 3.8-7 10.7-9.7 12.5 4.7-6.2 7.8-11.8 7.6-14.6 4.4-.5 7-1.4 10.1-3.6-3.3 11.2-14.5 18.6-18.5 25.7 1.5-6.6 11-14.3 12.7-20.5zm-16 34.3c2.2 1.5 5.2 1.1 6.4.8-1 2.2-.7 4.6.2 6.8-2.5-1.8-4.6-2.8-6.6-7.6zm27.8-18.7c-.9-5.1-6.9-8.6-4.6-23.2-3.6 1.6-8 3.5-11 3.5 2.7-.3 9.8-3.4 13.2-6.3-1.1 8 .7 16.1 3.8 20.6 2.1-1.9 3.2-3.3 6.8-4.4-3.7 2.7-6 6.1-8.2 9.8zm3 14.3c0-7.8-6.4-12.1-15.5-8.1 3.7-2.8 10.8-5.5 15.8-4.9-2.7 1.4-2.5 6.8 2.2 6.8s5.7-8.4-2.4-8.4c1-2.2 3.3-5.3 7-7.8-1.8 2.1-2.8 4.4-3.3 6.1 3 .3 5.5 3.5 5.5 7.1 0 1.3-.4 2.6-1.2 3.8 1 3.2 2.7 7.7 6.2 10.7-3-.9-7.1-5.8-9-8.6-.6.2-1.3.4-2 .4.6 2.9.2 12.6-10.5 14.4 5.7-2.1 7.2-5.9 7.2-11.5zM431.8 39c-1.7-3.8-3-9.2-3-12.9 1 4.4 3.1 8.2 5.4 11.2-.4.3-1.7 1.1-2.4 1.7zm6.8 24c3.2 5 7.5 7.9 16 10.7-6.7-.2-10.9-1.6-14-3.8-1.2 1.9-5.3 3.8-7.5 3.8 3.2-1.7 6.3-6.3 5.5-10.7zM290.1 18.2h2.2c2.3 0 3.4.9 3.4 2.8 0 .9-.4 1.7-1.1 2.4s-1.6 1.3-2.7 1.7c-1 .4-2 .6-2.9.6s-1.7-.1-2.5-.4-1.4-.7-2-1.2c-.5-.6-.8-1.2-.8-2 0-.2.3-.7.9-1.4.6-.8 1-1.2 1.1-1.3l-.9-.9c-.4-.5-.7-.8-.7-1 .4-.8 1.1-1.5 1.9-2.2-1.3-.8-2-2.1-2-3.9 0-1.4.5-2.5 1.4-3.3s2.1-1.1 3.5-1.1 2.5.2 3.2.7c1.3-.3 2.6-.4 3.9-.4.3 0 .5.2.5.6 0 .7-.1 1.1-.4 1.4l-2.8-.5c.6.8.9 1.7.9 2.7 0 1.6-.5 2.8-1.5 3.5s-2.2 1.1-3.6 1.1c-.4 0-1-.1-1.6-.2-.2.5-.6 1.1-.9 1.7.4.3 1.5.6 3.5.6zm3.2 4.5c.2-.5.2-.9.2-1.4s-.2-.9-.6-1.2-.9-.4-1.5-.4c-2.4 0-3.8 0-4.3-.1-.4.7-.8 1.3-.9 1.8-.2.5-.3.8-.3.8 0 .6.3 1.1.9 1.4a4.65 4.65 0 0 0 2.1.5c.8 0 1.6-.1 2.4-.4 1-.2 1.6-.5 2-1zM292 11.4c0-2-.9-3-2.8-3s-2.8 1-2.8 3c0 1 .2 1.8.7 2.3s1.2.8 2.1.8c1.9 0 2.8-1.1 2.8-3.1zm11.3 6.7c.5 0 1-.1 1.6-.3a5.3 5.3 0 0 0 1.5-.8l-.2-8c-1 0-1.8-.1-2.3-.3l.1-1.3c1.4-.2 2.5-.4 3.3-.4h1.5c0 .3 0 .7-.1 1.2s-.2.8-.2.8l-.3 8.8c.9 0 1.6.1 2.1.3v1.3c-.7.2-1.4.3-2.1.3H307c-.3-.6-.5-1.2-.5-1.7-.8.6-1.6 1.1-2.2 1.4-.7.3-1.1.5-1.3.5-1.4 0-2.5-.4-3.1-1.2s-1-1.9-1-3.4c0 0 .1-2.1.2-6.3-1 0-1.8-.1-2.6-.3l.1-1.3c1.4-.2 2.5-.4 3.3-.4h1.5c0 .4 0 .8-.1 1.3s-.2.7-.2.7v5.3c0 1.2.2 2.2.5 2.7 0 .8.7 1.1 1.7 1.1zm7.3-10.7c1.4-.2 2.5-.4 3.3-.4h1.5c0 .4 0 .8-.1 1.3-.2.6-.3.8-.3.8l-.2 8.9 2.1.2c0 .5-.1 1-.4 1.5h-5.7l-.1-.9c.8-.3 1.5-.5 2.2-.6l-.2-9.2c-1 0-1.7-.1-2.2-.3l.1-1.3zm4.5-2.6c-.4.1-.8.1-1.2.1s-.8 0-1.2-.1c-.1-.5-.1-.9-.1-1.4v-1c.4-.1.7-.1 1.1-.1h1.3c.1.4.1.8.1 1.2v1.3zm12.1 6.8l-.1 6.4c.7 0 1.4.2 2.1.3v.9c-.3.1-.7.3-1.4.4-.7.2-1.4.2-2 .2-.3-.6-.5-1.2-.5-1.7-1.9 1.2-3.2 1.8-3.9 1.8-1.2 0-2.1-.3-2.8-.9s-1.1-1.5-1.1-2.6c0-2.6 1.6-3.9 4.7-4 1.8 0 2.8-.1 2.8-.1v-.8c0-1.1-.2-2-.6-2.5s-1.1-.8-2.1-.8c-.4 0-.9.1-1.4.3l-.6 2.5h-.4l-1-.1c-.3-.7-.4-1.7-.4-2.9.3-.2 1-.4 2.1-.8 1.1-.3 1.8-.5 2.1-.5 1.7 0 2.9.4 3.6 1.1.6.9.9 2.2.9 3.8zm-5.4 6.8c.5 0 1.6-.5 3.3-1.6l-.1-3.1c-1.1.1-2.1.2-2.8.3-.8.1-1.4.3-1.8.7-.5.4-.7.9-.7 1.7 0 1.3.7 2 2.1 2zm9.9-.3c.6.2 1.3.4 2.1.4s1.5-.2 2-.5.7-.7.7-1.3c0-.5-.2-1-.7-1.4-.4-.4-1-.7-1.6-1s-1.3-.6-1.9-.9-1.2-.7-1.6-1.2-.7-1.1-.7-1.8a3.69 3.69 0 0 1 1.1-2.7c.8-.6 1.8-1 3.1-1a8.49 8.49 0 0 1 3.8.9v1.3c0 .7-.1 1.3-.2 1.8-.4.1-.9.2-1.4.2l-.8-2.5c-.4-.2-.9-.3-1.5-.3s-1.1.2-1.5.5-.5.7-.5 1.2.2.9.7 1.3 1 .7 1.6 1 1.3.6 1.9.9 1.2.7 1.6 1.3c.5.5.7 1.1.7 1.8 0 1.2-.5 2.1-1.4 2.8s-2 1-3.4 1c-.7 0-1.5-.1-2.3-.4-.8-.2-1.5-.5-2.1-.9 0-1.1.1-2.1.3-2.9.4-.1.9-.1 1.5-.1l.5 2.5zm16.1 6.2c.6 0 1.2-.6 1.8-1.8s.9-2.1 1-2.8h-.6l-3.9-10.9-2.1-.2c0-.5.1-1 .4-1.5h5.7l.1.9c-.5.2-1.1.4-1.8.5l2.1 6.7.6 2.2h.2l3-8.9-2.1-.5.1-.9h5.5c.3.5.4 1 .4 1.5-.7.1-1.3.1-2 .2-.4 1.3-1.1 3.1-1.9 5.6s-1.5 4.4-2 5.8-1 2.5-1.4 3.3c-.5.9-.9 1.4-1.4 1.7s-1 .4-1.6.4c-1 0-2-.2-2.9-.6l-.4-.2.2-3.1c.1 0 .6-.1 1.4-.1l.8 2.5a1.51 1.51 0 0 0 .8.2zm17.7-6.2c.6.2 1.3.4 2.1.4s1.5-.2 2-.5.7-.7.7-1.3c0-.5-.2-1-.7-1.4-.4-.4-1-.7-1.6-1s-1.3-.6-1.9-.9-1.2-.7-1.6-1.2-.7-1.1-.7-1.8a3.69 3.69 0 0 1 1.1-2.7c.8-.6 1.8-1 3.1-1a8.49 8.49 0 0 1 3.8.9v1.3c0 .7-.1 1.3-.2 1.8-.4.1-.9.2-1.4.2l-.8-2.5c-.4-.2-.9-.3-1.5-.3s-1.1.2-1.5.5-.5.7-.5 1.2.2.9.7 1.3 1 .7 1.6 1 1.3.6 1.9.9 1.2.7 1.6 1.3c.5.5.7 1.1.7 1.8 0 1.2-.5 2.1-1.4 2.8s-2 1-3.4 1c-.7 0-1.5-.1-2.3-.4-.8-.2-1.5-.5-2.1-.9 0-1.1.1-2.1.3-2.9.4-.1.9-.1 1.5-.1l.5 2.5zm14 1.9c-2 0-3.4-.6-4.4-1.7s-1.5-2.7-1.5-4.7c0-4.5 2-6.7 6-6.7a7.47 7.47 0 0 1 2 .3 9.12 9.12 0 0 1 1.6.6c0 1.5-.2 2.6-.5 3.3-.3.1-.5.1-.7.1h-.7l-.6-2.7c-.5 0-.9-.1-.9-.1-1.2 0-2.1.4-2.8 1.1s-1 1.9-1 3.7c0 1.7.3 3 .8 3.9s1.6 1.3 3.1 1.3c.7 0 1.9-.3 3.4-1 .3.4.5.8.5 1.1-.8.5-1.7.9-2.5 1.2-.9.2-1.5.3-1.8.3zm4.8-6.5c0-2.1.5-3.7 1.4-4.9 1-1.2 2.4-1.8 4.4-1.8s3.4.5 4.3 1.6 1.3 2.7 1.3 4.8-.5 3.8-1.4 5-2.4 1.8-4.3 1.8-3.4-.6-4.3-1.7-1.4-2.7-1.4-4.8zm5.7 5c1.4 0 2.3-.4 2.8-1.3s.7-2.1.7-3.7c0-2.5-.6-4.1-1.7-4.8-.5-.3-1.1-.4-1.9-.4s-1.6.2-2.4.5c-.7 1.3-1 2.7-1 4.4 0 1.6.2 2.9.6 3.7.6 1.1 1.5 1.6 2.9 1.6zm13-.4c.5 0 1-.1 1.6-.3a5.3 5.3 0 0 0 1.5-.8l-.2-8c-1 0-1.8-.1-2.3-.3l.1-1.3c1.4-.2 2.5-.4 3.3-.4h1.5c0 .3 0 .7-.1 1.2s-.2.8-.2.8l-.3 8.8c.9 0 1.6.1 2.1.3v1.3c-.7.2-1.4.3-2.1.3h-1.2c-.3-.6-.5-1.2-.5-1.7-.8.6-1.6 1.1-2.2 1.4-.7.3-1.1.5-1.3.5-1.4 0-2.5-.4-3.1-1.2s-1-1.9-1-3.4c0 0 .1-2.1.2-6.3-1 0-1.8-.1-2.6-.3l.1-1.3c1.4-.2 2.5-.4 3.3-.4h1.5c0 .4 0 .8-.1 1.3s-.2.7-.2.7v5.3c0 1.2.2 2.2.5 2.7 0 .8.7 1.1 1.7 1.1zm9.1.1l-.2-9.3H410V8c.2-.1.6-.3 1.4-.6l2-3.2c.3 0 .6.1.8.2v2.7c1.2 0 2.2.1 3 .2 0 .4-.1.9-.4 1.5h-2.7l-.1 9c.9 0 1.8.2 2.8.5v.9c-.2.1-.8.3-1.8.5-.9.2-1.7.3-2.3.3-.1-.1-.2-.4-.3-.9-.2-.4-.3-.7-.3-.9zm7.9-.1c.6.2 1.3.4 2.1.4s1.5-.2 2-.5.7-.7.7-1.3c0-.5-.2-1-.7-1.4-.4-.4-1-.7-1.6-1s-1.3-.6-1.9-.9-1.2-.7-1.6-1.2-.7-1.1-.7-1.8a3.69 3.69 0 0 1 1.1-2.7c.8-.6 1.8-1 3.1-1a8.49 8.49 0 0 1 3.8.9v1.3c0 .7-.1 1.3-.2 1.8-.4.1-.9.2-1.4.2l-.8-2.5c-.4-.2-.9-.3-1.5-.3s-1.1.2-1.5.5-.5.7-.5 1.2.2.9.7 1.3 1 .7 1.6 1 1.3.6 1.9.9 1.2.7 1.6 1.3c.5.5.7 1.1.7 1.8 0 1.2-.5 2.1-1.4 2.8s-2 1-3.4 1c-.7 0-1.5-.1-2.3-.4-.8-.2-1.5-.5-2.1-.9 0-1.1.1-2.1.3-2.9.4-.1.9-.1 1.5-.1l.5 2.5zM107.8 94.8c.7 0 1.6-.2 2.5-.5s1.7-.7 2.3-1.2l-.3-12.5c-1.6 0-2.8-.2-3.6-.5l.2-2c2.2-.4 3.9-.6 5.2-.6 1.2 0 2 0 2.4.1 0 .5-.1 1.1-.2 1.9s-.2 1.2-.3 1.3l-.5 13.8c1.4.1 2.5.2 3.3.5l-.1 2c-1.1.4-2.2.5-3.3.5h-1.9c-.5-1-.8-1.9-.9-2.7-1.3 1-2.4 1.7-3.5 2.2s-1.8.8-2.1.8c-2.3 0-3.9-.6-4.9-1.8s-1.5-3-1.5-5.4l.3-9.9c-1.5 0-2.9-.2-4.1-.5l.2-2c2.2-.4 3.9-.6 5.1-.6s2 0 2.3.1c0 .6-.1 1.3-.2 2-.2.7-.2 1.1-.3 1.1v8.3c0 2 .2 3.4.7 4.3.6.8 1.6 1.3 3.2 1.3zm25.1-17.6c2.5 0 4.3.6 5.4 1.8s1.7 3.1 1.7 5.6c0 .7-.1 4.1-.3 10l3.2.3c0 .7-.2 1.5-.7 2.3h-8.9l-.1-1.4c1.2-.4 2.3-.7 3.5-.9l-.4-11.3a5.87 5.87 0 0 0-.6-2c-.3-.6-.6-1-1.2-1.2-.5-.2-1.2-.3-2-.3-1.7 0-3.3.4-4.9 1.2l-.3 13.2 3.2.3c0 .7-.2 1.5-.7 2.3h-8.9l-.1-1.4c1.2-.4 2.3-.7 3.5-.9l-.4-14.5c-1.4-.1-2.6-.2-3.4-.5l.2-2c1.4-.4 3.4-.6 6.1-.6.3.5.5 1.1.7 2 1.1-.6 2.2-1.1 3.3-1.6 1.1-.2 1.8-.4 2.1-.4zm27.3 7.5l-.2 10c1.1.1 2.2.3 3.3.5l-.1 1.4c-.4.2-1.2.4-2.2.7-1.1.2-2.1.4-3.1.4-.5-.9-.7-1.8-.8-2.7-2.9 1.9-5 2.9-6.2 2.9-1.8 0-3.3-.5-4.4-1.5s-1.7-2.3-1.7-4.1c0-4 2.5-6.1 7.4-6.3l4.4-.1v-1.3c-.1-1.8-.4-3.1-1-3.8-.6-.8-1.7-1.2-3.3-1.2-.7 0-1.4.2-2.2.5l-.9 3.9h-.7l-1.6-.1c-.4-1.1-.6-2.6-.7-4.6.5-.3 1.6-.7 3.4-1.2s2.9-.8 3.4-.8c2.6 0 4.5.6 5.6 1.7 1 1.1 1.6 3 1.6 5.7zm-8.5 10.5c.7 0 2.5-.8 5.2-2.5l-.2-4.8c-1.8.2-3.2.3-4.4.4s-2.1.5-2.9 1c-.7.6-1.1 1.4-1.1 2.6.1 2.2 1.2 3.3 3.4 3.3zm35.9-18c2.5 0 4.3.6 5.4 1.8s1.7 3.1 1.7 5.6c0 .7-.1 4.1-.3 10l3.2.3c0 .7-.2 1.5-.7 2.3H188l-.1-1.4c1.2-.4 2.3-.7 3.5-.9l-.4-11.3a5.87 5.87 0 0 0-.6-2c-.3-.6-.6-1-1.2-1.2-.5-.2-1.2-.3-2-.3-1.7 0-3.3.4-4.9 1.2l-.3 13.2 3.2.3c0 .7-.2 1.5-.7 2.3h-8.9l-.1-1.4c1.2-.4 2.3-.7 3.5-.9l-.4-14.5c-1.4-.1-2.6-.2-3.4-.5l.2-2c1.4-.4 3.4-.6 6.1-.6.3.5.5 1.1.7 2 1.1-.6 2.2-1.1 3.3-1.6 1.1-.2 1.8-.4 2.1-.4zm21.7 17.6c.7 0 1.6-.2 2.5-.5s1.7-.7 2.3-1.2l-.3-12.5c-1.6 0-2.8-.2-3.6-.5l.2-2c2.2-.4 3.9-.6 5.2-.6 1.2 0 2 0 2.4.1 0 .5-.1 1.1-.2 1.9s-.2 1.2-.3 1.3l-.5 13.8c1.4.1 2.5.2 3.3.5l-.1 2c-1.1.4-2.2.5-3.3.5H215c-.5-1-.8-1.9-.9-2.7-1.3 1-2.4 1.7-3.5 2.2s-1.8.8-2.1.8c-2.3 0-3.9-.6-4.9-1.8s-1.5-3-1.5-5.4l.3-9.9c-1.5 0-2.9-.2-4.1-.5l.2-2c2.2-.4 3.9-.6 5.1-.6s2 0 2.3.1c0 .6-.1 1.3-.2 2-.2.7-.2 1.1-.3 1.1v8.3c0 2 .2 3.4.7 4.3.5.8 1.6 1.3 3.2 1.3zm22.8.4c1.1 0 2.9-.5 5.3-1.6.5.7.7 1.3.8 1.8-1.3.8-2.6 1.4-3.9 1.8s-2.2.7-2.7.7c-3 0-5.3-.9-6.8-2.7-1.6-1.8-2.4-4.3-2.4-7.5s.8-5.8 2.3-7.6 3.8-2.8 6.9-2.8c2.4 0 4.2.9 5.4 2.6s1.9 4 1.9 6.8c-.2.4-.4.6-.5.7l-12.4-.2c0 2.6.5 4.6 1.4 6 .9 1.3 2.5 2 4.7 2zm2.4-14.2c-.6-.9-1.6-1.4-3.1-1.4-1.4 0-2.7.3-3.9.8a13.45 13.45 0 0 0-1.5 4.8c2 0 5.2-.1 9.4-.2 0-1.7-.3-3.1-.9-4zm26.4-.7l-7.5 17h-2.7l-7.1-17-3.2-.3c0-.7.2-1.5.7-2.3h9.4l.1 1.4c-.8.4-1.7.6-2.7.9l3.5 10.5.9 3.4h.5l1-3.4 3.6-10.5-3.2-.9.1-1.4h9.5c.4.8.7 1.6.7 2.3-1.5.1-2.5.2-3.6.3zm19.5 4.4l-.2 10c1.1.1 2.2.3 3.3.5l-.1 1.4c-.4.2-1.2.4-2.2.7-1.1.2-2.1.4-3.1.4-.5-.9-.7-1.8-.8-2.7-2.9 1.9-5 2.9-6.2 2.9-1.8 0-3.3-.5-4.4-1.5s-1.7-2.3-1.7-4.1c0-4 2.5-6.1 7.4-6.3l4.4-.1v-1.3c-.1-1.8-.4-3.1-1-3.8-.6-.8-1.7-1.2-3.3-1.2-.7 0-1.4.2-2.2.5l-.9 3.9h-.7l-1.6-.1c-.4-1.1-.6-2.6-.7-4.6.5-.3 1.6-.7 3.4-1.2s2.9-.8 3.4-.8c2.6 0 4.5.6 5.6 1.7s1.6 3 1.6 5.7zM272 95.2c.7 0 2.5-.8 5.2-2.5l-.2-4.8c-1.8.2-3.2.3-4.4.4s-2.1.5-2.9 1c-.7.6-1.1 1.4-1.1 2.6 0 2.2 1.2 3.3 3.4 3.3zm39.3-10.5l-.2 10c1.1.1 2.2.3 3.3.5l-.1 1.4c-.4.2-1.2.4-2.2.7-1.1.2-2.1.4-3.1.4-.5-.9-.7-1.8-.8-2.7-2.9 1.9-5 2.9-6.2 2.9-1.8 0-3.3-.5-4.4-1.5s-1.7-2.3-1.7-4.1c0-4 2.5-6.1 7.4-6.3l4.4-.1v-1.3c-.1-1.8-.4-3.1-1-3.8-.6-.8-1.7-1.2-3.3-1.2-.7 0-1.4.2-2.2.5l-.9 3.9h-.7l-1.6-.1c-.4-1.1-.6-2.6-.7-4.6.5-.3 1.6-.7 3.4-1.2s2.9-.8 3.4-.8c2.6 0 4.5.6 5.6 1.7s1.6 3 1.6 5.7zm-8.4 10.5c.7 0 2.5-.8 5.2-2.5l-.2-4.8c-1.8.2-3.2.3-4.4.4s-2.1.5-2.9 1c-.7.6-1.1 1.4-1.1 2.6 0 2.2 1.1 3.3 3.4 3.3zm32.5-14.9l-7.5 17h-2.7l-7.1-17-3.2-.3c0-.7.2-1.5.7-2.3h9.4l.1 1.4c-.8.4-1.7.6-2.7.9l3.5 10.5.9 3.4h.5l1-3.4 3.6-10.5-3.2-.9.1-1.4h9.5c.4.8.7 1.6.7 2.3-1.5.1-2.5.2-3.6.3zm13.8 14.9c1.1 0 2.9-.5 5.3-1.6.5.7.7 1.3.8 1.8-1.3.8-2.6 1.4-3.9 1.8s-2.2.7-2.7.7c-3 0-5.3-.9-6.8-2.7-1.6-1.8-2.4-4.3-2.4-7.5s.8-5.8 2.3-7.6 3.8-2.8 6.9-2.8c2.4 0 4.2.9 5.4 2.6s1.9 4 1.9 6.8c-.2.4-.4.6-.5.7l-12.4-.2c0 2.6.5 4.6 1.4 6 .9 1.3 2.4 2 4.7 2zm2.4-14.2c-.6-.9-1.6-1.4-3.1-1.4-1.4 0-2.7.3-3.9.8a13.45 13.45 0 0 0-1.5 4.8c2 0 5.2-.1 9.4-.2 0-1.7-.3-3.1-.9-4zm19.6-3.8c2.5 0 4.3.6 5.4 1.8s1.7 3.1 1.7 5.6c0 .7-.1 4.1-.3 10l3.2.3c0 .7-.2 1.5-.7 2.3h-8.9l-.1-1.4c1.2-.4 2.3-.7 3.5-.9l-.4-11.3a5.87 5.87 0 0 0-.6-2c-.3-.6-.6-1-1.2-1.2-.5-.2-1.2-.3-2-.3-1.7 0-3.3.4-4.9 1.2l-.3 13.2 3.2.3c0 .7-.2 1.5-.7 2.3h-8.9l-.1-1.4c1.2-.4 2.3-.7 3.5-.9l-.4-14.5c-1.4-.1-2.6-.2-3.4-.5l.2-2c1.4-.4 3.4-.6 6.1-.6.3.5.5 1.1.7 2 1.1-.6 2.2-1.1 3.3-1.6 1.1-.2 1.9-.4 2.1-.4zm14.6 17.7l-.3-14.6h-3l-.1-1.4c.3-.2 1-.5 2.2-1l3.2-4.9c.5.1.9.2 1.2.4v4.3c1.9 0 3.5.1 4.8.4 0 .7-.2 1.5-.7 2.3h-4.2c-.1 3.1-.1 7.8-.2 14.1 1.4.1 2.9.3 4.3.8v1.4c-.4.2-1.3.5-2.8.8s-2.7.5-3.7.5c-.1-.2-.3-.7-.5-1.3-.1-.9-.2-1.4-.2-1.8zm20.6-.1c.7 0 1.6-.2 2.5-.5s1.7-.7 2.3-1.2l-.3-12.5c-1.6 0-2.8-.2-3.6-.5l.2-2c2.2-.4 3.9-.6 5.2-.6 1.2 0 2 0 2.4.1 0 .5-.1 1.1-.2 1.9s-.2 1.2-.3 1.3l-.5 13.8c1.4.1 2.5.2 3.3.5l-.1 2c-1.1.4-2.2.5-3.3.5h-1.9c-.5-1-.8-1.9-.9-2.7-1.3 1-2.4 1.7-3.5 2.2s-1.8.8-2.1.8c-2.3 0-3.9-.6-4.9-1.8s-1.5-3-1.5-5.4l.3-9.9c-1.5 0-2.9-.2-4.1-.5l.2-2c2.2-.4 3.9-.6 5.1-.6s2 0 2.3.1c0 .6-.1 1.3-.2 2-.2.7-.2 1.1-.3 1.1v8.3c0 2 .2 3.4.7 4.3.6.8 1.6 1.3 3.2 1.3zm24-14.5c-.4 0-1.1.2-2 .5s-1.6.7-2.3 1.1l-.3 12.9 3.2.3c0 .7-.2 1.5-.7 2.3h-8.9l-.1-1.4c1.2-.4 2.3-.7 3.5-.9l-.4-14.5c-1.4-.1-2.6-.2-3.4-.5l.2-2c1.4-.4 3.4-.6 6.1-.6.4.6.7 1.5.8 2.5 3-1.8 4.7-2.7 5.3-2.7s1.2.1 2 .3c.7.2 1.3.5 1.7.7 0 2.6-.2 4.7-.7 6.3-.4.1-.8.2-1.3.2h-1l-.8-4.2c-.1-.3-.4-.3-.9-.3zm21.9 4.4l-.2 10c1.1.1 2.2.3 3.3.5l-.1 1.4c-.4.2-1.2.4-2.2.7-1.1.2-2.1.4-3.1.4-.5-.9-.7-1.8-.8-2.7-2.9 1.9-5 2.9-6.2 2.9-1.8 0-3.3-.5-4.4-1.5s-1.7-2.3-1.7-4.1c0-4 2.5-6.1 7.4-6.3l4.4-.1v-1.3c-.1-1.8-.4-3.1-1-3.8-.6-.8-1.7-1.2-3.3-1.2-.7 0-1.4.2-2.2.5l-.9 3.9h-.7l-1.6-.1c-.4-1.1-.6-2.6-.7-4.6.5-.3 1.6-.7 3.4-1.2s2.9-.8 3.4-.8c2.6 0 4.5.6 5.6 1.7s1.6 3 1.6 5.7zm-8.4 10.5c.7 0 2.5-.8 5.2-2.5l-.2-4.8c-1.8.2-3.2.3-4.4.4s-2.1.5-2.9 1c-.7.6-1.1 1.4-1.1 2.6 0 2.2 1.1 3.3 3.4 3.3zM55.8 78.1c-.4-1.9-.3-3.8-.1-5.6.2-1.7.4-3.4.4-5.1 0-.9-.3-1.7-.8-2.5-.6-1-1.5-1.7-2.3-2.4-.4-.4-1-.6-1.4-1.1-.1-.2-.3-.3-.5-.4.7-.5 1-1.2 1-2.2v-2.7h.6c.3 0 .4-.2.5-.4v-8c0-.2-.1-.7.1-.8.5-.2.1-1.2.1-2.1v-3c0-1 .1-1.9-.2-2.6-.8-2.3-5.5-1.7-6-1.7-.6 0-4.7-.2-6.1 1.5s-.2 5.4-.2 5.9c0 .4.1 2.5.1 2.7v8c.1.3.2.4.5.3h.7v3.3c0 .6.1 1.1.6 1.5.2.1.3.2.5.3l-.3.3c-.3.3-1 .7-1.4 1-1 .7-1.8 1.6-2.6 2.6-.5.7-.7 1.4-.7 2.2 0 1 .1 2.1.1 3.1 0 1.3.3 2.5.4 3.8.1 1.1.2 2.2 0 3.2-.3 1.5-.5 2.9-.5 4.5 0 1.8.3 3.4 1.2 4.9.2.4.4.7.7 1h14.2c.5-.8 1-1.7 1.3-2.6.6-2.4.6-4.7.1-6.9zm-8.7-18.9c-.4 0-.7-.6-.7-.6s.5-.1.7-.1h.6s-.2.7-.6.7zm-1.3-1.4c.4-.1.7-.2 1.3-.2s.7 0 1.3.2c0 0 .3 0 .3.1-.5 0-1.1-.1-1.6-.1s-1.1.1-1.6.1c0-.1.2-.1.3-.1z"></path><path d="M13.8 33.5l-1-.2 1 .2zm24 12.7c-.4-.2-2.1-.8-3.3-1.1s-3.2-.2-4.1-.1c-.9 0-1.5-.1-2-.4s-.6-.9-.6-.9.3-.1.7-.4c.5-.3.6-.7.7-1.1 0-.5-.1-1.2-.4-1.8-.4-.6-1.1-.8-1.4-.9-.4-.1-1.5-.2-2.2.3s-.8 1.5-.8 1.5-.7-.3-1.2-1c-.4-.4-1-1.2-1.3-1.6s-1.1-1.3-1.5-1.7c-.3-.4-.5-.5-.9-.9s-1.2-.9-1.5-1.1c-1.7-.9-2.4-1.1-2.4-1.1a18.32 18.32 0 0 0 2.3 1.3c.6.4 1.3 1.1 1.6 1.3s.8.9 1.1 1.2 1.1 1.4 1.5 2l1.1 1.7c.3.4.8.8 1.3 1.1.5.2 1.1.1 1.1.1s-.1-.4-.1-.8.2-.7.4-.9.6-.4 1-.3.9.4 1.2.8.2.9.2 1c0 .2-.2.9-.4.9s-.6-.5-.6-.5 0-.1.2-.3.3-.7.1-1-.6-.6-1-.6-.6.5-.7.9c0 .3.3 1.2.3 1.2s-.3.2-.9.1c-.7-.1-1.5-.6-1.9-1.1-.5-.5-1.3-1.8-1.6-2.4-.3-.5-1.2-1.7-1.7-2.3s-1.2-1.3-1.6-1.6l-1.9-1.3c-.5-.3-1.3-.6-1.3-.6l1 .6c.2.2.7.5 1.5 1.1s1.4 1.3 1.8 1.7c.3.4 1.3 2 1.5 2.3s1.2 2.4 1.7 2.9c.4.5 1 1 1.6 1.4.5.4 1.5.5 1.7.5s.5-.1.6.1c.1.1.1.4.1 1 .1.6.3.7.5.9s1 .3 1.7.5c.6.1 1 .3 1.1.6a.76.76 0 0 1-.3.8c-.2.1-.8.2-1.3.1-.5 0-1 0-1.3.1s-.4.4-.5.6-.2 1-.5 1.3c-.2.3-.8.2-1.1.1-.3-.2-2.1-1.2-2.6-1.5-.6-.4-1.1-.9-1.3-1.1l-.1-.1-2.4.1-.4.6 1 .5c.6.2 1.8 1 2.3 1.4s2.6 1.7 3.8 2.2 1.7.5 2.2.5.8-.3 1-.6c.2-.4.2-1 .6-1.4s1.7-.5 3.4-.2 2.5.8 2.8 1.3c.4.5.2 1.2-.4 1.6s-3.1.2-4 .5-1.3 1.1-1.4 1.8.3 1.5 1 2.2 4.2 2.5 4.8 2.8.9.5.8.7-.5.2-.9.2l-4.5.2c-1.4 0-2.6.3-2.9.3-.3.1-.4.3-.4.4 0 .2.2.2.5.3s1-.2 1.5-.1c.6.1.3.4.1.6-.2.1-1 .2-1.4.3s-.3.3 0 .4c.3 0 1.2-.2 1.5-.2s.6.3.1.6-1.1.2-1.4.4 0 .3.3.3 1.2-.3 1.5-.3c.2 0 .5.2.3.4s-.7.3-1 .4-.6.2-.5.5 1.1-.2 1.4-.3.8-.2.8 0c.1.2-.4.4-.5.5s-.4.4-.3.6 1.4-.7 1.8-1 1.9-1.1 2.2-1.3c.4-.2 1.9-.6 2.8-.8.7-.2 1.8 0 2.4 0l.5-.5c-.1 0-.1 0-.2.1-.6.1-1.2-.3-1.2-.9-.1-.6.3-1.2.9-1.2.6-.1 1.2.3 1.2.9 0 .2 0 .4-.1.6.3-.2.5-.5.8-.7 0-.1 0-.2-.1-.3-.1-.4-.3-.8-.9-1-.3-.2-1.2-.1-1.5 0-.3 0-.8-.2-1.2-.4s-3.1-2.2-3.5-2.5-.6-.7-.4-1 .8-.3 1.1-.2 1.1.2 1.9.3c.9.1 1.9-.1 2.2-.3.3-.1 1.1-.8 1.6-1.4v-6.8c-.3-.4-.6-.7-.8-.9-.5-.8-1.7-1.5-2.1-1.7z"></path></g><path d="M40.5 62.2c-.1-.6-.6-1-1.2-.9s-1 .6-.9 1.2.6 1 1.2.9c.1 0 .1 0 .2-.1l.6-.6c.1-.1.1-.3.1-.5zm-.9 1.1c-.5.1-1-.3-1-.8-.1-.5.3-1 .8-1 .5-.1 1 .3 1 .8 0 .4-.3.9-.8 1z" class="K"></path><path d="M16 33.7c-1.3-.7-3.2-.5-3.2-.5s1.9 0 3.2.5z" class="J"></path><path d="M15.6 34.4c-.4-.2-1.2-.8-1.8-.9.5.1 1.4.6 1.8.9zm.4-.7l3.3 1.8c-.7-.5-2-1.2-3.3-1.8z" class="L"></path><path d="M36.9 56.9l-1.9-.3c-.3-.1-1-.1-1.1.2-.2.3 0 .7.4 1l3.5 2.5c.4.2.8.4 1.2.4.3 0 1.1-.2 1.5 0 .6.3.8.6.9 1 0 .1 0 .2.1.3l.1-.1c.1-.1.2-.1.3-.2-.1-.4-.3-.7-.5-1-.6-.8-1.9-.6-2.2-.6-.3.1-.7 0-1.1-.3l-3.3-2.4c-.5-.4-.3-.7.3-.7.6.1 1.6.6 3.1.4 1.2-.1 2.2-.8 3-1.6 0-.1-.1-.1-.1-.2V55c-.5.5-1.3 1.2-1.6 1.4-.8.4-1.8.7-2.6.5zm2.4 7c-.6 0-1.6-.1-2.4 0-.9.2-2.5.6-2.8.8-.4.2-1.8 1-2.2 1.3s-1.7 1.2-1.8 1 .2-.5.3-.6.6-.3.5-.5-.5-.1-.8 0-1.3.5-1.4.3c-.1-.3.3-.4.5-.5.3-.1.8-.2 1-.4s-.1-.4-.3-.4-1.2.3-1.5.3-.6-.1-.3-.3.9-.1 1.4-.4.2-.6-.1-.6-1.2.3-1.5.2c-.3 0-.4-.2 0-.4l1.4-.3c.2-.1.5-.5-.1-.6s-1.2.2-1.5.1-.5-.1-.5-.3.1-.4.4-.4c.3-.1 1.5-.3 2.9-.3l4.5-.2c.4 0 .9 0 .9-.2.1-.2-.2-.4-.8-.7S31 58.6 30.3 58c-.7-.7-1.1-1.5-1-2.2s.4-1.6 1.4-1.8c.9-.3 3.4-.1 4-.5s.8-1.1.4-1.6-1.2-1-2.8-1.3c-1.7-.3-2.9-.2-3.4.2-.4.4-.4 1.1-.6 1.4a1 1 0 0 1-1 .6c-.5 0-.9 0-2.2-.5-1.2-.5-3.3-1.8-3.8-2.2s-1.7-1.2-2.3-1.4a4.67 4.67 0 0 1-1-.5l-.2.2c.5.2 1.4.6 1.8.9a44.44 44.44 0 0 1 2.7 1.9c.5.4 2.1 1.4 3.3 1.7 1.3.4 1.9.3 2.4 0 .4-.3.6-1.1.6-1.3s.2-.5.5-.7 1.4-.2 2.5-.2c1 .1 3.3.8 3.2 1.7s-2 .6-3.6.9c-1.7.3-2.3 1.1-2.4 2.2s.7 2.1 1.7 2.9 4.5 2.7 4.5 2.7l-3.6.2c-1.8.1-3.9.4-4.2.6s-.5.6-.1 1c.4.3 2.2-.3 2.2 0s-2.3.4-2 1 2-.2 2.1 0c0 .2-1.9.5-1.7 1.1s2.2-.2 2.2 0-2.1.5-1.8 1.2c.3.6 2.4-.4 2.4-.3s-1.1.7-.8 1.1 1.5-.4 2.4-.9 2.2-1.1 3.1-1.5 2.7-.6 3.2-.6c.1 0 .3 0 .5.1.2 0 .3-.1.4-.2zM20.7 47.5c0 .1.1.1.1.1.1.2.7.7 1.3 1.1s2.3 1.4 2.6 1.5c.3.2.9.2 1.1-.1s.4-1.1.5-1.3.2-.5.5-.6.7-.1 1.3-.1c.5 0 1.1 0 1.3-.1a.76.76 0 0 0 .3-.8c-.1-.3-.5-.5-1.1-.6s-1.4-.3-1.7-.5-.4-.3-.5-.9 0-.9-.1-1-.4 0-.6-.1c-.2 0-1.1-.2-1.7-.5-.5-.4-1.1-.8-1.6-1.4-.4-.5-1.5-2.6-1.7-2.9s-1.1-1.9-1.5-2.3c-.3-.4-1-1.2-1.8-1.7l-1.5-1.1c-.2-.2-1-.6-1-.6l1.3.6c.5.3 1.6 1 1.9 1.3.4.3 1.1.9 1.6 1.6.5.6 1.3 1.8 1.7 2.3l1.6 2.4c.5.5 1.3 1 1.9 1.1.8.3 1.1.1 1.1.1s-.3-.9-.3-1.2.2-.8.7-.9a1.1 1.1 0 0 1 1 .6c.2.3 0 .8-.1 1-.2.2-.2.3-.2.3s.4.5.6.5.4-.7.4-.9 0-.6-.2-1c-.3-.4-.7-.8-1.2-.8-.4-.1-.8.1-1 .3s-.4.5-.4.9.1.8.1.8-.5.1-1.1-.1c-.5-.2-1-.7-1.3-1.1s-.7-1.2-1.1-1.7c-.3-.5-1.2-1.6-1.5-2-.3-.3-.8-1-1.1-1.2s-1-1-1.6-1.3l-2.3-1.3s.7.2 2.4 1.1c.3.2 1.1.7 1.5 1.1s.6.5.9.9 1.2 1.3 1.5 1.7l1.3 1.6c.5.6 1.2 1 1.2 1s.1-1 .8-1.5 1.8-.4 2.2-.3 1.1.3 1.4.9c.4.6.5 1.4.4 1.8 0 .5-.2.8-.7 1.1l-.7.4s.1.6.6.9 1.1.4 2 .4 2.9-.2 4.1.1 2.8.9 3.3 1.1c.4.2 1.6.9 2.1 1.5.2.2.5.5.8.9V48c-.7-.8-1.6-1.4-2.2-1.8-1-.6-3.8-1.5-5.3-1.7-1.6-.2-3.5.2-4.1 0s-.9-.7-.9-.7c.4-.2 1-.5 1.3-1.3s-.3-2.5-.8-2.9c-.6-.4-1.8-1-3.1-.6-1.3.3-1.6 1.4-1.6 1.4-.7-.3-1.5-1.2-2.2-2.1-.6-.9-2-2.2-2.6-2.7-.7-.5-2-1.1-3.3-1.8-1.3-.6-3.2-.5-3.2-.5l1 .2c.6.1 1.4.7 1.8.9s1.3 1 2.3 1.7c1 .8 1.5 1.8 2.1 2.8.7 1 .8 1.9 1.8 3.2 1 1.4 1.6 1.7 2.2 2.1.6.3 1.9.5 1.9.5s-.1.3 0 .8c.1.6.4 1 .7 1.1.2.1 1.5.3 1.8.4s1.1.2.9.6-1.8.2-2.3.2c-.5.1-.8.3-.9.5s-.1 1-.4 1.4c-.3.5-.8 0-1.2-.1s-3.3-2-3.4-2.1v-.1h-.1v.1z" class="K"></path><path d="M40.3 60.7c.5.3.8.6.9 1-.1-.3-.3-.7-.9-1z" class="L"></path><path d="M80.9 33.2l-1 .2c.5 0 1-.2 1-.2zM56.7 63.9c.9.2 2.5.6 2.8.8.4.2 1.8 1 2.2 1.3s1.7 1.2 1.8 1-.2-.5-.3-.6-.6-.3-.5-.5.5-.1.8 0 1.3.5 1.4.3c.1-.3-.3-.4-.5-.5-.3-.1-.8-.2-1-.4s.1-.4.3-.4 1.2.3 1.5.3.6-.1.3-.3-.9-.1-1.4-.4-.2-.6.1-.6 1.2.3 1.5.2c.3 0 .4-.2 0-.4l-1.4-.3c-.2-.1-.5-.5.1-.6s1.2.2 1.5.1.5-.1.5-.3-.1-.4-.4-.4c-.3-.1-1.5-.3-2.9-.3s-4.1-.2-4.5-.2-.9 0-.9-.2c-.1-.2.2-.4.8-.7s4.1-2.2 4.8-2.8c.7-.7 1.1-1.5 1-2.2 0-.8-.3-1.6-1.2-1.8-.9-.3-3.4-.1-4-.5s-.8-1.1-.4-1.6 1.2-1 2.8-1.3c1.7-.3 2.9-.2 3.4.2.4.4.4 1.1.6 1.4a1 1 0 0 0 1 .6c.5 0 .9 0 2.2-.5 1.2-.5 3.3-1.8 3.8-2.2s1.7-1.2 2.3-1.4l.9-.4-.4-.6-2.3-.1c-.1.2-.7.7-1.3 1.1s-2.3 1.4-2.6 1.5c-.3.2-.9.2-1.1-.1s-.4-1.1-.5-1.3-.2-.5-.5-.6-.7-.1-1.3-.1c-.5 0-1.1 0-1.3-.1a.76.76 0 0 1-.3-.8c.1-.3.5-.5 1.1-.6s1.4-.3 1.7-.5c.2-.2.4-.3.5-.9s0-.9.1-1 .4 0 .6-.1c.2 0 1.1-.2 1.7-.5.5-.4 1.1-.8 1.6-1.4.4-.5 1.5-2.6 1.7-2.9s1.1-1.9 1.5-2.3c.3-.4 1-1.2 1.8-1.7l1.5-1.1c.2-.2 1-.6 1-.6l-1.3.6c-.5.3-1.6 1-1.9 1.3-.4.3-1.1.9-1.6 1.6-.5.6-1.3 1.8-1.7 2.3l-1.6 2.4c-.5.5-1.3 1-1.9 1.1-.7.1-.9-.1-.9-.1s.3-.9.3-1.2-.2-.8-.7-.9a1.1 1.1 0 0 0-1 .6c-.2.3 0 .8.1 1 .2.2.2.3.2.3s-.4.5-.6.5-.4-.7-.4-.9 0-.6.2-1c.3-.4.7-.8 1.2-.8.4-.1.8.1 1 .3s.4.5.4.9-.1.8-.1.8.5.1 1.1-.1c.5-.2 1-.7 1.3-1.1s.7-1.2 1.1-1.7c.3-.5 1.2-1.6 1.5-2 .3-.3.8-1 1.1-1.2.3-.3 1-1 1.6-1.3l2.3-1.3s-.7.2-2.4 1.1c-.3.2-1.1.7-1.5 1.1s-.6.5-.9.9-1.2 1.3-1.5 1.7L71 40.1c-.5.6-1.2 1-1.2 1s-.1-1-.8-1.5-1.8-.4-2.2-.3-1.1.3-1.4.9c-.4.6-.5 1.4-.4 1.8 0 .5.2.8.7 1.1l.7.4s-.1.6-.6.9-1.1.4-2 .4-2.9-.2-4.1.1a9.83 9.83 0 0 0-1.6.5s.1 0 .1.1c.1.1.1.2.1.3 0 .4-.2.5-2.2.5-.5.3-1.3.8-1.7 1.3l-.4.4v7.4c0 .1 0 .1-.1.1l1.2 1c.4.2 1.4.4 2.2.3l1.9-.3c.3-.1 1-.1 1.1.2.2.3 0 .7-.4 1l-3.5 2.5c-.4.2-.8.4-1.2.4-.3 0-1.1-.1-1.5 0-.5.3-.8.6-.9 1v.1c.3 0 .5.1.7.3.1-.6.6-1 1.2-.9s1 .6.9 1.2c-.1.4-.4.8-.8.9l.4.4c.3.2 1 .2 1.5.3z" class="J"></path><path d="M55.3 62.5c.1-.6-.3-1.2-.9-1.2-.6-.1-1.1.3-1.2.9l.1.1v-.1c.1-.5.5-.9 1-.8s.9.5.8 1c-.1.4-.4.7-.8.8l.1.1c.5 0 .8-.3.9-.8z" class="K"></path><path d="M80.9 33.2s-2-.2-3.2.5c1.3-.5 3.2-.5 3.2-.5z" class="J"></path><path d="M79.9 33.5c-.6.1-1.4.7-1.8.9.4-.3 1.2-.8 1.8-.9zm-5.5 2c.7-.5 2-1.1 3.3-1.8-1.3.6-2.7 1.3-3.3 1.8z" class="L"></path><g class="K"><path d="M74.7 48.7c-.6.2-1.8 1-2.3 1.4s-2.6 1.7-3.8 2.2-1.7.5-2.2.5-.8-.3-1-.6c-.2-.4-.2-1-.6-1.4s-1.7-.5-3.4-.2-2.5.8-2.8 1.3c-.4.5-.2 1.2.4 1.6s3.1.2 4 .5 1.3 1.1 1.4 1.8-.3 1.5-1 2.2-4.2 2.5-4.8 2.8-.9.5-.8.7.5.2.9.2l4.5.2c1.4 0 2.6.3 2.9.3.3.1.4.3.4.4 0 .2-.2.2-.5.3s-1-.2-1.5-.1c-.6.1-.3.4-.1.6s1 .2 1.4.3.3.3 0 .4c-.3 0-1.2-.2-1.5-.2s-.6.3-.1.6 1.1.2 1.4.4 0 .3-.3.3-1.2-.3-1.5-.3c-.2 0-.5.2-.3.4s.7.3 1 .4.6.2.5.5c0 .3-1-.1-1.3-.2s-.8-.2-.8 0 .4.4.5.5.4.4.3.6-1.4-.7-1.8-1-1.9-1.1-2.2-1.3c-.4-.2-1.9-.6-2.8-.8-.5-.1-1.2-.1-1.8 0l.3.3c.5 0 2.3.2 3.2.6s2.2.9 3.1 1.5c.9.5 2 1.3 2.4.9.3-.4-.8-1-.8-1.1s2.1.9 2.4.3-1.8-.9-1.8-1.2 2 .6 2.2 0-1.7-.9-1.7-1.1 1.8.6 2.1 0-2-.7-2-1 1.8.3 2.2 0 .2-.7-.1-1c-.3-.2-2.4-.6-4.2-.6l-3.6-.2 4.5-2.7c1-.8 1.8-1.8 1.7-2.9s-.7-1.9-2.4-2.2-3.6 0-3.6-.9c-.1-.9 2.2-1.6 3.2-1.7s2.2 0 2.5.2.4.5.5.7c0 .2.2 1 .6 1.3s1.1.3 2.4 0c1.3-.4 2.8-1.3 3.3-1.7a44.44 44.44 0 0 1 2.7-1.9l1.6-.8-.2-.2c-.3-.1-.6 0-.9.1zm-19.3-2.3h-.7l-1.4 1.1v.5l.4-.4c.5-.3 1.2-.9 1.7-1.2z"></path><path d="M57.1 45.4s-.1 0-.1.1c.2 0 .5 0 .6.1.5-.2 1.1-.3 1.6-.5 1.2-.3 3.2-.2 4.1-.1.9 0 1.5-.1 2-.4s.6-.9.6-.9-.3-.1-.7-.4c-.5-.3-.6-.7-.7-1.1 0-.5.1-1.2.4-1.8.4-.6 1.1-.8 1.4-.9.4-.1 1.5-.2 2.2.3s.8 1.5.8 1.5.7-.3 1.2-1c.4-.4 1-1.2 1.3-1.6s1.1-1.3 1.5-1.7c.3-.4.5-.5.9-.9s1.2-.9 1.5-1.1c1.7-.9 2.4-1.1 2.4-1.1s-1.1.5-2.3 1.3c-.6.4-1.3 1.1-1.6 1.3l-1.1 1.2c-.3.3-1.1 1.4-1.5 2l-1.1 1.7c-.3.4-.8.8-1.3 1.1-.5.2-1.1.1-1.1.1s.1-.4.1-.8-.2-.7-.4-.9-.6-.4-1-.3-.9.4-1.2.8-.2.9-.2 1c0 .2.2.9.4.9s.6-.5.6-.5 0-.1-.2-.3-.3-.7-.1-1 .6-.6 1-.6.6.5.7.9c0 .3-.3 1.2-.3 1.2s.3.2.9.1c.7-.1 1.5-.6 1.9-1.1.5-.5 1.3-1.8 1.6-2.4.3-.5 1.2-1.7 1.7-2.3s1.2-1.3 1.6-1.6l1.9-1.3c.5-.3 1.3-.6 1.3-.6l-1 .6c-.2.2-.7.5-1.5 1.1s-1.4 1.3-1.8 1.7c-.3.4-1.3 2-1.5 2.3s-1.2 2.4-1.7 2.9c-.4.5-1 1-1.6 1.4-.5.4-1.5.5-1.7.5s-.5-.1-.6.1c-.1.1-.1.4-.1 1-.1.6-.3.7-.5.9s-1 .3-1.7.5c-.6.1-1 .3-1.1.6a.76.76 0 0 0 .3.8c.2.1.8.2 1.3.1.5 0 1 0 1.3.1s.4.4.5.6.2 1 .5 1.3c.2.3.8.2 1.1.1.3-.2 2.1-1.2 2.6-1.5.6-.4 1.1-.9 1.3-1.1h-.3c-.5.4-2.9 2-3.3 2.1s-.9.6-1.2.1-.3-1.2-.4-1.4-.4-.4-.9-.5-2.2.2-2.3-.2c-.2-.4.6-.6.9-.6.3-.1 1.6-.2 1.8-.4.2-.1.6-.6.7-1.1.1-.6 0-.8 0-.8s1.2-.1 1.9-.5c.6-.3 1.2-.7 2.2-2.1s1.1-2.2 1.8-3.2 1.1-2.1 2.1-2.8l2.3-1.7c.4-.2 1.2-.8 1.8-.9l1-.2s-1.9-.1-3.2.5l-3.3 1.8c-.7.5-2 1.8-2.6 2.7s-1.5 1.8-2.2 2.1c0 0-.3-1.1-1.6-1.4s-2.5.2-3.1.6-1.1 2.2-.8 2.9c.3.8.9 1.1 1.3 1.3 0 0-.3.5-.9.7s-2.5-.2-4.1 0l-2 .4c.2.1-.5.2-1 .2zm-3.8 15.3c.3-.2 1.2-.1 1.5 0 .3 0 .8-.2 1.2-.4s3.1-2.2 3.5-2.5.6-.7.4-1-.8-.3-1.1-.2-1.1.2-1.9.3c-.9.1-1.9-.1-2.2-.3a4.4 4.4 0 0 1-1.2-1c-.1.2-.2.3-.3.4.8.7 1.7 1.3 2.8 1.4 1.6.2 2.6-.3 3.1-.4.6-.1.8.3.3.7l-3.3 2.4c-.4.3-.8.3-1.1.3-.3-.1-1.6-.2-2.2.6-.2.3-.4.6-.5 1h.4v-.1c-.2-.5 0-.9.6-1.2z"></path></g><path d="M52.4 61.8c.1-.4.3-.8.9-1-.6.2-.8.6-.9 1z" class="L"></path><path d="M56.4 80.9zm0 0zm0 0z" class="K"></path><path d="M57.1 79.6c.1-.4 0-.6-.1-.9-.1-.2-1-1.6-1.1-1.8v.1l.4 1.8c0 .1 0 .4.1.7v.4c0 .4.1.8.1.8-.1.2.5-.7.6-1.1z" class="J"></path><path d="M56.4 80.9zM37.2 64.5c-.9.1-1.5.4-1.5.4h.3l.1-.1c.1 0 .1-.1.1-.1s-.1.2 0 .2c.1.1.2.1.2.1s-.1-.1-.1-.2.1-.1.1-.1 0 .3.4.4.3-.6.4-.4c.2.5.8.6.8.6s-.2-.3-.2-.5c.1-.3.8-.4.8-.4-.5 0-.7 0-1.4.1zm19.4.4c.1-.2 0 .4.4.4s.4-.4.4-.4l.1.1c0 .1-.1.2-.1.2s.1 0 .2-.1 0-.2 0-.2.1 0 .1.1l.1.1c.2.1.5-.1.5-.1s-.6-.3-1.5-.5c-.7-.1-1-.2-1.4-.2 0 0 .6.2.7.6 0 .2-.1.5-.1.5s.4 0 .6-.5z" class="K"></path><g class="J"><path d="M37.1 79.9c.1.3.8 1.5.8 1.5v-.5c0-.1 0-.6.1-1.1 0-.3 0-.6.1-.8 0-.2.1-.5.1-.7 0-.3.1-.5.1-.8.1-.3.1-.6.1-.6 0-.1.1-.5.1-.5-.1.2-1.1 1.9-1.4 2.4s-.1.8 0 1.1zm-8.7-4.6c-.6-.7-1.1-1.2-1.7-1.2.3.4.6.8 1 1.1 1.3 1.3 2.8 1.4 4.1.7 1.1-.6 2.2-1.1 2.9-3.1.1-.4.5-1.1 1-1.5-.5.1-1.6.5-1.7 1.3s0 1.4-.7 1.6c-.3.1-.9.2-1.5 0 1.2 0 1.5-.2 1.8-1.1-.2.3-.4.5-1 .7-1.3.4-2.9.5-3.8.6.5 0 .6.1.7.2.2.3.6.8 1.2.7-.5.3-.9.2-1.1.1-.5-.2-.2-.5-.5-.6-.1 0-.3 0-.4.1s0 .3.1.3c1.1.8 2.7.3 3.1-.3-.6.1-1.3.1-1.5-.3 0-.1 0-.1.1-.2.3-.2.7-.1 1.1-.1.3.1.6.2 1.5.2-.2.2-.6.5-1.1.8-1.4 1.2-3 .8-3.6 0z"></path><path d="M34.3 71.5c-.5.5-1.3 1.4-2.4 1.7-.8.3-1.8.2-2.6 0l-1.5-.4c-.4-.1-.9-.1-1.3-.3-.7-.2-1.1-.4-1.1-.4s.4 1 1 1.3c.8.5 2.5.7 3.2.6l1.5-.2s-1.8.1-2.2-.1c-.5-.2-.5-.5-.8-.5-.1 0-.2.1-.2.3 0 0 0-.1.1-.1s.2 0 .2.1 0 .2-.1.2c-.2 0-.5-.3-.7-.4-.5-.3-.7-.2-.7-.1-.1.1 0 .2.1.2h.1c0-.1-.2 0-.2-.1 0 0 .1-.1.2-.1.1.1.2.2.1.3 0 .1-.2.2-.5 0-.2-.1-.2-.3-.2-.3 0-.1 0-.2.3-.3.4 0 .9.1 1.6.3.5.2 1.9.5 2.9.4.7-.1 1.8-.5 2.7-1.5.4-.4 1.4-1.4 1.4-2.2 0-.5-.1-.8-.4-.9-.4-.1-.9-.1-1.1.3s-.7 1.1-.7 1.1.5-.3.9-.1c.3.2.3.6-.1 1s-.9.8-1.1.9c-.4.2-.5 0-.5-.1.1-.2.4 0 .4-.3 0-.2-.4-.3-1.2.3-1.1.8-2.4.9-2.4.9s1.7.3 2.7 0c1.2-.4 1.7-1 2.3-1.5s1-1.1 1-1.6c0-.4-.4-.4-.5-.3s-.3.3-.2.5c.1.1.3 0 .3-.1s-.1-.2-.1-.2.3-.1.3.2c0 .2-.1.3-.3.4s-.4 0-.5-.1-.3-.4-.2-.6c.2-.5.7-.5.9-.5s.5.3.4.9c.1.5-.4 1-.8 1.4zm3.8-.4c-.1 0-.1 0 0 0-.3.2-.8.4-1.5 1-1.5 1.1-2 2.3-1.6 5.9.2-.1 1-.9 1.2-1.2A13.41 13.41 0 0 0 38 74c.3-.6-.1-1-.6-.9-.8 0-1.2.6-1.5 1.2-.1.2-.1.5.1.7.2.1.7 0 .9-.3s-.3-.4-.3 0c-.2.1-.4.1-.5.1-.1-.1.2-.8.6-1.1s.9-.4 1.1-.2c.3.3-.6 1.6-1 2.3-.2.3-.9 1-1.2.8-.2-.1-.4-.7-.4-1.5 0-1.3 1-2.4 1.8-2.7 1-.3 1.4.9 1.4.9v-.1c0-.2-.1-.4-.1-.6-.1-.5-.2-1-.2-1.5zm-.7-2.6c.3.1.5.4.6.5v-.4c-.3-.3-.9-.7-1.4-.4-.2.1-.3.5-.2.7.2.4.5.5.7.4.3 0 .6-.1.6-.2-.9.1-1.3-.4-.9-.8l.6.2z"></path><path d="M34.4 67.3c.5.6.7 1 1 1.7.2.6.3 1 .6 1.4.2.5.5.6.9.4.5-.3.9-.4 1.2-.5v-.8c-.1.2-.4.7-1 .8-.5.1-.9-.3-1.1-.5-.3-.5-.5-1-.4-1.6s.5-.8 1-.7c.8.1 1 .4 1.4.9v-.7c-1-.6-2.3-.8-3.6-.4z"></path><path d="M27.7 77.3c1.7 1.7 3.8 2.1 5.6 1.5 1.2-.4 1.2-.7 1.2-1.9 0-1 0-2 .2-3 .4-2 2.4-2.9 3.2-3.1v-.4c-2.6.9-3.6 2.2-3.7 5 0 .7-.1 1.9-.5 2.5-.4.5-1.1.8-1.9.8-1 .1-3.3-.5-4.5-2.2 1.4.9 1.8 1 2.4 1.1.7.1 1.3.1 1.8-.1.9-.3 2.1-.8 2.1-2.6-1.6 2.1-3 2.6-4.8 2-1.6-.6-3-2.2-3.8-4.7.3.8.6 3.1 2.7 5.1zm33.1-3c-.6-.2-.6-.9-.7-1.6-.1-.8-1.2-1.2-1.7-1.3.5.4.9 1.1 1 1.5.7 1.9 1.7 2.5 2.9 3.1 1.3.7 2.9.5 4.1-.7l1-1.1c-.6.1-1.2.5-1.7 1.2-.6.8-2.2 1.2-3.7.2-.5-.3-.9-.6-1.1-.8.9 0 1.2-.1 1.5-.2.4-.1.8-.1 1.1.1.1 0 .1.1.1.2-.3.4-1 .4-1.5.3.4.6 1.9 1.2 3.1.3.1-.1.2-.2.1-.3s-.3-.2-.4-.1c-.3.1 0 .4-.5.6-.1 0-.6.1-1.1-.1.6 0 1-.5 1.2-.7.1-.1.2-.2.7-.2-.9-.1-2.5-.2-3.8-.6-.5-.2-.8-.4-1-.7.3 1 .6 1.2 1.8 1.1-.4 0-1-.1-1.4-.2z"></path><path d="M66.4 72.9c-.5.1-1.1.3-1.5.4a5.71 5.71 0 0 1-2.6 0c-1.1-.4-1.9-1.2-2.4-1.7-.4-.5-.9-1-.9-1.6s.2-.8.4-.9c.3-.1.7 0 .9.5.1.2 0 .4-.2.6-.1.1-.3.2-.5.1s-.3-.2-.3-.4c.1-.3.3-.2.3-.2s-.1.1-.1.2.2.2.3.1 0-.4-.2-.5c-.1-.1-.5-.1-.5.3 0 .6.4 1.2 1 1.6.6.5 1.1 1.1 2.3 1.5 1 .3 2.7 0 2.7 0s-1.2-.1-2.4-.9c-.8-.6-1.2-.5-1.2-.3s.3 0 .4.3c0 .1 0 .3-.5.1-.2-.1-.7-.5-1.1-.9s-.4-.9-.1-1c.3-.2.9.1.9.1l-.7-1.1c-.2-.4-.7-.5-1.1-.3-.3.1-.4.4-.4.9 0 .9 1 1.8 1.4 2.2.9 1 1.9 1.5 2.7 1.5 1 .1 2.4-.2 2.9-.4.8-.2 1.2-.4 1.6-.3.3 0 .3.2.3.3s0 .2-.2.3c-.3.2-.4.1-.5 0 0-.1 0-.2.1-.3s.2 0 .2.1-.1 0-.2.1c0 0 0 .1.1 0 .1 0 .1-.1.1-.2-.1-.1-.3-.2-.7.1-.2.1-.5.4-.7.4-.1 0-.2-.1-.1-.2 0-.1.1-.1.2-.1s.1.1.1.1c.1-.1 0-.3-.2-.3-.3 0-.3.3-.8.5-.4.2-2.2.1-2.2.1s.8.2 1.5.2c.7.1 2.3-.2 3.2-.6.7-.4 1-1.3 1-1.3s-.4.2-1.1.4c-.4.4-.8.4-1.2.5zm-7.2 5c.4-3.6-.1-4.7-1.6-5.9l-1.4-.9h-.1c0 .5-.1 1-.2 1.5 0 .2-.1.4-.1.6v.1s.4-1.3 1.4-.9c.8.2 1.7 1.4 1.8 2.7 0 .9-.2 1.5-.4 1.5-.3.1-1-.6-1.2-.8-.4-.6-1.3-1.9-1-2.3.2-.2.7-.1 1.1.2s.7 1 .6 1.1-.3.1-.5-.1c0-.4-.5-.3-.3 0s.7.4.9.3.2-.5.1-.7c-.3-.7-.7-1.2-1.5-1.2-.5 0-.9.4-.6.9.6 1.1 1 1.7 1.8 2.8l1.2 1.1zm-2.6-8.7c.1 0 .3.2.6.2s.6-.1.7-.4 0-.6-.2-.7c-.5-.3-1.1.1-1.4.4v.4c.1-.2.3-.4.6-.5s.6-.2.7 0c.3.2-.1.7-1 .6z"></path><path d="M56.2 70.1s0 .1 0 0c.3.2.7.3 1.2.6.4.2.7.1.9-.4l.6-1.4c.2-.7.4-1.1 1-1.7a4.17 4.17 0 0 0-3.5.5v.7c.4-.6.7-.8 1.4-.9.5-.1.9.1 1 .7s-.1 1.1-.4 1.6c-.2.3-.6.6-1.1.5-.6-.1-.9-.6-1-.8-.1.2-.1.4-.1.6zm8.8 6.8c-1.8.6-3.2.2-4.8-2 0 1.9 1.3 2.3 2.1 2.6.5.2 1.1.2 1.8.1.6-.1 1.1-.2 2.4-1.1-1.1 1.7-3.5 2.3-4.5 2.2-.7-.1-1.4-.3-1.9-.8-.4-.5-.5-1.7-.5-2.5-.1-2.8-1.1-4.1-3.7-5v.4c.8.2 2.8 1.2 3.2 3.1.2 1 .2 2 .2 3 0 1.2.1 1.5 1.2 1.9 1.8.6 3.9.2 5.6-1.5 2.1-2 2.4-4.3 2.4-5.2-.5 2.5-1.9 4.2-3.5 4.8z"></path></g><g class="K"><path d="M76.8 46.7c.1.1.7-.5.9-.7s.6-.6.8-.4-.3.8-.5 1.1l-1.7 1.6s-.1.1-.2.1l.8 1.3.9-2.4c0-.1.1-.2.3-.2l2.5-.7-2-1.6c-.2.4-.7.9-.8 1.1-.3.1-1.1.7-1 .8zm-4.2.5c0 .1 0 .1 0 0l.2.1c.1-.2.2-.4.2-.6l-.4.5zm2.4-2.7c.6-.4.6.2.5.4s-.6.7-.4.8 1.4-1.4 1.5-1.6c.2-.2.7-.9.9-.8.2.2-.1.6-.2.8-.2.2-1 1.3-.9 1.3.1.1.9-1 1-1.2s.7-1.1 1-.7-.7 1.3-.9 1.4c-.1.2-.9.9-.9 1 .1.1.9-.9 1.1-1 .1-.1.5-.6.7-.7l.1-2.5-2.1 1.5c-.1.1-.2.1-.4 0l-2.4-.9.7 2.5c0 .1 0 .3-.1.4l-.4.5c.1-.1.3-.2.4-.3.2-.1.8-.9.8-.9z"></path><path d="M75.5 47.5l.4.6a4.31 4.31 0 0 0 1-.7l1.1-1.1c.1-.2.4-.5.3-.5-.1-.1-.6.4-.7.5-.1.2-.8.8-1 .5s.4-.6.5-.8l1-1.1c.1-.2.6-.9-.2-.1l-1.3 1.4c-.1.1-.3-.1-.1-.3.1-.2 1.2-1.3 1.4-1.5s.5-.6.3-.7c-.1-.1-.4.2-.5.4s-1.1 1.4-1.3 1.5-.4.1-.4-.1.6-.7.7-.9.8-1 .7-1.1-.4.2-.5.4-1.2 1.5-1.4 1.7c-.1.1-.5.5-.7.3s0-.4.1-.6c.1-.1.5-.7.4-.8s-.4.2-.5.4-.6.8-.9 1-.6.4-.7.7c-.1.2-.1.5-.2.7l2.1.1c.2 0 .4 0 .4.1z"></path><path d="M73.9 45.9c.3-.2.8-.8.9-1s.4-.5.5-.4-.3.7-.4.8-.3.4-.1.6.5-.2.7-.3c.1-.1 1.2-1.5 1.4-1.7.1-.2.4-.5.5-.4s-.6.9-.7 1.1-.6.7-.7.9c0 .2.2.2.4.1s1.1-1.4 1.3-1.5c.1-.2.4-.5.5-.4s-.1.4-.3.7l-1.4 1.5c-.1.2 0 .4.1.3s.6-.5 1.3-1.4c.7-.8.3-.1.2.1s-.8.9-1 1.1-.8.5-.5.8c.2.3.9-.4 1-.5.1-.2.6-.6.7-.5s-.2.4-.3.5c-.1.2-.7.7-1.1 1.1-.2.2-.6.4-1 .7l.2.3c.1 0 .1-.1.2-.1.3-.2 1.5-1.3 1.7-1.6.3-.3.7-.8.5-1.1-.2-.2-.6.2-.8.4s-.8.8-.9.7.7-.7.9-.9c.1-.1.6-.7.8-1.1-.1-.1-.1-.2-.1-.3-.3.1-.6.6-.7.7-.2.2-1 1.1-1.1 1s.7-.8.9-1c.1-.2 1.2-1.1.9-1.4-.3-.4-.9.5-1 .7s-.9 1.3-1 1.2.7-1.1.9-1.3.4-.7.2-.8c-.2-.2-.8.5-.9.8-.2.2-1.4 1.8-1.5 1.6-.2-.1.3-.6.4-.8s.2-.8-.5-.4c0 0-.5.7-.8.9a1.38 1.38 0 0 1-.4.3l-.8.9c-.1.2-.2.5-.2.6h.2c.1-.2.1-.5.2-.7.2-.4.5-.6.7-.8z"></path></g><g class="J"><path d="M77 50.1c.2 0 .3-.1.4-.3l.9-2.4 2.5-.7c.1 0 .3-.2.3-.3s0-.3-.1-.4l-2-1.6.1-2.6a.76.76 0 0 0-.2-.4c-.1-.1-.3-.1-.4 0l-2.1 1.5-2.6-.9c-.1-.1-.3 0-.4.1s-.2.3-.1.4L74 45l-1.6 2c-.1.1-.1.3-.1.4.1.1.2.2.3.2s.1-.1.1-.1 0-.1.1-.1h-.2c-.2 0-.3-.2-.2-.3l1.6-2c0-.1.1-.1 0-.2l-.7-2.5c0-.2.1-.3.3-.3l2.4.9h.2l2.1-1.5c.1-.1.3 0 .3.2l-.1 2.5v.1s0 .1.1.1l2 1.6c.1.1.1.3-.1.4l-2.5.7c-.1 0-.1.1-.1.1l-.9 2.4c-.1.2-.3.2-.4 0l-.9-1.3c-.1 0-.1 0-.2.1l.9 1.3c.3.3.4.4.6.4z"></path><path d="M75.2 47.5H73c0 .1-.1.1-.1.2l2.3.1.4.6c.1 0 .1-.1.2-.1l-.4-.6c-.1-.1-.1-.2-.2-.2z"></path><path d="M73 47.5h-.2s0 .1-.1.1l-.1.1h.3c0-.1.1-.2.1-.2z"></path></g><path d="M78.6 44.5v-.1.1z" fill="#fdcd00"></path><g class="J"><path d="M75.8 48.2c-.1 0-.1.1-.2.1l.2.2c.1 0 .1-.1.2-.1l-.2-.2zm2.8-3.5l2 1.6-2.5.7c-.1 0-.2.1-.3.2l-.8 2.5-.8-1.3s-.1.1-.2.1l.9 1.3c.1.1.3.1.4 0l.9-2.4c0-.1.1-.1.1-.1l2.5-.7c.2 0 .2-.3.1-.4l-2-1.6-.1-.1c-.2.1-.2.1-.2.2zm-6 2.6c0-.1 0-.1 0 0l.5-.6c.1-.2.1-.4.2-.4.1-.1.3-.3.6-.5l.4-.5c.1-.1.1-.2.1-.4l-.7-2.5 2.4.9h.4l2.1-1.5-.1 2.5h.2l.1-2.5c0-.2-.2-.3-.3-.2l-2.1 1.5h-.2l-2.4-.9c-.2-.1-.3.1-.3.3l.7 2.5v.2l-1.6 2c-.1.1 0 .3.2.3h.2s0-.1.1-.2h-.5z"></path><path d="M75.5 47.5c-.1-.1-.2-.2-.3-.2l-2.1-.1c0 .1 0 .1-.1.2l2.2.1c.1 0 .1 0 .2.1l.4.6c.1 0 .1-.1.2-.1l-.5-.6z"></path><path d="M75.9 48.1c-.1 0-.1.1-.2.1l.2.2c.1 0 .1-.1.2-.1l-.2-.2zm-2.8-.8h-.2c0 .1-.1.1-.1.2h.2c0-.1 0-.1.1-.2zm.2-1.1c0 .1-.1.2-.2.4l.8-.9c-.3.2-.6.4-.6.5zm5.1-1.9c0 .2 0 .3.1.4 0-.1.1-.1.1-.2v-.1c0-.1-.1-.1-.2-.1z"></path></g><g class="K"><path d="M20.8 47.1l-.1-.1c0 .1 0 .1.1.1zM15.9 45c.2.2 1 1.1 1.1 1s-.7-.8-.9-1c-.1-.1-1.1-1-.8-1.3.3-.4.9.5 1 .7s.9 1.3 1 1.2-.7-1.1-.9-1.3-.4-.7-.2-.8c.2-.2.8.5.9.8.2.2 1.4 1.8 1.5 1.6.2-.1-.3-.6-.4-.8-.2-.2-.2-.8.5-.4 0 0 .4.6.7.8l-.2-.2c-.1-.1-.1-.2-.1-.3l.7-2.4-2.3.9h-.4l-2-1.4.1 2.4c.3-.1.6.4.7.5zm-.2 1.7c-.3-.3-.7-.8-.5-1.1.2-.2.6.2.8.4s.8.8.9.7-.7-.7-.9-.9c-.1-.1-.6-.7-.8-1.1l-2 1.5 2.4.6c.1 0 .2.1.3.2l.8 2.3.8-1.2c-.4 0-1.6-1.1-1.8-1.4z"></path><path d="M19.9 46c-.1 0-.1-.1-.2-.1-.3-.2-.8-.8-.9-1s-.4-.5-.5-.4.3.7.4.8.3.4.1.6-.5-.2-.7-.3-1.2-1.5-1.4-1.7c-.1-.2-.4-.5-.5-.4s.6.9.7 1.1.6.7.7.9c0 .2-.2.2-.4.1s-1.1-1.4-1.3-1.5c-.1-.2-.4-.5-.5-.4s.1.4.3.7l1.4 1.5c.1.2 0 .4-.1.3s-.6-.5-1.3-1.4c-.7-.8-.3-.1-.2.1s.8.9 1 1.1.8.5.5.8c-.2.3-.9-.4-1-.5-.1-.2-.6-.6-.7-.5s.2.4.3.5c.1.2.7.7 1.1 1.1.2.2.5.4.8.6l.4-.6c.1-.1.2-.2.3-.2l2.2-.1c-.1-.2-.1-.4-.2-.5l-.3-.6zm.8 1l-.3-.4c0 .2.1.3.2.5h.2c-.1 0-.1 0-.1-.1z"></path><path d="M15.6 46.3c-.1-.2-.4-.5-.3-.5.1-.1.6.4.7.5.1.2.8.8 1 .5s-.4-.6-.5-.8l-1-1.1c-.1-.2-.6-.9.2-.1l1.3 1.4c.1.1.3-.1.1-.3-.1-.2-1.2-1.3-1.4-1.5s-.5-.6-.3-.7c.1-.1.4.2.5.4s1.1 1.4 1.3 1.5.4.1.4-.1-.6-.7-.7-.9-.8-1-.7-1.1.4.2.5.4 1.2 1.5 1.4 1.7.5.5.7.3 0-.4-.1-.6c-.1-.1-.5-.7-.4-.8s.4.2.5.4.6.8.9 1c.1 0 .1.1.2.1l-.5-.7c-.3-.2-.7-.8-.7-.8-.6-.4-.6.2-.5.4.2.2.6.7.4.8s-1.4-1.4-1.5-1.6c-.2-.2-.7-.9-.9-.8-.2.2.1.6.2.8.2.2 1 1.3.9 1.3-.1.1-.9-1-1-1.2s-.7-1.1-1-.7c-.3.5.7 1.4.9 1.6.1.2.9.9.9 1-.1.1-.9-.9-1.1-1-.1-.1-.5-.6-.7-.7 0 .1 0 .2-.1.3.2.4.7.9.8 1.1.2.2 1 .8.9.9s-.7-.5-.9-.7-.6-.6-.8-.4.3.8.5 1.1 1.4 1.4 1.7 1.6l.2-.3c-.3-.2-.6-.4-.8-.6-.5-.3-1.1-.9-1.2-1.1z"></path></g><g class="J"><path d="M16.8 49.6c-.1.1-.3.1-.4 0l-.8-2.3c0-.1-.1-.1-.1-.1l-2.4-.6c-.2 0-.2-.2-.1-.4l2-1.5.1-.1v-.1l-.1-2.4c0-.2.2-.3.3-.2l2 1.4h.2l2.3-.9c.2-.1.3.1.3.2l-.7 2.4v.2l.6.7c.2.1.4.3.4.4s.1.2.1.3l.4.5c.1.1 0 .3-.1.3 0 .1.1.1.1.2.1 0 .2-.1.2-.2.1-.1 0-.3-.1-.4l-1.5-2 .7-2.4c0-.1 0-.3-.1-.4s-.3-.1-.4-.1l-2.3.9-2-1.4c-.1-.1-.3-.1-.4 0s-.2.2-.2.4l.1 2.5-2 1.5c-.1.1-.2.2-.1.4 0 .1.1.3.3.3l2.4.6.8 2.3c0 .1.2.2.3.2s.2-.1.3-.2l.8-1.2c-.1 0-.1-.1-.2-.1l-.7 1.3z"></path><path d="m18.3 47.6 2.4-.1c0-.1 0-.1-.1-.2l-2.3.1c-.1 0-.1 0-.2.1l-.4.6c.1 0 .1.1.2.1l.4-.6z"></path><path d="M20.8 47.3h-.2c0 .1 0 .1.1.2h.2c0-.1-.1-.1-.1-.2zm-.4-1.1l-.4-.4.6.7c-.1-.1-.2-.2-.2-.3zm-2.7 1.9l-.2.3s.1.1.2.1l.2-.2-.2-.2zM15 44.4v.1-.1zm2.4 3.9l-.8 1.2-.8-2.3c0-.1-.1-.2-.3-.2l-2.4-.6 2-1.5c0-.1-.1-.1-.1-.2 0 0 0 .1-.1.1l-2 1.5c-.1.1-.1.3.1.4l2.4.6c.1 0 .1.1.1.1l.8 2.3c.1.2.3.2.4 0l.8-1.2c0-.1-.1-.2-.1-.2zm-2.2-4l-.1-2.4 2 1.4c.1.1.2.1.4 0l2.3-.9-.7 2.4c0 .1 0 .2.1.3l.2.2s.1 0 .1.1c.1.1.3.2.5.4l-.6-.7c0-.1-.1-.1 0-.2l.7-2.4c0-.2-.1-.3-.3-.2l-2.3.9h-.2l-2-1.4c-.1-.1-.3 0-.3.2l.1 2.4c0-.1 0-.1.1-.1z"></path><path d="M20.8 47.1v.2c.1 0 .2-.2.1-.3l-.4-.5c.1.2.1.4.3.6zm-2.5.3l2.3-.1c0-.1 0-.1-.1-.2l-2.2.1c-.1 0-.2.1-.3.2l-.4.6c.1 0 .1.1.2.1l.4-.6c0-.1 0-.1.1-.1zm2.1-.8c-.1-.2-.3-.4-.5-.6l.5.6z"></path><path d="M17.4 48.3c.1 0 .1.1.2.1l.2-.3c-.1 0-.1-.1-.2-.1l-.2.3zm-2.2-3.9c-.1-.1-.1-.1-.2 0v.1c0 .1 0 .1.1.2.1-.1.1-.2.1-.3zm5.3 2.7c0 .1 0 .1.1.2h.3c0-.1 0-.1-.1-.2h-.3zm-1.1-1.7l.5.7c.2.2.4.3.5.6l.3.4c-.1-.2-.1-.4-.2-.5l-.6-.7c-.1-.2-.3-.4-.5-.5z"></path></g><path d="M49.1 18.1c-.4.5-.6 1-.6 1.7 0 .5.5 2 1.4 2.2.4 0 1-.2 1.2-.6.4-.8.4-1.2.4-1.7 0-.3-.1-.7-.5-1.4-.5-.9-1.4-.8-1.9-.2z" class="K"></path><g fill="#f2f5f6"><path d="M55.3 46.1l.9-.4c-.1 0-.2-.1-.2-.2s0-.1.1-.2.4-.2.9-.2c.4 0 1.2-.1 1.2-.3v-.1c-.2-.1-.7-.1-1.1 0-.5.1-.9.1-1-.2 0-.1 0-.2.1-.2.1-.2.5-.2.9-.3.5-.1 1.1-.1 1.1-.4-.1-.1-.7 0-1 0-.6.1-1.1.2-1.2-.2 0-.1 0-.2.1-.3.2-.3.7-.3 1.2-.4.3 0 .9-.1.9-.2-.1-.1-.7 0-1.1.1-.6.1-1.2.2-1.2-.1 0-.1 0-.2.1-.3.1-.2.5-.3 1-.4.7-.1 1.2-.2 1.2-.6 0-.1-.1-.2-.2-.3-.2-.1-.7-.2-2.2.5l-2.2 1v3.4c0 .1 0 .3-.1.4h1.2c.1-.1.4-.1.6-.1zm2.1-.2c-.1-.1-.2-.1-.4-.1l-.8.3c.6 0 1.1 0 1.2-.2 0 .1 0 0 0 0z"></path><path d="M56.7 45.8c-.2 0-.4 0-.5-.1-.3.1-.6.3-.9.4h.8c.2-.1.5-.2.8-.3h-.2z"></path></g><path d="M51 33.8c-2-.6-3.4.9-4 1.6l-.1.1c-1.7 1.8-3.1 1.2-3.6.8-.7-.5-1.2-1.2-1.2-2-.1-.9.3-1.7 1.2-2.5 1.6-1.5 2.5-1.6 4.4-.3.6.4 1.6 1.1 2.5.6.8-.4 1-2.3 1-2.9 0-.4-.1-1.1-.2-1.7l-.3-2.8c0-.9.3-1.4.6-1.8.3-.3.5-.7.7-1.3.1-.2.1-.6-.1-1.1 0 .2-.1.4-.1.7-.2.6-.7 1.1-1.1 1.3-.6.2-1.1.2-1.4-.1-.3-.2-.5-.4-.6-.6 0 .2 0 .4.1.5.1.2.2.5.3.6l.1.1c.2.2.5.4.4.8v.1c0 .6-.1 2.3-.7 3.8-.1.2-.2.4-.2.5-.2.6-.3.7-1 .6h-.1c-.4-.1-1.6-.3-2.1-1.2-.2-.4-.2-.8 0-1.2 0-.1.1-.2.1-.3.3-.7.5-1.2.1-1.6-.5-.6-.7-.9-.2-1.4l.1-.1c.4-.4 1.1-1.3.8-2.5-.1-.5-.3-1.2-.6-1.9-.5-1.4-.8-3-.8-3.8s.2-2.5.7-3.7c.2-.4.3-.7.4-1-.3.4-.6 1-.7 1.3-.2.4-.5.8-.8 1.8 0 .1-.1.3-.1.5-.1.3-.1.5-.1.8 0 .5 0 1 .1 1.5 0 .2.1.4.1.5.2.7.9 2.3.9 3.3 0 .8-.2 1.3-.6 2s-1.1 1.3-1.1 1.3c-.2-1-.5-1.3-.8-1.5-.3-.3-.9-.2-1.2 0-.4.2-.4.8-.2 1.1.3.3.6.4.8.3.3-.1.3.2.4.3s.2.4-.1.4c-.3.1-.9-.2-1.2-.4-.4-.3-.6-.9-.5-1.4.2-.5.7-1 1.6-.9s1.3 1 1.3 1c.5-.2 1-1.1 1-1.9s-.4-2-.7-3.5-.2-2.4-.1-2.9c.2-1 .8-2.1 1-2.5.1-.2.5-.8.8-1.2l-1 1.1c-.7.9-1.5 2.4-1.5 3.7 0 1.6.3 2.7.6 3.6a.9.9 0 0 1 .1.5c.3 1-.2 1.7-.2 1.8l-.1.2.2-.5s-.5-.5-1.4-.5c-.8 0-2.4.5-2.4 2.1 0 .7.2 1.2.6 1.6 1 .8 2.6.6 2.7.6h.2v.2c0 .1-.2 1.3-1.8 3l-1.1 1c-1.6 1.4-4.3 3.7-5.3 6.2-1.4 3.5-.9 6.8 1.3 9 1 1 2.5 1.3 4.1 1.2v-5.1c0-.8.3-1.1 1.1-1.1h2.5c-.1-.1-.2-.3-.2-.5 0-.4.3-.7.8-.7h4.1c.2 0 .4.1.5.2s.2.3.2.5c0 .1 0 .3-.2.4h2.7c.2 0 .4.1.6.2.1-1.6.1-4.3-2-4.9z" class="J"></path><g class="K"><path d="M55.3 46.1h-2c0 .1-.1.2-.2.3h1.7c.1-.1.2-.1.3-.2 0 0 .1 0 .2-.1zm2.4-5.2c.1.1.2.1.2.3.1.4-.5.5-1.2.6-.5.1-.8.1-1 .4-.1.1-.1.2-.1.3.1.3.6.3 1.2.1.4-.1 1-.2 1.1-.1 0 .2-.6.2-.9.2-.5.1-1 .1-1.2.4-.1.1-.1.2-.1.3.1.4.6.3 1.2.2.4-.1.9-.2 1 0 0 .3-.6.4-1.1.4s-.8.1-.9.3c-.1.1-.1.1-.1.2.1.3.5.3 1 .2.4-.1.9-.1 1.1 0v.1c0 .2-.7.3-1.2.3s-.8 0-.9.2c0 .1-.1.1-.1.2s.1.2.2.2c.2-.1.5-.2.7-.3h-.4.6l1.4-.4v-.2a.76.76 0 0 0-.2-.4c-.3-.2-.8-.1-1.3-.1-.2 0-.4.1-.5.1.2 0 .4-.1.6-.1.6-.1 1.5-.2 1.4-.8 0-.1-.1-.2-.1-.3-.2-.2-.8-.1-1.3 0-.3 0-.7.1-.8.1v-.1c.1-.1.6-.2.9-.2.6-.1 1.2-.1 1.2-.6 0-.1-.1-.2-.1-.3-.2-.2-.8-.1-1.4 0-.3 0-.7.1-.8.1.1-.1.5-.2.8-.2.7-.1 1.5-.3 1.4-1 0-.2-.2-.4-.4-.5-.4-.2-1.3-.1-2.5.4l-2.1 1v.4l2.2-1c1.8-.6 2.3-.5 2.5-.4zm-1.3 3.6h-.2.2zm.9 1.4h0c.1 0 .1.1 0 0-.1.2-.5.2-1.2.2-.1 0-.2.1-.3.1s-.2.1-.4.2c2 0 2.2-.1 2.2-.5 0-.1 0-.2-.1-.3l-.1-.1c-.2.1-.4.1-.6.2.3.1.5.1.5.2zm1.1-.9c-.5.1-.9.3-1.4.4.6 0 1.3-.1 1.4-.4z"></path><path d="M56.2 45.7c.1 0 .3.1.5.1h.2c.2-.1.4-.1.6-.2-.1-.1-.4-.1-.6-.1-.2.1-.5.1-.7.2zm-.4.5c.1 0 .2-.1.3-.1h-.8c-.1 0-.2.1-.2.1-.1.1-.2.1-.3.2h.7c.1-.1.2-.1.3-.2zM45 10.7c-.7 1-1.5 2.5-1.6 3.9a10.88 10.88 0 0 0 .6 3.7.9.9 0 0 1 .1.5c.2.6 0 1.1-.1 1.3-.2-.2-.7-.4-1.4-.4-1.1 0-2.8.7-2.8 2.4 0 .8.3 1.4.8 1.8.8.7 2.1.7 2.7.7-.1.4-.5 1.4-1.7 2.6l-1.1 1c-1.6 1.4-4.4 3.8-5.4 6.3-1.5 3.6-1 7.1 1.4 9.3 1.1 1 2.7 1.4 4.3 1.3v-.3c-1.6.2-3.1-.2-4.1-1.2-2.3-2.1-2.8-5.5-1.3-9 1-2.5 3.7-4.8 5.3-6.2.5-.4.9-.8 1.1-1 1.6-1.7 1.8-3 1.8-3v-.2h-.2s-1.7.3-2.7-.6c-.4-.4-.6-.9-.6-1.6 0-1.6 1.6-2.1 2.4-2.1.9 0 1.3.4 1.4.5l.1.1.1-.2s.5-.8.2-1.8c0-.2-.1-.3-.1-.5a10.23 10.23 0 0 1-.6-3.6c0-1.3.8-2.8 1.5-3.7.3-.5.7-.8 1-1.1l-.8 1.2c-.2.4-.8 1.4-1 2.5-.1.5-.2 1.3.1 2.9.3 1.5.8 2.7.7 3.5 0 .8-.5 1.7-1 1.9 0 0-.4-.9-1.3-1s-1.4.4-1.6.9.1 1.1.5 1.4.9.5 1.2.4.1-.3.1-.4c-.1-.1-.1-.4-.4-.3-.2.1-.5 0-.8-.3s-.2-.9.2-1.1.9-.3 1.2 0 .6.5.8 1.5c0 0 .7-.6 1.1-1.3s.6-1.2.6-2c0-1-.8-2.6-.9-3.3 0-.2-.1-.3-.1-.5-.1-.4-.2-1-.1-1.5 0-.3 0-.6.1-.8 0-.2.1-.3.1-.5.1-.4.2-.8.8-1.9a7.62 7.62 0 0 0 .7-1.3c-.1.3-.3.6-.4 1-.5 1.2-.7 3-.7 3.7 0 .9.4 2.4.8 3.9l.6 1.9c.3 1.3-.4 2.1-.8 2.5 0 .1-.1.1-.1.1-.4.5-.3.8.2 1.4.4.4.2.9-.1 1.6 0 .1-.1.2-.1.3-.2.4-.2.9 0 1.2.4.8 1.7 1.1 2.1 1.2h.1c.6.1.7.1 1-.6.1-.1.1-.3.2-.5.6-1.4.7-3.2.7-3.8v-.1c0-.4-.2-.6-.4-.8l-.1-.1c-.1-.1-.2-.3-.3-.6-.1-.2-.1-.4-.1-.5.1.2.3.4.6.6.3.3.8.3 1.4.1.4-.1.9-.7 1.1-1.3.1-.2.1-.4.1-.7.1.5.1.9.1 1.1-.2.6-.5 1-.7 1.3-.3.4-.6.9-.6 1.8s.2 1.9.3 2.8l.2 1.7c0 .6-.2 2.5-1 2.9-.9.4-1.8-.2-2.5-.6-2-1.3-2.8-1.3-4.4.3-.9.8-1.3 1.7-1.2 2.5s.5 1.5 1.2 2c.5.4 2 1.1 3.6-.8l.1-.1c.6-.7 2-2.2 4-1.6 2.1.6 2.1 3.3 1.8 4.9l.3.3c.5-2.3.2-4.9-2-5.5s-3.7 1-4.3 1.7l-.1.1c-1.5 1.6-2.7 1.1-3.2.7-.3-.2-1-.8-1.1-1.8-.1-.8.3-1.5 1.1-2.3 1.5-1.4 2.2-1.5 4-.3.7.4 1.7 1.2 2.8.6 1-.5 1.2-2.7 1.2-3.2s-.1-1.1-.2-1.8l-.3-2.7c0-.8.3-1.2.6-1.6.3-.3.5-.7.8-1.4.2-.5-.1-1.4-.3-2 0-.1-.1-.1-.2-.1s-.2.1-.2.2c0 .3 0 .8-.2 1.3s-.6 1-.9 1.1c-.5.2-.9.1-1.1 0-.4-.3-.5-.5-.7-.8v-.1c0-.1-.1-.1-.2-.1s-.1.1-.2.2c0 .2-.1.7.1 1.1.1.3.3.5.4.7l-.1.4c.2.2.3.3.3.6v.1c0 .6-.1 2.3-.7 3.6-.1.2-.2.4-.2.6-.1.2-.1.4-.2.4h-.5c-.7-.1-1.5-.4-1.8-1-.1-.3-.1-.6 0-.9 0-.1.1-.2.1-.2.3-.7.6-1.3.1-1.9s-.5-.7-.2-1l.1-.1c.4-.5 1.2-1.4.9-2.8-.1-.5-.3-1.2-.6-1.9-.4-1.4-.9-3-.9-3.7 0-.8.2-2.5.7-3.6l.8-1.8.2-.5-.5.3c0-.3-.9.4-1.6 1.5z"></path><path d="M44.6 14.2c0-.3 0-.5.1-.8-.1.2-.1.5-.1.8zm.2 2c0-.2-.1-.3-.1-.5 0 .2.1.4.1.5zm1.5-6.4c-.3.4-.6 1-.7 1.3-.6 1.1-.7 1.4-.8 1.9.3-1 .6-1.4.8-1.8.1-.5.4-1 .7-1.4zm-1.2 4.7c0-.7.2-2.6.7-3.7-.5 1.1-.7 2.9-.7 3.7z"></path></g><path d="M44.6 87.9a4.44 4.44 0 0 0-1.3-.2c.2.1.3.2.5.4.4 0 .7 0 .8-.1.1 0 .1-.1 0-.1zm-3.2-.5c0-.1-.1-.1-.1-.2-.2-.7-.2-1.3-.2-2-.1-.8 0-1.7 0-2.5 0-.7-.1-1.4-.7-1.9-.4-.3-.3-.7 0-1.1.2-.2.3-.5.3-.8v-6.3c0-1.2-.2-2.3-.8-3.3-.4-.7-.6-1.5-.6-2.3.3.1.3.4.4.5.3 1 .6 2 1.3 2.9s1.4 1.6 2.6 1.9c.6.2 1.2.2 1.8-.3 1.1-1.2 2.7-1.2 3.8 0 .3.4.8.5 1.2.4.8-.2 1.6-.5 2.2-1.1 1.1-1 1.8-2.4 2.1-3.8.1-.2.1-.5.4-.6v.5c-.2.9-.5 1.9-1.1 2.7-.3.5-.5 1.1-.5 1.7v6.7c0 .4.1.8.4 1 .3.3.3.6 0 .9-.9.8-.8 1.8-.8 2.8 0 1.1.1 2.2-.1 3.3 0 .2-.1.4-.2.5.2 0 .4.1.6.1.3 0 .5 0 .8-.1.5-.8 1-1.7 1.3-2.6.7-2.2.7-4.5.2-6.8-.4-1.9-.3-3.8-.1-5.6l.4-5.1c0-.9-.3-1.7-.8-2.5-.6-1-1.5-1.7-2.3-2.4a1.07 1.07 0 0 0-1.4-.1c-1.2.9-2.5 1.6-4.1 1.6-1.7 0-3.3-.4-4.7-1.6a.94.94 0 0 0-1.3-.1c-1 .7-1.8 1.6-2.6 2.6-.5.7-.7 1.4-.7 2.2l.1 3.1c0 1.3.3 2.5.4 3.8.1 1.1.2 2.2 0 3.2-.3 1.5-.5 2.9-.5 4.5 0 1.8.3 3.4 1.2 4.9.2.4.4.7.7 1v.1h.4c.4.3.7.2 1 .2zm9.1.3c-.1 0-.2 0-.3.1-.5.1-.9.1-.9.2s.2.2.5.3c.1 0 .2-.1.2-.2.2-.2.4-.3.5-.4z" class="M"></path><path d="M47 46.6h5.1c.6 0 .9-.3.9-.9v-6c0-.6-.3-1-.8-1-2 0-4-.1-5.9-.1l-4.3.1c-.7 0-.9.2-.9.9v6c0 .7.2.9.9.9l5 .1z" fill="#8d1913"></path><g class="M"><path d="M52 58.6v-6.9c0-.3 0-.7-.1-1s-.3-.6-.7-.6c-.7-.1-1.3-.1-2 0-.4 0-.6.3-.7.5-.2.6-.2 1.2-.1 1.8s.6 1 1.1 1.3c.4.2.4.5.4.9 0 .3-.1.6-.5.6-.7 0-1.3.3-1.9.5a1.06 1.06 0 0 1-1.2-.1c-.3-.2-.7-.4-1.1-.4s-.8 0-.9-.5c-.2-.5 0-.9.6-1.2a1.44 1.44 0 0 0 .9-1.1c.1-.5.1-1.1 0-1.6-.1-.4-.4-.8-1-.8h-1.7c-.9-.1-1 0-1 .9v8.2c0 .6.1 1.1.6 1.5a7.1 7.1 0 0 0 4.4 1.5c1.2 0 2.3-.4 3.3-.9 1.1-.5 1.7-1.3 1.6-2.6zm-4.9.6c-.4 0-.7-.6-.7-.6s.5-.1.7-.1h.6s-.2.7-.6.7zm0-1.4c-.5 0-1.1.1-1.6.1h.3c.4-.1.7-.2 1.3-.2s.7 0 1.3.2c0 0 .3 0 .3.1-.5-.1-1.1-.2-1.6-.2z"></path><path d="M44.9 54c-.1.2-.3.3-.2.6.2.3.5.3.8.4.2 0 .3-.1.4-.3s.1-.4.3-.5c.1 1 .4 1.4 1 1.4s.9-.5 1.1-1.5c.2.1.2.3.2.4.1.3.2.5.5.5s.6-.1.7-.4-.1-.5-.4-.7c-1.2-.8-1.6-2.9-.6-3.9.2-.2.1-.4 0-.5-.2-.3-.4-.5-.6-.8-.6-.5-1.2-.5-1.8 0-.8.8-.8.8-.3 1.8.6 1.2.4 2.1-.5 3-.3.1-.4.3-.6.5zm7.1-6.1c0-.4-.3-.9-1-.9h-7.7c-.6 0-1 .4-1.1.9 0 .5-.1 1.1 0 1.8 1-1.5 2.5-1.7 4-1.7h2.1c1.3 0 2.5.3 3.4 1.2 0 .1.1.1.2.1s.1-.1.1-.2c0-.5.1-.9 0-1.2zm-.6 13.3c-.3 0-.6.1-.8.2-1.9 1-3.9 1.3-6 .5-.5-.2-1-.4-1.5-.7-.3-.1-.4 0-.6.2s0 .3.1.5c1.4 1.1 3 1.7 4.9 1.7 1.5 0 2.8-.8 4-1.9.1-.1.2-.2.1-.3.1 0 0-.1-.2-.2zm1.7-13.8c0-.4-.2-.5-.5-.4s-.3.3-.3.5v7.9c0 .2.1.4.3.4.3 0 .4-.2.5-.4v-8zm-11.3 1.8v-1.7c0-.3-.1-.6-.5-.6s-.3.3-.3.6v8c.1.3.2.4.5.3.2-.1.3-.3.3-.6v-6z"></path></g><path d="M45.7 48.3c-1-.1-1.9.2-2.7.9-.3.2-.2.6.1.6.2 0 .5 0 .7.1.9-.1 1.6-.5 2-1.3.1-.2.1-.3-.1-.3zm5.4 1.3c.2-.1.3-.2.1-.4-.6-.6-1.2-.9-2.1-.9h-.2c-.2 0-.4 0-.5.2s.1.3.2.4c.4.7 1.6 1 2.5.7z" class="K"></path><path d="M47.3 83.4c-.2 0-.6.1-.6.4s.3.5.6.5c.2 0 .6-.1.6-.5 0-.2-.2-.4-.6-.4z" fill="#9da9a9"></path><path d="M49 88c-.1-.1 0-.3.2-.3h.5c.5-.1 1-.2 1.5-.2.4-.1.8-.1 1.2-.1.3-.1.4-.4.4-1.1v-3.2c0-1 0-1.9.9-2.6.2-.1.1-.3-.1-.4-.4-.2-.4-.5-.4-.9v-7.1c0-.1 0-.3-.1-.4-.2-.1-.2 0-.4.1-.6.5-1.3.9-2.2 1-.6.1-1.3.2-1.7-.4-.4-.5-.9-.8-1.5-.8-.6-.1-1.3 0-1.7.6-.3.4-.7.7-1.3.7-1.1 0-2.1-.5-3-1.2-.1-.1-.2-.2-.4-.1s-.1.2-.1.4v6.9c.2.5.1.9-.3 1.2-.2.1-.2.3 0 .5.7.6.8 1.4.8 2.3-.1.9 0 1.8 0 2.7 0 .6.1 1.2.3 1.7 0 .1.1.1.1.1.4 0 .7 0 1.1.1.7 0 1.5.2 2.2.2.2 0 .2.2.1.3s-.3.2-.5.2-.3.1-.5.1c.6.3 1.4.3 2.7.3s2.1-.1 2.7-.3c-.1 0-.3-.1-.5-.3zm-1.7-3.3c-.6 0-.9-.4-.9-.9s.4-.8 1-.8.9.3.9.8c-.1.6-.5.9-1 .9z" class="M"></path><path d="M47 38.4h2c.3 0 .4-.1.4-.4s-.2-.4-.4-.4h-4c-.3 0-.5 0-.5.4s.2.4.5.4h2z" fill="#8d1913"></path><path d="M48.4 57.8c-.6-.1-.7-.2-1.3-.2s-.9.1-1.3.2h-.3c.5 0 1.1-.1 1.6-.1s1.1.1 1.6.1h-.3z" class="K"></path><path d="M46.4 58.6s.2.6.7.6c.4 0 .6-.6.6-.6H46.4z" fill="#39485d"></path><g class="J"><path d="M21.5 60.6c-.5.1-1.8.1-2.5 0s-1.8-.3-2.3-.2-1.5.5-2.1.7-2 .7-2.8.8l-1.4.2c-.2 0-.2.1 0 .2s.9.3 1.1.5c.3.2 2.2 1.3 3 1.5s1.3.4 2.3.1c1.1-.2 1.2-1.2 1.2-1.4 0-.3-.2-.8-.8-.8s-.6.4-.6.5c0 0 0 .2.1.2s0-.2.1-.3c0-.1.1-.2.4-.2.2 0 .6.2.6.6s-.2 1-.7 1.2-1.2.3-1.8 0-.8-1-.7-1.6c.2-.6.7-1.5 1.4-1.7s1.2-.2 1.7 0 .9.4 1.2 1 .3 1.6.1 2c-.2.3-.9 1.2-2.4 1.4s-2.7-.1-3.7-.6l-2.7-1.3s.3.5.4.8.7 2.1 1 2.4c.3.4.8.6 1.4.5.5-.1.6-.5.6-.9 0-.3-.4-.7-.8-.6s-.2.6-.1.6.3-.1.3-.2.1-.2.2-.1a.53.53 0 0 1-.1.8c-.3.2-.9.2-1.2-.1s-.3-1 0-1.4c.4-.3.9-.4 1.3-.2s.9.7.9 1.2-.1 1-1 1.4-1.5.5-2.2-.1c-.7-.5-1.1-1.3-1.3-2.1s-.7-2-1.2-2.6-1-.8-1.3-.9c-.2-.1-1-.3-1.6-.6-.5-.3-1.1-.7-1.2-.6-.1 0 0 .5-.2 1.1-.2.5-.3.7-.5.9s-.9.4-1.6-.4-.8-2-.3-2.3 1.1 0 1.4.4.4 1.2.1 1.3c-.5.1-.2-.2-.5-.3-.2-.1-.4 0-.3.2.1.3.2.4.6.4.5 0 .5-.3.6-.6 0-.4-.1-1-.7-1.4s-1.1-.6-1.3-1.2-.2-1.7.4-2.5 1.7-2.1 2.2-2.1c.4 0 .3.8.3 1.1-.1.8-.9 2.2-.9 2.9 0 .9.7 1.5 1.3 1.9s2.5 1.1 3.4 1.2c0 0-.9-.6-1.2-1.1-.5-.2-1-1-1.4-1.2-.4-.1-.8.1-.7.5s.4.6.7.5.1-.5 0-.4c-.2.1-.4.2-.5-.1-.1-.2.1-.5.5-.4.3.1.7.6.6.9s-.6.3-1 .1-1.2-.8-1.4-1.5.1-1.2.6-1.3.7.3.8.4c0 .1.2.1.1-.1-.2-.4-.7-1.4-.7-2.4.1-1 0-1.8 0-2.2 0-.5 0-1.3-.4-2.3l-.9-2c-.2-.4-.5-.7-.5-.7s.3 1.2.1 2.3c-.1.8-.3 2.6-.6 3.4-.2.7-.4 1.1-.4 1.1s.9-1.2 1.1-1.7.8-1.3.8-1.6c0-.1 0-.6-.3-.6-.4-.1-.4.1-.4.2s0 .2.2.2c.1 0 0-.1.1-.2.1 0 .1-.1.2 0s.1.2.1.4 0 .3-.2.4c-.1.1-.2.1-.4 0s-.4-.2-.4-.5c0-.2.1-.8.4-1 .2-.2.4-.1.6.1.3.3.4.7.5 1.1s.1 1.1-.1 1.7c-.3.8-1.9 2.2-2.2 2.7 0 0-.5.6-.7 1.5-.3.9-.4 1.7-.3 2.7s.3 1.6.9 2.5 1.1 1.5 1.6 1.8c.5.4.8.5 1.2.3s.3-.7.1-.8c-.1-.1-.4-.3-.7-.1-.2.1-.1.3 0 .3.2 0 .2-.2.4-.2.1 0 .4.1.3.4s-.4.4-.5.3c-.2 0-.6-.2-.6-.6-.1-.3.1-1.1.5-1.4.3-.3.6-.5 1.6-.6 1.1-.1 1.9.1 2.4.7a2.32 2.32 0 0 1 .9 1.9c0 .7-.8 1.3-1.4 1.4-.6.2-1.4.2-1.9.2s-.9-.1-.9 0c0 0 .1.2.3.3s1.7 1 2.3 1.2 2.4.4 3.4.5c1 0 2.1 0 3.8-.9s2.8-1.6 3.7-2.4 3-3.1 3.4-3.7c.3-.8.3-.8-.3-.7zm-6.5.8c-.1.1-.1.2-.2.3s-.6.3-1.1.4l-1.6.3c-.2 0-.1.1 0 .1s.7.3 1.1.4 1.2.4 1.2.4a1.44 1.44 0 0 0 .2.3c.1.1.3.4.3.4s-.9-.3-1.4-.6l-1.7-.9c-.2-.1-.7-.3-.8-.4-.1 0-.1-.1 0-.1h.6c.8-.1 1.4-.3 1.9-.5.5-.1 1.7-.5 1.7-.5s-.1.3-.2.4zm-12.2-8s-.1.1-.2.1-.1-.1-.1-.2c0 0 0-.1.1-.1h.2c.1.1.1.2 0 .2zm.3-.4c0 .1-.1.1-.1.1-.1 0-.2 0-.2-.1-.1-.1-.1-.2 0-.2 0 0 .1 0 .1.1 0 0 .1.1.2.1 0-.1 0 0 0 0zm.1-.3H3c-.1 0-.1-.1-.2-.2s0-.2 0-.2h.1s.1.1.2.1h.2s.1 0 .1.1c-.1.2-.1.2-.2.2zM3 52c.1.1.3.1.4.1s.2.1.1.2c0 .1-.2.2-.4.2s-.3-.4-.3-.5c.1-.1.1-.1.2 0zm3.1 9.9h-.4l-.3-.3c-.2 0-.4-.1-.4-.1s0 .3-.1.4c0 .1-.1.3-.1.3l-.4.2.2-.7V61s.3.2.8.4l1 .5h-.3zm4.1 6c-.4 0-.8-.1-.9-.2s-.1-.3-.2-.4c0 0-.1-.3-.2-.4s-.2-.1-.2 0-.2.2-.4.4-.5.3-.5.3-.5-.1-1.2-.4-1.2-.7-1.2-.7a5.64 5.64 0 0 0 1.4 0c.6-.1 1.5-.3 2-.7s.5-1 .5-1c.1.2.4 1.2.5 1.4s.3.7.6 1c.3.5.9.8.9.8s-.8 0-1.1-.1zm5.4-1.5c-.7.5-1.5.8-1.5.8s.3-.3.3-1c0-.6-.4-.9-.4-.9s.8.2 1.5.2 1.4-.1 1.6-.2c.1 0-.7.6-1.5 1.1zm5.2-4.5h-.4s0 .2.1.2c0 .1.1.2.1.3s-.3.3-.3.3 0-.3-.1-.7c0-.2-.2-.5-.2-.5s.3.1.5.1.6.1.6.1l-.3.2zm.3-.4c-.1 0-1.1-.1-1.3-.1s-.3 0-.2.2.3.4.3.7v.7c-.1.2-.8.9-.8.9s.2-.6.2-1.2-.2-.9-.5-1.3-.5-.5-.7-.5c-.2-.1-.3-.1-.3-.1s.4 0 .8.1c.3.1 1 .1 1.7.1h.9c.2 0 .6-.1.6-.1l-.7.6zm-3.2-1.6c.2 0 .8.1.9.1s.1 0 .1-.1.1-.4.1-.6.1-.8.1-.8l-.9.6c-.1.1-.9.7-.9.7s.4.1.6.1zm.4-.4c.1 0 .2 0 .2-.1s.1-.5.2-.5c0-.1.1-.2.1-.1 0 0 0 .2-.1.4 0 .2-.1.5-.1.6s0 0-.1 0h-1s.2-.2.3-.2c.2-.1.4-.1.5-.1zm7.7-3.2l-1.9.5c-.5.1-1.4.3-2 .7s-.9.9-.8 1.3.4.4.5.3.3-.3.2-.5c-.1-.1-.2 0-.2.1s.1.2.1.2-.3.2-.4-.2.3-.8.5-.9.7-.2 1 .2.2.8 0 1.1-.6.9-1.7.8c-1.1 0-1.5-.7-1.5-1.3s.7-1.3 1.2-1.6c.6-.3 1.2-.6 2.3-.9 1.9-.5 2.9-.5 3.1-.6s.9-.7 1.7-1.3c.4-.3.8-.6 1.2-.8s.7-.4.7-.4-.7 0-1.6.2-2.4.8-2.9 1l-.9.5s1.1-.3 1.6-.3.7.1.9-.1c.2-.1.1-.4-.1-.4 0 0 .1.2 0 .2-.1.1-.4.1-.5-.1s.1-.3.3-.3.8.1 1 .1.3-.1.4-.2 0-.2-.1-.2H28s.1.1 0 .1c0 0-.1.1-.2.1-.1-.1-.1-.2-.1-.2.1-.1.3-.1.5-.1s.2.1.3.1c0 .1 0 .2-.3.3-.1.1-1.3.8-1.7 1l-1.7.6c-.7.2-2.5.5-3.8 1.1-1.3.7-1.6 1.2-1.6 2 0 .9.7 1.4 1.6 1.4s1.5-.5 1.8-.8l1.1-1.2s-.7.4-.9-.2.6-.9.9-1c.4-.1.7 0 .7.2 0 .3-.3.1-.4.2-.1 0-.3.2-.1.4s.3 0 .5-.1c.3.1 1.4-1 1.4-1zM3.7 43c.1-.3.3-.9.3-1.1s-.1-.6-.3-1c-.3-.5-.9-1.2-1.2-1.7l-1.1-1.3s.4.7.5 1c.1.4.4 1.1.6 1.4.1.2.2.6.2.7.1.2.2.3.2.3 0-.1-.1-.2-.1-.3s0-.3.2-.3c.1 0 .3.1.5.2.1.2.3.6.3.9s0 .7-.1.8a.76.76 0 0 1-.2.4c-.1.2-.3.2-.4.1s-.1-.2-.1-.5.1-.3.2-.4c.1 0 .2-.1.3.1s0 .3-.1.3h-.1v-.1l.1-.1c-.1 0-.2.1-.2.2s.1.2.3 0 .1-.4 0-.5-.2-.2-.5 0c-.3.3-.2.9-.1 1.3 0 .4-.1 1.3-.1 1.3l.9-1.7zm-1-4.2C3 39 4 40.7 4 40.7s-.2-.6-.4-1a4.44 4.44 0 0 0-.8-1.1c-.2-.3-.5-.4-1.1-1.5s-.6-1.6-.3-2.3c.2-.7.9-1.3 1.2-1.5s.5-.3.6-.3.2 0 .2-.1c.1 0 .2-.5.6-.9s.9-.6 1.5-1c.5-.3 1-.6 2-.8 1-.3 2.1.2 3-.1s1-1.2.5-1.8-1-.7-2-.7-1.6.4-2.1.7-1.1.9-1.5 1.3L4 31c-.4.4-1.2.9-1.2.9l1.3-1.2c.4-.4 1.3-1.5 1.6-2.1L7.1 27c.4-.3 1-.5 1.9-.7 1-.2 1.9.3 2.5.6.6.4 1.2 1.2 1.5 1.5s.7.7.9.8c.4.2.7.2.7.2s-.1-.2-.2-.5 0-.7.1-.9.4-.3.7-.4c.2 0 .7 0 .8.5.1.4-.1.9-.2 1.1-.1.1-.1.2.2.5s.7.5 1.1.6 1.2 0 1.8 0 1.1.3 1.1.3h-1.1c-.4 0-1.3.3-1.7.3-.5 0-.7-.1-1.1-.2s-.8-.6-.9-.7-.2-.1-.2 0c-.1.1-.3.4-.3.4s-.6-.3-.7-.4-.3-.1-.3 0c-.1.1-.7.6-1 .9s-.8.5-1.7.5-2.3-.4-3-.5c-.6-.1-1-.1-1.8.3-.8.3-1.6.9-1.9 1.2-.4.3-.5.8-.5.8.4.1 1 .6 1 1.2 0 .5-.3.9-.6 1.3-.4.4-.9.6-.9.6s.3.1 1.1-.6c.6-.6.6-1 .5-1.7-.1-.6-.8-1.1-.8-1.1s.8-.8 1.6-1.2 1.3-.6 2-.6c1.1.1 2.6 1 4 .5 1.4-.4 2.2-1.5 2.2-1.5s.5.6.7.6c.1 0 .5-.4.5-.4s.8 1 2 .9 2-.3 2.7-.4a8.87 8.87 0 0 1 1.3.1s-.2-.1-.7-.3-1-.3-1.3-.4c-.4 0-.9.1-1.7 0s-1.1-.8-1.1-.8.6-.9 0-1.5a1.08 1.08 0 0 0-1.7 0c-.4.5-.1 1.3-.1 1.3-.8-.5-.8-.7-1.7-1.7-.8-1-1.3-1.5-2.6-1.5s-2.1.4-2.9.9-1.9 2.1-2.2 2.6-1.1 1.4-1.8 2-1.8 1.2-1.8 1.2c1.3-.4 1.9-.9 2.3-1.1.4-.3 2.5-2.5 3.2-3 .6-.6 1.5-.9 2.4-.9.8 0 1.3.3 1.7.9.4.5.1.9-.5 1.2s-1.6-.2-2.9.2c-1.3.3-2.5 1.1-3.1 1.6s-1.1 1.1-1.1 1.1c-.5.1-.7.3-1.3.8-.8.4-1.2 1.3-1.2 2s.4 1.4.6 1.8.9 1.2 1.1 1.5z"></path><path d="M4.2 36.4c-.3.2-.6.4-.9.4-.2 0-.2.1-.1.3.1.1.9 1.7.9 1.7l.2-1c.1-.4.2-1.2.2-1.4-.1-.1-.1-.1-.3 0zm-.1 2.1s-.1 0 0 0c-.1-.1-.1-.1 0 0 0-.1 0-.1 0 0zm0-.3c0 .1 0 .1-.1.1s-.1 0-.1-.1v-.1H4c.1 0 .1.1.1.1zm0-.2l-.1.1c-.1 0-.1 0-.2-.1 0-.1 0-.1.1-.1l.2-.1c.1 0 0 .1 0 .2zm.1-.3c0 .1-.1.1-.3.1s-.2 0-.2-.1v-.1s.1 0 .2-.1c.1 0 .2-.1.3 0 .1 0 0 .1 0 .2zm.1-.5s-.1.1-.2.1-.4.1-.5.1-.1-.1-.1-.1v-.1l.3-.1c.1 0 .3-.1.3-.1h.1l.1.2zm0-.4l-.5.3c-.2.1-.4.1-.4.1s-.1-.1-.1-.2v-.1c.1 0 .2 0 .5-.1s.5-.3.5-.3v.3zM7 31.9a5.48 5.48 0 0 0-1.2.4c-.1.1-.3.2-.3.2l.4.4c.1.1.3.3.3.5 0 0 .8-.5 1-.7l1.2-.7c.2-.1.2-.2-.1-.2s-.7-.1-1.3.1zm-.7 1.3s-.1-.2-.1-.4c-.1-.1-.2-.3-.2-.3s.1-.1.2-.1.2.2.2.3.2.4.2.4l-.3.1zm.4-.3c-.1 0-.1.1-.1.1s-.1-.2-.1-.4c-.1-.1-.2-.3-.2-.3s.2-.1.3-.1.1.1.2.3c.1.1.1.3.1.3s-.1 0-.2.1zm.3-.2s-.1-.2-.1-.3-.1-.2-.1-.3.2-.1.2-.1.1.1.1.2.1.3.1.3l-.2.2zm.3-.2s0-.2-.1-.3c0-.1-.1-.2-.1-.2h.2s.1.1.1.2.1.2.1.2l-.2.1zm.4-.3s0-.1-.1-.2c0-.1-.1-.2 0-.2s.2 0 .2.1v.2l-.1.1zm.5-.2l-.2.1-.1-.2s.2 0 .3.1zm-5.3-2.3c.2-.3.8-.8 1.1-.9s.5.1.4.4c0 .2-.4.8-.6 1s-.4 0-.4-.1c0-.2.3-.5.3-.5s.2.1.3-.1-.1-.3-.2-.2c-.2.1-.5.5-.5.7 0 .3 0 .3.1.4s.3.2.5 0a4.31 4.31 0 0 0 .7-1c.2-.5.6-1 .8-1.3l.5-.7-1.8 1.2c-.4.2-1 .6-1.4 1.1l-1 1.4c-.2.3-.5 1-.5 1l1.4-1c0-.2-.1-1 .3-1.4zm10-2.3c.1.1.3.3.3.4.1.1.1.1.2 0l.5-.5c.1-.1.1-.2 0-.3s-.5-.2-.7-.2-.7-.1-.8-.1-.1 0-.1.1c.2 0 .6.5.6.6zm0-.5c.1 0 .2.1.3.2s.2.2.3.2.2-.2.2-.2.2 0 .2.1l-.2.2-.2.2c-.1.1-.1.1-.2 0s-.6-.7-.6-.7 0-.1.2 0zm5 2.6c.3 0 .8.1.8.1s-.4-.5-.8-.8-.9-.6-.9-.6l.2.7v.6h.7zm-.1-.6l.2.2h-.4V29c0-.1-.1-.2-.1-.2s.2 0 .3.1zm-.4-.3c.1.1.1.2.1.3s.1.3.1.3.5-.1.6 0c.1 0 .3.2.3.2s-.4-.1-.6-.1h-.5v-.4c0-.1-.1-.4-.1-.4s0 .1.1.1zm5.5 5.2c.1 0 .4-.1.6-.2s.5-.1.6-.2c.1 0 .1-.1 0-.1s-1-.8-1-.8-.1.3-.1.5c0 .3-.1.6-.1.8-.1 0 0 0 0 0zm.3-.6v-.4s.1 0 .1.2v.3c0 .1 0 .1.1.1s.2-.1.3-.1.2-.1.2-.1c.1 0 .1.1 0 .1 0 0-.2.1-.4.1s-.5.1-.5.1c0 .1.1-.1.2-.3z"></path><path d="M14.8 31.2c-.1 0-.1.2-.1.2 0 .1 0 .2.3.2.2 0 .3-.2.3-.4s-.2-.4-.5-.4-.7.3-1 .5-.9.3-.9.3l.9.2c.5.1 1.8.5 2.3.7s1.3.6 1.5.7l.9.5c.1.1.2.1.2 0v-.3c0-.3-.1-.5-.3-.6s-.6.1-.8.1-.6-.1-.7-.3 0-.4.7-.6 1.5-.3 2.4-.4 1.4-.1 1.9.2.5.8.3 1.1c-.2.4-.7.8-1.4 1-.6.3-1.2.2-1.2.2s0 .1.3.2 1 .4 1.5.5c.6.2.8.1.8.1.2-.4.6-.6.8-.7s.8-.4 1.5-.4c.6 0 1.1.4 1.4.5.3.2.3.3.4.5 0 .3-.1.5-.4.7s-.5.1-.5.1c-.1-.1-.3-.4-.5-.6s-.5-.4-.9-.4-.7.2-.8.3-.2.1-.1.2.2 0 .2-.1l.4-.2c.4-.1.6-.1.9.2s.4.6.4.6c-.2 0-.3-.1-.4-.2s-.1-.3-.4-.3c-.3-.1-.7.2-.7.2.1.1.3.2.6.3l2.1.6c.7.2 2.1.2 2.8.3.7 0 1.4-.1 1.4-.1-.5-.1-.7-.3-1.3-.6l-2.5-1.4c-.4-.2-1.1-.7-1.5-.9s-.5-.3-.6-.3-.3.1-.5.2l-1 .5c-.4.2-.8.4-1.4.4-1 0-1.3-.4-1.3-.4l1.1-.5c.6-.3 1-.7 1-1.2 0-.4-.1-.8-.6-1-.4-.3-.7-.3-2-.2s-2 .3-2.5.4c-.4.1-.7.3-1.5.3s-1.2-.2-1.5-.3a.55.55 0 0 1-.3-.5c0-.2.1-.3.4-.5s.4 0 .5.1 0 .2 0 .3c-.1.1-.1.1-.2 0 0 0-.1-.1 0-.1.1.6.2.5.1.5zm14.1 5.4v-.2s.3.1.4.2.1.2 0 .2h-.6s.2-.1.2-.2zm-.8-.7s.5.3.6.3.1.2.1.3c-.1.1-.1.2-.3.2s-.8-.1-.8-.1.2-.1.3-.3c.1-.1.1-.4.1-.4zm-.8-.4s.5.2.6.3.1.3 0 .5c-.1.1-.2.3-.4.3s-.7-.1-.7-.1.3-.2.4-.5c.1-.2.1-.5.1-.5zm-.8-.4s.4.1.5.2.2.4.1.7c-.1.2-.4.4-.5.5-.1 0-.8-.2-.8-.2s.4-.2.6-.5.1-.7.1-.7zm-10.6-6.2c0-.4-.3-.7-.6-.7-.4 0-.7.3-.7.6 0 .4.3.7.6.7s.6-.3.7-.6zm-1.2-.1a.47.47 0 0 1 .5-.5.47.47 0 0 1 .5.5.47.47 0 0 1-.5.5.47.47 0 0 1-.5-.5zm77.7 28.7c-.2-.9-.7-1.5-.7-1.5-.3-.5-1.9-1.9-2.2-2.7-.2-.6-.2-1.4-.1-1.7.1-.4.2-.8.5-1.1.2-.2.4-.3.6-.1.3.2.4.8.4 1 0 .3-.2.5-.4.5-.2.1-.3 0-.4-.1-.2-.1-.2-.3-.2-.4 0-.2 0-.3.1-.4s.2 0 .2 0c.1 0 0 .2.1.2s.2-.1.2-.2-.1-.3-.4-.2c-.4.1-.4.5-.3.6.1.3.6 1.2.8 1.6.3.4 1.1 1.7 1.1 1.7s-.2-.4-.3-.8c-.2-.8-.4-2.6-.6-3.4-.2-1.1.1-2.3.1-2.3s-.3.3-.5.7c-.2.3-.6 1-.9 2-.5.9-.5 1.8-.5 2.3s-.1 1.3 0 2.2c.1 1-.5 2-.7 2.4 0 .1.1.1.1.1 0-.1.3-.5.8-.4s.8.5.6 1.3c-.2.7-1.1 1.3-1.4 1.5-.4.2-.9.2-1-.1s.3-.8.6-.9c.4-.2.6.2.5.4-.1.3-.3.2-.5.1s-.4.3 0 .4c.3.1.7-.1.7-.5.1-.4-.3-.7-.7-.5-.4.1-.9.9-1.3 1.4l-1.2 1.1c.9-.1 2.8-.9 3.4-1.2.6-.4 1.2-1 1.3-1.9 0-.8-.7-2.2-.9-2.9-.1-.3-.2-1.1.3-1.1.4 0 1.5 1.2 2.2 2.1.6.8.7 1.9.4 2.5-.2.6-.7.8-1.3 1.2s-.7 1-.7 1.4c0 .3.1.6.6.6.4 0 .5-.1.5-.3.1-.2-.1-.3-.3-.2-.3.1.1.5-.5.3-.3-.1-.2-.9.1-1.3s.9-.7 1.4-.4.4 1.4-.3 2.3c-.7.8-1.7.6-1.9.4-.3-.1-.4-.3-.5-.9-.2-.6 0-1-.2-1.1-.1 0-.6.3-1.2.6-.5.3-1.4.6-1.6.6-.3.1-.8.3-1.3.9-.5.5-.9 1.8-1.2 2.6-.2.8-.7 1.5-1.3 2.1s-1.4.4-2.2.1-1-.9-1-1.4.5-1 .9-1.2.9-.1 1.3.2.3 1 0 1.4c-.3.3-.9.3-1.2.1s-.2-.7-.1-.8.2 0 .2.1.2.2.3.2.3-.5-.1-.6-.8.3-.8.6.1.7.6.9c.5.1 1-.1 1.4-.5.3-.4.9-2.1 1-2.4s.4-.8.4-.8c-.4.1-1.8.8-2.7 1.3-1 .5-2.2.7-3.7.6-1.5-.2-2.2-1-2.4-1.4-.2-.3-.2-1.4.1-2s.7-.8 1.2-1 1-.2 1.7 0 1.2 1.1 1.4 1.7-.1 1.3-.7 1.6-1.3.1-1.8 0c-.5-.2-.8-.7-.7-1.2 0-.4.4-.6.6-.6s.3.1.4.2c0 .1 0 .3.1.3s.1-.2.1-.2c0-.1 0-.5-.6-.5s-.8.6-.8.8.1 1.2 1.2 1.4 1.5 0 2.3-.1c.8-.2 2.7-1.3 3-1.5s.9-.4 1.1-.5.2-.2 0-.2-.6 0-1.4-.2c-.8-.1-2.2-.7-2.8-.8s-1.6-.6-2.1-.7-1.6.1-2.3.2-1.9.1-2.5 0c-.5-.1-.6-.1-.2.5s2.5 2.9 3.4 3.7 2 1.5 3.7 2.4 2.8.9 3.8.9 2.8-.3 3.4-.5 2.1-1 2.3-1.2c.2-.1.3-.3.3-.3h-.9c-.5 0-1.2 0-1.9-.2s-1.4-.7-1.4-1.4.3-1.3.9-1.9c.6-.5 1.4-.8 2.4-.7 1.1.1 1.3.3 1.6.6.4.3.6 1 .5 1.4-.1.3-.5.5-.6.6-.2 0-.5-.1-.5-.3-.1-.3.2-.3.3-.4.1 0 .2.2.4.2.1 0 .2-.2 0-.3-.3-.2-.6 0-.7.1-.2.1-.3.6.1.8s.7.1 1.2-.2 1-.9 1.6-1.8.8-1.6.9-2.5c.2-1.4.1-2.2-.1-3.1zM91 53.3c0 .1 0 .1-.1.2-.1 0-.2 0-.2-.1v-.2c.2 0 .2 0 .3.1 0-.1 0 0 0 0zm-.1-.5c.1 0 .1.1 0 .2s-.2.1-.2.1c-.1 0-.1-.1-.1-.1 0-.1 0-.1.1-.1s.1 0 .2-.1zm0-.4s.1.1 0 .2-.1.2-.2.2h-.2l-.1-.1s0-.1.1-.1h.2c.1 0 .1-.1.2-.1-.1-.1-.1-.1 0-.1zm-.4 0c-.3.1-.4-.1-.4-.2s0-.1.1-.2c.1 0 .3 0 .4-.1s.2-.1.2 0c0 .2 0 .4-.3.5zm-10.4 9.3c.5.1 1 .3 1.9.5.4.1.5 0 .6 0s.1.1 0 .1-.6.2-.8.4l-1.7.9c-.6.3-1.4.6-1.4.6s.2-.2.3-.4c.1-.1.2-.3.2-.3l1.2-.4 1.1-.4c.1 0 .2-.1 0-.1s-1.1-.2-1.6-.3-1-.3-1.1-.4-.1-.2-.2-.3-.2-.3-.2-.3l1.7.4zm-6.6 1s-.2-.3-.3-.3c0-.1 0-.2.1-.3 0-.1.1-.2.1-.2H73l-.2-.2s.4 0 .6-.1c.2 0 .5-.1.5-.1s-.1.3-.2.5c-.2.4-.2.7-.2.7zm.2.2v-.7c0-.2.2-.5.3-.7s.1-.2-.2-.2c-.2 0-1.1.2-1.3.1-.1 0-.6-.7-.6-.7s.4.1.6.1h.9c.7 0 1.4-.1 1.7-.1.3-.1.8-.1.8-.1s-.1.1-.3.1c-.2.1-.4.2-.7.5s-.5.7-.5 1.3a4.36 4.36 0 0 0 .2 1.2s-.8-.6-.9-.8zm4.3 3.5l-1.6-1.1c.2.1 1 .2 1.6.2.7 0 1.5-.2 1.5-.2s-.4.3-.4.9.3 1 .3 1-.6-.3-1.4-.8zm6.9-.7a3.46 3.46 0 0 0 2 .7c.6.1 1.4 0 1.4 0s-.5.4-1.2.7-1.2.4-1.2.4-.3-.1-.5-.3-.4-.3-.4-.4-.2-.1-.2 0-.1.4-.2.5-.1.3-.2.4-.5.1-.9.2h-1.1s.5-.4.9-.8c.3-.3.5-.8.6-1s.4-1.3.5-1.4c0 0 0 .6.5 1zm3.9-3.5s-.1-.2-.1-.3-.1-.4-.1-.4l-.4.2c-.2.1-.3.3-.3.3h-.8l1-.5.9-.5v.7l.2.7s-.3-.2-.4-.2z"></path><path d="M74.7 59.3c0 .2.1.5.1.6s.1.1.1.1c.1 0 .7 0 .9-.1.2 0 .7-.1.7-.1l-.9-.7c-.1-.1-.9-.6-.9-.6v.8zm.1-.5s.1 0 .1.1.1.5.2.5.1.1.2.1.4-.1.4-.1c.1 0 .3.2.3.2h-1.1c0-.1-.1-.4-.1-.6v-.2zm-.8-.1c0-.9-.3-1.4-1.6-2-1.3-.7-3.1-1-3.8-1.1-.7-.2-1.2-.3-1.7-.6-.5-.2-1.6-.9-1.7-1-.2-.2-.2-.3-.2-.3s0-.1.3-.1c.2 0 .4.1.5.1.1.1.1.2-.1.2-.1.1-.2 0-.2-.1v-.1s0-.1-.1 0c-.1 0-.2.1-.1.2s.2.1.4.2c.2 0 .8-.1 1-.1.1 0 .3.1.3.3-.1.2-.4.2-.5.1s0-.2 0-.2c-.2 0-.3.2-.1.4.2.1.4.1.9.1s1.6.3 1.6.3-.3-.2-.9-.5-2-.8-2.9-1-1.6-.2-1.6-.2.3.2.7.4.8.5 1.2.8c.8.5 1.5 1.2 1.7 1.3s1.2.1 3.1.6c1.1.3 1.7.5 2.3.9.5.3 1.2.9 1.2 1.6s-.4 1.3-1.5 1.3-1.5-.5-1.7-.8-.3-.7 0-1.1.8-.2 1-.2.6.5.5.9-.4.2-.4.2.1-.1.1-.2-.1-.2-.2-.1 0 .4.2.5c.1.1.4.1.5-.3s-.1-.9-.8-1.3c-.6-.4-1.6-.6-2-.7-.5-.1-1.9-.5-1.9-.5l1.2 1.3c.1.1.3.3.5.1.1-.1 0-.3-.1-.4-.2 0-.4.1-.4-.2 0-.2.4-.3.7-.2s1.1.4.9 1-.9.2-.9.2l1.1 1.2c.3.3.9.8 1.8.8s1.7-.8 1.7-1.7zm16.7-17.4s.1-.1.2-.3c0-.1.1-.5.2-.7.2-.3.5-1.1.7-1.4s.5-1 .5-1-.8.8-1.1 1.3c-.4.5-.9 1.2-1.2 1.7s-.3.8-.3 1 .1.8.3 1.1c.1.3.9 1.8.9 1.8l-.1-1.3c0-.4.2-1.1-.1-1.3-.2-.2-.4-.1-.5 0s-.1.3 0 .5c.2.2.3.1.3 0s-.1-.3-.2-.2c0 0 .1 0 .1.1v.1h-.1s-.1-.2-.1-.3c.1-.2.2-.1.3-.1s.2.1.2.4 0 .4-.1.5-.2 0-.4-.1c-.1-.1-.2-.2-.2-.4 0-.1-.1-.5-.1-.8s.2-.7.3-.9.3-.3.5-.2c.1 0 .2.2.2.3-.1 0-.1.1-.2.2zM77.6 28c-.5.6 0 1.5 0 1.5s-.3.7-1.1.8-1.4-.1-1.7 0c-.4 0-.9.1-1.3.4l-.7.3s.6-.1 1.3-.1 1.5.3 2.7.4 2-.9 2-.9.3.4.5.4c.1 0 .7-.6.7-.6s.8 1.1 2.2 1.5 2.8-.5 4-.5c.6 0 1.2.1 2 .6.8.4 1.6 1.2 1.6 1.2s-.7.5-.8 1.1c-.1.7-.1 1.1.7 1.8.7.7 1 .6 1.1.6l-.9-.6c-.4-.4-.7-.8-.6-1.3 0-.5.6-1.1 1-1.2 0 0-.2-.5-.5-.8-.4-.3-1.1-.9-1.9-1.2s-1.2-.4-1.8-.3-2.1.5-3 .5a2.83 2.83 0 0 1-1.7-.5c-.3-.2-.9-.8-1-.9s-.3-.1-.3 0-.5.5-.5.5-.2-.4-.3-.4c-.1-.1-.1-.1-.2 0s-.5.6-.9.7-1.2.1-1.7 0c-.5 0-1.4-.3-1.7-.3h-1.1s.5-.3 1.1-.3 1.4.1 1.8 0 .8-.3 1.1-.6.3-.3.2-.5c-.1-.1-.3-.6-.2-1.1.1-.4.6-.5.8-.5s.6.2.7.4.3.5.1.9c-.1.3-.2.5-.2.5s.3 0 .7-.2c.2-.1.6-.5.9-.8s.9-1.2 1.5-1.5c.6-.4 1.5-.8 2.5-.6s1.5.4 1.9.7 1.1 1 1.4 1.6l1.6 2.1 1.3 1.2s-.9-.5-1.3-1l-1.5-1.5c-.4-.4-1-1-1.5-1.3s-1.1-.7-2.1-.7-1.5.1-2 .7-.4 1.6.5 1.8c.9.3 2.1-.1 3 .1 1 .3 1.4.5 2 .8.5.3 1.1.6 1.5 1s.6.8.6.9c.1 0 .1.1.2.1s.3.1.6.3 1 .8 1.2 1.5.3 1.2-.3 2.3-.9 1.2-1.1 1.5l-.8 1.1c-.2.4-.4 1-.4 1l1.3-1.9c.2-.2.9-1 1.1-1.4s.6-1.1.6-1.8-.3-1.6-.9-2.2c-.6-.5-.8-.7-1.3-.8 0 0-.5-.6-1.1-1.1s-1.8-1.2-3.1-1.6c-1.3-.3-2.4 0-2.9-.2s-.9-.6-.5-1.2c.4-.5.8-.8 1.7-.9s1.7.3 2.4.9l3.2 3c.4.3 1 .8 2.3 1.1 0 0-1.1-.6-1.8-1.2s-1.5-1.5-1.8-2-1.5-2.1-2.2-2.6c-.8-.5-1.5-.9-2.9-.9-1.3 0-1.8.6-2.6 1.5-.8 1-.8 1.1-1.7 1.7 0 0 .3-.8-.1-1.3-.3-.1-1.1-.3-1.6.3z"></path><path d="M90.4 36.8c-.3-.1-.6-.2-.9-.4-.2-.1-.2-.1-.2.1s.1 1 .2 1.4l.2 1 .9-1.7c0-.2-.1-.3-.2-.4zm-.8 1.7c0-.1 0-.1 0 0 0-.1.1-.1 0 0zm.1-.2c0 .1 0 .1-.1.1s-.1 0-.1-.1v-.1h.1c.1 0 .1.1.1.1zm.1-.3c0 .1-.1.1-.2.1s-.1-.1-.1-.1v-.1s.2 0 .2.1c.1-.1.1 0 .1 0zm.2-.3c0 .1-.1.1-.2.1-.2 0-.2-.1-.3-.1 0-.1-.1-.2 0-.2h.3c.1 0 .2 0 .2.1v.1zm.1-.3s0 .1-.1.1-.4-.1-.5-.1-.1-.1-.2-.1 0-.1 0-.2.1 0 .1 0 .2.1.3.1.4.1.4.2c0-.1 0-.1 0 0zm.2-.3c0 .1-.1.1-.1.2 0 0-.2 0-.4-.1s-.5-.2-.5-.3v-.3a1.41 1.41 0 0 0 .5.3c.3.1.4.1.5.2 0-.1.1-.1 0 0zm-3.7-5.2c-.5-.1-1.1-.1-1.4-.1s-.3.2-.1.2c.3.1.8.4 1.2.7.2.1 1 .7 1 .7 0-.1.2-.4.3-.6s.4-.4.4-.4-.2-.1-.3-.2-.5-.2-1.1-.3zm-1 .2l-.2-.1v-.1h.2v.2zm.4 0c0 .1-.1.2-.1.2l-.2-.1V32s.1-.1.2-.1c.2 0 .1.1.1.2zm.4.1c0 .1-.1.3-.1.3l-.2-.1s0-.2.1-.2c0-.1.1-.1.1-.2h.2s-.1.1-.1.2zm.3.5l-.3-.2s0-.1.1-.3c0-.1.1-.2.1-.2s.2 0 .3.1c0 0-.1.2-.1.3-.1.1-.1.3-.1.3zm.2.2c-.1 0-.1-.1-.1-.1s0-.2.1-.3.1-.3.2-.3.3.1.3.1-.1.2-.2.3-.1.4-.1.4-.1-.1-.2-.1zm.6-.1c-.1.1-.1.4-.1.4l-.2-.2s.1-.3.2-.4c0-.1.2-.3.2-.3.1 0 .2.1.2.1s-.2.3-.3.4zm1.6-3.5c.2.5.5.8.7 1s.5.1.5 0c.1-.1.1-.1.1-.4 0-.2-.3-.6-.5-.7s-.3 0-.2.2.3.1.3.1.3.2.3.5c0 .2-.1.3-.4.1-.2-.1-.6-.8-.7-1.1s.1-.5.4-.4.9.6 1.1.9c.3.5.2 1.3.2 1.3l1.4 1-.5-1c-.2-.4-.7-1-1-1.4s-.9-.8-1.4-1.1c-.4-.2-1.8-1.2-1.8-1.2l.5.7c.4.5.7 1.1 1 1.5zm-9.4-2l.5.5c.1.1.1.1.2 0s.2-.3.3-.4.5-.6.5-.6c.1-.1 0-.1-.1-.1s-.5.1-.8.1c-.2 0-.6.1-.7.2 0 .1 0 .2.1.3zm.3-.2s.1.2.2.2.2-.1.3-.2.2-.2.3-.2h.2l-.6.7c-.1.1-.1.1-.2 0l-.2-.2c-.1-.1-.2-.1-.2-.2s.1-.1.2-.1zm-3.4 1.1l-.9.6c-.4.3-.8.8-.8.8s.5 0 .8-.1a3.55 3.55 0 0 1 .7.1V29c.1-.3.2-.8.2-.8zm-.7.7c.1-.1.2-.1.2-.1s0 .1-.1.2v.1h-.4s.2-.1.3-.2zm.4.1v.4h-.5c-.2 0-.6.1-.6.1s.2-.2.3-.2h.6s0-.2.1-.3c0-.1.1-.2.1-.3.1-.1.2-.1.2-.1l-.2.4zm-6.2 4.6c.2.1.5.1.6.2.1 0 .1 0 .1-.1s-.1-.4-.2-.6c0-.2-.1-.5-.1-.5l-1 .8c-.1.1-.1.1 0 .1s.4.1.6.1zm-.3-.3s.1 0 .2.1c.1 0 .2.1.3.1s.1 0 .1-.1v-.3c0-.1.1-.2.1-.2v.4c0 .2.1.4.1.4s-.3-.1-.5-.1-.4-.1-.4-.1c0-.1 0-.2.1-.2z"></path><path d="M68.4 34.1c-.4.2-1.1.7-1.5.9l-2.5 1.4c-.6.3-.8.5-1.3.6 0 0 .7.1 1.4.1s2.1-.2 2.8-.3 1.8-.5 2.1-.6.5-.2.6-.3c0 0-.4-.3-.7-.2s-.3.2-.4.3-.2.2-.4.2c0 0 .1-.3.4-.6s.5-.3.9-.2l.4.2.2.1c.1-.1 0-.1-.1-.2s-.4-.3-.8-.3-.7.1-.9.4c-.2.2-.4.5-.5.6 0 0-.2.1-.5-.1s-.5-.5-.4-.7c0-.3.1-.4.4-.5.3-.2.8-.5 1.4-.5s1.2.2 1.5.4.6.3.8.7c0 0 .3 0 .8-.1l1.5-.5.3-.2s-.5 0-1.2-.2c-.6-.3-1.2-.7-1.4-1-.2-.4-.2-.8.3-1.1s1-.3 1.9-.2 1.7.2 2.4.4.8.4.7.6-.5.3-.7.3-.6-.1-.8-.1c0-.4-.1-.1-.1.1v.3h.2a3.6 3.6 0 0 1 .9-.5l1.5-.7c.5-.2 1.9-.6 2.3-.7l.9-.2-.9-.3c-.3-.2-.8-.5-1-.5-.3 0-.5.2-.5.4s.1.4.3.4.3-.2.3-.2c0-.1-.1-.2-.1-.2-.1 0-.1.1 0 .2v.1h-.2c-.1-.1-.1-.2 0-.3s.2-.2.5-.1.4.3.4.5a.55.55 0 0 1-.3.5c-.2.1-.7.3-1.5.3s-1.1-.2-1.5-.3-1.1-.3-2.5-.4-1.6 0-2 .2c-.4.3-.6.6-.6 1s.4.9 1 1.2l1.1.5s-.3.2-1.3.2c-.7 0-1.1-.2-1.4-.4l-1-.5c-.2-.1-.4-.2-.5-.2-.1-.1-.3 0-.7.3zm-4.1 2.7c-.1 0-.1-.1 0-.2s.4-.2.4-.2v.2c0 .1.1.2.1.2s-.4.1-.5 0zm.8 0c-.1 0-.2-.1-.3-.2 0-.1 0-.2.1-.3s.6-.3.6-.3 0 .2.1.4.3.3.3.3l-.8.1zm1-.2c-.2 0-.3-.2-.4-.3s0-.4 0-.5c.1-.1.6-.3.6-.3s-.1.3.1.6c.1.3.4.5.4.5s-.5.1-.7 0zm1.7-.3l-.8.2c-.1 0-.4-.3-.5-.5s0-.5.1-.7c.1-.1.5-.2.5-.2s-.1.3.1.7c.3.3.6.5.6.5zm10.6-8.1c-.4 0-.6.3-.6.7s.3.6.7.6.6-.3.6-.7c0-.3-.3-.6-.7-.6zm0 1.1a.47.47 0 0 1-.5-.5.47.47 0 1 1 1 0 .47.47 0 0 1-.5.5zM22.9 4.1c.3.1.8.3.8.7.1.5-.2 1.1-.6 1.3A1.04 1.04 0 0 1 22 6c-.3-.1-.6-.5-.6-.5s-.4 1-.5 1.6-.2 1.6-.2 2.4a10.86 10.86 0 0 0 1 3.3c.6 1.2.5 1.8.3 2.7s-1 1.7-1.5 2.2-1.7 1.2-2.1 1.3-.6.2-.6.3.4.4.5.6c.2.2.5.7.5.7l.9-.6c.4-.3 1.2-1 2.1-1.1s1.6.3 2.1.8c.5.6.9 2.2 1 3 .1.7.1 1.7.1 1.8 0 .2-.1.5-.4.5-.2 0-.5-.3-.6-.5s-.1-1.6-.3-2.5-.5-1.1-.8-1.3a1.58 1.58 0 0 0-1.4-.2c-.6.2-1.4 1.1-1.4 1.1s1.5 1.5 1.9 1.6.6 0 .8-.1.2-.6 0-.8-.5-.2-.7-.1-.1.4 0 .5.2 0 .2-.1v-.2c.1-.1.2-.1.3.1.1.1.1.3 0 .4s-.2.2-.5.1-.7-.5-.7-.5c-.3-.2-.7-1.3-.1-1.7s1.2-.2 1.6.1.6.9.7 1.5-.5 1.6-.5 1.6c.6.5 1.9 1.8 2.7 2.7l1.6 1.6c.7.8 1.7 2.2 2.2 3.2.6 1 1.8 3.4 1.8 3.4 0-2-.2-3.2-.8-5-.5-1.8-1.3-3.2-1.3-3.2l-.1 1.2s.4 0 .6.2c.1.2-.2.7-.2.7s.6.1.7.4c.1.4-.4.9-.4.9s.7.2.7.5c.1.3-.3.7-.3.7s.6.2.6.4c.1.2-.3.8-.3.8s.4.5.4.7c.1.2 0 .9 0 .9-.1-.4-1.3-2.5-1.6-3s-1.1-1.4-1.3-2.1-.1-1.3.1-1.9.7-1 .7-1l-.5-.7c-.3-.4-.6-1-.6-1l.3 1.1c.1.4.1.9 0 1.4s-.4.8-1 .7-1.2-.8-1.4-1.2c-.3-.4-.4-1-.4-1.6-.1-.6.1-1.5-.2-2.7-.3-1.3-.5-1.7-.7-2.1s-.7-1-1.4-1.2c-.8-.2-1.4-.1-1.8.1a7.62 7.62 0 0 0-1.3.7l-.9.6s-.1-.3-.2-.5-.4-.4-.4-.4c.7-.3 1.5-.8 2.3-1.4.8-.7 1.3-1.5 1.6-2.2.2-.6.2-1.2.2-1.6s-.5-1.4-.9-2.4-.6-2-.6-2.7.2-1.2.6-1.8.8-.8 1.2-.7.6.8.6.8l.2-.9c-.1-.3.4-1.4.4-1.4.4-1 1-1.7 1.5-2.3C26 2 27.1 1 27.1 1l-1.1.5c-1.8.7-2.6 1.2-3.3 1.8s-.8 1-.8 1c.4-.2.7-.2 1-.2z"></path><path d="M17.1 17.5c.6.3 1.1.3 1.1.3l-.2-.4.9-.2c.4-.1 1-.5 1-.5l.2.5s.3 0 .9-1.1c.5-.9.5-1.7.4-2.3s-.7-1.8-1-2.6L20 9.5l-.3.7c-.1.2-.7 1-1.2 1.5s-.9 1.2-.8 1.6c0 .4.6.7.6.7v-.3c0-.1.2-.3.5-.3s.4.5.3.8c0 .3-.4.6-.8.5-.5-.1-.7-.6-.7-1.4a26.61 26.61 0 0 1 .2-3c.1-.9.5-1.8.8-2.4.2-.5.4-.7.4-.7a1.44 1.44 0 0 0 .2.3c.1.1.2.4.3.7.1.2.2.6.2.6s-.2 0-.3.2 0 .4.2.5a.47.47 0 0 0 .6-.1c.2-.2.1-.5.1-.7v-.8c0-.2.1-.3.3-.4.1-.1.1-.1.1-.2l-.1-.1c.1 0 .2-.1.2-.2s-.1-.1 0-.1.2 0 .3-.1c0-.1-.1-.2-.1-.4-.1-.2 0-.5 0-.5h.2c-.2-.3-.2-.3-.1-.7s.5-1 .6-1.2.2-.3.2-.5c0-.3-.2-.5-.5-.4-.4.2-.2.4-.4.6s-1.4.7-2.5 1.8-1.7 2.2-2.2 3.4c-.4 1.2-.9 3.2-.9 4.3s.1 1.9.3 2.6c.3.5.9 1.4 1.4 1.7zm-.6-3.3c.2-.1.1-.4-.1-.5-.1-.1-.5-.4-.6-.6-.1-.1.1-1.1.1-1.1s.3.2.4.4c.1.1.2.2.2.3s-.1.1-.2.1c0 0 0 .2.2.2s.3-.1.3-.2c0-.2 0-.4-.3-.6-.2-.2-.4-.4-.5-.6 0-.2.2-.9.2-.9s.2.1.3.3.2.3.2.4c0 0-.1.1-.2.1 0 0 .1.2.2.2s.3-.1.2-.3-.2-.5-.3-.6-.3-.3-.3-.4.2-.9.4-1.4c.2-.4.6-1.4 1-2 .6-.9 1-1.3 1.7-1.9.6-.6 1.5-1.1 1.7-1.2.1-.1.1-.1.2 0h.1v-.1s-.1-.1-.1-.2 0-.2.2-.2.2.1.2.2v.3c0 .1-.4.6-.5.7-.1 0-.2.2-.3.4s-.1.5-.1.6h-.7c0 .1.1.1.2.1s.2 0 .2.1v.4c0 .2 0 .3.1.4v.1h-.3s-.1 0-.1-.1-.1-.1-.1 0 0 .1.1.2c.1 0 .1.1.1.1s-.1.1-.2.1-.1.1-.1.1l.1.1s-.2.1-.2.2c.1 0 .1.1.1.3 0 .1.1.7.1 1 0 .2 0 .4-.2.5s-.4 0-.4-.1.1-.2.1-.2c.1 0 .2 0 .1-.1 0-.1-.1-.4-.1-.7-.1-.4-.4-.8-.4-1-.1-.1-.2-.5-.2-.7s.1-.4 0-.4-.1.2-.1.4 0 .4-.1.6c-.3.4-.6 1-.7 1.3-.1.4-.4 1.1-.5 1.5-.1.3-.2 1.5-.2 1.9s-.1 1.4 0 1.8.1 1 .6 1.2c.5.3.9.1 1.1-.1s.3-.5.3-.9c-.1-.4-.2-.7-.6-.7-.3 0-.6.3-.6.4v.1s-.3-.2-.3-.4 0-.5.3-.9.9-.9 1.1-1.2.7-.9.7-.9.2 1.2.6 2.1.7 1.6.6 2.2-.3 1.3-.6 1.7c-.2.4-.4.6-.4.6s-.1-.4-.2-.4-.4.3-.8.5c-.5.2-1.4.3-1.4.3l.1.4s-.4-.1-.8-.5-.9-1.1-1-1.4c-.1-.4-.1-.8-.1-.8a1.44 1.44 0 0 0 .3.2c.1.1 0 .2 0 .2s.1.2.2.2.3-.2.2-.3-.3-.3-.5-.4-.3-.2-.3-.4-.1-.9-.1-.9.2.1.3.3 0 .3 0 .3.2.4.4.2zm6.2-8.7c-.1 0-.2-.1-.3-.3-.2-.1-.3-.2-.5-.2-.2.1-.2.2-.1.4s.4.4.7.4c.4 0 .6-.2.7-.4s0-.5-.1-.7-.4-.3-.7-.3-.5.2-.5.2.3-.1.6-.1c.2 0 .4.1.5.2 0 .3 0 .5-.1.6 0 .1-.1.2-.2.2zm3.9 18.3c.5-.2 1.1.4 1.1.4l-1-1.8c-.3-.5-.9-1.2-1.2-1.6s-.8-.9-.8-.9c.1.1.4.8.5 1l.6 1.7c.1.4.1 1.2.2 1.8s.3 1.2.4 1.4.4.4.8.4.5-.2.5-.5c.1-.2 0-.5-.2-.8s-.5-.4-.7-.3-.2.4-.2.6.2.4.3.4.2-.1.1-.2c0-.1-.2-.1-.3-.3a.22.22 0 0 1 .3-.3c.2.1.4.5.3.9s-.4.3-.6.1-.4-.8-.4-1.1c-.2-.3-.2-.7.3-.9zm-1.2-2.5l-.1-.2s.1 0 .2.1a1.44 1.44 0 0 1 .2.3h-.1l-.1.1s-.1-.2-.1-.3zm.3.7c0-.1-.1-.2-.1-.2s.2-.2.2-.1c.1.1.1.1.1.2s.1.1.1.2c0 0-.1.1-.2.1s-.1.1-.1.1V22zm.2 1v-.3c0-.1-.1-.2-.1-.2s.1-.1.2-.1.2-.1.2 0c.1 0 .2.2.2.3s.1.2.1.2-.2 0-.4.1c-.1-.1-.2 0-.2 0zm.1.9s-.1-.6 0-.7.4-.3.6-.2.3.5.3.5-.3-.1-.5 0-.4.4-.4.4zM25.7 4L25 5.1c-.2.3-.5 1.1-.6 1.4L24 8.4c-.1.5-.4 1.2-.7 1.5-.4.4-.8.2-1 0-.3-.1-.3-.4-.2-.8.1-.3.5-.4.6-.4s.3.3.3.4 0 .2-.2.3c-.2 0-.3-.1-.3-.1s0 .2.2.2c.2.1.4-.1.4-.4 0-.2-.1-.6-.4-.6-.3-.1-.8.1-.9.6-.2.5.2 1.3.3 1.9s.4 1.7.4 1.7 0-.4.1-.6c0-.2.1-.5.3-1.1s.5-.9.8-1.3.8-1 1.1-1.3 1-.8 1.3-1l1.2-.8c.6-.3 1.3-.4 1.7-.5h1.7s-.1-.2-.1-.3c-.1-.1-.3-.4-.8-.3-.4 0-.6.4-.7.5s-.6.1-.6.1.1-.1.3-.4c.2-.2.4-.4.7-.4.3-.1.8 0 1.1.1.3.2.5.4.6.5s0 .2.1.2l.2.1s-.1-.2-.1-.4c-.1-.3-.6-.8-1.3-.8s-.9.2-1.2.4c-.3.1-.7.6-.9.7s-.5 0-.7-.3c-.2-.4-.1-.8.1-1.1.1-.3.4-.7.9-1.1s1.2-.7 2.2-.6c.9.1 1.3.6 1.8 1.3.5.6.6 1.2.6 1.5s-.1.5 0 .6.5.1 1.1.2l2.1.4c.6.1 1.2.3 1.8.5.5.1 1.1.4 1.1.4 0-.2 0-.4.3-.8.2-.4.9-.7 1.8-.6s1.6.4 1.9.6.5.6.3 1-.6.4-1.1.3c-.4-.1-.6-.4-1-.5-.3 0-.9.4-.9.4s.2.1 1.1.3c.9.1 1.9.1 2.7 0C44.9 8.3 46 8 46 8l-1.3-.5-2.4-1.1c-.6-.2-1.6-.8-2-1-.5-.3-1-.6-1.5-.8s-.9-.3-1.4-.3c-.2 0-.5.1-.6.3s-.1.5 0 .7c.1.3.4.4.6.3.2 0 .3-.2.3-.3 0-.2-.2-.3-.3-.3-.1-.1-.2 0-.2 0 0 .1.1 0 .2.1s.1.2.1.3-.2.2-.4.1-.3-.4-.3-.6.2-.5.9-.3c.7.1 1.1.6 1.3.9.1.2.3.9-.1 1.4s-1.1.4-1.6.2c-.5-.1-1-.4-1.5-.8-.5-.5-.9-1.2-1.1-1.6s-.5-.8-.9-1.4-.9-1-1.5-1.4a3.86 3.86 0 0 0-2-.6c-.6-.1-.9-.1-1.8.2s-1.3.8-1.6 1.1c-.4.3-1 1.1-1.2 1.4zm3-2.5c1.2-.4 1.9-.2 2.7.1.7.3 1.4.8 1.8 1.3.5.5 1 1.3 1.3 1.8s.3 1 0 1.3-.7.2-1 0-.5-.5-.7-1-.6-1.3-1.2-1.8c-.6-.4-1.1-.7-2-.6-.8.1-1.5.5-2 1.2a11.33 11.33 0 0 0-1.3 2c-.3.6-.6 1.6-1.2 1.8-.8.2-.7-1.1-.5-1.5.3-.3.7-1.1.7-1.1.2-.4.6-1 1.1-1.6.4-.6 1.1-1.5 2.3-1.9z"></path><path d="M35.8 4.9v-.3c0-.2 0-.3.1-.6s.6-.4.6-.4-.7-.5-1-.6-1.2-.6-1.4-.7l1.7 2.6zm.2-1.4s-.2.1-.3.3-.1.5-.1.5-.1-.1-.1-.3c0-.1 0-.2.1-.4.1-.1.2-.2.3-.2l.1.1zm-.3-.2s-.2.1-.2.2c-.1.1-.1.2-.1.2v.1s-.1-.1-.1-.2 0-.1.1-.2c0-.1.1-.1.2-.2-.1 0 0 0 .1.1zm-.6-.3c.1 0 .2.1.2.1l-.2.1c-.1.1-.1.2-.1.2s-.1-.1-.1-.2.1-.2.2-.2zm-.3-.2c.1 0 .2.1.2.1s-.1.1-.2.1v.1s-.1-.1-.1-.2c-.1 0 0-.1.1-.1zM22 18l.9.2c.5.1 1.3.4 1.3.4l-1.4-2.2c-.2.2-.8 1.6-.8 1.6zm1-.9s.1.2.1.3.2.2.2.2-.3-.1-.4-.1-.1 0 0-.1l.1-.3zm-.1-.3c0 .1-.2.7-.2.8v.1c.1 0 .6.1.7.1.1.1.3.4.3.4l-.8-.2c-.2-.1-.7-.1-.7-.1v-.1s.2-.5.2-.6.1-.4.2-.5c.2 0 .3 0 .3.1zm-3.5-10c.1 0 .3.1.3 0v-.2c0-.1.1-.1 0-.2 0-.1-.1-.1-.2 0 0 .1 0 .2-.1.2s-.2 0-.2-.1.1-.2.1-.3c.1-.2.1-.4.1-.8 0-.1.1-.2.1-.3.3.1.5.1.5 0 .1-.1 0-.1-.1-.1s-.2 0-.3.1-.2.2-.2.4V6c0 .3-.2.6-.2.6l.2.2zm48.7-4.2c.5.6 1.1 1.3 1.5 2.3 0 0 .5 1.1.6 1.6l.2.9s.2-.7.6-.8.8.1 1.2.7.6 1.1.6 1.8-.2 1.8-.6 2.7l-.9 2.4c0 .4-.1 1 .2 1.6.2.6.8 1.5 1.6 2.2s1.7 1.2 2.3 1.4l-.4.4c-.1.2-.2.5-.2.5l-.9-.6c-.3-.2-.8-.6-1.3-.7-.5-.2-1.1-.3-1.8-.1-.8.2-1.2.8-1.4 1.2s-.4.8-.7 2.1-.2 2.1-.2 2.7c-.1.6-.2 1.2-.4 1.6-.3.4-.9 1.1-1.4 1.2-.6.1-.9-.2-1-.7s-.1-1 0-1.4l.3-1.1s-.3.6-.6 1l-.5.7a2.42 2.42 0 0 0 .7 1c.2.6.3 1.2.1 1.9s-1 1.6-1.3 2.1-1.5 2.6-1.6 3c0 0-.1-.7 0-.9s.5-.3.5-.3-.4-.5-.3-.8c.1-.2.6-.4.6-.4s-.6-.6-.5-.8c.1-.3.7-.5.7-.5s-.5-.6-.4-.9c.1-.4.7-.4.7-.4s-.3-.5-.2-.7.6-.2.6-.2l-.1-1.3s-.8 1.4-1.3 3.2-.8 3-.8 5l1.8-3.4c.6-1 1.5-2.4 2.2-3.2l1.6-1.6 2.7-2.7s-.6-1-.5-1.6.3-1.2.7-1.5 1-.5 1.6-.1.2 1.5-.1 1.7l-.7.5c-.3.1-.4.1-.5-.1-.1-.1-.1-.3 0-.4s.2-.1.3-.1c.1.1 0 .1 0 .2s.1.1.2.1c.1-.1.2-.4 0-.5s-.5-.2-.7.1c-.2.2-.1.7 0 .8.2.1.4.2.8.1s1.9-1.6 1.9-1.6-.7-.9-1.4-1.1c-.6-.2-1.2 0-1.4.2-.3.2-.6.4-.8 1.3s-.1 2.3-.3 2.5c-.1.2-.3.5-.6.5s-.4-.3-.4-.5-.1-1.1.1-1.8c.1-.7.6-2.4 1-3 .5-.6 1.2-.9 2.1-.8s1.7.8 2.1 1.1.9.6.9.6.3-.5.5-.7.5-.5.5-.6-.2-.2-.6-.3-1.6-.8-2.1-1.3-1.3-1.3-1.5-2.2-.3-1.5.3-2.7 1-2.6 1-3.3c.1-.8-.1-1.7-.2-2.4-.1-.6-.5-1.6-.5-1.6s-.3.2-.6.3-.7.3-1.1.1c-.5-.2-.7-.9-.6-1.3.1-.5.5-.7.8-.7.3-.1.6-.1 1 .1 0 0-.1-.3-.8-1-.7-.6-1.5-1.1-3.3-1.8L66.5 1s1.2 1 1.6 1.6z"></path><path d="M72.6 5.2l.1.5c.1.1.2 0 .2 0s.1.3 0 .5-.1.3-.1.4.2.1.3.1 0 .1 0 .1c0 .1 0 .1.2.2l-.1.1s0 .1.1.2.3.2.3.4v.8c0 .3-.1.6.1.7s.4.2.6.1.2-.3.2-.5c-.1-.2-.3-.2-.3-.2s.1-.4.2-.6.2-.6.3-.7.2-.3.2-.3.2.2.4.7.6 1.5.8 2.4a26.61 26.61 0 0 1 .2 3c0 .9-.3 1.3-.7 1.4-.5.1-.8-.2-.8-.5s.1-.7.3-.8c.3 0 .4.1.5.3.1.1 0 .3 0 .3s.5-.3.6-.7c0-.4-.4-1.1-.8-1.6-.5-.5-1.1-1.3-1.2-1.5-.2-.2-.3-.7-.3-.7s-.1.9-.4 1.7c-.2.8-.9 2.1-1 2.6-.1.6-.1 1.5.4 2.3.7 1.1.9 1.1.9 1.1l.2-.5s.6.4 1 .5l.9.2-.1.4s.5 0 1.1-.3 1.2-1.2 1.4-1.8.3-1.5.3-2.6-.4-3.1-.9-4.3-1.1-2.3-2.2-3.4-2.4-1.6-2.5-1.8c-.2-.2 0-.4-.3-.5s-.5.1-.5.4.1.4.2.5c-.3.4.1 1 .2 1.4zM72 3.5c0-.1 0-.2.2-.2s.2.2.2.2 0 .1-.1.2v.1h.3c.1.1 1.1.6 1.8 1.2s1.1 1 1.7 1.9c.4.6.8 1.6 1 2s.4 1.2.4 1.4c0 .1-.2.3-.3.4s-.3.4-.3.6c-.1.2.1.3.2.3s.2-.2.2-.2c-.1 0-.2 0-.2-.1s0-.2.2-.4c.1-.2.3-.3.3-.3s.2.7.2.9-.2.4-.5.6c-.2.2-.3.5-.3.6 0 .2.2.3.3.2.2 0 .2-.2.2-.2-.1.1-.2 0-.2-.1s.1-.2.2-.3l.4-.4.1 1.1c-.1.1-.5.4-.6.6s-.3.4-.1.5.4-.1.4-.1-.1-.2 0-.3c.1-.2.3-.3.3-.3s0 .7-.1.9c0 .2-.1.3-.3.4-.3.1-.6.3-.6.4s.1.3.2.3.2-.2.2-.2-.1-.1 0-.2.3-.2.3-.2 0 .4-.1.8-.6 1-1 1.4-.8.5-.8.5l.1-.4s-.8-.1-1.4-.3c-.4-.2-.7-.5-.8-.5s-.2.4-.2.4-.2-.2-.4-.6-.5-1.1-.6-1.7.2-1.2.6-2.2.6-2.1.6-2.1l.7.9c.2.3.8.8 1.1 1.2a1.33 1.33 0 0 1 .3.9c0 .2-.3.4-.3.4v-.1c0-.1-.2-.4-.6-.4-.3 0-.5.3-.6.7s.1.7.3.9.6.4 1.1.1.5-.8.6-1.2 0-1.4 0-1.8-.1-1.6-.2-1.9-.3-1.1-.5-1.5c-.1-.3-.4-.9-.7-1.3-.2-.2-.1-.4-.1-.6s0-.4-.1-.4-.1.2 0 .4c0 .2-.1.6-.1.7 0 .2-.3.6-.4 1-.1.2-.1.6-.1.7s.1.1.1.1c.1 0 .2.1.1.2 0 .1-.2.1-.4.1-.2-.1-.2-.3-.2-.5s.1-.8.1-1c0-.1 0-.3-.1-.3-.1-.1-.2-.1-.2-.2l.1-.1c.1-.1 0-.1-.1-.1s-.2-.1-.2-.1l.1-.1c.1 0 .1-.1.1-.2s-.1-.1-.1 0 0 .1-.1.1H73v-.1c0-.1.1-.2.1-.4v-.4c0-.1.2-.1.2-.1.1 0 .2 0 .2-.1h-.3c-.1 0-.4.1-.4 0 0 0 0-.3-.1-.6-.1-.2-.2-.4-.2-.5-.1-.2-.5-.6-.5-.7s-.1-.3 0-.3zm-.7 1.1a2.18 2.18 0 0 1 .6.1s-.2-.2-.5-.2-.6.1-.7.3-.2.4-.1.7c.1.2.3.4.7.4s.6-.2.7-.4c0-.3 0-.4-.2-.5s-.4.1-.5.2c-.1.2-.2.3-.3.3s-.2-.1-.2-.2 0-.3.1-.5c0-.1.2-.2.4-.2zm-4.6 20.8c0 .1 0 .2.1.2s.3-.2.3-.4 0-.5-.2-.6-.5 0-.7.3-.2.6-.2.8.2.5.5.5c.4 0 .6-.2.8-.4.1-.2.4-.8.4-1.4.1-.6.1-1.4.2-1.8s.4-1.4.6-1.7c.1-.3.4-.9.5-1 0 0-.5.5-.8.9L67 22.4l-1 1.8s.6-.6 1.1-.4.4.6.4.9c-.1.3-.2.9-.4 1.1s-.5.3-.6-.1.1-.8.3-.9a.22.22 0 0 1 .3.3c-.3.2-.4.2-.4.3zm1.4-4.2c.1-.1.2-.1.2-.1l-.1.2-.1.3-.1-.1h-.1s.2-.2.2-.3zm-.4.7c0-.1.1-.1.1-.2.1-.1.2.1.2.1s0 .1-.1.2c0 .1-.1.2-.1.2s-.1 0-.1-.1c-.1 0-.2-.1-.2-.1.1 0 .1-.1.2-.1zm-.5.6c0-.1.1-.2.2-.3s.2 0 .2 0c.1 0 .2.1.2.1 0 .1 0 .1-.1.2v.3s-.1-.1-.3-.2c-.1-.1-.4-.1-.4-.1.1.2.2.1.2 0zm0 1c-.2-.1-.5 0-.5 0s.1-.4.3-.5.6.1.6.2v.7s-.1-.3-.4-.4zM52.4 8.3c.9-.1 1.1-.3 1.1-.3s-.6-.4-.9-.4-.6.4-1 .5-.9 0-1.1-.3c-.2-.4 0-.8.3-1s1-.6 1.9-.6c.9-.1 1.5.3 1.8.6.2.4.3.5.3.8l1.1-.4c.5-.1 1.1-.4 1.8-.5.6-.1 1.6-.4 2.1-.4s1-.1 1.1-.2 0-.3 0-.6.1-.9.6-1.5.9-1.1 1.8-1.3c.9-.1 1.7.2 2.2.6s.7.8.9 1.1c.1.3.3.8.1 1.1s-.4.4-.7.3c-.4.2-.8-.3-1-.5-.3-.2-.5-.4-1.2-.4s-1.2.5-1.3.8c-.1.2-.1.4-.1.4l.2-.1s0-.1.1-.2.2-.3.6-.5c.3-.2.8-.2 1.1-.1s.5.2.7.4.3.4.3.4-.5 0-.6-.1-.2-.5-.7-.5c-.4 0-.7.2-.8.3S63 6 63 6h1.7c.4 0 1.1.2 1.7.5s.9.5 1.2.8c.3.2.9.7 1.3 1 .3.3.9.9 1.1 1.3.3.4.6.8.8 1.3.2.6.3.9.3 1.1s.1.6.1.6l.4-1.7c.2-.6.5-1.4.3-1.9s-.6-.6-.9-.6c-.3.1-.4.4-.4.6s.2.4.4.4c.2-.1.2-.2.2-.2s-.2.2-.4.2-.2-.2-.2-.3.1-.3.3-.3.6 0 .6.4c.1.3 0 .6-.2.8s-.7.4-1 0c-.4-.4-.7-1-.7-1.5l-.4-1.8c-.1-.4-.4-1.1-.6-1.4l-.7-1.1-1.1-1.5c-.3-.3-.7-.9-1.6-1.1-.9-.3-1.2-.3-1.8-.2s-1.4.3-2 .6c-.6.4-1.1.8-1.5 1.4L59 4.8c-.2.4-.6 1.1-1.1 1.6s-1 .7-1.5.8-1.2.3-1.6-.2-.2-1.2-.1-1.4.6-.7 1.3-.9c.7-.1.9.1.9.3s-.1.5-.3.6-.4 0-.4-.1 0-.2.1-.3.2 0 .2-.1-.1-.1-.2 0-.3.2-.3.3c0 .2.1.3.3.3s.5-.1.6-.3c.1-.4.1-.6 0-.8s-.4-.3-.6-.3c-.5 0-.9.1-1.4.3s-1.1.5-1.5.8a18.65 18.65 0 0 1-2 1c-.6.2-2 .9-2.4 1.1s-1.1.5-1.4.5l2.1.3c.9.1 1.8.2 2.7 0zm6.7-3.6c.3-.5.9-1.3 1.3-1.8.5-.5 1.1-1 1.8-1.3.8-.2 1.6-.4 2.8-.1 1.2.4 1.9 1.3 2.3 1.9l1 1.6.6 1.1c.2.4.3 1.7-.5 1.5-.6-.2-.9-1.2-1.2-1.8a11.33 11.33 0 0 0-1.3-2c-.5-.6-1.1-1-2-1.2-.8-.1-1.4.1-2 .6-.6.4-1 1.3-1.2 1.8s-.4.8-.7 1.1c-.3.2-.7.3-1 0-.2-.4-.2-.9.1-1.4z"></path><path d="M57.7 3.9c.1.3.1.5.1.6v.3l1.6-2.5L58 3c-.3.2-.9.5-.9.5s.5.1.6.4zm1.2-1.1c.1 0 .1 0 .1.1s-.1.2-.1.2V3l-.1-.1s0-.1.1-.1zm-.4.2c.1 0 .2.1.2.2s-.1.2-.1.2 0-.1-.1-.2-.2-.1-.2-.1.1-.1.2-.1zm-.3.2c.1 0 .2.1.2.2.1.1.1.1.1.2s-.1.2-.1.2v-.1c0-.1-.1-.1-.1-.2-.2-.1-.3-.2-.3-.2 0-.1.1-.1.2-.1zm-.4.2c.1 0 .2.1.3.2s.1.2.1.4c0 .1-.1.2-.1.2s0-.3-.1-.5-.3-.3-.3-.3h.1zM71.7 18s-.7-1.4-.7-1.7l-1.4 2.2s.8-.3 1.3-.4.8-.1.8-.1zm-1.2-.6c0-.1.1-.3.1-.3l.1.3v.1c-.1 0-.3.1-.4.1.1 0 .2-.1.2-.2zm-.5.8s.2-.3.3-.4.6-.1.7-.1.1 0 0-.1c0-.1-.2-.7-.2-.8s.1-.1.2-.1.2.3.2.5c0 .1.2.6.2.6v.1s-.4.1-.7.1c-.2.1-.7.2-.7.2zm3.9-13c0 .1.1.2.1.3 0 .3.1.6.1.8 0 .1.2.2.1.3 0 .1-.1.1-.2.1s0-.2-.1-.2c0-.1-.1-.1-.2 0v.4h.3c.1 0 .2-.2.2-.2 0-.1-.2-.3-.2-.6v-.5a.76.76 0 0 0-.2-.4c.1-.2 0-.2-.1-.2s-.1.1-.1.1c0 .1.2.1.3.1z"></path></g><path d="M58.5 80.2c.4.1.6.6 1.2 1.3 3.6 4.6 8.6.6 9.4-4.4l.1-.6-.2.6c-.4 1.3-1.5 2.4-2.6 2.7-.8.2-1.6.4-1.8.7-.2.2-.2.1-.4 0s-.5-.2-.9-.2c-.6 0-.7 0-.9.4-.2.2-.3.4-.4.3 0 0 0-.2.1-.3s.1-.2 0-.2-.2.2-.3.4c-.2.5-.8 1.1-1.1 1.1-1-.4-1.2-1.8-2.2-1.8-.3-.1-.3-.1 0 0zm6.6 2.5c-.4 0-.6-.2-.4-.4s.6-.1.7.2c0 .2-.1.2-.3.2zm1.1-2.7c.2.2.2.9 0 1.4-.1.2-.3.4-.3.4-.1 0 0-.2.1-.5.3-.5.3-1 .1-1.2s-.3-.1 0 .2c.1.1.1.3 0 .5s-.1.2-.2-.2c-.1-.2-.1-.5-.2-.5-.1-.1.3-.3.5-.1zm-.5.8v.5c0 .2-.1.1-.1-.2.1-.3.1-.4.1-.3zm-1 .2c.1 0 .3 0 .3.1s.1.1.2 0 0-.2-.2-.3-.3-.3-.2-.3c.1-.1.2 0 .3.1.2.1.2.1.1-.1s.2-.4.4-.2c0 .1 0 .1-.1.1s-.1.1-.1.2 0 .2-.1.1c-.1 0-.1 0-.1.2v.6c0 .5-.2.5-.5 0-.2-.4-.2-.4 0-.5zm-.9.2c0-.4.5-.6.5-.2 0 .1.1.4.3.6s.3.4.2.4l-.6-.2c-.3-.2-.4-.3-.4-.6zm-.1 1.3h.8l-.7.1c-.4 0-.6.1-.6.2s.1.1.3.1c.1 0 .5-.1.7-.1l.5-.1-.5.1c-.3.1-.6.2-.7.3-.3.1-.2.2-.5-.1-.5-.3-.2-.5.7-.5zm-.9-1.6c.1-.1.2-.2.3-.2v.2c0 .1-.2.2-.3.2-.1-.1-.1-.1 0-.2z" class="N"></path><path d="M53.5 87.6c-.2 0-.4-.1-.6-.1-.1.2-.4.3-.7.3h-.4c.1.1.1.1 0 .3s-.4.3-.5 0c-.1-.2 0-.3 0-.3-.2 0-.5 0-.8.1-.2.1-.3.2-.5.4l-.2.2h.5c.6-.1.9-.1 1 .2s.1.6-.5.8-1.1.3-1.5.3c-.7 0-1-.1-1.1.2 0 .2.9.2 1 .2.4 0 .8-.1 1.1-.2.1 0 .4-.1.7-.2.2-.1.4-.2.4-.1l-.2.2c-.1 0-1.2.3-1.8.3-.5 0-1.3-.1-1.4.1 0 .1.3.2.8.2.6.1 1.2-.1 1.7-.1.5-.1 1-.3 1-.2s-.3.2-.5.3c-.5.1-1.5.2-1.9.2-.5 0-1-.2-1 .1 0 .1.8.2 1.7.1.7 0 1.2-.1 1.4-.2s.7-.2.3 0c-.7.4-1.8.3-2.4.3s-1-.2-1-.1c0 .2 1.3.4 1.6.3.4 0 1 0 2-.3.6-.2 1.4-.8 1.7-1.7.2-.5.4-1.1.8-1.6 0 0 0-.1.1-.1-.3.1-.6.1-.8.1zm-9.7 3.1c.5 0 1 .1 1.4.1s.7-.2.7-.3h-.7c-.4 0-1-.1-1.5-.1-.4-.1-.9-.1-.9-.2s.4 0 .8.1c.4 0 .9.1 1.3.1.5 0 .9-.1.9-.2 0-.2-.3-.1-.7-.1s-1-.1-1.1-.1c-.4-.1-1.1-.1-1.1-.2 0-.2.4 0 .9.1.4.1 1.1.1 1.5.1.5 0 .6-.1.6-.2s-.3-.1-.5-.1h-.8a2.39 2.39 0 0 1-.9-.2c-.5-.2-.9-.3-1-.6-.1-.2 0-.5.4-.7h.8c-.2-.1-.3-.3-.5-.4h-.8v.1c0 .3-.3.3-.4.1 0-.1-.1-.1-.1-.2-.4 0-.6-.2-.7-.5-.3 0-.6.1-1 .2H40c.3.3.4.6.5 1.3.2.8.8 1.4 1.3 1.7.6.4 1.2.5 2.1.5 1.2.1 1.9 0 1.9-.2 0-.1-.1-.2-.6-.1-.4 0-1.2 0-1.5-.1-.4 0-1 0-1-.1.1 0 .2.1 1.1.2z" fill="#c51b18"></path><g class="N"><path d="M69.2 77.3c-.8 4.5-5.6 9.1-9.7 4.3-.2-.3-.5-.7-.6-.9-.3-.3-.7-.4-.7-.2 0 .1.1.1.3.1.3 0 .4.1.7.7s1.6 2.1 1.9 2.1.1.2-.4.5c-1.1.6-1.5.9-2.7 1.8-1.1.9-2.3 1.6-3.7 1.9 0 0 0 .1-.1.1-.3.5-.5 1-.8 1.6-.4.9-1.1 1.5-1.7 1.7-.9.3-1.5.3-2 .3-.2 0-1.5-.1-1.6-.3 0-.1.4 0 1 .1.6 0 1.7.1 2.4-.3.4-.2-.1-.1-.3 0-.2 0-.6.2-1.4.2s-1.7-.1-1.7-.1c0-.2.4-.1 1-.1.4 0 1.5 0 1.9-.2.3-.1.6-.2.5-.3 0-.1-.5.2-1 .2s-1.1.2-1.7.1c-.5 0-.8-.1-.8-.2s.8 0 1.4-.1c.6 0 1.7-.3 1.8-.3l.2-.2c0-.1-.2 0-.4.1-.3.1-.6.1-.7.2-.4.1-.8.1-1.1.2-.1 0-1.1 0-1-.2 0-.3.4-.2 1.1-.2.5 0 1-.1 1.5-.3.7-.2.6-.5.5-.8-.1-.4-.4-.4-1-.2h-.5c-.1 0-.2.1-.2.1-.6.2-1.4.3-2.7.3s-2.2-.1-2.7-.3c-.1-.1-.3-.1-.4-.2H43c-.4.1-.5.5-.4.7.1.3.5.4 1 .6.2.1.6.1.9.2h.8c.1 0 .4 0 .5.1 0 0-.1.2-.6.2-.4 0-1.1-.1-1.5-.1-.5-.1-.9-.2-.9-.1s.7.2 1.1.2c.1 0 .7.1 1.1.1s.7-.1.7.1c0 .1-.4.2-.9.2-.4 0-.9-.1-1.3-.1s-.8-.2-.8-.1.5.2.9.2c.4.1 1 .1 1.5.1h.7c0 .1-.3.2-.7.3-.4 0-.9-.1-1.4-.1-.9-.1-1-.2-1 0 0 .1.6.1 1 .1.3 0 1.1.1 1.5.1s.6 0 .6.1-.7.2-1.9.2c-.9 0-1.5-.1-2.1-.5-.4-.3-1.1-.9-1.3-1.7-.2-.7-.3-1-.5-1.3-1.5-.1-2.9-.9-4.1-1.9-1.2-.9-1.6-1.2-2.7-1.8-.5-.3-.6-.4-.4-.5s1.6-1.4 1.9-2.1c.3-.5.4-.7.7-.7.2 0 .3-.1.3-.1 0-.2-.5-.1-.7.2-.1.2-.4.6-.6.9-3.6 4.5-8.7 1-9.6-4.3-.1-.6-.2-.9-.2-.7.1 3.2 2.2 5.8 4.3 8 .9.9 1.6 2.1 2.3 3.2.2.6.6 1.2.8 1.8 2.3 5.5 9.8 9.4 15.5 9.3 6.2.1 11.5-3.9 14.4-9.3.3-.6.5-1.2.8-1.8.7-1.2 1.5-2.2 2.3-3.2 2.1-2.2 4.3-4.8 4.4-8 0-.6-.1-.3-.2.3z"></path><path d="M51.7 87.7h.4c.4 0 .6-.1.7-.3-.2 0-.3-.1-.5-.1-.5 0-.8 0-1.2.1l-.6.3c.3-.1.6-.1.8-.1s.3 0 .4.1zm-9.6.2c0-.3.5-.4.5-.1h.8c-.2-.1-.4-.2-.5-.3-.3-.1-.7-.1-1.1-.1h-.4c.1.4.3.5.7.5z"></path></g><path d="M42.1 87.8c.1 0 .3 0 .5-.1-.1-.2-.5-.1-.5.1zm0 .2c.1.2.5.2.4-.1v-.1c-.2.1-.4.1-.5.1.1 0 .1 0 .1.1zm9.3-.4h.4c-.2 0-.3-.1-.4 0zm-.1.4c.1.2.4.2.5 0v-.3h-.4c-.1 0-.1.1-.1.3z" class="J"></path><path d="M24.7 76.4l.1.6c.8 5 5.8 9 9.4 4.4.6-.7.7-1.2 1.2-1.3.3-.1.3-.1 0-.1-1 .1-1.2 1.5-2.1 1.8-.3 0-.9-.5-1.1-1.1-.1-.2-.2-.4-.3-.4s-.1.1 0 .2.1.2.1.3c0 0-.2-.1-.4-.3-.3-.4-.4-.4-.9-.4-.4 0-.7.1-.9.2-.2.2-.3.2-.4 0-.3-.2-1-.5-1.8-.7-1.1-.2-2.2-1.3-2.6-2.7l-.3-.5zm4.1 6.3c-.3 0-.4 0-.3-.2.1-.3.7-.3.7 0 0 .1-.1.2-.4.2zm2-2a1.44 1.44 0 0 0 .3.2c.2.2.2.2 0 .2-.1 0-.2-.1-.3-.2v-.2zm.1 2.4c-.3.2-.3.2-.6.1-.1-.1-.4-.2-.7-.3l-.5-.1.5.1c.3 0 .6.1.7.1s.2 0 .3-.1c0-.1-.3-.2-.6-.2l-.7-.1h.8c1-.1 1.2.1.8.5zM29.5 81c0-.4.5-.2.5.2 0 .3 0 .4-.5.6-.6.3-.7.2-.3-.3.2-.1.3-.4.3-.5zm-1.2-.7c.1-.2.5 0 .4.2s0 .2.1.1.2-.1.3-.1c.1.1 0 .2-.2.3s-.3.5-.2.5c.1.1.2-.2.2-.2 0-.1.2-.1.3-.1.2.1.2.1 0 .4-.2.2-.3.4-.4.4s-.2-.5-.1-1c0-.1 0-.2-.1-.2s-.1 0-.1-.1 0-.2-.1-.2c-.1.1-.1 0-.1 0zm-.1.5v.5c0 .2-.1.1-.1-.2s.1-.4.1-.3zm-.6-.8c.2-.2.6 0 .5.2 0 .1-.1.3-.2.5-.1.3-.1.4-.2.2-.1-.1 0-.3 0-.5.2-.3.2-.4 0-.2-.3.2-.2.7.1 1.2.1.3.2.5.1.5-.3-.1-.6-1.6-.3-1.9z" class="N"></path><g class="J"><path d="M30.1 82.5c.4 0 .6.1.6.2s-.1.1-.3.1c-.1 0-.5-.1-.7-.1l-.5-.1.5.1c.3.1.5.2.7.3.3.2.3.1.6-.1.5-.3.2-.6-.7-.6h-.8l.6.2zm-1.6-.1c0 .2 0 .2.3.2.2 0 .4-.1.4-.2 0-.3-.6-.3-.7 0zm.5.1c-.1 0-.2 0-.2-.1 0 0 .1 0 .2.1h0z"></path><path d="M29 82.4h-.2c-.1.1 0 .1.2 0 .1.1.1.1 0 0zm.5-.7c.4-.2.5-.3.5-.6 0-.4-.5-.6-.5-.2 0 .1-.1.4-.3.5-.3.5-.2.6.3.3zm-1.5 0c.1 0 0-.2-.1-.5-.3-.5-.3-1-.1-1.2s.3-.1 0 .2c-.1.1-.1.3 0 .5s.1.2.2-.2c.1-.2.1-.5.2-.5.1-.2-.3-.3-.5-.2-.4.4-.1 1.9.3 1.9z"></path><path d="M28.4 80.3c.1 0 .1.1.1.2s0 .2.1.1c.1 0 .1 0 .1.2 0 .5 0 1 .1 1s.2-.2.4-.4c.3-.4.3-.4 0-.4-.1 0-.3 0-.3.1s-.1.3-.2.2.1-.4.2-.5c.2-.1.3-.3.2-.3-.1-.1-.2 0-.3.1-.2.1-.2.1-.1-.1s-.2-.4-.4-.2h.1zm-.3.7c0 .3 0 .4.1.2v-.5c0-.1-.1 0-.1.3zm3 0c.2 0 .2 0 0-.2-.1-.1-.2-.2-.3-.2v.2c0 .1.2.2.3.2zM63 83c.3.2.3.2.5.1.1-.1.4-.2.7-.3l.5-.1-.5.1c-.3 0-.6.1-.7.1s-.2 0-.3-.1c0-.1.3-.2.6-.2l.7-.1h-.8c-.9-.1-1.2.1-.7.5zm1.7-.8c-.2.2 0 .4.4.4.2 0 .3-.1.3-.2-.1-.2-.5-.4-.7-.2zm.2.3c-.1 0-.2 0-.2-.1.1 0 .2 0 .2.1h0z"></path><path d="M65 82.4h-.2c-.1.1 0 .1.2 0 .1.1.1.1 0 0zm-.7-.7c.3.1.5.2.6.2l-.2-.4c-.2-.2-.3-.5-.3-.6 0-.4-.5-.2-.5.2-.1.3 0 .4.4.6zm1-.3v-.6c0-.1 0-.2.1-.2s.1 0 .1-.1 0-.2.1-.2.1-.1.1-.1c-.1-.2-.5 0-.4.2s0 .2-.1.1-.2-.1-.3-.1c-.1.1 0 .2.2.3s.2.3.2.3c-.1.1-.1 0-.2 0 0-.1-.2-.1-.3-.1-.2.1-.2.1 0 .4.3.5.4.5.5.1z"></path><path d="M65.9 80.6c.1.4.1.4.2.2.1-.1 0-.3 0-.5-.2-.3-.2-.4 0-.2.3.2.2.7-.1 1.2-.1.3-.2.5-.1.5s.2-.2.3-.4c.2-.5.3-1.2 0-1.4-.2-.2-.6 0-.5.2.1 0 .2.2.2.4zm-.2.7v-.5c0-.1-.1 0-.1.3.1.2.1.3.1.2zm-2.9-.3c.1 0 .2-.1.3-.2v-.2s-.2.1-.3.2-.1.2 0 .2z"></path></g></svg>