<?xml version="1.0" standalone="no"?>
<!DOCTYPE svg PUBLIC "-//W3C//DTD SVG 20010904//EN"
 "http://www.w3.org/TR/2001/REC-SVG-20010904/DTD/svg10.dtd">
<svg version="1.0" xmlns="http://www.w3.org/2000/svg"
 width="720.000000pt" height="792.000000pt" viewBox="0 0 720.000000 792.000000"
 preserveAspectRatio="xMidYMid meet">
<metadata>
Created by potrace 1.16, written by Peter Selinger 2001-2019
</metadata>
<g transform="translate(0.000000,792.000000) scale(0.100000,-0.100000)"
fill="#000000" stroke="none">
<path d="M2635 6836 c-92 -21 -155 -55 -213 -114 -104 -106 -161 -217 -187
-368 -19 -110 -19 -190 0 -320 31 -203 82 -357 270 -811 25 -62 45 -123 43
-134 -3 -20 -8 -18 -61 25 -162 133 -387 257 -546 302 -84 24 -105 26 -200 21
-127 -7 -198 -25 -308 -78 -108 -52 -196 -137 -247 -240 -55 -114 -69 -183
-64 -324 4 -108 8 -129 40 -210 49 -123 66 -211 78 -410 19 -320 30 -433 50
-512 50 -198 158 -333 337 -420 l98 -48 110 1 c151 2 235 28 515 164 253 122
313 143 420 144 97 1 126 -8 145 -44 42 -81 0 -226 -92 -318 -113 -112 -250
-129 -385 -47 -31 19 -59 35 -62 35 -3 0 -6 -26 -6 -58 0 -113 71 -205 194
-251 72 -27 180 -44 231 -36 196 30 330 145 512 441 10 16 11 13 6 -21 -26
-207 -145 -445 -304 -607 l-66 -68 76 -46 c198 -122 393 -280 428 -348 14 -28
14 -30 -8 -47 -64 -49 -203 -73 -419 -73 -203 1 -333 23 -436 74 -72 35 -116
80 -173 178 -64 110 -91 128 -191 122 -74 -3 -95 -39 -83 -139 5 -47 8 -51 32
-51 35 0 107 -46 150 -96 33 -36 147 -206 154 -228 2 -5 16 0 33 12 63 47 202
51 412 11 56 -11 131 -29 166 -39 l63 -20 56 25 c31 13 103 37 159 52 92 24
120 27 258 27 138 0 166 -3 255 -28 55 -15 124 -38 154 -52 l54 -24 66 19
c111 32 201 50 321 62 133 14 213 3 257 -36 l27 -22 42 73 c86 152 199 264
265 264 25 0 28 4 35 45 8 57 -1 108 -25 129 -25 23 -116 24 -158 3 -32 -17
-74 -70 -108 -136 -31 -60 -102 -127 -166 -156 -110 -49 -232 -68 -434 -68
-199 0 -300 15 -387 59 l-48 24 19 39 c37 72 218 220 417 343 l81 49 -57 58
c-102 105 -222 306 -275 464 -22 65 -47 188 -40 195 1 1 26 -38 56 -88 126
-215 279 -342 450 -372 120 -21 303 35 376 115 48 53 63 95 63 172 l0 66 -33
-25 c-98 -75 -228 -93 -323 -44 -114 59 -196 180 -202 299 -4 62 -2 68 26 100
l30 34 94 -1 c120 -1 183 -23 433 -146 279 -138 414 -177 563 -163 141 13 325
131 409 263 82 128 107 248 128 608 16 278 30 374 71 483 47 125 58 173 58
276 0 178 -52 314 -163 425 -116 115 -268 177 -462 187 -95 5 -116 3 -200 -21
-157 -45 -384 -170 -541 -299 -32 -26 -61 -47 -64 -47 -15 0 13 85 86 254 183
429 249 688 237 931 -10 190 -70 336 -191 460 -78 79 -128 104 -252 126 -102
18 -345 5 -593 -30 -286 -41 -421 -41 -706 0 -253 36 -532 47 -630 25z m1001
-138 c35 -70 130 -167 289 -296 263 -215 408 -375 494 -548 138 -276 146 -651
19 -925 -50 -107 -106 -194 -236 -369 -235 -315 -302 -445 -334 -651 l-12 -79
-63 0 c-49 0 -64 4 -71 18 -36 68 -73 680 -102 1681 -5 178 -11 325 -13 327
-2 2 -7 -128 -11 -288 -18 -804 -62 -1566 -97 -1701 l-10 -38 -67 3 -67 3 -7
57 c-25 197 -104 357 -325 653 -134 181 -191 269 -239 369 -82 176 -113 356
-94 553 34 360 187 602 580 918 171 138 267 235 305 307 17 32 31 58 32 58 2
0 15 -24 29 -52z m-1506 -1564 c351 -88 795 -459 1035 -864 91 -155 157 -350
141 -416 -6 -22 -12 -24 -64 -24 -31 0 -106 -7 -167 -15 -60 -8 -115 -15 -121
-15 -6 0 -14 21 -17 46 -15 135 -170 336 -312 405 -68 33 -73 34 -195 34 -114
0 -130 -2 -180 -26 -67 -31 -142 -104 -178 -173 -25 -46 -27 -61 -27 -161 0
-81 5 -124 18 -163 10 -28 17 -56 15 -62 -2 -5 -37 2 -78 16 -306 102 -550
323 -634 574 -29 89 -50 237 -41 300 11 80 44 189 79 258 138 273 386 371 726
286z m3305 21 c105 -22 189 -68 264 -144 79 -80 130 -171 167 -300 24 -84 26
-105 22 -205 -14 -307 -195 -561 -513 -719 -89 -44 -230 -95 -239 -86 -3 2 5
31 16 64 15 44 21 87 22 160 1 91 -2 105 -27 158 -35 70 -116 153 -177 179
-120 52 -267 47 -390 -13 -137 -67 -284 -262 -297 -395 -6 -55 -6 -56 -35 -50
-31 6 -157 21 -272 31 l-69 7 6 66 c23 273 340 720 699 985 304 225 581 313
823 262z m-1152 -1393 c94 -26 132 -51 147 -97 15 -47 -3 -83 -57 -113 -84
-46 -150 -53 -603 -62 -820 -15 -1010 13 -1010 151 0 81 93 117 365 143 22 2
274 3 560 2 499 -2 523 -3 598 -24z m-963 -330 c0 -46 -29 -143 -66 -221 -75
-160 -199 -298 -323 -359 -73 -36 -78 -37 -186 -37 -91 1 -120 5 -169 24 -81
32 -149 101 -170 172 -27 89 -25 90 55 50 62 -31 81 -35 143 -35 93 0 167 33
238 106 74 76 112 162 112 255 l1 73 183 0 182 0 0 -28z m220 9 c27 -51 67
-344 71 -520 1 -31 7 18 15 107 24 302 47 406 92 423 14 5 51 9 81 7 l56 -3 6
-75 c24 -284 159 -615 321 -786 28 -30 49 -56 47 -57 -2 -2 -44 -30 -94 -61
-187 -120 -430 -345 -493 -457 l-29 -50 -14 32 c-18 45 -113 162 -190 235
-118 111 -203 174 -395 290 -20 12 -18 15 50 86 122 128 210 300 267 527 18
70 32 156 36 219 l6 102 78 0 c67 0 80 -3 89 -19z m742 -63 c6 -100 35 -164
110 -245 73 -76 143 -108 238 -108 73 1 91 6 203 63 4 2 7 -7 7 -20 0 -86 -70
-177 -173 -224 -57 -26 -72 -29 -177 -29 -110 0 -119 2 -180 32 -117 57 -230
176 -309 325 -51 94 -81 185 -81 243 l0 45 179 0 178 0 5 -82z"/>
<path d="M2011 4765 c-48 -38 -55 -39 -120 -24 -24 5 -45 8 -48 6 -2 -3 6 -30
18 -62 l22 -58 -27 -55 c-15 -30 -26 -56 -24 -57 2 -2 28 1 58 6 l55 9 46 -46
c51 -50 52 -49 64 30 7 46 9 48 69 75 l61 27 -58 34 -57 35 0 57 c0 32 -3 58
-7 58 -5 0 -28 -16 -52 -35z"/>
<path d="M5452 4763 l-42 -36 -61 12 c-34 7 -62 11 -64 9 -2 -2 7 -29 20 -61
l24 -58 -26 -54 c-15 -30 -25 -56 -22 -59 2 -2 29 0 59 6 l55 10 41 -46 c42
-48 54 -55 54 -31 0 7 5 36 10 62 10 47 13 50 61 68 28 11 53 23 55 27 3 4
-17 21 -44 38 -51 31 -62 53 -62 121 0 16 -3 29 -7 29 -5 -1 -27 -17 -51 -37z"/>
</g>
</svg>
