<svg xmlns="http://www.w3.org/2000/svg" xml:space="preserve" id="Layer_1" x="0" y="0" style="enable-background:new 0 0 971.1 228" version="1.1" viewBox="0 0 971.1 228"><style>.st0{fill:#fff}</style><path d="M167.1 171.9c-1.4 1.6-.2 4.4.6 5.8 3.8-3.5 4.8-4.3 5.1-4.9.9-1.8-.5-4.3-1-5.8-2.3 2.2-4.4 4.7-4.7 4.9zM176.8 160.7c-1.5 2.2 0 5.9 1.1 7 1.9-1.9 3.8-4.9 4.5-6 .6-2.6-1-4.7-1.7-6.1-1.9 2.3-3.7 4.8-3.9 5.1zM42.2 24.7c1.5-2 .2-3.9-.4-5.4-2.1 2.2-4.1 2.7-4.7 4.1-.6 1.3-.4 3 .7 4.7 1.6-1.4 4.2-3.1 4.4-3.4zM33.9 31.5c.9-2.1.3-3.4-1-5-2.5 2.2-4.2 4.1-4.4 5.1-.3 1.3.1 2.2 1.6 4.1 1.8-2.1 3.6-3.8 3.8-4.2zM26.9 38.9c.4-1.5-.1-2.5-1.9-4.3-1.8 2.6-4 4.3-4.1 5.8-.1 1.4 1.6 3.4 2.2 4.4 1.8-2.9 3.7-5.6 3.8-5.9zM8.3 74.8c.2-.6 1.2-3.5 1.8-5.6.5-2.8-2.8-5.4-2.8-5.4-.9 2.1-2.1 5.8-2.1 5.8-.8 3.1 2.7 5.2 3.1 5.2zM12.3 63.7c.3-.6 2.1-4.9 2.2-5.7.4-3.4-2.7-4-2.7-4-1.5 2.5-2.4 3.8-2.5 5.2-.2 2.9 3 4.5 3 4.5zM20.1 48.4c.6-1.8.3-2.5-2-4.9-1.8 2.6-3.4 4.4-3.3 6.1.1 2.2 1.4 3.5 2.1 4.5 1.3-2.8 3.1-5.3 3.2-5.7zM6.3 84.7c.1-.8.2-2.9.8-5 .4-3-3.7-5-3.7-5-.3 2.2-1 5-1 5.5-.5 2.1 3.9 4.5 3.9 4.5zM86.2 191.1c2.4.6 3.1.6 5.6 1.5 1 .7 3.8-.4 5-2.9-2.4-1.4-3.6-2.1-6.9-2.6-.9.3-4 1.3-3.7 4zM77.3 188.7c-1.7 1.1-2.3 5.8.1 5.9 1.8-2.3 4.8-2.9 4.8-2.9 1.4-.3 3.3-2.9 1.7-5-.1 0-3-.6-6.6 2zM75.6 204.6c-.9-2-.9-5 0-5.6-.8-3.5-5.2.8-5.2.8-.1 2.5 0 3.2.4 5.1.4 1.5 4.1 1.1 4.8-.3zM95.9 205.8c-2-.7-4.4-1.7-5.4-1.8-2.3-.2-4 .2-4.7 4.4 1.4-.2 4 .2 5.5.7 1 .4 3.2-.7 4.6-3.3zM106.7 209.7c3.2-2 8.6-1.2 11.5-.8 2.6.4 4.4-.8 5.4-1.9-2.8-3.8-9.3-4-14.1-3-2.3.5-2.6 3.7-2.8 5.7zM81.9 204.5c-1.6-.3-6.4 2.1-7.4 3.1-1.1.9-2.1 1.7-1.7 6.1.6-.6 5.6-4.1 6.8-4.4 2.5-1 2.4-2.1 2.3-4.8zM106.3 210.8c-1.3 0-3 .6-5 2.8l2.3 1.3c3.3.8 5.6-2.8 5.6-2.8-1.9-.5-2.4-1.3-2.9-1.3zM80.3 212c-1.3-.3-3.3.9-5.2 2 1.6 1.4 3.7 2.7 5.2 3 2.4.3 3.9-.8 5.4-4.1-1.2.3-5-.7-5.4-.9zM119.6 212c-1 .6-3.1 1.6-6.9.8-2.7-.3-3.5 2.4-4 3.9 6.6 1.8 9 1 11.8-.1 3.8-1.7.3-4-.9-4.6zM129.2 209.6c-1.8-1.4-5.3-1-6.3 1.3 2.2 1.1 3.7 2.1 5.7 4.5 1.4 1.7 6-.9 6-.9-1.9-1.8-4.8-4.4-5.4-4.9zM135 224.5s.7 1.8 1.5 2.7c1.7.7 3-.1 4.5-.8.4-3.9-4.6-2.6-6-1.9zM65 216.1c-1.5 2.7.7 5.5 1 6 1.4-2.4 2.2-3.6 4-5.8 1.2-1.5.9-3.3-.2-5.4-2.4 2-4 3.9-4.8 5.2zM52 17.7c1.4-1.7.5-3.5-.1-5.1-1.5 1.1-4.8 2.4-5.8 4.2-.7 1.2-.4 3.7.7 4.6 2.2-1.8 5-3.4 5.2-3.7zM61.8 12.6c2-1.7 1.1-3.4.6-5-1.5 1-5 1.8-6.2 3.5-.8 1.1-.8 3 .2 4.2 2.2-1.2 4.7-2 5.4-2.7zM72.3 8.9c1.9-1.8.8-4.1.7-5-1.6.9-4.9 1.1-6.3 2.7-.9 1.1-.9 2.6-.2 4.4 2.5-1.1 5.6-1.9 5.8-2.1zM83.2 6c1.7-1.1 1.5-2.9 1.4-4.5-1.6.3-5.8.9-6.5 1.9-1.3 1.5-1.1 3.1-.7 4.2 2.3-1.2 4.9-1.1 5.8-1.6zM94 4.7c2-1 2.6-2.4 2.6-4.7-1.9.2-5.2-.2-6.9 1.2-1.1.9-2 1.9-1.8 4.4 2.7-.5 5.8-.8 6.1-.9zM106 4.8c1.9-.2 3.3-2.7 3.6-4.4-1.6-.1-5-.7-6.5-.1-1.3.6-2.9 1.5-3.3 4.4 2.6-.4 5.3.2 6.2.1zM118.9 6c2.3-.3 2.9-2.1 3.3-3.7-3-.6-5.5-1.2-6.7-.9-1.4.4-2.8 1-2.9 3.6 2.9.4 4.8 1.2 6.3 1zM134.2 5.6c-2.6-.8-3.9-1.5-5.8-1.6-1.4-.1-3.9 1.8-3.8 3.3 2.8.7 4.6 1.4 5 1.5 3 .5 3.8-1.8 4.6-3.2zM145.7 10.5c-1.9-1.2-4.5-2.4-5.1-2.6-1.7-.4-4.8.8-5.2 3.1 2.9.9 5.4 2.1 5.8 2.1 2.7.1 3.6-1.2 4.5-2.6zM156.8 16.8c-2.3-1.4-3.3-2.2-4.8-3.1-1.6-.7-5.2.5-5.7 2.1 2.7 1.3 4.6 2.5 4.9 2.7 2.4 1 4.5-.4 5.6-1.7zM160.6 25.3c1.9.5 4.2.2 5.6-1.5-1.1-.8-2.6-1.7-3.7-2.9s-5.4-1.8-6.3 1.2c2.6 1.6 4.1 3 4.4 3.2zM165.3 29.4c2.2 2 4.1 4 4.4 4.2 2 1.1 4-.4 5.5-1.3-1.9-2-3-3.2-4.2-4.1-1.7-1-4.2-.6-5.7 1.2zM177.7 42.7c1.9 1.3 4.2.4 5.7-.3-1.5-2.2-2.9-3.8-4-4.8-1.3-1.2-4-.9-5.4.5 2 2.3 3.4 4.4 3.7 4.6zM184.7 53c1.8 1.7 3.8 1 5.4.6-1.2-2.4-2.2-4.3-3.2-5.4-1.3-1.4-4.5-1.4-5.5-.4 1.6 2.5 3.1 5 3.3 5.2zM187.5 58.7c1.2 2.7 2.4 5.9 2.6 6.3 1.4 2.9 4.3 1.9 6 1.7-.9-2.6-1.7-4.7-2.3-5.9-.8-1.7-3.4-2.3-6.3-2.1zM194.5 76.9c1.3 1.9 3.4 1.8 5.1 1.8-.6-2.6-1.1-4.9-1.7-6.2-.5-1.8-3.9-2.5-5.5-2.6 1 2.9 1.9 6.7 2.1 7zM196.8 89.9c1.3 2.3 3.2 2.1 4.9 2.3-.2-2.7-.4-4.8-.8-6.2-.5-1.8-3.5-2.9-5-3.4.5 3.1.4 6.3.9 7.3zM197.4 94.8c.1 3-.2 5.9.1 7 .4 2.1 2.3 3.2 4.6 3.7.2-2.7.2-4.5 0-5.9-.7-3.5-3.3-4.2-4.7-4.8zM197.2 108.2c-.4 3-.7 6.4-.7 6.7.1 2.9 2.6 3.7 4.2 4.3.5-2.6 1-4.8.9-6.3-.3-2.6-3.1-3.9-4.4-4.7zM195.4 120.5c-.8 2.9-1.4 6.2-1.5 6.6-.4 2.1 1.9 4.1 3.7 4.8.9-2.5 1.3-4.1 1.5-5.9.3-2.2-2.5-4.5-3.7-5.5zM189.9 138.6c-.6 2 .6 3.8 2.7 5.4 1.3-2.4 2.6-5.1 2.8-6.4.2-2.4-1.9-4.2-3-5.4-1.1 2.8-2.3 6-2.5 6.4zM184.2 149.9c-1.2 2.2 1.3 4.2 2.4 5.4 1.8-2.1 2.7-4.3 3.3-5.6.7-1.7-1.7-4.8-2.6-6.1-1 2.9-1.8 4-3.1 6.3zM157.2 180c-1.7 1.3-1 3.9-.2 5.8 2.3-1.4 4.7-3.1 5.8-4 1.6-1.5.3-4.4 0-5.9-2.5 1.7-5.4 3.8-5.6 4.1zM146.5 186.7c-1.8 1-1.1 4.1-.8 5.7 2.5-1 4.9-2.3 6-3.1 1.6-1.3 1.1-3.7.7-5.9-2.6 1.4-5.5 3.1-5.9 3.3zM4.9 95.1c0-.7.2-2.4.2-5 0-3-3.8-4.3-4-4.3-.3 2.1-.7 3.8-.7 4.4-.4 4.2 4.3 5.2 4.5 4.9zM140.3 189.7c-2.8 1-5.7 2.1-6 2.3-1.5 1-2.7 2.8-2.3 6 2.6-.7 5.4-1.8 6.7-2.4 1.7-.5 2.7-3.4 1.6-5.9zM4.8 106.7c-.1-1.5-.3-2.9-.3-5.6C4.2 98 .3 97.8 0 98c0 2.2 0 5.3.1 5.8.8 3 4.9 3 4.7 2.9zM6.4 118.7c-.3-1.4-.8-2.7-1-5.5-.9-3-5.1-3.3-5.1-3.1.3 2.1.2 4.6.8 5.6 1 3 5 3.3 5.3 3zM8.7 129.4c-.5-1.4-.8-2.3-1.4-5-1.1-2.9-5.3-2.7-5.4-2.4.5 2.1 1.2 4.7 1.5 5.2 2 3.4 5.3 2.2 5.3 2.2zM12.8 140c-.6-1.3-1.1-2.5-2.3-5.1C9 132.2 5 133 5 133.3c.7 2 1.3 3.9 2.1 5 1.5 2.4 5.4 2 5.7 1.7zM15 145.5c-1.9-2.4-5-1-5.4-.5 1.4 2.4 1.7 3.6 2.5 4.9 1.9 2.1 5 .6 5.6.3-1.4-2.5-1.9-3.6-2.7-4.7zM21.5 155.8c-1.8-2.4-5.6-.4-5.7-.2.5 1.1 2.1 3.4 2.9 4.5 2.2 2.1 5.7 0 5.7 0-.9-1.2-1.3-1.9-2.9-4.3zM28.9 165.6c-2.1-2.3-5.6.4-5.6.7 1.5 1.8 2.5 3.5 3.9 4.6 2.3 1.8 5.6-1.4 5.6-1.4-1-1.1-2.6-2.5-3.9-3.9zM38.1 174.6c-2.9-2.4-6.2.9-6.2.9 1.4 1.4 3 2.7 4.1 3.6 2.2 1.8 5.9-1.4 5.9-1.4-1.3-.9-2.5-2-3.8-3.1zM41.8 183.8c1.6 1.4 2.9 2.1 4.6 2.9 2.6 1.2 5.3-2 5.3-2-1.2-.8-2.4-1.4-4.7-3.1-3.2-1-4.9 1.7-5.2 2.2zM63 190.3c-1.4-.4-2.9-1.1-5.5-2.4-2.7-1.1-5.5 1.9-5.5 2.1 1.7 1.1 1.9 1.5 4.8 2.8 2.8 1.2 6.3-2.4 6.2-2.5zM75 194.8c-1.4-.5-3.7-1-6.2-2.3-2.5-1.5-5.2 2.1-5.6 2.7 2.3 1.1 3.7 1.7 6.4 2.3 2.6 1.1 5.3-2.4 5.4-2.7zM82.1 196.3c-3-.9-6.2 2.7-6.2 3 3 1.9 10.8 1.3 11.3 1.1 4.1-1.9 3.8-3.9 3.5-5.1-2.1 1.4-6.6 1.8-8.6 1zM95.4 194c-2.8 1-2.2 4.9-2.2 4.9 2.7-.6 5.2-1.2 6.8-2 2.4-1.2 1.6-3.9 1.7-6.2-2 1.3-2.7 2-6.3 3.3zM101.2 206.5c-3.6 2.5-6.9 4.4-11.3 6-1.7.6-2.1 1.9-2.2 5.1 3-.8 6.9-1.8 8.1-2.5 3.6-1.8 9.7-4.9 5.4-8.6zM128 194.9c-1.3-1.5-3.1-1.5-6-1.1 1.7 2 2.8 3.3 2.8 8.8-.2 2.4 1.7 3.7 4.3 4-.1-1.1.1-3.5.2-4.6.1-2.8-.1-5.6-1.3-7.1zM138.8 221.4c-.3-1-1.1-3.2-2.2-3.9-1.1-1-4.5-.8-5.4.9 1.7 1.6 1.9 3.2 2.6 3.7 2.3 1.1 3.7.6 5-.7zM102.3 197.1c1 1 4.2 2.2 6.5 2.6 2.6.4 2.9-3.8 2.9-3.8-2.8-.5-6.6-2.8-9.4 1.2zM113.5 200.1c1.8 2.2 6 1.4 7.8.8 2-.7.9-3.8-.4-3.9-.7-.2-2.4.1-3.3 0-2.7-.3-3.4.1-4.1 3.1zM62 220.2s-2.5 3.2-1.7 5.7l2.2 2.1c.9-.5 4.4-6.1-.5-7.8zM112.5 187.2c-3.2 0-5.7 1.2-6 1.4-2.3.9-2.1 3.8-.9 5.6 1-.6 1.8-.9 4.7-2 2.6-1 1.3-2.8 2.2-5zM115 192.1c2.2-.9 4.3.4 4.4.4 1.6 0 4.2-.4 6.1-1.7-1.6-1.4-3.3-2.6-4.8-2.8-1-.1-4.5-.4-5.7 4.1zM158.8 69.4c-11.4-1-25.5 11.5-25.5 11.5-1.3-3.4 19.9-34.2 4.3-50.1-8.7-8.5-27.1-1-36.4-2h-.2c-9.2 1-27.6-6.4-36.4 2-15.7 15.9 5.6 46.7 4.3 50.1 0 0-14.1-12.4-25.5-11.5-20.8 1.7-19.4 21.1-16.7 26 6.3 15.7-3.6 34.4 16.6 41.8 15.4 4.7 27.5-13.2 34.7-8.3 2.2 1.4 2.3 5 .5 8-2.6 4.3-8.9 7.2-15.7 1.6-.4 9.7 4.7 12.9 10.2 12.9 7.5.1 16.4-6 18.1-12.4-1.8 8.6-7.4 15.5-12 18.8 3.5 1.9 15.6 9.4 16.2 13.2-7.8 4.6-25.7 2.9-29.4-2.6-3.4-4.9-4.5-6.6-7.1-6.5-4.3.2-2.3 5.3-2.6 5.9 4.6-1.2 10 9.6 10.4 10.4 2.1-4.9 19.7.1 20.3.6 4.5-2.5 10.7-3.5 14.1-3.5 3.5.1 9.6 1 14.1 3.5.6-.5 18.1-5.5 20.3-.6.3-.8 5.8-11.5 10.4-10.4-.3-.6 1.6-5.7-2.6-5.9-2.6-.1-3.7 1.5-7.1 6.5-3.7 5.5-21.6 7.2-29.4 2.6.6-3.8 12.7-11.3 16.2-13.2-4.6-3.3-10.2-10.2-12-18.8 1.7 6.3 10.6 12.4 18.1 12.4 5.5-.1 10.7-3.3 10.3-12.9-6.9 5.7-13.1 2.7-15.7-1.6-1.8-3-1.6-6.6.5-8 7.2-4.8 19.3 13.1 34.7 8.3 20.1-7.4 10.3-26.1 16.6-41.8 2.7-4.9 4.1-24.3-16.6-26zm-57.7-39.6c3.6 10.8 30.5 18.9 28.2 42.2-1.7 16.8-20.9 32.1-20.9 45.9h-3.5c-.1-.2-.1-.3-.2-.6-2-7.7-3.3-55.1-3.6-64.4-.2 9.3-1.6 56.7-3.6 64.4 0 .2-.1.4-.2.6h-3.5c0-13.8-19.3-29-20.9-45.9-2.3-23.3 24.6-31.4 28.2-42.2zM65.6 104c-7.8-.1-15.3 6.7-10.5 18.3-24.9-3.4-32.3-37.3-9.9-43.4 25-6.8 46.8 28.3 46.8 39-4.4.1-8.1.4-10.9.9-.9-8.4-8.3-14.6-15.5-14.8zm-2 36.5c4 6 20.4 2.3 17.3-10.9 2.9.5 6.5.6 11 .7.1 18.7-27.2 27.2-28.3 10.2zm56.4 17.3c-10.9 5.6-18.7 16.5-19 16.9-.3-.4-8.1-11.3-19-16.9 8.3-5.4 11.8-19.7 11.7-27.6h5.1c1.5 3 2.1 14.1 2.3 18.1.1-4 .7-15.1 2.3-18.1h5.1c-.2 7.9 3.2 22.2 11.5 27.6zm18.5-17.3c-1 17.1-28.3 8.6-28.3-10.3 4.5 0 8.1-.2 11-.7-3.1 13.2 13.3 17 17.3 11zm-37.4-11.9c-13.3 0-25.8.4-25.4-4.6-.4-4.4 12.1-4.6 25.3-4.6h.1c13.3 0 25.7.2 25.3 4.6.4 5.1-12 4.7-25.3 4.6zm45.9-6.3c4.8-11.6-2.7-18.4-10.5-18.3-7.2.1-14.6 6.3-15.5 14.8-2.9-.6-6.6-.8-10.9-.9 0-10.7 21.8-45.8 46.8-39 22.4 6.1 15 40-9.9 43.4z" class="st0"></path><path d="m50.9 89.6-2.7 2-3.4-1.1 1.1 3.5-2.2 2.7 3.5.2 1.8 2.9 1.4-3.3 3.4-1-2.7-2.3zM101.1 122.7c-10.9 0-19.6.6-19.6 1.3 0 .7 8.7 1.3 19.6 1.3h.1c10.8 0 19.6-.6 19.6-1.3-.2-.7-8.9-1.3-19.7-1.3zM157.3 90.5l-3.4 1.1-2.7-2-.2 3.6-2.7 2.3 3.4 1 1.4 3.3 1.8-2.9 3.6-.2-2.3-2.7zM246.8 90h13.3v14.4l-1 .3c-5.5 1.8-10.2 2.8-14.2 2.8-8.2 0-14.9-2.5-20.1-7.5-5.2-5-7.8-11.4-7.8-19.3 0-7.5 2.6-13.8 7.8-19 5.2-5.1 11.5-7.8 19.1-7.8 8.2 0 16.4 2.4 24.6 7.2V51c-5.3-2.2-9.8-3.8-13.3-4.7-3.5-.8-7.2-1.3-11.1-1.3-10.7 0-19.6 3.5-26.7 10.4-7.1 6.9-10.7 15.5-10.7 25.8 0 9.8 3.4 18.1 10.3 24.8 6.8 6.7 16 10.1 27.5 10.1 8.4 0 16.9-1.9 25.4-5.6V81.2h-23.2V90zM332.8 85.3c0 5.4-.4 9.3-1.3 11.6-.9 2.2-2.2 4.1-4.2 5.8-3.7 3-8.5 4.6-14.4 4.6-4.1 0-7.7-.7-10.7-2.3-3.1-1.6-5.3-3.6-6.8-6.1-1.4-2.5-2.2-7.1-2.2-13.6V46h-10v39.2c0 5.6.4 9.7 1.1 12.3.8 2.6 1.7 4.8 2.8 6.7 1.2 1.8 2.5 3.4 4.2 4.9 5.4 4.7 12.7 7 21.7 7 8.8 0 16-2.4 21.6-7.1 1.6-1.4 3-3 4.1-4.8 1.2-1.9 2.1-4.1 2.9-6.8.7-2.7 1.2-6.7 1.2-12V46h-10v39.3zM356.8 46h9.9v69.3h-9.9zM375.6 26h-10.1l-6.6 14.8h5.5zM411.3 45.6h-7l-29.8 69.7h10.2l8.7-20.5H423l9.2 20.5h10.1l-31-69.7zm-14 40.3 10.4-25.1 11.2 25.1h-21.6zM459.7 81.7l7.6 4.6c6.1 3.8 9.1 7.8 9.1 12 0 2.7-1 4.8-3.1 6.5-2.1 1.7-4.7 2.6-7.8 2.6-7 0-13.2-3.4-18.5-10.2v12.6c5.6 4.2 11.8 6.3 18.6 6.3 6 0 10.8-1.7 14.5-5.2 3.8-3.5 5.6-8 5.6-13.6 0-7.8-4.2-14.2-12.7-19.2l-7.5-4.5c-3.4-2-5.9-3.9-7.4-5.7-1.5-1.8-2.3-3.8-2.3-5.8 0-2.3 1.1-4.2 3.1-5.7 2.1-1.5 4.8-2.2 8-2.2 5.7 0 11.1 2.4 16.1 7.2V50c-4.9-3.2-10.2-4.9-15.9-4.9-6.1 0-11 1.7-14.7 5.1-3.8 3.4-5.7 7.8-5.7 13.3 0 3.7 1 6.9 3 9.7 1.9 2.7 5.2 5.6 10 8.5zM527.7 115.3h10.2V78.6L563.5 46h-12.1l-18.8 23.8L514.1 46h-12l25.6 32.6zM609.2 81.7l7.5 4.6c6.1 3.8 9.1 7.8 9.1 12 0 2.7-1.1 4.8-3.1 6.5-2 1.7-4.6 2.6-7.8 2.6-7 0-13.2-3.4-18.6-10.2v12.6c5.6 4.2 11.8 6.3 18.7 6.3 5.9 0 10.8-1.7 14.5-5.2 3.7-3.5 5.5-8 5.5-13.6 0-7.8-4.2-14.2-12.7-19.2l-7.6-4.5c-3.4-2-5.9-3.9-7.4-5.7-1.5-1.8-2.3-3.8-2.3-5.8 0-2.3 1-4.2 3.1-5.7s4.7-2.2 8-2.2c5.8 0 11.2 2.4 16.1 7.2V50c-4.8-3.2-10.1-4.9-15.9-4.9-6.1 0-11 1.7-14.8 5.1-3.8 3.4-5.7 7.8-5.7 13.3 0 3.7 1 6.9 3 9.7 2.3 2.7 5.7 5.6 10.4 8.5zM661.5 99.6c-5.1-4.9-7.8-11.2-7.8-18.8 0-7.5 2.7-13.8 7.9-18.8 5.3-5 11.8-7.5 19.8-7.5 7.7 0 15.7 2.3 23.8 7V50.8c-8.9-3.8-17-5.7-24.3-5.7-10.6 0-19.4 3.5-26.6 10.4-7.2 6.9-10.7 15.4-10.7 25.4 0 6.4 1.5 12.2 4.7 17.8 3.2 5.4 7.4 9.7 12.8 12.8 5.4 3.1 12 4.7 19.7 4.7 9.5 0 17.9-2 25.2-5.9V99.2c-8 5.1-16.2 7.8-24.6 7.8-8.1 0-14.7-2.5-19.9-7.4zM779 55.1c-7.1-6.8-16-10.1-26.8-10.1-10.7 0-19.5 3.3-26.5 10.1s-10.5 15.3-10.5 25.7c0 10.1 3.5 18.5 10.4 25.2 7 6.7 15.7 10.1 26.1 10.1 10.9 0 20-3.3 27.2-10.1 7.2-6.7 10.7-15.1 10.7-25.4.1-10.2-3.4-18.7-10.6-25.5zm-7.3 44.3c-5.1 5-11.6 7.5-19.4 7.5-7.7 0-14.1-2.5-19.2-7.5s-7.7-11.2-7.7-18.6c0-7.7 2.6-14.1 7.7-19 5.1-5 11.6-7.5 19.5-7.5 7.6 0 13.9 2.5 19.1 7.5 5.2 5 7.7 11.2 7.7 18.5 0 7.7-2.5 14-7.7 19.1zM850.2 85.3c0 5.4-.4 9.3-1.3 11.6-.9 2.2-2.2 4.1-4.2 5.8-3.7 3-8.5 4.6-14.4 4.6-4.1 0-7.7-.7-10.7-2.3-3.1-1.6-5.3-3.6-6.8-6.1-1.4-2.5-2.2-7.1-2.2-13.6V46h-10v39.2c0 5.6.4 9.7 1.1 12.3.8 2.6 1.7 4.8 2.8 6.7 1.2 1.8 2.5 3.4 4.2 4.9 5.4 4.7 12.7 7 21.7 7 8.8 0 16-2.4 21.6-7.1 1.6-1.4 3-3 4.1-4.8 1.2-1.9 2.1-4.1 2.9-6.8.7-2.7 1.2-6.7 1.2-12V46h-10v39.3zM868.1 54.7h23.8v60.6h9.9V54.7H926v-8.8h-57.9zM958.4 78.1l-7.5-4.5c-3.4-2-5.9-3.9-7.4-5.7-1.5-1.8-2.3-3.8-2.3-5.8 0-2.3 1.1-4.2 3.1-5.7 2.1-1.5 4.8-2.2 8-2.2 5.7 0 11.1 2.4 16.1 7.2V50c-4.9-3.2-10.2-4.9-15.9-4.9-6.1 0-11 1.7-14.7 5.1-3.8 3.4-5.7 7.8-5.7 13.3 0 3.7 1 6.9 3 9.7 2 2.8 5.4 5.6 10.1 8.5l7.6 4.6c6.1 3.8 9.1 7.8 9.1 12 0 2.7-1 4.8-3.1 6.5-2.1 1.7-4.7 2.6-7.8 2.6-7 0-13.2-3.4-18.5-10.2v12.6c5.6 4.2 11.8 6.3 18.6 6.3 6 0 10.8-1.7 14.5-5.2 3.8-3.5 5.6-8 5.6-13.6-.1-7.8-4.3-14.2-12.8-19.2zM455.8 187.3c-5.2-4.9-7.8-11.2-7.8-18.8 0-7.5 2.6-13.8 7.9-18.8 5.3-5 11.8-7.5 19.8-7.5 7.8 0 15.7 2.3 23.8 7v-10.7c-8.9-3.8-17-5.7-24.3-5.7-10.5 0-19.4 3.5-26.6 10.4-7.2 6.9-10.8 15.4-10.8 25.4 0 6.4 1.5 12.2 4.7 17.8 3.1 5.4 7.4 9.7 12.8 12.8 5.4 3.1 12 4.7 19.7 4.7 9.6 0 17.9-2 25.2-5.9v-10.9c-8 5.1-16.2 7.8-24.6 7.8-8-.2-14.6-2.7-19.8-7.6zM561.4 163.6h-38.9v-29.9h-9.9V203h9.9v-30.2h38.9V203h9.9v-69.3h-9.9zM586.8 133.7h9.9V203h-9.9zM622.2 133.7h-10V203h41.2v-9h-31.2zM672 172.5h28.4v-8.9H672v-21.1h29.4v-8.8h-39.3v69.2h40.2v-8.8H672z" class="st0"></path></svg>