<svg xmlns="http://www.w3.org/2000/svg" viewBox="0 0 32 32"><g data-name="Layer 4"><path fill="#edbe9d" d="M14 22.73h3.51a2.14 2.14 0 0 0 2.14-2.14 2.14 2.14 0 0 0-2.14-2.14h-9l-2.9 2.31v6.87l2.91 1.92h15.71l5.61-6.46a2.51 2.51 0 0 0-.27-3.55 2.51 2.51 0 0 0-3.14-.09l-3 2.25L20 20.59"></path><path d="M24.23 30.55H8.52a1 1 0 0 1-.52-.17l-2.94-1.92a1 1 0 0 1-.45-.83v-6.87A1 1 0 0 1 5 20l2.9-2.33a1 1 0 0 1 .62-.22h9a3.14 3.14 0 0 1 3 2.25l2.79.88 2.55-1.93a3.53 3.53 0 0 1 4.39.12 3.51 3.51 0 0 1 .38 5L25 30.2a1 1 0 0 1-.77.35Zm-15.41-2h15l5.31-6.12a1.51 1.51 0 0 0-.16-2.14 1.51 1.51 0 0 0-1.97-.05l-3 2.25a1 1 0 0 1-.9.16l-2.79-.87a3.14 3.14 0 0 1-2.91 2H14a1 1 0 1 1 0-2h3.51a1.14 1.14 0 0 0 0-2.27H8.87l-2.26 1.73v5.85Z"></path><path fill="#5eadef" d="M5.61 17.47v13.05H1.54V17.47z"></path><path d="M5.61 31.52H1.54a1 1 0 0 1-1-1v-13a1 1 0 0 1 1-1h4.07a1 1 0 0 1 1 1v13a1 1 0 0 1-1 1Zm-3.07-2h2.07v-11H2.54Z"></path><path fill="#f9ce55" d="m23 18.34-3.27-3.12a7.15 7.15 0 1 1 3.14-2.44Z"></path><path d="M23 19.34a1 1 0 0 1-.69-.28l-2.83-2.69a8.15 8.15 0 1 1 4.39-3.29l.13 5.24a1 1 0 0 1-1 1zm-3.28-5.12a1 1 0 0 1 .69.28L21.9 16l-.08-3.14a1 1 0 0 1 .18-.66 6.12 6.12 0 1 0-6.79 2.25 6 6 0 0 0 4.1-.15 1 1 0 0 1 .37-.07zM5.71 8a1 1 0 0 1-1-1V4.6a1 1 0 0 1 2 0V7a1 1 0 0 1-1 1z"></path><path d="M6.9 6.79H4.53a1 1 0 0 1 0-2H6.9a1 1 0 0 1 0 2zm22.37 8.86a1 1 0 0 1-1-1v-2.37a1 1 0 1 1 2 0v2.38a1 1 0 0 1-1 .99z"></path><path d="M30.46 14.46h-2.38a1 1 0 0 1 0-2h2.38a1 1 0 0 1 0 2Z"></path></g></svg>