<?xml version="1.0" encoding="UTF-8"?> <svg xmlns="http://www.w3.org/2000/svg" version="1.1" id="Capa_1" x="0" y="0" viewBox="0 0 512 512" style="enable-background:new 0 0 512 512" xml:space="preserve"><style>.st0{fill:#cb3327}</style><path class="st0" d="M358.7 297c11.5.2 19-7.8 20.1-19.1 1.2-11.8.3-23.8.3-35.7h.2c0-12 .7-23.9-.2-35.8-1-12.5-8.4-21.3-21.3-20.7-11.4.5-18.7 8.9-19 20.3-.7 23.8-.8 47.7.1 71.5.4 11.5 8.3 19.3 19.8 19.5zM153.9 223.4c0 42.8-.2 40.1 43.8 36.1 39.3-3.6 79.4-23.6 120.1 2.3 0-58.1-.1-114.2.1-170.3 0-15.4-4.2-29.2-21.4-28.5s-20 15.1-19.8 30.1c.3 36.7.4 73.4-.1 110.1-.1 8.3.2 22.1-9.6 22.1-11.9 0-10.4-12.8-10.5-21.1-.4-47.8-.1-95.6-.2-143.4 0-16.9 3.3-38.9-21.1-38.6-22.2.2-19.8 21.1-19.8 37.3.1 46.1.5 92.2-.3 138.3-.1 9.6.5 27-9.2 27-11.5 0-10.2-18.1-10.5-28.1-1-37.6-.6-75.1-.3-112.7.2-15.7-2.1-31.7-21.1-31.2-18.9.4-20.2 16.8-20.2 32.3.3 46.1.1 92.2.1 138.3z"></path><path class="st0" d="M399.9 286.5c-5.6 22.2-24.4 30.5-40.8 29.5-27.7-1.6-26.9 9.3-50.3 18.4-7 2.7-21 5.4-29.3 7-13 2.5-21.6 5.5-31.7 13.8 18.2 18.9 32 40 38.2 65.1 1.9 7.6 5.6 18.1-6.9 20.9-10.8 2.4-12.2-6.9-14.1-14.2-6.8-25.3-18.6-47.2-45.9-65.4 4.1 14.9 16 32.2-4 31-15-.9-19.3-22.2-24.2-36.1-4.7-13.1 9-14.5 17.3-16.8 25.3-7.2 50.9-13.2 76.3-20.1 14.5-4 25.6-12.4 21.9-29.1-3.5-15.8-15.5-21.2-31.3-19.1-37.1 4.9-74.4 8.9-111.4 14.6-37.3 5.8-54.6 29.2-47.4 67 5.9 30.8 15.1 61 23.6 91.2 9.2 32.8 26.2 47.1 60.3 47.9 42.6 1.1 85.4 1.3 128-.1 37.9-1.2 66.9-25.1 69.8-62 3.4-43.5 1.7-97.3 1.9-143.5z"></path><path d="M419.5 277.9c.3-13.7-19.7-32.8-19.6-60.5.2-44.2-17.1-57.7-61.5-50.3 0-25.7.1-51.3 0-76.8-.2-38.9-20-54.2-59.9-45.6-1.8-21.1-10.9-38.4-32.5-43.3-22.7-5.2-39.8 4.6-49 26.5-2.4 5.8-5.2 5.1-11.1 4.7-38.6-2.4-52.4 11.1-52.4 49.8-.1 57.1-.1 114.3.1 171.4 0 9.5-.6 16.8-10 23.6-29.5 21.7-35.5 52.9-28.6 86.7 5.1 24.8 14.9 48.7 19.8 73.6 7.1 35.9 25.8 74.3 72.7 74.3H338c36.6 0 80.9-37.2 80.6-76.1-.3-67 .4-131.8.9-158zM338.8 206c.3-11.4 7.6-19.8 19-20.3 12.9-.6 20.3 8.2 21.3 20.7.9 11.9.2 23.8.2 35.8h-.2c0 11.9.9 23.9-.3 35.7-1.1 11.3-8.6 19.3-20.1 19.1-11.5-.2-19.4-8-19.8-19.5-.9-23.8-.8-47.7-.1-71.5zM174 52.8c19-.5 21.3 15.5 21.1 31.2-.3 37.6-.7 75.1.3 112.7.3 10-1 28.1 10.5 28.1 9.7 0 9.1-17.4 9.2-27 .8-46.1.4-92.2.3-138.3 0-16.2-2.4-37.1 19.8-37.3 24.4-.3 21.1 21.7 21.1 38.6.1 47.8-.2 95.6.2 143.4.1 8.3-1.4 21.1 10.5 21.1 9.8 0 9.5-13.8 9.6-22.1.5-36.7.4-73.4.1-110.1-.2-15 2.6-29.4 19.8-30.1s21.4 13.1 21.4 28.5c-.2 56.1-.1 112.2-.1 170.3-40.7-25.9-80.8-5.9-120.1-2.3-44 4-43.8 6.7-43.8-36.1 0-46.1.2-92.2-.1-138.3 0-15.5 1.3-31.9 20.2-32.3zM398 430c-2.9 36.9-31.9 60.8-69.8 62-42.6 1.4-85.4 1.2-128 .1-34.1-.8-51.1-15.1-60.3-47.9-8.5-30.2-17.7-60.4-23.6-91.2-7.2-37.8 10.1-61.2 47.4-67 37-5.7 74.3-9.7 111.4-14.6 15.8-2.1 27.8 3.3 31.3 19.1 3.7 16.7-7.4 25.1-21.9 29.1-25.4 6.9-51 12.9-76.3 20.1-8.3 2.3-22 3.7-17.3 16.8 4.9 13.9 9.2 35.2 24.2 36.1 20 1.2 8.1-16.1 4-31 27.3 18.2 39.1 40.1 45.9 65.4 1.9 7.3 3.3 16.6 14.1 14.2 12.5-2.8 8.8-13.3 6.9-20.9-6.2-25.1-20-46.2-38.2-65.1 10.1-8.3 18.7-11.3 31.7-13.8 8.3-1.6 22.3-4.3 29.3-7 23.4-9.1 22.6-20 50.3-18.4 16.4 1 35.2-7.3 40.8-29.5-.2 46.2 1.5 100-1.9 143.5z" style="fill:#020304"></path></svg> 