<svg xmlns="http://www.w3.org/2000/svg" id="Capa_1" x="0" y="0" viewBox="0 0 512 512" style="enable-background:new 0 0 512 512" xml:space="preserve"><style>.st0{fill:none}.st1{fill:#d0cfcf}.st2{fill:#e30613}.st3{fill:#312783}.st4{fill:#fff}.st5{fill:#1d1e1d}.st6,.st7,.st8{fill-rule:evenodd;clip-rule:evenodd;fill:#392760}.st7,.st8{fill:#f9b016}.st8{fill:#fff}.st9{fill:#bcb9b9}.st10{fill:#cb3528}.st11{fill:#6e6d6c}.st12{fill:#222121}.st13{fill:#20201f}.st14{fill:#202020}.st15{fill:#dd3f47}.st16{fill:#48ae4d}.st17{fill:#201f22}.st20{fill:#326436}.st21{fill:#c11722}.st23{fill:#e4af30}.st24{fill:#f9b233}</style><path class="st0" d="M205.3 310.1c.1-.7.1-1.5.2-2.2 0 .7-.1 1.4-.2 2.2zM255.2 106.8c.3-.2.6-.4 1-.5-.3.1-.6.3-1 .5zM356.3 95.2c-18.5-11.2-37-22.5-55.5-33.7 18.4 11.2 36.9 22.5 55.5 33.7zM235.3 459.2c3.9 0 7.9-.1 11.8-.1h17.7-17.7c-3.9 0-7.8.1-11.8.1zM256.2 106.3c0 .1 0 .1 0 0 0 .1 0 0 0 0zM417 61.2c4.7-2.8 9.4-5.8 14.1-8.7 0 0 .2-.1.3-.1-.1.1-.3.1-.3.1-4.7 2.9-9.3 5.9-14.1 8.7zM291.3 132.2c5-2.8 10-5.7 14.9-8.5-5 2.9-10 5.7-14.9 8.5zM255.9 326.9c-16.3 4.1-32.5 8.1-48.8 12.2 16.3-4.1 32.5-8.2 48.8-12.2zM256 167.4c-12.8 3-25.6 6.1-38.4 9.1 12.8-3 25.6-6.1 38.4-9.1l.3-60.8-.3 60.8zM207.7 285.6c16.1-4.1 32.2-8.1 48.3-12.2-16.1 4.1-32.2 8.2-48.3 12.2zM255.9 220.8c-14.5 3.6-29.1 7.2-43.6 10.8 14.5-3.6 29.1-7.2 43.6-10.8zM307.7 320.8c-1-11.7-2.2-23.4-3.3-35.1 1.1 11.6 2.3 23.3 3.3 35.1zM295 176.9c-.2-.2-.4-.3-.5-.5l.5.5zM294.3 176.6l-37.5-9 37.5 9zM255.1 387.4c-2.7-2.5-5.3-5-8-7.5 2.7 2.5 5.4 5 8 7.5zM188.8 38.3c7.5 7.8 15 15.5 22.6 23.3-7.5-7.8-15.1-15.6-22.6-23.3zM379.5 382.8v16.5c0 7.9.1 15.8 0 23.7.1-7.9 0-15.8 0-23.7v-16.5z"></path><path class="st1" d="M207.7 285.6zM101.2 459.5c18.4-.1 36.9-.1 55.3-.1s36.9.1 55.3.1c7.8-.1 15.6-.2 23.4-.2 3.9 0 7.9-.1 11.8-.1 0-26.4 0-52.8-.1-79.2l-40-40.9c-1.3-2.2-3.9-4.4-3.7-6.5.5-7.5 1.2-15 1.9-22.5.1-.7.1-1.5.2-2.2.7-7.4 1.5-14.8 2.2-22.2 1.5-18 3.1-36.1 4.6-54.1 1.7-18.2 3.4-36.3 5.1-54.5-.1-.2-.1-.4-.2-.6.1 0 .2-.1.3-.1 1.1-14.7 2.2-29.4 3.3-44.2-21.7-12.3-43.3-24.7-65-37-25-14.2-50.2-28.4-75.5-42.7-.5 1.2-1.1 2.3-1.6 3.5 1.8 8.7 3.9 17.3 5.4 26 4.3 26.9 8 53.9 12.7 80.7 6.4 36.5 11.5 73.1 9.5 110.4-1.6 29.6-3 59.3-4.4 88.9-1.1 22-2.2 43.9-3.3 65.9-.1 2.5-.9 5.1-1 7.6-.7 15-.7 15-15.9 15-27 0-54 0-81-.1 0 9.6.2 19.2-.2 28.7-.2 5.2 1.1 6.9 6.6 6.8 30.1-.3 60.3-.1 90.4-.1.1-7.5-.1-15.1.4-22.6-.2-1.3 2.2-3.7 3.5-3.7zm31-71.2c7.9-.3 10.5 2.2 9.2 9.6-.1.7 0 1.5 0 2.2 0 14.2 0 14.1 13.9 15.2 1.3.1 3.5 2.3 3.6 3.6 1 13.9.9 13.9-12.6 13.9-22.5 0-22.5 0-22.5-22.7v-2.8c0-3.5.5-7.1-.1-10.5-1.3-7.2 1.8-8.3 8.5-8.5z"></path><path class="st2" d="M131.3 167.8H148v4.8h-16.7z"></path><path class="st3" d="M131.3 162.7h5.4v4.8h-5.4z"></path><path class="st4" d="M137 162.7h11v4.8h-11zM133.6 164.4l.5-.9.4.9 1.1.2-.8.8.1 1-.9-.5-1 .5.3-1.1-.8-.8z"></path><path class="st3" d="M155.7 164.8h1.6v2c-.6.3-1.2.4-1.7.4-.8 0-1.4-.2-1.9-.7-.5-.5-.7-1-.7-1.7s.2-1.3.7-1.8c.5-.5 1.1-.7 1.8-.7.3 0 .5 0 .8.1.2.1.5.2.9.3v.7c-.6-.3-1.1-.5-1.7-.5-.5 0-1 .2-1.3.5-.4.4-.5.8-.5 1.3s.2 1 .5 1.3c.4.3.8.5 1.4.5.3 0 .6-.1 1-.2h.1v-1h-.9v-.5zM161.6 162.4h.7v2.7c0 .4 0 .6-.1.8-.1.2-.1.3-.2.5l-.3.3c-.4.3-.9.5-1.5.5s-1.1-.2-1.5-.5l-.3-.3c-.1-.1-.1-.3-.2-.5 0-.2-.1-.5-.1-.8v-2.7h.7v2.7c0 .4.1.8.2.9.1.2.3.3.5.4.2.1.5.2.7.2.4 0 .7-.1 1-.3.1-.1.2-.2.3-.4.1-.2.1-.4.1-.8v-2.7zM163.3 162.4h.7v4.8h-.7v-4.8zm1.3-1.4-.8 1h-.4l.5-1h.7zM166.5 162.3h.5l2.1 4.8h-.7l-.6-1.4h-2l-.6 1.4h-.7l2-4.8zm1 2.8-.8-1.7-.7 1.7h1.5zM170.9 165.1l-.5-.3c-.3-.2-.6-.4-.7-.6-.1-.2-.2-.4-.2-.7 0-.4.1-.7.4-.9.3-.2.6-.4 1-.4s.8.1 1.1.3v.8c-.3-.3-.7-.5-1.1-.5-.2 0-.4.1-.6.2-.1.1-.2.2-.2.4 0 .1.1.3.2.4.1.1.3.3.5.4l.5.3c.6.3.9.8.9 1.3 0 .4-.1.7-.4.9-.3.2-.6.4-1 .4-.5 0-.9-.1-1.3-.4v-.9c.4.5.8.7 1.3.7.2 0 .4-.1.5-.2.1-.1.2-.3.2-.4 0-.2-.2-.5-.6-.8M176.7 162.4h.8l-1.8 2.2v2.5h-.7v-2.5l-1.7-2.2h.8l1.3 1.6zM181.2 165.1l-.5-.3c-.3-.2-.6-.4-.7-.6-.1-.2-.2-.4-.2-.7 0-.4.1-.7.4-.9.3-.2.6-.4 1-.4s.8.1 1.1.3v.8c-.3-.3-.7-.5-1.1-.5-.2 0-.4.1-.5.2-.1.1-.2.2-.2.4 0 .1.1.3.2.4.1.1.3.3.5.4l.5.3c.6.3.9.8.9 1.3 0 .4-.1.7-.4.9-.3.2-.6.4-1 .4-.5 0-.9-.1-1.3-.4v-.9c.4.5.8.7 1.3.7.2 0 .4-.1.5-.2.1-.1.2-.3.2-.4-.1-.2-.3-.5-.7-.8M187.3 166v.8c-.5.3-1.1.4-1.7.4-.5 0-1-.1-1.4-.3-.4-.2-.7-.5-.9-.9-.2-.4-.3-.8-.3-1.2 0-.7.2-1.3.7-1.7.5-.5 1.1-.7 1.8-.7.5 0 1.1.1 1.7.4v.7c-.6-.3-1.1-.5-1.6-.5s-1 .2-1.4.5c-.4.3-.5.8-.5 1.3s.2 1 .5 1.3c.4.3.8.5 1.4.5.6-.1 1.1-.2 1.7-.6M190.5 162.3c.7 0 1.4.2 1.8.7.5.5.7 1 .7 1.8 0 .7-.2 1.3-.7 1.7-.5.5-1.1.7-1.9.7-.7 0-1.3-.2-1.8-.7-.5-.5-.7-1-.7-1.7s.2-1.3.7-1.8c.5-.5 1.1-.7 1.9-.7m0 .6c-.5 0-1 .2-1.3.5-.3.3-.5.8-.5 1.3s.2.9.5 1.3c.4.3.8.5 1.3.5s1-.2 1.3-.5c.4-.3.5-.8.5-1.3s-.2-.9-.5-1.3c-.3-.3-.8-.5-1.3-.5M197.2 162.4h.7v2.7c0 .4 0 .6-.1.8-.1.2-.1.3-.2.5l-.3.3c-.4.3-.9.5-1.5.5s-1.1-.2-1.5-.5l-.3-.3c-.1-.1-.1-.3-.2-.5 0-.2-.1-.5-.1-.8v-2.7h.7v2.7c0 .4.1.8.2.9.1.2.3.3.5.4.2.1.5.2.7.2.4 0 .7-.1 1-.3.1-.1.2-.2.3-.4.1-.2.1-.4.1-.8v-2.7zM198.4 162.3h4v.7h-1.6v4.1h-.7V163h-1.7zM204.3 165.1l-.5-.3c-.3-.2-.6-.4-.7-.6-.1-.2-.2-.4-.2-.7 0-.4.1-.7.4-.9.3-.2.6-.4 1-.4s.8.1 1.1.3v.8c-.3-.3-.7-.5-1.1-.5-.2 0-.4.1-.6.2-.1.1-.2.2-.2.4 0 .1.1.3.2.4.1.1.3.3.5.4l.5.3c.6.3.9.8.9 1.3 0 .4-.1.7-.4.9-.3.2-.6.4-1 .4-.5 0-.9-.1-1.3-.4v-.9c.4.5.8.7 1.3.7.2 0 .4-.1.5-.2.1-.1.2-.3.2-.4 0-.2-.2-.5-.6-.8"></path><path class="st2" d="M173.1 172v.8c-.5.3-1.1.4-1.7.4-.5 0-1-.1-1.4-.3-.4-.2-.7-.5-.9-.9-.2-.4-.3-.8-.3-1.2 0-.7.2-1.3.7-1.7.5-.5 1.1-.7 1.8-.7.5 0 1.1.1 1.7.4v.7c-.6-.3-1.1-.5-1.6-.5s-1 .2-1.4.5c-.4.3-.5.8-.5 1.3s.2 1 .5 1.3c.4.3.8.5 1.4.5.6 0 1.2-.2 1.7-.6M177.3 168.4h.7v4.8h-.7v-2.1h-2.6v2.1h-.7v-4.8h.7v2h2.6zM179.1 168.4h.7v4.8h-.7zM180.8 168.4h.7v4.1h2.2v.7h-2.9zM184.3 168.4h2.7v.6h-2v1.4h1.9v.7H185v1.4h2v.6h-2.7z"></path><path class="st5" d="M204.8 175.9h-72.7c-1.6 0-3 1.3-3 3V199c0 1.2.7 2.3 1.9 2.7v48.5c0 1.4.6 2.7 1.7 3.6l4.3 3.3c.5.4 1 .6 1.5.7l28.8 6.1c.3.1.7.1 1 .1.3 0 .7 0 1-.1l28.3-6c.9-.2 1.7-.6 2.5-1.1l3.6-2.8c1.3-1 2-2.5 2-4.1v-48.2c1.2-.6 2-1.9 2-3.3v-19.6c0-1.6-1.3-2.9-2.9-2.9zm-73.5 3c0-.4.3-.8.8-.8h72.7c.4 0 .7.3.7.7v19.6c0 .7-.5 1.3-1.2 1.5l-34.3 8.4c-.6.1-1.1.1-1.7 0l-36.5-8.5c-.3-.1-.6-.4-.6-.7v-20.2zm72.2 71c0 .9-.4 1.8-1.2 2.4l-3.6 2.8c-.5.4-1 .6-1.6.7l-28.3 6c-.4.1-.7.1-1.1 0l-28.8-6.1c-.2 0-.5-.2-.6-.3l-4.3-3.3c-.6-.4-.9-1.1-.9-1.8v-47.4l34.4 8c1.3.3 2.6.3 3.8 0l32.2-8v47z"></path><path class="st1" d="M356.3 95.2zM512 480.8c-.3-10.1-.2-20.2-.2-30.4-30.5 0-61 0-91.5.2-4.5 0-5.4-1.5-5.5-5.7-1.3-33-2.8-65.9-4.4-98.9-1-21.2-2.2-42.4-3.2-63.7-.5-11.4-.5-22.8-1.2-34.1-1.6-26.3 4.5-51.7 8.4-77.4 4.5-29.6 9.1-59.2 13.8-88.8 1.4-8.7 3.6-17.3 5.4-26-.6-1.1-1.1-2.3-1.7-3.4l-.3-.3.3.3c-.1-.1-.3-.2-.4-.2-.1.1-.3.1-.3.1-4.7 2.9-9.4 5.9-14.1 8.7-1.6.9-3.2 1.9-4.8 2.8-18.6 10.5-37.3 20.8-56 31.2l-50.1 28.5c-5 2.8-10 5.7-14.9 8.5 1.1 14.7 2.1 29.5 3.2 44.2.2.2.4.3.5.5 0 0-.1.2-.2.3 1.7 18.1 3.3 36.2 5 54.3 1.5 18 3.1 36.1 4.6 54.1 1.1 11.7 2.3 23.4 3.3 35.1.3 3.9.7 7.8.9 11.7 0 .3 0 .5-.1.8-.4 1.9-2.4 3.8-3.5 5.8-13.5 13.8-27 27.6-40.4 41.3l.3 78.7c11.8.1 23.5.2 35.3.4 36.9-.1 73.8-.2 110.7 0 1.3 0 3.8 2.4 3.9 3.8.4 7.5.3 15.1.4 22.6 30.5 0 61-.1 91.5 0 3.7.1 5.4-.7 5.3-5zm-195.7-47.9c-10.2 1.5-6.5-5.9-7.4-10.7-1.6-8.9 4.5-7 10.2-7 9.1-2.8 6.9 4.3 7.7 10 1.3 9.9-5.4 6.9-10.5 7.7zm63.2-9.8c-.1 6.2-3.4 9.6-9.6 9.7-7 .1-14 .3-20.9-.2-1.7-.1-3.2-3-4.8-4.7-.2-.2 0-.7 0-1.1 0-11.7 0-11.9 11.7-11.6 4.9.1 6.2-1.2 6.1-6.1-.4-10.8.1-21.7-.2-32.5-.1-4.5 1-6 5.7-5.9 12.1.3 12.1.1 12.1 12v16.5c-.1 8.1 0 16-.1 23.9z"></path><path class="st6" d="M356.5 242.8c-.2.2 0 .6.1.8.5-.5.7-.6.7-.7.1-.2-.1-.6-.1-.8-.4.3-.7.7-.7.7M357.8 241.3c-.2.3 0 .8.1 1 .3-.3.5-.7.6-.8.1-.4-.1-.6-.2-.8-.2.2-.5.5-.5.6M339.5 222.7c.2-.3 0-.5-.1-.7-.3.3-.6.4-.6.6-.1.2-.1.4.1.6.2-.2.6-.4.6-.5M338.4 223.7c.1-.3 0-.5-.1-.7-.3.3-.6.6-.6.7 0 .2 0 .3.2.6.2-.3.4-.6.5-.6M337.4 224.7c.1-.2 0-.3-.3-.6-.2.4-.5.6-.6.8 0 .2.2.5.3.6l.6-.8M334.9 229.6c0-.1.2-.5.2-.8.1-.4-.4-.7-.4-.7-.1.3-.3.8-.3.8-.1.4.4.7.5.7M335.4 228.1c0-.1.3-.7.3-.8.1-.5-.4-.6-.4-.6-.2.3-.3.5-.3.7 0 .4.4.7.4.7M336.5 226c.1-.2 0-.3-.3-.7-.2.4-.5.6-.5.8 0 .3.2.5.3.6.2-.3.5-.7.5-.7M334.6 230.9c0-.1 0-.4.1-.7.1-.4-.5-.7-.5-.7 0 .3-.1.7-.1.8-.1.3.5.6.5.6M346.2 245.6c.1.1.5-.1.7-.4-.3-.2-.5-.3-.9-.4-.1 0-.5.2-.5.5.3.2.4.2.7.3M344.3 245.9c.3-.3.7-.4.7-.4.2 0 .4-.4.2-.7 0 0-.4-.1-.9.3-.3.1-.3.8 0 .8M344 247.3c-.1-.3-.1-.7 0-.8-.1-.5-.7.1-.7.1 0 .3 0 .4.1.7 0 .2.5.1.6 0M346.8 247.4c-.3-.1-.6-.2-.7-.2-.3 0-.5 0-.6.6.2 0 .5 0 .8.1 0 0 .3-.1.5-.5M349.8 247.8c.4.1.6-.1.7-.3-.4-.5-1.3-.5-1.9-.4-.3.1-.4.5-.4.8.5-.2 1.2-.1 1.6-.1M344.9 247.2c-.2 0-.9.3-1 .4-.2.1-.3.2-.2.8.1-.1.8-.6.9-.6.3 0 .3-.2.3-.6M348.2 248.1c-.2 0-.4.1-.7.4l.3.2c.4.1.8-.4.8-.4-.2-.1-.3-.2-.4-.2M344.7 248.3c-.2 0-.5.1-.7.3.2.2.5.4.7.4.3 0 .5-.1.7-.6-.1 0-.7-.1-.7-.1M350 248.3c-.1.1-.4.2-.9.1-.4 0-.5.3-.5.5.9.2 1.2.1 1.6 0 .5-.2 0-.6-.2-.6M351.3 247.9c-.2-.2-.7-.1-.9.2.3.2.5.3.8.6.2.2.8-.1.8-.1l-.7-.7M352.1 250l.2.4c.2.1.4 0 .6-.1.1-.6-.6-.4-.8-.3M342.6 248.8c-.2.4.1.8.1.8.2-.3.3-.5.5-.8.2-.2.1-.4 0-.7-.3.3-.5.5-.6.7M340.8 221.8c.2-.2.1-.5 0-.7-.2.2-.6.3-.8.6-.1.2-.1.5.1.6.3-.2.7-.5.7-.5M342.2 221.1c.3-.2.1-.5.1-.7-.2.1-.7.2-.8.5-.1.2-.1.4 0 .6.2-.2.6-.3.7-.4M343.6 220.6c.3-.2.1-.6.1-.7-.2.1-.7.2-.9.4-.1.1-.1.4 0 .6.3-.2.8-.3.8-.3M345.1 220.2c.2-.1.2-.4.2-.6-.2 0-.8.1-.9.3-.2.2-.1.4-.1.6.3-.2.7-.2.8-.3M346.5 220c.3-.1.4-.3.4-.6-.3 0-.7 0-.9.2-.1.1-.3.3-.2.6.3-.1.7-.2.7-.2M348.2 220c.3 0 .5-.4.5-.6-.2 0-.7-.1-.9 0-.2.1-.4.2-.4.6h.8M349.9 220.2c.3 0 .4-.3.5-.5-.4-.1-.8-.2-.9-.1-.2.1-.4.1-.4.5.4 0 .6.1.8.1M352 220.1c-.4-.1-.5-.2-.8-.2-.2 0-.5.2-.5.5.4.1.6.2.7.2.4 0 .5-.3.6-.5M352.9 220.5c-.2-.1-.7.1-.7.4.4.1.7.3.8.3.4 0 .5-.2.6-.4-.3-.2-.6-.3-.7-.3M355.1 221.7c-.3-.2-.5-.3-.7-.4-.2-.1-.7.1-.8.3.4.2.6.3.7.4.4 0 .6-.2.8-.3M355.6 222.8c.3.1.6 0 .8-.2-.2-.1-.4-.2-.5-.4-.2-.2-.7-.2-.9.2.4.2.6.4.6.4M356.9 224c.3.2.5 0 .7-.2l-.6-.6c-.2-.1-.6-.1-.8.2.4.3.6.5.7.6M358 225.2c.3.2.6.1.8 0-.2-.3-.4-.5-.5-.7-.2-.2-.5-.1-.7.1.1.3.3.6.4.6M358.9 226.6c.2.2.5.1.7.1-.2-.3-.3-.6-.4-.7-.2-.2-.6-.2-.7-.1.2.3.4.7.4.7M359.3 227.4c.2.4.3.8.4.9.2.4.6.3.8.2-.1-.3-.2-.6-.3-.8-.2-.3-.5-.3-.9-.3M360.2 229.9c.2.3.5.2.7.2-.1-.4-.2-.7-.2-.8-.1-.2-.5-.3-.7-.4.1.4.2.9.2 1M360.6 231.6c.2.3.4.3.7.3 0-.4-.1-.7-.1-.8-.1-.2-.5-.4-.7-.5 0 .5 0 .9.1 1M361.3 233c-.1-.5-.4-.6-.6-.7v1c.1.3.3.4.6.5v-.8M360.6 234.1c0 .4-.1.9-.1.9 0 .4.4.5.6.6.1-.4.1-.7.1-.9 0-.3-.4-.5-.6-.6M360.4 235.8c-.1.4-.2.8-.2.9-.1.3.3.6.5.7.1-.3.2-.6.2-.8 0-.4-.4-.7-.5-.8M359.6 238.3c-.1.3.1.5.4.7.2-.3.4-.7.4-.9 0-.3-.3-.6-.4-.7-.2.4-.4.8-.4.9M358.8 239.8c-.2.3.2.6.3.7.2-.3.4-.6.4-.8.1-.2-.2-.7-.4-.8 0 .4-.1.6-.3.9M355.1 243.9c-.2.2-.1.5 0 .8.3-.2.6-.4.8-.5.2-.2 0-.6 0-.8-.3.2-.7.5-.8.5M353.7 244.8c-.2.1-.2.6-.1.8.3-.1.7-.3.8-.4.2-.2.1-.5.1-.8l-.8.4M334.4 232.3v-.7c0-.4-.5-.6-.5-.6 0 .3-.1.5-.1.6-.1.6.6.8.6.7M351.7 246.4c.4-.1.7-.2.9-.3.2-.1.4-.5.2-.8-.4.1-.8.3-.8.3-.2.1-.3.3-.3.8M334.4 233.9v-.8c0-.4-.6-.4-.6-.4v.8c.1.4.6.4.6.4M334.6 235.6c0-.2-.1-.4-.1-.7-.1-.4-.7-.4-.7-.4 0 .3 0 .6.1.8.1.2.7.3.7.3M334.9 237c-.1-.2-.1-.3-.2-.7-.2-.4-.7-.4-.7-.3.1.3.2.6.2.7.3.5.7.3.7.3M335.5 238.5c-.1-.2-.2-.3-.3-.7-.2-.4-.7-.3-.7-.2.1.3.2.5.3.7.1.2.6.2.7.2M335.8 239.2c-.3-.3-.7-.1-.7-.1.2.3.2.5.3.7.3.3.7.1.8 0-.2-.3-.3-.5-.4-.6M336.7 240.6c-.2-.3-.8-.1-.8 0 .1.1.3.5.4.6.3.3.8 0 .8 0-.2-.2-.2-.3-.4-.6M337.7 241.9c-.3-.3-.8.1-.8.1.2.2.3.5.5.6.3.2.8-.2.8-.2l-.5-.5M338.9 243.2c-.4-.3-.8.1-.8.1.2.2.4.4.6.5.3.2.8-.2.8-.2-.2-.1-.4-.3-.6-.4M339.4 244.4c.2.2.4.3.6.4.4.2.7-.3.7-.3-.2-.1-.3-.2-.6-.4-.4-.1-.6.2-.7.3M342.3 245.3c-.2-.1-.4-.2-.7-.3-.4-.2-.7.3-.8.3.2.2.3.2.7.4.4.1.8-.4.8-.4M344 245.9c-.2-.1-.5-.1-.8-.3-.3-.2-.7.3-.8.4.3.2.5.2.9.3.3.1.6-.3.7-.4M344.9 246.1c-.4-.1-.9.4-.8.4.4.3 1.5.2 1.5.1.6-.3.5-.5.5-.7-.3.3-.9.3-1.2.2M346.7 245.8c-.4.1-.3.7-.3.7.4-.1.7-.2.9-.3.3-.2.2-.5.2-.8-.2.1-.3.2-.8.4M347.5 247.5c-.5.3-.9.6-1.5.8-.2.1-.3.3-.3.7.4-.1.9-.2 1.1-.3.5-.3 1.3-.7.7-1.2M351.2 245.9c-.2-.2-.4-.2-.8-.1.2.3.4.5.4 1.2 0 .3.2.5.6.5v-.6c0-.4-.1-.8-.2-1M352.7 249.5c0-.1-.2-.4-.3-.5-.2-.1-.6-.1-.7.1.2.2.3.4.4.5.2.2.4.1.6-.1M348.9 246.1c-.4-.1-.9-.4-1.3.2.1.1.6.3.9.3.4 0 .4-.5.4-.5M349.2 246.6c.2.3.8.2 1.1.1.3-.1.1-.5-.1-.5h-.4c-.4 0-.5 0-.6.4M342.2 249.4s-.3.4-.2.8l.3.3c.1-.1.6-.9-.1-1.1M348.1 245.8c.1-.1.2-.1.6-.3.4-.1.2-.4.3-.7-.4 0-.8.2-.8.2-.3.2-.2.6-.1.8M350 245.6c.2 0 .6-.1.8-.2-.2-.2-.4-.4-.7-.4-.1 0-.6 0-.8.6.4-.2.7 0 .7 0"></path><path class="st7" d="M357.6 232.4c-.9 2.1.5 4.7-2.3 5.7-2.1.6-3.7-1.8-4.7-1.1-.3.2-.3.7-.1 1.1.4.6 1.2 1 2.1.2.1 1.3-.6 1.8-1.4 1.8-1 0-2.2-.8-2.5-1.7v-.2.2c.2 1.2 1 2.1 1.6 2.6-.5.3-2.1 1.3-2.2 1.8 1.1.6 3.5.4 4-.4.5-.7.6-.9 1-.9.6 0 .3.7.4.8-.6-.2-1.4 1.3-1.4 1.4-.3-.7-2.7 0-2.8.1-.6-.3-1.5-.5-1.9-.5-.5 0-1.3.1-1.9.5-.1-.1-2.5-.8-2.8-.1 0-.1-.8-1.6-1.4-1.4 0-.1-.2-.8.4-.8.3 0 .5.2 1 .9.5.8 2.9 1 4 .4-.1-.5-1.7-1.5-2.2-1.8.6-.4 1.4-1.4 1.6-2.6v-.2.2c-.2.9-1.4 1.7-2.5 1.7-.7 0-1.4-.4-1.4-1.8.9.8 1.8.4 2.1-.2.2-.4.2-.9-.1-1.1-1-.7-2.6 1.8-4.7 1.1-2.7-1-1.4-3.6-2.3-5.7-.4-.7-.6-3.3 2.3-3.6 1.6-.1 3.5 1.6 3.5 1.6.2-.5-2.7-4.7-.6-6.8 1.2-1.2 3.7-.1 5-.3 1.3.1 3.8-.9 5 .3 2.1 2.2-.8 6.4-.6 6.8 0 0 1.9-1.7 3.5-1.6 2.9.3 2.7 2.9 2.3 3.6M347.9 237"></path><path class="st6" d="M346.3 237.1c0 2.6-3.7 3.7-3.9 1.4.5.8 2.8.3 2.4-1.5.4.1.9.1 1.5.1M346.3 235.4c-.6 0-1.1.1-1.5.1-.1-1.2-1.1-2-2.1-2-1.1 0-2.1.9-1.4 2.5-3.4-.5-4.4-5.1-1.3-5.9 3.3-.9 6.3 3.9 6.3 5.3"></path><path class="st7" d="M348.9 238.3v-.2c-.1.1-.1.2 0 .2"></path><path class="st8" d="m341.1 232.4-.4-.3v-.5l-.4.3-.4-.2.1.5-.3.3.5.1.2.4.2-.5z"></path><path class="st6" d="M351 236.3c0 .7-1.6.6-3.4.6-1.8 0-3.5.1-3.5-.6 0-.6 1.6-.6 3.5-.6 1.7-.1 3.4 0 3.4.6"></path><path class="st7" d="M347.1 237"></path><path class="st6" d="M348.7 237.1c0 2.6 3.7 3.7 3.9 1.4-.5.8-2.8.3-2.4-1.5-.3.1-.8.1-1.5.1M348.7 235.4c.6 0 1.1.1 1.5.1.1-1.2 1.1-2 2.1-2 1.1 0 2.1.9 1.4 2.5 3.4-.5 4.4-5.1 1.4-5.9-3.4-.9-6.4 3.9-6.4 5.3"></path><path class="st7" d="M347.9 237"></path><path class="st8" d="M350.2 236.3c0 .1-1.2.2-2.7.2-1.5 0-2.7-.1-2.7-.2s1.2-.2 2.7-.2c1.5 0 2.7.1 2.7.2M348 237.1v3.4h-1v-3.4h1M348 226.4v9.1h-1v-9.1h1z"></path><path class="st7" d="M346.1 238.3v-.2c.1.1.1.2 0 .2"></path><path class="st8" d="m353.9 232.4.4-.3v-.5l.4.3.5-.2-.2.5.3.3-.5.1-.2.4-.2-.5z"></path><path class="st6" d="M351.4 229.2c-.2 2.3-2.9 4.4-2.9 6.2h-.5v-.1c-.3-1-.5-7.5-.5-8.8 0 1.3-.2 7.7-.5 8.8v.1h-.5c0-1.9-2.6-4-2.8-6.2-.3-3.2 3.4-4.3 3.8-5.8.5 1.5 4.2 2.6 3.9 5.8M350.1 240.9c-1.5.8-2.6 2.3-2.6 2.3 0-.1-1.1-1.5-2.6-2.3 1.1-.7 1.6-2.7 1.6-3.8h.7c.2.4.3 1.9.3 2.5 0-.5.1-2.1.3-2.5h.7c0 1.1.5 3 1.6 3.8"></path><path class="st1" d="M431.5 52.3z"></path><path class="st9" d="M414.3 170.8c-3.9 25.7-9.9 51.1-8.4 77.4.7 11.4.7 22.7 1.2 34.1 1 21.2 2.2 42.4 3.2 63.7 1.6 33 3.1 65.9 4.4 98.9.2 4.2 1 5.7 5.5 5.7 30.5-.2 61-.1 91.5-.2-1.5-22.7-2.6-45.4-4.6-68.1-2.9-34.2-6.3-68.3-9.7-102.4-1.2-12.4-1.2-25.3-4.8-37-19.2-62.5-39.4-124.7-59.2-186.9-1.8 8.7-4 17.3-5.4 26-4.6 29.6-9.2 59.2-13.7 88.8z"></path><path class="st10" d="M211.4 61.5c-7.5-7.8-15.1-15.5-22.6-23.3-.7-.8-1.3-1.7-2-2.5 1-.3 1.9-.8 2.9-.8l136.5.3.4-.4V-.3H185.4c0 9.9-.2 19.9.1 29.8.2 4.5-1.4 5.9-5.7 6.5-33.1 5.4-66.1 11-99.1 16.6l-.3-.3-.4.2c25.2 14.2 50.4 28.4 75.6 42.7 18.7-11.2 37.3-22.4 55.8-33.7z"></path><path class="st11" d="M211.9 459.5c-18.4 0-36.9-.1-55.3-.1s-36.9 0-55.3.1c-1.3 0-3.8 2.4-3.9 3.8-.4 7.5-.3 15.1-.4 22.6.1 7.5-.1 15.1.3 22.6.1 1.3 2.2 3.7 3.3 3.7 37.1.1 74.2 0 111.2 0 .1-17.6.1-35.2.1-52.7z"></path><path class="st11" d="M156.6 459.4c18.4 0 36.9.1 55.3.1-18.4-.1-36.9-.1-55.3-.1zM410.8 459.5c-36.9-.1-73.8 0-110.7 0v52.7c37.1.1 74.2.2 111.2 0 1.2 0 3.3-2.4 3.3-3.7.4-7.5.3-15.1.3-22.6-.1-7.5.1-15.1-.4-22.6.1-1.4-2.3-3.8-3.7-3.8z"></path><path class="st5" d="M264.9 459.1h-17.7c-3.9 0-7.9.1-11.8.1-7.8.1-15.6.2-23.4.2v52.7h88.2v-52.7l-35.3-.3z"></path><path class="st5" d="M211.9 459.5c7.8-.1 15.6-.2 23.4-.2-7.8 0-15.6.1-23.4.2z"></path><path class="st12" d="M185.5 29.5c-.4-9.9-.1-19.8-.1-29.8-19.5 4.1-38.5 8.6-55.3 20.7C115.7 31 99.9 39.7 84.8 49.3c-1.5.9-2.6 2.2-4 3.4 33-5.5 66-11.2 99.1-16.6 4.2-.7 5.8-2.1 5.6-6.6zM431.1 52.5s.2-.1.3-.1c-17.6-11.2-35.7-21.8-52.7-33.9-15.8-11.2-34-14.6-52.1-18.7v35.1c34.9 5.8 69.7 11.7 104.5 17.6zM431.8 52.6l-.3-.3h-.1c.2.1.3.2.4.3zM431.5 52.3c-.1 0-.1 0 0 0-.1 0-.1 0 0 0z"></path><path class="st13" d="M256 273.5c-16.1 4.1-32.2 8.1-48.3 12.2-.7 7.4-1.5 14.8-2.2 22.2-.1.7-.1 1.5-.2 2.2-.7 7.5-1.4 15-1.9 22.5-.1 2.1 2.4 4.3 3.7 6.5 16.3-4.1 32.5-8.1 48.8-12.2 16.4 4.1 32.8 8.1 49.1 12.2 1.1-1.9 3.1-3.9 3.5-5.8.1-.3.1-.5.1-.8l-.9-11.7c-1-11.7-2.2-23.4-3.4-35.1-16.1-4.1-32.2-8.2-48.3-12.2z"></path><path class="st13" d="M207.7 285.6c-.7 7.4-1.5 14.8-2.2 22.2.8-7.4 1.5-14.8 2.2-22.2zM203.4 332.6c.5-7.5 1.2-15 1.9-22.5-.7 7.5-1.3 15-1.9 22.5zM305 339c1.1-1.9 3.1-3.9 3.5-5.8-.3 1.9-2.4 3.9-3.5 5.8zM294.3 176.6l-37.5-9c-.3-.1-.5-.1-.8-.2-12.8 3-25.6 6.1-38.4 9.1l.1.3-.3.3c-1.7 18.2-3.4 36.3-5.1 54.5 14.5-3.6 29.1-7.2 43.6-10.8 14.6 3.6 29.2 7.2 43.8 10.7-1.7-18.1-3.3-36.2-5-54.3-.2-.2-.4-.3-.5-.5l.1-.1z"></path><path class="st13" d="M217.4 177.1c-1.7 18.2-3.4 36.3-5.1 54.5 1.7-18.2 3.4-36.4 5.1-54.5zM299.8 231.5c-1.7-18.1-3.3-36.2-5-54.3 1.6 18.1 3.3 36.2 5 54.3z"></path><path class="st14" d="m256.3 106.1-44.9-44.6c-18.5 11.2-37.1 22.5-55.6 33.7 21.7 12.3 43.3 24.7 65 37 11.5-8.5 23-17 34.5-25.4.3-.2.6-.5 1-.7zM255.2 106.8z"></path><path class="st14" d="M211.4 61.5c-18.5 11.2-37.1 22.5-55.6 33.7 18.5-11.2 37.1-22.4 55.6-33.7z"></path><path class="st10" d="M207.7 285.6c16.1-4.1 32.2-8.1 48.3-12.2 0-17.6-.1-35.1-.1-52.7-14.5 3.6-29.1 7.2-43.6 10.8-1.5 18.1-3.1 36.1-4.6 54.1z"></path><path class="st10" d="M207.7 285.6c1.5-18 3.1-36.1 4.6-54.1-1.5 18.1-3.1 36.1-4.6 54.1zM255.9 220.8zM217.6 176.5c12.8-3 25.6-6.1 38.4-9.1l.3-60.8-.1-.1.1-.1v-.1c-.3.2-.6.4-1 .5-11.5 8.5-23 17-34.5 25.4-1.1 14.7-2.2 29.4-3.3 44.2l.1.1z"></path><path class="st10" d="M220.8 132.2c-1.1 14.7-2.2 29.4-3.3 44.2 1.1-14.7 2.2-29.4 3.3-44.2zM255.2 106.8c-11.5 8.5-23 17-34.5 25.4 11.6-8.4 23.1-16.9 34.5-25.4zM255.9 372.7c.1-1.6.1-3.3.1-4.9.1-13.6 0-27.3-.1-40.9-16.3 4.1-32.5 8.1-48.8 12.2l40 40.9c2.7 2.5 5.3 5 8 7.5.3-5 .6-9.9.8-14.8zM255.9 326.9z"></path><path class="st9" d="M255.1 387.4c-2.7-2.5-5.3-5-8-7.5 0 26.4 0 52.8.1 79.2h17.7l-.3-78.7c-3.2 2.3-6.3 4.7-9.5 7zM255.1 387.4z"></path><path class="st11" d="M123.7 407.3v2.8c0 22.7 0 22.7 22.5 22.7 13.6 0 13.7 0 12.6-13.9-.1-1.3-2.2-3.5-3.6-3.6-13.9-1-13.9-.9-13.9-15.2 0-.7-.1-1.5 0-2.2 1.4-7.5-1.3-9.9-9.2-9.6-6.7.3-9.8 1.4-8.6 8.6.6 3.4.2 7 .2 10.4z"></path><path class="st10" d="m217.7 176.8-.1-.3h-.1v-.1c-.1 0-.2.1-.3.1.1.2.1.4.2.6l.3-.3zM217.5 176.5z"></path><path class="st10" d="M217.2 176.5c.1.2.1.4.2.6-.1-.2-.2-.4-.2-.6zM217.5 176.5zM217.5 176.5v-.1.1zM217.5 176.5zM217.5 176.4v.1-.1zM217.5 176.5zM217.5 176.4v.1h.1l-.1-.1zM217.5 176.5v-.1.1zM326.7 34.9l-.4.4c-8.5 8.8-17 17.5-25.5 26.3 18.5 11.2 37 22.5 55.5 33.7 18.7-10.4 37.4-20.7 56-31.2 1.6-.9 3.2-1.8 4.8-2.8 4.7-2.8 9.4-5.8 14.1-8.7-34.9-6-69.7-11.9-104.5-17.7z"></path><path class="st10" d="M356.3 95.2c18.7-10.4 37.4-20.7 56-31.2-18.7 10.5-37.4 20.8-56 31.2zM326.7 34.9l-.5.3z"></path><path class="st12" d="M256.2 106.4zM300.7 61.5c-14.8 15-29.7 29.9-44.5 44.9v.2c11.7 8.6 23.3 17.1 35 25.7 5-2.8 10-5.7 14.9-8.5l50.1-28.5c-18.5-11.3-37-22.6-55.5-33.8zM306.2 123.7l50.1-28.5-50.1 28.5zM256.2 106.4z"></path><path class="st15" d="M299.8 231.5c-14.6-3.6-29.2-7.2-43.8-10.7 0 17.6.1 35.1.1 52.7 16.1 4 32.2 8.1 48.3 12.1-1.6-18-3.1-36-4.6-54.1z"></path><path class="st15" d="M299.8 231.5c1.5 18 3.1 36.1 4.6 54.1-1.6-18-3.1-36-4.6-54.1zM304.3 285.6c-16.1-4-32.2-8.1-48.3-12.1 16.1 4 32.2 8.1 48.3 12.1zM299.8 231.5c-14.6-3.6-29.2-7.2-43.8-10.7 14.5 3.6 29.1 7.1 43.8 10.7zM299.8 231.5zM256.3 106.6l-.3 60.8c.3.1.5.1.8.2l37.5 9 .1-.1c-1.1-14.7-2.1-29.5-3.2-44.2-11.6-8.6-23.3-17.2-34.9-25.7zM294.5 176.4c-1.1-14.7-2.1-29.5-3.2-44.2 1 14.8 2.1 29.5 3.2 44.2z"></path><path class="st15" d="M256 167.4c.3.1.5.1.8.2-.3-.1-.5-.1-.8-.2zM256.3 106.6c0-.1 0-.1 0 0 0-.1 0-.1 0 0 0-.1 0-.1 0 0zM256.2 106.5c.1 0 .1 0 0 0 .1 0 0 0 0 0zM305 339c-16.4-4.1-32.8-8.1-49.1-12.2 0 13.6.2 27.3.1 40.9 0 1.6-.1 3.3-.1 4.9-.2 4.9-.5 9.8-.7 14.7 3.2-2.3 6.3-4.7 9.5-7 13.4-13.7 26.9-27.5 40.3-41.3zM255.1 387.4z"></path><path class="st15" d="M305 339c-13.5 13.8-27 27.6-40.4 41.3 13.5-13.7 27-27.5 40.4-41.3zM305 339c-16.4-4.1-32.8-8.1-49.1-12.2 16.4 4.1 32.8 8.2 49.1 12.2zM305 339zM255.1 387.4c.2-4.9.6-9.8.7-14.7-.1 4.9-.4 9.8-.7 14.7z"></path><path class="st11" d="M379.5 399.3v-16.5c0-12 0-11.7-12.1-12-4.7-.1-5.8 1.3-5.7 5.9.3 10.8-.2 21.7.2 32.5.2 4.9-1.2 6.2-6.1 6.1-11.7-.4-11.8-.1-11.7 11.6 0 .4-.2.9 0 1.1 1.6 1.7 3.1 4.5 4.8 4.7 6.9.5 13.9.3 20.9.2 6.2-.1 9.5-3.5 9.6-9.7.2-8 .1-15.9.1-23.9zM319.1 415.1c-5.7 0-11.8-1.8-10.2 7 .9 4.8-2.8 12.2 7.4 10.7 5.1-.7 11.8 2.2 10.5-7.7-.8-5.7 1.4-12.7-7.7-10z"></path><path class="st15" d="M294.5 176.5s0 .1 0 0c0 .1 0 .1 0 0 0 .1-.1.1-.1.1l-.1.1.5.5c.1-.1.2-.3.2-.3-.2-.2-.3-.3-.5-.4 0-.1 0 0 0 0zM294.5 176.5s0 .1 0 0c0 .1 0 .1 0 0 0 .1 0 0 0 0zM294.5 176.6h-.1.1zM294.5 176.4s0 .1 0 0c0 .1 0 0 0 0zM294.5 176.5s0-.1 0 0c0-.1 0-.1 0 0zM294.5 176.6zM294.5 176.6z"></path><path class="st15" d="M294.5 176.6v-.2l-.1.1c0 .1 0 .1.1.1zM294.5 176.6v-.2.2z"></path><path class="st1" d="m256.3 106.1-.1.2v.1c14.8-15 29.7-29.9 44.5-44.9 8.5-8.8 17-17.5 25.5-26.3l-136.5-.3c-1 0-1.9.5-2.9.8.7.8 1.3 1.8 2 2.5 7.5 7.8 15 15.5 22.6 23.3l44.9 44.6zM256.2 106.3z"></path><path class="st1" d="M326.2 35.2c-8.5 8.8-17 17.5-25.5 26.3 8.5-8.8 17-17.5 25.5-26.3zM256.3 106.5s0-.1 0 0c-.1-.1-.1-.1 0 0zM256.2 106.4c14.8-15 29.7-29.9 44.5-44.9-14.8 15-29.6 29.9-44.5 44.9zM256.3 106.5h-.1.1c-.1 0 0 0 0 0zM256.3 106.5zM256.3 106.5s-.1 0 0 0c-.1 0 0 0 0 0z"></path><path class="st15" d="m256.2 106.3.1-.2c-.4.2-.7.5-1.1.7.4-.2.7-.4 1-.5z"></path><path class="st15" d="M256.3 106.1c-.4.2-.7.5-1.1.7.4-.2.7-.5 1.1-.7z"></path><path class="st9" d="M97.2 435.4c.1-2.5.9-5.1 1-7.6 1.2-22 2.2-43.9 3.3-65.9 1.5-29.6 2.8-59.3 4.4-88.9 2-37.2-3.1-73.8-9.5-110.4-4.7-26.8-8.4-53.8-12.7-80.7-1.4-8.7-3.6-17.3-5.4-26C68.7 86 59 116.1 49.5 146.3L42 170.6c16.3.6 30.1 9.2 35.6 21.1l-11 4.3c-3.7-8.9-14.1-15.4-26.3-15.3h-1.1l-5.1 16.8c-.5 1.7-1.1 3.5-1.7 5.6 5.7-1 11.9 1.8 17.3 8.1 1.5 3 4.5.4 6.1 3.3-.7 1.5.5 1.3 1 2.9 4.3 11.2 22.5 4.9 24.6 16-3.1 10.5-11.5 3.2-17.4 5.6-5.6 11.5-13.9-5.2-26.4 5.6-4.5 3.5-11.1 2.3-16.3.8l-.9 4.2C18 261 8.9 333.1 5 381.3c-1.9 23-3.2 46.1-4.8 69.1 27 0 54 0 81 .1 15.4 0 15.3-.1 16-15.1z"></path><path class="st16" d="M37.7 244.5c12.4-10.9 20.7 5.9 26.4-5.6 5.9-2.3 14.3 5 17.4-5.6-2.1-11.1-20.2-4.8-24.6-16-.5-1.5-1.7-1.4-1-2.9-1.6-2.9-4.7-.3-6.1-3.3-5.4-6.4-11.7-9.2-17.3-8.1-3.1 10.4-7.3 25.7-11.1 42.3 5.2 1.5 11.8 2.7 16.3-.8z"></path><path class="st1" d="m66.6 196 11.3-4.3c-5.5-11.9-19.2-20.4-35.6-21.1-1 3.3-2 6.7-3 10h1.1c12.1 0 22.5 6.5 26.2 15.4z"></path><path class="st0" d="M40.8 180.4c11.9 0 22.5 6.1 26.6 15.2l10.2-3.9c-5.6-11.6-19-19.5-34.4-20.2l-2.7 8.9h.3z"></path><path class="st5" d="M78.8 191.8c-5.7-12.4-19.9-20.7-36-21.4h-.4l-.3 1.1h1.2c15.4.7 28.8 8.6 34.4 20.2l-10.2 3.9c-4-9.1-14.6-15.2-26.6-15.2h-.3l-1.2.1-.3 1.1H41c11.7 0 22 6 25.7 15l.2.5 12.3-4.7-.4-.6z"></path><path class="st0" d="M43.2 171.5H42"></path><path class="st16" d="M154.5 220h29.8v29.8h-29.8z"></path><path class="st17" d="M326.7 156.2h56.8v18.5h-56.8z"></path><path d="M373.7 157.7c-.8 1.1-1.1 2.6-1.4 3.9-.4 2-.7 3.6-2.5 4.2-2.8.9-4.4-2-5.9-4.9-.6-1.2-1.3-2.4-2-3.2h11.8z" style="fill:#302d60"></path><path d="M357.6 157.7c1.6.9 3.1 2.3 4.3 4.6 2 3.7 3.2 6.2 7.7 6.8.8.1 1.4.4 1.7.9-.6-.3-1.8-.6-3.7-.6 0 0-1.6-1.2-5-.6-1.5.2-2.9.3-4.4.2.6-.2 1.2-.6 1.7-1 .7-.6.9-1.3.8-2.2-.2-1.1-.5-2.2-.9-3.2 0-.1 0-.1-.1-.2-1.1-.6-2.4 0-3.2.8-.3.3-.3.5-.6.2-.2-.2-.4-.5-.6-.7-.1-.2-.3-1-.6-.8-.1 0 .1.5-.1.4 0 0-.3-.5-.5-.3-.4.2-.9 1-.5 1.4.2.2.5.2.7.4.2.2.3.4.5.5.3.3.8.8 1.2.8.3 0 .6-.1.8-.3.2-.1.3-.3.6-.5 0 .3.2 1.1.3 1.1.1.1.2-.2.3-.5 0 0 .2.6.3.5.2-.6-.1-.9.2-.8.1.6 0 1.3-.3 1.4-.6.3-3.7-1-4.3-1-1 .1-1.7 1.5-1 2.3l.1.1c-.3-.1-.5-.1-.5-.1-.7-.2-1.4-.3-2.1-.3-.1-.2-.1-.3-.2-.5-.1-.3-.1-.7-.2-1.1.3-.3.7-.5 1.2-.3.3.1.5.3.7.3.1 0 .3-.9.2-1.2-.2-.4-.5-.8-1-.8-.2 0-.4.1-.6.2.4-1.4-.7-2.9-.7-2.9-.9.6-1.2 2.1-.9 3-.1-.1-.3-.1-.4-.2-1-.2-1.4.6-1.3 1.5 0 .2.2.3.4.2.6-.4 1.3 0 1.8.4v.3c0 .4-.1.8-.3 1.2h-.1c-.5 0-1.6.3-2.6.5.7-.7.2-2.2-.9-2.3-.6-.1-3.8 1-4.4.7-.4-.2-.3-1.9.1-2.1 0 0-.4.8-.2 1.4.1.2.3-.4.3-.4 0 .2.1.5.2.5.1-.1.4-.8.4-1.1.3.2.4.4.6.5.2.2.5.3.8.3.5 0 .9-.5 1.3-.7.2-.2.4-.3.6-.5.2-.2.5-.2.8-.3.4-.3-.1-1.1-.4-1.4-.2-.1-.5.3-.5.3-.2.1 0-.4-.1-.4-.3-.1-.6.6-.7.8-.2.2-.4.5-.6.7-.3.3-.3 0-.6-.3-.7-.9-2-1.6-3.1-1-.1 0-.1.1-.1.2-.4 1-.9 2.1-1.1 3.2-.2.9 0 1.6.6 2.2.5.5 1.1 1 1.8 1.2-1.4.1-2.8 0-4.2-.2-1.3-.2-3.4-.4-5.2.7-1.2 0-3.1.3-3.8.7.3-.5.9-.9 1.8-1 4.5-.6 5.8-3.1 7.7-6.8 1.2-2.3 2.7-3.7 4.3-4.6h15.8z" style="fill:#56267b"></path><path class="st20" d="M353.7 168.1c.2.1.4.1.6.2.2.1.5.2.7.3 1 .3 2 .6 3 .7 1.4.1 2.8 0 4.2-.2.9-.1 2.8-.3 3.9.1-2.2 0-5.4.3-7.6.3-1.6 0-3.2-.1-4.8-.5-1.2-.3-2.4-.7-3.1-1.6 1.2.1 2.2.4 3.1.7"></path><path class="st21" d="M349.9 161c0 .6.8 1.8.2 2.6-.2-.1-.2-.8-.3-1.2 0 .4-.1 1.1-.3 1.2-.6-1-.1-2.1.4-2.6M349.2 164.9c-.5-.2-1.1-.1-1.6 0 0 0-.1 0-.1-.1.1-.4.5-1.6 1.4-.9.2.2.3.6.3 1 .1 0 .1 0 0 0M351.9 164.2c0 .1.1.6 0 .8v-.1c-.1-.1-.2-.1-.3-.2-.2-.1-.4-.1-.6-.1-.2 0-.5.2-.8.3-.1 0-.1 0-.1-.1.3-1.4 1.6-1.5 1.8-.6"></path><path class="st20" d="m344.2 168.7.9-.3h.1c1.2-.5 2.4-.9 3.6-.9-.1.2-.2.3-.4.4-.6.5-1.3.8-2.1 1-3.1 1-6.3.8-9.6.5-.7-.1-2.3-.1-3.9 0 1.4-.4 2.8-.4 4.2-.2 1.4.2 2.8.4 4.2.2 1.2-.2 2.1-.4 3-.7"></path><path d="M327.4 158.7c0-.6.5-1 1-1h9c-.7.9-1.3 2-2 3.2-1.5 2.8-3.1 5.8-5.9 4.9-1.3-.4-1.8-1.4-2.2-2.6v-4.5z" style="fill:#6aa7d9"></path><path class="st23" d="M327.4 164.4c.4.8 1 1.5 2 1.8.4.1.8.2 1.2.2 2.5 0 3.9-2.8 5.3-5.3.7-1.3 1.4-2.6 2.2-3.5h1c-1.2 1.2-2.5 2.9-3.7 5.4-1.3 2.7-3.3 4.3-5.4 4.2-1.1-.1-2-.6-2.5-1.1v-1.7z"></path><path class="st23" d="M327.4 166.6c.6.6 1.5 1.1 2.5 1.1h.2c2.2 0 4.3-1.6 5.6-4.4 1.3-2.7 2.7-4.4 4-5.6h1.1c-1.4.9-2.8 2.3-3.8 4.4-1.9 3.6-3.1 6-7.4 6.6-1.1.1-1.9.6-2.2 1.3v-3.4z"></path><path class="st21" d="M371.6 171.1c0 .6-.2 1.4-.5 2.1h-43c-.2-.6-.4-1.1-.5-1.6 0-3 11.5-1.4 14.1-1.5 1.7 0 3.4-.2 5-.8 1.3-.4 2.5-1.1 2.9-2.5 0-.1.1-.2.1-.3.3 1.3 1.1 2.1 2.4 2.6 3.2 1.2 6.8 1 10.1.8 1.7-.1 8.5-.7 9.4 1.2"></path><path class="st23" d="M382.7 172.1c0 .6-.5 1-1 1h-10.1c.4-1.2.6-2.3.3-3.1-.3-.8-1.1-1.3-2.3-1.5-4.2-.6-5.5-3-7.4-6.6-1.1-2.1-2.4-3.4-3.8-4.4h1.1c1.3 1.2 2.7 2.9 4 5.6 1.4 2.8 3.4 4.4 5.6 4.4h.2c1 0 1.8-.4 2.5-1.1.3-.3.4-.7-.3-.2-.6.4-1.3.8-2.2.8-2.1.1-4.1-1.5-5.4-4.2-1.2-2.5-2.5-4.2-3.7-5.4h1c.8.9 1.5 2.1 2.2 3.5 1.3 2.5 2.8 5.3 5.3 5.3.4 0 .7-.1 1.2-.2 2.1-.7 2.5-2.7 2.8-4.6.3-1.4.6-2.9 1.5-4h7.4c.6 0 1 .5 1 1v13.7z"></path><path class="st17" d="m344.2 168.7.9-.3-.9.3"></path><path class="st4" d="M358.7 161.5c-.1 0-.2.1-.3.1-.5 0-1.2-.1-1.5-.5-.3-.5.1-1.5 1.3-1.6.4.1.8.4.9.8.1.3 0 .7-.1.9 0 .1-.2.2-.3.3M340.7 161c-.2-.3-.2-.6-.1-.9.1-.4.5-.7.9-.8 1.2 0 1.7 1 1.3 1.6-.3.5-1 .6-1.5.5-.1 0-.2 0-.3-.1l-.3-.3"></path><path class="st23" d="M333.5 161.6c0 .3-.3.7-.7.6-.3-.1-.3-.4-.4-.6.1-.3.1-.6 0-.9h.1c.3 0 .5-.1.7-.3.4-.5.3-1.1-.1-1.5-.2-.3-.6.1-.4.4.2.2.3.7 0 .9-.3.2-1-.2-1.1-.2-.2-.1-.3-.1-.5-.1.1-.2.1-.5 0-.7-.2-.6-.9-.8-1.5-.6-.3.1-.2.6.1.5.3-.1.8 0 .9.4.1.3-.6.8-.6.8-.2.2-.3.5-.3.8h-.1c-.3-.1-.6-.1-.8 0-.6.2-.8.9-.6 1.4.1.3.6.2.5-.1-.1-.3 0-.7.4-.8.6-.1.8.9 1.3 1-.2.2-.3.5-.2.7.1.6.6.9 1.2 1 .4 0 .4-.5 0-.5-.3 0-.7-.2-.7-.6 0-.4.5-.4.7-.5.1 0 .3-.1.4-.2l.1-.1c.1.1.1.3.2.4.2.2.5.3.8.3.6 0 1-.6 1.1-1.1.1-.8-.4-.8-.5-.4m-1.9.1c-.1.1-.2.1-.3.2-.3.1-.6 0-.9-.3-.1-.2-.2-.6-.1-.8l.1-.1c.3-.3.9-.5 1.3-.2.3.3.3.9-.1 1.2"></path><path class="st23" d="M333.5 161.6c0 .3-.3.7-.7.6-.3-.1-.3-.4-.4-.6.1-.3.1-.6 0-.9h.1c.3 0 .5-.1.7-.3.4-.5.3-1.1-.1-1.5-.2-.3-.6.1-.4.4.2.2.3.7 0 .9-.3.2-1-.2-1.1-.2-.2-.1-.3-.1-.5-.1.1-.2.1-.5 0-.7-.2-.6-.9-.8-1.5-.6-.3.1-.2.6.1.5.3-.1.8 0 .9.4.1.3-.6.8-.6.8-.2.2-.3.5-.3.8h-.1c-.3-.1-.6-.1-.8 0-.6.2-.8.9-.6 1.4.1.3.6.2.5-.1-.1-.3 0-.7.4-.8.6-.1.8.9 1.3 1-.2.2-.3.5-.2.7.1.6.6.9 1.2 1 .4 0 .4-.5 0-.5-.3 0-.7-.2-.7-.6 0-.4.5-.4.7-.5.1 0 .3-.1.4-.2l.1-.1c.1.1.1.3.2.4.2.2.5.3.8.3.6 0 1-.6 1.1-1.1.1-.8-.4-.8-.5-.4m-1.9.1c-.1.1-.2.1-.3.2-.3.1-.6 0-.9-.3-.1-.2-.2-.6-.1-.8l.1-.1c.3-.3.9-.5 1.3-.2.3.3.3.9-.1 1.2"></path><path class="st4" d="M338.1 170.6"></path><path class="st17" d="M355.8 168.4c.3.1.5.2.8.2-.3-.1-.6-.2-.8-.2"></path><path class="st5" d="M382.9 176h-72.7c-1.6 0-3 1.3-3 3v20.1c0 1.2.7 2.3 1.9 2.7v48.5c0 1.4.6 2.7 1.7 3.6l4.3 3.3c.5.4 1 .6 1.5.7l28.8 6.1c.3.1.7.1 1 .1.3 0 .7 0 1-.1l28.3-6c.9-.2 1.7-.6 2.5-1.1l3.6-2.8c1.3-1 2-2.5 2-4.1v-48.2c1.2-.6 2-1.9 2-3.3v-19.6c0-1.6-1.3-2.9-2.9-2.9zm-73.4 3c0-.4.3-.8.8-.8H383c.4 0 .7.3.7.7v19.6c0 .7-.5 1.3-1.2 1.5l-34.3 8.4c-.6.1-1.1.1-1.7 0l-36.5-8.5c-.3-.1-.6-.4-.6-.7V179zm72.2 70.9c0 .9-.4 1.8-1.2 2.4l-3.6 2.8c-.5.4-1 .6-1.6.7l-28.3 6c-.4.1-.7.1-1.1 0l-28.8-6.1c-.2 0-.5-.2-.6-.3l-4.3-3.3c-.6-.4-.9-1.1-.9-1.8v-47.4l34.4 8c1.3.3 2.6.3 3.8 0l32.2-8v47z"></path><path class="st24" d="M280.3 85.5c10.8 12.8 28.3 16.5 39.9 28.2 2.5 2.5 6.4-1.4 3.9-3.9-11.7-11.7-29.2-15.5-39.9-28.2-1-1.1-2.9-1-3.9 0-1.2 1.1-1 2.8 0 3.9zM188.2 112.6c16.6-5.2 32.1-13.4 45.9-24.1 1.2-.9 1-2.9 0-3.9-1.2-1.2-2.7-.9-3.9 0-13 10.1-27.8 17.7-43.5 22.6-3.4 1.1-1.9 6.5 1.5 5.4zM133.5 16.9c.1 4.9 4.5 7.9 8.4 10.1 3.9 2.3 8.3 3.9 12.8 4.7 4.6.9 9.2.8 13.9.7 4.4-.1 9-.1 13 1.9 1.3.7 3 .4 3.8-1 .7-1.2.4-3.1-1-3.8-8.2-4-17-1.9-25.6-2.7-3.9-.4-7.9-1.5-11.5-3.2-1.8-.9-3.6-1.9-5.3-3.1-1.2-.8-2.8-2-2.9-3.6-.2-3.5-5.7-3.6-5.6 0zM193.7 47.1c-4.8 1.1-9.2 3.6-13.7 5.7-4.7 2.1-9.8 3.1-14.9 4-10.4 1.9-20.6 4.4-30.7 7.6-5.6 1.8-11.2 3.7-16.7 5.9-1.4.5-2.4 1.9-1.9 3.4.4 1.3 2 2.5 3.4 1.9 9.8-3.8 19.8-7.1 30.1-9.7 5.1-1.3 10.2-2.4 15.3-3.4 5.2-1 10.4-1.8 15.4-3.7 5.1-2 9.8-5.1 15.2-6.3 3.4-.9 1.9-6.2-1.5-5.4zM315 51.6c19.5 4.7 38.7 10.7 57.4 18 5.3 2.1 10.6 4.2 15.8 6.5 1.4.6 3 .4 3.8-1 .7-1.2.4-3.2-1-3.8-18.8-8.1-38.1-15.1-57.8-20.6-5.5-1.6-11.1-3-16.7-4.4-3.5-.8-4.9 4.5-1.5 5.3zM331.1 36.1c13.3-7.7 29.6-7.1 42.7-15.4 3-1.9.2-6.7-2.8-4.8-13 8.2-29.4 7.7-42.7 15.4-3.1 1.8-.3 6.6 2.8 4.8zM256 32.7c3.1-9.3 4.1-19.4 2.9-29.1-.2-1.5-1.1-2.8-2.8-2.8-1.3 0-3 1.3-2.8 2.8 1.2 9.3.3 18.7-2.7 27.7-1 3.3 4.3 4.7 5.4 1.4zM256.5 145c5.7-.2 11.5.9 16.6 3.3 2.6 1.2 5 2.8 7.3 4.5 2.4 1.9 4.9 3.7 7.9 4.6 3.4 1 4.9-4.3 1.5-5.3-2.8-.8-5-2.8-7.3-4.6-2.4-1.8-5-3.3-7.8-4.6-5.7-2.5-11.9-3.7-18.1-3.5-3.6.2-3.6 5.8-.1 5.6z"></path><path class="st24" d="M290.8 159.7c3.6 0 3.6-5.5 0-5.5-3.5-.1-3.6 5.5 0 5.5zM251.7 140c-10.9 2.1-21.5 5.9-31.3 11.2-3.1 1.7-.3 6.5 2.8 4.8 9.4-5.1 19.5-8.6 30-10.6 1.5-.3 2.3-2 1.9-3.4-.4-1.6-1.9-2.3-3.4-2zM216.7 209.2c5-1.8 10-3.6 14.9-5.4 4.8-1.7 9.6-3.4 14.6-4.6 4.8-1.1 9.7-1.7 14.7-1.3 5.2.4 10.3 1.8 15.3 2.9 5.8 1.4 11.5 2.7 17.3 4.1 3.5.8 4.9-4.5 1.5-5.3-5.2-1.2-10.5-2.5-15.7-3.7-5.3-1.2-10.6-2.6-16-3.3-10.6-1.3-20.8 1.5-30.7 5-5.8 2-11.6 4.1-17.4 6.2-1.4.5-2.3 1.9-1.9 3.4.4 1.4 2 2.5 3.4 2zM300.4 254.8c-23-8.2-48.3-12.2-72.4-7.1-6.7 1.4-13.2 3.6-19.4 6.5-1.4.6-1.7 2.6-1 3.8.8 1.4 2.4 1.6 3.8 1 21.2-9.9 45.7-9.7 68.2-4.6 6.6 1.5 13 3.4 19.3 5.7 1.4.5 3-.6 3.4-1.9.5-1.6-.5-2.9-1.9-3.4zM209.4 314.2c11.6-5 23.3-10 35.7-12.3 12.7-2.4 25.5-.9 37.9 2.3 7.1 1.9 14.1 4.2 21.1 6.7 1.4.5 3-.6 3.4-1.9.4-1.5-.5-2.9-1.9-3.4-12.8-4.6-25.8-8.7-39.3-10-13.3-1.3-26.3 1-38.8 5.4-7.1 2.5-14 5.5-20.8 8.4-1.4.6-1.7 2.6-1 3.8.7 1.4 2.3 1.6 3.7 1z"></path></svg>