<svg xmlns="http://www.w3.org/2000/svg" xmlns:xlink="http://www.w3.org/1999/xlink" viewBox="0,0,256,256" width="512px" height="512px" fill-rule="nonzero"><g fill="none" fill-rule="nonzero" stroke="none" stroke-width="1" stroke-linecap="butt" stroke-linejoin="miter" stroke-miterlimit="10" stroke-dasharray="" stroke-dashoffset="0" font-family="none" font-weight="none" font-size="none" text-anchor="none" style="mix-blend-mode: normal"><g transform="scale(5.33333,5.33333)"><circle cx="24" cy="24" r="20" fill-opacity="0" fill="#fbc02d"></circle><path d="M24.02,44.001l-0.02,-0.002v0.001c-1.392,0 -2.782,-0.145 -4.135,-0.429l0.412,-1.957c1.217,0.256 2.47,0.386 3.723,0.386l0.164,0.014l-0.145,0.872v1.115zM26.108,43.89l-0.209,-1.988c1.248,-0.131 2.485,-0.395 3.678,-0.782l0.619,1.902c-1.325,0.43 -2.701,0.722 -4.088,0.868zM17.842,43.033c-1.324,-0.428 -2.609,-0.999 -3.82,-1.697l0.998,-1.732c1.09,0.628 2.247,1.142 3.438,1.527zM32.149,42.269l-0.814,-1.826c1.142,-0.509 2.236,-1.144 3.253,-1.884l1.178,1.615c-1.13,0.824 -2.347,1.529 -3.617,2.095zM12.266,40.197c-1.13,-0.82 -2.176,-1.76 -3.108,-2.793l1.484,-1.34c0.84,0.93 1.781,1.775 2.798,2.514zM37.39,38.856l-1.34,-1.484c0.932,-0.841 1.779,-1.781 2.518,-2.797l1.617,1.176c-0.821,1.128 -1.761,2.173 -2.795,3.105zM7.838,35.783c-0.823,-1.128 -1.529,-2.343 -2.099,-3.612l1.826,-0.818c0.511,1.143 1.146,2.236 1.888,3.251zM41.325,33.997l-1.73,-1.002c0.629,-1.088 1.144,-2.243 1.53,-3.435l1.902,0.617c-0.429,1.326 -1.002,2.61 -1.702,3.82zM4.986,30.217c-0.432,-1.322 -0.726,-2.697 -0.873,-4.087l1.988,-0.211c0.133,1.25 0.396,2.487 0.785,3.677zM43.567,28.155l-1.957,-0.414c0.259,-1.221 0.39,-2.48 0.39,-3.741l2,-0.079v0.079c0,1.399 -0.146,2.797 -0.433,4.155zM4,24.04v-0.04c0,-1.385 0.143,-2.77 0.424,-4.113l1.957,0.408c-0.253,1.211 -0.381,2.457 -0.381,3.705zM41.894,22.044c-0.135,-1.248 -0.401,-2.485 -0.793,-3.676l1.9,-0.625c0.435,1.324 0.731,2.699 0.881,4.086zM6.863,18.476l-1.904,-0.613c0.428,-1.328 0.998,-2.615 1.694,-3.823l1.732,0.998c-0.625,1.086 -1.137,2.242 -1.522,3.438zM40.419,16.614c-0.515,-1.144 -1.152,-2.236 -1.895,-3.247l1.613,-1.184c0.824,1.124 1.532,2.338 2.105,3.608zM9.41,13.456l-1.619,-1.174c0.818,-1.13 1.757,-2.177 2.789,-3.11l1.342,1.482c-0.929,0.841 -1.775,1.784 -2.512,2.802zM37.334,11.908c-0.843,-0.929 -1.786,-1.772 -2.805,-2.509l1.172,-1.621c1.131,0.817 2.178,1.755 3.113,2.786zM13.382,9.464l-1.182,-1.613c1.126,-0.824 2.341,-1.532 3.61,-2.103l0.82,1.824c-1.142,0.514 -2.235,1.151 -3.248,1.892zM32.948,8.378c-1.092,-0.625 -2.249,-1.137 -3.441,-1.52l0.611,-1.904c1.325,0.426 2.612,0.994 3.824,1.689zM18.387,6.893l-0.623,-1.9c1.325,-0.435 2.7,-0.729 4.087,-0.877l0.211,1.988c-1.247,0.132 -2.483,0.398 -3.675,0.789zM27.687,6.378c-1.208,-0.251 -2.448,-0.378 -3.687,-0.378l-0.059,-2h0.059c1.376,0 2.753,0.141 4.093,0.419z" fill="#8e24aa"></path><path d="M29.014,31.077c-0.572,0.186 -1.286,0.309 -2.061,0.387c0.175,1.215 0.802,3.49 2.692,3.49c1.686,0 2.36,-2.36 2.36,-2.36c-1.302,0.542 -2.621,0.146 -2.991,-1.517z" fill="#8e24aa"></path><path d="M18.986,31.077c0.572,0.186 1.286,0.309 2.061,0.387c-0.175,1.215 -0.802,3.49 -2.692,3.49c-1.686,0 -2.36,-2.36 -2.36,-2.36c1.302,0.542 2.621,0.146 2.991,-1.517z" fill="#8e24aa"></path><path d="M26.037,31.519c-0.458,0.031 -0.926,0.048 -1.389,0.056l-0.648,4.053l-0.648,-4.053c-0.463,-0.008 -0.931,-0.026 -1.389,-0.056c-0.409,2.9 -2.009,4.109 -2.009,4.109c0,0 0.674,1.349 4.046,3.372c3.372,-2.023 4.047,-3.372 4.047,-3.372c0,0 -1.601,-1.209 -2.01,-4.109z" fill="#8e24aa"></path><path d="M24,9.5c-0.674,1.349 -5.395,3.372 -5.395,7.419c0,3.352 2.698,4.721 3.368,10.853c0.449,-0.03 0.908,-0.047 1.361,-0.055l0.666,-12.147l0.666,12.146c0.453,0.008 0.912,0.026 1.361,0.055c0.671,-6.132 3.368,-7.501 3.368,-10.853c0,-4.046 -4.721,-6.069 -5.395,-7.418z" fill="#8e24aa"></path><ellipse cx="24" cy="29.645" rx="5.395" ry="1.012" fill="#8e24aa"></ellipse><path d="M33.692,19.616c-5.805,0 -6.732,7.55 -6.743,8.21c0.775,0.077 1.49,0.2 2.062,0.386c0.762,-3.866 5.356,-3.15 5.356,0.171c2.023,-0.674 3.372,-2.698 3.372,-4.721c0,-2.023 -2.024,-4.046 -4.047,-4.046zM34.963,23.685l-0.282,1.065l-0.674,-0.871l-1.1,0.061l0.62,-0.91l-0.398,-1.027l1.057,0.309l0.854,-0.696l0.033,1.101l0.927,0.597z" fill="#8e24aa"></path><path d="M14.308,19.616c-2.023,0 -4.047,2.023 -4.047,4.047c0,2.024 1.349,4.047 3.372,4.721c0,-3.321 4.593,-4.037 5.356,-0.171c0.573,-0.186 1.287,-0.309 2.062,-0.386c-0.01,-0.66 -0.938,-8.211 -6.743,-8.211zM13.992,23.879l-0.674,0.871l-0.282,-1.065l-1.036,-0.371l0.925,-0.597l0.033,-1.101l0.854,0.696l1.057,-0.309l-0.398,1.027l0.62,0.91z" fill="#8e24aa"></path></g></g></svg>