<svg xmlns="http://www.w3.org/2000/svg" viewBox="0 0 64 64" style="enable-background:new 0 0 64 64" xml:space="preserve"><path style="fill:#f9e3ae" d="M59 17c0 6.08-4.92 11-11 11s-11-4.92-11-11c0-2.22.65-4.28 1.78-6 1.96-3.01 5.36-5 9.22-5s7.26 1.99 9.22 5A10.88 10.88 0 0 1 59 17z"/><circle style="fill:#ed7899" cx="16" cy="17" r="11"/><circle style="fill:#5dbc9d" cx="48" cy="47" r="11"/><circle style="fill:#6fc6f0" cx="16" cy="47" r="11"/><circle style="fill:#72caaf" cx="48" cy="47" r="7"/><path style="fill:#faefde" d="M59 17H37c1-8 7.14-11 11-11s10 3 11 11z"/><path style="fill:#f283a5" d="M16 6v22C9.92 28 5 23.08 5 17S9.92 6 16 6z"/><path style="fill:#85cbf8" d="M8.125 38.875 23.5 55.125s7.983-7.807 0-16.25c-6.5-6.875-15.375 0-15.375 0z"/><path style="fill:#8d6c9f" d="M48 29c6.617 0 12-5.383 12-12S54.617 5 48 5s-12 5.383-12 12 5.383 12 12 12zm-8.647-17h17.294a9.905 9.905 0 0 1 1.302 4H38.051a9.905 9.905 0 0 1 1.302-4zm18.596 6a9.92 9.92 0 0 1-1.302 4H39.353a9.905 9.905 0 0 1-1.302-4h19.898zM48 27a9.964 9.964 0 0 1-7.129-3H55.13A9.968 9.968 0 0 1 48 27zm0-20a9.964 9.964 0 0 1 7.129 3H40.871A9.964 9.964 0 0 1 48 7zM16 5C9.383 5 4 10.383 4 17s5.383 12 12 12 12-5.383 12-12S22.617 5 16 5zm0 22c-4.843 0-8.891-3.461-9.805-8.039A.986.986 0 0 0 7 18v-2a.986.986 0 0 0-.805-.961C7.109 10.461 11.157 7 16 7s8.891 3.461 9.805 8.039A.986.986 0 0 0 25 16v2c0 .483.349.867.805.961C24.891 23.539 20.843 27 16 27zM48 35c-6.617 0-12 5.383-12 12s5.383 12 12 12 12-5.383 12-12-5.383-12-12-12zm0 22c-5.514 0-10-4.486-10-10s4.486-10 10-10 10 4.486 10 10-4.486 10-10 10zM16 35a11.959 11.959 0 0 0-8.453 3.493c-.01.009-.022.012-.032.021s-.012.022-.021.032A11.96 11.96 0 0 0 4 47c0 6.617 5.383 12 12 12 3.295 0 6.283-1.336 8.453-3.493.01-.009.022-.012.032-.021s.012-.022.021-.032A11.96 11.96 0 0 0 28 47c0-6.617-5.383-12-12-12zm10 12c0 .032-.005.064-.005.096L15.904 37.005c.032 0 .064-.005.096-.005 5.514 0 10 4.486 10 10zm-2.262 6.324L9.676 39.262a9.977 9.977 0 0 1 3.745-1.912l12.23 12.23a9.982 9.982 0 0 1-1.913 3.744zm-5.159 3.327L6.35 44.42a9.977 9.977 0 0 1 1.912-3.745l14.063 14.063a9.99 9.99 0 0 1-3.746 1.913zM6 47c0-.032.005-.064.005-.096l10.091 10.091c-.033 0-.064.005-.096.005-5.514 0-10-4.486-10-10z"/><path style="fill:#8d6c9f" d="M11 15a1 1 0 0 0-1 1v2a1 1 0 0 0 2 0v-2a1 1 0 0 0-1-1zM16 15a1 1 0 0 0-1 1v2a1 1 0 0 0 2 0v-2a1 1 0 0 0-1-1zM21 15a1 1 0 0 0-1 1v2a1 1 0 0 0 2 0v-2a1 1 0 0 0-1-1z"/></svg>