<?xml version="1.0" encoding="UTF-8"?> <svg xmlns="http://www.w3.org/2000/svg" viewBox="0 0 381.9 320.4"><path fill="#FBC71F" d="M217.9 191c-.5-1.2.2-1.7.5-2.4 9.6-16.9 7.5-32.2-6.4-45.7-6.1-5.9-12.7-11.3-17.9-18-7-9-12.5-18.6-13.3-30.3-.9-12.8 4.6-23.1 13.5-31.6 4.6-4.4 9.8-8.2 14.7-12.3 1.7-1.4 3.1-2.7 5.1-.1 2.1 2.7-.3 3.3-1.7 4.3-7.5 5.5-14 11.9-16.9 21-4.2 13.3-.9 25 7.7 35.8 8.5 10.7 18.5 20.2 25.8 31.9 1.9 3.1 4 6.2 5.1 9.7 1.2 4 2.7 2.8 4.6.7 6.4-7.1 10.2-15.4 11.9-24.7 1.9-11.1.6-22.1-2.9-32.8-6.4-19.4-13.6-38.3-24.8-55.6-6.7-10.3-14.2-20-22.7-28.9-1.5-1.5-2.7-2.5-5-1.1-15.1 9.5-28.6 20.6-38 36-7.9 12.8-9.4 26-3 40.2 8.1 18 20.4 32.9 33.6 47.2 9.5 10.3 17.5 21.7 22.4 35 4.6 12.3 3.4 23.5-5.6 33.5-5.7 6.3-12 12-18.8 17-1.1.8-2.3 1.8-4.4 1.4 3.1-3.9 6.5-7.3 8.6-11.6 9.4-18.6 5.2-35.6-6-51.8-6.5-9.4-15.4-16.6-22.7-25.4-12.4-14.9-23.5-30.7-27.7-50.1-3.5-16 .5-29.9 11.7-41.8 15.2-16.3 33.8-28.2 52.4-39.9 1.9-1.2 3-.7 4.2.8C224 28 241.9 56.8 252.1 90c3.5 11.4 5.4 23 6.2 34.9.9 12.4-2.1 23.7-8 34.5-6.8 12.6-16.4 22.4-28.5 30-1.1.8-2.3 1.7-3.9 1.6z"></path><path fill="#E32328" d="M286.2 164.2c15.8.4 29.5 5.3 39.7 18.2 11.7 14.9 19.3 31.1 18.4 50.6-.1 2.4-.5 4.7-1.6 6.8-.6 1-1.3 2.1-2.6 2-1.1-.2-1.6-1.4-1.9-2.3-1.2-4.3-1.4-8.7-1.6-13.1-.3-6.4-1.5-12.7-3.5-18.8-5.6-16.4-18-24.4-34.5-26.5-17.8-2.4-34.2 3-50.3 10-5 2.2-9.8 4.8-14 8.4-12.1 10.2-13.1 23.5-3 35.7 8.4 10.2 18.6 18.2 28.9 26.2 11 8.5 22.4 16.6 33.4 25.2 5.7 4.4 10.6 9.7 13.6 16.4 2 4.4 2.8 9 1.2 13.7-1.4 4.1-2.8 4.8-6.7 2.9-7.6-3.7-14.4-8.9-21.1-14-21-15.8-39.3-34.5-53.6-56.4-16.9-25.8-12.6-55.3 16-71.8 13.2-7.9 27.5-13.3 43.2-13.2zM112.7 120.3c17.6 1.4 37.3 6.5 53 21.5 13.3 12.7 18.1 28.7 15.7 46.6-1.4 10-7.7 18.2-13.9 25.9-19.2 24-42.1 44-67.5 61.2-2.4 1.6-3.5 1.4-3.4-1.7 0-5 .3-9.9 2.1-14.6 1.5-3.8 3.8-6.8 7.6-9 18.1-10.4 35.4-22 50.4-36.7 2.5-2.5 4.8-5.1 7.2-7.7 10.6-11.7 11.4-24.6 5.3-38.8-10-23.1-28.9-32-52.2-29.7-8.9.9-18 1.8-25.6 7.3-6.4 4.6-11.8 10-11.9 18.6 0 .5 0 1.1-.2 1.5-1.4 2.9-13.8 9.2-17.1 8.9-1.7-.1-2.2-.9-2.1-2.5.7-26.7 15.3-51.6 52.6-50.8zM271.5 139.1c6.6-9.2 12.6-17.6 17.4-26.7 5.2-9.8 9.2-20.1 11.3-31.1 1.5-8.1-.4-14.7-6.1-20.7-10.6-11.2-23.9-16.8-38.6-19.9-6.1-1.3-12.4-1.7-18.6-1.9-3.4-.1-3.4-.2-4.4-4.3 21.6 1.8 42.5 5.8 60.5 18.7 13.4 9.6 17.8 26.4 12.7 44.4-3.2 11.2-8.8 21.1-16.2 31.1 8.4-2.6 16.1-4.8 23.9-6.1 16.4-2.8 32.5-2.9 47.7 5.1 9.4 5 16.2 12.5 20.3 22.4.6 1.5.7 3 .7 4.6-.9 24.4-11.8 43.6-30.7 58.6-1 .8-1.9 1.5-3.1.6-1.7-1.3-3.3-2.5-3.1-5 .2-3.1 2.3-4.9 4.3-6.7 7.1-6.4 13.9-13 19.3-20.9 2.3-3.4 4.4-6.8 5.9-10.5 5.5-13.8 3.6-22.7-9-33.5-8.3-7.1-18.6-9.7-29.3-10.3-20.6-1.2-40.1 3.6-59.2 10.3-1.7.4-3.2.9-5.7 1.8zM145.6 36.5c-2.2 3.6-4.9 5.6-9 6.7-27.3 7.1-54.3 14.9-79.6 27.7-4.8 2.4-9.4 5.2-13.3 8.9-6.1 5.7-7.3 11.9-3.6 19.4 3.1 6.5 8.1 11.4 13.6 16 5.6 4.7 11.7 8.6 18 12.4.9.5 3.3 1 1.8 2.5-1.6 1.6-2.7 5.8-5.7 3.9-13.2-8.6-25.6-18.3-31.6-33.6-3.3-8.4-1.4-16.3 4.1-23.4 8.6-11.3 20.4-18 33-23.7 20.2-9 41.5-13.5 63.3-16.5 2.6-.4 5.2-.6 7.8-.8.2 0 .6.3 1.2.5zM.6 180.3c8.2 17 24.5 23.7 40.1 31.2 3.8 1.8 7.4 3.8 10.8 6.3.6.5 1.3.9 1.8 1.5 1.9 2.1 3.9 4.6 2.4 7.2-1.6 2.7-4.6 1.3-6.8.4C26.5 218 8.6 204.2 0 180.6c.4.3.7.2.6-.3zM1 171.1c1.6-4.7 5-7.7 8.8-10.3 11.2-7.5 23.9-11.3 36.8-14.2 4.8-1.1 9.7-1.8 14.5-2.8 2.5-.5 2.5.4 2 2.5-1.2 4.4-3.4 6.3-8.5 7-18.1 2.2-35.2 7.7-50.9 17.2-.7.3-1.3 1.2-2.7.6zM114.3 156.8c-8.6-1.1-17.1-2.2-25.9-3.4 1.9-4.1 5.6-6.3 8.2-9.6.6-.8 1.4-.4 2 .1 5.4 4 10.8 7.9 16.1 11.9-.1.4-.2.7-.4 1z"></path><path fill="#FBC71F" d="M.6 180.3c0 .5-.2.6-.6.4 0-.5.1-.9.6-.4zM142 178.6l-5.2-5.9-7.8.9 4-6.8-3.3-7.1 7.6 1.7 5.8-5.4.8 7.9 6.8 3.8-7.2 3.1zM300.9 215.8l-6-5-7.6 2.1 3-7.3-4.4-6.6 7.9.5 4.9-6.1 1.9 7.6 7.4 2.8-6.7 4.2z"></path></svg> 