<svg xmlns="http://www.w3.org/2000/svg" viewBox="0 0 59 59"><path fill="#556080" d="M11.12 14.62c-.26 0-.52-.1-.7-.3L6.86 10.8c-.4-.4-.4-1.04 0-1.43s1.03-.4 1.42 0l3.52 3.54c.4.4.4 1.03 0 1.42-.2.2-.45.3-.7.3zm36.76 0c-.25 0-.5-.1-.7-.3-.4-.4-.4-1.02 0-1.4l3.53-3.55c.4-.4 1.04-.4 1.43 0s.4 1.03 0 1.42L48.6 14.3c-.2.2-.46.3-.72.3z"/><circle cx="29.5" cy="32" r="26" fill="#fff"/><path fill="#424A60" d="M31.5 5.08V3H34c.83 0 1.5-.67 1.5-1.5S34.83 0 34 0h-9c-.83 0-1.5.67-1.5 1.5S24.17 3 25 3h2.5v2.08C13.54 6.1 2.5 17.78 2.5 32c0 14.9 12.1 27 27 27s27-12.1 27-27c0-14.21-11.04-25.9-25-26.92zM29.5 57c-13.79 0-25-11.21-25-25s11.2-25 25-25 25 11.21 25 25-11.22 25-25 25z"/><path fill="#DC691D" d="m1.92 8.67 4.24-4.25 4.25 4.24-4.23 4.25z"/><path fill="#14A085" d="m48.6 8.67 4.23-4.25 4.25 4.25-4.25 4.24z"/><path fill="#424A60" d="M29.5 5c-.55 0-1 .45-1 1v3c0 .55.45 1 1 1s1-.45 1-1V6c0-.55-.45-1-1-1zm0 49c-.55 0-1 .45-1 1v3c0 .55.45 1 1 1s1-.45 1-1v-3c0-.55-.45-1-1-1zm26-23h-3c-.55 0-1 .45-1 1s.45 1 1 1h3c.55 0 1-.45 1-1s-.45-1-1-1zm-49 2c.55 0 1-.45 1-1s-.45-1-1-1h-3c-.55 0-1 .45-1 1s.45 1 1 1h3zm39.26-16.26c.26 0 .52-.1.7-.3l2.13-2.12c.38-.4.38-1.02 0-1.4s-1.03-.4-1.42 0L45.06 15a.99.99 0 0 0 0 1.42c.2.2.45.3.7.3zM12.53 47.56l-2.12 2.12a1.002 1.002 0 0 0 .7 1.7c.24 0 .53-.1.72-.3l2.12-2.1c.4-.4.4-1.03 0-1.42s-1.02-.4-1.4 0zm33.94 0c-.4-.4-1.02-.4-1.4 0s-.4 1.02 0 1.4l2.1 2.13c.2.2.46.28.7.28s.53-.1.72-.3c.38-.38.38-1 0-1.4l-2.13-2.12zM11.82 12.9c-.4-.38-1.02-.38-1.4 0s-.4 1.03 0 1.42l2.1 2.12c.2.2.46.3.72.3s.5-.1.7-.3c.4-.4.4-1.02 0-1.4l-2.12-2.13zm11.92-6.27a.995.995 0 0 0-1.23-.7c-.52.13-.84.68-.7 1.22l.78 2.9c.12.44.52.73.96.73.1 0 .18 0 .26-.03.54-.14.85-.7.7-1.23l-.76-2.9zm12.68 47.33a.991.991 0 0 0-1.23-.7c-.54.13-.86.68-.7 1.22l.76 2.9c.12.44.53.73.97.73.08 0 .17 0 .26-.02.52-.14.84-.7.7-1.23l-.78-2.9zM50.75 26.3a1 1 0 0 0 .96.75c.1 0 .2 0 .28-.04l2.9-.76c.53-.15.84-.7.7-1.23-.14-.52-.7-.84-1.22-.7l-2.9.78c-.54.14-.85.7-.7 1.23zM8.25 37.7a.983.983 0 0 0-1.23-.7l-2.9.76c-.53.15-.84.7-.7 1.23.12.44.52.73.97.73.07 0 .16 0 .25-.03l2.9-.78c.53-.14.84-.7.7-1.23zM43 8.62c-.48-.28-1.1-.1-1.37.36l-1.5 2.6c-.27.48-.1 1.1.37 1.37.16.1.33.13.5.13.35 0 .68-.18.87-.5l1.5-2.6c.27-.47.1-1.1-.37-1.36zM18.5 51.05c-.48-.27-1.1-.1-1.37.37l-1.5 2.6c-.27.47-.1 1.1.37 1.36.16.1.33.14.5.14.34 0 .68-.18.87-.5l1.5-2.6c.27-.48.1-1.1-.37-1.37zm34.02-6.92-2.6-1.5c-.48-.27-1.1-.1-1.37.37-.27.48-.1 1.1.37 1.37l2.6 1.5c.15.1.33.13.5.13.34 0 .68-.18.86-.5.28-.48.1-1.1-.36-1.37zM6.48 19.87l2.6 1.5c.16.1.33.13.5.13.35 0 .68-.18.87-.5.27-.48.1-1.1-.37-1.37l-2.6-1.5c-.48-.27-1.1-.1-1.36.37-.28.48-.12 1.1.36 1.37zM17.37 8.98c-.28-.47-.9-.64-1.37-.36-.48.27-.64.9-.37 1.36l1.5 2.6c.2.32.53.5.87.5.17 0 .34-.04.5-.13.48-.28.64-.9.37-1.37l-1.5-2.6zm24.5 42.44c-.28-.48-.9-.65-1.37-.37-.48.28-.64.9-.37 1.37l1.5 2.6c.2.32.52.5.87.5.17 0 .34-.05.5-.14.48-.27.64-.9.37-1.36l-1.5-2.6zM48.55 21a1.019 1.019 0 0 0 1.37.37l2.6-1.5a1 1 0 0 0 .36-1.37c-.27-.48-.9-.64-1.36-.37l-2.6 1.5c-.48.28-.64.9-.37 1.37zm-38.1 22c-.28-.48-.9-.64-1.37-.37l-2.6 1.5a1 1 0 0 0-.36 1.37c.18.32.52.5.86.5.17 0 .35-.04.5-.13l2.6-1.5c.48-.28.64-.9.37-1.37zM36.5 5.92c-.54-.14-1.1.17-1.24.7l-.77 2.9a.975.975 0 0 0 .95 1.26c.44 0 .85-.3.97-.74l.77-2.9c.14-.53-.18-1.08-.7-1.22zM23.8 53.25a.996.996 0 0 0-1.22.7l-.77 2.9c-.14.54.18 1.1.7 1.23.1.02.2.03.27.03.44 0 .85-.28.97-.73l.77-2.9a.973.973 0 0 0-.7-1.22zm31.07-15.49-2.9-.77c-.53-.16-1.08.16-1.22.7s.17 1.08.7 1.22l2.9.77c.1.02.18.03.26.03.46 0 .86-.3.98-.74.14-.55-.17-1.1-.7-1.24zM4.13 26.24l2.9.77c.08.04.17.05.26.05a1 1 0 0 0 .95-.74.996.996 0 0 0-.7-1.22l-2.9-.78c-.54-.14-1.1.18-1.23.7-.14.55.17 1.1.7 1.24z"/><path fill="#48A0DC" d="m18.5 21 12.94 9.36a2.57 2.57 0 0 1 .3 3.9c-1.1 1.1-2.95.96-3.88-.32L18.5 21z"/></svg>