<svg xmlns="http://www.w3.org/2000/svg" viewBox="0 0 337.919 337.919"><path fill="#CE593F" d="M65.9 151.56c.2.08.38.17.57.26-.2-.1-.38-.18-.58-.25zM55.37 167c.17.2.35.37.54.55-.18-.18-.36-.36-.53-.55zm8.83-15.93c.2.04.38.1.56.14-.2-.03-.36-.1-.55-.13zm3.26 1.28c.17.1.35.2.52.33-.17-.12-.35-.22-.52-.33zm3.71 4.2c.1.2.17.4.25.62-.08-.2-.16-.42-.25-.62zm-.83-1.49c.1.14.17.3.26.44-.1-.14-.16-.3-.26-.44zm-1.06-1.28c-.1-.1-.23-.2-.34-.3.1.1.23.2.34.3zm-10.41 15.66c-.25-.1-.48-.23-.7-.35.22.1.45.24.7.34zm1.71.51c-.24-.05-.46-.13-.7-.2.24.07.46.15.7.2zm11-12.23c-.57-.1-1.16-.18-1.77-.18-5.3 0-9.6 4.32-9.6 9.62 0 .97.14 1.9.4 2.8.6.1 1.2.18 1.83.18 5.3 0 9.62-4.32 9.62-9.63 0-.97-.2-1.9-.47-2.78zm-18.43 5.21c-.05-.2-.12-.38-.16-.58.03.2.1.38.15.58zm4.15 5.7c-.22-.15-.43-.3-.64-.46.2.16.42.3.64.46zm-2.56-2.39c-.15-.2-.3-.4-.43-.62.14.2.3.4.44.62zm-.94-1.54c-.1-.2-.2-.42-.3-.64.1.22.2.43.3.64z"/><path fill="#FDD44B" d="M169.6 31.56c.05.22.12.46.18.68-.06-.23-.13-.46-.2-.68zm.6 2.14c.07.3.14.6.2.9-.06-.3-.13-.6-.2-.9zm.55 2.3zm-3.53 19.73c-.1-.05-.18-.1-.27-.16.08.06.18.1.27.16zm3.9-17.98c-1.6 5-3 12-3.1 18.24.27.04.57.08.94.08 1.7 0 2.34-.65 2.84-1.3.2-.45.65-1.84.65-5.08 0-3.87-.54-8.07-1.33-11.95zm-3.16 18.23c-.13-.02-.23-.07-.35-.1.13.03.23.07.36.1zm-1.48-.78c.05.05.1.1.17.15-.06-.05-.12-.1-.17-.16z"/><path fill="#EF8829" d="M170.76 94.97h5v76h-5zM58.92 218.05c.7.5 1.38 1 2.07 1.5-.7-.5-1.4-1-2.08-1.5zm-2.82-1.85c.7.43 1.4.87 2.07 1.33-.68-.46-1.36-.9-2.06-1.33zm-3.1-1.74c.8.4 1.6.83 2.36 1.3-.77-.46-1.56-.9-2.37-1.3zm8.6 5.54c.86.65 1.72 1.32 2.6 2-.88-.68-1.74-1.34-2.6-2zm-15.63-8.15c.33.08.65.18.98.27-.32-.1-.65-.2-.98-.27zm189.75 32.37c-19.26 0-29.2-7.7-38-14.52-7.85-6.1-14.65-11.37-28.77-11.37-14.1 0-20.9 5.27-28.77 11.37-8.78 6.8-18.72 14.52-38 14.52-19.26 0-29.6-7.7-38.38-14.52-3.8-2.96-7.03-5.7-12.03-7.77v67.04h248V218.9c-9 1.54-19.97 5.9-26.3 10.8-8.77 6.8-18.48 14.52-37.75 14.52zM48.74 212.68c.37.13.74.26 1.1.4-.36-.14-.73-.27-1.1-.4zm2.6 1.02c.35.15.7.3 1.06.46-.35-.16-.7-.3-1.06-.47z"/><path fill="#CE593F" d="M165 193.97H51.77v4.23s.55 0 .53-.02c8.75 2.84 15.18 7.56 20.82 11.93 7.86 6.1 14.8 11.38 28.92 11.38 14.12 0 20.98-5.27 28.85-11.37 8.77-6.8 18.75-14.5 38.02-14.5 19.26 0 29.23 7.7 38 14.5 7.87 6.1 14.68 11.38 28.8 11.38 14.1 0 20.3-5.27 28.17-11.37 7.55-5.84 16.87-12.36 29.87-14.07V194H165zm-122.05 2.06c1.74.2 3.4.5 4.97.82-1.58-.33-3.23-.6-4.97-.82zm9.45 2c-1.34-.42-2.74-.8-4.23-1.13 1.5.33 2.9.7 4.24 1.13z"/><path fill="#84BD93" d="M45.77 307.97h-21v6h299v-6h-10.93z"/><path fill="#CE593F" d="M129.45 151.56c.2.08.4.17.58.26-.2-.1-.38-.18-.58-.25zm-1.68-.49c.18.04.36.1.54.14-.17-.03-.35-.1-.54-.13zm3.23 1.28c.2.1.36.2.53.33-.17-.12-.34-.22-.52-.33zm3.72 4.2c.1.2.17.4.25.62-.08-.2-.15-.42-.25-.62zM118.92 167zm14.98-11.94c.1.14.17.3.26.44-.1-.14-.17-.3-.27-.44zm-1.07-1.28c-.1-.1-.23-.2-.34-.3.1.1.23.2.33.3zm-10.41 15.66c-.25-.1-.48-.23-.7-.35.22.1.45.24.7.34zm1.71.51c-.24-.05-.45-.13-.68-.2.23.07.44.15.68.2zm-3.27-1.32c-.23-.15-.44-.3-.65-.46.22.16.43.3.66.46zm14.28-10.91c-.58-.1-1.17-.18-1.77-.18-5.3 0-9.62 4.32-9.62 9.62 0 .97.14 1.9.4 2.8.6.1 1.2.18 1.83.18 5.3 0 9.62-4.32 9.62-9.63 0-.97-.2-1.9-.46-2.78zm-17.78 6.98c-.1-.2-.22-.42-.3-.64.08.22.2.43.3.64zm-.66-1.77c-.05-.2-.12-.38-.16-.58.04.2.1.38.16.58zm1.6 3.31c-.16-.2-.3-.4-.44-.62.13.2.28.4.43.62zM213.72 151.07c.2.04.36.1.54.14-.18-.03-.35-.1-.54-.13zm3.26 1.28c.17.1.34.2.5.33-.16-.12-.33-.22-.5-.33zm-1.58-.78c.2.07.4.16.58.24-.2-.07-.38-.16-.57-.23zm3.4 2.2c-.1-.1-.23-.18-.34-.28.1.1.23.17.33.27zm1.9 2.79c.08.2.15.4.22.6-.07-.2-.14-.4-.23-.6zm-.84-1.49c.1.13.16.28.24.4-.08-.13-.15-.27-.24-.4zm-7.92-4.17c-3.32 0-6.25 1.68-7.98 4.24a9.623 9.623 0 0 1 7.98-4.25zm-5.14 17.73c-.2-.14-.42-.3-.63-.47.2.16.42.32.64.47zm3.3 1.32c-.25-.05-.47-.13-.7-.2.23.07.45.15.7.2zm-1.72-.51c-.25-.1-.48-.23-.72-.35.24.1.47.24.72.34zm12.72-11.72c-.58-.1-1.17-.18-1.77-.18-5.3 0-9.62 4.32-9.62 9.62 0 .97.16 1.9.42 2.8.6.1 1.2.18 1.82.18 5.3 0 9.62-4.32 9.62-9.63 0-.97-.2-1.9-.46-2.78zm-18.6 4.63c.04.2.1.38.16.58-.05-.2-.12-.38-.16-.58zm.5 1.71c.1.22.2.43.32.64-.1-.2-.22-.42-.3-.64zm1.88 2.94c.17.2.35.37.55.55-.2-.18-.38-.36-.55-.55zm-1.06-1.38c.13.2.28.4.43.62-.15-.2-.3-.4-.43-.62zM277.28 151.07c.18.04.36.1.54.14-.18-.03-.36-.1-.54-.13zm6.96 5.49c.1.2.16.4.23.6-.07-.2-.14-.4-.23-.6zm-8.74-5.66c-3.32 0-6.25 1.68-7.98 4.24 1.73-2.56 4.66-4.25 7.97-4.25zm3.46.67c.2.07.4.16.57.24-.18-.07-.37-.16-.57-.23zm4.44 3.5c.1.13.17.28.25.4-.08-.13-.15-.27-.24-.4zm-2.87-2.72c.17.1.34.2.5.33-.16-.12-.33-.22-.5-.33zm1.81 1.42c-.1-.1-.22-.18-.32-.28.1.1.22.17.32.27zm-14.97 11.85c.13.2.28.4.43.62-.15-.2-.3-.4-.43-.62zm-.8-1.56c.1.22.2.43.3.64-.1-.2-.22-.42-.3-.64zm5.36 5.38c-.25-.1-.48-.23-.7-.35.22.1.45.24.7.34zm12.72-11.72c-.57-.1-1.16-.18-1.77-.18-5.3 0-9.62 4.32-9.62 9.62 0 .97.15 1.9.42 2.8.6.1 1.2.18 1.8.18 5.32 0 9.63-4.32 9.63-9.63 0-.97-.18-1.9-.45-2.78zm-11.01 12.23c-.24-.05-.46-.13-.7-.2.24.07.46.15.7.2zm-7.58-7.6c.04.2.1.38.16.58-.06-.2-.13-.38-.16-.58zm4.31 6.28c-.23-.14-.44-.3-.65-.47.2.16.42.32.65.47zm-1.94-1.63c.18.2.36.37.55.55-.2-.18-.37-.36-.55-.55z"/><path fill="#3F2D20" d="M168.96 70.02c4.58 0 18.53 0 18.53-20.32 0-7.84-3.3-39.5-18.54-39.5-15.24 0-18.53 31.66-18.53 39.5 0 20.32 13.94 20.32 18.53 20.32zm0-40.42c1.8 5.2 3.5 13.2 3.5 20.1 0 3.24-.47 4.63-.67 5.08-.5.65-1.13 1.3-2.84 1.3-1.7 0-2.34-.65-2.84-1.3-.2-.45-.65-1.84-.65-5.08 0-6.9 1.7-14.9 3.5-20.1zM330.4 288.33H310V177.66c0-4.16-3.35-7.52-7.5-7.52h-4.3a24.47 24.47 0 0 0 1.95-9.63c0-13.58-11.06-24.65-24.66-24.65s-24.67 11.07-24.67 24.66c0 3.43.7 6.68 1.95 9.64h-18.14c1.26-2.96 1.96-6.2 1.96-9.63 0-13.58-11.06-24.65-24.66-24.65-9.2 0-17.24 5.07-21.48 12.56V79.3c0-4.14-3.36-7.5-7.52-7.5h-27.97c-4.15 0-7.52 3.36-7.52 7.5v69.1c-4.24-7.48-12.27-12.55-21.47-12.55-13.6 0-24.66 11.07-24.66 24.66 0 3.43.7 6.68 1.95 9.64H85.14c1.25-2.96 1.95-6.2 1.95-9.63 0-13.58-11.07-24.65-24.67-24.65s-24.67 11.07-24.67 24.66c0 3.43.7 6.68 1.96 9.64h-4.3c-4.15 0-7.5 3.36-7.5 7.52v110.67H7.5c-4.15 0-7.52 3.37-7.52 7.52v24.36a7.52 7.52 0 0 0 7.52 7.53h322.9c4.15 0 7.52-3.36 7.52-7.52V295.9c0-4.15-3.37-7.52-7.52-7.52zm-7.52 24.36H15.04v-9.33h307.83v9.32zM62.43 150.9c5.3 0 9.62 4.3 9.62 9.6 0 5.32-4.32 9.64-9.62 9.64s-9.62-4.32-9.62-9.63c0-5.3 4.32-9.6 9.63-9.6zm63.55 0c5.3 0 9.62 4.3 9.62 9.6 0 5.32-4.3 9.64-9.62 9.64-5.3 0-9.62-4.32-9.62-9.63 0-5.3 4.3-9.6 9.62-9.6zm36.52-64.07h12.92v83.3H162.5v-83.3zm49.44 64.06c5.3 0 9.62 4.3 9.62 9.6 0 5.32-4.32 9.64-9.62 9.64-5.3 0-9.62-4.32-9.62-9.63 0-5.3 4.3-9.6 9.62-9.6zm63.55 0c5.3 0 9.6 4.3 9.6 9.6 0 5.32-4.3 9.64-9.6 9.64s-9.63-4.32-9.63-9.63c0-5.3 4.32-9.6 9.62-9.6zm19.47 45.13c-14.48 1.7-22.92 8.22-30.47 14.08-7.87 6.1-14.66 11.38-28.78 11.38-14.1 0-20.9-5.27-28.77-11.37-8.78-6.8-18.73-14.5-38-14.5-19.26 0-29.2 7.7-38 14.5-7.85 6.1-14.64 11.38-28.76 11.38-14.13 0-20.92-5.27-28.78-11.37-7.56-5.85-16-12.36-30.47-14.07V185.2h252.02v10.85zM42.95 211.2c9.3 1.54 14.93 5.9 21.25 10.8 8.78 6.8 18.72 14.52 38 14.52 19.26 0 29.2-7.72 37.98-14.52 7.87-6.1 14.66-11.37 28.77-11.37 14.12 0 20.92 5.27 28.78 11.37 8.78 6.8 18.73 14.52 38 14.52 19.26 0 29.2-7.72 38-14.52 6.3-4.9 11.95-9.26 21.24-10.8v77.13H42.95V211.2z"/></svg>