<svg xmlns="http://www.w3.org/2000/svg" viewBox="0 0 1000 1000" xmlns:v="https://vecta.io/nano"><defs><linearGradient id="A" x1="4.59" y1="512.77" x2="995.18" y2="512.77" gradientUnits="userSpaceOnUse"><stop offset=".4" stop-color="#1d1f1d"/><stop offset=".6" stop-color="#cb3328"/></linearGradient></defs><path d="M4.67,766.68c7.37-21.58,21.69-52,43.15-61.53-.56-4-9.55-.69-11.2-3.13-6.87-4.59,7.47-39.87,10-48.79,26.2-15.56-7.82-70.7,39.31-55.37,13.93-4,4-3.53,10.87-12.22,19.77-18.14,4.1-23.28,6.69-42.73,19.69-19.13,21.81-46,25.46-72.7,5-15.13,20.49-42.76,26.79-57.26,16.91-38.88,22.71-51.86,35.63-92.63,10.93-10.69,1.52-22.93,7.81-35.51C292.84,97.28,370.93,167.57,412.42,179.28c37.78,10.66,47.7-16.24,108,21,18.58,11.47,17.34,30.57,40.19,32,7.15,2.48,3.2,6.56,9.23,6-3.24-15.15,18.62-5.23,27.8-6,6.34-8.22,20.25,2.16,24.67,9.09,2.45,9.2-8.42,21.11,6.79,14.69C645,274,660,304.15,685.73,306.19c3.57,1.91,5.87,7.21,8.64,8.66,58.68-2.06,38.1,14.12,81.82,28.24,19.91-15.3,49.25-3.21,71.46-6.73,18.13-11.29,35.65,4.21,54.61,5.15,15-2.38,26.46-18.68,42.33-5.84,25.56,21.61,70.62,59.51,37.19,92.27-23.53,70.36-1.58,63.24-80.28,62.62-19.37-.52-40.61,0-56.92,10.58-9.16-2-5.07-7.06-13.67,1.22-5.78,16.87-18.92-2.68-29.58,3.52-5.37,4-4.32,4.55-3.85,10.18C810,548.82,753,585,723,591.63c-1.59.4-4.09-4.45-6.27-4.15-16.1,26.18-29.45-17.87-52.7,4.06-7.41-3.07-10.77-10.11-19.14-7.09-19-18.06-49.7.41-70.5,9-16.69,20.24-46.12,25.34-59.5,47.37-6.23,22.93-25.23,20.26-36.39,40.23-21.94,7.15-19.21,24.59-35.21,29.58-20-2.11-43.82-.62-59.24,12.64-22.42,13-35.47-16.92-56.89,1-6.55,1-7.48-1-13.4-.5-16.3.87-38.59,17.69-50.44.86-73.42,38.05-44.07,77.11-87.88,115.47-71.37,52.07-69.5,20.12-139,5.19-14-8.72-12.39-29.18-17.23-42.95C15.48,793.09,4,773.79,4.67,766.68Z" fill="#4eb15e" fill-rule="evenodd"/><path d="M115 869.55c-10.84 0-20.36-3.85-32.43-8.74-11.45-4.62-25.68-10.38-45.57-14.66h-.14l-.11-.07c-10-6.28-12.24-18.18-14.35-29.69a93.48 93.48 0 0 0-3.2-13.67c-1.15-2.88-3.11-6.85-5.19-11.05-4.62-9.32-9.85-19.88-9.35-25v-.17C11 747.88 25 715.27 47.59 704.81c-.61-.95-2.56-1-5.15-.95-2.38 0-4.63.09-5.64-1.2-5.29-3.87.57-22.49 7-41.24l2.74-8.32.09-.3.27-.16c10.76-6.4 11-20.1 11.24-32.19.19-10 .36-19.42 6.31-23.66 4.43-3.15 11.69-3 22.16.33C94 595 94 594.38 94 592.78s-.07-3.73 2.94-7.55l.09-.09c12.23-11.23 10.58-17 8.29-25.1-1.32-4.66-2.82-9.93-1.85-17.16v-.27l.19-.18c18-17.47 21.11-41.09 24.42-66.08q.41-3.09.82-6.17v-.14c3.12-9.42 10.34-23.79 16.72-36.47 4-7.89 7.71-15.34 10.1-20.85l1.59-3.65c15.65-36 21.51-49.48 34-88.91l.06-.19.14-.13c5.9-5.78 5.62-12.07 5.31-18.73-.24-5.36-.49-10.9 2.34-16.57 35.64-71.33 72-112 111-124.46 33.13-10.53 61.21 1.45 83.77 11.08 7 3 13.63 5.82 19.38 7.44 13.77 3.89 23.61 2.76 34 1.55 17.63-2 35.85-4.13 74.16 19.52 7.7 4.75 12.13 10.89 16 16.31 5.7 7.92 12.89 15.51 23.8 15.58 3.28 0 5 3.17 5.64 4.48.55 1.06.85 1.6 2.61 1.58-.47-2.91 0-5 1.39-6.48 3.18-3.27 10.33-2 17.24-.7 3.69.67 7.17 1.31 9.71 1.18a8.24 8.24 0 0 1 7.09-3c7.17.32 15.43 7.45 18.63 12.47l.09.22c1 3.58 0 7.48-.74 10.61-.54 2.22-1.09 4.51-.42 5.09.41.34 1.84.6 6.9-1.53l.51-.21.37.41C634.27 260 638 265 642 270.29c12.46 16.56 25.34 33.68 44.52 35.2h.16l.14.07c2 1.09 3.59 3.09 5.1 5a15 15 0 0 0 3.36 3.54c35.49-1.22 42.19 4.29 51.47 11.9 6.13 5 13.08 10.74 30 16.26 12.92-9.69 29.55-8.27 45.64-6.9 9.16.78 17.81 1.51 25.68.3 11.91-7.34 23.77-3.38 35.25.44 6.37 2.12 12.95 4.32 19.6 4.66 4.85-.78 9.41-3.1 13.81-5.34 8.89-4.52 18.08-9.2 29-.32l.29.24c19.17 16.21 48.13 40.71 49 65.92.36 9.82-3.66 18.95-12 27.14-4.73 14.17-7.57 25-9.86 33.75-7.85 30-8.33 30.28-51.1 29.51l-20-.28c-18.76-.51-40.12-.16-56.49 10.45l-.28.18-.32-.07a15.68 15.68 0 0 1-6.18-2.7c-1.55-1.08-1.69-1.18-6.64 3.58-1.25 3.56-2.93 5.78-5.11 6.78-3.34 1.52-7.18 0-11.25-1.69-4.56-1.85-9.28-3.76-13.47-1.34-4.2 3.09-4.12 3.74-3.73 7.28l.21 2.07c3.13 8.27 2.15 17.21-2.9 26.57-13.43 24.9-51.22 45.33-72.21 49.94-1.15.29-2.22-.81-3.45-2.07a7.49 7.49 0 0 0-2.56-2c-8.35 13.26-16.19 8.52-24.47 3.5s-16.92-10.24-28.12.33l-.36.34-.47-.19a31.2 31.2 0 0 1-6.59-4c-3.81-2.77-6.82-5-12-3.08l-.45.16-.35-.33c-15.78-15-40.22-4-59.85 4.84l-9.63 4.23c-7.79 9.37-18.33 15.55-28.53 21.54-12.15 7.12-23.62 13.86-30.73 25.49-3.51 12.83-10.91 17.76-18.75 23-6.27 4.18-12.76 8.5-17.68 17.31l-.15.27-.29.09c-11.55 3.77-16 10.31-20.34 16.63-3.72 5.44-7.23 10.57-14.88 13h-.16-.16c-17.93-1.9-42.67-1.28-58.64 12.46l-.12.08c-11 6.41-19.81 2.75-28.3-.79-9.07-3.77-17.64-7.34-28.48 1.74l-.16.14h-.22a20.53 20.53 0 0 1-7.68-.13 20.16 20.16 0 0 0-5.78-.37c-5.08.27-10.66 2.09-16.57 4-12.65 4.11-25.72 8.36-34.16-2.93-42.1 22-50 44.69-57.57 66.64-5.5 15.89-11.2 32.33-29.57 48.42-29.4 21.61-46.68 28.8-61.47 28.8zm-77.56-24.9c20 4.31 34.25 10.08 45.72 14.72 28.87 11.69 42.05 17 92.54-19.81 18-15.77 23.63-32 29.07-47.71 7.74-22.34 15.74-45.44 58.91-67.82l.61-.31.39.56c7.77 11 20.5 6.9 32.81 2.89 5.74-1.87 11.68-3.8 16.94-4.08a22.07 22.07 0 0 1 6.16.38 18.46 18.46 0 0 0 7 .16c11.49-9.51 20.85-5.61 29.91-1.84 8.12 3.38 16.53 6.88 26.86.91 16.34-14 41.4-14.7 59.61-12.79 7-2.25 10.22-6.91 13.91-12.3 4.22-6.19 9-13.19 20.85-17.14 5.09-9 11.67-13.35 18-17.59 7.61-5.07 14.79-9.86 18.14-22.2l.09-.2c7.3-12 19.51-19.19 31.33-26.13 10.13-5.94 20.61-12.09 28.23-21.33l.12-.15.18-.07c3.06-1.27 6.32-2.73 9.77-4.29 19.92-9 44.67-20.14 61.22-4.87 5.68-1.86 9.22.72 13 3.44a31.81 31.81 0 0 0 5.82 3.62c11.89-10.91 21.3-5.21 29.61-.18s15 9.05 22.59-3.37l.19-.32.37-.05c1.53-.21 2.95 1.25 4.2 2.53.57.59 1.6 1.67 2 1.64 20.72-4.54 58-24.66 71.19-49.16 4.85-9 5.78-17.52 2.78-25.38l-.05-.21-.21-2.14c-.45-4-.38-5.23 4.38-8.73l.07-.05c4.86-2.83 10.18-.67 14.87 1.23 3.75 1.52 7.29 3 10 1.71 1.82-.82 3.24-2.8 4.35-6l.03-.22.13-.13c5.5-5.29 6.24-5.61 8.75-3.87a13.85 13.85 0 0 0 5.32 2.39c16.71-10.68 38.21-11 57.08-10.53l20 .29c21.11.38 31.71.57 37.81-2.94s7.93-10.8 11.76-25.42c2.3-8.78 5.16-19.71 9.95-34l.06-.18.13-.13c8.06-7.9 12-16.68 11.63-26.1-.9-24.53-29.55-48.76-48.5-64.79l-.28-.23c-10.18-8.23-18.52-4-27.35.51-4.54 2.3-9.23 4.69-14.35 5.5H903c-6.89-.34-13.61-2.58-20.11-4.75-11.69-3.89-22.73-7.57-34.06-.51l-.14.08h-.15c-8.1 1.28-16.9.53-26.21-.27-15.93-1.35-32.4-2.75-44.89 6.84l-.33.25-.39-.12c-17.49-5.65-24.93-11.76-30.9-16.66-9-7.42-15.56-12.78-50.65-11.54h-.21l-.18-.09c-1.45-.76-2.71-2.37-4-4.06s-2.79-3.58-4.47-4.53c-19.79-1.67-33.43-19.8-45.48-35.81-3.83-5.09-7.45-9.91-11.17-14.13-4.41 1.81-6.74 2.12-8 1.06-1.41-1.19-.83-3.59-.09-6.63s1.58-6.56.78-9.74c-3-4.61-10.81-11.35-17.32-11.65a6.87 6.87 0 0 0-6 2.72l-.21.27h-.34c-2.76.22-6.49-.46-10.43-1.18-6.21-1.14-13.25-2.42-15.85.25-1.16 1.19-1.43 3.14-.82 6l.18.85-.87.08c-3.34.31-4.15-.73-5-2.35-.63-1.19-2.45-3.62-4.46-3.65-12.21-.19-19.19-8.35-24.86-16.22-4-5.56-8.15-11.31-15.59-15.9-37.84-23.36-55.8-21.29-73.16-19.29-10.11 1.17-20.55 2.37-34.62-1.6-5.85-1.65-12.51-4.5-19.57-7.51-22.33-9.53-50.11-21.38-82.69-11C272 173.84 236 214.3 200.57 285.23c-2.65 5.32-2.41 10.65-2.17 15.8.3 6.67.61 13.55-5.65 19.78-12.48 39.37-18.35 52.88-34 88.88l-1.58 3.65c-2.42 5.55-6.17 13-10.14 20.93-6.34 12.6-13.51 26.88-16.61 36.19l-.81 6.09c-3.18 24.08-6.47 49-24.68 66.8-.84 6.77.59 11.81 1.85 16.26 2.34 8.26 4.19 14.78-8.7 26.63-2.63 3.36-2.59 5.18-2.56 6.51 0 2.72-.79 3.66-8.66 5.93l-.23.07-.23-.08c-10.1-3.28-17-3.48-21-.61-5.31 3.79-5.48 12.84-5.66 22.42-.23 12.4-.49 26.44-11.73 33.33-.54 1.87-1.5 4.64-2.69 8.11-4.36 12.66-12.47 36.22-7.52 39.53l.13.08.08.13c.49.72 2.58.68 4.43.64 2.89 0 6.49-.12 6.9 2.82l.09.58-.54.24c-22.37 9.87-36.35 42.4-42.71 61-.38 4.68 4.93 15.4 9.2 24 2.09 4.23 4.07 8.23 5.25 11.2a94.28 94.28 0 0 1 3.28 13.93c2.02 11.14 4.14 22.65 13.51 28.58z" fill="url(#A)"/><path d="M134.39 612c.73-2.84 6.26.72 6.55-.2.5-1.55-10.69-11-8-12.48 4.22-2.37 8.53 11.49 9.51 11.65 1.58.27-.36-7.17 2.05-6.78 2.93.46-2.14 6.85-.63 7 1.19.1 12.15-10 14.61-6.84 2.7 3.42-13.52 7.27-13.92 8.55-.2.69 9 .63 7.24 3.69-1.15 1.94-7.44-3.42-7.83-2.76s17.15 24.75 13.76 26.92c-5.3 3.42-13.6-26.23-15-26.5s.82 8.76-2.18 8.27 2.27-7.94 1.35-8.43-11 10.3-13.39 6.81c-2.67-3.91 12.37-6.81 12.57-8.06s-7.51 2.7-6.62-.82zm55.89-.86c.53-2.1 4.71.56 4.91-.13.36-1.15-8-8.23-6.06-9.35 3.16-1.78 6.39 8.63 7.14 8.76 1.19.2-.26-5.4 1.52-5.1 2.2.36-1.61 5.13-.46 5.23.89.1 9.12-7.51 11-5.14 2 2.57-10.17 5.47-10.47 6.42-.16.53 6.78.5 5.43 2.77-.85 1.45-5.59-2.57-5.89-2.08s12.87 18.57 10.34 20.21c-4 2.57-10.21-19.71-11.29-19.88s.62 6.55-1.65 6.19 1.71-6 1-6.32-8.29 7.74-10.07 5.1c-2-3 9.28-5.1 9.41-6.05s-5.49 2-4.84-.63zm-83.04 47.76c.49-1.94 4.31.5 4.51-.13.33-1-7.38-7.57-5.53-8.59 2.89-1.65 5.86 7.9 6.55 8 1.08.2-.27-4.94 1.41-4.67 2 .33-1.48 4.7-.42 4.8.82.07 8.36-6.88 10.07-4.74 1.87 2.37-9.32 5-9.61 5.9-.14.46 6.22.42 5 2.53-.79 1.35-5.14-2.37-5.4-1.91s11.81 17 9.48 18.57c-3.66 2.37-9.38-18.08-10.37-18.27s.56 6-1.51 5.69 1.58-5.46.92-5.79-7.61 7.11-9.25 4.67c-1.85-2.7 8.52-4.67 8.65-5.56s-5.13 1.94-4.5-.5zm84.23 51.48c.46-1.84 4.08.46 4.28-.13.33-1-7-7.17-5.27-8.16 2.77-1.55 5.56 7.5 6.22 7.63 1 .17-.23-4.7 1.32-4.44 1.91.3-1.38 4.48-.4 4.58.79.06 8-6.52 9.55-4.48 1.78 2.24-8.85 4.74-9.12 5.6-.13.46 5.89.42 4.74 2.4-.75 1.25-4.87-2.24-5.1-1.81s11.22 16.16 9 17.61c-3.49 2.24-8.89-17.15-9.85-17.32s.53 5.73-1.41 5.4 1.48-5.2.89-5.49-7.21 6.74-8.76 4.44c-1.74-2.57 8.1-4.44 8.2-5.27s-4.87 1.75-4.28-.56zm-13.99-59.44c.16-.69 1.51.16 1.58 0 .13-.36-2.57-2.63-1.94-3 1-.56 2 2.76 2.27 2.8s-.1-1.71.49-1.65-.52 1.65-.16 1.68 2.93-2.4 3.52-1.65-3.26 1.75-3.36 2 2.18.17 1.75.89c-.27.46-1.78-.82-1.88-.65s4.12 5.92 3.29 6.45c-1.28.82-3.26-6.29-3.58-6.36s.19 2.11-.53 2 .56-1.91.33-2-2.64 2.47-3.23 1.65 3-1.65 3-2-1.78.63-1.58-.19z" fill-rule="evenodd" fill="#feca32"/><g fill="#cb3528"><path d="M639.32 500.08h0a35.11 35.11 0 0 0-4.5-10.7c-1.58-2.62-6.82-8.36-9.08-12.34-1.71-3-2-4.82-1.82-6.69a5.71 5.71 0 0 1 1.57-4 3.52 3.52 0 0 1 3.44-.38 3 3 0 0 1 1.88 3.07 2.69 2.69 0 0 1-1.51 2.42 2.17 2.17 0 0 1-1.92-.17 2.09 2.09 0 0 1-1.07-1.59c0-.39-.07-1.35.68-1.56 1.11-.31 1.17.45 1.17.45s-1-.05-1 .65a1.12 1.12 0 0 0 1.05 1.18 1.41 1.41 0 0 0 1.45-1.38 2.17 2.17 0 0 0-2.62-2.23c-1.87.26-2.39 2.73-1.91 5.38.3 1.64 2.4 4.63 3.75 6.77s8 10.22 8 10.22l-2.1-7.09c-1.19-4-1.61-12.28-2.37-16.43a80.18 80.18 0 0 1-.93-12.18s-2.09 2.26-3.17 3.77a30.15 30.15 0 0 0-4.73 8.22c-1.88 4.74-1.65 10.49-1.68 12.86a103.45 103.45 0 0 0 .06 11.39c.37 4.9-2.56 10.27-3.32 12.14-.23.6.3.7.53.33a4.06 4.06 0 0 1 4-2.1c2.6.33 4.05 2.73 3.13 6.51s-4.6 6.69-7.21 7.58c-2 .67-4.66 0-4.57-1.66s1.21-2.28 2.72-2.8c1-.33 2.15.45 1.59 1.43-.85 1.51-.78.1-2 .19-1.41.11-2 1.49-.26 1.88a3.53 3.53 0 0 0 4.24-2.71c.33-2.07-1-3.48-4.11-2.49-2.94.94-4.54 4.77-6.36 6.88a49.41 49.41 0 0 1-6.22 5.4c4.65-.63 17.13-4.78 20.08-6.75a14.11 14.11 0 0 0 4.17-4 11.52 11.52 0 0 0 1.84-8c-.6-3.64-3.83-7.6-5.29-11.27-1.18-3-.73-4.67 1.38-4.83s4.84 3.64 7.16 8.31a13.22 13.22 0 0 1 .6 10.91 27.83 27.83 0 0 1-5.13 7.32 9.31 9.31 0 0 0-2.82 7c.06 1.71 1.9 4.56 4.33 4.79a3.42 3.42 0 0 0 3.94-3c.11-1.16-.36-2.69-1.84-2.63-3.14.14-1.11 3.22-1.11 3.22a2.82 2.82 0 0 1-2.56-2.36 3.26 3.26 0 0 1 1.57-3.39 4.07 4.07 0 0 1 4.73.83c.68.74 3.08 2.85-.49 7.39-2.07 2.62-6.37 2.13-8 .78a7.83 7.83 0 0 1-2.5-4.36c-.43-3.3.63-4.21 0-4.47s-5.2 1.19-8.34 3c-2.92 1.64-4.34 3.1-5.42 3.15a14.09 14.09 0 0 0-10 5.35c-2.36 2.92-2.73 4.11-4.5 9.59-1.27 4-2.7 8.15-4.89 10.41-3 3-7.49 3.89-11.65 3.08a5.51 5.51 0 0 1-4.51-5.62 5 5 0 0 1 3.21-5.16 4.79 4.79 0 0 1 4.93.79 3.74 3.74 0 0 1 .4 4.78 3.3 3.3 0 0 1-3.81.87 1.71 1.71 0 0 1-.89-2.2 1.06 1.06 0 0 1 1.38-.57s-1.07 1 .06 1.46c2.14.86 2.45-2.56.47-3.28s-3.82 1.28-4 2.8a3.74 3.74 0 0 0 3.06 4.31c2.77.75 7.28-.39 8.94-2.34 3.15-3.7 4.32-9.83 4.75-11.56a17.21 17.21 0 0 1 2.61-5.85c-1.78.69-9.77 4.17-16.31 6.28-5.17 1.66-10.12 3.57-17.8 2.82-4.7-.46-7.52-2.29-9.1-4.24-1.84-2.27-2.46-6.66-1.51-9.88s2.65-4.63 5.26-5.26a11.29 11.29 0 0 1 7.16.56 9.49 9.49 0 0 1 5.48 7 6.23 6.23 0 0 1-2.1 5.62c-1.51 1.51-5.18 2-7.82 1.18a4.82 4.82 0 0 1-3.22-4.89c0-1.28 1.56-2.26 2.76-2.46 2.14-.36 2.86.72 2.86.72s-1.67.44-1 1.9c.88 2 2.85 1.22 3-.33.18-2.46-1.38-5.35-5.89-4-2.78.8-4 2.86-4 4.25a7.24 7.24 0 0 0 5.89 7.3 27.66 27.66 0 0 0 13.54-.24c4.08-.95 12.09-4.56 13.59-5.19s5.7-3 6.58-3.46c4.05-1.92 4.82-2.27-1-2.73-1.06-.08-3-.47-6.93-1.16s-11.14-3-14.1-3.81-7.09-3.05-10.7-3.39a63.94 63.94 0 0 0-11.62.86 49.34 49.34 0 0 1-12.54-.07c-2.77-.49-3-.59-.86 2.6s12.45 14.88 17.15 19 10.07 7.38 18.63 12.05 14.22 4.81 19.19 4.74a89.27 89.27 0 0 0 17.12-2.57c2.93-.85 10.74-5.27 11.68-5.89a33 33 0 0 0 4.68-3.91 28 28 0 0 1-7.59 1.28 25.09 25.09 0 0 1-8.8-1c-3.23-1-6-3.91-6.51-6.3s.46-5.91 3.39-8.68 8.21-3.28 12-3a9.59 9.59 0 0 1 6.11 2.44c2 1.93 3.5 4.5 1.14 7.78-2.59 3.61-9.16 3.35-10.21 3.12-.86-.19-2.41-.33-2.67-1.71a1.77 1.77 0 0 1 2-2.26s.09 2.15 2.66 1.18c1.22-.46.89-2 .16-2.86-1.05-1.25-4.71-2.12-7.39 1.12-1.87 2.26-.36 5.81 1.65 7a13.71 13.71 0 0 0 8.31 1.12 16.88 16.88 0 0 0 6.93-2.6c5.38-3.64 7.7-7.52 10.53-12.16a28.2 28.2 0 0 0 4.55-12.84 33 33 0 0 0-.99-13.75zm-6.91-21.16h0a.72.72 0 0 1-.33.89.66.66 0 0 1-.86-.3c-.1-.2-.16-.69 0-.79a1.09 1.09 0 0 1 .82-.16.49.49 0 0 1 .37.36zm-.59-1.48c-.43.56-.93.69-1.22.59a.82.82 0 0 1-.63-.59.51.51 0 0 1 .53-.59c.39 0 .69-.1.82-.3a.69.69 0 0 1 .56-.3h0c.3.14.36.63-.06 1.19zm-.33-3.1h0a.75.75 0 0 1 0 .93 2.05 2.05 0 0 1-1 .88 1.47 1.47 0 0 1-1.25-.06c-.36-.26-.43-.46-.43-.69a.3.3 0 0 1 .27-.33c.39-.1.66.06 1 0a1.5 1.5 0 0 0 .82-.47.44.44 0 0 1 .59-.26zm-.27-2.1a1.63 1.63 0 0 1-1.28 2h0c-1.35.39-2.17-.33-2.27-.79s.2-.69.69-.76 1.48.2 2-.39.8-.39.86-.06zm-54.21 50c2.34.72 6.17 1.4 8.24 1.91a66.8 66.8 0 0 1 2.15.59c.4.12.3.19-.09.36s-1.81 1.07-3.26 1.79c-1.17.59-4.12 1.84-7.12 3.15s-6.52 3-6.52 3a4.43 4.43 0 0 0 .84-1.08 12.32 12.32 0 0 0 .76-1.71s4.64-1.58 6.32-2.27 5.1-2 5.43-2.11.85-.46 0-.59a70.47 70.47 0 0 1-7.9-1.71 36.09 36.09 0 0 1-5.33-2c-.37-.3-.34-.36-.52-.76a6.43 6.43 0 0 0-.48-.83l7.47 2.31zm-32.66 1.61c.1-1.22 1-1.63 1.56-2.52s.54-.91-.64-.74a17.12 17.12 0 0 1-3.94 0c-.53-.16-1.84-2.06-1.84-2.06s.84.05 4.16.05 7.18-.31 7.18-.31l-2 2.67a9.12 9.12 0 0 0-1.53 6.7s-3.05-2.52-2.95-3.74zm22.53 20.87c-4.14-2.18-6.92-4.06-6.92-4.06s1.72.57 7 .48a30.47 30.47 0 0 0 6.95-1s-1.31 1-1.62 4.1a9.9 9.9 0 0 0 .47 3.37s-1.91-.76-5.88-2.84zM600.5 542a20 20 0 0 0 4.89 3.1c2 1.08 7 1.12 7 1.12a38.62 38.62 0 0 0-3.68 1.74 31.65 31.65 0 0 1-4.56 1.66s-2.55-1.63-2.78-1.92-.79-.5-1 .1-1.35 2.92-1.35 2.92a16.42 16.42 0 0 1-2.74.26c-.74 0-2.28.2-2.28.2s.88-1.91 1.58-3.2a23.51 23.51 0 0 0 1.69-3.9 31.77 31.77 0 0 0 1.18-4.93 17.59 17.59 0 0 0 2.05 2.9zm20.13-19.79l-.27-1.73-2.59 1.2h-2.62s2-1.24 3.21-1.84c1.78-.89 3.78-1.71 3.78-1.71a10.9 10.9 0 0 0-.1 2.53 13 13 0 0 0 .63 2.43s-1.87-.7-2.04-.83zm-74.46-9.76c-1 1.14.37 1.66 2.19 1.52.36 0 5.85-.75 6.68-.81a29.65 29.65 0 0 1 5.71.19l-6.91-5.2c-.63-.46-4.68-3.06-4.68-3.06l-1.13 3.87a7.72 7.72 0 0 1-1.86 3.49zm4.25-4.54s1 .23 1.16.59 0 1.1.12 1.46-.1.62.36.56 1.36-.39 1.68-.35a10.33 10.33 0 0 1 1.76 1.27l-2.35.09-2 .08c-.27.08-2.11.36-2.1.07a13.83 13.83 0 0 1 .79-2.13c.34-.78.38-1.55.58-1.64zm-4.28-1.64h0c.06-4.47-3.83-8.72-7.88-10.6-4.4-2.05-15.69-4.57-19.35-5.49s-5.91-2.48-8.38-3.6-7.85-4.43-8.44-4.76a25.33 25.33 0 0 1-2.17-1.36 3.64 3.64 0 0 1 1.58-.31 3.54 3.54 0 0 1 2.26.43c.4.33.34.61-.07.84a.79.79 0 0 1-.87-.06s.39-.07.39-.34c0-.43-.33-.45-.52-.42a.61.61 0 0 0-.27 1c.63.59 1 .45 2 .37a19 19 0 0 1 4.85.25c.56.08 1.51.57.93 1.47a1.1 1.1 0 0 1-1.56.2c-.56-.47 0-1.22 0-1.22a1 1 0 0 0-1 1.37c.42 1.52 3 1.51 4.73 1.72a52.16 52.16 0 0 1 8.42 2.2 18.92 18.92 0 0 0-5.07-3.73 112 112 0 0 0-14.81-5.23 32.17 32.17 0 0 0-7.93-1.16s1.64.83 3.65 2a70.19 70.19 0 0 1 6.12 4c3.94 3 6.8 5.28 8.63 6.35 4.06 2.39 6.27 2.75 15.08 4.87 5.7 1.38 8.56 1.53 11.32 3.64 2.58 2 4 4.14 4 6.72 0 1.93-.22 4.36-3.7 5.28a7 7 0 0 1-8-3 2.9 2.9 0 0 1 .33-3.63 4 4 0 0 1 4.07-1.16c1.2.46 2.84 1.58 2.08 3.3-.85 1.95-3.11.55-3.11.55s1.8-.22 1.73-1.14c-.15-1.66-1.84-1.68-3.06-.61s-.18 2.93.39 3.37c1.84 1.4 5.63.72 6.35-1.22 1.23-3.31-.91-5.85-4.14-7.69s-8.92-2.54-11.32-3.06-9.38-2.5-9.38-2.5l6.32 6.48c1.42 1.64 3 2 4 1.29 1.23-.83.24-1.93-1.23-2.3-.82-.21-2.45-.41-2.56-1.31s1.08-.67 2.89-.24c1.45.33 4.2 1.57 3.29 3.92-.7 1.79-3.58 1.67-3.58 1.67l5.53 6a11.83 11.83 0 0 0 9.06 4c4.81-.17 8.33-2.64 8.4-7.15zm80.48-91.49a14 14 0 0 0-1.88 6.31c0 1.22-.23 2.53 1.4 6.35.63 1.47 5.18 8.62 5.18 8.62a44.4 44.4 0 0 1-.56-6.65c.17-1.94 1.35-6.84-.32-8.16a2.08 2.08 0 0 0-3 .59 3.1 3.1 0 0 0 .5 3.33 1.29 1.29 0 0 0 2.05-.33c.23-.53-.16-1.77-1.27-1.35 0 0 .41.12.51.35a.57.57 0 0 1-.09.66.53.53 0 0 1-.74-.16 1.22 1.22 0 0 1-.16-1.34 1.06 1.06 0 0 1 1.6-.39 2.82 2.82 0 0 1 .8 2.36c0 1.32-.23 1.94-.76 2.27s-1.08.23-1.81-.52a6.82 6.82 0 0 1-1.17-2.18 13.13 13.13 0 0 1-.31-3.75 14.54 14.54 0 0 1 1.45-4.48 2.42 2.42 0 0 1 2.3-1.25 1.31 1.31 0 0 1 1 1.55 6.92 6.92 0 0 1-.83 2.19 5.5 5.5 0 0 0 2.89-5.07 29.62 29.62 0 0 1 2-8c.71-1.7 4.73-9 4.73-9l-7.16 9.17c-1.81 2.47-4.97 6.61-6.35 8.88zm4.21 3.48h0 0 0zm-2.78-21.75a9.09 9.09 0 0 1-4.74-2.11c-.82-.62-1.15-.55-1.18.37s.66 4.86.82 6.91l.6 9.9s4-8.58 6.53-12.17c.51-.73 1.92-2.59-2.03-2.9zm-3.35 10.68c-.07.11-.4.56-.53-.15-.06-.31-.2-.43.32-.4s.31.42.21.55zm.58-1.86c-.18.43-.43.4-.79.34a.45.45 0 0 1-.37-.43c0-.3 0-.69.2-.65s.91.07 1 .21.05.34-.04.53zm.67-2c-.1.36-.26.42-.79.26s-.83-.12-.93-.42-.23-.71 0-.78a5.1 5.1 0 0 1 1.54.32c.23.07.23.29.23.59zm.94-1.91c-.27.43-.52.38-1.41.15s-1.2-.18-1.37-.51-.36-1.06 0-1.19.6 0 1.1.11 1.79.51 2 .61-.07.41-.32.8zm.76-2.38a6.35 6.35 0 0 1-2.12-.34c-1.32-.38-1.56-.66-1.66-.89s-.26-.85 0-1a14.32 14.32 0 0 1 2.36.79c1.21.4 2.18.26 2.18.55a.84.84 0 0 1-.76.85zm-17.59-28.64a20.37 20.37 0 0 0-6.95-.27c-1.54.2-1.41.83-.33 1.25a41.39 41.39 0 0 1 6.29 3.33c1 .66 8.09 6.35 8.09 6.35a8.75 8.75 0 0 1 1.48-2.87 23.12 23.12 0 0 1 2.07-2.23 20.34 20.34 0 0 0-4.79-3.58 26.45 26.45 0 0 0-5.86-1.98zm-4.06 1.32l-1.27-.46a1.09 1.09 0 0 1 .34-.43 4.6 4.6 0 0 1 1.21 0zm2.22.26a2.71 2.71 0 0 0-.18.77l-1.12-.53a1.47 1.47 0 0 1 .14-.74c.26-.36.36-.45 1-.29.45.1.24.46.14.81zm2.15 1a3.21 3.21 0 0 0-.19.93l-1.08-.59a3.89 3.89 0 0 1 .21-.69 1.78 1.78 0 0 1 .54-.71 2 2 0 0 1 1.06.21c.02.03-.4.42-.56.87zm2.06 2.4l-1.3-.81a3.69 3.69 0 0 1 .23-1 2 2 0 0 1 .78-.93c.17-.1 1 .21 1.08.54 0 .16-.35.55-.51.94a7 7 0 0 0-.3 1.23zm1 1a3.5 3.5 0 0 1 .37-1.47c.31-.53.6-1 .87-1.12s1.63 1 1.63 1a2.91 2.91 0 0 0-1.32.87 2.67 2.67 0 0 0-.32 1.52zm3.52 1.38c-.24.42-.57 1.15-.57 1.15a2.84 2.84 0 0 1-.63-.91 1.14 1.14 0 0 1 0-1 1.67 1.67 0 0 1 1.11-.92 1.87 1.87 0 0 1 1.2.26 17.77 17.77 0 0 0-1.06 1.4z"/><path d="M605.09 371.55h0 0 0zm16.36-13.11c1.56 2.45 2.25 3.77 3.56 4.7a3.73 3.73 0 0 0 3.32.66 1.92 1.92 0 0 0 1.2-2.43c-.48-2.32-1.69-3.61-2.72-3.94-1.19-.38-2.31.25-1.81 1.27a.9.9 0 0 0 1.28.38 1.09 1.09 0 0 0 .37-.59 1.49 1.49 0 0 1 .86 1.49 1.27 1.27 0 0 1-1.7 1.3 3 3 0 0 1-2.22-2.77c-.19-1.59.62-2.77 2.58-2.2 3 .89 3.64 3 4.17 5a5.36 5.36 0 0 1-1.7 5.65l5.16 4.57c1.77 1.34 4.62 3 4.62 3l-2.49-8a35.26 35.26 0 0 0-4-7.62c-1.64-2.24-4.71-4-6.84-5.37-2.3-1.47-11.53-6.18-11.53-6.18s2.67 3 3.66 4.47c1.27 1.83 2.85 4.44 4.23 6.61zm-48.24-7.69a10.53 10.53 0 0 1 1.9 3.76 26.56 26.56 0 0 1 2-3.15l3.08-3.76a32.77 32.77 0 0 1 3-3l-2.75.46c-.47.06-2.7.49-3.82.72s-7.26 2.75-7.26 2.75a5.92 5.92 0 0 1 3.85 2.22zm1.81-2.89l.82 1.12.75-1.05c.13-.22.61-.81.61-.81l1.76-.45-2.35 2.87c-.18.25-.69 1.1-1.12.58l-.92-1.15a9.45 9.45 0 0 0-.83-.76zm-15.45 4.24h0 0 0zm1.55 8.02a18.76 18.76 0 0 1-1.13-3.67 7.4 7.4 0 0 1 .81-4.31 36.68 36.68 0 0 0-6.88 3.82c-2.17 1.61-6.46 5.78-6.46 5.78l6.59-1 7.07-.62zm-5.47-3.74l-.06.8h-1.15l.63-.52c.16-.12.58-.28.58-.28zm-2.26 1.89a9.58 9.58 0 0 1 3.29-.09v-1.17c0-.62-.1-1.05.2-1.31a5.69 5.69 0 0 1 1-.59l-.1 1.71a13.3 13.3 0 0 0 .28 2l-3.22.21a21.22 21.22 0 0 0-3.17.62s1.08-1.26 1.72-1.38zm-30.49 20.94a24.78 24.78 0 0 1 3.08.7 16.2 16.2 0 0 1 3.32 1.79c1.29.9 3.38 1.06 3.09.81a12.57 12.57 0 0 1-2.91-4.63c-.59-2 0-4.11-.08-4.17s-5.58 3.86-6.11 4.26-.97 1.19-.39 1.24zm2.73-1.56l1.54.34c.29.1.43.27.4-.06s-.2-.79-.2-1.15c0-.56.72-.8.72-.8a14 14 0 0 0 .35 2.26c.42 1.46 1.76 2.79 1.1 2.31a12.29 12.29 0 0 0-3-1.76 10.25 10.25 0 0 0-1.74-.4c-.06-.2.43-.51.83-.74zm42.59-11.09c-1.42 0-2.54.82-2.57 1.87s.33 2 1.55 2a1.12 1.12 0 0 0 1.28-1.22c0-.26 0-1-.72-1.05-.4-.05-.65 0-.59.6 0 .4.79.18.16.61-.2.06-.42-.06-.64-.41a.81.81 0 0 1 .19-1.12 1.41 1.41 0 0 1 1.75 0 2.11 2.11 0 0 1 .33 2.4c-.85 1.59-3.46 1.71-5.3 1.84a16.67 16.67 0 0 1-6.27-1A49.4 49.4 0 0 0 545 369c-6.58-.43-10 .11-12.23 2a7 7 0 0 0-2.4 6.15c.27 2.17 2.35 4.45 4.26 5.51a31.68 31.68 0 0 0 3.5 1.57 13.28 13.28 0 0 1-3.75.88c-1.94 0-4.07-1.46-5.12-2.05a23.44 23.44 0 0 0-3.47-2.07 9.61 9.61 0 0 0-3.1-.77 7.07 7.07 0 0 0-3 .42c-2.29.92-7.27 4.48-9.14 5.46s-9.91 5.53-12.77 7a56.83 56.83 0 0 1-6.52 2.83 32.41 32.41 0 0 0 6.95.46c3.58-.2 10.82-.83 14.25-1.45a91.63 91.63 0 0 0 10.46-2.94 15.8 15.8 0 0 0 3.17-1.38s-2.49-2.48-5-1.21a2.49 2.49 0 0 0-1.28 2.24l-1.44.42a3.47 3.47 0 0 1 1-3.26c1.61-1.35 4.51-.78 5.54-.38a5.9 5.9 0 0 1 2.11 1.39 1.43 1.43 0 0 0 1.31-.19c.37-.26 1-.39-.63-1.63a8 8 0 0 0-4.31-1.79c-1.93-.32-4.74.23-6.07 1.55a4 4 0 0 0-1.22 3.68 2.75 2.75 0 0 1-1-.73 3.28 3.28 0 0 1-.88-2.31c0-.66.08-1.4 1.52-2.55s3-1.61 5.67-1.31a16.47 16.47 0 0 1 5.63 1.56 17.29 17.29 0 0 1 3.44 2.81l6.37-1.88c2.87-.88 6.1-2 7.8-2.77 1.55-.68 3.24-1.54 3.24-1.54s-3-.76-6.39-1.84c-2.34-.75-4.72-1.1-5-3.58a3.75 3.75 0 0 1 2.76-4.09c1.17-.45 4.37-.6 7.09-.38 2.41.2 5 .7 6.27 1.52 1.73 1.16 1.4 2.38.61 2.84s-5.76-1.36-7 .18S549 382 549 382l7.73-3.88c1.12-.49 5.48-2.44 8-3.26s5.12-1.71 7.49-2.27 7.27-1.08 7.27-1.08l-5.12-2.41c-3.07-1.5-4.74-2.57-6.15-2.54zm-71.31 28.78c-.81 0-.85-.15-.14-.56s2.23-1.11 2.23-1.11a1.36 1.36 0 0 0 0 .78 1.32 1.32 0 0 0 .48.69l-2.57.2zm4.74-.59c-.39 0-1.06 0-1.28-.72s.35-1 .67-1.3a17.54 17.54 0 0 1 1.76-.94 3.31 3.31 0 0 0 0 1.62 4 4 0 0 0 .94 1.19 14.63 14.63 0 0 1-2.09.15zM506 394a1.91 1.91 0 0 1-1.63-1.1 1.7 1.7 0 0 1 .35-1.65 6.56 6.56 0 0 1 1.84-1.14 3.27 3.27 0 0 0 .09 2 4.17 4.17 0 0 0 1.5 1.53 6.65 6.65 0 0 1-2.15.36zm7-1.36a10.61 10.61 0 0 1-2.27.24 2.52 2.52 0 0 1-2.14-1.43 2.29 2.29 0 0 1 .48-2.33 6.5 6.5 0 0 1 1.61-1.13 8 8 0 0 0 .37 2.61 6.38 6.38 0 0 0 1.95 2.05zm54.62-39.84a3.31 3.31 0 1 0 3.36 3.26 3.33 3.33 0 0 0-3.36-3.26zm0 5.69a2.45 2.45 0 1 1 .03 0zm-14.44-56.64a20 20 0 0 1-10.1-3.43 15.58 15.58 0 0 1-7.16-9.77c-1.22-4.61-1.1-9.94.47-13.76 2.53-6.19 4.86-12.73 5.14-17s-.8-9.21-1.44-12.11c-.72-3.26-2.2-8-2.28-8.22l-.31-.77-.54.63a10.37 10.37 0 0 1-2.66 2.25c-1.51.73-3.16 1.37-5.3.36s-3.27-4-3-6.13a5.13 5.13 0 0 1 3.52-3.85 5.6 5.6 0 0 1 4 .23 6.49 6.49 0 0 1 2 1.58l-.41-1.42c0-.07-.68-1.9-4.09-5-3.74-3.45-8-6.17-16.8-9.38-2-.73-8.41-2.1-8.41-2.1s2.9 1.47 3.63 1.94c4.29 2.79 5.67 5.36 7.72 8.18a44.87 44.87 0 0 1 5.4 10c.56 1.64 1.2 3.92 1.78 6.32a47 47 0 0 1 1.17 6.74l.46 5.47a4.53 4.53 0 0 1 1.91-2.91 6.89 6.89 0 0 1 3.06-1 6.1 6.1 0 0 1 3.88 1 6.47 6.47 0 0 1 2.72 4.93c.13 3.45-1.11 5.75-1.9 9.59-.29 1.41-1.93 6.64-2.37 7.95a40 40 0 0 0-2.21 8.9c-.34 2.41-.27 5.35 1.28 10.14 1 3.15 3.6 7 7.78 10.49 3.48 2.9 11.84 6.48 11.84 6.48s-1.57 1.18-2 1.62-1.76 1.93-1.76 1.93a19.83 19.83 0 0 0-2.37-2.79c-1.21-1.06-2.62-3.1-6.26-4.64a14.66 14.66 0 0 0-9.92-.58c-3.81 1.1-6.13 2.75-8 6.34-1 2-1.91 3.72-3.43 10a51.23 51.23 0 0 0-1.61 9.3c-.1 1.34-.18 4.34-.31 5.35a14.61 14.61 0 0 1-1.52 5.78 8.17 8.17 0 0 1-4 4 5.33 5.33 0 0 1-5.29-.27 6.78 6.78 0 0 1-1.75-4.77 11.81 11.81 0 0 1 .34-3.8c.28-1.1 1.12-3.38 1.12-3.38s-1 1.27-1.2 1.64c-.35.58-1.4 2.11-2.85 4.24a26.46 26.46 0 0 1-2.22 3l-.82.95.66.53a12.59 12.59 0 0 1 3.28 4.59 15.38 15.38 0 0 1 .5 9.34c-.57 2.31-2.71 5.2-4.42 7.53-.74 1-1.43 1.94-1.91 2.7-1.31 2.2-5.4 9.58-7.25 13.25a17.28 17.28 0 0 1 0-2.66 2.09 2.09 0 0 1 1.48-1.57l.74-.19-.46-.6a4 4 0 0 1-.75-3.18c.2-.67 1.73-1.4 2.76-1.71l.74-.22-.51-.59c-.71-.81-1.76-2.42-1.57-3.24s2.12-1.63 3.44-2l.75-.22-.51-.59c-.62-.73-2.16-2.9-1.75-4.16s2.43-1.68 3.17-1.77l.83-.09-.47-.68c-.66-1-1.46-2.63-1.18-3.27s1.86-.93 2.37-1h.52l-.75-8.18-.79 1.36a81.27 81.27 0 0 0-6.79 16.51c-2.66 9.46-3.84 15.39-3.84 25.51v2l.94-1.82c.07-.12 6.45-12.39 9.28-17.26s7.39-11.93 11.21-16.19l7.87-8.14c3.52-3.69 10.35-10.66 13.65-13.38l.32-.27-.2-.36c0-.05-2.75-5-2.41-8 .38-3.41 1.44-5.86 3.14-7.27a6.13 6.13 0 0 1 7.56-.57 3.34 3.34 0 0 1 1.26 2.89 6.64 6.64 0 0 1-2 4.75 4.61 4.61 0 0 1-2.68 1.81c-1.09.12-2 .12-2.32-.33a2.4 2.4 0 0 1-.35-3.11c.81-1.32 2.62-.68 2.74-.68s-1.73.57-2 1.07a1.73 1.73 0 0 0 .39 1.73 1.9 1.9 0 0 0 1.62.2 8.35 8.35 0 0 0 2.1-2.13c.62-1 1.45-2.45-.65-4.27-1.11-1-3.53-.4-4.91.75a6.24 6.24 0 0 0-1.77 3.79c-.29 3.43.58 4.3 1.09 4.7a4.2 4.2 0 0 0 4.43.6c2-.7 10-8.76 10-8.76s-1.18-6.07-4.86-8.33c-2.89-1.77-6.48-2.27-10.49.57a15.21 15.21 0 0 0-5.06 8c-.69 2.31-.56 3.91-.72 6.39-.14 2.16-.1 4.47-.3 5.94-.13 1-.8 3.49-2 3.55-.85.05-1.2-1.48-1.34-2.23a27.18 27.18 0 0 1 .34-7.75c.61-3.68 1.89-10 5-13.64a11.81 11.81 0 0 1 10-4.42 13.82 13.82 0 0 1 9.26 5.25 18.68 18.68 0 0 1 2 5.13s5.78-5.31 6.6-6.26c.3-.34 9-10.52 9-10.52a23.75 23.75 0 0 1-8.96.92zm-20.7-69.37h0a6.75 6.75 0 0 1 2.79.53 3.26 3.26 0 0 0-3-1.68c-1.67 0-3.35.46-4 1.37a3.62 3.62 0 0 0-.47 4.07 4.55 4.55 0 0 0 4.1 2.51 5.22 5.22 0 0 0 3.74-2.69c.37-.88.33-2.05-.65-2.33a2 2 0 0 0-2.51 1.45c-.14 1-.71 1.71-1.74 1.51a1.66 1.66 0 0 1-1.22-1.15 2.79 2.79 0 0 1 .46-2.37 3.14 3.14 0 0 1 2.5-1.22zM509.8 338.8a3.1 3.1 0 0 0 1.48-2.18c.16-.88.2-3.34-.92-3.77a3.81 3.81 0 0 0-4 1.74 7.86 7.86 0 0 0-.91 4.71c.05 1.29.84 4.05 2.61 4.11s3.75-.71 5.18-3.41a20 20 0 0 0 1.92-6.88 75.85 75.85 0 0 1 1.07-9.72 75.07 75.07 0 0 1 2.16-8.43 56.65 56.65 0 0 1 2.53-5.27l-4.11 4.58a98.12 98.12 0 0 0-5.9 8.16c-1.61 2.7-4.63 9.82-4.63 9.82a6.49 6.49 0 0 1 3.36-.82c2.57.09 2.74 1.73 2.87 2.87a6 6 0 0 1-1.63 4.64 1.57 1.57 0 0 1-2.78-.9 2 2 0 0 1 .61-1.95c.27-.25 1.21-.61 1.38.18.26 1.27-.89 1-1 1.53h0c-.09.46.15 1.19.71.99zm6.71-22.22c.36-.53.58-.82.58-.82s-.31 1.08-.36 1.33c-.1.46-.37 1.31-.37 1.31a1.13 1.13 0 0 0-.34-.31 1.46 1.46 0 0 0-.53-.1s.66-.88 1-1.41zm-2.37 3.16a6.45 6.45 0 0 1 .73-.86c.36-.36 1.15.27 1.15.46a5.23 5.23 0 0 1-.36 1.06l-.43 1.05s-.36-.2-.73-.43-1-.46-1-.46a9.21 9.21 0 0 0 .64-.82zm-1.47 2.5a1.22 1.22 0 0 1 1.23-.13.84.84 0 0 1 .6.87 10.93 10.93 0 0 1-.44 2.2 4.41 4.41 0 0 0-1-.64 2.33 2.33 0 0 0-1.44-.19 6.23 6.23 0 0 1 1.05-2.11zm-.82 6.15a10.79 10.79 0 0 0-1.9-.25s.54-1.62 1.46-1.95a1.62 1.62 0 0 1 2.07.74 5.1 5.1 0 0 1 0 2.35 5.28 5.28 0 0 0-1.63-.89zm-6.48-89.97c-1.31-.43-1.27-2.87-4.33-5.89a9.83 9.83 0 0 0-7.27-3.25c-3.49 0-6.95 2.65-8.87 6.68-.48 1-1.43 4.19-1.43 4.19a16.71 16.71 0 0 0 2.85-.35c.2-.2.52-2 .77-2.7a8.36 8.36 0 0 1 2.87-3.94c1.66-1.47 4.77-1.39 6.35-1a9 9 0 0 1 4.31 3.79 9.66 9.66 0 0 1 .68 2l-3.2-.6a4.15 4.15 0 0 0-4.29-2.71 4.67 4.67 0 0 0-4.6 3.07 10.06 10.06 0 0 0-.46 1.88l3.57-.2a55.35 55.35 0 0 1 6.45.32 27.76 27.76 0 0 1 8.39 2.44 33.56 33.56 0 0 1 6.26 3.85c1.58 1.25 4.8 3.49 6.48 5.17a52.41 52.41 0 0 1 5.73 6.78c1.42 2.17 3.09 4 4 6.74a40.08 40.08 0 0 1 1.58 5.44c.16 1.11.36 2.89.36 2.89l2.27-8.42c.86-2.99 2.64-7.8 2.23-10.23-.45-2.74-1.92-4.07-4.92-4a3.68 3.68 0 0 0-3.57 4.52c.23 1 1.55 3.15 3.5 2.29a1.15 1.15 0 0 0 .82-1.25 1.85 1.85 0 0 1-1.17.14 1.16 1.16 0 0 1-1-.92c0-.24-.11-.89.9-1.29s2 .51 2.19 1.66a2.38 2.38 0 0 1-1.65 2.5 3.93 3.93 0 0 1-3.68-.73 8.55 8.55 0 0 1-3.4-5.57c-.46-2.54-.84-8.55-1.34-10.49a54.83 54.83 0 0 0-2.46-7.75 43.85 43.85 0 0 0-4.57-8.28 35.46 35.46 0 0 0-4.92-6.27 24.18 24.18 0 0 0-17.9-5.42 27.14 27.14 0 0 0-10.36 3.49 39.11 39.11 0 0 0-9.05 7.59 57.57 57.57 0 0 0-4.41 6.63 22.13 22.13 0 0 1-7 7.41 8.51 8.51 0 0 1-4.56 1.18 7.8 7.8 0 0 1-4.38-1 3.21 3.21 0 0 1-1.36-2.71 3.84 3.84 0 0 1 3.24-3.31 2.83 2.83 0 0 1 2.74.71 1.68 1.68 0 0 1-.22 2.13 1.55 1.55 0 0 1-1.84.17.67.67 0 0 1-.27-.92s1.88 1.21 1.81-.54c0-.38-.87-1.47-2.35-.6a1.78 1.78 0 0 0-1 1.92c.19 1.22 1.17 1.74 2.38 1.9a3.35 3.35 0 0 0 3.53-1.56 3.8 3.8 0 0 0-.2-3.84 3.6 3.6 0 0 0-3.16-1.38 17.93 17.93 0 0 0-6.91 1.48 64.1 64.1 0 0 0-7.74 3.85c-2.3 1.32-7.37 4.05-10.17 5.27s-10.27 4.67-12.38 5.63a69.47 69.47 0 0 1-6.51 2.63 104.4 104.4 0 0 0 10.5 1.36c4.28.4 9 .89 13.73.14h0a63.31 63.31 0 0 0 9.69-2.5s-1.64-6.51-8.28-4.9c-4.67 1.13-3.51 5.13-5.67 5.34-1.67.17-2.18-.08-2.5-.77-.41-.87.39-2.5 1.87-4.08a10.72 10.72 0 0 1 6.76-3.35c4.63-.51 7.33 1.12 8.61 3.06a11 11 0 0 1 1.84 3.81s2.73-1.12 5.33-1.85a86.64 86.64 0 0 1 8.92-2.37c3.09-.52 8.06-1.91 10.76-2.27s4.91-.53 5.33-.85 0-1.42.17-2.8a15.84 15.84 0 0 1 3.06-7.61c2.37-3.22 4.38-5.79 9-6.38a13.91 13.91 0 0 1 11 3.09 18.43 18.43 0 0 1 4.38 5.8 7.06 7.06 0 0 1 .26 5.79c-.28.55-.8.54-2.12.12zm3.12-10.93c-2.3-3.26-7.77-6.86-12.05-7.52s-8.73 1.6-11.63 3.87a32 32 0 0 0-6.57 7.62c-1.79 2.66-4.3 6.18-6.8 6.74-2 .44-.34-2.75.49-3.88a90 90 0 0 1 6.71-8.11c2.36-2.5 4.55-5.16 8.21-7.2a16.91 16.91 0 0 1 13-1.28c6 1.78 9.58 5.88 11.89 8.94a53.6 53.6 0 0 1 4.73 7.78 19.83 19.83 0 0 1 2.1 6.34c.19 1.59 1 6-2.1 3.52-1.42-1.15-1.3-2.75-2.3-6.08a40.81 40.81 0 0 0-5.68-10.74zm-47.7 3.51c2.17 2.28 1.2 5.91 1.2 5.91a44.06 44.06 0 0 0 4.73-5.36c1.83-2.57 4-5.86 5.94-8.11a19 19 0 0 1 3.08-2.91l-10.64 4.05a74.91 74.91 0 0 0-11.69 5.52 13.26 13.26 0 0 1 4.44-.55 4.77 4.77 0 0 1 2.94 1.45zm8.88-7.52h0c.3 0 .63.16.53.46a3.82 3.82 0 0 1-.72 1 1.78 1.78 0 0 0-.2-.52 2 2 0 0 0-.63-.37 3.43 3.43 0 0 1 1.02-.62zm-1.81 1h0c.46 0 1 .69 1 1.22a2.65 2.65 0 0 1-.69 1.15 2.82 2.82 0 0 0-.46-1.15 3.27 3.27 0 0 0-1.06-.69 2 2 0 0 1 1.21-.53zm-1.26 2.11a1.91 1.91 0 0 1 .24 2.3 3.57 3.57 0 0 0-.75-1.47 2.58 2.58 0 0 0-2.23-1 2.25 2.25 0 0 1 2.74.17zm-3.21.79a1.77 1.77 0 0 1 1.65.82 2 2 0 0 1 .37 1.64 7 7 0 0 1-1.56 1.95 3.83 3.83 0 0 0-1-2 13.59 13.59 0 0 0-2-1.57 8.64 8.64 0 0 1 2.54-.84zm58.19 80.23a12.25 12.25 0 0 1 7.31-5.27c6.48-1.65 9.18-.2 9.18-.2a30 30 0 0 1-5.63-7.23 27.65 27.65 0 0 1-2.52-8.69zm7-10.39c.16-.26.59-1.31.59-1.31a16.91 16.91 0 0 0 .59 1.68c.17.26.17.36-.09.42l-1.85.37c-.05.03.57-.89.74-1.16zm4.51 2.37l-3.42.7-3.08.62.71-1.16 3.34-.63c1.09-.23 1.18-.35.79-1.23l-1.78-3.7.38-1.14 1.38 3.32c.38.63 1.66 3.22 1.66 3.22zM186.4 418.26h0 0 0zm25.73-46.71h.01 0-.01zm45.53-19.45h0 0 0z"/></g><path d="M359.54 613.38h0c.62 1.45 4.24 7.47 4.24 7.47v-2.33c0-.63.16-3 .33-5.44V613l.36-4 .56-3.79.69-3.95.59-3.19c.13-.53.33-2.4.33-2.4-.36.85-5.5 9.71-7 12.21s-.73 4.12-.1 5.5zm-44.24-23.24h0c-2.9-3.75-5.66-5.86-8.72-6.28a41.14 41.14 0 0 0 5.1 5.76c6.38 6.38 14.15 7.24 21 3.62 5.67-3 11-5.83 14.45-15.51a17.94 17.94 0 0 1 5.24-7.5c-2.57.43-8 2.57-8.49 6.52s-.14 7.07-3.36 8.26a11.7 11.7 0 0 1-7.54 0c5.86.16 7.74-.86 9.09-5.73a7.92 7.92 0 0 1-5 3.46c-6.55 1.87-14.55 2.63-19.33 3.06 2.47 0 3.07.66 3.56 1.21 1.15 1.29 3.09 3.86 6.22 3.63a7.18 7.18 0 0 1-5.33.72c-2.6-.92-.89-2.44-2.34-2.93a2 2 0 0 0-2 .59c-.4.6.07 1.32.46 1.65 5.66 4.24 13.5 1.35 15.44-1.75-2.83.4-6.42.4-7.74-1.61a1 1 0 0 1 .46-.92c1.62-1.09 3.72-.76 5.53-.4a21.57 21.57 0 0 0 7.57.79 46.88 46.88 0 0 1-5.39 4.22c-7.62 5.13-15.72 3.26-18.88-.86zm-9.98-8.85c4.19 2.37 12.48 3.52 16 3.22a69.3 69.3 0 0 0 7.47-1.21s-9 .69-11.09-.33c-2.34-1.12-2.47-2.47-3.89-2.47a.91.91 0 0 0-.88 1.31s.13-.59.55-.69a.91.91 0 0 1 1.09.6c.2.46-.1.88-.66.95-1 .1-2.53-1.65-3.35-2.17-2.31-1.48-3.43-.89-3.69-.3s.13 1 .39 1c.56.13.79-.06.76-.23-.13-.56-.79 0-.76-.53 0-.23.5-.69 1.19-.39a1.13 1.13 0 0 1 .62 1.38c-.19.43-.82 1-2.46.13a1.81 1.81 0 0 1-1.06-1.74c0-.36.2-1.25 1.71-1.42 2.24-.23 4.45.33 8.33 1.55 2.6.82 9.65 2.27 14.71 1.78 3.76-.36 8.93-2.67 13.6-7.84 2-2.17 7-6.84 7-11.32 0-2.57-.63-4.21-2.24-4.8a4.71 4.71 0 0 0-5.73 1.67l-3.32 5.5s2.73-1.41 4.31-.43c1.28.79 1.48 2.9-.59 5.14a23.41 23.41 0 0 1-5.57 4.31c-2.27.95-2.53-.1-2.43-.53.33-1.18 1.91-.06 1.84-1.28s-2-1.58-6.19 1.38A27.06 27.06 0 0 1 319 578s8.36 1.61 13.69-.17c6.06-2 8.49-4.93 11.42-7.47s5-5.4 4.87-8.29c-.13-2.17-2-1.88-2.7-1.62s-1.44 1.65-.85 2.34a.84.84 0 0 0 1.48-.33 1.08 1.08 0 0 0-.56-1.08s1.42-.4 1.71.89a2 2 0 0 1-1.31 2.13 2.63 2.63 0 0 1-2.54-.65 2.73 2.73 0 0 1-.92-2.9 4 4 0 0 1 4.61-2.34c1.12.27 2.3 1.29 2.1 4.48s-2.6 5.86-4.77 8.16h0c-2.4 2.57-6.55 6.91-12.14 8.69-4.18 1.32-9.25 1.06-13.17.23-2.07-.43-5.07-1.35-7.47-1.91a59.66 59.66 0 0 1-6.68-1.41 42.82 42.82 0 0 1-5.7-2.24s1.93 4.9 5.25 6.78zm55.4-2.41c-4 .14-6.19 3-7.57 6.32-.36.93-.72 2.77.4 3.3.92.42 3.52-.23 4.6-1.72s-1.67-2-1.51.14c-1.15.72-2.07.72-2.6.33s.95-4 3-5.5 4.58-2 5.4-1c1.45 1.74-3.23 8.16-5.3 11.42-.89 1.42-4.41 4.84-5.92 4.21-1-.39-2-3.35-1.78-7.8.26-6.55 5.13-12.37 9-13.56 5.24-1.61 7.18 4.81 7.18 4.81l.16-.43-.39-2.93-1-7.57c-.13.06-.26.16-.39.23a51 51 0 0 0-7.24 4.67c-7.57 5.8-9.88 11.69-8 29.76a39.71 39.71 0 0 0 6-5.86c3.89-5.3 6.16-8.33 9-14 1.24-2.94-.4-4.88-3.04-4.82zm3.13-20.37c0-.36 0-.69-.07-1s0-.63 0-1l-.23-.2c-1.55-1.48-4.71-3.35-7.27-1.84a3 3 0 0 0-1.06 3.72 3.48 3.48 0 0 0 3.66 2.27 6.6 6.6 0 0 0 3.12-.89c-4.61.37-6.48-2.1-4.77-3.81.86-.93 2.37-.47 3.69 0h0a6.5 6.5 0 0 1 2.93 2.75zm-13.17-.43l2.83 7.24c1.05 2.3 2.77 3 4.64 1.78a29.16 29.16 0 0 1 5.9-2.73v-.43l-.1-3.32a7 7 0 0 1-5.17 4.14 5.67 5.67 0 0 1-5.37-2.7 12.45 12.45 0 0 1-2.07-8.16c.33-3.13 2.6-3.95 5.07-3.49 3.82.69 5.3 2 7.24 4.81l-.13-3.36a21.22 21.22 0 0 0-17.68-2.3h0a22.33 22.33 0 0 1 4.84 8.52zm13.37 9.68a1.46 1.46 0 0 0 .19-.07l-.16-2.27c-13.17 4.45-18 11-18.53 25.12-.13 3.62-.46 9.67-2.6 12.44s-5.8 3.92-9.38 4.31c-5 .53-16.86-2.43-22.55-11 6.88 4.48 9.35 5.11 12.24 5.63a19 19 0 0 0 9.35-.33c4.45-1.48 10.6-3.85 10.8-13.33-8 10.8-15.34 13-24.26 9.91-8.13-2.83-15.17-11.32-19.26-23.8-.26 4.25 1.55 16.13 12.12 26.2h0c8.82 8.43 19.12 10.64 28.5 7.64 5.83-1.88 6.19-3.42 6.26-9.41a88.29 88.29 0 0 1 1.15-15.08c1.91-10.07 12.34-14.72 16.13-15.96zm90.55 31.01c0 .16 0 .32.06.52l1.78 9.32.4 3.75.16 1.88.26 4.21a42.62 42.62 0 0 0 3.46-6.32 4.71 4.71 0 0 0-.69-4.38c-.59-1.05-4.91-8.13-5.43-8.98zm21.59-21.99c-.53-3.95-5.92-6.12-8.49-6.52a18.15 18.15 0 0 1 5.23 7.51c3.49 9.67 8.79 12.5 14.45 15.5 6.82 3.62 14.58 2.76 21-3.62a44.83 44.83 0 0 0 5.1-5.76c-3.06.43-5.83 2.53-8.72 6.28-3.16 4.12-11.29 6-18.8.89a46.14 46.14 0 0 1-5.39-4.21 23.36 23.36 0 0 0 7.57-.79c1.81-.36 3.88-.66 5.53.4a1 1 0 0 1 .46.92c-1.32 2-4.91 2-7.74 1.61 1.94 3.09 9.81 6 15.44 1.74a1.31 1.31 0 0 0 .46-1.64 2.1 2.1 0 0 0-2-.59c-1.48.49.23 2-2.34 2.93a7.15 7.15 0 0 1-5.33-.73c3.13.26 5.07-2.3 6.22-3.62.49-.56 1.12-1.18 3.56-1.22-4.78-.39-12.81-1.18-19.33-3.06a7.91 7.91 0 0 1-5-3.45c1.35 4.87 3.26 5.89 9.09 5.72a12 12 0 0 1-7.57 0h0c-3.24-1.21-2.87-4.34-3.4-8.29zm-4.84-18.93c-1.61.59-2.2 2.24-2.24 4.81-.06 4.47 5 9.15 7 11.32 4.68 5.2 9.84 7.47 13.6 7.83 5.06.5 12.11-.95 14.71-1.77 3.88-1.25 6.09-1.78 8.33-1.55 1.51.16 1.68 1 1.71 1.42a1.83 1.83 0 0 1-1.05 1.74c-1.65.86-2.28.3-2.47-.13a1.09 1.09 0 0 1 .62-1.38.8.8 0 0 1 1.19.39c0 .49-.66-.07-.76.53 0 .16.2.39.76.23.26-.07.69-.33.39-1s-1.38-1.19-3.68.29c-.83.53-2.34 2.27-3.36 2.18-.56-.07-.86-.5-.66-1a.85.85 0 0 1 1.09-.59c.42.06.56.69.56.69a.92.92 0 0 0-.89-1.32c-1.42 0-1.55 1.35-3.89 2.47-2.07 1-11.09.33-11.09.33a68.2 68.2 0 0 0 7.47 1.22c3.49.3 11.79-.89 16-3.23 3.32-1.87 5.23-6.74 5.23-6.74a44.09 44.09 0 0 1-5.69 2.23c-2.37.73-4.48.86-6.69 1.35h0c-2.4.53-5.36 1.45-7.47 1.91-3.92.83-9 1.12-13.16-.23-5.6-1.78-9.75-6.12-12.15-8.69-2.14-2.3-4.61-4.87-4.77-8.09s1-4.25 2.1-4.48a4 4 0 0 1 4.61 2.34 2.7 2.7 0 0 1-.92 2.89 2.58 2.58 0 0 1-2.53.66 2 2 0 0 1-1.32-2.14c.26-1.32 1.71-.89 1.71-.89a1 1 0 0 0-.56 1.09.83.83 0 0 0 1.48.33c.59-.69-.2-2.08-.85-2.34s-2.57-.56-2.7 1.61c-.2 2.9 2.07 5.86 4.87 8.3s5.4 5.46 11.42 7.47c5.3 1.78 13.69.16 13.69.16a27 27 0 0 1-11.99-4.45c-4.25-3-6.12-2.6-6.19-1.38s1.51.13 1.84 1.28c.1.43-.16 1.48-2.43.53a23.52 23.52 0 0 1-5.57-4.32c-2.07-2.23-1.9-4.34-.59-5.13 1.58-1 4.31.43 4.31.43l-3.32-5.5a4.71 4.71 0 0 0-5.7-1.68zm-8.06 15.9a59 59 0 0 0-7.24-4.67 3.18 3.18 0 0 1-.4-.23l-.95 7.57-.4 2.93.17.42s2-6.42 7.17-4.8c3.82 1.18 8.69 7 8.95 13.56.17 4.48-.79 7.41-1.77 7.8-1.52.63-5-2.8-5.93-4.21-2.07-3.26-6.75-9.68-5.3-11.42.83-1 3.46-.43 5.4 1s3.62 5 3 5.49-1.44.4-2.6-.33c.2-2.14-2.47-1.48-1.51-.13 1.05 1.52 3.69 2.17 4.61 1.71 1.12-.52.75-2.37.39-3.29-1.38-3.32-3.55-6.19-7.57-6.32-2.63-.06-4.34 1.88-2.89 4.77 2.79 5.7 5.1 8.73 9 14a40.18 40.18 0 0 0 6 5.86c1.74-18.03-.59-23.92-8.13-29.71zm-5.24-14.19h0a6.7 6.7 0 0 0 3.13.89 3.44 3.44 0 0 0 3.65-2.27 3 3 0 0 0-1.05-3.72c-2.6-1.48-5.73.4-7.27 1.84a1.14 1.14 0 0 1-.23.2v1c0 .37 0 .69-.06 1a6.45 6.45 0 0 1 3-2.73c1.32-.5 2.83-1 3.72 0 1.6 1.69-.28 4.16-4.89 3.79zm-1.71-4.31c1.94-2.8 3.43-4.11 7.24-4.8 2.47-.47 4.78.36 5.07 3.48a12.49 12.49 0 0 1-2.07 8.17 5.73 5.73 0 0 1-5.37 2.7 7 7 0 0 1-5.16-4.15L456 564h0v.43a26.89 26.89 0 0 1 5.89 2.73c1.88 1.19 3.52.66 4.64-1.77s1.78-4.41 2.83-7.25a22.63 22.63 0 0 1 4.84-8.52 21.31 21.31 0 0 0-17.68 2.3l-.18 3.33zm63.76 19.16c-4.1 12.47-11.1 20.93-19.26 23.76-8.92 3.1-16.22.89-24.25-9.9.19 9.48 6.38 11.85 10.79 13.33a19.09 19.09 0 0 0 9.35.33c2.9-.5 5.36-1.16 12.24-5.63-5.69 8.59-17.54 11.52-22.54 11-3.59-.36-7.34-1.61-9.38-4.31s-2.47-8.82-2.6-12.44c-.56-14.12-5.37-20.67-18.54-25.11 0 .75-.09 1.51-.16 2.27l.2.06c3.82 1.22 14.25 5.89 16.13 15.93a83.5 83.5 0 0 1 1.15 15.08c.06 6 .43 7.54 6.25 9.41 9.35 3 19.69.79 28.51-7.63 10.56-10.06 12.37-21.94 12.11-26.15z" fill="#2e3d4f"/><path d="M554.72 448.25l-14 .74a.54.54 0 0 1-.47-.84l8-11.56a.55.55 0 0 0 .06-.5l-5-13.1a.53.53 0 0 1 .65-.7l13.45 4a.54.54 0 0 0 .49-.09l10.9-8.83a.54.54 0 0 1 .87.4l.37 14a.52.52 0 0 0 .24.43l11.72 7.66a.53.53 0 0 1-.12.95l-13.22 4.68a.55.55 0 0 0-.34.37l-3.64 13.54a.53.53 0 0 1-.94.19l-8.54-11.13a.55.55 0 0 0-.48-.21z" fill="#fccc29"/><path d="M552.72 451.25l-11.17.59-5.12 3.38c-2.79 1.81-11.08 7.67-12.94 8.33-2.59.92-4.82.42-6-1.09a16.27 16.27 0 0 1-2.1-5.79c-.41-2.54-1.31-3.05-2.7-3.35a26 26 0 0 0-6.12 0c-2.7.16-5.59 0-6.68-.63s-2.11-2.36-1.39-3.77c1.18-2.4 4.12-3.28 5.72-3.68 2.11-.53 6.59-.79 8.47-1.93 1.26-.76 2.43-3.2 2.66-4.48a18.17 18.17 0 0 0 .16-5.13l3.31-.2a18.1 18.1 0 0 0 8.49-2.79c2.25-1.39 5.89-4 8-7 2.41-3.5 7.52-12.78 8.56-14.65.89-1.61 4-7.87 7.24-11.88a64.16 64.16 0 0 1 8.76-8.77 75.36 75.36 0 0 1 7.42-5.45l5-2.87s-4.32 1.73-6.76 3.08a43.64 43.64 0 0 0-9.94 6.69 76.91 76.91 0 0 0-7.39 8c-2.67 3.28-7 8.94-8.7 11.67s-5.71 9.73-8 12.34c-3.26 3.68-5.28 4.93-10.12 5.3-3.57.28-4.71-.46-4.71-.46a12.63 12.63 0 0 0 1.51-6.12c0-2.39-1.22-4.12-3.39-4.31a5.31 5.31 0 0 0-5 2.79 5.74 5.74 0 0 0 .59 5.1c.83 1.19 1 1.49 1 1.49s-2.14 2.43-3.13 2.4-2.2-3.69-2.27-4.44a9 9 0 0 1 1.16-5.24 8.87 8.87 0 0 1 5.94-4.27 5.8 5.8 0 0 1 5.21 1.74 7.74 7.74 0 0 1 2.08 4.61 14.67 14.67 0 0 1-.33 4 9.88 9.88 0 0 0 5.33-.72 17.33 17.33 0 0 0 6.45-5.47c1.42-2 3.75-5.92 5.5-8.62s6.09-8.33 7.44-9.94 4-4.81 5.33-6.22a54.67 54.67 0 0 1 7.9-6.78 72.28 72.28 0 0 1 14-6.77 28.45 28.45 0 0 0-6.68 1.86 74.75 74.75 0 0 0-9.31 4.7 35.78 35.78 0 0 0-6.17 4.73c-2 1.94-3 2.64-4.57 4.41s-5.77 6.17-7.44 8.43a160.49 160.49 0 0 1-6.75 8.36 17.66 17.66 0 0 1-6.29 4.84s-.39-4.87-3.95-7.44-9.31-1.91-11.22-1.42-5.71 2.5-7.34 4.74a14.26 14.26 0 0 0-2.24 9.32 6.84 6.84 0 0 0 3.33 5.79 41.83 41.83 0 0 0 3.75 2.17s0 1.64-2.55 4.38c-1.27 1.35-2.29 2.5-10.49 2.14-6.68-.29-14.39-.86-20.79 1-4.18 1.2-12.57 3.44-16.5 5.31a43.54 43.54 0 0 0-10.53 7.25c-1.13 1.18-2.73 2.76-4.28 4.54l.06 34h0 0a37.56 37.56 0 0 0 8.37 6.37 20.26 20.26 0 0 0 11.25 2h0c4.35-.59 7.93-1.35 9.68-1.64s4.84-.37 5.73 1-.14 3.52-1.91 5.13-15.77 11.85-17.61 12.87-4.28 2.08-5.89 1.85-5.8-.76-7.54 0c-3.06 1.38-4.15 3.19-4.54 5.26-.1.46-.2 1-.27 1.55l4.25 3.49a4.91 4.91 0 0 1-.36-2.86 5.54 5.54 0 1 1 4.67 6.28 5.2 5.2 0 0 1-1.05-.26c.66.67 2.06 2.19 2.85 3.06l-.52-.59h0c3.16-.23 8.3-.72 12.08 0 4.74 1 12.41 3 14.29 3.92s9.08 5.13 11.29 6.65 8.69 6 9.35 5.1-.92-2.53-1.45-2.83-2.86-1.32-2.54-2.3 2.67-.6 4.25 0 6.58 2.73 7.18 1.45-1.29-1.91-2.7-2.44-4.31-1.15-5.1-2.24.29-2 1.48-2 6 1.38 7.37 1.35 3.09-.66 1.55-1.71-4.64-.69-7-2.24-1-2.83.69-2.83 6.28 1.42 7.6 1.25 1.94-1.12 0-1.81-5.93-.92-7.08-1.51-2.47-2.44.33-2.83 6.19 1 7.74.69 2.43-.63 2.6-1.48-.5-1.85-1.85-2.21a77.81 77.81 0 0 0-14.74-1.68c-7-.13-21-.89-22.88-1s-4.31-.09-4.64-1.21 1.22-2 4.11-3.59 20.51-10.93 24.06-14.42 5.5-7.37 5.17-11.09-2.2-7.9-6.84-9.25-17.09-.69-20.31-2.5-3.92-5.63-2.11-8 6-5 14.42-6.48 14.91-.92 17.15 1 2.14 5.4 3.16 7.17a5.55 5.55 0 0 0 5 3.2c2.5.06 4.74 0 10.89-2.57s16.62-9.35 19.26-11.29 8.75-6 11.68-7.14c.8-.31 1.81-.78 2.91-1.32l-2.28-3a.55.55 0 0 0-.51-.12z" fill="#ecefef"/><path d="M419.88,300.91a11.55,11.55,0,0,0-2.86,8.65c.13,2.51,2.76,10.08,7.14,11a6.79,6.79,0,0,0,6.32-3,14,14,0,0,0,2.07-8.63c-.06-1.58-.49-3.65-2.63-7a6.14,6.14,0,0,0-10-.95Z" fill="#fccc29"/><path d="M429.78 380h0c-10.24-2.83-17 4.67-20.21 8.3l-.49.56c-8.43 9.28-15.64 5.82-18.34 3.91a14 14 0 0 1-6.22-10.1c-.33-4.31 1.74-8.66 6.12-12.84 8.2-7.83 12.61-8.13 22.52-1.51 3.19 2.14 8.37 4.29 12 2.32 3-1.61 5.3-3.94 5.52-10.47a103.2 103.2 0 0 0-1.07-12.33 101.6 101.6 0 0 1-1.51-14.09 12.75 12.75 0 0 1 3.26-9.08 19.48 19.48 0 0 0 3.59-6.55 11.53 11.53 0 0 0-.33-5.63 19.72 19.72 0 0 1-.69 3.33c-1 3-3.36 5.76-5.53 6.41-3.26 1-5.63.83-7.24-.52a13.63 13.63 0 0 1-3-3.29 9.82 9.82 0 0 0 .43 2.73 8.22 8.22 0 0 0 1.64 2.86l.37.33c1.08 1 2.3 2.17 2.2 4.11v.63c-.13 2.93-.38 11.81-3.45 19l-1.16 2.82c-1.25 3.26-1.71 3.41-4.94 2.85l-.72-.13c-1.88-.33-8.23-1.72-10.47-5.83a6.74 6.74 0 0 1 0-6.16c.2-.42.39-.85.56-1.28 1.61-3.55 2.5-5.86.72-8.06-2.47-3.07-3.32-4.68-1.18-7.28a9.85 9.85 0 0 1 .66-.76c2-2.27 5.66-6.48 4.21-12.87-.59-2.5-1.68-5.89-2.8-9.48-2.27-7.17-4.11-14.94-4.15-19.35v-.16c0-3.86 1.19-12.84 3.72-18.83l2.11-5c-1.32 2.24-2.86 4.94-3.62 6.65-1 2.27-2.57 4.12-4 9.28a84.13 84.13 0 0 1-.63 2.5 19.79 19.79 0 0 0-.46 3.95 39.1 39.1 0 0 0 .69 7.77c.2 1 .36 1.88.56 2.7.82 3.52 4.58 11.59 4.74 16.49.13 4.22-.89 6.68-2.93 10.24a26.65 26.65 0 0 1-5.53 6.38c-1-4.93-2.37-6.35-4.11-7.66s-4.32-1-6.19 0a3.76 3.76 0 0 0-.79 5.63 4 4 0 0 0 4.11 1.61c1.39-.33 1.52 1 1.94 1.51s1.22 1.81-.29 2.28-4.44-1-6.26-2.28-3.16-4.74-2.3-7a7.33 7.33 0 0 1 7.87-4.51c4.38.43 6.61 5 6.61 5 2.7-.95 5-5.43 5.2-9.58s-2.07-10-3.75-17.74-1-12.15-.52-14.55a42.18 42.18 0 0 1 5-12.51c.62-1.05 2.53-3.81 4.24-6.15a47.43 47.43 0 0 0-4.9 5.59C397 269 393.21 276.39 393 283a50.4 50.4 0 0 0 2.83 18l.76 2.47a11.12 11.12 0 0 1-1.18 8.88l-.56.86-.7-.76c-.09-.1-2.33-2.37-6.84-2.27-4.25.07-12.31 2.4-12.31 10.6 0 3.52 1.08 6.22 3.26 8.1 4.8 4.11 13.36 2.86 13.43 2.83l1.15-.17-.2 1.12c0 .27-1.25 6.55-9.18 15.21-1.09 1.18-3.13 2.93-5.66 5.13-8.17 7-21.79 18.73-27 31.5-7.24 17.65-4.74 34.6 6.75 45.4 5.17 4.83 12.87 6.81 20.8 6v-26c0-4 1.75-5.73 5.8-5.73s8.42-.1 12.5-.2h.1s-.06 0-.06-.06a3.21 3.21 0 0 1-.86-2.37c0-2.21 1.28-3.33 3.85-3.33h16.62 3.82a3.62 3.62 0 0 1 2.67 1 3.39 3.39 0 0 1 .82 2.53 3.34 3.34 0 0 1-.89 2.24l4.91.1 8.42.16a5.75 5.75 0 0 1 3 .83c1.56-8.28 1.53-22.07-9.27-25.07z" fill="#ecefef"/><path d="M265.68 449.46l-8.54 11.13a.53.53 0 0 1-.94-.19l-3.64-13.54a.55.55 0 0 0-.34-.37L239 441.81a.53.53 0 0 1-.12-.95l11.76-7.65a.52.52 0 0 0 .24-.43l.37-14a.54.54 0 0 1 .87-.4l10.9 8.83a.54.54 0 0 0 .49.09l13.45-4a.53.53 0 0 1 .65.7l-5 13.1a.55.55 0 0 0 .06.5l8 11.56a.54.54 0 0 1-.47.84l-14-.74a.54.54 0 0 0-.52.2z" fill="#fccc29"/><path d="M380.54 523.42l-.27-1.55c-.39-2.07-1.48-3.88-4.54-5.26-1.74-.79-5.92-.27-7.54 0s-4-.83-5.89-1.85-15.83-11.26-17.61-12.87-2.83-3.75-1.91-5.13 4-1.29 5.73-1 5.33 1.05 9.68 1.64h0a20.26 20.26 0 0 0 11.25-2 37.56 37.56 0 0 0 8.37-6.37 0 0 0 0 0 0 0h0l.06-34-4.28-4.54a43.54 43.54 0 0 0-10.53-7.25c-3.93-1.87-12.32-4.11-16.5-5.31-6.4-1.83-14.11-1.26-20.79-1-8.2.36-9.22-.79-10.5-2.14-2.58-2.74-2.54-4.38-2.54-4.38a41.83 41.83 0 0 0 3.75-2.17 6.84 6.84 0 0 0 3.33-5.79 14.26 14.26 0 0 0-2.24-9.32c-1.63-2.24-5.46-4.28-7.34-4.74s-7.67-1.15-11.22 1.42-3.95 7.44-3.95 7.44a17.66 17.66 0 0 1-6.29-4.84c-1.79-2-4.88-5.83-6.75-8.36-1.67-2.26-5.79-6.62-7.44-8.43s-2.53-2.47-4.57-4.41a35.78 35.78 0 0 0-6.17-4.73 76.18 76.18 0 0 0-9.25-4.75 28.45 28.45 0 0 0-6.68-1.86 72.28 72.28 0 0 1 14 6.77 54.67 54.67 0 0 1 7.9 6.78c1.32 1.41 4 4.61 5.33 6.22s5.66 7.24 7.44 9.94l5.5 8.62a17.33 17.33 0 0 0 6.45 5.47 9.88 9.88 0 0 0 5.33.72 14.67 14.67 0 0 1-.33-4 7.68 7.68 0 0 1 2.08-4.61 5.8 5.8 0 0 1 5.21-1.74 8.87 8.87 0 0 1 5.94 4.27 9 9 0 0 1 1.16 5.24c-.07.75-1.26 4.44-2.28 4.44s-3.12-2.4-3.12-2.4.16-.3 1-1.49a5.77 5.77 0 0 0 .59-5.1 5.31 5.31 0 0 0-5-2.79c-2.18.19-3.4 1.92-3.39 4.31a12.63 12.63 0 0 0 1.51 6.12s-1.14.74-4.71.46c-4.84-.37-6.86-1.62-10.13-5.3-2.32-2.61-6.36-9.61-8-12.34s-6-8.39-8.69-11.67a76.91 76.91 0 0 0-7.39-8 43.64 43.64 0 0 0-9.94-6.69c-2.44-1.35-6.76-3.08-6.76-3.08l5 2.87a73.82 73.82 0 0 1 7.43 5.45 64.16 64.16 0 0 1 8.76 8.77c3.28 4 6.35 10.27 7.24 11.88 1 1.87 6.15 11.15 8.55 14.65 2.08 3 5.72 5.59 8 7a18.1 18.1 0 0 0 8.49 2.79c.83.08 3.31.2 3.31.2a18.17 18.17 0 0 0 .16 5.13c.23 1.28 1.4 3.72 2.66 4.48 1.88 1.14 6.36 1.4 8.47 1.93 1.6.4 4.54 1.28 5.72 3.68.72 1.41-.3 3.11-1.39 3.77s-4 .79-6.68.63a26 26 0 0 0-6.12 0c-1.39.3-2.29.81-2.7 3.35a16.46 16.46 0 0 1-2.1 5.79c-1.15 1.51-3.39 2-6 1.09-1.86-.66-10.15-6.52-12.94-8.33l-3.73-2.41-10.57-.56a.54.54 0 0 0-.45.21l-2.24 2.92c.3.14.6.26.87.37 2.93 1.15 9.05 5.16 11.68 7.14s13.07 8.69 19.26 11.29 8.39 2.63 10.89 2.57a5.56 5.56 0 0 0 5-3.2c1-1.77.92-5.26 3.16-7.17s8.79-2.54 17.15-1 12.61 4.15 14.42 6.48 1.12 6.16-2.11 8-15.67 1.15-20.31 2.5-6.51 5.53-6.84 9.25 1.61 7.64 5.16 11.09 21.17 12.84 24.07 14.42 4.44 2.47 4.11 3.59-2.76 1.12-4.64 1.21l-22.88 1a77.81 77.81 0 0 0-14.74 1.68c-1.35.36-2 1.35-1.85 2.21s1.06 1.21 2.6 1.48 4.94-1.09 7.74-.69 1.48 2.2.33 2.83-5.1.82-7.08 1.51-1.35 1.65 0 1.81 6-1.22 7.6-1.25 3.06 1.28.69 2.83-5.43 1.15-7 2.24.23 1.68 1.55 1.71 6.19-1.35 7.37-1.35 2.31 1 1.48 2-3.68 1.71-5.1 2.24-3.29 1.15-2.7 2.44 5.6-.83 7.18-1.45 3.92-1.06 4.24 0-2 2-2.53 2.3-2.11 1.94-1.45 2.83 7.14-3.59 9.35-5.1a98.92 98.92 0 0 1 11.48-5.87 80.33 80.33 0 0 1 14.15-4.34 66.7 66.7 0 0 1 12-.39h0c-.18.19-.35.39-.53.59l2.86-3.06a5.2 5.2 0 0 1-1 .26 5.54 5.54 0 1 1 4.67-6.28 4.91 4.91 0 0 1-.36 2.86c.84-.89 3.46-2.89 4.12-3.47z" fill="#ecefef"/><path d="M397.52 653.93A30.47 30.47 0 0 0 391 653a12.3 12.3 0 0 1 2.37 1.88.94.94 0 0 0 .2.16c1.81 0 3.65-.06 4.15-.52.16-.14 0-.53-.17-.6zm37.56-148.12c-.5-11.62-.13-23.3-.17-34.95a27.8 27.8 0 0 0-.42-5.24 3.49 3.49 0 0 0-3.33-3.16 49.12 49.12 0 0 0-10.07.07 3.89 3.89 0 0 0-3.33 2.76 17.64 17.64 0 0 0-.39 9.15c.69 3.13 2.83 5.07 5.6 6.45 1.9 1 2.14 2.64 1.87 4.45-.2 1.41-.59 2.93-2.5 3-3.42.07-6.45 1.42-9.51 2.7a6.29 6.29 0 0 1-6.26-.49 10.27 10.27 0 0 0-5.76-1.81c-1.77 0-3.81-.1-4.54-2.51s0-4.67 2.8-6.09a8 8 0 0 0 4.44-5.46 20.33 20.33 0 0 0 0-8.33 4.74 4.74 0 0 0-4.87-3.88 84.55 84.55 0 0 1-8.72 0c-4.55-.26-4.84-.1-4.88 4.48v20.7 20.94c0 2.79.3 5.49 2.83 7.34a35.2 35.2 0 0 0 39.21 3.07c5.43-2.8 8.26-6.62 8-13.17zm-25 3c-2.24 0-3.39-2.93-3.39-2.93s2.44-.33 3.49-.33 3.23.23 3.23.23-1.15 3-3.33 3zm0-7.11c-2.7 0-5.43.29-8.13.29a8.54 8.54 0 0 1 1.28-.19c2.24-.3 3.62-.89 6.82-.89a26.76 26.76 0 0 1 6.55.79 6.65 6.65 0 0 1 1.4.3c-2.64 0-5.3-.29-8-.29z" fill="#c8c9cf"/><path d="M402.85 453.44a16.89 16.89 0 0 0-13.52 4.56c-1.29 1.19-.89 2.87.72 3.16 1.18.23 2.44-.06 3.32.5 4.61-.6 8-2.67 10.24-6.52.56-1 .4-1.55-.76-1.65zm27.46 6.65c1.21-.43 1.35-1.18.32-2.24a13.65 13.65 0 0 0-10.5-4.51h-.92c-.89 0-2-.23-2.43.79-.36.83.46 1.52.82 2.24 1.91 3.85 8.33 5.3 12.71 3.72z" fill="#2e3d4f"/><path d="M380.47 650.17c-.16-.33-.92-6.57-1.12-9.9a125.91 125.91 0 0 1 0-12.74c.13-3.72-.56-6.91-3.46-9.51-1.91-1.71-1.75-3.78.06-5.53a4.85 4.85 0 0 0 1.49-3.88v-31.73a32.59 32.59 0 0 0-3.82-16.82 26.8 26.8 0 0 1-3-11.59c1.71.46 1.58 1.78 1.84 2.77a43.64 43.64 0 0 0 6.45 14.81c3.3 4.64 7.31 8.36 13 9.84 3.16.82 6.22 1.25 8.89-1.48 5.76-5.89 13.63-5.86 19.42 0a6.61 6.61 0 0 0 6.22 2 21.54 21.54 0 0 0 11.23-5.5c5.69-5.29 8.92-11.91 10.69-19.38.27-1.12.3-2.5 1.85-3a11.68 11.68 0 0 1 0 2.67c-1.21 4.74-2.56 9.41-5.36 13.56a15 15 0 0 0-2.47 8.82v34a6.43 6.43 0 0 0 2 5.3 2.69 2.69 0 0 1-.06 4.5c-4.68 3.89-4.15 9.35-4.05 14.32a132.07 132.07 0 0 1-.27 17 6.11 6.11 0 0 1-.3 1.67c1 .17 1.92.37 3 .49a13.32 13.32 0 0 0 3.67-.27c2.6-4.18 4.92-7.26 6.4-12A66.11 66.11 0 0 0 454 604.2c-2.11-9.61-1.52-19.06-.6-28.57.83-8.66 1.94-17.25 1.81-26a23.66 23.66 0 0 0-3.85-12.61c-3.06-4.87-7.54-8.36-11.68-12.18a5.64 5.64 0 0 0-7.31-.3c-6.06 4.78-12.8 8.1-20.57 8.2-8.76.1-16.92-2-23.64-8.2a4.93 4.93 0 0 0-6.81-.39 79.35 79.35 0 0 0-13.17 12.93c-2.76 3.3-3.65 6.92-3.68 11.1 0 5.26.46 10.5.56 15.76.13 6.39 1.45 12.68 2.1 19 .6 5.46 1.16 11 0 16.39a111 111 0 0 0-2.37 22.58c-.06 9 1.29 17 5.83 24.72a30.66 30.66 0 0 0 3.2 4.32 9.17 9.17 0 0 0 1.88 0c1.24-.12 4.77-.78 4.77-.78z" fill="#c8c9cf"/><path d="M409.37 445.05h26c3 0 4.68-1.42 4.68-4.35v-30.34c0-3.13-1.65-4.81-4.25-4.88l-30.08-.39-21.79.39c-3.36 0-4.54 1.19-4.54 4.48v30.58c0 3.29 1.18 4.48 4.47 4.48h25.51z" fill="#8a181b"/><path d="M398.81 482.54c-.7.79-1.35 1.74-.83 2.9.76 1.64 2.47 1.61 3.89 1.87 1.05.2 1.51-.69 2-1.54s.36-2 1.52-2.57c.72 5.13 2 6.91 5.06 6.91s4.71-2.3 5.34-7.57c1.12.4.82 1.35 1.05 2 .43 1.35.82 2.76 2.53 2.73 1.45 0 3.07-.46 3.56-2s-.56-2.61-1.88-3.46c-6.12-4-7.86-14.52-3.12-19.88a1.89 1.89 0 0 0 0-2.67 25.8 25.8 0 0 0-3.23-3.82c-2.86-2.66-6.06-2.56-8.89.14-4.11 3.88-4.11 3.91-1.74 8.88 2.8 5.89 2 10.63-2.54 15.31-.85.85-1.84 1.74-2.69 2.73zM435 451.5a4.81 4.81 0 0 0-5.07-4.71c-5.2.14-10.4.1-15.6.1h-23.44c-3.13 0-5.27 1.77-5.43 4.37a44.3 44.3 0 0 0 .13 8.86c5-7.84 12.41-8.82 20.24-8.72q5.3 0 10.57 0c6.48 0 12.51 1.28 17.21 6.18.27.27.7.6 1 .53.46-.13.53-.66.49-1.15 0-1.85.1-3.69-.06-5.5zm-3.11 67.58c-1.58-.27-2.8.52-4.09 1.18-9.77 5.17-19.84 6.55-30.38 2.54a79.22 79.22 0 0 1-7.4-3.36c-1.35-.69-2.18 0-2.93.89s-.07 1.74.66 2.3a40.74 40.74 0 0 0 24.65 8.76c7.67-.23 14.32-4.22 20.44-9.38.46-.4 1-.89.69-1.55a2 2 0 0 0-1.64-1.38zm8.65-70.01c0-1.95-1-2.67-2.76-2.14-1.29.36-1.38 1.38-1.38 2.53v20 20.21c0 1.25.36 2.17 1.68 2.27s2-.82 2.4-2a4.37 4.37 0 0 0 0-1.15l.06-28v-11.72zm-57.6 9.08v-8.53c-.07-1.51-.66-3-2.57-2.86s-1.42 1.68-1.42 2.8v38.64a9 9 0 0 0 .07 2.08c.3 1.31 1.19 2 2.5 1.48a2.66 2.66 0 0 0 1.48-2.83V469.6v-11.45z" fill="#c8c9cf"/><path d="M411.12 631.48c-1.19 0-3.26.56-3.26 2.24s1.54 2.37 3.16 2.37c1.15 0 3.06-.62 3.06-2.3 0-1.48-.82-2.34-2.96-2.31z" fill="#93a2a2"/><path d="M419.61 654.43a1 1 0 0 1 .85-1.55 10.18 10.18 0 0 0 2.64-.13l7.44-1.09a15.65 15.65 0 0 1 6.15-.43c1.55-.69 2-2.27 2-5.46 0-5.43-.13-10.9.07-16.33.2-4.8.1-9.81 4.41-13.33.89-.72.49-1.48-.3-1.81-2.07-.89-2-2.57-2-4.38l.13-35.87c0-.7.1-1.45-.59-1.85s-1.25.17-1.78.6a22.35 22.35 0 0 1-10.92 5.06c-3.13.43-6.59.86-8.63-2a9.81 9.81 0 0 0-7.4-4.18c-3.23-.33-6.46 0-8.69 3.09a7.52 7.52 0 0 1-6.65 3.29c-5.83-.13-10.67-2.5-15-6.19-.59-.52-1.22-1.12-2-.72S379 572.4 379 573v32.42a9.48 9.48 0 0 0 .1 2.73c.83 2.47.43 4.48-1.68 6.09-.92.69-1 1.45-.09 2.27 3.35 3.09 4.18 7.24 3.88 11.42-.33 4.61-.23 9.19-.26 13.76a19.05 19.05 0 0 0 1.61 8.62c.13.27.3.65.43.85a13.81 13.81 0 0 1 5.17.51c3.72-.2 7.5.88 11.35 1.21a1 1 0 0 1 .56 1.65 5.59 5.59 0 0 1-2.34 1.25 15.22 15.22 0 0 1-2.47.43c2.79 1.28 7.39 2.31 13.94 2.31a37.06 37.06 0 0 0 13.71-2.24 6.69 6.69 0 0 1-3.22-1.88zm-8.82-16.59c-2.83-.1-4.74-1.85-4.74-4.35s1.84-4 4.93-3.92 4.74 1.49 4.74 4.12c0 2.4-2.17 4.25-4.93 4.15z" fill="#c8c9cf"/><path d="M409.57 403.64h10.33c1.32 0 2.21-.46 2.28-1.94s-.79-2.21-2.28-2.21h-20.4c-1.35 0-2.64.27-2.64 2.08s1.19 2 2.6 2h10.11z" fill="#8a181b"/><path d="M416.58 501.7a25 25 0 0 0-6.55-.79 34.56 34.56 0 0 0-6.81.89 8.52 8.52 0 0 0-1.29.19l8.13-.29 8 .29a7.18 7.18 0 0 0-1.48-.29z" fill="#2e3d4f"/><path d="M406.64,505.88s1.15,2.93,3.39,2.93,3.29-3,3.29-3-2.2-.23-3.22-.23-3.46.33-3.46.33Z" fill="#374a5d"/><path d="M427.51 653.08l-1.45.33c-2.63.69-4.67.42-4.74 1.05 0 .26 1.1 1.07 2.68 1.33a11.2 11.2 0 0 0 1.33-.74 14.37 14.37 0 0 1 2.18-1.97z" fill="#c8c9cf"/><g fill="#fff"><circle cx="385.85" cy="653.59" r="1.55"/><circle cx="432.67" cy="653.49" r="1.55"/><path d="M502 627.6c4.35-2.78 9.05-8.16 8.15-9.3-.72-.92-1.26-4.4-1.26-5s-2.15-.66-4.83.05c-1.91.51-4.39 2.58-6.73 3-6 1.1-6.9-.68-8.75.64-2.7 1.93-2.9 12-.63 13 1.62.84 8.84.92 14.05-2.39z"/></g><path d="M467.63 614.53c2.27.43 3.13 2.8 6.06 6.52 18.27 23.3 43.78 2.9 47.73-22.25l.39-3.26-.92 3.19c-1.94 6.65-7.44 12.31-13.07 13.47-4.18.85-7.9 2.2-9.35 3.42-.92.76-1.25.72-2.27-.2-.75-.69-2.37-1.08-4.47-1.08-2.9 0-3.46.23-4.81 2-.82 1.11-1.68 1.87-1.88 1.67s0-.82.47-1.38c.62-.72.62-1 .06-1s-1.18 1-1.68 2.17c-1.12 2.7-4.18 5.47-5.66 5.47-4.57-1.61-5.2-8.76-10.43-9.15-1.81.1-1.81.1-.17.39zm33.38 13c-1.88 0-2.86-1.12-1.88-2.11a2.11 2.11 0 0 1 3.33 1c.16.86-.23 1.15-1.45 1.15zm5.92-13.79c1.22 1 1.16 4.81-.1 7.21-.55 1.08-1.28 1.94-1.64 1.94s0-1.05.69-2.34c1.55-2.76 1.68-5.13.33-6.25-1.19-1-1.28-.46-.23 1.25a2.75 2.75 0 0 1 .23 2.47c-.46 1-.59 1-1-.79a13.47 13.47 0 0 0-.89-2.73c-.61-1.05 1.56-1.68 2.61-.79zm-2.6 4a6.82 6.82 0 0 1 0 2.63c-.16.82-.29.3-.29-1.15s.13-2.09.29-1.46zm-5.07 1c.7-.16 1.39 0 1.52.43a.49.49 0 0 0 .85.23c.33-.3-.09-1-.92-1.68s-1.28-1.35-1-1.61.92-.1 1.48.36c.86.69 1 .63.59-.29-.46-1.19 1.19-2.24 1.85-1.19.23.36 0 .63-.4.63s-.59.46-.36 1 .1.85-.26.62-.6.13-.56.79a24.85 24.85 0 0 1 0 3c-.14 2.3-.83 2.3-2.6-.1-1.32-1.81-1.35-1.88-.14-2.21zm-4.47 1c.23-1.94 2.5-3 2.5-1.15a7.19 7.19 0 0 0 1.45 3c.79 1 1.31 2 1.15 2.17a7.39 7.39 0 0 1-2.8-1c-2.09-1.05-2.47-1.55-2.3-3.03zm-1 6.55l3.82.1-3.29.4c-1.81.23-3.2.69-3.1 1.05s.69.59 1.32.46 2.3-.33 3.75-.49l2.64-.3-2.31.69a27.07 27.07 0 0 0-3.46 1.32c-1.41.72-1.21.76-2.73-.36-2.29-1.76-.84-3.01 3.37-2.88zm-4.18-8.36a3.59 3.59 0 0 1 1.35-1c.2 0 .2.46 0 1a1.58 1.58 0 0 1-1.35 1c-.85-.02-.85-.15.01-1.01zM522 600h0c-4.12 22.68-28.31 46.28-48.92 21.63A33.12 33.12 0 0 0 470 617c-1.35-1.52-3.72-2-3.72-.83 0 .37.73.66 1.65.66 1.31 0 2 .69 3.39 3.42 1.61 3.16 8.26 10.44 9.58 10.44s.36 1.18-2.24 2.53a68.64 68.64 0 0 0-13.79 9.15c-5.63 4.35-11.66 8.27-18.7 9.39v.05a20 20 0 0 1-3.68.32h0a83.32 83.32 0 0 0-3.31-.61h0c-.87-.13-1.67-.25-2.43-.32a15.7 15.7 0 0 0-6.16.43 11.16 11.16 0 0 0-3.06 1.4h0a14.86 14.86 0 0 0-2.21 1.83 7.77 7.77 0 0 1-1.34.88h0a6.89 6.89 0 0 1-1.27.52c-2.83 1.16-7.18 1.52-13.5 1.52-6.58 0-11-.36-13.82-1.61a7.14 7.14 0 0 1-1.84-1.16h0l-.28-.29a12.58 12.58 0 0 0-2.17-1.72h-.46.42a11.17 11.17 0 0 0-2.74-1.28 15 15 0 0 0-5.36-.6c-.63 0-1.44.1-1.91.17-1.2.19-3.57.73-4.79.87a13.48 13.48 0 0 1-1.92-.08c-7.84-.69-14.78-4.64-20.77-9.61-6-4.81-8-6.12-13.8-9.15-2.56-1.35-3.25-2.17-2.23-2.54 1.25-.42 8-7.24 9.57-10.43 1.39-2.73 2.08-3.42 3.39-3.42.89 0 1.65-.3 1.65-.66 0-1.22-2.4-.69-3.72.82-.72.82-1.84 3-3.06 4.54-18.4 22.58-44.14 4.91-48.49-21.62-.52-3.23-.95-4.81-1-3.49.66 16.13 11 29.43 21.89 40.52 4.64 4.71 8.19 10.8 11.88 16.26 1.25 3.13 2.86 6.09 3.95 9.28 11.62 27.85 49.44 47.6 78.31 47.17 31.23.53 58.42-19.55 72.87-47.17 1.42-3.06 2.53-6.22 3.95-9.28a94.41 94.41 0 0 1 11.88-16.26c10.54-11.23 21.6-24.42 22.32-40.52.07-1.34-.41.21-.93 3.48zm-134.76 53.17h0c0 1.46-.84 1.78-1.29 1.78a1.23 1.23 0 0 1-1.26-1.26h0v-.19c-.04-1.31 2.31-1.67 2.55-.33zm46.22-.67a1.09 1.09 0 0 1 .28.22c.28.3.13 1.08-.22 1.55s-1.49.71-1.92.05a1.33 1.33 0 0 1 .18-1.66 1.63 1.63 0 0 1 1.68-.16z" fill="#e73731"/><path d="M329.86 630.06c2.27-1.08 2.06-11.11-.63-13-1.85-1.32-2.77.46-8.75-.64-2.35-.44-4.83-2.51-6.73-3-2.68-.71-4.84-.51-4.84-.05s-.53 4.07-1.26 5c-.9 1.14 3.8 6.52 8.16 9.3 5.19 3.24 12.42 3.16 14.05 2.39z" fill="#fff"/><path d="M296.73 595.51l.4 3.26c3.95 25.14 29.46 45.52 47.73 22.25 2.89-3.69 3.75-6.09 6.05-6.52 1.65-.3 1.65-.3-.13-.4-5.27.37-5.86 7.54-10.43 9.16-1.48 0-4.55-2.77-5.66-5.47-.5-1.18-1.26-2.17-1.68-2.17s-.56.26.06 1c.46.56.66 1.18.46 1.38s-1-.56-1.87-1.68c-1.32-1.81-1.88-2-4.81-2-2.1 0-3.72.4-4.47 1.09-1 .92-1.35 1-2.28.2-1.44-1.22-5.16-2.57-9.34-3.43-5.63-1.15-11.13-6.81-13.07-13.46l-1-3.19zm20.87 31.86c-1.51.16-1.84 0-1.64-1 .29-1.51 3.52-1.71 3.52-.23 0 .64-.73 1.1-1.88 1.23zm9.88-10.43a4.27 4.27 0 0 1 1.35 1c.85.86.85 1 0 1a1.62 1.62 0 0 1-1.35-1c-.2-.54-.2-1 0-1zm.49 12.21c-1.41 1.08-1.55 1.08-2.9.33a25.7 25.7 0 0 0-3.29-1.29l-2.3-.69 2.63.3c1.45.16 3.13.39 3.75.49s1.22-.1 1.32-.46-1.28-.82-3.09-1.05l-3.29-.4 3.81-.1c4.22-.13 5.7 1.12 3.36 2.87zm-6.85-10.54c0-1.87 2.28-.85 2.51 1.12.16 1.52-.2 2-2.47 3.06-3 1.45-3.33 1.09-1.35-1.41a6.06 6.06 0 0 0 1.31-2.77zm-6.28-3.61c.66-1 2.27 0 1.84 1.19-.33.92-.23 1 .59.29.56-.46 1.22-.62 1.48-.36s-.19 1-1.05 1.62-1.41 2.37-1.12 2.66.89-.79 1-1.22.83-.59 1.52-.42c1.21.32 1.21.39-.17 2.23-.79 1.06-1.64 1.91-1.94 1.91-.53 0-.86-2.43-.63-4.8.07-.66-.19-1-.56-.79s-.49 0-.26-.63 0-1-.36-1-.56-.33-.36-.66zm-.5 2.77a6.82 6.82 0 0 1 0 2.63c-.16.82-.29.3-.29-1.15s.13-2.12.29-1.49zm-2.86-4c1-.89 3.23-.26 2.6.76a13.47 13.47 0 0 0-.89 2.73c-.39 1.74-.52 1.84-1 .79a3 3 0 0 1 .23-2.47c1.06-1.68 1-2.24-.23-1.25-1.35 1.12-1.25 3.49.33 6.25.73 1.29 1 2.34.69 2.34-2.03-.06-3.51-7.73-1.73-9.21z" fill="#e73731"/><path d="M442.25 424.54h0V424h0zm-.18 17.31h0z" fill="#ffed00"/><path d="M447.35 438.76h4.17l4.23-.07h.61l4.31-.15c1.62-.21 1.78-.54 1.78-.67 0-.4-1-.51-1.43-.54a11.33 11.33 0 0 0-2.4.16l-.87.12h-.25c-1.13.14-2.19.27-2.82-.27a1.18 1.18 0 0 1-.43-.9 1.45 1.45 0 0 1 .48-1.1c.89-.88 3-1.44 5.09-1.36a13.62 13.62 0 0 0 5.5-.73.46.46 0 0 0 .29-.41.62.62 0 0 0-.34-.52c-1-.56-3.11-.23-4.8 0h-.2c-3.17.48-4.47.46-5.17-.09a1.22 1.22 0 0 1-.47-.85c-.16-1.87 3.6-2.45 5.22-2.62l2.38-.15a8.07 8.07 0 0 0 3.39-.53 1.2 1.2 0 0 0 .28-.92c0-.2-.09-.45-.24-.52-1.31-.59-2.9-.32-4.43-.06l-1.76.31c-2.57.46-4.27.76-5.39-.48a1.72 1.72 0 0 1-.46-1.3 2.19 2.19 0 0 1 .94-1.5c.87-.66 2.38-.71 4.68-.77h.89a19.88 19.88 0 0 0 4.79-.66.83.83 0 0 0 .38-.74 1.22 1.22 0 0 0-.55-1c-.26-.14-1.39-.55-5.12.28l-2 .49c-2 .51-3.34.85-4.47.06a1.26 1.26 0 0 1-.55-.95 2 2 0 0 1 .73-1.55c1.1-1.07 2.85-1.56 5.3-2 2.94-.52 5.55-1.08 5.34-2.26a1.14 1.14 0 0 0-.64-.91c-.54-.29-3-1-10.46 2.34-.74.33-2.82 1.3-5.59 2.6l-5 2.36h0v.57 3.79 12a7.87 7.87 0 0 1-.16 1.53h.07l5.15-.03z" fill="#ecefef"/><g fill="#cb3528"><path d="M567.77 277.44a3.82 3.82 0 0 0-.79.05 7 7 0 0 0-2.22.92c-.51.37-.6.84-.25 1.07a.52.52 0 0 0 .69 0 .92.92 0 0 0 .15-.48.93.93 0 0 1 .3 1.08 1.59 1.59 0 0 1-2.7.21 1.91 1.91 0 0 1 .13-1.69 5.34 5.34 0 0 1 2.51-2.27 10.09 10.09 0 0 0 1.78-1.22 3.51 3.51 0 0 1 .26-.24l-.63-5.24a3.93 3.93 0 0 0-.8.05 7.07 7.07 0 0 0-2.22.92c-.51.37-.6.84-.24 1.07a.51.51 0 0 0 .68 0 .92.92 0 0 0 .15-.48 1 1 0 0 1 .31 1.08 1.48 1.48 0 0 1-1.31.86 1.43 1.43 0 0 1-1.39-.65 1.94 1.94 0 0 1 .12-1.69 5.34 5.34 0 0 1 2.51-2.27 6.77 6.77 0 0 0 1.5-1.1l.27-.24a85.35 85.35 0 0 0-3.32-13 44.36 44.36 0 0 0-11.09-17.44 50.75 50.75 0 0 0-10.65-7.74 12.53 12.53 0 0 1-2.2-1.41 1.68 1.68 0 0 1-.34-1 1.82 1.82 0 0 0-1.27-1.76 2 2 0 0 0-2.05 0 2.37 2.37 0 0 0-1 2 3.79 3.79 0 0 0 1.18 2.79c.57.65 2.64 3.6 2.91 5.7v.41c.22 1.79.25 2 .67 2.33.26.18 1.57-.73 1.76-.74 1.33-.11-1 1-1 1a5 5 0 0 1 .15 2.14l-.32 1c-.19.56-.32.93-.2 1.21a1.16 1.16 0 0 0 1.35.5l1.6-.6s-.18-.24-.15-.32a.3.3 0 0 1 .28-.11c.16.08.33.6.14.71s-.35-.16-1.42.41a.54.54 0 0 0-.26.76 1.09 1.09 0 0 0 .51.48 1.28 1.28 0 0 0-.39.52c-.1.38-.07.69.66 1.06a1.82 1.82 0 0 1 1.25 1.69l-.17 4.12v.18c-.1 1.35-.22 2.88.72 3.78a2.83 2.83 0 0 0 3.24.63 2.14 2.14 0 0 0 1.08-2.6 1.45 1.45 0 0 0-1.34-1 25.39 25.39 0 0 1 .78-2.77l1.38-3.42.71-1.42a15.12 15.12 0 0 1 2 3.17 70.66 70.66 0 0 1 3.83 11.95c.9 3.38 2.56 10.61 2.36 15s-1.28 7.51-5.22 9c-5 1.9-6.85-1.54-7.15-3.47a4.26 4.26 0 0 1 1-3.49c2.69-3 6-1.2 5.9 1.36a5.88 5.88 0 0 1-1 3.05s4.08-1.9 3.59-7.39a10.84 10.84 0 0 0-1.47-4.83 19.55 19.55 0 0 0-1.49-2.18c-2.24-2.46-5.37-6.48-6.1-7.41-.91-1.16-1.79-2.42-1.79-2.42l-2.24 7.66a63.75 63.75 0 0 1-2.41 6.37 40.25 40.25 0 0 0-2.51 7.06 19.07 19.07 0 0 0 1.94 12c2.4 4.57 5.06 5.7 5.06 5.7l1.15-2.24a28.6 28.6 0 0 0 4.66 2.41 27.81 27.81 0 0 0 4.06.92l-.7 2a10 10 0 0 0 6.06-.74c5.94-2.41 6.63-6.26 7.37-9.66a52.43 52.43 0 0 0 .8-4.7s-.27 0-.43.08a7.54 7.54 0 0 0-2.24.87c-.51.37-.6.84-.25 1.07s.84-.52.84-.52a1.64 1.64 0 0 1 .3 1.08 1.37 1.37 0 0 1-1.3.86 1.45 1.45 0 0 1-1.4-.65 1.91 1.91 0 0 1 .13-1.69 6.63 6.63 0 0 1 2.51-2.27 15.48 15.48 0 0 0 1.78-1.22c.09-.09.31-.35.32-.36.03-1.24.07-2.64.03-4.2zm-20.47-33.73a3.75 3.75 0 0 1-1.2.21c-.36 0-.68-.07-.78-.27a1.09 1.09 0 0 1-.08-.62 2 2 0 0 0 0-.43 2.81 2.81 0 0 0-.08-.31 1.27 1.27 0 0 1-.08-.79.54.54 0 0 1 .47-.41.8.8 0 0 1 .78.34 1.71 1.71 0 0 1 .14.6c0 .15 0 .49.12.53a.62.62 0 0 0 .38-.07.57.57 0 0 0 .29-.24 2.13 2.13 0 0 0-.35-.7 4.21 4.21 0 0 1-.37-.64 11.15 11.15 0 0 1-.74-4 2 2 0 0 0-.52-1.21 1.35 1.35 0 0 0-.59-.25c-.34-.11-.66-.2-.73-.5a.55.55 0 0 1 0-.5.91.91 0 0 1 .74-.39 2.56 2.56 0 0 1 1.68.56 2.32 2.32 0 0 1 1 2c0 .48.09 1.67.2 2.35a7 7 0 0 0 .79 2.24 2.16 2.16 0 0 1 .36 1.06 2.29 2.29 0 0 1-1.43 1.44zm89.13 135.1a11.14 11.14 0 0 0-8.18-3.89 34.3 34.3 0 0 0-5.5-5.6c-3-2.33-9.08-6.28-15.76-7.86s-11.92.23-14.62-.79-4.34-3.13-2.44-5.83 4.28-4.15 8.53-4.38a17.39 17.39 0 0 1 12 4.54c3.16 2.87 14 13.8 16 15.31a33.14 33.14 0 0 0 11.54 5.83 46.71 46.71 0 0 1-8.88-6.22 96.55 96.55 0 0 1-9-10.08c-1.65-2.3-7.41-10.83-11.19-13.16s-7.8-4.64-14.42-4.45-9.12 2.87-13.4 7.71-4.14 5.76-8.36 8.52c0 0 1.58-3.88-.66-6.35s-6.08-3.33-8.78-.17h0c-2.7 3.13.13 7.51.13 7.51a7.64 7.64 0 0 1-5.76 4c-4.12.5-6.88-.33-8.66-.16a17.93 17.93 0 0 0-6.78 1.88 21.43 21.43 0 0 1-3.39 1.51 24.88 24.88 0 0 1 6.38-.43c3.46.23 7.67 1.55 13.53 1.91s10-4.57 10-4.57 1.58 1.94 2.34 1.94 3.32-3 3.32-3a25.52 25.52 0 0 0 11.23 7.8c6.91 2.2 14.35-2.44 20.07-2.7 3.2-.17 6.13.75 10 2.79a41 41 0 0 1 7.86 6s-3.76 2.61-4.25 5.73c-.53 3.43-.2 6.3 3.74 9.46 2.46 2 5.12 2.69 5.29 2.42s-2.1-1.23-3.71-3.4a9.57 9.57 0 0 1-2.23-6.64c.06-1.44 1.78-4.21 3.28-4.79a5.44 5.44 0 0 1 5.06.56 9 9 0 0 1 4 6.2 17.2 17.2 0 0 1-1 9.6c-2.69 5.83-3.77 7.09-4.82 9.14a62.39 62.39 0 0 0-3 6.3c-.87 2.23-1.81 5-1.81 5l6.75-9.64c1.73-2.65 3.77-5 5.59-7.31 1.55-1.93 3.83-6.3 3.8-9.89s-.19-6.31-3.84-10.35zm-68.55-20.05a2.79 2.79 0 1 1 2.74-2.83 2.8 2.8 0 0 1-2.74 2.83zM177 513.84a28.07 28.07 0 0 0 4.54 12.84c2.83 4.64 5.15 8.52 10.54 12.16a16.78 16.78 0 0 0 6.93 2.6 13.72 13.72 0 0 0 8.31-1.12c2-1.15 3.51-4.7 1.64-7-2.67-3.24-6.34-2.37-7.39-1.12-.73.86-1 2.4.16 2.86 2.57 1 2.66-1.18 2.66-1.18a1.77 1.77 0 0 1 2 2.26c-.26 1.38-1.81 1.52-2.67 1.71-1 .23-7.62.49-10.21-3.12-2.36-3.28-.89-5.85 1.15-7.78a9.54 9.54 0 0 1 6.11-2.44c3.77-.29 9.06.23 12 3s3.83 6.35 3.38 8.68-3.28 5.31-6.5 6.3a25.16 25.16 0 0 1-8.81 1 28 28 0 0 1-7.59-1.28 33 33 0 0 0 4.68 3.91c.94.62 8.75 5 11.68 5.89a89.39 89.39 0 0 0 17.12 2.34c5 .07 10.63 0 19.19-4.74s13.92-8 18.63-12.05 15-15.8 17.15-19 1.91-3.09-.86-2.6a49.33 49.33 0 0 1-12.54.07 63.94 63.94 0 0 0-11.62-.86c-3.61.34-7.73 2.57-10.69 3.39s-10.19 3.12-14.11 3.81-5.87 1.08-6.93 1.16c-5.78.46-5 .81-1 2.73.88.43 5 2.83 6.58 3.46s9.52 4.24 13.6 5.19a27.62 27.62 0 0 0 13.53.24 7.26 7.26 0 0 0 5.9-7.3c0-1.39-1.24-3.45-4-4.25-4.51-1.3-6.07 1.59-5.89 4 .12 1.55 2.1 2.34 3 .33.63-1.46-1-1.9-1-1.9s.72-1.08 2.86-.72c1.21.2 2.76 1.18 2.76 2.46a4.82 4.82 0 0 1-3.22 4.89c-2.63.86-6.31.33-7.82-1.18a6.23 6.23 0 0 1-2.1-5.62 9.49 9.49 0 0 1 5.48-7 11.29 11.29 0 0 1 7.16-.56c2.61.63 4.34 2.15 5.26 5.26s.33 7.61-1.51 9.88c-1.58 2-4.4 3.78-9.1 4.24-7.68.75-12.63-1.16-17.8-2.82-6.54-2.11-14.53-5.59-16.31-6.28a17.21 17.21 0 0 1 2.61 5.85c.44 1.73 1.6 7.86 4.75 11.56 1.66 1.95 6.18 3.09 8.94 2.34a3.74 3.74 0 0 0 3.06-4.31c-.16-1.52-2-3.53-4-2.8s-1.66 4.14.47 3.28c1.13-.46.06-1.46.06-1.46a1.06 1.06 0 0 1 1.38.57 1.71 1.71 0 0 1-.88 2.2 3.29 3.29 0 0 1-3.81-.87 3.75 3.75 0 0 1 .39-4.78 4.79 4.79 0 0 1 4.93-.79 5 5 0 0 1 3.22 5.16 5.52 5.52 0 0 1-4.51 5.62c-4.17.81-8.7 0-11.65-3.08-2.19-2.26-3.62-6.46-4.9-10.41-1.77-5.48-2.14-6.67-4.5-9.59a14.07 14.07 0 0 0-10-5.35c-1.08-.05-2.49-1.51-5.42-3.15-3.14-1.77-7.68-3.22-8.34-3s.4 1.17 0 4.47a7.83 7.83 0 0 1-2.5 4.36c-1.58 1.35-5.88 1.84-7.95-.78-3.57-4.54-1.17-6.65-.49-7.39a4.07 4.07 0 0 1 4.73-.83 3.29 3.29 0 0 1 1.58 3.39 2.82 2.82 0 0 1-2.57 2.36s2-3.08-1.11-3.22c-1.48-.06-1.95 1.47-1.84 2.63a3.42 3.42 0 0 0 3.94 3c2.44-.23 4.27-3.08 4.34-4.79a9.36 9.36 0 0 0-2.83-7 27.57 27.57 0 0 1-5.12-7.32 13.17 13.17 0 0 1 .59-10.91c2.32-4.67 5-8.47 7.16-8.31s2.56 1.84 1.38 4.83c-1.46 3.67-4.68 7.63-5.29 11.27a11.52 11.52 0 0 0 1.84 8 14.23 14.23 0 0 0 4.17 4c3 2 15.44 6.12 20.08 6.75a49.41 49.41 0 0 1-6.22-5.4c-1.81-2.11-3.41-5.94-6.36-6.88-3.1-1-4.43.42-4.11 2.49a3.54 3.54 0 0 0 4.25 2.71c1.71-.39 1.14-1.77-.27-1.88-1.2-.09-1.13 1.32-2-.19-.55-1 .63-1.76 1.6-1.43 1.51.52 2.62 1.12 2.71 2.8s-2.57 2.33-4.57 1.66c-2.61-.89-6.28-3.79-7.2-7.58s.52-6.18 3.12-6.51a4.08 4.08 0 0 1 4 2.1c.23.37.75.27.52-.33-.75-1.87-3.68-7.24-3.32-12.14a101 101 0 0 0 .06-11.39c0-2.37.2-8.12-1.68-12.86a29.88 29.88 0 0 0-4.73-8.22c-1.08-1.51-3.16-3.77-3.16-3.77a79.42 79.42 0 0 1-.94 12.18c-.76 4.15-1.18 12.44-2.37 16.43l-2.1 7.09s6.67-8.09 8-10.22 3.44-5.13 3.74-6.77c.48-2.65 0-5.12-1.91-5.38a2.17 2.17 0 0 0-2.62 2.23 1.42 1.42 0 0 0 1.45 1.38 1.12 1.12 0 0 0 1-1.18c0-.7-1-.65-1-.65s.06-.76 1.18-.45c.74.21.71 1.17.68 1.56a2.1 2.1 0 0 1-1.08 1.59 2.17 2.17 0 0 1-1.92.17 2.67 2.67 0 0 1-1.5-2.42 3 3 0 0 1 1.87-3.07 3.52 3.52 0 0 1 3.44.38c.81.7 1.39 1.95 1.58 4 .17 1.87-.11 3.65-1.83 6.69-2.26 4-7.5 9.72-9.08 12.34a35.36 35.36 0 0 0-4.5 10.7h0a33 33 0 0 0-.97 13.98zm8.19-35.28a1.12 1.12 0 0 1 .83.16c.19.1.13.59 0 .79a.66.66 0 0 1-.86.3.73.73 0 0 1-.33-.89h0a.53.53 0 0 1 .39-.36zm.2-2.31h0a.68.68 0 0 1 .56.3c.13.2.43.26.82.3a.51.51 0 0 1 .53.59.82.82 0 0 1-.63.59 1.18 1.18 0 0 1-1.21-.59c-.4-.56-.34-1.05-.04-1.19zm.89-1.68a1.5 1.5 0 0 0 .82.47c.4.09.66-.07 1.06 0a.3.3 0 0 1 .26.33c0 .23-.07.43-.43.69a1.47 1.47 0 0 1-1.25.06 2 2 0 0 1-1-.88.72.72 0 0 1 0-.93h0c.14-.03.47.03.57.26zm.62-2.23c.53.59 1.55.29 2 .39s.79.26.69.76-.92 1.18-2.27.79h0a1.64 1.64 0 0 1-1.28-2c.1-.37.37-.54.89.06zM247.77 520a6.43 6.43 0 0 0-.48.83c-.18.4-.15.46-.51.76a36.39 36.39 0 0 1-5.34 2 70 70 0 0 1-7.9 1.71c-.85.13-.29.46 0 .59s3.76 1.42 5.43 2.11 6.32 2.27 6.32 2.27a13.81 13.81 0 0 0 .76 1.71 4.73 4.73 0 0 0 .84 1.08l-6.52-3-7.12-3.15c-1.44-.72-2.86-1.63-3.26-1.79s-.47-.24-.09-.36 1.62-.46 2.16-.59c2.06-.51 5.89-1.19 8.23-1.91l7.48-2.26zm22.2 7.67a9.12 9.12 0 0 0-1.53-6.7l-2-2.67s3.83.34 7.18.31l4.16-.05s-1.31 1.9-1.84 2.06a17.12 17.12 0 0 1-3.94 0c-1.18-.17-1.19-.15-.63.74s1.45 1.3 1.55 2.52-2.92 3.78-2.92 3.78zm-25.41 20a9.9 9.9 0 0 0 .47-3.37c-.31-3.14-1.62-4.1-1.62-4.1a30.47 30.47 0 0 0 7 1c5.26.09 7-.48 7-.48s-2.78 1.88-6.92 4.06c-4.03 2.07-5.93 2.91-5.93 2.91zm-25.72-8.49a33 33 0 0 0 1.18 4.93 24.4 24.4 0 0 0 1.69 3.9c.7 1.29 1.58 3.2 1.58 3.2s-1.54-.18-2.28-.2a16.42 16.42 0 0 1-2.74-.26s-1.12-2.33-1.35-2.92-.76-.4-1-.1-2.78 1.92-2.78 1.92a31.65 31.65 0 0 1-4.56-1.66 37.62 37.62 0 0 0-3.67-1.74s5 0 7-1.12a20.25 20.25 0 0 0 4.9-3.1 17.31 17.31 0 0 0 2.03-2.83zm-24.21-16.06a12.24 12.24 0 0 0 .63-2.43 10.3 10.3 0 0 0-.1-2.53s2 .82 3.78 1.71c1.2.6 3.22 1.84 3.22 1.84h-2.63l-2.59-1.2-.27 1.73c-.16.15-2.04.9-2.04.9zM269.27 509l-1.13-3.87-4.68 3.06-6.91 5.2a29.79 29.79 0 0 1 5.72-.19l6.67.81c1.82.14 3.19-.38 2.19-1.52a7.72 7.72 0 0 1-1.86-3.49zm-1.81.59a14.57 14.57 0 0 1 .78 2.13c0 .29-1.83 0-2.1-.07s-1.23-.05-2-.08l-2.34-.09a10.2 10.2 0 0 1 1.75-1.27c.33 0 1.22.32 1.68.35s.26-.17.36-.56-.1-1.06.13-1.46 1.16-.59 1.16-.59c.2.05.25.82.58 1.6zm3.71-3.32h0c-.07-4.47 3.82-8.72 7.87-10.6 4.41-2.05 15.69-4.57 19.35-5.49s5.91-2.48 8.38-3.6 7.85-4.43 8.44-4.76a25.33 25.33 0 0 0 2.17-1.36 3.62 3.62 0 0 0-1.57-.31 3.56 3.56 0 0 0-2.27.43c-.4.33-.34.61.07.84a.79.79 0 0 0 .87-.06s-.39-.07-.39-.34c0-.43.33-.45.52-.42a.6.6 0 0 1 .27 1c-.63.59-1 .45-2 .37a19.05 19.05 0 0 0-4.86.25c-.55.08-1.51.57-.93 1.47a1.1 1.1 0 0 0 1.56.2c.56-.47 0-1.22 0-1.22.86 0 1.26.57 1 1.37-.42 1.52-3 1.51-4.72 1.72a52.08 52.08 0 0 0-8.43 2.2 18.92 18.92 0 0 1 5.07-3.73 112.56 112.56 0 0 1 14.82-5.23 32.22 32.22 0 0 1 7.94-1.16s-1.65.83-3.66 2a70.19 70.19 0 0 0-6.12 4c-3.93 3-6.8 5.28-8.62 6.35-4.07 2.39-6.28 2.75-15.09 4.87-5.7 1.38-8.55 1.53-11.32 3.64-2.58 2-4 4.14-4 6.72 0 1.93.22 4.36 3.7 5.28a7 7 0 0 0 8-3 2.92 2.92 0 0 0-.32-3.63 4.05 4.05 0 0 0-4.08-1.16c-1.2.46-2.83 1.58-2.08 3.3.86 1.95 3.11.55 3.11.55s-1.79-.22-1.73-1.14c.15-1.66 1.84-1.68 3.07-.61s.18 2.93-.4 3.37c-1.84 1.4-5.63.72-6.35-1.22-1.22-3.31.92-5.85 4.14-7.69s8.92-2.54 11.33-3.06 9.38-2.5 9.38-2.5l-6.32 6.48c-1.43 1.64-3 2-4 1.29-1.22-.83-.24-1.93 1.23-2.3.82-.21 2.45-.41 2.56-1.31s-1.08-.67-2.89-.24c-1.45.33-4.2 1.57-3.28 3.92.7 1.79 3.57 1.67 3.57 1.67l-5.53 6a11.8 11.8 0 0 1-9.05 4c-4.83-.17-8.35-2.64-8.41-7.15zm-80.49-91.49a14.14 14.14 0 0 1 1.89 6.31c0 1.22.22 2.53-1.41 6.35-.63 1.47-5.18 8.62-5.18 8.62a44.4 44.4 0 0 0 .56-6.65c-.17-1.94-1.35-6.84.33-8.16a2.07 2.07 0 0 1 3 .59 3.08 3.08 0 0 1-.5 3.33 1.28 1.28 0 0 1-2-.33c-.23-.53.15-1.77 1.26-1.35 0 0-.41.12-.51.35a.57.57 0 0 0 .09.66.52.52 0 0 0 .74-.16 1.24 1.24 0 0 0 .17-1.34 1.07 1.07 0 0 0-1.61-.39 2.82 2.82 0 0 0-.8 2.36c0 1.32.23 1.94.76 2.27s1.08.23 1.81-.52a6.82 6.82 0 0 0 1.17-2.18 13.13 13.13 0 0 0 .31-3.75 14.54 14.54 0 0 0-1.45-4.48 2.42 2.42 0 0 0-2.3-1.25 1.31 1.31 0 0 0-1 1.55 6.91 6.91 0 0 0 .84 2.19 8.15 8.15 0 0 1-1.86-1.62 8 8 0 0 1-1-3.45 29.7 29.7 0 0 0-2-8c-.71-1.7-4.73-9-4.73-9l7.16 9.17c1.81 2.47 4.91 6.61 6.26 8.88z"/><path d="M187.22 399.41c2.52 3.59 6.53 12.17 6.53 12.17l.6-9.9c.16-2.1.86-6 .83-6.91s-.37-1-1.19-.37a9.06 9.06 0 0 1-4.74 2.11c-3.93.31-2.54 2.17-2.03 2.9zm5.59 7.23c.52 0 .38.09.32.4-.13.71-.45.26-.53.15s-.4-.51.21-.55zm-.87-1.84c.13-.14.84-.18 1-.21s.22.35.2.65a.45.45 0 0 1-.36.43c-.37.06-.62.09-.8-.34-.05-.19-.2-.4-.04-.53zm-.45-2.12a5.1 5.1 0 0 1 1.55-.32c.26.07.13.49 0 .78s-.44.26-.93.42-.69.1-.79-.26-.06-.52.17-.62zm-1.36-2.12c.17-.1 1.47-.48 2-.61s.74-.25 1.1-.11.2.86 0 1.19-.48.28-1.37.51-1.14.28-1.41-.15-.45-.73-.32-.83zm-1.19-2.42c0-.29 1-.15 2.17-.55a14.67 14.67 0 0 1 2.36-.79c.22.13 0 .79 0 1s-.35.51-1.67.89a6.35 6.35 0 0 1-2.12.34.82.82 0 0 1-.74-.89zm12.44-25.76a20.34 20.34 0 0 0-4.79 3.58 23.12 23.12 0 0 1 2.07 2.23 8.56 8.56 0 0 1 1.48 2.87s7-5.69 8.09-6.35a41.87 41.87 0 0 1 6.29-3.33c1.08-.42 1.22-1.05-.33-1.25a20.37 20.37 0 0 0-6.95.27 26.45 26.45 0 0 0-5.86 1.98zm9.66-1.52a4.6 4.6 0 0 1 1.21 0 1 1 0 0 1 .34.43l-1.27.46zm-1.8.33c.66-.16.77-.07 1 .29a1.47 1.47 0 0 1 .14.74l-1.12.53a2.88 2.88 0 0 0-.17-.77c-.09-.33-.3-.69.15-.79zm-2.83.91a2 2 0 0 1 1.06-.21 1.78 1.78 0 0 1 .54.71 3.45 3.45 0 0 1 .22.69l-1.09.59a3.21 3.21 0 0 0-.14-.88c-.21-.45-.62-.84-.59-.9zm-1.8 2c-.16-.39-.54-.78-.5-.94.06-.33.9-.64 1.07-.54a1.9 1.9 0 0 1 .78.93 4 4 0 0 1 .24 1l-1.31.81a7 7 0 0 0-.28-1.24zm-2 3a2.62 2.62 0 0 0-.33-1.52 2.85 2.85 0 0 0-1.31-.87s1.33-1.09 1.63-1 .56.59.86 1.12a3.5 3.5 0 0 1 .37 1.47zm-3.45-.86a1.83 1.83 0 0 1 1.19-.26 1.67 1.67 0 0 1 1.11.92 1.14 1.14 0 0 1 0 1 2.84 2.84 0 0 1-.63.91s-.33-.73-.57-1.15a18.21 18.21 0 0 0-1.07-1.37zm-3.31-17.8c-1.56 2.45-2.25 3.77-3.56 4.7a3.73 3.73 0 0 1-3.32.66 1.92 1.92 0 0 1-1.2-2.43c.48-2.32 1.69-3.61 2.72-3.94 1.19-.38 2.31.25 1.82 1.27a.91.91 0 0 1-1.29.38 1.09 1.09 0 0 1-.37-.59 1.49 1.49 0 0 0-.86 1.49 1.27 1.27 0 0 0 1.7 1.3 3 3 0 0 0 2.22-2.77c.19-1.59-.62-2.77-2.57-2.2-3 .89-3.64 3-4.18 5a5.36 5.36 0 0 0 1.71 5.65l-5.17 4.57c-1.77 1.34-4.62 3-4.62 3l2.5-8a34.74 34.74 0 0 1 4-7.62c1.64-2.24 4.71-4 6.84-5.37 2.31-1.47 11.54-6.18 11.54-6.18s-2.68 3-3.67 4.47c-1.27 1.83-2.86 4.44-4.24 6.61zm52.05-9.87l-7.25-2.75-3.82-.72-2.76-.46a32.77 32.77 0 0 1 3 3l3.08 3.76a25.85 25.85 0 0 1 2.06 3.15 10.4 10.4 0 0 1 1.89-3.76 5.92 5.92 0 0 1 3.8-2.22zm-4.33-.36a9 9 0 0 0-.84.76c-.26.29-.65.82-.92 1.15-.42.52-.94-.33-1.11-.58-.51-.77-2.36-2.87-2.36-2.87l1.77.45.6.81c.14.22.75 1.05.75 1.05l.82-1.12zm19.68 12.53l6.59 1-6.46-5.78a36.68 36.68 0 0 0-6.88-3.82 7.36 7.36 0 0 1 .82 4.31 19.26 19.26 0 0 1-1.14 3.67l7.07.62zm-1-4l.63.52h-1.15l-.06-.8s.42.15.56.24zm3.42 3a21.22 21.22 0 0 0-3.17-.62l-3.22-.21a13.3 13.3 0 0 0 .28-2c0-.63-.1-1.71-.1-1.71a5.69 5.69 0 0 1 1 .59c.3.26.2.68.2 1.31v1.17a9.58 9.58 0 0 1 3.29.09c.61.03 1.7 1.3 1.7 1.3zM294 378l-6.11-4.26c-.23.1.51 2.18-.08 4.17a12.57 12.57 0 0 1-2.91 4.63c-.29.25 1.8.09 3.09-.81a16.47 16.47 0 0 1 3.32-1.79 24.53 24.53 0 0 1 3.09-.7c.6-.08.14-.88-.4-1.24zm-1.51.42a10.11 10.11 0 0 0-1.75.4 12.48 12.48 0 0 0-3 1.76c-.66.48.68-.85 1.1-2.31a14 14 0 0 0 .35-2.26s.72.24.72.8c0 .36-.17.83-.2 1.15s.1.13.4.06l1.54-.34c.42.2.91.51.85.71zm-49.6-9.36l-5.13 2.41 7.27 1.08c2.37.55 5 1.44 7.49 2.27s6.93 2.73 8 3.26l7.73 3.88s4.08-3 2.78-4.6-6.1.34-7-.18-1.12-1.68.61-2.84c1.23-.82 3.86-1.32 6.27-1.52 2.73-.22 5.93-.07 7.09.38 2.12.8 3 2.36 2.76 4.09-.31 2.48-2.69 2.83-5 3.58l-6.39 1.84 3.23 1.54c1.55.68 4.94 1.88 7.81 2.77l6.37 1.88a17 17 0 0 1 3.43-2.81 16.52 16.52 0 0 1 5.64-1.56 7.16 7.16 0 0 1 5.66 1.31c1.44 1.15 1.56 1.89 1.52 2.55a3.28 3.28 0 0 1-.88 2.31 2.75 2.75 0 0 1-1 .73 4 4 0 0 0-1.22-3.68c-1.33-1.32-4.14-1.87-6.07-1.55a8 8 0 0 0-4.31 1.79c-1.58 1.24-1 1.37-.63 1.63a1.43 1.43 0 0 0 1.31.19 5.9 5.9 0 0 1 2.11-1.39c1-.4 3.93-1 5.54.38a3.44 3.44 0 0 1 1 3.26l-1.44-.42a2.49 2.49 0 0 0-1.27-2.24c-2.49-1.27-5 1.21-5 1.21a15.8 15.8 0 0 0 3.17 1.38 92.22 92.22 0 0 0 10.52 2.93c3.43.62 10.67 1.25 14.26 1.45a32.28 32.28 0 0 0 6.94-.46 56 56 0 0 1-6.51-2.83c-2.87-1.49-10.9-6-12.78-7s-6.85-4.54-9.14-5.46a7 7 0 0 0-3-.42 9.66 9.66 0 0 0-3.11.77 22.63 22.63 0 0 0-3.46 2.07c-1.05.59-3.19 2-5.13 2.05a13.28 13.28 0 0 1-3.75-.88 32.36 32.36 0 0 0 3.51-1.57c1.9-1.06 4-3.34 4.25-5.51a7 7 0 0 0-2.4-6.15c-2.23-1.87-5.65-2.41-12.23-2a49.4 49.4 0 0 0-12.41 2.17 16.64 16.64 0 0 1-6.27 1c-1.84-.13-4.45-.25-5.3-1.84a2.11 2.11 0 0 1 .33-2.4 1.43 1.43 0 0 1 1.76 0 .81.81 0 0 1 .18 1.12c-.22.35-.44.47-.63.41-.64-.43.11-.21.15-.61.06-.57-.19-.65-.58-.6-.7.09-.73.79-.73 1.05a1.12 1.12 0 0 0 1.28 1.22c1.22 0 1.58-.95 1.55-2s-1.15-1.84-2.57-1.87-3.07.97-6.18 2.43zm74.94 26.08a1.34 1.34 0 0 0 .47-.69 1.36 1.36 0 0 0 0-.78s1.55.72 2.23 1.11.67.57-.13.56c-.48-.01-2.57-.2-2.57-.2zm-4.28-.54a4 4 0 0 0 .94-1.19 3.19 3.19 0 0 0 0-1.62 17.54 17.54 0 0 1 1.76.94c.33.27.86.69.67 1.3s-.88.68-1.28.72a14.63 14.63 0 0 1-2.09-.15zm-4.36-.93a4.17 4.17 0 0 0 1.5-1.53 3.27 3.27 0 0 0 .09-2 6.56 6.56 0 0 1 1.84 1.14 1.7 1.7 0 0 1 .35 1.65 1.9 1.9 0 0 1-1.63 1.1 6.65 6.65 0 0 1-2.15-.36zm-2.93-3.06a8 8 0 0 0 .37-2.61 6.31 6.31 0 0 1 1.61 1.13 2.27 2.27 0 0 1 .48 2.33 2.51 2.51 0 0 1-2.13 1.43 10.65 10.65 0 0 1-2.28-.24 6.38 6.38 0 0 0 1.95-2.04zm-42.13-88.76a20 20 0 0 0 10.09-3.43 15.55 15.55 0 0 0 7.16-9.77c1.22-4.61 1.1-9.94-.46-13.76-2.54-6.19-4.86-12.73-5.15-17s.8-9.21 1.44-12.11c.73-3.26 2.2-8 2.28-8.22l.31-.77.54.63a10.3 10.3 0 0 0 2.67 2.25 5.57 5.57 0 0 0 5.29.36c2.15-1 3.28-4 3-6.13a5.16 5.16 0 0 0-3.53-3.85 5.6 5.6 0 0 0-4 .23 6.64 6.64 0 0 0-2 1.58l.42-1.42c0-.07.67-1.9 4.08-5 3.74-3.45 8-6.17 16.8-9.38 2-.73 8.41-2.1 8.41-2.1s-2.9 1.47-3.63 1.94c-4.29 2.79-5.67 5.36-7.72 8.18a44.41 44.41 0 0 0-5.39 10c-.57 1.64-1.21 3.92-1.79 6.32a47 47 0 0 0-1.17 6.74l-.46 5.47a4.55 4.55 0 0 0-1.9-2.91 6.94 6.94 0 0 0-3.07-1 6.1 6.1 0 0 0-3.88 1 6.5 6.5 0 0 0-2.72 4.93c-.13 3.45 1.11 5.75 1.9 9.59.29 1.41 1.93 6.64 2.37 7.95a40 40 0 0 1 2.21 8.9c.34 2.41.27 5.35-1.28 10.14-1 3.15-3.6 7-7.78 10.49-3.48 2.9-11.84 6.48-11.84 6.48s1.57 1.18 2.06 1.62 1.75 1.93 1.75 1.93a19.83 19.83 0 0 1 2.37-2.79c1.21-1.06 2.62-3.1 6.27-4.64a14.65 14.65 0 0 1 9.92-.58c3.8 1.1 6.12 2.75 8 6.34 1 2 1.91 3.72 3.44 10a53.06 53.06 0 0 1 1.61 9.3l.3 5.35a14.61 14.61 0 0 0 1.52 5.78 8.17 8.17 0 0 0 4 4 5.33 5.33 0 0 0 5.29-.27 6.83 6.83 0 0 0 1.76-4.77 12.06 12.06 0 0 0-.35-3.8c-.28-1.1-1.12-3.38-1.12-3.38s1 1.27 1.2 1.64c.35.58 1.41 2.11 2.86 4.24a25.65 25.65 0 0 0 2.21 3l.82.95-.66.53a12.5 12.5 0 0 0-3.27 4.59 15.38 15.38 0 0 0-.51 9.34c.57 2.31 2.71 5.2 4.42 7.53.74 1 1.43 1.94 1.91 2.7 1.31 2.2 5.4 9.58 7.25 13.25a17.28 17.28 0 0 0 0-2.66 2.09 2.09 0 0 0-1.48-1.57l-.74-.19.47-.6a4.08 4.08 0 0 0 .74-3.18c-.2-.67-1.73-1.4-2.76-1.71l-.74-.22.51-.59c.71-.81 1.77-2.42 1.57-3.24s-2.12-1.63-3.44-2l-.75-.22.51-.59c.63-.73 2.16-2.9 1.75-4.16s-2.42-1.68-3.17-1.77l-.82-.09.46-.68c.66-1 1.46-2.63 1.18-3.27s-1.86-.93-2.37-1h-.52l.75-8.18.79 1.36A81.27 81.27 0 0 1 327 361.9c2.66 9.46 3.84 15.39 3.84 25.51v2l-.94-1.82c-.07-.12-6.45-12.39-9.27-17.26s-7.4-11.93-11.22-16.19l-7.87-8.14c-3.52-3.69-10.35-10.66-13.65-13.38l-.32-.27.2-.36c0-.05 2.75-5 2.41-8-.38-3.41-1.44-5.86-3.14-7.27a6.13 6.13 0 0 0-7.56-.57 3.34 3.34 0 0 0-1.26 2.89 6.72 6.72 0 0 0 2 4.75 4.65 4.65 0 0 0 2.68 1.81c1.09.12 2 .12 2.32-.33a2.39 2.39 0 0 0 .35-3.11c-.8-1.32-2.62-.68-2.74-.68s1.74.57 2 1.07a1.76 1.76 0 0 1-.4 1.73 1.89 1.89 0 0 1-1.62.2 8.52 8.52 0 0 1-2.1-2.13c-.62-1-1.45-2.45.66-4.27 1.1-1 3.52-.4 4.9.75a6.31 6.31 0 0 1 1.78 3.79c.28 3.43-.58 4.3-1.1 4.7a4.2 4.2 0 0 1-4.43.6c-2-.7-10-8.76-10-8.76s1.18-6.07 4.86-8.33c2.89-1.77 6.48-2.27 10.49.57a15.21 15.21 0 0 1 5.06 8c.69 2.31.56 3.91.72 6.39.14 2.16.1 4.47.3 5.94.13 1 .81 3.49 2 3.55.85.05 1.2-1.48 1.35-2.23a28 28 0 0 0-.34-7.75c-.61-3.68-1.9-10-5.05-13.64a11.81 11.81 0 0 0-10-4.42 13.82 13.82 0 0 0-9.26 5.25 19 19 0 0 0-2 5.13s-5.78-5.31-6.6-6.26c-.3-.34-8.95-10.52-8.95-10.52a23.78 23.78 0 0 0 9.03 1.01zm20.7-69.37h0a6.77 6.77 0 0 0-2.8.53 3.26 3.26 0 0 1 3-1.68c1.68 0 3.35.46 4 1.37a3.62 3.62 0 0 1 .47 4.07 4.55 4.55 0 0 1-4.1 2.51 5.22 5.22 0 0 1-3.74-2.69c-.36-.88-.33-2.05.66-2.33a2 2 0 0 1 2.5 1.45c.14 1 .72 1.71 1.74 1.51a1.64 1.64 0 0 0 1.22-1.15 2.72 2.72 0 0 0-.46-2.37 3.12 3.12 0 0 0-2.49-1.22zm23.4 105.33h0c-.1-.49-1.25-.26-1-1.53.17-.79 1.11-.43 1.38-.18a2 2 0 0 1 .62 1.95 1.57 1.57 0 0 1-2.78.9 6 6 0 0 1-1.64-4.64c.14-1.14.31-2.78 2.87-2.87a6.49 6.49 0 0 1 3.36.82s-3-7.12-4.63-9.82a98.1 98.1 0 0 0-5.89-8.16c-1.07-1.41-4.12-4.58-4.12-4.58a56.46 56.46 0 0 1 2.6 5.3 79.65 79.65 0 0 1 2.16 8.43 77.57 77.57 0 0 1 1.06 9.72 20 20 0 0 0 1.92 6.88c1.43 2.7 3.4 3.48 5.18 3.41s2.56-2.82 2.62-4.11a7.94 7.94 0 0 0-.92-4.71 3.8 3.8 0 0 0-4-1.74c-1.12.43-1.08 2.89-.92 3.77a3.08 3.08 0 0 0 1.49 2.18c.47.17.74-.56.64-1.02zm-7.44-21.23a70.93 70.93 0 0 0 1 1.41 1.46 1.46 0 0 0-.53.1 1 1 0 0 0-.33.31s-.28-.85-.38-1.31c-.05-.25-.35-1.33-.35-1.33s.21.29.57.82zm3.06 4s-.69.27-1.05.46-.73.43-.73.43-.26-.62-.42-1.05a4.81 4.81 0 0 1-.37-1.06c0-.19.79-.82 1.16-.46a7.08 7.08 0 0 1 .72.86 9.21 9.21 0 0 0 .69.8zm1.87 3.79a2.33 2.33 0 0 0-1.44.19 4.15 4.15 0 0 0-1 .64 10.23 10.23 0 0 1-.44-2.2.83.83 0 0 1 .59-.87 1.22 1.22 0 0 1 1.23.13 6 6 0 0 1 1.06 2.09zm-1.94 4.93a5 5 0 0 1 .05-2.35 1.6 1.6 0 0 1 2.06-.74c.93.33 1.46 1.95 1.46 1.95a10.79 10.79 0 0 0-1.9.25 5.28 5.28 0 0 0-1.67.87z"/><path d="M309.84 238.34a7.06 7.06 0 0 1 .27-5.79 18.22 18.22 0 0 1 4.37-5.8 13.91 13.91 0 0 1 11-3.09c4.65.59 6.65 3.16 9 6.38a15.84 15.84 0 0 1 3.06 7.61c.17 1.38-.26 2.47.17 2.8s2.63.49 5.33.85 7.67 1.75 10.76 2.27a86 86 0 0 1 8.92 2.37c2.6.73 5.34 1.85 5.34 1.85a10.79 10.79 0 0 1 1.83-3.81c1.29-1.94 4-3.57 8.61-3.06a10.69 10.69 0 0 1 6.76 3.35c1.48 1.58 2.29 3.21 1.88 4.08-.33.69-.84.94-2.51.77-2.16-.21-1-4.21-5.67-5.34-6.64-1.61-8.28 4.9-8.28 4.9a63.31 63.31 0 0 0 9.69 2.5h0c4.7.75 9.44.26 13.72-.14a104.8 104.8 0 0 0 10.54-1.38 69.53 69.53 0 0 1-6.52-2.63c-2.11-1-9.58-4.41-12.38-5.63s-7.86-4-10.17-5.27a64.7 64.7 0 0 0-7.73-3.85 18 18 0 0 0-6.92-1.48 3.61 3.61 0 0 0-3.16 1.38 3.8 3.8 0 0 0-.2 3.84 3.35 3.35 0 0 0 3.53 1.56c1.22-.16 2.19-.68 2.38-1.9a1.78 1.78 0 0 0-1-1.92c-1.48-.87-2.33.22-2.35.6-.07 1.75 1.81.54 1.81.54a.67.67 0 0 1-.27.92 1.55 1.55 0 0 1-1.84-.17 1.68 1.68 0 0 1-.22-2.13 2.84 2.84 0 0 1 2.75-.71 3.82 3.82 0 0 1 3.23 3.31 3.21 3.21 0 0 1-1.36 2.71 7.77 7.77 0 0 1-4.38 1 8.45 8.45 0 0 1-4.55-1.18 21.92 21.92 0 0 1-7-7.41 57.82 57.82 0 0 0-4.42-6.63 38.91 38.91 0 0 0-9.05-7.59 27.15 27.15 0 0 0-10.41-3.48 24.19 24.19 0 0 0-17.96 5.46 35.46 35.46 0 0 0-4.92 6.27 44.42 44.42 0 0 0-4.52 8.23 54.83 54.83 0 0 0-2.46 7.75c-.5 1.94-.88 7.95-1.34 10.49a8.55 8.55 0 0 1-3.4 5.57 3.93 3.93 0 0 1-3.68.73 2.36 2.36 0 0 1-1.64-2.5c.2-1.15 1.3-2 2.19-1.66s.95 1.05.89 1.29a1.16 1.16 0 0 1-1 .92 1.8 1.8 0 0 1-1.16-.14 1.15 1.15 0 0 0 .81 1.25c1.95.86 3.27-1.26 3.5-2.29a3.68 3.68 0 0 0-3.57-4.52c-3-.08-4.46 1.25-4.92 4-.41 2.43 1.38 7.23 2.23 10.23l2.27 8.42s.2-1.78.37-2.89a38.61 38.61 0 0 1 1.58-5.44c.92-2.79 2.6-4.57 4-6.74a52.41 52.41 0 0 1 5.73-6.78c1.68-1.68 4.9-3.92 6.48-5.17a33.56 33.56 0 0 1 6.26-3.85 27.76 27.76 0 0 1 8.39-2.44 55.35 55.35 0 0 1 6.45-.32c1 0 3.57.2 3.57.2a10.06 10.06 0 0 0-.46-1.88 4.67 4.67 0 0 0-4.6-3.07 4.16 4.16 0 0 0-4.29 2.71l-3.2.6a9.66 9.66 0 0 1 .68-2 9 9 0 0 1 4.32-3.77c1.58-.43 4.68-.51 6.35 1a8.41 8.41 0 0 1 2.86 3.94c.25.66.57 2.5.77 2.7a16.71 16.71 0 0 0 2.85.35s-.95-3.19-1.43-4.19c-1.92-4-5.38-6.68-8.86-6.68a9.8 9.8 0 0 0-7.27 3.25c-3.07 3-3 5.46-4.34 5.89s-1.84.39-2.09-.12zm-6.75-.11c-1 3.33-.88 4.93-2.3 6.08-3.08 2.51-2.29-1.93-2.1-3.52a19.83 19.83 0 0 1 2.1-6.34 54.51 54.51 0 0 1 4.73-7.78c2.31-3.06 5.9-7.16 11.9-8.94a16.91 16.91 0 0 1 13 1.28c3.65 2 5.84 4.7 8.21 7.2a89.79 89.79 0 0 1 6.7 8.11c.83 1.13 2.49 4.32.49 3.88-2.5-.56-5-4.08-6.8-6.74a32 32 0 0 0-6.57-7.62c-2.89-2.27-7.35-4.5-11.63-3.87s-9.75 4.26-12.05 7.52a41.4 41.4 0 0 0-5.68 10.74zm56.36-8.73a13.21 13.21 0 0 1 4.44.55 74.91 74.91 0 0 0-11.69-5.52c-1.38-.48-10.68-4.08-10.64-4.05a19.25 19.25 0 0 1 3.09 2.91c1.91 2.25 4.1 5.54 5.93 8.11a44.06 44.06 0 0 0 4.73 5.36s-1-3.63 1.2-5.91a4.77 4.77 0 0 1 2.94-1.45zm-10.8-5.5a2 2 0 0 0-.63.37 1.64 1.64 0 0 0-.19.52 3.79 3.79 0 0 1-.73-1c-.1-.3.23-.5.53-.46h0a3.43 3.43 0 0 1 1.02.57zm2 1.06a3.16 3.16 0 0 0-1.05.69 2.66 2.66 0 0 0-.46 1.15 2.56 2.56 0 0 1-.69-1.15c0-.53.49-1.22.95-1.22h0a1.94 1.94 0 0 1 1.29.47zm2.75 1.4a2.58 2.58 0 0 0-2.23 1 3.57 3.57 0 0 0-.75 1.47 1.93 1.93 0 0 1 .24-2.3 2.25 2.25 0 0 1 2.78-.22zm3 1.81a14.15 14.15 0 0 0-2 1.57 3.83 3.83 0 0 0-1 2 7.18 7.18 0 0 1-1.56-1.95 1.93 1.93 0 0 1 .38-1.64 1.75 1.75 0 0 1 1.64-.82 8.64 8.64 0 0 1 2.6.79zm-69.02 57.95a27.65 27.65 0 0 1-2.52 8.69 30.07 30.07 0 0 1-5.62 7.23s2.69-1.45 9.17.2a12.29 12.29 0 0 1 7.32 5.27zm2.12 12.16c-.2-.1-1.58-.3-1.84-.37s-.27-.16-.1-.42a16.91 16.91 0 0 0 .59-1.68l.59 1.31c.16.31.79 1.19.76 1.16zm-3.58-2c.35-.63 1.37-3.32 1.37-3.32l.38 1.14-1.78 3.7c-.41.92-.29 1 .79 1.23l3.34.63.71 1.16-3.07-.62-3.43-.7 1.69-3.23zm-36.31-14.67l.33.36a15.21 15.21 0 0 0 1.77 1.22 6.8 6.8 0 0 1 2.52 2.27 1.94 1.94 0 0 1 .12 1.69 1.45 1.45 0 0 1-1.4.65 1.38 1.38 0 0 1-1.3-.86A1.64 1.64 0 0 1 252 286s.36.83.84.52.26-.7-.25-1.07a7.54 7.54 0 0 0-2.24-.87c-.16 0-.39-.07-.43-.08l.8 4.7c.74 3.4 1.43 7.25 7.37 9.66a10 10 0 0 0 6.07.74l-.7-2a27.74 27.74 0 0 0 4-.92 28.6 28.6 0 0 0 4.66-2.41l1.15 2.24s2.66-1.13 5.06-5.7a19.07 19.07 0 0 0 1.94-12 40.25 40.25 0 0 0-2.51-7.06 66 66 0 0 1-2.4-6.37l-2.25-7.66s-.88 1.26-1.79 2.42c-.73.93-3.86 4.95-6.1 7.41a19.55 19.55 0 0 0-1.49 2.18 10.71 10.71 0 0 0-1.46 4.83c-.5 5.49 3.59 7.39 3.59 7.39a5.84 5.84 0 0 1-1-3.05c-.07-2.56 3.22-4.38 5.9-1.36a4.26 4.26 0 0 1 .95 3.49c-.3 1.93-2.12 5.37-7.15 3.47-3.93-1.49-5-4.71-5.22-9s1.46-11.64 2.36-15a70.66 70.66 0 0 1 3.83-11.95 15.12 15.12 0 0 1 2-3.17l.71 1.42c.38.84.95 2.25 1.38 3.42a23.32 23.32 0 0 1 .78 2.77 1.45 1.45 0 0 0-1.34 1 2.16 2.16 0 0 0 1.08 2.6 2.85 2.85 0 0 0 3.25-.63c.93-.9.82-2.43.71-3.78V252c-.1-1.25-.17-3-.17-4.12a1.82 1.82 0 0 1 1.25-1.69c.73-.37.76-.68.66-1.06a1.28 1.28 0 0 0-.39-.52 1.17 1.17 0 0 0 .52-.48.55.55 0 0 0-.26-.76c-1.08-.57-1.12-.23-1.43-.41s0-.63.14-.71a.3.3 0 0 1 .28.11c0 .08-.15.32-.15.32s.72.29 1.61.6a1.15 1.15 0 0 0 1.34-.5c.12-.28 0-.65-.2-1.21a10.18 10.18 0 0 1-.31-1 4.85 4.85 0 0 1 .14-2.14s-2.34-1.07-1-1c.2 0 1.5.92 1.76.74.43-.31.45-.54.68-2.33l.05-.41c.26-2.1 2.34-5 2.9-5.7a3.75 3.75 0 0 0 1.18-2.79 2.37 2.37 0 0 0-1-2 2 2 0 0 0-2.05 0 1.82 1.82 0 0 0-1.27 1.76 1.68 1.68 0 0 1-.34 1 12.72 12.72 0 0 1-2.19 1.41 50.77 50.77 0 0 0-10.66 7.69 44.34 44.34 0 0 0-11.08 17.44 83.06 83.06 0 0 0-3.32 13l.26.24a6.77 6.77 0 0 0 1.5 1.1 5.34 5.34 0 0 1 2.51 2.27 1.91 1.91 0 0 1 .13 1.69 1.59 1.59 0 0 1-2.7-.21.93.93 0 0 1 .3-1.08.92.92 0 0 0 .15.48.52.52 0 0 0 .69 0c.35-.23.26-.7-.25-1.07a7 7 0 0 0-2.22-.92 3.85 3.85 0 0 0-.79-.05c-.3 1.94-.52 3.73-.64 5.24l.27.24a9.61 9.61 0 0 0 1.77 1.22 5.45 5.45 0 0 1 2.52 2.27 1.94 1.94 0 0 1 .12 1.69 1.59 1.59 0 0 1-2.7-.21.93.93 0 0 1 .29-1.14.92.92 0 0 0 .15.48.52.52 0 0 0 .69 0c.35-.23.26-.7-.25-1.07a7 7 0 0 0-2.22-.92 3.8 3.8 0 0 0-.79-.05c-.09 1.56-.05 2.96.03 4.27zm19-39.45a2.2 2.2 0 0 1 .37-1.06 7.24 7.24 0 0 0 .79-2.24c.1-.68.17-1.87.19-2.35a2.32 2.32 0 0 1 1-2 2.54 2.54 0 0 1 1.68-.56.9.9 0 0 1 .73.39.52.52 0 0 1 0 .5c-.06.3-.39.39-.73.5a1.46 1.46 0 0 0-.59.25 1.91 1.91 0 0 0-.51 1.21 11.36 11.36 0 0 1-.75 4 5.16 5.16 0 0 1-.36.64c-.14.22-.38.59-.35.7s.11.16.28.24a.64.64 0 0 0 .39.07c.07 0 .1-.38.12-.53a1.36 1.36 0 0 1 .14-.6.79.79 0 0 1 .77-.34.54.54 0 0 1 .47.41 1.28 1.28 0 0 1-.07.79 1.58 1.58 0 0 0-.09.31 3 3 0 0 0 0 .43 1 1 0 0 1-.08.62c-.1.2-.42.27-.78.27a3.75 3.75 0 0 1-1.2-.21 2.32 2.32 0 0 1-1.42-1.44zm-91.52 146.93c0 3.59 2.25 8 3.8 9.89 1.82 2.27 3.86 4.66 5.6 7.31l6.74 9.64s-.94-2.79-1.8-5a64.52 64.52 0 0 0-3.05-6.3 102 102 0 0 1-4.81-9.14 17 17 0 0 1-1-9.6 9 9 0 0 1 4-6.2 5.45 5.45 0 0 1 5.06-.56c1.5.58 3.22 3.35 3.29 4.79a9.62 9.62 0 0 1-2.24 6.64c-1.61 2.17-3.87 3.14-3.7 3.4s2.82-.45 5.28-2.42c3.94-3.16 4.27-6 3.74-9.46-.49-3.12-4.25-5.73-4.25-5.73a41 41 0 0 1 7.86-6c3.86-2 6.79-3 10-2.79 5.73.26 13.16 4.9 20.08 2.7a25.52 25.52 0 0 0 11.22-7.8s2.57 3 3.33 3 2.33-1.94 2.33-1.94 4.15 4.93 10 4.57 10.07-1.68 13.53-1.91a24.88 24.88 0 0 1 6.38.43 21.43 21.43 0 0 1-3.39-1.51 17.88 17.88 0 0 0-6.78-1.88c-1.78-.17-4.54.66-8.65.16a7.64 7.64 0 0 1-5.77-4s2.84-4.38.14-7.51h0c-2.7-3.16-6.55-2.3-8.79.17s-.66 6.35-.66 6.35c-4.21-2.76-4.08-3.69-8.36-8.52s-6.75-7.54-13.4-7.71-10.63 2.11-14.41 4.45-9.55 10.86-11.2 13.16a96.55 96.55 0 0 1-9 10.08 46.71 46.71 0 0 1-8.88 6.22 33.14 33.14 0 0 0 11.58-5.83c2-1.51 12.81-12.44 16-15.31a17.41 17.41 0 0 1 12-4.54c4.25.23 6.62 1.68 8.53 4.38s.29 4.81-2.44 5.83-7.93-.79-14.61.79-12.74 5.53-15.77 7.86a34.3 34.3 0 0 0-5.5 5.6 11.14 11.14 0 0 0-8.18 3.89c-3.71 4.01-3.81 6.77-3.85 10.35zm69.59-33.26a2.79 2.79 0 1 1 2.74 2.83 2.8 2.8 0 0 1-2.74-2.83z"/></g></svg>