<?xml version="1.0" encoding="utf-8"?>
<!-- Generator: Adobe Illustrator 19.2.1, SVG Export Plug-In . SVG Version: 6.00 Build 0)  -->
<svg version="1.1" id="Layer_11" xmlns="http://www.w3.org/2000/svg" xmlns:xlink="http://www.w3.org/1999/xlink" x="0px" y="0px"
	 viewBox="0 0 347.8 195.7" style="enable-background:new 0 0 347.8 195.7;" xml:space="preserve">
<style type="text/css">
	.st0{fill:#FCB017;}
	.st1{fill:#FFCF2D;}
	.st2{fill:#F47629;}
	.st3{fill:#DF5126;}
	.st4{fill:#EF413B;}
	.st5{fill:#613A18;}
	.st6{fill:#412412;}
	.st7{fill:#A75C2A;}
	.st8{fill:#83381B;}
	.st9{fill:none;stroke:#446541;stroke-width:5;stroke-linecap:round;stroke-miterlimit:10;}
	.st10{fill:#102947;}
	.st11{fill:#FFFFFF;}
	.st12{fill:#72C7E9;}
	.st13{fill:#0F2947;}
	.st14{opacity:0.1;fill:#010101;}
	.st15{opacity:0.4;fill:#FFFFFF;}
</style>
<g>
	<path class="st0" d="M140.1,96.8c9.1-20.2,16.2-41.3,17.5-62.7c-1.5,2.5-3.2,4.9-5,7.4c-14.3,19.6-18,34.4-18,34.4s-0.2-6.2,1.8-15
		c2.3-10.2,0.4-17.7,0.4-17.7s-3.2,6.8-12.4,19.4c-9.2,12.6-22.9,30.2-12.8,50.3c7,14.1,23,22.7,38.8,26.7
		C139.3,127.6,134.1,110.9,140.1,96.8z"/>
	<path class="st0" d="M205.7,48.8c-10.1-16.2-9.9-28.4-9.9-28.4s-2.3,2.6-6,12c-1.8,4.7-2.5,9.4-2.8,13c2.4,13.1,4.9,26.1,1.2,38.9
		c-6.3,18.8-17.9,39.5-13.5,57.8c19.8-0.7,51.6-6.4,58.5-28.7C240.6,89.3,215.8,65,205.7,48.8z"/>
	<path class="st1" d="M188.2,84.3c3.7-12.8,1.2-25.9-1.2-38.9c-0.3,3.6,0,6.1,0,6.1s-4.9-9.1-6.1-23.2c-1.1-14.1-8.5-25.7-8.5-25.7
		s-4.1,14.8-14.6,31.6c-1.3,21.4-8.5,42.6-17.5,62.7c-6,14.1-0.8,30.8,10.3,42.9c6.8,1.7,13.6,2.5,19.7,2.5c1.4,0,2.9,0,4.5-0.1
		C170.3,123.7,181.9,103.1,188.2,84.3z"/>
	<path class="st2" d="M186.7,88.5c-1.4-1.3-2.9-2.6-4.5-4c-10.4-8.7-12-19.3-12-19.3s-7.6,8-10.3,19.5c-3.4,14.3,1.6,21.3,1.6,21.3
		s-5.1-5.1-7.1-8.8c-2.9-5.3-4.5-11.5-4.5-11.5s-5.9,5.8-10.6,13.7c-4.2,12.8,0.3,27.3,9.6,38.5c7.1,3.2,15.2,4.4,21.3,4.4
		c1.6,0,3.1,0,4.5-0.1C170.6,125.1,180.3,106.1,186.7,88.5z"/>
	<path class="st3" d="M212.8,115.3c0-14.3-15.9-24.6-15.9-24.6s2.9,6.3,3.6,13c0.9,8.2-1.7,16.7-1.7,16.7s0.9-9-0.3-14
		c-1.7-6.5-4.7-11.4-11.7-17.9c-6.4,17.7-16.1,36.6-12,53.7C201.6,141.2,212.7,131.5,212.8,115.3z"/>
	<path class="st3" d="M139.2,99.4c-3.9,6.5-7,14.4-5.3,21.8c1.8,8.2,7.9,13.5,15,16.7C139.4,126.7,135,112.2,139.2,99.4z"/>
	<path class="st4" d="M169.1,102.1c0,0,1,5.7-0.9,11.3c-2,5.6-6.5,7.8-7.4,14.9c-0.9,7.1,4.5,14.4,12.3,13.8c0.5,0,1.1-0.1,1.6-0.2
		c-2.3-9.9-0.1-20.4,3.5-30.9C173.7,106.1,169.1,102.1,169.1,102.1z"/>
</g>
<g>
	<path class="st5" d="M112.4,195.1c3.2,0.8,6.9,0.6,6.9,0.6s4.8-5.5,9.6-11.2c3.9-4.6,14-13,14-13l-25.4,2.6
		c-2.8,5.9-9.3,18.9-9.3,18.9S109.2,194.3,112.4,195.1z"/>
	<path class="st5" d="M184.6,109.2l15.2-4.7c-0.7,0.3-12.9-6.8-12.9-6.8s-2.9,0.9-4.7,2.3c-1.8,1.5-2.5,2.2-2.5,2.2L184.6,109.2z"/>
	<g>
		<path class="st6" d="M228.1,100.9L90.8,111.5l-0.2,0c-18.1,2.6-22.4,18.6-23.3,27.7c40-5.5,111.5-13.1,162.1-17.4L228.1,100.9z"/>
		<path class="st5" d="M67.9,150.8l7.4,1.1l-6.2,4.4c0.2,0.8,0.5,1.6,0.7,2.4c53.8-2.5,107.8-1.6,161.5-5l-1.9-32
			c-50.6,4.3-122,11.9-162.1,17.4c-0.2,2.5-0.2,4.5-0.1,5.5C67.3,146.8,67.6,148.8,67.9,150.8z"/>
	</g>
	<path class="st6" d="M88.1,177.1c2.9,0.8,5.5,1.1,8,1.1l136.1-10.8l-0.8-13.7c-53.7,3.4-107.7,2.5-161.5,5
		C72.8,167.9,78.5,174.5,88.1,177.1z"/>
	<path class="st7" d="M204.2,119.1c-1.7,4.7-2.3,9.9-2,14.9c1.2,16.2,6.8,28.6,20.9,32.5c14.1,3.8,23.7-4.1,23.7-4.1l-1.6-6.4
		l5.9,2.9c0,0,8.4-10.2,6.9-25.7c-1.3-13.2-10.6-33.4-29.9-32.2c-9.8,0.6-20.9,12-20.9,12l-44.4,6.3L204.2,119.1z"/>
	
		<ellipse transform="matrix(0.9969 -7.887384e-02 7.887384e-02 0.9969 -9.8036 18.5648)" class="st8" cx="230.1" cy="133.4" rx="18.7" ry="23.6"/>
	
		<ellipse transform="matrix(0.9969 -7.887384e-02 7.887384e-02 0.9969 -9.8036 18.5648)" class="st7" cx="230.1" cy="133.4" rx="9.1" ry="13.9"/>
</g>
<line class="st9" x1="16" y1="183.5" x2="16" y2="123.2"/>
<line class="st9" x1="16" y1="123.2" x2="16" y2="62.8"/>
<line class="st9" x1="16" y1="62.8" x2="16" y2="2.5"/>
<line class="st9" x1="16" y1="62.8" x2="38" y2="62.8"/>
<line class="st9" x1="16" y1="123.2" x2="38" y2="123.2"/>
<line class="st9" x1="16" y1="2.5" x2="38" y2="2.5"/>
<polyline class="st9" points="29.4,171.4 16,184.9 2.5,171.4 "/>
<g>
	<path class="st10" d="M331.1,20C319.3,10.9,309,6.2,298.5,6.1c0,0-0.1,0-0.1,0c0,0-0.1,0-0.1,0h0c-8.8,0.1-17.5,3.4-27,9.9
		c-1.8,1.2-3.6,2.6-5.5,4c-5.2,4.1-10.8,9-16.7,14.8c19.5,19.4,34.4,28.9,49.4,28.7c15,0.2,29.9-9.3,49.4-28.7
		C341.9,29,336.3,24,331.1,20z"/>
	<path class="st11" d="M298.4,55.8c11,0.1,21.9-6.8,36.2-21c-14.1-13.8-25.1-21-36.2-21l0,0h0h0l0,0c-11.1,0.1-22.1,7.2-36.2,21
		C276.5,49,287.4,56,298.4,55.8L298.4,55.8L298.4,55.8L298.4,55.8L298.4,55.8z"/>
	<path class="st12" d="M319.3,34.8c0,11.6-9.4,21-21,21c-11.6,0-21-9.4-21-21c0-4.4,1.3-8.5,3.6-11.8c3.8-5.5,10.1-9.2,17.3-9.2
		C309.9,13.8,319.3,23.2,319.3,34.8z"/>
	<path class="st13" d="M311.7,35.2c0,7.4-6,13.3-13.3,13.3c-7.4,0-13.3-6-13.3-13.3c0-2.8,0.9-5.4,2.3-7.6c2.4-3.5,6.4-5.7,10.9-5.8
		c0,0,0.1,0,0.1,0C305.8,21.9,311.7,27.8,311.7,35.2z"/>
	<path class="st14" d="M300.5,15.8L300.5,15.8L300.5,15.8c10.5,0.1,21,6.5,34.1,19c0,0,0,0,0,0c-14.1-13.8-25.1-21-36.2-21h0h0
		c-11.1,0.1-22.1,7.2-36.2,21c0.7,0.7,1.4,1.4,2,2C278.4,23,289.4,15.9,300.5,15.8z"/>
	<path class="st15" d="M298.3,13.8v21.7L281,23C284.7,17.4,291.1,13.8,298.3,13.8z"/>
	<path class="st11" d="M298.3,21.9v13.6l-10.9-7.8C289.8,24.2,293.8,21.9,298.3,21.9z"/>
</g>
</svg>
