<?xml version="1.0" encoding="utf-8"?>
<!-- Generator: Adobe Illustrator 19.2.1, SVG Export Plug-In . SVG Version: 6.00 Build 0)  -->
<svg version="1.1" id="Layer_3" xmlns="http://www.w3.org/2000/svg" xmlns:xlink="http://www.w3.org/1999/xlink" x="0px" y="0px"
	 viewBox="0 0 410 264.5" style="enable-background:new 0 0 410 264.5;" xml:space="preserve">
<style type="text/css">
	.st0{fill:none;stroke:#BF552A;stroke-width:16;stroke-miterlimit:10;}
	.st1{fill:#E8E6D3;}
	.st2{opacity:0.3;fill:#010101;}
	.st3{fill:#374E5D;}
	.st4{opacity:0.6;fill:#010101;}
	.st5{opacity:0.35;fill:url(#SVGID_1_);}
	.st6{opacity:0.25;fill:#EBEBEB;}
	.st7{fill:#90C73E;}
	.st8{fill:#F3F1DD;}
	.st9{fill:#EB583C;}
	.st10{fill:#574A47;}
	.st11{opacity:0.3;fill:url(#SVGID_2_);}
	.st12{opacity:0.3;fill:url(#SVGID_3_);}
	.st13{fill:#FFFFFF;}
	.st14{opacity:0.2;fill:url(#SVGID_4_);}
	.st15{opacity:0.2;fill:#010101;}
	.st16{opacity:0.2;fill:url(#SVGID_5_);}
	.st17{opacity:0.2;fill:url(#SVGID_6_);}
	.st18{fill:#F4D975;}
	.st19{fill:#599298;stroke:#599298;stroke-miterlimit:10;}
</style>
<g>
	<circle class="st0" cx="207.4" cy="132.3" r="124.3"/>
	<line class="st0" x1="295.3" y1="44.4" x2="119.6" y2="220.1"/>
</g>
<g>
	<g>
		<g>
			<g>
				<path class="st1" d="M258,207.3l0,0.1c0.2,0.9,0.2,1.8,0.1,2.7c-0.4,3.2-2.7,5.9-6,6.6l-64.4,13.2c-3.3,0.7-6.5-0.9-8.1-3.7
					c-0.4-0.7-0.8-1.6-1-2.5l0-0.1L258,207.3z"/>
				<path class="st2" d="M258,207.3l0,0.1c0.2,0.9,0.2,1.8,0.1,2.7l-78.5,16.1c-0.4-0.7-0.8-1.6-1-2.5l0-0.1L258,207.3z"/>
			</g>
			<g>
				<g>
					
						<rect x="162" y="87.9" transform="matrix(0.9796 -0.2008 0.2008 0.9796 -26.401 44.3315)" class="st3" width="86.7" height="128.9"/>
					<polygon class="st4" points="238.5,98.1 204.5,90.2 150.7,101.2 150,97.9 234.9,80.5 					"/>
					
						<radialGradient id="SVGID_1_" cx="-92.353" cy="102.3497" r="46.9634" gradientTransform="matrix(0.9217 -0.1889 0.1951 0.9518 263.0121 39.0046)" gradientUnits="userSpaceOnUse">
						<stop  offset="0.5744" style="stop-color:#151011"/>
						<stop  offset="0.7977" style="stop-color:#151011"/>
						<stop  offset="1" style="stop-color:#151011"/>
					</radialGradient>
					<polygon class="st5" points="214,216.3 207.5,217.7 181.7,91.4 188.2,90.1 					"/>
					
						<rect x="185.9" y="91.5" transform="matrix(0.9796 -0.2008 0.2008 0.9796 -27.4768 40.8956)" class="st6" width="3.9" height="128.9"/>
				</g>
				<g>
					
						<rect x="162.7" y="105.1" transform="matrix(0.9796 -0.2008 0.2008 0.9796 -28.4369 37.8239)" class="st7" width="19.1" height="108.1"/>
					
						<rect x="207" y="93.7" transform="matrix(0.9796 -0.2008 0.2008 0.9796 -25.0346 48.7013)" class="st7" width="41.3" height="108.1"/>
					
						<rect x="162.8" y="117" transform="matrix(0.9796 -0.2008 0.2008 0.9796 -28.6125 37.2627)" class="st8" width="13.2" height="85.5"/>
					
						<rect x="213.8" y="104.3" transform="matrix(0.9796 -0.2008 0.2008 0.9796 -24.8261 49.3653)" class="st8" width="34.4" height="85.5"/>
					<path class="st9" d="M237.7,127.3c0.9,4.6-1.4,9-5.2,9.8c-3.8,0.8-7.7-2.3-8.6-6.9c-0.9-4.6,3.5-18.3,3.5-18.3
						S236.8,122.7,237.7,127.3z"/>
					<path class="st9" d="M246.1,135.4l2.8,13.5c-1,1.7-2.4,2.8-4.3,3.2c-3.8,0.8-7.7-2.3-8.6-6.9c-0.9-4.6,3.5-18.3,3.5-18.3
						S243.1,131.1,246.1,135.4z"/>
					
						<rect x="226.5" y="157.2" transform="matrix(0.9796 -0.2008 0.2008 0.9796 -27.2914 51.1821)" class="st10" width="24.5" height="5.8"/>
					
						<rect x="223.1" y="167.2" transform="matrix(0.9796 -0.2008 0.2008 0.9796 -29.3746 51.2611)" class="st10" width="29.9" height="6.4"/>
					
						<rect x="165.7" y="171.5" transform="matrix(0.9796 -0.2008 0.2008 0.9796 -31.5619 37.532)" class="st10" width="7.1" height="5.8"/>
					
						<rect x="167.7" y="180.9" transform="matrix(0.9796 -0.2008 0.2008 0.9796 -33.4855 38.1212)" class="st10" width="6.9" height="6.4"/>
				</g>
			</g>
			
				<radialGradient id="SVGID_2_" cx="-41.6711" cy="102.3497" r="46.9634" gradientTransform="matrix(0.9217 -0.1889 0.1951 0.9518 263.0121 39.0046)" gradientUnits="userSpaceOnUse">
				<stop  offset="0.5744" style="stop-color:#151011"/>
				<stop  offset="0.7977" style="stop-color:#151011"/>
				<stop  offset="1" style="stop-color:#151011"/>
			</radialGradient>
			<polygon class="st11" points="260.7,206.8 254.3,208.1 228.4,81.8 234.9,80.5 			"/>
			<g>
				<g>
					<g>
						
							<rect x="182.9" y="52" transform="matrix(0.9796 -0.2008 0.2008 0.9796 -7.0536 38.2784)" class="st8" width="4.6" height="3.8"/>
						
							<radialGradient id="SVGID_3_" cx="-84.2031" cy="-1.046" r="2.2179" gradientTransform="matrix(0.9217 -0.1889 0.1951 0.9518 263.0121 39.0046)" gradientUnits="userSpaceOnUse">
							<stop  offset="0.5744" style="stop-color:#151011"/>
							<stop  offset="0.7977" style="stop-color:#151011"/>
							<stop  offset="1" style="stop-color:#151011"/>
						</radialGradient>
						<polygon class="st12" points="187.8,55.3 186.1,53.2 182.6,52.5 187.1,51.6 						"/>
					</g>
					<g>
						<path class="st1" d="M193.5,48.2c0.2,1.1-0.4,2.1-1.5,2.4l-14.3,2.9c-1.1,0.2-2.1-0.5-2.3-1.6l-3.6-17.4
							c-0.2-1.1,0.4-2.1,1.5-2.4l14.3-2.9c1.1-0.2,2.1,0.5,2.3,1.6L193.5,48.2z"/>
						<path class="st13" d="M178.1,51.4L174.6,34c-0.2-1.1,0.4-2.1,1.5-2.4l-2.8,0.6c-1.1,0.2-1.7,1.3-1.5,2.4l3.6,17.4
							c0.2,1.1,1.3,1.8,2.3,1.6l2.8-0.6C179.4,53.2,178.3,52.4,178.1,51.4z"/>
						<path class="st10" d="M192.6,44.2c-0.7,0.2-1.5,0.3-2.2,0.5c-5.9,1.2-7.8-7.9-1.9-9.1c0.7-0.2,1.5-0.3,2.2-0.5
							C191.4,38.1,192,41.2,192.6,44.2z"/>
						
							<radialGradient id="SVGID_4_" cx="-76.912" cy="-14.2167" r="8.1195" gradientTransform="matrix(0.9217 -0.1889 0.1951 0.9518 263.0121 39.0046)" gradientUnits="userSpaceOnUse">
							<stop  offset="0.5744" style="stop-color:#151011"/>
							<stop  offset="0.7977" style="stop-color:#151011"/>
							<stop  offset="1" style="stop-color:#151011"/>
						</radialGradient>
						<path class="st14" d="M187.6,29.3l-2.8,0.6c1.1-0.2,2.1,0.5,2.3,1.6l3.6,17.4c0.2,1.1-0.4,2.1-1.5,2.4l2.8-0.6
							c1.1-0.2,1.7-1.3,1.5-2.4l-3.6-17.4C189.7,29.7,188.6,29,187.6,29.3z"/>
					</g>
				</g>
				<g>
					<path class="st1" d="M236.8,78.7c0.2,0.7-0.3,1.4-1,1.6L149,98.1c-0.7,0.1-1.4-0.3-1.6-1.1l-0.9-4.5c-0.1-0.7,0.3-1.4,1-1.6
						l86.8-17.8c0.7-0.1,1.4,0.3,1.6,1.1L236.8,78.7z"/>
					<path class="st1" d="M233.4,73.4l-84.9,17.4c-0.8-3.9,1.6-7.8,5.5-8.6L225,67.6C228.8,66.8,232.6,69.4,233.4,73.4z"/>
					<path class="st1" d="M226.1,67.4l-73.2,15c-2.2-10.6,4.4-20.8,14.6-22.9l36.2-7.4c1.4-0.3,2.9-0.4,4.3-0.4
						C216.6,52,224.3,58.3,226.1,67.4z"/>
					<g>
						<path class="st13" d="M161.3,94.2l-0.9-4.5c-0.1-0.7,0.3-1.4,1-1.6l-6.9,1.4c-0.7,0.1-1.2,0.9-1,1.6l0.9,4.5
							c0.2,0.7,0.8,1.2,1.6,1.1l6.9-1.4C162.2,95.4,161.5,94.9,161.3,94.2z"/>
						<path class="st13" d="M167.8,79.4l-6.9,1.4c-3.8,0.8-6.3,4.6-5.5,8.6l6.9-1.4C161.5,84,164,80.1,167.8,79.4z"/>
						<path class="st13" d="M181.3,56.7l-6.9,1.4c-10.2,2.1-16.7,12.4-14.6,22.9l6.9-1.4C164.6,69,171.1,58.8,181.3,56.7z"/>
					</g>
					<path class="st9" d="M207.9,51.7l2.9,14.2c1.1,5.2-6.5,6.8-7.6,1.6l-1.3-6.5c-0.6-2.9-4.8-2-4.2,0.9l0.3,1.6
						c1.1,5.2-6.5,6.8-7.6,1.6l-2-9.7l15.2-3.1C205.1,51.8,206.5,51.7,207.9,51.7z"/>
					<path class="st15" d="M152.5,79.8c0.1,0.9,0.2,1.8,0.3,2.7l73.2-15c-0.2-0.9-0.4-1.7-0.7-2.6L152.5,79.8z"/>
					<g>
						<path class="st15" d="M234.3,73.2l-5.5,1.1c0.7-0.1,1.4,0.3,1.6,1.1l0.9,4.5c0.2,0.7-0.3,1.4-1,1.6l5.5-1.1
							c0.7-0.1,1.2-0.9,1-1.6l-0.9-4.5C235.7,73.5,235.1,73,234.3,73.2z"/>
						
							<radialGradient id="SVGID_5_" cx="-44.9093" cy="24.7643" r="5.4659" gradientTransform="matrix(0.9217 -0.1889 0.1951 0.9518 263.0121 39.0046)" gradientUnits="userSpaceOnUse">
							<stop  offset="0.5744" style="stop-color:#151011"/>
							<stop  offset="0.7977" style="stop-color:#151011"/>
							<stop  offset="1" style="stop-color:#151011"/>
						</radialGradient>
						<path class="st16" d="M225,67.6l-5.5,1.1c3.8-0.8,7.6,1.8,8.4,5.7l5.5-1.1C232.6,69.4,228.8,66.8,225,67.6z"/>
						
							<radialGradient id="SVGID_6_" cx="-57.5201" cy="10.9627" r="11.6413" gradientTransform="matrix(0.9217 -0.1889 0.1951 0.9518 263.0121 39.0046)" gradientUnits="userSpaceOnUse">
							<stop  offset="0.5744" style="stop-color:#151011"/>
							<stop  offset="0.7977" style="stop-color:#151011"/>
							<stop  offset="1" style="stop-color:#151011"/>
						</radialGradient>
						<path class="st17" d="M207.9,51.7c-1.4,0-2.8,0.1-4.3,0.4l-5.5,1.1c1.4-0.3,2.9-0.4,4.3-0.4c8.6,0.3,16.3,6.6,18.2,15.7
							l5.5-1.1C224.3,58.3,216.6,52,207.9,51.7z"/>
					</g>
				</g>
			</g>
		</g>
	</g>
</g>
<path class="st18" d="M407.6,219l-26.4-41.3c-5.2-8.1-13.5-8.1-18.7,0L336.1,219c-5.2,8.1-1.6,14.6,8,14.6h55.5
	C409.2,233.6,412.8,227,407.6,219z M376.2,222.5h-8.5v-7.3h8.5V222.5z M376.6,194.2l-2.5,16.7h-4.3l-2.5-16.7v-3.7h9.3V194.2z"/>
<path class="st19" d="M44.9,89.8C43.2,81,43.2,72.1,45,63.4l3.5-16.4l2.3,0.6l0.4-4.7c0.2-1.7-0.9-3.3-2.6-3.7l-9.3-2.4
	c-1.7-0.4-3.4,0.4-4.1,2L33.2,43l2.3,0.6l-4.9,16.1c-2.7,8.5-6.9,16.4-12.7,23.2c-3.9,4.6-6.7,10.1-8.2,15.8l-9,34.8
	c-1.1,4.1,1.4,8.4,5.6,9.4L26,148c4.1,1.1,8.4-1.4,9.4-5.6l9-34.8C45.9,101.9,46.1,95.7,44.9,89.8z M32.1,60.1l0.8-2.5L44,60.5
	L43.4,63c-0.3,1.5-0.6,3-0.8,4.6l-12-3.1C31.2,63.1,31.7,61.6,32.1,60.1z M36.6,39.3c0.4-0.9,1.3-1.3,2.2-1.1l9.3,2.4
	c0.9,0.2,1.5,1.1,1.4,2l-0.2,2.8l-13.9-3.6L36.6,39.3z M46.9,46.5l-2.6,12.4l-10.9-2.8L37.1,44L46.9,46.5z M19.1,83.9
	C23.7,78.5,27.3,72.5,30,66l12.4,3.2c-0.8,7-0.5,14,0.9,20.9c1.1,5.6,0.9,11.6-0.5,17.1l-0.2,1l-7.4-1.9c-1.9-2.5-4.6-4.2-7.7-5
	c-3.1-0.8-6.2-0.6-9.1,0.7l-7.4-1.9l0.2-1C12.7,93.5,15.4,88.3,19.1,83.9z M42.2,109.8l-4.8,18.8l-7.9-2l-0.3,0.1
	c-2.6,1.2-5.5,1.4-8.3,0.7c-2.8-0.7-5.2-2.3-6.9-4.6l-0.2-0.2l-7.9-2l4.8-18.8l7.9,2l0.3-0.1c2.6-1.2,5.5-1.4,8.3-0.7
	c2.8,0.7,5.2,2.3,6.9,4.6l0.2,0.2L42.2,109.8z M26.4,146.4l-19.7-5.1c-3.3-0.8-5.2-4.2-4.4-7.5L5.4,122l7.4,1.9
	c1.9,2.5,4.6,4.2,7.7,5s6.2,0.6,9.1-0.7l7.4,1.9L33.8,142C33,145.3,29.6,147.3,26.4,146.4z M26.7,105.2c-5.5-1.4-11,1.9-12.4,7.3
	c-1.4,5.5,1.9,11,7.3,12.4c5.5,1.4,11-1.9,12.4-7.3C35.4,112.2,32.1,106.6,26.7,105.2z M26.2,106.8c3.1,0.8,5.4,3.2,6.2,6.1
	l-14.5-3.7C20,107,23.1,106,26.2,106.8z M21.9,123.4c-3.1-0.8-5.4-3.2-6.2-6.1l14.5,3.7C28.2,123.2,25.1,124.2,21.9,123.4z
	 M31.4,119.7l-15.9-4.1c0-0.9,0-1.8,0.3-2.6c0.2-0.9,0.6-1.7,1-2.4l15.9,4.1c0,0.9,0,1.8-0.3,2.6C32.2,118.2,31.8,119,31.4,119.7z"
	/>
</svg>
