<?xml version="1.0" encoding="utf-8"?>
<!-- Generator: Adobe Illustrator 19.2.1, SVG Export Plug-In . SVG Version: 6.00 Build 0)  -->
<svg version="1.1" id="Layer_4" xmlns="http://www.w3.org/2000/svg" xmlns:xlink="http://www.w3.org/1999/xlink" x="0px" y="0px"
	 viewBox="0 0 372.6 174.1" style="enable-background:new 0 0 372.6 174.1;" xml:space="preserve">
<style type="text/css">
	.st0{fill:#6BA557;}
	.st1{fill:none;stroke:#4C3E32;stroke-width:4;stroke-miterlimit:10;}
	.st2{fill:#102947;}
	.st3{fill:#FFFFFF;}
	.st4{fill:#72C7E9;}
	.st5{fill:#0F2947;}
	.st6{opacity:0.1;fill:#010101;}
	.st7{opacity:0.4;fill:#FFFFFF;}
</style>
<g>
	<path class="st0" d="M21.5,13c4.6,0,7.6,3.8,7.6,7.8v18c0,3.5-4.6,3.5-4.6,0V21.1h-2.2v47.8c0,1.8-1.5,3.3-3.3,3.3
		c-1.8,0-3.3-1.5-3.3-3.3V41.2h-2.2l0,27.7c0,1.8-1.5,3.3-3.3,3.3c-1.8,0-3.3-1.5-3.3-3.3l0-47.8H4.6v17.6c0,3.5-4.6,3.5-4.6,0V20.7
		C0,16.4,3.4,13,7.5,13L21.5,13L21.5,13z M14.6,11.8c-3.3,0-5.9-2.6-5.9-5.9c0-3.3,2.6-5.9,5.9-5.9c3.3,0,5.9,2.6,5.9,5.9
		C20.5,9.1,17.8,11.8,14.6,11.8L14.6,11.8z"/>
	<path class="st0" d="M42.8,7.8V2.7l4.4,2.5L42.8,7.8L42.8,7.8z M58.5,13.1c4.1,0,6.5,3.4,7.1,5.3l5.1,16.6c1,3.6-3.5,5.1-4.6,1.6
		l-4.5-15.2h-2.1l7.9,27.1h-7.3v21.1c0,3.6-5.4,3.6-5.4,0V48.3h-2.2l0,21.3c0,3.6-5.4,3.6-5.4,0V48.4h-7.3l7.8-27.1h-2L41,36.6
		c-1.1,3.3-5.7,2-4.6-1.6l5-16.6c0.5-1.9,2.9-5.3,7.1-5.3H58.5L58.5,13.1z M53.5,11.8c-3.3,0-5.9-2.6-5.9-5.9c0-3.3,2.6-5.9,5.9-5.9
		c3.3,0,5.9,2.6,5.9,5.9C59.4,9.2,56.8,11.8,53.5,11.8L53.5,11.8z M64.2,7.8l-4.4-2.5l4.4-2.5V7.8L64.2,7.8z"/>
</g>
<path class="st1" d="M307.4,168.1v-37c0-1.4,1.2-2.5,2.6-2.5c1.4,0,2.6,1.1,2.6,2.6l0,4c0,1,0.8,1.9,1.9,1.9h21.7l19.9-19.9
	c1-0.9,2.6-0.9,3.6,0.1c1,1,1,2.6,0,3.6l-2.7,2.7l12.5,12.1c1.6,1.6,1.6,4.4-0.2,6.3l-3.4,3.7c-1.8,1.9-4.5,2.2-6.2,0.6
	c0,0-2.5-2.3-5.1-4.9c-0.3-0.3-0.6-0.5-1-0.5c-0.3,0-1.6,1.4-2.4,2.4v24.9c-0.1,2.2-1.9,4-4.1,4c-2.3,0-4.1-1.8-4.1-4.1v-6.4
	c0-1.7-1.3-3-3-3h-21.5c-1.7,0-2.9,1.4-2.9,3v6.4c0,2.3-1.8,4.1-4.1,4.1C309.3,172.1,307.5,170.3,307.4,168.1L307.4,168.1
	L307.4,168.1z"/>
<g>
	<path class="st2" d="M260.2,55.1c-27.6-21.4-51.9-32.4-76.4-32.5c-0.1,0-0.2,0-0.2,0c-0.1,0-0.2,0-0.2,0h0
		c-20.6,0.2-41.1,8-63.5,23.1c-4.2,2.9-8.5,6-12.9,9.4c-12.3,9.5-25.3,21.1-39.2,34.8c45.7,45.6,80.6,67.8,115.8,67.4
		c35.2,0.5,70.1-21.8,115.8-67.4C285.5,76.3,272.5,64.7,260.2,55.1z"/>
	<path class="st3" d="M183.6,139.3c25.8,0.3,51.4-15.9,84.8-49.3c-33-32.4-58.8-49.2-84.8-49.3l0,0c0,0,0,0,0,0h0l0,0
		c-26,0.2-51.8,16.9-84.8,49.3C132.2,123.3,157.8,139.6,183.6,139.3L183.6,139.3L183.6,139.3C183.6,139.3,183.6,139.3,183.6,139.3
		L183.6,139.3z"/>
	<path class="st4" d="M232.5,89.9c0,27.2-22,49.2-49.2,49.2c-27.2,0-49.2-22-49.2-49.2c0-10.3,3.2-19.8,8.6-27.7
		c8.9-13,23.8-21.5,40.7-21.5C210.5,40.7,232.5,62.7,232.5,89.9z"/>
	<path class="st5" d="M214.8,90.9c0,17.3-14,31.3-31.3,31.3c-17.3,0-31.3-14-31.3-31.3c0-6.6,2-12.7,5.5-17.7
		c5.6-8.1,14.9-13.4,25.5-13.5c0.1,0,0.2,0,0.3,0C200.8,59.6,214.8,73.6,214.8,90.9z"/>
	<path class="st6" d="M188.3,45.3L188.3,45.3L188.3,45.3c24.7,0.1,49.3,15.3,80,44.7c0,0,0.1-0.1,0.1-0.1
		c-33-32.4-58.8-49.2-84.8-49.3c0,0,0,0,0,0h0c-26,0.2-51.8,16.9-84.8,49.3c1.6,1.6,3.2,3.2,4.8,4.7
		C136.5,62.2,162.4,45.5,188.3,45.3z"/>
	<path class="st7" d="M183.3,40.7v50.8l-40.7-29.4C151.5,49.2,166.4,40.7,183.3,40.7z"/>
	<path class="st3" d="M183.3,59.6v31.9l-25.5-18.4C163.4,65,172.7,59.7,183.3,59.6z"/>
</g>
</svg>
