<?xml version="1.0" encoding="utf-8"?>
<!-- Generator: Adobe Illustrator 19.2.1, SVG Export Plug-In . SVG Version: 6.00 Build 0)  -->
<svg version="1.1" id="Layer_5" xmlns="http://www.w3.org/2000/svg" xmlns:xlink="http://www.w3.org/1999/xlink" x="0px" y="0px"
	 viewBox="0 0 376.2 162.8" style="enable-background:new 0 0 376.2 162.8;" xml:space="preserve">
<style type="text/css">
	.st0{fill:#09B082;}
	.st1{fill:#009473;}
	.st2{opacity:0.39;fill:#009473;}
	.st3{fill:#04A67A;}
	.st4{fill:#4DBB7F;}
	.st5{fill:#DCBE97;}
	.st6{fill:#CEAC7A;}
	.st7{fill:#8D6E42;}
	.st8{fill:#5A3914;}
	.st9{fill:#446541;}
	.st10{fill:#E3A625;}
</style>
<g>
	<g>
		<g>
			<g>
				<path class="st0" d="M297.2,111.9c0-0.2,0-0.4,0-0.5c0-9.7-7.9-17.6-17.6-17.6c-1.5,0-3,0.2-4.4,0.6
					c-4.4-8.7-13.3-14.6-23.7-14.6c-4.1,0-7.9,0.9-11.4,2.6c-5.8-10.1-16.7-16.9-29.2-16.9c-18.6,0-33.7,15.1-33.7,33.7
					c0,4.5,0.9,8.8,2.5,12.7H297.2z"/>
				<g>
					<path class="st1" d="M267.7,94.3c1.4-0.4,2.9-0.6,4.4-0.6c1,0,1.9,0.1,2.9,0.3c-4.4-8.5-13.3-14.3-23.5-14.3
						c-1.3,0-2.5,0.1-3.7,0.3C256.5,81.2,263.9,86.7,267.7,94.3z"/>
					<path class="st2" d="M279.6,93.8c-1.3,0-2.5,0.2-3.7,0.4c7.9,1.7,13.8,8.7,13.8,17.1c0,0.2,0,0.4,0,0.5h7.5c0-0.2,0-0.4,0-0.5
						C297.2,101.6,289.3,93.8,279.6,93.8z"/>
				</g>
			</g>
			<path class="st2" d="M238.7,80.2c-6.1-9-16.3-14.9-27.9-14.9c-1.3,0-2.5,0.1-3.8,0.2c10.9,1.2,20.3,7.6,25.5,16.7
				c0,0,6.3,9.9,0.4,29.6c0.2,0,9.7,0,9.7,0S247.2,92.5,238.7,80.2z"/>
		</g>
	</g>
	<g>
		<path class="st1" d="M281.5,109.9c-2.4,0.9-5.1-0.3-5.1-0.3s1.2-2.7,3.5-3.7c2.4-0.9,5.1,0.3,5.1,0.3S283.8,108.9,281.5,109.9z"/>
		<path class="st1" d="M277.2,102.8c-1.8,1.8-4.7,1.8-4.7,1.8s-0.1-3,1.7-4.8c1.8-1.8,4.7-1.8,4.7-1.8S279,101,277.2,102.8z"/>
		<path class="st1" d="M261.2,95.3c-1.4,2-4.2,2.4-4.2,2.4s-0.5-2.8,1-4.8c1.4-2,4.2-2.4,4.2-2.4S262.7,93.3,261.2,95.3z"/>
		<path class="st3" d="M256.2,90c-0.9,2.3-3.5,3.3-3.5,3.3s-1.1-2.6-0.2-4.9c0.9-2.3,3.5-3.3,3.5-3.3S257.1,87.8,256.2,90z"/>
		<path class="st3" d="M249.5,88.1c-0.4,2.4-2.8,4-2.8,4s-1.6-2.3-1.2-4.7c0.4-2.4,2.8-4,2.8-4S250,85.7,249.5,88.1z"/>
		<path class="st3" d="M270.4,99.1c-0.4,2.4-2.8,4-2.8,4s-1.6-2.3-1.2-4.7c0.4-2.4,2.8-4,2.8-4S270.8,96.7,270.4,99.1z"/>
	</g>
	<g>
		<path class="st1" d="M206.4,107.4c-2.2-0.6-3.5-3-3.5-3s2.3-1.3,4.5-0.7c2.2,0.6,3.5,3,3.5,3S208.6,108,206.4,107.4z"/>
		<path class="st3" d="M207.5,98.8c-2.3,0.5-4.5-0.9-4.5-0.9s1.4-2.3,3.6-2.8c2.3-0.5,4.5,0.9,4.5,0.9S209.8,98.2,207.5,98.8z"/>
		<path class="st4" d="M204.3,90.7c-1.9,1.4-4.5,0.9-4.5,0.9s0.4-2.6,2.3-4c1.9-1.4,4.5-0.9,4.5-0.9S206.2,89.3,204.3,90.7z"/>
		<path class="st4" d="M198.1,84.4c-1.2,2-3.8,2.5-3.8,2.5s-0.6-2.6,0.6-4.6c1.2-2,3.8-2.5,3.8-2.5S199.3,82.4,198.1,84.4z"/>
	</g>
	<g>
		<path class="st1" d="M221.2,109.6c-3-0.6-4.9-3.6-4.9-3.6s2.9-2,5.9-1.4c3,0.6,4.9,3.6,4.9,3.6S224.2,110.2,221.2,109.6z"/>
		<path class="st1" d="M223,100.7c-3-0.6-4.9-3.6-4.9-3.6s2.9-2,5.9-1.4c3,0.6,4.9,3.6,4.9,3.6S226,101.3,223,100.7z"/>
		<path class="st1" d="M222.9,91.8c-3,0.5-5.9-1.5-5.9-1.5s2-2.9,5-3.4c3-0.5,5.9,1.5,5.9,1.5S225.9,91.2,222.9,91.8z"/>
		<path class="st3" d="M220.1,83.3c-2.5,1.7-6,1-6,1s0.7-3.5,3.2-5.2c2.5-1.7,6-1,6-1S222.6,81.6,220.1,83.3z"/>
		<path class="st3" d="M214.2,76.6c-1.9,2.4-5.4,2.9-5.4,2.9s-0.5-3.5,1.3-5.9c1.9-2.4,5.4-2.9,5.4-2.9S216,74.1,214.2,76.6z"/>
		<path class="st3" d="M206.4,72c-0.9,2.9-4,4.6-4,4.6s-1.7-3.1-0.8-6c0.9-2.9,4-4.6,4-4.6S207.2,69.1,206.4,72z"/>
	</g>
</g>
<ellipse class="st5" cx="203.1" cy="130.1" rx="114.8" ry="32.7"/>
<g>
	<ellipse class="st6" cx="203.1" cy="119.2" rx="57.7" ry="16.4"/>
	<ellipse class="st7" cx="203.1" cy="119.2" rx="32.5" ry="9.3"/>
	<path class="st8" d="M180.7,125.9c5.8,1.6,13.7,2.6,22.4,2.6s16.6-1,22.4-2.6c-5.8-1.6-13.7-2.6-22.4-2.6S186.5,124.3,180.7,125.9z
		"/>
</g>
<g>
	<g>
		<path class="st9" d="M15.3,27.5l0.6-0.1c9.8-1.6,19.6,3.2,24.4,11.9c4.8,8.7,3.6,19.5-2.9,27l-0.4,0.4l-0.6,0.1
			C26.7,68.4,16.8,63.6,12,55c-4.8-8.7-3.6-19.5,2.9-27L15.3,27.5z M35.4,63.7c5.3-6.4,6.2-15.6,2.1-22.9
			C33.5,33.5,25.3,29.4,17,30.5c-5.3,6.5-6.2,15.6-2.1,22.9C18.9,60.7,27.1,64.8,35.4,63.7z"/>
	</g>
	<g>
		<line class="st9" x1="36.2" y1="65.2" x2="16.7" y2="30.1"/>
		
			<rect x="24.9" y="27.6" transform="matrix(0.8747 -0.4846 0.4846 0.8747 -19.7818 18.8085)" class="st9" width="3.2" height="40.2"/>
	</g>
	<g>
		<line class="st9" x1="16.1" y1="28.9" x2="12.9" y2="23.2"/>
		
			<rect x="12.9" y="22.8" transform="matrix(0.8747 -0.4846 0.4846 0.8747 -10.8066 10.2966)" class="st9" width="3.2" height="6.5"/>
	</g>
	<g>
		<line class="st9" x1="22.2" y1="61.8" x2="26.5" y2="48.9"/>
		
			<rect x="17.5" y="53.7" transform="matrix(0.3192 -0.9477 0.9477 0.3192 -35.8351 60.7189)" class="st9" width="13.6" height="3.2"/>
	</g>
	<g>
		<line class="st9" x1="14.2" y1="54.5" x2="20.1" y2="37.1"/>
		
			<rect x="7.9" y="44.2" transform="matrix(0.3192 -0.9477 0.9477 0.3192 -31.7545 47.4147)" class="st9" width="18.4" height="3.2"/>
	</g>
	<g>
		<line class="st9" x1="40.7" y1="51.5" x2="27.5" y2="48.3"/>
		
			<rect x="32.5" y="43.1" transform="matrix(0.2323 -0.9726 0.9726 0.2323 -22.3563 71.4696)" class="st9" width="3.2" height="13.6"/>
	</g>
	<g>
		<line class="st9" x1="38.8" y1="40.9" x2="20.9" y2="36.6"/>
		<rect x="28.3" y="29.5" transform="matrix(0.232 -0.9727 0.9727 0.232 -14.7387 58.82)" class="st9" width="3.2" height="18.4"/>
	</g>
</g>
<g>
	<g>
		<path class="st9" d="M80,74.5l0.3,0.5c4.9,8.6,3.8,19.5-2.6,27c-6.5,7.5-17,10.2-26.3,6.7l-0.5-0.2l-0.3-0.5
			c-4.9-8.6-3.8-19.5,2.6-27.1c6.5-7.5,17-10.2,26.3-6.7L80,74.5z M53,106c7.9,2.7,16.8,0.4,22.2-6c5.4-6.4,6.4-15.5,2.5-22.9
			c-7.9-2.7-16.8-0.4-22.2,6C50.1,89.5,49.1,98.6,53,106z"/>
	</g>
	<g>
		<line class="st9" x1="51.9" y1="107.3" x2="78.1" y2="76.8"/>
		<rect x="44.9" y="90.4" transform="matrix(0.651 -0.7591 0.7591 0.651 -47.181 81.4624)" class="st9" width="40.2" height="3.2"/>
	</g>
	<g>
		<line class="st9" x1="79" y1="75.8" x2="83.2" y2="70.8"/>
		<rect x="77.8" y="71.7" transform="matrix(0.651 -0.7591 0.7591 0.651 -27.3298 87.1227)" class="st9" width="6.5" height="3.2"/>
	</g>
	<g>
		<line class="st9" x1="50.3" y1="92.9" x2="63.9" y2="92.5"/>
		
			<rect x="50.3" y="91.1" transform="matrix(0.9995 -3.104269e-02 3.104269e-02 0.9995 -2.8499 1.8171)" class="st9" width="13.6" height="3.2"/>
	</g>
	<g>
		<line class="st9" x1="54.3" y1="82.9" x2="72.7" y2="82.3"/>
		
			<rect x="54.3" y="81" transform="matrix(0.9995 -3.104269e-02 3.104269e-02 0.9995 -2.5341 2.0103)" class="st9" width="18.4" height="3.2"/>
	</g>
	<g>
		<line class="st9" x1="66.4" y1="106.7" x2="64.7" y2="93.2"/>
		<rect x="64" y="93.1" transform="matrix(0.9926 -0.1212 0.1212 0.9926 -11.6327 8.6847)" class="st9" width="3.2" height="13.6"/>
	</g>
	<g>
		<line class="st9" x1="75.7" y1="101.3" x2="73.4" y2="83"/>
		
			<rect x="72.9" y="82.9" transform="matrix(0.9926 -0.1215 0.1215 0.9926 -10.6418 9.7426)" class="st9" width="3.2" height="18.4"/>
	</g>
</g>
<g>
	<g>
		<path class="st9" d="M5.2,127.7l0.3-0.5c5.8-8,16.2-11.6,25.7-8.8c9.5,2.8,16.4,11.3,17,21.2l0,0.6l-0.3,0.5
			c-5.8,8-16.2,11.6-25.7,8.8c-9.5-2.7-16.4-11.3-17-21.2L5.2,127.7z M45,139.2c-0.8-8.3-6.6-15.4-14.7-17.7
			c-8-2.3-16.7,0.6-21.8,7.2c0.8,8.3,6.6,15.4,14.7,17.7C31.2,148.7,39.9,145.8,45,139.2z"/>
	</g>
	<g>
		<line class="st9" x1="46.6" y1="139.7" x2="8" y2="128.5"/>
		
			<rect x="25.7" y="114" transform="matrix(0.277 -0.9609 0.9609 0.277 -109.1093 123.2268)" class="st9" width="3.2" height="40.2"/>
	</g>
	<g>
		<line class="st9" x1="6.7" y1="128.2" x2="0.4" y2="126.4"/>
		<rect x="2" y="124" transform="matrix(0.2771 -0.9609 0.9609 0.2771 -119.6965 95.4594)" class="st9" width="3.2" height="6.5"/>
	</g>
	<g>
		<line class="st9" x1="34.2" y1="147.1" x2="28.2" y2="134.9"/>
		
			<rect x="29.6" y="134.2" transform="matrix(0.8964 -0.4433 0.4433 0.8964 -59.2869 28.4476)" class="st9" width="3.2" height="13.6"/>
	</g>
	<g>
		<line class="st9" x1="23.5" y1="147.7" x2="15.3" y2="131.2"/>
		
			<rect x="17.8" y="130.2" transform="matrix(0.8964 -0.4433 0.4433 0.8964 -59.7926 23.042)" class="st9" width="3.2" height="18.4"/>
	</g>
	<g>
		<line class="st9" x1="40.1" y1="126.8" x2="28.5" y2="133.9"/>
		
			<rect x="27.5" y="128.7" transform="matrix(0.8527 -0.5225 0.5225 0.8527 -63.0373 37.1184)" class="st9" width="13.6" height="3.2"/>
	</g>
	<g>
		<line class="st9" x1="31.3" y1="120.6" x2="15.6" y2="130.2"/>
		
			<rect x="14.2" y="123.8" transform="matrix(0.8525 -0.5227 0.5227 0.8525 -62.0975 30.7452)" class="st9" width="18.4" height="3.2"/>
	</g>
</g>
<path class="st10" d="M305,44.8h-29.8c-2.2,0-3.1-1.5-1.8-3.4l14.5-22c1.2-1.9,3.2-1.9,4.5,0l14.5,22C308,43.3,307.2,44.8,305,44.8z
	"/>
<rect x="204" class="st10" width="172.2" height="12.6"/>
</svg>
