<?xml version="1.0" encoding="utf-8"?>
<!-- Generator: Adobe Illustrator 21.0.0, SVG Export Plug-In . SVG Version: 6.00 Build 0)  -->
<svg version="1.1" id="Layer_1" xmlns="http://www.w3.org/2000/svg" xmlns:xlink="http://www.w3.org/1999/xlink" x="0px" y="0px"
	 viewBox="0 0 142.7 154.4" style="enable-background:new 0 0 142.7 154.4;" xml:space="preserve">
<style type="text/css">
	.st0{fill:#6D654B;}
	.st1{fill:#4B3D31;}
	.st2{fill:#C0562A;}
	.st3{fill:#F1CC1E;}
	.st4{fill:#FEF5DC;}
</style>
<path class="st0" d="M81.6,154.4V10.3C81.6,4.6,77,0,71.3,0S61,4.6,61,10.3v144.1L81.6,154.4L81.6,154.4z"/>
<rect x="61" y="93.5" class="st1" width="20.6" height="10.3"/>
<rect x="61" y="48.4" class="st1" width="20.6" height="10.3"/>
<polygon class="st2" points="125.8,98.7 16,98.7 0,82.4 16,66.2 125.8,66.2 "/>
<polygon class="st3" points="16.9,21 126.6,21 142.7,37.3 126.6,53.6 16.9,53.6 "/>
<g>
	<path class="st1" d="M45.3,42.1v-9.3h2.4V40h3.8v2.1H45.3z"/>
	<path class="st1" d="M53,42.1v-9.3h2.4v9.3H53z"/>
	<path class="st1" d="M65.7,42.1V36l-2.4,6.1h-1.1L59.9,36v6.1h-2.4v-9.3h3.3l1.9,5.1l2-5.1h3.3v9.3H65.7z"/>
	<path class="st1" d="M70.1,42.1v-9.3h4.7c2.1,0,3.2,1.4,3.2,3.1c0,1.7-1.1,3.1-3.2,3.1h-2.3v3.1H70.1z M75.6,35.9
		c0-0.6-0.5-1-1.1-1h-1.9v2h1.9C75.1,36.8,75.6,36.5,75.6,35.9z"/>
	<path class="st1" d="M79.5,42.1v-9.3h2.4v9.3H79.5z"/>
	<path class="st1" d="M83.9,42.1v-9.3h6.8v2.1h-4.4v1.5h4.3v2.1h-4.3V40h4.4v2.1H83.9z"/>
	<path class="st1" d="M99,42.1v-3.8l-3.5-5.6h2.7l2,3.4l2-3.4h2.7l-3.5,5.6v3.8H99z"/>
</g>
<g>
	<path class="st4" d="M25,86.7l-1.6-3.1h-1.2v3.1h-2.4v-9.3h4.7c2.1,0,3.2,1.4,3.2,3.1c0,1.6-1,2.5-1.9,2.8l1.9,3.4H25z M25.2,80.5
		c0-0.6-0.5-1-1.2-1h-1.9v2h1.9C24.7,81.5,25.2,81.2,25.2,80.5z"/>
	<path class="st4" d="M29.3,86.7v-9.3h6.8v2.1h-4.4V81h4.3v2.1h-4.3v1.6h4.4v2.1H29.3z"/>
	<path class="st4" d="M37.5,82.1c0-2.9,2.2-4.8,5.1-4.8c2.3,0,3.5,1.3,4.1,2.5l-2.1,1c-0.3-0.7-1.1-1.4-2-1.4
		c-1.5,0-2.6,1.2-2.6,2.7c0,1.5,1.1,2.7,2.6,2.7c0.9,0,1.7-0.6,2-1.4l2.1,1c-0.6,1.2-1.8,2.5-4.1,2.5C39.7,86.9,37.5,84.9,37.5,82.1
		z"/>
	<path class="st4" d="M47.5,82.1c0-2.8,2.1-4.8,5-4.8c2.9,0,5,2,5,4.8s-2.1,4.8-5,4.8C49.6,86.9,47.5,84.9,47.5,82.1z M55,82.1
		c0-1.5-1-2.7-2.5-2.7c-1.6,0-2.5,1.2-2.5,2.7c0,1.5,1,2.7,2.5,2.7C54,84.8,55,83.6,55,82.1z"/>
	<path class="st4" d="M58,86.1l1-1.8c0.3,0.3,0.8,0.5,1.3,0.5c0.8,0,1.2-0.5,1.2-1.3v-6.1H64v6.1c0,2.3-1.4,3.4-3.4,3.4
		C59.6,86.9,58.7,86.7,58,86.1z"/>
	<path class="st4" d="M71.8,86.7l-0.5-1.3h-3.7l-0.5,1.3h-2.7l3.5-9.3h3l3.5,9.3H71.8z M69.5,79.8l-1.2,3.5h2.4L69.5,79.8z"/>
	<path class="st4" d="M81.6,86.7v-7.2H79v-2.1h7.6v2.1H84v7.2H81.6z"/>
	<path class="st4" d="M87.3,82.1c0-2.8,2.1-4.8,5-4.8s5,2,5,4.8s-2.1,4.8-5,4.8S87.3,84.9,87.3,82.1z M94.9,82.1
		c0-1.5-1-2.7-2.5-2.7c-1.6,0-2.5,1.2-2.5,2.7c0,1.5,1,2.7,2.5,2.7C93.9,84.8,94.9,83.6,94.9,82.1z"/>
	<path class="st4" d="M98.9,86.7v-9.3h3.9c2.9,0,5.1,1.8,5.1,4.7c0,2.9-2.1,4.7-5,4.7H98.9z M105.4,82.1c0-1.4-0.9-2.6-2.6-2.6h-1.5
		v5.1h1.5C104.5,84.6,105.4,83.5,105.4,82.1z"/>
	<path class="st4" d="M109,82.1c0-2.8,2.1-4.8,5-4.8s5,2,5,4.8s-2.1,4.8-5,4.8S109,84.9,109,82.1z M116.5,82.1c0-1.5-1-2.7-2.5-2.7
		c-1.6,0-2.5,1.2-2.5,2.7c0,1.5,1,2.7,2.5,2.7C115.5,84.8,116.5,83.6,116.5,82.1z"/>
</g>
</svg>
