<?xml version="1.0" encoding="utf-8"?>
<!-- Generator: Adobe Illustrator 19.2.1, SVG Export Plug-In . SVG Version: 6.00 Build 0)  -->
<svg version="1.1" id="Layer_3" xmlns="http://www.w3.org/2000/svg" xmlns:xlink="http://www.w3.org/1999/xlink" x="0px" y="0px"
	 viewBox="0 0 509.1 413.4" style="enable-background:new 0 0 509.1 413.4;" xml:space="preserve">
<style type="text/css">
	.st0{fill:#B4A254;}
	.st1{fill:#F7E183;}
	.st2{fill:#7A752F;}
	.st3{fill:#AA812D;}
	.st4{fill:#606340;}
	.st5{fill:#A5A779;}
	.st6{fill:#412412;}
	.st7{fill:#613A18;}
	.st8{fill:none;stroke:#E3A625;stroke-width:4;stroke-miterlimit:10;}
	.st9{fill:none;stroke:#C6B887;stroke-width:6;stroke-linecap:round;stroke-linejoin:round;stroke-miterlimit:10;}
	.st10{fill:none;stroke:#C6B887;stroke-width:4;stroke-miterlimit:10;}
</style>
<g>
	<path class="st0" d="M227.4,314.9c0.2-5.5,1.9-9.7,3.5-9.6c1.6,0.1,5.4-3.9,8.7-8.6c35.3-49.3,102.7-73.4,138-122.7
		c3.4-4.6,7-13.4,8-19.6c0.6-3.5,1.1-7,1.4-10.6c0.7-6.4,1.6-16.4,1.9-22.4c0.3-5.9-2.2-9.2-5.6-7.2c-3.4,2-6.6-1.4-7.2-7.7
		c-0.7-6.4-3.5-8.8-6.2-5.4c-2.8,3.3-6.3,0.9-7.7-5.4c-1.6-6.4-4.4-7.8-6.4-3.3c-2.1,4.4-5.8,3.1-8-2.7c-2.3-5.9-5-6.3-6.5-1.1
		c-1.5,5.1-5.2,5-8,0c-2.9-5.1-5.6-4.5-6.4,1c-0.9,5.5-4.6,6.5-8,2.6c-3.4-4-6.1-2.6-6.3,2.9c-0.2,5.5-1.9,9.7-3.5,9.6
		c-1.6-0.1-5.4,3.9-8.7,8.6c-35.3,49.3-102.7,73.4-138,122.7c-3.4,4.6-7,13.4-8,19.6c-0.6,3.5-1.1,7-1.4,10.6
		c-0.7,6.4-1.6,16.4-1.9,22.4c-0.3,5.9,2.2,9.2,5.6,7.2c3.4-2,6.6,1.4,7.2,7.7c0.7,6.4,3.5,8.8,6.2,5.4c2.8-3.3,6.3-0.9,7.7,5.4
		c1.6,6.4,4.4,7.8,6.4,3.3c2.1-4.4,5.8-3.1,8,2.7c2.3,5.9,5,6.3,6.5,1.1c1.5-5.1,5.2-5,8,0c2.9,5.1,5.6,4.5,6.4-1
		c0.9-5.5,4.6-6.5,8-2.6C224.6,321.8,227.3,320.4,227.4,314.9z"/>
	<g>
		<g>
			<path class="st1" d="M261.8,181.3c-0.9-0.3-1.8-0.9-2.5-1.7c-2.3-2.6-2.1-6.5,0.5-8.9l56.6-51c2.6-2.3,6.5-2.1,8.9,0.5
				c2.3,2.6,2.1,6.5-0.5,8.9l-56.6,51C266.4,181.7,263.9,182,261.8,181.3z"/>
			<path class="st1" d="M212.2,220.2c-1-0.4-2-1-2.7-1.9c-2.2-2.7-1.8-6.6,0.8-8.8l35.3-29.3c2.7-2.2,6.6-1.8,8.8,0.8
				c2.2,2.7,1.8,6.6-0.8,8.8l-35.3,29.3C216.6,220.6,214.2,220.9,212.2,220.2z"/>
			<path class="st1" d="M193,235.6c-1-0.4-2-1-2.7-1.9c-2.2-2.7-1.8-6.6,0.8-8.8l5.9-4.9c2.7-2.2,6.6-1.8,8.8,0.8
				c2.2,2.7,1.8,6.6-0.8,8.8l-5.9,4.9C197.4,236,195,236.3,193,235.6z"/>
		</g>
		<path class="st2" d="M205.2,259.1c-1.1-0.4-2.1-1.1-2.8-2.1c-2.1-2.7-1.6-6.7,1.1-8.8c10.3-8,21-16.3,31.6-24.7
			c2.7-2.2,6.7-1.7,8.8,1c2.2,2.7,1.7,6.7-1,8.8c-10.6,8.4-21.3,16.8-31.7,24.8C209.4,259.5,207.1,259.8,205.2,259.1z"/>
		<path class="st2" d="M256.2,222.7l-4.1-4.8l-0.1,0.1l-5.9-2.2c0.6-1.7,0.6-1.7,16.9-14.7c16.2-13,16.2-13,18-13.3l1,6.2l-4.9,4
			l4.9-4l3.7,5.1C284.2,200.2,257.7,221.5,256.2,222.7z"/>
		<path class="st2" d="M303.7,181.1c-1.1-0.4-2-1.1-2.8-2c-2.1-2.7-1.7-6.7,1-8.8l20.7-16.4c2.7-2.2,6.7-1.7,8.8,1
			c2.1,2.7,1.7,6.7-1,8.8l-20.7,16.4C308,181.5,305.7,181.8,303.7,181.1z"/>
		<path class="st3" d="M227.6,276.4c-1-0.4-2-1-2.7-1.9c-2.2-2.7-1.8-6.6,0.8-8.8l63.5-52.7c2.7-2.2,6.6-1.8,8.8,0.8
			c2.2,2.7,1.8,6.6-0.8,8.8l-63.5,52.7C232,276.8,229.6,277.1,227.6,276.4z"/>
		<path class="st3" d="M308.6,209.3c-1-0.4-2-1-2.7-1.9c-2.2-2.7-1.8-6.6,0.8-8.8l11.3-9.3c2.7-2.2,6.6-1.8,8.8,0.8
			c2.2,2.7,1.8,6.6-0.8,8.8l-11.3,9.3C312.9,209.7,310.6,210,308.6,209.3z"/>
		<path class="st3" d="M334.6,187.7c-1-0.4-2-1-2.7-1.9c-2.2-2.7-1.8-6.6,0.8-8.8l20.1-16.7c2.7-2.2,6.6-1.8,8.8,0.8
			c2.2,2.7,1.8,6.6-0.8,8.8l-20.1,16.7C338.9,188.1,336.6,188.5,334.6,187.7z"/>
	</g>
	<g>
		<g>
			<path class="st4" d="M337.3,171l1.2,0.2c20.4,3.9,36.3,20.2,39.7,40.6c3.3,20.5-6.6,41-24.8,51.1l-1.1,0.6l-1.2-0.2
				c-20.4-3.8-36.3-20.2-39.7-40.6c-3.3-20.4,6.6-41,24.8-51.1L337.3,171z"/>
		</g>
		<path class="st5" d="M348.6,219.2l-3.8-23.2l33.5,21.9l0.4-0.6c-0.1-1.9-0.2-3.7-0.5-5.6c-0.3-1.6-0.6-3.1-1-4.6L343,184.9
			l-2.4-14.8l-3.6-22.2l-8.2,1.3l3.3,20.2l0,0l2.7,16.8l-23.9,30.2c0.1,2.1,0.3,4.1,0.6,6.2c0.3,1.7,0.7,3.4,1.1,5l24-30.3l3.8,23.2
			l-0.1-0.1l-19.2,24.2c1.7,2.2,3.6,4.3,5.7,6.2l15.4-19.4l5,30.7c1.3,0.4,2.6,0.7,4,0.9l1.2,0.2l1.1-0.6c0.7-0.4,1.4-0.8,2.1-1.3
			l-5.1-31.4l21.7,14.2c1.4-2.4,2.6-5,3.6-7.6L348.6,219.2L348.6,219.2z"/>
	</g>
	<g>
		<g>
			<path class="st4" d="M198.4,193.8l-0.2-1.2c-4-20.4,5.3-41.2,23.1-51.9c17.8-10.6,40.5-9,56.6,4.1l0.9,0.8l0.2,1.2
				c4,20.4-5.3,41.2-23.1,51.9c-17.8,10.6-40.5,9-56.6-4.2L198.4,193.8z"/>
		</g>
		<path class="st5" d="M239.1,165.5L219,177.5l8-39.2l-0.7-0.1c-1.7,0.8-3.4,1.6-5,2.6c-1.4,0.8-2.7,1.7-3.9,2.6l-8.1,40l-12.9,7.7
			l-19.3,11.5l4.3,7.2l17.5-10.5l0,0l14.6-8.7l36.9,11.1c1.9-0.8,3.8-1.8,5.6-2.9c1.5-0.9,2.9-1.9,4.3-2.9l-37-11.1l20.2-12.1l0,0.1
			l29.6,8.9c1.4-2.4,2.7-5,3.7-7.6l-23.7-7.1l26.7-16c-0.1-1.4-0.3-2.7-0.6-4.1l-0.2-1.2l-0.9-0.8c-0.6-0.5-1.3-1-2-1.5l-27.3,16.3
			l5.2-25.4c-2.8-0.4-5.6-0.6-8.4-0.5L239.1,165.5L239.1,165.5z"/>
	</g>
</g>
<g>
	<path class="st6" d="M272.1,276.2c-2.3-2-0.3-19.7,2.9-23.9c0.9-1.2,15.9-6.7,36.6-13.8c-1-3.2-1.5-6.7-1.4-10.2
		c-25.4,6.5-43.9,11.1-43.9,11.1l-9.2,41.2c0,0-67.9,85.5-91.5,118.2c0,0,0,0,0,0c7.5,5.4,17,6,17,6s64.9-105.2,69.8-106.3
		c4.9-1,31.4-10.6,32.2-13.2C285.4,283,274.3,278.2,272.1,276.2z"/>
	<path class="st7" d="M310.1,228.4c0.1-2.5,0.4-4.9,1-7.2c-22,6.6-37.8,11-37.8,10.2c0-2.6,8.9-40.7,12.9-46.6
		c2.8-4.1,40.7-23.7,64-36.3c-4-3.1-7.1-7.5-9.1-12.5c-17.9,11.3-53.8,34.6-54.1,31.8c-0.4-3.6,4.3-34.7,5-39.4
		c0.7-4.7,13.5-72.3,14.6-76.6c1.2-4.2,44.1-49.5,42.6-51.7c-1.4-2.2-48.2,41.7-51.5,43.7c-3.3,2-20.2,78.5-20.8,77.2
		c-0.6-1.2-30.6-34-31.2-34.8c-0.6-0.9-10.6-48.1-11.8-48c-1.1,0.1,1.2,39,3.4,50.2c2.2,11.2,33.2,42.5,34.9,49.7
		c1.7,7.2-1,39.5-6.2,51.5c-5.2,12-20.7,68.6-23.5,73.1c-2.8,4.5,1.1,17.1-5.2,23.6c-6.3,6.5-82.2,97.5-82.2,97.5s2.8,9.8,10.3,15.1
		c23.6-32.7,91.5-118.2,91.5-118.2l9.2-41.2C266.2,239.5,284.7,234.9,310.1,228.4z"/>
</g>
<path class="st8" d="M70.2,58.4c-7.1-11.3-6.9-19.9-6.9-19.9s-1.6,1.8-4.2,8.4c-1.3,3.3-1.8,6.6-1.9,9.1c-0.2,2.5,0,4.3,0,4.3
	s-3.4-6.4-4.2-16.3c-0.8-9.9-6-18-6-18s-2.9,10.3-10.2,22.1c-1.1,1.7-2.2,3.5-3.5,5.2C23.2,67,20.6,77.3,20.6,77.3
	s-0.2-4.3,1.3-10.5c1.6-7.1,0.3-12.4,0.3-12.4s-2.2,4.7-8.7,13.6c-6.4,8.8-16,21.1-9,35.2c4.9,9.8,16.1,15.9,27.2,18.6
	c4.8,1.2,9.5,1.8,13.8,1.8c1,0,2.1,0,3.2-0.1c13.8-0.5,36.1-4.5,40.9-20.1C94.7,86.7,77.3,69.7,70.2,58.4z"/>
<g>
	<ellipse class="st9" cx="442.9" cy="381.9" rx="63.2" ry="28.5"/>
	<ellipse class="st9" cx="442.9" cy="381.9" rx="35.6" ry="16.1"/>
	<path class="st9" d="M467.5,393.5c-6.4-2.8-15-4.4-24.6-4.4s-18.2,1.7-24.6,4.4"/>
</g>
<line class="st10" x1="442.9" y1="291.1" x2="442.9" y2="339.7"/>
<polyline class="st10" points="457.4,323.9 442.9,338.5 428.4,323.9 "/>
</svg>
