<?xml version="1.0" encoding="utf-8"?>
<!-- Generator: Adobe Illustrator 19.2.1, SVG Export Plug-In . SVG Version: 6.00 Build 0)  -->
<svg version="1.1" id="Layer_1" xmlns="http://www.w3.org/2000/svg" xmlns:xlink="http://www.w3.org/1999/xlink" x="0px" y="0px"
	 viewBox="0 0 531.5 237.5" style="enable-background:new 0 0 531.5 237.5;" xml:space="preserve">
<style type="text/css">
	.st0{fill:#7B9E3E;}
	.st1{fill:#4B3D31;}
	.st2{fill:#CEAC7A;}
	.st3{fill:#8D6E42;}
	.st4{fill:#5A3914;}
	.st5{fill:none;stroke:#E3A625;stroke-width:4;stroke-miterlimit:10;}
	.st6{fill:#E3A625;}
</style>
<ellipse class="st0" cx="262.3" cy="113.7" rx="154.2" ry="75.5"/>
<g>
	<path class="st1" d="M43.1,82.2l0,18.5c0,6-3.6,11.1-8.8,13.4l0.1,65.2l17.6,0l0,29.7c0,12.9-10.6,23.5-23.5,23.5c0,0,0,0,0,0
		C15.6,232.5,5,221.9,5,209l0-29.7l17.6,0l-0.1-65.2c-5.2-2.3-8.8-7.4-8.8-13.4l0-18.5L43.1,82.2 M28.4,107.5
		C28.4,107.5,28.4,107.5,28.4,107.5c4.3,0,7.8-3.5,7.8-7.8l0-9.8l-15.5,0l0,9.8C20.7,104,24.2,107.5,28.4,107.5 M43.1,77.2
		C43.1,77.2,43.1,77.2,43.1,77.2l-29.3,0c-1.3,0-2.6,0.5-3.5,1.5c-0.9,0.9-1.5,2.2-1.5,3.5l0,18.5c0,6.6,3.4,12.7,8.8,16.3l0.1,57.2
		l-12.6,0c-2.8,0-5,2.2-5,5L0,209c0,15.7,12.8,28.5,28.5,28.5c15.8,0,28.5-12.8,28.5-28.5l0-29.7c0-1.3-0.5-2.6-1.5-3.5
		c-0.9-0.9-2.2-1.5-3.5-1.5c0,0,0,0,0,0l-12.6,0L39.3,117c5.4-3.6,8.8-9.7,8.8-16.4l0-18.5C48.1,79.4,45.8,77.2,43.1,77.2L43.1,77.2
		z"/>
</g>
<ellipse class="st2" cx="263.4" cy="99.6" rx="125" ry="56.4"/>
<ellipse class="st3" cx="263.4" cy="99.6" rx="70.4" ry="31.8"/>
<path class="st4" d="M214.8,122.6c12.6,5.4,29.8,8.8,48.6,8.8s36-3.3,48.6-8.8c-12.6-5.4-29.8-8.8-48.6-8.8S227.4,117.1,214.8,122.6
	z"/>
<path class="st2" d="M268,66c-37.2,0-70.9,3.9-95.6,10.2c-1,2-1.6,4.1-1.7,6.4c-0.5,9.2,6.4,17,15.6,17.5
	c8.5,0.5,15.9-5.5,17.3-13.7c1.5,0.3,3.1,0.6,4.8,0.7c6.8,0.4,13.2-1.5,18.5-5c1.9,1.6,4.3,2.6,6.9,2.8c3.9,0.2,7.4-1.4,9.7-4.2
	c2.8,1.9,6.1,3.1,9.8,3.3c6,0.4,11.6-2.1,15.4-6.2c2.2,2.3,5.2,3.8,8.6,4c3.1,0.2,6-0.7,8.3-2.4c4.2,4.3,9.9,7.1,16.3,7.4
	c3,0.2,6-0.2,8.7-1c4.2,6.3,11.2,10.7,19.3,11.1c13.4,0.8,25-9.2,26.2-22.6C332.2,69.2,301.5,66,268,66z"/>
<path class="st2" d="M264.5,45.7c16.1,0,31.2,1.1,44.4,3c-4.3-5.2-10.8-8.4-18-8.4c-3.3,0-6.5,0.7-9.4,2c-3.1-2.9-7.3-4.6-11.8-4.6
	c-3.8,0-7.4,1.2-10.3,3.3c-1.5-0.8-3.3-1.3-5.1-1.3c-1.3,0-2.6,0.3-3.8,0.7c-2.1-1.2-4.5-1.9-7.1-1.9c-5,0-9.3,2.6-11.9,6.4
	c-2.6-1.6-5.6-2.5-8.9-2.5c-6.3,0-11.7,3.4-14.7,8.4C223.6,47.7,243.2,45.7,264.5,45.7z"/>
<rect x="477.8" y="34.9" transform="matrix(-1 -1.224647e-16 1.224647e-16 -1 984.1566 172.8631)" class="st5" width="28.6" height="103.1"/>
<g>
	<line class="st5" x1="506.4" y1="47.1" x2="493.8" y2="47.1"/>
	<line class="st5" x1="506.4" y1="58.5" x2="493.8" y2="58.5"/>
	<line class="st5" x1="506.4" y1="69.9" x2="493.8" y2="69.9"/>
	<line class="st5" x1="506.4" y1="81.2" x2="493.8" y2="81.2"/>
	<line class="st5" x1="506.4" y1="92.6" x2="493.8" y2="92.6"/>
	<line class="st5" x1="506.4" y1="104" x2="493.8" y2="104"/>
	<line class="st5" x1="506.4" y1="115.4" x2="493.8" y2="115.4"/>
	<line class="st5" x1="506.4" y1="126.8" x2="493.8" y2="126.8"/>
</g>
<line class="st5" x1="523.1" y1="32.7" x2="523.1" y2="135.8"/>
<polyline class="st5" points="530.1,130.9 523.1,137.9 516.1,130.9 "/>
<g>
	<path class="st6" d="M480.1,6.8l-3.8,0.9l-1.2-4.8l6.6-1.9h4.5v22.6h-6.1V6.8z"/>
	<path class="st6" d="M500,11.2h-2V6.4h2V6c0-2,0.4-3.5,1.5-4.5C502.6,0.4,504,0,506,0c1.9,0,3,0.2,4,0.5v4.3
		c-0.7-0.2-1.4-0.4-2.3-0.4c-1.1,0-1.7,0.5-1.7,1.6v0.4h4v4.7h-3.9v12.5H500V11.2z"/>
	<path class="st6" d="M513,18.3v-7.1h-2.1V6.3h2.1V1.9h6.1v4.4h4v4.9h-4v5.9c0,1.2,0.5,1.7,1.7,1.7c0.8,0,1.6-0.2,2.3-0.6V23
		c-1.1,0.6-2.5,1-4.2,1C515.2,24,513,22.4,513,18.3z"/>
</g>
</svg>
