<?xml version="1.0" encoding="utf-8"?>
<!-- Generator: Adobe Illustrator 19.2.1, SVG Export Plug-In . SVG Version: 6.00 Build 0)  -->
<svg version="1.1" id="Layer_1" xmlns="http://www.w3.org/2000/svg" xmlns:xlink="http://www.w3.org/1999/xlink" x="0px" y="0px"
	 viewBox="0 0 308.9 159.8" style="enable-background:new 0 0 308.9 159.8;" xml:space="preserve">
<style type="text/css">
	.st0{fill:#CEAC7A;}
	.st1{fill:none;stroke:#4B3D31;stroke-width:6;stroke-miterlimit:10;}
	.st2{fill:#8D6E42;}
	.st3{fill:#5A3914;}
	.st4{fill:#806239;}
	.st5{fill:#30352D;}
	.st6{fill:#838891;}
	.st7{fill:#76656B;}
	.st8{fill:#969387;}
	.st9{fill:#BAB6B5;}
</style>
<ellipse class="st0" cx="140.2" cy="81.9" rx="125" ry="56.4"/>
<path class="st1" d="M69.7,14.2c21.4-4.5,45.3-7.1,70.4-7.1c91.5,0,165.7,33.5,165.7,74.8s-74.2,74.8-165.7,74.8
	c-12.4,0-24.4-0.6-36-1.8"/>
<ellipse class="st2" cx="140.2" cy="81.9" rx="70.4" ry="31.8"/>
<path class="st3" d="M91.6,105c12.6,5.4,29.8,8.8,48.6,8.8s36-3.3,48.6-8.8c-12.6-5.4-29.8-8.8-48.6-8.8S104.2,99.5,91.6,105z"/>
<path class="st0" d="M144.8,48.4c-37.2,0-70.9,3.9-95.6,10.2c-1,2-1.6,4.1-1.7,6.4c-0.5,9.2,6.4,17,15.6,17.5
	c8.5,0.5,15.9-5.5,17.3-13.7c1.5,0.3,3.1,0.6,4.8,0.7c6.8,0.4,13.2-1.5,18.5-5c1.9,1.6,4.3,2.6,6.9,2.8c3.9,0.2,7.4-1.4,9.7-4.2
	c2.8,1.9,6.1,3.1,9.8,3.3c6,0.4,11.6-2.1,15.4-6.2c2.2,2.3,5.2,3.8,8.6,4c3.1,0.2,6-0.7,8.3-2.4c4.2,4.3,9.9,7.1,16.3,7.4
	c3,0.2,6-0.2,8.7-1c4.2,6.3,11.2,10.7,19.3,11.1c13.4,0.8,25-9.2,26.2-22.6C209.1,51.5,178.4,48.4,144.8,48.4z"/>
<path class="st0" d="M141.3,28.1c16.1,0,31.2,1.1,44.4,3c-4.3-5.2-10.8-8.4-18-8.4c-3.3,0-6.5,0.7-9.4,2c-3.1-2.9-7.3-4.6-11.8-4.6
	c-3.8,0-7.4,1.2-10.3,3.3c-1.5-0.8-3.3-1.3-5.1-1.3c-1.3,0-2.6,0.3-3.8,0.7c-2.1-1.2-4.5-1.9-7.1-1.9c-5,0-9.3,2.6-11.9,6.4
	c-2.6-1.6-5.6-2.5-8.9-2.5c-6.3,0-11.7,3.4-14.7,8.4C100.4,30,120,28.1,141.3,28.1z"/>
<path class="st4" d="M25.8,90.8c-1.8-12.1,4.4-38.3,19-40.8c13.5-2.3,14.2,8.2,2.4,12.9c-4,1.6-7.1,2.7-4.4,6.7
	c2.8,4,7.6,7.4,2.9,12.2c-2.5,2.5-9.6,3.1-8.3,7.9c0.2,0.7,7.1,0.6,7.9,0.8c1.7,0.5,3,1.6,4,3.1c4.6,6.7-2.3,8-4.8,13.2
	c6.5,2.5,16.6,2.1,21.4,7c2.1,2.1,1.5,5.4,4.1,7.2c2.3,1.6,4.8,0.4,7.4,1.2c2.6,0.8,4.8,2.9,7.3,3.8c3.8,1.5,11,2.1,12.2,6.7
	c2.7,10.8-18.2,8.6-23.7,8.2c-3.6-0.2-8.8-0.4-11.9-2.6c-3-2.2-2.1-6.6-4.1-9.5c-1.9-2.8-4.9-4.3-8-5.4c-6.4-2.3-14.5-2.9-18.9-8.8
	C25.5,108.3,26.9,97.7,25.8,90.8z"/>
<path class="st5" d="M28.4,40.3C11.9,50.4,46.9,68.1,56.5,52.7c4.2-6.6,0.4-17.7-7.3-19.2C42.4,32.1,33.9,36.9,28.4,40.3z"/>
<path class="st6" d="M8.6,52.6c-3.4,1.7-6,4.3-7.3,8.1c-6.3,18.8,20,19.8,32.5,20c20.8,0.3,14.9-17,2.8-25.8
	C30.2,50.2,17.2,48.4,8.6,52.6z"/>
<path class="st7" d="M8.9,76.4C1.7,79-2.6,84.8,1.8,94.6c4.8,10.6,22.9,10.2,32.5,10.4c20.8,0.3,14.9-17,2.8-25.8
	C30.8,74.6,17.7,73.1,8.9,76.4z"/>
<path class="st8" d="M28,104c-3.4,1-6.2,2.3-7.9,3.8c-14.8,13.6,24.6,17.8,31.2,17.9c12.1,0.2,20.6-14,7.6-21.5
	C53.1,100.8,38,101.1,28,104z"/>
<path class="st9" d="M73.7,110.7c-0.7,0.1-1.5,0.3-2.2,0.4c-6.7,1.4-14.7,6.7-17.5,13.1c-3.9,8.8,3.8,14.5,12.2,16
	c10.8,1.9,28.4,2.4,30.6-11.1C99.4,112.7,87.1,108.7,73.7,110.7z"/>
<polyline class="st1" points="84.7,21.4 70.8,15.1 77,1.2 "/>
</svg>
