<?xml version="1.0" encoding="utf-8"?>
<!-- Generator: Adobe Illustrator 19.2.1, SVG Export Plug-In . SVG Version: 6.00 Build 0)  -->
<svg version="1.1" id="Layer_5" xmlns="http://www.w3.org/2000/svg" xmlns:xlink="http://www.w3.org/1999/xlink" x="0px" y="0px"
	 viewBox="0 0 259.5 121.5" style="enable-background:new 0 0 259.5 121.5;" xml:space="preserve">
<style type="text/css">
	.st0{fill:#FCB017;}
	.st1{fill:#FFCF2D;}
	.st2{fill:#F47629;}
	.st3{fill:#DF5126;}
	.st4{fill:#EF413B;}
	.st5{fill:#38312F;}
	.st6{fill:none;stroke:#DEA483;stroke-width:3;stroke-miterlimit:10;}
	.st7{fill:none;stroke:#DEA483;stroke-width:3;stroke-linecap:round;stroke-miterlimit:10;}
	.st8{fill:#ECEBD5;}
</style>
<g>
	<path class="st0" d="M129.4,81.4c2.4-5.5,4.4-11.2,4.7-17c-0.4,0.7-0.9,1.3-1.4,2c-3.9,5.3-4.9,9.3-4.9,9.3s-0.1-1.7,0.5-4
		c0.6-2.8,0.1-4.8,0.1-4.8s-0.9,1.8-3.4,5.3c-2.5,3.4-6.2,8.2-3.5,13.6c1.9,3.8,6.2,6.1,10.5,7.2C129.2,89.7,127.8,85.2,129.4,81.4z
		"/>
	<path class="st0" d="M147.2,68.4c-2.7-4.4-2.7-7.7-2.7-7.7s-0.6,0.7-1.6,3.2c-0.5,1.3-0.7,2.5-0.7,3.5c0.6,3.5,1.3,7.1,0.3,10.5
		c-1.7,5.1-4.8,10.7-3.6,15.6c5.4-0.2,14-1.7,15.8-7.8C156.6,79.4,149.9,72.8,147.2,68.4z"/>
	<path class="st1" d="M142.4,78c1-3.5,0.3-7-0.3-10.5c-0.1,1,0,1.7,0,1.7s-1.3-2.5-1.6-6.3c-0.3-3.8-2.3-6.9-2.3-6.9s-1.1,4-4,8.5
		c-0.4,5.8-2.3,11.5-4.7,17c-1.6,3.8-0.2,8.3,2.8,11.6c1.9,0.5,3.7,0.7,5.3,0.7c0.4,0,0.8,0,1.2,0C137.6,88.7,140.7,83.1,142.4,78z"
		/>
	<path class="st2" d="M142,79.2c-0.4-0.3-0.8-0.7-1.2-1.1c-2.8-2.4-3.2-5.2-3.2-5.2s-2,2.2-2.8,5.3c-0.9,3.9,0.4,5.8,0.4,5.8
		s-1.4-1.4-1.9-2.4c-0.8-1.4-1.2-3.1-1.2-3.1s-1.6,1.6-2.9,3.7c-1.1,3.5,0.1,7.4,2.6,10.4c1.9,0.9,4.1,1.2,5.8,1.2
		c0.4,0,0.8,0,1.2,0C137.7,89.1,140.3,83.9,142,79.2z"/>
	<path class="st3" d="M149.1,86.4c0-3.9-4.3-6.6-4.3-6.6s0.8,1.7,1,3.5c0.2,2.2-0.5,4.5-0.5,4.5s0.3-2.4-0.1-3.8
		c-0.4-1.8-1.3-3.1-3.2-4.8c-1.7,4.8-4.4,9.9-3.2,14.5C146,93.4,149.1,90.8,149.1,86.4z"/>
	<path class="st3" d="M129.2,82.1c-1,1.8-1.9,3.9-1.4,5.9c0.5,2.2,2.1,3.6,4,4.5C129.2,89.5,128,85.6,129.2,82.1z"/>
	<path class="st4" d="M137.3,82.9c0,0,0.3,1.6-0.2,3.1c-0.5,1.5-1.8,2.1-2,4c-0.3,1.9,1.2,3.9,3.3,3.7c0.1,0,0.3,0,0.4,0
		c-0.6-2.7,0-5.5,0.9-8.4C138.5,83.9,137.3,82.9,137.3,82.9z"/>
</g>
<path class="st5" d="M259.5,121.5c-6.2-22-25.4-38.5-48.7-40.7C200.7,71.1,187,65.2,172,65.2c-21.4,0-40,12-49.6,29.5
	c-3.6-1.7-7.7-2.7-11.9-2.7c-15.4,0-27.8,12.4-27.8,27.8c0,0.6,0,1.1,0.1,1.7H259.5z"/>
<circle class="st6" cx="20.4" cy="20.4" r="18.9"/>
<polyline class="st7" points="19,10.6 19,22.6 28.8,22.6 "/>
<circle class="st8" cx="127.5" cy="50.7" r="5.1"/>
<circle class="st8" cx="124.4" cy="31.4" r="8.8"/>
<path class="st8" d="M99.7,12.7c1.8,0,3.5-0.5,4.9-1.5c2.3,3.3,6.1,5.4,10.5,5.4c4.5,0,8.5-2.4,10.8-5.9c0.6,0.2,1.3,0.3,2,0.3
	c3.9,0,7.1-3.2,7.1-7.1H90.9C90.9,8.7,94.8,12.7,99.7,12.7z"/>
</svg>
