<?xml version="1.0" encoding="utf-8"?>
<!-- Generator: Adobe Illustrator 21.0.0, SVG Export Plug-In . SVG Version: 6.00 Build 0)  -->
<svg version="1.1" id="Layer_1" xmlns="http://www.w3.org/2000/svg" xmlns:xlink="http://www.w3.org/1999/xlink" x="0px" y="0px"
	 viewBox="0 0 232.1 147.3" style="enable-background:new 0 0 232.1 147.3;" xml:space="preserve">
<style type="text/css">
	.st0{fill:#6BA557;}
	.st1{fill:#446541;}
	.st2{fill:none;}
	.st3{fill:#FFFDF5;}
	.st4{fill:#6BA558;}
	.st5{fill:#B2D6B7;}
	.st6{fill:#5B9399;}
	.st7{opacity:0.75;fill:#B3B3B3;enable-background:new    ;}
	.st8{fill:#FFFFFF;}
</style>
<g>
	
		<rect x="-15.7" y="75.9" transform="matrix(0.4325 -0.9016 0.9016 0.4325 -61.6843 56.9271)" class="st0" width="60.2" height="3.1"/>
	<path class="st0" d="M29.6,63.3c-2.6,0-5-1-6.6-2.8l-0.6-0.7l0.4-0.9c1.1-2.6,3.8-4.6,7-5.1s6.4,0.5,8.3,2.7l0.6,0.7L38.3,58
		c-1.1,2.6-3.8,4.6-7,5.1C30.7,63.3,30.2,63.3,29.6,63.3z M26.1,59.2c1.2,0.9,2.9,1.2,4.7,0.9c1.7-0.3,3.3-1.2,4.1-2.4
		c-1.2-0.9-2.9-1.2-4.7-0.9C28.5,57.1,27,58,26.1,59.2z"/>
	<path class="st0" d="M21,81.2c-2.6,0-5-1-6.6-2.8l-0.6-0.7l0.4-0.9c1.1-2.6,3.8-4.6,7-5.1s6.4,0.5,8.3,2.7l0.6,0.7L29.7,76
		c-1.1,2.6-3.8,4.6-7,5.1C22.2,81.2,21.6,81.2,21,81.2z M17.5,77.1c1.2,0.9,2.9,1.2,4.7,0.9c1.7-0.3,3.3-1.2,4.1-2.4
		c-1.2-0.9-2.9-1.2-4.7-0.9C19.9,75,18.4,75.9,17.5,77.1z"/>
	<path class="st0" d="M19.7,67.5h-0.9c-2.9-0.1-5.6-1.9-7.2-4.8c-1.6-2.8-1.7-6.2-0.4-8.7l0.5-0.8h0.9c2.9,0.1,5.6,1.9,7.2,4.8
		c1.6,2.8,1.7,6.2,0.4,8.7L19.7,67.5z M13.4,56.5c-0.4,1.4-0.1,3.2,0.7,4.7c0.9,1.5,2.2,2.6,3.7,3.1c0.4-1.4,0.1-3.2-0.7-4.7
		C16.2,58,14.9,56.9,13.4,56.5z"/>
	<path class="st0" d="M11.1,85.4h-0.9c-2.9-0.1-5.6-1.9-7.2-4.8c-1.6-2.8-1.7-6.2-0.4-8.7L3,71.1h0.9c2.9,0.1,5.6,1.9,7.2,4.8
		c1.6,2.8,1.7,6.2,0.4,8.7L11.1,85.4z M4.8,74.4c-0.4,1.4-0.1,3.2,0.7,4.7c0.9,1.5,2.2,2.6,3.7,3.1c0.4-1.4,0.1-3.2-0.7-4.7
		C7.6,75.9,6.3,74.8,4.8,74.4z"/>
</g>
<g>
	<g>
		<path class="st1" d="M164.6,3.4l0.4-0.1c6.6-1.1,13.2,2.2,16.5,8c3.2,5.8,2.5,13.2-1.9,18.2l-0.3,0.3l-0.4,0.1
			c-6.6,1.1-13.2-2.2-16.5-8c-3.2-5.8-2.5-13.2,1.9-18.2L164.6,3.4z M178.2,27.8c3.6-4.3,4.2-10.5,1.4-15.4c-2.7-4.9-8.3-7.7-13.8-7
			c-3.6,4.3-4.2,10.5-1.4,15.4C167.1,25.8,172.6,28.6,178.2,27.8z"/>
	</g>
	<g>
		<line class="st2" x1="178.7" y1="28.9" x2="165.6" y2="5.2"/>
		
			<rect x="171.1" y="3.5" transform="matrix(0.8747 -0.4846 0.4846 0.8747 13.3199 85.5873)" class="st1" width="2.2" height="27.1"/>
	</g>
	<g>
		<line class="st2" x1="165.2" y1="4.4" x2="163" y2="0.5"/>
		<rect x="163" y="0.2" transform="matrix(0.8747 -0.4846 0.4846 0.8747 19.3898 79.8096)" class="st1" width="2.2" height="4.4"/>
	</g>
	<g>
		<line class="st2" x1="169.3" y1="26.5" x2="172.2" y2="17.8"/>
		
			<rect x="166.1" y="21.1" transform="matrix(0.3192 -0.9477 0.9477 0.3192 95.2186 176.9141)" class="st1" width="9.2" height="2.2"/>
	</g>
	<g>
		<line class="st2" x1="163.9" y1="21.6" x2="167.8" y2="9.9"/>
		
			<rect x="159.7" y="14.7" transform="matrix(0.3192 -0.9477 0.9477 0.3192 97.9269 167.9572)" class="st1" width="12.4" height="2.2"/>
	</g>
	<g>
		<line class="st2" x1="181.7" y1="19.6" x2="172.8" y2="17.5"/>
		
			<rect x="176.2" y="13.9" transform="matrix(0.2323 -0.9726 0.9726 0.2323 118.0847 186.6296)" class="st1" width="2.2" height="9.2"/>
	</g>
	<g>
		<line class="st2" x1="180.5" y1="12.4" x2="168.4" y2="9.6"/>
		
			<rect x="173.4" y="4.8" transform="matrix(0.232 -0.9727 0.9727 0.232 123.3256 178.1062)" class="st1" width="2.2" height="12.4"/>
	</g>
</g>
<g>
	<g>
		<path class="st1" d="M229.1,58.1l0.2,0.3c3.3,5.8,2.6,13.2-1.8,18.2c-4.4,5.1-11.5,6.9-17.7,4.5l-0.4-0.1l-0.2-0.3
			c-3.3-5.8-2.6-13.2,1.8-18.2c4.3-5.1,11.5-6.9,17.7-4.5L229.1,58.1z M211,79.3c5.3,1.8,11.3,0.2,15-4c3.7-4.3,4.3-10.4,1.7-15.4
			c-5.3-1.8-11.3-0.2-15,4C209,68.2,208.3,74.3,211,79.3z"/>
	</g>
	<g>
		<line class="st2" x1="210.2" y1="80.2" x2="227.8" y2="59.6"/>
		
			<rect x="205.5" y="68.8" transform="matrix(0.651 -0.7591 0.7591 0.651 23.4101 190.6516)" class="st1" width="27.1" height="2.2"/>
	</g>
	<g>
		<line class="st2" x1="228.4" y1="58.9" x2="231.3" y2="55.6"/>
		
			<rect x="227.6" y="56.2" transform="matrix(0.651 -0.7591 0.7591 0.651 36.7103 194.4714)" class="st1" width="4.4" height="2.2"/>
	</g>
	<g>
		<line class="st2" x1="209.1" y1="70.5" x2="218.3" y2="70.2"/>
		
			<rect x="209.1" y="69.3" transform="matrix(0.9995 -3.104325e-02 3.104325e-02 0.9995 -2.0824 6.6678)" class="st1" width="9.2" height="2.2"/>
	</g>
	<g>
		<line class="st2" x1="211.8" y1="63.7" x2="224.2" y2="63.4"/>
		
			<rect x="211.8" y="62.5" transform="matrix(0.9995 -3.104325e-02 3.104325e-02 0.9995 -1.8692 6.798)" class="st1" width="12.4" height="2.2"/>
	</g>
	<g>
		<line class="st2" x1="219.9" y1="79.8" x2="218.8" y2="70.7"/>
		
			<rect x="218.3" y="70.6" transform="matrix(0.9926 -0.1212 0.1212 0.9926 -7.4974 27.1451)" class="st1" width="2.2" height="9.2"/>
	</g>
	<g>
		<line class="st2" x1="226.2" y1="76.1" x2="224.7" y2="63.8"/>
		
			<rect x="224.4" y="63.7" transform="matrix(0.9926 -0.1215 0.1215 0.9926 -6.8225 27.9152)" class="st1" width="2.2" height="12.4"/>
	</g>
</g>
<g>
	<g>
		<path class="st1" d="M202.1,20l0.2-0.3c3.9-5.4,10.9-7.8,17.3-6c6.4,1.9,11,7.6,11.5,14.3v0.4l-0.2,0.3c-3.9,5.4-10.9,7.8-17.3,6
			c-6.4-1.9-11-7.6-11.5-14.3V20z M228.9,27.7c-0.5-5.6-4.5-10.4-9.9-11.9c-5.4-1.6-11.3,0.4-14.7,4.8c0.5,5.6,4.5,10.4,9.9,11.9
			C219.6,34.1,225.5,32.2,228.9,27.7z"/>
	</g>
	<g>
		<line class="st2" x1="230.1" y1="28" x2="204" y2="20.5"/>
		
			<rect x="215.9" y="10.7" transform="matrix(0.277 -0.9609 0.9609 0.277 133.6518 226.0358)" class="st1" width="2.2" height="27.1"/>
	</g>
	<g>
		<line class="st2" x1="203.2" y1="20.3" x2="198.9" y2="19.1"/>
		
			<rect x="200" y="17.4" transform="matrix(0.2771 -0.9608 0.9608 0.2771 126.5327 207.405)" class="st1" width="2.2" height="4.4"/>
	</g>
	<g>
		<line class="st2" x1="221.7" y1="33.1" x2="217.6" y2="24.8"/>
		
			<rect x="218.6" y="24.4" transform="matrix(0.8964 -0.4433 0.4433 0.8964 9.9259 100.4039)" class="st1" width="2.2" height="9.2"/>
	</g>
	<g>
		<line class="st2" x1="214.4" y1="33.4" x2="208.9" y2="22.3"/>
		
			<rect x="210.6" y="21.6" transform="matrix(0.8964 -0.4433 0.4433 0.8964 9.6117 96.7168)" class="st1" width="2.2" height="12.4"/>
	</g>
	<g>
		<line class="st2" x1="225.6" y1="19.3" x2="217.8" y2="24.1"/>
		
			<rect x="217.1" y="20.6" transform="matrix(0.8527 -0.5225 0.5225 0.8527 21.322 119.0324)" class="st1" width="9.2" height="2.2"/>
	</g>
	<g>
		<line class="st2" x1="219.7" y1="15.2" x2="209.1" y2="21.7"/>
		
			<rect x="208.2" y="17.3" transform="matrix(0.8525 -0.5227 0.5227 0.8525 21.9955 114.7826)" class="st1" width="12.4" height="2.2"/>
	</g>
</g>
<g>
	<g>
		<polygon class="st3" points="107.6,58.2 107.6,147.3 153.1,128.8 153.1,39.7 		"/>
		<polygon class="st4" points="107.6,90.1 107.6,138.9 153.1,74.9 153.1,71.7 		"/>
		<polygon class="st5" points="107.6,62.8 107.6,82.7 153.1,64.2 153.1,44.3 		"/>
		<polygon class="st4" points="128,134.4 153.1,124.2 153.1,99.1 		"/>
		<polygon class="st6" points="107.6,82.7 107.6,90.1 153.1,71.7 153.1,64.2 		"/>
		<polygon class="st6" points="107.6,138.9 107.6,142.7 128,134.4 153.1,99.1 153.1,74.9 		"/>
	</g>
	<g>
		<polygon class="st3" points="194.6,58.2 153.1,39.7 153.1,128.8 194.6,147.3 		"/>
		<polygon class="st4" points="153.1,71.7 153.1,74.9 156.3,73.1 		"/>
		<polygon class="st5" points="183.6,57.9 153.1,44.3 153.1,64.2 163.7,68.9 		"/>
		<polygon class="st4" points="189,79.1 153.1,99.1 153.1,124.2 189,140.2 		"/>
		<polygon class="st6" points="189,60.3 183.6,57.9 163.7,68.9 153.1,64.2 153.1,71.7 156.3,73.1 153.1,74.9 153.1,99.1 189,79.1 		
			"/>
	</g>
	<g>
		<polygon class="st3" points="64.3,39.7 64.3,128.8 107.6,147.3 107.6,58.2 		"/>
		<polygon class="st4" points="94.9,137.3 103.7,141.1 107.6,138.9 107.6,90.1 94.9,84.7 		"/>
		<polygon class="st5" points="94.9,57.4 94.9,77.3 107.6,82.7 107.6,62.8 		"/>
		<polygon class="st5" points="69.8,66.6 86.1,73.5 86.1,53.6 69.8,46.7 		"/>
		<polygon class="st5" points="69.8,126.6 86.1,133.5 86.1,81 69.8,74 		"/>
		<polygon class="st6" points="94.9,57.4 86.1,53.6 86.1,73.5 69.8,66.6 69.8,74 86.1,81 86.1,133.5 94.9,137.3 94.9,84.7 
			107.6,90.1 107.6,82.7 94.9,77.3 		"/>
		<polygon class="st6" points="103.7,141.1 107.6,142.7 107.6,138.9 		"/>
	</g>
	<polygon class="st7" points="107.6,58.2 107.6,62.8 107.6,82.7 107.6,90.1 107.6,138.9 107.6,142.7 107.6,147.3 153.1,128.8 
		153.1,124.2 153.1,99.1 153.1,74.9 153.1,71.7 153.1,64.2 153.1,44.3 153.1,39.7 	"/>
</g>
<g>
	<path class="st8" d="M108.9,104.6V91.3l-3.1,3.1l-2.2-2.3l5.8-5.8h3.4v18.4L108.9,104.6L108.9,104.6z"/>
	<path class="st8" d="M115.6,95.4c0-4.8,2.3-9.5,7.6-9.5c5.3,0,7.6,4.8,7.6,9.5c0,4.8-2.3,9.5-7.6,9.5
		C117.9,105,115.6,100.2,115.6,95.4z M126.8,95.4c0-3.4-1-6-3.6-6s-3.6,2.6-3.6,6s1,6.1,3.6,6.1S126.8,98.8,126.8,95.4z"/>
</g>
<g>
	<path class="st8" d="M143.2,104.1v4.9h-3.8V95h3.8v1.1c0.8-1,1.8-1.3,2.9-1.3c2.5,0,4.5,1.8,4.5,5.3c0,3.5-1.9,5.3-4.5,5.3
		C145,105.4,144,105.1,143.2,104.1z M146.6,100.1c0-1.3-0.9-2-1.9-2c-0.5,0-1.2,0.3-1.6,0.7v2.6c0.3,0.4,1.1,0.7,1.6,0.7
		C145.8,102.1,146.6,101.4,146.6,100.1z"/>
	<path class="st8" d="M152.2,92.2c0-1.2,0.9-2.1,2.1-2.1s2.1,0.9,2.1,2.1s-0.9,2.1-2.1,2.1S152.2,93.3,152.2,92.2z M152.4,105.2V95
		h3.8v10.1H152.4z"/>
	<path class="st8" d="M158.1,100.1c0-2.9,2.2-5.3,5.5-5.3c3,0,5.3,2.1,5.3,5.7v0.8h-6.9c0.2,0.7,0.9,1.3,2.2,1.3
		c0.6,0,1.8-0.3,2.3-0.7l1.6,2.3c-1,0.9-2.8,1.3-4.3,1.3C160.6,105.4,158.1,103.4,158.1,100.1z M163.7,97.6c-1.2,0-1.5,0.8-1.7,1.2
		h3.3C165.2,98.4,164.9,97.6,163.7,97.6z"/>
</g>
</svg>
