<?xml version="1.0" encoding="utf-8"?>
<!-- Generator: Adobe Illustrator 19.2.1, SVG Export Plug-In . SVG Version: 6.00 Build 0)  -->
<svg version="1.1" id="Layer_7" xmlns="http://www.w3.org/2000/svg" xmlns:xlink="http://www.w3.org/1999/xlink" x="0px" y="0px"
	 viewBox="0 0 451.6 252.7" style="enable-background:new 0 0 451.6 252.7;" xml:space="preserve">
<style type="text/css">
	.st0{fill:none;stroke:#BF552A;stroke-width:5;stroke-linecap:round;stroke-miterlimit:10;}
	.st1{fill:#FCB017;}
	.st2{fill:#FFCF2D;}
	.st3{fill:#F47629;}
	.st4{fill:#DF5126;}
	.st5{fill:#EF413B;}
	.st6{fill:#5A949B;stroke:#5A949B;stroke-width:2;stroke-miterlimit:10;}
</style>
<g>
	<polygon class="st0" points="16.9,75.6 7.7,75.6 7.7,244.3 16.9,244.3 22.6,244.3 22.6,75.6 	"/>
	<ellipse class="st0" cx="15.2" cy="58.2" rx="12.7" ry="17.8"/>
</g>
<g>
	<path class="st1" d="M171.8,172.7c15.9-35.5,28.6-72.7,30.9-110.4c-2.7,4.3-5.7,8.7-8.9,13.1c-25.2,34.6-31.7,60.6-31.7,60.6
		s-0.4-10.8,3.2-26.3c4.1-17.9,0.7-31.2,0.7-31.2s-5.7,12-21.9,34.2c-16.2,22.3-40.3,53.1-22.6,88.6c12.4,24.7,40.5,40,68.4,46.9
		C170.4,226.9,161.2,197.5,171.8,172.7z"/>
	<path class="st1" d="M287.2,88.2c-17.9-28.4-17.5-50.1-17.5-50.1s-4.1,4.5-10.6,21.1c-3.2,8.2-4.4,16.5-4.9,22.8
		c4.2,23,8.7,46,2.1,68.6c-11.1,33.2-31.5,69.4-23.7,101.8c34.8-1.3,90.8-11.3,103-50.5C348.7,159.6,305,116.7,287.2,88.2z"/>
	<path class="st2" d="M256.4,150.6c6.6-22.5,2.1-45.6-2.1-68.6c-0.4,6.4-0.1,10.7-0.1,10.7s-8.7-16-10.7-40.9
		c-2-24.9-15-45.2-15-45.2s-7.2,26-25.8,55.5c-2.3,37.7-14.9,74.9-30.9,110.4c-10.6,24.8-1.5,54.2,18.2,75.4c12,3,24,4.5,34.7,4.5
		c2.5,0,5.2-0.1,8-0.2C224.9,220.1,245.3,183.8,256.4,150.6z"/>
	<path class="st3" d="M253.8,158c-2.4-2.2-5-4.6-8-7c-18.2-15.3-21.1-34-21.1-34s-13.3,14.2-18.1,34.4c-6,25.1,2.8,37.4,2.8,37.4
		s-9-9-12.5-15.4c-5.1-9.4-7.9-20.2-7.9-20.2s-10.4,10.2-18.7,24.1c-7.4,22.6,0.5,48.1,17,67.7c12.4,5.6,26.7,7.7,37.5,7.7
		c2.8,0,5.4-0.1,8-0.2C225.5,222.5,242.4,189.1,253.8,158z"/>
	<path class="st4" d="M299.7,205.2c0-25.2-28-43.3-28-43.3s5.1,11,6.4,22.8c1.6,14.5-3,29.4-3,29.4s1.7-15.9-0.6-24.6
		c-2.9-11.4-8.3-20.1-20.7-31.5c-11.3,31.1-28.3,64.5-21.1,94.4C280,250.8,299.6,233.8,299.7,205.2z"/>
	<path class="st4" d="M170.2,177.2c-6.8,11.4-12.2,25.4-9.3,38.3c3.2,14.4,13.8,23.7,26.3,29.4C170.6,225.3,162.8,199.8,170.2,177.2
		z"/>
	<path class="st5" d="M222.8,182.1c0,0,1.8,10.1-1.6,20c-3.4,9.9-11.4,13.6-13.1,26.2c-1.7,12.5,7.9,25.3,21.7,24.3
		c1-0.1,1.9-0.2,2.8-0.3c-4.1-17.4-0.2-35.8,6.1-54.4C231,189,222.8,182.1,222.8,182.1z"/>
</g>
<path class="st6" d="M438,75.2V13.6C438,6.6,432.4,1,425.4,1h-1.7c-6.9,0-12.6,5.6-12.6,12.6v61.6c-7.8,4.7-12.6,13.2-12.6,22.3
	c0,14.3,11.7,26,26,26c14.3,0,26-11.7,26-26C450.6,88.4,445.8,79.9,438,75.2z M424.6,120.7c-12.8,0-23.2-10.4-23.2-23.2
	c0-8.4,4.5-16.1,11.9-20.2c0.4-0.2,0.7-0.7,0.7-1.2V65.4h9.1c0.8,0,1.4-0.6,1.4-1.4c0-0.8-0.6-1.4-1.4-1.4H414v-6.5h9.1
	c0.8,0,1.4-0.6,1.4-1.4s-0.6-1.4-1.4-1.4H414v-6.5h9.1c0.8,0,1.4-0.6,1.4-1.4s-0.6-1.4-1.4-1.4H414v-6.5h9.1c0.8,0,1.4-0.6,1.4-1.4
	c0-0.8-0.6-1.4-1.4-1.4H414v-6.5h9.1c0.8,0,1.4-0.6,1.4-1.4c0-0.8-0.6-1.4-1.4-1.4H414V13.6c0-5.4,4.4-9.8,9.8-9.8h1.7
	c5.4,0,9.8,4.4,9.8,9.8V76c0,0.5,0.3,1,0.7,1.2c7.3,4.1,11.9,11.9,11.9,20.2C447.8,110.3,437.4,120.7,424.6,120.7z M378.9,73.9
	c0.1,0.1,0.3,0.2,0.5,0.3c0.3,0.1,0.7,0.1,1.1,0c0.2-0.1,0.3-0.2,0.5-0.3l18-18c0.5-0.5,0.5-1.4,0-2c-0.5-0.5-1.4-0.5-2,0
	l-15.6,15.6V27.8c0-0.8-0.6-1.4-1.4-1.4c-0.8,0-1.4,0.6-1.4,1.4v41.7l-15.6-15.6c-0.3-0.3-0.6-0.4-1-0.4s-0.7,0.1-1,0.4
	c-0.5,0.5-0.5,1.4,0,2L378.9,73.9z"/>
</svg>
