<?xml version="1.0" encoding="utf-8"?>
<!-- Generator: Adobe Illustrator 21.0.0, SVG Export Plug-In . SVG Version: 6.00 Build 0)  -->
<svg version="1.1" id="Layer_4" xmlns="http://www.w3.org/2000/svg" xmlns:xlink="http://www.w3.org/1999/xlink" x="0px" y="0px"
	 viewBox="0 0 398.2 155.5" style="enable-background:new 0 0 398.2 155.5;" xml:space="preserve">
<style type="text/css">
	.st0{fill:#CEAC7A;}
	.st1{fill:#8D6E42;}
	.st2{fill:#5A3914;}
	.st3{fill:#AF1F23;}
	.st4{fill:#8F191C;}
	.st5{fill:#010101;}
	.st6{fill:#AE793E;}
	.st7{fill:#251E19;}
	.st8{fill:#446641;stroke:#446641;stroke-width:3;stroke-miterlimit:10;}
</style>
<g>
	<ellipse class="st0" cx="276.8" cy="135" rx="91.8" ry="20.4"/>
	<ellipse class="st1" cx="276.8" cy="135" rx="51.7" ry="11.5"/>
	<path class="st2" d="M241.1,143.4c9.3,2,21.8,3.2,35.7,3.2c13.8,0,26.4-1.2,35.7-3.2c-9.3-2-21.8-3.2-35.7-3.2
		S250.4,141.4,241.1,143.4z"/>
</g>
<g>
	<polygon class="st3" points="253.1,2.3 300.5,89.5 195.8,88.4 150.4,0.9 	"/>
	<polygon class="st4" points="106.1,89.3 195.8,88.4 150.4,0.9 	"/>
	<path class="st5" d="M150.4,3.1c-0.3,8-0.7,12.2-0.9,20.2c-0.3,9.2,0.2,20.8,0.5,30c0.2,7.9,0.3,13.8,0.5,23.9c0.1,3,0,7.1,0,10
		c0,0.6,0,1.1-0.1,1.7h4.6c-0.6-14-1.7-28-2.6-42.1c-0.5-8.3-0.8-16.7-1.3-25c-0.3-4-0.5-7.9-0.4-11.9
		C150.5,7.6,150.6,5.3,150.4,3.1z"/>
	<g>
		<path class="st6" d="M91.9,80.8c0,0,1.6,10.6,2.6,12.7c0,0,1.2,0.6,3.8-0.2c0,0-2.2-5.8-3-12.9C95.3,80.4,94.7,80.1,91.9,80.8z"/>
		<path class="st5" d="M150.3,0.9c-3.9,5.8-7.1,13.2-10.8,19.1c-1.8,3-3.9,5.8-5.8,8.7c-1.8,2.7-3.4,5.6-5,8.5
			c-3.6,6-8,11.5-12,17.2c-4.1,5.8-7.5,12-11.4,18c-1.8,2.7-3.7,5.3-5.3,8.2c-0.8,1.6-2.1,2.9-3.1,4.4c-1.6,0.1-3.1,0.8-4.6,1.2
			c-0.1,0-0.1,0.2,0,0.2c1.5,0,2.9-0.8,4.4-0.9c0,0.1-0.1,0.1-0.1,0.2c-0.5,0.3-1.1,0.5-1.7,0.7c-0.7,0.2-1.7,0.4-2.2,0.8
			c-0.1,0.1-0.1,0.4,0.1,0.3c0.1,0,0.3-0.1,0.4-0.1c0,0,0,0.1,0.1,0.1c0.9-0.2,1.8-0.4,2.8-0.7c0,0.1-0.1,0.2-0.1,0.4
			c-1.1,0.1-2.1,0.5-3.1,0.9c-0.3,0.2-0.2,0.6,0.2,0.5c1.3-0.4,2.5-0.9,3.9-1.2c0.1,0,0.2-0.3,0-0.3c-0.3,0-0.5,0-0.8,0
			c0.1-0.1,0.1-0.3,0.2-0.4c0.3-0.1,0.5-0.1,0.8-0.2c0.2-0.1,0.1-0.4-0.1-0.3c-0.1,0-0.3,0.1-0.4,0.1c0.1-0.1,0.1-0.3,0.2-0.4
			c0.2-0.1,0.3-0.3,0.5-0.4c0.1-0.1,0-0.1,0-0.2c0.3-0.5,0.7-0.9,1.1-1.4c1-1.1,1.7-2.2,2.4-3.6c1.7-3.2,4-6.1,5.9-9.1
			c3.9-5.9,7.3-12.1,11.4-17.9c4-5.5,8.2-10.8,11.6-16.7c1.8-3,3.5-6.1,5.4-9c1.8-2.7,3.7-5.4,5.4-8.1c3.5-5.7,5.7-11.7,9.3-17.3
			C149.9,2,150.4,0.7,150.3,0.9z M96,86.3c-0.7,0.2-1.3,0.4-2,0.6c0.4-0.1,0.7-0.3,1.1-0.4c0.3-0.1,0.7-0.2,1-0.4
			C96.1,86.2,96.1,86.3,96,86.3z"/>
		<path class="st5" d="M97.2,88.4c-0.7,0-1.5,0-2.2,0.1c0.7-0.1,1.4-0.3,2-0.5c0.2,0,0.1-0.3-0.1-0.3c-1.3,0.1-2.7,0.5-4,1
			c-0.1,0-0.1,0.1,0,0.1h-0.1c-0.1,0-0.1,0.3,0.1,0.2c0.6-0.1,1.3-0.1,1.9-0.2c-0.6,0.2-1.3,0.5-1.9,0.7c-0.1,0-0.1,0.2,0,0.2
			c1.4-0.2,2.7-1,4.1-1c0.1,0,0.1,0,0.1,0s0,0,0.1,0C97.5,88.9,97.5,88.4,97.2,88.4z"/>
	</g>
	<g>
		<path class="st6" d="M208.8,80.8c0,0-1.6,10.6-2.6,12.7c0,0-1.2,0.6-3.8-0.2c0,0,2.2-5.8,3-12.9C205.4,80.4,206,80.1,208.8,80.8z"
			/>
		<path class="st5" d="M151,2.3c3.7,5.6,5.9,11.6,9.3,17.3c1.7,2.8,3.6,5.4,5.4,8.1c2,2.9,3.7,6,5.4,9c3.4,5.9,7.6,11.2,11.6,16.7
			c4.2,5.7,7.6,11.9,11.4,17.9c2,3,4.2,5.9,5.9,9.1c0.7,1.3,1.4,2.4,2.4,3.6c0.4,0.4,0.8,0.9,1.1,1.4c-0.1,0-0.1,0.1,0,0.2
			c0.1,0.2,0.3,0.3,0.5,0.4c0.1,0.1,0.2,0.3,0.2,0.4c-0.1,0-0.3-0.1-0.4-0.1c-0.2-0.1-0.3,0.3-0.1,0.3c0.3,0.1,0.5,0.1,0.8,0.2
			c0.1,0.1,0.1,0.3,0.2,0.4c-0.3,0-0.5,0-0.8,0c-0.2,0-0.1,0.2,0,0.3c1.3,0.3,2.6,0.8,3.9,1.2c0.4,0.1,0.5-0.4,0.2-0.5
			c-0.9-0.4-2-0.8-3.1-0.9c0-0.1-0.1-0.2-0.1-0.4c0.9,0.2,1.8,0.5,2.8,0.7c0.1,0,0.1-0.1,0.1-0.1c0.1,0,0.3,0.1,0.4,0.1
			c0.2,0,0.2-0.2,0.1-0.3c-0.6-0.5-1.5-0.6-2.2-0.8c-0.6-0.2-1.2-0.4-1.7-0.7c0-0.1-0.1-0.1-0.1-0.2c1.5,0.2,2.9,1,4.4,0.9
			c0.1,0,0.1-0.1,0-0.2c-1.5-0.3-3-1.1-4.6-1.2c-1-1.5-2.3-2.9-3.1-4.4c-1.5-2.9-3.5-5.5-5.3-8.2c-3.9-5.9-7.3-12.2-11.4-18
			c-4-5.7-8.5-11.2-12-17.2c-1.7-2.8-3.2-5.7-5-8.5c-1.9-2.9-4-5.7-5.8-8.7c-3.7-5.9-6.9-13.3-10.8-19.1C150.3,0.7,150.8,2,151,2.3z
			 M204.6,86.1c0.3,0.2,0.7,0.3,1,0.4s0.7,0.3,1.1,0.4c-0.7-0.2-1.3-0.4-2-0.6C204.6,86.3,204.6,86.2,204.6,86.1z"/>
		<path class="st5" d="M203.4,88.4c0.7,0,1.5,0,2.2,0.1c-0.7-0.1-1.4-0.3-2-0.5c-0.2,0-0.1-0.3,0.1-0.3c1.3,0.1,2.7,0.5,4,1
			c0.1,0,0.1,0.1,0,0.1h0.1c0.1,0,0.1,0.3-0.1,0.2c-0.6-0.1-1.3-0.1-1.9-0.2c0.6,0.2,1.3,0.5,1.9,0.7c0.1,0,0.1,0.2,0,0.2
			c-1.4-0.2-2.7-1-4.1-1c-0.1,0-0.1,0-0.1,0s0,0-0.1,0C203.2,88.9,203.2,88.4,203.4,88.4z"/>
	</g>
	<g>
		<path class="st6" d="M316.7,80.8c0,0-1.6,10.6-2.6,12.7c0,0-1.2,0.6-3.8-0.2c0,0,2.2-5.8,3-12.9C313.3,80.4,313.9,80.1,316.7,80.8
			z"/>
		<path class="st5" d="M253.8,3.6c3.7,5.6,9.5,12.7,12.9,18.4c1.7,2.8,4.1,6.1,5.9,8.8c2,2.9,4.3,5,6.1,8c3.4,5.9,7.2,9.9,11.2,15.4
			c4.2,5.7,8.5,11,12.3,16.9c2,3,4.2,5.9,5.9,9.1c0.7,1.3,1.4,2.4,2.4,3.6c0.4,0.4,0.8,0.9,1.1,1.4c-0.1,0-0.1,0.1,0,0.2
			c0.1,0.2,0.3,0.3,0.5,0.4c0.1,0.1,0.2,0.3,0.2,0.4c-0.1,0-0.3-0.1-0.4-0.1c-0.2-0.1-0.3,0.3-0.1,0.3c0.3,0.1,0.5,0.1,0.8,0.2
			c0.1,0.1,0.1,0.3,0.2,0.4c-0.3,0-0.5,0-0.8,0c-0.2,0-0.1,0.2,0,0.3c1.3,0.3,2.6,0.8,3.9,1.2c0.4,0.1,0.5-0.4,0.2-0.5
			c-0.9-0.4-2-0.8-3.1-0.9c0-0.1-0.1-0.2-0.1-0.4c0.9,0.2,1.8,0.5,2.8,0.7c0.1,0,0.1-0.1,0.1-0.1c0.1,0,0.3,0.1,0.4,0.1
			c0.2,0,0.2-0.2,0.1-0.3c-0.6-0.5-1.5-0.6-2.2-0.8c-0.6-0.2-1.2-0.4-1.7-0.7c0-0.1-0.1-0.1-0.1-0.2c1.5,0.2,2.8,1,4.4,0.9
			c0.1,0,0.1-0.1,0-0.2c-1.5-0.3-3-1.1-4.6-1.2c-1-1.5-2.3-2.9-3.1-4.4c-1.5-2.9-3.5-5.5-5.3-8.2c-3.9-5.9-8.2-11.2-12.3-17
			c-4-5.7-8-9.9-11.6-15.9c-1.7-2.8-3.8-4.8-5.6-7.5c-1.9-2.9-4.5-6.4-6.3-9.4c-3.9-6-10.7-14.5-14.7-20.3
			C253.1,2,253.7,3.3,253.8,3.6z M312.5,86.1c0.3,0.2,0.7,0.3,1,0.4s0.7,0.3,1.1,0.4c-0.7-0.2-1.3-0.4-2-0.6
			C312.6,86.3,312.6,86.2,312.5,86.1z"/>
		<path class="st5" d="M311.4,88.4c0.7,0,1.5,0,2.2,0.1c-0.7-0.1-1.4-0.3-2-0.5c-0.2,0-0.1-0.3,0.1-0.3c1.3,0.1,2.7,0.5,4,1
			c0.1,0,0.1,0.1,0,0.1h0.1c0.1,0,0.1,0.3-0.1,0.2c-0.6-0.1-1.3-0.1-1.9-0.2c0.6,0.2,1.3,0.5,1.9,0.7c0.1,0,0.1,0.2,0,0.2
			c-1.4-0.2-2.7-1-4.1-1c-0.1,0-0.1,0-0.1,0s0,0-0.1,0C311.2,88.9,311.1,88.4,311.4,88.4z"/>
	</g>
</g>
<g>
	<path class="st7" d="M7.3,15.7l-5.8,1.4l-1.5-6l9.5-2.8h5v33.3H7.3V15.7z"/>
	<path class="st7" d="M20.8,37.3l4.4-5.2c2.5,2.3,5,3.6,7.9,3.6c3.4,0,5.5-1.7,5.5-4.6V31c0-2.8-2.4-4.5-5.9-4.5
		c-2.1,0-4,0.6-5.5,1.2L23,24.9l1-16.3h20.3V15H30.2l-0.4,5.7c1.3-0.3,2.5-0.6,4.3-0.6c6.4,0,11.6,3.1,11.6,10.6v0.1
		c0,7-5,11.4-12.6,11.4C27.9,42.2,24,40.3,20.8,37.3z"/>
</g>
<path class="st8" d="M388.8,47.1c0.8-1.6,1.2-3.3,1.2-5.1c0-6.2-5.1-11.3-11.3-11.3c-2.3,0-4.6,0.7-6.5,2c-0.4-0.4-0.7-0.8-1.1-1.2
	c0.2-1,0.4-2.1,0.4-3.2c0-6.9-4.9-12.6-11.6-13.6c0-0.3,0-0.6,0-0.9c0-6.8-5.5-12.3-12.3-12.3S335.3,7,335.3,13.8c0,0.3,0,0.6,0,0.9
	c-6.7,1.1-11.6,6.8-11.6,13.6c0,1.1,0.1,2.1,0.4,3.2c-3.1,3.1-4.8,7.3-4.8,11.6c0,9,7.3,16.3,16.4,16.3c0.5,0,0.9,0,1.4-0.1
	c1.8,2.9,4.7,5,8,5.7c0.1,0,0.1,0,0.2,0h1.3v23c0,0.6,0.5,1,1,1c0.6,0,1-0.4,1-1V65h1.3c0.1,0,0.1,0,0.2,0c3.4-0.7,6.3-2.8,8-5.7
	c0.5,0,0.9,0.1,1.4,0.1c0.4,0,0.8,0,1.3-0.1c0.7,5.8,5.5,10.2,11.5,10.2c1.9,0,3.7-0.5,5.3-1.3v19.9c0,0.6,0.5,1,1,1
	c0.6,0,1-0.4,1-1V68.4c1.6,0.9,3.4,1.3,5.3,1.3c6.4,0,11.6-5.2,11.6-11.6C396.7,53.1,393.4,48.7,388.8,47.1z M357.8,57.4
	c-0.4-0.1-0.8,0.2-1,0.5c-1.4,2.7-3.9,4.6-6.9,5.3h-1.2v-5.9c0-0.6-0.4-1-1-1s-1,0.4-1,1v5.9h-1.2c-3-0.6-5.5-2.6-6.9-5.3
	c-0.2-0.4-0.6-0.6-1-0.5c-0.6,0.1-1.2,0.1-1.8,0.1c-7.9,0-14.3-6.4-14.3-14.3c0-4,1.7-7.9,4.6-10.6c0.3-0.3,0.4-0.6,0.3-1
	c-0.3-1-0.4-2.1-0.4-3.2c0-6.2,4.6-11.2,10.8-11.8c0.3,0,0.5-0.2,0.7-0.4c0.2-0.2,0.2-0.5,0.2-0.8c-0.1-0.5-0.1-1.1-0.1-1.7
	c0-5.7,4.6-10.3,10.3-10.3c5.7,0,10.3,4.6,10.3,10.3c0,0.6,0,1.1-0.1,1.7c0,0.3,0,0.6,0.2,0.8c0.2,0.2,0.4,0.4,0.7,0.4
	c6.1,0.5,10.8,5.6,10.8,11.8c0,1.1-0.1,2.2-0.4,3.2c-0.1,0.4,0,0.8,0.3,1c2.9,2.7,4.6,6.6,4.6,10.6c0,7.9-6.4,14.3-14.3,14.3
	C359,57.5,358.4,57.5,357.8,57.4z M385.1,67.7c-1.9,0-3.7-0.6-5.3-1.6v-2.8c0-0.6-0.4-1-1-1s-1,0.4-1,1V66c-1.6,1.1-3.4,1.6-5.3,1.6
	c-5,0-9-3.7-9.5-8.5c7.5-1.5,13.1-8.1,13.1-16c0-3.1-0.9-6.1-2.5-8.7c1.5-1.1,3.4-1.7,5.3-1.7c5.1,0,9.3,4.2,9.3,9.3
	c0,1.8-0.5,3.6-1.6,5.1c-0.2,0.3-0.2,0.6-0.1,0.9c0.1,0.3,0.4,0.5,0.7,0.6c4.4,0.9,7.6,4.9,7.6,9.4
	C394.7,63.4,390.4,67.7,385.1,67.7z"/>
<g>
	<path class="st7" d="M71.1,39.2v9.4h-7.2V21.9h7.2v2c1.6-1.8,3.4-2.5,5.4-2.5c4.8,0,8.5,3.5,8.5,10.1c0,6.6-3.7,10.2-8.5,10.2
		C74.5,41.7,72.7,41,71.1,39.2z M77.7,31.6c0-2.4-1.7-3.8-3.6-3.8c-0.9,0-2.3,0.5-3,1.3V34c0.6,0.8,2,1.3,3,1.3
		C76,35.4,77.7,34,77.7,31.6z"/>
	<path class="st7" d="M88.3,16.5c0-2.2,1.8-4,4-4s4,1.8,4,4s-1.8,4-4,4S88.3,18.7,88.3,16.5z M88.7,41.2V21.9h7.2v19.3H88.7z"/>
	<path class="st7" d="M99.6,31.6c0-5.6,4.3-10.1,10.5-10.1c5.7,0,10,4.1,10,10.9v1.5H107c0.4,1.2,1.8,2.4,4.2,2.4
		c1.1,0,3.5-0.5,4.4-1.4l3,4.4c-1.9,1.6-5.4,2.4-8.2,2.4C104.3,41.7,99.6,37.9,99.6,31.6z M110.1,26.9c-2.2,0-2.9,1.4-3.2,2.3h6.4
		C113.1,28.4,112.4,26.9,110.1,26.9z"/>
</g>
</svg>
