<?xml version="1.0" encoding="utf-8"?>
<!-- Generator: Adobe Illustrator 19.2.1, SVG Export Plug-In . SVG Version: 6.00 Build 0)  -->
<svg version="1.1" id="Layer_8" xmlns="http://www.w3.org/2000/svg" xmlns:xlink="http://www.w3.org/1999/xlink" x="0px" y="0px"
	 viewBox="0 0 359.7 272.5" style="enable-background:new 0 0 359.7 272.5;" xml:space="preserve">
<style type="text/css">
	.st0{fill:#FCB017;}
	.st1{fill:#FFCF2D;}
	.st2{fill:#F47629;}
	.st3{fill:#DF5126;}
	.st4{fill:#EF413B;}
	.st5{fill:#D8C781;}
	.st6{fill:none;stroke:#F4D760;stroke-width:6;stroke-linecap:round;stroke-linejoin:round;stroke-miterlimit:10;}
	.st7{fill:none;stroke:#AA9A56;stroke-width:6;stroke-linecap:round;stroke-linejoin:round;stroke-miterlimit:10;}
	.st8{fill:none;stroke:#B99B30;stroke-width:6;stroke-linecap:round;stroke-linejoin:round;stroke-miterlimit:10;}
	.st9{fill:#606340;}
	.st10{fill:#A5A779;}
	.st11{fill:#412412;}
	.st12{fill:#613A18;}
	.st13{fill:none;stroke:#BF552A;stroke-width:6;stroke-miterlimit:10;}
	.st14{fill:none;stroke:#BF552A;stroke-width:6;stroke-miterlimit:10;stroke-dasharray:15.5048,5.8143;}
</style>
<g>
	<path class="st0" d="M175.6,183.9c17.6-39.4,31.7-80.6,34.2-122.4c-3,4.8-6.3,9.7-9.8,14.5c-27.9,38.3-35.1,67.1-35.1,67.1
		s-0.5-12,3.5-29.2c4.6-19.8,0.8-34.5,0.8-34.5s-6.3,13.2-24.3,37.9c-18,24.7-44.7,58.9-25,98.1c13.7,27.4,44.9,44.3,75.7,52
		C174,243.9,163.8,211.4,175.6,183.9z"/>
	<path class="st0" d="M303.3,90.3C283.6,58.8,284,34.9,284,34.9s-4.6,5-11.7,23.3c-3.5,9.1-4.9,18.3-5.4,25.3
		c4.7,25.5,9.6,51,2.3,75.9c-12.2,36.7-34.8,76.9-26.3,112.8c38.6-1.4,100.6-12.5,114-55.9C371.5,169.4,323.1,121.8,303.3,90.3z"/>
	<path class="st1" d="M269.2,159.5c7.3-25,2.3-50.5-2.3-75.9c-0.5,7.1-0.1,11.9-0.1,11.9s-9.6-17.8-11.8-45.3
		C252.7,22.5,238.3,0,238.3,0s-8,28.8-28.5,61.5c-2.5,41.8-16.6,83-34.2,122.4c-11.8,27.5-1.6,60.1,20.1,83.6
		c13.3,3.3,26.6,5,38.4,5c2.8,0,5.7-0.1,8.9-0.2C234.4,236.4,257,196.2,269.2,159.5z"/>
	<path class="st2" d="M266.4,167.6c-2.7-2.5-5.6-5-8.9-7.8c-20.2-17-23.4-37.7-23.4-37.7s-14.8,15.7-20.1,38.1
		c-6.6,27.9,3.1,41.5,3.1,41.5s-9.9-10-13.8-17.1c-5.7-10.4-8.8-22.4-8.8-22.4s-11.5,11.3-20.7,26.7c-8.2,25,0.5,53.3,18.8,75
		c13.8,6.2,29.6,8.5,41.6,8.5c3,0,6-0.1,8.9-0.2C235,239,253.8,202.1,266.4,167.6z"/>
	<path class="st3" d="M317.2,219.9c0-27.9-31.1-47.9-31.1-47.9s5.7,12.2,7.1,25.3c1.7,16.1-3.4,32.5-3.4,32.5s1.8-17.6-0.6-27.3
		c-3.2-12.7-9.2-22.2-22.9-34.9C253.8,202.1,235,239,243,272.2C295.4,270.4,317.2,251.5,317.2,219.9z"/>
	<path class="st3" d="M173.7,188.9c-7.6,12.7-13.6,28.1-10.4,42.5c3.6,16,15.3,26.3,29.2,32.5C174.2,242.2,165.5,213.9,173.7,188.9z
		"/>
	<path class="st4" d="M232.1,194.3c0,0,2,11.2-1.8,22.1c-3.8,10.9-12.7,15.1-14.5,29c-1.8,13.9,8.8,28,24.1,27
		c1.1-0.1,2.1-0.2,3.1-0.3c-4.6-19.2-0.2-39.7,6.8-60.2C241.1,201.9,232.1,194.3,232.1,194.3z"/>
</g>
<g>
	<g>
		<path class="st5" d="M167.5,221c1.6-3.5,3.9-5.7,4.9-5.2c1,0.5,4.5-1,8-3.1c36.2-21.7,85.8-18.4,122-40.1c3.5-2,8.2-6.6,10.5-10.3
			c1.3-2,2.6-4.2,3.9-6.4c2.2-3.9,5.5-10,7.4-13.8c1.9-3.7,1.1-6.5-1.6-6.1c-2.7,0.3-3.8-2.7-2.5-6.9c1.3-4.3,0.2-6.6-2.4-5.2
			c-2.7,1.3-4.2-1.2-3.4-5.6c0.8-4.5-0.6-6.2-3.2-3.9c-2.6,2.2-4.5,0.4-4.3-3.9c0.2-4.4-1.5-5.4-3.8-2.5c-2.4,2.9-4.7,1.7-5.1-2.2
			c-0.4-4-2.3-4.4-4.4-1.1c-2.1,3.3-4.8,2.9-5.8-0.6c-1.1-3.5-3.2-3.3-4.8,0.1c-1.6,3.5-3.9,5.7-4.9,5.2c-1-0.5-4.5,1-8,3.1
			c-36.2,21.7-85.8,18.4-122,40.1c-3.5,2-8.2,6.6-10.5,10.3c-1.3,2-2.6,4.2-3.9,6.4c-2.2,3.9-5.5,10-7.4,13.8
			c-1.9,3.7-1.1,6.5,1.6,6.1c2.7-0.3,3.8,2.7,2.5,6.9c-1.3,4.3-0.2,6.6,2.4,5.2c2.7-1.3,4.2,1.2,3.4,5.6c-0.8,4.5,0.6,6.2,3.2,3.9
			c2.6-2.2,4.5-0.4,4.3,3.9c-0.2,4.4,1.5,5.4,3.8,2.5c2.4-2.9,4.7-1.7,5.1,2.2c0.4,4,2.3,4.4,4.4,1.1c2.1-3.3,4.8-2.9,5.8,0.6
			C163.8,224.6,165.9,224.5,167.5,221z"/>
		<g>
			<g>
				<line class="st6" x1="279.7" y1="125.3" x2="229.4" y2="142.2"/>
				<line class="st6" x1="217.6" y1="144.3" x2="187" y2="153.2"/>
				<line class="st6" x1="175.6" y1="156.3" x2="170.5" y2="157.7"/>
			</g>
			<path class="st7" d="M198.8,169.1c-9,2.4-18,4.7-27,7"/>
			<path class="st7" d="M235.8,159c0,0-25.8,7-25.8,7"/>
			<path class="st7" d="M274,148.9c-5.9,1.6-11.8,3.2-17.8,4.7"/>
			<polyline class="st8" points="236.4,177.3 215.5,183.4 181.3,193.3 			"/>
			<line class="st8" x1="261.3" y1="170.1" x2="251.5" y2="173"/>
			<line class="st8" x1="291.5" y1="161.4" x2="274" y2="166.4"/>
		</g>
		<g>
			<g>
				<path class="st9" d="M277.4,159.6l0.7,0.5c11.9,8.1,17.6,22.9,14,36.9c-3.5,14-15.6,24.3-29.9,25.7l-0.8,0.1l-0.7-0.5
					c-11.9-8.1-17.6-22.9-14-36.9c3.5-14,15.6-24.3,29.9-25.7L277.4,159.6z"/>
			</g>
			<path class="st10" d="M271.3,193.5l4-15.8l15.3,23.2l0.4-0.3c0.5-1.2,0.9-2.4,1.2-3.7c0.3-1.1,0.5-2.1,0.6-3.2l-15.6-23.7
				l2.6-10.1l3.8-15.1l-5.6-1.4l-3.5,13.8l0,0l-2.9,11.5L248,181.3c-0.5,1.3-1,2.7-1.3,4.1c-0.3,1.2-0.5,2.3-0.7,3.5l23.7-12.7
				l-4,15.8l0-0.1l-18.9,10.1c0.5,1.9,1.1,3.8,1.9,5.6l15.2-8.1l-5.3,21c0.7,0.6,1.5,1.2,2.3,1.7l0.7,0.5l0.8-0.1
				c0.6-0.1,1.1-0.2,1.7-0.2l5.4-21.4l9.9,15.1c1.6-1.2,3-2.5,4.4-3.9L271.3,193.5L271.3,193.5z"/>
		</g>
		<g>
			<g>
				<path class="st9" d="M182.6,135.8l0.2-0.8c3.1-14.1,14.8-24.8,29.1-26.7c14.3-1.9,28.3,5.5,35,18.3l0.4,0.8l-0.2,0.8
					c-3.1,14.1-14.8,24.8-29.1,26.7c-14.3,1.9-28.3-5.5-35-18.3L182.6,135.8z"/>
			</g>
			<path class="st10" d="M216.3,129l-16.2,2.1l15.9-22.8l-0.4-0.3c-1.3,0-2.6,0.1-3.9,0.3c-1.1,0.1-2.2,0.4-3.2,0.6l-16.3,23.2
				l-10.4,1.4l-15.5,2l0.8,5.8l14.1-1.8l0,0l11.7-1.5l20.5,17.3c1.4,0,2.9-0.1,4.3-0.3c1.2-0.2,2.4-0.4,3.5-0.7l-20.5-17.3l16.2-2.1
				l0,0l16.4,13.9c1.6-1.1,3.1-2.4,4.5-3.8l-13.1-11.1l21.5-2.8c0.3-0.9,0.5-1.8,0.7-2.8l0.2-0.8l-0.4-0.8c-0.3-0.5-0.6-1-0.8-1.5
				L224,128l10.3-14.8c-1.7-1-3.4-1.9-5.2-2.6L216.3,129L216.3,129z"/>
		</g>
		<g>
			<path class="st11" d="M197.6,213.4c7.5-5,15.1-10.1,21.8-16.2c1.5-1.4,3.2-2.1,4.8-2.4c1.8-3.1,4.1-6.1,5.6-6.9
				c0.1-0.1,0.5-0.1,1-0.1c1.1-3.5,2.6-6.5,4.5-9.2c-4.7-0.8-7.5-1.3-7.5-1.3L210.5,201c0,0-32.6,17.4-60.4,32.8
				c0.2,3,1.2,6,2.5,9.4c15.8-10.8,35.2-23.9,44.6-29.4C197.3,213.7,197.4,213.5,197.6,213.4z"/>
			<path class="st12" d="M275,113.5c1.5-2.4,21.5-31.9,28.3-41.7c-1.7-0.2-3.1-0.9-4.2-2c-1.7,0.2-3.4,0.3-5.1,0.4
				c-10.3,12.9-26.6,35.2-26.6,34.5c0-0.7-5.1-15.5-8.1-24.4c-1.8,3.3-3.6,6.7-5.4,10c2.7,10.1,6.2,21,5.7,24
				c-0.9,5.1-11.6,24.9-18.2,31.1c-6.6,6.2-32.2,38-35.2,40.1c-3,2.1-4,11.2-9.9,13.6c-2.6,1.1-18.5,8.9-35.4,17.4
				c-1.3,1-2.7,2.1-4,3.2c-5.7,4.8-7.3,9.3-7,14c27.9-15.4,60.4-32.8,60.4-32.8l17.3-23.8c0,0,2.8,0.5,7.5,1.3
				c0.9-1.3,1.9-2.4,3.1-3.6c-2.5-0.4-3.9-0.7-3.8-0.9c0.7-1.7,17-23.5,21.1-26.2c1.1-0.7,6.5-1.5,13.7-2.2c3.5-3.2,7.2-6.4,10-9.8
				c-10.2,1.5-18.7,2.5-18.4,1.4C261.7,134.8,273.3,116.3,275,113.5z"/>
		</g>
	</g>
</g>
<polygon class="st13" points="86.4,63.6 57.7,63.6 57.7,34.9 31.7,34.9 31.7,63.6 3,63.6 3,89.6 31.7,89.6 31.7,118.2 57.7,118.2 
	57.7,89.6 86.4,89.6 "/>
<g>
	<g>
		<path class="st13" d="M77.5,32.3c2-1.8,4-3.6,6.1-5.1"/>
		<path class="st14" d="M88.4,23.9c28.4-17.6,67.6-13.2,96.4,11.4"/>
		<path class="st13" d="M187,37.2c2,1.8,3.9,3.6,5.7,5.6"/>
	</g>
</g>
<polyline class="st13" points="195.9,24.2 195.9,45.5 174.6,45.5 "/>
</svg>
