<?xml version="1.0" encoding="utf-8"?>
<!-- Generator: Adobe Illustrator 19.2.1, SVG Export Plug-In . SVG Version: 6.00 Build 0)  -->
<svg version="1.1" id="Layer_6" xmlns="http://www.w3.org/2000/svg" xmlns:xlink="http://www.w3.org/1999/xlink" x="0px" y="0px"
	 viewBox="0 0 571.9 408.7" style="enable-background:new 0 0 571.9 408.7;" xml:space="preserve">
<style type="text/css">
	.st0{fill:#D8C781;}
	.st1{fill:none;stroke:#F4D760;stroke-width:6;stroke-linecap:round;stroke-linejoin:round;stroke-miterlimit:10;}
	.st2{fill:none;stroke:#AA9A56;stroke-width:6;stroke-linecap:round;stroke-linejoin:round;stroke-miterlimit:10;}
	.st3{fill:none;stroke:#B99B30;stroke-width:6;stroke-linecap:round;stroke-linejoin:round;stroke-miterlimit:10;}
	.st4{fill:#606340;}
	.st5{fill:#A5A779;}
	.st6{fill:#412412;}
	.st7{fill:#613A18;}
	.st8{fill:#FCB017;}
	.st9{fill:#FFCF2D;}
	.st10{fill:#F47629;}
	.st11{fill:#DF5126;}
	.st12{fill:#EF413B;}
	.st13{fill:#C0562A;}
	
		.st14{fill-rule:evenodd;clip-rule:evenodd;fill:none;stroke:#C1562A;stroke-width:4;stroke-linecap:round;stroke-linejoin:round;stroke-miterlimit:10;}
	.st15{fill:#C1562A;}
</style>
<g>
	<g>
		<path class="st0" d="M176.3,273.9c4.4-4.4,9-6.5,10.2-5.2c1.3,1.3,7.4,0.9,13.8-0.3c66.8-13.2,140.4,18.7,207.2,5.4
			c6.4-1.2,16-5.6,21.6-9.9c3.1-2.4,6.3-4.9,9.3-7.6c5.5-4.7,13.9-12.3,18.7-16.9c4.8-4.6,5.2-9.3,0.9-10.1c-4.3-1-4.3-6.2,0-11.8
			c4.3-5.8,3.9-9.9-0.9-9.2c-4.8,0.6-5.8-4.1-2.2-10.3c3.6-6.4,2.4-9.7-2.7-7.6c-5.1,2-7.1-1.9-4.4-8.3c2.7-6.6,0.7-9-4.4-5.9
			c-5.2,3.1-8.1,0.1-6.6-6.2c1.6-6.3-1.1-8-6-4.1c-4.9,3.8-8.8,1.8-8.5-4.1c0.2-5.9-3-6.8-7.4-2.4c-4.4,4.4-9,6.5-10.2,5.2
			c-1.3-1.3-7.4-0.9-13.8,0.3c-66.8,13.2-140.4-18.7-207.2-5.4c-6.4,1.2-16,5.6-21.6,9.9c-3.1,2.4-6.3,4.9-9.3,7.6
			c-5.5,4.7-13.9,12.3-18.7,16.9c-4.8,4.6-5.2,9.3-0.9,10.1c4.3,1,4.3,6.2,0,11.8c-4.3,5.8-3.9,9.9,0.9,9.2
			c4.8-0.6,5.8,4.1,2.2,10.3c-3.6,6.4-2.4,9.8,2.7,7.6c5.1-2,7.1,1.9,4.4,8.3c-2.7,6.6-0.7,9,4.4,5.9c5.2-3.1,8.1-0.1,6.6,6.2
			c-1.6,6.3,1.1,8,6,4.1c4.9-3.8,8.8-1.8,8.5,4.1C168.7,277.4,172,278.3,176.3,273.9z"/>
		<g>
			<g>
				<line class="st1" x1="398.9" y1="189.4" x2="313.3" y2="187.7"/>
				<line class="st1" x1="294.2" y1="184.6" x2="242.8" y2="181.5"/>
				<line class="st1" x1="223.8" y1="179.9" x2="215.3" y2="179.4"/>
			</g>
			<path class="st2" d="M252.1,212c-15-1.2-29.9-2.6-44.9-4"/>
			<path class="st2" d="M313.9,216.9c0-0.1-43-3.4-43-3.4"/>
			<path class="st2" d="M377.4,222.2c-9.9-0.8-19.7-1.6-29.6-2.5"/>
			<polyline class="st3" points="304.8,245 269.7,242.9 212.3,239.4 			"/>
			<line class="st3" x1="346.5" y1="247.6" x2="330.1" y2="246.6"/>
			<line class="st3" x1="397.3" y1="250.7" x2="368" y2="248.9"/>
		</g>
		<g>
			<g>
				<path class="st4" d="M376.9,240.5l0.8,1.1c13.7,18.8,14.3,44.4,1.3,63.7c-13,19.3-36.9,28.5-59.5,22.8l-1.3-0.3l-0.8-1.1
					c-13.7-18.8-14.3-44.4-1.3-63.7c13-19.3,36.9-28.5,59.5-22.8L376.9,240.5z"/>
			</g>
			<path class="st5" d="M349,288.6l14.7-21.9l10.6,43.7l0.7-0.2c1.4-1.6,2.7-3.2,3.8-5c1-1.5,1.9-3,2.7-4.5l-10.8-44.5l9.4-14
				l14.1-20.9l-7.8-5.2l-12.8,19l0,0L363.1,251l-42.8,6.4c-1.5,1.7-3,3.6-4.3,5.6c-1.1,1.6-2,3.3-2.9,5l42.9-6.4l-14.7,21.9l0-0.1
				l-34.3,5.1c-0.3,3.2-0.4,6.3-0.1,9.5l27.5-4.1l-19.5,29c0.8,1.3,1.6,2.6,2.5,3.8l0.8,1.1l1.3,0.3c0.9,0.2,1.8,0.4,2.7,0.6
				l19.9-29.6l6.9,28.3c3-0.9,6-2.1,8.8-3.5L349,288.6L349,288.6z"/>
		</g>
		<g>
			<g>
				<path class="st4" d="M245.6,152.5l0.7-1.2c12.4-19.7,36-29.7,58.7-24.7c22.7,4.9,40.1,23.8,43.2,46.9l0.2,1.4l-0.7,1.2
					c-12.4,19.7-36,29.7-58.7,24.7c-22.7-4.9-40.1-23.8-43.2-46.9L245.6,152.5z"/>
			</g>
			<path class="st5" d="M300.6,160.6l-25.7-5.6l36.7-26l-0.4-0.6c-2-0.7-4-1.3-6-1.7c-1.7-0.4-3.5-0.6-5.2-0.8l-37.4,26.5l-16.5-3.6
				l-24.6-5.4l-2,9.2l22.4,4.9l0,0l18.7,4.1l21.7,37.4c2.2,0.8,4.4,1.4,6.7,1.9c1.9,0.4,3.8,0.7,5.7,0.9l-21.8-37.5l25.8,5.6
				l-0.1,0.1l17.4,30c3-0.9,6-2,8.9-3.4l-13.9-24l34.2,7.4c0.9-1.2,1.8-2.5,2.6-3.8l0.7-1.2l-0.2-1.4c-0.1-0.9-0.3-1.8-0.5-2.7
				l-34.9-7.6l23.8-16.8c-2-2.5-4.2-4.8-6.5-6.9L300.6,160.6L300.6,160.6z"/>
		</g>
		<g>
			<path class="st6" d="M214.9,273.5c16.4-4.1,32.9-8.2,48.6-14.9c3.5-1.5,6.9-1.8,10-1.2c5.1-4.3,11-8.2,14.3-8.7
				c0.3,0,0.9,0.1,1.9,0.4c4.1-5.4,8.6-9.9,13.7-13.4c-7.9-4.4-12.5-7-12.5-7l-45.4,31c0,0-68.3,10.1-127.1,19.6
				c-1.5,5.3-1.7,11.4-1.6,18.1c34.6-9.1,77.1-19.8,97.1-23.6C214.2,273.8,214.5,273.6,214.9,273.5z"/>
			<path class="st7" d="M414.3,146.3c4.2-3.3,58-42.7,76.2-55.6c-2.8-1.5-4.8-3.6-6.2-6.1c-3.1-0.7-6.2-1.6-9.2-2.5
				c-26.3,16.3-69,45.2-68.6,44c0.4-1.2,0.8-30.6,1.1-48.1c-5.2,4.7-10.5,9.5-15.7,14.2c-1.6,19.6-2.2,41-5.1,45.8
				c-4.8,8.3-36.1,36.6-51.7,43.4c-15.6,6.8-80.6,46.7-87.3,48.5c-6.7,1.8-14.2,17.2-25.9,17.7c-5.2,0.2-38.3,4.1-73.4,8.3
				c-3,1-6,2-9,3.1c-13.1,4.9-18.7,11.7-21.1,20.3c58.8-9.5,127.1-19.6,127.1-19.6l45.4-31c0,0,4.6,2.6,12.5,7
				c2.4-1.7,4.9-3.1,7.6-4.3c-4.1-2.3-6.3-3.7-6.1-4c2.3-2.5,44.7-30.7,53.7-32.8c2.5-0.6,12.4,1.5,25.5,4.7
				c8.2-3.4,16.7-6.7,23.7-11.1c-18.9-3.8-34.6-7.5-33.4-9.1C377.3,175.4,409.4,150.1,414.3,146.3z"/>
		</g>
	</g>
	<g>
		<path class="st8" d="M245.5,162.8c15.6-34.9,28-71.3,30.3-108.3c-2.7,4.2-5.5,8.5-8.7,12.9c-24.7,33.9-31.1,59.4-31.1,59.4
			s-0.4-10.6,3.1-25.8c4.1-17.6,0.7-30.6,0.7-30.6s-5.5,11.7-21.5,33.6c-15.9,21.8-39.5,52.1-22.1,86.8c12.2,24.3,39.7,39.2,67.1,46
			C244,216,235,187.1,245.5,162.8z"/>
		<path class="st8" d="M358.6,79.9c-17.5-27.9-17.1-49.1-17.1-49.1s-4.1,4.5-10.4,20.7c-3.1,8-4.3,16.2-4.8,22.4
			c4.1,22.6,8.5,45.1,2.1,67.2c-10.8,32.5-30.8,68.1-23.2,99.8c34.1-1.3,89.1-11.1,101-49.5C418.9,149.9,376.1,107.8,358.6,79.9z"/>
		<path class="st9" d="M328.4,141.2c6.4-22.1,2.1-44.7-2.1-67.2c-0.4,6.3-0.1,10.5-0.1,10.5s-8.5-15.7-10.5-40.1
			C313.8,19.9,301,0,301,0s-7.1,25.5-25.3,54.5c-2.3,37-14.7,73.5-30.3,108.3c-10.4,24.4-1.4,53.2,17.8,74c11.8,2.9,23.6,4.4,34,4.4
			c2.4,0,5.1-0.1,7.8-0.2C297.5,209.3,317.5,173.7,328.4,141.2z"/>
		<path class="st10" d="M325.8,148.4c-2.4-2.2-4.9-4.5-7.8-6.9c-17.9-15-20.7-33.3-20.7-33.3s-13.1,13.9-17.8,33.7
			c-5.9,24.7,2.7,36.7,2.7,36.7s-8.8-8.8-12.2-15.1c-5-9.2-7.8-19.8-7.8-19.8s-10.2,10-18.4,23.6c-7.3,22.1,0.4,47.2,16.7,66.4
			c12.2,5.5,26.2,7.5,36.8,7.5c2.7,0,5.3-0.1,7.8-0.1C298.1,211.6,314.7,178.9,325.8,148.4z"/>
		<path class="st11" d="M370.9,194.7c0-24.7-27.5-42.4-27.5-42.4s5,10.8,6.3,22.4c1.5,14.2-3,28.8-3,28.8s1.6-15.6-0.6-24.1
			c-2.9-11.2-8.1-19.7-20.3-30.9c-11.1,30.5-27.8,63.2-20.7,92.6C351.5,239.3,370.8,222.7,370.9,194.7z"/>
		<path class="st11" d="M243.8,167.2c-6.7,11.2-12,24.9-9.2,37.6c3.2,14.1,13.6,23.2,25.8,28.8C244.3,214.4,236.6,189.3,243.8,167.2
			z"/>
		<path class="st12" d="M295.5,172c0,0,1.8,9.9-1.6,19.6c-3.4,9.7-11.2,13.4-12.8,25.7c-1.6,12.3,7.8,24.8,21.3,23.9
			c0.9-0.1,1.8-0.2,2.7-0.3c-4-17-0.2-35.1,6-53.3C303.5,178.8,295.5,172,295.5,172z"/>
	</g>
</g>
<g>
	<g>
		<path class="st13" d="M114.3,348.1H95.9v-12.9c0-1-0.8-1.8-1.8-1.8H68.4c-1,0-1.8,0.8-1.8,1.8v12.9h-8.4l-39.7-39.7
			c-0.7-0.7-1.9-0.7-2.6,0L2.6,321.6c-1.7,1.7-2.6,3.9-2.6,6.3c0,2.4,1,4.6,2.6,6.3l30.2,30.2c1.7,1.7,4,2.7,6.4,2.7l0,0
			c2.3,0,4.5-0.9,6.2-2.6l10.1-10.1V400c0,4.8,4,8.7,8.9,8.7h42.7c4.9,0,8.9-3.9,8.9-8.7v-50C116.1,348.9,115.3,348.1,114.3,348.1z
			 M70.2,337.1h22v11h-22V337.1z M42.8,361.9c-1,1-2.2,1.5-3.6,1.5l0,0c-1.4,0-2.8-0.6-3.8-1.6L5.2,331.6c-1-1-1.6-2.3-1.6-3.7
			c0-1.4,0.5-2.7,1.5-3.6l11.9-11.9L54.8,350L42.8,361.9z M112.4,400c0,2.8-2.4,5.1-5.3,5.1H64.5c-2.9,0-5.3-2.3-5.3-5.1v-48.2h9.2
			c0,0,0,0,0,0h25.7c0,0,0,0,0,0h18.3L112.4,400L112.4,400z"/>
		<path class="st13" d="M103.3,344.4c3,0,5.5-2.5,5.5-5.5c0-3-2.5-5.5-5.5-5.5c-3,0-5.5,2.5-5.5,5.5
			C97.7,342,100.2,344.4,103.3,344.4z M103.3,337.1c1,0,1.8,0.8,1.8,1.8c0,1-0.8,1.8-1.8,1.8c-1,0-1.8-0.8-1.8-1.8
			C101.4,337.9,102.2,337.1,103.3,337.1z"/>
		<path class="st13" d="M80.3,329.7c3.7,0,6.4-0.9,9.2-5.4C92.2,320,91,311,88.7,304c-2-6-6.8-12.8-9.1-12.8l-1,0l-0.5,0.8
			c-0.2,0.3-0.5,1-0.2,1.9c0.3,1,0.8,7.9-1.6,11.2c-2.3,3.2-4.9,7.6-4.9,13.5C71.4,325.4,76.7,329.7,80.3,329.7z M79.3,307.2
			c1.7-2.4,2.4-5.9,2.5-8.9c1.2,1.8,2.5,4.1,3.4,6.9c2.4,7.1,2.8,14.5,1.1,17.3c-2,3.3-3.4,3.6-6,3.6c-1.8,0-5.2-2.9-5.2-7.5
			C75.1,313.8,77.2,310.1,79.3,307.2z"/>
	</g>
</g>
<g>
	<path class="st14" d="M526.5,37.9c3.2-11.1-1.8-25.4-7.8-31.8c-1.3-1.3-3.4-3.1-4.6-2.8c0.3,7.5-2,15-5.6,17.1
		c0.2-3.9-0.2-7.2-2.3-8.8c1.4,1-6.1,13.9-6.8,15.5c-3.8,9,0.8,24.5,12.5,24.5"/>
</g>
<g>
	<path class="st15" d="M571.9,101l-8.2,6.8l-53-64.2l8.2-6.8L571.9,101z M564.3,101.5l1.3-1.1L518.3,43l-1.3,1.1L564.3,101.5z"/>
	<path class="st15" d="M517.7,43.7c-3.2,2.7-8.5,1.5-11.9-2.6c-3.4-4.1-3.6-9.5-0.3-12.2c3.2-2.7,8.4-1.5,11.9,2.6
		C520.8,35.7,521,41,517.7,43.7z M508.4,32.3c-1.1,0.9-1,3.5,0.9,5.9c1.9,2.3,4.5,2.9,5.6,2c1.1-0.9,1-3.5-0.9-5.9
		C512,32,509.5,31.4,508.4,32.3z"/>
</g>
</svg>
