<?xml version="1.0" encoding="utf-8"?>
<!-- Generator: Adobe Illustrator 19.2.1, SVG Export Plug-In . SVG Version: 6.00 Build 0)  -->
<svg version="1.1" id="Layer_2" xmlns="http://www.w3.org/2000/svg" xmlns:xlink="http://www.w3.org/1999/xlink" x="0px" y="0px"
	 viewBox="0 0 284.2 193.2" style="enable-background:new 0 0 284.2 193.2;" xml:space="preserve">
<style type="text/css">
	.st0{fill:none;stroke:#BF552A;stroke-width:6;stroke-miterlimit:10;}
	.st1{fill:none;stroke:#BF552A;stroke-width:6;stroke-miterlimit:10;stroke-dasharray:17.4086,6.5282;}
	.st2{fill:#FCB017;}
	.st3{fill:#FFCF2D;}
	.st4{fill:#F47629;}
	.st5{fill:#DF5126;}
	.st6{fill:#EF413B;}
	.st7{fill:#613A18;}
	.st8{fill:#412412;}
	.st9{fill:#A75C2A;}
	.st10{fill:#83381B;}
</style>
<g>
	<polygon class="st0" points="64.3,49.1 43.2,49.1 43.2,28 24.1,28 24.1,49.1 3,49.1 3,68.2 24.1,68.2 24.1,89.3 43.2,89.3 
		43.2,68.2 64.3,68.2 	"/>
	<g>
		<g>
			<path class="st0" d="M57.7,26.1c2-1.9,4.1-3.5,6.2-5"/>
			<path class="st1" d="M69.6,17.8c19.6-9.9,44.9-6.8,64.5,8.4"/>
			<path class="st0" d="M136.6,28.3c2,1.7,3.9,3.5,5.8,5.5"/>
		</g>
	</g>
	<polyline class="st0" points="144.8,20.2 144.8,35.8 129.1,35.8 	"/>
</g>
<g>
	<path class="st2" d="M166.1,94.3c9.1-20.2,16.2-41.3,17.5-62.7c-1.5,2.5-3.2,4.9-5,7.4c-14.3,19.6-18,34.4-18,34.4s-0.2-6.2,1.8-15
		c2.3-10.2,0.4-17.7,0.4-17.7s-3.2,6.8-12.4,19.4c-9.2,12.6-22.9,30.2-12.8,50.3c7,14.1,23,22.7,38.8,26.7
		C165.3,125.1,160.1,108.4,166.1,94.3z"/>
	<path class="st2" d="M231.6,46.3c-10.1-16.2-9.9-28.4-9.9-28.4s-2.3,2.6-6,12c-1.8,4.7-2.5,9.4-2.8,13c2.4,13.1,4.9,26.1,1.2,38.9
		c-6.3,18.8-17.9,39.5-13.5,57.8c19.8-0.7,51.6-6.4,58.5-28.7C266.6,86.8,241.8,62.5,231.6,46.3z"/>
	<path class="st3" d="M214.1,81.8c3.7-12.8,1.2-25.9-1.2-38.9c-0.3,3.6,0,6.1,0,6.1s-4.9-9.1-6.1-23.2C205.7,11.5,198.3,0,198.3,0
		s-4.1,14.8-14.6,31.6c-1.3,21.4-8.5,42.6-17.5,62.7c-6,14.1-0.8,30.8,10.3,42.9c6.8,1.7,13.6,2.5,19.7,2.5c1.4,0,2.9,0,4.5-0.1
		C196.2,121.2,207.8,100.6,214.1,81.8z"/>
	<path class="st4" d="M212.6,86c-1.4-1.3-2.9-2.6-4.5-4c-10.4-8.7-12-19.3-12-19.3s-7.6,8-10.3,19.5c-3.4,14.3,1.6,21.3,1.6,21.3
		s-5.1-5.1-7.1-8.8c-2.9-5.3-4.5-11.5-4.5-11.5s-5.9,5.8-10.6,13.7c-4.2,12.8,0.3,27.3,9.6,38.5c7.1,3.2,15.2,4.4,21.3,4.4
		c1.6,0,3.1,0,4.5-0.1C196.6,122.6,206.2,103.6,212.6,86z"/>
	<path class="st5" d="M238.7,112.8c0-14.3-15.9-24.6-15.9-24.6s2.9,6.3,3.6,13c0.9,8.2-1.7,16.7-1.7,16.7s0.9-9-0.3-14
		c-1.7-6.5-4.7-11.4-11.7-17.9c-6.4,17.7-16.1,36.6-12,53.7C227.5,138.7,238.7,129,238.7,112.8z"/>
	<path class="st5" d="M165.1,96.9c-3.9,6.5-7,14.4-5.3,21.8c1.8,8.2,7.9,13.5,15,16.7C165.4,124.2,160.9,109.7,165.1,96.9z"/>
	<path class="st6" d="M195.1,99.6c0,0,1,5.7-0.9,11.3c-2,5.6-6.5,7.8-7.4,14.9c-0.9,7.1,4.5,14.4,12.3,13.8c0.5,0,1.1-0.1,1.6-0.2
		c-2.3-9.9-0.1-20.4,3.5-30.9C199.7,103.6,195.1,99.6,195.1,99.6z"/>
</g>
<g>
	<path class="st7" d="M138.4,192.6c3.2,0.8,6.9,0.6,6.9,0.6s4.8-5.5,9.6-11.2c3.9-4.6,14-13,14-13l-25.4,2.6
		c-2.8,5.9-9.3,18.9-9.3,18.9S135.2,191.8,138.4,192.6z"/>
	<path class="st7" d="M210.6,106.7l15.2-4.7c-0.7,0.3-12.9-6.8-12.9-6.8s-2.9,0.9-4.7,2.3c-1.8,1.5-2.5,2.2-2.5,2.2L210.6,106.7z"/>
	<g>
		<path class="st8" d="M254.1,98.4L116.7,109l-0.2,0c-18.1,2.6-22.4,18.6-23.3,27.7c40-5.5,111.5-13.1,162.1-17.4L254.1,98.4z"/>
		<path class="st7" d="M93.8,148.3l7.4,1.1l-6.2,4.4c0.2,0.8,0.5,1.6,0.7,2.4c53.8-2.5,107.8-1.6,161.5-5l-1.9-32
			c-50.6,4.3-122,11.9-162.1,17.4c-0.2,2.5-0.2,4.5-0.1,5.5C93.3,144.3,93.5,146.3,93.8,148.3z"/>
	</g>
	<path class="st8" d="M114,174.6c2.9,0.8,5.5,1.1,8,1.1L258.1,165l-0.8-13.7c-53.7,3.4-107.7,2.5-161.5,5
		C98.7,165.4,104.4,172,114,174.6z"/>
	<path class="st9" d="M230.1,116.6c-1.7,4.7-2.3,9.9-2,14.9c1.2,16.2,6.8,28.6,20.9,32.5c14.1,3.8,23.7-4.1,23.7-4.1l-1.6-6.4
		l5.9,2.9c0,0,8.4-10.2,6.9-25.7c-1.3-13.2-10.6-33.4-29.9-32.2c-9.8,0.6-20.9,12-20.9,12l-44.4,6.3L230.1,116.6z"/>
	
		<ellipse transform="matrix(0.9969 -7.887384e-02 7.887384e-02 0.9969 -9.5256 20.6044)" class="st10" cx="256.1" cy="130.9" rx="18.7" ry="23.6"/>
	
		<ellipse transform="matrix(0.9969 -7.887384e-02 7.887384e-02 0.9969 -9.5256 20.6044)" class="st9" cx="256.1" cy="130.9" rx="9.1" ry="13.9"/>
</g>
</svg>
