<?xml version="1.0" encoding="utf-8"?>
<!-- Generator: Adobe Illustrator 19.2.1, SVG Export Plug-In . SVG Version: 6.00 Build 0)  -->
<svg version="1.1" id="Layer_7" xmlns="http://www.w3.org/2000/svg" xmlns:xlink="http://www.w3.org/1999/xlink" x="0px" y="0px"
	 viewBox="0 0 345 191.6" style="enable-background:new 0 0 345 191.6;" xml:space="preserve">
<style type="text/css">
	.st0{fill:#38312F;}
	.st1{fill:#446641;}
	.st2{fill:none;stroke:#446641;stroke-width:5;stroke-linecap:round;stroke-linejoin:round;stroke-miterlimit:10;}
	.st3{fill:none;stroke:#38312F;stroke-width:6;stroke-linecap:round;stroke-miterlimit:10;stroke-dasharray:2,19;}
</style>
<path class="st0" d="M322.4,186.6c-6.2-22-25.4-38.5-48.7-40.7c-10.1-9.6-23.8-15.6-38.9-15.6c-21.4,0-40,12-49.6,29.5
	c-3.6-1.7-7.7-2.7-11.9-2.7c-15.4,0-27.8,12.4-27.8,27.8c0,0.6,0,1.1,0.1,1.7H322.4z"/>
<g>
	<g>
		<path class="st1" d="M33,37.5l5.4,17.7c1.7,5.7-0.2,11.7-4.5,15.4l19,62.4l16.9-5.1l8.6,28.4c3.8,12.4-3.3,25.6-15.7,29.3
			c-2.3,0.7-4.5,1-6.8,1c-10.1,0-19.5-6.6-22.5-16.7l-8.6-28.4l16.9-5.1L22.7,74c-5.6-0.7-10.6-4.6-12.3-10.3L5,46L33,37.5
			 M24.2,66.4c0.7,0,1.5-0.1,2.2-0.3c4.1-1.2,6.4-5.6,5.2-9.7L28.7,47l-14.9,4.5l2.9,9.4C17.7,64.2,20.8,66.4,24.2,66.4 M33,32.5
			c-0.5,0-1,0.1-1.5,0.2l-28,8.5c-1.3,0.4-2.3,1.3-3,2.4c-0.6,1.2-0.8,2.5-0.4,3.8l5.4,17.7c1.9,6.3,6.9,11.2,13.1,13.1L35.4,133
			l-12.1,3.7c-2.6,0.8-4.1,3.6-3.3,6.2l8.6,28.4c3.6,11.9,14.9,20.2,27.3,20.2c2.8,0,5.6-0.4,8.2-1.2c15-4.6,23.6-20.5,19-35.6
			l-8.6-28.4c-0.4-1.3-1.3-2.3-2.4-3c-0.7-0.4-1.5-0.6-2.4-0.6c-0.5,0-1,0.1-1.5,0.2l-12.1,3.7L39.6,71.9c4.1-5,5.6-11.9,3.6-18.2
			L37.8,36c-0.4-1.3-1.3-2.3-2.4-3C34.7,32.7,33.9,32.5,33,32.5L33,32.5z M20.1,54.8l5.3-1.6l1.4,4.6c0.4,1.4-0.4,3-1.8,3.5
			c-0.3,0.1-0.5,0.1-0.8,0.1c-1.2,0-2.3-0.8-2.7-2L20.1,54.8L20.1,54.8z"/>
	</g>
	<path class="st2" d="M44.3,150.9c1.2,4.1,5.6,6.4,9.7,5.2c4.1-1.2,6.4-5.6,5.2-9.7"/>
	<line class="st2" x1="69.4" y1="125.2" x2="22.9" y2="139.8"/>
	<line class="st2" x1="20.8" y1="77.2" x2="37.1" y2="72.2"/>
</g>
<path class="st3" d="M92.5,140.9c12.8-25.7,45.6-35.3,70.3-20.7c6.7,4,12.4,9.5,16.6,16"/>
<path class="st3" d="M88.2,128.3c23.8-47.7,84.8-65.5,130.5-38.4c12.4,7.3,23,17.6,30.8,29.7"/>
<path class="st3" d="M133.1,99.8c29-8.5,46.3-2,65.6,11.9c5.5,4,10.7,8.7,15.3,14"/>
<path class="st2" d="M292.5,26.4c-21.2-0.8-37.5-5.8-37.5-11.9c0-6.6,19.6-12,43.8-12c24.2,0,43.8,5.4,43.8,12
	c0,5.3-12.5,9.8-29.9,11.4"/>
<polyline class="st2" points="317.2,32.3 310.3,25.4 317.2,18.5 "/>
</svg>
