<?xml version="1.0" encoding="utf-8"?>
<!-- Generator: Adobe Illustrator 19.2.1, SVG Export Plug-In . SVG Version: 6.00 Build 0)  -->
<svg version="1.1" id="Layer_1" xmlns="http://www.w3.org/2000/svg" xmlns:xlink="http://www.w3.org/1999/xlink" x="0px" y="0px"
	 viewBox="0 0 551.8 376.3" style="enable-background:new 0 0 551.8 376.3;" xml:space="preserve">
<style type="text/css">
	.st0{fill:#C05629;}
	.st1{fill:none;stroke:#C05629;stroke-width:5;stroke-linecap:round;stroke-linejoin:round;stroke-miterlimit:10;}
	.st2{fill:#5A9399;}
	.st3{fill:none;stroke:#B2D6B7;stroke-width:6;stroke-linecap:round;stroke-miterlimit:10;}
	.st4{fill:none;stroke:#E3A625;stroke-width:6;stroke-linecap:round;stroke-linejoin:round;stroke-miterlimit:10;}
</style>
<g>
	<g>
		<path class="st0" d="M33,145.9l5.4,17.7c1.7,5.7-0.2,11.7-4.5,15.4l19,62.4l16.9-5.1l8.6,28.4c3.8,12.4-3.3,25.6-15.7,29.3
			c-2.3,0.7-4.5,1-6.8,1c-10.1,0-19.5-6.6-22.5-16.7l-8.6-28.4l16.9-5.1l-19-62.4c-5.6-0.7-10.6-4.6-12.3-10.3L5,154.5L33,145.9
			 M24.2,174.8c0.7,0,1.5-0.1,2.2-0.3c4.1-1.2,6.4-5.6,5.2-9.7l-2.9-9.4l-14.9,4.5l2.9,9.4C17.7,172.6,20.8,174.8,24.2,174.8
			 M33,140.9c-0.5,0-1,0.1-1.5,0.2l-28,8.5c-1.3,0.4-2.3,1.3-3,2.4c-0.6,1.2-0.8,2.5-0.4,3.8l5.4,17.7c1.9,6.3,6.9,11.2,13.1,13.1
			l16.6,54.8l-12.1,3.7c-2.6,0.8-4.1,3.6-3.3,6.2l8.6,28.4c3.6,11.9,14.9,20.2,27.3,20.2c2.8,0,5.6-0.4,8.2-1.2
			c7.3-2.2,13.2-7.1,16.8-13.9c3.6-6.7,4.4-14.4,2.2-21.7l-8.6-28.4c-0.4-1.3-1.3-2.3-2.4-3c-0.7-0.4-1.5-0.6-2.4-0.6
			c-0.5,0-1,0.1-1.5,0.2l-12.1,3.7l-16.6-54.8c4.1-5,5.6-11.9,3.6-18.2l-5.4-17.7C37.2,142.3,35.2,140.9,33,140.9L33,140.9z
			 M20.1,163.2l5.3-1.6l1.4,4.6c0.4,1.4-0.4,3-1.8,3.5c-0.3,0.1-0.5,0.1-0.8,0.1c-1.2,0-2.3-0.8-2.7-2L20.1,163.2L20.1,163.2z"/>
	</g>
	<path class="st1" d="M44.3,259.4c1.2,4.1,5.6,6.4,9.7,5.2s6.4-5.6,5.2-9.7"/>
	<line class="st1" x1="69.4" y1="233.6" x2="22.9" y2="248.3"/>
	<line class="st1" x1="20.8" y1="185.6" x2="37.1" y2="180.6"/>
</g>
<g>
	<g id="raindrop_4_">
		<path class="st2" d="M262.1,150.5c-29.4,34.6-83.3,105.8-83.3,141.6c0,46.3,37.3,84.2,83.3,84.2c45.9,0,83.2-37.9,83.2-84.2
			C345.3,256.3,291.5,185.1,262.1,150.5z"/>
	</g>
	<g id="raindrop_2_">
		<path class="st2" d="M361.4,74.9c-13.8,16.2-39,49.5-39,66.3c0,21.7,17.5,39.4,39,39.4c21.5,0,39-17.7,39-39.4
			C400.4,124.4,375.2,91.1,361.4,74.9z"/>
	</g>
	<g id="raindrop_3_">
		<path class="st2" d="M219.3,1.8c-11,13-31.2,39.7-31.2,53.1c0,17.4,14,31.6,31.2,31.6c17.2,0,31.2-14.2,31.2-31.6
			C250.5,41.4,230.3,14.7,219.3,1.8z"/>
	</g>
	<g id="raindrop_1_">
		<path class="st3" d="M254.1,346.4c32,0,58-26.4,58-58.6"/>
	</g>
</g>
<g>
	<path class="st4" d="M506,9.9h33.8c3.7,0,6.7,3,6.7,6.7v3.3c0,3.7-3,6.7-6.7,6.7h-80.6c-3.7,0-6.7-3-6.7-6.7v-3.3
		c0-3.7,3-6.7,6.7-6.7h32.9"/>
	<polygon class="st4" points="533.8,90.1 464.3,90.1 461,26.6 537,26.6 	"/>
	<circle class="st4" cx="499" cy="9.9" r="6.9"/>
	<line class="st4" x1="502.8" y1="15.7" x2="548.8" y2="66.6"/>
</g>
</svg>
