<?xml version="1.0" encoding="utf-8"?>
<!-- Generator: Adobe Illustrator 19.2.1, SVG Export Plug-In . SVG Version: 6.00 Build 0)  -->
<svg version="1.1" id="Layer_5" xmlns="http://www.w3.org/2000/svg" xmlns:xlink="http://www.w3.org/1999/xlink" x="0px" y="0px"
	 viewBox="0 0 524.9 442.7" style="enable-background:new 0 0 524.9 442.7;" xml:space="preserve">
<style type="text/css">
	.st0{fill:#28160E;}
	.st1{fill:#613A18;}
	.st2{fill:#412412;}
	.st3{fill:#D8C781;}
	.st4{fill:none;stroke:#F4D760;stroke-width:6;stroke-linecap:round;stroke-linejoin:round;stroke-miterlimit:10;}
	.st5{fill:none;stroke:#AA9A56;stroke-width:6;stroke-linecap:round;stroke-linejoin:round;stroke-miterlimit:10;}
	.st6{fill:none;stroke:#B99B30;stroke-width:6;stroke-linecap:round;stroke-linejoin:round;stroke-miterlimit:10;}
	.st7{fill:#606340;}
	.st8{fill:#A5A779;}
	.st9{opacity:0.69;fill:#19100D;}
</style>
<path class="st0" d="M500.6,147.2c-4.3-8.6-7.9-17.6-13-25.8c-5.6-9.1-11.3-17.7-15.7-27.5c-6.2-13.8-13.2-27.1-21-40.1
	c-3.1-5.1-7.7-9.2-9.8-14.9c-5.3,0.4-9-6.2-13.6-3.1c-2.6,1.8-1.8,7.3-5,8.9c-3.7,1.8-3.2-0.7-6.6-0.7c-5.2,0.1-9.9,7.1-15.2,8.4
	c-4.4,1.1-7.2-1.2-10,3c-1.4,2.2-1.1,5.3-1.1,7.7c-3.6,1.9-6.2,5.3-10.1,7.2c-2.9,1.4-4.7,1.9-7.5,3.7c-4,2.6-6.7,3.6-8.7,7.4
	c-1,1.8-0.9,4.6-2,6c-2.4,2.9-9.5,3.3-11.7,6c-1.8,2.3-0.6,4.6-1.5,6.9c-1.1,2.6-4.8,5.2-6.5,7.5c-2.8,3.8-5,8.6-8.5,11.9
	c-1.8,1.7-3.8,2-6.8,3.1c-3,1.1-3.3,2.3-6.1,3.8c-1.9,1-4.1,0-5.9,0.9c-3.3,1.6-2.8,3.1-3.6,6.4c-1,4.4-0.9,4-3.6,7.4
	c-1.6,2.1-1.6,2.3-4.4,2.6c-0.3,5.9,12,9.7,16.4,11.9c6.5,3.1,12,9.4,18.8,11.6c1.8,0.6,22.6,0.4,22.6,1.5c0,10.2,31.4,2,36.1,2.7
	c-0.2,0.7-0.3,1.4-0.3,2.1c3.6,0.1,7.5-0.8,11.2-1c0,1.3,1.1,3.2,1.1,4.5c8.5,0.4,17.8-1,26-2.4c2.7-0.5,7.4-3.3,10.2-2.1
	c1.8,0.8,1.6,3.3,3.2,4c3.1,1.5,7.7-1.3,10.7,0c1.8,0.8,1.8,3.2,3.1,3.8c3.1,1.4,5.3-1.5,9-1.4c4,0.1,2.8,1.6,6,2.1
	c7.6,1.3,12.7-0.9,20,2.3c7.2,3.1,20.9,6.8,28,2.8C515.5,173.7,507.7,161.2,500.6,147.2z M364.3,165.9c-8.5-6.3-17-12.6-25.6-18.9
	c-0.7-0.5,1.9-1.7,2.7-1.1c8.5,6.3,17,12.6,25.6,18.9C367.7,165.4,365.1,166.5,364.3,165.9z M376.2,158.6
	c-5.6-4.4-11.1-8.7-16.7-13.1c-3.1-2.4-8.8-5.5-10.1-9.3c3.6-1,6,2.8,8.6,4.8c6.9,5.6,13.9,11,20.9,16.4
	C379.7,158.1,377.1,159.2,376.2,158.6z M408,166.3c-6.9-7.3-13.8-14.7-20.7-22.1c-6.1-6.6-12.2-10.6-14.7-19.4
	c12.5,13.7,25.4,27.1,38.2,40.6C411.1,165.7,408.4,166.8,408,166.3z M417.1,158.8c-2.2-5-3.4-10.8-6.1-15.6c-2-3.5-1.7-6-3.6-9.4
	c-2.4-4.2-6.1-10.4-5.7-15c-0.3,4,7,11.2,8.6,15.4c3.2,7.9,6.3,16,9.7,23.8C420.4,159,417.6,159.9,417.1,158.8z M426.8,130.6
	c-5-8.5-9.7-17.1-13.9-26.1c-0.7-1.4,7.7,8.7,8.3,10c4.2,8.9,3.2,6.3,8.3,14.8C430.2,130.7,427.5,131.8,426.8,130.6z M435.3,108.5
	c-6-8.7-3-2.4-7.7-11.9c-0.4-0.7-6-17-5.5-16.1c4.7,9.3,10,18.3,15.9,26.8C438.6,108.2,435.8,109.2,435.3,108.5z M466.7,164.8
	c-6.9-13.5-14.2-26.7-21.9-39.8c-0.7-1.2,9.8,11,10.4,12c7.7,13.2,7.4,13.4,14.4,27C470.1,165,467.3,165.9,466.7,164.8z
	 M471.6,135.6c-10-17.6-21-34.6-33-51c-0.6-0.9,10,9.3,10.6,10c12,16.5,7,8.1,17.1,25.8C466.6,121.1,472.1,136.5,471.6,135.6z"/>
<path class="st1" d="M306.1,149.4c2.6-2.1,6.9-4.1,9.6-6.9c-0.2-0.3-0.4-0.7-0.5-1.1c-0.6-2.1-1-4.2-1.1-6.5c-0.1-1.6,1.2-3,2.6-3.5
	c2.8-0.9,5.7-1,8.6-1.6c3.5-0.8,5.3-2.7,7.6-5.2c2.5-2.6,5.1-5,7.7-7.6c3.5-3.5,7.7-9.1,12.5-11.6c0.3-2.6,1.6-4.6,3.9-6.4
	c3.7-2.9,6.2-5.4,8.4-9.6c4.4-8.1,11-11.8,18.5-16.7c9.3-6,16.7-14.6,26.4-19.9c4.3-2.3,8.2-1.5,12.7-2.3c4.7-0.7,7.2-5.6,10.5-8.7
	c1.8-1.7,4.2-1.2,5.6,0.7c4.1,5.6,5.7,11.9,7.7,18.5c2.1,7.1,6.1,12.7,9.8,19c7.6,12.6,15.3,25.2,22.4,38.1
	c7,12.8,13,26.2,20.7,38.6c6.5,10.5,12.9,21.8,21.5,30.7c1.2-0.3,2.2-0.7,3.2-1.2c-9.1-12.6-16.9-25.2-23.9-39.1
	c-4.3-8.6-7.9-17.6-13-25.8c-5.6-9.1-11.3-17.7-15.7-27.5c-6.2-13.8-13.2-27.1-21-40.1c-3.1-5.1-7.7-9.2-9.8-14.9
	c-5.3,0.4-9-6.2-13.6-3.1c-2.6,1.8-1.8,7.3-5,8.9c-3.7,1.8-3.2-0.7-6.6-0.7c-5.2,0.1-9.9,7.1-15.2,8.4c-4.4,1.1-7.2-1.2-10,3
	c-1.4,2.2-1.1,5.3-1.1,7.7c-3.6,1.9-6.2,5.3-10.1,7.2c-2.9,1.4-4.7,1.9-7.5,3.7c-4,2.6-6.7,3.6-8.7,7.4c-1,1.8-0.9,4.6-2,6
	c-2.4,2.9-9.5,3.3-11.7,6c-1.8,2.3-0.6,4.6-1.5,6.9c-1.1,2.6-4.8,5.2-6.5,7.5c-2.8,3.8-5,8.6-8.5,11.9c-1.8,1.7-3.8,2-6.8,3.1
	c-3,1.1-3.3,2.3-6.1,3.8c-1.9,1-4.1,0-5.9,0.9c-3.3,1.6-2.8,3.1-3.6,6.4c-1,4.4-0.9,4-3.6,7.4c-1.6,2.1-1.6,2.3-4.4,2.6
	C302.6,146,304,147.8,306.1,149.4C306.1,149.4,306.1,149.4,306.1,149.4z"/>
<g>
	<path class="st1" d="M173.6,5c-0.5-1.6-0.9-3.3-1.1-5c-1.5,1.6-2.9,3.2-3.7,4.2c-2.3,2.8-4.4,5.6-5.7,9c-0.5,1.4-0.7,3.5-1.3,4.7
		c-1.4,2.5-4.2,2.3-5.9,4.6c1.5,1.3,1.1,3.4,1.1,5.3c0,7.7-0.7,15.7-1.4,23.5c-0.8,9.4-2.4,18.4-2.7,27.9c-1.2-0.8-3.4-4.2-4.6-5.7
		c-0.8,1.8-1.6,3.6-2.4,5.4c0.6,2.6,1.7,5.1,2.1,5.8c3.2,4.2,3,4.3,2.8,10.4c-0.3,7-0.4,14-0.6,20.9c-0.3,10.7-1.4,21.4-1.9,32.2
		c-0.6,12.7-4.5,24.9-6.1,37.5c-0.5,3.8-2.4,8.5,1.8,10.7c2.3,1.2,8.5,1.5,10.2-0.4c2.1-2.5,0.8-9.6,1.1-12.7
		c1-8.7,0.4-17.8,0.8-26.5c0.4-8.9,1.5-17.8,1.5-26.7c0.1-13.1-0.8-26.4,0-39.5c0.2-3.6,2.2-6.3,2.7-9.7c0.9-6,0.4-13,0.6-19.1
		c0.2-6,0.7-11.8,1.1-17.8c0.3-4.6-1.4-12.4,0.3-16.6c0.8-1.9,2.1-1.4,3.3-2.8c0.5-0.6,0.9-3.2,1.2-4.2c1-2.5,2-4.6,3.2-6.7
		c-0.8-1.3-0.9-2.9,0.4-4.3C171.6,7.9,172.6,6.5,173.6,5z"/>
	<path class="st2" d="M148.6,80.2c-0.5-1.2-1.1-2.3-1.8-3.4c-0.3,0.7-0.6,1.4-0.9,2c0.6,2.6,1.7,5.1,2.1,5.8
		c0.6,0.9,1.1,1.5,1.5,2.1c0.2-1.7,0.5-3.3,0.7-5C149.6,81.5,148.9,81,148.6,80.2z"/>
	<path class="st2" d="M155.3,183.2c1-8.2,0.5-16.8,0.8-25.1c-0.1,0.3-0.3,0.6-0.6,0.8c-0.5,0.6-0.9,1.1-1.3,1.7
		c-0.5,0.7-1,1.5-1.4,2.2c-0.1,0.2-0.3,0.4-0.4,0.5c0.1,0.3,0.2,0.6,0.2,1c0.3,2.6,0.3,5.1,0,7.7c-0.1,0.5-0.2,1-0.4,1.4
		c-0.3,3-0.7,5.9-1.4,8.8c-0.2,0.8-0.5,1.4-1,1.9c-0.8,4.3-4.4,5.4-8.3,6c-0.3,2.4,0,4.7,2.6,6.1c2.3,1.2,8.5,1.5,10.2-0.4
		C156.3,193.4,155,186.3,155.3,183.2z"/>
	<path class="st2" d="M166.6,19.6c-0.3-0.5-0.7-0.7-1.1-0.7c-1.5,2.4-3,5-4.9,7.1c-0.3,0.3-0.6,0.5-0.9,0.7
		c-0.2,2.9,0.2,6.3,0.2,8.9v23c0,11.2-3.1,22.3-3.8,33.4c0.5,0.4,1,0.8,1.4,1.3c0-0.9,0.1-1.9,0.1-2.8c0.2-3.6,2.2-6.3,2.7-9.7
		c0.9-6,0.4-13,0.6-19.1c0.2-6,0.7-11.8,1.1-17.8c0.3-4.6-1.4-12.4,0.3-16.6c0.8-1.9,2.1-1.4,3.3-2.8c0.5-0.6,0.9-3.2,1.2-4.2
		c0-0.1,0-0.1,0.1-0.2C166.8,19.9,166.7,19.7,166.6,19.6z"/>
</g>
<g>
	<g>
		<path class="st3" d="M407.3,383.1c0.8-1.8,2-3,2.6-2.8c0.5,0.3,2.4-0.6,4.2-1.7c19.1-11.7,45.5-10.2,64.6-21.9
			c1.8-1.1,4.3-3.6,5.5-5.5c0.7-1.1,1.4-2.2,2-3.4c1.2-2.1,2.9-5.4,3.9-7.3c1-2,0.6-3.5-0.9-3.2c-1.5,0.2-2-1.4-1.3-3.7
			c0.7-2.3,0.1-3.5-1.3-2.7c-1.4,0.7-2.3-0.6-1.9-2.9c0.4-2.4-0.4-3.3-1.7-2.1c-1.4,1.2-2.4,0.2-2.3-2.1c0.1-2.3-0.8-2.9-2-1.3
			c-1.2,1.5-2.5,1-2.7-1.2c-0.2-2.1-1.3-2.3-2.3-0.6c-1.1,1.7-2.5,1.6-3.1-0.3c-0.6-1.8-1.7-1.8-2.6,0.1c-0.8,1.8-2,3-2.6,2.8
			c-0.5-0.3-2.4,0.6-4.2,1.7c-19.1,11.7-45.5,10.2-64.6,21.9c-1.8,1.1-4.3,3.6-5.5,5.5c-0.7,1.1-1.4,2.2-2,3.4
			c-1.2,2.1-2.9,5.4-3.9,7.3c-1,2-0.6,3.5,0.9,3.2c1.5-0.2,2,1.4,1.3,3.7c-0.7,2.3-0.1,3.5,1.3,2.7c1.4-0.7,2.3,0.6,1.9,2.9
			c-0.4,2.4,0.4,3.3,1.7,2.1c1.4-1.2,2.4-0.2,2.3,2.1c-0.1,2.3,0.8,2.9,2,1.3c1.2-1.5,2.5-1,2.7,1.2c0.2,2.1,1.3,2.3,2.3,0.6
			c1.1-1.7,2.5-1.6,3.1,0.3C405.3,385,406.4,384.9,407.3,383.1z"/>
		<g>
			<g>
				<line class="st4" x1="466.3" y1="331.6" x2="439.7" y2="340.8"/>
				<line class="st4" x1="433.5" y1="342.1" x2="417.3" y2="347"/>
				<line class="st4" x1="411.2" y1="348.6" x2="408.5" y2="349.4"/>
			</g>
			<path class="st5" d="M423.6,355.3c-4.8,1.3-9.5,2.6-14.3,3.9"/>
			<path class="st5" d="M443.2,349.8c0,0-13.7,3.8-13.7,3.9"/>
			<path class="st5" d="M463.4,344.2c-3.1,0.9-6.3,1.7-9.4,2.6"/>
			<polyline class="st6" points="443.6,359.5 432.5,362.8 414.4,368.3 			"/>
			<line class="st6" x1="456.8" y1="355.5" x2="451.6" y2="357.1"/>
			<line class="st6" x1="472.8" y1="350.7" x2="463.6" y2="353.5"/>
		</g>
		<g>
			<g>
				<path class="st7" d="M465.4,349.9l0.4,0.2c6.4,4.2,9.5,12.1,7.6,19.5c-1.8,7.4-8.2,13-15.8,13.8l-0.4,0l-0.4-0.2
					c-6.4-4.2-9.5-12.1-7.6-19.5c1.8-7.4,8.2-13,15.8-13.8L465.4,349.9z"/>
			</g>
			<path class="st8" d="M462.2,367.9l2.1-8.4l8.2,12.3l0.2-0.1c0.2-0.6,0.5-1.3,0.6-2c0.1-0.6,0.2-1.1,0.3-1.7l-8.4-12.5l1.3-5.4
				l2-8.1l-3-0.7l-1.8,7.3l0,0l-1.5,6.1l-12.5,6.8c-0.3,0.7-0.5,1.4-0.7,2.2c-0.2,0.6-0.3,1.3-0.3,1.9l12.5-6.9l-2.1,8.4l0,0
				l-10,5.5c0.3,1,0.6,2,1,2.9l8-4.4l-2.7,11.2c0.4,0.3,0.8,0.6,1.2,0.9l0.4,0.2l0.4,0c0.3,0,0.6-0.1,0.9-0.1l2.8-11.4l5.3,8
				c0.8-0.6,1.6-1.3,2.3-2.1L462.2,367.9L462.2,367.9z"/>
		</g>
		<g>
			<g>
				<path class="st7" d="M414.8,337.7l0.1-0.4c1.6-7.5,7.7-13.3,15.3-14.3c7.6-1.1,15.1,2.8,18.7,9.6l0.2,0.4l-0.1,0.4
					c-1.6,7.5-7.7,13.3-15.3,14.3c-7.6,1.1-15.1-2.8-18.7-9.6L414.8,337.7z"/>
			</g>
			<path class="st8" d="M432.7,333.9l-8.6,1.2l8.4-12.2l-0.2-0.1c-0.7,0-1.4,0.1-2.1,0.2c-0.6,0.1-1.1,0.2-1.7,0.3l-8.5,12.4
				l-5.5,0.8l-8.2,1.2l0.4,3.1l7.5-1l0,0l6.2-0.9l11,9.1c0.8,0,1.5-0.1,2.3-0.2c0.6-0.1,1.3-0.2,1.9-0.4l-11-9.1l8.6-1.2l0,0
				l8.8,7.3c0.8-0.6,1.6-1.3,2.4-2.1l-7-5.8l11.4-1.6c0.1-0.5,0.3-1,0.4-1.5l0.1-0.4l-0.2-0.4c-0.1-0.3-0.3-0.5-0.5-0.8l-11.6,1.6
				l5.4-7.9c-0.9-0.5-1.8-1-2.8-1.4L432.7,333.9L432.7,333.9z"/>
		</g>
	</g>
	<g>
		<path class="st1" d="M506.5,294.3c0.6-1.6,1.4-3.2,2.3-4.6c-2.2,0.3-4.3,0.7-5.5,0.9c-3.6,0.7-6.9,1.6-10.1,3.4
			c-1.3,0.7-2.8,2.3-4,2.8c-2.7,1.1-4.7-0.8-7.5-0.1c0.4,2-1.3,3.3-2.5,4.8c-4.9,6-10.5,11.7-15.9,17.3c-6.5,6.8-13.5,12.8-19.7,20
			c-0.4-1.4,0-5.4,0-7.3c-1.8,0.9-3.5,1.7-5.3,2.7c-1.1,2.4-1.9,5-2,5.8c-0.2,5.2-0.4,5.3-4.4,9.8c-4.6,5.2-9.1,10.6-13.7,15.9
			c-7,8.1-14.6,15.7-21.8,23.8c-8.5,9.5-19.2,16.5-28.3,25.2c-2.8,2.6-7.3,5.1-5.4,9.4c1,2.4,5.7,6.6,8.2,6.1c3.2-0.6,6.7-7,8.9-9.2
			c6.3-6.1,11.5-13.5,17.4-20.1c5.9-6.7,12.4-12.9,18-19.8c8.3-10.1,16-21,24.9-30.7c2.4-2.6,5.7-3.6,8.2-5.9
			c4.5-4.1,8.5-9.9,12.5-14.5c3.9-4.5,8-8.8,12-13.1c3.2-3.4,6.7-10.5,10.7-12.7c1.8-1,2.5,0.3,4.3-0.1c0.8-0.2,2.7-2,3.6-2.4
			c2.4-1.3,4.5-2.3,6.7-3.1c0.2-1.5,1.2-2.8,3-3.1C503.1,295.3,504.8,294.8,506.5,294.3z"/>
		<path class="st2" d="M439.6,336.9c0.3-1.3,0.6-2.5,0.8-3.8c-0.7,0.3-1.3,0.7-2,1c-1.1,2.4-1.9,5-2,5.8c0,1.1-0.1,1.9-0.2,2.6
			c1.2-1.2,2.5-2.3,3.7-3.4C439.6,338.5,439.4,337.7,439.6,336.9z"/>
		<path class="st2" d="M379.9,421.1c5.9-5.8,11-12.7,16.4-19c-0.3,0.1-0.6,0.2-1,0.3c-0.7,0.1-1.4,0.3-2.1,0.5
			c-0.8,0.3-1.7,0.5-2.5,0.8c-0.2,0.1-0.4,0.1-0.6,0.1c-0.1,0.3-0.3,0.6-0.5,0.9c-1.4,2.2-3,4.1-4.8,5.9c-0.4,0.4-0.8,0.7-1.2,0.8
			c-2.1,2.1-4.3,4.1-6.6,6c-0.7,0.5-1.3,0.8-2,0.8c-3.3,2.9-6.8,1.4-10.3-0.5c-1.8,1.7-3,3.7-1.8,6.3c1,2.4,5.7,6.6,8.2,6.1
			C374.3,429.6,377.7,423.2,379.9,421.1z"/>
		<path class="st2" d="M491.9,301.2c0.1-0.6-0.1-1-0.4-1.3c-2.7,0.9-5.5,2-8.3,2.4c-0.4,0.1-0.8,0-1.1,0c-2,2.1-3.8,5-5.4,7.1
			l-14.5,17.8c-7.1,8.7-16.4,15.4-24,23.5c0.1,0.6,0.2,1.2,0.3,1.8c0.6-0.7,1.2-1.4,1.8-2.1c2.4-2.6,5.7-3.6,8.2-5.9
			c4.5-4.1,8.5-9.9,12.5-14.5c3.9-4.5,8-8.8,12-13.1c3.2-3.4,6.7-10.5,10.7-12.7c1.8-1,2.5,0.3,4.3-0.1c0.8-0.2,2.7-2,3.6-2.4
			c0.1,0,0.1-0.1,0.2-0.1C491.8,301.6,491.8,301.4,491.9,301.2z"/>
	</g>
	<g>
		<path class="st2" d="M472.7,353.6c-1.2,0.9-9.3-1.7-11-3.6c-0.5-0.6-1.7-8.1-3.1-18.5c-1.6,0.2-3.3,0.1-4.9-0.3
			c0.7,12.5,1.1,21.7,1.1,21.7l18.5,8.1c0,0,33.9,39.8,47,53.9c0,0,0,0,0,0c3.2-3,4.4-7.4,4.4-7.4s-43.4-40.2-43.4-42.6
			c0-2.4-2.1-15.7-3.2-16.4C477.1,348,473.9,352.7,472.7,353.6z"/>
		<path class="st1" d="M453.8,331.3c-1.1-0.3-2.3-0.6-3.3-1.1c1.1,10.9,1.6,18.8,1.3,18.7c-1.2-0.2-18.3-8-20.7-10.4
			c-1.7-1.7-7.4-21.3-11.1-33.4c-1.8,1.6-4.2,2.7-6.7,3.1c3.6,9.4,11.2,28.5,9.9,28.4c-1.7-0.2-15.9-5.3-18-6
			c-2.2-0.8-32.7-13-34.6-14c-1.9-0.9-19.1-25.3-20.3-24.8c-1.2,0.5,15.1,26.5,15.8,28.2c0.6,1.7,35,16.8,34.3,16.9
			c-0.6,0.1-18.8,11.2-19.3,11.4c-0.5,0.2-23.6,0.5-23.6,1.1c-0.1,0.6,18.4,3.1,23.9,3.1c5.5,0,23-11.6,26.6-11.8
			c3.5-0.1,18.5,4.1,23.6,7.7c5.1,3.5,30.3,16.1,32.2,17.8c1.9,1.7,8.1,1.1,10.6,4.6c2.4,3.6,38.2,47.6,38.2,47.6s4.8-0.4,8.1-3.4
			c-13.2-14.1-47-53.9-47-53.9l-18.5-8.1C454.9,353,454.5,343.8,453.8,331.3z"/>
	</g>
</g>
<g>
	<path class="st1" d="M452.2,49.3c0.8-1.5,1.7-3,2.8-4.3c-2.2,0.1-4.3,0.3-5.6,0.4c-3.6,0.3-7,0.9-10.4,2.4c-1.3,0.6-3,2-4.3,2.4
		c-2.8,0.8-4.6-1.3-7.4-0.9c0.2,2-1.6,3.2-3,4.5c-5.5,5.5-11.7,10.6-17.5,15.6c-7.2,6.1-14.7,11.3-21.6,17.9
		c-0.2-1.4,0.6-5.4,0.7-7.3c-1.8,0.7-3.7,1.4-5.5,2.1c-1.4,2.3-2.4,4.8-2.6,5.6c-0.7,5.2-0.9,5.2-5.4,9.3
		c-5.2,4.7-10.1,9.6-15.2,14.4c-7.8,7.4-16.1,14.2-24.1,21.4c-9.4,8.5-20.8,14.4-30.8,22.2c-3,2.4-7.8,4.3-6.3,8.8
		c0.8,2.5,5,7.1,7.5,6.9c3.3-0.3,7.3-6.3,9.8-8.2c6.9-5.4,12.8-12.3,19.3-18.2c6.6-6,13.6-11.6,19.9-17.8c9.3-9.2,18.1-19.3,27.9-28
		c2.7-2.4,6-3,8.8-5c4.9-3.6,9.4-8.9,13.9-13.1c4.4-4.1,8.8-7.9,13.3-11.8c3.5-3.1,7.8-9.7,12-11.5c1.9-0.8,2.5,0.6,4.3,0.3
		c0.8-0.1,2.9-1.7,3.8-2.1c2.5-1,4.7-1.8,7-2.4c0.4-1.4,1.5-2.7,3.3-2.8C448.7,50,450.5,49.7,452.2,49.3z"/>
	<path class="st2" d="M381.3,84.9c0.5-1.2,0.8-2.4,1.2-3.7c-0.7,0.3-1.4,0.5-2.1,0.8c-1.4,2.3-2.4,4.8-2.6,5.6
		c-0.1,1.1-0.3,1.9-0.4,2.6c1.3-1,2.7-2,4.1-3C381.1,86.5,381,85.7,381.3,84.9z"/>
	<path class="st2" d="M313.4,162.5c6.5-5.1,12.2-11.5,18.3-17.2c-0.3,0.1-0.6,0.2-1,0.2c-0.8,0-1.5,0.1-2.2,0.3
		c-0.9,0.2-1.7,0.4-2.6,0.6c-0.2,0.1-0.4,0.1-0.7,0.1c-0.1,0.3-0.3,0.6-0.5,0.9c-1.6,2-3.4,3.8-5.4,5.4c-0.4,0.3-0.9,0.6-1.3,0.7
		c-2.3,1.9-4.7,3.7-7.2,5.3c-0.7,0.5-1.4,0.6-2,0.6c-3.6,2.5-6.9,0.7-10.1-1.6c-1.9,1.5-3.4,3.3-2.5,6.1c0.8,2.5,5,7.1,7.5,6.9
		C306.9,170.4,310.9,164.5,313.4,162.5z"/>
	<path class="st2" d="M436.9,54.7c0.1-0.6,0-1-0.3-1.3c-2.8,0.6-5.6,1.4-8.5,1.6c-0.4,0-0.8,0-1.1-0.1c-2.2,1.9-4.3,4.6-6.1,6.5
		l-16.3,16.3c-7.9,7.9-17.9,13.6-26.3,21c0.1,0.6,0.1,1.3,0.1,1.9c0.7-0.6,1.4-1.3,2.1-1.9c2.7-2.4,6-3,8.8-5
		c4.9-3.6,9.4-8.9,13.9-13.1c4.4-4.1,8.8-7.9,13.3-11.8c3.5-3.1,7.8-9.7,12-11.5c1.9-0.8,2.5,0.6,4.3,0.3c0.8-0.1,2.9-1.7,3.8-2.1
		c0.1,0,0.1,0,0.2-0.1C436.9,55,436.9,54.9,436.9,54.7z"/>
</g>
<g>
	<path class="st1" d="M447.6,183.2c-1.5-6.5,1.4-13,3.7-19c0.1-0.2,0.2-0.5,0.3-0.7c1.6-6.4,3.8-12.7,5.6-19
		c0.2-0.6,0.7-1.9,1.4-3.7c1.8-6.9,1.5-13.5,1.4-20.5c-0.1,0-0.3-0.1-0.4-0.1c-0.8-11.3-0.4-22.8-1.6-34c-0.6-5.9-2.8-11.3-2.8-17.3
		c-0.1-6.4-0.3-12.9-0.3-19.3c0-2.5,0-5.2,1-7.5c-0.1-0.5-0.1-1.1,0.1-1.7c1.1-3.6,2.7-7.1,4.7-10.2c-1.8-0.1-3.7-0.1-4.8,1.1
		c-2.3,2.7-2.4,8-4.5,11.1c-2.2-2.1-7.5-9.8-7-3.3c0.2,3.2,3,6,3,9.2c0.1,5,0.2,10.1,0.4,15.1c1.4,0.4,2.5,1.5,2.6,3.3
		c0.1,13,1.2,26,1.9,38.9c0.3,6.1,0.9,12.3,0.1,18.3c-0.6,4.6-2.1,8.9-3.8,13.2c-1.6,9.9-5.3,19.1-8.4,28.9c-1.6,5-4.6,11-4.4,16.3
		c0.1,3.3,2.1,5.6,2.8,8.6c1.5,6.7,1.9,13.7,4.8,20.1c1.3,2.8,2.9,5.6,4.5,8.3c0.6,0.4,1,1,1.3,1.9c0.1,0.2,0.1,0.4,0.2,0.5
		c0.8,1.3,1.5,2.6,2.2,3.9c0.7,0.3,1.6,0.4,3,0.5c0.8,0.1,1.8,0.2,2.8,0.3c1.6-2.5,3.2-5,4.9-7c-2.6-8.8-6.7-16.5-9.6-24.9
		C450.6,191.2,448.5,187.4,447.6,183.2z"/>
	<path class="st2" d="M447.6,183.2c-1.5-6.5,1.4-13,3.7-19c0.1-0.2,0.2-0.5,0.3-0.7c1.6-6.4,3.8-12.7,5.6-19
		c0.2-0.6,0.7-1.9,1.4-3.7c1.8-6.9,1.5-13.5,1.4-20.5c0,0,0,0,0,0c-0.1,0.1-0.2,0.2-0.3,0.3c-3,11.5-7.4,22.6-11.2,33.9
		c-1.9,5.7-4.4,11.7-4.4,17.8c0,5.3,1.9,9.9,4.8,14.2C448.2,185.4,447.8,184.3,447.6,183.2z"/>
	<path class="st2" d="M437.5,178.5c-0.2-1.3-0.4-2.6-0.4-3.9c-0.5,1.5-0.9,3-1.2,4.5C436.4,178.7,436.9,178.5,437.5,178.5z"/>
	<path class="st2" d="M459.1,30.4c-0.2,0.6-0.7,1.2-1.3,1.6c-0.4,0.3-0.7,0.6-1.1,0.9c-1.6,4-3.8,7.6-6.3,11.2
		c0.1,0.3,0.1,0.5,0.1,0.8c0.2,2,0.3,4,0.1,6.1c0.7,6.1,2.7,11.9,4.2,17.9c-0.1-6.3-0.3-12.8-0.3-19.1c0-2.5,0-5.2,1-7.5
		c-0.1-0.5-0.1-1.1,0.1-1.7c1.1-3.6,2.7-7.1,4.7-10.2C460.1,30.4,459.6,30.4,459.1,30.4z"/>
	<path class="st2" d="M456,213.7c-1.2,0.3-2.4,0.1-3.3-0.9c-2.5-3-4.9-6-7.3-9.1c-1.4,0.6-2.9,1.1-4.4,1.3c0.5,2.1,1.2,4.3,2.2,6.3
		c1.3,2.8,2.9,5.6,4.5,8.3c0.6,0.4,1,1,1.3,1.9c0.1,0.2,0.1,0.4,0.2,0.5c0.8,1.3,1.5,2.6,2.2,3.9c0.7,0.3,1.6,0.4,3,0.5
		c0.8,0.1,1.8,0.2,2.8,0.3c1.6-2.5,3.2-5,4.9-7c-0.4-1.4-0.9-2.7-1.3-4C459.2,215.6,457.5,214.9,456,213.7z"/>
	<path class="st2" d="M458.5,96.6c-0.2,1.1-0.4,2.3-0.6,3.4c0.3,0.3,0.6,0.6,0.8,1C458.6,99.5,458.5,98.1,458.5,96.6z"/>
</g>
<g>
	<path class="st3" d="M100.6,206.8c1.4-1.4,2.9-2.1,3.4-1.7c0.4,0.4,2.4,0.3,4.5-0.1c22-4.4,46.2,6.1,68.2,1.8
		c2.1-0.4,5.3-1.8,7.1-3.3c1-0.8,2.1-1.6,3.1-2.5c1.8-1.5,4.6-4,6.2-5.6c1.6-1.5,1.7-3,0.3-3.3c-1.4-0.3-1.4-2.1,0-3.9
		c1.4-1.9,1.3-3.3-0.3-3c-1.6,0.2-1.9-1.3-0.7-3.4c1.2-2.1,0.8-3.2-0.9-2.5c-1.7,0.6-2.3-0.6-1.5-2.7c0.9-2.2,0.2-3-1.5-1.9
		c-1.7,1-2.7,0-2.2-2c0.5-2.1-0.4-2.6-2-1.3c-1.6,1.3-2.9,0.6-2.8-1.3c0.1-1.9-1-2.2-2.4-0.8c-1.4,1.4-2.9,2.1-3.4,1.7
		c-0.4-0.4-2.4-0.3-4.5,0.1c-22,4.4-46.2-6.1-68.2-1.8c-2.1,0.4-5.3,1.8-7.1,3.3c-1,0.8-2.1,1.6-3.1,2.5c-1.8,1.5-4.6,4-6.2,5.6
		c-1.6,1.5-1.7,3-0.3,3.3c1.4,0.3,1.4,2.1,0,3.9c-1.4,1.9-1.3,3.3,0.3,3c1.6-0.2,1.9,1.3,0.7,3.4c-1.2,2.1-0.8,3.2,0.9,2.5
		c1.7-0.6,2.3,0.6,1.5,2.7c-0.9,2.2-0.2,3,1.5,1.9c1.7-1,2.7,0,2.2,2c-0.5,2.1,0.4,2.6,2,1.3c1.6-1.3,2.9-0.6,2.8,1.3
		C98.1,207.9,99.2,208.2,100.6,206.8z"/>
	<g>
		<g>
			<line class="st4" x1="173.9" y1="179" x2="145.7" y2="178.4"/>
			<line class="st4" x1="139.4" y1="177.4" x2="122.5" y2="176.4"/>
			<line class="st4" x1="116.2" y1="175.8" x2="113.4" y2="175.7"/>
		</g>
		<path class="st5" d="M125.5,186.4c-4.9-0.4-9.8-0.9-14.8-1.3"/>
		<path class="st5" d="M145.9,188c0,0-14.2-1.1-14.2-1.1"/>
		<path class="st5" d="M166.8,189.7c-3.2-0.3-6.5-0.5-9.7-0.8"/>
		<polyline class="st6" points="142.9,197.3 131.3,196.5 112.5,195.4 		"/>
		<line class="st6" x1="156.6" y1="198.1" x2="151.2" y2="197.8"/>
		<line class="st6" x1="173.3" y1="199.1" x2="163.7" y2="198.5"/>
	</g>
	<g>
		<g>
			<path class="st7" d="M166.6,195.8l0.3,0.4c4.5,6.2,4.7,14.6,0.4,21c-4.3,6.3-12.1,9.4-19.6,7.5l-0.4-0.1l-0.3-0.4
				c-4.5-6.2-4.7-14.6-0.4-21c4.3-6.3,12.1-9.4,19.6-7.5L166.6,195.8z"/>
		</g>
		<path class="st8" d="M157.5,211.6l4.8-7.2l3.5,14.4l0.2-0.1c0.4-0.5,0.9-1.1,1.3-1.6c0.3-0.5,0.6-1,0.9-1.5l-3.6-14.6l3.1-4.6
			l4.6-6.9l-2.6-1.7l-4.2,6.3l0,0l-3.5,5.2l-14.1,2.1c-0.5,0.6-1,1.2-1.4,1.8c-0.4,0.5-0.7,1.1-1,1.6l14.1-2.1l-4.8,7.2l0,0
			l-11.3,1.7c-0.1,1-0.1,2.1,0,3.1l9-1.3l-6.4,9.5c0.3,0.4,0.5,0.8,0.8,1.3l0.3,0.4l0.4,0.1c0.3,0.1,0.6,0.1,0.9,0.2l6.6-9.7
			l2.3,9.3c1-0.3,2-0.7,2.9-1.2L157.5,211.6L157.5,211.6z"/>
	</g>
	<g>
		<g>
			<path class="st7" d="M123.4,166.8l0.2-0.4c4.1-6.5,11.8-9.8,19.3-8.1c7.5,1.6,13.2,7.8,14.2,15.4l0.1,0.4l-0.2,0.4
				c-4.1,6.5-11.8,9.8-19.3,8.1c-7.5-1.6-13.2-7.8-14.2-15.4L123.4,166.8z"/>
		</g>
		<path class="st8" d="M141.5,169.5l-8.5-1.8l12.1-8.6l-0.1-0.2c-0.6-0.2-1.3-0.4-2-0.6c-0.6-0.1-1.1-0.2-1.7-0.3l-12.3,8.7
			l-5.4-1.2l-8.1-1.8l-0.7,3l7.4,1.6l0,0l6.1,1.3l7.1,12.3c0.7,0.3,1.5,0.5,2.2,0.6c0.6,0.1,1.3,0.2,1.9,0.3l-7.2-12.3l8.5,1.8l0,0
			l5.7,9.9c1-0.3,2-0.7,2.9-1.1l-4.6-7.9l11.2,2.4c0.3-0.4,0.6-0.8,0.9-1.2l0.2-0.4l-0.1-0.4c0-0.3-0.1-0.6-0.2-0.9l-11.5-2.5
			l7.8-5.5c-0.6-0.8-1.4-1.6-2.1-2.3L141.5,169.5L141.5,169.5z"/>
	</g>
	<g>
		<path class="st2" d="M117,208.4c4.7-1.2,9.4-2.3,13.8-4.2c1-0.4,2-0.5,2.8-0.3c1.5-1.2,3.1-2.3,4.1-2.5c0.1,0,0.3,0,0.5,0.1
			c1.2-1.5,2.5-2.8,3.9-3.8c-2.2-1.2-3.5-2-3.5-2l-12.9,8.8c0,0-19.4,2.9-36.1,5.6c-0.4,1.5-0.5,3.2-0.5,5.2
			c9.8-2.6,21.9-5.6,27.6-6.7C116.8,208.4,116.9,208.4,117,208.4z"/>
		<path class="st1" d="M173.7,172.2c1.2-0.9,16.5-12.1,21.6-15.8c-0.8-0.4-1.4-1-1.8-1.7c-0.9-0.2-1.7-0.4-2.6-0.7
			c-7.5,4.6-19.6,12.8-19.5,12.5c0.1-0.3,0.2-8.7,0.3-13.6c-1.5,1.3-3,2.7-4.5,4c-0.5,5.6-0.6,11.6-1.4,13
			c-1.4,2.4-10.3,10.4-14.7,12.3c-4.4,1.9-22.9,13.3-24.8,13.8c-1.9,0.5-4,4.9-7.4,5c-1.5,0.1-10.9,1.2-20.8,2.3
			c-0.9,0.3-1.7,0.6-2.6,0.9c-3.7,1.4-5.3,3.3-6,5.8c16.7-2.7,36.1-5.6,36.1-5.6l12.9-8.8c0,0,1.3,0.7,3.5,2
			c0.7-0.5,1.4-0.9,2.2-1.2c-1.2-0.7-1.8-1.1-1.7-1.1c0.7-0.7,12.7-8.7,15.2-9.3c0.7-0.2,3.5,0.4,7.2,1.3c2.3-1,4.7-1.9,6.7-3.1
			c-5.4-1.1-9.8-2.1-9.5-2.6C163.2,180.5,172.3,173.3,173.7,172.2z"/>
	</g>
</g>
<g>
	<path class="st3" d="M337.7,195.3c1.4-1.4,2.9-2.1,3.4-1.7c0.4,0.4,2.4,0.3,4.5-0.1c22-4.4,46.2,6.1,68.2,1.8
		c2.1-0.4,5.3-1.8,7.1-3.3c1-0.8,2.1-1.6,3.1-2.5c1.8-1.5,4.6-4,6.2-5.6c1.6-1.5,1.7-3,0.3-3.3c-1.4-0.3-1.4-2.1,0-3.9
		c1.4-1.9,1.3-3.3-0.3-3c-1.6,0.2-1.9-1.3-0.7-3.4c1.2-2.1,0.8-3.2-0.9-2.5c-1.7,0.6-2.3-0.6-1.5-2.7c0.9-2.2,0.2-3-1.5-1.9
		c-1.7,1-2.7,0-2.2-2c0.5-2.1-0.4-2.6-2-1.3c-1.6,1.3-2.9,0.6-2.8-1.3c0.1-1.9-1-2.2-2.4-0.8c-1.4,1.4-2.9,2.1-3.4,1.7
		c-0.4-0.4-2.4-0.3-4.5,0.1c-22,4.4-46.2-6.1-68.2-1.8c-2.1,0.4-5.3,1.8-7.1,3.3c-1,0.8-2.1,1.6-3.1,2.5c-1.8,1.5-4.6,4-6.2,5.6
		c-1.6,1.5-1.7,3-0.3,3.3c1.4,0.3,1.4,2.1,0,3.9c-1.4,1.9-1.3,3.3,0.3,3c1.6-0.2,1.9,1.3,0.7,3.4c-1.2,2.1-0.8,3.2,0.9,2.5
		c1.7-0.6,2.3,0.6,1.5,2.7c-0.9,2.2-0.2,3,1.5,1.9c1.7-1,2.7,0,2.2,2c-0.5,2.1,0.4,2.6,2,1.3c1.6-1.3,2.9-0.6,2.8,1.3
		C335.2,196.5,336.3,196.8,337.7,195.3z"/>
	<g>
		<g>
			<line class="st4" x1="410.9" y1="167.5" x2="382.8" y2="167"/>
			<line class="st4" x1="376.5" y1="165.9" x2="359.6" y2="164.9"/>
			<line class="st4" x1="353.3" y1="164.4" x2="350.5" y2="164.2"/>
		</g>
		<path class="st5" d="M362.6,175c-4.9-0.4-9.8-0.9-14.8-1.3"/>
		<path class="st5" d="M383,176.6c0,0-14.2-1.1-14.2-1.1"/>
		<path class="st5" d="M403.9,178.3c-3.2-0.3-6.5-0.5-9.7-0.8"/>
		<polyline class="st6" points="380,185.8 368.4,185.1 349.6,184 		"/>
		<line class="st6" x1="393.7" y1="186.7" x2="388.3" y2="186.3"/>
		<line class="st6" x1="410.4" y1="187.7" x2="400.8" y2="187.1"/>
	</g>
	<g>
		<g>
			<path class="st7" d="M403.7,184.3l0.3,0.4c4.5,6.2,4.7,14.6,0.4,21c-4.3,6.3-12.1,9.4-19.6,7.5l-0.4-0.1l-0.3-0.4
				c-4.5-6.2-4.7-14.6-0.4-21c4.3-6.3,12.1-9.4,19.6-7.5L403.7,184.3z"/>
		</g>
		<path class="st8" d="M394.5,200.2l4.8-7.2l3.5,14.4l0.2-0.1c0.4-0.5,0.9-1.1,1.3-1.6c0.3-0.5,0.6-1,0.9-1.5l-3.6-14.6l3.1-4.6
			l4.6-6.9l-2.6-1.7l-4.2,6.3l0,0l-3.5,5.2l-14.1,2.1c-0.5,0.6-1,1.2-1.4,1.8c-0.4,0.5-0.7,1.1-1,1.6l14.1-2.1l-4.8,7.2l0,0
			l-11.3,1.7c-0.1,1-0.1,2.1,0,3.1l9-1.3l-6.4,9.5c0.3,0.4,0.5,0.8,0.8,1.3l0.3,0.4l0.4,0.1c0.3,0.1,0.6,0.1,0.9,0.2l6.6-9.7
			l2.3,9.3c1-0.3,2-0.7,2.9-1.2L394.5,200.2L394.5,200.2z"/>
	</g>
	<g>
		<g>
			<path class="st7" d="M360.5,155.4l0.2-0.4c4.1-6.5,11.8-9.8,19.3-8.1c7.5,1.6,13.2,7.8,14.2,15.4l0.1,0.4l-0.2,0.4
				c-4.1,6.5-11.8,9.8-19.3,8.1c-7.5-1.6-13.2-7.8-14.2-15.4L360.5,155.4z"/>
		</g>
		<path class="st8" d="M378.6,158l-8.5-1.8l12.1-8.6l-0.1-0.2c-0.6-0.2-1.3-0.4-2-0.6c-0.6-0.1-1.1-0.2-1.7-0.3l-12.3,8.7l-5.4-1.2
			l-8.1-1.8l-0.7,3l7.4,1.6l0,0l6.1,1.3l7.1,12.3c0.7,0.3,1.5,0.5,2.2,0.6c0.6,0.1,1.3,0.2,1.9,0.3l-7.2-12.3l8.5,1.8l0,0l5.7,9.9
			c1-0.3,2-0.7,2.9-1.1l-4.6-7.9l11.2,2.4c0.3-0.4,0.6-0.8,0.9-1.2l0.2-0.4l-0.1-0.4c0-0.3-0.1-0.6-0.2-0.9l-11.5-2.5l7.8-5.5
			c-0.6-0.8-1.4-1.6-2.1-2.3L378.6,158L378.6,158z"/>
	</g>
	<g>
		<path class="st2" d="M354.1,196.9c4.7-1.2,9.4-2.3,13.8-4.2c1-0.4,2-0.5,2.8-0.3c1.5-1.2,3.1-2.3,4.1-2.5c0.1,0,0.3,0,0.5,0.1
			c1.2-1.5,2.5-2.8,3.9-3.8c-2.2-1.2-3.5-2-3.5-2l-12.9,8.8c0,0-19.4,2.9-36.1,5.6c-0.4,1.5-0.5,3.2-0.5,5.2
			c9.8-2.6,21.9-5.6,27.6-6.7C353.9,197,354,196.9,354.1,196.9z"/>
		<path class="st1" d="M410.7,160.8c1.2-0.9,16.5-12.1,21.6-15.8c-0.8-0.4-1.4-1-1.8-1.7c-0.9-0.2-1.7-0.4-2.6-0.7
			c-7.5,4.6-19.6,12.8-19.5,12.5c0.1-0.3,0.2-8.7,0.3-13.6c-1.5,1.3-3,2.7-4.5,4c-0.5,5.6-0.6,11.6-1.4,13
			c-1.4,2.4-10.3,10.4-14.7,12.3c-4.4,1.9-22.9,13.3-24.8,13.8c-1.9,0.5-4,4.9-7.4,5c-1.5,0.1-10.9,1.2-20.8,2.3
			c-0.9,0.3-1.7,0.6-2.6,0.9c-3.7,1.4-5.3,3.3-6,5.8c16.7-2.7,36.1-5.6,36.1-5.6l12.9-8.8c0,0,1.3,0.7,3.5,2
			c0.7-0.5,1.4-0.9,2.2-1.2c-1.2-0.7-1.8-1.1-1.7-1.1c0.7-0.7,12.7-8.7,15.2-9.3c0.7-0.2,3.5,0.4,7.2,1.3c2.3-1,4.7-1.9,6.7-3.1
			c-5.4-1.1-9.8-2.1-9.5-2.6C400.2,169.1,409.4,161.9,410.7,160.8z"/>
	</g>
</g>
<path class="st9" d="M430.1,173.7c-1.6,0.2-1.9-1.3-0.7-3.4c1.2-2.1,0.8-3.2-0.9-2.5c-1.7,0.6-2.3-0.6-1.5-2.7
	c0.9-2.2,0.2-3-1.5-1.9c-1.7,1-2.7,0-2.2-2c0.5-2.1-0.4-2.6-2-1.3c-1.6,1.3-2.9,0.6-2.8-1.3c0.1-1.9-1-2.2-2.4-0.8
	c-1.4,1.4-2.9,2.1-3.4,1.7c0,0-0.1,0-0.1-0.1c4.6-3.4,15.5-11.3,19.7-14.3c-0.8-0.4-1.4-1-1.8-1.7c-0.9-0.2-1.7-0.4-2.6-0.7
	c-7.5,4.6-19.6,12.8-19.5,12.5c0.1-0.3,0.2-8.7,0.3-13.6c-1.5,1.3-3,2.7-4.5,4c-0.5,5.6-0.6,11.6-1.4,13c-0.3,0.5-0.8,1.1-1.6,1.9
	c-2.5,0.2-5,0.2-7.5,0.1c-0.8-3.2-2.3-6-4.5-8.3c0,0,0,0,0,0c-0.3-0.4-0.7-0.7-1.1-1.1c0,0,0,0,0,0l0,0c-1.8-1.6-3.9-2.9-6.3-3.7
	l0,0c-0.3-0.1-0.6-0.2-0.9-0.3c-0.4-0.1-0.7-0.2-1.1-0.3c-0.6-0.1-1.1-0.2-1.7-0.3c0,0,0,0,0,0l0,0c-6.6-0.8-13.2,2.2-17.1,7.7
	l-0.6-0.1l-8.1-1.8l-0.7,3l6.7,1.4c-5.6-0.4-11.1-0.3-16.4,0.5c0.1,0.1,0.3,0.1,0.4,0.2c4.4,1.8,8.4,3.9,12.4,6.3
	c1.7,1,3.5,2.1,5.2,3c0.9,0.5,1.8,0.9,2.6,1.3c0.1,0,0.1,0,0.2,0.1c8.1,2.5,15.6,2,24.8,2.9c8.4,0.8,16.8-1.4,24.6,3.2
	c6,3.5,9.7,9.7,10.4,16c0.4-0.3,0.7-0.6,1.1-0.9c1.8-1.5,4.6-4,6.2-5.6c1.6-1.5,1.7-3,0.3-3.3c-1.4-0.3-1.4-2.1,0-3.9
	C431.9,174.9,431.7,173.5,430.1,173.7z"/>
<g>
	<path class="st2" d="M120.7,150.4c-1-1,0.4-9.4,2.1-11.3c0.5-0.6,7.8-2.7,17.9-5.5c-0.4-1.6-0.5-3.3-0.4-4.9
		c-12.3,2.4-21.3,4-21.3,4l-5.6,19.4c0,0-34.9,38.9-47.1,53.9c0,0,0,0,0,0c3.4,2.8,8,3.4,8,3.4s34-48.4,36.4-48.8
		c2.4-0.4,15.3-4.2,15.8-5.4C126.9,154,121.8,151.4,120.7,150.4z"/>
	<path class="st1" d="M140.3,128.7c0.1-1.2,0.3-2.3,0.7-3.4c-10.7,2.5-18.4,4.2-18.3,3.8c0.1-1.2,5.4-19.2,7.5-21.9
		c1.4-1.9,20.1-10.2,31.6-15.5c-1.8-1.6-3.2-3.8-4-6.2c-8.9,4.9-26.7,15-26.8,13.6c-0.1-1.7,3.1-16.5,3.5-18.7
		c0.5-2.2,8.5-34.2,9.2-36.2c0.7-2,22.5-22.4,21.9-23.5c-0.6-1.1-24.2,18.5-25.9,19.4c-1.6,0.9-11.9,36.9-12.1,36.3
		c-0.2-0.6-13.7-17.1-13.9-17.5c-0.2-0.4-3.7-23.3-4.2-23.3c-0.6,0-0.6,18.7,0.2,24.1c0.7,5.4,14.6,21.3,15.2,24.8
		c0.6,3.5-1.6,18.9-4.4,24.4c-2.8,5.6-11.9,32.2-13.3,34.3c-1.5,2.1,0,8.2-3.2,11.1c-3.2,2.9-42.1,44.2-42.1,44.2s1.1,4.7,4.5,7.5
		c12.2-14.9,47.1-53.9,47.1-53.9l5.6-19.4C119,132.7,128,131,140.3,128.7z"/>
</g>
<g>
	<path class="st1" d="M197.3,168c-3.7-5.5-3.3-12.6-3.2-19.1c0-0.3,0-0.5,0-0.8c-0.8-6.5-1-13.2-1.5-19.7c-0.1-0.6,0-2.1,0-3.9
		c-0.7-7.1-3.3-13.2-5.9-19.6c-0.1,0-0.3,0-0.4,0c-4.8-10.2-8.4-21.2-13.5-31.3c-2.7-5.3-6.6-9.6-8.7-15.2c-2.3-6-4.9-12-7.1-17.9
		c-0.9-2.4-1.9-4.9-1.6-7.4c-0.3-0.4-0.4-1-0.5-1.6c-0.2-3.8,0-7.5,0.8-11.2c-1.8,0.5-3.5,1.2-4.1,2.7c-1.2,3.3,0.6,8.4-0.3,12
		c-2.8-1.2-10.4-6.5-7.7-0.7c1.3,2.9,4.9,4.5,6,7.5c1.8,4.7,3.7,9.3,5.7,14c1.4-0.1,2.9,0.5,3.6,2.2c4.6,12.2,10.3,23.9,15.5,35.8
		c2.4,5.6,5.1,11.2,6.5,17.1c1.1,4.5,1.1,9.1,1.1,13.7c1.9,9.8,1.8,19.8,2.3,30c0.3,5.2-0.4,11.9,1.7,16.8c1.3,3,4,4.5,5.7,7.1
		c3.8,5.8,6.6,12.1,11.6,17.1c2.2,2.2,4.7,4.2,7.2,6.2c0.7,0.2,1.3,0.6,1.9,1.3c0.1,0.2,0.2,0.3,0.3,0.4c1.2,0.9,2.3,1.9,3.5,2.8
		c0.7,0,1.6-0.2,3-0.6c0.8-0.2,1.7-0.4,2.8-0.7c0.7-2.9,1.2-5.8,2.2-8.3c-5.5-7.3-12.1-13.1-17.8-19.9
		C203,174.4,199.7,171.5,197.3,168z"/>
	<path class="st2" d="M197.3,168c-3.7-5.5-3.3-12.6-3.2-19.1c0-0.3,0-0.5,0-0.8c-0.8-6.5-1-13.2-1.5-19.7c-0.1-0.6,0-2.1,0-3.9
		c-0.7-7.1-3.3-13.2-5.9-19.6c0,0,0,0,0,0c-0.1,0.1-0.1,0.3-0.2,0.4c1.2,11.8,1.1,23.7,1.4,35.6c0.2,6,0,12.5,2.1,18.2
		c1.9,4.9,5.2,8.6,9.4,11.6C198.7,169.8,198,168.9,197.3,168z"/>
	<path class="st2" d="M186.3,167.1c-0.7-1.1-1.3-2.3-1.8-3.5c0.1,1.6,0.2,3.1,0.5,4.6C185.3,167.7,185.7,167.3,186.3,167.1z"/>
	<path class="st2" d="M154.3,20.9c0,0.7-0.2,1.3-0.7,2c-0.3,0.4-0.5,0.8-0.7,1.2c0,4.3-0.9,8.5-1.9,12.7c0.2,0.2,0.3,0.4,0.4,0.7
		c0.9,1.8,1.7,3.7,2.3,5.6c2.8,5.5,6.8,10.2,10.3,15.2c-2.3-5.9-4.8-11.9-7-17.8c-0.9-2.4-1.9-4.9-1.6-7.4c-0.3-0.4-0.4-1-0.5-1.6
		c-0.2-3.8,0-7.5,0.8-11.2C155.2,20.5,154.8,20.7,154.3,20.9z"/>
	<path class="st2" d="M216,193.5c-1,0.7-2.3,0.9-3.4,0.3c-3.4-1.9-6.7-3.9-10-5.9c-1.1,1.1-2.3,2-3.6,2.8c1.3,1.8,2.6,3.6,4.2,5.1
		c2.2,2.2,4.7,4.2,7.2,6.2c0.7,0.2,1.3,0.6,1.9,1.3c0.1,0.2,0.2,0.3,0.3,0.4c1.2,0.9,2.3,1.9,3.5,2.8c0.7,0,1.6-0.2,3-0.6
		c0.8-0.2,1.7-0.4,2.8-0.7c0.7-2.9,1.2-5.8,2.2-8.3c-0.9-1.1-1.8-2.2-2.7-3.3C219.6,194.1,217.8,194.1,216,193.5z"/>
	<path class="st2" d="M177.1,83c0.2,1.1,0.4,2.3,0.6,3.4c0.4,0.2,0.8,0.4,1.1,0.7C178.2,85.8,177.6,84.4,177.1,83z"/>
</g>
<g>
	<g>
		<path class="st3" d="M190,337.6c-1.5,1.4-3,2.1-3.4,1.6c-0.4-0.4-2.4-0.4-4.5,0c-22.1,3.7-46-7.5-68.1-3.9
			c-2.1,0.3-5.3,1.7-7.2,3.1c-1.1,0.8-2.1,1.6-3.1,2.4c-1.9,1.5-4.7,3.9-6.3,5.4c-1.6,1.5-1.8,3-0.4,3.3c1.4,0.4,1.4,2.1-0.1,3.9
			c-1.5,1.9-1.4,3.2,0.2,3c1.6-0.1,1.9,1.4,0.6,3.4c-1.2,2.1-0.9,3.2,0.8,2.5c1.7-0.6,2.3,0.7,1.4,2.8c-0.9,2.1-0.3,3,1.4,2
			c1.7-1,2.7,0.1,2.1,2.1c-0.6,2.1,0.3,2.6,1.9,1.4c1.7-1.2,2.9-0.5,2.8,1.4c-0.1,1.9,0.9,2.3,2.4,0.9c1.5-1.4,3-2.1,3.4-1.6
			c0.4,0.4,2.4,0.4,4.5,0c22.1-3.7,46,7.5,68.1,3.9c2.1-0.3,5.3-1.7,7.2-3.1c1.1-0.8,2.1-1.6,3.1-2.4c1.9-1.5,4.7-3.9,6.3-5.4
			c1.6-1.5,1.8-3,0.4-3.3c-1.4-0.4-1.4-2.1,0.1-3.9c1.5-1.9,1.4-3.2-0.2-3c-1.6,0.1-1.9-1.4-0.6-3.4c1.2-2.1,0.9-3.2-0.8-2.5
			c-1.7,0.6-2.3-0.7-1.4-2.8c0.9-2.1,0.3-3-1.4-2c-1.7,1-2.7-0.1-2.1-2.1c0.6-2.1-0.3-2.6-1.9-1.4c-1.7,1.2-2.9,0.5-2.8-1.4
			C192.6,336.5,191.5,336.2,190,337.6z"/>
		<g>
			<g>
				<line class="st4" x1="116" y1="363.2" x2="144.1" y2="364.6"/>
				<line class="st4" x1="150.4" y1="365.8" x2="167.2" y2="367.3"/>
				<line class="st4" x1="173.5" y1="368.1" x2="176.3" y2="368.3"/>
			</g>
			<path class="st5" d="M164.5,357.2c4.9,0.6,9.8,1.1,14.7,1.8"/>
			<path class="st5" d="M144.2,355c0,0,14.1,1.6,14.1,1.5"/>
			<path class="st5" d="M123.4,352.6c3.2,0.4,6.5,0.7,9.7,1.1"/>
			<polyline class="st6" points="147.5,345.8 159,346.9 177.9,348.6 			"/>
			<line class="st6" x1="133.8" y1="344.6" x2="139.2" y2="345.1"/>
			<line class="st6" x1="117.2" y1="343" x2="126.8" y2="343.9"/>
		</g>
		<g>
			<g>
				<path class="st7" d="M123.8,346.6l-0.3-0.4c-4.3-6.3-4.2-14.7,0.2-21c4.5-6.2,12.4-9,19.8-6.9l0.4,0.1l0.3,0.4
					c4.3,6.3,4.2,14.8-0.2,21c-4.5,6.2-12.4,9-19.8,6.9L123.8,346.6z"/>
			</g>
			<path class="st8" d="M133.4,331l-5.1,7l-3.1-14.5l-0.2,0.1c-0.5,0.5-0.9,1-1.3,1.6c-0.3,0.5-0.6,1-0.9,1.5l3.1,14.7l-3.2,4.5
				l-4.8,6.7l2.5,1.8l4.4-6.1l0,0l3.7-5.1l14.1-1.7c0.5-0.6,1-1.2,1.5-1.8c0.4-0.5,0.7-1.1,1-1.6l-14.2,1.7l5.1-7l0,0l11.3-1.3
				c0.1-1,0.2-2.1,0.1-3.1l-9.1,1.1l6.7-9.3c-0.2-0.4-0.5-0.9-0.8-1.3l-0.3-0.4l-0.4-0.1c-0.3-0.1-0.6-0.1-0.9-0.2l-6.8,9.5l-2-9.4
				c-1,0.3-2,0.6-2.9,1.1L133.4,331L133.4,331z"/>
		</g>
		<g>
			<g>
				<path class="st7" d="M166.1,376.8l-0.3,0.4c-4.3,6.4-12.1,9.4-19.6,7.5c-7.4-1.9-12.9-8.2-13.7-15.8l0-0.4l0.3-0.4
					c4.3-6.4,12.1-9.4,19.6-7.5c7.4,1.9,12.9,8.2,13.7,15.8L166.1,376.8z"/>
			</g>
			<path class="st8" d="M148,373.6l8.4,2.1l-12.3,8.2l0.1,0.2c0.6,0.2,1.3,0.5,2,0.6c0.6,0.1,1.1,0.2,1.7,0.3l12.5-8.3l5.4,1.3l8,2
				l0.7-3l-7.3-1.8l0,0l-6.1-1.5l-6.8-12.5c-0.7-0.3-1.4-0.5-2.2-0.7c-0.6-0.2-1.2-0.3-1.9-0.4l6.8,12.6l-8.4-2.1l0,0l-5.4-10
				c-1,0.3-2,0.6-2.9,1l4.3,8l-11.2-2.8c-0.3,0.4-0.6,0.8-0.9,1.2l-0.3,0.4l0,0.4c0,0.3,0.1,0.6,0.1,0.9l11.4,2.8l-8,5.3
				c0.6,0.8,1.3,1.6,2.1,2.3L148,373.6L148,373.6z"/>
		</g>
	</g>
	<g>
		<path class="st2" d="M86,403.3c0.9-1.2,9.4-0.8,11.5,0.6c0.6,0.4,3.7,7.4,7.8,17c1.5-0.6,3.2-0.9,4.8-1c-4-11.9-6.8-20.6-6.8-20.6
			l-20-3c0,0-43.1-29.6-59.5-39.7c0,0,0,0,0,0c-2.3,3.8-2.3,8.3-2.3,8.3s52.4,27.4,53.1,29.8c0.7,2.3,6.1,14.6,7.4,14.9
			C83.2,409.9,85.1,404.4,86,403.3z"/>
		<path class="st1" d="M110.1,419.8c1.2-0.1,2.3,0,3.5,0.2c-3.9-10.3-6.5-17.7-6.1-17.7c1.2-0.1,19.8,2.9,22.7,4.6
			c2.1,1.2,12.7,18.6,19.5,29.4c1.3-2,3.3-3.7,5.6-4.8c-6-8.2-18.3-24.5-17-24.8c1.7-0.3,16.7,0.9,19,1.1c2.3,0.2,35,4,37,4.4
			c2,0.4,25.1,19.4,26.1,18.6c1-0.8-21.5-21.6-22.6-23.1c-1.1-1.5-38.2-7-37.6-7.3c0.6-0.3,15.2-15.8,15.6-16.1
			c0.4-0.3,22.6-6.7,22.5-7.2c-0.1-0.5-18.6,1.9-23.9,3.3c-5.3,1.4-19.2,17.3-22.6,18.3c-3.4,1-18.9,0.9-24.8-1.2
			c-5.9-2.1-33.4-7.6-35.7-8.8c-2.2-1.2-8.1,1.1-11.4-1.7c-3.3-2.8-49.3-36-49.3-36s-4.6,1.7-6.9,5.4c16.4,10.2,59.5,39.7,59.5,39.7
			l20,3C103.3,399.2,106.1,407.9,110.1,419.8z"/>
	</g>
	<g>
		<path class="st1" d="M196.4,312.5c1.2-1.3,2.5-2.4,3.9-3.3c-2.2-0.6-4.2-1-5.4-1.2c-3.6-0.7-7-1.2-10.6-0.7
			c-1.5,0.2-3.4,1.1-4.8,1.1c-2.9,0-4.1-2.5-6.8-3c-0.4,2-2.5,2.6-4.1,3.5c-6.8,3.7-14.2,6.9-21.3,10c-8.6,3.8-17.3,6.7-25.8,11
			c0.2-1.5,2.1-5,2.8-6.8c-2,0.1-3.9,0.3-5.9,0.5c-2,1.8-3.7,3.9-4,4.6c-2.2,4.8-2.4,4.7-7.8,7.4c-6.3,3.1-12.4,6.4-18.7,9.5
			c-9.6,4.8-19.5,9-29.2,13.7c-11.4,5.5-24,8-35.8,12.6c-3.6,1.4-8.7,1.9-8.6,6.7c0.1,2.6,2.8,8.2,5.3,8.7c3.2,0.6,8.8-3.9,11.7-5.1
			c8.1-3.3,15.8-8.1,23.7-12c8-3.9,16.3-7.2,24.2-11.4c11.6-6.2,22.8-13.4,34.7-18.9c3.3-1.5,6.6-1.1,9.9-2.3
			c5.8-2.1,11.6-5.9,17.1-8.6c5.3-2.7,10.7-5.1,16.1-7.5c4.2-1.9,10.2-7.1,14.7-7.7c2.1-0.2,2.2,1.2,4.1,1.5
			c0.8,0.1,3.3-0.8,4.2-0.9c2.7-0.3,5-0.4,7.4-0.3c0.7-1.3,2.2-2.1,4-1.7C192.9,312.2,194.6,312.4,196.4,312.5z"/>
		<path class="st2" d="M118.3,326.5c0.8-1,1.5-2.1,2.2-3.2c-0.7,0.1-1.5,0.1-2.2,0.2c-2,1.8-3.7,3.9-4,4.6c-0.4,1-0.8,1.7-1.1,2.4
			c1.6-0.6,3.2-1.2,4.7-1.7C117.7,328,117.8,327.2,118.3,326.5z"/>
		<path class="st2" d="M31.1,381.7c7.7-3.1,15-7.6,22.4-11.3c-0.3,0-0.7,0-1-0.1c-0.7-0.2-1.4-0.3-2.1-0.4c-0.9-0.1-1.8-0.1-2.6-0.2
			c-0.2,0-0.4-0.1-0.6-0.1c-0.2,0.2-0.5,0.5-0.8,0.7c-2.1,1.5-4.3,2.7-6.7,3.7c-0.5,0.2-1,0.3-1.5,0.3c-2.8,1.1-5.5,2.2-8.4,3
			c-0.8,0.2-1.5,0.2-2.1,0c-4.2,1.4-6.8-1.3-9.3-4.4c-2.3,0.9-4.2,2.2-4.1,5.1c0.1,2.6,2.8,8.2,5.3,8.7
			C22.6,387.4,28.2,382.8,31.1,381.7z"/>
		<path class="st2" d="M180.2,313.3c0.3-0.5,0.3-0.9,0.1-1.3c-2.9-0.2-5.8-0.2-8.6-0.9c-0.4-0.1-0.7-0.2-1-0.4
			c-2.7,1.2-5.4,3.2-7.7,4.5l-20.2,11c-9.9,5.4-21,8-31.1,12.7c-0.1,0.6-0.3,1.2-0.5,1.8c0.8-0.4,1.7-0.8,2.5-1.2
			c3.3-1.5,6.6-1.1,9.9-2.3c5.8-2.1,11.6-5.9,17.1-8.6c5.3-2.7,10.7-5.1,16.1-7.5c4.2-1.9,10.2-7.1,14.7-7.7
			c2.1-0.2,2.2,1.2,4.1,1.5c0.8,0.1,3.3-0.8,4.2-0.9c0.1,0,0.1,0,0.2,0C180,313.7,180.1,313.5,180.2,313.3z"/>
	</g>
	<g>
		<path class="st1" d="M277.2,327c1-1.4,2.1-2.7,3.4-3.8c-2.2-0.3-4.3-0.4-5.5-0.5c-3.6-0.3-7.1-0.3-10.6,0.7
			c-1.4,0.4-3.3,1.5-4.6,1.7c-2.8,0.3-4.3-2-7.2-2.1c-0.2,2-2.1,2.9-3.6,4c-6.3,4.5-13.2,8.6-19.8,12.7c-8.1,4.9-16.3,8.9-24.2,14.2
			c0-1.5,1.4-5.2,1.9-7.1c-1.9,0.4-3.9,0.8-5.8,1.2c-1.7,2-3.2,4.4-3.4,5.1c-1.5,5-1.7,5-6.8,8.3c-5.8,3.9-11.5,7.9-17.3,11.8
			c-8.9,6-18.2,11.4-27.2,17.3c-10.6,6.9-22.8,11-33.9,17.1c-3.4,1.8-8.4,3-7.6,7.7c0.4,2.6,3.8,7.8,6.3,8c3.3,0.2,8.2-5,11-6.5
			c7.6-4.3,14.6-10.1,22-14.9c7.4-4.9,15.3-9.3,22.5-14.4c10.7-7.6,20.9-16.2,32-23.2c3-1.9,6.4-2,9.5-3.5
			c5.4-2.8,10.7-7.3,15.8-10.8c4.9-3.3,10-6.4,15-9.5c3.9-2.5,9.2-8.4,13.6-9.5c2-0.5,2.4,0.9,4.2,1c0.8,0,3.1-1.2,4.1-1.4
			c2.6-0.6,4.9-1.1,7.3-1.3c0.6-1.3,1.9-2.4,3.7-2.2C273.7,327.1,275.5,327.1,277.2,327z"/>
		<path class="st2" d="M201.6,350.9c0.6-1.1,1.2-2.3,1.7-3.4c-0.7,0.2-1.5,0.3-2.2,0.5c-1.7,2-3.2,4.4-3.4,5.1
			c-0.3,1-0.6,1.8-0.8,2.5c1.5-0.8,3-1.6,4.5-2.3C201.2,352.5,201.2,351.7,201.6,350.9z"/>
		<path class="st2" d="M122.2,416.8c7.2-4,13.9-9.4,20.8-14.1c-0.3,0.1-0.7,0.1-1,0c-0.7-0.1-1.5-0.1-2.2-0.1
			c-0.9,0-1.8,0.1-2.6,0.1c-0.2,0-0.4,0-0.7,0c-0.2,0.3-0.4,0.5-0.7,0.8c-1.9,1.7-3.9,3.2-6.2,4.5c-0.5,0.3-1,0.4-1.4,0.5
			c-2.6,1.5-5.2,2.9-8,4.1c-0.8,0.3-1.5,0.4-2.1,0.3c-4,1.9-6.9-0.5-9.8-3.2c-2.2,1.2-3.9,2.8-3.4,5.6c0.4,2.6,3.8,7.8,6.3,8
			C114.5,423.6,119.5,418.3,122.2,416.8z"/>
		<path class="st2" d="M261.3,329.9c0.2-0.5,0.2-1-0.1-1.3c-2.9,0.2-5.8,0.5-8.6,0.2c-0.4,0-0.7-0.2-1.1-0.3
			c-2.5,1.5-4.9,3.9-7.1,5.4l-18.6,13.5c-9.1,6.6-19.8,10.6-29.3,16.5c0,0.6-0.1,1.3-0.2,1.9c0.8-0.5,1.5-1,2.3-1.5
			c3-1.9,6.4-2,9.5-3.5c5.4-2.8,10.7-7.3,15.8-10.8c4.9-3.3,10-6.4,15-9.5c3.9-2.5,9.2-8.4,13.6-9.5c2-0.5,2.4,0.9,4.2,1
			c0.8,0,3.1-1.2,4.1-1.4c0.1,0,0.1,0,0.2,0C261.2,330.2,261.2,330.1,261.3,329.9z"/>
	</g>
	<g>
		<path class="st1" d="M137.8,410.6c4.7-4.8,11.7-5.8,18-7c0.2,0,0.5-0.1,0.7-0.2c6.2-2.1,12.8-3.6,19-5.5c0.6-0.2,2-0.4,3.8-0.8
			c6.8-2.1,12.2-5.9,18-9.8c0-0.1-0.1-0.3-0.1-0.4c9.1-6.7,19-12.5,27.9-19.5c4.6-3.7,8-8.4,13.1-11.6c5.4-3.5,10.7-7.2,16.1-10.6
			c2.1-1.3,4.4-2.8,6.9-3.1c0.4-0.3,0.9-0.6,1.5-0.8c3.6-1,7.4-1.5,11.1-1.5c-0.9-1.6-1.9-3.2-3.5-3.4c-3.5-0.5-8.1,2.3-11.8,2.1
			c0.6-3,4.3-11.5-0.9-7.7c-2.5,1.9-3.5,5.7-6.1,7.5c-4.2,2.8-8.4,5.6-12.5,8.4c0.4,1.4,0.1,2.9-1.4,3.9c-11,7-21.3,14.9-31.8,22.5
			c-4.9,3.5-9.9,7.3-15.4,9.9c-4.2,2-8.7,3-13.2,3.8c-9.2,3.9-19,5.7-28.9,8.4c-5.1,1.3-11.8,2-16.1,5.1c-2.7,1.9-3.6,4.8-5.8,7
			c-4.9,4.9-10.6,8.9-14.4,14.9c-1.7,2.6-3.2,5.4-4.6,8.3c0,0.7-0.3,1.4-0.9,2.1c-0.1,0.1-0.3,0.3-0.4,0.4c-0.7,1.3-1.4,2.7-2.1,4
			c0.1,0.7,0.5,1.6,1.2,2.8c0.4,0.7,0.8,1.6,1.2,2.6c2.9,0.1,5.9,0,8.6,0.4c6-6.9,10.4-14.5,15.9-21.5
			C132.6,417.4,134.8,413.7,137.8,410.6z"/>
		<path class="st2" d="M137.8,410.6c4.7-4.8,11.7-5.8,18-7c0.2,0,0.5-0.1,0.7-0.2c6.2-2.1,12.8-3.6,19-5.5c0.6-0.2,2-0.4,3.8-0.8
			c6.8-2.1,12.2-5.9,18-9.8c0,0,0,0,0,0c-0.1,0-0.3-0.1-0.4-0.1c-11.3,3.6-23,5.9-34.6,8.7c-5.8,1.4-12.2,2.5-17.4,5.8
			c-4.5,2.8-7.4,6.9-9.4,11.6C136.2,412.3,137,411.4,137.8,410.6z"/>
		<path class="st2" d="M136.4,399.6c1-0.9,2-1.7,3.1-2.5c-1.5,0.4-3,0.8-4.4,1.4C135.6,398.8,136.1,399.1,136.4,399.6z"/>
		<path class="st2" d="M273,338.5c-0.6,0.1-1.3,0.1-2.1-0.2c-0.4-0.2-0.9-0.3-1.4-0.4c-4.3,0.8-8.5,0.9-12.8,0.7
			c-0.2,0.2-0.4,0.4-0.6,0.6c-1.6,1.3-3.3,2.4-5,3.4c-4.8,3.8-8.6,8.7-12.8,13.2c5.3-3.4,10.6-7.1,16-10.5c2.1-1.3,4.4-2.8,6.9-3.1
			c0.4-0.3,0.9-0.6,1.5-0.8c3.6-1,7.4-1.5,11.1-1.5C273.5,339.3,273.3,338.9,273,338.5z"/>
		<path class="st2" d="M116.5,434.1c-0.9-0.8-1.4-2-1-3.3c1.2-3.7,2.5-7.3,3.8-11c-1.3-0.8-2.5-1.8-3.5-3c-1.5,1.6-2.9,3.3-4.2,5.2
			c-1.7,2.6-3.2,5.4-4.6,8.3c0,0.7-0.3,1.4-0.9,2.1c-0.1,0.1-0.3,0.3-0.4,0.4c-0.7,1.3-1.4,2.7-2.1,4c0.1,0.7,0.5,1.6,1.2,2.8
			c0.4,0.7,0.8,1.6,1.2,2.6c2.9,0.1,5.9,0,8.6,0.4c0.9-1.1,1.8-2.2,2.7-3.3C116.7,437.7,116.3,435.9,116.5,434.1z"/>
		<path class="st2" d="M216.8,373.4c-1.1,0.5-2.1,0.9-3.2,1.3c-0.1,0.4-0.2,0.8-0.4,1.2C214.4,375.1,215.6,374.3,216.8,373.4z"/>
	</g>
	<g>
		<path class="st1" d="M48.8,354.9c4.7-4.8,11.7-5.8,18-7c0.2,0,0.5-0.1,0.7-0.2c6.2-2.1,12.8-3.6,19-5.5c0.6-0.2,2-0.4,3.8-0.8
			c6.8-2.1,12.2-5.9,18-9.8c0-0.1-0.1-0.3-0.1-0.4c9.1-6.7,19-12.5,27.9-19.5c4.6-3.7,8-8.4,13.1-11.6c5.4-3.5,10.7-7.2,16.1-10.6
			c2.1-1.3,4.4-2.8,6.9-3.1c0.4-0.3,0.9-0.6,1.5-0.8c3.6-1,7.4-1.5,11.1-1.5c-0.9-1.6-1.9-3.2-3.5-3.4c-3.5-0.5-8.1,2.3-11.8,2.1
			c0.6-3,4.3-11.5-0.9-7.7c-2.5,1.9-3.5,5.7-6.1,7.5c-4.2,2.8-8.4,5.6-12.5,8.4c0.4,1.4,0.1,2.9-1.4,3.9c-11,7-21.3,14.9-31.8,22.5
			c-4.9,3.5-9.9,7.3-15.4,9.9c-4.2,2-8.7,3-13.2,3.8c-9.2,3.9-19,5.7-28.9,8.4c-5.1,1.3-11.8,2-16.1,5.1c-2.7,1.9-3.6,4.8-5.8,7
			c-4.9,4.9-10.6,8.9-14.4,14.9c-1.7,2.6-3.2,5.4-4.6,8.3c0,0.7-0.3,1.4-0.9,2.1c-0.1,0.1-0.3,0.3-0.4,0.4c-0.7,1.3-1.4,2.7-2.1,4
			c0.1,0.7,0.5,1.6,1.2,2.8c0.4,0.7,0.8,1.6,1.2,2.6c2.9,0.1,5.9,0,8.6,0.4c6-6.9,10.4-14.5,15.9-21.5
			C43.6,361.7,45.8,357.9,48.8,354.9z"/>
		<path class="st2" d="M48.8,354.9c4.7-4.8,11.7-5.8,18-7c0.2,0,0.5-0.1,0.7-0.2c6.2-2.1,12.8-3.6,19-5.5c0.6-0.2,2-0.4,3.8-0.8
			c6.8-2.1,12.2-5.9,18-9.8c0,0,0,0,0,0c-0.1,0-0.3-0.1-0.4-0.1c-11.3,3.6-23,5.9-34.6,8.7c-5.8,1.4-12.2,2.5-17.4,5.8
			c-4.5,2.8-7.4,6.9-9.4,11.6C47.2,356.6,48,355.7,48.8,354.9z"/>
		<path class="st2" d="M47.4,343.9c1-0.9,2-1.7,3.1-2.5c-1.5,0.4-3,0.8-4.4,1.4C46.6,343,47,343.4,47.4,343.9z"/>
		<path class="st2" d="M184,282.8c-0.6,0.1-1.3,0.1-2.1-0.2c-0.4-0.2-0.9-0.3-1.4-0.4c-4.3,0.8-8.5,0.9-12.8,0.7
			c-0.2,0.2-0.4,0.4-0.6,0.6c-1.6,1.3-3.3,2.4-5,3.4c-4.8,3.8-8.6,8.7-12.8,13.2c5.3-3.4,10.6-7.1,16-10.5c2.1-1.3,4.4-2.8,6.9-3.1
			c0.4-0.3,0.9-0.6,1.5-0.8c3.6-1,7.4-1.5,11.1-1.5C184.5,283.6,184.3,283.2,184,282.8z"/>
		<path class="st2" d="M27.5,378.4c-0.9-0.8-1.4-2-1-3.3c1.2-3.7,2.5-7.3,3.8-11c-1.3-0.8-2.5-1.8-3.5-3c-1.5,1.6-2.9,3.3-4.2,5.2
			c-1.7,2.6-3.2,5.4-4.6,8.3c0,0.7-0.3,1.4-0.9,2.1c-0.1,0.1-0.3,0.3-0.4,0.4c-0.7,1.3-1.4,2.7-2.1,4c0.1,0.7,0.5,1.6,1.2,2.8
			c0.4,0.7,0.8,1.6,1.2,2.6c2.9,0.1,5.9,0,8.6,0.4c0.9-1.1,1.8-2.2,2.7-3.3C27.7,382,27.3,380.2,27.5,378.4z"/>
		<path class="st2" d="M127.8,317.7c-1.1,0.5-2.1,0.9-3.2,1.3c-0.1,0.4-0.2,0.8-0.4,1.2C125.3,319.4,126.6,318.6,127.8,317.7z"/>
	</g>
	<g>
		<path class="st1" d="M5.1,330.2c-1.7,0.1-3.4,0-5.1-0.3c1.1,1.9,2.3,3.6,3,4.7c2,3,4.2,5.7,7.1,7.9c1.2,0.9,3.2,1.6,4.1,2.6
			c2,2,1.1,4.6,2.8,6.9c1.7-1.1,3.6-0.1,5.4,0.4c7.4,2.1,14.9,5,22.2,7.8c8.8,3.3,17.1,7.4,26.1,10.2c-1.1,0.9-5,2.1-6.7,2.9
			c1.5,1.3,3,2.6,4.5,3.8c2.7,0.1,5.4-0.2,6.1-0.5c4.9-1.9,5-1.7,10.8,0.2c6.6,2.2,13.3,4.2,20,6.3c10.2,3.3,20.2,7.2,30.4,10.7
			c12,4.1,22.7,11.1,34.4,16.1c3.5,1.5,7.5,4.7,10.8,1.2c1.8-1.9,3.8-7.8,2.4-9.9c-1.8-2.7-9-3.4-11.9-4.6c-8.1-3.4-17-5.3-25.3-8.1
			c-8.4-2.8-16.7-6.3-25.3-8.8c-12.6-3.7-25.7-6.5-38-10.8c-3.4-1.2-5.5-3.8-8.6-5.3c-5.5-2.6-12.4-3.9-18.2-5.8
			c-5.7-1.8-11.2-3.9-16.8-5.9c-4.4-1.6-12.3-2.1-15.9-4.8c-1.6-1.3-0.7-2.4-1.8-3.9c-0.5-0.6-2.9-1.7-3.7-2.3
			c-2.1-1.7-3.9-3.2-5.5-4.9c-1.4,0.4-3,0-4-1.5C7.3,332.9,6.2,331.6,5.1,330.2z"/>
		<path class="st2" d="M70.6,374.9c-1.3,0.2-2.5,0.5-3.8,0.8c0.6,0.5,1.1,1,1.7,1.4c2.7,0.1,5.4-0.2,6.1-0.5c1-0.4,1.8-0.7,2.5-0.9
			c-1.5-0.7-3.1-1.4-4.6-2.1C72.1,374.3,71.4,374.8,70.6,374.9z"/>
		<path class="st2" d="M171.4,396.7c-7.6-3.2-16-5.1-23.9-7.6c0.2,0.2,0.5,0.5,0.7,0.8c0.4,0.6,0.8,1.2,1.3,1.8
			c0.6,0.7,1.2,1.3,1.7,2c0.2,0.2,0.3,0.4,0.4,0.5c0.3,0,0.7,0,1,0.1c2.6,0.5,5,1.1,7.4,2.1c0.5,0.2,0.9,0.5,1.3,0.8
			c2.8,1.1,5.5,2.3,8.1,3.7c0.7,0.4,1.2,0.9,1.5,1.5c3.9,1.9,3.9,5.7,3.5,9.6c2.3,1,4.6,1.3,6.5-0.8c1.8-1.9,3.8-7.8,2.4-9.9
			C181.5,398.5,174.3,397.9,171.4,396.7z"/>
		<path class="st2" d="M17.2,341c-0.5,0.1-0.9,0.5-1,0.9c1.9,2.2,4,4.2,5.5,6.7c0.2,0.3,0.3,0.7,0.4,1c2.8,1,6.1,1.5,8.6,2.2
			l22.1,6.3c10.8,3.1,20.6,9,31.1,12.8c0.5-0.4,1.1-0.7,1.6-1c-0.9-0.3-1.8-0.6-2.6-0.9c-3.4-1.2-5.5-3.8-8.6-5.3
			c-5.5-2.6-12.4-3.9-18.2-5.8c-5.7-1.8-11.2-3.9-16.8-5.9c-4.4-1.6-12.3-2.1-15.9-4.8c-1.6-1.3-0.7-2.4-1.8-3.9
			c-0.5-0.6-2.9-1.7-3.7-2.3c0,0-0.1-0.1-0.1-0.1C17.5,340.9,17.4,340.9,17.2,341z"/>
	</g>
	<g>
		<path class="st1" d="M292.4,365.6c1.7-0.2,3.4-0.3,5.1-0.1c-1.3-1.8-2.6-3.5-3.4-4.4c-2.3-2.8-4.6-5.4-7.7-7.3
			c-1.2-0.8-3.3-1.4-4.3-2.2c-2.2-1.8-1.5-4.5-3.4-6.7c-1.6,1.2-3.5,0.4-5.4,0c-7.6-1.5-15.3-3.8-22.7-5.9c-9.1-2.6-17.6-6-26.8-8.1
			c1.1-1,4.8-2.5,6.5-3.4c-1.6-1.2-3.2-2.3-4.8-3.4c-2.7,0.1-5.4,0.6-6.1,1c-4.7,2.3-4.9,2.1-10.7,0.7c-6.8-1.7-13.6-3.1-20.4-4.7
			c-10.5-2.4-20.7-5.6-31.2-8.2c-12.3-3.1-23.5-9.3-35.5-13.3c-3.6-1.2-7.9-4.1-10.9-0.4c-1.6,2-3.1,8.1-1.6,10.1
			c2.1,2.6,9.3,2.6,12.3,3.6c8.3,2.7,17.3,3.9,25.8,6c8.6,2.1,17.2,4.9,25.9,6.7c12.8,2.7,26.1,4.4,38.8,7.7c3.5,0.9,5.8,3.4,9,4.6
			c5.7,2.1,12.7,2.9,18.6,4.3c5.8,1.4,11.5,3,17.2,4.5c4.5,1.2,12.4,1.1,16.2,3.6c1.7,1.1,0.9,2.4,2.2,3.8c0.5,0.6,3,1.5,3.8,2
			c2.2,1.5,4.1,2.9,5.9,4.5c1.4-0.5,3-0.3,4.2,1.2C289.9,363.1,291.1,364.4,292.4,365.6z"/>
		<path class="st2" d="M223.5,326.3c1.3-0.3,2.5-0.7,3.7-1.1c-0.6-0.4-1.2-0.9-1.8-1.3c-2.7,0.1-5.4,0.6-6.1,1
			c-1,0.5-1.7,0.8-2.4,1.1c1.6,0.5,3.2,1.1,4.8,1.7C222.1,327.1,222.7,326.5,223.5,326.3z"/>
		<path class="st2" d="M121.2,312.8c7.9,2.6,16.3,3.8,24.4,5.7c-0.3-0.2-0.5-0.4-0.7-0.7c-0.5-0.6-0.9-1.1-1.4-1.7
			c-0.6-0.6-1.3-1.2-1.9-1.8c-0.2-0.2-0.3-0.3-0.4-0.5c-0.3,0-0.7,0.1-1,0c-2.6-0.3-5-0.7-7.5-1.5c-0.5-0.2-1-0.4-1.3-0.7
			c-2.8-0.9-5.7-1.9-8.4-3.1c-0.8-0.3-1.3-0.8-1.6-1.4c-4.1-1.6-4.4-5.4-4.3-9.3c-2.3-0.8-4.6-1-6.5,1.3c-1.6,2-3.1,8.1-1.6,10.1
			C111.1,311.8,118.3,311.8,121.2,312.8z"/>
		<path class="st2" d="M279.5,355.9c0.5-0.2,0.8-0.5,0.9-0.9c-2.1-2-4.3-3.9-6-6.2c-0.2-0.3-0.4-0.6-0.5-1c-2.8-0.8-6.2-1-8.8-1.5
			l-22.6-4.5c-11-2.2-21.2-7.4-32-10.2c-0.5,0.4-1,0.8-1.5,1.1c0.9,0.2,1.8,0.4,2.7,0.7c3.5,0.9,5.8,3.4,9,4.6
			c5.7,2.1,12.7,2.9,18.6,4.3c5.8,1.4,11.5,3,17.2,4.5c4.5,1.2,12.4,1.1,16.2,3.6c1.7,1.1,0.9,2.4,2.2,3.8c0.5,0.6,3,1.5,3.8,2
			c0.1,0,0.1,0.1,0.2,0.1C279.1,356,279.3,355.9,279.5,355.9z"/>
	</g>
	<g>
		<path class="st2" d="M203.1,326.1c-0.4-1-8.2-4.4-10.6-4.5c-0.7,0-6,2.6-13.2,6.4c-1.1-1-2.5-1.9-4-2.6c7.9-5.1,13.5-8.9,13.5-8.9
			l19.1,6.7c0,0,49.5,1.3,67.9,2.4c0,0,0,0,0,0c0.7,3.1-0.9,5.7-0.9,5.7s-57.1-6.4-58.5-5.4c-1.4,1-10.8,5.7-12,5.4
			C203.2,331,203.5,327.1,203.1,326.1z"/>
		<path class="st1" d="M271.7,319.6c0,0-53.4-0.5-57.4-0.3c-4,0.2-8.5-3.6-10.9-3.8c-2.4-0.3-29.2-8.7-35.3-10
			c-6.1-1.3-20.1-7.7-22.8-9.7c-1.5-1.1-4.4-6.5-7.3-11.4c-0.2,2.2-1,4.3-2.2,6.2c0.8,1.5,1.4,2.5,1.5,2.6c0.1,0.1-1-0.3-2.8-0.9
			c-0.2,0.2-0.4,0.4-0.6,0.6c-1.2,1.2-2.6,2.1-4.1,2.8c4,1.5,6.9,2.6,7.5,2.9c2.1,0.9,16,6.5,17.5,7.4c0.5,0.3-2.9,1.4-7.5,2.7
			c2,0.9,4,1.9,5.9,3.1c4.4-1.4,7.9-2.3,8.9-2.2c3.2,0.3,21,6.4,22.1,6.9c0.3,0.2-4.7,3.3-11.9,7.5c1.1,0.4,2.2,0.8,3.2,1.3
			c7.9-5.1,13.5-8.9,13.5-8.9l19.1,6.7c0,0,49.5,1.3,67.9,2.4C275.2,322.5,271.7,319.6,271.7,319.6z"/>
	</g>
</g>
<g>
	<path d="M17.6,39.1V26.4h-4.6v-2.9h12.5v2.9H21v12.7H17.6z"/>
	<path d="M24.6,33.5c0-3.3,2.4-5.9,5.9-5.9c3.4,0,5.7,2.5,5.7,6.2v0.7h-8.4c0.2,1.4,1.3,2.5,3.3,2.5c1,0,2.3-0.4,3-1.1l1.3,2
		c-1.1,1-2.9,1.6-4.7,1.6C27.2,39.4,24.6,37.1,24.6,33.5z M30.4,30c-1.9,0-2.6,1.3-2.8,2.4h5.6C33.1,31.3,32.4,30,30.4,30z"/>
	<path d="M37.5,33.5c0-3.3,2.4-5.9,5.9-5.9c3.4,0,5.7,2.5,5.7,6.2v0.7h-8.4c0.2,1.4,1.3,2.5,3.3,2.5c1,0,2.3-0.4,3-1.1l1.3,2
		c-1.1,1-2.9,1.6-4.7,1.6C40.1,39.4,37.5,37.1,37.5,33.5z M43.4,30c-1.9,0-2.6,1.3-2.8,2.4h5.6C46.1,31.3,45.4,30,43.4,30z"/>
	<path d="M54.2,37.7v5.8h-3V27.8h3v1.4c0.9-1.1,2.1-1.7,3.5-1.7c2.9,0,5,2.2,5,5.9c0,3.8-2.1,5.9-5,5.9
		C56.3,39.4,55.1,38.8,54.2,37.7z M59.6,33.5c0-1.9-1.2-3.3-2.9-3.3c-1,0-2,0.5-2.6,1.3v4c0.5,0.7,1.6,1.3,2.6,1.3
		C58.4,36.8,59.6,35.4,59.6,33.5z"/>
	<path d="M64.1,33.5c0-3.3,2.4-5.9,5.9-5.9c3.4,0,5.7,2.5,5.7,6.2v0.7h-8.4c0.2,1.4,1.3,2.5,3.3,2.5c1,0,2.3-0.4,3-1.1l1.3,2
		c-1.1,1-2.9,1.6-4.7,1.6C66.7,39.4,64.1,37.1,64.1,33.5z M70,30c-1.9,0-2.6,1.3-2.8,2.4h5.6C72.7,31.3,72,30,70,30z"/>
	<path d="M77.1,33.5c0-3.3,2.4-5.9,5.9-5.9c3.4,0,5.7,2.5,5.7,6.2v0.7h-8.4c0.2,1.4,1.3,2.5,3.3,2.5c1,0,2.3-0.4,3-1.1l1.3,2
		c-1.1,1-2.9,1.6-4.7,1.6C79.7,39.4,77.1,37.1,77.1,33.5z M82.9,30c-1.9,0-2.6,1.3-2.8,2.4h5.6C85.7,31.3,84.9,30,82.9,30z"/>
</g>
<g>
	<path d="M282.1,37.6V22h3.3v12.7h6.6v2.9H282.1z"/>
	<path d="M293.3,32c0-3.3,2.4-5.9,5.9-5.9c3.4,0,5.7,2.5,5.7,6.2V33h-8.4c0.2,1.4,1.3,2.5,3.3,2.5c1,0,2.3-0.4,3-1.1l1.3,2
		c-1.1,1-2.9,1.6-4.7,1.6C295.9,37.9,293.3,35.6,293.3,32z M299.1,28.5c-1.9,0-2.6,1.3-2.8,2.4h5.6
		C301.9,29.8,301.1,28.5,299.1,28.5z"/>
	<path d="M313.8,37.6v-1.2c-0.8,0.9-2.1,1.5-3.6,1.5c-1.8,0-3.9-1.2-3.9-3.7c0-2.7,2.1-3.7,3.9-3.7c1.5,0,2.8,0.5,3.6,1.4v-1.4
		c0-1.1-1-1.9-2.5-1.9c-1.2,0-2.3,0.5-3.3,1.3l-1.2-2.1c1.4-1.2,3.2-1.8,4.9-1.8c2.6,0,5,1,5,4.3v7.3H313.8z M313.8,34.9v-1.4
		c-0.5-0.7-1.4-1-2.4-1c-1.2,0-2.1,0.6-2.1,1.7c0,1.1,1,1.7,2.1,1.7C312.3,35.9,313.3,35.6,313.8,34.9z"/>
	<path d="M327.3,37.6v-6.8c0-1.6-0.8-2.1-2.1-2.1c-1.2,0-2.1,0.7-2.6,1.3v7.6h-3V26.3h3v1.5c0.7-0.8,2.1-1.7,4-1.7
		c2.5,0,3.7,1.4,3.7,3.6v8H327.3z"/>
	<path d="M332.5,33.2v-2.5h5.6v2.5H332.5z"/>
	<path d="M344,37.6V25h-4.6V22h12.5V25h-4.5v12.7H344z"/>
	<path d="M350.9,32c0-3.2,2.2-5.9,6-5.9c3.7,0,6,2.7,6,5.9c0,3.2-2.2,5.9-6,5.9C353.1,37.9,350.9,35.2,350.9,32z M359.8,32
		c0-1.8-1-3.3-2.9-3.3c-1.8,0-2.9,1.5-2.9,3.3c0,1.8,1,3.3,2.9,3.3C358.7,35.3,359.8,33.8,359.8,32z"/>
</g>
<g>
	<path d="M14.2,268.2v-15.6h3.3v12.7h6.6v2.9H14.2z"/>
	<path d="M25.4,262.6c0-3.2,2.2-5.9,6-5.9c3.7,0,6,2.7,6,5.9s-2.2,5.9-6,5.9C27.6,268.5,25.4,265.8,25.4,262.6z M34.2,262.6
		c0-1.8-1-3.3-2.9-3.3c-1.8,0-2.9,1.5-2.9,3.3c0,1.8,1,3.3,2.9,3.3C33.2,265.9,34.2,264.3,34.2,262.6z"/>
	<path d="M39.3,271.1l1.3-2.1c0.9,1,2.1,1.4,3.5,1.4c1.4,0,3.1-0.6,3.1-2.9v-1.1c-0.9,1.1-2.1,1.8-3.5,1.8c-2.8,0-5-2-5-5.7
		c0-3.7,2.1-5.8,5-5.8c1.4,0,2.6,0.6,3.5,1.7v-1.5h3v10.6c0,4.3-3.3,5.3-6.1,5.3C42.3,272.8,40.8,272.4,39.3,271.1z M47.3,264.2
		v-3.7c-0.5-0.7-1.6-1.3-2.6-1.3c-1.7,0-2.9,1.2-2.9,3.1c0,1.9,1.2,3.1,2.9,3.1C45.7,265.5,46.8,265,47.3,264.2z"/>
	<path d="M58.6,260.4c0-4.8,3.6-8.1,8.3-8.1c3.4,0,5.4,1.8,6.5,3.8l-2.9,1.4c-0.7-1.3-2.1-2.3-3.7-2.3c-2.9,0-4.9,2.2-4.9,5.1
		c0,3,2.1,5.1,4.9,5.1c1.6,0,3-1,3.7-2.3l2.9,1.4c-1.1,1.9-3.1,3.8-6.5,3.8C62.2,268.5,58.6,265.2,58.6,260.4z"/>
	<path d="M82.2,268.2V267c-0.8,0.9-2.1,1.5-3.6,1.5c-1.8,0-3.9-1.2-3.9-3.7c0-2.7,2.1-3.7,3.9-3.7c1.5,0,2.8,0.5,3.6,1.4v-1.4
		c0-1.1-1-1.9-2.5-1.9c-1.2,0-2.3,0.5-3.3,1.3l-1.2-2.1c1.4-1.2,3.2-1.8,4.9-1.8c2.6,0,5,1,5,4.3v7.3H82.2z M82.2,265.5v-1.4
		c-0.5-0.7-1.4-1-2.4-1c-1.2,0-2.1,0.6-2.1,1.7c0,1.1,1,1.7,2.1,1.7C80.7,266.5,81.7,266.2,82.2,265.5z"/>
	<path d="M88.1,268.2v-15.6h3v5.8c0.9-1.2,2.2-1.7,3.5-1.7c2.9,0,5,2.2,5,5.9c0,3.8-2.2,5.9-5,5.9c-1.4,0-2.6-0.6-3.5-1.7v1.5H88.1z
		 M93.6,265.9c1.7,0,2.9-1.3,2.9-3.3c0-1.9-1.1-3.3-2.9-3.3c-1,0-2.1,0.6-2.6,1.3v4C91.6,265.3,92.7,265.9,93.6,265.9z"/>
	<path d="M101.5,253.9c0-1,0.8-1.8,1.8-1.8c1,0,1.8,0.8,1.8,1.8c0,1-0.8,1.8-1.8,1.8C102.3,255.7,101.5,254.9,101.5,253.9z
		 M101.8,268.2v-11.3h3v11.3H101.8z"/>
	<path d="M115.4,268.2v-6.8c0-1.6-0.8-2.1-2.1-2.1c-1.2,0-2.1,0.7-2.6,1.3v7.6h-3v-11.3h3v1.5c0.7-0.8,2.1-1.7,4-1.7
		c2.5,0,3.7,1.4,3.7,3.6v8H115.4z"/>
</g>
<g>
	<path d="M309.2,260.6c0-4.8,3.6-8.1,8.3-8.1c3.4,0,5.4,1.8,6.5,3.8l-2.9,1.4c-0.7-1.3-2.1-2.3-3.7-2.3c-2.9,0-4.9,2.2-4.9,5.1
		s2.1,5.1,4.9,5.1c1.6,0,3-1,3.7-2.3l2.9,1.4c-1.1,1.9-3.1,3.8-6.5,3.8C312.9,268.6,309.2,265.4,309.2,260.6z"/>
	<path d="M326,268.4v-11.3h3v1.5c0.8-1,2.2-1.8,3.6-1.8v2.9c-0.2,0-0.5-0.1-0.8-0.1c-1,0-2.3,0.6-2.8,1.3v7.5H326z"/>
	<path d="M333.7,262.7c0-3.2,2.2-5.9,6-5.9c3.7,0,6,2.7,6,5.9s-2.2,5.9-6,5.9C336,268.6,333.7,265.9,333.7,262.7z M342.6,262.7
		c0-1.8-1-3.3-2.9-3.3c-1.8,0-2.9,1.5-2.9,3.3c0,1.8,1,3.3,2.9,3.3C341.6,266,342.6,264.5,342.6,262.7z"/>
	<path d="M346.9,266.9l1.3-2.2c0.8,0.8,2.5,1.6,3.9,1.6c1.3,0,1.9-0.5,1.9-1.2c0-1.9-6.7-0.3-6.7-4.8c0-1.9,1.6-3.6,4.6-3.6
		c1.9,0,3.4,0.7,4.5,1.5l-1.2,2.1c-0.7-0.7-2-1.3-3.3-1.3c-1.1,0-1.8,0.5-1.8,1.1c0,1.7,6.7,0.3,6.7,4.8c0,2.1-1.8,3.6-4.9,3.6
		C350,268.6,348.1,268,346.9,266.9z"/>
	<path d="M358.1,266.9l1.3-2.2c0.8,0.8,2.5,1.6,3.9,1.6c1.3,0,1.9-0.5,1.9-1.2c0-1.9-6.7-0.3-6.7-4.8c0-1.9,1.6-3.6,4.6-3.6
		c1.9,0,3.4,0.7,4.5,1.5l-1.2,2.1c-0.7-0.7-2-1.3-3.3-1.3c-1.1,0-1.8,0.5-1.8,1.1c0,1.7,6.7,0.3,6.7,4.8c0,2.1-1.8,3.6-4.9,3.6
		C361.2,268.6,359.3,268,358.1,266.9z"/>
</g>
</svg>
