<?xml version="1.0" encoding="utf-8"?>
<!-- Generator: Adobe Illustrator 19.2.1, SVG Export Plug-In . SVG Version: 6.00 Build 0)  -->
<svg version="1.1" id="Layer_6" xmlns="http://www.w3.org/2000/svg" xmlns:xlink="http://www.w3.org/1999/xlink" x="0px" y="0px"
	 viewBox="0 0 331.2 194.6" style="enable-background:new 0 0 331.2 194.6;" xml:space="preserve">
<style type="text/css">
	.st0{fill:#FFFFFF;}
	.st1{fill:#C73727;}
	.st2{fill:#34AAB4;}
	.st3{fill:#068CA0;}
	.st4{fill:#014250;}
	.st5{fill:#002933;}
	.st6{fill:#D2D3D3;}
	.st7{fill:#A91E22;}
	.st8{fill:#A9BE38;}
	.st9{fill:#649740;}
	.st10{fill:none;stroke:#E3A625;stroke-width:12;stroke-miterlimit:10;}
	.st11{fill:#FFFFFF;stroke:#FFFFFF;stroke-width:9;stroke-miterlimit:10;}
</style>
<g id="wind">
	<path class="st0" d="M120.8,79.9H9.3c-2.6,0-4.7-2-4.7-4.6c0-2.6,2.1-4.6,4.7-4.6h111.5c8.9,0,16.2-7.3,16.2-16.4
		c0-8.9-7.3-16.2-16.2-16.2c-8.9,0-16.3,7.3-16.3,16.2c0,2.3,0.5,4.5,1.4,6.6c1,2.3,0,5.1-2.3,6.2c-2.4,1-5.2,0-6.2-2.4
		c-1.4-3.3-2.1-6.7-2.1-10.3c0-14.1,11.4-25.5,25.5-25.5c14,0,25.5,11.4,25.5,25.5C146.3,68.4,134.8,79.9,120.8,79.9z"/>
	<path class="st0" d="M125.6,125.2c-11.3,0-20.6-9.3-20.6-20.7c0-1.6,0.2-3.1,0.5-4.6c0.6-2.6,3.1-4.1,5.6-3.5
		c2.5,0.6,4.1,3,3.5,5.6c-0.2,0.8-0.3,1.6-0.3,2.6c0,6.3,5.1,11.4,11.3,11.4c6.3,0,11.4-5.1,11.4-11.4s-5.1-11.4-11.4-11.4L30.2,93
		c-2.6,0-4.6-2.1-4.6-4.6c0-2.6,2.1-4.6,4.7-4.6l0,0l95.4,0.1c11.4,0,20.6,9.3,20.6,20.7C146.3,115.9,137,125.2,125.6,125.2z"/>
	<path class="st0" d="M4.7,65.1c-2.6,0-4.7-2-4.7-4.6c0-2.6,2-4.6,4.6-4.6l46.5-0.1c6.3,0,11.4-5.1,11.4-11.4
		c0-6.3-5.1-11.4-11.4-11.4c-6.3,0-11.4,5.1-11.4,11.4c0,0.9,0.1,1.8,0.3,2.6c0.6,2.5-0.9,5-3.5,5.7c-2.5,0.6-5-0.9-5.6-3.5
		c-0.4-1.6-0.6-3.2-0.6-4.8c0-11.4,9.3-20.7,20.7-20.7c11.4,0,20.7,9.3,20.7,20.7c0,11.4-9.3,20.7-20.7,20.7L4.7,65.1L4.7,65.1z"/>
</g>
<g>
	<path class="st1" d="M260.3,19.7c-11.4,0-21.5,9.4-25.9,23.9c-0.4,1.3-0.1,2.8,0.7,3.9c0.8,1.1,2.1,1.8,3.5,1.8h42.6
		c1.4,0,2.7-0.7,3.5-1.8c0.8-1.1,1.1-2.5,0.7-3.9C280.9,28.7,271.6,19.7,260.3,19.7z M281.4,45.1c0,0.1-0.1,0.1-0.2,0.1h-42.6
		c-0.1,0-0.2,0-0.2-0.1c0-0.1-0.1-0.2,0-0.2c3.9-12.8,12.5-21,22-21c9.3,0,17.2,7.9,21.1,21C281.5,44.9,281.5,45,281.4,45.1z"/>
	<path class="st1" d="M260.3,19.7c-0.1,0-0.3,0-0.4,0l0,0v4.1l0,0c0.1,0,0.3,0,0.4,0c9.3,0,17.2,7.9,21.1,21c0,0.1,0,0.2,0,0.2
		c0,0.1-0.1,0.1-0.2,0.1h-21.3v4.1h21.3c1.4,0,2.7-0.7,3.5-1.8c0.8-1.1,1.1-2.5,0.7-3.9C280.9,28.7,271.6,19.7,260.3,19.7
		L260.3,19.7z"/>
	<path class="st2" d="M267,40.7h-14.2c-4.2,0-7.6,3.4-7.6,7.6v5.4h29.5v-5.4C274.6,44.1,271.2,40.7,267,40.7z"/>
	<path class="st3" d="M259.9,40.7v13.1h14.8v-5.4c0-4.2-3.4-7.6-7.6-7.6H259.9z"/>
	<path class="st4" d="M261.6,31.2h-3.4c-1.2,0-2.3,0.9-2.5,2.1l-1.5,7.4h11.5l-1.5-7.4C263.9,32.1,262.8,31.2,261.6,31.2z"/>
	<path class="st5" d="M259.9,31.2v9.5h5.8l-1.5-7.4c-0.2-1.2-1.3-2.1-2.5-2.1H259.9z"/>
	<path class="st0" d="M250.1,53.8h1.1V40.9c-0.4,0.1-0.7,0.2-1.1,0.3V53.8z"/>
	<rect x="256.3" y="40.7" class="st0" width="1.1" height="13.1"/>
	<rect x="262.6" y="40.7" class="st6" width="1.1" height="13.1"/>
	<path class="st6" d="M268.9,53.8h1.1V41.3c-0.4-0.1-0.7-0.3-1.1-0.4V53.8z"/>
	<circle class="st0" cx="259.9" cy="123.3" r="64.3"/>
	<path class="st7" d="M249.9,127.1c3.5,6,11.2,8.1,17.2,4.6c6-3.5,43.3-39.6,43.3-39.6s-49.9,14.3-56,17.7
		C248.5,113.3,246.4,121,249.9,127.1z"/>
	<path class="st1" d="M259.1,61.9c-0.6,0-1.1,0.5-1.1,1.1v14.2c0,0.6,0.5,1.1,1.1,1.1c0.6,0,1.1-0.5,1.1-1.1V63
		C260.2,62.4,259.7,61.9,259.1,61.9z"/>
	<path class="st1" d="M259.1,165.4c-0.6,0-1.1,0.5-1.1,1.1v17.1c0,0.6,0.5,1.1,1.1,1.1c0.6,0,1.1-0.5,1.1-1.1v-17.1
		C260.2,165.9,259.7,165.4,259.1,165.4z"/>
	<path class="st7" d="M320.2,123h-17.1c-0.6,0-1.1,0.5-1.1,1.1c0,0.6,0.5,1.1,1.1,1.1h17.1c0.6,0,1.1-0.5,1.1-1.1
		C321.3,123.5,320.8,123,320.2,123z"/>
	<path class="st1" d="M216.7,121.4h-17.1c-0.6,0-1.1,0.5-1.1,1.1c0,0.6,0.5,1.1,1.1,1.1h17.1c0.6,0,1.1-0.5,1.1-1.1
		C217.7,121.9,217.3,121.4,216.7,121.4z"/>
	<path class="st8" d="M217.5,80.8c-0.3-0.3-0.9-0.3-1.2,0c-0.3,0.3-0.3,0.9,0,1.2l7.1,7.1c0.2,0.2,0.4,0.3,0.6,0.3s0.4-0.1,0.6-0.3
		c0.3-0.3,0.3-0.9,0-1.2L217.5,80.8z"/>
	<path class="st9" d="M301.2,79.7l-7.1,7.1c-0.3,0.3-0.3,0.9,0,1.2c0.2,0.2,0.4,0.3,0.6,0.3c0.2,0,0.4-0.1,0.6-0.3l7.1-7.1
		c0.3-0.3,0.3-0.9,0-1.2C302,79.3,301.5,79.3,301.2,79.7z"/>
	<path class="st9" d="M296.5,157.5c-0.3-0.3-0.9-0.3-1.2,0c-0.3,0.3-0.3,0.9,0,1.2l7.1,7.1c0.2,0.2,0.4,0.3,0.6,0.3
		c0.2,0,0.4-0.1,0.6-0.3c0.3-0.3,0.3-0.9,0-1.2L296.5,157.5z"/>
	<path class="st8" d="M224.5,158.6l-7.1,7.1c-0.3,0.3-0.3,0.9,0,1.2c0.2,0.2,0.4,0.3,0.6,0.3s0.4-0.1,0.6-0.3l7.1-7.1
		c0.3-0.3,0.3-0.9,0-1.2C225.4,158.3,224.8,158.3,224.5,158.6z"/>
	<path class="st2" d="M253.7,110.3c-6,3.5-43.3,39.6-43.3,39.6s49.9-14.3,56-17.7c6-3.5,8.1-11.2,4.6-17.2
		C267.5,108.9,259.7,106.9,253.7,110.3z"/>
	<circle class="st4" cx="259.9" cy="121.9" r="3.7"/>
	<path class="st5" d="M259.9,118.3v7.4l0,0c2,0,3.7-1.6,3.7-3.7C263.6,119.9,261.9,118.3,259.9,118.3L259.9,118.3z"/>
	<path class="st4" d="M259.9,52c-39.3,0-71.3,32-71.3,71.3s32,71.3,71.3,71.3c39.3,0,71.3-32,71.3-71.3S299.2,52,259.9,52z
		 M259.9,187.3c-35.3,0-64-28.7-64-64s28.7-64,64-64c35.3,0,64,28.7,64,64S295.2,187.3,259.9,187.3z"/>
	<path class="st5" d="M259.9,52v7.3h0c35.3,0,64,28.7,64,64s-28.7,64-64,64l0,0v7.3l0,0c39.3,0,71.3-32,71.3-71.3S299.2,52,259.9,52
		L259.9,52z"/>
	<path class="st4" d="M263.8,81H263c-0.2,0-0.4,0.2-0.4,0.4V89l-7-7.9c-0.1-0.1-0.2-0.1-0.3-0.1h-1.1c-0.2,0-0.4,0.2-0.4,0.4V93
		c0,0.2,0.2,0.4,0.4,0.4h0.9c0.2,0,0.4-0.2,0.4-0.4v-8.3l7.7,8.8c0.1,0.1,0.2,0.1,0.3,0.1h0.4c0.2,0,0.4-0.2,0.4-0.4V81.4
		C264.2,81.2,264,81,263.8,81z"/>
	<path class="st5" d="M263,81c-0.2,0-0.4,0.2-0.4,0.4V89l-2.7-3.1v3.8l3.2,3.7c0.1,0.1,0.2,0.1,0.3,0.1h0.4c0.2,0,0.4-0.2,0.4-0.4
		V81.4c0-0.2-0.2-0.4-0.4-0.4H263z"/>
</g>
<line class="st10" x1="152.8" y1="10.7" x2="152.8" y2="144"/>
<g>
	<line class="st11" x1="123.8" y1="137.3" x2="123.8" y2="151.8"/>
	<line class="st11" x1="106.7" y1="132.5" x2="99.4" y2="145.1"/>
	<line class="st11" x1="94.2" y1="119.8" x2="81.6" y2="127.1"/>
</g>
<g>
	<line class="st11" x1="123.8" y1="15" x2="125.6" y2="0.6"/>
	<line class="st11" x1="106.2" y1="17.6" x2="100.6" y2="4.2"/>
	<line class="st11" x1="92.3" y1="28.6" x2="80.7" y2="19.9"/>
</g>
</svg>
