<?xml version="1.0" encoding="utf-8"?>
<!-- Generator: Adobe Illustrator 19.2.1, SVG Export Plug-In . SVG Version: 6.00 Build 0)  -->
<svg version="1.1" id="Layer_9" xmlns="http://www.w3.org/2000/svg" xmlns:xlink="http://www.w3.org/1999/xlink" x="0px" y="0px"
	 viewBox="0 0 423.1 291.7" style="enable-background:new 0 0 423.1 291.7;" xml:space="preserve">
<style type="text/css">
	.st0{fill:#BF552A;}
	.st1{fill:#FCB017;}
	.st2{fill:#FFCF2D;}
	.st3{fill:#F47629;}
	.st4{fill:#DF5126;}
	.st5{fill:#EF413B;}
	.st6{fill:#5A9398;}
</style>
<ellipse class="st0" cx="268.1" cy="266.2" rx="155" ry="25.5"/>
<g>
	<path class="st1" d="M204.3,183.9c17.6-39.4,31.7-80.6,34.2-122.4c-3,4.8-6.3,9.7-9.8,14.5c-27.9,38.3-35.1,67.1-35.1,67.1
		s-0.5-12,3.5-29.2c4.6-19.8,0.8-34.5,0.8-34.5s-6.3,13.2-24.3,37.9c-18,24.7-44.7,58.9-25,98.1c13.7,27.4,44.9,44.3,75.7,52
		C202.7,243.9,192.5,211.4,204.3,183.9z"/>
	<path class="st1" d="M332.1,90.3c-19.8-31.5-19.4-55.5-19.4-55.5s-4.6,5-11.7,23.3c-3.5,9.1-4.9,18.3-5.4,25.3
		c4.7,25.5,9.6,51,2.3,75.9c-12.2,36.7-34.8,76.9-26.3,112.8c38.6-1.4,100.6-12.5,114-55.9C400.2,169.4,351.8,121.8,332.1,90.3z"/>
	<path class="st2" d="M297.9,159.5c7.3-25,2.3-50.5-2.3-75.9c-0.5,7.1-0.1,11.9-0.1,11.9s-9.6-17.8-11.8-45.3
		C281.5,22.5,267.1,0,267.1,0s-8,28.8-28.5,61.5c-2.5,41.8-16.6,83-34.2,122.4c-11.8,27.5-1.6,60.1,20.1,83.6
		c13.3,3.3,26.6,5,38.4,5c2.8,0,5.7-0.1,8.9-0.2C263.1,236.4,285.7,196.2,297.9,159.5z"/>
	<path class="st3" d="M295.1,167.6c-2.7-2.5-5.6-5-8.9-7.8c-20.2-17-23.4-37.7-23.4-37.7s-14.8,15.7-20.1,38.1
		c-6.6,27.9,3.1,41.5,3.1,41.5s-9.9-10-13.8-17.1c-5.7-10.4-8.8-22.4-8.8-22.4s-11.5,11.3-20.7,26.7c-8.2,25,0.5,53.3,18.8,75
		c13.8,6.2,29.6,8.5,41.6,8.5c3,0,6-0.1,8.9-0.2C263.7,239,282.5,202.1,295.1,167.6z"/>
	<path class="st4" d="M345.9,219.9c0-27.9-31.1-47.9-31.1-47.9s5.7,12.2,7.1,25.3c1.7,16.1-3.4,32.5-3.4,32.5s1.8-17.6-0.6-27.3
		c-3.2-12.7-9.2-22.2-22.9-34.9c-12.5,34.5-31.4,71.4-23.4,104.6C324.1,270.4,345.9,251.5,345.9,219.9z"/>
	<path class="st4" d="M202.5,188.9c-7.6,12.7-13.6,28.1-10.4,42.5c3.6,16,15.3,26.3,29.2,32.5C203,242.2,194.3,213.9,202.5,188.9z"
		/>
	<path class="st5" d="M260.8,194.3c0,0,2,11.2-1.8,22.1c-3.8,10.9-12.7,15.1-14.5,29c-1.8,13.9,8.8,28,24.1,27
		c1.1-0.1,2.1-0.2,3.1-0.3c-4.6-19.2-0.2-39.7,6.8-60.2C269.8,201.9,260.8,194.3,260.8,194.3z"/>
</g>
<g id="wind">
	<path class="st6" d="M94.5,229.1H5.1c-2.8,0-5.1-2.2-5.1-5c0-2.8,2.3-5.1,5.1-5.1h89.4c9.8,0,17.7-8,17.7-18
		c0-9.8-8-17.8-17.7-17.8c-9.8,0-17.8,8-17.8,17.8c0,2.5,0.6,5,1.6,7.2c1.1,2.6,0,5.6-2.6,6.8c-2.6,1.1-5.7,0-6.8-2.6
		c-1.5-3.6-2.3-7.4-2.3-11.3c0-15.4,12.5-27.9,28-27.9c15.3,0,27.9,12.5,27.9,27.9C122.4,216.5,109.8,229.1,94.5,229.1z"/>
	<path class="st6" d="M76.8,278.9c-12.4,0-22.6-10.2-22.6-22.7c0-1.7,0.2-3.4,0.6-5.1c0.7-2.8,3.4-4.5,6.1-3.8
		c2.8,0.6,4.5,3.3,3.8,6.1c-0.2,0.9-0.3,1.8-0.3,2.8c0,6.9,5.6,12.5,12.4,12.5c6.9,0,12.5-5.6,12.5-12.5c0-6.9-5.6-12.5-12.5-12.5
		l-71.7-0.1c-2.8,0-5.1-2.3-5.1-5.1c0-2.8,2.3-5.1,5.1-5.1l0,0l71.7,0.1c12.5,0,22.6,10.1,22.6,22.7
		C99.5,268.7,89.4,278.9,76.8,278.9z"/>
	<path class="st6" d="M5.1,213c-2.8,0-5.1-2.2-5.1-5.1c0-2.8,2.2-5.1,5.1-5.1l33.4-0.2c6.9,0,12.5-5.6,12.5-12.5
		c0-6.9-5.6-12.5-12.5-12.5c-6.9,0-12.5,5.6-12.5,12.5c0,1,0.1,2,0.3,2.9c0.7,2.8-1,5.5-3.8,6.2c-2.7,0.7-5.5-1-6.1-3.8
		c-0.4-1.7-0.7-3.5-0.7-5.3c0-12.5,10.2-22.7,22.7-22.7c12.5,0,22.7,10.2,22.7,22.7c0,12.5-10.2,22.7-22.7,22.7L5.1,213L5.1,213z"/>
</g>
</svg>
