<?xml version="1.0" encoding="utf-8"?>
<!-- Generator: Adobe Illustrator 19.2.1, SVG Export Plug-In . SVG Version: 6.00 Build 0)  -->
<svg version="1.1" id="Layer_8" xmlns="http://www.w3.org/2000/svg" xmlns:xlink="http://www.w3.org/1999/xlink" x="0px" y="0px"
	 viewBox="0 0 230.8 179" style="enable-background:new 0 0 230.8 179;" xml:space="preserve">
<style type="text/css">
	.st0{fill:#613A18;}
	.st1{fill:#412412;}
	.st2{fill:#38312F;}
	.st3{fill:#446641;}
	.st4{fill:none;stroke:#446641;stroke-width:5;stroke-linecap:round;stroke-linejoin:round;stroke-miterlimit:10;}
	.st5{fill:#E76924;}
</style>
<g>
	<path class="st0" d="M146.9,94c-1.3,1.7-2.2,4-2.2,4s2,4.3,4.1,8.8c1.7,3.6,4,11.9,4,11.9l5.3-15.9c-2.8-3.3-8.8-10.7-8.8-10.7
		S148.2,92.3,146.9,94z"/>
	<g>
		<path class="st1" d="M189.6,139.9l13.2-36.2l0-0.1c3.3-11.5-5-18.5-10.2-21.4c-4.3,14.3-10.8,34.7-17.7,55.4
			C179.8,137.9,184.8,138.6,189.6,139.9z"/>
		<path class="st0" d="M166.6,137.2c2.6,0.1,5.4,0.2,8.2,0.4c6.9-20.7,13.4-41.1,17.7-55.4c-1.4-0.8-2.6-1.3-3.3-1.6
			c-1.3-0.5-2.6-0.9-3.8-1.2l-2.7,4.1l-1-4.9c-0.6-0.1-1.1-0.2-1.7-0.2c-7.9,19.7-16.5,39.2-24.8,58.7
			C159.1,137.1,162.9,137.1,166.6,137.2z"/>
	</g>
	<path class="st1" d="M155.3,137c8.3-19.5,17-39,24.8-58.7c-6.3-0.7-11.8,0.9-16,6c-1.2,1.5-2.2,3-2.8,4.5L144,137
		C147.8,137,151.5,137,155.3,137z"/>
</g>
<path class="st2" d="M230.8,179c-6.2-22-25.4-38.5-48.7-40.7c-10.1-9.6-23.8-15.6-38.9-15.6c-21.4,0-40,12-49.6,29.5
	c-3.6-1.7-7.7-2.7-11.9-2.7C66.4,149.5,54,162,54,177.3c0,0.6,0,1.1,0.1,1.7H230.8z"/>
<g>
	<g>
		<path class="st3" d="M11.1,5l18.1,3.8c5.8,1.2,10.1,5.8,11.3,11.4l63.8,13.5l3.6-17.3l29.1,6.1c12.7,2.7,20.8,15.2,18.1,27.9
			c-2.3,11-12.2,18.7-23,18.7c-1.6,0-3.2-0.2-4.8-0.5l-29.1-6.1l3.6-17.3L38,31.7c-2.7,3.8-7.2,6.1-11.9,6.1c-1,0-2-0.1-3-0.3
			L5,33.7L11.1,5 M25.2,30.7c3.6,0,6.8-2.5,7.6-6.2c0.9-4.2-1.8-8.3-6-9.2l-9.6-2L14,28.5l9.6,2C24.2,30.7,24.7,30.7,25.2,30.7
			 M11.1,0C8.7,0,6.7,1.6,6.2,4L0.1,32.6c-0.3,1.3,0,2.7,0.7,3.8c0.7,1.1,1.9,1.9,3.2,2.2l18.1,3.8c1.3,0.3,2.7,0.4,4,0.4
			c5.2,0,10.1-2.1,13.8-5.6l56,11.8l-2.6,12.4c-0.6,2.7,1.2,5.4,3.9,5.9l29.1,6.1c1.9,0.4,3.9,0.6,5.9,0.6
			c13.4,0,25.2-9.5,27.9-22.6c1.6-7.4,0.1-15-4-21.4c-4.2-6.4-10.6-10.8-18-12.4l-29.1-6.1c-0.3-0.1-0.7-0.1-1-0.1
			c-2.3,0-4.4,1.6-4.9,4l-2.6,12.4l-56-11.8c-2.4-6-7.7-10.6-14.2-12L12.1,0.1C11.7,0,11.4,0,11.1,0L11.1,0z M20,24.7l1.1-5.4l4.7,1
			c1,0.2,1.5,0.8,1.7,1.2c0.2,0.4,0.6,1.1,0.4,2.1c-0.3,1.3-1.4,2.2-2.7,2.2c-0.2,0-0.4,0-0.6-0.1L20,24.7L20,24.7z"/>
	</g>
	<path class="st4" d="M115.8,49.9c4.2,0.9,8.4-1.8,9.2-6c0.9-4.2-1.8-8.4-6-9.2"/>
	<line class="st4" x1="105.4" y1="15.4" x2="95.8" y2="63.3"/>
	<line class="st4" x1="39.9" y1="34.9" x2="43.4" y2="18.2"/>
</g>
<g>
	<g>
		<path class="st5" d="M174.3,92.9c3.2,0,3.2-5,0-5C171.1,87.9,171.1,92.9,174.3,92.9L174.3,92.9z"/>
	</g>
</g>
<g>
	<g>
		<path class="st5" d="M191,107.6c3.2,0,3.2-5,0-5C187.8,102.6,187.8,107.6,191,107.6L191,107.6z"/>
	</g>
</g>
<g>
	<g>
		<path class="st5" d="M172.3,124.2c3.2,0,3.2-5,0-5C169.1,119.2,169.1,124.2,172.3,124.2L172.3,124.2z"/>
	</g>
</g>
<g>
	<g>
		<path class="st5" d="M165.6,112.2c3.2,0,3.2-5,0-5C162.4,107.2,162.4,112.2,165.6,112.2L165.6,112.2z"/>
	</g>
</g>
</svg>
