<?xml version="1.0" encoding="utf-8"?>
<!-- Generator: Adobe Illustrator 19.2.1, SVG Export Plug-In . SVG Version: 6.00 Build 0)  -->
<svg version="1.1" id="Layer_10" xmlns="http://www.w3.org/2000/svg" xmlns:xlink="http://www.w3.org/1999/xlink" x="0px" y="0px"
	 viewBox="0 0 324.5 218.8" style="enable-background:new 0 0 324.5 218.8;" xml:space="preserve">
<style type="text/css">
	.st0{fill:#613A18;}
	.st1{fill:#412412;}
	.st2{fill:#A75C2A;}
	.st3{fill:#83381B;}
	.st4{fill:none;stroke:#6AA557;stroke-width:5;stroke-miterlimit:10;}
	.st5{fill:none;stroke:#F1CC1E;stroke-width:6;stroke-miterlimit:10;}
	.st6{fill:none;stroke:#F1CC1E;stroke-width:6;stroke-linecap:round;stroke-miterlimit:10;}
</style>
<g>
	<path class="st0" d="M168.3,212.2c2.9-1.6,5.5-4.3,5.5-4.3s-0.2-7.2-0.7-14.8c-0.3-6,1.3-19.1,1.3-19.1l-16.7,19.2
		c2,6.2,6.1,20.1,6.1,20.1S165.5,213.8,168.3,212.2z"/>
	<path class="st0" d="M162.3,100.2l7.9-13.9c-0.3,0.7-14.1,3.9-14.1,3.9s-1.5,2.6-1.9,4.9c-0.3,2.3-0.3,3.3-0.3,3.3L162.3,100.2z"/>
	<g>
		<path class="st1" d="M188.4,64.4L95.4,166.1l-0.1,0.1c-11.4,14.3-3.7,28.9,1.9,36.1c25.5-31.4,72.4-85.7,106.4-123.5L188.4,64.4z"
			/>
		<path class="st0" d="M105.6,210.4l6.2-4.2l-1.5,7.5c0.7,0.5,1.5,0.9,2.2,1.3C150,176.3,190,140,226.9,100.8l-23.3-22
			c-34,37.8-80.9,92.1-106.4,123.5c1.5,2,2.9,3.4,3.7,4.1C102.4,207.8,104,209.2,105.6,210.4z"/>
	</g>
	<path class="st1" d="M138.4,215.8c2.6-1.4,4.8-3,6.6-4.6l91.9-100.9l-10-9.4C190,140,150,176.3,112.4,214.9
		C120.8,219.5,129.5,220.5,138.4,215.8z"/>
	<path class="st2" d="M183.3,94c2,4.6,5,8.8,8.8,12.2c11.9,11,24.5,16.2,37.5,9.4c12.9-6.8,14.5-19.3,14.5-19.3l-5.5-3.6l6.2-1.9
		c0,0-0.9-13.2-12.6-23.5c-9.9-8.7-30.6-17.1-43.8-3c-6.7,7.2-7,23.1-7,23.1l-28.1,34.9L183.3,94z"/>
	<ellipse transform="matrix(0.6734 -0.7393 0.7393 0.6734 5.1365 185.0895)" class="st3" cx="212" cy="86.7" rx="18.7" ry="23.6"/>
	<ellipse transform="matrix(0.6734 -0.7393 0.7393 0.6734 5.1364 185.0897)" class="st2" cx="212" cy="86.7" rx="9.1" ry="13.9"/>
</g>
<g>
	<line class="st4" x1="285.5" y1="6.1" x2="322.2" y2="97"/>
	<path class="st4" d="M304.4,2.5c-3.6-0.1-7.6,2-10.1,5.9s-2.9,8.3-1.3,11.6c3.6,0.1,7.6-2,10.1-5.9S306,5.8,304.4,2.5z"/>
	<path class="st4" d="M316.5,32.5c-3.6-0.1-7.6,2-10.1,5.9c-2.5,3.8-2.9,8.3-1.3,11.6c3.6,0.1,7.6-2,10.1-5.9S318.1,35.8,316.5,32.5
		z"/>
	<path class="st4" d="M274.4,28.9c2.6-2.6,6.9-3.8,11.4-2.8c4.5,1,7.8,4,9,7.4c-2.6,2.6-6.9,3.8-11.4,2.8
		C279,35.4,275.6,32.4,274.4,28.9z"/>
	<path class="st4" d="M286.5,58.9c2.6-2.6,6.9-3.8,11.4-2.8c4.5,1,7.8,4,9,7.4c-2.6,2.6-6.9,3.8-11.4,2.8
		C291.1,65.4,287.7,62.4,286.5,58.9z"/>
</g>
<g>
	<circle class="st5" cx="40.4" cy="89.6" r="37.4"/>
	<polyline class="st6" points="37.6,70.2 37.6,94.1 57.1,94.1 	"/>
</g>
</svg>
