<?xml version="1.0" encoding="utf-8"?>
<!-- Generator: Adobe Illustrator 19.2.1, SVG Export Plug-In . SVG Version: 6.00 Build 0)  -->
<svg version="1.1" id="Layer_1" xmlns="http://www.w3.org/2000/svg" xmlns:xlink="http://www.w3.org/1999/xlink" x="0px" y="0px"
	 viewBox="0 0 283.9 167" style="enable-background:new 0 0 283.9 167;" xml:space="preserve">
<style type="text/css">
	.st0{fill:none;stroke:#5A9399;stroke-width:2;stroke-linecap:round;stroke-linejoin:round;stroke-miterlimit:10;}
	.st1{fill:none;stroke:#5A9399;stroke-width:6;stroke-linecap:round;stroke-linejoin:round;stroke-miterlimit:10;}
	.st2{fill:#412412;}
	.st3{fill:#613A18;}
	.st4{fill:#446540;stroke:#446540;stroke-miterlimit:10;}
	.st5{fill:#9E1D20;}
	.st6{fill:#CA2127;}
	.st7{fill:#EF413B;}
	.st8{fill:#DC1F26;}
	.st9{fill:#E6DDBE;}
</style>
<g>
	<path class="st0" d="M29.5,65c2.1,0,3.9,1.6,4.2,3.6v30.6c0,1.8-1.2,3.3-2.9,3.7c-0.3,0.1-0.9,0.7-0.7,1.6c0.1,0.6,0.7,1.3,1.6,1.3
		h4.8c2.1,0,3.8-1.7,3.8-3.8V65.6c0,0,0,0,0,0c0-1,0.8-1.9,1.9-1.9c0.1,0,0.1,0,0.1,0"/>
	<path class="st0" d="M17.7,47.2c-2.4,3.1-3.8,6.9-3.8,11c0,4.3,1.5,8.2,4.1,11.4c4.2-2.5,9.6-4.5,15.6-5.5
		c3.7-0.6,7.2-0.8,10.5-0.6c0.7-1.9,1-3.9,1-6c0-2.2-0.4-4.3-1.1-6.2c-2.1,0.3-4.2,0.4-6.5,0.4C29.7,51.7,22.6,50,17.7,47.2z"/>
	<path class="st0" d="M21.8,66.7c-4.7-4.9-4.6-12.7,0.3-17.5"/>
</g>
<circle class="st1" cx="33.1" cy="61.7" r="30.1"/>
<line class="st1" x1="58.9" y1="47" x2="7.5" y2="75.6"/>
<g>
	<path class="st2" d="M261.4,77.4c-42.8-5.2-118.2-2.6-118.2-2.6l-19.3,26.6c0,0-75.1,40-102.1,56c0,0,0,0,0,0
		C25.4,163.6,32,167,32,167s79-55,82.8-54.2c3.8,0.8,25.7,2.2,27.1,0.6c1.4-1.6-5-8.4-6-10.6c-1-2.2,5.9-14.2,9.5-16.2
		c2.7-1.5,76.7-10.3,114.8-5.8C260.5,79.7,260.9,78.6,261.4,77.4z"/>
	<path class="st3" d="M265.5,68.7c-38-2.9-115.4,4-114.8,2.5c0.4-1,5.7-8.3,11.3-15.4c-3.2,0.3-6.3,0.5-9.5,0.7
		c-2.8,0.1-5.6-0.4-8.3-1.4c-10.7,12.5-23.1,27.5-25.2,29c-3.4,2.4-4.5,12.6-11.1,15.2c-6.5,2.7-89,44.1-89,44.1s-1,7.8,2.7,14
		c27-16,102.1-56,102.1-56l19.3-26.6c0,0,75.4-2.6,118.2,2.6C262.5,74.4,263.9,71.5,265.5,68.7z"/>
</g>
<path class="st4" d="M278.6,136.2c0.5-0.9,0.7-2,0.7-3c0-3.7-3-6.8-6.8-6.8c-1.4,0-2.7,0.4-3.9,1.2c-0.2-0.3-0.4-0.5-0.7-0.7
	c0.1-0.6,0.2-1.3,0.2-1.9c0-4.1-2.9-7.5-6.9-8.2c0-0.2,0-0.4,0-0.6c0-4-3.3-7.3-7.3-7.3c-4,0-7.3,3.3-7.3,7.3c0,0.2,0,0.4,0,0.6
	c-4,0.6-6.9,4.1-6.9,8.2c0,0.6,0.1,1.3,0.2,1.9c-1.8,1.8-2.9,4.3-2.9,7c0,5.4,4.4,9.8,9.8,9.8c0.3,0,0.6,0,0.8,0
	c1.1,1.8,2.8,3,4.8,3.4c0,0,0.1,0,0.1,0h0.8v13.8c0,0.3,0.3,0.6,0.6,0.6c0.3,0,0.6-0.3,0.6-0.6V147h0.8c0,0,0.1,0,0.1,0
	c2-0.4,3.7-1.7,4.8-3.4c0.3,0,0.6,0,0.8,0c0.3,0,0.5,0,0.8,0c0.4,3.5,3.3,6.1,6.9,6.1c1.1,0,2.2-0.3,3.2-0.8v11.9
	c0,0.3,0.3,0.6,0.6,0.6c0.3,0,0.6-0.3,0.6-0.6v-11.9c1,0.5,2.1,0.8,3.2,0.8c3.8,0,6.9-3.1,6.9-6.9
	C283.4,139.8,281.4,137.1,278.6,136.2z M260.1,142.3c-0.3,0-0.5,0.1-0.6,0.3c-0.9,1.6-2.4,2.8-4.1,3.1h-0.7v-3.5
	c0-0.3-0.3-0.6-0.6-0.6c-0.3,0-0.6,0.3-0.6,0.6v3.5h-0.7c-1.8-0.4-3.3-1.5-4.1-3.1c-0.1-0.2-0.4-0.3-0.6-0.3c-0.4,0-0.7,0.1-1.1,0.1
	c-4.7,0-8.6-3.8-8.6-8.6c0-2.4,1-4.7,2.8-6.3c0.2-0.2,0.2-0.4,0.2-0.6c-0.2-0.6-0.3-1.3-0.3-1.9c0-3.7,2.8-6.7,6.4-7
	c0.2,0,0.3-0.1,0.4-0.2c0.1-0.1,0.1-0.3,0.1-0.5c-0.1-0.3-0.1-0.7-0.1-1c0-3.4,2.8-6.1,6.1-6.1s6.1,2.8,6.1,6.1c0,0.3,0,0.7-0.1,1
	c0,0.2,0,0.3,0.1,0.5c0.1,0.1,0.3,0.2,0.4,0.2c3.7,0.3,6.4,3.4,6.4,7c0,0.7-0.1,1.3-0.3,1.9c-0.1,0.2,0,0.5,0.2,0.6
	c1.8,1.6,2.8,3.9,2.8,6.3c0,4.7-3.9,8.6-8.6,8.6C260.8,142.4,260.5,142.4,260.1,142.3z M276.4,148.5c-1.1,0-2.2-0.3-3.2-1v-1.7
	c0-0.3-0.3-0.6-0.6-0.6c-0.3,0-0.6,0.3-0.6,0.6v1.7c-0.9,0.6-2,1-3.2,1c-3,0-5.4-2.2-5.7-5.1c4.5-0.9,7.8-4.9,7.8-9.6
	c0-1.9-0.5-3.7-1.5-5.2c0.9-0.6,2-1,3.2-1c3.1,0,5.6,2.5,5.6,5.5c0,1.1-0.3,2.2-0.9,3.1c-0.1,0.2-0.1,0.4-0.1,0.6
	c0.1,0.2,0.2,0.3,0.4,0.4c2.6,0.6,4.5,2.9,4.5,5.6C282.1,145.9,279.6,148.5,276.4,148.5z"/>
<g>
	<path class="st5" d="M205.9,60.5l-6.7-1.2c2.6,35.7,17.6,35.4,17.6,35.4L205.9,60.5z"/>
	<path class="st6" d="M210.1,63.1l-6.8,0.5c11.2,34,25.6,30.1,25.6,30.1L210.1,63.1z"/>
	<path class="st5" d="M214.1,62.6l-6.6,1.4c15.9,32.1,29.6,26.1,29.6,26.1L214.1,62.6z"/>
	<ellipse transform="matrix(0.9935 -0.1137 0.1137 0.9935 -6.4983 21.8176)" class="st2" cx="188" cy="67.9" rx="3.5" ry="3.5"/>
	<ellipse transform="matrix(0.9935 -0.1138 0.1138 0.9935 -6.5796 22.045)" class="st2" cx="189.8" cy="68.7" rx="3.5" ry="3.5"/>
	<ellipse transform="matrix(0.8656 -0.5007 0.5007 0.8656 -9.1193 106.1997)" class="st2" cx="193.3" cy="70.1" rx="3.5" ry="3.5"/>
	<ellipse transform="matrix(0.8656 -0.5008 0.5008 0.8656 -8.8498 107.1944)" class="st2" cx="195.3" cy="70.1" rx="3.5" ry="3.5"/>
	<path class="st6" d="M166.6,19.7c-0.1-0.1-2,0.5-4.5,2.1c-2.5,1.5-5.2,4.3-5.2,4.3s3,1.4,5.3,1.8c2.3,0.4,4.8,0.7,4.8,0.7
		S170.2,25.5,166.6,19.7z"/>
	<path class="st2" d="M172.7,31.1c5.3-1.3,13.2-6.1,9.7-12.7c-2.6-4.7-9.3-4.8-14.1-2.4c-1.4,1.9-1.8,3.7-1.8,3.7
		c-0.9,3.8,0.7,9.9,1.4,12.2C169.5,31.9,171.1,31.6,172.7,31.1z"/>
	<path class="st7" d="M167.7,45.1c1.1,8.6,5.3,19.1,18.8,24c3.8,1.4,8.1,2.6,12.6,3c0.7,0.1,1.3,0.1,2,0.1
		C195.2,58,183.1,47.4,167.7,45.1z"/>
	<path class="st5" d="M178.2,6.1c-4.5,3.6-7.5,7.6-7.5,8l16.5,1c1.1-5.5,3.2-15.1,3.2-15.1S182.7,2.5,178.2,6.1z"/>
	<path class="st8" d="M213.3,53.7c-3.6-9.2-11.8-19.3-12.5-20.2c-0.6-0.9-1.9-5.2-7.5-13.8c-5.6-8.6-13.9-9.5-20.1-7.4
		c-2.5,0.8-4.1,2.3-5.1,3.7c4.8-2.4,11.6-2.3,14.1,2.4c3.5,6.6-4.4,11.4-9.7,12.7c-1.6,0.5-3.2,0.8-4.8,0.8
		c0.1,0.3-1.1,6.1-0.2,13.2c15.4,2.2,27.6,12.8,33.3,27.1c9.1,0.1,17.8-3.9,17.8-3.9S216.8,62.6,213.3,53.7z"/>
	<circle class="st9" cx="175.2" cy="20.6" r="2.6"/>
	<circle class="st2" cx="173.2" cy="19.7" r="2.4"/>
	<path class="st6" d="M187.9,46.9l5,4.7c0,0,15.9,3.7,25.6,3.1c9.8-0.6,13.6-8.5,13.6-8.5L187.9,46.9z"/>
	<path class="st5" d="M185.4,43.1l2.5,3.8c0,0,26.9,2,37.1-0.7c10.2-2.8,12.5-12,12.5-12L185.4,43.1z"/>
	<path class="st6" d="M185,38.8l0.5,4.2c0,0,33.8-3.1,44.2-7.2c10.4-4.2,11.6-14.2,11.6-14.2L185,38.8z"/>
	<path class="st5" d="M203.8,23.3c-18.4,5.4-23.1,14.4-21,21.1c1.9,5.8,10.4,7.4,12.3,7.7c8.8,1.6,13.2-8.6,12.4-19.2l19.5-5.1
		c11.9-3.7,17.7-16.9,17.7-16.9S219.1,18.8,203.8,23.3z"/>
</g>
</svg>
