<?xml version="1.0" encoding="utf-8"?>
<!-- Generator: Adobe Illustrator 19.2.1, SVG Export Plug-In . SVG Version: 6.00 Build 0)  -->
<svg version="1.1" id="Layer_2" xmlns="http://www.w3.org/2000/svg" xmlns:xlink="http://www.w3.org/1999/xlink" x="0px" y="0px"
	 viewBox="0 0 449.1 261.2" style="enable-background:new 0 0 449.1 261.2;" xml:space="preserve">
<style type="text/css">
	.st0{fill:#F4D975;}
	.st1{fill:none;stroke:#E3A626;stroke-width:6;stroke-linecap:round;stroke-miterlimit:10;}
	.st2{fill:#C0552A;}
</style>
<path class="st0" d="M365.4,199.6L254.1,25.5c-21.8-34-57-34-78.8,0L64,199.6c-21.8,34-6.7,61.6,33.7,61.6h234
	C372.1,261.2,387.2,233.6,365.4,199.6z M232.7,214.3h-36v-30.9h36V214.3z M234.3,95.1l-10.6,70.4h-18.2L195,95.1V79.7h39.3V95.1z"/>
<g>
	<path class="st1" d="M86.2,53.4c-13.9,0-13.9-7.8-27.7-7.8c-13.9,0-13.9,7.8-27.7,7.8S16.9,45.7,3,45.7"/>
	<path class="st1" d="M86.2,69.1c-13.9,0-13.9-7.8-27.7-7.8c-13.9,0-13.9,7.8-27.7,7.8S16.9,61.4,3,61.4"/>
	<path class="st1" d="M86.2,86.2c-13.9,0-13.9-7.8-27.7-7.8c-13.9,0-13.9,7.8-27.7,7.8S16.9,78.4,3,78.4"/>
</g>
<g>
	<g id="raindrop_10_">
		<path class="st2" d="M409.6,182.2c-21.8,0-39.5-17.9-39.5-39.9c0-20.7,32.5-57.8,36.3-61.9c1.6-1.8,4.8-1.8,6.4,0
			c3.7,4.2,36.3,41.3,36.3,61.9C449.1,164.3,431.3,182.2,409.6,182.2z M409.6,89.8c-10.9,12.8-30.9,39.2-30.9,52.5
			c0,17.2,13.8,31.2,30.9,31.2c17,0,30.9-14,30.9-31.2C440.4,129,420.5,102.6,409.6,89.8z"/>
	</g>
	<g id="raindrop_11_">
		<path class="st2" d="M409.6,165.1c-7.3,0-13.2-6-13.2-13.4c0-6.9,10.9-19.4,12.2-20.8c0.6-0.6,1.6-0.6,2.1,0
			c1.3,1.4,12.2,13.8,12.2,20.8C422.8,159.1,416.9,165.1,409.6,165.1z"/>
	</g>
</g>
</svg>
