<?xml version="1.0" encoding="utf-8"?>
<!-- Generator: Adobe Illustrator 19.2.1, SVG Export Plug-In . SVG Version: 6.00 Build 0)  -->
<svg version="1.1" id="Layer_1" xmlns="http://www.w3.org/2000/svg" xmlns:xlink="http://www.w3.org/1999/xlink" x="0px" y="0px"
	 viewBox="0 0 502.2 278.3" style="enable-background:new 0 0 502.2 278.3;" xml:space="preserve">
<style type="text/css">
	.st0{fill:#5E7D37;}
	.st1{fill:#CEAC7A;}
	.st2{fill:#8D6E42;}
	.st3{fill:#5A3914;}
	.st4{fill:#806239;}
	.st5{fill:#30352D;}
	.st6{fill:#838891;}
	.st7{fill:#76656B;}
	.st8{fill:#BAB6B5;}
	.st9{fill:#969387;}
	.st10{fill:#9B8F8F;}
	.st11{fill:#D4CFCD;}
	.st12{fill:none;stroke:#C0562A;stroke-width:6;stroke-linecap:round;stroke-linejoin:round;stroke-miterlimit:10;}
	.st13{fill:#6BA557;stroke:#6BA557;stroke-miterlimit:10;}
</style>
<g>
	<ellipse class="st0" cx="250.4" cy="149.1" rx="179.1" ry="78.3"/>
	<ellipse class="st1" cx="250.4" cy="140" rx="143.9" ry="65"/>
	<ellipse class="st2" cx="250.4" cy="140" rx="81.1" ry="36.6"/>
	<path class="st3" d="M194.5,166.5c14.6,6.3,34.2,10.1,55.9,10.1s41.4-3.9,55.9-10.1c-14.6-6.3-34.2-10.1-55.9-10.1
		S209,160.3,194.5,166.5z"/>
	<path class="st1" d="M256.7,98.7c-32.4,0-61.8,2.1-83.3,5.6c-0.9,1.1-1.4,2.3-1.5,3.5c-0.5,5,5.6,9.3,13.6,9.6
		c7.4,0.3,13.9-3,15.1-7.5c1.4,0.2,2.7,0.3,4.2,0.4c5.9,0.2,11.5-0.8,16.1-2.8c1.6,0.9,3.7,1.4,6,1.5c3.4,0.1,6.4-0.8,8.5-2.3
		c2.4,1,5.3,1.7,8.5,1.8c5.2,0.2,10.1-1.1,13.4-3.4c1.9,1.3,4.5,2.1,7.5,2.2c2.7,0.1,5.2-0.4,7.2-1.3c3.6,2.3,8.6,3.9,14.2,4.1
		c2.7,0.1,5.2-0.1,7.6-0.6c3.6,3.5,9.7,5.8,16.8,6.1c11.7,0.4,21.8-5.1,22.8-12.4C312.6,100.4,285.9,98.7,256.7,98.7z"/>
	<path class="st1" d="M251.7,78.1c18.5,0,36,1.3,51.1,3.5c-4.9-5.9-12.4-9.7-20.7-9.7c-3.8,0-7.5,0.8-10.8,2.2
		c-3.6-3.3-8.4-5.3-13.6-5.3c-4.4,0-8.5,1.4-11.9,3.8c-1.8-0.9-3.8-1.5-5.9-1.5c-1.5,0-3,0.3-4.4,0.8c-2.4-1.4-5.2-2.2-8.1-2.2
		c-5.7,0-10.8,3-13.7,7.4c-3-1.8-6.5-2.9-10.2-2.9c-7.2,0-13.5,3.9-16.9,9.6C204.6,80.3,227.2,78.1,251.7,78.1z"/>
	<path class="st4" d="M186.6,190.8c-2.9-1.1-5.4-3.6-8.4-4.4c-3-0.9-5.8,0.5-8.5-1.4c-3-2.1-2.3-5.9-4.7-8.3
		c-5.6-5.6-17.2-5.2-24.7-8.1c3-6,10.8-7.4,5.6-15.1c-1.2-1.7-2.6-3-4.6-3.6c-1-0.3-8.9-0.1-9.1-0.9c-1.6-5.6,6.7-6.2,9.5-9.1
		c5.4-5.5-0.1-9.3-3.3-14c-3.2-4.7,0.4-5.9,5-7.7c3.8-1.5,10.6-5.4,9.5-10.6c-1.5-7.2-7.1,1.7-10.3,3c-6.5,2.7-6.9-2.6-5.3-6.8
		c-1.3,0.8-2.7,1.7-4,2.9c-11.4,9.8-16.7,29.1-14.5,43.7c1.2,7.9-0.3,20.1,5.2,27.5c5.1,6.8,14.4,7.5,21.8,10.1c3.5,1.3,7,3,9.2,6.2
		c1.2,1.9,1.5,4.2,2.1,6.4c6.5,0.5,13,0.8,19.6,0.7c2.2,0,4.5-0.1,6.7-0.1c3.8-1.5,7.9-2.6,11.8-3.1c2.1-0.3,3.9,0.1,5.5,0.6l0,0
		C199.2,193.2,190.9,192.4,186.6,190.8z"/>
	<path class="st4" d="M392.4,122.6c-0.1-4.9-1.1-4.9-4.6-8.1c-3.6-3.3-6-7.6-10-10.5c-5.5-3.9-12.2-6.5-18.2-9.5
		c-15.3-7.5-32.3-9.9-47.8-16.7c-19.2-8.4-41.2-6.1-61.8-7.5c-16.2-1.1-31,0.3-46.8,3.6c-13.3,2.8-26.5,4.9-38.9,10.5
		c-4.9,2.2-9.1,5.2-13.6,8.2c-4,2.7-9.2,4.2-12,8.2c-0.6,0.8-1.1,1.8-1.5,2.8c4.4-2.6,9-3.5,14.4-4.9c10.2-2.5,19.7,0.6,28.1-7.3
		c2-1.9,2.7-5.4,4.8-7.1c2.4-1.9,5.5-0.5,8.7-0.4c5.7,0.2,11.9,1.1,17.5,0c4.7-1,8.6-4.9,13-4.7c7.9,0.4,16.4,0.9,24.6-0.5
		c3.8-0.6,4.4-1,8-0.3c3.6,0.8,7.4,2,11.2,2.6c7.8,1.1,16.2-0.6,23.9,0.8c5.2,1,18.1,7.8,22.8,2.8c2.1,3.5,1.8,6.1,6.5,7.3
		c3.9,1,8.5,0.7,12.5,1.1c3.2,0.3,5.5,1.9,7.5,3.8c2.3,2.2,3.4,5.7,6.6,6.9c4.5,1.7,20-2.4,17.9,6.4c-0.8,3.3-6.1,3.9-2,6.9
		c3,2.2,11.4,0.9,15.4,1.7c-2.8-0.5-8.4,2.9-9.1,5.6c-1.4,5.8,8.9,7.1,6.8,13.8c-0.9,2.7-5.8,10.2-8.3,11.5c-3.2,1.7-9-0.6-9.8,4.5
		c-0.4,2.5,1.7,3.7-0.4,6.8c-1.4,2.1-5.3,5.1-7.7,5.7c-2.6,0.7-5.5-0.6-8.1,0.4c-3.6,1.4-8.1,5.1-11.1,7.7c-5.1,4.4-7.4,9.7-14.4,10
		c-7.2,0.2-3.9,0.3-7.3,5.2c-6,8.8-23.2,13.2-33.2,14.1c-10.7,1-22.2,0.6-32.9,0.1c-11-0.5-22.7,0.4-33.5-2
		c-3.6-0.8-6.1-2.7-9.1-3.7c0.4,1.6,0.4,3-0.1,4.1c4.1,1,7.9,2.4,11.5,4.7c0.3,0.2,0.5,0.4,0.8,0.6c0.8,0,1.5,0,2.3,0
		c9.3,0,17.7-1.3,26.7-2.1c11.8-1.1,23.9,2.2,35.9,0.2c14.1-2.3,26.4-5.9,39.5-11.9c22.6-10.3,46-20.2,62.5-40
		c5-6,11.7-12.3,12.6-20.4C392.7,130.1,392.5,126.2,392.4,122.6z"/>
	<path class="st5" d="M121.7,91c-18.9,11.6,21.3,31.9,32.4,14.3c4.8-7.7,0.5-20.4-8.4-22.1C137.9,81.5,128.1,87,121.7,91z"/>
	<path class="st6" d="M380.3,113.7c-3.8,1.9-8.7,5.2-8.2,10.1c0.5,4.5,4,4.8,7.6,6c7.7,2.6,17.5,5.3,25.6,2.4
		c4.5-1.6,5.3-5.8,4.3-10.1c-6.3-4.8-19.2-12.7-27.5-9.2C381.6,113.1,381,113.3,380.3,113.7z"/>
	<path class="st7" d="M374,101.4c1.3-1.1,2.4-2.3,3-3.5c3.2-6.3-3.6-11.6-8.8-13.7c-5.9-2.4-22.4-5.8-25.4,1.7
		c-4.2,10.7,9.4,18.2,17.6,19.9C364.1,106.6,370.1,104.5,374,101.4z"/>
	<path class="st8" d="M384.7,155.8c9.6-0.7,19.8-3.4,24.5-11.5c5.5-9.5-3.5-14.2-12-14.4c-4.6-0.1-8.4,1.8-12.9,2.6
		c-5.6,1-10.9,2-15.8,5.3c-2.6,1.7-6.3,4.9-6.9,8.2c-1,6.3,8.7,9.9,13.6,10C378.2,156,381.4,156,384.7,155.8z"/>
	<path class="st9" d="M353.1,156.3c-3.6,3.1-4.8,7.8-1,14.3c4.9,8.6,16.9,8.4,26,8.5c13.9,0.2,23.7-16.1,8.8-24.8
		C379.3,150.1,360.7,149.8,353.1,156.3z"/>
	<path class="st6" d="M99,105.1c-3.9,1.9-6.9,4.9-8.4,9.3c-7.3,21.7,23.1,22.8,37.4,23c24,0.4,17.2-19.6,3.3-29.7
		C123.8,102.4,108.8,100.3,99,105.1z"/>
	<path class="st6" d="M359.7,198.8c3.9-1.9,6.9-5,8.3-9.3c7.2-21.7-23.2-22.7-37.5-22.9c-24-0.3-17.1,19.6-3.1,29.7
		C334.9,201.6,349.9,203.7,359.7,198.8z"/>
	<path class="st7" d="M99.3,132.5c-8.3,3.1-13.3,9.7-8.2,20.9c5.5,12.2,26.3,11.8,37.4,12c24,0.4,17.2-19.6,3.3-29.7
		C124.5,130.4,109.4,128.7,99.3,132.5z"/>
	<path class="st10" d="M284.7,81.3c6-1.9,9.8-6.3,6.4-14.1c-3.7-8.5-18.7-8.6-26.7-9c-17.3-0.8-12.8,12.9-3,20.1
		C266.4,82.2,277.3,83.6,284.7,81.3z"/>
	<path class="st9" d="M121.3,164.3c-3.9,1.1-7.1,2.6-9.1,4.4c-17,15.7,28.3,20.5,35.9,20.6c13.9,0.2,23.7-16.1,8.8-24.8
		C150.1,160.6,132.8,160.9,121.3,164.3z"/>
	<path class="st9" d="M323.6,71.1c-2,1.1-3.7,2.6-4.7,4.5c-8.8,15.8,14.8,20.7,18.7,20.8c7.2,0.2,12.3-16.2,4.6-24.9
		C338.7,67.5,329.6,67.7,323.6,71.1z"/>
	<path class="st9" d="M177,91.8c2-1.4,3.6-2.8,4.3-4.2c6.7-12.2-20.1-6.3-24.4-5c-8,2.5-10.5,13.7-0.3,15.8
		C161.2,99.4,171.1,95.9,177,91.8z"/>
	<path class="st8" d="M173.9,173.2c-0.9,0.1-1.7,0.3-2.6,0.5c-7.7,1.6-17,7.8-20.2,15.1c-4.4,10.2,4.4,16.7,14.1,18.4
		c12.4,2.2,32.7,2.8,35.2-12.8C203.4,175.5,189.3,170.8,173.9,173.2z"/>
	<path class="st11" d="M217.1,211.4c5.4,0.3,10.7,0.3,15.9-1.9c3.1-1.3,9.6-5.2,8.5-9.6c-0.9-3.5-6.7-4.9-9.6-5.8
		c-9.9-3-19.8-6.7-30.6-5.3c-6.9,0.9-8.1,7.8-5.8,13.3c2.5,5.8,7.6,8.3,13.7,8.7C211.9,211,214.5,211.2,217.1,211.4z"/>
	<path class="st11" d="M191.1,64.2c-5.1,1.7-10,3.7-14,7.6c-2.4,2.3-7,8.4-4.4,12c2.1,3,8.1,2.1,11.1,1.9c10.4-0.8,20.9-1,30.4-6.3
		c6.1-3.4,4.7-10.2,0.4-14.5c-4.4-4.5-10.2-4.9-15.9-3C196.2,62.6,193.6,63.3,191.1,64.2z"/>
	<path class="st8" d="M235.5,78.4c12.8-1,26.4-6.7,18.5-17c-3.3-4.3-10.4-4.9-16.8-5.3c-7.2-0.5-13.6-0.2-19.3,2.8
		c-3.7,2-8.1,5.3-9.1,8.5c-2.5,7.8,12.7,10.9,21.7,11.1C232.2,78.6,233.8,78.5,235.5,78.4z"/>
	<path class="st8" d="M302.4,84.4c9.4,2.7,22,2,22.2-7.9c0.1-4.2-4.5-6.6-8.7-8.6c-4.7-2.3-9.3-3.8-14.9-3.1c-3.6,0.5-8.5,1.8-11,4
		c-6,5.3,2.8,11.8,9,14.4C299.9,83.7,301.1,84.1,302.4,84.4z"/>
	<path class="st5" d="M302.3,208.4c11.9-0.7,25.9-6.2,22-16.9c-1.6-4.5-7.8-5.3-13.4-5.9c-6.3-0.7-12.2-0.5-18.2,2.4
		c-3.9,1.9-8.9,5.2-10.9,8.5c-4.7,7.9,8,11.5,16,11.9C299.2,208.5,300.7,208.4,302.3,208.4z"/>
	<path class="st6" d="M265.7,214.8c7.9-1,22.3-7.3,19.2-15.8c-1.5-4.1-8.8-7.5-12.1-10.1c-5.1-4.1-11-4.6-17.3-4.9
		c-7.8-0.4-14.6,5.9-16.4,13.8c-2.9,12.5,15,16.6,24,17.1C263.9,215,264.7,214.9,265.7,214.8z"/>
	<path class="st5" d="M369.9,98.8c-4.2,2.1-9.7,6.2-8,11.1c2.2,6.1,21.4,5,26.6,4.2c3.1-0.5,8.4-0.6,8.5-4.7
		c0.1-3.1-4.7-6.5-7.1-7.8c-4.3-2.4-13.4-5.6-18.3-3.5C371.2,98.2,370.6,98.4,369.9,98.8z"/>
</g>
<path class="st12" d="M485.9,24.3c-4.7-7.4-4.6-13.1-4.6-13.1s-1.1,1.2-2.8,5.5c-0.8,2.1-1.2,4.3-1.3,6c-0.1,1.7,0,2.8,0,2.8
	s-2.3-4.2-2.8-10.7C473.9,8.3,470.5,3,470.5,3s-1.9,6.8-6.7,14.5c-0.7,1.1-1.5,2.3-2.3,3.4c-6.6,9-8.3,15.9-8.3,15.9
	s-0.1-2.8,0.8-6.9c1.1-4.7,0.2-8.2,0.2-8.2s-1.5,3.1-5.7,9c-4.2,5.8-10.6,13.9-5.9,23.2c3.2,6.5,10.6,10.5,17.9,12.3
	c3.2,0.8,6.3,1.2,9.1,1.2c0.7,0,1.4,0,2.1,0c9.1-0.3,23.8-3,26.9-13.2C502,43,490.6,31.8,485.9,24.3z"/>
<g>
	<path class="st13" d="M55.4,277.8c-14.5,0-15.7-0.4-25.2-3.4l-0.3-0.1c-0.8-0.2-1.3-0.9-1.3-1.7v-36.2c0-0.4,0.2-0.9,0.4-1.2
		c5.3-6.2,13.3-16,14.3-18.5c0.2-0.4,0.5-1.1,0.9-1.8c1.1-2.1,2.6-5.3,3.7-8.4c1.2-3.4,4.1-5.7,7.4-5.7c2.3,0,4.4,1.2,5.7,3.2
		c2.8,4.3,0.8,10.1-1.2,15.7c-1.1,3.3-2.3,6.6-2.4,9.4h17.1c4.1,0,7.4,3.3,7.4,7.5c0,1.8-0.6,3.4-1.6,4.6c2.3,1.3,3.8,3.7,3.8,6.5
		c0,3.2-1.9,5.9-4.7,7c0.8,1.2,1.3,2.6,1.3,4.2c0,3.4-2.1,6.2-5.2,7.2c0.8,1.2,1.2,2.6,1.2,4.1c0,4.2-3.2,7.5-7.4,7.5
		c-3.2,0-6.1,0-8.6,0C58.8,277.8,57,277.8,55.4,277.8z M32.2,271.2c8.5,2.7,9.7,2.9,23.2,2.9c1.6,0,3.4,0,5.4,0c2.5,0,5.4,0,8.6,0
		c1.8,0,3.7-1.3,3.7-3.8c0-2.1-1.7-3.7-3.7-3.7c-1,0-1.8-0.8-1.8-1.8c0-1,0.8-1.8,1.8-1.8h4c1.8,0,3.7-1.4,3.7-3.8
		c0-2-1.7-3.7-3.7-3.7c-1,0-1.8-0.8-1.8-1.8c0-1,0.8-1.8,1.8-1.8h3.4c1.8,0,3.7-1.4,3.7-3.8c0-2.1-1.7-3.7-3.7-3.7h-2.2
		c-1,0-1.8-0.8-1.8-1.8c0-1,0.8-1.8,1.8-1.8c2,0,3.7-1.7,3.7-3.7c0-2.4-1.9-3.8-3.7-3.8H55.7c-0.9,0-1.7-0.7-1.8-1.6
		c-0.5-3.9,1-8.3,2.5-12.6c1.6-4.8,3.3-9.8,1.5-12.6c-0.6-1-1.5-1.5-2.6-1.5c-1.7,0-3.3,1.3-3.9,3.2c-1.1,3.3-2.8,6.6-3.9,8.8
		c-0.4,0.7-0.7,1.3-0.8,1.7c-1.6,3.7-12.1,16.2-14.5,18.9V271.2z"/>
</g>
<g>
	<path class="st13" d="M24.5,275.2H2.3c-1,0-1.8-0.8-1.8-1.8v-38c0-1,0.8-1.8,1.8-1.8h22.2c1,0,1.8,0.8,1.8,1.8v38
		C26.3,274.3,25.5,275.2,24.5,275.2z M4.2,271.5h18.5v-34.3H4.2V271.5z"/>
</g>
</svg>
