<?xml version="1.0" encoding="utf-8"?>
<!-- Generator: Adobe Illustrator 19.2.1, SVG Export Plug-In . SVG Version: 6.00 Build 0)  -->
<svg version="1.1" id="Layer_3" xmlns="http://www.w3.org/2000/svg" xmlns:xlink="http://www.w3.org/1999/xlink" x="0px" y="0px"
	 viewBox="0 0 547.8 317.5" style="enable-background:new 0 0 547.8 317.5;" xml:space="preserve">
<style type="text/css">
	.st0{fill:#5E7D37;}
	.st1{fill:#CEAC7A;}
	.st2{fill:#8D6E42;}
	.st3{fill:#5A3914;}
	.st4{fill:#806239;}
	.st5{fill:#30352D;}
	.st6{fill:#838891;}
	.st7{fill:#76656B;}
	.st8{fill:#BAB6B5;}
	.st9{fill:#969387;}
	.st10{fill:#9B8F8F;}
	.st11{fill:#D4CFCD;}
	.st12{fill:none;stroke:#5A9398;stroke-width:6;stroke-linecap:round;stroke-linejoin:round;stroke-miterlimit:10;}
	.st13{fill:#5A9398;}
	.st14{fill:none;stroke:#BF552A;stroke-width:6;stroke-linecap:round;stroke-linejoin:round;stroke-miterlimit:10;}
</style>
<g>
	<ellipse class="st0" cx="275.3" cy="169.3" rx="201.4" ry="88"/>
	<ellipse class="st1" cx="275.3" cy="159.1" rx="161.8" ry="73.1"/>
	<ellipse class="st2" cx="275.3" cy="159.1" rx="91.2" ry="41.2"/>
	<path class="st3" d="M212.4,188.9c16.4,7,38.5,11.4,62.9,11.4c24.4,0,46.6-4.3,62.9-11.4c-16.4-7-38.5-11.4-62.9-11.4
		C250.9,177.5,228.8,181.8,212.4,188.9z"/>
	<path class="st1" d="M282.4,112.6c-36.4,0-69.5,2.4-93.7,6.3c-1,1.2-1.6,2.5-1.7,4c-0.5,5.6,6.3,10.5,15.3,10.8
		c8.3,0.3,15.6-3.4,17-8.5c1.5,0.2,3.1,0.4,4.7,0.4c6.7,0.2,13-0.9,18.1-3.1c1.8,1,4.2,1.6,6.8,1.7c3.8,0.1,7.3-0.9,9.5-2.6
		c2.7,1.2,6,1.9,9.6,2.1c5.9,0.2,11.3-1.3,15.1-3.8c2.1,1.4,5.1,2.4,8.4,2.5c3,0.1,5.9-0.5,8.1-1.5c4.1,2.6,9.7,4.4,16,4.6
		c3,0.1,5.9-0.1,8.6-0.6c4.1,3.9,10.9,6.6,18.9,6.9c13.2,0.5,24.5-5.7,25.7-13.9C345.3,114.5,315.3,112.6,282.4,112.6z"/>
	<path class="st1" d="M276.8,89.4c20.9,0,40.5,1.4,57.5,3.9c-5.6-6.7-13.9-10.9-23.3-10.9c-4.3,0-8.4,0.9-12.1,2.5
		c-4-3.7-9.4-5.9-15.3-5.9c-5,0-9.6,1.6-13.3,4.3c-2-1.1-4.2-1.7-6.7-1.7c-1.7,0-3.4,0.3-4.9,0.9c-2.7-1.6-5.8-2.5-9.1-2.5
		c-6.4,0-12.1,3.3-15.4,8.3c-3.3-2-7.3-3.2-11.5-3.2c-8.1,0-15.2,4.4-19,10.8C223.9,91.9,249.3,89.4,276.8,89.4z"/>
	<path class="st4" d="M203.5,216.1c-3.2-1.3-6-4-9.4-5c-3.4-1-6.5,0.6-9.6-1.5c-3.4-2.4-2.6-6.6-5.3-9.4c-6.3-6.3-19.3-5.9-27.8-9.1
		c3.3-6.7,12.1-8.3,6.2-17c-1.3-1.9-2.9-3.4-5.2-4.1c-1.1-0.3-10-0.2-10.3-1c-1.8-6.3,7.5-7,10.7-10.3c6.1-6.2-0.1-10.5-3.7-15.7
		c-3.6-5.2,0.5-6.6,5.7-8.7c4.3-1.7,11.9-6.1,10.7-11.9c-1.6-8.2-8,1.9-11.6,3.4c-7.3,3-7.7-2.9-5.9-7.7c-1.5,0.9-3,1.9-4.5,3.2
		c-12.9,11-18.8,32.7-16.3,49.2c1.3,8.9-0.4,22.7,5.8,30.9c5.7,7.6,16.2,8.4,24.5,11.4c4,1.4,7.9,3.4,10.3,6.9
		c1.4,2.1,1.7,4.7,2.3,7.2c7.3,0.6,14.7,0.9,22.1,0.7c2.5,0,5-0.1,7.6-0.1c4.3-1.7,8.8-2.9,13.3-3.5c2.4-0.3,4.3,0.1,6.1,0.7l0,0
		C217.8,218.8,208.4,218,203.5,216.1z"/>
	<path class="st4" d="M435,139.5c-0.1-5.6-1.2-5.5-5.1-9.1c-4-3.7-6.8-8.6-11.3-11.8c-6.2-4.4-13.7-7.3-20.5-10.7
		c-17.2-8.5-36.4-11.1-53.8-18.8c-21.6-9.5-46.4-6.9-69.5-8.4c-18.2-1.2-34.9,0.3-52.6,4.1c-15,3.2-29.8,5.5-43.8,11.8
		c-5.5,2.5-10.3,5.8-15.2,9.2c-4.5,3.1-10.3,4.8-13.5,9.2c-0.6,0.9-1.2,2-1.6,3.1c5-2.9,10.1-4,16.2-5.5c11.5-2.9,22.1,0.7,31.6-8.2
		c2.3-2.1,3.1-6.1,5.4-8c2.7-2.1,6.2-0.6,9.8-0.4c6.4,0.2,13.4,1.3,19.7,0c5.3-1.1,9.7-5.5,14.6-5.3c8.9,0.4,18.4,1,27.7-0.5
		c4.2-0.7,5-1.2,9-0.3c4.1,0.9,8.3,2.3,12.6,2.9c8.8,1.2,18.2-0.7,26.9,0.9c5.9,1.1,20.4,8.8,25.6,3.2c2.4,4,2.1,6.8,7.3,8.2
		c4.4,1.1,9.5,0.7,14,1.2c3.6,0.4,6.1,2.2,8.4,4.3c2.6,2.4,3.8,6.4,7.4,7.8c5,1.9,22.5-2.7,20.1,7.2c-0.9,3.7-6.9,4.4-2.2,7.8
		c3.4,2.5,12.9,1.1,17.3,1.9c-3.1-0.6-9.5,3.2-10.2,6.4c-1.5,6.5,10,8,7.7,15.5c-1,3-6.6,11.5-9.3,13c-3.6,1.9-10.2-0.7-11,5
		c-0.4,2.8,1.9,4.2-0.4,7.6c-1.6,2.4-6,5.8-8.7,6.4c-3,0.7-6.2-0.7-9.1,0.5c-4.1,1.6-9.1,5.7-12.4,8.6c-5.7,5-8.3,10.9-16.1,11.2
		c-8.1,0.3-4.4,0.4-8.2,5.9c-6.8,9.9-26.1,14.8-37.3,15.8c-12.1,1.1-25,0.7-37.1,0.1c-12.4-0.6-25.5,0.4-37.7-2.3
		c-4.1-0.9-6.9-3-10.2-4.2c0.5,1.8,0.4,3.3-0.1,4.6c4.6,1.1,8.9,2.7,12.9,5.3c0.3,0.2,0.6,0.4,0.9,0.7c0.9,0,1.7,0,2.6,0
		c10.4,0,19.9-1.4,30-2.4c13.3-1.2,26.9,2.5,40.3,0.3c15.9-2.6,29.7-6.7,44.5-13.4c25.5-11.6,51.7-22.7,70.3-44.9
		c5.6-6.7,13.2-13.8,14.2-23C435.4,147.9,435.1,143.6,435,139.5z"/>
	<path class="st5" d="M130.6,103.9c-21.3,13,24,35.9,36.5,16c5.4-8.6,0.5-22.9-9.4-24.9C148.8,93.3,137.8,99.5,130.6,103.9z"/>
	<path class="st6" d="M421.5,129.4c-4.3,2.2-9.8,5.9-9.3,11.4c0.5,5,4.6,5.4,8.6,6.7c8.7,2.9,19.7,6,28.8,2.7
		c5.1-1.8,5.9-6.5,4.8-11.4c-7.1-5.4-21.6-14.3-30.9-10.4C422.9,128.8,422.2,129.1,421.5,129.4z"/>
	<path class="st7" d="M414.3,115.6c1.5-1.2,2.7-2.5,3.4-3.9c3.6-7.1-4-13.1-9.9-15.5c-6.7-2.7-25.2-6.6-28.6,2
		c-4.8,12,10.5,20.5,19.7,22.3C403.2,121.4,410,119.1,414.3,115.6z"/>
	<path class="st8" d="M426.3,176.8c10.8-0.8,22.2-3.8,27.6-13c6.2-10.7-3.9-16-13.5-16.2c-5.2-0.1-9.5,2.1-14.5,2.9
		c-6.3,1.1-12.3,2.3-17.8,6c-2.9,1.9-7.1,5.5-7.7,9.2c-1.2,7.1,9.8,11.1,15.2,11.3C419,177.1,422.6,177,426.3,176.8z"/>
	<path class="st9" d="M390.8,177.4c-4.1,3.5-5.4,8.8-1.2,16.1c5.5,9.7,19,9.4,29.2,9.6c15.7,0.3,26.7-18.1,9.9-27.8
		C420.3,170.4,399.4,170.1,390.8,177.4z"/>
	<path class="st6" d="M105.1,119.9c-4.3,2.2-7.8,5.6-9.4,10.4c-8.2,24.4,25.9,25.7,42.1,25.9c27,0.4,19.3-22,3.7-33.4
		C133,116.7,116.1,114.4,105.1,119.9z"/>
	<path class="st6" d="M398.3,225.1c4.3-2.2,7.8-5.6,9.4-10.5c8.1-24.4-26.1-25.5-42.2-25.7c-27-0.3-19.2,22.1-3.5,33.4
		C370.3,228.4,387.3,230.7,398.3,225.1z"/>
	<path class="st7" d="M105.4,150.6c-9.3,3.4-14.9,10.9-9.2,23.5c6.2,13.7,29.6,13.2,42.1,13.4c27,0.4,19.3-22,3.7-33.4
		C133.7,148.3,116.8,146.4,105.4,150.6z"/>
	<path class="st10" d="M313.9,93.1c6.8-2.1,11-7.1,7.2-15.8c-4.2-9.5-21.1-9.7-30.1-10.2c-19.5-0.9-14.4,14.5-3.4,22.6
		C293.4,94,305.5,95.7,313.9,93.1z"/>
	<path class="st9" d="M130.1,186.4c-4.4,1.3-8,3-10.2,5c-19.1,17.6,31.9,23.1,40.4,23.2c15.7,0.3,26.7-18.1,9.9-27.8
		C162.6,182.2,143.1,182.6,130.1,186.4z"/>
	<path class="st9" d="M357.7,81.6c-2.3,1.3-4.2,3-5.3,5c-9.9,17.8,16.6,23.2,21,23.4c8.2,0.3,13.9-18.2,5.1-28
		C374.6,77.5,364.4,77.8,357.7,81.6z"/>
	<path class="st9" d="M192.8,104.9c2.3-1.6,4-3.2,4.9-4.8c7.6-13.7-22.6-7.1-27.4-5.6c-9,2.8-11.8,15.4-0.4,17.8
		C175.1,113.4,186.1,109.5,192.8,104.9z"/>
	<path class="st8" d="M189.3,196.4c-1,0.2-1.9,0.3-2.9,0.5c-8.7,1.8-19.1,8.7-22.7,17c-5,11.5,5,18.8,15.8,20.7
		c14,2.5,36.8,3.2,39.6-14.4C222.5,198.9,206.6,193.7,189.3,196.4z"/>
	<path class="st11" d="M237.9,239.3c6,0.4,12,0.3,17.8-2.1c3.5-1.5,10.8-5.9,9.6-10.8c-1-4-7.5-5.6-10.8-6.5
		c-11.2-3.4-22.3-7.6-34.4-6c-7.7,1-9.1,8.8-6.5,15c2.8,6.5,8.6,9.3,15.4,9.8C232,238.9,234.9,239.2,237.9,239.3z"/>
	<path class="st11" d="M208.7,73.8c-5.7,1.9-11.3,4.1-15.8,8.5c-2.7,2.6-7.9,9.4-5,13.5c2.4,3.3,9.1,2.4,12.5,2.1
		c11.7-0.9,23.5-1.2,34.2-7.1c6.8-3.8,5.3-11.5,0.5-16.3c-5-5-11.4-5.5-17.9-3.4C214.3,72,211.5,72.8,208.7,73.8z"/>
	<path class="st8" d="M258.6,89.8c14.4-1.1,29.7-7.6,20.8-19.1c-3.7-4.8-11.7-5.5-18.9-6c-8-0.5-15.3-0.2-21.7,3.2
		c-4.1,2.2-9.1,6-10.2,9.6c-2.8,8.8,14.3,12.3,24.4,12.5C254.8,90,256.7,89.9,258.6,89.8z"/>
	<path class="st8" d="M333.8,96.6c10.6,3.1,24.8,2.3,24.9-8.9c0.1-4.7-5.1-7.4-9.8-9.7c-5.3-2.6-10.5-4.3-16.8-3.4
		c-4.1,0.6-9.6,2.1-12.4,4.5c-6.7,5.9,3.2,13.2,10.1,16.2C331,95.7,332.4,96.2,333.8,96.6z"/>
	<path class="st5" d="M333.7,235.9c13.3-0.8,29.1-7,24.7-19.1c-1.8-5-8.8-5.9-15.1-6.6c-7.1-0.8-13.7-0.6-20.5,2.7
		c-4.4,2.2-10.1,5.9-12.2,9.5c-5.2,8.9,9,12.9,18,13.4C330.2,236,332,236,333.7,235.9z"/>
	<path class="st6" d="M292.5,243.2c8.9-1.1,25.1-8.2,21.6-17.7c-1.7-4.7-9.8-8.4-13.6-11.4c-5.7-4.6-12.4-5.1-19.5-5.5
		c-8.7-0.4-16.4,6.7-18.4,15.5c-3.2,14.1,16.9,18.6,27,19.2C290.5,243.4,291.5,243.3,292.5,243.2z"/>
	<path class="st5" d="M409.8,112.7c-4.7,2.4-10.9,7-9,12.4c2.5,6.8,24.1,5.6,29.9,4.7c3.5-0.5,9.5-0.7,9.6-5.3
		c0.1-3.5-5.3-7.3-8-8.8c-4.8-2.7-15-6.3-20.6-4C411.2,112,410.5,112.3,409.8,112.7z"/>
</g>
<g>
	<circle class="st12" cx="506.8" cy="41" r="38"/>
	<g>
		<path class="st13" d="M501.9,38.5l0.3-0.3c6.9-0.3,9.6-2.1,9.6-5v-0.1c0-2.5-1.9-3.9-5-3.9c-3.1,0-5.7,1.3-8.2,3.8l-5-5.5
			c3.2-3.5,7.5-5.9,13.4-5.9c7.9,0,13.3,4.1,13.3,11.4V33c0,7-4.8,9.8-10.8,11l-0.6,3.3h-5.6L501.9,38.5z M501.3,51.7h8.9v8.8h-8.9
			V51.7z"/>
	</g>
</g>
<g>
	<g>
		<polygon class="st14" points="64.3,234.5 22.8,285.7 30.7,314.5 54.5,314.5 64.3,274.5 74.2,314.5 97.9,314.5 105.8,285.7 		"/>
		<line class="st14" x1="103.8" y1="283.1" x2="121.8" y2="305.6"/>
		<line class="st14" x1="24.9" y1="283.1" x2="6.6" y2="305.6"/>
	</g>
	<line class="st14" x1="3" y1="301.9" x2="10.2" y2="314.5"/>
	<line class="st14" x1="126.8" y1="301.9" x2="119.6" y2="314.5"/>
</g>
</svg>
