<?xml version="1.0" encoding="utf-8"?>
<!-- Generator: Adobe Illustrator 19.2.1, SVG Export Plug-In . SVG Version: 6.00 Build 0)  -->
<svg version="1.1" id="Layer_2" xmlns="http://www.w3.org/2000/svg" xmlns:xlink="http://www.w3.org/1999/xlink" x="0px" y="0px"
	 viewBox="0 0 228 187.4" style="enable-background:new 0 0 228 187.4;" xml:space="preserve">
<style type="text/css">
	.st0{fill:#613A18;}
	.st1{fill:#412412;}
	.st2{fill:#A75C2A;}
	.st3{fill:#83381B;}
	.st4{fill:#446541;}
	.st5{fill:none;stroke:#B4CD9A;stroke-width:4;stroke-miterlimit:10;}
</style>
<g>
	<path class="st0" d="M166.4,59.9c-2.4-0.8-5.4-0.9-5.4-0.9s-4.1,4-8.2,8.2c-3.3,3.4-11.8,9.3-11.8,9.3l20-0.5
		c2.5-4.4,8.4-14.2,8.4-14.2S168.9,60.8,166.4,59.9z"/>
	<path class="st0" d="M104.7,122.6l-12.2,2.8c0.5-0.2,9.7,6.1,9.7,6.1s2.3-0.5,3.9-1.5c1.5-1,2.1-1.6,2.1-1.6L104.7,122.6z"/>
	<g>
		<path class="st1" d="M70.1,126.4l108.1,0.2h0.1c14.3-0.9,18.7-13.1,19.9-20.2c-31.6,1.8-88,3.3-127.8,3.6L70.1,126.4z"/>
		<path class="st0" d="M198.5,97.3l-5.7-1.3l5.1-3.1c-0.1-0.7-0.3-1.3-0.4-2c-42.2-1.4-84.4-5.4-126.6-6.1L70.4,110
			c39.8-0.2,96.2-1.8,127.8-3.6c0.3-1.9,0.4-3.5,0.4-4.3C198.7,100.5,198.7,98.9,198.5,97.3z"/>
	</g>
	<path class="st1" d="M184.3,75.5c-2.2-0.8-4.2-1.2-6.2-1.4H71.1l-0.2,10.8c42.2,0.6,84.4,4.7,126.6,6.1
		C195.7,83.7,191.7,78.1,184.3,75.5z"/>
	<path class="st2" d="M90,113.7c1.6-3.6,2.4-7.6,2.5-11.5c0.1-12.7-3.6-22.8-14.4-26.7c-10.8-3.9-18.8,1.8-18.8,1.8l0.8,5.1
		l-4.4-2.6c0,0-7.2,7.4-7,19.7c0.2,10.4,6.2,26.8,21.4,27c7.7,0.1,17.1-8.1,17.1-8.1l35.1-2.1L90,113.7z"/>
	<ellipse class="st3" cx="70.6" cy="100.9" rx="14.7" ry="18.6"/>
	<ellipse class="st2" cx="70.6" cy="100.9" rx="7.1" ry="10.9"/>
</g>
<g>
	<g>
		<path class="st4" d="M100.5,19l0.6-0.1c9.8-1.6,19.6,3.2,24.4,11.9c4.8,8.7,3.6,19.5-2.9,27l-0.4,0.4l-0.6,0.1
			c-9.8,1.6-19.6-3.2-24.4-11.9c-4.8-8.7-3.6-19.5,2.9-27L100.5,19z M120.5,55.3c5.3-6.4,6.2-15.6,2.1-22.9
			c-4.1-7.3-12.3-11.4-20.5-10.3c-5.3,6.5-6.2,15.6-2.1,22.9C104.1,52.2,112.3,56.4,120.5,55.3z"/>
	</g>
	<g>
		<line class="st4" x1="121.4" y1="56.8" x2="101.9" y2="21.6"/>
		
			<rect x="110" y="19.1" transform="matrix(0.8747 -0.4846 0.4846 0.8747 -5.0085 59.0114)" class="st4" width="3.2" height="40.2"/>
	</g>
	<g>
		<line class="st4" x1="101.2" y1="20.4" x2="98.1" y2="14.7"/>
		<rect x="98.1" y="14.3" transform="matrix(0.8747 -0.4846 0.4846 0.8747 3.9648 50.4967)" class="st4" width="3.2" height="6.5"/>
	</g>
	<g>
		<line class="st4" x1="107.3" y1="53.3" x2="111.7" y2="40.4"/>
		
			<rect x="102.7" y="45.2" transform="matrix(0.3192 -0.9477 0.9477 0.3192 30.1612 135.6433)" class="st4" width="13.6" height="3.2"/>
	</g>
	<g>
		<line class="st4" x1="99.3" y1="46.1" x2="105.2" y2="28.6"/>
		
			<rect x="93.1" y="35.7" transform="matrix(0.3192 -0.9477 0.9477 0.3192 34.2418 122.3391)" class="st4" width="18.4" height="3.2"/>
	</g>
	<g>
		<line class="st4" x1="125.9" y1="43" x2="112.6" y2="39.8"/>
		
			<rect x="117.6" y="34.6" transform="matrix(0.2323 -0.9726 0.9726 0.2323 51.2534 147.7834)" class="st4" width="3.2" height="13.6"/>
	</g>
	<g>
		<line class="st4" x1="124" y1="32.4" x2="106.1" y2="28.1"/>
		
			<rect x="113.4" y="21.1" transform="matrix(0.232 -0.9727 0.9727 0.232 58.8975 135.1373)" class="st4" width="3.2" height="18.4"/>
	</g>
</g>
<g>
	<g>
		<path class="st4" d="M119.3,151.6l0.3,0.5c4.9,8.6,3.8,19.5-2.6,27c-6.5,7.5-17,10.2-26.3,6.7l-0.5-0.2l-0.3-0.5
			c-4.9-8.6-3.8-19.5,2.6-27.1c6.5-7.5,17-10.2,26.3-6.7L119.3,151.6z M92.3,183c7.9,2.7,16.8,0.4,22.2-6c5.4-6.4,6.4-15.5,2.5-22.9
			c-7.9-2.7-16.8-0.4-22.2,6C89.4,166.5,88.4,175.6,92.3,183z"/>
	</g>
	<g>
		<line class="st4" x1="91.2" y1="184.3" x2="117.4" y2="153.8"/>
		
			<rect x="84.2" y="167.5" transform="matrix(0.651 -0.7591 0.7591 0.651 -91.9569 138.1548)" class="st4" width="40.2" height="3.2"/>
	</g>
	<g>
		<line class="st4" x1="118.2" y1="152.8" x2="122.5" y2="147.8"/>
		
			<rect x="117.1" y="148.7" transform="matrix(0.651 -0.7591 0.7591 0.651 -72.1049 143.8118)" class="st4" width="6.5" height="3.2"/>
	</g>
	<g>
		<line class="st4" x1="89.6" y1="169.9" x2="103.2" y2="169.5"/>
		
			<rect x="89.6" y="168.1" transform="matrix(0.9995 -3.104269e-02 3.104269e-02 0.9995 -5.2225 3.0731)" class="st4" width="13.6" height="3.2"/>
	</g>
	<g>
		<line class="st4" x1="93.5" y1="159.9" x2="112" y2="159.4"/>
		
			<rect x="93.5" y="158" transform="matrix(0.9995 -3.104269e-02 3.104269e-02 0.9995 -4.9067 3.2664)" class="st4" width="18.4" height="3.2"/>
	</g>
	<g>
		<line class="st4" x1="105.7" y1="183.7" x2="104" y2="170.2"/>
		
			<rect x="103.2" y="170.2" transform="matrix(0.9926 -0.1212 0.1212 0.9926 -20.6822 14.0127)" class="st4" width="3.2" height="13.6"/>
	</g>
	<g>
		<line class="st4" x1="114.9" y1="178.3" x2="112.7" y2="160"/>
		
			<rect x="112.2" y="159.9" transform="matrix(0.9926 -0.1215 0.1215 0.9926 -19.7137 15.0857)" class="st4" width="3.2" height="18.4"/>
	</g>
</g>
<g>
	<g>
		<path class="st4" d="M184.9,17.6l0.3-0.5c5.8-8,16.2-11.6,25.7-8.8c9.5,2.8,16.4,11.3,17,21.2l0,0.6l-0.3,0.5
			c-5.8,8-16.2,11.6-25.7,8.8c-9.5-2.7-16.4-11.3-17-21.2L184.9,17.6z M224.7,29.1c-0.8-8.3-6.6-15.4-14.7-17.7
			c-8-2.3-16.7,0.6-21.8,7.2c0.8,8.3,6.6,15.4,14.7,17.7C210.9,38.6,219.6,35.7,224.7,29.1z"/>
	</g>
	<g>
		<line class="st4" x1="226.3" y1="29.6" x2="187.7" y2="18.4"/>
		
			<rect x="205.4" y="3.9" transform="matrix(0.277 -0.9609 0.9609 0.277 126.6179 216.2734)" class="st4" width="3.2" height="40.2"/>
	</g>
	<g>
		<line class="st4" x1="186.4" y1="18.1" x2="180.1" y2="16.2"/>
		
			<rect x="181.7" y="13.9" transform="matrix(0.2771 -0.9609 0.9609 0.2771 116.0225 188.5082)" class="st4" width="3.2" height="6.5"/>
	</g>
	<g>
		<line class="st4" x1="213.9" y1="37" x2="207.9" y2="24.8"/>
		
			<rect x="209.3" y="24.1" transform="matrix(0.8964 -0.4433 0.4433 0.8964 8.1484 96.6934)" class="st4" width="3.2" height="13.6"/>
	</g>
	<g>
		<line class="st4" x1="203.2" y1="37.6" x2="195" y2="21"/>
		
			<rect x="197.5" y="20.1" transform="matrix(0.8964 -0.4433 0.4433 0.8964 7.6427 91.2877)" class="st4" width="3.2" height="18.4"/>
	</g>
	<g>
		<line class="st4" x1="219.8" y1="16.6" x2="208.2" y2="23.8"/>
		
			<rect x="207.2" y="18.6" transform="matrix(0.8527 -0.5225 0.5225 0.8527 20.9729 114.7774)" class="st4" width="13.6" height="3.2"/>
	</g>
	<g>
		<line class="st4" x1="211" y1="10.5" x2="195.3" y2="20.1"/>
		
			<rect x="193.9" y="13.7" transform="matrix(0.8525 -0.5227 0.5227 0.8525 21.9711 108.4341)" class="st4" width="18.4" height="3.2"/>
	</g>
</g>
<g>
	<line class="st5" x1="37.5" y1="0.9" x2="1.8" y2="75.2"/>
	<path class="st5" d="M50.4,10.6c-2-2.3-5.6-3.6-9.4-2.9c-3.8,0.6-6.8,2.9-8,5.8c2,2.3,5.6,3.6,9.4,2.9
		C46.3,15.8,49.3,13.5,50.4,10.6z"/>
	<path class="st5" d="M38.7,35.2c-2-2.3-5.6-3.6-9.4-2.9c-3.8,0.6-6.8,2.9-8,5.8c2,2.3,5.6,3.6,9.4,2.9S37.5,38,38.7,35.2z"/>
	<path class="st5" d="M17,7c3.1,0.1,6.3,2.1,8.2,5.5s2,7.1,0.5,9.8c-3.1-0.1-6.3-2.1-8.2-5.5C15.6,13.4,15.5,9.6,17,7z"/>
	<path class="st5" d="M5.2,31.5c3.1,0.1,6.3,2.1,8.2,5.5s2,7.1,0.5,9.8c-3.1-0.1-6.3-2.1-8.2-5.5S3.7,34.2,5.2,31.5z"/>
</g>
</svg>
