<?xml version="1.0" encoding="utf-8"?>
<!-- Generator: Adobe Illustrator 19.2.1, SVG Export Plug-In . SVG Version: 6.00 Build 0)  -->
<svg version="1.1" id="Layer_10" xmlns="http://www.w3.org/2000/svg" xmlns:xlink="http://www.w3.org/1999/xlink" x="0px" y="0px"
	 viewBox="0 0 406.3 332.5" style="enable-background:new 0 0 406.3 332.5;" xml:space="preserve">
<style type="text/css">
	.st0{fill:#A3BFB6;}
	.st1{fill:none;stroke:#A3BFB6;stroke-width:7;stroke-miterlimit:10;}
	.st2{fill:#BF552A;}
	.st3{fill:none;stroke:#BF552A;stroke-width:5;stroke-linecap:round;stroke-linejoin:round;stroke-miterlimit:10;}
	.st4{fill:#F1F2F2;}
	.st5{fill:#414042;}
	.st6{fill:#1C75BC;}
	.st7{fill:#3981C3;}
</style>
<g id="raindrop_5_">
	<path class="st0" d="M77.7,108.2c-16.7,0-30.3-13.8-30.3-30.6c0-15.8,25-44.3,27.8-47.5c1.3-1.4,3.7-1.4,4.9,0
		C83,33.3,108,61.8,108,77.6C108,94.5,94.4,108.2,77.7,108.2z M77.7,37.3C69.3,47.2,54,67.4,54,77.6c0,13.2,10.6,24,23.7,24
		c13.1,0,23.7-10.8,23.7-24C101.4,67.4,86,47.2,77.7,37.3z"/>
</g>
<g id="raindrop_1_">
	<path class="st1" d="M19.5,94.2c-5.6,6.6-16,20.3-16,27.1c0,8.9,7.1,16.1,16,16.1c8.8,0,15.9-7.3,15.9-16.1
		C35.4,114.5,25.1,100.9,19.5,94.2z"/>
</g>
<g id="raindrop_2_">
	<path class="st1" d="M31.4,13.3c-4.1,4.8-11.6,14.7-11.6,19.7c0,6.4,5.2,11.7,11.6,11.7c6.4,0,11.6-5.3,11.6-11.7
		C43,28.1,35.5,18.2,31.4,13.3z"/>
</g>
<g>
	<g>
		<path class="st2" d="M392.2,124.2l0,18.5c0,6-3.6,11.1-8.7,13.4l0.1,65.2l17.6,0l0.1,29.7c0,12.9-10.5,23.5-23.5,23.6c0,0,0,0,0,0
			c-12.9,0-23.5-10.6-23.5-23.5l-0.1-29.7l17.6,0l-0.1-65.2c-5.2-2.3-8.8-7.4-8.8-13.4l0-18.5L392.2,124.2 M377.6,149.6
			C377.6,149.6,377.6,149.6,377.6,149.6c4.3,0,7.8-3.5,7.8-7.8l0-9.8l-15.5,0l0,9.8C369.8,146.1,373.3,149.6,377.6,149.6
			 M392.2,119.2C392.2,119.2,392.2,119.2,392.2,119.2l-29.3,0.1c-1.3,0-2.6,0.5-3.5,1.5c-0.9,0.9-1.5,2.2-1.5,3.5l0,18.5
			c0,6.6,3.4,12.7,8.8,16.3l0.1,57.2l-12.6,0c-2.8,0-5,2.2-5,5l0.1,29.7c0,15.7,12.8,28.5,28.5,28.5c0,0,0.1,0,0.1,0
			c7.6,0,14.7-3,20.1-8.4c5.4-5.4,8.3-12.6,8.3-20.2l-0.1-29.7c0-2.8-2.2-5-5-5c0,0,0,0,0,0l-12.6,0l-0.1-57.2
			c5.4-3.6,8.8-9.7,8.7-16.4l0-18.5c0-1.3-0.5-2.6-1.5-3.5C394.8,119.7,393.5,119.2,392.2,119.2L392.2,119.2z"/>
	</g>
	<path class="st3" d="M370.1,236c0,4.3,3.5,7.8,7.8,7.8c4.3,0,7.8-3.5,7.8-7.8"/>
	<line class="st3" x1="401.7" y1="218.6" x2="352.9" y2="219.2"/>
	<line class="st3" x1="369" y1="158.6" x2="386" y2="158.5"/>
</g>
<g>
	<g>
		<path class="st4" d="M214.3,241.9V20.4c0-10.2-8.3-18.5-18.5-18.5s-18.5,8.3-18.5,18.5v221.5c-16.3,7.1-27.8,23.5-27.8,42.4
			c0,25.6,20.7,46.3,46.3,46.3c25.6,0,46.3-20.7,46.3-46.3C242.1,265.3,230.7,249,214.3,241.9z"/>
		<path class="st5" d="M195.8,332.5c-26.6,0-48.2-21.6-48.2-48.2c0-18.7,10.9-35.7,27.8-43.7V20.4c0-11.3,9.2-20.4,20.4-20.4
			c11.3,0,20.4,9.2,20.4,20.4v220.2c16.9,7.9,27.8,24.9,27.8,43.7C244,310.9,222.4,332.5,195.8,332.5z M195.8,3.8
			c-9.2,0-16.6,7.5-16.6,16.6v222.7l-1.1,0.5c-16.2,7.1-26.6,23-26.6,40.7c0,24.5,19.9,44.4,44.4,44.4s44.4-19.9,44.4-44.4
			c0-17.6-10.5-33.6-26.6-40.7l-1.1-0.5V20.4C212.4,11.3,205,3.8,195.8,3.8z"/>
	</g>
	<path class="st6" d="M205.8,247.5v-75.3h-22v76c-14.8,5-25.5,19.1-25.5,35.6c0,20.8,16.8,37.6,37.6,37.6
		c20.8,0,37.6-16.8,37.6-37.6C233.5,266.5,221.8,251.9,205.8,247.5z"/>
	<rect x="177.3" y="35.1" class="st5" width="13.1" height="3.8"/>
	<rect x="177.3" y="53.4" class="st5" width="13.1" height="3.8"/>
	<rect x="177.3" y="71.6" class="st5" width="13.1" height="3.8"/>
	<rect x="177.3" y="89.9" class="st5" width="13.1" height="3.8"/>
	<rect x="177.3" y="108.1" class="st5" width="13.1" height="3.8"/>
	<rect x="177.3" y="126.4" class="st5" width="13.1" height="3.8"/>
	<rect x="177.3" y="144.6" class="st5" width="13.1" height="3.8"/>
	<rect x="177.3" y="162.9" class="st5" width="13.1" height="3.8"/>
	<rect x="177.3" y="181.1" class="st5" width="13.1" height="3.8"/>
	<rect x="177.3" y="199.3" class="st5" width="13.1" height="3.8"/>
	<rect x="177.3" y="217.6" class="st5" width="13.1" height="3.8"/>
	<circle class="st7" cx="207.5" cy="270" r="8.8"/>
	<circle class="st7" cx="214.7" cy="289.1" r="5.3"/>
</g>
</svg>
